<?xml version="1.0" encoding="UTF-8" standalone="no"?>
<svg width="1081px" height="325px" viewBox="0 0 1081 325" version="1.1" xmlns="http://www.w3.org/2000/svg" xmlns:xlink="http://www.w3.org/1999/xlink" xmlns:sketch="http://www.bohemiancoding.com/sketch/ns">
    <!-- Generator: Sketch 3.3.2 (12043) - http://www.bohemiancoding.com/sketch -->
    <title>Path 2</title>
    <desc>Created with Sketch.</desc>
    <defs></defs>
    <g id="Page-1" stroke="none" stroke-width="1" fill="none" fill-rule="evenodd" sketch:type="MSPage">
        <g id="Artboard-2-Copy-2" sketch:type="MSArtboardGroup" transform="translate(-125.000000, -81.000000)" fill="#000000">
            <path d="M1039.4573,236 L1040.40023,235.5 L1040.40023,140 L1104.40023,140 L1104.40023,244.317565 L1115.4007,266.24563 L1186,336.844931 L1140.74517,382.099765 L1070.69993,312.054525 L1040.78695,300 L944.400235,300 L944.400235,236 L1039.4573,236 L1039.4573,236 Z M289.942935,236 L289,235.5 L289,140 L225,140 L225,244.317565 L213.999536,266.24563 L143.400235,336.844931 L188.655069,382.099765 L258.700309,312.054525 L288.613281,300 L385,300 L385,236 L289.942935,236 L289.942935,236 Z M665.273132,129.339844 L411.75,129.339844 L342.460938,81.0273438 L197.794212,128.651357 L197.794212,227.542969 L184.399588,254.491385 L125.316406,313.574567 L125.316406,398.492188 L206.205078,405.521484 L273.774414,337.757812 L300.117188,322.308594 L396.082031,322.308594 L442.527602,235.5 L665.273132,235.5 L888.018663,235.5 L934.464233,322.308594 L1030.42908,322.308594 L1056.77185,337.757812 L1124.34119,405.521484 L1205.22986,398.492188 L1205.22986,313.574567 L1146.14668,254.491385 L1132.75205,227.542969 L1132.75205,128.651357 L988.085327,81.0273438 L918.796265,129.339844 L665.273132,129.339844 Z M388,160 L944,160 L944,203 L388,203 L388,160 Z" id="Path-2" sketch:type="MSShapeGroup"></path>
        </g>
    </g>
</svg>