999
DXF data, created by potrace 1.12, written by Peter Selinger 2001-2015
  0
SECTION
  2
HEADER
  9
$ACADVER
  1
AC1006
  9
$EXTMIN
 10
0.000000
 20
0.000000
 30
0.000000
  9
$EXTMAX
 10
1081.000000
 20
325.000000
 30
0.000000
  0
ENDSEC
  0
SECTION
  2
ENTITIES
  0
POLYLINE
  8
0
 66
1
 70
1
  0
VERTEX
  8
0
 10
145.500000
 20
300.983675
 42
0.000000
  0
VERTEX
  8
0
 10
73.500000
 20
277.236098
 42
0.000000
  0
VERTEX
  8
0
 10
73.000000
 20
226.868049
 42
0.000000
  0
VERTEX
  8
0
 10
72.500000
 20
176.500000
 42
0.000000
  0
VERTEX
  8
0
 10
65.825166
 20
163.500000
 42
0.000000
  0
VERTEX
  8
0
 10
59.150331
 20
150.500000
 42
0.000000
  0
VERTEX
  8
0
 10
30.075166
 20
121.506466
 42
0.000000
  0
VERTEX
  8
0
 10
1.000000
 20
92.512932
 42
0.000000
  0
VERTEX
  8
0
 10
1.000000
 20
49.775518
 42
0.000000
  0
VERTEX
  8
0
 10
1.000000
 20
7.038104
 42
0.000000
  0
VERTEX
  8
0
 10
3.250000
 20
6.573639
 42
0.027873
  0
VERTEX
  8
0
 10
4.967185
 20
6.317908
 42
0.000340
  0
VERTEX
  8
0
 10
16.139206
 20
5.293642
 42
0.001013
  0
VERTEX
  8
0
 10
29.062568
 20
4.144059
 42
0.000662
  0
VERTEX
  8
0
 10
43.968574
 20
2.868429
 42
0.000000
  0
VERTEX
  8
0
 10
82.437147
 20
-0.372316
 42
0.000000
  0
VERTEX
  8
0
 10
115.968574
 20
33.639817
 42
0.000000
  0
VERTEX
  8
0
 10
149.500000
 20
67.651950
 42
0.000000
  0
VERTEX
  8
0
 10
162.648242
 20
75.325975
 42
0.000000
  0
VERTEX
  8
0
 10
175.796485
 20
83.000000
 42
0.000000
  0
VERTEX
  8
0
 10
223.805885
 20
83.000000
 42
0.000000
  0
VERTEX
  8
0
 10
271.815285
 20
83.000000
 42
0.000000
  0
VERTEX
  8
0
 10
295.081355
 20
126.502202
 42
0.000000
  0
VERTEX
  8
0
 10
318.347426
 20
170.004404
 42
0.000000
  0
VERTEX
  8
0
 10
540.916164
 20
169.752202
 42
0.000000
  0
VERTEX
  8
0
 10
763.484902
 20
169.500000
 42
0.000000
  0
VERTEX
  8
0
 10
786.492451
 20
126.284268
 42
0.000000
  0
VERTEX
  8
0
 10
809.500000
 20
83.068537
 42
0.000000
  0
VERTEX
  8
0
 10
857.648668
 20
83.034268
 42
0.000000
  0
VERTEX
  8
0
 10
905.797336
 20
83.000000
 42
0.000000
  0
VERTEX
  8
0
 10
918.648668
 20
75.433726
 42
0.000000
  0
VERTEX
  8
0
 10
931.500000
 20
67.867452
 42
0.000000
  0
VERTEX
  8
0
 10
965.656096
 20
33.783036
 42
0.000000
  0
VERTEX
  8
0
 10
999.812191
 20
-0.301380
 42
0.000000
  0
VERTEX
  8
0
 10
1037.656096
 20
2.900737
 42
0.000722
  0
VERTEX
  8
0
 10
1052.357604
 20
4.166085
 42
0.001082
  0
VERTEX
  8
0
 10
1065.191166
 20
5.317341
 42
0.000436
  0
VERTEX
  8
0
 10
1076.196670
 20
6.338302
 42
0.024086
  0
VERTEX
  8
0
 10
1078.250000
 20
6.630883
 42
0.000000
  0
VERTEX
  8
0
 10
1081.000000
 20
7.158911
 42
0.000000
  0
VERTEX
  8
0
 10
1081.000000
 20
49.835812
 42
0.000000
  0
VERTEX
  8
0
 10
1081.000000
 20
92.512713
 42
0.000000
  0
VERTEX
  8
0
 10
1051.424877
 20
122.006356
 42
0.000000
  0
VERTEX
  8
0
 10
1021.849754
 20
151.500000
 42
0.000000
  0
VERTEX
  8
0
 10
1015.424877
 20
164.235721
 42
0.000000
  0
VERTEX
  8
0
 10
1009.000000
 20
176.971441
 42
0.000000
  0
VERTEX
  8
0
 10
1009.000000
 20
226.925756
 42
0.000000
  0
VERTEX
  8
0
 10
1009.000000
 20
276.880071
 42
0.000000
  0
VERTEX
  8
0
 10
938.750000
 20
299.992047
 42
0.000016
  0
VERTEX
  8
0
 10
911.639560
 20
308.910316
 42
0.000025
  0
VERTEX
  8
0
 10
888.395983
 20
316.554415
 42
0.000005
  0
VERTEX
  8
0
 10
867.953161
 20
323.276045
 42
0.001146
  0
VERTEX
  8
0
 10
865.981006
 20
323.919463
 42
0.203919
  0
VERTEX
  8
0
 10
863.532504
 20
323.700348
 42
0.017376
  0
VERTEX
  8
0
 10
857.955954
 20
320.460441
 42
0.010627
  0
VERTEX
  8
0
 10
848.637477
 20
314.324262
 42
0.001292
  0
VERTEX
  8
0
 10
828.504204
 20
300.367451
 42
0.000000
  0
VERTEX
  8
0
 10
793.546396
 20
276.000000
 42
0.000000
  0
VERTEX
  8
0
 10
540.743862
 20
276.000000
 42
0.000000
  0
VERTEX
  8
0
 10
287.941329
 20
276.000000
 42
0.000000
  0
VERTEX
  8
0
 10
255.220664
 20
298.829208
 42
0.000398
  0
VERTEX
  8
0
 10
242.500564
 20
307.688965
 42
0.000597
  0
VERTEX
  8
0
 10
231.377320
 20
315.403659
 42
0.000240
  0
VERTEX
  8
0
 10
221.822790
 20
322.006707
 42
0.013296
  0
VERTEX
  8
0
 10
220.000000
 20
323.194834
 42
0.201019
  0
VERTEX
  8
0
 10
216.926277
 20
323.672947
 42
0.011828
  0
VERTEX
  8
0
 10
207.615029
 20
321.135114
 42
0.006709
  0
VERTEX
  8
0
 10
190.857424
 20
315.893239
 42
0.000503
  0
SEQEND
  0
POLYLINE
  8
0
 66
1
 70
1
  0
VERTEX
  8
0
 10
164.240303
 20
217.250000
 42
0.000000
  0
VERTEX
  8
0
 10
164.500000
 20
169.500000
 42
0.000000
  0
VERTEX
  8
0
 10
212.250000
 20
169.240303
 42
0.000000
  0
VERTEX
  8
0
 10
260.000000
 20
168.980606
 42
0.000000
  0
VERTEX
  8
0
 10
260.000000
 20
137.490303
 42
0.000000
  0
VERTEX
  8
0
 10
260.000000
 20
106.000000
 42
0.000000
  0
VERTEX
  8
0
 10
212.143971
 20
106.000000
 42
0.000000
  0
VERTEX
  8
0
 10
164.287941
 20
106.000000
 42
0.000000
  0
VERTEX
  8
0
 10
149.393971
 20
99.949588
 42
0.000000
  0
VERTEX
  8
0
 10
134.500000
 20
93.899177
 42
0.000000
  0
VERTEX
  8
0
 10
99.251527
 20
58.706397
 42
0.000000
  0
VERTEX
  8
0
 10
64.003054
 20
23.513617
 42
0.000000
  0
VERTEX
  8
0
 10
41.499928
 20
46.000072
 42
0.000000
  0
VERTEX
  8
0
 10
18.996803
 20
68.486526
 42
0.000000
  0
VERTEX
  8
0
 10
54.414174
 20
103.993263
 42
0.000000
  0
VERTEX
  8
0
 10
89.831546
 20
139.500000
 42
0.000000
  0
VERTEX
  8
0
 10
95.415773
 20
150.733343
 42
0.000000
  0
VERTEX
  8
0
 10
101.000000
 20
161.966687
 42
0.000000
  0
VERTEX
  8
0
 10
101.000000
 20
213.483343
 42
0.000000
  0
VERTEX
  8
0
 10
101.000000
 20
265.000000
 42
0.000000
  0
VERTEX
  8
0
 10
132.490303
 20
265.000000
 42
0.000000
  0
VERTEX
  8
0
 10
163.980606
 20
265.000000
 42
0.000000
  0
SEQEND
  0
POLYLINE
  8
0
 66
1
 70
1
  0
VERTEX
  8
0
 10
980.000000
 20
212.483343
 42
0.000000
  0
VERTEX
  8
0
 10
980.000000
 20
159.966687
 42
0.000000
  0
VERTEX
  8
0
 10
985.425947
 20
149.233343
 42
0.000000
  0
VERTEX
  8
0
 10
990.851894
 20
138.500000
 42
0.000000
  0
VERTEX
  8
0
 10
1025.924548
 20
103.506756
 42
0.000000
  0
VERTEX
  8
0
 10
1060.997203
 20
68.513511
 42
0.000000
  0
VERTEX
  8
0
 10
1038.755374
 20
46.255193
 42
0.000000
  0
VERTEX
  8
0
 10
1016.513545
 20
23.996874
 42
0.000000
  0
VERTEX
  8
0
 10
981.506773
 20
58.846021
 42
0.000000
  0
VERTEX
  8
0
 10
946.500000
 20
93.695169
 42
0.000000
  0
VERTEX
  8
0
 10
931.262032
 20
99.847584
 42
0.000000
  0
VERTEX
  8
0
 10
916.024063
 20
106.000000
 42
0.000000
  0
VERTEX
  8
0
 10
868.012032
 20
106.000000
 42
0.000000
  0
VERTEX
  8
0
 10
820.000000
 20
106.000000
 42
0.000000
  0
VERTEX
  8
0
 10
820.000000
 20
137.500000
 42
0.000000
  0
VERTEX
  8
0
 10
820.000000
 20
169.000000
 42
0.000000
  0
VERTEX
  8
0
 10
868.000000
 20
169.000000
 42
0.000000
  0
VERTEX
  8
0
 10
916.000000
 20
169.000000
 42
0.000000
  0
VERTEX
  8
0
 10
916.000000
 20
217.000000
 42
0.000000
  0
VERTEX
  8
0
 10
916.000000
 20
265.000000
 42
0.000000
  0
VERTEX
  8
0
 10
948.000000
 20
265.000000
 42
0.000000
  0
VERTEX
  8
0
 10
980.000000
 20
265.000000
 42
0.000000
  0
SEQEND
  0
POLYLINE
  8
0
 66
1
 70
1
  0
VERTEX
  8
0
 10
819.000000
 20
224.000000
 42
0.000000
  0
VERTEX
  8
0
 10
819.000000
 20
203.000000
 42
0.000000
  0
VERTEX
  8
0
 10
541.500000
 20
203.000000
 42
0.000000
  0
VERTEX
  8
0
 10
264.000000
 20
203.000000
 42
0.000000
  0
VERTEX
  8
0
 10
264.000000
 20
224.000000
 42
0.000000
  0
VERTEX
  8
0
 10
264.000000
 20
245.000000
 42
0.000000
  0
VERTEX
  8
0
 10
541.500000
 20
245.000000
 42
0.000000
  0
VERTEX
  8
0
 10
819.000000
 20
245.000000
 42
0.000000
  0
SEQEND
  0
ENDSEC
  0
EOF
