999
DXF data, created by potrace 1.12, written by Peter Selinger 2001-2015
  0
SECTION
  2
HEADER
  9
$ACADVER
  1
AC1006
  9
$EXTMIN
 10
0.000000
 20
0.000000
 30
0.000000
  9
$EXTMAX
 10
1140.000000
 20
440.000000
 30
0.000000
  0
ENDSEC
  0
SECTION
  2
ENTITIES
  0
POLYLINE
  8
0
 66
1
 70
1
  0
VERTEX
  8
0
 10
0.000000
 20
220.000000
 42
0.000000
  0
VERTEX
  8
0
 10
0.000000
 20
0.000000
 42
0.000000
  0
VERTEX
  8
0
 10
570.000000
 20
0.000000
 42
0.000000
  0
VERTEX
  8
0
 10
1140.000000
 20
0.000000
 42
0.000000
  0
VERTEX
  8
0
 10
1140.000000
 20
220.000000
 42
0.000000
  0
VERTEX
  8
0
 10
1140.000000
 20
440.000000
 42
0.000000
  0
VERTEX
  8
0
 10
570.000000
 20
440.000000
 42
0.000000
  0
VERTEX
  8
0
 10
0.000000
 20
440.000000
 42
0.000000
  0
SEQEND
  0
POLYLINE
  8
0
 66
1
 70
1
  0
VERTEX
  8
0
 10
193.000000
 20
252.000000
 42
0.000000
  0
VERTEX
  8
0
 10
193.000000
 20
204.000000
 42
0.000000
  0
VERTEX
  8
0
 10
241.000000
 20
204.000000
 42
0.000000
  0
VERTEX
  8
0
 10
289.000000
 20
204.000000
 42
0.000000
  0
VERTEX
  8
0
 10
289.000000
 20
172.000000
 42
0.000000
  0
VERTEX
  8
0
 10
289.000000
 20
140.000000
 42
0.000000
  0
VERTEX
  8
0
 10
240.949623
 20
140.000000
 42
0.000000
  0
VERTEX
  8
0
 10
192.899247
 20
140.000000
 42
0.000000
  0
VERTEX
  8
0
 10
177.699623
 20
133.900562
 42
0.000000
  0
VERTEX
  8
0
 10
162.500000
 20
127.801124
 42
0.000000
  0
VERTEX
  8
0
 10
127.493227
 20
92.898999
 42
0.000000
  0
VERTEX
  8
0
 10
92.486455
 20
57.996874
 42
0.000000
  0
VERTEX
  8
0
 10
70.000036
 20
80.499964
 42
0.000000
  0
VERTEX
  8
0
 10
47.513617
 20
103.003054
 42
0.000000
  0
VERTEX
  8
0
 10
82.672554
 20
138.251527
 42
0.000000
  0
VERTEX
  8
0
 10
117.831491
 20
173.500000
 42
0.000000
  0
VERTEX
  8
0
 10
123.415746
 20
184.733343
 42
0.000000
  0
VERTEX
  8
0
 10
129.000000
 20
195.966687
 42
0.000000
  0
VERTEX
  8
0
 10
129.000000
 20
247.983343
 42
0.000000
  0
VERTEX
  8
0
 10
129.000000
 20
300.000000
 42
0.000000
  0
VERTEX
  8
0
 10
161.000000
 20
300.000000
 42
0.000000
  0
VERTEX
  8
0
 10
193.000000
 20
300.000000
 42
0.000000
  0
SEQEND
  0
POLYLINE
  8
0
 66
1
 70
1
  0
VERTEX
  8
0
 10
1009.000000
 20
247.481831
 42
0.000000
  0
VERTEX
  8
0
 10
1009.000000
 20
194.963663
 42
0.000000
  0
VERTEX
  8
0
 10
1014.084736
 20
184.731831
 42
0.000000
  0
VERTEX
  8
0
 10
1019.169472
 20
174.500000
 42
0.000000
  0
VERTEX
  8
0
 10
1054.830758
 20
138.748769
 42
0.000000
  0
VERTEX
  8
0
 10
1090.492044
 20
102.997538
 42
0.000000
  0
VERTEX
  8
0
 10
1067.747289
 20
80.252784
 42
0.000000
  0
VERTEX
  8
0
 10
1045.002535
 20
57.508030
 42
0.000000
  0
VERTEX
  8
0
 10
1009.751268
 20
92.667142
 42
0.000000
  0
VERTEX
  8
0
 10
974.500000
 20
127.826255
 42
0.000000
  0
VERTEX
  8
0
 10
959.582246
 20
133.913128
 42
0.000000
  0
VERTEX
  8
0
 10
944.664492
 20
140.000000
 42
0.000000
  0
VERTEX
  8
0
 10
896.332246
 20
140.000000
 42
0.000000
  0
VERTEX
  8
0
 10
848.000000
 20
140.000000
 42
0.000000
  0
VERTEX
  8
0
 10
848.000000
 20
172.000000
 42
0.000000
  0
VERTEX
  8
0
 10
848.000000
 20
204.000000
 42
0.000000
  0
VERTEX
  8
0
 10
896.000000
 20
204.000000
 42
0.000000
  0
VERTEX
  8
0
 10
944.000000
 20
204.000000
 42
0.000000
  0
VERTEX
  8
0
 10
944.000000
 20
252.000000
 42
0.000000
  0
VERTEX
  8
0
 10
944.000000
 20
300.000000
 42
0.000000
  0
VERTEX
  8
0
 10
976.500000
 20
300.000000
 42
0.000000
  0
VERTEX
  8
0
 10
1009.000000
 20
300.000000
 42
0.000000
  0
SEQEND
  0
POLYLINE
  8
0
 66
1
 70
1
  0
VERTEX
  8
0
 10
848.000000
 20
258.500000
 42
0.000000
  0
VERTEX
  8
0
 10
848.000000
 20
237.000000
 42
0.000000
  0
VERTEX
  8
0
 10
570.000000
 20
237.000000
 42
0.000000
  0
VERTEX
  8
0
 10
292.000000
 20
237.000000
 42
0.000000
  0
VERTEX
  8
0
 10
292.000000
 20
258.500000
 42
0.000000
  0
VERTEX
  8
0
 10
292.000000
 20
280.000000
 42
0.000000
  0
VERTEX
  8
0
 10
570.000000
 20
280.000000
 42
0.000000
  0
VERTEX
  8
0
 10
848.000000
 20
280.000000
 42
0.000000
  0
SEQEND
  0
ENDSEC
  0
EOF
