  0
SECTION
  2
BLOCKS
  0
ENDSEC
  0
SECTION
  2
ENTITIES
  0
LINE
  8
0
 10
-43.4054
 20
0
 11
-43.392
 21
-0.920234
  0
LINE
  8
0
 10
-43.392
 20
-0.920234
 11
-43.3739
 21
-1.01299
  0
LINE
  8
0
 10
-43.3739
 20
-1.01299
 11
-43.3238
 21
-1.11366
  0
LINE
  8
0
 10
-43.3238
 20
-1.11366
 11
-43.2495
 21
-1.19584
  0
LINE
  8
0
 10
-43.2495
 20
-1.19584
 11
-43.1549
 21
-1.25396
  0
LINE
  8
0
 10
-43.1549
 20
-1.25396
 11
-42.3022
 21
-1.61738
  0
LINE
  8
0
 10
-42.3022
 20
-1.61738
 11
-42.2079
 21
-1.67535
  0
LINE
  8
0
 10
-42.2079
 20
-1.67535
 11
-42.1336
 21
-1.75756
  0
LINE
  8
0
 10
-42.1336
 20
-1.75756
 11
-42.0833
 21
-1.85831
  0
LINE
  8
0
 10
-42.0833
 20
-1.85831
 11
-42.0611
 21
-1.97196
  0
LINE
  8
0
 10
-42.0611
 20
-1.97196
 11
-42.0056
 21
-2.92437
  0
LINE
  8
0
 10
-42.0056
 20
-2.92437
 11
-42.0145
 21
-3.03983
  0
LINE
  8
0
 10
-42.0145
 20
-3.03983
 11
-42.0528
 21
-3.14574
  0
LINE
  8
0
 10
-42.0528
 20
-3.14574
 11
-42.117
 21
-3.23602
  0
LINE
  8
0
 10
-42.117
 20
-3.23602
 11
-42.204
 21
-3.30455
  0
LINE
  8
0
 10
-42.204
 20
-3.30455
 11
-43.0087
 21
-3.76449
  0
LINE
  8
0
 10
-43.0087
 20
-3.76449
 11
-43.0959
 21
-3.83326
  0
LINE
  8
0
 10
-43.0959
 20
-3.83326
 11
-43.1602
 21
-3.92359
  0
LINE
  8
0
 10
-43.1602
 20
-3.92359
 11
-43.1982
 21
-4.02943
  0
LINE
  8
0
 10
-43.1982
 20
-4.02943
 11
-43.2054
 21
-4.12352
  0
LINE
  8
0
 10
-43.2054
 20
-4.12352
 11
-43.1119
 21
-5.03906
  0
LINE
  8
0
 10
-43.1119
 20
-5.03906
 11
-42.9918
 21
-5.95152
  0
LINE
  8
0
 10
-42.9918
 20
-5.95152
 11
-42.963
 21
-6.04155
  0
LINE
  8
0
 10
-42.963
 20
-6.04155
 11
-42.9016
 21
-6.13571
  0
LINE
  8
0
 10
-42.9016
 20
-6.13571
 11
-42.8183
 21
-6.20872
  0
LINE
  8
0
 10
-42.8183
 20
-6.20872
 11
-42.7175
 21
-6.25546
  0
LINE
  8
0
 10
-42.7175
 20
-6.25546
 11
-41.8284
 21
-6.51743
  0
LINE
  8
0
 10
-41.8284
 20
-6.51743
 11
-41.728
 21
-6.56407
  0
LINE
  8
0
 10
-41.728
 20
-6.56407
 11
-41.6447
 21
-6.63708
  0
LINE
  8
0
 10
-41.6447
 20
-6.63708
 11
-41.583
 21
-6.73132
  0
LINE
  8
0
 10
-41.583
 20
-6.73132
 11
-41.5478
 21
-6.84163
  0
LINE
  8
0
 10
-41.5478
 20
-6.84163
 11
-41.3821
 21
-7.78115
  0
LINE
  8
0
 10
-41.3821
 20
-7.78115
 11
-41.3775
 21
-7.89687
  0
LINE
  8
0
 10
-41.3775
 20
-7.89687
 11
-41.4032
 21
-8.0065
  0
LINE
  8
0
 10
-41.4032
 20
-8.0065
 11
-41.4566
 21
-8.10362
  0
LINE
  8
0
 10
-41.4566
 20
-8.10362
 11
-41.535
 21
-8.18179
  0
LINE
  8
0
 10
-41.535
 20
-8.18179
 11
-42.2809
 21
-8.73204
  0
LINE
  8
0
 10
-42.2809
 20
-8.73204
 11
-42.3595
 21
-8.81047
  0
LINE
  8
0
 10
-42.3595
 20
-8.81047
 11
-42.4128
 21
-8.90765
  0
LINE
  8
0
 10
-42.4128
 20
-8.90765
 11
-42.4384
 21
-9.01719
  0
LINE
  8
0
 10
-42.4384
 20
-9.01719
 11
-42.4346
 21
-9.11148
  0
LINE
  8
0
 10
-42.4346
 20
-9.11148
 11
-42.2354
 21
-10.01
  0
LINE
  8
0
 10
-42.2354
 20
-10.01
 11
-42.0101
 21
-10.9023
  0
LINE
  8
0
 10
-42.0101
 20
-10.9023
 11
-41.9712
 21
-10.9884
  0
LINE
  8
0
 10
-41.9712
 20
-10.9884
 11
-41.8992
 21
-11.0748
  0
LINE
  8
0
 10
-41.8992
 20
-11.0748
 11
-41.808
 21
-11.1376
  0
LINE
  8
0
 10
-41.808
 20
-11.1376
 11
-41.7025
 21
-11.1724
  0
LINE
  8
0
 10
-41.7025
 20
-11.1724
 11
-40.789
 21
-11.3294
  0
LINE
  8
0
 10
-40.789
 20
-11.3294
 11
-40.6838
 21
-11.364
  0
LINE
  8
0
 10
-40.6838
 20
-11.364
 11
-40.5926
 21
-11.4269
  0
LINE
  8
0
 10
-40.5926
 20
-11.4269
 11
-40.5204
 21
-11.5133
  0
LINE
  8
0
 10
-40.5204
 20
-11.5133
 11
-40.4726
 21
-11.6188
  0
LINE
  8
0
 10
-40.4726
 20
-11.6188
 11
-40.199
 21
-12.5327
  0
LINE
  8
0
 10
-40.199
 20
-12.5327
 11
-40.181
 21
-12.6471
  0
LINE
  8
0
 10
-40.181
 20
-12.6471
 11
-40.1938
 21
-12.759
  0
LINE
  8
0
 10
-40.1938
 20
-12.759
 11
-40.2355
 21
-12.8616
  0
LINE
  8
0
 10
-40.2355
 20
-12.8616
 11
-40.3043
 21
-12.9484
  0
LINE
  8
0
 10
-40.3043
 20
-12.9484
 11
-40.9812
 21
-13.5815
  0
LINE
  8
0
 10
-40.9812
 20
-13.5815
 11
-41.0503
 21
-13.6685
  0
LINE
  8
0
 10
-41.0503
 20
-13.6685
 11
-41.0919
 21
-13.7712
  0
LINE
  8
0
 10
-41.0919
 20
-13.7712
 11
-41.1046
 21
-13.883
  0
LINE
  8
0
 10
-41.1046
 20
-13.883
 11
-41.0899
 21
-13.9762
  0
LINE
  8
0
 10
-41.0899
 20
-13.9762
 11
-40.7877
 21
-14.8455
  0
LINE
  8
0
 10
-40.7877
 20
-14.8455
 11
-40.4604
 21
-15.7057
  0
LINE
  8
0
 10
-40.4604
 20
-15.7057
 11
-40.4117
 21
-15.7867
  0
LINE
  8
0
 10
-40.4117
 20
-15.7867
 11
-40.3302
 21
-15.8641
  0
LINE
  8
0
 10
-40.3302
 20
-15.8641
 11
-40.2323
 21
-15.9159
  0
LINE
  8
0
 10
-40.2323
 20
-15.9159
 11
-40.1235
 21
-15.9382
  0
LINE
  8
0
 10
-40.1235
 20
-15.9382
 11
-39.1979
 21
-15.9881
  0
LINE
  8
0
 10
-39.1979
 20
-15.9881
 11
-39.0895
 21
-16.0103
  0
LINE
  8
0
 10
-39.0895
 20
-16.0103
 11
-38.9915
 21
-16.0621
  0
LINE
  8
0
 10
-38.9915
 20
-16.0621
 11
-38.9098
 21
-16.1396
  0
LINE
  8
0
 10
-38.9098
 20
-16.1396
 11
-38.8501
 21
-16.2388
  0
LINE
  8
0
 10
-38.8501
 20
-16.2388
 11
-38.4722
 21
-17.1148
  0
LINE
  8
0
 10
-38.4722
 20
-17.1148
 11
-38.4411
 21
-17.2263
  0
LINE
  8
0
 10
-38.4411
 20
-17.2263
 11
-38.4408
 21
-17.3389
  0
LINE
  8
0
 10
-38.4408
 20
-17.3389
 11
-38.4703
 21
-17.4457
  0
LINE
  8
0
 10
-38.4703
 20
-17.4457
 11
-38.5285
 21
-17.5399
  0
LINE
  8
0
 10
-38.5285
 20
-17.5399
 11
-39.1274
 21
-18.2473
  0
LINE
  8
0
 10
-39.1274
 20
-18.2473
 11
-39.1859
 21
-18.3418
  0
LINE
  8
0
 10
-39.1859
 20
-18.3418
 11
-39.2153
 21
-18.4486
  0
LINE
  8
0
 10
-39.2153
 20
-18.4486
 11
-39.2149
 21
-18.5611
  0
LINE
  8
0
 10
-39.2149
 20
-18.5611
 11
-39.1895
 21
-18.652
  0
LINE
  8
0
 10
-39.1895
 20
-18.652
 11
-38.7885
 21
-19.4803
  0
LINE
  8
0
 10
-38.7885
 20
-19.4803
 11
-38.3635
 21
-20.2966
  0
LINE
  8
0
 10
-38.3635
 20
-20.2966
 11
-38.3057
 21
-20.3714
  0
LINE
  8
0
 10
-38.3057
 20
-20.3714
 11
-38.2158
 21
-20.4389
  0
LINE
  8
0
 10
-38.2158
 20
-20.4389
 11
-38.1125
 21
-20.479
  0
LINE
  8
0
 10
-38.1125
 20
-20.479
 11
-38.0019
 21
-20.4885
  0
LINE
  8
0
 10
-38.0019
 20
-20.4885
 11
-37.0768
 21
-20.4306
  0
LINE
  8
0
 10
-37.0768
 20
-20.4306
 11
-36.9665
 21
-20.44
  0
LINE
  8
0
 10
-36.9665
 20
-20.44
 11
-36.8632
 21
-20.4801
  0
LINE
  8
0
 10
-36.8632
 20
-20.4801
 11
-36.773
 21
-20.5476
  0
LINE
  8
0
 10
-36.773
 20
-20.5476
 11
-36.7022
 21
-20.6392
  0
LINE
  8
0
 10
-36.7022
 20
-20.6392
 11
-36.2251
 21
-21.4654
  0
LINE
  8
0
 10
-36.2251
 20
-21.4654
 11
-36.1813
 21
-21.5726
  0
LINE
  8
0
 10
-36.1813
 20
-21.5726
 11
-36.1679
 21
-21.6844
  0
LINE
  8
0
 10
-36.1679
 20
-21.6844
 11
-36.1848
 21
-21.7939
  0
LINE
  8
0
 10
-36.1848
 20
-21.7939
 11
-36.2318
 21
-21.8942
  0
LINE
  8
0
 10
-36.2318
 20
-21.8942
 11
-36.7445
 21
-22.6663
  0
LINE
  8
0
 10
-36.7445
 20
-22.6663
 11
-36.7916
 21
-22.7669
  0
LINE
  8
0
 10
-36.7916
 20
-22.7669
 11
-36.8084
 21
-22.8765
  0
LINE
  8
0
 10
-36.8084
 20
-22.8765
 11
-36.795
 21
-22.9882
  0
LINE
  8
0
 10
-36.795
 20
-22.9882
 11
-36.7592
 21
-23.0755
  0
LINE
  8
0
 10
-36.7592
 20
-23.0755
 11
-36.2647
 21
-23.8516
  0
LINE
  8
0
 10
-36.2647
 20
-23.8516
 11
-35.7478
 21
-24.6131
  0
LINE
  8
0
 10
-35.7478
 20
-24.6131
 11
-35.6817
 21
-24.6807
  0
LINE
  8
0
 10
-35.6817
 20
-24.6807
 11
-35.5846
 21
-24.7373
  0
LINE
  8
0
 10
-35.5846
 20
-24.7373
 11
-35.4773
 21
-24.7651
  0
LINE
  8
0
 10
-35.4773
 20
-24.7651
 11
-35.3663
 21
-24.7617
  0
LINE
  8
0
 10
-35.3663
 20
-24.7617
 11
-34.4542
 21
-24.5968
  0
LINE
  8
0
 10
-34.4542
 20
-24.5968
 11
-34.3436
 21
-24.5934
  0
LINE
  8
0
 10
-34.3436
 20
-24.5934
 11
-34.2363
 21
-24.6212
  0
LINE
  8
0
 10
-34.2363
 20
-24.6212
 11
-34.139
 21
-24.6778
  0
LINE
  8
0
 10
-34.139
 20
-24.6778
 11
-34.0579
 21
-24.7605
  0
LINE
  8
0
 10
-34.0579
 20
-24.7605
 11
-33.4882
 21
-25.5257
  0
LINE
  8
0
 10
-33.4882
 20
-25.5257
 11
-33.4322
 21
-25.6271
  0
LINE
  8
0
 10
-33.4322
 20
-25.6271
 11
-33.406
 21
-25.7366
  0
LINE
  8
0
 10
-33.406
 20
-25.7366
 11
-33.41
 21
-25.8473
  0
LINE
  8
0
 10
-33.41
 20
-25.8473
 11
-33.445
 21
-25.9524
  0
LINE
  8
0
 10
-33.445
 20
-25.9524
 11
-33.8646
 21
-26.7789
  0
LINE
  8
0
 10
-33.8646
 20
-26.7789
 11
-33.8997
 21
-26.8842
  0
LINE
  8
0
 10
-33.8997
 20
-26.8842
 11
-33.9037
 21
-26.995
  0
LINE
  8
0
 10
-33.9037
 20
-26.995
 11
-33.8774
 21
-27.1044
  0
LINE
  8
0
 10
-33.8774
 20
-27.1044
 11
-33.8317
 21
-27.1869
  0
LINE
  8
0
 10
-33.8317
 20
-27.1869
 11
-33.2505
 21
-27.9004
  0
LINE
  8
0
 10
-33.2505
 20
-27.9004
 11
-32.6487
 21
-28.5968
  0
LINE
  8
0
 10
-32.6487
 20
-28.5968
 11
-32.5752
 21
-28.6562
  0
LINE
  8
0
 10
-32.5752
 20
-28.6562
 11
-32.4721
 21
-28.7011
  0
LINE
  8
0
 10
-32.4721
 20
-28.7011
 11
-32.3624
 21
-28.7163
  0
LINE
  8
0
 10
-32.3624
 20
-28.7163
 11
-32.2525
 21
-28.7
  0
LINE
  8
0
 10
-32.2525
 20
-28.7
 11
-31.3658
 21
-28.4303
  0
LINE
  8
0
 10
-31.3658
 20
-28.4303
 11
-31.2563
 21
-28.4141
  0
LINE
  8
0
 10
-31.2563
 20
-28.4141
 11
-31.1465
 21
-28.4293
  0
LINE
  8
0
 10
-31.1465
 20
-28.4293
 11
-31.0432
 21
-28.4742
  0
LINE
  8
0
 10
-31.0432
 20
-28.4742
 11
-30.9531
 21
-28.547
  0
LINE
  8
0
 10
-30.9531
 20
-28.547
 11
-30.2984
 21
-29.2409
  0
LINE
  8
0
 10
-30.2984
 20
-29.2409
 11
-30.231
 21
-29.3351
  0
LINE
  8
0
 10
-30.231
 20
-29.3351
 11
-30.1922
 21
-29.4408
  0
LINE
  8
0
 10
-30.1922
 20
-29.4408
 11
-30.1834
 21
-29.5512
  0
LINE
  8
0
 10
-30.1834
 20
-29.5512
 11
-30.206
 21
-29.6596
  0
LINE
  8
0
 10
-30.206
 20
-29.6596
 11
-30.5268
 21
-30.5292
  0
LINE
  8
0
 10
-30.5268
 20
-30.5292
 11
-30.5494
 21
-30.638
  0
LINE
  8
0
 10
-30.5494
 20
-30.638
 11
-30.5406
 21
-30.7485
  0
LINE
  8
0
 10
-30.5406
 20
-30.7485
 11
-30.5017
 21
-30.854
  0
LINE
  8
0
 10
-30.5017
 20
-30.854
 11
-30.4467
 21
-30.9307
  0
LINE
  8
0
 10
-30.4467
 20
-30.9307
 11
-29.7866
 21
-31.5719
  0
LINE
  8
0
 10
-29.7866
 20
-31.5719
 11
-29.108
 21
-32.1937
  0
LINE
  8
0
 10
-29.108
 20
-32.1937
 11
-29.0282
 21
-32.2442
  0
LINE
  8
0
 10
-29.0282
 20
-32.2442
 11
-28.9206
 21
-32.2768
  0
LINE
  8
0
 10
-28.9206
 20
-32.2768
 11
-28.8098
 21
-32.2792
  0
LINE
  8
0
 10
-28.8098
 20
-32.2792
 11
-28.7026
 21
-32.2503
  0
LINE
  8
0
 10
-28.7026
 20
-32.2503
 11
-27.8531
 21
-31.8795
  0
LINE
  8
0
 10
-27.8531
 20
-31.8795
 11
-27.7462
 21
-31.8506
  0
LINE
  8
0
 10
-27.7462
 20
-31.8506
 11
-27.6354
 21
-31.853
  0
LINE
  8
0
 10
-27.6354
 20
-31.853
 11
-27.5277
 21
-31.8856
  0
LINE
  8
0
 10
-27.5277
 20
-31.8856
 11
-27.4297
 21
-31.9474
  0
LINE
  8
0
 10
-27.4297
 20
-31.9474
 11
-26.6989
 21
-32.5606
  0
LINE
  8
0
 10
-26.6989
 20
-32.5606
 11
-26.621
 21
-32.6463
  0
LINE
  8
0
 10
-26.621
 20
-32.6463
 11
-26.5702
 21
-32.7468
  0
LINE
  8
0
 10
-26.5702
 20
-32.7468
 11
-26.5487
 21
-32.8555
  0
LINE
  8
0
 10
-26.5487
 20
-32.8555
 11
-26.5585
 21
-32.9658
  0
LINE
  8
0
 10
-26.5585
 20
-32.9658
 11
-26.7762
 21
-33.8667
  0
LINE
  8
0
 10
-26.7762
 20
-33.8667
 11
-26.786
 21
-33.9774
  0
LINE
  8
0
 10
-26.786
 20
-33.9774
 11
-26.7644
 21
-34.0861
  0
LINE
  8
0
 10
-26.7644
 20
-34.0861
 11
-26.7135
 21
-34.1864
  0
LINE
  8
0
 10
-26.7135
 20
-34.1864
 11
-26.65
 21
-34.2562
  0
LINE
  8
0
 10
-26.65
 20
-34.2562
 11
-25.9199
 21
-34.8165
  0
LINE
  8
0
 10
-25.9199
 20
-34.8165
 11
-25.1738
 21
-35.3553
  0
LINE
  8
0
 10
-25.1738
 20
-35.3553
 11
-25.0886
 21
-35.3962
  0
LINE
  8
0
 10
-25.0886
 20
-35.3962
 11
-24.9779
 21
-35.4161
  0
LINE
  8
0
 10
-24.9779
 20
-35.4161
 11
-24.8676
 21
-35.4056
  0
LINE
  8
0
 10
-24.8676
 20
-35.4056
 11
-24.7645
 21
-35.3644
  0
LINE
  8
0
 10
-24.7645
 20
-35.3644
 11
-23.9638
 21
-34.8974
  0
LINE
  8
0
 10
-23.9638
 20
-34.8974
 11
-23.861
 21
-34.8564
  0
LINE
  8
0
 10
-23.861
 20
-34.8564
 11
-23.7507
 21
-34.8459
  0
LINE
  8
0
 10
-23.7507
 20
-34.8459
 11
-23.6398
 21
-34.8657
  0
LINE
  8
0
 10
-23.6398
 20
-34.8657
 11
-23.5354
 21
-34.9158
  0
LINE
  8
0
 10
-23.5354
 20
-34.9158
 11
-22.7383
 21
-35.44
  0
LINE
  8
0
 10
-22.7383
 20
-35.44
 11
-22.651
 21
-35.5161
  0
LINE
  8
0
 10
-22.651
 20
-35.5161
 11
-22.5889
 21
-35.61
  0
LINE
  8
0
 10
-22.5889
 20
-35.61
 11
-22.5549
 21
-35.7155
  0
LINE
  8
0
 10
-22.5549
 20
-35.7155
 11
-22.5518
 21
-35.8261
  0
LINE
  8
0
 10
-22.5518
 20
-35.8261
 11
-22.6634
 21
-36.7463
  0
LINE
  8
0
 10
-22.6634
 20
-36.7463
 11
-22.6604
 21
-36.8573
  0
LINE
  8
0
 10
-22.6604
 20
-36.8573
 11
-22.6263
 21
-36.9628
  0
LINE
  8
0
 10
-22.6263
 20
-36.9628
 11
-22.5641
 21
-37.0565
  0
LINE
  8
0
 10
-22.5641
 20
-37.0565
 11
-22.4929
 21
-37.1185
  0
LINE
  8
0
 10
-22.4929
 20
-37.1185
 11
-21.7027
 21
-37.5902
  0
LINE
  8
0
 10
-21.7027
 20
-37.5902
 11
-20.8991
 21
-38.0387
  0
LINE
  8
0
 10
-20.8991
 20
-38.0387
 11
-20.8097
 21
-38.0694
  0
LINE
  8
0
 10
-20.8097
 20
-38.0694
 11
-20.6975
 21
-38.0764
  0
LINE
  8
0
 10
-20.6975
 20
-38.0764
 11
-20.5891
 21
-38.0531
  0
LINE
  8
0
 10
-20.5891
 20
-38.0531
 11
-20.4915
 21
-38.0002
  0
LINE
  8
0
 10
-20.4915
 20
-38.0002
 11
-19.7504
 21
-37.4435
  0
LINE
  8
0
 10
-19.7504
 20
-37.4435
 11
-19.6531
 21
-37.3908
  0
LINE
  8
0
 10
-19.6531
 20
-37.3908
 11
-19.5447
 21
-37.3676
  0
LINE
  8
0
 10
-19.5447
 20
-37.3676
 11
-19.4323
 21
-37.3744
  0
LINE
  8
0
 10
-19.4323
 20
-37.3744
 11
-19.3228
 21
-37.412
  0
LINE
  8
0
 10
-19.3228
 20
-37.412
 11
-18.4702
 21
-37.8401
  0
LINE
  8
0
 10
-18.4702
 20
-37.8401
 11
-18.3747
 21
-37.9056
  0
LINE
  8
0
 10
-18.3747
 20
-37.9056
 11
-18.3021
 21
-37.9916
  0
LINE
  8
0
 10
-18.3021
 20
-37.9916
 11
-18.256
 21
-38.0924
  0
LINE
  8
0
 10
-18.256
 20
-38.0924
 11
-18.2402
 21
-38.202
  0
LINE
  8
0
 10
-18.2402
 20
-38.202
 11
-18.2442
 21
-39.1289
  0
LINE
  8
0
 10
-18.2442
 20
-39.1289
 11
-18.2283
 21
-39.2388
  0
LINE
  8
0
 10
-18.2283
 20
-39.2388
 11
-18.1821
 21
-39.3396
  0
LINE
  8
0
 10
-18.1821
 20
-39.3396
 11
-18.1095
 21
-39.4255
  0
LINE
  8
0
 10
-18.1095
 20
-39.4255
 11
-18.0316
 21
-39.4788
  0
LINE
  8
0
 10
-18.0316
 20
-39.4788
 11
-17.192
 21
-39.8555
  0
LINE
  8
0
 10
-17.192
 20
-39.8555
 11
-16.3417
 21
-40.2077
  0
LINE
  8
0
 10
-16.3417
 20
-40.2077
 11
-16.2494
 21
-40.2279
  0
LINE
  8
0
 10
-16.2494
 20
-40.2279
 11
-16.1371
 21
-40.2217
  0
LINE
  8
0
 10
-16.1371
 20
-40.2217
 11
-16.0322
 21
-40.1861
  0
LINE
  8
0
 10
-16.0322
 20
-40.1861
 11
-15.9414
 21
-40.1222
  0
LINE
  8
0
 10
-15.9414
 20
-40.1222
 11
-15.27
 21
-39.4832
  0
LINE
  8
0
 10
-15.27
 20
-39.4832
 11
-15.1794
 21
-39.4196
  0
LINE
  8
0
 10
-15.1794
 20
-39.4196
 11
-15.0745
 21
-39.3839
  0
LINE
  8
0
 10
-15.0745
 20
-39.3839
 11
-14.962
 21
-39.3776
  0
LINE
  8
0
 10
-14.962
 20
-39.3776
 11
-14.8489
 21
-39.4022
  0
LINE
  8
0
 10
-14.8489
 20
-39.4022
 11
-13.9524
 21
-39.7285
  0
LINE
  8
0
 10
-13.9524
 20
-39.7285
 11
-13.8499
 21
-39.7824
  0
LINE
  8
0
 10
-13.8499
 20
-39.7824
 11
-13.7678
 21
-39.8595
  0
LINE
  8
0
 10
-13.7678
 20
-39.8595
 11
-13.7103
 21
-39.9543
  0
LINE
  8
0
 10
-13.7103
 20
-39.9543
 11
-13.6819
 21
-40.0612
  0
LINE
  8
0
 10
-13.6819
 20
-40.0612
 11
-13.5783
 21
-40.9823
  0
LINE
  8
0
 10
-13.5783
 20
-40.9823
 11
-13.5497
 21
-41.0897
  0
LINE
  8
0
 10
-13.5497
 20
-41.0897
 11
-13.4922
 21
-41.1844
  0
LINE
  8
0
 10
-13.4922
 20
-41.1844
 11
-13.4101
 21
-41.2613
  0
LINE
  8
0
 10
-13.4101
 20
-41.2613
 11
-13.3265
 21
-41.3052
  0
LINE
  8
0
 10
-13.3265
 20
-41.3052
 11
-12.4488
 21
-41.5819
  0
LINE
  8
0
 10
-12.4488
 20
-41.5819
 11
-11.5634
 21
-41.833
  0
LINE
  8
0
 10
-11.5634
 20
-41.833
 11
-11.4693
 21
-41.8423
  0
LINE
  8
0
 10
-11.4693
 20
-41.8423
 11
-11.3585
 21
-41.8232
  0
LINE
  8
0
 10
-11.3585
 20
-41.8232
 11
-11.2585
 21
-41.7756
  0
LINE
  8
0
 10
-11.2585
 20
-41.7756
 11
-11.1757
 21
-41.7016
  0
LINE
  8
0
 10
-11.1757
 20
-41.7016
 11
-10.583
 21
-40.989
  0
LINE
  8
0
 10
-10.583
 20
-40.989
 11
-10.5004
 21
-40.9152
  0
LINE
  8
0
 10
-10.5004
 20
-40.9152
 11
-10.4003
 21
-40.8676
  0
LINE
  8
0
 10
-10.4003
 20
-40.8676
 11
-10.2894
 21
-40.8484
  0
LINE
  8
0
 10
-10.2894
 20
-40.8484
 11
-10.1741
 21
-40.8597
  0
LINE
  8
0
 10
-10.1741
 20
-40.8597
 11
-9.24584
 21
-41.0797
  0
LINE
  8
0
 10
-9.24584
 20
-41.0797
 11
-9.13777
 21
-41.1213
  0
LINE
  8
0
 10
-9.13777
 20
-41.1213
 11
-9.04728
 21
-41.1883
  0
LINE
  8
0
 10
-9.04728
 20
-41.1883
 11
-8.97923
 21
-41.2758
  0
LINE
  8
0
 10
-8.97923
 20
-41.2758
 11
-8.93851
 21
-41.3787
  0
LINE
  8
0
 10
-8.93851
 20
-41.3787
 11
-8.72868
 21
-42.2815
  0
LINE
  8
0
 10
-8.72868
 20
-42.2815
 11
-8.68783
 21
-42.3848
  0
LINE
  8
0
 10
-8.68783
 20
-42.3848
 11
-8.61971
 21
-42.4723
  0
LINE
  8
0
 10
-8.61971
 20
-42.4723
 11
-8.52925
 21
-42.5391
  0
LINE
  8
0
 10
-8.52925
 20
-42.5391
 11
-8.44117
 21
-42.573
  0
LINE
  8
0
 10
-8.44117
 20
-42.573
 11
-7.53727
 21
-42.746
  0
LINE
  8
0
 10
-7.53727
 20
-42.746
 11
-6.62869
 21
-42.8926
  0
LINE
  8
0
 10
-6.62869
 20
-42.8926
 11
-6.5342
 21
-42.8909
  0
LINE
  8
0
 10
-6.5342
 20
-42.8909
 11
-6.42636
 21
-42.859
  0
LINE
  8
0
 10
-6.42636
 20
-42.859
 11
-6.33253
 21
-42.8001
  0
LINE
  8
0
 10
-6.33253
 20
-42.8001
 11
-6.25886
 21
-42.717
  0
LINE
  8
0
 10
-6.25886
 20
-42.717
 11
-5.7529
 21
-41.9404
  0
LINE
  8
0
 10
-5.7529
 20
-41.9404
 11
-5.67943
 21
-41.8576
  0
LINE
  8
0
 10
-5.67943
 20
-41.8576
 11
-5.58557
 21
-41.7987
  0
LINE
  8
0
 10
-5.58557
 20
-41.7987
 11
-5.47762
 21
-41.7667
  0
LINE
  8
0
 10
-5.47762
 20
-41.7667
 11
-5.36183
 21
-41.7645
  0
LINE
  8
0
 10
-5.36183
 20
-41.7645
 11
-4.41426
 21
-41.8753
  0
LINE
  8
0
 10
-4.41426
 20
-41.8753
 11
-4.30209
 21
-41.9041
  0
LINE
  8
0
 10
-4.30209
 20
-41.9041
 11
-4.20443
 21
-41.9601
  0
LINE
  8
0
 10
-4.20443
 20
-41.9601
 11
-4.12669
 21
-42.0391
  0
LINE
  8
0
 10
-4.12669
 20
-42.0391
 11
-4.0743
 21
-42.1366
  0
LINE
  8
0
 10
-4.0743
 20
-42.1366
 11
-3.76108
 21
-43.009
  0
LINE
  8
0
 10
-3.76108
 20
-43.009
 11
-3.70851
 21
-43.1068
  0
LINE
  8
0
 10
-3.70851
 20
-43.1068
 11
-3.6307
 21
-43.1858
  0
LINE
  8
0
 10
-3.6307
 20
-43.1858
 11
-3.53309
 21
-43.2417
  0
LINE
  8
0
 10
-3.53309
 20
-43.2417
 11
-3.44167
 21
-43.2651
  0
LINE
  8
0
 10
-3.44167
 20
-43.2651
 11
-2.5238
 21
-43.3319
  0
LINE
  8
0
 10
-2.5238
 20
-43.3319
 11
-1.60434
 21
-43.3721
  0
LINE
  8
0
 10
-1.60434
 20
-43.3721
 11
-1.51069
 21
-43.3594
  0
LINE
  8
0
 10
-1.51069
 20
-43.3594
 11
-1.40728
 21
-43.3153
  0
LINE
  8
0
 10
-1.40728
 20
-43.3153
 11
-1.32092
 21
-43.2459
  0
LINE
  8
0
 10
-1.32092
 20
-43.2459
 11
-1.25739
 21
-43.1548
  0
LINE
  8
0
 10
-1.25739
 20
-43.1548
 11
-0.845015
 21
-42.3247
  0
LINE
  8
0
 10
-0.845015
 20
-42.3247
 11
-0.781652
 21
-42.2339
  0
LINE
  8
0
 10
-0.781652
 20
-42.2339
 11
-0.695269
 21
-42.1645
  0
LINE
  8
0
 10
-0.695269
 20
-42.1645
 11
-0.591763
 21
-42.1202
  0
LINE
  8
0
 10
-0.591763
 20
-42.1202
 11
-0.477007
 21
-42.1046
  0
LINE
  8
0
 10
-0.477007
 20
-42.1046
 11
0.477007
 21
-42.1046
  0
LINE
  8
0
 10
0.477007
 20
-42.1046
 11
0.591763
 21
-42.1202
  0
LINE
  8
0
 10
0.591763
 20
-42.1202
 11
0.695269
 21
-42.1645
  0
LINE
  8
0
 10
0.695269
 20
-42.1645
 11
0.781652
 21
-42.2339
  0
LINE
  8
0
 10
0.781652
 20
-42.2339
 11
0.845015
 21
-42.3247
  0
LINE
  8
0
 10
0.845015
 20
-42.3247
 11
1.25739
 21
-43.1548
  0
LINE
  8
0
 10
1.25739
 20
-43.1548
 11
1.32096
 21
-43.2459
  0
LINE
  8
0
 10
1.32096
 20
-43.2459
 11
1.40741
 21
-43.3153
  0
LINE
  8
0
 10
1.40741
 20
-43.3153
 11
1.51085
 21
-43.3594
  0
LINE
  8
0
 10
1.51085
 20
-43.3594
 11
1.60436
 21
-43.3721
  0
LINE
  8
0
 10
1.60436
 20
-43.3721
 11
2.5238
 21
-43.3319
  0
LINE
  8
0
 10
2.5238
 20
-43.3319
 11
3.4417
 21
-43.2651
  0
LINE
  8
0
 10
3.4417
 20
-43.2651
 11
3.53325
 21
-43.2416
  0
LINE
  8
0
 10
3.53325
 20
-43.2416
 11
3.63083
 21
-43.1858
  0
LINE
  8
0
 10
3.63083
 20
-43.1858
 11
3.70856
 21
-43.1068
  0
LINE
  8
0
 10
3.70856
 20
-43.1068
 11
3.76108
 21
-43.009
  0
LINE
  8
0
 10
3.76108
 20
-43.009
 11
4.0743
 21
-42.1366
  0
LINE
  8
0
 10
4.0743
 20
-42.1366
 11
4.12669
 21
-42.0391
  0
LINE
  8
0
 10
4.12669
 20
-42.0391
 11
4.20443
 21
-41.9601
  0
LINE
  8
0
 10
4.20443
 20
-41.9601
 11
4.30209
 21
-41.9041
  0
LINE
  8
0
 10
4.30209
 20
-41.9041
 11
4.41426
 21
-41.8753
  0
LINE
  8
0
 10
4.41426
 20
-41.8753
 11
5.36183
 21
-41.7645
  0
LINE
  8
0
 10
5.36183
 20
-41.7645
 11
5.47762
 21
-41.7667
  0
LINE
  8
0
 10
5.47762
 20
-41.7667
 11
5.58557
 21
-41.7987
  0
LINE
  8
0
 10
5.58557
 20
-41.7987
 11
5.67943
 21
-41.8576
  0
LINE
  8
0
 10
5.67943
 20
-41.8576
 11
5.7529
 21
-41.9404
  0
LINE
  8
0
 10
5.7529
 20
-41.9404
 11
6.25886
 21
-42.717
  0
LINE
  8
0
 10
6.25886
 20
-42.717
 11
6.33258
 21
-42.8001
  0
LINE
  8
0
 10
6.33258
 20
-42.8001
 11
6.42649
 21
-42.859
  0
LINE
  8
0
 10
6.42649
 20
-42.859
 11
6.53436
 21
-42.8909
  0
LINE
  8
0
 10
6.53436
 20
-42.8909
 11
6.62871
 21
-42.8926
  0
LINE
  8
0
 10
6.62871
 20
-42.8926
 11
7.53727
 21
-42.746
  0
LINE
  8
0
 10
7.53727
 20
-42.746
 11
8.44119
 21
-42.573
  0
LINE
  8
0
 10
8.44119
 20
-42.573
 11
8.52941
 21
-42.5391
  0
LINE
  8
0
 10
8.52941
 20
-42.5391
 11
8.61984
 21
-42.4722
  0
LINE
  8
0
 10
8.61984
 20
-42.4722
 11
8.68788
 21
-42.3848
  0
LINE
  8
0
 10
8.68788
 20
-42.3848
 11
8.72868
 21
-42.2815
  0
LINE
  8
0
 10
8.72868
 20
-42.2815
 11
8.93851
 21
-41.3787
  0
LINE
  8
0
 10
8.93851
 20
-41.3787
 11
8.97923
 21
-41.2758
  0
LINE
  8
0
 10
8.97923
 20
-41.2758
 11
9.04728
 21
-41.1883
  0
LINE
  8
0
 10
9.04728
 20
-41.1883
 11
9.13777
 21
-41.1213
  0
LINE
  8
0
 10
9.13777
 20
-41.1213
 11
9.24584
 21
-41.0797
  0
LINE
  8
0
 10
9.24584
 20
-41.0797
 11
10.1741
 21
-40.8597
  0
LINE
  8
0
 10
10.1741
 20
-40.8597
 11
10.2894
 21
-40.8484
  0
LINE
  8
0
 10
10.2894
 20
-40.8484
 11
10.4003
 21
-40.8676
  0
LINE
  8
0
 10
10.4003
 20
-40.8676
 11
10.5004
 21
-40.9152
  0
LINE
  8
0
 10
10.5004
 20
-40.9152
 11
10.583
 21
-40.989
  0
LINE
  8
0
 10
10.583
 20
-40.989
 11
11.1757
 21
-41.7016
  0
LINE
  8
0
 10
11.1757
 20
-41.7016
 11
11.2586
 21
-41.7756
  0
LINE
  8
0
 10
11.2586
 20
-41.7756
 11
11.3587
 21
-41.8231
  0
LINE
  8
0
 10
11.3587
 20
-41.8231
 11
11.4695
 21
-41.8423
  0
LINE
  8
0
 10
11.4695
 20
-41.8423
 11
11.5634
 21
-41.833
  0
LINE
  8
0
 10
11.5634
 20
-41.833
 11
12.4488
 21
-41.5819
  0
LINE
  8
0
 10
12.4488
 20
-41.5819
 11
13.3265
 21
-41.3052
  0
LINE
  8
0
 10
13.3265
 20
-41.3052
 11
13.4102
 21
-41.2612
  0
LINE
  8
0
 10
13.4102
 20
-41.2612
 11
13.4923
 21
-41.1844
  0
LINE
  8
0
 10
13.4923
 20
-41.1844
 11
13.5497
 21
-41.0896
  0
LINE
  8
0
 10
13.5497
 20
-41.0896
 11
13.5783
 21
-40.9823
  0
LINE
  8
0
 10
13.5783
 20
-40.9823
 11
13.6819
 21
-40.0612
  0
LINE
  8
0
 10
13.6819
 20
-40.0612
 11
13.7103
 21
-39.9543
  0
LINE
  8
0
 10
13.7103
 20
-39.9543
 11
13.7678
 21
-39.8595
  0
LINE
  8
0
 10
13.7678
 20
-39.8595
 11
13.8499
 21
-39.7824
  0
LINE
  8
0
 10
13.8499
 20
-39.7824
 11
13.9524
 21
-39.7285
  0
LINE
  8
0
 10
13.9524
 20
-39.7285
 11
14.8489
 21
-39.4022
  0
LINE
  8
0
 10
14.8489
 20
-39.4022
 11
14.962
 21
-39.3776
  0
LINE
  8
0
 10
14.962
 20
-39.3776
 11
15.0745
 21
-39.3839
  0
LINE
  8
0
 10
15.0745
 20
-39.3839
 11
15.1794
 21
-39.4196
  0
LINE
  8
0
 10
15.1794
 20
-39.4196
 11
15.27
 21
-39.4832
  0
LINE
  8
0
 10
15.27
 20
-39.4832
 11
15.9414
 21
-40.1222
  0
LINE
  8
0
 10
15.9414
 20
-40.1222
 11
16.0323
 21
-40.1861
  0
LINE
  8
0
 10
16.0323
 20
-40.1861
 11
16.1372
 21
-40.2217
  0
LINE
  8
0
 10
16.1372
 20
-40.2217
 11
16.2495
 21
-40.2278
  0
LINE
  8
0
 10
16.2495
 20
-40.2278
 11
16.3417
 21
-40.2077
  0
LINE
  8
0
 10
16.3417
 20
-40.2077
 11
17.192
 21
-39.8555
  0
LINE
  8
0
 10
17.192
 20
-39.8555
 11
18.0317
 21
-39.4787
  0
LINE
  8
0
 10
18.0317
 20
-39.4787
 11
18.1097
 21
-39.4254
  0
LINE
  8
0
 10
18.1097
 20
-39.4254
 11
18.1823
 21
-39.3395
  0
LINE
  8
0
 10
18.1823
 20
-39.3395
 11
18.2283
 21
-39.2388
  0
LINE
  8
0
 10
18.2283
 20
-39.2388
 11
18.2442
 21
-39.1289
  0
LINE
  8
0
 10
18.2442
 20
-39.1289
 11
18.2402
 21
-38.202
  0
LINE
  8
0
 10
18.2402
 20
-38.202
 11
18.256
 21
-38.0924
  0
LINE
  8
0
 10
18.256
 20
-38.0924
 11
18.3021
 21
-37.9916
  0
LINE
  8
0
 10
18.3021
 20
-37.9916
 11
18.3747
 21
-37.9056
  0
LINE
  8
0
 10
18.3747
 20
-37.9056
 11
18.4702
 21
-37.8401
  0
LINE
  8
0
 10
18.4702
 20
-37.8401
 11
19.3228
 21
-37.412
  0
LINE
  8
0
 10
19.3228
 20
-37.412
 11
19.4323
 21
-37.3744
  0
LINE
  8
0
 10
19.4323
 20
-37.3744
 11
19.5447
 21
-37.3676
  0
LINE
  8
0
 10
19.5447
 20
-37.3676
 11
19.6531
 21
-37.3908
  0
LINE
  8
0
 10
19.6531
 20
-37.3908
 11
19.7504
 21
-37.4435
  0
LINE
  8
0
 10
19.7504
 20
-37.4435
 11
20.4915
 21
-38.0002
  0
LINE
  8
0
 10
20.4915
 20
-38.0002
 11
20.5892
 21
-38.0531
  0
LINE
  8
0
 10
20.5892
 20
-38.0531
 11
20.6976
 21
-38.0763
  0
LINE
  8
0
 10
20.6976
 20
-38.0763
 11
20.8098
 21
-38.0693
  0
LINE
  8
0
 10
20.8098
 20
-38.0693
 11
20.8991
 21
-38.0387
  0
LINE
  8
0
 10
20.8991
 20
-38.0387
 11
21.7027
 21
-37.5902
  0
LINE
  8
0
 10
21.7027
 20
-37.5902
 11
22.4929
 21
-37.1185
  0
LINE
  8
0
 10
22.4929
 20
-37.1185
 11
22.5642
 21
-37.0564
  0
LINE
  8
0
 10
22.5642
 20
-37.0564
 11
22.6264
 21
-36.9627
  0
LINE
  8
0
 10
22.6264
 20
-36.9627
 11
22.6604
 21
-36.8573
  0
LINE
  8
0
 10
22.6604
 20
-36.8573
 11
22.6634
 21
-36.7463
  0
LINE
  8
0
 10
22.6634
 20
-36.7463
 11
22.5518
 21
-35.8261
  0
LINE
  8
0
 10
22.5518
 20
-35.8261
 11
22.5549
 21
-35.7155
  0
LINE
  8
0
 10
22.5549
 20
-35.7155
 11
22.5889
 21
-35.61
  0
LINE
  8
0
 10
22.5889
 20
-35.61
 11
22.651
 21
-35.5161
  0
LINE
  8
0
 10
22.651
 20
-35.5161
 11
22.7383
 21
-35.44
  0
LINE
  8
0
 10
22.7383
 20
-35.44
 11
23.5354
 21
-34.9158
  0
LINE
  8
0
 10
23.5354
 20
-34.9158
 11
23.6398
 21
-34.8657
  0
LINE
  8
0
 10
23.6398
 20
-34.8657
 11
23.7507
 21
-34.8459
  0
LINE
  8
0
 10
23.7507
 20
-34.8459
 11
23.861
 21
-34.8564
  0
LINE
  8
0
 10
23.861
 20
-34.8564
 11
23.9638
 21
-34.8974
  0
LINE
  8
0
 10
23.9638
 20
-34.8974
 11
24.7645
 21
-35.3644
  0
LINE
  8
0
 10
24.7645
 20
-35.3644
 11
24.8677
 21
-35.4055
  0
LINE
  8
0
 10
24.8677
 20
-35.4055
 11
24.978
 21
-35.416
  0
LINE
  8
0
 10
24.978
 20
-35.416
 11
25.0887
 21
-35.3961
  0
LINE
  8
0
 10
25.0887
 20
-35.3961
 11
25.1738
 21
-35.3552
  0
LINE
  8
0
 10
25.1738
 20
-35.3552
 11
25.9199
 21
-34.8165
  0
LINE
  8
0
 10
25.9199
 20
-34.8165
 11
26.65
 21
-34.2562
  0
LINE
  8
0
 10
26.65
 20
-34.2562
 11
26.7137
 21
-34.1863
  0
LINE
  8
0
 10
26.7137
 20
-34.1863
 11
26.7645
 21
-34.086
  0
LINE
  8
0
 10
26.7645
 20
-34.086
 11
26.7861
 21
-33.9774
  0
LINE
  8
0
 10
26.7861
 20
-33.9774
 11
26.7762
 21
-33.8667
  0
LINE
  8
0
 10
26.7762
 20
-33.8667
 11
26.5585
 21
-32.9658
  0
LINE
  8
0
 10
26.5585
 20
-32.9658
 11
26.5487
 21
-32.8555
  0
LINE
  8
0
 10
26.5487
 20
-32.8555
 11
26.5702
 21
-32.7468
  0
LINE
  8
0
 10
26.5702
 20
-32.7468
 11
26.621
 21
-32.6463
  0
LINE
  8
0
 10
26.621
 20
-32.6463
 11
26.6989
 21
-32.5606
  0
LINE
  8
0
 10
26.6989
 20
-32.5606
 11
27.4297
 21
-31.9474
  0
LINE
  8
0
 10
27.4297
 20
-31.9474
 11
27.5277
 21
-31.8856
  0
LINE
  8
0
 10
27.5277
 20
-31.8856
 11
27.6354
 21
-31.853
  0
LINE
  8
0
 10
27.6354
 20
-31.853
 11
27.7462
 21
-31.8506
  0
LINE
  8
0
 10
27.7462
 20
-31.8506
 11
27.8531
 21
-31.8795
  0
LINE
  8
0
 10
27.8531
 20
-31.8795
 11
28.7026
 21
-32.2503
  0
LINE
  8
0
 10
28.7026
 20
-32.2503
 11
28.8099
 21
-32.2792
  0
LINE
  8
0
 10
28.8099
 20
-32.2792
 11
28.9207
 21
-32.2768
  0
LINE
  8
0
 10
28.9207
 20
-32.2768
 11
29.0283
 21
-32.2441
  0
LINE
  8
0
 10
29.0283
 20
-32.2441
 11
29.1081
 21
-32.1937
  0
LINE
  8
0
 10
29.1081
 20
-32.1937
 11
29.7866
 21
-31.5719
  0
LINE
  8
0
 10
29.7866
 20
-31.5719
 11
30.4468
 21
-30.9307
  0
LINE
  8
0
 10
30.4468
 20
-30.9307
 11
30.5018
 21
-30.8539
  0
LINE
  8
0
 10
30.5018
 20
-30.8539
 11
30.5407
 21
-30.7484
  0
LINE
  8
0
 10
30.5407
 20
-30.7484
 11
30.5495
 21
-30.6379
  0
LINE
  8
0
 10
30.5495
 20
-30.6379
 11
30.5268
 21
-30.5292
  0
LINE
  8
0
 10
30.5268
 20
-30.5292
 11
30.206
 21
-29.6596
  0
LINE
  8
0
 10
30.206
 20
-29.6596
 11
30.1834
 21
-29.5512
  0
LINE
  8
0
 10
30.1834
 20
-29.5512
 11
30.1922
 21
-29.4408
  0
LINE
  8
0
 10
30.1922
 20
-29.4408
 11
30.231
 21
-29.3351
  0
LINE
  8
0
 10
30.231
 20
-29.3351
 11
30.2984
 21
-29.2409
  0
LINE
  8
0
 10
30.2984
 20
-29.2409
 11
30.9531
 21
-28.547
  0
LINE
  8
0
 10
30.9531
 20
-28.547
 11
31.0432
 21
-28.4742
  0
LINE
  8
0
 10
31.0432
 20
-28.4742
 11
31.1465
 21
-28.4293
  0
LINE
  8
0
 10
31.1465
 20
-28.4293
 11
31.2563
 21
-28.4141
  0
LINE
  8
0
 10
31.2563
 20
-28.4141
 11
31.3658
 21
-28.4303
  0
LINE
  8
0
 10
31.3658
 20
-28.4303
 11
32.2525
 21
-28.7
  0
LINE
  8
0
 10
32.2525
 20
-28.7
 11
32.3624
 21
-28.7163
  0
LINE
  8
0
 10
32.3624
 20
-28.7163
 11
32.4722
 21
-28.701
  0
LINE
  8
0
 10
32.4722
 20
-28.701
 11
32.5753
 21
-28.6561
  0
LINE
  8
0
 10
32.5753
 20
-28.6561
 11
32.6487
 21
-28.5968
  0
LINE
  8
0
 10
32.6487
 20
-28.5968
 11
33.2505
 21
-27.9004
  0
LINE
  8
0
 10
33.2505
 20
-27.9004
 11
33.8317
 21
-27.1869
  0
LINE
  8
0
 10
33.8317
 20
-27.1869
 11
33.8775
 21
-27.1042
  0
LINE
  8
0
 10
33.8775
 20
-27.1042
 11
33.9038
 21
-26.9949
  0
LINE
  8
0
 10
33.9038
 20
-26.9949
 11
33.8997
 21
-26.8842
  0
LINE
  8
0
 10
33.8997
 20
-26.8842
 11
33.8646
 21
-26.7789
  0
LINE
  8
0
 10
33.8646
 20
-26.7789
 11
33.445
 21
-25.9524
  0
LINE
  8
0
 10
33.445
 20
-25.9524
 11
33.41
 21
-25.8473
  0
LINE
  8
0
 10
33.41
 20
-25.8473
 11
33.406
 21
-25.7366
  0
LINE
  8
0
 10
33.406
 20
-25.7366
 11
33.4322
 21
-25.6271
  0
LINE
  8
0
 10
33.4322
 20
-25.6271
 11
33.4882
 21
-25.5257
  0
LINE
  8
0
 10
33.4882
 20
-25.5257
 11
34.0579
 21
-24.7605
  0
LINE
  8
0
 10
34.0579
 20
-24.7605
 11
34.139
 21
-24.6778
  0
LINE
  8
0
 10
34.139
 20
-24.6778
 11
34.2363
 21
-24.6212
  0
LINE
  8
0
 10
34.2363
 20
-24.6212
 11
34.3436
 21
-24.5934
  0
LINE
  8
0
 10
34.3436
 20
-24.5934
 11
34.4542
 21
-24.5968
  0
LINE
  8
0
 10
34.4542
 20
-24.5968
 11
35.3663
 21
-24.7617
  0
LINE
  8
0
 10
35.3663
 20
-24.7617
 11
35.4774
 21
-24.7651
  0
LINE
  8
0
 10
35.4774
 20
-24.7651
 11
35.5846
 21
-24.7372
  0
LINE
  8
0
 10
35.5846
 20
-24.7372
 11
35.6818
 21
-24.6806
  0
LINE
  8
0
 10
35.6818
 20
-24.6806
 11
35.7478
 21
-24.6131
  0
LINE
  8
0
 10
35.7478
 20
-24.6131
 11
36.2647
 21
-23.8516
  0
LINE
  8
0
 10
36.2647
 20
-23.8516
 11
36.7592
 21
-23.0754
  0
LINE
  8
0
 10
36.7592
 20
-23.0754
 11
36.795
 21
-22.988
  0
LINE
  8
0
 10
36.795
 20
-22.988
 11
36.8085
 21
-22.8764
  0
LINE
  8
0
 10
36.8085
 20
-22.8764
 11
36.7916
 21
-22.7669
  0
LINE
  8
0
 10
36.7916
 20
-22.7669
 11
36.7445
 21
-22.6663
  0
LINE
  8
0
 10
36.7445
 20
-22.6663
 11
36.2318
 21
-21.8942
  0
LINE
  8
0
 10
36.2318
 20
-21.8942
 11
36.1848
 21
-21.7939
  0
LINE
  8
0
 10
36.1848
 20
-21.7939
 11
36.1679
 21
-21.6844
  0
LINE
  8
0
 10
36.1679
 20
-21.6844
 11
36.1813
 21
-21.5726
  0
LINE
  8
0
 10
36.1813
 20
-21.5726
 11
36.2251
 21
-21.4654
  0
LINE
  8
0
 10
36.2251
 20
-21.4654
 11
36.7022
 21
-20.6392
  0
LINE
  8
0
 10
36.7022
 20
-20.6392
 11
36.773
 21
-20.5476
  0
LINE
  8
0
 10
36.773
 20
-20.5476
 11
36.8632
 21
-20.4801
  0
LINE
  8
0
 10
36.8632
 20
-20.4801
 11
36.9665
 21
-20.44
  0
LINE
  8
0
 10
36.9665
 20
-20.44
 11
37.0768
 21
-20.4306
  0
LINE
  8
0
 10
37.0768
 20
-20.4306
 11
38.0019
 21
-20.4885
  0
LINE
  8
0
 10
38.0019
 20
-20.4885
 11
38.1125
 21
-20.479
  0
LINE
  8
0
 10
38.1125
 20
-20.479
 11
38.2158
 21
-20.4388
  0
LINE
  8
0
 10
38.2158
 20
-20.4388
 11
38.3058
 21
-20.3713
  0
LINE
  8
0
 10
38.3058
 20
-20.3713
 11
38.3635
 21
-20.2966
  0
LINE
  8
0
 10
38.3635
 20
-20.2966
 11
38.7885
 21
-19.4803
  0
LINE
  8
0
 10
38.7885
 20
-19.4803
 11
39.1895
 21
-18.6519
  0
LINE
  8
0
 10
39.1895
 20
-18.6519
 11
39.215
 21
-18.5609
  0
LINE
  8
0
 10
39.215
 20
-18.5609
 11
39.2154
 21
-18.4485
  0
LINE
  8
0
 10
39.2154
 20
-18.4485
 11
39.1859
 21
-18.3417
  0
LINE
  8
0
 10
39.1859
 20
-18.3417
 11
39.1274
 21
-18.2473
  0
LINE
  8
0
 10
39.1274
 20
-18.2473
 11
38.5285
 21
-17.5399
  0
LINE
  8
0
 10
38.5285
 20
-17.5399
 11
38.4703
 21
-17.4457
  0
LINE
  8
0
 10
38.4703
 20
-17.4457
 11
38.4408
 21
-17.3389
  0
LINE
  8
0
 10
38.4408
 20
-17.3389
 11
38.4411
 21
-17.2263
  0
LINE
  8
0
 10
38.4411
 20
-17.2263
 11
38.4722
 21
-17.1148
  0
LINE
  8
0
 10
38.4722
 20
-17.1148
 11
38.8501
 21
-16.2388
  0
LINE
  8
0
 10
38.8501
 20
-16.2388
 11
38.9098
 21
-16.1396
  0
LINE
  8
0
 10
38.9098
 20
-16.1396
 11
38.9915
 21
-16.0621
  0
LINE
  8
0
 10
38.9915
 20
-16.0621
 11
39.0895
 21
-16.0103
  0
LINE
  8
0
 10
39.0895
 20
-16.0103
 11
39.1979
 21
-15.9881
  0
LINE
  8
0
 10
39.1979
 20
-15.9881
 11
40.1235
 21
-15.9382
  0
LINE
  8
0
 10
40.1235
 20
-15.9382
 11
40.2323
 21
-15.9159
  0
LINE
  8
0
 10
40.2323
 20
-15.9159
 11
40.3302
 21
-15.864
  0
LINE
  8
0
 10
40.3302
 20
-15.864
 11
40.4118
 21
-15.7865
  0
LINE
  8
0
 10
40.4118
 20
-15.7865
 11
40.4604
 21
-15.7057
  0
LINE
  8
0
 10
40.4604
 20
-15.7057
 11
40.7877
 21
-14.8455
  0
LINE
  8
0
 10
40.7877
 20
-14.8455
 11
41.0899
 21
-13.9762
  0
LINE
  8
0
 10
41.0899
 20
-13.9762
 11
41.1046
 21
-13.8829
  0
LINE
  8
0
 10
41.1046
 20
-13.8829
 11
41.092
 21
-13.7711
  0
LINE
  8
0
 10
41.092
 20
-13.7711
 11
41.0503
 21
-13.6685
  0
LINE
  8
0
 10
41.0503
 20
-13.6685
 11
40.9812
 21
-13.5815
  0
LINE
  8
0
 10
40.9812
 20
-13.5815
 11
40.3043
 21
-12.9484
  0
LINE
  8
0
 10
40.3043
 20
-12.9484
 11
40.2355
 21
-12.8616
  0
LINE
  8
0
 10
40.2355
 20
-12.8616
 11
40.1938
 21
-12.759
  0
LINE
  8
0
 10
40.1938
 20
-12.759
 11
40.181
 21
-12.6471
  0
LINE
  8
0
 10
40.181
 20
-12.6471
 11
40.199
 21
-12.5327
  0
LINE
  8
0
 10
40.199
 20
-12.5327
 11
40.4726
 21
-11.6188
  0
LINE
  8
0
 10
40.4726
 20
-11.6188
 11
40.5204
 21
-11.5133
  0
LINE
  8
0
 10
40.5204
 20
-11.5133
 11
40.5926
 21
-11.4269
  0
LINE
  8
0
 10
40.5926
 20
-11.4269
 11
40.6838
 21
-11.364
  0
LINE
  8
0
 10
40.6838
 20
-11.364
 11
40.789
 21
-11.3294
  0
LINE
  8
0
 10
40.789
 20
-11.3294
 11
41.7025
 21
-11.1724
  0
LINE
  8
0
 10
41.7025
 20
-11.1724
 11
41.808
 21
-11.1376
  0
LINE
  8
0
 10
41.808
 20
-11.1376
 11
41.8992
 21
-11.0747
  0
LINE
  8
0
 10
41.8992
 20
-11.0747
 11
41.9712
 21
-10.9882
  0
LINE
  8
0
 10
41.9712
 20
-10.9882
 11
42.0101
 21
-10.9023
  0
LINE
  8
0
 10
42.0101
 20
-10.9023
 11
42.2354
 21
-10.01
  0
LINE
  8
0
 10
42.2354
 20
-10.01
 11
42.4346
 21
-9.11146
  0
LINE
  8
0
 10
42.4346
 20
-9.11146
 11
42.4384
 21
-9.01703
  0
LINE
  8
0
 10
42.4384
 20
-9.01703
 11
42.4128
 21
-8.90752
  0
LINE
  8
0
 10
42.4128
 20
-8.90752
 11
42.3595
 21
-8.81042
  0
LINE
  8
0
 10
42.3595
 20
-8.81042
 11
42.2809
 21
-8.73204
  0
LINE
  8
0
 10
42.2809
 20
-8.73204
 11
41.535
 21
-8.18179
  0
LINE
  8
0
 10
41.535
 20
-8.18179
 11
41.4566
 21
-8.10362
  0
LINE
  8
0
 10
41.4566
 20
-8.10362
 11
41.4032
 21
-8.0065
  0
LINE
  8
0
 10
41.4032
 20
-8.0065
 11
41.3775
 21
-7.89687
  0
LINE
  8
0
 10
41.3775
 20
-7.89687
 11
41.3821
 21
-7.78115
  0
LINE
  8
0
 10
41.3821
 20
-7.78115
 11
41.5478
 21
-6.84163
  0
LINE
  8
0
 10
41.5478
 20
-6.84163
 11
41.583
 21
-6.73132
  0
LINE
  8
0
 10
41.583
 20
-6.73132
 11
41.6447
 21
-6.63708
  0
LINE
  8
0
 10
41.6447
 20
-6.63708
 11
41.728
 21
-6.56407
  0
LINE
  8
0
 10
41.728
 20
-6.56407
 11
41.8284
 21
-6.51743
  0
LINE
  8
0
 10
41.8284
 20
-6.51743
 11
42.7175
 21
-6.25546
  0
LINE
  8
0
 10
42.7175
 20
-6.25546
 11
42.8183
 21
-6.20868
  0
LINE
  8
0
 10
42.8183
 20
-6.20868
 11
42.9016
 21
-6.13558
  0
LINE
  8
0
 10
42.9016
 20
-6.13558
 11
42.9631
 21
-6.04139
  0
LINE
  8
0
 10
42.9631
 20
-6.04139
 11
42.9918
 21
-5.95149
  0
LINE
  8
0
 10
42.9918
 20
-5.95149
 11
43.1119
 21
-5.03906
  0
LINE
  8
0
 10
43.1119
 20
-5.03906
 11
43.2054
 21
-4.12349
  0
LINE
  8
0
 10
43.2054
 20
-4.12349
 11
43.1983
 21
-4.02926
  0
LINE
  8
0
 10
43.1983
 20
-4.02926
 11
43.1602
 21
-3.92346
  0
LINE
  8
0
 10
43.1602
 20
-3.92346
 11
43.0959
 21
-3.83321
  0
LINE
  8
0
 10
43.0959
 20
-3.83321
 11
43.0087
 21
-3.76449
  0
LINE
  8
0
 10
43.0087
 20
-3.76449
 11
42.204
 21
-3.30455
  0
LINE
  8
0
 10
42.204
 20
-3.30455
 11
42.117
 21
-3.23602
  0
LINE
  8
0
 10
42.117
 20
-3.23602
 11
42.0528
 21
-3.14574
  0
LINE
  8
0
 10
42.0528
 20
-3.14574
 11
42.0145
 21
-3.03983
  0
LINE
  8
0
 10
42.0145
 20
-3.03983
 11
42.0056
 21
-2.92437
  0
LINE
  8
0
 10
42.0056
 20
-2.92437
 11
42.0611
 21
-1.97196
  0
LINE
  8
0
 10
42.0611
 20
-1.97196
 11
42.0833
 21
-1.85831
  0
LINE
  8
0
 10
42.0833
 20
-1.85831
 11
42.1336
 21
-1.75756
  0
LINE
  8
0
 10
42.1336
 20
-1.75756
 11
42.2079
 21
-1.67535
  0
LINE
  8
0
 10
42.2079
 20
-1.67535
 11
42.3022
 21
-1.61738
  0
LINE
  8
0
 10
42.3022
 20
-1.61738
 11
43.1549
 21
-1.25396
  0
LINE
  8
0
 10
43.1549
 20
-1.25396
 11
43.2495
 21
-1.1958
  0
LINE
  8
0
 10
43.2495
 20
-1.1958
 11
43.3238
 21
-1.11353
  0
LINE
  8
0
 10
43.3238
 20
-1.11353
 11
43.3739
 21
-1.01283
  0
LINE
  8
0
 10
43.3739
 20
-1.01283
 11
43.392
 21
-0.920211
  0
LINE
  8
0
 10
43.392
 20
-0.920211
 11
43.4054
 21
0
  0
LINE
  8
0
 10
43.4054
 20
0
 11
43.392
 21
0.920234
  0
LINE
  8
0
 10
43.392
 20
0.920234
 11
43.3739
 21
1.01299
  0
LINE
  8
0
 10
43.3739
 20
1.01299
 11
43.3238
 21
1.11366
  0
LINE
  8
0
 10
43.3238
 20
1.11366
 11
43.2495
 21
1.19584
  0
LINE
  8
0
 10
43.2495
 20
1.19584
 11
43.1549
 21
1.25396
  0
LINE
  8
0
 10
43.1549
 20
1.25396
 11
42.3022
 21
1.61738
  0
LINE
  8
0
 10
42.3022
 20
1.61738
 11
42.2079
 21
1.67535
  0
LINE
  8
0
 10
42.2079
 20
1.67535
 11
42.1336
 21
1.75756
  0
LINE
  8
0
 10
42.1336
 20
1.75756
 11
42.0833
 21
1.85831
  0
LINE
  8
0
 10
42.0833
 20
1.85831
 11
42.0611
 21
1.97196
  0
LINE
  8
0
 10
42.0611
 20
1.97196
 11
42.0056
 21
2.92437
  0
LINE
  8
0
 10
42.0056
 20
2.92437
 11
42.0145
 21
3.03983
  0
LINE
  8
0
 10
42.0145
 20
3.03983
 11
42.0528
 21
3.14574
  0
LINE
  8
0
 10
42.0528
 20
3.14574
 11
42.117
 21
3.23602
  0
LINE
  8
0
 10
42.117
 20
3.23602
 11
42.204
 21
3.30455
  0
LINE
  8
0
 10
42.204
 20
3.30455
 11
43.0087
 21
3.76449
  0
LINE
  8
0
 10
43.0087
 20
3.76449
 11
43.0959
 21
3.83326
  0
LINE
  8
0
 10
43.0959
 20
3.83326
 11
43.1602
 21
3.92359
  0
LINE
  8
0
 10
43.1602
 20
3.92359
 11
43.1982
 21
4.02943
  0
LINE
  8
0
 10
43.1982
 20
4.02943
 11
43.2054
 21
4.12352
  0
LINE
  8
0
 10
43.2054
 20
4.12352
 11
43.1119
 21
5.03906
  0
LINE
  8
0
 10
43.1119
 20
5.03906
 11
42.9918
 21
5.95152
  0
LINE
  8
0
 10
42.9918
 20
5.95152
 11
42.963
 21
6.04155
  0
LINE
  8
0
 10
42.963
 20
6.04155
 11
42.9016
 21
6.13571
  0
LINE
  8
0
 10
42.9016
 20
6.13571
 11
42.8183
 21
6.20872
  0
LINE
  8
0
 10
42.8183
 20
6.20872
 11
42.7175
 21
6.25546
  0
LINE
  8
0
 10
42.7175
 20
6.25546
 11
41.8284
 21
6.51743
  0
LINE
  8
0
 10
41.8284
 20
6.51743
 11
41.728
 21
6.56407
  0
LINE
  8
0
 10
41.728
 20
6.56407
 11
41.6447
 21
6.63708
  0
LINE
  8
0
 10
41.6447
 20
6.63708
 11
41.583
 21
6.73132
  0
LINE
  8
0
 10
41.583
 20
6.73132
 11
41.5478
 21
6.84163
  0
LINE
  8
0
 10
41.5478
 20
6.84163
 11
41.3821
 21
7.78115
  0
LINE
  8
0
 10
41.3821
 20
7.78115
 11
41.3775
 21
7.89687
  0
LINE
  8
0
 10
41.3775
 20
7.89687
 11
41.4032
 21
8.0065
  0
LINE
  8
0
 10
41.4032
 20
8.0065
 11
41.4566
 21
8.10362
  0
LINE
  8
0
 10
41.4566
 20
8.10362
 11
41.535
 21
8.18179
  0
LINE
  8
0
 10
41.535
 20
8.18179
 11
42.2809
 21
8.73204
  0
LINE
  8
0
 10
42.2809
 20
8.73204
 11
42.3595
 21
8.81047
  0
LINE
  8
0
 10
42.3595
 20
8.81047
 11
42.4128
 21
8.90765
  0
LINE
  8
0
 10
42.4128
 20
8.90765
 11
42.4384
 21
9.01719
  0
LINE
  8
0
 10
42.4384
 20
9.01719
 11
42.4346
 21
9.11148
  0
LINE
  8
0
 10
42.4346
 20
9.11148
 11
42.2354
 21
10.01
  0
LINE
  8
0
 10
42.2354
 20
10.01
 11
42.0101
 21
10.9023
  0
LINE
  8
0
 10
42.0101
 20
10.9023
 11
41.9712
 21
10.9884
  0
LINE
  8
0
 10
41.9712
 20
10.9884
 11
41.8992
 21
11.0748
  0
LINE
  8
0
 10
41.8992
 20
11.0748
 11
41.808
 21
11.1376
  0
LINE
  8
0
 10
41.808
 20
11.1376
 11
41.7025
 21
11.1724
  0
LINE
  8
0
 10
41.7025
 20
11.1724
 11
40.789
 21
11.3294
  0
LINE
  8
0
 10
40.789
 20
11.3294
 11
40.6838
 21
11.364
  0
LINE
  8
0
 10
40.6838
 20
11.364
 11
40.5926
 21
11.4269
  0
LINE
  8
0
 10
40.5926
 20
11.4269
 11
40.5204
 21
11.5133
  0
LINE
  8
0
 10
40.5204
 20
11.5133
 11
40.4726
 21
11.6188
  0
LINE
  8
0
 10
40.4726
 20
11.6188
 11
40.199
 21
12.5327
  0
LINE
  8
0
 10
40.199
 20
12.5327
 11
40.181
 21
12.6471
  0
LINE
  8
0
 10
40.181
 20
12.6471
 11
40.1938
 21
12.759
  0
LINE
  8
0
 10
40.1938
 20
12.759
 11
40.2355
 21
12.8616
  0
LINE
  8
0
 10
40.2355
 20
12.8616
 11
40.3043
 21
12.9484
  0
LINE
  8
0
 10
40.3043
 20
12.9484
 11
40.9812
 21
13.5815
  0
LINE
  8
0
 10
40.9812
 20
13.5815
 11
41.0503
 21
13.6685
  0
LINE
  8
0
 10
41.0503
 20
13.6685
 11
41.0919
 21
13.7712
  0
LINE
  8
0
 10
41.0919
 20
13.7712
 11
41.1046
 21
13.883
  0
LINE
  8
0
 10
41.1046
 20
13.883
 11
41.0899
 21
13.9762
  0
LINE
  8
0
 10
41.0899
 20
13.9762
 11
40.7877
 21
14.8455
  0
LINE
  8
0
 10
40.7877
 20
14.8455
 11
40.4604
 21
15.7057
  0
LINE
  8
0
 10
40.4604
 20
15.7057
 11
40.4117
 21
15.7867
  0
LINE
  8
0
 10
40.4117
 20
15.7867
 11
40.3302
 21
15.8641
  0
LINE
  8
0
 10
40.3302
 20
15.8641
 11
40.2323
 21
15.9159
  0
LINE
  8
0
 10
40.2323
 20
15.9159
 11
40.1235
 21
15.9382
  0
LINE
  8
0
 10
40.1235
 20
15.9382
 11
39.1979
 21
15.9881
  0
LINE
  8
0
 10
39.1979
 20
15.9881
 11
39.0895
 21
16.0103
  0
LINE
  8
0
 10
39.0895
 20
16.0103
 11
38.9915
 21
16.0621
  0
LINE
  8
0
 10
38.9915
 20
16.0621
 11
38.9098
 21
16.1396
  0
LINE
  8
0
 10
38.9098
 20
16.1396
 11
38.8501
 21
16.2388
  0
LINE
  8
0
 10
38.8501
 20
16.2388
 11
38.4722
 21
17.1148
  0
LINE
  8
0
 10
38.4722
 20
17.1148
 11
38.4411
 21
17.2263
  0
LINE
  8
0
 10
38.4411
 20
17.2263
 11
38.4408
 21
17.3389
  0
LINE
  8
0
 10
38.4408
 20
17.3389
 11
38.4703
 21
17.4457
  0
LINE
  8
0
 10
38.4703
 20
17.4457
 11
38.5285
 21
17.5399
  0
LINE
  8
0
 10
38.5285
 20
17.5399
 11
39.1274
 21
18.2473
  0
LINE
  8
0
 10
39.1274
 20
18.2473
 11
39.1859
 21
18.3418
  0
LINE
  8
0
 10
39.1859
 20
18.3418
 11
39.2153
 21
18.4486
  0
LINE
  8
0
 10
39.2153
 20
18.4486
 11
39.2149
 21
18.5611
  0
LINE
  8
0
 10
39.2149
 20
18.5611
 11
39.1895
 21
18.652
  0
LINE
  8
0
 10
39.1895
 20
18.652
 11
38.7885
 21
19.4803
  0
LINE
  8
0
 10
38.7885
 20
19.4803
 11
38.3635
 21
20.2966
  0
LINE
  8
0
 10
38.3635
 20
20.2966
 11
38.3057
 21
20.3714
  0
LINE
  8
0
 10
38.3057
 20
20.3714
 11
38.2158
 21
20.4389
  0
LINE
  8
0
 10
38.2158
 20
20.4389
 11
38.1125
 21
20.479
  0
LINE
  8
0
 10
38.1125
 20
20.479
 11
38.0019
 21
20.4885
  0
LINE
  8
0
 10
38.0019
 20
20.4885
 11
37.0768
 21
20.4306
  0
LINE
  8
0
 10
37.0768
 20
20.4306
 11
36.9665
 21
20.44
  0
LINE
  8
0
 10
36.9665
 20
20.44
 11
36.8632
 21
20.4801
  0
LINE
  8
0
 10
36.8632
 20
20.4801
 11
36.773
 21
20.5476
  0
LINE
  8
0
 10
36.773
 20
20.5476
 11
36.7022
 21
20.6392
  0
LINE
  8
0
 10
36.7022
 20
20.6392
 11
36.2251
 21
21.4654
  0
LINE
  8
0
 10
36.2251
 20
21.4654
 11
36.1813
 21
21.5726
  0
LINE
  8
0
 10
36.1813
 20
21.5726
 11
36.1679
 21
21.6844
  0
LINE
  8
0
 10
36.1679
 20
21.6844
 11
36.1848
 21
21.7939
  0
LINE
  8
0
 10
36.1848
 20
21.7939
 11
36.2318
 21
21.8942
  0
LINE
  8
0
 10
36.2318
 20
21.8942
 11
36.7445
 21
22.6663
  0
LINE
  8
0
 10
36.7445
 20
22.6663
 11
36.7916
 21
22.7669
  0
LINE
  8
0
 10
36.7916
 20
22.7669
 11
36.8084
 21
22.8765
  0
LINE
  8
0
 10
36.8084
 20
22.8765
 11
36.795
 21
22.9882
  0
LINE
  8
0
 10
36.795
 20
22.9882
 11
36.7592
 21
23.0755
  0
LINE
  8
0
 10
36.7592
 20
23.0755
 11
36.2647
 21
23.8516
  0
LINE
  8
0
 10
36.2647
 20
23.8516
 11
35.7478
 21
24.6131
  0
LINE
  8
0
 10
35.7478
 20
24.6131
 11
35.6817
 21
24.6807
  0
LINE
  8
0
 10
35.6817
 20
24.6807
 11
35.5846
 21
24.7373
  0
LINE
  8
0
 10
35.5846
 20
24.7373
 11
35.4773
 21
24.7651
  0
LINE
  8
0
 10
35.4773
 20
24.7651
 11
35.3663
 21
24.7617
  0
LINE
  8
0
 10
35.3663
 20
24.7617
 11
34.4542
 21
24.5968
  0
LINE
  8
0
 10
34.4542
 20
24.5968
 11
34.3436
 21
24.5934
  0
LINE
  8
0
 10
34.3436
 20
24.5934
 11
34.2363
 21
24.6212
  0
LINE
  8
0
 10
34.2363
 20
24.6212
 11
34.139
 21
24.6778
  0
LINE
  8
0
 10
34.139
 20
24.6778
 11
34.0579
 21
24.7605
  0
LINE
  8
0
 10
34.0579
 20
24.7605
 11
33.4882
 21
25.5257
  0
LINE
  8
0
 10
33.4882
 20
25.5257
 11
33.4322
 21
25.6271
  0
LINE
  8
0
 10
33.4322
 20
25.6271
 11
33.406
 21
25.7366
  0
LINE
  8
0
 10
33.406
 20
25.7366
 11
33.41
 21
25.8473
  0
LINE
  8
0
 10
33.41
 20
25.8473
 11
33.445
 21
25.9524
  0
LINE
  8
0
 10
33.445
 20
25.9524
 11
33.8646
 21
26.7789
  0
LINE
  8
0
 10
33.8646
 20
26.7789
 11
33.8997
 21
26.8842
  0
LINE
  8
0
 10
33.8997
 20
26.8842
 11
33.9037
 21
26.995
  0
LINE
  8
0
 10
33.9037
 20
26.995
 11
33.8774
 21
27.1044
  0
LINE
  8
0
 10
33.8774
 20
27.1044
 11
33.8317
 21
27.1869
  0
LINE
  8
0
 10
33.8317
 20
27.1869
 11
33.2505
 21
27.9004
  0
LINE
  8
0
 10
33.2505
 20
27.9004
 11
32.6487
 21
28.5968
  0
LINE
  8
0
 10
32.6487
 20
28.5968
 11
32.5752
 21
28.6562
  0
LINE
  8
0
 10
32.5752
 20
28.6562
 11
32.4721
 21
28.7011
  0
LINE
  8
0
 10
32.4721
 20
28.7011
 11
32.3624
 21
28.7163
  0
LINE
  8
0
 10
32.3624
 20
28.7163
 11
32.2525
 21
28.7
  0
LINE
  8
0
 10
32.2525
 20
28.7
 11
31.3658
 21
28.4303
  0
LINE
  8
0
 10
31.3658
 20
28.4303
 11
31.2563
 21
28.4141
  0
LINE
  8
0
 10
31.2563
 20
28.4141
 11
31.1465
 21
28.4293
  0
LINE
  8
0
 10
31.1465
 20
28.4293
 11
31.0432
 21
28.4742
  0
LINE
  8
0
 10
31.0432
 20
28.4742
 11
30.9531
 21
28.547
  0
LINE
  8
0
 10
30.9531
 20
28.547
 11
30.2984
 21
29.2409
  0
LINE
  8
0
 10
30.2984
 20
29.2409
 11
30.231
 21
29.3351
  0
LINE
  8
0
 10
30.231
 20
29.3351
 11
30.1922
 21
29.4408
  0
LINE
  8
0
 10
30.1922
 20
29.4408
 11
30.1834
 21
29.5512
  0
LINE
  8
0
 10
30.1834
 20
29.5512
 11
30.206
 21
29.6596
  0
LINE
  8
0
 10
30.206
 20
29.6596
 11
30.5268
 21
30.5292
  0
LINE
  8
0
 10
30.5268
 20
30.5292
 11
30.5494
 21
30.638
  0
LINE
  8
0
 10
30.5494
 20
30.638
 11
30.5406
 21
30.7485
  0
LINE
  8
0
 10
30.5406
 20
30.7485
 11
30.5017
 21
30.854
  0
LINE
  8
0
 10
30.5017
 20
30.854
 11
30.4467
 21
30.9307
  0
LINE
  8
0
 10
30.4467
 20
30.9307
 11
29.7866
 21
31.5719
  0
LINE
  8
0
 10
29.7866
 20
31.5719
 11
29.108
 21
32.1937
  0
LINE
  8
0
 10
29.108
 20
32.1937
 11
29.0282
 21
32.2442
  0
LINE
  8
0
 10
29.0282
 20
32.2442
 11
28.9206
 21
32.2768
  0
LINE
  8
0
 10
28.9206
 20
32.2768
 11
28.8098
 21
32.2792
  0
LINE
  8
0
 10
28.8098
 20
32.2792
 11
28.7026
 21
32.2503
  0
LINE
  8
0
 10
28.7026
 20
32.2503
 11
27.8531
 21
31.8795
  0
LINE
  8
0
 10
27.8531
 20
31.8795
 11
27.7462
 21
31.8506
  0
LINE
  8
0
 10
27.7462
 20
31.8506
 11
27.6354
 21
31.853
  0
LINE
  8
0
 10
27.6354
 20
31.853
 11
27.5277
 21
31.8856
  0
LINE
  8
0
 10
27.5277
 20
31.8856
 11
27.4297
 21
31.9474
  0
LINE
  8
0
 10
27.4297
 20
31.9474
 11
26.6989
 21
32.5606
  0
LINE
  8
0
 10
26.6989
 20
32.5606
 11
26.621
 21
32.6463
  0
LINE
  8
0
 10
26.621
 20
32.6463
 11
26.5702
 21
32.7468
  0
LINE
  8
0
 10
26.5702
 20
32.7468
 11
26.5487
 21
32.8555
  0
LINE
  8
0
 10
26.5487
 20
32.8555
 11
26.5585
 21
32.9658
  0
LINE
  8
0
 10
26.5585
 20
32.9658
 11
26.7762
 21
33.8667
  0
LINE
  8
0
 10
26.7762
 20
33.8667
 11
26.786
 21
33.9774
  0
LINE
  8
0
 10
26.786
 20
33.9774
 11
26.7644
 21
34.0861
  0
LINE
  8
0
 10
26.7644
 20
34.0861
 11
26.7135
 21
34.1864
  0
LINE
  8
0
 10
26.7135
 20
34.1864
 11
26.65
 21
34.2562
  0
LINE
  8
0
 10
26.65
 20
34.2562
 11
25.9199
 21
34.8165
  0
LINE
  8
0
 10
25.9199
 20
34.8165
 11
25.1738
 21
35.3553
  0
LINE
  8
0
 10
25.1738
 20
35.3553
 11
25.0886
 21
35.3962
  0
LINE
  8
0
 10
25.0886
 20
35.3962
 11
24.9779
 21
35.4161
  0
LINE
  8
0
 10
24.9779
 20
35.4161
 11
24.8676
 21
35.4056
  0
LINE
  8
0
 10
24.8676
 20
35.4056
 11
24.7645
 21
35.3644
  0
LINE
  8
0
 10
24.7645
 20
35.3644
 11
23.9638
 21
34.8974
  0
LINE
  8
0
 10
23.9638
 20
34.8974
 11
23.861
 21
34.8564
  0
LINE
  8
0
 10
23.861
 20
34.8564
 11
23.7507
 21
34.8459
  0
LINE
  8
0
 10
23.7507
 20
34.8459
 11
23.6398
 21
34.8657
  0
LINE
  8
0
 10
23.6398
 20
34.8657
 11
23.5354
 21
34.9158
  0
LINE
  8
0
 10
23.5354
 20
34.9158
 11
22.7383
 21
35.44
  0
LINE
  8
0
 10
22.7383
 20
35.44
 11
22.651
 21
35.5161
  0
LINE
  8
0
 10
22.651
 20
35.5161
 11
22.5889
 21
35.61
  0
LINE
  8
0
 10
22.5889
 20
35.61
 11
22.5549
 21
35.7155
  0
LINE
  8
0
 10
22.5549
 20
35.7155
 11
22.5518
 21
35.8261
  0
LINE
  8
0
 10
22.5518
 20
35.8261
 11
22.6634
 21
36.7463
  0
LINE
  8
0
 10
22.6634
 20
36.7463
 11
22.6604
 21
36.8573
  0
LINE
  8
0
 10
22.6604
 20
36.8573
 11
22.6263
 21
36.9628
  0
LINE
  8
0
 10
22.6263
 20
36.9628
 11
22.5641
 21
37.0565
  0
LINE
  8
0
 10
22.5641
 20
37.0565
 11
22.4929
 21
37.1185
  0
LINE
  8
0
 10
22.4929
 20
37.1185
 11
21.7027
 21
37.5902
  0
LINE
  8
0
 10
21.7027
 20
37.5902
 11
20.8991
 21
38.0387
  0
LINE
  8
0
 10
20.8991
 20
38.0387
 11
20.8097
 21
38.0694
  0
LINE
  8
0
 10
20.8097
 20
38.0694
 11
20.6975
 21
38.0764
  0
LINE
  8
0
 10
20.6975
 20
38.0764
 11
20.5891
 21
38.0531
  0
LINE
  8
0
 10
20.5891
 20
38.0531
 11
20.4915
 21
38.0002
  0
LINE
  8
0
 10
20.4915
 20
38.0002
 11
19.7504
 21
37.4435
  0
LINE
  8
0
 10
19.7504
 20
37.4435
 11
19.6531
 21
37.3908
  0
LINE
  8
0
 10
19.6531
 20
37.3908
 11
19.5447
 21
37.3676
  0
LINE
  8
0
 10
19.5447
 20
37.3676
 11
19.4323
 21
37.3744
  0
LINE
  8
0
 10
19.4323
 20
37.3744
 11
19.3228
 21
37.412
  0
LINE
  8
0
 10
19.3228
 20
37.412
 11
18.4702
 21
37.8401
  0
LINE
  8
0
 10
18.4702
 20
37.8401
 11
18.3747
 21
37.9056
  0
LINE
  8
0
 10
18.3747
 20
37.9056
 11
18.3021
 21
37.9916
  0
LINE
  8
0
 10
18.3021
 20
37.9916
 11
18.256
 21
38.0924
  0
LINE
  8
0
 10
18.256
 20
38.0924
 11
18.2402
 21
38.202
  0
LINE
  8
0
 10
18.2402
 20
38.202
 11
18.2442
 21
39.1289
  0
LINE
  8
0
 10
18.2442
 20
39.1289
 11
18.2283
 21
39.2388
  0
LINE
  8
0
 10
18.2283
 20
39.2388
 11
18.1821
 21
39.3396
  0
LINE
  8
0
 10
18.1821
 20
39.3396
 11
18.1095
 21
39.4255
  0
LINE
  8
0
 10
18.1095
 20
39.4255
 11
18.0316
 21
39.4788
  0
LINE
  8
0
 10
18.0316
 20
39.4788
 11
17.192
 21
39.8555
  0
LINE
  8
0
 10
17.192
 20
39.8555
 11
16.3417
 21
40.2077
  0
LINE
  8
0
 10
16.3417
 20
40.2077
 11
16.2494
 21
40.2279
  0
LINE
  8
0
 10
16.2494
 20
40.2279
 11
16.1371
 21
40.2217
  0
LINE
  8
0
 10
16.1371
 20
40.2217
 11
16.0322
 21
40.1861
  0
LINE
  8
0
 10
16.0322
 20
40.1861
 11
15.9414
 21
40.1222
  0
LINE
  8
0
 10
15.9414
 20
40.1222
 11
15.27
 21
39.4832
  0
LINE
  8
0
 10
15.27
 20
39.4832
 11
15.1794
 21
39.4196
  0
LINE
  8
0
 10
15.1794
 20
39.4196
 11
15.0745
 21
39.3839
  0
LINE
  8
0
 10
15.0745
 20
39.3839
 11
14.962
 21
39.3776
  0
LINE
  8
0
 10
14.962
 20
39.3776
 11
14.8489
 21
39.4022
  0
LINE
  8
0
 10
14.8489
 20
39.4022
 11
13.9524
 21
39.7285
  0
LINE
  8
0
 10
13.9524
 20
39.7285
 11
13.8499
 21
39.7824
  0
LINE
  8
0
 10
13.8499
 20
39.7824
 11
13.7678
 21
39.8595
  0
LINE
  8
0
 10
13.7678
 20
39.8595
 11
13.7103
 21
39.9543
  0
LINE
  8
0
 10
13.7103
 20
39.9543
 11
13.6819
 21
40.0612
  0
LINE
  8
0
 10
13.6819
 20
40.0612
 11
13.5783
 21
40.9823
  0
LINE
  8
0
 10
13.5783
 20
40.9823
 11
13.5497
 21
41.0897
  0
LINE
  8
0
 10
13.5497
 20
41.0897
 11
13.4922
 21
41.1844
  0
LINE
  8
0
 10
13.4922
 20
41.1844
 11
13.4101
 21
41.2613
  0
LINE
  8
0
 10
13.4101
 20
41.2613
 11
13.3265
 21
41.3052
  0
LINE
  8
0
 10
13.3265
 20
41.3052
 11
12.4488
 21
41.5819
  0
LINE
  8
0
 10
12.4488
 20
41.5819
 11
11.5634
 21
41.833
  0
LINE
  8
0
 10
11.5634
 20
41.833
 11
11.4693
 21
41.8423
  0
LINE
  8
0
 10
11.4693
 20
41.8423
 11
11.3585
 21
41.8232
  0
LINE
  8
0
 10
11.3585
 20
41.8232
 11
11.2585
 21
41.7756
  0
LINE
  8
0
 10
11.2585
 20
41.7756
 11
11.1757
 21
41.7016
  0
LINE
  8
0
 10
11.1757
 20
41.7016
 11
10.583
 21
40.989
  0
LINE
  8
0
 10
10.583
 20
40.989
 11
10.5004
 21
40.9152
  0
LINE
  8
0
 10
10.5004
 20
40.9152
 11
10.4003
 21
40.8676
  0
LINE
  8
0
 10
10.4003
 20
40.8676
 11
10.2894
 21
40.8484
  0
LINE
  8
0
 10
10.2894
 20
40.8484
 11
10.1741
 21
40.8597
  0
LINE
  8
0
 10
10.1741
 20
40.8597
 11
9.24584
 21
41.0797
  0
LINE
  8
0
 10
9.24584
 20
41.0797
 11
9.13777
 21
41.1213
  0
LINE
  8
0
 10
9.13777
 20
41.1213
 11
9.04728
 21
41.1883
  0
LINE
  8
0
 10
9.04728
 20
41.1883
 11
8.97923
 21
41.2758
  0
LINE
  8
0
 10
8.97923
 20
41.2758
 11
8.93851
 21
41.3787
  0
LINE
  8
0
 10
8.93851
 20
41.3787
 11
8.72868
 21
42.2815
  0
LINE
  8
0
 10
8.72868
 20
42.2815
 11
8.68783
 21
42.3848
  0
LINE
  8
0
 10
8.68783
 20
42.3848
 11
8.61971
 21
42.4723
  0
LINE
  8
0
 10
8.61971
 20
42.4723
 11
8.52925
 21
42.5391
  0
LINE
  8
0
 10
8.52925
 20
42.5391
 11
8.44117
 21
42.573
  0
LINE
  8
0
 10
8.44117
 20
42.573
 11
7.53727
 21
42.746
  0
LINE
  8
0
 10
7.53727
 20
42.746
 11
6.62869
 21
42.8926
  0
LINE
  8
0
 10
6.62869
 20
42.8926
 11
6.5342
 21
42.8909
  0
LINE
  8
0
 10
6.5342
 20
42.8909
 11
6.42636
 21
42.859
  0
LINE
  8
0
 10
6.42636
 20
42.859
 11
6.33253
 21
42.8001
  0
LINE
  8
0
 10
6.33253
 20
42.8001
 11
6.25886
 21
42.717
  0
LINE
  8
0
 10
6.25886
 20
42.717
 11
5.7529
 21
41.9404
  0
LINE
  8
0
 10
5.7529
 20
41.9404
 11
5.67943
 21
41.8576
  0
LINE
  8
0
 10
5.67943
 20
41.8576
 11
5.58557
 21
41.7987
  0
LINE
  8
0
 10
5.58557
 20
41.7987
 11
5.47762
 21
41.7667
  0
LINE
  8
0
 10
5.47762
 20
41.7667
 11
5.36183
 21
41.7645
  0
LINE
  8
0
 10
5.36183
 20
41.7645
 11
4.41426
 21
41.8753
  0
LINE
  8
0
 10
4.41426
 20
41.8753
 11
4.30209
 21
41.9041
  0
LINE
  8
0
 10
4.30209
 20
41.9041
 11
4.20443
 21
41.9601
  0
LINE
  8
0
 10
4.20443
 20
41.9601
 11
4.12669
 21
42.0391
  0
LINE
  8
0
 10
4.12669
 20
42.0391
 11
4.0743
 21
42.1366
  0
LINE
  8
0
 10
4.0743
 20
42.1366
 11
3.76108
 21
43.009
  0
LINE
  8
0
 10
3.76108
 20
43.009
 11
3.70851
 21
43.1068
  0
LINE
  8
0
 10
3.70851
 20
43.1068
 11
3.6307
 21
43.1858
  0
LINE
  8
0
 10
3.6307
 20
43.1858
 11
3.53309
 21
43.2417
  0
LINE
  8
0
 10
3.53309
 20
43.2417
 11
3.44167
 21
43.2651
  0
LINE
  8
0
 10
3.44167
 20
43.2651
 11
2.5238
 21
43.3319
  0
LINE
  8
0
 10
2.5238
 20
43.3319
 11
1.60434
 21
43.3721
  0
LINE
  8
0
 10
1.60434
 20
43.3721
 11
1.51069
 21
43.3594
  0
LINE
  8
0
 10
1.51069
 20
43.3594
 11
1.40728
 21
43.3153
  0
LINE
  8
0
 10
1.40728
 20
43.3153
 11
1.32092
 21
43.2459
  0
LINE
  8
0
 10
1.32092
 20
43.2459
 11
1.25739
 21
43.1548
  0
LINE
  8
0
 10
1.25739
 20
43.1548
 11
0.845015
 21
42.3247
  0
LINE
  8
0
 10
0.845015
 20
42.3247
 11
0.781652
 21
42.2339
  0
LINE
  8
0
 10
0.781652
 20
42.2339
 11
0.695269
 21
42.1645
  0
LINE
  8
0
 10
0.695269
 20
42.1645
 11
0.591763
 21
42.1202
  0
LINE
  8
0
 10
0.591763
 20
42.1202
 11
0.477007
 21
42.1046
  0
LINE
  8
0
 10
0.477007
 20
42.1046
 11
-0.477007
 21
42.1046
  0
LINE
  8
0
 10
-0.477007
 20
42.1046
 11
-0.591763
 21
42.1202
  0
LINE
  8
0
 10
-0.591763
 20
42.1202
 11
-0.695269
 21
42.1645
  0
LINE
  8
0
 10
-0.695269
 20
42.1645
 11
-0.781652
 21
42.2339
  0
LINE
  8
0
 10
-0.781652
 20
42.2339
 11
-0.845015
 21
42.3247
  0
LINE
  8
0
 10
-0.845015
 20
42.3247
 11
-1.25739
 21
43.1548
  0
LINE
  8
0
 10
-1.25739
 20
43.1548
 11
-1.32096
 21
43.2459
  0
LINE
  8
0
 10
-1.32096
 20
43.2459
 11
-1.40741
 21
43.3153
  0
LINE
  8
0
 10
-1.40741
 20
43.3153
 11
-1.51085
 21
43.3594
  0
LINE
  8
0
 10
-1.51085
 20
43.3594
 11
-1.60436
 21
43.3721
  0
LINE
  8
0
 10
-1.60436
 20
43.3721
 11
-2.5238
 21
43.3319
  0
LINE
  8
0
 10
-2.5238
 20
43.3319
 11
-3.4417
 21
43.2651
  0
LINE
  8
0
 10
-3.4417
 20
43.2651
 11
-3.53325
 21
43.2416
  0
LINE
  8
0
 10
-3.53325
 20
43.2416
 11
-3.63083
 21
43.1858
  0
LINE
  8
0
 10
-3.63083
 20
43.1858
 11
-3.70856
 21
43.1068
  0
LINE
  8
0
 10
-3.70856
 20
43.1068
 11
-3.76108
 21
43.009
  0
LINE
  8
0
 10
-3.76108
 20
43.009
 11
-4.0743
 21
42.1366
  0
LINE
  8
0
 10
-4.0743
 20
42.1366
 11
-4.12669
 21
42.0391
  0
LINE
  8
0
 10
-4.12669
 20
42.0391
 11
-4.20443
 21
41.9601
  0
LINE
  8
0
 10
-4.20443
 20
41.9601
 11
-4.30209
 21
41.9041
  0
LINE
  8
0
 10
-4.30209
 20
41.9041
 11
-4.41426
 21
41.8753
  0
LINE
  8
0
 10
-4.41426
 20
41.8753
 11
-5.36183
 21
41.7645
  0
LINE
  8
0
 10
-5.36183
 20
41.7645
 11
-5.47762
 21
41.7667
  0
LINE
  8
0
 10
-5.47762
 20
41.7667
 11
-5.58557
 21
41.7987
  0
LINE
  8
0
 10
-5.58557
 20
41.7987
 11
-5.67943
 21
41.8576
  0
LINE
  8
0
 10
-5.67943
 20
41.8576
 11
-5.7529
 21
41.9404
  0
LINE
  8
0
 10
-5.7529
 20
41.9404
 11
-6.25886
 21
42.717
  0
LINE
  8
0
 10
-6.25886
 20
42.717
 11
-6.33258
 21
42.8001
  0
LINE
  8
0
 10
-6.33258
 20
42.8001
 11
-6.42649
 21
42.859
  0
LINE
  8
0
 10
-6.42649
 20
42.859
 11
-6.53436
 21
42.8909
  0
LINE
  8
0
 10
-6.53436
 20
42.8909
 11
-6.62871
 21
42.8926
  0
LINE
  8
0
 10
-6.62871
 20
42.8926
 11
-7.53727
 21
42.746
  0
LINE
  8
0
 10
-7.53727
 20
42.746
 11
-8.44119
 21
42.573
  0
LINE
  8
0
 10
-8.44119
 20
42.573
 11
-8.52941
 21
42.5391
  0
LINE
  8
0
 10
-8.52941
 20
42.5391
 11
-8.61984
 21
42.4722
  0
LINE
  8
0
 10
-8.61984
 20
42.4722
 11
-8.68788
 21
42.3848
  0
LINE
  8
0
 10
-8.68788
 20
42.3848
 11
-8.72868
 21
42.2815
  0
LINE
  8
0
 10
-8.72868
 20
42.2815
 11
-8.93851
 21
41.3787
  0
LINE
  8
0
 10
-8.93851
 20
41.3787
 11
-8.97923
 21
41.2758
  0
LINE
  8
0
 10
-8.97923
 20
41.2758
 11
-9.04728
 21
41.1883
  0
LINE
  8
0
 10
-9.04728
 20
41.1883
 11
-9.13777
 21
41.1213
  0
LINE
  8
0
 10
-9.13777
 20
41.1213
 11
-9.24584
 21
41.0797
  0
LINE
  8
0
 10
-9.24584
 20
41.0797
 11
-10.1741
 21
40.8597
  0
LINE
  8
0
 10
-10.1741
 20
40.8597
 11
-10.2894
 21
40.8484
  0
LINE
  8
0
 10
-10.2894
 20
40.8484
 11
-10.4003
 21
40.8676
  0
LINE
  8
0
 10
-10.4003
 20
40.8676
 11
-10.5004
 21
40.9152
  0
LINE
  8
0
 10
-10.5004
 20
40.9152
 11
-10.583
 21
40.989
  0
LINE
  8
0
 10
-10.583
 20
40.989
 11
-11.1757
 21
41.7016
  0
LINE
  8
0
 10
-11.1757
 20
41.7016
 11
-11.2586
 21
41.7756
  0
LINE
  8
0
 10
-11.2586
 20
41.7756
 11
-11.3587
 21
41.8231
  0
LINE
  8
0
 10
-11.3587
 20
41.8231
 11
-11.4695
 21
41.8423
  0
LINE
  8
0
 10
-11.4695
 20
41.8423
 11
-11.5634
 21
41.833
  0
LINE
  8
0
 10
-11.5634
 20
41.833
 11
-12.4488
 21
41.5819
  0
LINE
  8
0
 10
-12.4488
 20
41.5819
 11
-13.3265
 21
41.3052
  0
LINE
  8
0
 10
-13.3265
 20
41.3052
 11
-13.4102
 21
41.2612
  0
LINE
  8
0
 10
-13.4102
 20
41.2612
 11
-13.4923
 21
41.1844
  0
LINE
  8
0
 10
-13.4923
 20
41.1844
 11
-13.5497
 21
41.0896
  0
LINE
  8
0
 10
-13.5497
 20
41.0896
 11
-13.5783
 21
40.9823
  0
LINE
  8
0
 10
-13.5783
 20
40.9823
 11
-13.6819
 21
40.0612
  0
LINE
  8
0
 10
-13.6819
 20
40.0612
 11
-13.7103
 21
39.9543
  0
LINE
  8
0
 10
-13.7103
 20
39.9543
 11
-13.7678
 21
39.8595
  0
LINE
  8
0
 10
-13.7678
 20
39.8595
 11
-13.8499
 21
39.7824
  0
LINE
  8
0
 10
-13.8499
 20
39.7824
 11
-13.9524
 21
39.7285
  0
LINE
  8
0
 10
-13.9524
 20
39.7285
 11
-14.8489
 21
39.4022
  0
LINE
  8
0
 10
-14.8489
 20
39.4022
 11
-14.962
 21
39.3776
  0
LINE
  8
0
 10
-14.962
 20
39.3776
 11
-15.0745
 21
39.3839
  0
LINE
  8
0
 10
-15.0745
 20
39.3839
 11
-15.1794
 21
39.4196
  0
LINE
  8
0
 10
-15.1794
 20
39.4196
 11
-15.27
 21
39.4832
  0
LINE
  8
0
 10
-15.27
 20
39.4832
 11
-15.9414
 21
40.1222
  0
LINE
  8
0
 10
-15.9414
 20
40.1222
 11
-16.0323
 21
40.1861
  0
LINE
  8
0
 10
-16.0323
 20
40.1861
 11
-16.1372
 21
40.2217
  0
LINE
  8
0
 10
-16.1372
 20
40.2217
 11
-16.2495
 21
40.2278
  0
LINE
  8
0
 10
-16.2495
 20
40.2278
 11
-16.3417
 21
40.2077
  0
LINE
  8
0
 10
-16.3417
 20
40.2077
 11
-17.192
 21
39.8555
  0
LINE
  8
0
 10
-17.192
 20
39.8555
 11
-18.0317
 21
39.4787
  0
LINE
  8
0
 10
-18.0317
 20
39.4787
 11
-18.1097
 21
39.4254
  0
LINE
  8
0
 10
-18.1097
 20
39.4254
 11
-18.1823
 21
39.3395
  0
LINE
  8
0
 10
-18.1823
 20
39.3395
 11
-18.2283
 21
39.2388
  0
LINE
  8
0
 10
-18.2283
 20
39.2388
 11
-18.2442
 21
39.1289
  0
LINE
  8
0
 10
-18.2442
 20
39.1289
 11
-18.2402
 21
38.202
  0
LINE
  8
0
 10
-18.2402
 20
38.202
 11
-18.256
 21
38.0924
  0
LINE
  8
0
 10
-18.256
 20
38.0924
 11
-18.3021
 21
37.9916
  0
LINE
  8
0
 10
-18.3021
 20
37.9916
 11
-18.3747
 21
37.9056
  0
LINE
  8
0
 10
-18.3747
 20
37.9056
 11
-18.4702
 21
37.8401
  0
LINE
  8
0
 10
-18.4702
 20
37.8401
 11
-19.3228
 21
37.412
  0
LINE
  8
0
 10
-19.3228
 20
37.412
 11
-19.4323
 21
37.3744
  0
LINE
  8
0
 10
-19.4323
 20
37.3744
 11
-19.5447
 21
37.3676
  0
LINE
  8
0
 10
-19.5447
 20
37.3676
 11
-19.6531
 21
37.3908
  0
LINE
  8
0
 10
-19.6531
 20
37.3908
 11
-19.7504
 21
37.4435
  0
LINE
  8
0
 10
-19.7504
 20
37.4435
 11
-20.4915
 21
38.0002
  0
LINE
  8
0
 10
-20.4915
 20
38.0002
 11
-20.5892
 21
38.0531
  0
LINE
  8
0
 10
-20.5892
 20
38.0531
 11
-20.6976
 21
38.0763
  0
LINE
  8
0
 10
-20.6976
 20
38.0763
 11
-20.8098
 21
38.0693
  0
LINE
  8
0
 10
-20.8098
 20
38.0693
 11
-20.8991
 21
38.0387
  0
LINE
  8
0
 10
-20.8991
 20
38.0387
 11
-21.7027
 21
37.5902
  0
LINE
  8
0
 10
-21.7027
 20
37.5902
 11
-22.4929
 21
37.1185
  0
LINE
  8
0
 10
-22.4929
 20
37.1185
 11
-22.5642
 21
37.0564
  0
LINE
  8
0
 10
-22.5642
 20
37.0564
 11
-22.6264
 21
36.9627
  0
LINE
  8
0
 10
-22.6264
 20
36.9627
 11
-22.6604
 21
36.8573
  0
LINE
  8
0
 10
-22.6604
 20
36.8573
 11
-22.6634
 21
36.7463
  0
LINE
  8
0
 10
-22.6634
 20
36.7463
 11
-22.5518
 21
35.8261
  0
LINE
  8
0
 10
-22.5518
 20
35.8261
 11
-22.5549
 21
35.7155
  0
LINE
  8
0
 10
-22.5549
 20
35.7155
 11
-22.5889
 21
35.61
  0
LINE
  8
0
 10
-22.5889
 20
35.61
 11
-22.651
 21
35.5161
  0
LINE
  8
0
 10
-22.651
 20
35.5161
 11
-22.7383
 21
35.44
  0
LINE
  8
0
 10
-22.7383
 20
35.44
 11
-23.5354
 21
34.9158
  0
LINE
  8
0
 10
-23.5354
 20
34.9158
 11
-23.6398
 21
34.8657
  0
LINE
  8
0
 10
-23.6398
 20
34.8657
 11
-23.7507
 21
34.8459
  0
LINE
  8
0
 10
-23.7507
 20
34.8459
 11
-23.861
 21
34.8564
  0
LINE
  8
0
 10
-23.861
 20
34.8564
 11
-23.9638
 21
34.8974
  0
LINE
  8
0
 10
-23.9638
 20
34.8974
 11
-24.7645
 21
35.3644
  0
LINE
  8
0
 10
-24.7645
 20
35.3644
 11
-24.8677
 21
35.4055
  0
LINE
  8
0
 10
-24.8677
 20
35.4055
 11
-24.978
 21
35.416
  0
LINE
  8
0
 10
-24.978
 20
35.416
 11
-25.0887
 21
35.3961
  0
LINE
  8
0
 10
-25.0887
 20
35.3961
 11
-25.1738
 21
35.3552
  0
LINE
  8
0
 10
-25.1738
 20
35.3552
 11
-25.9199
 21
34.8165
  0
LINE
  8
0
 10
-25.9199
 20
34.8165
 11
-26.65
 21
34.2562
  0
LINE
  8
0
 10
-26.65
 20
34.2562
 11
-26.7137
 21
34.1863
  0
LINE
  8
0
 10
-26.7137
 20
34.1863
 11
-26.7645
 21
34.086
  0
LINE
  8
0
 10
-26.7645
 20
34.086
 11
-26.7861
 21
33.9774
  0
LINE
  8
0
 10
-26.7861
 20
33.9774
 11
-26.7762
 21
33.8667
  0
LINE
  8
0
 10
-26.7762
 20
33.8667
 11
-26.5585
 21
32.9658
  0
LINE
  8
0
 10
-26.5585
 20
32.9658
 11
-26.5487
 21
32.8555
  0
LINE
  8
0
 10
-26.5487
 20
32.8555
 11
-26.5702
 21
32.7468
  0
LINE
  8
0
 10
-26.5702
 20
32.7468
 11
-26.621
 21
32.6463
  0
LINE
  8
0
 10
-26.621
 20
32.6463
 11
-26.6989
 21
32.5606
  0
LINE
  8
0
 10
-26.6989
 20
32.5606
 11
-27.4297
 21
31.9474
  0
LINE
  8
0
 10
-27.4297
 20
31.9474
 11
-27.5277
 21
31.8856
  0
LINE
  8
0
 10
-27.5277
 20
31.8856
 11
-27.6354
 21
31.853
  0
LINE
  8
0
 10
-27.6354
 20
31.853
 11
-27.7462
 21
31.8506
  0
LINE
  8
0
 10
-27.7462
 20
31.8506
 11
-27.8531
 21
31.8795
  0
LINE
  8
0
 10
-27.8531
 20
31.8795
 11
-28.7026
 21
32.2503
  0
LINE
  8
0
 10
-28.7026
 20
32.2503
 11
-28.8099
 21
32.2792
  0
LINE
  8
0
 10
-28.8099
 20
32.2792
 11
-28.9207
 21
32.2768
  0
LINE
  8
0
 10
-28.9207
 20
32.2768
 11
-29.0283
 21
32.2441
  0
LINE
  8
0
 10
-29.0283
 20
32.2441
 11
-29.1081
 21
32.1937
  0
LINE
  8
0
 10
-29.1081
 20
32.1937
 11
-29.7866
 21
31.5719
  0
LINE
  8
0
 10
-29.7866
 20
31.5719
 11
-30.4468
 21
30.9307
  0
LINE
  8
0
 10
-30.4468
 20
30.9307
 11
-30.5018
 21
30.8539
  0
LINE
  8
0
 10
-30.5018
 20
30.8539
 11
-30.5407
 21
30.7484
  0
LINE
  8
0
 10
-30.5407
 20
30.7484
 11
-30.5495
 21
30.6379
  0
LINE
  8
0
 10
-30.5495
 20
30.6379
 11
-30.5268
 21
30.5292
  0
LINE
  8
0
 10
-30.5268
 20
30.5292
 11
-30.206
 21
29.6596
  0
LINE
  8
0
 10
-30.206
 20
29.6596
 11
-30.1834
 21
29.5512
  0
LINE
  8
0
 10
-30.1834
 20
29.5512
 11
-30.1922
 21
29.4408
  0
LINE
  8
0
 10
-30.1922
 20
29.4408
 11
-30.231
 21
29.3351
  0
LINE
  8
0
 10
-30.231
 20
29.3351
 11
-30.2984
 21
29.2409
  0
LINE
  8
0
 10
-30.2984
 20
29.2409
 11
-30.9531
 21
28.547
  0
LINE
  8
0
 10
-30.9531
 20
28.547
 11
-31.0432
 21
28.4742
  0
LINE
  8
0
 10
-31.0432
 20
28.4742
 11
-31.1465
 21
28.4293
  0
LINE
  8
0
 10
-31.1465
 20
28.4293
 11
-31.2563
 21
28.4141
  0
LINE
  8
0
 10
-31.2563
 20
28.4141
 11
-31.3658
 21
28.4303
  0
LINE
  8
0
 10
-31.3658
 20
28.4303
 11
-32.2525
 21
28.7
  0
LINE
  8
0
 10
-32.2525
 20
28.7
 11
-32.3624
 21
28.7163
  0
LINE
  8
0
 10
-32.3624
 20
28.7163
 11
-32.4722
 21
28.701
  0
LINE
  8
0
 10
-32.4722
 20
28.701
 11
-32.5753
 21
28.6561
  0
LINE
  8
0
 10
-32.5753
 20
28.6561
 11
-32.6487
 21
28.5968
  0
LINE
  8
0
 10
-32.6487
 20
28.5968
 11
-33.2505
 21
27.9004
  0
LINE
  8
0
 10
-33.2505
 20
27.9004
 11
-33.8317
 21
27.1869
  0
LINE
  8
0
 10
-33.8317
 20
27.1869
 11
-33.8775
 21
27.1042
  0
LINE
  8
0
 10
-33.8775
 20
27.1042
 11
-33.9038
 21
26.9949
  0
LINE
  8
0
 10
-33.9038
 20
26.9949
 11
-33.8997
 21
26.8842
  0
LINE
  8
0
 10
-33.8997
 20
26.8842
 11
-33.8646
 21
26.7789
  0
LINE
  8
0
 10
-33.8646
 20
26.7789
 11
-33.445
 21
25.9524
  0
LINE
  8
0
 10
-33.445
 20
25.9524
 11
-33.41
 21
25.8473
  0
LINE
  8
0
 10
-33.41
 20
25.8473
 11
-33.406
 21
25.7366
  0
LINE
  8
0
 10
-33.406
 20
25.7366
 11
-33.4322
 21
25.6271
  0
LINE
  8
0
 10
-33.4322
 20
25.6271
 11
-33.4882
 21
25.5257
  0
LINE
  8
0
 10
-33.4882
 20
25.5257
 11
-34.0579
 21
24.7605
  0
LINE
  8
0
 10
-34.0579
 20
24.7605
 11
-34.139
 21
24.6778
  0
LINE
  8
0
 10
-34.139
 20
24.6778
 11
-34.2363
 21
24.6212
  0
LINE
  8
0
 10
-34.2363
 20
24.6212
 11
-34.3436
 21
24.5934
  0
LINE
  8
0
 10
-34.3436
 20
24.5934
 11
-34.4542
 21
24.5968
  0
LINE
  8
0
 10
-34.4542
 20
24.5968
 11
-35.3663
 21
24.7617
  0
LINE
  8
0
 10
-35.3663
 20
24.7617
 11
-35.4774
 21
24.7651
  0
LINE
  8
0
 10
-35.4774
 20
24.7651
 11
-35.5846
 21
24.7372
  0
LINE
  8
0
 10
-35.5846
 20
24.7372
 11
-35.6818
 21
24.6806
  0
LINE
  8
0
 10
-35.6818
 20
24.6806
 11
-35.7478
 21
24.6131
  0
LINE
  8
0
 10
-35.7478
 20
24.6131
 11
-36.2647
 21
23.8516
  0
LINE
  8
0
 10
-36.2647
 20
23.8516
 11
-36.7592
 21
23.0754
  0
LINE
  8
0
 10
-36.7592
 20
23.0754
 11
-36.795
 21
22.988
  0
LINE
  8
0
 10
-36.795
 20
22.988
 11
-36.8085
 21
22.8764
  0
LINE
  8
0
 10
-36.8085
 20
22.8764
 11
-36.7916
 21
22.7669
  0
LINE
  8
0
 10
-36.7916
 20
22.7669
 11
-36.7445
 21
22.6663
  0
LINE
  8
0
 10
-36.7445
 20
22.6663
 11
-36.2318
 21
21.8942
  0
LINE
  8
0
 10
-36.2318
 20
21.8942
 11
-36.1848
 21
21.7939
  0
LINE
  8
0
 10
-36.1848
 20
21.7939
 11
-36.1679
 21
21.6844
  0
LINE
  8
0
 10
-36.1679
 20
21.6844
 11
-36.1813
 21
21.5726
  0
LINE
  8
0
 10
-36.1813
 20
21.5726
 11
-36.2251
 21
21.4654
  0
LINE
  8
0
 10
-36.2251
 20
21.4654
 11
-36.7022
 21
20.6392
  0
LINE
  8
0
 10
-36.7022
 20
20.6392
 11
-36.773
 21
20.5476
  0
LINE
  8
0
 10
-36.773
 20
20.5476
 11
-36.8632
 21
20.4801
  0
LINE
  8
0
 10
-36.8632
 20
20.4801
 11
-36.9665
 21
20.44
  0
LINE
  8
0
 10
-36.9665
 20
20.44
 11
-37.0768
 21
20.4306
  0
LINE
  8
0
 10
-37.0768
 20
20.4306
 11
-38.0019
 21
20.4885
  0
LINE
  8
0
 10
-38.0019
 20
20.4885
 11
-38.1125
 21
20.479
  0
LINE
  8
0
 10
-38.1125
 20
20.479
 11
-38.2158
 21
20.4388
  0
LINE
  8
0
 10
-38.2158
 20
20.4388
 11
-38.3058
 21
20.3713
  0
LINE
  8
0
 10
-38.3058
 20
20.3713
 11
-38.3635
 21
20.2966
  0
LINE
  8
0
 10
-38.3635
 20
20.2966
 11
-38.7885
 21
19.4803
  0
LINE
  8
0
 10
-38.7885
 20
19.4803
 11
-39.1895
 21
18.6519
  0
LINE
  8
0
 10
-39.1895
 20
18.6519
 11
-39.215
 21
18.5609
  0
LINE
  8
0
 10
-39.215
 20
18.5609
 11
-39.2154
 21
18.4485
  0
LINE
  8
0
 10
-39.2154
 20
18.4485
 11
-39.1859
 21
18.3417
  0
LINE
  8
0
 10
-39.1859
 20
18.3417
 11
-39.1274
 21
18.2473
  0
LINE
  8
0
 10
-39.1274
 20
18.2473
 11
-38.5285
 21
17.5399
  0
LINE
  8
0
 10
-38.5285
 20
17.5399
 11
-38.4703
 21
17.4457
  0
LINE
  8
0
 10
-38.4703
 20
17.4457
 11
-38.4408
 21
17.3389
  0
LINE
  8
0
 10
-38.4408
 20
17.3389
 11
-38.4411
 21
17.2263
  0
LINE
  8
0
 10
-38.4411
 20
17.2263
 11
-38.4722
 21
17.1148
  0
LINE
  8
0
 10
-38.4722
 20
17.1148
 11
-38.8501
 21
16.2388
  0
LINE
  8
0
 10
-38.8501
 20
16.2388
 11
-38.9098
 21
16.1396
  0
LINE
  8
0
 10
-38.9098
 20
16.1396
 11
-38.9915
 21
16.0621
  0
LINE
  8
0
 10
-38.9915
 20
16.0621
 11
-39.0895
 21
16.0103
  0
LINE
  8
0
 10
-39.0895
 20
16.0103
 11
-39.1979
 21
15.9881
  0
LINE
  8
0
 10
-39.1979
 20
15.9881
 11
-40.1235
 21
15.9382
  0
LINE
  8
0
 10
-40.1235
 20
15.9382
 11
-40.2323
 21
15.9159
  0
LINE
  8
0
 10
-40.2323
 20
15.9159
 11
-40.3302
 21
15.864
  0
LINE
  8
0
 10
-40.3302
 20
15.864
 11
-40.4118
 21
15.7865
  0
LINE
  8
0
 10
-40.4118
 20
15.7865
 11
-40.4604
 21
15.7057
  0
LINE
  8
0
 10
-40.4604
 20
15.7057
 11
-40.7877
 21
14.8455
  0
LINE
  8
0
 10
-40.7877
 20
14.8455
 11
-41.0899
 21
13.9762
  0
LINE
  8
0
 10
-41.0899
 20
13.9762
 11
-41.1046
 21
13.8829
  0
LINE
  8
0
 10
-41.1046
 20
13.8829
 11
-41.092
 21
13.7711
  0
LINE
  8
0
 10
-41.092
 20
13.7711
 11
-41.0503
 21
13.6685
  0
LINE
  8
0
 10
-41.0503
 20
13.6685
 11
-40.9812
 21
13.5815
  0
LINE
  8
0
 10
-40.9812
 20
13.5815
 11
-40.3043
 21
12.9484
  0
LINE
  8
0
 10
-40.3043
 20
12.9484
 11
-40.2355
 21
12.8616
  0
LINE
  8
0
 10
-40.2355
 20
12.8616
 11
-40.1938
 21
12.759
  0
LINE
  8
0
 10
-40.1938
 20
12.759
 11
-40.181
 21
12.6471
  0
LINE
  8
0
 10
-40.181
 20
12.6471
 11
-40.199
 21
12.5327
  0
LINE
  8
0
 10
-40.199
 20
12.5327
 11
-40.4726
 21
11.6188
  0
LINE
  8
0
 10
-40.4726
 20
11.6188
 11
-40.5204
 21
11.5133
  0
LINE
  8
0
 10
-40.5204
 20
11.5133
 11
-40.5926
 21
11.4269
  0
LINE
  8
0
 10
-40.5926
 20
11.4269
 11
-40.6838
 21
11.364
  0
LINE
  8
0
 10
-40.6838
 20
11.364
 11
-40.789
 21
11.3294
  0
LINE
  8
0
 10
-40.789
 20
11.3294
 11
-41.7025
 21
11.1724
  0
LINE
  8
0
 10
-41.7025
 20
11.1724
 11
-41.808
 21
11.1376
  0
LINE
  8
0
 10
-41.808
 20
11.1376
 11
-41.8992
 21
11.0747
  0
LINE
  8
0
 10
-41.8992
 20
11.0747
 11
-41.9712
 21
10.9882
  0
LINE
  8
0
 10
-41.9712
 20
10.9882
 11
-42.0101
 21
10.9023
  0
LINE
  8
0
 10
-42.0101
 20
10.9023
 11
-42.2354
 21
10.01
  0
LINE
  8
0
 10
-42.2354
 20
10.01
 11
-42.4346
 21
9.11146
  0
LINE
  8
0
 10
-42.4346
 20
9.11146
 11
-42.4384
 21
9.01703
  0
LINE
  8
0
 10
-42.4384
 20
9.01703
 11
-42.4128
 21
8.90752
  0
LINE
  8
0
 10
-42.4128
 20
8.90752
 11
-42.3595
 21
8.81042
  0
LINE
  8
0
 10
-42.3595
 20
8.81042
 11
-42.2809
 21
8.73204
  0
LINE
  8
0
 10
-42.2809
 20
8.73204
 11
-41.535
 21
8.18179
  0
LINE
  8
0
 10
-41.535
 20
8.18179
 11
-41.4566
 21
8.10362
  0
LINE
  8
0
 10
-41.4566
 20
8.10362
 11
-41.4032
 21
8.0065
  0
LINE
  8
0
 10
-41.4032
 20
8.0065
 11
-41.3775
 21
7.89687
  0
LINE
  8
0
 10
-41.3775
 20
7.89687
 11
-41.3821
 21
7.78115
  0
LINE
  8
0
 10
-41.3821
 20
7.78115
 11
-41.5478
 21
6.84163
  0
LINE
  8
0
 10
-41.5478
 20
6.84163
 11
-41.583
 21
6.73132
  0
LINE
  8
0
 10
-41.583
 20
6.73132
 11
-41.6447
 21
6.63708
  0
LINE
  8
0
 10
-41.6447
 20
6.63708
 11
-41.728
 21
6.56407
  0
LINE
  8
0
 10
-41.728
 20
6.56407
 11
-41.8284
 21
6.51743
  0
LINE
  8
0
 10
-41.8284
 20
6.51743
 11
-42.7175
 21
6.25546
  0
LINE
  8
0
 10
-42.7175
 20
6.25546
 11
-42.8183
 21
6.20868
  0
LINE
  8
0
 10
-42.8183
 20
6.20868
 11
-42.9016
 21
6.13558
  0
LINE
  8
0
 10
-42.9016
 20
6.13558
 11
-42.9631
 21
6.04139
  0
LINE
  8
0
 10
-42.9631
 20
6.04139
 11
-42.9918
 21
5.95149
  0
LINE
  8
0
 10
-42.9918
 20
5.95149
 11
-43.1119
 21
5.03906
  0
LINE
  8
0
 10
-43.1119
 20
5.03906
 11
-43.2054
 21
4.12349
  0
LINE
  8
0
 10
-43.2054
 20
4.12349
 11
-43.1983
 21
4.02926
  0
LINE
  8
0
 10
-43.1983
 20
4.02926
 11
-43.1602
 21
3.92346
  0
LINE
  8
0
 10
-43.1602
 20
3.92346
 11
-43.0959
 21
3.83321
  0
LINE
  8
0
 10
-43.0959
 20
3.83321
 11
-43.0087
 21
3.76449
  0
LINE
  8
0
 10
-43.0087
 20
3.76449
 11
-42.204
 21
3.30455
  0
LINE
  8
0
 10
-42.204
 20
3.30455
 11
-42.117
 21
3.23602
  0
LINE
  8
0
 10
-42.117
 20
3.23602
 11
-42.0528
 21
3.14574
  0
LINE
  8
0
 10
-42.0528
 20
3.14574
 11
-42.0145
 21
3.03983
  0
LINE
  8
0
 10
-42.0145
 20
3.03983
 11
-42.0056
 21
2.92437
  0
LINE
  8
0
 10
-42.0056
 20
2.92437
 11
-42.0611
 21
1.97196
  0
LINE
  8
0
 10
-42.0611
 20
1.97196
 11
-42.0833
 21
1.85831
  0
LINE
  8
0
 10
-42.0833
 20
1.85831
 11
-42.1336
 21
1.75756
  0
LINE
  8
0
 10
-42.1336
 20
1.75756
 11
-42.2079
 21
1.67535
  0
LINE
  8
0
 10
-42.2079
 20
1.67535
 11
-42.3022
 21
1.61738
  0
LINE
  8
0
 10
-42.3022
 20
1.61738
 11
-43.1549
 21
1.25396
  0
LINE
  8
0
 10
-43.1549
 20
1.25396
 11
-43.2495
 21
1.1958
  0
LINE
  8
0
 10
-43.2495
 20
1.1958
 11
-43.3238
 21
1.11353
  0
LINE
  8
0
 10
-43.3238
 20
1.11353
 11
-43.3739
 21
1.01283
  0
LINE
  8
0
 10
-43.3739
 20
1.01283
 11
-43.392
 21
0.920211
  0
LINE
  8
0
 10
-43.392
 20
0.920211
 11
-43.4054
 21
0
  0
LINE
  8
0
 10
-9.525
 20
0
 11
-9.49247
 21
0.786568
  0
LINE
  8
0
 10
-9.49247
 20
0.786568
 11
-9.39509
 21
1.56776
  0
LINE
  8
0
 10
-9.39509
 20
1.56776
 11
-9.23354
 21
2.33825
  0
LINE
  8
0
 10
-9.23354
 20
2.33825
 11
-9.00891
 21
3.09276
  0
LINE
  8
0
 10
-9.00891
 20
3.09276
 11
-8.72274
 21
3.82615
  0
LINE
  8
0
 10
-8.72274
 20
3.82615
 11
-8.37699
 21
4.5334
  0
LINE
  8
0
 10
-8.37699
 20
4.5334
 11
-7.97401
 21
5.20968
  0
LINE
  8
0
 10
-7.97401
 20
5.20968
 11
-7.51656
 21
5.85038
  0
LINE
  8
0
 10
-7.51656
 20
5.85038
 11
-7.00777
 21
6.45111
  0
LINE
  8
0
 10
-7.00777
 20
6.45111
 11
-6.45111
 21
7.00777
  0
LINE
  8
0
 10
-6.45111
 20
7.00777
 11
-5.85038
 21
7.51656
  0
LINE
  8
0
 10
-5.85038
 20
7.51656
 11
-5.20968
 21
7.97401
  0
LINE
  8
0
 10
-5.20968
 20
7.97401
 11
-4.5334
 21
8.37699
  0
LINE
  8
0
 10
-4.5334
 20
8.37699
 11
-3.82615
 21
8.72274
  0
LINE
  8
0
 10
-3.82615
 20
8.72274
 11
-3.09276
 21
9.00891
  0
LINE
  8
0
 10
-3.09276
 20
9.00891
 11
-2.33825
 21
9.23354
  0
LINE
  8
0
 10
-2.33825
 20
9.23354
 11
-1.56776
 21
9.39509
  0
LINE
  8
0
 10
-1.56776
 20
9.39509
 11
-0.786568
 21
9.49247
  0
LINE
  8
0
 10
-0.786568
 20
9.49247
 11
0
 21
9.525
  0
LINE
  8
0
 10
0
 20
9.525
 11
0.786568
 21
9.49247
  0
LINE
  8
0
 10
0.786568
 20
9.49247
 11
1.56776
 21
9.39509
  0
LINE
  8
0
 10
1.56776
 20
9.39509
 11
2.33825
 21
9.23354
  0
LINE
  8
0
 10
2.33825
 20
9.23354
 11
3.09276
 21
9.00891
  0
LINE
  8
0
 10
3.09276
 20
9.00891
 11
3.82615
 21
8.72274
  0
LINE
  8
0
 10
3.82615
 20
8.72274
 11
4.5334
 21
8.37699
  0
LINE
  8
0
 10
4.5334
 20
8.37699
 11
5.20968
 21
7.97401
  0
LINE
  8
0
 10
5.20968
 20
7.97401
 11
5.85038
 21
7.51656
  0
LINE
  8
0
 10
5.85038
 20
7.51656
 11
6.45111
 21
7.00777
  0
LINE
  8
0
 10
6.45111
 20
7.00777
 11
7.00777
 21
6.45111
  0
LINE
  8
0
 10
7.00777
 20
6.45111
 11
7.51656
 21
5.85038
  0
LINE
  8
0
 10
7.51656
 20
5.85038
 11
7.97401
 21
5.20968
  0
LINE
  8
0
 10
7.97401
 20
5.20968
 11
8.37699
 21
4.5334
  0
LINE
  8
0
 10
8.37699
 20
4.5334
 11
8.72274
 21
3.82615
  0
LINE
  8
0
 10
8.72274
 20
3.82615
 11
9.00891
 21
3.09276
  0
LINE
  8
0
 10
9.00891
 20
3.09276
 11
9.23354
 21
2.33825
  0
LINE
  8
0
 10
9.23354
 20
2.33825
 11
9.39509
 21
1.56776
  0
LINE
  8
0
 10
9.39509
 20
1.56776
 11
9.49247
 21
0.786568
  0
LINE
  8
0
 10
9.49247
 20
0.786568
 11
9.525
 21
0
  0
LINE
  8
0
 10
9.525
 20
0
 11
9.49247
 21
-0.786568
  0
LINE
  8
0
 10
9.49247
 20
-0.786568
 11
9.39509
 21
-1.56776
  0
LINE
  8
0
 10
9.39509
 20
-1.56776
 11
9.23354
 21
-2.33825
  0
LINE
  8
0
 10
9.23354
 20
-2.33825
 11
9.00891
 21
-3.09276
  0
LINE
  8
0
 10
9.00891
 20
-3.09276
 11
8.72274
 21
-3.82615
  0
LINE
  8
0
 10
8.72274
 20
-3.82615
 11
8.37699
 21
-4.5334
  0
LINE
  8
0
 10
8.37699
 20
-4.5334
 11
7.97401
 21
-5.20968
  0
LINE
  8
0
 10
7.97401
 20
-5.20968
 11
7.51656
 21
-5.85038
  0
LINE
  8
0
 10
7.51656
 20
-5.85038
 11
7.00777
 21
-6.45111
  0
LINE
  8
0
 10
7.00777
 20
-6.45111
 11
6.45111
 21
-7.00777
  0
LINE
  8
0
 10
6.45111
 20
-7.00777
 11
5.85038
 21
-7.51656
  0
LINE
  8
0
 10
5.85038
 20
-7.51656
 11
5.20968
 21
-7.97401
  0
LINE
  8
0
 10
5.20968
 20
-7.97401
 11
4.5334
 21
-8.37699
  0
LINE
  8
0
 10
4.5334
 20
-8.37699
 11
3.82615
 21
-8.72274
  0
LINE
  8
0
 10
3.82615
 20
-8.72274
 11
3.09276
 21
-9.00891
  0
LINE
  8
0
 10
3.09276
 20
-9.00891
 11
2.33825
 21
-9.23354
  0
LINE
  8
0
 10
2.33825
 20
-9.23354
 11
1.56776
 21
-9.39509
  0
LINE
  8
0
 10
1.56776
 20
-9.39509
 11
0.786568
 21
-9.49247
  0
LINE
  8
0
 10
0.786568
 20
-9.49247
 11
0
 21
-9.525
  0
LINE
  8
0
 10
0
 20
-9.525
 11
-0.786568
 21
-9.49247
  0
LINE
  8
0
 10
-0.786568
 20
-9.49247
 11
-1.56776
 21
-9.39509
  0
LINE
  8
0
 10
-1.56776
 20
-9.39509
 11
-2.33825
 21
-9.23354
  0
LINE
  8
0
 10
-2.33825
 20
-9.23354
 11
-3.09276
 21
-9.00891
  0
LINE
  8
0
 10
-3.09276
 20
-9.00891
 11
-3.82615
 21
-8.72274
  0
LINE
  8
0
 10
-3.82615
 20
-8.72274
 11
-4.5334
 21
-8.37699
  0
LINE
  8
0
 10
-4.5334
 20
-8.37699
 11
-5.20968
 21
-7.97401
  0
LINE
  8
0
 10
-5.20968
 20
-7.97401
 11
-5.85038
 21
-7.51656
  0
LINE
  8
0
 10
-5.85038
 20
-7.51656
 11
-6.45111
 21
-7.00777
  0
LINE
  8
0
 10
-6.45111
 20
-7.00777
 11
-7.00777
 21
-6.45111
  0
LINE
  8
0
 10
-7.00777
 20
-6.45111
 11
-7.51656
 21
-5.85038
  0
LINE
  8
0
 10
-7.51656
 20
-5.85038
 11
-7.97401
 21
-5.20968
  0
LINE
  8
0
 10
-7.97401
 20
-5.20968
 11
-8.37699
 21
-4.5334
  0
LINE
  8
0
 10
-8.37699
 20
-4.5334
 11
-8.72274
 21
-3.82615
  0
LINE
  8
0
 10
-8.72274
 20
-3.82615
 11
-9.00891
 21
-3.09276
  0
LINE
  8
0
 10
-9.00891
 20
-3.09276
 11
-9.23354
 21
-2.33825
  0
LINE
  8
0
 10
-9.23354
 20
-2.33825
 11
-9.39509
 21
-1.56776
  0
LINE
  8
0
 10
-9.39509
 20
-1.56776
 11
-9.49247
 21
-0.786568
  0
LINE
  8
0
 10
-9.49247
 20
-0.786568
 11
-9.525
 21
0
  0
ENDSEC
  0
SECTION
  2
OBJECTS
  0
DICTIONARY
  0
ENDSEC
  0
EOF
