999
dxflib 3.7.5.0
  0
SECTION
  2
HEADER
  9
$ACADVER
  1
AC1015
  9
$HANDSEED
  5
FFFF
  9
$DIMADEC
 70
0
  9
$DIMASZ
 40
0.18
  9
$DIMAUNIT
 70
0
  9
$DIMAZIN
 70
0
  9
$DIMDEC
 70
4
  9
$DIMEXE
 40
0.18
  9
$DIMEXO
 40
0.0625
  9
$DIMGAP
 40
0.09
  9
$DIMLUNIT
 70
2
  9
$DIMSCALE
 40
1.0
  9
$DIMTSZ
 40
0.0
  9
$DIMTXT
 40
0.18
  9
$DIMZIN
 70
0
  9
$DWGCODEPAGE
  3
ANSI_1252
  9
$INSUNITS
 70
0
  9
$LTSCALE
 40
1.0
  9
$MEASUREMENT
 70
0
  9
$PDMODE
 70
2
  9
$PDSIZE
 40
0
  0
ENDSEC
  0
SECTION
  2
TABLES
  0
TABLE
  2
VPORT
  5
8
100
AcDbSymbolTable
 70
1
  0
VPORT
  5
30
100
AcDbSymbolTableRecord
100
AcDbViewportTableRecord
  2
*Active
 70
0
 10
0.0
 20
0.0
 11
1.0
 21
1.0
 12
286.3055555555554861
 22
148.5
 13
0.0
 23
0.0
 14
10.0
 24
10.0
 15
10.0
 25
10.0
 16
0.0
 26
0.0
 36
1.0
 17
0.0
 27
0.0
 37
0.0
 40
297.0
 41
1.92798353909465
 42
50.0
 43
0.0
 44
0.0
 50
0.0
 51
0.0
 71
0
 72
100
 73
1
 74
3
 75
1
 76
1
 77
0
 78
0
281
0
 65
1
110
0.0
120
0.0
130
0.0
111
1.0
121
0.0
131
0.0
112
0.0
122
1.0
132
0.0
 79
0
146
0.0
  0
ENDTAB
  0
TABLE
  2
LTYPE
  5
5
100
AcDbSymbolTable
 70
41
  0
LTYPE
  5
16
100
AcDbSymbolTableRecord
100
AcDbLinetypeTableRecord
  2
Continuous
 70
0
  3
Solid line
 72
65
 73
0
 40
0.0
  0
LTYPE
  5
31
100
AcDbSymbolTableRecord
100
AcDbLinetypeTableRecord
  2
ACAD_ISO15W100
 70
0
  3
ISO double-dash triple-dot __ __ . . . __ __ . .
 72
65
 73
10
 40
39.0
 49
12.0
 74
0
 49
-3.0
 74
0
 49
12.0
 74
0
 49
-3.0
 74
0
 49
0.0
 74
0
 49
-3.0
 74
0
 49
0.0
 74
0
 49
-3.0
 74
0
 49
0.0
 74
0
 49
-3.0
 74
0
  0
LTYPE
  5
32
100
AcDbSymbolTableRecord
100
AcDbLinetypeTableRecord
  2
DIVIDE
 70
0
  3
Divide ____ . . ____ . . ____ . . ____ . . ____
 72
65
 73
6
 40
31.75
 49
12.6999999999999993
 74
0
 49
-6.3499999999999996
 74
0
 49
0.0
 74
0
 49
-6.3499999999999996
 74
0
 49
0.0
 74
0
 49
-6.3499999999999996
 74
0
  0
LTYPE
  5
33
100
AcDbSymbolTableRecord
100
AcDbLinetypeTableRecord
  2
ACAD_ISO10W100
 70
0
  3
ISO dash dot __ . __ . __ . __ . __ . __ . __ . 
 72
65
 73
4
 40
18.0
 49
12.0
 74
0
 49
-3.0
 74
0
 49
0.0
 74
0
 49
-3.0
 74
0
  0
LTYPE
  5
34
100
AcDbSymbolTableRecord
100
AcDbLinetypeTableRecord
  2
ACAD_ISO04W100
 70
0
  3
ISO long-dash dot ____ . ____ . ____ . ____ . _
 72
65
 73
4
 40
30.0
 49
24.0
 74
0
 49
-3.0
 74
0
 49
0.0
 74
0
 49
-3.0
 74
0
  0
LTYPE
  5
35
100
AcDbSymbolTableRecord
100
AcDbLinetypeTableRecord
  2
CENTER2
 70
0
  3
Center (.5x) ___ _ ___ _ ___ _ ___ _ ___ _ ___
 72
65
 73
4
 40
28.5750000000000028
 49
19.0500000000000007
 74
0
 49
-3.1749999999999998
 74
0
 49
3.1749999999999998
 74
0
 49
-3.1749999999999998
 74
0
  0
LTYPE
  5
36
100
AcDbSymbolTableRecord
100
AcDbLinetypeTableRecord
  2
ACAD_ISO11W100
 70
0
  3
ISO double-dash dot __ __ . __ __ . __ __ . __ _
 72
65
 73
6
 40
33.0
 49
12.0
 74
0
 49
-3.0
 74
0
 49
12.0
 74
0
 49
-3.0
 74
0
 49
0.0
 74
0
 49
-3.0
 74
0
  0
LTYPE
  5
37
100
AcDbSymbolTableRecord
100
AcDbLinetypeTableRecord
  2
HIDDEN2
 70
0
  3
Hidden (.5x) _ _ _ _ _ _ _ _ _ _ _ _ _ _ _ _ _ 
 72
65
 73
2
 40
4.7624999999999993
 49
3.1749999999999998
 74
0
 49
-1.5874999999999999
 74
0
  0
LTYPE
  5
38
100
AcDbSymbolTableRecord
100
AcDbLinetypeTableRecord
  2
BORDERX2
 70
0
  3
Border (2x) ____  ____  .  ____  ____  .  ___
 72
65
 73
6
 40
88.8999999999999915
 49
25.3999999999999986
 74
0
 49
-12.6999999999999993
 74
0
 49
25.3999999999999986
 74
0
 49
-12.6999999999999993
 74
0
 49
0.0
 74
0
 49
-12.6999999999999993
 74
0
  0
LTYPE
  5
39
100
AcDbSymbolTableRecord
100
AcDbLinetypeTableRecord
  2
ACAD_ISO05W100
 70
0
  3
ISO long-dash double-dot ____ .. ____ .. ____ . 
 72
65
 73
6
 40
33.0
 49
24.0
 74
0
 49
-3.0
 74
0
 49
0.0
 74
0
 49
-3.0
 74
0
 49
0.0
 74
0
 49
-3.0
 74
0
  0
LTYPE
  5
3A
100
AcDbSymbolTableRecord
100
AcDbLinetypeTableRecord
  2
DASHDOTX2
 70
0
  3
Dash dot (2x) ____  .  ____  .  ____  .  ___
 72
65
 73
4
 40
50.7999999999999972
 49
25.3999999999999986
 74
0
 49
-12.6999999999999993
 74
0
 49
0.0
 74
0
 49
-12.6999999999999993
 74
0
  0
LTYPE
  5
3B
100
AcDbSymbolTableRecord
100
AcDbLinetypeTableRecord
  2
HIDDENX2
 70
0
  3
Hidden (2x) ____ ____ ____ ____ ____ ____ ____ 
 72
65
 73
2
 40
19.0499999999999972
 49
12.6999999999999993
 74
0
 49
-6.3499999999999996
 74
0
  0
LTYPE
  5
3C
100
AcDbSymbolTableRecord
100
AcDbLinetypeTableRecord
  2
CENTERX2
 70
0
  3
Center (2x) ________  __  ________  __  _____
 72
65
 73
4
 40
101.6000000000000085
 49
63.5
 74
0
 49
-12.6999999999999993
 74
0
 49
12.6999999999999993
 74
0
 49
-12.6999999999999993
 74
0
  0
LTYPE
  5
3D
100
AcDbSymbolTableRecord
100
AcDbLinetypeTableRecord
  2
BORDER2
 70
0
  3
Border (.5x) __.__.__.__.__.__.__.__.__.__.__.
 72
65
 73
6
 40
22.2249999999999979
 49
6.3499999999999996
 74
0
 49
-3.1749999999999998
 74
0
 49
6.3499999999999996
 74
0
 49
-3.1749999999999998
 74
0
 49
0.0
 74
0
 49
-3.1749999999999998
 74
0
  0
LTYPE
  5
3E
100
AcDbSymbolTableRecord
100
AcDbLinetypeTableRecord
  2
DASHDOT2
 70
0
  3
Dash dot (.5x) _._._._._._._._._._._._._._._.
 72
65
 73
4
 40
12.6999999999999993
 49
6.3499999999999996
 74
0
 49
-3.1749999999999998
 74
0
 49
0.0
 74
0
 49
-3.1749999999999998
 74
0
  0
LTYPE
  5
3F
100
AcDbSymbolTableRecord
100
AcDbLinetypeTableRecord
  2
ACAD_ISO12W100
 70
0
  3
ISO dash double-dot __ . . __ . . __ . . __ . . 
 72
65
 73
6
 40
21.0
 49
12.0
 74
0
 49
-3.0
 74
0
 49
0.0
 74
0
 49
-3.0
 74
0
 49
0.0
 74
0
 49
-3.0
 74
0
  0
LTYPE
  5
40
100
AcDbSymbolTableRecord
100
AcDbLinetypeTableRecord
  2
ACAD_ISO07W100
 70
0
  3
ISO dot . . . . . . . . . . . . . . . . . . . . 
 72
65
 73
2
 40
3.0
 49
0.0
 74
0
 49
-3.0
 74
0
  0
LTYPE
  5
41
100
AcDbSymbolTableRecord
100
AcDbLinetypeTableRecord
  2
HIDDEN
 70
0
  3
Hidden __ __ __ __ __ __ __ __ __ __ __ __ __ __
 72
65
 73
2
 40
9.5249999999999986
 49
6.3499999999999996
 74
0
 49
-3.1749999999999998
 74
0
  0
LTYPE
  5
42
100
AcDbSymbolTableRecord
100
AcDbLinetypeTableRecord
  2
ACAD_ISO06W100
 70
0
  3
ISO long-dash triple-dot ____ ... ____ ... ____
 72
65
 73
8
 40
36.0
 49
24.0
 74
0
 49
-3.0
 74
0
 49
0.0
 74
0
 49
-3.0
 74
0
 49
0.0
 74
0
 49
-3.0
 74
0
 49
0.0
 74
0
 49
-3.0
 74
0
  0
LTYPE
  5
43
100
AcDbSymbolTableRecord
100
AcDbLinetypeTableRecord
  2
CENTER
 70
0
  3
Center ____ _ ____ _ ____ _ ____ _ ____ _ ____
 72
65
 73
4
 40
50.8000000000000043
 49
31.75
 74
0
 49
-6.3499999999999996
 74
0
 49
6.3499999999999996
 74
0
 49
-6.3499999999999996
 74
0
  0
LTYPE
  5
44
100
AcDbSymbolTableRecord
100
AcDbLinetypeTableRecord
  2
DOTX2
 70
0
  3
Dot (2x) .  .  .  .  .  .  .  .  .  .  .  .  .  .
 72
65
 73
2
 40
12.6999999999999993
 49
0.0
 74
0
 49
-12.6999999999999993
 74
0
  0
LTYPE
  5
45
100
AcDbSymbolTableRecord
100
AcDbLinetypeTableRecord
  2
PHANTOM
 70
0
  3
Phantom ______  __  __  ______  __  __  ______ 
 72
65
 73
6
 40
63.5000000000000071
 49
31.75
 74
0
 49
-6.3499999999999996
 74
0
 49
6.3499999999999996
 74
0
 49
-6.3499999999999996
 74
0
 49
6.3499999999999996
 74
0
 49
-6.3499999999999996
 74
0
  0
LTYPE
  5
46
100
AcDbSymbolTableRecord
100
AcDbLinetypeTableRecord
  2
ACAD_ISO08W100
 70
0
  3
ISO long-dash short-dash ____ __ ____ __ ____ _
 72
65
 73
4
 40
36.0
 49
24.0
 74
0
 49
-3.0
 74
0
 49
6.0
 74
0
 49
-3.0
 74
0
  0
LTYPE
  5
47
100
AcDbSymbolTableRecord
100
AcDbLinetypeTableRecord
  2
DASHEDX2
 70
0
  3
Dashed (2x) ____  ____  ____  ____  ____  ___
 72
65
 73
2
 40
38.0999999999999943
 49
25.3999999999999986
 74
0
 49
-12.6999999999999993
 74
0
  0
LTYPE
  5
48
100
AcDbSymbolTableRecord
100
AcDbLinetypeTableRecord
  2
ACAD_ISO02W100
 70
0
  3
ISO dash __ __ __ __ __ __ __ __ __ __ __ __ __
 72
65
 73
2
 40
15.0
 49
12.0
 74
0
 49
-3.0
 74
0
  0
LTYPE
  5
49
100
AcDbSymbolTableRecord
100
AcDbLinetypeTableRecord
  2
PHANTOM2
 70
0
  3
Phantom (.5x) ___ _ _ ___ _ _ ___ _ _ ___ _ _
 72
65
 73
6
 40
31.7500000000000036
 49
15.875
 74
0
 49
-3.1749999999999998
 74
0
 49
3.1749999999999998
 74
0
 49
-3.1749999999999998
 74
0
 49
3.1749999999999998
 74
0
 49
-3.1749999999999998
 74
0
  0
LTYPE
  5
4A
100
AcDbSymbolTableRecord
100
AcDbLinetypeTableRecord
  2
DASHED2
 70
0
  3
Dashed (.5x) _ _ _ _ _ _ _ _ _ _ _ _ _ _ _ _ _ 
 72
65
 73
2
 40
9.5249999999999986
 49
6.3499999999999996
 74
0
 49
-3.1749999999999998
 74
0
  0
LTYPE
  5
4B
100
AcDbSymbolTableRecord
100
AcDbLinetypeTableRecord
  2
ACAD_ISO09W100
 70
0
  3
ISO long-dash double-short-dash ____ __ __ ____
 72
65
 73
6
 40
45.0
 49
24.0
 74
0
 49
-3.0
 74
0
 49
6.0
 74
0
 49
-3.0
 74
0
 49
6.0
 74
0
 49
-3.0
 74
0
  0
LTYPE
  5
4C
100
AcDbSymbolTableRecord
100
AcDbLinetypeTableRecord
  2
ACAD_ISO13W100
 70
0
  3
ISO double-dash double-dot __ __ . . __ __ . . _
 72
65
 73
8
 40
36.0
 49
12.0
 74
0
 49
-3.0
 74
0
 49
12.0
 74
0
 49
-3.0
 74
0
 49
0.0
 74
0
 49
-3.0
 74
0
 49
0.0
 74
0
 49
-3.0
 74
0
  0
LTYPE
  5
4D
100
AcDbSymbolTableRecord
100
AcDbLinetypeTableRecord
  2
DOT2
 70
0
  3
Dot (.5x) ........................................
 72
65
 73
2
 40
3.1749999999999998
 49
0.0
 74
0
 49
-3.1749999999999998
 74
0
  0
LTYPE
  5
4E
100
AcDbSymbolTableRecord
100
AcDbLinetypeTableRecord
  2
DASHED
 70
0
  3
Dashed __ __ __ __ __ __ __ __ __ __ __ __ __ _
 72
65
 73
2
 40
19.0499999999999972
 49
12.6999999999999993
 74
0
 49
-6.3499999999999996
 74
0
  0
LTYPE
  5
4F
100
AcDbSymbolTableRecord
100
AcDbLinetypeTableRecord
  2
ACAD_ISO14W100
 70
0
  3
ISO dash triple-dot __ . . . __ . . . __ . . . _
 72
65
 73
8
 40
24.0
 49
12.0
 74
0
 49
-3.0
 74
0
 49
0.0
 74
0
 49
-3.0
 74
0
 49
0.0
 74
0
 49
-3.0
 74
0
 49
0.0
 74
0
 49
-3.0
 74
0
  0
LTYPE
  5
15
100
AcDbSymbolTableRecord
100
AcDbLinetypeTableRecord
  2
BYLAYER
 70
0
  3

 72
65
 73
0
 40
0.0
  0
LTYPE
  5
50
100
AcDbSymbolTableRecord
100
AcDbLinetypeTableRecord
  2
PHANTOMX2
 70
0
  3
Phantom (2x) ____________    ____    ____   _
 72
65
 73
6
 40
127.0000000000000142
 49
63.5
 74
0
 49
-12.6999999999999993
 74
0
 49
12.6999999999999993
 74
0
 49
-12.6999999999999993
 74
0
 49
12.6999999999999993
 74
0
 49
-12.6999999999999993
 74
0
  0
LTYPE
  5
14
100
AcDbSymbolTableRecord
100
AcDbLinetypeTableRecord
  2
BYBLOCK
 70
0
  3

 72
65
 73
0
 40
0.0
  0
LTYPE
  5
51
100
AcDbSymbolTableRecord
100
AcDbLinetypeTableRecord
  2
DIVIDEX2
 70
0
  3
Divide (2x) ________  .  .  ________  .  .  _
 72
65
 73
6
 40
63.5
 49
25.3999999999999986
 74
0
 49
-12.6999999999999993
 74
0
 49
0.0
 74
0
 49
-12.6999999999999993
 74
0
 49
0.0
 74
0
 49
-12.6999999999999993
 74
0
  0
LTYPE
  5
52
100
AcDbSymbolTableRecord
100
AcDbLinetypeTableRecord
  2
BORDER
 70
0
  3
Border __ __ . __ __ . __ __ . __ __ . __ __ .
 72
65
 73
6
 40
44.4499999999999957
 49
12.6999999999999993
 74
0
 49
-6.3499999999999996
 74
0
 49
12.6999999999999993
 74
0
 49
-6.3499999999999996
 74
0
 49
0.0
 74
0
 49
-6.3499999999999996
 74
0
  0
LTYPE
  5
53
100
AcDbSymbolTableRecord
100
AcDbLinetypeTableRecord
  2
DIVIDE2
 70
0
  3
Divide (.5x) __..__..__..__..__..__..__..__.._
 72
65
 73
6
 40
15.875
 49
6.3499999999999996
 74
0
 49
-3.1749999999999998
 74
0
 49
0.0
 74
0
 49
-3.1749999999999998
 74
0
 49
0.0
 74
0
 49
-3.1749999999999998
 74
0
  0
LTYPE
  5
54
100
AcDbSymbolTableRecord
100
AcDbLinetypeTableRecord
  2
DOT
 70
0
  3
Dot . . . . . . . . . . . . . . . . . . . . . . . .
 72
65
 73
2
 40
6.3499999999999996
 49
0.0
 74
0
 49
-6.3499999999999996
 74
0
  0
LTYPE
  5
55
100
AcDbSymbolTableRecord
100
AcDbLinetypeTableRecord
  2
DASHDOT
 70
0
  3
Dash dot __ . __ . __ . __ . __ . __ . __ . __
 72
65
 73
4
 40
25.3999999999999986
 49
12.6999999999999993
 74
0
 49
-6.3499999999999996
 74
0
 49
0.0
 74
0
 49
-6.3499999999999996
 74
0
  0
LTYPE
  5
56
100
AcDbSymbolTableRecord
100
AcDbLinetypeTableRecord
  2
ACAD_ISO03W100
 70
0
  3
ISO dash space __    __    __    __    __    __
 72
65
 73
2
 40
30.0
 49
12.0
 74
0
 49
-18.0
 74
0
  0
ENDTAB
  0
TABLE
  2
LAYER
  5
2
100
AcDbSymbolTable
 70
1
  0
LAYER
  5
10
100
AcDbSymbolTableRecord
100
AcDbLayerTableRecord
  2
0
 70
0
 62
7
420
16777215
  6
Continuous
370
25
390
F
  0
ENDTAB
  0
TABLE
  2
STYLE
  5
3
100
AcDbSymbolTable
 70
1
  0
STYLE
  5
57
100
AcDbSymbolTableRecord
100
AcDbTextStyleTableRecord
  2
Standard
 70
0
 40
0.0
 41
1.0
 50
0.0
 71
0
 42
2.5
  3

  4

1001
ACAD
1000
txt
1071
0
  0
ENDTAB
  0
TABLE
  2
VIEW
  5
6
100
AcDbSymbolTable
 70
0
  0
ENDTAB
  0
TABLE
  2
UCS
  5
7
100
AcDbSymbolTable
 70
0
  0
ENDTAB
  0
TABLE
  2
APPID
  5
9
100
AcDbSymbolTable
 70
1
  0
APPID
  5
12
100
AcDbSymbolTableRecord
100
AcDbRegAppTableRecord
  2
ACAD
 70
0
  0
APPID
  5
58
100
AcDbSymbolTableRecord
100
AcDbRegAppTableRecord
  2
QCAD
 70
0
  0
ENDTAB
  0
TABLE
  2
DIMSTYLE
  5
A
100
AcDbSymbolTable
 70
1
100
AcDbDimStyleTable
 71
0
  0
DIMSTYLE
105
27
100
AcDbSymbolTableRecord
100
AcDbDimStyleTableRecord
  2
Standard
 41
0.18
 42
0.0625
 43
3.75
 44
0.18
 70
0
 73
0
 74
0
 77
1
 78
8
140
0.18
141
2.5
143
0.03937007874016
147
0.09
171
3
172
1
271
2
272
2
274
3
278
44
283
0
284
8
340
57
  0
ENDTAB
  0
TABLE
  2
BLOCK_RECORD
  5
1
100
AcDbSymbolTable
 70
1
  0
BLOCK_RECORD
  5
1F
100
AcDbSymbolTableRecord
100
AcDbBlockTableRecord
  2
*Model_Space
340
22
  0
BLOCK_RECORD
  5
1B
100
AcDbSymbolTableRecord
100
AcDbBlockTableRecord
  2
*Paper_Space
340
1E
  0
BLOCK_RECORD
  5
23
100
AcDbSymbolTableRecord
100
AcDbBlockTableRecord
  2
*Paper_Space0
340
26
  0
ENDTAB
  0
ENDSEC
  0
SECTION
  2
BLOCKS
  0
BLOCK
  5
20
100
AcDbEntity
  8
0
100
AcDbBlockBegin
  2
*Model_Space
 70
0
 10
0.0
 20
0.0
 30
0.0
  3
*Model_Space
  1

  0
ENDBLK
  5
21
100
AcDbEntity
  8
0
100
AcDbBlockEnd
  0
BLOCK
  5
1C
100
AcDbEntity
 67
1
  8
0
100
AcDbBlockBegin
  2
*Paper_Space
 70
0
 10
0.0
 20
0.0
 30
0.0
  3
*Paper_Space
  1

  0
ENDBLK
  5
1D
100
AcDbEntity
 67
1
  8
0
100
AcDbBlockEnd
  0
BLOCK
  5
24
100
AcDbEntity
  8
0
100
AcDbBlockBegin
  2
*Paper_Space0
 70
0
 10
0.0
 20
0.0
 30
0.0
  3
*Paper_Space0
  1

  0
ENDBLK
  5
25
100
AcDbEntity
  8
0
100
AcDbBlockEnd
  0
ENDSEC
  0
SECTION
  2
ENTITIES
  0
LINE
  5
59
100
AcDbEntity
100
AcDbLine
  8
0
 62
256
370
-1
 48
1.0
  6
BYLAYER
 10
92.4622127652676795
 20
-10.7877140261749513
 30
0.0
 11
93.3264127652676763
 21
-10.5387140261749526
 31
0.0
  0
LINE
  5
5A
100
AcDbEntity
100
AcDbLine
  8
0
 62
256
370
-1
 48
1.0
  6
BYLAYER
 10
93.3264127652676763
 20
-10.5387140261749526
 30
0.0
 11
93.3811127652676873
 21
-10.502714026174953
 31
0.0
  0
LINE
  5
5B
100
AcDbEntity
100
AcDbLine
  8
0
 62
256
370
-1
 48
1.0
  6
BYLAYER
 10
93.3811127652676873
 20
-10.502714026174953
 30
0.0
 11
93.4551127652676712
 21
-10.4180140261749514
 31
0.0
  0
LINE
  5
5C
100
AcDbEntity
100
AcDbLine
  8
0
 62
256
370
-1
 48
1.0
  6
BYLAYER
 10
93.4551127652676712
 20
-10.4180140261749514
 30
0.0
 11
93.5028127652676773
 21
-10.3180140261749518
 31
0.0
  0
LINE
  5
5D
100
AcDbEntity
100
AcDbLine
  8
0
 62
256
370
-1
 48
1.0
  6
BYLAYER
 10
93.5028127652676773
 20
-10.3180140261749518
 30
0.0
 11
93.5205127652676822
 21
-10.2084140261749514
 31
0.0
  0
LINE
  5
5E
100
AcDbEntity
100
AcDbLine
  8
0
 62
256
370
-1
 48
1.0
  6
BYLAYER
 10
93.5205127652676822
 20
-10.2084140261749514
 30
0.0
 11
93.5319127652676769
 21
-9.2815840261749525
 31
0.0
  0
LINE
  5
5F
100
AcDbEntity
100
AcDbLine
  8
0
 62
256
370
-1
 48
1.0
  6
BYLAYER
 10
93.5319127652676769
 20
-9.2815840261749525
 30
0.0
 11
93.5496127652676819
 21
-9.1723040261749524
 31
0.0
  0
LINE
  5
60
100
AcDbEntity
100
AcDbLine
  8
0
 62
256
370
-1
 48
1.0
  6
BYLAYER
 10
93.5496127652676819
 20
-9.1723040261749524
 30
0.0
 11
93.5973127652676737
 21
-9.0722840261749518
 31
0.0
  0
LINE
  5
61
100
AcDbEntity
100
AcDbLine
  8
0
 62
256
370
-1
 48
1.0
  6
BYLAYER
 10
93.5973127652676737
 20
-9.0722840261749518
 30
0.0
 11
93.671312765267686
 21
-8.9874240261749527
 31
0.0
  0
LINE
  5
62
100
AcDbEntity
100
AcDbLine
  8
0
 62
256
370
-1
 48
1.0
  6
BYLAYER
 10
93.671312765267686
 20
-8.9874240261749527
 30
0.0
 11
93.7679127652676812
 21
-8.9235840261749519
 31
0.0
  0
LINE
  5
63
100
AcDbEntity
100
AcDbLine
  8
0
 62
256
370
-1
 48
1.0
  6
BYLAYER
 10
93.7679127652676812
 20
-8.9235840261749519
 30
0.0
 11
94.6275127652676815
 21
-8.5096540261749514
 31
0.0
  0
LINE
  5
64
100
AcDbEntity
100
AcDbLine
  8
0
 62
256
370
-1
 48
1.0
  6
BYLAYER
 10
94.6275127652676815
 20
-8.5096540261749514
 30
0.0
 11
94.7376127652676701
 21
-8.4739240261749522
 31
0.0
  0
LINE
  5
65
100
AcDbEntity
100
AcDbLine
  8
0
 62
256
370
-1
 48
1.0
  6
BYLAYER
 10
94.7376127652676701
 20
-8.4739240261749522
 30
0.0
 11
94.8501127652676814
 21
-8.4689440261749525
 31
0.0
  0
LINE
  5
66
100
AcDbEntity
100
AcDbLine
  8
0
 62
256
370
-1
 48
1.0
  6
BYLAYER
 10
94.8501127652676814
 20
-8.4689440261749525
 30
0.0
 11
94.9581127652676855
 21
-8.4940040261749523
 31
0.0
  0
LINE
  5
67
100
AcDbEntity
100
AcDbLine
  8
0
 62
256
370
-1
 48
1.0
  6
BYLAYER
 10
94.9581127652676855
 20
-8.4940040261749523
 30
0.0
 11
95.054512765267674
 21
-8.5483040261749519
 31
0.0
  0
LINE
  5
68
100
AcDbEntity
100
AcDbLine
  8
0
 62
256
370
-1
 48
1.0
  6
BYLAYER
 10
95.054512765267674
 20
-8.5483040261749519
 30
0.0
 11
95.7862127652676776
 21
-9.1172740261749521
 31
0.0
  0
LINE
  5
69
100
AcDbEntity
100
AcDbLine
  8
0
 62
256
370
-1
 48
1.0
  6
BYLAYER
 10
95.7862127652676776
 20
-9.1172740261749521
 30
0.0
 11
95.8830127652676794
 21
-9.1717640261749516
 31
0.0
  0
LINE
  5
6A
100
AcDbEntity
100
AcDbLine
  8
0
 62
256
370
-1
 48
1.0
  6
BYLAYER
 10
95.8830127652676794
 20
-9.1717640261749516
 30
0.0
 11
95.9910127652676692
 21
-9.1967440261749527
 31
0.0
  0
LINE
  5
6B
100
AcDbEntity
100
AcDbLine
  8
0
 62
256
370
-1
 48
1.0
  6
BYLAYER
 10
95.9910127652676692
 20
-9.1967440261749527
 30
0.0
 11
96.1034127652676773
 21
-9.1916640261749514
 31
0.0
  0
LINE
  5
6C
100
AcDbEntity
100
AcDbLine
  8
0
 62
256
370
-1
 48
1.0
  6
BYLAYER
 10
96.1034127652676773
 20
-9.1916640261749514
 30
0.0
 11
96.1655127652676782
 21
-9.1714640261749523
 31
0.0
  0
LINE
  5
6D
100
AcDbEntity
100
AcDbLine
  8
0
 62
256
370
-1
 48
1.0
  6
BYLAYER
 10
96.1655127652676782
 20
-9.1714640261749523
 30
0.0
 11
96.8990127652676847
 21
-8.6510440261749526
 31
0.0
  0
LINE
  5
6E
100
AcDbEntity
100
AcDbLine
  8
0
 62
256
370
-1
 48
1.0
  6
BYLAYER
 10
96.8990127652676847
 20
-8.6510440261749526
 30
0.0
 11
97.5696127652676779
 21
-8.0517540261749527
 31
0.0
  0
LINE
  5
6F
100
AcDbEntity
100
AcDbLine
  8
0
 62
256
370
-1
 48
1.0
  6
BYLAYER
 10
97.5696127652676779
 20
-8.0517540261749527
 30
0.0
 11
97.6032127652676706
 21
-7.995584026174952
 31
0.0
  0
LINE
  5
70
100
AcDbEntity
100
AcDbLine
  8
0
 62
256
370
-1
 48
1.0
  6
BYLAYER
 10
97.6032127652676706
 20
-7.995584026174952
 30
0.0
 11
97.6331127652676685
 21
-7.887194026174952
 31
0.0
  0
LINE
  5
71
100
AcDbEntity
100
AcDbLine
  8
0
 62
256
370
-1
 48
1.0
  6
BYLAYER
 10
97.6331127652676685
 20
-7.887194026174952
 30
0.0
 11
97.6327127652676836
 21
-7.7764240261749524
 31
0.0
  0
LINE
  5
72
100
AcDbEntity
100
AcDbLine
  8
0
 62
256
370
-1
 48
1.0
  6
BYLAYER
 10
97.6327127652676836
 20
-7.7764240261749524
 30
0.0
 11
97.6011127652676862
 21
-7.6699640261749522
 31
0.0
  0
LINE
  5
73
100
AcDbEntity
100
AcDbLine
  8
0
 62
256
370
-1
 48
1.0
  6
BYLAYER
 10
97.6011127652676862
 20
-7.6699640261749522
 30
0.0
 11
97.2092127652676794
 21
-6.8300040261749517
 31
0.0
  0
LINE
  5
74
100
AcDbEntity
100
AcDbLine
  8
0
 62
256
370
-1
 48
1.0
  6
BYLAYER
 10
97.2092127652676794
 20
-6.8300040261749517
 30
0.0
 11
97.1777127652676711
 21
-6.7238440261749526
 31
0.0
  0
LINE
  5
75
100
AcDbEntity
100
AcDbLine
  8
0
 62
256
370
-1
 48
1.0
  6
BYLAYER
 10
97.1777127652676711
 20
-6.7238440261749526
 30
0.0
 11
97.1773127652676862
 21
-6.6130340261749518
 31
0.0
  0
LINE
  5
76
100
AcDbEntity
100
AcDbLine
  8
0
 62
256
370
-1
 48
1.0
  6
BYLAYER
 10
97.1773127652676862
 20
-6.6130340261749518
 30
0.0
 11
97.2072127652676841
 21
-6.5044740261749521
 31
0.0
  0
LINE
  5
77
100
AcDbEntity
100
AcDbLine
  8
0
 62
256
370
-1
 48
1.0
  6
BYLAYER
 10
97.2072127652676841
 20
-6.5044740261749521
 30
0.0
 11
97.2666127652676664
 21
-6.405024026174952
 31
0.0
  0
LINE
  5
78
100
AcDbEntity
100
AcDbLine
  8
0
 62
256
370
-1
 48
1.0
  6
BYLAYER
 10
97.2666127652676664
 20
-6.405024026174952
 30
0.0
 11
97.8614127652676871
 21
-5.6591440261749524
 31
0.0
  0
LINE
  5
79
100
AcDbEntity
100
AcDbLine
  8
0
 62
256
370
-1
 48
1.0
  6
BYLAYER
 10
97.8614127652676871
 20
-5.6591440261749524
 30
0.0
 11
97.9451127652676803
 21
-5.5791640261749524
 31
0.0
  0
LINE
  5
7A
100
AcDbEntity
100
AcDbLine
  8
0
 62
256
370
-1
 48
1.0
  6
BYLAYER
 10
97.9451127652676803
 20
-5.5791640261749524
 30
0.0
 11
98.0443127652676765
 21
-5.5258640261749523
 31
0.0
  0
LINE
  5
7B
100
AcDbEntity
100
AcDbLine
  8
0
 62
256
370
-1
 48
1.0
  6
BYLAYER
 10
98.0443127652676765
 20
-5.5258640261749523
 30
0.0
 11
98.1525127652676872
 21
-5.5016040261749524
 31
0.0
  0
LINE
  5
7C
100
AcDbEntity
100
AcDbLine
  8
0
 62
256
370
-1
 48
1.0
  6
BYLAYER
 10
98.1525127652676872
 20
-5.5016040261749524
 30
0.0
 11
98.2629127652676857
 21
-5.5086840261749526
 31
0.0
  0
LINE
  5
7D
100
AcDbEntity
100
AcDbLine
  8
0
 62
256
370
-1
 48
1.0
  6
BYLAYER
 10
98.2629127652676857
 20
-5.5086840261749526
 30
0.0
 11
99.1691127652676698
 21
-5.703824026174952
 31
0.0
  0
LINE
  5
7E
100
AcDbEntity
100
AcDbLine
  8
0
 62
256
370
-1
 48
1.0
  6
BYLAYER
 10
99.1691127652676698
 20
-5.703824026174952
 30
0.0
 11
99.2799127652676816
 21
-5.7109240261749523
 31
0.0
  0
LINE
  5
7F
100
AcDbEntity
100
AcDbLine
  8
0
 62
256
370
-1
 48
1.0
  6
BYLAYER
 10
99.2799127652676816
 20
-5.7109240261749523
 30
0.0
 11
99.3880127652676748
 21
-5.6865640261749526
 31
0.0
  0
LINE
  5
80
100
AcDbEntity
100
AcDbLine
  8
0
 62
256
370
-1
 48
1.0
  6
BYLAYER
 10
99.3880127652676748
 20
-5.6865640261749526
 30
0.0
 11
99.4871127652676819
 21
-5.6332340261749518
 31
0.0
  0
LINE
  5
81
100
AcDbEntity
100
AcDbLine
  8
0
 62
256
370
-1
 48
1.0
  6
BYLAYER
 10
99.4871127652676819
 20
-5.6332340261749518
 30
0.0
 11
99.5343127652676856
 21
-5.5880840261749523
 31
0.0
  0
LINE
  5
82
100
AcDbEntity
100
AcDbLine
  8
0
 62
256
370
-1
 48
1.0
  6
BYLAYER
 10
99.5343127652676856
 20
-5.5880840261749523
 30
0.0
 11
99.9693127652676736
 21
-4.8009740261749521
 31
0.0
  0
LINE
  5
83
100
AcDbEntity
100
AcDbLine
  8
0
 62
256
370
-1
 48
1.0
  6
BYLAYER
 10
99.9693127652676736
 20
-4.8009740261749521
 30
0.0
 11
100.3135127652676744
 21
-3.9700740261749523
 31
0.0
  0
LINE
  5
84
100
AcDbEntity
100
AcDbLine
  8
0
 62
256
370
-1
 48
1.0
  6
BYLAYER
 10
100.3135127652676744
 20
-3.9700740261749523
 30
0.0
 11
100.3194127652676855
 21
-3.9048740261749524
 31
0.0
  0
LINE
  5
85
100
AcDbEntity
100
AcDbLine
  8
0
 62
256
370
-1
 48
1.0
  6
BYLAYER
 10
100.3194127652676855
 20
-3.9048740261749524
 30
0.0
 11
100.2993127652676719
 21
-3.7942340261749523
 31
0.0
  0
LINE
  5
86
100
AcDbEntity
100
AcDbLine
  8
0
 62
256
370
-1
 48
1.0
  6
BYLAYER
 10
100.2993127652676719
 20
-3.7942340261749523
 30
0.0
 11
100.2509127652676852
 21
-3.6945940261749524
 31
0.0
  0
LINE
  5
87
100
AcDbEntity
100
AcDbLine
  8
0
 62
256
370
-1
 48
1.0
  6
BYLAYER
 10
100.2509127652676852
 20
-3.6945940261749524
 30
0.0
 11
100.1762127652676782
 21
-3.6123940261749521
 31
0.0
  0
LINE
  5
88
100
AcDbEntity
100
AcDbLine
  8
0
 62
256
370
-1
 48
1.0
  6
BYLAYER
 10
100.1762127652676782
 20
-3.6123940261749521
 30
0.0
 11
99.458712765267677
 21
-3.0256440261749522
 31
0.0
  0
LINE
  5
89
100
AcDbEntity
100
AcDbLine
  8
0
 62
256
370
-1
 48
1.0
  6
BYLAYER
 10
99.458712765267677
 20
-3.0256440261749522
 30
0.0
 11
99.3843127652676799
 21
-2.943664026174952
 31
0.0
  0
LINE
  5
8A
100
AcDbEntity
100
AcDbLine
  8
0
 62
256
370
-1
 48
1.0
  6
BYLAYER
 10
99.3843127652676799
 20
-2.943664026174952
 30
0.0
 11
99.3358127652676757
 21
-2.844004026174952
 31
0.0
  0
LINE
  5
8B
100
AcDbEntity
100
AcDbLine
  8
0
 62
256
370
-1
 48
1.0
  6
BYLAYER
 10
99.3358127652676757
 20
-2.844004026174952
 30
0.0
 11
99.3157127652676763
 21
-2.7332340261749524
 31
0.0
  0
LINE
  5
8C
100
AcDbEntity
100
AcDbLine
  8
0
 62
256
370
-1
 48
1.0
  6
BYLAYER
 10
99.3157127652676763
 20
-2.7332340261749524
 30
0.0
 11
99.3260127652676772
 21
-2.6178840261749521
 31
0.0
  0
LINE
  5
8D
100
AcDbEntity
100
AcDbLine
  8
0
 62
256
370
-1
 48
1.0
  6
BYLAYER
 10
99.3260127652676772
 20
-2.6178840261749521
 30
0.0
 11
99.5383127652676762
 21
-1.6877840261749522
 31
0.0
  0
LINE
  5
8E
100
AcDbEntity
100
AcDbLine
  8
0
 62
256
370
-1
 48
1.0
  6
BYLAYER
 10
99.5383127652676762
 20
-1.6877840261749522
 30
0.0
 11
99.5790127652676773
 21
-1.5793740261749523
 31
0.0
  0
LINE
  5
8F
100
AcDbEntity
100
AcDbLine
  8
0
 62
256
370
-1
 48
1.0
  6
BYLAYER
 10
99.5790127652676773
 20
-1.5793740261749523
 30
0.0
 11
99.6453127652676756
 21
-1.4883240261749522
 31
0.0
  0
LINE
  5
90
100
AcDbEntity
100
AcDbLine
  8
0
 62
256
370
-1
 48
1.0
  6
BYLAYER
 10
99.6453127652676756
 20
-1.4883240261749522
 30
0.0
 11
99.7322127652676755
 21
-1.4195540261749522
 31
0.0
  0
LINE
  5
91
100
AcDbEntity
100
AcDbLine
  8
0
 62
256
370
-1
 48
1.0
  6
BYLAYER
 10
99.7322127652676755
 20
-1.4195540261749522
 30
0.0
 11
99.8348127652676851
 21
-1.3779940261749521
 31
0.0
  0
LINE
  5
92
100
AcDbEntity
100
AcDbLine
  8
0
 62
256
370
-1
 48
1.0
  6
BYLAYER
 10
99.8348127652676851
 20
-1.3779940261749521
 30
0.0
 11
100.7358127652676671
 21
-1.1606540261749521
 31
0.0
  0
LINE
  5
93
100
AcDbEntity
100
AcDbLine
  8
0
 62
256
370
-1
 48
1.0
  6
BYLAYER
 10
100.7358127652676671
 20
-1.1606540261749521
 30
0.0
 11
100.8388127652676758
 21
-1.1189540261749522
 31
0.0
  0
LINE
  5
94
100
AcDbEntity
100
AcDbLine
  8
0
 62
256
370
-1
 48
1.0
  6
BYLAYER
 10
100.8388127652676758
 20
-1.1189540261749522
 30
0.0
 11
100.9256127652676867
 21
-1.0501040261749521
 31
0.0
  0
LINE
  5
95
100
AcDbEntity
100
AcDbLine
  8
0
 62
256
370
-1
 48
1.0
  6
BYLAYER
 10
100.9256127652676867
 20
-1.0501040261749521
 30
0.0
 11
100.9917127652676783
 21
-0.9590900261749522
 31
0.0
  0
LINE
  5
96
100
AcDbEntity
100
AcDbLine
  8
0
 62
256
370
-1
 48
1.0
  6
BYLAYER
 10
100.9917127652676783
 20
-0.9590900261749522
 30
0.0
 11
101.0147127652676744
 21
-0.8979170261749522
 31
0.0
  0
LINE
  5
97
100
AcDbEntity
100
AcDbLine
  8
0
 62
256
370
-1
 48
1.0
  6
BYLAYER
 10
101.0147127652676744
 20
-0.8979170261749522
 30
0.0
 11
101.0651127652676848
 21
-0.0000140261749522
 31
0.0
  0
LINE
  5
98
100
AcDbEntity
100
AcDbLine
  8
0
 62
256
370
-1
 48
1.0
  6
BYLAYER
 10
101.0651127652676848
 20
-0.0000140261749522
 30
0.0
 11
101.0147127652676744
 21
0.8979199738250478
 31
0.0
  0
LINE
  5
99
100
AcDbEntity
100
AcDbLine
  8
0
 62
256
370
-1
 48
1.0
  6
BYLAYER
 10
101.0147127652676744
 20
0.8979199738250478
 30
0.0
 11
100.9917127652676783
 21
0.9592149738250478
 31
0.0
  0
LINE
  5
9A
100
AcDbEntity
100
AcDbLine
  8
0
 62
256
370
-1
 48
1.0
  6
BYLAYER
 10
100.9917127652676783
 20
0.9592149738250478
 30
0.0
 11
100.9256127652676867
 21
1.0502059738250478
 31
0.0
  0
LINE
  5
9B
100
AcDbEntity
100
AcDbLine
  8
0
 62
256
370
-1
 48
1.0
  6
BYLAYER
 10
100.9256127652676867
 20
1.0502059738250478
 30
0.0
 11
100.8388127652676758
 21
1.1189759738250478
 31
0.0
  0
LINE
  5
9C
100
AcDbEntity
100
AcDbLine
  8
0
 62
256
370
-1
 48
1.0
  6
BYLAYER
 10
100.8388127652676758
 20
1.1189759738250478
 30
0.0
 11
100.7358127652676671
 21
1.1606259738250477
 31
0.0
  0
LINE
  5
9D
100
AcDbEntity
100
AcDbLine
  8
0
 62
256
370
-1
 48
1.0
  6
BYLAYER
 10
100.7358127652676671
 20
1.1606259738250477
 30
0.0
 11
99.8348127652676851
 21
1.3779659738250478
 31
0.0
  0
LINE
  5
9E
100
AcDbEntity
100
AcDbLine
  8
0
 62
256
370
-1
 48
1.0
  6
BYLAYER
 10
99.8348127652676851
 20
1.3779659738250478
 30
0.0
 11
99.7322127652676755
 21
1.4195259738250479
 31
0.0
  0
LINE
  5
9F
100
AcDbEntity
100
AcDbLine
  8
0
 62
256
370
-1
 48
1.0
  6
BYLAYER
 10
99.7322127652676755
 20
1.4195259738250479
 30
0.0
 11
99.6453127652676756
 21
1.4882959738250479
 31
0.0
  0
LINE
  5
A0
100
AcDbEntity
100
AcDbLine
  8
0
 62
256
370
-1
 48
1.0
  6
BYLAYER
 10
99.6453127652676756
 20
1.4882959738250479
 30
0.0
 11
99.5790127652676773
 21
1.5793459738250479
 31
0.0
  0
LINE
  5
A1
100
AcDbEntity
100
AcDbLine
  8
0
 62
256
370
-1
 48
1.0
  6
BYLAYER
 10
99.5790127652676773
 20
1.5793459738250479
 30
0.0
 11
99.5383127652676762
 21
1.6877559738250478
 31
0.0
  0
LINE
  5
A2
100
AcDbEntity
100
AcDbLine
  8
0
 62
256
370
-1
 48
1.0
  6
BYLAYER
 10
99.5383127652676762
 20
1.6877559738250478
 30
0.0
 11
99.3260127652676772
 21
2.6178559738250478
 31
0.0
  0
LINE
  5
A3
100
AcDbEntity
100
AcDbLine
  8
0
 62
256
370
-1
 48
1.0
  6
BYLAYER
 10
99.3260127652676772
 20
2.6178559738250478
 30
0.0
 11
99.3157127652676763
 21
2.733205973825048
 31
0.0
  0
LINE
  5
A4
100
AcDbEntity
100
AcDbLine
  8
0
 62
256
370
-1
 48
1.0
  6
BYLAYER
 10
99.3157127652676763
 20
2.733205973825048
 30
0.0
 11
99.3358127652676757
 21
2.8439759738250476
 31
0.0
  0
LINE
  5
A5
100
AcDbEntity
100
AcDbLine
  8
0
 62
256
370
-1
 48
1.0
  6
BYLAYER
 10
99.3358127652676757
 20
2.8439759738250476
 30
0.0
 11
99.3843127652676799
 21
2.9436359738250477
 31
0.0
  0
LINE
  5
A6
100
AcDbEntity
100
AcDbLine
  8
0
 62
256
370
-1
 48
1.0
  6
BYLAYER
 10
99.3843127652676799
 20
2.9436359738250477
 30
0.0
 11
99.458712765267677
 21
3.0256159738250479
 31
0.0
  0
LINE
  5
A7
100
AcDbEntity
100
AcDbLine
  8
0
 62
256
370
-1
 48
1.0
  6
BYLAYER
 10
99.458712765267677
 20
3.0256159738250479
 30
0.0
 11
100.1762127652676782
 21
3.6123659738250478
 31
0.0
  0
LINE
  5
A8
100
AcDbEntity
100
AcDbLine
  8
0
 62
256
370
-1
 48
1.0
  6
BYLAYER
 10
100.1762127652676782
 20
3.6123659738250478
 30
0.0
 11
100.2509127652676852
 21
3.6946159738250479
 31
0.0
  0
LINE
  5
A9
100
AcDbEntity
100
AcDbLine
  8
0
 62
256
370
-1
 48
1.0
  6
BYLAYER
 10
100.2509127652676852
 20
3.6946159738250479
 30
0.0
 11
100.2993127652676719
 21
3.7943259738250479
 31
0.0
  0
LINE
  5
AA
100
AcDbEntity
100
AcDbLine
  8
0
 62
256
370
-1
 48
1.0
  6
BYLAYER
 10
100.2993127652676719
 20
3.7943259738250479
 30
0.0
 11
100.3193127652676822
 21
3.9050159738250478
 31
0.0
  0
LINE
  5
AB
100
AcDbEntity
100
AcDbLine
  8
0
 62
256
370
-1
 48
1.0
  6
BYLAYER
 10
100.3193127652676822
 20
3.9050159738250478
 30
0.0
 11
100.3135127652676744
 21
3.9700659738250477
 31
0.0
  0
LINE
  5
AC
100
AcDbEntity
100
AcDbLine
  8
0
 62
256
370
-1
 48
1.0
  6
BYLAYER
 10
100.3135127652676744
 20
3.9700659738250477
 30
0.0
 11
99.9693127652676736
 21
4.8009459738250477
 31
0.0
  0
LINE
  5
AD
100
AcDbEntity
100
AcDbLine
  8
0
 62
256
370
-1
 48
1.0
  6
BYLAYER
 10
99.9693127652676736
 20
4.8009459738250477
 30
0.0
 11
99.5343127652676856
 21
5.5880859738250477
 31
0.0
  0
LINE
  5
AE
100
AcDbEntity
100
AcDbLine
  8
0
 62
256
370
-1
 48
1.0
  6
BYLAYER
 10
99.5343127652676856
 20
5.5880859738250477
 30
0.0
 11
99.4870127652676786
 21
5.6333459738250475
 31
0.0
  0
LINE
  5
AF
100
AcDbEntity
100
AcDbLine
  8
0
 62
256
370
-1
 48
1.0
  6
BYLAYER
 10
99.4870127652676786
 20
5.6333459738250475
 30
0.0
 11
99.3880127652676748
 21
5.6866459738250477
 31
0.0
  0
LINE
  5
B0
100
AcDbEntity
100
AcDbLine
  8
0
 62
256
370
-1
 48
1.0
  6
BYLAYER
 10
99.3880127652676748
 20
5.6866459738250477
 30
0.0
 11
99.2799127652676816
 21
5.7109259738250477
 31
0.0
  0
LINE
  5
B1
100
AcDbEntity
100
AcDbLine
  8
0
 62
256
370
-1
 48
1.0
  6
BYLAYER
 10
99.2799127652676816
 20
5.7109259738250477
 30
0.0
 11
99.1691127652676698
 21
5.7037959738250477
 31
0.0
  0
LINE
  5
B2
100
AcDbEntity
100
AcDbLine
  8
0
 62
256
370
-1
 48
1.0
  6
BYLAYER
 10
99.1691127652676698
 20
5.7037959738250477
 30
0.0
 11
98.2629127652676857
 21
5.5086559738250482
 31
0.0
  0
LINE
  5
B3
100
AcDbEntity
100
AcDbLine
  8
0
 62
256
370
-1
 48
1.0
  6
BYLAYER
 10
98.2629127652676857
 20
5.5086559738250482
 30
0.0
 11
98.1525127652676872
 21
5.501575973825048
 31
0.0
  0
LINE
  5
B4
100
AcDbEntity
100
AcDbLine
  8
0
 62
256
370
-1
 48
1.0
  6
BYLAYER
 10
98.1525127652676872
 20
5.501575973825048
 30
0.0
 11
98.0443127652676765
 21
5.525835973825048
 31
0.0
  0
LINE
  5
B5
100
AcDbEntity
100
AcDbLine
  8
0
 62
256
370
-1
 48
1.0
  6
BYLAYER
 10
98.0443127652676765
 20
5.525835973825048
 30
0.0
 11
97.9451127652676803
 21
5.5791359738250481
 31
0.0
  0
LINE
  5
B6
100
AcDbEntity
100
AcDbLine
  8
0
 62
256
370
-1
 48
1.0
  6
BYLAYER
 10
97.9451127652676803
 20
5.5791359738250481
 30
0.0
 11
97.8614127652676871
 21
5.6591159738250481
 31
0.0
  0
LINE
  5
B7
100
AcDbEntity
100
AcDbLine
  8
0
 62
256
370
-1
 48
1.0
  6
BYLAYER
 10
97.8614127652676871
 20
5.6591159738250481
 30
0.0
 11
97.2666127652676664
 21
6.4049959738250477
 31
0.0
  0
LINE
  5
B8
100
AcDbEntity
100
AcDbLine
  8
0
 62
256
370
-1
 48
1.0
  6
BYLAYER
 10
97.2666127652676664
 20
6.4049959738250477
 30
0.0
 11
97.2072127652676841
 21
6.5044459738250477
 31
0.0
  0
LINE
  5
B9
100
AcDbEntity
100
AcDbLine
  8
0
 62
256
370
-1
 48
1.0
  6
BYLAYER
 10
97.2072127652676841
 20
6.5044459738250477
 30
0.0
 11
97.1773127652676862
 21
6.6130059738250475
 31
0.0
  0
LINE
  5
BA
100
AcDbEntity
100
AcDbLine
  8
0
 62
256
370
-1
 48
1.0
  6
BYLAYER
 10
97.1773127652676862
 20
6.6130059738250475
 30
0.0
 11
97.1777127652676711
 21
6.7238159738250483
 31
0.0
  0
LINE
  5
BB
100
AcDbEntity
100
AcDbLine
  8
0
 62
256
370
-1
 48
1.0
  6
BYLAYER
 10
97.1777127652676711
 20
6.7238159738250483
 30
0.0
 11
97.2092127652676794
 21
6.8299759738250474
 31
0.0
  0
LINE
  5
BC
100
AcDbEntity
100
AcDbLine
  8
0
 62
256
370
-1
 48
1.0
  6
BYLAYER
 10
97.2092127652676794
 20
6.8299759738250474
 30
0.0
 11
97.6011127652676862
 21
7.6699359738250479
 31
0.0
  0
LINE
  5
BD
100
AcDbEntity
100
AcDbLine
  8
0
 62
256
370
-1
 48
1.0
  6
BYLAYER
 10
97.6011127652676862
 20
7.6699359738250479
 30
0.0
 11
97.6327127652676836
 21
7.7764259738250479
 31
0.0
  0
LINE
  5
BE
100
AcDbEntity
100
AcDbLine
  8
0
 62
256
370
-1
 48
1.0
  6
BYLAYER
 10
97.6327127652676836
 20
7.7764259738250479
 30
0.0
 11
97.6330127652676794
 21
7.8872659738250475
 31
0.0
  0
LINE
  5
BF
100
AcDbEntity
100
AcDbLine
  8
0
 62
256
370
-1
 48
1.0
  6
BYLAYER
 10
97.6330127652676794
 20
7.8872659738250475
 30
0.0
 11
97.6031127652676673
 21
7.9956859738250481
 31
0.0
  0
LINE
  5
C0
100
AcDbEntity
100
AcDbLine
  8
0
 62
256
370
-1
 48
1.0
  6
BYLAYER
 10
97.6031127652676673
 20
7.9956859738250481
 30
0.0
 11
97.5695127652676746
 21
8.0517559738250473
 31
0.0
  0
LINE
  5
C1
100
AcDbEntity
100
AcDbLine
  8
0
 62
256
370
-1
 48
1.0
  6
BYLAYER
 10
97.5695127652676746
 20
8.0517559738250473
 30
0.0
 11
96.8990127652676847
 21
8.6510159738250483
 31
0.0
  0
LINE
  5
C2
100
AcDbEntity
100
AcDbLine
  8
0
 62
256
370
-1
 48
1.0
  6
BYLAYER
 10
96.8990127652676847
 20
8.6510159738250483
 30
0.0
 11
96.1655127652676782
 21
9.1714659738250486
 31
0.0
  0
LINE
  5
C3
100
AcDbEntity
100
AcDbLine
  8
0
 62
256
370
-1
 48
1.0
  6
BYLAYER
 10
96.1655127652676782
 20
9.1714659738250486
 30
0.0
 11
96.1032127652676706
 21
9.1917159738250476
 31
0.0
  0
LINE
  5
C4
100
AcDbEntity
100
AcDbLine
  8
0
 62
256
370
-1
 48
1.0
  6
BYLAYER
 10
96.1032127652676706
 20
9.1917159738250476
 30
0.0
 11
95.9909127652676801
 21
9.1967759738250479
 31
0.0
  0
LINE
  5
C5
100
AcDbEntity
100
AcDbLine
  8
0
 62
256
370
-1
 48
1.0
  6
BYLAYER
 10
95.9909127652676801
 20
9.1967759738250479
 30
0.0
 11
95.8830127652676794
 21
9.1717559738250483
 31
0.0
  0
LINE
  5
C6
100
AcDbEntity
100
AcDbLine
  8
0
 62
256
370
-1
 48
1.0
  6
BYLAYER
 10
95.8830127652676794
 20
9.1717559738250483
 30
0.0
 11
95.7862127652676776
 21
9.1172459738250478
 31
0.0
  0
LINE
  5
C7
100
AcDbEntity
100
AcDbLine
  8
0
 62
256
370
-1
 48
1.0
  6
BYLAYER
 10
95.7862127652676776
 20
9.1172459738250478
 30
0.0
 11
95.054512765267674
 21
8.5482759738250476
 31
0.0
  0
LINE
  5
C8
100
AcDbEntity
100
AcDbLine
  8
0
 62
256
370
-1
 48
1.0
  6
BYLAYER
 10
95.054512765267674
 20
8.5482759738250476
 30
0.0
 11
94.9581127652676855
 21
8.493975973825048
 31
0.0
  0
LINE
  5
C9
100
AcDbEntity
100
AcDbLine
  8
0
 62
256
370
-1
 48
1.0
  6
BYLAYER
 10
94.9581127652676855
 20
8.493975973825048
 30
0.0
 11
94.8501127652676814
 21
8.4689159738250481
 31
0.0
  0
LINE
  5
CA
100
AcDbEntity
100
AcDbLine
  8
0
 62
256
370
-1
 48
1.0
  6
BYLAYER
 10
94.8501127652676814
 20
8.4689159738250481
 30
0.0
 11
94.7376127652676701
 21
8.4738959738250479
 31
0.0
  0
LINE
  5
CB
100
AcDbEntity
100
AcDbLine
  8
0
 62
256
370
-1
 48
1.0
  6
BYLAYER
 10
94.7376127652676701
 20
8.4738959738250479
 30
0.0
 11
94.6275127652676815
 21
8.509625973825047
 31
0.0
  0
LINE
  5
CC
100
AcDbEntity
100
AcDbLine
  8
0
 62
256
370
-1
 48
1.0
  6
BYLAYER
 10
94.6275127652676815
 20
8.509625973825047
 30
0.0
 11
93.7679127652676812
 21
8.9235559738250476
 31
0.0
  0
LINE
  5
CD
100
AcDbEntity
100
AcDbLine
  8
0
 62
256
370
-1
 48
1.0
  6
BYLAYER
 10
93.7679127652676812
 20
8.9235559738250476
 30
0.0
 11
93.671312765267686
 21
8.9873959738250484
 31
0.0
  0
LINE
  5
CE
100
AcDbEntity
100
AcDbLine
  8
0
 62
256
370
-1
 48
1.0
  6
BYLAYER
 10
93.671312765267686
 20
8.9873959738250484
 30
0.0
 11
93.5973127652676737
 21
9.0722559738250474
 31
0.0
  0
LINE
  5
CF
100
AcDbEntity
100
AcDbLine
  8
0
 62
256
370
-1
 48
1.0
  6
BYLAYER
 10
93.5973127652676737
 20
9.0722559738250474
 30
0.0
 11
93.5496127652676819
 21
9.1722759738250481
 31
0.0
  0
LINE
  5
D0
100
AcDbEntity
100
AcDbLine
  8
0
 62
256
370
-1
 48
1.0
  6
BYLAYER
 10
93.5496127652676819
 20
9.1722759738250481
 30
0.0
 11
93.5319127652676769
 21
9.2815559738250482
 31
0.0
  0
LINE
  5
D1
100
AcDbEntity
100
AcDbLine
  8
0
 62
256
370
-1
 48
1.0
  6
BYLAYER
 10
93.5319127652676769
 20
9.2815559738250482
 30
0.0
 11
93.5205127652676822
 21
10.2083859738250471
 31
0.0
  0
LINE
  5
D2
100
AcDbEntity
100
AcDbLine
  8
0
 62
256
370
-1
 48
1.0
  6
BYLAYER
 10
93.5205127652676822
 20
10.2083859738250471
 30
0.0
 11
93.5027127652676739
 21
10.3179859738250475
 31
0.0
  0
LINE
  5
D3
100
AcDbEntity
100
AcDbLine
  8
0
 62
256
370
-1
 48
1.0
  6
BYLAYER
 10
93.5027127652676739
 20
10.3179859738250475
 30
0.0
 11
93.4550127652676679
 21
10.4179859738250471
 31
0.0
  0
LINE
  5
D4
100
AcDbEntity
100
AcDbLine
  8
0
 62
256
370
-1
 48
1.0
  6
BYLAYER
 10
93.4550127652676679
 20
10.4179859738250471
 30
0.0
 11
93.3809127652676807
 21
10.5026859738250486
 31
0.0
  0
LINE
  5
D5
100
AcDbEntity
100
AcDbLine
  8
0
 62
256
370
-1
 48
1.0
  6
BYLAYER
 10
93.3809127652676807
 20
10.5026859738250486
 30
0.0
 11
93.3264127652676763
 21
10.5386859738250482
 31
0.0
  0
LINE
  5
D6
100
AcDbEntity
100
AcDbLine
  8
0
 62
256
370
-1
 48
1.0
  6
BYLAYER
 10
93.3264127652676763
 20
10.5386859738250482
 30
0.0
 11
92.4622127652676795
 21
10.787685973825047
 31
0.0
  0
LINE
  5
D7
100
AcDbEntity
100
AcDbLine
  8
0
 62
256
370
-1
 48
1.0
  6
BYLAYER
 10
92.4622127652676795
 20
10.787685973825047
 30
0.0
 11
91.5755127652676748
 21
10.9382859738250477
 31
0.0
  0
LINE
  5
D8
100
AcDbEntity
100
AcDbLine
  8
0
 62
256
370
-1
 48
1.0
  6
BYLAYER
 10
91.5755127652676748
 20
10.9382859738250477
 30
0.0
 11
91.5107127652676695
 21
10.9295859738250485
 31
0.0
  0
LINE
  5
D9
100
AcDbEntity
100
AcDbLine
  8
0
 62
256
370
-1
 48
1.0
  6
BYLAYER
 10
91.5107127652676695
 20
10.9295859738250485
 30
0.0
 11
91.407312765267676
 21
10.8853859738250485
 31
0.0
  0
LINE
  5
DA
100
AcDbEntity
100
AcDbLine
  8
0
 62
256
370
-1
 48
1.0
  6
BYLAYER
 10
91.407312765267676
 20
10.8853859738250485
 30
0.0
 11
91.3209127652676784
 21
10.8159859738250486
 31
0.0
  0
LINE
  5
DB
100
AcDbEntity
100
AcDbLine
  8
0
 62
256
370
-1
 48
1.0
  6
BYLAYER
 10
91.3209127652676784
 20
10.8159859738250486
 30
0.0
 11
91.2574127652676736
 21
10.7248859738250477
 31
0.0
  0
LINE
  5
DC
100
AcDbEntity
100
AcDbLine
  8
0
 62
256
370
-1
 48
1.0
  6
BYLAYER
 10
91.2574127652676736
 20
10.7248859738250477
 30
0.0
 11
90.8450127652676827
 21
9.8948059738250471
 31
0.0
  0
LINE
  5
DD
100
AcDbEntity
100
AcDbLine
  8
0
 62
256
370
-1
 48
1.0
  6
BYLAYER
 10
90.8450127652676827
 20
9.8948059738250471
 30
0.0
 11
90.7816127652676812
 21
9.804015973825047
 31
0.0
  0
LINE
  5
DE
100
AcDbEntity
100
AcDbLine
  8
0
 62
256
370
-1
 48
1.0
  6
BYLAYER
 10
90.7816127652676812
 20
9.804015973825047
 30
0.0
 11
90.6953127652676727
 21
9.7346059738250474
 31
0.0
  0
LINE
  5
DF
100
AcDbEntity
100
AcDbLine
  8
0
 62
256
370
-1
 48
1.0
  6
BYLAYER
 10
90.6953127652676727
 20
9.7346059738250474
 30
0.0
 11
90.5918127652676759
 21
9.690275973825047
 31
0.0
  0
LINE
  5
E0
100
AcDbEntity
100
AcDbLine
  8
0
 62
256
370
-1
 48
1.0
  6
BYLAYER
 10
90.5918127652676759
 20
9.690275973825047
 30
0.0
 11
90.4770127652676734
 21
9.6746859738250475
 31
0.0
  0
LINE
  5
E1
100
AcDbEntity
100
AcDbLine
  8
0
 62
256
370
-1
 48
1.0
  6
BYLAYER
 10
90.4770127652676734
 20
9.6746859738250475
 30
0.0
 11
89.5230127652676799
 21
9.6746859738250475
 31
0.0
  0
LINE
  5
E2
100
AcDbEntity
100
AcDbLine
  8
0
 62
256
370
-1
 48
1.0
  6
BYLAYER
 10
89.5230127652676799
 20
9.6746859738250475
 30
0.0
 11
89.4082127652676775
 21
9.690275973825047
 31
0.0
  0
LINE
  5
E3
100
AcDbEntity
100
AcDbLine
  8
0
 62
256
370
-1
 48
1.0
  6
BYLAYER
 10
89.4082127652676775
 20
9.690275973825047
 30
0.0
 11
89.3047127652676807
 21
9.7346059738250474
 31
0.0
  0
LINE
  5
E4
100
AcDbEntity
100
AcDbLine
  8
0
 62
256
370
-1
 48
1.0
  6
BYLAYER
 10
89.3047127652676807
 20
9.7346059738250474
 30
0.0
 11
89.2183127652676831
 21
9.804015973825047
 31
0.0
  0
LINE
  5
E5
100
AcDbEntity
100
AcDbLine
  8
0
 62
256
370
-1
 48
1.0
  6
BYLAYER
 10
89.2183127652676831
 20
9.804015973825047
 30
0.0
 11
89.1550127652676849
 21
9.8948059738250471
 31
0.0
  0
LINE
  5
E6
100
AcDbEntity
100
AcDbLine
  8
0
 62
256
370
-1
 48
1.0
  6
BYLAYER
 10
89.1550127652676849
 20
9.8948059738250471
 30
0.0
 11
88.7426127652676797
 21
10.7248859738250477
 31
0.0
  0
LINE
  5
E7
100
AcDbEntity
100
AcDbLine
  8
0
 62
256
370
-1
 48
1.0
  6
BYLAYER
 10
88.7426127652676797
 20
10.7248859738250477
 30
0.0
 11
88.6790127652676716
 21
10.8159859738250486
 31
0.0
  0
LINE
  5
E8
100
AcDbEntity
100
AcDbLine
  8
0
 62
256
370
-1
 48
1.0
  6
BYLAYER
 10
88.6790127652676716
 20
10.8159859738250486
 30
0.0
 11
88.592612765267674
 21
10.8853859738250485
 31
0.0
  0
LINE
  5
E9
100
AcDbEntity
100
AcDbLine
  8
0
 62
256
370
-1
 48
1.0
  6
BYLAYER
 10
88.592612765267674
 20
10.8853859738250485
 30
0.0
 11
88.4891127652676772
 21
10.9295859738250485
 31
0.0
  0
LINE
  5
EA
100
AcDbEntity
100
AcDbLine
  8
0
 62
256
370
-1
 48
1.0
  6
BYLAYER
 10
88.4891127652676772
 20
10.9295859738250485
 30
0.0
 11
88.4244127652676752
 21
10.9382859738250477
 31
0.0
  0
LINE
  5
EB
100
AcDbEntity
100
AcDbLine
  8
0
 62
256
370
-1
 48
1.0
  6
BYLAYER
 10
88.4244127652676752
 20
10.9382859738250477
 30
0.0
 11
87.5378127652676739
 21
10.787685973825047
 31
0.0
  0
LINE
  5
EC
100
AcDbEntity
100
AcDbLine
  8
0
 62
256
370
-1
 48
1.0
  6
BYLAYER
 10
87.5378127652676739
 20
10.787685973825047
 30
0.0
 11
86.6736127652676771
 21
10.5386859738250482
 31
0.0
  0
LINE
  5
ED
100
AcDbEntity
100
AcDbLine
  8
0
 62
256
370
-1
 48
1.0
  6
BYLAYER
 10
86.6736127652676771
 20
10.5386859738250482
 30
0.0
 11
86.6189127652676802
 21
10.5026859738250486
 31
0.0
  0
LINE
  5
EE
100
AcDbEntity
100
AcDbLine
  8
0
 62
256
370
-1
 48
1.0
  6
BYLAYER
 10
86.6189127652676802
 20
10.5026859738250486
 30
0.0
 11
86.544912765267668
 21
10.4179859738250471
 31
0.0
  0
LINE
  5
EF
100
AcDbEntity
100
AcDbLine
  8
0
 62
256
370
-1
 48
1.0
  6
BYLAYER
 10
86.544912765267668
 20
10.4179859738250471
 30
0.0
 11
86.4972127652676761
 21
10.3179859738250475
 31
0.0
  0
LINE
  5
F0
100
AcDbEntity
100
AcDbLine
  8
0
 62
256
370
-1
 48
1.0
  6
BYLAYER
 10
86.4972127652676761
 20
10.3179859738250475
 30
0.0
 11
86.4795127652676854
 21
10.2083859738250471
 31
0.0
  0
LINE
  5
F1
100
AcDbEntity
100
AcDbLine
  8
0
 62
256
370
-1
 48
1.0
  6
BYLAYER
 10
86.4795127652676854
 20
10.2083859738250471
 30
0.0
 11
86.4681127652676764
 21
9.2815559738250482
 31
0.0
  0
LINE
  5
F2
100
AcDbEntity
100
AcDbLine
  8
0
 62
256
370
-1
 48
1.0
  6
BYLAYER
 10
86.4681127652676764
 20
9.2815559738250482
 30
0.0
 11
86.4504127652676715
 21
9.1722759738250481
 31
0.0
  0
LINE
  5
F3
100
AcDbEntity
100
AcDbLine
  8
0
 62
256
370
-1
 48
1.0
  6
BYLAYER
 10
86.4504127652676715
 20
9.1722759738250481
 30
0.0
 11
86.4027127652676796
 21
9.0722559738250474
 31
0.0
  0
LINE
  5
F4
100
AcDbEntity
100
AcDbLine
  8
0
 62
256
370
-1
 48
1.0
  6
BYLAYER
 10
86.4027127652676796
 20
9.0722559738250474
 30
0.0
 11
86.3287127652676816
 21
8.9873959738250484
 31
0.0
  0
LINE
  5
F5
100
AcDbEntity
100
AcDbLine
  8
0
 62
256
370
-1
 48
1.0
  6
BYLAYER
 10
86.3287127652676816
 20
8.9873959738250484
 30
0.0
 11
86.2321127652676722
 21
8.9235559738250476
 31
0.0
  0
LINE
  5
F6
100
AcDbEntity
100
AcDbLine
  8
0
 62
256
370
-1
 48
1.0
  6
BYLAYER
 10
86.2321127652676722
 20
8.9235559738250476
 30
0.0
 11
85.3725127652676719
 21
8.509625973825047
 31
0.0
  0
LINE
  5
F7
100
AcDbEntity
100
AcDbLine
  8
0
 62
256
370
-1
 48
1.0
  6
BYLAYER
 10
85.3725127652676719
 20
8.509625973825047
 30
0.0
 11
85.2624127652676691
 21
8.4738959738250479
 31
0.0
  0
LINE
  5
F8
100
AcDbEntity
100
AcDbLine
  8
0
 62
256
370
-1
 48
1.0
  6
BYLAYER
 10
85.2624127652676691
 20
8.4738959738250479
 30
0.0
 11
85.1499127652676719
 21
8.4689159738250481
 31
0.0
  0
LINE
  5
F9
100
AcDbEntity
100
AcDbLine
  8
0
 62
256
370
-1
 48
1.0
  6
BYLAYER
 10
85.1499127652676719
 20
8.4689159738250481
 30
0.0
 11
85.0419127652676821
 21
8.493975973825048
 31
0.0
  0
LINE
  5
FA
100
AcDbEntity
100
AcDbLine
  8
0
 62
256
370
-1
 48
1.0
  6
BYLAYER
 10
85.0419127652676821
 20
8.493975973825048
 30
0.0
 11
84.945412765267676
 21
8.5482759738250476
 31
0.0
  0
LINE
  5
FB
100
AcDbEntity
100
AcDbLine
  8
0
 62
256
370
-1
 48
1.0
  6
BYLAYER
 10
84.945412765267676
 20
8.5482759738250476
 30
0.0
 11
84.2137127652676725
 21
9.1172459738250478
 31
0.0
  0
LINE
  5
FC
100
AcDbEntity
100
AcDbLine
  8
0
 62
256
370
-1
 48
1.0
  6
BYLAYER
 10
84.2137127652676725
 20
9.1172459738250478
 30
0.0
 11
84.1169127652676707
 21
9.1717359738250472
 31
0.0
  0
LINE
  5
FD
100
AcDbEntity
100
AcDbLine
  8
0
 62
256
370
-1
 48
1.0
  6
BYLAYER
 10
84.1169127652676707
 20
9.1717359738250472
 30
0.0
 11
84.0090127652676699
 21
9.1967159738250484
 31
0.0
  0
LINE
  5
FE
100
AcDbEntity
100
AcDbLine
  8
0
 62
256
370
-1
 48
1.0
  6
BYLAYER
 10
84.0090127652676699
 20
9.1967159738250484
 30
0.0
 11
83.8966127652676761
 21
9.191635973825047
 31
0.0
  0
LINE
  5
FF
100
AcDbEntity
100
AcDbLine
  8
0
 62
256
370
-1
 48
1.0
  6
BYLAYER
 10
83.8966127652676761
 20
9.191635973825047
 30
0.0
 11
83.8345127652676751
 21
9.1714359738250479
 31
0.0
  0
LINE
  5
100
100
AcDbEntity
100
AcDbLine
  8
0
 62
256
370
-1
 48
1.0
  6
BYLAYER
 10
83.8345127652676751
 20
9.1714359738250479
 30
0.0
 11
83.1010127652676829
 21
8.6510159738250483
 31
0.0
  0
LINE
  5
101
100
AcDbEntity
100
AcDbLine
  8
0
 62
256
370
-1
 48
1.0
  6
BYLAYER
 10
83.1010127652676829
 20
8.6510159738250483
 30
0.0
 11
82.4304127652676755
 21
8.0517259738250484
 31
0.0
  0
LINE
  5
102
100
AcDbEntity
100
AcDbLine
  8
0
 62
256
370
-1
 48
1.0
  6
BYLAYER
 10
82.4304127652676755
 20
8.0517259738250484
 30
0.0
 11
82.3968127652676685
 21
7.9955559738250477
 31
0.0
  0
LINE
  5
103
100
AcDbEntity
100
AcDbLine
  8
0
 62
256
370
-1
 48
1.0
  6
BYLAYER
 10
82.3968127652676685
 20
7.9955559738250477
 30
0.0
 11
82.3669127652676707
 21
7.8871659738250477
 31
0.0
  0
LINE
  5
104
100
AcDbEntity
100
AcDbLine
  8
0
 62
256
370
-1
 48
1.0
  6
BYLAYER
 10
82.3669127652676707
 20
7.8871659738250477
 30
0.0
 11
82.367312765267684
 21
7.7763959738250481
 31
0.0
  0
LINE
  5
105
100
AcDbEntity
100
AcDbLine
  8
0
 62
256
370
-1
 48
1.0
  6
BYLAYER
 10
82.367312765267684
 20
7.7763959738250481
 30
0.0
 11
82.3989127652676814
 21
7.6699359738250479
 31
0.0
  0
LINE
  5
106
100
AcDbEntity
100
AcDbLine
  8
0
 62
256
370
-1
 48
1.0
  6
BYLAYER
 10
82.3989127652676814
 20
7.6699359738250479
 30
0.0
 11
82.790812765267674
 21
6.8299759738250474
 31
0.0
  0
LINE
  5
107
100
AcDbEntity
100
AcDbLine
  8
0
 62
256
370
-1
 48
1.0
  6
BYLAYER
 10
82.790812765267674
 20
6.8299759738250474
 30
0.0
 11
82.8222127652676789
 21
6.7238159738250483
 31
0.0
  0
LINE
  5
108
100
AcDbEntity
100
AcDbLine
  8
0
 62
256
370
-1
 48
1.0
  6
BYLAYER
 10
82.8222127652676789
 20
6.7238159738250483
 30
0.0
 11
82.822612765267678
 21
6.6130059738250475
 31
0.0
  0
LINE
  5
109
100
AcDbEntity
100
AcDbLine
  8
0
 62
256
370
-1
 48
1.0
  6
BYLAYER
 10
82.822612765267678
 20
6.6130059738250475
 30
0.0
 11
82.7928127652676835
 21
6.5044459738250477
 31
0.0
  0
LINE
  5
10A
100
AcDbEntity
100
AcDbLine
  8
0
 62
256
370
-1
 48
1.0
  6
BYLAYER
 10
82.7928127652676835
 20
6.5044459738250477
 30
0.0
 11
82.7334127652676727
 21
6.4049959738250477
 31
0.0
  0
LINE
  5
10B
100
AcDbEntity
100
AcDbLine
  8
0
 62
256
370
-1
 48
1.0
  6
BYLAYER
 10
82.7334127652676727
 20
6.4049959738250477
 30
0.0
 11
82.1386127652676805
 21
5.6591159738250481
 31
0.0
  0
LINE
  5
10C
100
AcDbEntity
100
AcDbLine
  8
0
 62
256
370
-1
 48
1.0
  6
BYLAYER
 10
82.1386127652676805
 20
5.6591159738250481
 30
0.0
 11
82.054812765267684
 21
5.5791359738250481
 31
0.0
  0
LINE
  5
10D
100
AcDbEntity
100
AcDbLine
  8
0
 62
256
370
-1
 48
1.0
  6
BYLAYER
 10
82.054812765267684
 20
5.5791359738250481
 30
0.0
 11
81.9557127652676769
 21
5.525835973825048
 31
0.0
  0
LINE
  5
10E
100
AcDbEntity
100
AcDbLine
  8
0
 62
256
370
-1
 48
1.0
  6
BYLAYER
 10
81.9557127652676769
 20
5.525835973825048
 30
0.0
 11
81.8475127652676804
 21
5.501575973825048
 31
0.0
  0
LINE
  5
10F
100
AcDbEntity
100
AcDbLine
  8
0
 62
256
370
-1
 48
1.0
  6
BYLAYER
 10
81.8475127652676804
 20
5.501575973825048
 30
0.0
 11
81.7370127652676786
 21
5.5086559738250482
 31
0.0
  0
LINE
  5
110
100
AcDbEntity
100
AcDbLine
  8
0
 62
256
370
-1
 48
1.0
  6
BYLAYER
 10
81.7370127652676786
 20
5.5086559738250482
 30
0.0
 11
80.8309127652676693
 21
5.7037959738250477
 31
0.0
  0
LINE
  5
111
100
AcDbEntity
100
AcDbLine
  8
0
 62
256
370
-1
 48
1.0
  6
BYLAYER
 10
80.8309127652676693
 20
5.7037959738250477
 30
0.0
 11
80.7201127652676718
 21
5.710895973825048
 31
0.0
  0
LINE
  5
112
100
AcDbEntity
100
AcDbLine
  8
0
 62
256
370
-1
 48
1.0
  6
BYLAYER
 10
80.7201127652676718
 20
5.710895973825048
 30
0.0
 11
80.6119127652676752
 21
5.6865359738250483
 31
0.0
  0
LINE
  5
113
100
AcDbEntity
100
AcDbLine
  8
0
 62
256
370
-1
 48
1.0
  6
BYLAYER
 10
80.6119127652676752
 20
5.6865359738250483
 30
0.0
 11
80.5129127652676715
 21
5.6332059738250475
 31
0.0
  0
LINE
  5
114
100
AcDbEntity
100
AcDbLine
  8
0
 62
256
370
-1
 48
1.0
  6
BYLAYER
 10
80.5129127652676715
 20
5.6332059738250475
 30
0.0
 11
80.465712765267682
 21
5.5880559738250479
 31
0.0
  0
LINE
  5
115
100
AcDbEntity
100
AcDbLine
  8
0
 62
256
370
-1
 48
1.0
  6
BYLAYER
 10
80.465712765267682
 20
5.5880559738250479
 30
0.0
 11
80.0307127652676797
 21
4.8009459738250477
 31
0.0
  0
LINE
  5
116
100
AcDbEntity
100
AcDbLine
  8
0
 62
256
370
-1
 48
1.0
  6
BYLAYER
 10
80.0307127652676797
 20
4.8009459738250477
 30
0.0
 11
79.686512765267679
 21
3.970045973825048
 31
0.0
  0
LINE
  5
117
100
AcDbEntity
100
AcDbLine
  8
0
 62
256
370
-1
 48
1.0
  6
BYLAYER
 10
79.686512765267679
 20
3.970045973825048
 30
0.0
 11
79.6806127652676821
 21
3.9048459738250481
 31
0.0
  0
LINE
  5
118
100
AcDbEntity
100
AcDbLine
  8
0
 62
256
370
-1
 48
1.0
  6
BYLAYER
 10
79.6806127652676821
 20
3.9048459738250481
 30
0.0
 11
79.7007127652676814
 21
3.794205973825048
 31
0.0
  0
LINE
  5
119
100
AcDbEntity
100
AcDbLine
  8
0
 62
256
370
-1
 48
1.0
  6
BYLAYER
 10
79.7007127652676814
 20
3.794205973825048
 30
0.0
 11
79.7491127652676823
 21
3.694565973825048
 31
0.0
  0
LINE
  5
11A
100
AcDbEntity
100
AcDbLine
  8
0
 62
256
370
-1
 48
1.0
  6
BYLAYER
 10
79.7491127652676823
 20
3.694565973825048
 30
0.0
 11
79.8238127652676752
 21
3.6123659738250478
 31
0.0
  0
LINE
  5
11B
100
AcDbEntity
100
AcDbLine
  8
0
 62
256
370
-1
 48
1.0
  6
BYLAYER
 10
79.8238127652676752
 20
3.6123659738250478
 30
0.0
 11
80.5413127652676764
 21
3.0256159738250479
 31
0.0
  0
LINE
  5
11C
100
AcDbEntity
100
AcDbLine
  8
0
 62
256
370
-1
 48
1.0
  6
BYLAYER
 10
80.5413127652676764
 20
3.0256159738250479
 30
0.0
 11
80.6157127652676735
 21
2.9436359738250477
 31
0.0
  0
LINE
  5
11D
100
AcDbEntity
100
AcDbLine
  8
0
 62
256
370
-1
 48
1.0
  6
BYLAYER
 10
80.6157127652676735
 20
2.9436359738250477
 30
0.0
 11
80.6641127652676744
 21
2.8439759738250476
 31
0.0
  0
LINE
  5
11E
100
AcDbEntity
100
AcDbLine
  8
0
 62
256
370
-1
 48
1.0
  6
BYLAYER
 10
80.6641127652676744
 20
2.8439759738250476
 30
0.0
 11
80.684312765267677
 21
2.733205973825048
 31
0.0
  0
LINE
  5
11F
100
AcDbEntity
100
AcDbLine
  8
0
 62
256
370
-1
 48
1.0
  6
BYLAYER
 10
80.684312765267677
 20
2.733205973825048
 30
0.0
 11
80.6740127652676762
 21
2.6178559738250478
 31
0.0
  0
LINE
  5
120
100
AcDbEntity
100
AcDbLine
  8
0
 62
256
370
-1
 48
1.0
  6
BYLAYER
 10
80.6740127652676762
 20
2.6178559738250478
 30
0.0
 11
80.4617127652676771
 21
1.6877559738250478
 31
0.0
  0
LINE
  5
121
100
AcDbEntity
100
AcDbLine
  8
0
 62
256
370
-1
 48
1.0
  6
BYLAYER
 10
80.4617127652676771
 20
1.6877559738250478
 30
0.0
 11
80.4210127652676761
 21
1.5793459738250479
 31
0.0
  0
LINE
  5
122
100
AcDbEntity
100
AcDbLine
  8
0
 62
256
370
-1
 48
1.0
  6
BYLAYER
 10
80.4210127652676761
 20
1.5793459738250479
 30
0.0
 11
80.3547127652676778
 21
1.4882959738250479
 31
0.0
  0
LINE
  5
123
100
AcDbEntity
100
AcDbLine
  8
0
 62
256
370
-1
 48
1.0
  6
BYLAYER
 10
80.3547127652676778
 20
1.4882959738250479
 30
0.0
 11
80.2678127652676778
 21
1.4195259738250479
 31
0.0
  0
LINE
  5
124
100
AcDbEntity
100
AcDbLine
  8
0
 62
256
370
-1
 48
1.0
  6
BYLAYER
 10
80.2678127652676778
 20
1.4195259738250479
 30
0.0
 11
80.1652127652676825
 21
1.3779659738250478
 31
0.0
  0
LINE
  5
125
100
AcDbEntity
100
AcDbLine
  8
0
 62
256
370
-1
 48
1.0
  6
BYLAYER
 10
80.1652127652676825
 20
1.3779659738250478
 30
0.0
 11
79.264212765267672
 21
1.1606259738250477
 31
0.0
  0
LINE
  5
126
100
AcDbEntity
100
AcDbLine
  8
0
 62
256
370
-1
 48
1.0
  6
BYLAYER
 10
79.264212765267672
 20
1.1606259738250477
 30
0.0
 11
79.1612127652676776
 21
1.1189259738250479
 31
0.0
  0
LINE
  5
127
100
AcDbEntity
100
AcDbLine
  8
0
 62
256
370
-1
 48
1.0
  6
BYLAYER
 10
79.1612127652676776
 20
1.1189259738250479
 30
0.0
 11
79.0743127652676776
 21
1.0500759738250478
 31
0.0
  0
LINE
  5
128
100
AcDbEntity
100
AcDbLine
  8
0
 62
256
370
-1
 48
1.0
  6
BYLAYER
 10
79.0743127652676776
 20
1.0500759738250478
 30
0.0
 11
79.0083127652676751
 21
0.9590619738250479
 31
0.0
  0
LINE
  5
129
100
AcDbEntity
100
AcDbLine
  8
0
 62
256
370
-1
 48
1.0
  6
BYLAYER
 10
79.0083127652676751
 20
0.9590619738250479
 30
0.0
 11
78.985312765267679
 21
0.8978889738250478
 31
0.0
  0
LINE
  5
12A
100
AcDbEntity
100
AcDbLine
  8
0
 62
256
370
-1
 48
1.0
  6
BYLAYER
 10
78.985312765267679
 20
0.8978889738250478
 30
0.0
 11
78.9349127652676827
 21
-0.0000140261749522
 31
0.0
  0
LINE
  5
12B
100
AcDbEntity
100
AcDbLine
  8
0
 62
256
370
-1
 48
1.0
  6
BYLAYER
 10
78.9349127652676827
 20
-0.0000140261749522
 30
0.0
 11
78.985312765267679
 21
-0.8979480261749522
 31
0.0
  0
LINE
  5
12C
100
AcDbEntity
100
AcDbLine
  8
0
 62
256
370
-1
 48
1.0
  6
BYLAYER
 10
78.985312765267679
 20
-0.8979480261749522
 30
0.0
 11
79.0083127652676751
 21
-0.9592430261749522
 31
0.0
  0
LINE
  5
12D
100
AcDbEntity
100
AcDbLine
  8
0
 62
256
370
-1
 48
1.0
  6
BYLAYER
 10
79.0083127652676751
 20
-0.9592430261749522
 30
0.0
 11
79.0744127652676809
 21
-1.0502340261749521
 31
0.0
  0
LINE
  5
12E
100
AcDbEntity
100
AcDbLine
  8
0
 62
256
370
-1
 48
1.0
  6
BYLAYER
 10
79.0744127652676809
 20
-1.0502340261749521
 30
0.0
 11
79.1612127652676776
 21
-1.1190040261749521
 31
0.0
  0
LINE
  5
12F
100
AcDbEntity
100
AcDbLine
  8
0
 62
256
370
-1
 48
1.0
  6
BYLAYER
 10
79.1612127652676776
 20
-1.1190040261749521
 30
0.0
 11
79.264212765267672
 21
-1.1606540261749521
 31
0.0
  0
LINE
  5
130
100
AcDbEntity
100
AcDbLine
  8
0
 62
256
370
-1
 48
1.0
  6
BYLAYER
 10
79.264212765267672
 20
-1.1606540261749521
 30
0.0
 11
80.1652127652676825
 21
-1.3779940261749521
 31
0.0
  0
LINE
  5
131
100
AcDbEntity
100
AcDbLine
  8
0
 62
256
370
-1
 48
1.0
  6
BYLAYER
 10
80.1652127652676825
 20
-1.3779940261749521
 30
0.0
 11
80.2678127652676778
 21
-1.4195540261749522
 31
0.0
  0
LINE
  5
132
100
AcDbEntity
100
AcDbLine
  8
0
 62
256
370
-1
 48
1.0
  6
BYLAYER
 10
80.2678127652676778
 20
-1.4195540261749522
 30
0.0
 11
80.3547127652676778
 21
-1.4883240261749522
 31
0.0
  0
LINE
  5
133
100
AcDbEntity
100
AcDbLine
  8
0
 62
256
370
-1
 48
1.0
  6
BYLAYER
 10
80.3547127652676778
 20
-1.4883240261749522
 30
0.0
 11
80.4210127652676761
 21
-1.5793740261749523
 31
0.0
  0
LINE
  5
134
100
AcDbEntity
100
AcDbLine
  8
0
 62
256
370
-1
 48
1.0
  6
BYLAYER
 10
80.4210127652676761
 20
-1.5793740261749523
 30
0.0
 11
80.4617127652676771
 21
-1.6877840261749522
 31
0.0
  0
LINE
  5
135
100
AcDbEntity
100
AcDbLine
  8
0
 62
256
370
-1
 48
1.0
  6
BYLAYER
 10
80.4617127652676771
 20
-1.6877840261749522
 30
0.0
 11
80.6740127652676762
 21
-2.6178840261749521
 31
0.0
  0
LINE
  5
136
100
AcDbEntity
100
AcDbLine
  8
0
 62
256
370
-1
 48
1.0
  6
BYLAYER
 10
80.6740127652676762
 20
-2.6178840261749521
 30
0.0
 11
80.684312765267677
 21
-2.7332340261749524
 31
0.0
  0
LINE
  5
137
100
AcDbEntity
100
AcDbLine
  8
0
 62
256
370
-1
 48
1.0
  6
BYLAYER
 10
80.684312765267677
 20
-2.7332340261749524
 30
0.0
 11
80.6641127652676744
 21
-2.844004026174952
 31
0.0
  0
LINE
  5
138
100
AcDbEntity
100
AcDbLine
  8
0
 62
256
370
-1
 48
1.0
  6
BYLAYER
 10
80.6641127652676744
 20
-2.844004026174952
 30
0.0
 11
80.6157127652676735
 21
-2.943664026174952
 31
0.0
  0
LINE
  5
139
100
AcDbEntity
100
AcDbLine
  8
0
 62
256
370
-1
 48
1.0
  6
BYLAYER
 10
80.6157127652676735
 20
-2.943664026174952
 30
0.0
 11
80.5413127652676764
 21
-3.0256440261749522
 31
0.0
  0
LINE
  5
13A
100
AcDbEntity
100
AcDbLine
  8
0
 62
256
370
-1
 48
1.0
  6
BYLAYER
 10
80.5413127652676764
 20
-3.0256440261749522
 30
0.0
 11
79.8238127652676752
 21
-3.6123940261749521
 31
0.0
  0
LINE
  5
13B
100
AcDbEntity
100
AcDbLine
  8
0
 62
256
370
-1
 48
1.0
  6
BYLAYER
 10
79.8238127652676752
 20
-3.6123940261749521
 30
0.0
 11
79.7491127652676823
 21
-3.6946440261749522
 31
0.0
  0
LINE
  5
13C
100
AcDbEntity
100
AcDbLine
  8
0
 62
256
370
-1
 48
1.0
  6
BYLAYER
 10
79.7491127652676823
 20
-3.6946440261749522
 30
0.0
 11
79.7007127652676814
 21
-3.7943540261749522
 31
0.0
  0
LINE
  5
13D
100
AcDbEntity
100
AcDbLine
  8
0
 62
256
370
-1
 48
1.0
  6
BYLAYER
 10
79.7007127652676814
 20
-3.7943540261749522
 30
0.0
 11
79.6806127652676821
 21
-3.9050440261749522
 31
0.0
  0
LINE
  5
13E
100
AcDbEntity
100
AcDbLine
  8
0
 62
256
370
-1
 48
1.0
  6
BYLAYER
 10
79.6806127652676821
 20
-3.9050440261749522
 30
0.0
 11
79.686512765267679
 21
-3.970094026174952
 31
0.0
  0
LINE
  5
13F
100
AcDbEntity
100
AcDbLine
  8
0
 62
256
370
-1
 48
1.0
  6
BYLAYER
 10
79.686512765267679
 20
-3.970094026174952
 30
0.0
 11
80.0307127652676797
 21
-4.8009740261749521
 31
0.0
  0
LINE
  5
140
100
AcDbEntity
100
AcDbLine
  8
0
 62
256
370
-1
 48
1.0
  6
BYLAYER
 10
80.0307127652676797
 20
-4.8009740261749521
 30
0.0
 11
80.465712765267682
 21
-5.588114026174952
 31
0.0
  0
LINE
  5
141
100
AcDbEntity
100
AcDbLine
  8
0
 62
256
370
-1
 48
1.0
  6
BYLAYER
 10
80.465712765267682
 20
-5.588114026174952
 30
0.0
 11
80.5130127652676748
 21
-5.6333740261749519
 31
0.0
  0
LINE
  5
142
100
AcDbEntity
100
AcDbLine
  8
0
 62
256
370
-1
 48
1.0
  6
BYLAYER
 10
80.5130127652676748
 20
-5.6333740261749519
 30
0.0
 11
80.6120127652676786
 21
-5.686674026174952
 31
0.0
  0
LINE
  5
143
100
AcDbEntity
100
AcDbLine
  8
0
 62
256
370
-1
 48
1.0
  6
BYLAYER
 10
80.6120127652676786
 20
-5.686674026174952
 30
0.0
 11
80.7201127652676718
 21
-5.7109540261749521
 31
0.0
  0
LINE
  5
144
100
AcDbEntity
100
AcDbLine
  8
0
 62
256
370
-1
 48
1.0
  6
BYLAYER
 10
80.7201127652676718
 20
-5.7109540261749521
 30
0.0
 11
80.8309127652676693
 21
-5.703824026174952
 31
0.0
  0
LINE
  5
145
100
AcDbEntity
100
AcDbLine
  8
0
 62
256
370
-1
 48
1.0
  6
BYLAYER
 10
80.8309127652676693
 20
-5.703824026174952
 30
0.0
 11
81.7370127652676786
 21
-5.5086840261749526
 31
0.0
  0
LINE
  5
146
100
AcDbEntity
100
AcDbLine
  8
0
 62
256
370
-1
 48
1.0
  6
BYLAYER
 10
81.7370127652676786
 20
-5.5086840261749526
 30
0.0
 11
81.8475127652676804
 21
-5.5016040261749524
 31
0.0
  0
LINE
  5
147
100
AcDbEntity
100
AcDbLine
  8
0
 62
256
370
-1
 48
1.0
  6
BYLAYER
 10
81.8475127652676804
 20
-5.5016040261749524
 30
0.0
 11
81.9557127652676769
 21
-5.5258640261749523
 31
0.0
  0
LINE
  5
148
100
AcDbEntity
100
AcDbLine
  8
0
 62
256
370
-1
 48
1.0
  6
BYLAYER
 10
81.9557127652676769
 20
-5.5258640261749523
 30
0.0
 11
82.054812765267684
 21
-5.5791640261749524
 31
0.0
  0
LINE
  5
149
100
AcDbEntity
100
AcDbLine
  8
0
 62
256
370
-1
 48
1.0
  6
BYLAYER
 10
82.054812765267684
 20
-5.5791640261749524
 30
0.0
 11
82.1386127652676805
 21
-5.6591440261749524
 31
0.0
  0
LINE
  5
14A
100
AcDbEntity
100
AcDbLine
  8
0
 62
256
370
-1
 48
1.0
  6
BYLAYER
 10
82.1386127652676805
 20
-5.6591440261749524
 30
0.0
 11
82.7334127652676727
 21
-6.405024026174952
 31
0.0
  0
LINE
  5
14B
100
AcDbEntity
100
AcDbLine
  8
0
 62
256
370
-1
 48
1.0
  6
BYLAYER
 10
82.7334127652676727
 20
-6.405024026174952
 30
0.0
 11
82.7928127652676835
 21
-6.5044740261749521
 31
0.0
  0
LINE
  5
14C
100
AcDbEntity
100
AcDbLine
  8
0
 62
256
370
-1
 48
1.0
  6
BYLAYER
 10
82.7928127652676835
 20
-6.5044740261749521
 30
0.0
 11
82.822612765267678
 21
-6.6130340261749518
 31
0.0
  0
LINE
  5
14D
100
AcDbEntity
100
AcDbLine
  8
0
 62
256
370
-1
 48
1.0
  6
BYLAYER
 10
82.822612765267678
 20
-6.6130340261749518
 30
0.0
 11
82.8222127652676789
 21
-6.7238440261749526
 31
0.0
  0
LINE
  5
14E
100
AcDbEntity
100
AcDbLine
  8
0
 62
256
370
-1
 48
1.0
  6
BYLAYER
 10
82.8222127652676789
 20
-6.7238440261749526
 30
0.0
 11
82.790812765267674
 21
-6.8300040261749517
 31
0.0
  0
LINE
  5
14F
100
AcDbEntity
100
AcDbLine
  8
0
 62
256
370
-1
 48
1.0
  6
BYLAYER
 10
82.790812765267674
 20
-6.8300040261749517
 30
0.0
 11
82.3989127652676814
 21
-7.6699640261749522
 31
0.0
  0
LINE
  5
150
100
AcDbEntity
100
AcDbLine
  8
0
 62
256
370
-1
 48
1.0
  6
BYLAYER
 10
82.3989127652676814
 20
-7.6699640261749522
 30
0.0
 11
82.367312765267684
 21
-7.7764540261749522
 31
0.0
  0
LINE
  5
151
100
AcDbEntity
100
AcDbLine
  8
0
 62
256
370
-1
 48
1.0
  6
BYLAYER
 10
82.367312765267684
 20
-7.7764540261749522
 30
0.0
 11
82.367012765267674
 21
-7.8872940261749518
 31
0.0
  0
LINE
  5
152
100
AcDbEntity
100
AcDbLine
  8
0
 62
256
370
-1
 48
1.0
  6
BYLAYER
 10
82.367012765267674
 20
-7.8872940261749518
 30
0.0
 11
82.3969127652676718
 21
-7.9957140261749524
 31
0.0
  0
LINE
  5
153
100
AcDbEntity
100
AcDbLine
  8
0
 62
256
370
-1
 48
1.0
  6
BYLAYER
 10
82.3969127652676718
 20
-7.9957140261749524
 30
0.0
 11
82.4304127652676755
 21
-8.0517840261749516
 31
0.0
  0
LINE
  5
154
100
AcDbEntity
100
AcDbLine
  8
0
 62
256
370
-1
 48
1.0
  6
BYLAYER
 10
82.4304127652676755
 20
-8.0517840261749516
 30
0.0
 11
83.1010127652676829
 21
-8.6510440261749526
 31
0.0
  0
LINE
  5
155
100
AcDbEntity
100
AcDbLine
  8
0
 62
256
370
-1
 48
1.0
  6
BYLAYER
 10
83.1010127652676829
 20
-8.6510440261749526
 30
0.0
 11
83.8345127652676751
 21
-9.1714940261749529
 31
0.0
  0
LINE
  5
156
100
AcDbEntity
100
AcDbLine
  8
0
 62
256
370
-1
 48
1.0
  6
BYLAYER
 10
83.8345127652676751
 20
-9.1714940261749529
 30
0.0
 11
83.8967127652676794
 21
-9.1917440261749519
 31
0.0
  0
LINE
  5
157
100
AcDbEntity
100
AcDbLine
  8
0
 62
256
370
-1
 48
1.0
  6
BYLAYER
 10
83.8967127652676794
 20
-9.1917440261749519
 30
0.0
 11
84.0091127652676732
 21
-9.1968040261749522
 31
0.0
  0
LINE
  5
158
100
AcDbEntity
100
AcDbLine
  8
0
 62
256
370
-1
 48
1.0
  6
BYLAYER
 10
84.0091127652676732
 20
-9.1968040261749522
 30
0.0
 11
84.117012765267674
 21
-9.1717840261749526
 31
0.0
  0
LINE
  5
159
100
AcDbEntity
100
AcDbLine
  8
0
 62
256
370
-1
 48
1.0
  6
BYLAYER
 10
84.117012765267674
 20
-9.1717840261749526
 30
0.0
 11
84.2137127652676725
 21
-9.1172740261749521
 31
0.0
  0
LINE
  5
15A
100
AcDbEntity
100
AcDbLine
  8
0
 62
256
370
-1
 48
1.0
  6
BYLAYER
 10
84.2137127652676725
 20
-9.1172740261749521
 30
0.0
 11
84.945412765267676
 21
-8.5483040261749519
 31
0.0
  0
LINE
  5
15B
100
AcDbEntity
100
AcDbLine
  8
0
 62
256
370
-1
 48
1.0
  6
BYLAYER
 10
84.945412765267676
 20
-8.5483040261749519
 30
0.0
 11
85.0419127652676821
 21
-8.4940040261749523
 31
0.0
  0
LINE
  5
15C
100
AcDbEntity
100
AcDbLine
  8
0
 62
256
370
-1
 48
1.0
  6
BYLAYER
 10
85.0419127652676821
 20
-8.4940040261749523
 30
0.0
 11
85.1499127652676719
 21
-8.4689440261749525
 31
0.0
  0
LINE
  5
15D
100
AcDbEntity
100
AcDbLine
  8
0
 62
256
370
-1
 48
1.0
  6
BYLAYER
 10
85.1499127652676719
 20
-8.4689440261749525
 30
0.0
 11
85.2624127652676691
 21
-8.4739240261749522
 31
0.0
  0
LINE
  5
15E
100
AcDbEntity
100
AcDbLine
  8
0
 62
256
370
-1
 48
1.0
  6
BYLAYER
 10
85.2624127652676691
 20
-8.4739240261749522
 30
0.0
 11
85.3725127652676719
 21
-8.5096540261749514
 31
0.0
  0
LINE
  5
15F
100
AcDbEntity
100
AcDbLine
  8
0
 62
256
370
-1
 48
1.0
  6
BYLAYER
 10
85.3725127652676719
 20
-8.5096540261749514
 30
0.0
 11
86.2321127652676722
 21
-8.9235840261749519
 31
0.0
  0
LINE
  5
160
100
AcDbEntity
100
AcDbLine
  8
0
 62
256
370
-1
 48
1.0
  6
BYLAYER
 10
86.2321127652676722
 20
-8.9235840261749519
 30
0.0
 11
86.3287127652676816
 21
-8.9874240261749527
 31
0.0
  0
LINE
  5
161
100
AcDbEntity
100
AcDbLine
  8
0
 62
256
370
-1
 48
1.0
  6
BYLAYER
 10
86.3287127652676816
 20
-8.9874240261749527
 30
0.0
 11
86.4027127652676796
 21
-9.0722840261749518
 31
0.0
  0
LINE
  5
162
100
AcDbEntity
100
AcDbLine
  8
0
 62
256
370
-1
 48
1.0
  6
BYLAYER
 10
86.4027127652676796
 20
-9.0722840261749518
 30
0.0
 11
86.4504127652676715
 21
-9.1723040261749524
 31
0.0
  0
LINE
  5
163
100
AcDbEntity
100
AcDbLine
  8
0
 62
256
370
-1
 48
1.0
  6
BYLAYER
 10
86.4504127652676715
 20
-9.1723040261749524
 30
0.0
 11
86.4681127652676764
 21
-9.2815840261749525
 31
0.0
  0
LINE
  5
164
100
AcDbEntity
100
AcDbLine
  8
0
 62
256
370
-1
 48
1.0
  6
BYLAYER
 10
86.4681127652676764
 20
-9.2815840261749525
 30
0.0
 11
86.4795127652676854
 21
-10.2084140261749514
 31
0.0
  0
LINE
  5
165
100
AcDbEntity
100
AcDbLine
  8
0
 62
256
370
-1
 48
1.0
  6
BYLAYER
 10
86.4795127652676854
 20
-10.2084140261749514
 30
0.0
 11
86.4972127652676761
 21
-10.3180140261749518
 31
0.0
  0
LINE
  5
166
100
AcDbEntity
100
AcDbLine
  8
0
 62
256
370
-1
 48
1.0
  6
BYLAYER
 10
86.4972127652676761
 20
-10.3180140261749518
 30
0.0
 11
86.5450127652676713
 21
-10.4180140261749514
 31
0.0
  0
LINE
  5
167
100
AcDbEntity
100
AcDbLine
  8
0
 62
256
370
-1
 48
1.0
  6
BYLAYER
 10
86.5450127652676713
 20
-10.4180140261749514
 30
0.0
 11
86.6191127652676727
 21
-10.502714026174953
 31
0.0
  0
LINE
  5
168
100
AcDbEntity
100
AcDbLine
  8
0
 62
256
370
-1
 48
1.0
  6
BYLAYER
 10
86.6191127652676727
 20
-10.502714026174953
 30
0.0
 11
86.6736127652676771
 21
-10.5387140261749526
 31
0.0
  0
LINE
  5
169
100
AcDbEntity
100
AcDbLine
  8
0
 62
256
370
-1
 48
1.0
  6
BYLAYER
 10
86.6736127652676771
 20
-10.5387140261749526
 30
0.0
 11
87.5378127652676739
 21
-10.7877140261749513
 31
0.0
  0
LINE
  5
16A
100
AcDbEntity
100
AcDbLine
  8
0
 62
256
370
-1
 48
1.0
  6
BYLAYER
 10
87.5378127652676739
 20
-10.7877140261749513
 30
0.0
 11
88.4244127652676752
 21
-10.9383140261749521
 31
0.0
  0
LINE
  5
16B
100
AcDbEntity
100
AcDbLine
  8
0
 62
256
370
-1
 48
1.0
  6
BYLAYER
 10
88.4244127652676752
 20
-10.9383140261749521
 30
0.0
 11
88.4893127652676696
 21
-10.9296140261749528
 31
0.0
  0
LINE
  5
16C
100
AcDbEntity
100
AcDbLine
  8
0
 62
256
370
-1
 48
1.0
  6
BYLAYER
 10
88.4893127652676696
 20
-10.9296140261749528
 30
0.0
 11
88.5927127652676774
 21
-10.8854140261749528
 31
0.0
  0
LINE
  5
16D
100
AcDbEntity
100
AcDbLine
  8
0
 62
256
370
-1
 48
1.0
  6
BYLAYER
 10
88.5927127652676774
 20
-10.8854140261749528
 30
0.0
 11
88.6791127652676749
 21
-10.8160140261749529
 31
0.0
  0
LINE
  5
16E
100
AcDbEntity
100
AcDbLine
  8
0
 62
256
370
-1
 48
1.0
  6
BYLAYER
 10
88.6791127652676749
 20
-10.8160140261749529
 30
0.0
 11
88.7426127652676797
 21
-10.724914026174952
 31
0.0
  0
LINE
  5
16F
100
AcDbEntity
100
AcDbLine
  8
0
 62
256
370
-1
 48
1.0
  6
BYLAYER
 10
88.7426127652676797
 20
-10.724914026174952
 30
0.0
 11
89.1550127652676849
 21
-9.8948340261749514
 31
0.0
  0
LINE
  5
170
100
AcDbEntity
100
AcDbLine
  8
0
 62
256
370
-1
 48
1.0
  6
BYLAYER
 10
89.1550127652676849
 20
-9.8948340261749514
 30
0.0
 11
89.2183127652676831
 21
-9.8040440261749513
 31
0.0
  0
LINE
  5
171
100
AcDbEntity
100
AcDbLine
  8
0
 62
256
370
-1
 48
1.0
  6
BYLAYER
 10
89.2183127652676831
 20
-9.8040440261749513
 30
0.0
 11
89.3047127652676807
 21
-9.7346340261749518
 31
0.0
  0
LINE
  5
172
100
AcDbEntity
100
AcDbLine
  8
0
 62
256
370
-1
 48
1.0
  6
BYLAYER
 10
89.3047127652676807
 20
-9.7346340261749518
 30
0.0
 11
89.4082127652676775
 21
-9.6903040261749513
 31
0.0
  0
LINE
  5
173
100
AcDbEntity
100
AcDbLine
  8
0
 62
256
370
-1
 48
1.0
  6
BYLAYER
 10
89.4082127652676775
 20
-9.6903040261749513
 30
0.0
 11
89.5230127652676799
 21
-9.6747140261749518
 31
0.0
  0
LINE
  5
174
100
AcDbEntity
100
AcDbLine
  8
0
 62
256
370
-1
 48
1.0
  6
BYLAYER
 10
89.5230127652676799
 20
-9.6747140261749518
 30
0.0
 11
90.4770127652676734
 21
-9.6747140261749518
 31
0.0
  0
LINE
  5
175
100
AcDbEntity
100
AcDbLine
  8
0
 62
256
370
-1
 48
1.0
  6
BYLAYER
 10
90.4770127652676734
 20
-9.6747140261749518
 30
0.0
 11
90.5918127652676759
 21
-9.6903040261749513
 31
0.0
  0
LINE
  5
176
100
AcDbEntity
100
AcDbLine
  8
0
 62
256
370
-1
 48
1.0
  6
BYLAYER
 10
90.5918127652676759
 20
-9.6903040261749513
 30
0.0
 11
90.6953127652676727
 21
-9.7346340261749518
 31
0.0
  0
LINE
  5
177
100
AcDbEntity
100
AcDbLine
  8
0
 62
256
370
-1
 48
1.0
  6
BYLAYER
 10
90.6953127652676727
 20
-9.7346340261749518
 30
0.0
 11
90.7816127652676812
 21
-9.8040440261749513
 31
0.0
  0
LINE
  5
178
100
AcDbEntity
100
AcDbLine
  8
0
 62
256
370
-1
 48
1.0
  6
BYLAYER
 10
90.7816127652676812
 20
-9.8040440261749513
 30
0.0
 11
90.8450127652676827
 21
-9.8948340261749514
 31
0.0
  0
LINE
  5
179
100
AcDbEntity
100
AcDbLine
  8
0
 62
256
370
-1
 48
1.0
  6
BYLAYER
 10
90.8450127652676827
 20
-9.8948340261749514
 30
0.0
 11
91.2574127652676736
 21
-10.724914026174952
 31
0.0
  0
LINE
  5
17A
100
AcDbEntity
100
AcDbLine
  8
0
 62
256
370
-1
 48
1.0
  6
BYLAYER
 10
91.2574127652676736
 20
-10.724914026174952
 30
0.0
 11
91.3210127652676817
 21
-10.8160140261749529
 31
0.0
  0
LINE
  5
17B
100
AcDbEntity
100
AcDbLine
  8
0
 62
256
370
-1
 48
1.0
  6
BYLAYER
 10
91.3210127652676817
 20
-10.8160140261749529
 30
0.0
 11
91.4074127652676793
 21
-10.8854140261749528
 31
0.0
  0
LINE
  5
17C
100
AcDbEntity
100
AcDbLine
  8
0
 62
256
370
-1
 48
1.0
  6
BYLAYER
 10
91.4074127652676793
 20
-10.8854140261749528
 30
0.0
 11
91.5108127652676728
 21
-10.9296140261749528
 31
0.0
  0
LINE
  5
17D
100
AcDbEntity
100
AcDbLine
  8
0
 62
256
370
-1
 48
1.0
  6
BYLAYER
 10
91.5108127652676728
 20
-10.9296140261749528
 30
0.0
 11
91.5756127652676781
 21
-10.9383140261749521
 31
0.0
  0
LINE
  5
17E
100
AcDbEntity
100
AcDbLine
  8
0
 62
256
370
-1
 48
1.0
  6
BYLAYER
 10
91.5756127652676781
 20
-10.9383140261749521
 30
0.0
 11
92.4622127652676795
 21
-10.7877140261749513
 31
0.0
  0
CIRCLE
  5
17F
100
AcDbEntity
100
AcDbCircle
  8
0
 62
256
370
-1
 48
1.0
  6
BYLAYER
 10
60.0
 20
0.0
 30
0.0
 40
11.0651087500944598
  0
ARC
  5
180
100
AcDbEntity
  8
0
 62
6
420
16711935
370
-1
 48
1.0
  6
BYLAYER
100
AcDbCircle
 10
20.0
 20
0.0
 30
0.0
 40
2.4154790400000024
100
AcDbArc
 50
126.8698976458433236
 51
53.1301023541566622
  0
ARC
  5
181
100
AcDbEntity
  8
0
 62
6
420
16711935
370
-1
 48
1.0
  6
BYLAYER
100
AcDbCircle
 10
60.0
 20
0.0
 30
0.0
 40
2.4154790400000024
100
AcDbArc
 50
126.8698976458433236
 51
53.1301023541566622
  0
ARC
  5
182
100
AcDbEntity
  8
0
 62
6
420
16711935
370
-1
 48
1.0
  6
BYLAYER
100
AcDbCircle
 10
90.0
 20
0.0
 30
0.0
 40
2.4154790400000024
100
AcDbArc
 50
126.8698976458433236
 51
53.1301023541566622
  0
LINE
  5
183
100
AcDbEntity
100
AcDbLine
  8
0
 62
6
420
16711935
370
-1
 48
1.0
  6
BYLAYER
 10
21.449287424000218
 20
1.9323832319997827
 30
0.0
 11
18.550712575999782
 21
1.9323832319997827
 31
0.0
  0
LINE
  5
184
100
AcDbEntity
100
AcDbLine
  8
0
 62
6
420
16711935
370
-1
 48
1.0
  6
BYLAYER
 10
61.449287424000218
 20
1.9323832319997827
 30
0.0
 11
58.550712575999782
 21
1.9323832319997827
 31
0.0
  0
LINE
  5
185
100
AcDbEntity
100
AcDbLine
  8
0
 62
6
420
16711935
370
-1
 48
1.0
  6
BYLAYER
 10
91.449287424000218
 20
1.9323832319997827
 30
0.0
 11
88.550712575999782
 21
1.9323832319997827
 31
0.0
  0
CIRCLE
  5
186
100
AcDbEntity
100
AcDbCircle
  8
0
 62
256
370
-1
 48
1.0
  6
BYLAYER
 10
20.0
 20
0.0
 30
0.0
 40
14.142135623730951
  0
ENDSEC
  0
SECTION
  2
OBJECTS
  0
DICTIONARY
  5
C
100
AcDbDictionary
280
0
281
1
  3
ACAD_GROUP
350
D
  3
ACAD_LAYOUT
350
1A
  3
ACAD_MLINESTYLE
350
17
  3
ACAD_PLOTSETTINGS
350
19
  3
ACAD_PLOTSTYLENAME
350
E
  3
AcDbVariableDictionary
350
187
  3
QCAD_OBJECTS
350
188
  0
DICTIONARY
  5
D
100
AcDbDictionary
280
0
281
1
  0
ACDBDICTIONARYWDFLT
  5
E
100
AcDbDictionary
281
1
  3
Normal
350
F
100
AcDbDictionaryWithDefault
340
F
  0
ACDBPLACEHOLDER
  5
F
  0
DICTIONARY
  5
17
100
AcDbDictionary
280
0
281
1
  3
Standard
350
18
  0
MLINESTYLE
  5
18
100
AcDbMlineStyle
  2
STANDARD
 70
0
  3

 62
256
 51
90.0
 52
90.0
 71
2
 49
0.5
 62
256
  6
BYLAYER
 49
-0.5
 62
256
  6
BYLAYER
  0
DICTIONARY
  5
19
100
AcDbDictionary
280
0
281
1
  0
DICTIONARY
  5
1A
100
AcDbDictionary
281
1
  3
Layout1
350
1E
  3
Layout2
350
26
  3
Model
350
22
  0
LAYOUT
  5
1E
100
AcDbPlotSettings
  1

  2
none_device
  4

  6

 40
0.0
 41
0.0
 42
0.0
 43
0.0
 44
0.0
 45
0.0
 46
0.0
 47
0.0
 48
0.0
 49
0.0
140
0.0
141
0.0
142
1.0
143
1.0
 70
688
 72
0
 73
0
 74
5
  7

 75
16
147
1.0
148
0.0
149
0.0
100
AcDbLayout
  1
Layout1
 70
1
 71
1
 10
0.0
 20
0.0
 11
420.0
 21
297.0
 12
0.0
 22
0.0
 32
0.0
 14
100000000000000000000.0
 24
100000000000000000000.0
 34
100000000000000000000.0
 15
-100000000000000000000.0
 25
-100000000000000000000.0
 35
-100000000000000000000.0
146
0.0
 13
0.0
 23
0.0
 33
0.0
 16
1.0
 26
0.0
 36
0.0
 17
0.0
 27
1.0
 37
0.0
 76
0
330
1B
  0
LAYOUT
  5
22
100
AcDbPlotSettings
  1

  2
none_device
  4

  6

 40
0.0
 41
0.0
 42
0.0
 43
0.0
 44
0.0
 45
0.0
 46
0.0
 47
0.0
 48
0.0
 49
0.0
140
0.0
141
0.0
142
1.0
143
1.0
 70
1712
 72
0
 73
0
 74
0
  7

 75
0
147
1.0
148
0.0
149
0.0
100
AcDbLayout
  1
Model
 70
1
 71
0
 10
0.0
 20
0.0
 11
12.0
 21
9.0
 12
0.0
 22
0.0
 32
0.0
 14
0.0
 24
0.0
 34
0.0
 15
0.0
 25
0.0
 35
0.0
146
0.0
 13
0.0
 23
0.0
 33
0.0
 16
1.0
 26
0.0
 36
0.0
 17
0.0
 27
1.0
 37
0.0
 76
0
330
1F
  0
LAYOUT
  5
26
100
AcDbPlotSettings
  1

  2
none_device
  4

  6

 40
0.0
 41
0.0
 42
0.0
 43
0.0
 44
0.0
 45
0.0
 46
0.0
 47
0.0
 48
0.0
 49
0.0
140
0.0
141
0.0
142
1.0
143
1.0
 70
688
 72
0
 73
0
 74
5
  7

 75
16
147
1.0
148
0.0
149
0.0
100
AcDbLayout
  1
Layout2
 70
1
 71
2
 10
0.0
 20
0.0
 11
12.0
 21
9.0
 12
0.0
 22
0.0
 32
0.0
 14
0.0
 24
0.0
 34
0.0
 15
0.0
 25
0.0
 35
0.0
146
0.0
 13
0.0
 23
0.0
 33
0.0
 16
1.0
 26
0.0
 36
0.0
 17
0.0
 27
1.0
 37
0.0
 76
0
330
23
  0
DICTIONARY
  5
187
100
AcDbDictionary
281
1
  3
DIMASSOC
350
18A
  3
HIDETEXT
350
189
  0
DICTIONARYVAR
  5
189
100
DictionaryVariables
280
0
  1
2
  0
DICTIONARYVAR
  5
18A
100
DictionaryVariables
280
0
  1
1
  0
DICTIONARY
  5
188
100
AcDbDictionary
281
1
  3
ColorSettings/BackgroundColor
350
18B
  3
ColorSettings/ColorMode
350
18C
  3
Grid/DisplayGrid00
350
18D
  3
Grid/DisplayGrid01
350
18E
  3
Grid/DisplayGrid02
350
18F
  3
Grid/DisplayGrid03
350
190
  3
Grid/GridSpacingX00
350
191
  3
Grid/GridSpacingX01
350
192
  3
Grid/GridSpacingX02
350
193
  3
Grid/GridSpacingX03
350
194
  3
Grid/GridSpacingY00
350
195
  3
Grid/GridSpacingY01
350
196
  3
Grid/GridSpacingY02
350
197
  3
Grid/GridSpacingY03
350
198
  3
Grid/IsometricGrid00
350
199
  3
Grid/IsometricGrid01
350
19A
  3
Grid/IsometricGrid02
350
19B
  3
Grid/IsometricGrid03
350
19C
  3
Grid/IsometricProjection00
350
19D
  3
Grid/IsometricProjection01
350
19E
  3
Grid/IsometricProjection02
350
19F
  3
Grid/IsometricProjection03
350
1A0
  3
Grid/MetaGridSpacingX00
350
1A1
  3
Grid/MetaGridSpacingX01
350
1A2
  3
Grid/MetaGridSpacingX02
350
1A3
  3
Grid/MetaGridSpacingX03
350
1A4
  3
Grid/MetaGridSpacingY00
350
1A5
  3
Grid/MetaGridSpacingY01
350
1A6
  3
Grid/MetaGridSpacingY02
350
1A7
  3
Grid/MetaGridSpacingY03
350
1A8
  3
MultiPageSettings/Columns
350
1A9
  3
MultiPageSettings/GlueMarginsBottom
350
1AA
  3
MultiPageSettings/GlueMarginsLeft
350
1AB
  3
MultiPageSettings/GlueMarginsRight
350
1AC
  3
MultiPageSettings/GlueMarginsTop
350
1AD
  3
MultiPageSettings/PrintCropMarks
350
1AE
  3
MultiPageSettings/Rows
350
1AF
  3
PageSettings/OffsetX
350
1B0
  3
PageSettings/OffsetY
350
1B1
  3
PageSettings/PageOrientation
350
1B2
  3
PageSettings/PaperHeight
350
1B3
  3
PageSettings/PaperWidth
350
1B4
  3
PageSettings/Scale
350
1B5
  3
PageSettings/ShowPaperBorders
350
1B6
  3
QCADVersion
350
1B7
  3
UnitSettings/PaperUnit
350
1B8
  0
XRECORD
  5
18B
330
188
100
AcDbXrecord
280
1
1000
White
  0
XRECORD
  5
18C
330
188
100
AcDbXrecord
280
1
1000
FullColor
  0
XRECORD
  5
18D
330
188
100
AcDbXrecord
280
1
290
1
  0
XRECORD
  5
18E
330
188
100
AcDbXrecord
280
1
290
1
  0
XRECORD
  5
18F
330
188
100
AcDbXrecord
280
1
290
1
  0
XRECORD
  5
190
330
188
100
AcDbXrecord
280
1
290
1
  0
XRECORD
  5
191
330
188
100
AcDbXrecord
280
1
1000
auto
  0
XRECORD
  5
192
330
188
100
AcDbXrecord
280
1
1000
auto
  0
XRECORD
  5
193
330
188
100
AcDbXrecord
280
1
1000
auto
  0
XRECORD
  5
194
330
188
100
AcDbXrecord
280
1
1000
auto
  0
XRECORD
  5
195
330
188
100
AcDbXrecord
280
1
1000
auto
  0
XRECORD
  5
196
330
188
100
AcDbXrecord
280
1
1000
auto
  0
XRECORD
  5
197
330
188
100
AcDbXrecord
280
1
1000
auto
  0
XRECORD
  5
198
330
188
100
AcDbXrecord
280
1
1000
auto
  0
XRECORD
  5
199
330
188
100
AcDbXrecord
280
1
290
0
  0
XRECORD
  5
19A
330
188
100
AcDbXrecord
280
1
290
0
  0
XRECORD
  5
19B
330
188
100
AcDbXrecord
280
1
290
0
  0
XRECORD
  5
19C
330
188
100
AcDbXrecord
280
1
290
0
  0
XRECORD
  5
19D
330
188
100
AcDbXrecord
280
1
 90
0
  0
XRECORD
  5
19E
330
188
100
AcDbXrecord
280
1
 90
0
  0
XRECORD
  5
19F
330
188
100
AcDbXrecord
280
1
 90
0
  0
XRECORD
  5
1A0
330
188
100
AcDbXrecord
280
1
 90
0
  0
XRECORD
  5
1A1
330
188
100
AcDbXrecord
280
1
1000
auto
  0
XRECORD
  5
1A2
330
188
100
AcDbXrecord
280
1
1000
auto
  0
XRECORD
  5
1A3
330
188
100
AcDbXrecord
280
1
1000
auto
  0
XRECORD
  5
1A4
330
188
100
AcDbXrecord
280
1
1000
auto
  0
XRECORD
  5
1A5
330
188
100
AcDbXrecord
280
1
1000
auto
  0
XRECORD
  5
1A6
330
188
100
AcDbXrecord
280
1
1000
auto
  0
XRECORD
  5
1A7
330
188
100
AcDbXrecord
280
1
1000
auto
  0
XRECORD
  5
1A8
330
188
100
AcDbXrecord
280
1
1000
auto
  0
XRECORD
  5
1A9
330
188
100
AcDbXrecord
280
1
 90
1
  0
XRECORD
  5
1AA
330
188
100
AcDbXrecord
280
1
 40
0.5
  0
XRECORD
  5
1AB
330
188
100
AcDbXrecord
280
1
 40
0.5
  0
XRECORD
  5
1AC
330
188
100
AcDbXrecord
280
1
 40
0.5
  0
XRECORD
  5
1AD
330
188
100
AcDbXrecord
280
1
 40
0.5
  0
XRECORD
  5
1AE
330
188
100
AcDbXrecord
280
1
290
0
  0
XRECORD
  5
1AF
330
188
100
AcDbXrecord
280
1
 90
1
  0
XRECORD
  5
1B0
330
188
100
AcDbXrecord
280
1
 40
0.0
  0
XRECORD
  5
1B1
330
188
100
AcDbXrecord
280
1
 40
0.0
  0
XRECORD
  5
1B2
330
188
100
AcDbXrecord
280
1
1000
Portrait
  0
XRECORD
  5
1B3
330
188
100
AcDbXrecord
280
1
 40
297.0
  0
XRECORD
  5
1B4
330
188
100
AcDbXrecord
280
1
 40
210.0
  0
XRECORD
  5
1B5
330
188
100
AcDbXrecord
280
1
1000
1:1
  0
XRECORD
  5
1B6
330
188
100
AcDbXrecord
280
1
290
1
  0
XRECORD
  5
1B7
330
188
100
AcDbXrecord
280
1
1000
3.11.3
  0
XRECORD
  5
1B8
330
188
100
AcDbXrecord
280
1
 90
1
  0
ENDSEC
  0
EOF
