999
dxflib 3.7.5.0
  0
SECTION
  2
HEADER
  9
$ACADVER
  1
AC1015
  9
$HANDSEED
  5
FFFF
  9
$DIMADEC
 70
0
  9
$DIMASZ
 40
0.125
  9
$DIMAUNIT
 70
0
  9
$DIMAZIN
 70
2
  9
$DIMDEC
 70
4
  9
$DIMEXE
 40
0.0625
  9
$DIMEXO
 40
0.03125
  9
$DIMGAP
 40
0.03125
  9
$DIMLUNIT
 70
3
  9
$DIMSCALE
 40
1.0
  9
$DIMTSZ
 40
0.0
  9
$DIMTXT
 40
0.125
  9
$DIMZIN
 70
8
  9
$DWGCODEPAGE
  3
ANSI_1252
  9
$INSUNITS
 70
1
  9
$LTSCALE
 40
1.0
  9
$MEASUREMENT
 70
0
  9
$PDMODE
 70
0
  9
$PDSIZE
 40
0
  0
ENDSEC
  0
SECTION
  2
TABLES
  0
TABLE
  2
VPORT
  5
8
100
AcDbSymbolTable
 70
1
  0
VPORT
  5
30
100
AcDbSymbolTableRecord
100
AcDbViewportTableRecord
  2
*Active
 70
0
 10
0.0
 20
0.0
 11
1.0
 21
1.0
 12
286.3055555555554861
 22
148.5
 13
0.0
 23
0.0
 14
10.0
 24
10.0
 15
10.0
 25
10.0
 16
0.0
 26
0.0
 36
1.0
 17
0.0
 27
0.0
 37
0.0
 40
297.0
 41
1.92798353909465
 42
50.0
 43
0.0
 44
0.0
 50
0.0
 51
0.0
 71
0
 72
100
 73
1
 74
3
 75
1
 76
1
 77
0
 78
0
281
0
 65
1
110
0.0
120
0.0
130
0.0
111
1.0
121
0.0
131
0.0
112
0.0
122
1.0
132
0.0
 79
0
146
0.0
  0
ENDTAB
  0
TABLE
  2
LTYPE
  5
5
100
AcDbSymbolTable
 70
50
  0
LTYPE
  5
16
100
AcDbSymbolTableRecord
100
AcDbLinetypeTableRecord
  2
Continuous
 70
0
  3
Solid line
 72
65
 73
0
 40
0.0
  0
LTYPE
  5
31
100
AcDbSymbolTableRecord
100
AcDbLinetypeTableRecord
  2
ACAD_ISO15W100
 70
0
  3
ISO double-dash triple-dot __ __ . . . __ __ . .
 72
65
 73
10
 40
39.0
 49
12.0
 74
0
 49
-3.0
 74
0
 49
12.0
 74
0
 49
-3.0
 74
0
 49
0.0
 74
0
 49
-3.0
 74
0
 49
0.0
 74
0
 49
-3.0
 74
0
 49
0.0
 74
0
 49
-3.0
 74
0
  0
LTYPE
  5
32
100
AcDbSymbolTableRecord
100
AcDbLinetypeTableRecord
  2
HOT_WATER_SUPPLY
 70
0
  3
Hot water supply ---- HW ---- HW ---- HW ----
 72
65
 73
3
 40
22.8599999999999994
 49
12.6999999999999993
 74
0
 49
-5.0800000000000001
 74
0
 49
-5.0800000000000001
 74
0
  0
LTYPE
  5
33
100
AcDbSymbolTableRecord
100
AcDbLinetypeTableRecord
  2
DIVIDE
 70
0
  3
Divide ____ . . ____ . . ____ . . ____ . . ____
 72
65
 73
6
 40
31.75
 49
12.6999999999999993
 74
0
 49
-6.3499999999999996
 74
0
 49
0.0
 74
0
 49
-6.3499999999999996
 74
0
 49
0.0
 74
0
 49
-6.3499999999999996
 74
0
  0
LTYPE
  5
34
100
AcDbSymbolTableRecord
100
AcDbLinetypeTableRecord
  2
ACAD_ISO10W100
 70
0
  3
ISO dash dot __ . __ . __ . __ . __ . __ . __ . 
 72
65
 73
4
 40
18.0
 49
12.0
 74
0
 49
-3.0
 74
0
 49
0.0
 74
0
 49
-3.0
 74
0
  0
LTYPE
  5
35
100
AcDbSymbolTableRecord
100
AcDbLinetypeTableRecord
  2
GAS_LINE
 70
0
  3
Gas line ----GAS----GAS----GAS----GAS----GAS----GAS--
 72
65
 73
3
 40
24.1300000000000026
 49
12.6999999999999993
 74
0
 49
-5.0800000000000001
 74
0
 49
-6.3499999999999996
 74
0
  0
LTYPE
  5
36
100
AcDbSymbolTableRecord
100
AcDbLinetypeTableRecord
  2
ACAD_ISO04W100
 70
0
  3
ISO long-dash dot ____ . ____ . ____ . ____ . _
 72
65
 73
4
 40
30.0
 49
24.0
 74
0
 49
-3.0
 74
0
 49
0.0
 74
0
 49
-3.0
 74
0
  0
LTYPE
  5
37
100
AcDbSymbolTableRecord
100
AcDbLinetypeTableRecord
  2
CENTER2
 70
0
  3
Center (.5x) ___ _ ___ _ ___ _ ___ _ ___ _ ___
 72
65
 73
4
 40
28.5750000000000028
 49
19.0500000000000007
 74
0
 49
-3.1749999999999998
 74
0
 49
3.1749999999999998
 74
0
 49
-3.1749999999999998
 74
0
  0
LTYPE
  5
38
100
AcDbSymbolTableRecord
100
AcDbLinetypeTableRecord
  2
ACAD_ISO11W100
 70
0
  3
ISO double-dash dot __ __ . __ __ . __ __ . __ _
 72
65
 73
6
 40
33.0
 49
12.0
 74
0
 49
-3.0
 74
0
 49
12.0
 74
0
 49
-3.0
 74
0
 49
0.0
 74
0
 49
-3.0
 74
0
  0
LTYPE
  5
39
100
AcDbSymbolTableRecord
100
AcDbLinetypeTableRecord
  2
HIDDEN2
 70
0
  3
Hidden (.5x) _ _ _ _ _ _ _ _ _ _ _ _ _ _ _ _ _ 
 72
65
 73
2
 40
4.7624999999999993
 49
3.1749999999999998
 74
0
 49
-1.5874999999999999
 74
0
  0
LTYPE
  5
3A
100
AcDbSymbolTableRecord
100
AcDbLinetypeTableRecord
  2
BORDERX2
 70
0
  3
Border (2x) ____  ____  .  ____  ____  .  ___
 72
65
 73
6
 40
88.8999999999999915
 49
25.3999999999999986
 74
0
 49
-12.6999999999999993
 74
0
 49
25.3999999999999986
 74
0
 49
-12.6999999999999993
 74
0
 49
0.0
 74
0
 49
-12.6999999999999993
 74
0
  0
LTYPE
  5
3B
100
AcDbSymbolTableRecord
100
AcDbLinetypeTableRecord
  2
ACAD_ISO05W100
 70
0
  3
ISO long-dash double-dot ____ .. ____ .. ____ . 
 72
65
 73
6
 40
33.0
 49
24.0
 74
0
 49
-3.0
 74
0
 49
0.0
 74
0
 49
-3.0
 74
0
 49
0.0
 74
0
 49
-3.0
 74
0
  0
LTYPE
  5
3C
100
AcDbSymbolTableRecord
100
AcDbLinetypeTableRecord
  2
DASHDOTX2
 70
0
  3
Dash dot (2x) ____  .  ____  .  ____  .  ___
 72
65
 73
4
 40
50.7999999999999972
 49
25.3999999999999986
 74
0
 49
-12.6999999999999993
 74
0
 49
0.0
 74
0
 49
-12.6999999999999993
 74
0
  0
LTYPE
  5
3D
100
AcDbSymbolTableRecord
100
AcDbLinetypeTableRecord
  2
HIDDENX2
 70
0
  3
Hidden (2x) ____ ____ ____ ____ ____ ____ ____ 
 72
65
 73
2
 40
19.0499999999999972
 49
12.6999999999999993
 74
0
 49
-6.3499999999999996
 74
0
  0
LTYPE
  5
3E
100
AcDbSymbolTableRecord
100
AcDbLinetypeTableRecord
  2
CENTERX2
 70
0
  3
Center (2x) ________  __  ________  __  _____
 72
65
 73
4
 40
101.6000000000000085
 49
63.5
 74
0
 49
-12.6999999999999993
 74
0
 49
12.6999999999999993
 74
0
 49
-12.6999999999999993
 74
0
  0
LTYPE
  5
3F
100
AcDbSymbolTableRecord
100
AcDbLinetypeTableRecord
  2
BORDER2
 70
0
  3
Border (.5x) __.__.__.__.__.__.__.__.__.__.__.
 72
65
 73
6
 40
22.2249999999999979
 49
6.3499999999999996
 74
0
 49
-3.1749999999999998
 74
0
 49
6.3499999999999996
 74
0
 49
-3.1749999999999998
 74
0
 49
0.0
 74
0
 49
-3.1749999999999998
 74
0
  0
LTYPE
  5
40
100
AcDbSymbolTableRecord
100
AcDbLinetypeTableRecord
  2
DASHDOT2
 70
0
  3
Dash dot (.5x) _._._._._._._._._._._._._._._.
 72
65
 73
4
 40
12.6999999999999993
 49
6.3499999999999996
 74
0
 49
-3.1749999999999998
 74
0
 49
0.0
 74
0
 49
-3.1749999999999998
 74
0
  0
LTYPE
  5
41
100
AcDbSymbolTableRecord
100
AcDbLinetypeTableRecord
  2
ACAD_ISO12W100
 70
0
  3
ISO dash double-dot __ . . __ . . __ . . __ . . 
 72
65
 73
6
 40
21.0
 49
12.0
 74
0
 49
-3.0
 74
0
 49
0.0
 74
0
 49
-3.0
 74
0
 49
0.0
 74
0
 49
-3.0
 74
0
  0
LTYPE
  5
42
100
AcDbSymbolTableRecord
100
AcDbLinetypeTableRecord
  2
ACAD_ISO07W100
 70
0
  3
ISO dot . . . . . . . . . . . . . . . . . . . . 
 72
65
 73
2
 40
3.0
 49
0.0
 74
0
 49
-3.0
 74
0
  0
LTYPE
  5
43
100
AcDbSymbolTableRecord
100
AcDbLinetypeTableRecord
  2
ACAD_ISO06W100
 70
0
  3
ISO long-dash triple-dot ____ ... ____ ... ____
 72
65
 73
8
 40
36.0
 49
24.0
 74
0
 49
-3.0
 74
0
 49
0.0
 74
0
 49
-3.0
 74
0
 49
0.0
 74
0
 49
-3.0
 74
0
 49
0.0
 74
0
 49
-3.0
 74
0
  0
LTYPE
  5
44
100
AcDbSymbolTableRecord
100
AcDbLinetypeTableRecord
  2
CENTER
 70
0
  3
Center ____ _ ____ _ ____ _ ____ _ ____ _ ____
 72
65
 73
4
 40
50.8000000000000043
 49
31.75
 74
0
 49
-6.3499999999999996
 74
0
 49
6.3499999999999996
 74
0
 49
-6.3499999999999996
 74
0
  0
LTYPE
  5
45
100
AcDbSymbolTableRecord
100
AcDbLinetypeTableRecord
  2
HIDDEN
 70
0
  3
Hidden __ __ __ __ __ __ __ __ __ __ __ __ __ __
 72
65
 73
2
 40
9.5249999999999986
 49
6.3499999999999996
 74
0
 49
-3.1749999999999998
 74
0
  0
LTYPE
  5
46
100
AcDbSymbolTableRecord
100
AcDbLinetypeTableRecord
  2
DOTX2
 70
0
  3
Dot (2x) .  .  .  .  .  .  .  .  .  .  .  .  .  .
 72
65
 73
2
 40
12.6999999999999993
 49
0.0
 74
0
 49
-12.6999999999999993
 74
0
  0
LTYPE
  5
47
100
AcDbSymbolTableRecord
100
AcDbLinetypeTableRecord
  2
PHANTOM
 70
0
  3
Phantom ______  __  __  ______  __  __  ______ 
 72
65
 73
6
 40
63.5000000000000071
 49
31.75
 74
0
 49
-6.3499999999999996
 74
0
 49
6.3499999999999996
 74
0
 49
-6.3499999999999996
 74
0
 49
6.3499999999999996
 74
0
 49
-6.3499999999999996
 74
0
  0
LTYPE
  5
48
100
AcDbSymbolTableRecord
100
AcDbLinetypeTableRecord
  2
ACAD_ISO08W100
 70
0
  3
ISO long-dash short-dash ____ __ ____ __ ____ _
 72
65
 73
4
 40
36.0
 49
24.0
 74
0
 49
-3.0
 74
0
 49
6.0
 74
0
 49
-3.0
 74
0
  0
LTYPE
  5
49
100
AcDbSymbolTableRecord
100
AcDbLinetypeTableRecord
  2
DASHEDX2
 70
0
  3
Dashed (2x) ____  ____  ____  ____  ____  ___
 72
65
 73
2
 40
38.0999999999999943
 49
25.3999999999999986
 74
0
 49
-12.6999999999999993
 74
0
  0
LTYPE
  5
4A
100
AcDbSymbolTableRecord
100
AcDbLinetypeTableRecord
  2
DRAINAGE
 70
0
  3
Drainage ---->---->---->----
 72
65
 73
2
 40
10.1600000000000001
 49
5.0800000000000001
 74
0
 49
5.0800000000000001
 74
0
  0
LTYPE
  5
4B
100
AcDbSymbolTableRecord
100
AcDbLinetypeTableRecord
  2
ACAD_ISO02W100
 70
0
  3
ISO dash __ __ __ __ __ __ __ __ __ __ __ __ __
 72
65
 73
2
 40
15.0
 49
12.0
 74
0
 49
-3.0
 74
0
  0
LTYPE
  5
4C
100
AcDbSymbolTableRecord
100
AcDbLinetypeTableRecord
  2
PHANTOM2
 70
0
  3
Phantom (.5x) ___ _ _ ___ _ _ ___ _ _ ___ _ _
 72
65
 73
6
 40
31.7500000000000036
 49
15.875
 74
0
 49
-3.1749999999999998
 74
0
 49
3.1749999999999998
 74
0
 49
-3.1749999999999998
 74
0
 49
3.1749999999999998
 74
0
 49
-3.1749999999999998
 74
0
  0
LTYPE
  5
4D
100
AcDbSymbolTableRecord
100
AcDbLinetypeTableRecord
  2
DASHED2
 70
0
  3
Dashed (.5x) _ _ _ _ _ _ _ _ _ _ _ _ _ _ _ _ _ 
 72
65
 73
2
 40
9.5249999999999986
 49
6.3499999999999996
 74
0
 49
-3.1749999999999998
 74
0
  0
LTYPE
  5
4E
100
AcDbSymbolTableRecord
100
AcDbLinetypeTableRecord
  2
ACAD_ISO09W100
 70
0
  3
ISO long-dash double-short-dash ____ __ __ ____
 72
65
 73
6
 40
45.0
 49
24.0
 74
0
 49
-3.0
 74
0
 49
6.0
 74
0
 49
-3.0
 74
0
 49
6.0
 74
0
 49
-3.0
 74
0
  0
LTYPE
  5
4F
100
AcDbSymbolTableRecord
100
AcDbLinetypeTableRecord
  2
ACAD_ISO13W100
 70
0
  3
ISO double-dash double-dot __ __ . . __ __ . . _
 72
65
 73
8
 40
36.0
 49
12.0
 74
0
 49
-3.0
 74
0
 49
12.0
 74
0
 49
-3.0
 74
0
 49
0.0
 74
0
 49
-3.0
 74
0
 49
0.0
 74
0
 49
-3.0
 74
0
  0
LTYPE
  5
50
100
AcDbSymbolTableRecord
100
AcDbLinetypeTableRecord
  2
TRACKS
 70
0
  3
Tracks -|-|-|-|-|-|-|-|-|-|-|-|-|-|-|-|-|-|-|-|-|-|-|-|-
 72
65
 73
2
 40
7.6200000000000001
 49
3.8100000000000001
 74
0
 49
3.8100000000000001
 74
0
  0
LTYPE
  5
51
100
AcDbSymbolTableRecord
100
AcDbLinetypeTableRecord
  2
DRAINAGE2
 70
0
  3
Drainage reversed----<----<----<----
 72
65
 73
2
 40
10.1600000000000001
 49
5.0800000000000001
 74
0
 49
5.0800000000000001
 74
0
  0
LTYPE
  5
52
100
AcDbSymbolTableRecord
100
AcDbLinetypeTableRecord
  2
DOT2
 70
0
  3
Dot (.5x) ........................................
 72
65
 73
2
 40
3.1749999999999998
 49
0.0
 74
0
 49
-3.1749999999999998
 74
0
  0
LTYPE
  5
53
100
AcDbSymbolTableRecord
100
AcDbLinetypeTableRecord
  2
ZIGZAG
 70
0
  3
Zig zag /\/\/\/\/\/\/\/\/\/\/\/\/\/\/\/\/\/\/\/\/\/\/\/
 72
65
 73
4
 40
20.32254
 49
0.00254
 74
0
 49
-5.0800000000000001
 74
0
 49
-10.1600000000000001
 74
0
 49
-5.0800000000000001
 74
0
  0
LTYPE
  5
54
100
AcDbSymbolTableRecord
100
AcDbLinetypeTableRecord
  2
DASHED
 70
0
  3
Dashed __ __ __ __ __ __ __ __ __ __ __ __ __ _
 72
65
 73
2
 40
19.0499999999999972
 49
12.6999999999999993
 74
0
 49
-6.3499999999999996
 74
0
  0
LTYPE
  5
55
100
AcDbSymbolTableRecord
100
AcDbLinetypeTableRecord
  2
ACAD_ISO14W100
 70
0
  3
ISO dash triple-dot __ . . . __ . . . __ . . . _
 72
65
 73
8
 40
24.0
 49
12.0
 74
0
 49
-3.0
 74
0
 49
0.0
 74
0
 49
-3.0
 74
0
 49
0.0
 74
0
 49
-3.0
 74
0
 49
0.0
 74
0
 49
-3.0
 74
0
  0
LTYPE
  5
15
100
AcDbSymbolTableRecord
100
AcDbLinetypeTableRecord
  2
BYLAYER
 70
0
  3

 72
65
 73
0
 40
0.0
  0
LTYPE
  5
56
100
AcDbSymbolTableRecord
100
AcDbLinetypeTableRecord
  2
PHANTOMX2
 70
0
  3
Phantom (2x) ____________    ____    ____   _
 72
65
 73
6
 40
127.0000000000000142
 49
63.5
 74
0
 49
-12.6999999999999993
 74
0
 49
12.6999999999999993
 74
0
 49
-12.6999999999999993
 74
0
 49
12.6999999999999993
 74
0
 49
-12.6999999999999993
 74
0
  0
LTYPE
  5
14
100
AcDbSymbolTableRecord
100
AcDbLinetypeTableRecord
  2
BYBLOCK
 70
0
  3

 72
65
 73
0
 40
0.0
  0
LTYPE
  5
57
100
AcDbSymbolTableRecord
100
AcDbLinetypeTableRecord
  2
DIVIDEX2
 70
0
  3
Divide (2x) ________  .  .  ________  .  .  _
 72
65
 73
6
 40
63.5
 49
25.3999999999999986
 74
0
 49
-12.6999999999999993
 74
0
 49
0.0
 74
0
 49
-12.6999999999999993
 74
0
 49
0.0
 74
0
 49
-12.6999999999999993
 74
0
  0
LTYPE
  5
58
100
AcDbSymbolTableRecord
100
AcDbLinetypeTableRecord
  2
BORDER
 70
0
  3
Border __ __ . __ __ . __ __ . __ __ . __ __ .
 72
65
 73
6
 40
44.4499999999999957
 49
12.6999999999999993
 74
0
 49
-6.3499999999999996
 74
0
 49
12.6999999999999993
 74
0
 49
-6.3499999999999996
 74
0
 49
0.0
 74
0
 49
-6.3499999999999996
 74
0
  0
LTYPE
  5
59
100
AcDbSymbolTableRecord
100
AcDbLinetypeTableRecord
  2
DIVIDE2
 70
0
  3
Divide (.5x) __..__..__..__..__..__..__..__.._
 72
65
 73
6
 40
15.875
 49
6.3499999999999996
 74
0
 49
-3.1749999999999998
 74
0
 49
0.0
 74
0
 49
-3.1749999999999998
 74
0
 49
0.0
 74
0
 49
-3.1749999999999998
 74
0
  0
LTYPE
  5
5A
100
AcDbSymbolTableRecord
100
AcDbLinetypeTableRecord
  2
DOT
 70
0
  3
Dot . . . . . . . . . . . . . . . . . . . . . . . .
 72
65
 73
2
 40
6.3499999999999996
 49
0.0
 74
0
 49
-6.3499999999999996
 74
0
  0
LTYPE
  5
5B
100
AcDbSymbolTableRecord
100
AcDbLinetypeTableRecord
  2
DASHDOT
 70
0
  3
Dash dot __ . __ . __ . __ . __ . __ . __ . __
 72
65
 73
4
 40
25.3999999999999986
 49
12.6999999999999993
 74
0
 49
-6.3499999999999996
 74
0
 49
0.0
 74
0
 49
-6.3499999999999996
 74
0
  0
LTYPE
  5
5C
100
AcDbSymbolTableRecord
100
AcDbLinetypeTableRecord
  2
FENCELINE1
 70
0
  3
Fenceline circle ----0-----0----0-----0----0-----0--
 72
65
 73
4
 40
36.8299999999999983
 49
6.3499999999999996
 74
0
 49
-2.54
 74
0
 49
-2.54
 74
0
 49
25.3999999999999986
 74
0
  0
LTYPE
  5
5D
100
AcDbSymbolTableRecord
100
AcDbLinetypeTableRecord
  2
BATTING
 70
0
  3
Batting SSSSSSSSSSSSSSSSSSSSSSSSSSSSSSSSSSSSSSSSSSSSSSS
 72
65
 73
4
 40
10.1625399999999999
 49
0.00254
 74
0
 49
-2.54
 74
0
 49
-5.0800000000000001
 74
0
 49
-2.54
 74
0
  0
LTYPE
  5
5E
100
AcDbSymbolTableRecord
100
AcDbLinetypeTableRecord
  2
ACAD_ISO03W100
 70
0
  3
ISO dash space __    __    __    __    __    __
 72
65
 73
2
 40
30.0
 49
12.0
 74
0
 49
-18.0
 74
0
  0
LTYPE
  5
5F
100
AcDbSymbolTableRecord
100
AcDbLinetypeTableRecord
  2
FENCELINE2
 70
0
  3
Fenceline square ----[]-----[]----[]-----[]----[]---
 72
65
 73
4
 40
36.8299999999999983
 49
6.3499999999999996
 74
0
 49
-2.54
 74
0
 49
-2.54
 74
0
 49
25.3999999999999986
 74
0
  0
ENDTAB
  0
TABLE
  2
LAYER
  5
2
100
AcDbSymbolTable
 70
1
  0
LAYER
  5
10
100
AcDbSymbolTableRecord
100
AcDbLayerTableRecord
  2
0
 70
0
 62
7
420
16777215
  6
Continuous
370
25
390
F
  0
ENDTAB
  0
TABLE
  2
STYLE
  5
3
100
AcDbSymbolTable
 70
1
  0
STYLE
  5
60
100
AcDbSymbolTableRecord
100
AcDbTextStyleTableRecord
  2
Standard
 70
0
 40
0.0
 41
1.0
 50
0.0
 71
0
 42
2.5
  3

  4

1001
ACAD
1000
txt
1071
0
  0
ENDTAB
  0
TABLE
  2
VIEW
  5
6
100
AcDbSymbolTable
 70
0
  0
ENDTAB
  0
TABLE
  2
UCS
  5
7
100
AcDbSymbolTable
 70
0
  0
ENDTAB
  0
TABLE
  2
APPID
  5
9
100
AcDbSymbolTable
 70
1
  0
APPID
  5
12
100
AcDbSymbolTableRecord
100
AcDbRegAppTableRecord
  2
ACAD
 70
0
  0
APPID
  5
61
100
AcDbSymbolTableRecord
100
AcDbRegAppTableRecord
  2
QCAD
 70
0
  0
ENDTAB
  0
TABLE
  2
DIMSTYLE
  5
A
100
AcDbSymbolTable
 70
1
100
AcDbDimStyleTable
 71
0
  0
DIMSTYLE
105
27
100
AcDbSymbolTableRecord
100
AcDbDimStyleTableRecord
  2
Standard
 41
0.125
 42
0.03125
 43
3.75
 44
0.0625
 70
0
 73
0
 74
0
 77
1
 78
8
140
0.125
141
2.5
143
0.03937007874016
147
0.03125
171
3
172
1
271
2
272
2
274
3
278
44
283
0
284
8
340
60
  0
ENDTAB
  0
TABLE
  2
BLOCK_RECORD
  5
1
100
AcDbSymbolTable
 70
1
  0
BLOCK_RECORD
  5
1F
100
AcDbSymbolTableRecord
100
AcDbBlockTableRecord
  2
*Model_Space
340
22
  0
BLOCK_RECORD
  5
1B
100
AcDbSymbolTableRecord
100
AcDbBlockTableRecord
  2
*Paper_Space
340
1E
  0
BLOCK_RECORD
  5
23
100
AcDbSymbolTableRecord
100
AcDbBlockTableRecord
  2
*Paper_Space0
340
26
  0
ENDTAB
  0
ENDSEC
  0
SECTION
  2
BLOCKS
  0
BLOCK
  5
20
100
AcDbEntity
  8
0
100
AcDbBlockBegin
  2
*Model_Space
 70
0
 10
0.0
 20
0.0
 30
0.0
  3
*Model_Space
  1

  0
ENDBLK
  5
21
100
AcDbEntity
  8
0
100
AcDbBlockEnd
  0
BLOCK
  5
1C
100
AcDbEntity
 67
1
  8
0
100
AcDbBlockBegin
  2
*Paper_Space
 70
0
 10
0.0
 20
0.0
 30
0.0
  3
*Paper_Space
  1

  0
ENDBLK
  5
1D
100
AcDbEntity
 67
1
  8
0
100
AcDbBlockEnd
  0
BLOCK
  5
24
100
AcDbEntity
  8
0
100
AcDbBlockBegin
  2
*Paper_Space0
 70
0
 10
0.0
 20
0.0
 30
0.0
  3
*Paper_Space0
  1

  0
ENDBLK
  5
25
100
AcDbEntity
  8
0
100
AcDbBlockEnd
  0
ENDSEC
  0
SECTION
  2
ENTITIES
  0
LINE
  5
62
100
AcDbEntity
100
AcDbLine
  8
0
 62
6
420
16711935
370
-1
 48
1.0
  6
BYLAYER
 10
92.5522384532868188
 20
6.3282499999999695
 30
0.0
 11
92.688738453286831
 21
6.3282499999999695
 31
0.0
  0
LINE
  5
63
100
AcDbEntity
100
AcDbLine
  8
0
 62
6
420
16711935
370
-1
 48
1.0
  6
BYLAYER
 10
92.5522384532867761
 20
5.628249999999988
 30
0.0
 11
92.6887384532867884
 21
5.628249999999988
 31
0.0
  0
LINE
  5
64
100
AcDbEntity
100
AcDbLine
  8
0
 62
6
420
16711935
370
-1
 48
1.0
  6
BYLAYER
 10
92.8252384532868149
 20
6.3282499999999722
 30
0.0
 11
92.9617384532868272
 21
6.3282499999999722
 31
0.0
  0
LINE
  5
65
100
AcDbEntity
100
AcDbLine
  8
0
 62
6
420
16711935
370
-1
 48
1.0
  6
BYLAYER
 10
92.8252384532867723
 20
5.6282499999999906
 30
0.0
 11
92.9617384532867845
 21
5.6282499999999906
 31
0.0
  0
LINE
  5
66
100
AcDbEntity
100
AcDbLine
  8
0
 62
6
420
16711935
370
-1
 48
1.0
  6
BYLAYER
 10
90.1634999999999849
 20
5.6282499999999906
 30
0.0
 11
90.0269999999999726
 21
5.6282499999999906
 31
0.0
  0
LINE
  5
67
100
AcDbEntity
100
AcDbLine
  8
0
 62
6
420
16711935
370
-1
 48
1.0
  6
BYLAYER
 10
90.4365000000000094
 20
6.3282499999999722
 30
0.0
 11
90.2999999999999972
 21
6.3282499999999722
 31
0.0
  0
LINE
  5
68
100
AcDbEntity
100
AcDbLine
  8
0
 62
256
370
-1
 48
1.0
  6
BYLAYER
 10
93.9150000000000347
 20
9.6499999999999915
 30
0.0
 11
93.7849999999999824
 21
9.6499999999999915
 31
0.0
  0
LINE
  5
69
100
AcDbEntity
100
AcDbLine
  8
0
 62
256
370
-1
 48
1.0
  6
BYLAYER
 10
89.2149999999999892
 20
9.6499999999999915
 30
0.0
 11
89.085000000000008
 21
9.6499999999999915
 31
0.0
  0
LINE
  5
6A
100
AcDbEntity
100
AcDbLine
  8
0
 62
6
420
16711935
370
-1
 48
1.0
  6
BYLAYER
 10
90.1634999999999707
 20
6.3282499999999731
 30
0.0
 11
90.0269999999999584
 21
6.3282499999999731
 31
0.0
  0
LINE
  5
6B
100
AcDbEntity
100
AcDbLine
  8
0
 62
6
420
16711935
370
-1
 48
1.0
  6
BYLAYER
 10
90.4365000000000805
 20
5.6282499999999915
 30
0.0
 11
90.3000000000000682
 21
5.6282499999999915
 31
0.0
  0
LINE
  5
6C
100
AcDbEntity
100
AcDbLine
  8
0
 62
256
370
-1
 48
1.0
  6
BYLAYER
 10
92.5522384532867477
 20
6.5827267143080173
 30
0.0
 11
92.68873845328676
 21
6.5827267143080173
 31
0.0
  0
LINE
  5
6D
100
AcDbEntity
100
AcDbLine
  8
0
 62
256
370
-1
 48
1.0
  6
BYLAYER
 10
90.436499999999981
 20
6.5827267143080173
 30
0.0
 11
90.2999999999999687
 21
6.5827267143080173
 31
0.0
  0
LINE
  5
6E
100
AcDbEntity
100
AcDbLine
  8
0
 62
3
420
65280
370
-1
 48
1.0
  6
BYLAYER
 10
91.9674981202694823
 20
4.7758907332666558
 30
0.0
 11
92.0178771711991459
 21
4.7468043746508188
 31
0.0
  0
LINE
  5
6F
100
AcDbEntity
100
AcDbLine
  8
0
 62
3
420
65280
370
-1
 48
1.0
  6
BYLAYER
 10
91.793597581261082
 20
4.8762922562753461
 30
0.0
 11
91.8437601086175732
 21
4.8473309076028146
 31
0.0
  0
LINE
  5
70
100
AcDbEntity
100
AcDbLine
  8
0
 62
3
420
65280
370
-1
 48
1.0
  6
BYLAYER
 10
92.0681108156893231
 20
4.8338115991569701
 30
0.0
 11
92.3587409588427164
 21
4.6660162077727874
 31
0.0
  0
LINE
  5
71
100
AcDbEntity
100
AcDbLine
  8
0
 62
3
420
65280
370
-1
 48
1.0
  6
BYLAYER
 10
90.7830715440729819
 20
5.191540951267557
 30
0.0
 11
90.7328162556613194
 21
5.162526046974917
 31
0.0
  0
LINE
  5
72
100
AcDbEntity
100
AcDbLine
  8
0
 62
3
420
65280
370
-1
 48
1.0
  6
BYLAYER
 10
90.9571164886676939
 20
5.2920258468804526
 30
0.0
 11
90.9068576909202193
 21
5.2630089164717466
 31
0.0
  0
LINE
  5
73
100
AcDbEntity
100
AcDbLine
  8
0
 62
3
420
65280
370
-1
 48
1.0
  6
BYLAYER
 10
90.7830511573461933
 20
5.075516644943634
 30
0.0
 11
90.4922972516744721
 21
4.9076497992361432
 31
0.0
  0
LINE
  5
74
100
AcDbEntity
100
AcDbLine
  8
0
 62
3
420
65280
370
-1
 48
1.0
  6
BYLAYER
 10
91.6345391266434461
 20
5.5923209749483744
 30
0.0
 11
91.6337961766434006
 21
5.8073614609277477
 31
0.0
  0
LINE
  5
75
100
AcDbEntity
100
AcDbLine
  8
0
 62
3
420
65280
370
-1
 48
1.0
  6
BYLAYER
 10
91.1944365827221617
 20
5.3130301310251875
 30
0.0
 11
91.0073513903524542
 21
5.205016444849063
 31
0.0
  0
LINE
  5
76
100
AcDbEntity
100
AcDbLine
  8
0
 62
3
420
65280
370
-1
 48
1.0
  6
BYLAYER
 10
91.6563608205648563
 20
5.0715355696809583
 30
0.0
 11
91.8438312257511313
 21
4.9632994807814974
 31
0.0
  0
LINE
  5
77
100
AcDbEntity
100
AcDbLine
  8
0
 62
1
420
16711680
370
-1
 48
1.0
  6
BYLAYER
 10
95.6875739539914605
 20
4.9767828382813164
 30
0.0
 11
95.500488761621753
 21
4.8687691521052461
 31
0.0
  0
LINE
  5
78
100
AcDbEntity
100
AcDbLine
  8
0
 62
1
420
16711680
370
-1
 48
1.0
  6
BYLAYER
 10
96.2272331095115021
 20
5.6720878796262735
 30
0.0
 11
96.2272331095115021
 21
5.7301340907802967
 31
0.0
  0
LINE
  5
79
100
AcDbEntity
100
AcDbLine
  8
0
 62
1
420
16711680
370
-1
 48
1.0
  6
BYLAYER
 10
96.2272331095115021
 20
5.4711141681839379
 30
0.0
 11
96.2272331095115021
 21
5.5291506424788395
 31
0.0
  0
LINE
  5
7A
100
AcDbEntity
100
AcDbLine
  8
0
 62
1
420
16711680
370
-1
 48
1.0
  6
BYLAYER
 10
96.1269335479126994
 20
5.7301340907802967
 30
0.0
 11
96.1269335479126994
 21
6.0658513796264195
 31
0.0
  0
LINE
  5
7B
100
AcDbEntity
100
AcDbLine
  8
0
 62
1
420
16711680
370
-1
 48
1.0
  6
BYLAYER
 10
96.4606354915387953
 20
4.4396434405227865
 30
0.0
 11
96.5110145424684589
 21
4.4105570819069477
 31
0.0
  0
LINE
  5
7C
100
AcDbEntity
100
AcDbLine
  8
0
 62
1
420
16711680
370
-1
 48
1.0
  6
BYLAYER
 10
96.2867349525303666
 20
4.5400449635314217
 30
0.0
 11
96.336897479886872
 21
4.5110836148589435
 31
0.0
  0
LINE
  5
7D
100
AcDbEntity
100
AcDbLine
  8
0
 62
1
420
16711680
370
-1
 48
1.0
  6
BYLAYER
 10
96.5612481869586219
 20
4.4975643064131532
 30
0.0
 11
96.8518783301120152
 21
4.329768915028918
 31
0.0
  0
LINE
  5
7E
100
AcDbEntity
100
AcDbLine
  8
0
 62
1
420
16711680
370
-1
 48
1.0
  6
BYLAYER
 10
96.1494981918341693
 20
4.7352882769370872
 30
0.0
 11
96.3369685970204301
 21
4.6270521880376272
 31
0.0
  0
LINE
  5
7F
100
AcDbEntity
100
AcDbLine
  8
0
 62
1
420
16711680
370
-1
 48
1.0
  6
BYLAYER
 10
95.2762089153422949
 20
4.8552936585236282
 30
0.0
 11
95.2259536269306182
 21
4.8262787542310477
 31
0.0
  0
LINE
  5
80
100
AcDbEntity
100
AcDbLine
  8
0
 62
1
420
16711680
370
-1
 48
1.0
  6
BYLAYER
 10
95.4502538599369927
 20
4.9557785541365291
 30
0.0
 11
95.3999950621895181
 21
4.9267616237278773
 31
0.0
  0
LINE
  5
81
100
AcDbEntity
100
AcDbLine
  8
0
 62
1
420
16711680
370
-1
 48
1.0
  6
BYLAYER
 10
96.1276764979127449
 20
5.2560736822045016
 30
0.0
 11
96.1269335479126994
 21
5.4711141681839379
 31
0.0
  0
LINE
  5
82
100
AcDbEntity
100
AcDbLine
  8
0
 62
3
420
65280
370
-1
 48
1.0
  6
BYLAYER
 10
90.9224781073459951
 20
4.8340220835992946
 30
0.0
 11
90.6317242016744871
 21
4.6661552378918039
 31
0.0
  0
LINE
  5
83
100
AcDbEntity
100
AcDbLine
  8
0
 62
3
420
65280
370
-1
 48
1.0
  6
BYLAYER
 10
91.3338635327221908
 20
5.0715355696808437
 30
0.0
 11
91.146778340352256
 21
4.9635218835047183
 31
0.0
  0
LINE
  5
84
100
AcDbEntity
100
AcDbLine
  8
0
 62
3
420
65280
370
-1
 48
1.0
  6
BYLAYER
 10
91.3549422766434702
 20
5.5919312401453656
 30
0.0
 11
91.3549422766434702
 21
5.8073614609279698
 31
0.0
  0
LINE
  5
85
100
AcDbEntity
100
AcDbLine
  8
0
 62
3
420
65280
370
-1
 48
1.0
  6
BYLAYER
 10
91.3549422766433565
 20
6.066381383524285
 30
0.0
 11
91.3549422766433565
 21
6.4020986723702871
 31
0.0
  0
LINE
  5
86
100
AcDbEntity
100
AcDbLine
  8
0
 62
3
420
65280
370
-1
 48
1.0
  6
BYLAYER
 10
91.2545603362927551
 20
5.8073614609277477
 30
0.0
 11
91.2545603362927551
 21
5.8653979352230481
 31
0.0
  0
LINE
  5
87
100
AcDbEntity
100
AcDbLine
  8
0
 62
3
420
65280
370
-1
 48
1.0
  6
BYLAYER
 10
92.2075377656893522
 20
5.0753061605013094
 30
0.0
 11
92.4981679088427455
 21
4.9075107691171276
 31
0.0
  0
LINE
  5
88
100
AcDbEntity
100
AcDbLine
  8
0
 62
3
420
65280
370
-1
 48
1.0
  6
BYLAYER
 10
91.7957877705646581
 20
5.313030131025414
 30
0.0
 11
91.98325817575126
 21
5.2047940421257257
 31
0.0
  0
LINE
  5
89
100
AcDbEntity
100
AcDbLine
  8
0
 62
1
420
16711680
370
-1
 48
1.0
  6
BYLAYER
 10
95.516074182763802
 20
4.4398348283776787
 30
0.0
 11
95.4658188943524664
 21
4.4108199240851498
 31
0.0
  0
LINE
  5
8A
100
AcDbEntity
100
AcDbLine
  8
0
 62
1
420
16711680
370
-1
 48
1.0
  6
BYLAYER
 10
95.8270009039914896
 20
4.7352882769369771
 30
0.0
 11
95.6399157116215548
 21
4.6272745907608535
 31
0.0
  0
LINE
  5
8B
100
AcDbEntity
100
AcDbLine
  8
0
 62
1
420
16711680
370
-1
 48
1.0
  6
BYLAYER
 10
95.848079647912769
 20
5.2556839474015025
 30
0.0
 11
95.848079647912769
 21
5.4711141681840481
 31
0.0
  0
LINE
  5
8C
100
AcDbEntity
100
AcDbLine
  8
0
 62
1
420
16711680
370
-1
 48
1.0
  6
BYLAYER
 10
95.6901191273589546
 20
4.5403197239908
 30
0.0
 11
95.6398603296111389
 21
4.5113027935819261
 31
0.0
  0
LINE
  5
8D
100
AcDbEntity
100
AcDbLine
  8
0
 62
1
420
16711680
370
-1
 48
1.0
  6
BYLAYER
 10
95.7476977075620539
 20
5.6720878796266092
 30
0.0
 11
95.7476977075620539
 21
5.7301340907802967
 31
0.0
  0
LINE
  5
8E
100
AcDbEntity
100
AcDbLine
  8
0
 62
1
420
16711680
370
-1
 48
1.0
  6
BYLAYER
 10
95.8480796479126553
 20
5.7301340907804139
 30
0.0
 11
95.8480796479126553
 21
6.0658513796264195
 31
0.0
  0
LINE
  5
8F
100
AcDbEntity
100
AcDbLine
  8
0
 62
1
420
16711680
370
-1
 48
1.0
  6
BYLAYER
 10
95.7476977075620539
 20
5.4711141681839379
 30
0.0
 11
95.7476977075620539
 21
5.529150642479177
 31
0.0
  0
LINE
  5
90
100
AcDbEntity
100
AcDbLine
  8
0
 62
1
420
16711680
370
-1
 48
1.0
  6
BYLAYER
 10
96.7004742397786856
 20
4.8550563380973131
 30
0.0
 11
96.7508532907081218
 21
4.8259699794816484
 31
0.0
  0
LINE
  5
91
100
AcDbEntity
100
AcDbLine
  8
0
 62
1
420
16711680
370
-1
 48
1.0
  6
BYLAYER
 10
96.700675136958651
 20
4.7390588677574392
 30
0.0
 11
96.9913052801120443
 21
4.5712634763732609
 31
0.0
  0
LINE
  5
92
100
AcDbEntity
100
AcDbLine
  8
0
 62
1
420
16711680
370
-1
 48
1.0
  6
BYLAYER
 10
96.2889251418339711
 20
4.9767828382815438
 30
0.0
 11
96.4763955470205588
 21
4.8685467493818564
 31
0.0
  0
LINE
  5
93
100
AcDbEntity
100
AcDbLine
  8
0
 62
1
420
16711680
370
-1
 48
1.0
  6
BYLAYER
 10
96.5265737007700437
 20
4.9554578611061189
 30
0.0
 11
96.5767362281266628
 21
4.9264965124335305
 31
0.0
  0
LINE
  5
94
100
AcDbEntity
100
AcDbLine
  8
0
 62
3
420
65280
370
-1
 48
1.0
  6
BYLAYER
 10
91.8437601086174595
 20
4.8473309076028146
 30
0.0
 11
91.6665272281073555
 21
4.5403545537879157
 31
0.0
  0
LINE
  5
95
100
AcDbEntity
100
AcDbLine
  8
0
 62
3
420
65280
370
-1
 48
1.0
  6
BYLAYER
 10
90.9068576909202193
 20
5.2630089164717466
 30
0.0
 11
90.7296260676051531
 21
5.5699830927618486
 31
0.0
  0
LINE
  5
96
100
AcDbEntity
100
AcDbLine
  8
0
 62
3
420
65280
370
-1
 48
1.0
  6
BYLAYER
 10
91.7540957382421993
 20
5.8653979352225898
 30
0.0
 11
92.0887292266435082
 21
5.8653979352224805
 31
0.0
  0
LINE
  5
97
100
AcDbEntity
100
AcDbLine
  8
0
 62
3
420
65280
370
-1
 48
1.0
  6
BYLAYER
 10
90.9000092266433626
 20
6.008335172370594
 30
0.0
 11
91.2545603362926414
 21
6.0083351723704785
 31
0.0
  0
LINE
  5
98
100
AcDbEntity
100
AcDbLine
  8
0
 62
3
420
65280
370
-1
 48
1.0
  6
BYLAYER
 10
90.9000092266433626
 20
5.8653979352232701
 30
0.0
 11
91.2545603362928688
 21
5.8653979352230481
 31
0.0
  0
LINE
  5
99
100
AcDbEntity
100
AcDbLine
  8
0
 62
3
420
65280
370
-1
 48
1.0
  6
BYLAYER
 10
91.9674981202694823
 20
4.7758907332666558
 30
0.0
 11
91.7902652397593783
 21
4.4689143794516442
 31
0.0
  0
LINE
  5
9A
100
AcDbEntity
100
AcDbLine
  8
0
 62
3
420
65280
370
-1
 48
1.0
  6
BYLAYER
 10
92.3846252397599699
 20
5.4983760974380838
 30
0.0
 11
92.2173368685094061
 21
5.2086241389168109
 31
0.0
  0
LINE
  5
9B
100
AcDbEntity
100
AcDbLine
  8
0
 62
3
420
65280
370
-1
 48
1.0
  6
BYLAYER
 10
92.2608872281080465
 20
5.5698162717742417
 30
0.0
 11
92.0935988568573691
 21
5.280064313253078
 31
0.0
  0
LINE
  5
9C
100
AcDbEntity
100
AcDbLine
  8
0
 62
3
420
65280
370
-1
 48
1.0
  6
BYLAYER
 10
90.7830715440729819
 20
5.191540951267557
 30
0.0
 11
90.6058399207578162
 21
5.4985151275575479
 31
0.0
  0
LINE
  5
9D
100
AcDbEntity
100
AcDbLine
  8
0
 62
3
420
65280
370
-1
 48
1.0
  6
BYLAYER
 10
91.7540957382421993
 20
6.008335172370141
 30
0.0
 11
92.0887292266435082
 21
6.0083351723699199
 31
0.0
  0
LINE
  5
9E
100
AcDbEntity
100
AcDbLine
  8
0
 62
3
420
65280
370
-1
 48
1.0
  6
BYLAYER
 10
91.2001999207571572
 20
4.4690534095705505
 30
0.0
 11
91.0329368114944089
 21
4.7587616130458121
 31
0.0
  0
LINE
  5
9F
100
AcDbEntity
100
AcDbLine
  8
0
 62
3
420
65280
370
-1
 48
1.0
  6
BYLAYER
 10
91.3239860676046078
 20
4.5405213747747402
 30
0.0
 11
91.156722958341831
 21
4.8302295782501519
 31
0.0
  0
LINE
  5
A0
100
AcDbEntity
100
AcDbLine
  8
0
 62
3
420
65280
370
-1
 48
1.0
  6
BYLAYER
 10
92.4981679088427455
 20
4.9075107691171276
 30
0.0
 11
92.3587409588427164
 21
4.6660162077727874
 31
0.0
  0
LINE
  5
A1
100
AcDbEntity
100
AcDbLine
  8
0
 62
3
420
65280
370
-1
 48
1.0
  6
BYLAYER
 10
91.3549422766433565
 20
6.4020986723702871
 30
0.0
 11
91.6337961766434006
 21
6.4020986723702871
 31
0.0
  0
LINE
  5
A2
100
AcDbEntity
100
AcDbLine
  8
0
 62
3
420
65280
370
-1
 48
1.0
  6
BYLAYER
 10
90.6317242016744871
 20
4.6661552378918039
 30
0.0
 11
90.4922972516744721
 21
4.9076497992361432
 31
0.0
  0
LINE
  5
A3
100
AcDbEntity
100
AcDbLine
  8
0
 62
1
420
16711680
370
-1
 48
1.0
  6
BYLAYER
 10
96.9913052801120443
 20
4.5712634763732609
 30
0.0
 11
96.8518783301120152
 21
4.329768915028918
 31
0.0
  0
LINE
  5
A4
100
AcDbEntity
100
AcDbLine
  8
0
 62
1
420
16711680
370
-1
 48
1.0
  6
BYLAYER
 10
95.8480796479126553
 20
6.0658513796264195
 30
0.0
 11
96.1269335479126994
 21
6.0658513796264195
 31
0.0
  0
LINE
  5
A5
100
AcDbEntity
100
AcDbLine
  8
0
 62
1
420
16711680
370
-1
 48
1.0
  6
BYLAYER
 10
95.1248615729437859
 20
4.3299079451479336
 30
0.0
 11
94.9854346229437567
 21
4.571402506492273
 31
0.0
  0
LINE
  5
A6
100
AcDbEntity
100
AcDbLine
  8
0
 62
3
420
65280
370
-1
 48
1.0
  6
BYLAYER
 10
91.2545603362927551
 20
6.0646657026444251
 30
0.0
 11
91.3549422766433565
 21
6.0646657026444251
 31
0.0
  0
LINE
  5
A7
100
AcDbEntity
100
AcDbLine
  8
0
 62
3
420
65280
370
-1
 48
1.0
  6
BYLAYER
 10
91.6337961766434006
 20
6.0646657026444251
 30
0.0
 11
91.7540957382421993
 21
6.0646657026444251
 31
0.0
  0
LINE
  5
A8
100
AcDbEntity
100
AcDbLine
  8
0
 62
3
420
65280
370
-1
 48
1.0
  6
BYLAYER
 10
92.0681108156893231
 20
4.8338115991569701
 30
0.0
 11
92.0178771711991459
 21
4.7468043746508188
 31
0.0
  0
LINE
  5
A9
100
AcDbEntity
100
AcDbLine
  8
0
 62
3
420
65280
370
-1
 48
1.0
  6
BYLAYER
 10
90.7830511573461933
 20
5.0755166449437494
 30
0.0
 11
90.7328162556613194
 21
5.162526046974917
 31
0.0
  0
LINE
  5
AA
100
AcDbEntity
100
AcDbLine
  8
0
 62
1
420
16711680
370
-1
 48
1.0
  6
BYLAYER
 10
96.1269335479126994
 20
5.7301340907802967
 30
0.0
 11
96.2272331095115021
 21
5.7301340907802967
 31
0.0
  0
LINE
  5
AB
100
AcDbEntity
100
AcDbLine
  8
0
 62
1
420
16711680
370
-1
 48
1.0
  6
BYLAYER
 10
96.5612481869586219
 20
4.4975643064131532
 30
0.0
 11
96.5110145424684589
 21
4.4105570819069477
 31
0.0
  0
LINE
  5
AC
100
AcDbEntity
100
AcDbLine
  8
0
 62
1
420
16711680
370
-1
 48
1.0
  6
BYLAYER
 10
95.2761885286154921
 20
4.7392693521998215
 30
0.0
 11
95.2259536269306182
 21
4.8262787542310477
 31
0.0
  0
LINE
  5
AD
100
AcDbEntity
100
AcDbLine
  8
0
 62
3
420
65280
370
-1
 48
1.0
  6
BYLAYER
 10
90.9826815230831727
 20
4.7297467087533365
 30
0.0
 11
90.9224781073459951
 21
4.8340220835991792
 31
0.0
  0
LINE
  5
AE
100
AcDbEntity
100
AcDbLine
  8
0
 62
3
420
65280
370
-1
 48
1.0
  6
BYLAYER
 10
92.2677159194388139
 20
5.179537780301211
 30
0.0
 11
92.2075377656893522
 21
5.0753061605013094
 31
0.0
  0
LINE
  5
AF
100
AcDbEntity
100
AcDbLine
  8
0
 62
1
420
16711680
370
-1
 48
1.0
  6
BYLAYER
 10
95.4658188943524664
 20
4.4108199240851498
 30
0.0
 11
95.4156154786152939
 21
4.4977747908553098
 31
0.0
  0
LINE
  5
B0
100
AcDbEntity
100
AcDbLine
  8
0
 62
1
420
16711680
370
-1
 48
1.0
  6
BYLAYER
 10
95.7476977075620539
 20
5.7301340907802967
 30
0.0
 11
95.8480796479126553
 21
5.7301340907804139
 31
0.0
  0
LINE
  5
B1
100
AcDbEntity
100
AcDbLine
  8
0
 62
1
420
16711680
370
-1
 48
1.0
  6
BYLAYER
 10
96.7508532907081218
 20
4.8259699794816484
 30
0.0
 11
96.700675136958651
 21
4.7390588677574961
 31
0.0
  0
LINE
  5
B2
100
AcDbEntity
100
AcDbLine
  8
0
 62
3
420
65280
370
-1
 48
1.0
  6
BYLAYER
 10
91.2545603362927551
 20
5.8073614609277477
 30
0.0
 11
91.3549422766433565
 21
5.8073614609279698
 31
0.0
  0
LINE
  5
B3
100
AcDbEntity
100
AcDbLine
  8
0
 62
3
420
65280
370
-1
 48
1.0
  6
BYLAYER
 10
92.0434363295007643
 20
5.309025661925725
 30
0.0
 11
91.9832581757513736
 21
5.2047940421258367
 31
0.0
  0
LINE
  5
B4
100
AcDbEntity
100
AcDbLine
  8
0
 62
3
420
65280
370
-1
 48
1.0
  6
BYLAYER
 10
91.2069817560896468
 20
4.8592465086589778
 30
0.0
 11
91.146778340352256
 21
4.9635218835047183
 31
0.0
  0
LINE
  5
B5
100
AcDbEntity
100
AcDbLine
  8
0
 62
1
420
16711680
370
-1
 48
1.0
  6
BYLAYER
 10
95.7476977075620539
 20
5.4711141681839379
 30
0.0
 11
95.8480796479126553
 21
5.4711141681840481
 31
0.0
  0
LINE
  5
B6
100
AcDbEntity
100
AcDbLine
  8
0
 62
1
420
16711680
370
-1
 48
1.0
  6
BYLAYER
 10
96.5265737007700437
 20
4.9554578611061189
 30
0.0
 11
96.4763955470206724
 21
4.8685467493819665
 31
0.0
  0
LINE
  5
B7
100
AcDbEntity
100
AcDbLine
  8
0
 62
1
420
16711680
370
-1
 48
1.0
  6
BYLAYER
 10
95.6901191273589546
 20
4.5403197239908
 30
0.0
 11
95.6399157116215548
 21
4.6272745907608535
 31
0.0
  0
LINE
  5
B8
100
AcDbEntity
100
AcDbLine
  8
0
 62
3
420
65280
370
-1
 48
1.0
  6
BYLAYER
 10
91.6337961766434006
 20
5.8073614609277477
 30
0.0
 11
91.7540957382421993
 21
5.8073614609277477
 31
0.0
  0
LINE
  5
B9
100
AcDbEntity
100
AcDbLine
  8
0
 62
3
420
65280
370
-1
 48
1.0
  6
BYLAYER
 10
91.8438312257511313
 20
4.9632994807814974
 30
0.0
 11
91.793597581261082
 21
4.8762922562753461
 31
0.0
  0
LINE
  5
BA
100
AcDbEntity
100
AcDbLine
  8
0
 62
3
420
65280
370
-1
 48
1.0
  6
BYLAYER
 10
91.0073513903524542
 20
5.205016444849174
 30
0.0
 11
90.9571164886676939
 21
5.2920258468804526
 31
0.0
  0
LINE
  5
BB
100
AcDbEntity
100
AcDbLine
  8
0
 62
1
420
16711680
370
-1
 48
1.0
  6
BYLAYER
 10
96.1269335479126994
 20
5.4711141681839379
 30
0.0
 11
96.2272331095115021
 21
5.4711141681839379
 31
0.0
  0
LINE
  5
BC
100
AcDbEntity
100
AcDbLine
  8
0
 62
1
420
16711680
370
-1
 48
1.0
  6
BYLAYER
 10
96.3369685970204301
 20
4.6270521880376272
 30
0.0
 11
96.2867349525303666
 21
4.5400449635314217
 31
0.0
  0
LINE
  5
BD
100
AcDbEntity
100
AcDbLine
  8
0
 62
1
420
16711680
370
-1
 48
1.0
  6
BYLAYER
 10
95.500488761621753
 20
4.8687691521053047
 30
0.0
 11
95.4502538599369927
 21
4.9557785541365291
 31
0.0
  0
LINE
  5
BE
100
AcDbEntity
100
AcDbLine
  8
0
 62
3
420
65280
370
-1
 48
1.0
  6
BYLAYER
 10
91.2001999207571572
 20
4.4690534095705505
 30
0.0
 11
91.3239860676045936
 21
4.540521374774741
 31
0.0
  0
LINE
  5
BF
100
AcDbEntity
100
AcDbLine
  8
0
 62
3
420
65280
370
-1
 48
1.0
  6
BYLAYER
 10
96.8777626110292545
 20
5.1621288046942109
 30
0.0
 11
97.3045602816109465
 21
4.9157170546943512
 31
0.0
  0
LINE
  5
C0
100
AcDbEntity
100
AcDbLine
  8
0
 62
3
420
65280
370
-1
 48
1.0
  6
BYLAYER
 10
95.693337292026456
 20
4.1328061168266821
 30
0.0
 11
95.2665396214448776
 21
3.8863943668268206
 31
0.0
  0
LINE
  5
C1
100
AcDbEntity
100
AcDbLine
  8
0
 62
3
420
65280
370
-1
 48
1.0
  6
BYLAYER
 10
95.3931465979126472
 20
5.6720878796267797
 30
0.0
 11
95.3931465979127751
 21
6.1649113796264459
 31
0.0
  0
LINE
  5
C2
100
AcDbEntity
100
AcDbLine
  8
0
 62
3
420
65280
370
-1
 48
1.0
  6
BYLAYER
 10
97.3045602816109465
 20
4.9157170546943512
 30
0.0
 11
97.2647457111076648
 21
4.2523961957010457
 31
0.0
  0
LINE
  5
C3
100
AcDbEntity
100
AcDbLine
  8
0
 62
3
420
65280
370
-1
 48
1.0
  6
BYLAYER
 10
95.2665396214448776
 20
3.8863943668268206
 30
0.0
 11
94.7119941919481505
 21
4.2525352258201732
 31
0.0
  0
LINE
  5
C4
100
AcDbEntity
100
AcDbLine
  8
0
 62
3
420
65280
370
-1
 48
1.0
  6
BYLAYER
 10
95.3931465979127751
 20
6.1649113796264459
 30
0.0
 11
95.9875065979126703
 21
6.4620913796264539
 31
0.0
  0
LINE
  5
C5
100
AcDbEntity
100
AcDbLine
  8
0
 62
7
420
16777215
370
-1
 48
1.0
  6
BYLAYER
 10
92.7808114224073393
 20
4.5753386723702638
 30
0.0
 11
92.1999999999999886
 21
4.0999999999999996
 31
0.0
  0
LINE
  5
C6
100
AcDbEntity
100
AcDbLine
  8
0
 62
3
420
65280
370
-1
 48
1.0
  6
BYLAYER
 10
97.2647457111076648
 20
4.2523961957010457
 30
0.0
 11
96.7102002816109234
 21
3.8862553367076913
 31
0.0
  0
LINE
  5
C7
100
AcDbEntity
100
AcDbLine
  8
0
 62
3
420
65280
370
-1
 48
1.0
  6
BYLAYER
 10
94.7119941919481505
 20
4.2525352258201732
 30
0.0
 11
94.6721796214448545
 21
4.915856084813484
 31
0.0
  0
LINE
  5
C8
100
AcDbEntity
100
AcDbLine
  8
0
 62
3
420
65280
370
-1
 48
1.0
  6
BYLAYER
 10
95.9875065979126703
 20
6.4620913796264539
 30
0.0
 11
96.5818665979126934
 21
6.1649113796264459
 31
0.0
  0
LINE
  5
C9
100
AcDbEntity
100
AcDbLine
  8
0
 62
7
420
16777215
370
-1
 48
1.0
  6
BYLAYER
 10
90.2079270308794179
 20
4.5753386723702647
 30
0.0
 11
90.7887384532867685
 21
4.1000000000000005
 31
0.0
  0
LINE
  5
CA
100
AcDbEntity
100
AcDbLine
  8
0
 62
3
420
65280
370
-1
 48
1.0
  6
BYLAYER
 10
96.8825244115202935
 20
3.7885870923533709
 30
0.0
 11
96.8825244115202935
 21
3.7885870923533709
 31
0.0
  0
LINE
  5
CB
100
AcDbEntity
100
AcDbLine
  8
0
 62
3
420
65280
370
-1
 48
1.0
  6
BYLAYER
 10
90.2041716490491297
 20
5.2666118427616482
 30
0.0
 11
90.2041716490491297
 21
5.2666118427616482
 31
0.0
  0
LINE
  5
CC
100
AcDbEntity
100
AcDbLine
  8
0
 62
3
420
65280
370
-1
 48
1.0
  6
BYLAYER
 10
96.7224017854599225
 20
3.879210795175922
 30
0.0
 11
96.7224017854599225
 21
3.879210795175922
 31
0.0
  0
LINE
  5
CD
100
AcDbEntity
100
AcDbLine
  8
0
 62
3
420
65280
370
-1
 48
1.0
  6
BYLAYER
 10
94.6973090203184285
 20
4.930364550017778
 30
0.0
 11
94.6973090203184285
 21
4.930364550017778
 31
0.0
  0
LINE
  5
CE
100
AcDbEntity
100
AcDbLine
  8
0
 62
3
420
65280
370
-1
 48
1.0
  6
BYLAYER
 10
96.581866597912807
 20
6.1798410782472253
 30
0.0
 11
96.581866597912807
 21
6.1798410782472253
 31
0.0
  0
LINE
  5
CF
100
AcDbEntity
100
AcDbLine
  8
0
 62
3
420
65280
370
-1
 48
1.0
  6
BYLAYER
 10
96.7102002816109234
 20
3.8862553367076913
 30
0.0
 11
96.2834026110286771
 21
4.1326670867078299
 31
0.0
  0
LINE
  5
D0
100
AcDbEntity
100
AcDbLine
  8
0
 62
3
420
65280
370
-1
 48
1.0
  6
BYLAYER
 10
94.6721796214448545
 20
4.915856084813484
 30
0.0
 11
95.098977292027115
 21
5.1622678348137327
 31
0.0
  0
LINE
  5
D1
100
AcDbEntity
100
AcDbLine
  8
0
 62
3
420
65280
370
-1
 48
1.0
  6
BYLAYER
 10
96.5818665979126934
 20
6.1649113796264459
 30
0.0
 11
96.581866597912807
 21
5.6720878796260479
 31
0.0
  0
ARC
  5
D2
100
AcDbEntity
  8
0
 62
3
420
65280
370
-1
 48
1.0
  6
BYLAYER
100
AcDbCircle
 10
91.495112176643417
 20
5.3256288918848398
 30
0.0
 40
0.3009394317052707
100
AcDbArc
 50
357.6006239928848913
 51
62.3993760071328154
  0
ARC
  5
D3
100
AcDbEntity
  8
0
 62
3
420
65280
370
-1
 48
1.0
  6
BYLAYER
100
AcDbCircle
 10
91.495112176643417
 20
5.3256288918848398
 30
0.0
 40
0.3009394317052707
100
AcDbArc
 50
117.6006239928552191
 51
182.3993760071419956
  0
ARC
  5
D4
100
AcDbEntity
  8
0
 62
3
420
65280
370
-1
 48
1.0
  6
BYLAYER
100
AcDbCircle
 10
91.495112176643417
 20
5.3256288918848398
 30
0.0
 40
0.3009394317052707
100
AcDbArc
 50
237.6006239928553612
 51
302.3993760071594465
  0
ARC
  5
D5
100
AcDbEntity
  8
0
 62
1
420
16711680
370
-1
 48
1.0
  6
BYLAYER
100
AcDbCircle
 10
95.9882495479127158
 20
4.9893815991409696
 30
0.0
 40
0.3009394317052707
100
AcDbArc
 50
357.6006239928848913
 51
62.3993760071328154
  0
ARC
  5
D6
100
AcDbEntity
  8
0
 62
1
420
16711680
370
-1
 48
1.0
  6
BYLAYER
100
AcDbCircle
 10
95.9882495479127158
 20
4.9893815991409696
 30
0.0
 40
0.3009394317052707
100
AcDbArc
 50
117.6006239928552191
 51
182.3993760071419956
  0
ARC
  5
D7
100
AcDbEntity
  8
0
 62
1
420
16711680
370
-1
 48
1.0
  6
BYLAYER
100
AcDbCircle
 10
95.9882495479127158
 20
4.9893815991409696
 30
0.0
 40
0.3009394317052707
100
AcDbArc
 50
237.6006239928553612
 51
302.3993760071594465
  0
LINE
  5
D8
100
AcDbEntity
100
AcDbLine
  8
0
 62
3
420
65280
370
-1
 48
1.0
  6
BYLAYER
 10
91.8732903719155729
 20
4.4209797970516664
 30
0.0
 11
91.7903133749547067
 21
4.468886588583624
 31
0.0
  0
LINE
  5
D9
100
AcDbEntity
100
AcDbLine
  8
0
 62
3
420
65280
370
-1
 48
1.0
  6
BYLAYER
 10
91.6665272281073555
 20
4.5403545537879157
 30
0.0
 11
91.5835502311464893
 21
4.5882613453198733
 31
0.0
  0
LINE
  5
DA
100
AcDbEntity
100
AcDbLine
  8
0
 62
3
420
65280
370
-1
 48
1.0
  6
BYLAYER
 10
90.9000092266433342
 20
5.8653979352231538
 30
0.0
 11
90.9000092266433484
 21
6.0083351723705931
 31
0.0
  0
LINE
  5
DB
100
AcDbEntity
100
AcDbLine
  8
0
 62
3
420
65280
370
-1
 48
1.0
  6
BYLAYER
 10
92.0887292266436503
 20
5.8653979352225969
 30
0.0
 11
92.0887292266434372
 21
5.7695843521587387
 31
0.0
  0
LINE
  5
DC
100
AcDbEntity
100
AcDbLine
  8
0
 62
3
420
65280
370
-1
 48
1.0
  6
BYLAYER
 10
96.581866597912807
 20
5.5291506424786121
 30
0.0
 11
96.5818665979125939
 21
5.4333370594148125
 31
0.0
  0
LINE
  5
DD
100
AcDbEntity
100
AcDbLine
  8
0
 62
3
420
65280
370
-1
 48
1.0
  6
BYLAYER
 10
95.3931465979125477
 20
5.5291506424794008
 30
0.0
 11
95.3931465979127751
 21
5.4333370594155443
 31
0.0
  0
LINE
  5
DE
100
AcDbEntity
100
AcDbLine
  8
0
 62
3
420
65280
370
-1
 48
1.0
  6
BYLAYER
 10
92.0887292266435225
 20
6.0083351723699199
 30
0.0
 11
92.0887292266433093
 21
6.1041487554337781
 31
0.0
  0
LINE
  5
DF
100
AcDbEntity
100
AcDbLine
  8
0
 62
3
420
65280
370
-1
 48
1.0
  6
BYLAYER
 10
91.5835502311464751
 20
4.5882613453198875
 30
0.0
 11
91.5426204666107708
 21
4.5173689136022617
 31
0.0
  0
LINE
  5
E0
100
AcDbEntity
100
AcDbLine
  8
0
 62
3
420
65280
370
-1
 48
1.0
  6
BYLAYER
 10
91.8732903719155729
 20
4.4209797970516664
 30
0.0
 11
91.8323606073798686
 21
4.3500873653340424
 31
0.0
  0
LINE
  5
E1
100
AcDbEntity
100
AcDbLine
  8
0
 62
3
420
65280
370
-1
 48
1.0
  6
BYLAYER
 10
96.5818665979125939
 20
5.4333370594148125
 30
0.0
 11
96.6364396172935045
 21
5.4333370594148125
 31
0.0
  0
LINE
  5
E2
100
AcDbEntity
100
AcDbLine
  8
0
 62
3
420
65280
370
-1
 48
1.0
  6
BYLAYER
 10
95.3931465979129882
 20
5.4333370594155443
 30
0.0
 11
95.3385735785320776
 21
5.4333370594155443
 31
0.0
  0
LINE
  5
E3
100
AcDbEntity
100
AcDbLine
  8
0
 62
3
420
65280
370
-1
 48
1.0
  6
BYLAYER
 10
92.1705887557146752
 20
6.1041487554337515
 30
0.0
 11
92.0887292266433093
 21
6.1041487554337781
 31
0.0
  0
LINE
  5
E4
100
AcDbEntity
100
AcDbLine
  8
0
 62
3
420
65280
370
-1
 48
1.0
  6
BYLAYER
 10
92.1705887557148031
 20
5.7695843521587653
 30
0.0
 11
92.0887292266434372
 21
5.7695843521587387
 31
0.0
  0
LINE
  5
E5
100
AcDbEntity
100
AcDbLine
  8
0
 62
3
420
65280
370
-1
 48
1.0
  6
BYLAYER
 10
90.4791216797231783
 20
5.5198775592752298
 30
0.0
 11
90.52005144425884
 21
5.4489851275575791
 31
0.0
  0
LINE
  5
E6
100
AcDbEntity
100
AcDbLine
  8
0
 62
3
420
65280
370
-1
 48
1.0
  6
BYLAYER
 10
90.7744847795685814
 20
5.6904055244795648
 30
0.0
 11
90.8154145441042431
 21
5.6195130927619141
 31
0.0
  0
LINE
  5
E7
100
AcDbEntity
100
AcDbLine
  8
0
 62
3
420
65280
370
-1
 48
1.0
  6
BYLAYER
 10
92.3846252397599699
 20
5.4983760974380838
 30
0.0
 11
92.2608872281073786
 21
5.5698162717740107
 31
0.0
  0
LINE
  5
E8
100
AcDbEntity
100
AcDbLine
  8
0
 62
3
420
65280
370
-1
 48
1.0
  6
BYLAYER
 10
90.8154145441042289
 20
5.6195130927619186
 30
0.0
 11
90.7296260676052668
 21
5.5699830927619631
 31
0.0
  0
LINE
  5
E9
100
AcDbEntity
100
AcDbLine
  8
0
 62
3
420
65280
370
-1
 48
1.0
  6
BYLAYER
 10
95.9029119153727692
 20
4.2538040820308858
 30
0.0
 11
95.8171234388739066
 21
4.2042740820309294
 31
0.0
  0
LINE
  5
EA
100
AcDbEntity
100
AcDbLine
  8
0
 62
3
420
65280
370
-1
 48
1.0
  6
BYLAYER
 10
96.6682361228777154
 20
5.2830989790300968
 30
0.0
 11
96.8777626110292545
 21
5.1621288046942109
 31
0.0
  0
LINE
  5
EB
100
AcDbEntity
100
AcDbLine
  8
0
 62
3
420
65280
370
-1
 48
1.0
  6
BYLAYER
 10
95.3085519153735277
 20
5.2832658000180501
 30
0.0
 11
95.2227634388745656
 21
5.2337358000180956
 31
0.0
  0
LINE
  5
EC
100
AcDbEntity
100
AcDbLine
  8
0
 62
3
420
65280
370
-1
 48
1.0
  6
BYLAYER
 10
96.0738761228776923
 20
4.2536372610441724
 30
0.0
 11
96.1596645993766543
 21
4.2041072610440455
 31
0.0
  0
LINE
  5
ED
100
AcDbEntity
100
AcDbLine
  8
0
 62
3
420
65280
370
-1
 48
1.0
  6
BYLAYER
 10
90.605839920757802
 20
5.4985151275575452
 30
0.0
 11
90.52005144425884
 21
5.4489851275575898
 31
0.0
  0
LINE
  5
EE
100
AcDbEntity
100
AcDbLine
  8
0
 62
3
420
65280
370
-1
 48
1.0
  6
BYLAYER
 10
96.6968322817106269
 20
5.3326289790303889
 30
0.0
 11
96.6682361228777154
 21
5.2830989790300968
 31
0.0
  0
LINE
  5
EF
100
AcDbEntity
100
AcDbLine
  8
0
 62
3
420
65280
370
-1
 48
1.0
  6
BYLAYER
 10
95.2799557565405024
 20
5.3327958000183422
 30
0.0
 11
95.3085519153735277
 21
5.2832658000180501
 31
0.0
  0
LINE
  5
F0
100
AcDbEntity
100
AcDbLine
  8
0
 62
3
420
65280
370
-1
 48
1.0
  6
BYLAYER
 10
96.0738761228776923
 20
4.2536372610441724
 30
0.0
 11
96.0452799640447807
 21
4.2041072610440455
 31
0.0
  0
LINE
  5
F1
100
AcDbEntity
100
AcDbLine
  8
0
 62
3
420
65280
370
-1
 48
1.0
  6
BYLAYER
 10
95.9029119153727692
 20
4.2538040820308858
 30
0.0
 11
95.9315080742056807
 21
4.2042740820305884
 31
0.0
  0
CIRCLE
  5
F2
100
AcDbEntity
100
AcDbCircle
  8
0
 62
6
420
16711935
370
-1
 48
1.0
  6
BYLAYER
 10
91.9771985448871305
 20
5.6053578658261829
 30
0.0
 40
0.0544830000000068
  0
CIRCLE
  5
F3
100
AcDbEntity
100
AcDbCircle
  8
0
 62
1
420
16711680
370
-1
 48
1.0
  6
BYLAYER
 10
96.4703359161564293
 20
5.2691105730822585
 30
0.0
 40
0.0544830000000068
  0
CIRCLE
  5
F4
100
AcDbEntity
100
AcDbCircle
  8
0
 62
6
420
16711935
370
-1
 48
1.0
  6
BYLAYER
 10
91.0130258083999308
 20
5.605357865826857
 30
0.0
 40
0.0544830000000068
  0
CIRCLE
  5
F5
100
AcDbEntity
100
AcDbCircle
  8
0
 62
1
420
16711680
370
-1
 48
1.0
  6
BYLAYER
 10
95.5061631796692296
 20
5.2691105730830472
 30
0.0
 40
0.0544830000000068
  0
CIRCLE
  5
F6
100
AcDbEntity
100
AcDbCircle
  8
0
 62
6
420
16711935
370
-1
 48
1.0
  6
BYLAYER
 10
91.4951121766430759
 20
4.7679442413596318
 30
0.0
 40
0.0544830000000068
  0
CIRCLE
  5
F7
100
AcDbEntity
100
AcDbCircle
  8
0
 62
1
420
16711680
370
-1
 48
1.0
  6
BYLAYER
 10
95.9882495479123747
 20
4.4316969486157625
 30
0.0
 40
0.0544830000000068
  0
LINE
  5
F8
100
AcDbEntity
100
AcDbLine
  8
0
 62
3
420
65280
370
-1
 48
1.0
  6
BYLAYER
 10
95.2799557565405024
 20
5.3327958000183422
 30
0.0
 11
95.3385735785320776
 21
5.4333370594155443
 31
0.0
  0
LINE
  5
F9
100
AcDbEntity
100
AcDbLine
  8
0
 62
3
420
65280
370
-1
 48
1.0
  6
BYLAYER
 10
96.6968322817106269
 20
5.3326289790303889
 30
0.0
 11
96.6364396172935045
 21
5.4333370594148125
 31
0.0
  0
LINE
  5
FA
100
AcDbEntity
100
AcDbLine
  8
0
 62
3
420
65280
370
-1
 48
1.0
  6
BYLAYER
 10
96.0452799640447807
 20
4.2041072610440455
 30
0.0
 11
95.9315080742056807
 21
4.2042740820305884
 31
0.0
  0
LINE
  5
FB
100
AcDbEntity
100
AcDbLine
  8
0
 62
3
420
65280
370
-1
 48
1.0
  6
BYLAYER
 10
95.098977292027115
 20
5.1622678348137327
 30
0.0
 11
95.2227634388745656
 21
5.2337358000180956
 31
0.0
  0
LINE
  5
FC
100
AcDbEntity
100
AcDbLine
  8
0
 62
3
420
65280
370
-1
 48
1.0
  6
BYLAYER
 10
95.3931465979125477
 20
5.5291506424794008
 30
0.0
 11
95.3931465979126472
 21
5.6720878796267797
 31
0.0
  0
LINE
  5
FD
100
AcDbEntity
100
AcDbLine
  8
0
 62
3
420
65280
370
-1
 48
1.0
  6
BYLAYER
 10
96.581866597912807
 20
5.5291506424786121
 30
0.0
 11
96.581866597912807
 21
5.6720878796260479
 31
0.0
  0
LINE
  5
FE
100
AcDbEntity
100
AcDbLine
  8
0
 62
1
420
16711680
370
-1
 48
1.0
  6
BYLAYER
 10
96.7004742397786856
 20
4.8550563380973131
 30
0.0
 11
96.5767362281266628
 21
4.9264965124335305
 31
0.0
  0
LINE
  5
FF
100
AcDbEntity
100
AcDbLine
  8
0
 62
3
420
65280
370
-1
 48
1.0
  6
BYLAYER
 10
91.5426204666107708
 20
4.5173689136022617
 30
0.0
 11
91.8323606073798686
 21
4.3500873653340424
 31
0.0
  0
LINE
  5
100
100
AcDbEntity
100
AcDbLine
  8
0
 62
1
420
16711680
370
-1
 48
1.0
  6
BYLAYER
 10
96.4606354915387953
 20
4.4396434405227865
 30
0.0
 11
96.336897479886872
 21
4.5110836148589435
 31
0.0
  0
LINE
  5
101
100
AcDbEntity
100
AcDbLine
  8
0
 62
3
420
65280
370
-1
 48
1.0
  6
BYLAYER
 10
96.2834026110286771
 20
4.1326670867078299
 30
0.0
 11
96.1596645993766543
 21
4.2041072610440455
 31
0.0
  0
LINE
  5
102
100
AcDbEntity
100
AcDbLine
  8
0
 62
3
420
65280
370
-1
 48
1.0
  6
BYLAYER
 10
95.8171234388739066
 20
4.2042740820309294
 30
0.0
 11
95.693337292026456
 21
4.1328061168266821
 31
0.0
  0
LINE
  5
103
100
AcDbEntity
100
AcDbLine
  8
0
 62
1
420
16711680
370
-1
 48
1.0
  6
BYLAYER
 10
95.516074182763802
 20
4.4398348283776787
 30
0.0
 11
95.6398603296111389
 21
4.5113027935819261
 31
0.0
  0
LINE
  5
104
100
AcDbEntity
100
AcDbLine
  8
0
 62
1
420
16711680
370
-1
 48
1.0
  6
BYLAYER
 10
95.2762089153422949
 20
4.8552936585236282
 30
0.0
 11
95.3999950621895181
 21
4.9267616237278773
 31
0.0
  0
LINE
  5
105
100
AcDbEntity
100
AcDbLine
  8
0
 62
1
420
16711680
370
-1
 48
1.0
  6
BYLAYER
 10
95.2761885286154921
 20
4.7392693521998215
 30
0.0
 11
94.9854346229437567
 21
4.571402506492273
 31
0.0
  0
LINE
  5
106
100
AcDbEntity
100
AcDbLine
  8
0
 62
1
420
16711680
370
-1
 48
1.0
  6
BYLAYER
 10
95.4156154786152939
 20
4.4977747908553098
 30
0.0
 11
95.1248615729437859
 21
4.3299079451479336
 31
0.0
  0
LINE
  5
107
100
AcDbEntity
100
AcDbLine
  8
0
 62
1
420
16711680
370
-1
 48
1.0
  6
BYLAYER
 10
95.7476977075620539
 20
5.529150642479177
 30
0.0
 11
95.7476977075620539
 21
5.6720878796266092
 31
0.0
  0
LINE
  5
108
100
AcDbEntity
100
AcDbLine
  8
0
 62
1
420
16711680
370
-1
 48
1.0
  6
BYLAYER
 10
96.2272331095115021
 20
5.5291506424788395
 30
0.0
 11
96.2272331095115021
 21
5.6720878796262735
 31
0.0
  0
CIRCLE
  5
109
100
AcDbEntity
100
AcDbCircle
  8
0
 62
3
420
65280
370
-1
 48
1.0
  6
BYLAYER
 10
91.4999999999999858
 20
8.4000000000000199
 30
0.0
 40
0.0538785000000007
  0
CIRCLE
  5
10A
100
AcDbEntity
100
AcDbCircle
  8
0
 62
3
420
65280
370
-1
 48
1.0
  6
BYLAYER
 10
88.8999999999999915
 20
8.4000000000000199
 30
0.0
 40
0.0538785000000007
  0
CIRCLE
  5
10B
100
AcDbEntity
100
AcDbCircle
  8
0
 62
3
420
65280
370
-1
 48
1.0
  6
BYLAYER
 10
94.0999999999999943
 20
8.4000000000000199
 30
0.0
 40
0.0538785000000007
  0
CIRCLE
  5
10C
100
AcDbEntity
100
AcDbCircle
  8
0
 62
3
420
65280
370
-1
 48
1.0
  6
BYLAYER
 10
91.4999999999999858
 20
7.7000000000000206
 30
0.0
 40
0.0538785000000007
  0
CIRCLE
  5
10D
100
AcDbEntity
100
AcDbCircle
  8
0
 62
3
420
65280
370
-1
 48
1.0
  6
BYLAYER
 10
91.4999999999999858
 20
9.0999999999999996
 30
0.0
 40
0.0538785000000007
  0
CIRCLE
  5
10E
100
AcDbEntity
100
AcDbCircle
  8
0
 62
3
420
65280
370
-1
 48
1.0
  6
BYLAYER
 10
88.8999999999999915
 20
7.7000000000000206
 30
0.0
 40
0.0538785000000007
  0
CIRCLE
  5
10F
100
AcDbEntity
100
AcDbCircle
  8
0
 62
3
420
65280
370
-1
 48
1.0
  6
BYLAYER
 10
94.0999999999999943
 20
7.7000000000000206
 30
0.0
 40
0.0538785000000007
  0
CIRCLE
  5
110
100
AcDbEntity
100
AcDbCircle
  8
0
 62
3
420
65280
370
-1
 48
1.0
  6
BYLAYER
 10
94.0999999999999943
 20
9.0999999999999996
 30
0.0
 40
0.0538785000000007
  0
CIRCLE
  5
111
100
AcDbEntity
100
AcDbCircle
  8
0
 62
3
420
65280
370
-1
 48
1.0
  6
BYLAYER
 10
88.8999999999999915
 20
9.0999999999999996
 30
0.0
 40
0.0538785000000007
  0
LINE
  5
112
100
AcDbEntity
100
AcDbLine
  8
0
 62
3
420
65280
370
-1
 48
1.0
  6
BYLAYER
 10
91.0329368114945083
 20
4.7587616130458636
 30
0.0
 11
90.9826815230831727
 21
4.7297467087533365
 31
0.0
  0
LINE
  5
113
100
AcDbEntity
100
AcDbLine
  8
0
 62
3
420
65280
370
-1
 48
1.0
  6
BYLAYER
 10
91.2069817560896468
 20
4.8592465086589778
 30
0.0
 11
91.156722958341831
 21
4.8302295782501563
 31
0.0
  0
LINE
  5
114
100
AcDbEntity
100
AcDbLine
  8
0
 62
3
420
65280
370
-1
 48
1.0
  6
BYLAYER
 10
92.0434363295007643
 20
5.309025661925725
 30
0.0
 11
92.0935988568573833
 21
5.280064313253078
 31
0.0
  0
LINE
  5
115
100
AcDbEntity
100
AcDbLine
  8
0
 62
3
420
65280
370
-1
 48
1.0
  6
BYLAYER
 10
92.2173368685093777
 20
5.2086241389168224
 30
0.0
 11
92.2677159194388139
 21
5.179537780301211
 31
0.0
  0
LINE
  5
116
100
AcDbEntity
100
AcDbLine
  8
0
 62
3
420
65280
370
-1
 48
1.0
  6
BYLAYER
 10
91.7540957382421993
 20
5.8073614609277477
 30
0.0
 11
91.7540957382421993
 21
5.8653979352227115
 31
0.0
  0
CIRCLE
  5
117
100
AcDbEntity
100
AcDbCircle
  8
0
 62
3
420
65280
370
-1
 48
1.0
  6
BYLAYER
 10
94.5349999999999824
 20
8.4000000000000199
 30
0.0
 40
0.25
  0
CIRCLE
  5
118
100
AcDbEntity
100
AcDbCircle
  8
0
 62
3
420
65280
370
-1
 48
1.0
  6
BYLAYER
 10
88.4649999999999892
 20
8.4000000000000217
 30
0.0
 40
0.25
  0
CIRCLE
  5
119
100
AcDbEntity
100
AcDbCircle
  8
0
 62
3
420
65280
370
-1
 48
1.0
  6
BYLAYER
 10
94.5349999999999824
 20
9.0999999999999996
 30
0.0
 40
0.25
  0
CIRCLE
  5
11A
100
AcDbEntity
100
AcDbCircle
  8
0
 62
3
420
65280
370
-1
 48
1.0
  6
BYLAYER
 10
88.4649999999999892
 20
9.1000000000000014
 30
0.0
 40
0.25
  0
CIRCLE
  5
11B
100
AcDbEntity
100
AcDbCircle
  8
0
 62
3
420
65280
370
-1
 48
1.0
  6
BYLAYER
 10
94.5349999999999824
 20
7.7000000000000206
 30
0.0
 40
0.25
  0
CIRCLE
  5
11C
100
AcDbEntity
100
AcDbCircle
  8
0
 62
3
420
65280
370
-1
 48
1.0
  6
BYLAYER
 10
88.4649999999999892
 20
7.7000000000000224
 30
0.0
 40
0.25
  0
LINE
  5
11D
100
AcDbEntity
100
AcDbLine
  8
0
 62
256
370
-1
 48
1.0
  6
BYLAYER
 10
88.4649999999999892
 20
8.7500000000000124
 30
0.0
 11
94.5349999999999824
 21
8.7500000000000107
 31
0.0
  0
LINE
  5
11E
100
AcDbEntity
100
AcDbLine
  8
0
 62
256
370
-1
 48
1.0
  6
BYLAYER
 10
88.4649999999999892
 20
7.3500000000000316
 30
0.0
 11
94.5349999999999824
 21
7.3500000000000298
 31
0.0
  0
LINE
  5
11F
100
AcDbEntity
100
AcDbLine
  8
0
 62
256
370
-1
 48
1.0
  6
BYLAYER
 10
88.4649999999999892
 20
8.0500000000000131
 30
0.0
 11
94.5349999999999824
 21
8.0500000000000114
 31
0.0
  0
LINE
  5
120
100
AcDbEntity
100
AcDbLine
  8
0
 62
3
420
65280
370
-1
 48
1.0
  6
BYLAYER
 10
90.4791216797231783
 20
5.5198775592752298
 30
0.0
 11
90.7744847795685814
 21
5.6904055244795648
 31
0.0
  0
LINE
  5
121
100
AcDbEntity
100
AcDbLine
  8
0
 62
3
420
65280
370
-1
 48
1.0
  6
BYLAYER
 10
92.1705887557148031
 20
5.7695843521587653
 30
0.0
 11
92.1705887557146752
 21
6.1041487554337515
 31
0.0
  0
LINE
  5
122
100
AcDbEntity
100
AcDbLine
  8
0
 62
256
370
-1
 48
1.0
  6
BYLAYER
 10
92.2910465713839159
 20
6.3999999999999995
 30
0.0
 11
91.4943692266433857
 21
6.7983386723702655
 31
0.0
  0
LINE
  5
123
100
AcDbEntity
100
AcDbLine
  8
0
 62
256
370
-1
 48
1.0
  6
BYLAYER
 10
90.6976918819028555
 20
6.3999999999999995
 30
0.0
 11
91.4943692266433857
 21
6.7983386723702655
 31
0.0
  0
ARC
  5
124
100
AcDbEntity
  8
0
 62
256
370
-1
 48
1.0
  6
BYLAYER
100
AcDbCircle
 10
88.4649999999999892
 20
8.4000000000000217
 30
0.0
 40
0.3499999999999904
100
AcDbArc
 50
90.0
 51
270.0
  0
ARC
  5
125
100
AcDbEntity
  8
0
 62
256
370
-1
 48
1.0
  6
BYLAYER
100
AcDbCircle
 10
88.4649999999999892
 20
9.1000000000000014
 30
0.0
 40
0.3499999999999904
100
AcDbArc
 50
90.0
 51
270.0
  0
ARC
  5
126
100
AcDbEntity
  8
0
 62
256
370
-1
 48
1.0
  6
BYLAYER
100
AcDbCircle
 10
88.4649999999999892
 20
7.7000000000000224
 30
0.0
 40
0.3499999999999904
100
AcDbArc
 50
90.0
 51
270.0
  0
ARC
  5
127
100
AcDbEntity
  8
0
 62
256
370
-1
 48
1.0
  6
BYLAYER
100
AcDbCircle
 10
94.5349999999999824
 20
8.4000000000000199
 30
0.0
 40
0.3499999999999904
100
AcDbArc
 50
270.0
 51
90.0
  0
ARC
  5
128
100
AcDbEntity
  8
0
 62
256
370
-1
 48
1.0
  6
BYLAYER
100
AcDbCircle
 10
94.5349999999999824
 20
9.0999999999999996
 30
0.0
 40
0.3499999999999904
100
AcDbArc
 50
270.0
 51
90.0
  0
ARC
  5
129
100
AcDbEntity
  8
0
 62
256
370
-1
 48
1.0
  6
BYLAYER
100
AcDbCircle
 10
94.5349999999999824
 20
7.7000000000000206
 30
0.0
 40
0.3499999999999904
100
AcDbArc
 50
270.0
 51
90.0
  0
LINE
  5
12A
100
AcDbEntity
100
AcDbLine
  8
0
 62
256
370
-1
 48
1.0
  6
BYLAYER
 10
93.7849999999999824
 20
9.6499999999999915
 30
0.0
 11
93.7849999999999824
 21
8.7500000000000107
 31
0.0
  0
LINE
  5
12B
100
AcDbEntity
100
AcDbLine
  8
0
 62
256
370
-1
 48
1.0
  6
BYLAYER
 10
89.085000000000008
 20
9.6499999999999844
 30
0.0
 11
89.085000000000008
 21
8.7500000000000036
 31
0.0
  0
LINE
  5
12C
100
AcDbEntity
100
AcDbLine
  8
0
 62
6
420
16711935
370
-1
 48
1.0
  6
BYLAYER
 10
92.5522384532868045
 20
6.3282499999999704
 30
0.0
 11
92.5522384532868045
 21
5.6282499999999889
 31
0.0
  0
LINE
  5
12D
100
AcDbEntity
100
AcDbLine
  8
0
 62
6
420
16711935
370
-1
 48
1.0
  6
BYLAYER
 10
92.8252384532868007
 20
6.3282499999999731
 30
0.0
 11
92.8252384532868007
 21
5.6282499999999915
 31
0.0
  0
LINE
  5
12E
100
AcDbEntity
100
AcDbLine
  8
0
 62
6
420
16711935
370
-1
 48
1.0
  6
BYLAYER
 10
92.961738453286813
 20
6.3282499999999722
 30
0.0
 11
92.961738453286813
 21
5.6282499999999906
 31
0.0
  0
LINE
  5
12F
100
AcDbEntity
100
AcDbLine
  8
0
 62
6
420
16711935
370
-1
 48
1.0
  6
BYLAYER
 10
92.8252384532868149
 20
6.3282499999999722
 30
0.0
 11
92.8252384532868149
 21
5.6282499999999906
 31
0.0
  0
LINE
  5
130
100
AcDbEntity
100
AcDbLine
  8
0
 62
6
420
16711935
370
-1
 48
1.0
  6
BYLAYER
 10
90.1634999999999565
 20
6.3282499999999731
 30
0.0
 11
90.1634999999999565
 21
5.6282499999999915
 31
0.0
  0
LINE
  5
131
100
AcDbEntity
100
AcDbLine
  8
0
 62
6
420
16711935
370
-1
 48
1.0
  6
BYLAYER
 10
90.0269999999999442
 20
6.3282499999999722
 30
0.0
 11
90.0269999999999442
 21
5.6282499999999906
 31
0.0
  0
LINE
  5
132
100
AcDbEntity
100
AcDbLine
  8
0
 62
256
370
-1
 48
1.0
  6
BYLAYER
 10
93.9150000000000347
 20
9.6499999999999631
 30
0.0
 11
93.9150000000000347
 21
8.7499999999999822
 31
0.0
  0
LINE
  5
133
100
AcDbEntity
100
AcDbLine
  8
0
 62
6
420
16711935
370
-1
 48
1.0
  6
BYLAYER
 10
90.3000000000000398
 20
6.3282499999999731
 30
0.0
 11
90.3000000000000398
 21
5.6282499999999915
 31
0.0
  0
LINE
  5
134
100
AcDbEntity
100
AcDbLine
  8
0
 62
6
420
16711935
370
-1
 48
1.0
  6
BYLAYER
 10
90.4365000000000521
 20
6.328249999999974
 30
0.0
 11
90.4365000000000521
 21
5.6282499999999924
 31
0.0
  0
LINE
  5
135
100
AcDbEntity
100
AcDbLine
  8
0
 62
256
370
-1
 48
1.0
  6
BYLAYER
 10
89.2149999999999892
 20
9.6499999999999915
 30
0.0
 11
89.2149999999999892
 21
8.7500000000000107
 31
0.0
  0
LINE
  5
136
100
AcDbEntity
100
AcDbLine
  8
0
 62
6
420
16711935
370
-1
 48
1.0
  6
BYLAYER
 10
92.8252384532867865
 20
6.3282499999999731
 30
0.0
 11
92.8252384532867865
 21
5.6282499999999915
 31
0.0
  0
LINE
  5
137
100
AcDbEntity
100
AcDbLine
  8
0
 62
6
420
16711935
370
-1
 48
1.0
  6
BYLAYER
 10
92.6887384532867742
 20
6.328249999999974
 30
0.0
 11
92.6887384532867742
 21
5.6282499999999924
 31
0.0
  0
LINE
  5
138
100
AcDbEntity
100
AcDbLine
  8
0
 62
256
370
-1
 48
1.0
  6
BYLAYER
 10
94.5350000000000108
 20
9.4499999999999726
 30
0.0
 11
94.0532500000000198
 21
9.8499999999999712
 31
0.0
  0
LINE
  5
139
100
AcDbEntity
100
AcDbLine
  8
0
 62
256
370
-1
 48
1.0
  6
BYLAYER
 10
88.4649999999999892
 20
9.4499999999999922
 30
0.0
 11
88.9467499999999802
 21
9.8499999999999908
 31
0.0
  0
LINE
  5
13A
100
AcDbEntity
100
AcDbLine
  8
0
 62
256
370
-1
 48
1.0
  6
BYLAYER
 10
90.0270000000000437
 20
6.5827267143080288
 30
0.0
 11
90.1634999999999991
 21
6.5827267143080288
 31
0.0
  0
LINE
  5
13B
100
AcDbEntity
100
AcDbLine
  8
0
 62
256
370
-1
 48
1.0
  6
BYLAYER
 10
92.9617384532867419
 20
6.5827267143080173
 30
0.0
 11
92.8252384532867865
 21
6.5827267143080173
 31
0.0
  0
LINE
  5
13C
100
AcDbEntity
100
AcDbLine
  8
0
 62
256
370
-1
 48
1.0
  6
BYLAYER
 10
92.8252384532867723
 20
6.5282499999999741
 30
0.0
 11
92.6887384532868168
 21
6.5282499999999741
 31
0.0
  0
LINE
  5
13D
100
AcDbEntity
100
AcDbLine
  8
0
 62
256
370
-1
 48
1.0
  6
BYLAYER
 10
90.1635000000000133
 20
6.5282499999999741
 30
0.0
 11
90.2999999999999687
 21
6.5282499999999741
 31
0.0
  0
LINE
  5
13E
100
AcDbEntity
100
AcDbLine
  8
0
 62
256
370
-1
 48
1.0
  6
BYLAYER
 10
92.6887384532868168
 20
6.5282499999999741
 30
0.0
 11
92.6887384532868168
 21
6.5827267143080173
 31
0.0
  0
LINE
  5
13F
100
AcDbEntity
100
AcDbLine
  8
0
 62
256
370
-1
 48
1.0
  6
BYLAYER
 10
92.8252384532867723
 20
6.5282499999999741
 30
0.0
 11
92.8252384532867723
 21
6.5827267143080173
 31
0.0
  0
LINE
  5
140
100
AcDbEntity
100
AcDbLine
  8
0
 62
256
370
-1
 48
1.0
  6
BYLAYER
 10
92.8252384532867723
 20
6.5282499999999732
 30
0.0
 11
92.8252384532867723
 21
6.5827267143080164
 31
0.0
  0
LINE
  5
141
100
AcDbEntity
100
AcDbLine
  8
0
 62
256
370
-1
 48
1.0
  6
BYLAYER
 10
90.300000000000054
 20
6.5282499999999741
 30
0.0
 11
90.300000000000054
 21
6.5827267143080173
 31
0.0
  0
LINE
  5
142
100
AcDbEntity
100
AcDbLine
  8
0
 62
256
370
-1
 48
1.0
  6
BYLAYER
 10
90.1635000000000133
 20
6.5282499999999741
 30
0.0
 11
90.1635000000000133
 21
6.5827267143080173
 31
0.0
  0
LINE
  5
143
100
AcDbEntity
100
AcDbLine
  8
0
 62
256
370
-1
 48
1.0
  6
BYLAYER
 10
90.1634999999999991
 20
6.5282499999999732
 30
0.0
 11
90.1634999999999991
 21
6.5827267143080164
 31
0.0
  0
LINE
  5
144
100
AcDbEntity
100
AcDbLine
  8
0
 62
256
370
-1
 48
1.0
  6
BYLAYER
 10
92.9617384532867419
 20
6.5827267143080164
 30
0.0
 11
93.0999999999999943
 21
6.3999999999999977
 31
0.0
  0
LINE
  5
145
100
AcDbEntity
100
AcDbLine
  8
0
 62
256
370
-1
 48
1.0
  6
BYLAYER
 10
92.5522384532867193
 20
6.5827267143080173
 30
0.0
 11
92.2910465713839159
 21
6.5827267143080173
 31
0.0
  0
LINE
  5
146
100
AcDbEntity
100
AcDbLine
  8
0
 62
256
370
-1
 48
1.0
  6
BYLAYER
 10
90.0270000000000294
 20
6.5827267143080164
 30
0.0
 11
89.888738453286777
 21
6.3999999999999977
 31
0.0
  0
LINE
  5
147
100
AcDbEntity
100
AcDbLine
  8
0
 62
256
370
-1
 48
1.0
  6
BYLAYER
 10
90.4365000000000521
 20
6.5827267143080173
 30
0.0
 11
90.6976918819028555
 21
6.5827267143080173
 31
0.0
  0
LINE
  5
148
100
AcDbEntity
100
AcDbLine
  8
0
 62
256
370
-1
 48
1.0
  6
BYLAYER
 10
93.0999999999999943
 20
5.1743386723702649
 30
0.0
 11
93.0999999999999943
 21
6.3999999999999977
 31
0.0
  0
LINE
  5
149
100
AcDbEntity
100
AcDbLine
  8
0
 62
256
370
-1
 48
1.0
  6
BYLAYER
 10
89.888738453286777
 20
5.1743386723702649
 30
0.0
 11
89.888738453286777
 21
6.3999999999999977
 31
0.0
  0
LINE
  5
14A
100
AcDbEntity
100
AcDbLine
  8
0
 62
256
370
-1
 48
1.0
  6
BYLAYER
 10
93.0999999999999943
 20
5.1743386723702649
 30
0.0
 11
92.7808114224073393
 21
4.5753386723702452
 31
0.0
  0
LINE
  5
14B
100
AcDbEntity
100
AcDbLine
  8
0
 62
256
370
-1
 48
1.0
  6
BYLAYER
 10
89.888738453286777
 20
5.1743386723702649
 30
0.0
 11
90.2079270308794321
 21
4.5753386723702452
 31
0.0
  0
LINE
  5
14C
100
AcDbEntity
100
AcDbLine
  8
0
 62
256
370
-1
 48
1.0
  6
BYLAYER
 10
90.7887384532867685
 20
4.1000000000000005
 30
0.0
 11
92.1999999999999886
 21
4.0999999999999934
 31
0.0
  0
LINE
  5
14D
100
AcDbEntity
100
AcDbLine
  8
0
 62
256
370
-1
 48
1.0
  6
BYLAYER
 10
90.6976918819028555
 20
6.3999999999999995
 30
0.0
 11
90.6976918819028555
 21
6.5827267143080173
 31
0.0
  0
LINE
  5
14E
100
AcDbEntity
100
AcDbLine
  8
0
 62
256
370
-1
 48
1.0
  6
BYLAYER
 10
92.2910465713839159
 20
6.3999999999999995
 30
0.0
 11
92.2910465713839159
 21
6.5827267143080173
 31
0.0
  0
LINE
  5
14F
100
AcDbEntity
100
AcDbLine
  8
0
 62
256
370
-1
 48
1.0
  6
BYLAYER
 10
89.9461214999999896
 20
9.4499999999999726
 30
0.0
 11
89.8284999999999911
 21
9.4499999999999726
 31
0.0
  0
LINE
  5
150
100
AcDbEntity
100
AcDbLine
  8
0
 62
256
370
-1
 48
1.0
  6
BYLAYER
 10
92.9461292576538369
 20
9.4499999999999904
 30
0.0
 11
90.0538784999999962
 21
9.4499999999999744
 31
0.0
  0
LINE
  5
151
100
AcDbEntity
100
AcDbLine
  8
0
 62
256
370
-1
 48
1.0
  6
BYLAYER
 10
93.053878499999982
 20
9.4499999999999922
 30
0.0
 11
93.1714999999999804
 21
9.4499999999999904
 31
0.0
  0
LINE
  5
152
100
AcDbEntity
100
AcDbLine
  8
0
 62
256
370
-1
 48
1.0
  6
BYLAYER
 10
92.9461214999999754
 20
9.3499999551083341
 30
0.0
 11
92.9461214999999754
 21
9.4499999551083356
 31
0.0
  0
LINE
  5
153
100
AcDbEntity
100
AcDbLine
  8
0
 62
256
370
-1
 48
1.0
  6
BYLAYER
 10
93.053878499999982
 20
9.3499999999999908
 30
0.0
 11
93.053878499999982
 21
9.4499999999999922
 31
0.0
  0
LINE
  5
154
100
AcDbEntity
100
AcDbLine
  8
0
 62
256
370
-1
 48
1.0
  6
BYLAYER
 10
89.9461214999999896
 20
9.3499999991117928
 30
0.0
 11
89.9461214999999896
 21
9.4499999991117942
 31
0.0
  0
LINE
  5
155
100
AcDbEntity
100
AcDbLine
  8
0
 62
256
370
-1
 48
1.0
  6
BYLAYER
 10
90.0538784999999962
 20
9.3500000440034494
 30
0.0
 11
90.0538784999999962
 21
9.4500000440034508
 31
0.0
  0
LINE
  5
156
100
AcDbEntity
100
AcDbLine
  8
0
 62
256
370
-1
 48
1.0
  6
BYLAYER
 10
93.053878499999982
 20
9.3499999999999908
 30
0.0
 11
93.1077569999999781
 21
9.3499999999999908
 31
0.0
  0
LINE
  5
157
100
AcDbEntity
100
AcDbLine
  8
0
 62
256
370
-1
 48
1.0
  6
BYLAYER
 10
90.0538784999999962
 20
9.3500000440034494
 30
0.0
 11
90.1077569999999923
 21
9.3500000440034494
 31
0.0
  0
LINE
  5
158
100
AcDbEntity
100
AcDbLine
  8
0
 62
256
370
-1
 48
1.0
  6
BYLAYER
 10
92.9461215427725449
 20
9.2961214775541698
 30
0.0
 11
92.9461215427725449
 21
9.2038784784423626
 31
0.0
  0
LINE
  5
159
100
AcDbEntity
100
AcDbLine
  8
0
 62
256
370
-1
 48
1.0
  6
BYLAYER
 10
89.9461215427725591
 20
9.2961215215576285
 30
0.0
 11
89.9461215427725591
 21
9.2038785224458213
 31
0.0
  0
LINE
  5
15A
100
AcDbEntity
100
AcDbLine
  8
0
 62
256
370
-1
 48
1.0
  6
BYLAYER
 10
93.0538784999999962
 20
9.2961215224458087
 30
0.0
 11
93.0538784999999962
 21
9.2038784784423626
 31
0.0
  0
LINE
  5
15B
100
AcDbEntity
100
AcDbLine
  8
0
 62
256
370
-1
 48
1.0
  6
BYLAYER
 10
90.0538785000000104
 20
9.2961215664492673
 30
0.0
 11
90.0538785000000104
 21
9.2038785224458213
 31
0.0
  0
LINE
  5
15C
100
AcDbEntity
100
AcDbLine
  8
0
 62
256
370
-1
 48
1.0
  6
BYLAYER
 10
92.9461215427725449
 20
9.2038784784423626
 30
0.0
 11
93.0538784999999962
 21
9.2038784784423626
 31
0.0
  0
LINE
  5
15D
100
AcDbEntity
100
AcDbLine
  8
0
 62
256
370
-1
 48
1.0
  6
BYLAYER
 10
89.9461215427725591
 20
9.2038785224458213
 30
0.0
 11
90.0538785000000104
 21
9.2038785224458213
 31
0.0
  0
LINE
  5
15E
100
AcDbEntity
100
AcDbLine
  8
0
 62
256
370
-1
 48
1.0
  6
BYLAYER
 10
90.1077569999999923
 20
8.5961214775541919
 30
0.0
 11
89.8922429999999792
 21
8.5961214775541901
 31
0.0
  0
LINE
  5
15F
100
AcDbEntity
100
AcDbLine
  8
0
 62
256
370
-1
 48
1.0
  6
BYLAYER
 10
93.1077569999999923
 20
8.5961214775541919
 30
0.0
 11
92.8922429999999792
 21
8.5961214775541901
 31
0.0
  0
LINE
  5
160
100
AcDbEntity
100
AcDbLine
  8
0
 62
256
370
-1
 48
1.0
  6
BYLAYER
 10
93.1077569999999923
 20
7.8961214775541926
 30
0.0
 11
92.8922429999999792
 21
7.8961214775541908
 31
0.0
  0
LINE
  5
161
100
AcDbEntity
100
AcDbLine
  8
0
 62
256
370
-1
 48
1.0
  6
BYLAYER
 10
90.1077569999999923
 20
7.8961214775541926
 30
0.0
 11
89.8922429999999792
 21
7.8961214775541908
 31
0.0
  0
LINE
  5
162
100
AcDbEntity
100
AcDbLine
  8
0
 62
256
370
-1
 48
1.0
  6
BYLAYER
 10
92.9461215427725449
 20
9.2961214775541698
 30
0.0
 11
92.8922429999999792
 21
9.2961214775541698
 31
0.0
  0
LINE
  5
163
100
AcDbEntity
100
AcDbLine
  8
0
 62
256
370
-1
 48
1.0
  6
BYLAYER
 10
89.9461215427725591
 20
9.2961215215576285
 30
0.0
 11
89.8922429999999935
 21
9.2961215215576285
 31
0.0
  0
LINE
  5
164
100
AcDbEntity
100
AcDbLine
  8
0
 62
256
370
-1
 48
1.0
  6
BYLAYER
 10
93.0538784999999962
 20
9.2961214775541698
 30
0.0
 11
93.1077569999999923
 21
9.2961214775541698
 31
0.0
  0
LINE
  5
165
100
AcDbEntity
100
AcDbLine
  8
0
 62
256
370
-1
 48
1.0
  6
BYLAYER
 10
90.0538785000000104
 20
9.2961215215576285
 30
0.0
 11
90.1077570000000065
 21
9.2961215215576285
 31
0.0
  0
LINE
  5
166
100
AcDbEntity
100
AcDbLine
  8
0
 62
256
370
-1
 48
1.0
  6
BYLAYER
 10
90.1077569999999781
 20
8.6500000000000128
 30
0.0
 11
89.8922429999999792
 21
8.6499999551083544
 31
0.0
  0
LINE
  5
167
100
AcDbEntity
100
AcDbLine
  8
0
 62
256
370
-1
 48
1.0
  6
BYLAYER
 10
93.1077569999999781
 20
8.6500000000000128
 30
0.0
 11
92.8922429999999792
 21
8.6499999551083544
 31
0.0
  0
LINE
  5
168
100
AcDbEntity
100
AcDbLine
  8
0
 62
256
370
-1
 48
1.0
  6
BYLAYER
 10
93.1077569999999781
 20
7.9500000000000135
 30
0.0
 11
92.8922429999999792
 21
7.9499999551083551
 31
0.0
  0
LINE
  5
169
100
AcDbEntity
100
AcDbLine
  8
0
 62
256
370
-1
 48
1.0
  6
BYLAYER
 10
90.1077569999999781
 20
7.9500000000000135
 30
0.0
 11
89.8922429999999792
 21
7.9499999551083551
 31
0.0
  0
LINE
  5
16A
100
AcDbEntity
100
AcDbLine
  8
0
 62
256
370
-1
 48
1.0
  6
BYLAYER
 10
92.9461214999999754
 20
9.3499999551083341
 30
0.0
 11
92.8922429999999792
 21
9.3499999551083341
 31
0.0
  0
LINE
  5
16B
100
AcDbEntity
100
AcDbLine
  8
0
 62
256
370
-1
 48
1.0
  6
BYLAYER
 10
89.9461214999999896
 20
9.3499999991117928
 30
0.0
 11
89.8922429999999935
 21
9.3499999991117928
 31
0.0
  0
LINE
  5
16C
100
AcDbEntity
100
AcDbLine
  8
0
 62
256
370
-1
 48
1.0
  6
BYLAYER
 10
93.1077569999999781
 20
8.6500000000000128
 30
0.0
 11
93.1077569999999923
 21
8.5961214775541919
 31
0.0
  0
LINE
  5
16D
100
AcDbEntity
100
AcDbLine
  8
0
 62
256
370
-1
 48
1.0
  6
BYLAYER
 10
90.1077569999999781
 20
8.6500000000000128
 30
0.0
 11
90.1077569999999923
 21
8.5961214775541919
 31
0.0
  0
LINE
  5
16E
100
AcDbEntity
100
AcDbLine
  8
0
 62
256
370
-1
 48
1.0
  6
BYLAYER
 10
93.1077569999999781
 20
7.9500000000000135
 30
0.0
 11
93.1077569999999923
 21
7.8961214775541926
 31
0.0
  0
LINE
  5
16F
100
AcDbEntity
100
AcDbLine
  8
0
 62
256
370
-1
 48
1.0
  6
BYLAYER
 10
90.1077569999999781
 20
7.9500000000000135
 30
0.0
 11
90.1077569999999923
 21
7.8961214775541926
 31
0.0
  0
LINE
  5
170
100
AcDbEntity
100
AcDbLine
  8
0
 62
256
370
-1
 48
1.0
  6
BYLAYER
 10
93.1077569999999781
 20
9.3499999999999925
 30
0.0
 11
93.1077569999999923
 21
9.2961214775541716
 31
0.0
  0
LINE
  5
171
100
AcDbEntity
100
AcDbLine
  8
0
 62
256
370
-1
 48
1.0
  6
BYLAYER
 10
90.1077569999999923
 20
9.3500000440034512
 30
0.0
 11
90.1077570000000065
 21
9.2961215215576303
 31
0.0
  0
LINE
  5
172
100
AcDbEntity
100
AcDbLine
  8
0
 62
256
370
-1
 48
1.0
  6
BYLAYER
 10
92.892242999999965
 20
8.6499999551083544
 30
0.0
 11
92.892242999999965
 21
8.5961214775541919
 31
0.0
  0
LINE
  5
173
100
AcDbEntity
100
AcDbLine
  8
0
 62
256
370
-1
 48
1.0
  6
BYLAYER
 10
89.892242999999965
 20
8.6499999551083544
 30
0.0
 11
89.892242999999965
 21
8.5961214775541919
 31
0.0
  0
LINE
  5
174
100
AcDbEntity
100
AcDbLine
  8
0
 62
256
370
-1
 48
1.0
  6
BYLAYER
 10
92.892242999999965
 20
7.9499999551083551
 30
0.0
 11
92.892242999999965
 21
7.8961214775541926
 31
0.0
  0
LINE
  5
175
100
AcDbEntity
100
AcDbLine
  8
0
 62
256
370
-1
 48
1.0
  6
BYLAYER
 10
89.892242999999965
 20
7.9499999551083551
 30
0.0
 11
89.892242999999965
 21
7.8961214775541926
 31
0.0
  0
LINE
  5
176
100
AcDbEntity
100
AcDbLine
  8
0
 62
256
370
-1
 48
1.0
  6
BYLAYER
 10
92.892242999999965
 20
9.3499999551083341
 30
0.0
 11
92.892242999999965
 21
9.2961214775541716
 31
0.0
  0
LINE
  5
177
100
AcDbEntity
100
AcDbLine
  8
0
 62
256
370
-1
 48
1.0
  6
BYLAYER
 10
89.8922429999999792
 20
9.3499999991117928
 30
0.0
 11
89.8922429999999792
 21
9.2961215215576303
 31
0.0
  0
LINE
  5
178
100
AcDbEntity
100
AcDbLine
  8
0
 62
3
420
65280
370
-1
 48
1.0
  6
BYLAYER
 10
91.2545603362926414
 20
6.0083351723704785
 30
0.0
 11
91.2545603362927551
 21
6.0646657026444251
 31
0.0
  0
LINE
  5
179
100
AcDbEntity
100
AcDbLine
  8
0
 62
3
420
65280
370
-1
 48
1.0
  6
BYLAYER
 10
91.7540957382421993
 20
6.008335172370141
 30
0.0
 11
91.7540957382421993
 21
6.0646657026444251
 31
0.0
  0
LINE
  5
17A
100
AcDbEntity
100
AcDbLine
  8
0
 62
3
420
65280
370
-1
 48
1.0
  6
BYLAYER
 10
91.6337961766434006
 20
6.0646657026444251
 30
0.0
 11
91.6337961766434006
 21
6.4020986723702871
 31
0.0
  0
LINE
  5
17B
100
AcDbEntity
100
AcDbLine
  8
0
 62
256
370
-1
 48
1.0
  6
BYLAYER
 10
89.8285000000000053
 20
9.4499999999999726
 30
0.0
 11
89.8285000000000053
 21
9.499999999999984
 31
0.0
  0
LINE
  5
17C
100
AcDbEntity
100
AcDbLine
  8
0
 62
256
370
-1
 48
1.0
  6
BYLAYER
 10
93.1714999999999804
 20
9.4499999999999886
 30
0.0
 11
93.1714999999999804
 21
9.5
 31
0.0
  0
LINE
  5
17D
100
AcDbEntity
100
AcDbLine
  8
0
 62
256
370
-1
 48
1.0
  6
BYLAYER
 10
89.8285000000000053
 20
9.499999999999984
 30
0.0
 11
89.7583398080387411
 21
9.499999999999984
 31
0.0
  0
LINE
  5
17E
100
AcDbEntity
100
AcDbLine
  8
0
 62
256
370
-1
 48
1.0
  6
BYLAYER
 10
93.1714999999999804
 20
9.5
 30
0.0
 11
93.2416601919612447
 21
9.5
 31
0.0
  0
LINE
  5
17F
100
AcDbEntity
100
AcDbLine
  8
0
 62
256
370
-1
 48
1.0
  6
BYLAYER
 10
93.6532499999999999
 20
9.8500000000000068
 30
0.0
 11
93.2416601919612447
 21
9.5
 31
0.0
  0
LINE
  5
180
100
AcDbEntity
100
AcDbLine
  8
0
 62
256
370
-1
 48
1.0
  6
BYLAYER
 10
89.3467499999999575
 20
9.8500000000000103
 30
0.0
 11
89.7583398080387411
 21
9.499999999999984
 31
0.0
  0
LINE
  5
181
100
AcDbEntity
100
AcDbLine
  8
0
 62
256
370
-1
 48
1.0
  6
BYLAYER
 10
88.9467499999999802
 20
9.8499999999999908
 30
0.0
 11
89.3467499999999575
 21
9.8500000000000103
 31
0.0
  0
LINE
  5
182
100
AcDbEntity
100
AcDbLine
  8
0
 62
256
370
-1
 48
1.0
  6
BYLAYER
 10
93.6532499999999999
 20
9.8500000000000068
 30
0.0
 11
94.0532500000000198
 21
9.8499999999999712
 31
0.0
  0
ENDSEC
  0
SECTION
  2
OBJECTS
  0
DICTIONARY
  5
C
100
AcDbDictionary
280
0
281
1
  3
ACAD_GROUP
350
D
  3
ACAD_LAYOUT
350
1A
  3
ACAD_MLINESTYLE
350
17
  3
ACAD_PLOTSETTINGS
350
19
  3
ACAD_PLOTSTYLENAME
350
E
  3
AcDbVariableDictionary
350
183
  3
QCAD_OBJECTS
350
184
  0
DICTIONARY
  5
D
100
AcDbDictionary
280
0
281
1
  0
ACDBDICTIONARYWDFLT
  5
E
100
AcDbDictionary
281
1
  3
Normal
350
F
100
AcDbDictionaryWithDefault
340
F
  0
ACDBPLACEHOLDER
  5
F
  0
DICTIONARY
  5
17
100
AcDbDictionary
280
0
281
1
  3
Standard
350
18
  0
MLINESTYLE
  5
18
100
AcDbMlineStyle
  2
STANDARD
 70
0
  3

 62
256
 51
90.0
 52
90.0
 71
2
 49
0.5
 62
256
  6
BYLAYER
 49
-0.5
 62
256
  6
BYLAYER
  0
DICTIONARY
  5
19
100
AcDbDictionary
280
0
281
1
  0
DICTIONARY
  5
1A
100
AcDbDictionary
281
1
  3
Layout1
350
1E
  3
Layout2
350
26
  3
Model
350
22
  0
LAYOUT
  5
1E
100
AcDbPlotSettings
  1

  2
none_device
  4

  6

 40
0.0
 41
0.0
 42
0.0
 43
0.0
 44
0.0
 45
0.0
 46
0.0
 47
0.0
 48
0.0
 49
0.0
140
0.0
141
0.0
142
1.0
143
1.0
 70
688
 72
0
 73
0
 74
5
  7

 75
16
147
1.0
148
0.0
149
0.0
100
AcDbLayout
  1
Layout1
 70
1
 71
1
 10
0.0
 20
0.0
 11
420.0
 21
297.0
 12
0.0
 22
0.0
 32
0.0
 14
100000000000000000000.0
 24
100000000000000000000.0
 34
100000000000000000000.0
 15
-100000000000000000000.0
 25
-100000000000000000000.0
 35
-100000000000000000000.0
146
0.0
 13
0.0
 23
0.0
 33
0.0
 16
1.0
 26
0.0
 36
0.0
 17
0.0
 27
1.0
 37
0.0
 76
0
330
1B
  0
LAYOUT
  5
22
100
AcDbPlotSettings
  1

  2
none_device
  4

  6

 40
0.0
 41
0.0
 42
0.0
 43
0.0
 44
0.0
 45
0.0
 46
0.0
 47
0.0
 48
0.0
 49
0.0
140
0.0
141
0.0
142
1.0
143
1.0
 70
1712
 72
0
 73
0
 74
0
  7

 75
0
147
1.0
148
0.0
149
0.0
100
AcDbLayout
  1
Model
 70
1
 71
0
 10
0.0
 20
0.0
 11
12.0
 21
9.0
 12
0.0
 22
0.0
 32
0.0
 14
0.0
 24
0.0
 34
0.0
 15
0.0
 25
0.0
 35
0.0
146
0.0
 13
0.0
 23
0.0
 33
0.0
 16
1.0
 26
0.0
 36
0.0
 17
0.0
 27
1.0
 37
0.0
 76
0
330
1F
  0
LAYOUT
  5
26
100
AcDbPlotSettings
  1

  2
none_device
  4

  6

 40
0.0
 41
0.0
 42
0.0
 43
0.0
 44
0.0
 45
0.0
 46
0.0
 47
0.0
 48
0.0
 49
0.0
140
0.0
141
0.0
142
1.0
143
1.0
 70
688
 72
0
 73
0
 74
5
  7

 75
16
147
1.0
148
0.0
149
0.0
100
AcDbLayout
  1
Layout2
 70
1
 71
2
 10
0.0
 20
0.0
 11
12.0
 21
9.0
 12
0.0
 22
0.0
 32
0.0
 14
0.0
 24
0.0
 34
0.0
 15
0.0
 25
0.0
 35
0.0
146
0.0
 13
0.0
 23
0.0
 33
0.0
 16
1.0
 26
0.0
 36
0.0
 17
0.0
 27
1.0
 37
0.0
 76
0
330
23
  0
DICTIONARY
  5
183
100
AcDbDictionary
281
1
  3
DIMASSOC
350
186
  3
HIDETEXT
350
185
  0
DICTIONARYVAR
  5
185
100
DictionaryVariables
280
0
  1
2
  0
DICTIONARYVAR
  5
186
100
DictionaryVariables
280
0
  1
1
  0
DICTIONARY
  5
184
100
AcDbDictionary
281
1
  3
ColorSettings/BackgroundColor
350
187
  3
ColorSettings/ColorMode
350
188
  3
Grid/DisplayGrid00
350
189
  3
Grid/DisplayGrid01
350
18A
  3
Grid/DisplayGrid02
350
18B
  3
Grid/DisplayGrid03
350
18C
  3
Grid/GridSpacingX00
350
18D
  3
Grid/GridSpacingX01
350
18E
  3
Grid/GridSpacingX02
350
18F
  3
Grid/GridSpacingX03
350
190
  3
Grid/GridSpacingY00
350
191
  3
Grid/GridSpacingY01
350
192
  3
Grid/GridSpacingY02
350
193
  3
Grid/GridSpacingY03
350
194
  3
Grid/IsometricGrid00
350
195
  3
Grid/IsometricGrid01
350
196
  3
Grid/IsometricGrid02
350
197
  3
Grid/IsometricGrid03
350
198
  3
Grid/IsometricProjection00
350
199
  3
Grid/IsometricProjection01
350
19A
  3
Grid/IsometricProjection02
350
19B
  3
Grid/IsometricProjection03
350
19C
  3
Grid/MetaGridSpacingX00
350
19D
  3
Grid/MetaGridSpacingX01
350
19E
  3
Grid/MetaGridSpacingX02
350
19F
  3
Grid/MetaGridSpacingX03
350
1A0
  3
Grid/MetaGridSpacingY00
350
1A1
  3
Grid/MetaGridSpacingY01
350
1A2
  3
Grid/MetaGridSpacingY02
350
1A3
  3
Grid/MetaGridSpacingY03
350
1A4
  3
MultiPageSettings/Columns
350
1A5
  3
MultiPageSettings/GlueMarginsBottom
350
1A6
  3
MultiPageSettings/GlueMarginsLeft
350
1A7
  3
MultiPageSettings/GlueMarginsRight
350
1A8
  3
MultiPageSettings/GlueMarginsTop
350
1A9
  3
MultiPageSettings/PrintCropMarks
350
1AA
  3
MultiPageSettings/Rows
350
1AB
  3
PageSettings/OffsetX
350
1AC
  3
PageSettings/OffsetY
350
1AD
  3
PageSettings/PageOrientation
350
1AE
  3
PageSettings/PaperHeight
350
1AF
  3
PageSettings/PaperWidth
350
1B0
  3
PageSettings/Scale
350
1B1
  3
PageSettings/ShowPaperBorders
350
1B2
  3
QCADVersion
350
1B3
  3
UnitSettings/PaperUnit
350
1B4
  0
XRECORD
  5
187
330
184
100
AcDbXrecord
280
1
1000
White
  0
XRECORD
  5
188
330
184
100
AcDbXrecord
280
1
1000
FullColor
  0
XRECORD
  5
189
330
184
100
AcDbXrecord
280
1
290
1
  0
XRECORD
  5
18A
330
184
100
AcDbXrecord
280
1
290
1
  0
XRECORD
  5
18B
330
184
100
AcDbXrecord
280
1
290
1
  0
XRECORD
  5
18C
330
184
100
AcDbXrecord
280
1
290
1
  0
XRECORD
  5
18D
330
184
100
AcDbXrecord
280
1
1000
auto
  0
XRECORD
  5
18E
330
184
100
AcDbXrecord
280
1
1000
auto
  0
XRECORD
  5
18F
330
184
100
AcDbXrecord
280
1
1000
auto
  0
XRECORD
  5
190
330
184
100
AcDbXrecord
280
1
1000
auto
  0
XRECORD
  5
191
330
184
100
AcDbXrecord
280
1
1000
auto
  0
XRECORD
  5
192
330
184
100
AcDbXrecord
280
1
1000
auto
  0
XRECORD
  5
193
330
184
100
AcDbXrecord
280
1
1000
auto
  0
XRECORD
  5
194
330
184
100
AcDbXrecord
280
1
1000
auto
  0
XRECORD
  5
195
330
184
100
AcDbXrecord
280
1
290
0
  0
XRECORD
  5
196
330
184
100
AcDbXrecord
280
1
290
0
  0
XRECORD
  5
197
330
184
100
AcDbXrecord
280
1
290
0
  0
XRECORD
  5
198
330
184
100
AcDbXrecord
280
1
290
0
  0
XRECORD
  5
199
330
184
100
AcDbXrecord
280
1
 90
0
  0
XRECORD
  5
19A
330
184
100
AcDbXrecord
280
1
 90
0
  0
XRECORD
  5
19B
330
184
100
AcDbXrecord
280
1
 90
0
  0
XRECORD
  5
19C
330
184
100
AcDbXrecord
280
1
 90
0
  0
XRECORD
  5
19D
330
184
100
AcDbXrecord
280
1
1000
auto
  0
XRECORD
  5
19E
330
184
100
AcDbXrecord
280
1
1000
auto
  0
XRECORD
  5
19F
330
184
100
AcDbXrecord
280
1
1000
auto
  0
XRECORD
  5
1A0
330
184
100
AcDbXrecord
280
1
1000
auto
  0
XRECORD
  5
1A1
330
184
100
AcDbXrecord
280
1
1000
auto
  0
XRECORD
  5
1A2
330
184
100
AcDbXrecord
280
1
1000
auto
  0
XRECORD
  5
1A3
330
184
100
AcDbXrecord
280
1
1000
auto
  0
XRECORD
  5
1A4
330
184
100
AcDbXrecord
280
1
1000
auto
  0
XRECORD
  5
1A5
330
184
100
AcDbXrecord
280
1
 90
1
  0
XRECORD
  5
1A6
330
184
100
AcDbXrecord
280
1
 40
0.5
  0
XRECORD
  5
1A7
330
184
100
AcDbXrecord
280
1
 40
0.5
  0
XRECORD
  5
1A8
330
184
100
AcDbXrecord
280
1
 40
0.5
  0
XRECORD
  5
1A9
330
184
100
AcDbXrecord
280
1
 40
0.5
  0
XRECORD
  5
1AA
330
184
100
AcDbXrecord
280
1
290
0
  0
XRECORD
  5
1AB
330
184
100
AcDbXrecord
280
1
 90
1
  0
XRECORD
  5
1AC
330
184
100
AcDbXrecord
280
1
 40
0.0
  0
XRECORD
  5
1AD
330
184
100
AcDbXrecord
280
1
 40
0.0
  0
XRECORD
  5
1AE
330
184
100
AcDbXrecord
280
1
1000
Portrait
  0
XRECORD
  5
1AF
330
184
100
AcDbXrecord
280
1
 40
11.6929133858268006
  0
XRECORD
  5
1B0
330
184
100
AcDbXrecord
280
1
 40
8.2677165354330704
  0
XRECORD
  5
1B1
330
184
100
AcDbXrecord
280
1
1000
1:1
  0
XRECORD
  5
1B2
330
184
100
AcDbXrecord
280
1
290
1
  0
XRECORD
  5
1B3
330
184
100
AcDbXrecord
280
1
1000
3.11.3
  0
XRECORD
  5
1B4
330
184
100
AcDbXrecord
280
1
 90
1
  0
ENDSEC
  0
EOF
