999
dxflib 3.7.5.0
  0
SECTION
  2
HEADER
  9
$ACADVER
  1
AC1015
  9
$HANDSEED
  5
FFFF
  9
$ANGBASE
 50
0.0
  9
$ATTMODE
 70
1
  9
$AUNITS
 70
0
  9
$AUPREC
 70
0
  9
$CELTSCALE
 40
1.0
  9
$CHAMFERA
 40
0.0
  9
$CHAMFERB
 40
0.0
  9
$CHAMFERC
 40
0.0
  9
$CHAMFERD
 40
0.0
  9
$CMLJUST
 70
0
  9
$CMLSCALE
 40
1.0
  9
$DIMADEC
 70
0
  9
$DIMALTD
 70
2
  9
$DIMALTF
 40
25.3999999999999986
  9
$DIMALTRND
 40
0.0
  9
$DIMALTTD
 70
2
  9
$DIMALTTZ
 70
0
  9
$DIMALTU
 70
2
  9
$DIMALTZ
 70
0
  9
$DIMAPOST
  1

  9
$DIMASZ
 40
0.125
  9
$DIMATFIT
 70
3
  9
$DIMAUNIT
 70
0
  9
$DIMAZIN
 70
2
  9
$DIMCEN
 40
0.09
  9
$DIMDEC
 70
4
  9
$DIMDLE
 40
0.0
  9
$DIMDLI
 40
0.38
  9
$DIMDSEP
 70
46
  9
$DIMEXE
 40
0.0625
  9
$DIMEXO
 40
0.03125
  9
$DIMFRAC
 70
0
  9
$DIMGAP
 40
0.03125
  9
$DIMJUST
 70
0
  9
$DIMLFAC
 40
1.0
  9
$DIMLUNIT
 70
3
  9
$DIMLWD
 70
-2
  9
$DIMLWE
 70
-2
  9
$DIMPOST
  1

  9
$DIMRND
 40
0.0
  9
$DIMSCALE
 40
1.0
  9
$DIMTAD
 70
0
  9
$DIMTDEC
 70
4
  9
$DIMTFAC
 40
1.0
  9
$DIMTM
 40
0.0
  9
$DIMTOLJ
 70
1
  9
$DIMTP
 40
0.0
  9
$DIMTSZ
 40
0.0
  9
$DIMTVP
 40
0.0
  9
$DIMTXT
 40
0.125
  9
$DIMTZIN
 70
0
  9
$DIMZIN
 70
8
  9
$DWGCODEPAGE
  3
ANSI_1252
  9
$ELEVATION
 40
0.0
  9
$EXTMAX
 10
-100000000000000000000.0
 20
-100000000000000000000.0
 30
-100000000000000000000.0
  9
$EXTMIN
 10
100000000000000000000.0
 20
100000000000000000000.0
 30
100000000000000000000.0
  9
$FILLETRAD
 40
0.5
  9
$INSBASE
 10
0.0
 20
0.0
 30
0.0
  9
$INSUNITS
 70
1
  9
$LIMMAX
 10
12.0
 20
9.0
  9
$LIMMIN
 10
0.0
 20
0.0
  9
$LTSCALE
 40
1.0
  9
$LUNITS
 70
2
  9
$LUPREC
 70
4
  9
$MAXACTVP
 70
2
  9
$MEASUREMENT
 70
0
  9
$PDMODE
 70
0
  9
$PDSIZE
 40
0
  9
$PELEVATION
 40
0.0
  9
$PEXTMAX
 10
-100000000000000000000.0
 20
-100000000000000000000.0
 30
-100000000000000000000.0
  9
$PEXTMIN
 10
100000000000000000000.0
 20
100000000000000000000.0
 30
100000000000000000000.0
  9
$PINSBASE
 10
0.0
 20
0.0
 30
0.0
  9
$PLIMMAX
 10
12.0
 20
9.0
  9
$PLIMMIN
 10
0.0
 20
0.0
  9
$PLINEWID
 40
0.0
  9
$PROXYGRAPHICS
 70
1
  9
$PUCSORG
 10
0.0
 20
0.0
 30
0.0
  9
$PUCSXDIR
 10
1.0
 20
0.0
 30
0.0
  9
$PUCSYDIR
 10
0.0
 20
1.0
 30
0.0
  9
$SHADEDGE
 70
3
  9
$SHADEDIF
 70
70
  9
$SKETCHINC
 40
0.1
  9
$SPLINESEGS
 70
8
  9
$SPLINETYPE
 70
6
  9
$SURFTAB1
 70
6
  9
$SURFTAB2
 70
6
  9
$SURFTYPE
 70
6
  9
$SURFU
 70
6
  9
$SURFV
 70
6
  9
$TEXTSIZE
 40
2.5
  9
$THICKNESS
 40
0.0
  9
$TRACEWID
 40
0.05
  9
$TREEDEPTH
 70
3020
  9
$UCSORG
 10
0.0
 20
0.0
 30
0.0
  9
$UCSXDIR
 10
1.0
 20
0.0
 30
0.0
  9
$UCSYDIR
 10
0.0
 20
1.0
 30
0.0
  9
$UNITMODE
 70
0
  9
$USERI1
 70
0
  9
$USERI2
 70
0
  9
$USERI3
 70
0
  9
$USERI4
 70
0
  9
$USERI5
 70
0
  9
$USERR1
 40
0.0
  9
$USERR2
 40
0.0
  9
$USERR3
 40
0.0
  9
$USERR4
 40
0.0
  9
$USERR5
 40
0.0
  0
ENDSEC
  0
SECTION
  2
TABLES
  0
TABLE
  2
VPORT
  5
8
100
AcDbSymbolTable
 70
1
  0
VPORT
  5
30
100
AcDbSymbolTableRecord
100
AcDbViewportTableRecord
  2
*Active
 70
0
 10
0.0
 20
0.0
 11
1.0
 21
1.0
 12
286.3055555555554861
 22
148.5
 13
0.0
 23
0.0
 14
10.0
 24
10.0
 15
10.0
 25
10.0
 16
0.0
 26
0.0
 36
1.0
 17
0.0
 27
0.0
 37
0.0
 40
297.0
 41
1.92798353909465
 42
50.0
 43
0.0
 44
0.0
 50
0.0
 51
0.0
 71
0
 72
100
 73
1
 74
3
 75
1
 76
1
 77
0
 78
0
281
0
 65
1
110
0.0
120
0.0
130
0.0
111
1.0
121
0.0
131
0.0
112
0.0
122
1.0
132
0.0
 79
0
146
0.0
  0
ENDTAB
  0
TABLE
  2
LTYPE
  5
5
100
AcDbSymbolTable
 70
50
  0
LTYPE
  5
16
100
AcDbSymbolTableRecord
100
AcDbLinetypeTableRecord
  2
Continuous
 70
0
  3
Solid line
 72
65
 73
0
 40
0.0
  0
LTYPE
  5
31
100
AcDbSymbolTableRecord
100
AcDbLinetypeTableRecord
  2
ACAD_ISO15W100
 70
0
  3
ISO double-dash triple-dot __ __ . . . __ __ . .
 72
65
 73
10
 40
39.0000000000000071
 49
12.0
 74
0
 49
-3.0
 74
0
 49
12.0
 74
0
 49
-2.9500000000000002
 74
0
 49
0.1
 74
0
 49
-2.9000000000000004
 74
0
 49
0.1
 74
0
 49
-2.9000000000000004
 74
0
 49
0.1
 74
0
 49
-2.9500000000000002
 74
0
  0
LTYPE
  5
32
100
AcDbSymbolTableRecord
100
AcDbLinetypeTableRecord
  2
HOT_WATER_SUPPLY
 70
0
  3
Hot water supply ---- HW ---- HW ---- HW ----
 72
65
 73
3
 40
22.8599999999999994
 49
12.6999999999999993
 74
0
 49
-5.0800000000000001
 74
0
 49
-5.0800000000000001
 74
0
  0
LTYPE
  5
33
100
AcDbSymbolTableRecord
100
AcDbLinetypeTableRecord
  2
DIVIDE
 70
0
  3
Divide ____ . . ____ . . ____ . . ____ . . ____
 72
65
 73
6
 40
31.7500000000000036
 49
12.6999999999999993
 74
0
 49
-6.2999999999999998
 74
0
 49
0.1
 74
0
 49
-6.25
 74
0
 49
0.1
 74
0
 49
-6.2999999999999998
 74
0
  0
LTYPE
  5
34
100
AcDbSymbolTableRecord
100
AcDbLinetypeTableRecord
  2
ACAD_ISO10W100
 70
0
  3
ISO dash dot __ . __ . __ . __ . __ . __ . __ . 
 72
65
 73
4
 40
18.0
 49
12.0
 74
0
 49
-2.9500000000000002
 74
0
 49
0.1
 74
0
 49
-2.9500000000000002
 74
0
  0
LTYPE
  5
35
100
AcDbSymbolTableRecord
100
AcDbLinetypeTableRecord
  2
GAS_LINE
 70
0
  3
Gas line ----GAS----GAS----GAS----GAS----GAS----GAS--
 72
65
 73
3
 40
24.1300000000000026
 49
12.6999999999999993
 74
0
 49
-5.0800000000000001
 74
0
 49
-6.3499999999999996
 74
0
  0
LTYPE
  5
36
100
AcDbSymbolTableRecord
100
AcDbLinetypeTableRecord
  2
ACAD_ISO04W100
 70
0
  3
ISO long-dash dot ____ . ____ . ____ . ____ . _
 72
65
 73
4
 40
30.0
 49
24.0
 74
0
 49
-2.9500000000000002
 74
0
 49
0.1
 74
0
 49
-2.9500000000000002
 74
0
  0
LTYPE
  5
37
100
AcDbSymbolTableRecord
100
AcDbLinetypeTableRecord
  2
CENTER2
 70
0
  3
Center (.5x) ___ _ ___ _ ___ _ ___ _ ___ _ ___
 72
65
 73
4
 40
28.5750000000000028
 49
19.0500000000000007
 74
0
 49
-3.1749999999999998
 74
0
 49
3.1749999999999998
 74
0
 49
-3.1749999999999998
 74
0
  0
LTYPE
  5
38
100
AcDbSymbolTableRecord
100
AcDbLinetypeTableRecord
  2
ACAD_ISO11W100
 70
0
  3
ISO double-dash dot __ __ . __ __ . __ __ . __ _
 72
65
 73
6
 40
33.0
 49
12.0
 74
0
 49
-3.0
 74
0
 49
12.0
 74
0
 49
-2.9500000000000002
 74
0
 49
0.1
 74
0
 49
-2.9500000000000002
 74
0
  0
LTYPE
  5
39
100
AcDbSymbolTableRecord
100
AcDbLinetypeTableRecord
  2
HIDDEN2
 70
0
  3
Hidden (.5x) _ _ _ _ _ _ _ _ _ _ _ _ _ _ _ _ _ 
 72
65
 73
2
 40
4.7624999999999993
 49
3.1749999999999998
 74
0
 49
-1.5874999999999999
 74
0
  0
LTYPE
  5
3A
100
AcDbSymbolTableRecord
100
AcDbLinetypeTableRecord
  2
BORDERX2
 70
0
  3
Border (2x) ____  ____  .  ____  ____  .  ___
 72
65
 73
6
 40
88.8999999999999773
 49
25.3999999999999986
 74
0
 49
-12.6999999999999993
 74
0
 49
25.3999999999999986
 74
0
 49
-12.6499999999999986
 74
0
 49
0.1
 74
0
 49
-12.6499999999999986
 74
0
  0
LTYPE
  5
3B
100
AcDbSymbolTableRecord
100
AcDbLinetypeTableRecord
  2
ACAD_ISO05W100
 70
0
  3
ISO long-dash double-dot ____ .. ____ .. ____ . 
 72
65
 73
6
 40
33.0000000000000071
 49
24.0
 74
0
 49
-2.9500000000000002
 74
0
 49
0.1
 74
0
 49
-2.9000000000000004
 74
0
 49
0.1
 74
0
 49
-2.9500000000000002
 74
0
  0
LTYPE
  5
3C
100
AcDbSymbolTableRecord
100
AcDbLinetypeTableRecord
  2
DASHDOTX2
 70
0
  3
Dash dot (2x) ____  .  ____  .  ____  .  ___
 72
65
 73
4
 40
50.7999999999999972
 49
25.3999999999999986
 74
0
 49
-12.6499999999999986
 74
0
 49
0.1
 74
0
 49
-12.6499999999999986
 74
0
  0
LTYPE
  5
3D
100
AcDbSymbolTableRecord
100
AcDbLinetypeTableRecord
  2
HIDDENX2
 70
0
  3
Hidden (2x) ____ ____ ____ ____ ____ ____ ____ 
 72
65
 73
2
 40
19.0499999999999972
 49
12.6999999999999993
 74
0
 49
-6.3499999999999996
 74
0
  0
LTYPE
  5
3E
100
AcDbSymbolTableRecord
100
AcDbLinetypeTableRecord
  2
CENTERX2
 70
0
  3
Center (2x) ________  __  ________  __  _____
 72
65
 73
4
 40
101.6000000000000085
 49
63.5
 74
0
 49
-12.6999999999999993
 74
0
 49
12.6999999999999993
 74
0
 49
-12.6999999999999993
 74
0
  0
LTYPE
  5
3F
100
AcDbSymbolTableRecord
100
AcDbLinetypeTableRecord
  2
BORDER2
 70
0
  3
Border (.5x) __.__.__.__.__.__.__.__.__.__.__.
 72
65
 73
6
 40
22.2250000000000014
 49
6.3499999999999996
 74
0
 49
-3.1749999999999998
 74
0
 49
6.3499999999999996
 74
0
 49
-3.125
 74
0
 49
0.1
 74
0
 49
-3.125
 74
0
  0
LTYPE
  5
40
100
AcDbSymbolTableRecord
100
AcDbLinetypeTableRecord
  2
DASHDOT2
 70
0
  3
Dash dot (.5x) _._._._._._._._._._._._._._._.
 72
65
 73
4
 40
12.6999999999999993
 49
6.3499999999999996
 74
0
 49
-3.125
 74
0
 49
0.1
 74
0
 49
-3.125
 74
0
  0
LTYPE
  5
41
100
AcDbSymbolTableRecord
100
AcDbLinetypeTableRecord
  2
ACAD_ISO12W100
 70
0
  3
ISO dash double-dot __ . . __ . . __ . . __ . . 
 72
65
 73
6
 40
21.0
 49
12.0
 74
0
 49
-2.9500000000000002
 74
0
 49
0.1
 74
0
 49
-2.9000000000000004
 74
0
 49
0.1
 74
0
 49
-2.9500000000000002
 74
0
  0
LTYPE
  5
42
100
AcDbSymbolTableRecord
100
AcDbLinetypeTableRecord
  2
ACAD_ISO07W100
 70
0
  3
ISO dot . . . . . . . . . . . . . . . . . . . . 
 72
65
 73
2
 40
3.0
 49
0.1
 74
0
 49
-2.8999999999999999
 74
0
  0
LTYPE
  5
43
100
AcDbSymbolTableRecord
100
AcDbLinetypeTableRecord
  2
ACAD_ISO06W100
 70
0
  3
ISO long-dash triple-dot ____ ... ____ ... ____
 72
65
 73
8
 40
36.0000000000000071
 49
24.0
 74
0
 49
-2.9500000000000002
 74
0
 49
0.1
 74
0
 49
-2.9000000000000004
 74
0
 49
0.1
 74
0
 49
-2.9000000000000004
 74
0
 49
0.1
 74
0
 49
-2.9500000000000002
 74
0
  0
LTYPE
  5
44
100
AcDbSymbolTableRecord
100
AcDbLinetypeTableRecord
  2
CENTER
 70
0
  3
Center ____ _ ____ _ ____ _ ____ _ ____ _ ____
 72
65
 73
4
 40
50.8000000000000043
 49
31.75
 74
0
 49
-6.3499999999999996
 74
0
 49
6.3499999999999996
 74
0
 49
-6.3499999999999996
 74
0
  0
LTYPE
  5
45
100
AcDbSymbolTableRecord
100
AcDbLinetypeTableRecord
  2
HIDDEN
 70
0
  3
Hidden __ __ __ __ __ __ __ __ __ __ __ __ __ __
 72
65
 73
2
 40
9.5249999999999986
 49
6.3499999999999996
 74
0
 49
-3.1749999999999998
 74
0
  0
LTYPE
  5
46
100
AcDbSymbolTableRecord
100
AcDbLinetypeTableRecord
  2
DOTX2
 70
0
  3
Dot (2x) .  .  .  .  .  .  .  .  .  .  .  .  .  .
 72
65
 73
2
 40
12.6999999999999993
 49
0.1
 74
0
 49
-12.5999999999999996
 74
0
  0
LTYPE
  5
47
100
AcDbSymbolTableRecord
100
AcDbLinetypeTableRecord
  2
PHANTOM
 70
0
  3
Phantom ______  __  __  ______  __  __  ______ 
 72
65
 73
6
 40
63.5000000000000071
 49
31.75
 74
0
 49
-6.3499999999999996
 74
0
 49
6.3499999999999996
 74
0
 49
-6.3499999999999996
 74
0
 49
6.3499999999999996
 74
0
 49
-6.3499999999999996
 74
0
  0
LTYPE
  5
48
100
AcDbSymbolTableRecord
100
AcDbLinetypeTableRecord
  2
ACAD_ISO08W100
 70
0
  3
ISO long-dash short-dash ____ __ ____ __ ____ _
 72
65
 73
4
 40
36.0
 49
24.0
 74
0
 49
-3.0
 74
0
 49
6.0
 74
0
 49
-3.0
 74
0
  0
LTYPE
  5
49
100
AcDbSymbolTableRecord
100
AcDbLinetypeTableRecord
  2
DASHEDX2
 70
0
  3
Dashed (2x) ____  ____  ____  ____  ____  ___
 72
65
 73
2
 40
38.0999999999999943
 49
25.3999999999999986
 74
0
 49
-12.6999999999999993
 74
0
  0
LTYPE
  5
4A
100
AcDbSymbolTableRecord
100
AcDbLinetypeTableRecord
  2
DRAINAGE
 70
0
  3
Drainage ---->---->---->----
 72
65
 73
2
 40
10.1600000000000001
 49
5.0800000000000001
 74
0
 49
5.0800000000000001
 74
0
  0
LTYPE
  5
4B
100
AcDbSymbolTableRecord
100
AcDbLinetypeTableRecord
  2
ACAD_ISO02W100
 70
0
  3
ISO dash __ __ __ __ __ __ __ __ __ __ __ __ __
 72
65
 73
2
 40
15.0
 49
12.0
 74
0
 49
-3.0
 74
0
  0
LTYPE
  5
4C
100
AcDbSymbolTableRecord
100
AcDbLinetypeTableRecord
  2
PHANTOM2
 70
0
  3
Phantom (.5x) ___ _ _ ___ _ _ ___ _ _ ___ _ _
 72
65
 73
6
 40
31.7500000000000036
 49
15.875
 74
0
 49
-3.1749999999999998
 74
0
 49
3.1749999999999998
 74
0
 49
-3.1749999999999998
 74
0
 49
3.1749999999999998
 74
0
 49
-3.1749999999999998
 74
0
  0
LTYPE
  5
4D
100
AcDbSymbolTableRecord
100
AcDbLinetypeTableRecord
  2
DASHED2
 70
0
  3
Dashed (.5x) _ _ _ _ _ _ _ _ _ _ _ _ _ _ _ _ _ 
 72
65
 73
2
 40
9.5249999999999986
 49
6.3499999999999996
 74
0
 49
-3.1749999999999998
 74
0
  0
LTYPE
  5
4E
100
AcDbSymbolTableRecord
100
AcDbLinetypeTableRecord
  2
ACAD_ISO09W100
 70
0
  3
ISO long-dash double-short-dash ____ __ __ ____
 72
65
 73
6
 40
45.0
 49
24.0
 74
0
 49
-3.0
 74
0
 49
6.0
 74
0
 49
-3.0
 74
0
 49
6.0
 74
0
 49
-3.0
 74
0
  0
LTYPE
  5
4F
100
AcDbSymbolTableRecord
100
AcDbLinetypeTableRecord
  2
ACAD_ISO13W100
 70
0
  3
ISO double-dash double-dot __ __ . . __ __ . . _
 72
65
 73
8
 40
36.0000000000000071
 49
12.0
 74
0
 49
-3.0
 74
0
 49
12.0
 74
0
 49
-2.9500000000000002
 74
0
 49
0.1
 74
0
 49
-2.9000000000000004
 74
0
 49
0.1
 74
0
 49
-2.9500000000000002
 74
0
  0
LTYPE
  5
50
100
AcDbSymbolTableRecord
100
AcDbLinetypeTableRecord
  2
TRACKS
 70
0
  3
Tracks -|-|-|-|-|-|-|-|-|-|-|-|-|-|-|-|-|-|-|-|-|-|-|-|-
 72
65
 73
2
 40
7.6200000000000001
 49
3.8100000000000001
 74
0
 49
3.8100000000000001
 74
0
  0
LTYPE
  5
51
100
AcDbSymbolTableRecord
100
AcDbLinetypeTableRecord
  2
DRAINAGE2
 70
0
  3
Drainage reversed----<----<----<----
 72
65
 73
2
 40
10.1600000000000001
 49
5.0800000000000001
 74
0
 49
5.0800000000000001
 74
0
  0
LTYPE
  5
52
100
AcDbSymbolTableRecord
100
AcDbLinetypeTableRecord
  2
DOT2
 70
0
  3
Dot (.5x) ........................................
 72
65
 73
2
 40
3.1749999999999998
 49
0.1
 74
0
 49
-3.0749999999999997
 74
0
  0
LTYPE
  5
53
100
AcDbSymbolTableRecord
100
AcDbLinetypeTableRecord
  2
ZIGZAG
 70
0
  3
Zig zag /\/\/\/\/\/\/\/\/\/\/\/\/\/\/\/\/\/\/\/\/\/\/\/
 72
65
 73
4
 40
20.32254
 49
0.00254
 74
0
 49
-5.0800000000000001
 74
0
 49
-10.1600000000000001
 74
0
 49
-5.0800000000000001
 74
0
  0
LTYPE
  5
54
100
AcDbSymbolTableRecord
100
AcDbLinetypeTableRecord
  2
DASHED
 70
0
  3
Dashed __ __ __ __ __ __ __ __ __ __ __ __ __ _
 72
65
 73
2
 40
19.0499999999999972
 49
12.6999999999999993
 74
0
 49
-6.3499999999999996
 74
0
  0
LTYPE
  5
55
100
AcDbSymbolTableRecord
100
AcDbLinetypeTableRecord
  2
ACAD_ISO14W100
 70
0
  3
ISO dash triple-dot __ . . . __ . . . __ . . . _
 72
65
 73
8
 40
24.0000000000000036
 49
12.0
 74
0
 49
-2.9500000000000002
 74
0
 49
0.1
 74
0
 49
-2.9000000000000004
 74
0
 49
0.1
 74
0
 49
-2.9000000000000004
 74
0
 49
0.1
 74
0
 49
-2.9500000000000002
 74
0
  0
LTYPE
  5
15
100
AcDbSymbolTableRecord
100
AcDbLinetypeTableRecord
  2
BYLAYER
 70
0
  3

 72
65
 73
0
 40
0.0
  0
LTYPE
  5
56
100
AcDbSymbolTableRecord
100
AcDbLinetypeTableRecord
  2
PHANTOMX2
 70
0
  3
Phantom (2x) ____________    ____    ____   _
 72
65
 73
6
 40
127.0000000000000142
 49
63.5
 74
0
 49
-12.6999999999999993
 74
0
 49
12.6999999999999993
 74
0
 49
-12.6999999999999993
 74
0
 49
12.6999999999999993
 74
0
 49
-12.6999999999999993
 74
0
  0
LTYPE
  5
14
100
AcDbSymbolTableRecord
100
AcDbLinetypeTableRecord
  2
BYBLOCK
 70
0
  3

 72
65
 73
0
 40
0.0
  0
LTYPE
  5
57
100
AcDbSymbolTableRecord
100
AcDbLinetypeTableRecord
  2
DIVIDEX2
 70
0
  3
Divide (2x) ________  .  .  ________  .  .  _
 72
65
 73
6
 40
63.5
 49
25.3999999999999986
 74
0
 49
-12.6499999999999986
 74
0
 49
0.1
 74
0
 49
-12.5999999999999979
 74
0
 49
0.1
 74
0
 49
-12.6499999999999986
 74
0
  0
LTYPE
  5
58
100
AcDbSymbolTableRecord
100
AcDbLinetypeTableRecord
  2
BORDER
 70
0
  3
Border __ __ . __ __ . __ __ . __ __ . __ __ .
 72
65
 73
6
 40
44.4499999999999957
 49
12.6999999999999993
 74
0
 49
-6.3499999999999996
 74
0
 49
12.6999999999999993
 74
0
 49
-6.2999999999999998
 74
0
 49
0.1
 74
0
 49
-6.2999999999999998
 74
0
  0
LTYPE
  5
59
100
AcDbSymbolTableRecord
100
AcDbLinetypeTableRecord
  2
DIVIDE2
 70
0
  3
Divide (.5x) __..__..__..__..__..__..__..__.._
 72
65
 73
6
 40
15.8749999999999982
 49
6.3499999999999996
 74
0
 49
-3.125
 74
0
 49
0.1
 74
0
 49
-3.0750000000000002
 74
0
 49
0.1
 74
0
 49
-3.125
 74
0
  0
LTYPE
  5
5A
100
AcDbSymbolTableRecord
100
AcDbLinetypeTableRecord
  2
DOT
 70
0
  3
Dot . . . . . . . . . . . . . . . . . . . . . . . .
 72
65
 73
2
 40
6.3499999999999996
 49
0.1
 74
0
 49
-6.25
 74
0
  0
LTYPE
  5
5B
100
AcDbSymbolTableRecord
100
AcDbLinetypeTableRecord
  2
DASHDOT
 70
0
  3
Dash dot __ . __ . __ . __ . __ . __ . __ . __
 72
65
 73
4
 40
25.4000000000000021
 49
12.6999999999999993
 74
0
 49
-6.2999999999999998
 74
0
 49
0.1
 74
0
 49
-6.2999999999999998
 74
0
  0
LTYPE
  5
5C
100
AcDbSymbolTableRecord
100
AcDbLinetypeTableRecord
  2
FENCELINE1
 70
0
  3
Fenceline circle ----0-----0----0-----0----0-----0--
 72
65
 73
4
 40
36.8299999999999983
 49
6.3499999999999996
 74
0
 49
-2.54
 74
0
 49
-2.54
 74
0
 49
25.3999999999999986
 74
0
  0
LTYPE
  5
5D
100
AcDbSymbolTableRecord
100
AcDbLinetypeTableRecord
  2
BATTING
 70
0
  3
Batting SSSSSSSSSSSSSSSSSSSSSSSSSSSSSSSSSSSSSSSSSSSSSSS
 72
65
 73
4
 40
10.1625399999999999
 49
0.00254
 74
0
 49
-2.54
 74
0
 49
-5.0800000000000001
 74
0
 49
-2.54
 74
0
  0
LTYPE
  5
5E
100
AcDbSymbolTableRecord
100
AcDbLinetypeTableRecord
  2
ACAD_ISO03W100
 70
0
  3
ISO dash space __    __    __    __    __    __
 72
65
 73
2
 40
30.0
 49
12.0
 74
0
 49
-18.0
 74
0
  0
LTYPE
  5
5F
100
AcDbSymbolTableRecord
100
AcDbLinetypeTableRecord
  2
FENCELINE2
 70
0
  3
Fenceline square ----[]-----[]----[]-----[]----[]---
 72
65
 73
4
 40
36.8299999999999983
 49
6.3499999999999996
 74
0
 49
-2.54
 74
0
 49
-2.54
 74
0
 49
25.3999999999999986
 74
0
  0
ENDTAB
  0
TABLE
  2
LAYER
  5
2
100
AcDbSymbolTable
 70
2
  0
LAYER
  5
60
100
AcDbSymbolTableRecord
100
AcDbLayerTableRecord
  2
Defpoints
 70
0
 62
7
420
16777215
  6
Continuous
290
0
370
-3
390
F
  0
LAYER
  5
10
100
AcDbSymbolTableRecord
100
AcDbLayerTableRecord
  2
0
 70
0
 62
7
420
16777215
  6
Continuous
370
25
390
F
  0
ENDTAB
  0
TABLE
  2
STYLE
  5
3
100
AcDbSymbolTable
 70
1
  0
STYLE
  5
61
100
AcDbSymbolTableRecord
100
AcDbTextStyleTableRecord
  2
Standard
 70
0
 40
0.0
 41
1.0
 50
0.0
 71
0
 42
2.5
  3

  4

1001
ACAD
1000
txt
1071
0
  0
ENDTAB
  0
TABLE
  2
VIEW
  5
6
100
AcDbSymbolTable
 70
0
  0
ENDTAB
  0
TABLE
  2
UCS
  5
7
100
AcDbSymbolTable
 70
0
  0
ENDTAB
  0
TABLE
  2
APPID
  5
9
100
AcDbSymbolTable
 70
1
  0
APPID
  5
12
100
AcDbSymbolTableRecord
100
AcDbRegAppTableRecord
  2
ACAD
 70
0
  0
APPID
  5
62
100
AcDbSymbolTableRecord
100
AcDbRegAppTableRecord
  2
QCAD
 70
0
  0
ENDTAB
  0
TABLE
  2
DIMSTYLE
  5
A
100
AcDbSymbolTable
 70
1
100
AcDbDimStyleTable
 71
0
  0
DIMSTYLE
105
27
100
AcDbSymbolTableRecord
100
AcDbDimStyleTableRecord
  2
Standard
 41
0.125
 42
0.03125
 43
3.75
 44
0.0625
 70
0
 73
0
 74
0
 77
1
 78
8
140
0.125
141
2.5
143
0.03937007874016
147
0.03125
171
3
172
1
271
2
272
2
274
3
278
44
283
0
284
8
340
61
  0
ENDTAB
  0
TABLE
  2
BLOCK_RECORD
  5
1
100
AcDbSymbolTable
 70
1
  0
BLOCK_RECORD
  5
1F
100
AcDbSymbolTableRecord
100
AcDbBlockTableRecord
  2
*Model_Space
340
22
  0
BLOCK_RECORD
  5
1B
100
AcDbSymbolTableRecord
100
AcDbBlockTableRecord
  2
*Paper_Space
340
1E
  0
BLOCK_RECORD
  5
23
100
AcDbSymbolTableRecord
100
AcDbBlockTableRecord
  2
*Paper_Space0
340
26
  0
ENDTAB
  0
ENDSEC
  0
SECTION
  2
BLOCKS
  0
BLOCK
  5
20
100
AcDbEntity
  8
0
100
AcDbBlockBegin
  2
*Model_Space
 70
0
 10
0.0
 20
0.0
 30
0.0
  3
*Model_Space
  1

  0
ENDBLK
  5
21
100
AcDbEntity
  8
0
100
AcDbBlockEnd
  0
BLOCK
  5
1C
100
AcDbEntity
 67
1
  8
0
100
AcDbBlockBegin
  2
*Paper_Space
 70
0
 10
0.0
 20
0.0
 30
0.0
  3
*Paper_Space
  1

  0
ENDBLK
  5
1D
100
AcDbEntity
 67
1
  8
0
100
AcDbBlockEnd
  0
BLOCK
  5
24
100
AcDbEntity
  8
0
100
AcDbBlockBegin
  2
*Paper_Space0
 70
0
 10
0.0
 20
0.0
 30
0.0
  3
*Paper_Space0
  1

  0
ENDBLK
  5
25
100
AcDbEntity
  8
0
100
AcDbBlockEnd
  0
ENDSEC
  0
SECTION
  2
ENTITIES
  0
LINE
  5
63
100
AcDbEntity
100
AcDbLine
  8
0
 62
6
420
16711935
370
-1
 48
1.0
  6
BYLAYER
 10
92.5522384532868188
 20
6.3282499999999695
 30
0.0
 11
92.688738453286831
 21
6.3282499999999695
 31
0.0
  0
LINE
  5
64
100
AcDbEntity
100
AcDbLine
  8
0
 62
6
420
16711935
370
-1
 48
1.0
  6
BYLAYER
 10
92.5522384532867761
 20
5.628249999999988
 30
0.0
 11
92.6887384532867884
 21
5.628249999999988
 31
0.0
  0
LINE
  5
65
100
AcDbEntity
100
AcDbLine
  8
0
 62
6
420
16711935
370
-1
 48
1.0
  6
BYLAYER
 10
92.8252384532868149
 20
6.3282499999999722
 30
0.0
 11
92.9617384532868272
 21
6.3282499999999722
 31
0.0
  0
LINE
  5
66
100
AcDbEntity
100
AcDbLine
  8
0
 62
6
420
16711935
370
-1
 48
1.0
  6
BYLAYER
 10
92.8252384532867723
 20
5.6282499999999906
 30
0.0
 11
92.9617384532867845
 21
5.6282499999999906
 31
0.0
  0
LINE
  5
67
100
AcDbEntity
100
AcDbLine
  8
0
 62
6
420
16711935
370
-1
 48
1.0
  6
BYLAYER
 10
90.1634999999999849
 20
5.6282499999999906
 30
0.0
 11
90.0269999999999726
 21
5.6282499999999906
 31
0.0
  0
LINE
  5
68
100
AcDbEntity
100
AcDbLine
  8
0
 62
6
420
16711935
370
-1
 48
1.0
  6
BYLAYER
 10
90.4365000000000094
 20
6.3282499999999722
 30
0.0
 11
90.2999999999999972
 21
6.3282499999999722
 31
0.0
  0
LINE
  5
69
100
AcDbEntity
100
AcDbLine
  8
0
 62
6
420
16711935
370
-1
 48
1.0
  6
BYLAYER
 10
102.2348905300000581
 20
1.5499999999999918
 30
0.0
 11
102.1048905300000058
 21
1.5499999999999918
 31
0.0
  0
CIRCLE
  5
6A
100
AcDbEntity
100
AcDbCircle
  8
0
 62
1
420
16711680
370
-1
 48
1.0
  6
BYLAYER
 10
107.0
 20
1.8999999999999999
 30
0.0
 40
0.0538785000000007
  0
CIRCLE
  5
6B
100
AcDbEntity
100
AcDbCircle
  8
0
 62
1
420
16711680
370
-1
 48
1.0
  6
BYLAYER
 10
107.0
 20
0.0
 30
0.0
 40
0.0538785000000007
  0
CIRCLE
  5
6C
100
AcDbEntity
100
AcDbCircle
  8
0
 62
1
420
16711680
370
-1
 48
1.0
  6
BYLAYER
 10
104.9999999999999858
 20
2.0500000000000194
 30
0.0
 40
0.0538785000000007
  0
CIRCLE
  5
6D
100
AcDbEntity
100
AcDbCircle
  8
0
 62
1
420
16711680
370
-1
 48
1.0
  6
BYLAYER
 10
104.9999999999999858
 20
0.1500000000000195
 30
0.0
 40
0.0538785000000007
  0
LINE
  5
6E
100
AcDbEntity
100
AcDbLine
  8
0
 62
6
420
16711935
370
-1
 48
1.0
  6
BYLAYER
 10
93.807445265000041
 20
9.6499999999999915
 30
0.0
 11
93.6774452649999887
 21
9.6499999999999915
 31
0.0
  0
LINE
  5
6F
100
AcDbEntity
100
AcDbLine
  8
0
 62
6
420
16711935
370
-1
 48
1.0
  6
BYLAYER
 10
97.75
 20
1.5499999999999901
 30
0.0
 11
97.6200000000000188
 21
1.5499999999999901
 31
0.0
  0
LINE
  5
70
100
AcDbEntity
100
AcDbLine
  8
0
 62
6
420
16711935
370
-1
 48
1.0
  6
BYLAYER
 10
89.3225547349999829
 20
9.6499999999999897
 30
0.0
 11
89.1925547350000016
 21
9.6499999999999897
 31
0.0
  0
LINE
  5
71
100
AcDbEntity
100
AcDbLine
  8
0
 62
6
420
16711935
370
-1
 48
1.0
  6
BYLAYER
 10
90.1634999999999707
 20
6.3282499999999731
 30
0.0
 11
90.0269999999999584
 21
6.3282499999999731
 31
0.0
  0
LINE
  5
72
100
AcDbEntity
100
AcDbLine
  8
0
 62
6
420
16711935
370
-1
 48
1.0
  6
BYLAYER
 10
90.4365000000000805
 20
5.6282499999999915
 30
0.0
 11
90.3000000000000682
 21
5.6282499999999915
 31
0.0
  0
LINE
  5
73
100
AcDbEntity
100
AcDbLine
  8
0
 62
3
420
65280
370
-1
 48
1.0
  6
BYLAYER
 10
80.6199999999999477
 20
2.25
 30
0.0
 11
80.75
 21
2.25
 31
0.0
  0
LINE
  5
74
100
AcDbEntity
100
AcDbLine
  8
0
 62
3
420
65280
370
-1
 48
1.0
  6
BYLAYER
 10
85.2348905300000581
 20
2.2499999999999991
 30
0.0
 11
85.1048905300000058
 21
2.25
 31
0.0
  0
LINE
  5
75
100
AcDbEntity
100
AcDbLine
  8
0
 62
6
420
16711935
370
-1
 48
1.0
  6
BYLAYER
 10
85.2348905300000581
 20
6.5499999999999909
 30
0.0
 11
85.1048905300000058
 21
6.5499999999999909
 31
0.0
  0
LINE
  5
76
100
AcDbEntity
100
AcDbLine
  8
0
 62
6
420
16711935
370
-1
 48
1.0
  6
BYLAYER
 10
80.75
 20
6.5499999999999892
 30
0.0
 11
80.6200000000000188
 21
6.5499999999999892
 31
0.0
  0
LINE
  5
77
100
AcDbEntity
100
AcDbLine
  8
0
 62
1
420
16711680
370
-1
 48
1.0
  6
BYLAYER
 10
90.961883908409078
 20
2.2304393181466708
 30
0.0
 11
90.7375836754027034
 21
2.1009395182411352
 31
0.0
  0
LINE
  5
78
100
AcDbEntity
100
AcDbLine
  8
0
 62
3
420
65280
370
-1
 48
1.0
  6
BYLAYER
 10
91.793597581261082
 20
4.8762922562753461
 30
0.0
 11
91.8524203626552946
 21
4.8423309076028103
 31
0.0
  0
LINE
  5
79
100
AcDbEntity
100
AcDbLine
  8
0
 62
3
420
65280
370
-1
 48
1.0
  6
BYLAYER
 10
90.7830715440729819
 20
5.191540951267557
 30
0.0
 11
90.7328162556613194
 21
5.162526046974917
 31
0.0
  0
LINE
  5
7A
100
AcDbEntity
100
AcDbLine
  8
0
 62
3
420
65280
370
-1
 48
1.0
  6
BYLAYER
 10
90.9571164886676939
 20
5.2920258468804526
 30
0.0
 11
90.89819743688237
 21
5.2580089164717529
 31
0.0
  0
LINE
  5
7B
100
AcDbEntity
100
AcDbLine
  8
0
 62
3
420
65280
370
-1
 48
1.0
  6
BYLAYER
 10
91.2449422766431155
 20
5.8073614609277477
 30
0.0
 11
91.2449422766431724
 21
5.8413796980753805
 31
0.0
  0
LINE
  5
7C
100
AcDbEntity
100
AcDbLine
  8
0
 62
1
420
16711680
370
-1
 48
1.0
  6
BYLAYER
 10
91.3349422766436021
 20
6.402098672370288
 30
0.0
 11
91.6537961766433966
 21
6.4020986723702871
 31
0.0
  0
LINE
  5
7D
100
AcDbEntity
100
AcDbLine
  8
0
 62
3
420
65280
370
-1
 48
1.0
  6
BYLAYER
 10
90.6317242016744871
 20
4.6661552378918039
 30
0.0
 11
90.4922972516744721
 21
4.9076497992361432
 31
0.0
  0
LINE
  5
7E
100
AcDbEntity
100
AcDbLine
  8
0
 62
1
420
16711680
370
-1
 48
1.0
  6
BYLAYER
 10
91.3397096963849862
 20
3.3405121436365062
 30
0.0
 11
91.6585635963847807
 21
3.3405121436365053
 31
0.0
  0
LINE
  5
7F
100
AcDbEntity
100
AcDbLine
  8
0
 62
1
420
16711680
370
-1
 48
1.0
  6
BYLAYER
 10
90.7778185770875865
 20
2.0312506242855579
 30
0.0
 11
90.7375836754027034
 21
2.1009395182411352
 31
0.0
  0
LINE
  5
80
100
AcDbEntity
100
AcDbLine
  8
0
 62
3
420
65280
370
-1
 48
1.0
  6
BYLAYER
 10
90.7730511573462024
 20
5.0928371530193397
 30
0.0
 11
90.7328162556613194
 21
5.162526046974917
 31
0.0
  0
LINE
  5
81
100
AcDbEntity
100
AcDbLine
  8
0
 62
1
420
16711680
370
-1
 48
1.0
  6
BYLAYER
 10
91.2497096963844996
 20
2.745774932193966
 30
0.0
 11
91.3397096963848725
 21
2.7457749321941427
 31
0.0
  0
LINE
  5
82
100
AcDbEntity
100
AcDbLine
  8
0
 62
1
420
16711680
370
-1
 48
1.0
  6
BYLAYER
 10
92.0482037492421483
 20
2.2474391331919432
 30
0.0
 11
91.9980255954926633
 21
2.160528021467615
 31
0.0
  0
LINE
  5
83
100
AcDbEntity
100
AcDbLine
  8
0
 62
1
420
16711680
370
-1
 48
1.0
  6
BYLAYER
 10
91.2117491758310308
 20
1.797659979925196
 30
0.0
 11
91.1615457600936878
 21
1.8846148466952788
 31
0.0
  0
LINE
  5
84
100
AcDbEntity
100
AcDbLine
  8
0
 62
3
420
65280
370
-1
 48
1.0
  6
BYLAYER
 10
91.2449422766431155
 20
5.8073614609277477
 30
0.0
 11
91.3349422766434884
 21
5.8073614609279245
 31
0.0
  0
LINE
  5
85
100
AcDbEntity
100
AcDbLine
  8
0
 62
3
420
65280
370
-1
 48
1.0
  6
BYLAYER
 10
92.0434363295007643
 20
5.309025661925725
 30
0.0
 11
91.9932581757512793
 21
5.2221145502013968
 31
0.0
  0
LINE
  5
86
100
AcDbEntity
100
AcDbLine
  8
0
 62
3
420
65280
370
-1
 48
1.0
  6
BYLAYER
 10
91.2069817560896468
 20
4.8592465086589778
 30
0.0
 11
91.1567783403523038
 21
4.9462013754290606
 31
0.0
  0
LINE
  5
87
100
AcDbEntity
100
AcDbLine
  8
0
 62
1
420
16711680
370
-1
 48
1.0
  6
BYLAYER
 10
91.6585637036102838
 20
2.745774932193966
 30
0.0
 11
91.7485637036102162
 21
2.745774932193966
 31
0.0
  0
LINE
  5
88
100
AcDbEntity
100
AcDbLine
  8
0
 62
1
420
16711680
370
-1
 48
1.0
  6
BYLAYER
 10
91.8385986454925245
 20
1.8843924439720277
 30
0.0
 11
91.7983650010024661
 21
1.8147057275415643
 31
0.0
  0
LINE
  5
89
100
AcDbEntity
100
AcDbLine
  8
0
 62
1
420
16711680
370
-1
 48
1.0
  6
BYLAYER
 10
91.0021188100938758
 20
2.1607504241909994
 30
0.0
 11
90.961883908409078
 21
2.2304393181466708
 31
0.0
  0
LINE
  5
8A
100
AcDbEntity
100
AcDbLine
  8
0
 62
3
420
65280
370
-1
 48
1.0
  6
BYLAYER
 10
91.6537962838688998
 20
5.8073614609277477
 30
0.0
 11
91.7437962838688321
 21
5.8073614609277477
 31
0.0
  0
LINE
  5
8B
100
AcDbEntity
100
AcDbLine
  8
0
 62
3
420
65280
370
-1
 48
1.0
  6
BYLAYER
 10
91.8338312257511404
 20
4.9459789727058094
 30
0.0
 11
91.793597581261082
 21
4.8762922562753461
 31
0.0
  0
LINE
  5
8C
100
AcDbEntity
100
AcDbLine
  8
0
 62
3
420
65280
370
-1
 48
1.0
  6
BYLAYER
 10
90.9973513903524918
 20
5.2223369529247812
 30
0.0
 11
90.9571164886676939
 21
5.2920258468804526
 31
0.0
  0
LINE
  5
8D
100
AcDbEntity
100
AcDbLine
  8
0
 62
3
420
65280
370
-1
 48
1.0
  6
BYLAYER
 10
90.7781696699169629
 20
1.1610551308369081
 30
0.0
 11
90.2236242404202358
 21
1.5271959898302607
 31
0.0
  0
LINE
  5
8E
100
AcDbEntity
100
AcDbLine
  8
0
 62
3
420
65280
370
-1
 48
1.0
  6
BYLAYER
 10
92.8161903300830318
 20
2.1903778187044387
 30
0.0
 11
92.77637575957975
 21
1.5270569597111332
 31
0.0
  0
LINE
  5
8F
100
AcDbEntity
100
AcDbLine
  8
0
 62
3
420
65280
370
-1
 48
1.0
  6
BYLAYER
 10
92.7915156250900139
 20
4.9203039179415926
 30
0.0
 11
92.771608339838366
 21
4.588643488444915
 31
0.0
  0
LINE
  5
90
100
AcDbEntity
100
AcDbLine
  8
0
 62
3
420
65280
370
-1
 48
1.0
  6
BYLAYER
 10
90.7734022501755788
 20
4.2226416595706899
 30
0.0
 11
90.2188568206788517
 21
4.5887825185640425
 31
0.0
  0
LINE
  5
91
100
AcDbEntity
100
AcDbLine
  8
0
 62
3
420
65280
370
-1
 48
1.0
  6
BYLAYER
 10
92.77637575957975
 20
1.5270569597111332
 30
0.0
 11
92.2218303300830087
 21
1.1609161007177788
 31
0.0
  0
LINE
  5
92
100
AcDbEntity
100
AcDbLine
  8
0
 62
3
420
65280
370
-1
 48
1.0
  6
BYLAYER
 10
90.2236242404202358
 20
1.5271959898302607
 30
0.0
 11
90.1838096699169398
 21
2.1905168488235716
 31
0.0
  0
LINE
  5
93
100
AcDbEntity
100
AcDbLine
  8
0
 62
3
420
65280
370
-1
 48
1.0
  6
BYLAYER
 10
92.771608339838366
 20
4.588643488444915
 30
0.0
 11
92.2170629103416246
 21
4.2225026294515606
 31
0.0
  0
LINE
  5
94
100
AcDbEntity
100
AcDbLine
  8
0
 62
3
420
65280
370
-1
 48
1.0
  6
BYLAYER
 10
90.2188568206788517
 20
4.5887825185640425
 30
0.0
 11
90.1989495354272037
 21
4.9204429480607379
 31
0.0
  0
LINE
  5
95
100
AcDbEntity
100
AcDbLine
  8
0
 62
3
420
65280
370
-1
 48
1.0
  6
BYLAYER
 10
92.3941544599923787
 20
1.0632478563634584
 30
0.0
 11
92.3941544599923787
 21
1.0632478563634584
 31
0.0
  0
LINE
  5
96
100
AcDbEntity
100
AcDbLine
  8
0
 62
3
420
65280
370
-1
 48
1.0
  6
BYLAYER
 10
92.2340318339320078
 20
1.1538715591860096
 30
0.0
 11
92.2340318339320078
 21
1.1538715591860096
 31
0.0
  0
LINE
  5
97
100
AcDbEntity
100
AcDbLine
  8
0
 62
3
420
65280
370
-1
 48
1.0
  6
BYLAYER
 10
92.2340318339320078
 20
1.1538715591860096
 30
0.0
 11
92.2340318339320078
 21
1.1538715591860096
 31
0.0
  0
LINE
  5
98
100
AcDbEntity
100
AcDbLine
  8
0
 62
3
420
65280
370
-1
 48
1.0
  6
BYLAYER
 10
90.2089390687905137
 20
2.2050253140278655
 30
0.0
 11
90.2089390687905137
 21
2.2050253140278655
 31
0.0
  0
LINE
  5
99
100
AcDbEntity
100
AcDbLine
  8
0
 62
3
420
65280
370
-1
 48
1.0
  6
BYLAYER
 10
92.0934966463848923
 20
3.4545018422573128
 30
0.0
 11
92.0934966463848923
 21
3.4545018422573128
 31
0.0
  0
LINE
  5
9A
100
AcDbEntity
100
AcDbLine
  8
0
 62
3
420
65280
370
-1
 48
1.0
  6
BYLAYER
 10
92.3893870402509947
 20
4.1248343850972402
 30
0.0
 11
92.3893870402509947
 21
4.1248343850972402
 31
0.0
  0
LINE
  5
9B
100
AcDbEntity
100
AcDbLine
  8
0
 62
3
420
65280
370
-1
 48
1.0
  6
BYLAYER
 10
92.2292644141906237
 20
4.2154580879197914
 30
0.0
 11
92.2292644141906237
 21
4.2154580879197914
 31
0.0
  0
LINE
  5
9C
100
AcDbEntity
100
AcDbLine
  8
0
 62
3
420
65280
370
-1
 48
1.0
  6
BYLAYER
 10
90.2041716490491297
 20
5.2666118427616482
 30
0.0
 11
90.2041716490491297
 21
5.2666118427616482
 31
0.0
  0
LINE
  5
9D
100
AcDbEntity
100
AcDbLine
  8
0
 62
3
420
65280
370
-1
 48
1.0
  6
BYLAYER
 10
92.2170629103416246
 20
4.2225026294515606
 30
0.0
 11
92.0828335270987139
 21
4.2999999999999998
 31
0.0
  0
ARC
  5
9E
100
AcDbEntity
  8
0
 62
1
420
16711680
370
-1
 48
1.0
  6
BYLAYER
100
AcDbCircle
 10
91.4998795963848011
 20
2.264042363151058
 30
0.0
 40
0.3009394317052707
100
AcDbArc
 50
122.1564549379602909
 51
178.010472988906173
  0
ARC
  5
9F
100
AcDbEntity
  8
0
 62
1
420
16711680
370
-1
 48
1.0
  6
BYLAYER
100
AcDbCircle
 10
91.4998795963848011
 20
2.264042363151058
 30
0.0
 40
0.3009394317052707
100
AcDbArc
 50
1.9895270111452892
 51
58.2465658153527173
  0
ARC
  5
A0
100
AcDbEntity
  8
0
 62
1
420
16711680
370
-1
 48
1.0
  6
BYLAYER
100
AcDbCircle
 10
91.4998795963848011
 20
2.264042363151058
 30
0.0
 40
0.3009394317052707
100
AcDbArc
 50
241.9895270111169339
 51
298.0104729889320083
  0
ARC
  5
A1
100
AcDbEntity
  8
0
 62
3
420
65280
370
-1
 48
1.0
  6
BYLAYER
100
AcDbCircle
 10
91.495112176643417
 20
5.3256288918848398
 30
0.0
 40
0.3009394317052707
100
AcDbArc
 50
122.1564549379602909
 51
178.010472988906173
  0
ARC
  5
A2
100
AcDbEntity
  8
0
 62
3
420
65280
370
-1
 48
1.0
  6
BYLAYER
100
AcDbCircle
 10
91.495112176643417
 20
5.3256288918848398
 30
0.0
 40
0.3009394317052707
100
AcDbArc
 50
1.9895270111452892
 51
58.2465658153527173
  0
ARC
  5
A3
100
AcDbEntity
  8
0
 62
3
420
65280
370
-1
 48
1.0
  6
BYLAYER
100
AcDbCircle
 10
91.495112176643417
 20
5.3256288918848398
 30
0.0
 40
0.3009394317052707
100
AcDbArc
 50
241.9895270111169339
 51
298.0104729889320083
  0
LINE
  5
A4
100
AcDbEntity
100
AcDbLine
  8
0
 62
3
420
65280
370
-1
 48
1.0
  6
BYLAYER
 10
92.0934966463846081
 20
3.0074448526930904
 30
0.0
 11
92.0934966463846791
 21
2.7079978234249
 31
0.0
  0
LINE
  5
A5
100
AcDbEntity
100
AcDbLine
  8
0
 62
3
420
65280
370
-1
 48
1.0
  6
BYLAYER
 10
90.9047766463851445
 20
3.0074448526938222
 30
0.0
 11
90.9047766463850735
 21
2.7079978234256319
 31
0.0
  0
LINE
  5
A6
100
AcDbEntity
100
AcDbLine
  8
0
 62
3
420
65280
370
-1
 48
1.0
  6
BYLAYER
 10
90.9000092266433342
 20
5.8753979352232699
 30
0.0
 11
90.900009226643391
 21
6.0200000000005236
 31
0.0
  0
LINE
  5
A7
100
AcDbEntity
100
AcDbLine
  8
0
 62
3
420
65280
370
-1
 48
1.0
  6
BYLAYER
 10
92.088729226643423
 20
6.019999999999861
 30
0.0
 11
92.088729226643224
 21
6.0690313814268722
 31
0.0
  0
LINE
  5
A8
100
AcDbEntity
100
AcDbLine
  8
0
 62
3
420
65280
370
-1
 48
1.0
  6
BYLAYER
 10
92.0934966463846791
 20
2.7079978234249
 30
0.0
 11
92.1480696657655898
 21
2.7079978234249
 31
0.0
  0
LINE
  5
A9
100
AcDbEntity
100
AcDbLine
  8
0
 62
3
420
65280
370
-1
 48
1.0
  6
BYLAYER
 10
90.9047766463850735
 20
2.7079978234256319
 30
0.0
 11
90.8502036270041629
 21
2.7079978234256319
 31
0.0
  0
LINE
  5
AA
100
AcDbEntity
100
AcDbLine
  8
0
 62
3
420
65280
370
-1
 48
1.0
  6
BYLAYER
 10
91.6327244944128694
 20
4.5598705711857983
 30
0.0
 11
91.5917947298771651
 21
4.4889781394681725
 31
0.0
  0
LINE
  5
AB
100
AcDbEntity
100
AcDbLine
  8
0
 62
3
420
65280
370
-1
 48
1.0
  6
BYLAYER
 10
91.8241161086491928
 20
4.4493705711857361
 30
0.0
 11
91.7831863441134885
 21
4.378478139468112
 31
0.0
  0
LINE
  5
AC
100
AcDbEntity
100
AcDbLine
  8
0
 62
3
420
65280
370
-1
 48
1.0
  6
BYLAYER
 10
90.5311074225276684
 20
5.5498915418774262
 30
0.0
 11
90.5720371870633301
 21
5.4789991101597755
 31
0.0
  0
LINE
  5
AD
100
AcDbEntity
100
AcDbLine
  8
0
 62
3
420
65280
370
-1
 48
1.0
  6
BYLAYER
 10
90.7224990367640629
 20
5.6603915418773711
 30
0.0
 11
90.7634288012997246
 21
5.5894991101597205
 31
0.0
  0
LINE
  5
AE
100
AcDbEntity
100
AcDbLine
  8
0
 62
3
420
65280
370
-1
 48
1.0
  6
BYLAYER
 10
91.6327244944128552
 20
4.5598705711857974
 30
0.0
 11
91.6751874821451906
 21
4.5353545537879114
 31
0.0
  0
LINE
  5
AF
100
AcDbEntity
100
AcDbLine
  8
0
 62
3
420
65280
370
-1
 48
1.0
  6
BYLAYER
 10
92.2084623301827122
 20
2.6072897430404764
 30
0.0
 11
92.1798661713498007
 21
2.5577597430401844
 31
0.0
  0
LINE
  5
B0
100
AcDbEntity
100
AcDbLine
  8
0
 62
3
420
65280
370
-1
 48
1.0
  6
BYLAYER
 10
90.7915858050125877
 20
2.6074565640284297
 30
0.0
 11
90.8201819638456129
 21
2.5579265640281377
 31
0.0
  0
LINE
  5
B1
100
AcDbEntity
100
AcDbLine
  8
0
 62
3
420
65280
370
-1
 48
1.0
  6
BYLAYER
 10
91.5855061713497776
 20
1.5282980250542599
 30
0.0
 11
91.556910012516866
 21
1.4787680250541331
 31
0.0
  0
LINE
  5
B2
100
AcDbEntity
100
AcDbLine
  8
0
 62
3
420
65280
370
-1
 48
1.0
  6
BYLAYER
 10
91.4145419638448544
 20
1.5284648460409733
 30
0.0
 11
91.443138122677766
 21
1.4789348460406759
 31
0.0
  0
CIRCLE
  5
B3
100
AcDbEntity
100
AcDbCircle
  8
0
 62
6
420
16711935
370
-1
 48
1.0
  6
BYLAYER
 10
91.9819659646285146
 20
2.5437713370924011
 30
0.0
 40
0.0544830000000068
  0
CIRCLE
  5
B4
100
AcDbEntity
100
AcDbCircle
  8
0
 62
6
420
16711935
370
-1
 48
1.0
  6
BYLAYER
 10
91.9771985448871305
 20
5.6053578658261829
 30
0.0
 40
0.0544830000000068
  0
CIRCLE
  5
B5
100
AcDbEntity
100
AcDbCircle
  8
0
 62
6
420
16711935
370
-1
 48
1.0
  6
BYLAYER
 10
91.4943692266433999
 20
6.5714414920591411
 30
0.0
 40
0.0544830000000068
  0
CIRCLE
  5
B6
100
AcDbEntity
100
AcDbCircle
  8
0
 62
6
420
16711935
370
-1
 48
1.0
  6
BYLAYER
 10
91.4991366463847839
 20
3.5098549633253593
 30
0.0
 40
0.0544830000000068
  0
CIRCLE
  5
B7
100
AcDbEntity
100
AcDbCircle
  8
0
 62
6
420
16711935
370
-1
 48
1.0
  6
BYLAYER
 10
91.0130258083999308
 20
5.605357865826857
 30
0.0
 40
0.0544830000000068
  0
CIRCLE
  5
B8
100
AcDbEntity
100
AcDbCircle
  8
0
 62
6
420
16711935
370
-1
 48
1.0
  6
BYLAYER
 10
91.0177932281413149
 20
2.5437713370930752
 30
0.0
 40
0.0544830000000068
  0
CIRCLE
  5
B9
100
AcDbEntity
100
AcDbCircle
  8
0
 62
6
420
16711935
370
-1
 48
1.0
  6
BYLAYER
 10
91.4951121766430759
 20
4.7679442413596318
 30
0.0
 40
0.0544830000000068
  0
CIRCLE
  5
BA
100
AcDbEntity
100
AcDbCircle
  8
0
 62
6
420
16711935
370
-1
 48
1.0
  6
BYLAYER
 10
91.49987959638446
 20
1.70635771262585
 30
0.0
 40
0.0544830000000068
  0
LINE
  5
BB
100
AcDbEntity
100
AcDbLine
  8
0
 62
3
420
65280
370
-1
 48
1.0
  6
BYLAYER
 10
90.7915858050125877
 20
2.6074565640284297
 30
0.0
 11
90.8502036270041629
 21
2.7079978234256319
 31
0.0
  0
LINE
  5
BC
100
AcDbEntity
100
AcDbLine
  8
0
 62
3
420
65280
370
-1
 48
1.0
  6
BYLAYER
 10
92.2084623301827122
 20
2.6072897430404764
 30
0.0
 11
92.1480696657655898
 21
2.7079978234249
 31
0.0
  0
LINE
  5
BD
100
AcDbEntity
100
AcDbLine
  8
0
 62
3
420
65280
370
-1
 48
1.0
  6
BYLAYER
 10
91.556910012516866
 20
1.4787680250541331
 30
0.0
 11
91.443138122677766
 21
1.4789348460406759
 31
0.0
  0
CIRCLE
  5
BE
100
AcDbEntity
100
AcDbCircle
  8
0
 62
3
420
65280
370
-1
 48
1.0
  6
BYLAYER
 10
99.9274452650000029
 20
0.3000000000000204
 30
0.0
 40
0.0538785000000007
  0
CIRCLE
  5
BF
100
AcDbEntity
100
AcDbCircle
  8
0
 62
3
420
65280
370
-1
 48
1.0
  6
BYLAYER
 10
91.4999999999999858
 20
8.4000000000000199
 30
0.0
 40
0.0538785000000007
  0
CIRCLE
  5
C0
100
AcDbEntity
100
AcDbCircle
  8
0
 62
3
420
65280
370
-1
 48
1.0
  6
BYLAYER
 10
97.4350000000000023
 20
0.3000000000000185
 30
0.0
 40
0.0538785000000007
  0
CIRCLE
  5
C1
100
AcDbEntity
100
AcDbCircle
  8
0
 62
3
420
65280
370
-1
 48
1.0
  6
BYLAYER
 10
89.0075547349999852
 20
8.4000000000000181
 30
0.0
 40
0.0538785000000007
  0
CIRCLE
  5
C2
100
AcDbEntity
100
AcDbCircle
  8
0
 62
3
420
65280
370
-1
 48
1.0
  6
BYLAYER
 10
102.4198905300000177
 20
0.3000000000000204
 30
0.0
 40
0.0538785000000007
  0
CIRCLE
  5
C3
100
AcDbEntity
100
AcDbCircle
  8
0
 62
3
420
65280
370
-1
 48
1.0
  6
BYLAYER
 10
93.9924452650000006
 20
8.4000000000000199
 30
0.0
 40
0.0538785000000007
  0
CIRCLE
  5
C4
100
AcDbEntity
100
AcDbCircle
  8
0
 62
3
420
65280
370
-1
 48
1.0
  6
BYLAYER
 10
99.9274452650000029
 20
-0.399999999999979
 30
0.0
 40
0.0538785000000007
  0
CIRCLE
  5
C5
100
AcDbEntity
100
AcDbCircle
  8
0
 62
3
420
65280
370
-1
 48
1.0
  6
BYLAYER
 10
91.4999999999999858
 20
7.7000000000000206
 30
0.0
 40
0.0538785000000007
  0
CIRCLE
  5
C6
100
AcDbEntity
100
AcDbCircle
  8
0
 62
3
420
65280
370
-1
 48
1.0
  6
BYLAYER
 10
99.9274452650000029
 20
1.0
 30
0.0
 40
0.0538785000000007
  0
CIRCLE
  5
C7
100
AcDbEntity
100
AcDbCircle
  8
0
 62
3
420
65280
370
-1
 48
1.0
  6
BYLAYER
 10
91.4999999999999858
 20
9.0999999999999996
 30
0.0
 40
0.0538785000000007
  0
CIRCLE
  5
C8
100
AcDbEntity
100
AcDbCircle
  8
0
 62
3
420
65280
370
-1
 48
1.0
  6
BYLAYER
 10
97.4350000000000023
 20
-0.3999999999999808
 30
0.0
 40
0.0538785000000007
  0
CIRCLE
  5
C9
100
AcDbEntity
100
AcDbCircle
  8
0
 62
3
420
65280
370
-1
 48
1.0
  6
BYLAYER
 10
89.0075547349999852
 20
7.7000000000000188
 30
0.0
 40
0.0538785000000007
  0
CIRCLE
  5
CA
100
AcDbEntity
100
AcDbCircle
  8
0
 62
3
420
65280
370
-1
 48
1.0
  6
BYLAYER
 10
102.4198905300000177
 20
-0.399999999999979
 30
0.0
 40
0.0538785000000007
  0
CIRCLE
  5
CB
100
AcDbEntity
100
AcDbCircle
  8
0
 62
3
420
65280
370
-1
 48
1.0
  6
BYLAYER
 10
93.9924452650000006
 20
7.7000000000000206
 30
0.0
 40
0.0538785000000007
  0
CIRCLE
  5
CC
100
AcDbEntity
100
AcDbCircle
  8
0
 62
3
420
65280
370
-1
 48
1.0
  6
BYLAYER
 10
104.9999999999999858
 20
2.0500000000000194
 30
0.0
 40
0.125
  0
CIRCLE
  5
CD
100
AcDbEntity
100
AcDbCircle
  8
0
 62
3
420
65280
370
-1
 48
1.0
  6
BYLAYER
 10
104.9999999999999858
 20
0.1500000000000195
 30
0.0
 40
0.125
  0
CIRCLE
  5
CE
100
AcDbEntity
100
AcDbCircle
  8
0
 62
3
420
65280
370
-1
 48
1.0
  6
BYLAYER
 10
94.9649999999999892
 20
8.0923964107727038
 30
0.0
 40
0.0538785000000007
  0
CIRCLE
  5
CF
100
AcDbEntity
100
AcDbCircle
  8
0
 62
3
420
65280
370
-1
 48
1.0
  6
BYLAYER
 10
102.4198905300000177
 20
1.0
 30
0.0
 40
0.0538785000000007
  0
CIRCLE
  5
D0
100
AcDbEntity
100
AcDbCircle
  8
0
 62
3
420
65280
370
-1
 48
1.0
  6
BYLAYER
 10
93.9924452650000006
 20
9.0999999999999996
 30
0.0
 40
0.0538785000000007
  0
CIRCLE
  5
D1
100
AcDbEntity
100
AcDbCircle
  8
0
 62
3
420
65280
370
-1
 48
1.0
  6
BYLAYER
 10
97.4350000000000023
 20
0.9999999999999983
 30
0.0
 40
0.0538785000000007
  0
CIRCLE
  5
D2
100
AcDbEntity
100
AcDbCircle
  8
0
 62
3
420
65280
370
-1
 48
1.0
  6
BYLAYER
 10
89.0075547349999852
 20
9.0999999999999979
 30
0.0
 40
0.0538785000000007
  0
CIRCLE
  5
D3
100
AcDbEntity
100
AcDbCircle
  8
0
 62
3
420
65280
370
-1
 48
1.0
  6
BYLAYER
 10
95.7800000000000011
 20
8.0923964107727056
 30
0.0
 40
0.0538785000000007
  0
CIRCLE
  5
D4
100
AcDbEntity
100
AcDbCircle
  8
0
 62
3
420
65280
370
-1
 48
1.0
  6
BYLAYER
 10
94.9650000000671071
 20
9.0999999999999996
 30
0.0
 40
0.0538785000000007
  0
CIRCLE
  5
D5
100
AcDbEntity
100
AcDbCircle
  8
0
 62
3
420
65280
370
-1
 48
1.0
  6
BYLAYER
 10
95.7800000000000011
 20
9.1000000000000014
 30
0.0
 40
0.0538785000000007
  0
CIRCLE
  5
D6
100
AcDbEntity
100
AcDbCircle
  8
0
 62
3
420
65280
370
-1
 48
1.0
  6
BYLAYER
 10
80.4349999999999881
 20
1.7000000000000033
 30
0.0
 40
0.0538785000000007
  0
CIRCLE
  5
D7
100
AcDbEntity
100
AcDbCircle
  8
0
 62
3
420
65280
370
-1
 48
1.0
  6
BYLAYER
 10
85.4198905300000177
 20
1.7000000000000024
 30
0.0
 40
0.0538785000000007
  0
CIRCLE
  5
D8
100
AcDbEntity
100
AcDbCircle
  8
0
 62
3
420
65280
370
-1
 48
1.0
  6
BYLAYER
 10
85.4198905300000177
 20
5.9999999999999991
 30
0.0
 40
0.0538785000000007
  0
CIRCLE
  5
D9
100
AcDbEntity
100
AcDbCircle
  8
0
 62
3
420
65280
370
-1
 48
1.0
  6
BYLAYER
 10
80.4350000000000023
 20
5.9999999999999973
 30
0.0
 40
0.0538785000000007
  0
CIRCLE
  5
DA
100
AcDbEntity
100
AcDbCircle
  8
0
 62
3
420
65280
370
-1
 48
1.0
  6
BYLAYER
 10
81.9458784859711926
 20
1.0000000000000284
 30
0.0
 40
0.0538785000000007
  0
CIRCLE
  5
DB
100
AcDbEntity
100
AcDbCircle
  8
0
 62
3
420
65280
370
-1
 48
1.0
  6
BYLAYER
 10
83.9090120440288132
 20
1.0000000000000284
 30
0.0
 40
0.0538785000000007
  0
CIRCLE
  5
DC
100
AcDbEntity
100
AcDbCircle
  8
0
 62
3
420
65280
370
-1
 48
1.0
  6
BYLAYER
 10
82.9274452650000029
 20
5.3000000000000194
 30
0.0
 40
0.0538785000000007
  0
CIRCLE
  5
DD
100
AcDbEntity
100
AcDbCircle
  8
0
 62
3
420
65280
370
-1
 48
1.0
  6
BYLAYER
 10
80.4350000000000023
 20
5.3000000000000176
 30
0.0
 40
0.0538785000000007
  0
CIRCLE
  5
DE
100
AcDbEntity
100
AcDbCircle
  8
0
 62
3
420
65280
370
-1
 48
1.0
  6
BYLAYER
 10
80.4349999999999881
 20
1.0000000000000291
 30
0.0
 40
0.0538785000000007
  0
CIRCLE
  5
DF
100
AcDbEntity
100
AcDbCircle
  8
0
 62
3
420
65280
370
-1
 48
1.0
  6
BYLAYER
 10
85.4198905300000177
 20
1.0000000000000284
 30
0.0
 40
0.0538785000000007
  0
CIRCLE
  5
E0
100
AcDbEntity
100
AcDbCircle
  8
0
 62
3
420
65280
370
-1
 48
1.0
  6
BYLAYER
 10
85.4198905300000177
 20
5.3000000000000194
 30
0.0
 40
0.0538785000000007
  0
CIRCLE
  5
E1
100
AcDbEntity
100
AcDbCircle
  8
0
 62
3
420
65280
370
-1
 48
1.0
  6
BYLAYER
 10
81.9458784859711926
 20
0.3000000000000256
 30
0.0
 40
0.0538785000000007
  0
CIRCLE
  5
E2
100
AcDbEntity
100
AcDbCircle
  8
0
 62
3
420
65280
370
-1
 48
1.0
  6
BYLAYER
 10
83.9090120440288132
 20
0.3000000000000255
 30
0.0
 40
0.0538785000000007
  0
CIRCLE
  5
E3
100
AcDbEntity
100
AcDbCircle
  8
0
 62
3
420
65280
370
-1
 48
1.0
  6
BYLAYER
 10
82.9274452650000029
 20
4.6000000000000201
 30
0.0
 40
0.0538785000000007
  0
CIRCLE
  5
E4
100
AcDbEntity
100
AcDbCircle
  8
0
 62
3
420
65280
370
-1
 48
1.0
  6
BYLAYER
 10
81.9458784859711926
 20
1.7000000000000028
 30
0.0
 40
0.0538785000000007
  0
CIRCLE
  5
E5
100
AcDbEntity
100
AcDbCircle
  8
0
 62
3
420
65280
370
-1
 48
1.0
  6
BYLAYER
 10
83.9090120440288132
 20
1.7000000000000028
 30
0.0
 40
0.0538785000000007
  0
CIRCLE
  5
E6
100
AcDbEntity
100
AcDbCircle
  8
0
 62
3
420
65280
370
-1
 48
1.0
  6
BYLAYER
 10
82.9274452650000029
 20
5.9999999999999991
 30
0.0
 40
0.0538785000000007
  0
CIRCLE
  5
E7
100
AcDbEntity
100
AcDbCircle
  8
0
 62
3
420
65280
370
-1
 48
1.0
  6
BYLAYER
 10
80.4350000000000023
 20
4.6000000000000183
 30
0.0
 40
0.0538785000000007
  0
CIRCLE
  5
E8
100
AcDbEntity
100
AcDbCircle
  8
0
 62
3
420
65280
370
-1
 48
1.0
  6
BYLAYER
 10
80.4349999999999881
 20
0.3000000000000117
 30
0.0
 40
0.0538785000000007
  0
CIRCLE
  5
E9
100
AcDbEntity
100
AcDbCircle
  8
0
 62
3
420
65280
370
-1
 48
1.0
  6
BYLAYER
 10
85.4198905300000177
 20
0.3000000000000108
 30
0.0
 40
0.0538785000000007
  0
CIRCLE
  5
EA
100
AcDbEntity
100
AcDbCircle
  8
0
 62
3
420
65280
370
-1
 48
1.0
  6
BYLAYER
 10
85.4198905300000177
 20
4.6000000000000201
 30
0.0
 40
0.0538785000000007
  0
LINE
  5
EB
100
AcDbEntity
100
AcDbLine
  8
0
 62
3
420
65280
370
-1
 48
1.0
  6
BYLAYER
 10
92.0434363295007643
 20
5.309025661925725
 30
0.0
 11
92.1022591108952042
 21
5.2750643132530719
 31
0.0
  0
LINE
  5
EC
100
AcDbEntity
100
AcDbLine
  8
0
 62
3
420
65280
370
-1
 48
1.0
  6
BYLAYER
 10
92.2086766144715568
 20
5.2136241389168125
 30
0.0
 11
92.2677159194388139
 21
5.179537780301211
 31
0.0
  0
LINE
  5
ED
100
AcDbEntity
100
AcDbLine
  8
0
 62
1
420
16711680
370
-1
 48
1.0
  6
BYLAYER
 10
92.0482037492421483
 20
2.2474391331919432
 30
0.0
 11
92.272483339180198
 21
2.1179512515674292
 31
0.0
  0
LINE
  5
EE
100
AcDbEntity
100
AcDbLine
  8
0
 62
3
420
65280
370
-1
 48
1.0
  6
BYLAYER
 10
91.7437962838688463
 20
5.8073614609277477
 30
0.0
 11
91.7437962838688463
 21
5.8413796980751673
 31
0.0
  0
CIRCLE
  5
EF
100
AcDbEntity
100
AcDbCircle
  8
0
 62
3
420
65280
370
-1
 48
1.0
  6
BYLAYER
 10
102.8548905300000058
 20
0.3000000000000204
 30
0.0
 40
0.25
  0
CIRCLE
  5
F0
100
AcDbEntity
100
AcDbCircle
  8
0
 62
3
420
65280
370
-1
 48
1.0
  6
BYLAYER
 10
94.4274452649999887
 20
8.4000000000000199
 30
0.0
 40
0.25
  0
CIRCLE
  5
F1
100
AcDbEntity
100
AcDbCircle
  8
0
 62
3
420
65280
370
-1
 48
1.0
  6
BYLAYER
 10
97.0
 20
0.3000000000000204
 30
0.0
 40
0.25
  0
CIRCLE
  5
F2
100
AcDbEntity
100
AcDbCircle
  8
0
 62
3
420
65280
370
-1
 48
1.0
  6
BYLAYER
 10
88.5725547349999829
 20
8.4000000000000199
 30
0.0
 40
0.25
  0
CIRCLE
  5
F3
100
AcDbEntity
100
AcDbCircle
  8
0
 62
3
420
65280
370
-1
 48
1.0
  6
BYLAYER
 10
102.8548905300000058
 20
1.0
 30
0.0
 40
0.25
  0
CIRCLE
  5
F4
100
AcDbEntity
100
AcDbCircle
  8
0
 62
3
420
65280
370
-1
 48
1.0
  6
BYLAYER
 10
94.4274452649999887
 20
9.0999999999999996
 30
0.0
 40
0.25
  0
CIRCLE
  5
F5
100
AcDbEntity
100
AcDbCircle
  8
0
 62
3
420
65280
370
-1
 48
1.0
  6
BYLAYER
 10
97.0
 20
1.0
 30
0.0
 40
0.25
  0
CIRCLE
  5
F6
100
AcDbEntity
100
AcDbCircle
  8
0
 62
3
420
65280
370
-1
 48
1.0
  6
BYLAYER
 10
88.5725547349999829
 20
9.0999999999999996
 30
0.0
 40
0.25
  0
ARC
  5
F7
100
AcDbEntity
  8
0
 62
7
420
0
370
-1
 48
1.0
  6
BYLAYER
100
AcDbCircle
 10
95.3999999999999915
 20
9.0999999999999996
 30
0.0
 40
0.25
100
AcDbArc
 50
282.4194613421222471
 51
257.580538627111423
  0
CIRCLE
  5
F8
100
AcDbEntity
100
AcDbCircle
  8
0
 62
3
420
65280
370
-1
 48
1.0
  6
BYLAYER
 10
102.8548905300000058
 20
-0.399999999999979
 30
0.0
 40
0.25
  0
CIRCLE
  5
F9
100
AcDbEntity
100
AcDbCircle
  8
0
 62
3
420
65280
370
-1
 48
1.0
  6
BYLAYER
 10
94.4274452649999887
 20
7.7000000000000206
 30
0.0
 40
0.25
  0
CIRCLE
  5
FA
100
AcDbEntity
100
AcDbCircle
  8
0
 62
3
420
65280
370
-1
 48
1.0
  6
BYLAYER
 10
97.0
 20
-0.399999999999979
 30
0.0
 40
0.25
  0
CIRCLE
  5
FB
100
AcDbEntity
100
AcDbCircle
  8
0
 62
3
420
65280
370
-1
 48
1.0
  6
BYLAYER
 10
88.5725547349999829
 20
7.7000000000000206
 30
0.0
 40
0.25
  0
LINE
  5
FC
100
AcDbEntity
100
AcDbLine
  8
0
 62
256
370
-1
 48
1.0
  6
BYLAYER
 10
97.0
 20
0.6500000000000129
 30
0.0
 11
102.8548905300000058
 21
0.6500000000000111
 31
0.0
  0
LINE
  5
FD
100
AcDbEntity
100
AcDbLine
  8
0
 62
256
370
-1
 48
1.0
  6
BYLAYER
 10
88.5725547349999829
 20
8.7500000000000124
 30
0.0
 11
94.4274452649999887
 21
8.7500000000000107
 31
0.0
  0
LINE
  5
FE
100
AcDbEntity
100
AcDbLine
  8
0
 62
256
370
-1
 48
1.0
  6
BYLAYER
 10
102.8548905300000058
 20
-0.7499999999999734
 30
0.0
 11
97.0
 21
-0.7499999999999725
 31
0.0
  0
LINE
  5
FF
100
AcDbEntity
100
AcDbLine
  8
0
 62
256
370
-1
 48
1.0
  6
BYLAYER
 10
94.4274452649999887
 20
7.3500000000000263
 30
0.0
 11
88.5725547349999829
 21
7.3500000000000272
 31
0.0
  0
LINE
  5
100
100
AcDbEntity
100
AcDbLine
  8
0
 62
256
370
-1
 48
1.0
  6
BYLAYER
 10
85.8548905300000058
 20
4.2500000000000258
 30
0.0
 11
80.0
 21
4.2500000000000266
 31
0.0
  0
LINE
  5
101
100
AcDbEntity
100
AcDbLine
  8
0
 62
256
370
-1
 48
1.0
  6
BYLAYER
 10
80.0
 20
4.2500000000000275
 30
0.0
 11
85.8548905300000058
 21
4.2500000000000258
 31
0.0
  0
LINE
  5
102
100
AcDbEntity
100
AcDbLine
  8
0
 62
256
370
-1
 48
1.0
  6
BYLAYER
 10
80.0
 20
4.9500000000000126
 30
0.0
 11
85.8548905300000058
 21
4.9500000000000108
 31
0.0
  0
LINE
  5
103
100
AcDbEntity
100
AcDbLine
  8
0
 62
256
370
-1
 48
1.0
  6
BYLAYER
 10
80.0
 20
5.6500000000000119
 30
0.0
 11
85.8548905300000058
 21
5.6500000000000101
 31
0.0
  0
LINE
  5
104
100
AcDbEntity
100
AcDbLine
  8
0
 62
256
370
-1
 48
1.0
  6
BYLAYER
 10
97.0
 20
-0.7499999999999716
 30
0.0
 11
102.8548905300000058
 21
-0.7499999999999734
 31
0.0
  0
LINE
  5
105
100
AcDbEntity
100
AcDbLine
  8
0
 62
256
370
-1
 48
1.0
  6
BYLAYER
 10
88.5725547349999829
 20
7.3500000000000281
 30
0.0
 11
94.4274452649999887
 21
7.3500000000000263
 31
0.0
  0
LINE
  5
106
100
AcDbEntity
100
AcDbLine
  8
0
 62
256
370
-1
 48
1.0
  6
BYLAYER
 10
80.0
 20
5.6500000000000119
 30
0.0
 11
85.8548905300000058
 21
5.6500000000000101
 31
0.0
  0
LINE
  5
107
100
AcDbEntity
100
AcDbLine
  8
0
 62
256
370
-1
 48
1.0
  6
BYLAYER
 10
97.0
 20
-0.0499999999999865
 30
0.0
 11
102.8548905300000058
 21
-0.0499999999999883
 31
0.0
  0
LINE
  5
108
100
AcDbEntity
100
AcDbLine
  8
0
 62
256
370
-1
 48
1.0
  6
BYLAYER
 10
88.5725547349999829
 20
8.0500000000000131
 30
0.0
 11
94.4274452649999887
 21
8.0500000000000114
 31
0.0
  0
LINE
  5
109
100
AcDbEntity
100
AcDbLine
  8
0
 62
256
370
-1
 48
1.0
  6
BYLAYER
 10
80.0
 20
4.9500000000000126
 30
0.0
 11
85.8548905300000058
 21
4.9500000000000108
 31
0.0
  0
LINE
  5
10A
100
AcDbEntity
100
AcDbLine
  8
0
 62
256
370
-1
 48
1.0
  6
BYLAYER
 10
97.0
 20
0.6500000000000129
 30
0.0
 11
102.8548905300000058
 21
0.6500000000000111
 31
0.0
  0
LINE
  5
10B
100
AcDbEntity
100
AcDbLine
  8
0
 62
256
370
-1
 48
1.0
  6
BYLAYER
 10
88.5725547349999829
 20
8.7500000000000124
 30
0.0
 11
94.4274452649999887
 21
8.7500000000000107
 31
0.0
  0
LINE
  5
10C
100
AcDbEntity
100
AcDbLine
  8
0
 62
256
370
-1
 48
1.0
  6
BYLAYER
 10
97.0
 20
-0.0499999999999865
 30
0.0
 11
102.8548905300000058
 21
-0.0499999999999883
 31
0.0
  0
LINE
  5
10D
100
AcDbEntity
100
AcDbLine
  8
0
 62
256
370
-1
 48
1.0
  6
BYLAYER
 10
88.5725547349999829
 20
8.0500000000000131
 30
0.0
 11
94.4274452649999887
 21
8.0500000000000114
 31
0.0
  0
ARC
  5
10E
100
AcDbEntity
  8
0
 62
256
370
-1
 48
1.0
  6
BYLAYER
100
AcDbCircle
 10
97.0
 20
0.3000000000000204
 30
0.0
 40
0.3499999999999904
100
AcDbArc
 50
90.0
 51
270.0
  0
ARC
  5
10F
100
AcDbEntity
  8
0
 62
256
370
-1
 48
1.0
  6
BYLAYER
100
AcDbCircle
 10
88.5725547349999829
 20
8.4000000000000199
 30
0.0
 40
0.3499999999999904
100
AcDbArc
 50
90.0
 51
270.0
  0
ARC
  5
110
100
AcDbEntity
  8
0
 62
256
370
-1
 48
1.0
  6
BYLAYER
100
AcDbCircle
 10
97.0
 20
1.0
 30
0.0
 40
0.3499999999999904
100
AcDbArc
 50
90.0
 51
270.0
  0
ARC
  5
111
100
AcDbEntity
  8
0
 62
256
370
-1
 48
1.0
  6
BYLAYER
100
AcDbCircle
 10
88.5725547349999829
 20
9.0999999999999996
 30
0.0
 40
0.3499999999999904
100
AcDbArc
 50
90.0
 51
270.0
  0
ARC
  5
112
100
AcDbEntity
  8
0
 62
256
370
-1
 48
1.0
  6
BYLAYER
100
AcDbCircle
 10
97.0
 20
-0.399999999999979
 30
0.0
 40
0.3499999999999904
100
AcDbArc
 50
90.0
 51
270.0
  0
ARC
  5
113
100
AcDbEntity
  8
0
 62
256
370
-1
 48
1.0
  6
BYLAYER
100
AcDbCircle
 10
88.5725547349999829
 20
7.7000000000000206
 30
0.0
 40
0.3499999999999904
100
AcDbArc
 50
90.0
 51
270.0
  0
ARC
  5
114
100
AcDbEntity
  8
0
 62
256
370
-1
 48
1.0
  6
BYLAYER
100
AcDbCircle
 10
80.0
 20
4.6000000000000201
 30
0.0
 40
0.3499999999999904
100
AcDbArc
 50
90.0
 51
270.0
  0
ARC
  5
115
100
AcDbEntity
  8
0
 62
256
370
-1
 48
1.0
  6
BYLAYER
100
AcDbCircle
 10
80.0
 20
5.3000000000000194
 30
0.0
 40
0.3499999999999904
100
AcDbArc
 50
90.0
 51
270.0
  0
ARC
  5
116
100
AcDbEntity
  8
0
 62
256
370
-1
 48
1.0
  6
BYLAYER
100
AcDbCircle
 10
80.0
 20
5.9999999999999991
 30
0.0
 40
0.3499999999999904
100
AcDbArc
 50
90.0
 51
270.0
  0
ARC
  5
117
100
AcDbEntity
  8
0
 62
256
370
-1
 48
1.0
  6
BYLAYER
100
AcDbCircle
 10
102.8548905300000058
 20
0.3000000000000204
 30
0.0
 40
0.3499999999999904
100
AcDbArc
 50
270.0
 51
90.0
  0
ARC
  5
118
100
AcDbEntity
  8
0
 62
256
370
-1
 48
1.0
  6
BYLAYER
100
AcDbCircle
 10
94.4274452649999887
 20
8.4000000000000199
 30
0.0
 40
0.3499999999999904
100
AcDbArc
 50
270.0
 51
90.0
  0
ARC
  5
119
100
AcDbEntity
  8
0
 62
256
370
-1
 48
1.0
  6
BYLAYER
100
AcDbCircle
 10
102.8548905300000058
 20
1.0
 30
0.0
 40
0.3499999999999904
100
AcDbArc
 50
270.0
 51
90.0
  0
ARC
  5
11A
100
AcDbEntity
  8
0
 62
256
370
-1
 48
1.0
  6
BYLAYER
100
AcDbCircle
 10
94.4274452649999887
 20
9.0999999999999996
 30
0.0
 40
0.3499999999999904
100
AcDbArc
 50
270.0
 51
90.0
  0
ARC
  5
11B
100
AcDbEntity
  8
0
 62
256
370
-1
 48
1.0
  6
BYLAYER
100
AcDbCircle
 10
102.8548905300000058
 20
-0.399999999999979
 30
0.0
 40
0.3499999999999904
100
AcDbArc
 50
270.0
 51
90.0
  0
ARC
  5
11C
100
AcDbEntity
  8
0
 62
256
370
-1
 48
1.0
  6
BYLAYER
100
AcDbCircle
 10
94.4274452649999887
 20
7.7000000000000206
 30
0.0
 40
0.3499999999999904
100
AcDbArc
 50
270.0
 51
90.0
  0
ARC
  5
11D
100
AcDbEntity
  8
0
 62
256
370
-1
 48
1.0
  6
BYLAYER
100
AcDbCircle
 10
80.0
 20
0.300000000000026
 30
0.0
 40
0.3499999999999904
100
AcDbArc
 50
90.0
 51
270.0
  0
ARC
  5
11E
100
AcDbEntity
  8
0
 62
256
370
-1
 48
1.0
  6
BYLAYER
100
AcDbCircle
 10
85.8548905300000058
 20
0.3000000000000256
 30
0.0
 40
0.3499999999999904
100
AcDbArc
 50
270.0
 51
90.0
  0
ARC
  5
11F
100
AcDbEntity
  8
0
 62
256
370
-1
 48
1.0
  6
BYLAYER
100
AcDbCircle
 10
85.8548905300000058
 20
4.6000000000000201
 30
0.0
 40
0.3499999999999904
100
AcDbArc
 50
270.0
 51
90.0
  0
ARC
  5
120
100
AcDbEntity
  8
0
 62
256
370
-1
 48
1.0
  6
BYLAYER
100
AcDbCircle
 10
80.0
 20
1.0000000000000289
 30
0.0
 40
0.3499999999999904
100
AcDbArc
 50
90.0
 51
270.0
  0
ARC
  5
121
100
AcDbEntity
  8
0
 62
256
370
-1
 48
1.0
  6
BYLAYER
100
AcDbCircle
 10
85.8548905300000058
 20
1.000000000000028
 30
0.0
 40
0.3499999999999904
100
AcDbArc
 50
270.0
 51
90.0
  0
ARC
  5
122
100
AcDbEntity
  8
0
 62
256
370
-1
 48
1.0
  6
BYLAYER
100
AcDbCircle
 10
85.8548905300000058
 20
5.3000000000000194
 30
0.0
 40
0.3499999999999904
100
AcDbArc
 50
270.0
 51
90.0
  0
ARC
  5
123
100
AcDbEntity
  8
0
 62
256
370
-1
 48
1.0
  6
BYLAYER
100
AcDbCircle
 10
80.0
 20
1.7000000000000028
 30
0.0
 40
0.3499999999999904
100
AcDbArc
 50
90.0
 51
270.0
  0
ARC
  5
124
100
AcDbEntity
  8
0
 62
256
370
-1
 48
1.0
  6
BYLAYER
100
AcDbCircle
 10
85.8548905300000058
 20
1.7000000000000031
 30
0.0
 40
0.3499999999999904
100
AcDbArc
 50
270.0
 51
90.0
  0
ARC
  5
125
100
AcDbEntity
  8
0
 62
256
370
-1
 48
1.0
  6
BYLAYER
100
AcDbCircle
 10
85.8548905300000058
 20
5.9999999999999991
 30
0.0
 40
0.3499999999999904
100
AcDbArc
 50
270.0
 51
90.0
  0
LINE
  5
126
100
AcDbEntity
100
AcDbLine
  8
0
 62
6
420
16711935
370
-1
 48
1.0
  6
BYLAYER
 10
102.1048905300000058
 20
1.5499999999999918
 30
0.0
 11
102.1048905300000058
 21
0.6500000000000111
 31
0.0
  0
LINE
  5
127
100
AcDbEntity
100
AcDbLine
  8
0
 62
6
420
16711935
370
-1
 48
1.0
  6
BYLAYER
 10
93.6774452649999887
 20
9.6499999999999915
 30
0.0
 11
93.6774452649999887
 21
8.7500000000000107
 31
0.0
  0
LINE
  5
128
100
AcDbEntity
100
AcDbLine
  8
0
 62
6
420
16711935
370
-1
 48
1.0
  6
BYLAYER
 10
97.6200000000000188
 20
1.5499999999999829
 30
0.0
 11
97.6200000000000188
 21
0.6500000000000022
 31
0.0
  0
LINE
  5
129
100
AcDbEntity
100
AcDbLine
  8
0
 62
6
420
16711935
370
-1
 48
1.0
  6
BYLAYER
 10
89.1925547350000016
 20
9.6499999999999826
 30
0.0
 11
89.1925547350000016
 21
8.7500000000000018
 31
0.0
  0
LINE
  5
12A
100
AcDbEntity
100
AcDbLine
  8
0
 62
3
420
65280
370
-1
 48
1.0
  6
BYLAYER
 10
80.75
 20
2.25
 30
0.0
 11
80.75
 21
1.3500000000000092
 31
0.0
  0
LINE
  5
12B
100
AcDbEntity
100
AcDbLine
  8
0
 62
3
420
65280
370
-1
 48
1.0
  6
BYLAYER
 10
85.1048905300000058
 20
2.25
 30
0.0
 11
85.1048905300000058
 21
1.3500000000000085
 31
0.0
  0
LINE
  5
12C
100
AcDbEntity
100
AcDbLine
  8
0
 62
6
420
16711935
370
-1
 48
1.0
  6
BYLAYER
 10
85.1048905300000058
 20
6.5499999999999909
 30
0.0
 11
85.1048905300000058
 21
5.6500000000000101
 31
0.0
  0
LINE
  5
12D
100
AcDbEntity
100
AcDbLine
  8
0
 62
6
420
16711935
370
-1
 48
1.0
  6
BYLAYER
 10
80.6200000000000188
 20
6.5499999999999821
 30
0.0
 11
80.6200000000000188
 21
5.6500000000000012
 31
0.0
  0
LINE
  5
12E
100
AcDbEntity
100
AcDbLine
  8
0
 62
6
420
16711935
370
-1
 48
1.0
  6
BYLAYER
 10
92.5522384532868045
 20
6.3282499999999704
 30
0.0
 11
92.5522384532868045
 21
5.6282499999999889
 31
0.0
  0
LINE
  5
12F
100
AcDbEntity
100
AcDbLine
  8
0
 62
6
420
16711935
370
-1
 48
1.0
  6
BYLAYER
 10
92.8252384532868007
 20
6.3282499999999731
 30
0.0
 11
92.8252384532868007
 21
5.6282499999999915
 31
0.0
  0
LINE
  5
130
100
AcDbEntity
100
AcDbLine
  8
0
 62
6
420
16711935
370
-1
 48
1.0
  6
BYLAYER
 10
92.961738453286813
 20
6.3282499999999722
 30
0.0
 11
92.961738453286813
 21
5.6282499999999906
 31
0.0
  0
LINE
  5
131
100
AcDbEntity
100
AcDbLine
  8
0
 62
6
420
16711935
370
-1
 48
1.0
  6
BYLAYER
 10
92.8252384532868149
 20
6.3282499999999722
 30
0.0
 11
92.8252384532868149
 21
5.6282499999999906
 31
0.0
  0
LINE
  5
132
100
AcDbEntity
100
AcDbLine
  8
0
 62
6
420
16711935
370
-1
 48
1.0
  6
BYLAYER
 10
90.1634999999999565
 20
6.3282499999999731
 30
0.0
 11
90.1634999999999565
 21
5.6282499999999915
 31
0.0
  0
LINE
  5
133
100
AcDbEntity
100
AcDbLine
  8
0
 62
6
420
16711935
370
-1
 48
1.0
  6
BYLAYER
 10
90.0269999999999442
 20
6.3282499999999722
 30
0.0
 11
90.0269999999999442
 21
5.6282499999999906
 31
0.0
  0
LINE
  5
134
100
AcDbEntity
100
AcDbLine
  8
0
 62
6
420
16711935
370
-1
 48
1.0
  6
BYLAYER
 10
102.2348905300000581
 20
1.5499999999999634
 30
0.0
 11
102.2348905300000581
 21
0.6499999999999827
 31
0.0
  0
LINE
  5
135
100
AcDbEntity
100
AcDbLine
  8
0
 62
6
420
16711935
370
-1
 48
1.0
  6
BYLAYER
 10
93.807445265000041
 20
9.6499999999999631
 30
0.0
 11
93.807445265000041
 21
8.7499999999999822
 31
0.0
  0
LINE
  5
136
100
AcDbEntity
100
AcDbLine
  8
0
 62
6
420
16711935
370
-1
 48
1.0
  6
BYLAYER
 10
90.3000000000000398
 20
6.3282499999999731
 30
0.0
 11
90.3000000000000398
 21
5.6282499999999915
 31
0.0
  0
LINE
  5
137
100
AcDbEntity
100
AcDbLine
  8
0
 62
6
420
16711935
370
-1
 48
1.0
  6
BYLAYER
 10
90.4365000000000521
 20
6.328249999999974
 30
0.0
 11
90.4365000000000521
 21
5.6282499999999924
 31
0.0
  0
LINE
  5
138
100
AcDbEntity
100
AcDbLine
  8
0
 62
6
420
16711935
370
-1
 48
1.0
  6
BYLAYER
 10
97.75
 20
1.5499999999999901
 30
0.0
 11
97.75
 21
0.6500000000000093
 31
0.0
  0
LINE
  5
139
100
AcDbEntity
100
AcDbLine
  8
0
 62
6
420
16711935
370
-1
 48
1.0
  6
BYLAYER
 10
89.3225547349999829
 20
9.6499999999999897
 30
0.0
 11
89.3225547349999829
 21
8.7500000000000089
 31
0.0
  0
LINE
  5
13A
100
AcDbEntity
100
AcDbLine
  8
0
 62
3
420
65280
370
-1
 48
1.0
  6
BYLAYER
 10
80.6199999999999477
 20
2.2499999999999716
 30
0.0
 11
80.6199999999999477
 21
1.3499999999999805
 31
0.0
  0
LINE
  5
13B
100
AcDbEntity
100
AcDbLine
  8
0
 62
3
420
65280
370
-1
 48
1.0
  6
BYLAYER
 10
85.2348905300000581
 20
2.2499999999999707
 30
0.0
 11
85.2348905300000581
 21
1.3499999999999799
 31
0.0
  0
LINE
  5
13C
100
AcDbEntity
100
AcDbLine
  8
0
 62
6
420
16711935
370
-1
 48
1.0
  6
BYLAYER
 10
85.2348905300000581
 20
6.5499999999999625
 30
0.0
 11
85.2348905300000581
 21
5.6499999999999817
 31
0.0
  0
LINE
  5
13D
100
AcDbEntity
100
AcDbLine
  8
0
 62
6
420
16711935
370
-1
 48
1.0
  6
BYLAYER
 10
80.75
 20
6.5499999999999892
 30
0.0
 11
80.75
 21
5.6500000000000083
 31
0.0
  0
LINE
  5
13E
100
AcDbEntity
100
AcDbLine
  8
0
 62
6
420
16711935
370
-1
 48
1.0
  6
BYLAYER
 10
92.8252384532867865
 20
6.3282499999999731
 30
0.0
 11
92.8252384532867865
 21
5.6282499999999915
 31
0.0
  0
LINE
  5
13F
100
AcDbEntity
100
AcDbLine
  8
0
 62
6
420
16711935
370
-1
 48
1.0
  6
BYLAYER
 10
92.6887384532867742
 20
6.328249999999974
 30
0.0
 11
92.6887384532867742
 21
5.6282499999999924
 31
0.0
  0
LINE
  5
140
100
AcDbEntity
100
AcDbLine
  8
0
 62
256
370
-1
 48
1.0
  6
BYLAYER
 10
102.8548905300000342
 20
1.349999999999973
 30
0.0
 11
102.3731405300000432
 21
1.7499999999999716
 31
0.0
  0
LINE
  5
141
100
AcDbEntity
100
AcDbLine
  8
0
 62
256
370
-1
 48
1.0
  6
BYLAYER
 10
94.4274452650000171
 20
9.4499999999999726
 30
0.0
 11
93.9456952650000261
 21
9.8499999999999712
 31
0.0
  0
LINE
  5
142
100
AcDbEntity
100
AcDbLine
  8
0
 62
256
370
-1
 48
1.0
  6
BYLAYER
 10
97.0
 20
1.3499999999999908
 30
0.0
 11
97.481749999999991
 21
1.7499999999999893
 31
0.0
  0
LINE
  5
143
100
AcDbEntity
100
AcDbLine
  8
0
 62
256
370
-1
 48
1.0
  6
BYLAYER
 10
88.5725547349999829
 20
9.4499999999999904
 30
0.0
 11
89.0543047349999739
 21
9.849999999999989
 31
0.0
  0
LINE
  5
144
100
AcDbEntity
100
AcDbLine
  8
0
 62
256
370
-1
 48
1.0
  6
BYLAYER
 10
79.9999999999999716
 20
2.0499999999999692
 30
0.0
 11
80.4817499999999626
 21
2.4499999999999744
 31
0.0
  0
LINE
  5
145
100
AcDbEntity
100
AcDbLine
  8
0
 62
256
370
-1
 48
1.0
  6
BYLAYER
 10
85.8548905300000342
 20
2.0499999999999687
 30
0.0
 11
85.3731405300000432
 21
2.4499999999999735
 31
0.0
  0
LINE
  5
146
100
AcDbEntity
100
AcDbLine
  8
0
 62
256
370
-1
 48
1.0
  6
BYLAYER
 10
85.8548905300000342
 20
6.3499999999999721
 30
0.0
 11
85.3731405300000432
 21
6.7499999999999707
 31
0.0
  0
LINE
  5
147
100
AcDbEntity
100
AcDbLine
  8
0
 62
256
370
-1
 48
1.0
  6
BYLAYER
 10
80.0
 20
6.3499999999999899
 30
0.0
 11
80.481749999999991
 21
6.7499999999999885
 31
0.0
  0
LINE
  5
148
100
AcDbEntity
100
AcDbLine
  8
0
 62
3
420
65280
370
-1
 48
1.0
  6
BYLAYER
 10
90.0270000000000437
 20
6.5827267143080288
 30
0.0
 11
90.1634999999999991
 21
6.5827267143080288
 31
0.0
  0
LINE
  5
149
100
AcDbEntity
100
AcDbLine
  8
0
 62
3
420
65280
370
-1
 48
1.0
  6
BYLAYER
 10
92.9617384532867419
 20
6.5827267143080173
 30
0.0
 11
92.8252384532867865
 21
6.5827267143080173
 31
0.0
  0
LINE
  5
14A
100
AcDbEntity
100
AcDbLine
  8
0
 62
3
420
65280
370
-1
 48
1.0
  6
BYLAYER
 10
92.8252384532867723
 20
6.5282499999999741
 30
0.0
 11
92.6887384532868168
 21
6.5282499999999741
 31
0.0
  0
LINE
  5
14B
100
AcDbEntity
100
AcDbLine
  8
0
 62
3
420
65280
370
-1
 48
1.0
  6
BYLAYER
 10
90.1635000000000133
 20
6.5282499999999741
 30
0.0
 11
90.2999999999999687
 21
6.5282499999999741
 31
0.0
  0
LINE
  5
14C
100
AcDbEntity
100
AcDbLine
  8
0
 62
3
420
65280
370
-1
 48
1.0
  6
BYLAYER
 10
92.6887384532868168
 20
6.5282499999999741
 30
0.0
 11
92.6887384532868168
 21
6.5827267143080173
 31
0.0
  0
LINE
  5
14D
100
AcDbEntity
100
AcDbLine
  8
0
 62
3
420
65280
370
-1
 48
1.0
  6
BYLAYER
 10
92.8252384532867723
 20
6.5282499999999741
 30
0.0
 11
92.8252384532867723
 21
6.5827267143080173
 31
0.0
  0
LINE
  5
14E
100
AcDbEntity
100
AcDbLine
  8
0
 62
3
420
65280
370
-1
 48
1.0
  6
BYLAYER
 10
92.8252384532867723
 20
6.5282499999999732
 30
0.0
 11
92.8252384532867723
 21
6.5827267143080164
 31
0.0
  0
LINE
  5
14F
100
AcDbEntity
100
AcDbLine
  8
0
 62
3
420
65280
370
-1
 48
1.0
  6
BYLAYER
 10
90.300000000000054
 20
6.5282499999999741
 30
0.0
 11
90.300000000000054
 21
6.5827267143080173
 31
0.0
  0
LINE
  5
150
100
AcDbEntity
100
AcDbLine
  8
0
 62
3
420
65280
370
-1
 48
1.0
  6
BYLAYER
 10
90.1635000000000133
 20
6.5282499999999741
 30
0.0
 11
90.1635000000000133
 21
6.5827267143080173
 31
0.0
  0
LINE
  5
151
100
AcDbEntity
100
AcDbLine
  8
0
 62
3
420
65280
370
-1
 48
1.0
  6
BYLAYER
 10
90.1634999999999991
 20
6.5282499999999732
 30
0.0
 11
90.1634999999999991
 21
6.5827267143080164
 31
0.0
  0
LINE
  5
152
100
AcDbEntity
100
AcDbLine
  8
0
 62
3
420
65280
370
-1
 48
1.0
  6
BYLAYER
 10
92.9617384532867419
 20
6.5827267143080164
 30
0.0
 11
93.0999999999999943
 21
6.3999999999999977
 31
0.0
  0
LINE
  5
153
100
AcDbEntity
100
AcDbLine
  8
0
 62
3
420
65280
370
-1
 48
1.0
  6
BYLAYER
 10
92.6887384532868168
 20
6.5827267143080173
 30
0.0
 11
92.489892512335345
 21
6.5827267143080181
 31
0.0
  0
LINE
  5
154
100
AcDbEntity
100
AcDbLine
  8
0
 62
3
420
65280
370
-1
 48
1.0
  6
BYLAYER
 10
90.0270000000000294
 20
6.5827267143080164
 30
0.0
 11
89.888738453286777
 21
6.3999999999999977
 31
0.0
  0
LINE
  5
155
100
AcDbEntity
100
AcDbLine
  8
0
 62
3
420
65280
370
-1
 48
1.0
  6
BYLAYER
 10
90.300000000000054
 20
6.5827267143080173
 30
0.0
 11
90.4988459409514689
 21
6.5827267143080173
 31
0.0
  0
LINE
  5
156
100
AcDbEntity
100
AcDbLine
  8
0
 62
3
420
65280
370
-1
 48
1.0
  6
BYLAYER
 10
93.0999999999999943
 20
5.3225473685756732
 30
0.0
 11
93.0999999999999943
 21
6.3999999999999977
 31
0.0
  0
LINE
  5
157
100
AcDbEntity
100
AcDbLine
  8
0
 62
3
420
65280
370
-1
 48
1.0
  6
BYLAYER
 10
89.8887384532867628
 20
5.3223834395111291
 30
0.0
 11
89.888738453286777
 21
6.3999999999999977
 31
0.0
  0
LINE
  5
158
100
AcDbEntity
100
AcDbLine
  8
0
 62
3
420
65280
370
-1
 48
1.0
  6
BYLAYER
 10
90.6976918819028555
 20
6.3999999999999995
 30
0.0
 11
90.4988459409514547
 21
6.5827267143080173
 31
0.0
  0
LINE
  5
159
100
AcDbEntity
100
AcDbLine
  8
0
 62
256
370
-1
 48
1.0
  6
BYLAYER
 10
98.3735667650000067
 20
1.349999999999973
 30
0.0
 11
98.2933398080387519
 21
1.349999999999973
 31
0.0
  0
LINE
  5
15A
100
AcDbEntity
100
AcDbLine
  8
0
 62
256
370
-1
 48
1.0
  6
BYLAYER
 10
89.9461214999999896
 20
9.4499999999999726
 30
0.0
 11
89.8658945430387348
 21
9.4499999999999726
 31
0.0
  0
LINE
  5
15B
100
AcDbEntity
100
AcDbLine
  8
0
 62
256
370
-1
 48
1.0
  6
BYLAYER
 10
81.3735667650000067
 20
6.3499999999999721
 30
0.0
 11
81.2933398080387519
 21
6.3499999999999721
 31
0.0
  0
LINE
  5
15C
100
AcDbEntity
100
AcDbLine
  8
0
 62
256
370
-1
 48
1.0
  6
BYLAYER
 10
101.373574522653854
 20
1.3499999999999908
 30
0.0
 11
98.4813237650000133
 21
1.3499999999999748
 31
0.0
  0
LINE
  5
15D
100
AcDbEntity
100
AcDbLine
  8
0
 62
256
370
-1
 48
1.0
  6
BYLAYER
 10
92.9461292576538369
 20
9.4499999999999904
 30
0.0
 11
90.0538784999999962
 21
9.4499999999999744
 31
0.0
  0
LINE
  5
15E
100
AcDbEntity
100
AcDbLine
  8
0
 62
256
370
-1
 48
1.0
  6
BYLAYER
 10
84.373574522653854
 20
6.3499999999999899
 30
0.0
 11
81.4813237650000133
 21
6.3499999999999739
 31
0.0
  0
LINE
  5
15F
100
AcDbEntity
100
AcDbLine
  8
0
 62
256
370
-1
 48
1.0
  6
BYLAYER
 10
101.4813237649999991
 20
1.3499999999999925
 30
0.0
 11
101.5615507219612681
 21
1.3499999999999908
 31
0.0
  0
LINE
  5
160
100
AcDbEntity
100
AcDbLine
  8
0
 62
256
370
-1
 48
1.0
  6
BYLAYER
 10
93.053878499999982
 20
9.4499999999999922
 30
0.0
 11
93.134105456961251
 21
9.4499999999999904
 31
0.0
  0
LINE
  5
161
100
AcDbEntity
100
AcDbLine
  8
0
 62
256
370
-1
 48
1.0
  6
BYLAYER
 10
81.3735667650000067
 20
2.0499999999999972
 30
0.0
 11
81.2933398080387377
 21
2.0499999999999829
 31
0.0
  0
LINE
  5
162
100
AcDbEntity
100
AcDbLine
  8
0
 62
256
370
-1
 48
1.0
  6
BYLAYER
 10
84.4813237649999991
 20
2.0499999999999972
 30
0.0
 11
84.5615507219612681
 21
2.0499999999999829
 31
0.0
  0
LINE
  5
163
100
AcDbEntity
100
AcDbLine
  8
0
 62
256
370
-1
 48
1.0
  6
BYLAYER
 10
84.4813237649999991
 20
6.3499999999999917
 30
0.0
 11
84.5615507219612681
 21
6.3499999999999899
 31
0.0
  0
LINE
  5
164
100
AcDbEntity
100
AcDbLine
  8
0
 62
256
370
-1
 48
1.0
  6
BYLAYER
 10
81.3735667650000067
 20
6.2499999999999707
 30
0.0
 11
81.3735667650000067
 21
6.3499999999999721
 31
0.0
  0
LINE
  5
165
100
AcDbEntity
100
AcDbLine
  8
0
 62
256
370
-1
 48
1.0
  6
BYLAYER
 10
98.3735667650000067
 20
1.2499999999999716
 30
0.0
 11
98.3735667650000067
 21
1.349999999999973
 31
0.0
  0
LINE
  5
166
100
AcDbEntity
100
AcDbLine
  8
0
 62
256
370
-1
 48
1.0
  6
BYLAYER
 10
89.9461214999999896
 20
9.3499999999999712
 30
0.0
 11
89.9461214999999896
 21
9.4499999999999726
 31
0.0
  0
LINE
  5
167
100
AcDbEntity
100
AcDbLine
  8
0
 62
256
370
-1
 48
1.0
  6
BYLAYER
 10
101.3735667649999925
 20
1.2499999551083345
 30
0.0
 11
101.3735667649999925
 21
1.3499999551083359
 31
0.0
  0
LINE
  5
168
100
AcDbEntity
100
AcDbLine
  8
0
 62
256
370
-1
 48
1.0
  6
BYLAYER
 10
92.9461214999999754
 20
9.3499999551083341
 30
0.0
 11
92.9461214999999754
 21
9.4499999551083356
 31
0.0
  0
LINE
  5
169
100
AcDbEntity
100
AcDbLine
  8
0
 62
256
370
-1
 48
1.0
  6
BYLAYER
 10
81.4813237650000133
 20
6.2500000448916273
 30
0.0
 11
81.4813237650000133
 21
6.3500000448916287
 31
0.0
  0
LINE
  5
16A
100
AcDbEntity
100
AcDbLine
  8
0
 62
256
370
-1
 48
1.0
  6
BYLAYER
 10
98.4813237650000133
 20
1.2500000448916282
 30
0.0
 11
98.4813237650000133
 21
1.3500000448916296
 31
0.0
  0
LINE
  5
16B
100
AcDbEntity
100
AcDbLine
  8
0
 62
256
370
-1
 48
1.0
  6
BYLAYER
 10
90.0538784999999962
 20
9.3500000448916278
 30
0.0
 11
90.0538784999999962
 21
9.4500000448916293
 31
0.0
  0
LINE
  5
16C
100
AcDbEntity
100
AcDbLine
  8
0
 62
256
370
-1
 48
1.0
  6
BYLAYER
 10
101.4813237649999991
 20
1.2499999999999911
 30
0.0
 11
101.4813237649999991
 21
1.3499999999999925
 31
0.0
  0
LINE
  5
16D
100
AcDbEntity
100
AcDbLine
  8
0
 62
256
370
-1
 48
1.0
  6
BYLAYER
 10
93.053878499999982
 20
9.3499999999999908
 30
0.0
 11
93.053878499999982
 21
9.4499999999999922
 31
0.0
  0
LINE
  5
16E
100
AcDbEntity
100
AcDbLine
  8
0
 62
256
370
-1
 48
1.0
  6
BYLAYER
 10
81.4813237650000133
 20
1.9499999551083391
 30
0.0
 11
81.4813237650000133
 21
2.0499999551083334
 31
0.0
  0
LINE
  5
16F
100
AcDbEntity
100
AcDbLine
  8
0
 62
256
370
-1
 48
1.0
  6
BYLAYER
 10
84.3735667649999925
 20
1.9499999551083387
 30
0.0
 11
84.3735667649999925
 21
2.049999955108333
 31
0.0
  0
LINE
  5
170
100
AcDbEntity
100
AcDbLine
  8
0
 62
256
370
-1
 48
1.0
  6
BYLAYER
 10
84.3735667649999925
 20
6.2499999551083336
 30
0.0
 11
84.3735667649999925
 21
6.349999955108335
 31
0.0
  0
LINE
  5
171
100
AcDbEntity
100
AcDbLine
  8
0
 62
256
370
-1
 48
1.0
  6
BYLAYER
 10
81.3735667650000067
 20
1.9499999999999886
 30
0.0
 11
81.3735667650000067
 21
2.0499999999999972
 31
0.0
  0
LINE
  5
172
100
AcDbEntity
100
AcDbLine
  8
0
 62
256
370
-1
 48
1.0
  6
BYLAYER
 10
84.4813237649999991
 20
1.9499999999999884
 30
0.0
 11
84.4813237649999991
 21
2.0499999999999972
 31
0.0
  0
LINE
  5
173
100
AcDbEntity
100
AcDbLine
  8
0
 62
256
370
-1
 48
1.0
  6
BYLAYER
 10
84.4813237649999991
 20
6.2499999999999902
 30
0.0
 11
84.4813237649999991
 21
6.3499999999999917
 31
0.0
  0
LINE
  5
174
100
AcDbEntity
100
AcDbLine
  8
0
 62
256
370
-1
 48
1.0
  6
BYLAYER
 10
81.3735668077725762
 20
6.1585000448916363
 30
0.0
 11
81.3735668077725762
 21
6.066257045779829
 31
0.0
  0
LINE
  5
175
100
AcDbEntity
100
AcDbLine
  8
0
 62
256
370
-1
 48
1.0
  6
BYLAYER
 10
98.3735668077725762
 20
1.1585000448916372
 30
0.0
 11
98.3735668077725762
 21
1.0662570457798299
 31
0.0
  0
LINE
  5
176
100
AcDbEntity
100
AcDbLine
  8
0
 62
256
370
-1
 48
1.0
  6
BYLAYER
 10
89.9461215427725591
 20
9.2585000448916368
 30
0.0
 11
89.9461215427725591
 21
9.1662570457798296
 31
0.0
  0
LINE
  5
177
100
AcDbEntity
100
AcDbLine
  8
0
 62
256
370
-1
 48
1.0
  6
BYLAYER
 10
101.373566807772562
 20
1.1585000000000001
 30
0.0
 11
101.373566807772562
 21
1.0662570008881929
 31
0.0
  0
LINE
  5
178
100
AcDbEntity
100
AcDbLine
  8
0
 62
256
370
-1
 48
1.0
  6
BYLAYER
 10
92.9461215427725449
 20
9.2584999999999997
 30
0.0
 11
92.9461215427725449
 21
9.1662570008881925
 31
0.0
  0
LINE
  5
179
100
AcDbEntity
100
AcDbLine
  8
0
 62
256
370
-1
 48
1.0
  6
BYLAYER
 10
81.4813237222274438
 20
1.8584999999999923
 30
0.0
 11
81.4813237222274438
 21
1.7662570008882028
 31
0.0
  0
LINE
  5
17A
100
AcDbEntity
100
AcDbLine
  8
0
 62
256
370
-1
 48
1.0
  6
BYLAYER
 10
84.373566807772562
 20
1.8584999999999923
 30
0.0
 11
84.373566807772562
 21
1.7662570008882028
 31
0.0
  0
LINE
  5
17B
100
AcDbEntity
100
AcDbLine
  8
0
 62
256
370
-1
 48
1.0
  6
BYLAYER
 10
84.373566807772562
 20
6.1584999999999992
 30
0.0
 11
84.373566807772562
 21
6.066257000888192
 31
0.0
  0
LINE
  5
17C
100
AcDbEntity
100
AcDbLine
  8
0
 62
256
370
-1
 48
1.0
  6
BYLAYER
 10
81.4813237650000275
 20
6.1585000897832751
 30
0.0
 11
81.4813237650000275
 21
6.066257045779829
 31
0.0
  0
LINE
  5
17D
100
AcDbEntity
100
AcDbLine
  8
0
 62
256
370
-1
 48
1.0
  6
BYLAYER
 10
98.4813237650000275
 20
1.158500089783276
 30
0.0
 11
98.4813237650000275
 21
1.0662570457798299
 31
0.0
  0
LINE
  5
17E
100
AcDbEntity
100
AcDbLine
  8
0
 62
256
370
-1
 48
1.0
  6
BYLAYER
 10
90.0538785000000104
 20
9.2585000897832757
 30
0.0
 11
90.0538785000000104
 21
9.1662570457798296
 31
0.0
  0
LINE
  5
17F
100
AcDbEntity
100
AcDbLine
  8
0
 62
256
370
-1
 48
1.0
  6
BYLAYER
 10
101.4813237650000133
 20
1.1585000448916389
 30
0.0
 11
101.4813237650000133
 21
1.0662570008881929
 31
0.0
  0
LINE
  5
180
100
AcDbEntity
100
AcDbLine
  8
0
 62
256
370
-1
 48
1.0
  6
BYLAYER
 10
93.0538784999999962
 20
9.2585000448916386
 30
0.0
 11
93.0538784999999962
 21
9.1662570008881925
 31
0.0
  0
LINE
  5
181
100
AcDbEntity
100
AcDbLine
  8
0
 62
256
370
-1
 48
1.0
  6
BYLAYER
 10
81.3735667649999925
 20
1.858500044891642
 30
0.0
 11
81.3735667649999925
 21
1.7662570008881886
 31
0.0
  0
LINE
  5
182
100
AcDbEntity
100
AcDbLine
  8
0
 62
256
370
-1
 48
1.0
  6
BYLAYER
 10
84.4813237650000133
 20
1.8585000448916413
 30
0.0
 11
84.4813237650000133
 21
1.7662570008881884
 31
0.0
  0
LINE
  5
183
100
AcDbEntity
100
AcDbLine
  8
0
 62
256
370
-1
 48
1.0
  6
BYLAYER
 10
84.4813237650000133
 20
6.158500044891638
 30
0.0
 11
84.4813237650000133
 21
6.066257000888192
 31
0.0
  0
LINE
  5
184
100
AcDbEntity
100
AcDbLine
  8
0
 62
256
370
-1
 48
1.0
  6
BYLAYER
 10
81.3735668077725762
 20
6.066257045779829
 30
0.0
 11
81.4813237650000275
 21
6.066257045779829
 31
0.0
  0
LINE
  5
185
100
AcDbEntity
100
AcDbLine
  8
0
 62
256
370
-1
 48
1.0
  6
BYLAYER
 10
98.3735668077725762
 20
1.0662570457798299
 30
0.0
 11
98.4813237650000275
 21
1.0662570457798299
 31
0.0
  0
LINE
  5
186
100
AcDbEntity
100
AcDbLine
  8
0
 62
256
370
-1
 48
1.0
  6
BYLAYER
 10
89.9461215427725591
 20
9.1662570457798296
 30
0.0
 11
90.0538785000000104
 21
9.1662570457798296
 31
0.0
  0
LINE
  5
187
100
AcDbEntity
100
AcDbLine
  8
0
 62
256
370
-1
 48
1.0
  6
BYLAYER
 10
101.373566807772562
 20
1.0662570008881929
 30
0.0
 11
101.4813237650000133
 21
1.0662570008881929
 31
0.0
  0
LINE
  5
188
100
AcDbEntity
100
AcDbLine
  8
0
 62
256
370
-1
 48
1.0
  6
BYLAYER
 10
92.9461215427725449
 20
9.1662570008881925
 30
0.0
 11
93.0538784999999962
 21
9.1662570008881925
 31
0.0
  0
LINE
  5
189
100
AcDbEntity
100
AcDbLine
  8
0
 62
256
370
-1
 48
1.0
  6
BYLAYER
 10
81.4813237222274438
 20
1.7662570008882028
 30
0.0
 11
81.3735667649999925
 21
1.7662570008881886
 31
0.0
  0
LINE
  5
18A
100
AcDbEntity
100
AcDbLine
  8
0
 62
256
370
-1
 48
1.0
  6
BYLAYER
 10
84.373566807772562
 20
1.7662570008882028
 30
0.0
 11
84.4813237650000133
 21
1.7662570008881884
 31
0.0
  0
LINE
  5
18B
100
AcDbEntity
100
AcDbLine
  8
0
 62
256
370
-1
 48
1.0
  6
BYLAYER
 10
84.373566807772562
 20
6.066257000888192
 30
0.0
 11
84.4813237650000133
 21
6.066257000888192
 31
0.0
  0
LINE
  5
18C
100
AcDbEntity
100
AcDbLine
  8
0
 62
1
420
16711680
370
-1
 48
1.0
  6
BYLAYER
 10
91.2449422766434708
 20
6.0200000000004099
 30
0.0
 11
91.2449422766435987
 21
6.0863305302743695
 31
0.0
  0
LINE
  5
18D
100
AcDbEntity
100
AcDbLine
  8
0
 62
1
420
16711680
370
-1
 48
1.0
  6
BYLAYER
 10
91.2497096963848549
 20
2.9584134712666303
 30
0.0
 11
91.2497096963849827
 21
3.02474400154059
 31
0.0
  0
LINE
  5
18E
100
AcDbEntity
100
AcDbLine
  8
0
 62
1
420
16711680
370
-1
 48
1.0
  6
BYLAYER
 10
91.2497096963845138
 20
2.7457749321939655
 30
0.0
 11
91.2497096963849827
 21
3.0247440015405878
 31
0.0
  0
LINE
  5
18F
100
AcDbEntity
100
AcDbLine
  8
0
 62
1
420
16711680
370
-1
 48
1.0
  6
BYLAYER
 10
91.7437962769844972
 20
6.0200000000000831
 30
0.0
 11
91.7437962769844972
 21
6.0863305302743669
 31
0.0
  0
LINE
  5
190
100
AcDbEntity
100
AcDbLine
  8
0
 62
1
420
16711680
370
-1
 48
1.0
  6
BYLAYER
 10
91.7485637036102446
 20
2.745774932193966
 30
0.0
 11
91.7485636967258813
 21
3.0247440015405851
 31
0.0
  0
LINE
  5
191
100
AcDbEntity
100
AcDbLine
  8
0
 62
256
370
-1
 48
1.0
  6
BYLAYER
 10
98.2933398080387519
 20
1.3499999999999712
 30
0.0
 11
98.2933398080387519
 21
1.3999999999999826
 31
0.0
  0
LINE
  5
192
100
AcDbEntity
100
AcDbLine
  8
0
 62
256
370
-1
 48
1.0
  6
BYLAYER
 10
89.8658945430387348
 20
9.4499999999999709
 30
0.0
 11
89.8658945430387348
 21
9.4999999999999822
 31
0.0
  0
LINE
  5
193
100
AcDbEntity
100
AcDbLine
  8
0
 62
256
370
-1
 48
1.0
  6
BYLAYER
 10
101.5615507219612681
 20
1.349999999999989
 30
0.0
 11
101.5615507219612681
 21
1.4000000000000004
 31
0.0
  0
LINE
  5
194
100
AcDbEntity
100
AcDbLine
  8
0
 62
256
370
-1
 48
1.0
  6
BYLAYER
 10
93.134105456961251
 20
9.4499999999999886
 30
0.0
 11
93.134105456961251
 21
9.5
 31
0.0
  0
LINE
  5
195
100
AcDbEntity
100
AcDbLine
  8
0
 62
256
370
-1
 48
1.0
  6
BYLAYER
 10
81.2933398080387519
 20
6.3499999999999703
 30
0.0
 11
81.2933398080387519
 21
6.3999999999999817
 31
0.0
  0
LINE
  5
196
100
AcDbEntity
100
AcDbLine
  8
0
 62
256
370
-1
 48
1.0
  6
BYLAYER
 10
81.2933398080387377
 20
2.0499999999999829
 30
0.0
 11
81.2933398080387377
 21
2.0999999999999943
 31
0.0
  0
LINE
  5
197
100
AcDbEntity
100
AcDbLine
  8
0
 62
256
370
-1
 48
1.0
  6
BYLAYER
 10
84.5615507219612681
 20
2.0499999999999829
 30
0.0
 11
84.5615507219612681
 21
2.0999999999999939
 31
0.0
  0
LINE
  5
198
100
AcDbEntity
100
AcDbLine
  8
0
 62
256
370
-1
 48
1.0
  6
BYLAYER
 10
84.5615507219612681
 20
6.3499999999999881
 30
0.0
 11
84.5615507219612681
 21
6.3999999999999995
 31
0.0
  0
LINE
  5
199
100
AcDbEntity
100
AcDbLine
  8
0
 62
256
370
-1
 48
1.0
  6
BYLAYER
 10
101.9731405300000233
 20
1.7500000000000071
 30
0.0
 11
101.5615507219612681
 21
1.4000000000000004
 31
0.0
  0
LINE
  5
19A
100
AcDbEntity
100
AcDbLine
  8
0
 62
256
370
-1
 48
1.0
  6
BYLAYER
 10
93.5456952650000062
 20
9.8500000000000068
 30
0.0
 11
93.134105456961251
 21
9.5
 31
0.0
  0
LINE
  5
19B
100
AcDbEntity
100
AcDbLine
  8
0
 62
256
370
-1
 48
1.0
  6
BYLAYER
 10
80.8817499999999825
 20
2.4500000000000028
 30
0.0
 11
81.2933398080387377
 21
2.0999999999999943
 31
0.0
  0
LINE
  5
19C
100
AcDbEntity
100
AcDbLine
  8
0
 62
256
370
-1
 48
1.0
  6
BYLAYER
 10
84.9731405300000375
 20
2.450000000000002
 30
0.0
 11
84.5615507219612681
 21
2.0999999999999939
 31
0.0
  0
LINE
  5
19D
100
AcDbEntity
100
AcDbLine
  8
0
 62
256
370
-1
 48
1.0
  6
BYLAYER
 10
84.9731405300000233
 20
6.7500000000000062
 30
0.0
 11
84.5615507219612681
 21
6.3999999999999995
 31
0.0
  0
LINE
  5
19E
100
AcDbEntity
100
AcDbLine
  8
0
 62
256
370
-1
 48
1.0
  6
BYLAYER
 10
97.8817499999999683
 20
1.7500000000000089
 30
0.0
 11
98.2933398080387519
 21
1.3999999999999826
 31
0.0
  0
LINE
  5
19F
100
AcDbEntity
100
AcDbLine
  8
0
 62
256
370
-1
 48
1.0
  6
BYLAYER
 10
89.4543047349999512
 20
9.8500000000000085
 30
0.0
 11
89.8658945430387348
 21
9.4999999999999822
 31
0.0
  0
LINE
  5
1A0
100
AcDbEntity
100
AcDbLine
  8
0
 62
256
370
-1
 48
1.0
  6
BYLAYER
 10
80.8817499999999683
 20
6.750000000000008
 30
0.0
 11
81.2933398080387519
 21
6.3999999999999817
 31
0.0
  0
LINE
  5
1A1
100
AcDbEntity
100
AcDbLine
  8
0
 62
256
370
-1
 48
1.0
  6
BYLAYER
 10
97.481749999999991
 20
1.7499999999999893
 30
0.0
 11
97.8817499999999683
 21
1.7500000000000089
 31
0.0
  0
LINE
  5
1A2
100
AcDbEntity
100
AcDbLine
  8
0
 62
256
370
-1
 48
1.0
  6
BYLAYER
 10
89.0543047349999739
 20
9.849999999999989
 30
0.0
 11
89.4543047349999512
 21
9.8500000000000085
 31
0.0
  0
LINE
  5
1A3
100
AcDbEntity
100
AcDbLine
  8
0
 62
256
370
-1
 48
1.0
  6
BYLAYER
 10
80.481749999999991
 20
6.7499999999999885
 30
0.0
 11
80.8817499999999683
 21
6.750000000000008
 31
0.0
  0
LINE
  5
1A4
100
AcDbEntity
100
AcDbLine
  8
0
 62
256
370
-1
 48
1.0
  6
BYLAYER
 10
101.9731405300000233
 20
1.7500000000000071
 30
0.0
 11
102.3731405300000432
 21
1.7499999999999716
 31
0.0
  0
LINE
  5
1A5
100
AcDbEntity
100
AcDbLine
  8
0
 62
256
370
-1
 48
1.0
  6
BYLAYER
 10
93.5456952650000062
 20
9.8500000000000068
 30
0.0
 11
93.9456952650000261
 21
9.8499999999999712
 31
0.0
  0
LINE
  5
1A6
100
AcDbEntity
100
AcDbLine
  8
0
 62
256
370
-1
 48
1.0
  6
BYLAYER
 10
80.8817499999999825
 20
2.4500000000000028
 30
0.0
 11
80.4817499999999626
 21
2.4499999999999744
 31
0.0
  0
LINE
  5
1A7
100
AcDbEntity
100
AcDbLine
  8
0
 62
256
370
-1
 48
1.0
  6
BYLAYER
 10
84.9731405300000375
 20
2.450000000000002
 30
0.0
 11
85.3731405300000432
 21
2.4499999999999735
 31
0.0
  0
LINE
  5
1A8
100
AcDbEntity
100
AcDbLine
  8
0
 62
256
370
-1
 48
1.0
  6
BYLAYER
 10
84.9731405300000233
 20
6.7500000000000062
 30
0.0
 11
85.3731405300000432
 21
6.7499999999999707
 31
0.0
  0
LINE
  5
1A9
100
AcDbEntity
100
AcDbLine
  8
0
 62
3
420
65280
370
-1
 48
1.0
  6
BYLAYER
 10
101.3041952650000326
 20
-0.2414999999999994
 30
0.0
 11
101.5506952650000301
 21
-0.2414999999999994
 31
0.0
  0
LINE
  5
1AA
100
AcDbEntity
100
AcDbLine
  8
0
 62
3
420
65280
370
-1
 48
1.0
  6
BYLAYER
 10
92.8767500000000155
 20
7.8585000000000003
 30
0.0
 11
93.123250000000013
 21
7.8585000000000003
 31
0.0
  0
LINE
  5
1AB
100
AcDbEntity
100
AcDbLine
  8
0
 62
3
420
65280
370
-1
 48
1.0
  6
BYLAYER
 10
98.3041952650000326
 20
-0.2414999999999994
 30
0.0
 11
98.5506952650000301
 21
-0.2414999999999994
 31
0.0
  0
LINE
  5
1AC
100
AcDbEntity
100
AcDbLine
  8
0
 62
3
420
65280
370
-1
 48
1.0
  6
BYLAYER
 10
89.8767500000000155
 20
7.8585000000000003
 30
0.0
 11
90.123250000000013
 21
7.8585000000000003
 31
0.0
  0
LINE
  5
1AD
100
AcDbEntity
100
AcDbLine
  8
0
 62
3
420
65280
370
-1
 48
1.0
  6
BYLAYER
 10
98.3041952650000042
 20
0.458499977554185
 30
0.0
 11
98.5506952650000017
 21
0.458499977554185
 31
0.0
  0
LINE
  5
1AE
100
AcDbEntity
100
AcDbLine
  8
0
 62
3
420
65280
370
-1
 48
1.0
  6
BYLAYER
 10
89.876749999999987
 20
8.5584999775541846
 30
0.0
 11
90.1232499999999845
 21
8.5584999775541846
 31
0.0
  0
LINE
  5
1AF
100
AcDbEntity
100
AcDbLine
  8
0
 62
3
420
65280
370
-1
 48
1.0
  6
BYLAYER
 10
81.5506952649999732
 20
1.1585000000000039
 30
0.0
 11
81.3041952649999757
 21
1.1585000000000039
 31
0.0
  0
LINE
  5
1B0
100
AcDbEntity
100
AcDbLine
  8
0
 62
3
420
65280
370
-1
 48
1.0
  6
BYLAYER
 10
84.3041952650000326
 20
1.1585000000000036
 30
0.0
 11
84.5506952650000301
 21
1.1585000000000036
 31
0.0
  0
LINE
  5
1B1
100
AcDbEntity
100
AcDbLine
  8
0
 62
3
420
65280
370
-1
 48
1.0
  6
BYLAYER
 10
84.3041952650000326
 20
5.4584999999999999
 30
0.0
 11
84.5506952650000301
 21
5.4584999999999999
 31
0.0
  0
LINE
  5
1B2
100
AcDbEntity
100
AcDbLine
  8
0
 62
3
420
65280
370
-1
 48
1.0
  6
BYLAYER
 10
81.5506952649999732
 20
0.458500000000001
 30
0.0
 11
81.3041952649999757
 21
0.4585000000000008
 31
0.0
  0
LINE
  5
1B3
100
AcDbEntity
100
AcDbLine
  8
0
 62
3
420
65280
370
-1
 48
1.0
  6
BYLAYER
 10
84.3041952650000326
 20
0.4585000000000007
 30
0.0
 11
84.5506952650000301
 21
0.4585000000000001
 31
0.0
  0
LINE
  5
1B4
100
AcDbEntity
100
AcDbLine
  8
0
 62
3
420
65280
370
-1
 48
1.0
  6
BYLAYER
 10
84.3041952650000326
 20
4.7584999999999997
 30
0.0
 11
84.5506952650000301
 21
4.7584999999999997
 31
0.0
  0
LINE
  5
1B5
100
AcDbEntity
100
AcDbLine
  8
0
 62
3
420
65280
370
-1
 48
1.0
  6
BYLAYER
 10
81.3041952650000326
 20
4.7584999999999997
 30
0.0
 11
81.5506952650000301
 21
4.7584999999999997
 31
0.0
  0
LINE
  5
1B6
100
AcDbEntity
100
AcDbLine
  8
0
 62
3
420
65280
370
-1
 48
1.0
  6
BYLAYER
 10
81.3041952649999899
 20
5.5499999775541839
 30
0.0
 11
81.5506952649999874
 21
5.5499999775541839
 31
0.0
  0
LINE
  5
1B7
100
AcDbEntity
100
AcDbLine
  8
0
 62
3
420
65280
370
-1
 48
1.0
  6
BYLAYER
 10
81.3041952650000042
 20
5.458499977554184
 30
0.0
 11
81.5506952650000017
 21
5.458499977554184
 31
0.0
  0
LINE
  5
1B8
100
AcDbEntity
100
AcDbLine
  8
0
 62
3
420
65280
370
-1
 48
1.0
  6
BYLAYER
 10
101.3041952650000326
 20
0.4585000000000009
 30
0.0
 11
101.5506952650000301
 21
0.4585000000000009
 31
0.0
  0
LINE
  5
1B9
100
AcDbEntity
100
AcDbLine
  8
0
 62
3
420
65280
370
-1
 48
1.0
  6
BYLAYER
 10
92.8767500000000155
 20
8.5585000000000004
 30
0.0
 11
93.123250000000013
 21
8.5585000000000004
 31
0.0
  0
LINE
  5
1BA
100
AcDbEntity
100
AcDbLine
  8
0
 62
3
420
65280
370
-1
 48
1.0
  6
BYLAYER
 10
98.3041952650000184
 20
-0.1499999999999995
 30
0.0
 11
98.5506952650000159
 21
-0.1499999999999995
 31
0.0
  0
LINE
  5
1BB
100
AcDbEntity
100
AcDbLine
  8
0
 62
3
420
65280
370
-1
 48
1.0
  6
BYLAYER
 10
89.8767500000000013
 20
7.9500000000000002
 30
0.0
 11
90.1232499999999987
 21
7.9500000000000002
 31
0.0
  0
LINE
  5
1BC
100
AcDbEntity
100
AcDbLine
  8
0
 62
3
420
65280
370
-1
 48
1.0
  6
BYLAYER
 10
98.3041952649999899
 20
0.5499999775541849
 30
0.0
 11
98.5506952649999874
 21
0.5499999775541849
 31
0.0
  0
LINE
  5
1BD
100
AcDbEntity
100
AcDbLine
  8
0
 62
3
420
65280
370
-1
 48
1.0
  6
BYLAYER
 10
89.8767499999999728
 20
8.6499999775541845
 30
0.0
 11
90.1232499999999703
 21
8.6499999775541845
 31
0.0
  0
LINE
  5
1BE
100
AcDbEntity
100
AcDbLine
  8
0
 62
3
420
65280
370
-1
 48
1.0
  6
BYLAYER
 10
81.5506952649999874
 20
1.2500000000000002
 30
0.0
 11
81.3041952649999899
 21
1.25
 31
0.0
  0
LINE
  5
1BF
100
AcDbEntity
100
AcDbLine
  8
0
 62
3
420
65280
370
-1
 48
1.0
  6
BYLAYER
 10
84.3041952650000184
 20
1.25
 30
0.0
 11
84.5506952650000159
 21
1.2499999999999993
 31
0.0
  0
LINE
  5
1C0
100
AcDbEntity
100
AcDbLine
  8
0
 62
3
420
65280
370
-1
 48
1.0
  6
BYLAYER
 10
84.3041952650000184
 20
5.5499999999999998
 30
0.0
 11
84.5506952650000159
 21
5.5499999999999998
 31
0.0
  0
LINE
  5
1C1
100
AcDbEntity
100
AcDbLine
  8
0
 62
3
420
65280
370
-1
 48
1.0
  6
BYLAYER
 10
81.5506952649999874
 20
0.5499999999999972
 30
0.0
 11
81.3041952649999899
 21
0.5499999999999972
 31
0.0
  0
LINE
  5
1C2
100
AcDbEntity
100
AcDbLine
  8
0
 62
3
420
65280
370
-1
 48
1.0
  6
BYLAYER
 10
84.3041952650000184
 20
0.5499999999999973
 30
0.0
 11
84.5506952650000159
 21
0.5499999999999973
 31
0.0
  0
LINE
  5
1C3
100
AcDbEntity
100
AcDbLine
  8
0
 62
3
420
65280
370
-1
 48
1.0
  6
BYLAYER
 10
84.3041952650000184
 20
4.8499999999999996
 30
0.0
 11
84.5506952650000159
 21
4.8499999999999996
 31
0.0
  0
LINE
  5
1C4
100
AcDbEntity
100
AcDbLine
  8
0
 62
3
420
65280
370
-1
 48
1.0
  6
BYLAYER
 10
81.3041952650000184
 20
4.8499999999999996
 30
0.0
 11
81.5506952650000159
 21
4.8499999999999996
 31
0.0
  0
LINE
  5
1C5
100
AcDbEntity
100
AcDbLine
  8
0
 62
3
420
65280
370
-1
 48
1.0
  6
BYLAYER
 10
81.3041952649999899
 20
5.5499999775541839
 30
0.0
 11
81.5506952649999874
 21
5.5499999775541839
 31
0.0
  0
LINE
  5
1C6
100
AcDbEntity
100
AcDbLine
  8
0
 62
3
420
65280
370
-1
 48
1.0
  6
BYLAYER
 10
95.5232500046281103
 20
7.8122252070323341
 30
0.0
 11
95.2767500046281128
 21
7.8122252070323341
 31
0.0
  0
LINE
  5
1C7
100
AcDbEntity
100
AcDbLine
  8
0
 62
3
420
65280
370
-1
 48
1.0
  6
BYLAYER
 10
95.5232500046281103
 20
7.7207252070323342
 30
0.0
 11
95.2767500046281128
 21
7.7207252023353341
 31
0.0
  0
LINE
  5
1C8
100
AcDbEntity
100
AcDbLine
  8
0
 62
7
420
0
370
-1
 48
1.0
  6
BYLAYER
 10
95.3461215022796154
 20
8.8198287962596318
 30
0.0
 11
95.2767500046281128
 21
8.81982879625963
 31
0.0
  0
LINE
  5
1C9
100
AcDbEntity
100
AcDbLine
  8
0
 62
7
420
0
370
-1
 48
1.0
  6
BYLAYER
 10
95.3461215069766155
 20
8.7283287962596301
 30
0.0
 11
95.2767500046281128
 21
8.72832879156263
 31
0.0
  0
LINE
  5
1CA
100
AcDbEntity
100
AcDbLine
  8
0
 62
7
420
0
370
-1
 48
1.0
  6
BYLAYER
 10
95.5232500046281103
 20
8.7283287962596301
 30
0.0
 11
95.453878506976622
 21
8.7283287962596301
 31
0.0
  0
LINE
  5
1CB
100
AcDbEntity
100
AcDbLine
  8
0
 62
7
420
0
370
-1
 48
1.0
  6
BYLAYER
 10
95.5232499999311102
 20
8.8198287962596318
 30
0.0
 11
95.4538785022796219
 21
8.81982879625963
 31
0.0
  0
LINE
  5
1CC
100
AcDbEntity
100
AcDbLine
  8
0
 62
3
420
65280
370
-1
 48
1.0
  6
BYLAYER
 10
101.3041952650000184
 20
0.5500000000000008
 30
0.0
 11
101.5506952650000159
 21
0.5500000000000008
 31
0.0
  0
LINE
  5
1CD
100
AcDbEntity
100
AcDbLine
  8
0
 62
3
420
65280
370
-1
 48
1.0
  6
BYLAYER
 10
92.8767500000000013
 20
8.6500000000000004
 30
0.0
 11
93.1232499999999987
 21
8.6500000000000004
 31
0.0
  0
LINE
  5
1CE
100
AcDbEntity
100
AcDbLine
  8
0
 62
3
420
65280
370
-1
 48
1.0
  6
BYLAYER
 10
101.3041952650000184
 20
-0.1499999999999995
 30
0.0
 11
101.5506952650000159
 21
-0.1499999999999995
 31
0.0
  0
LINE
  5
1CF
100
AcDbEntity
100
AcDbLine
  8
0
 62
3
420
65280
370
-1
 48
1.0
  6
BYLAYER
 10
92.8767500000000013
 20
7.9500000000000002
 30
0.0
 11
93.1232499999999987
 21
7.9500000000000002
 31
0.0
  0
LINE
  5
1D0
100
AcDbEntity
100
AcDbLine
  8
0
 62
3
420
65280
370
-1
 48
1.0
  6
BYLAYER
 10
98.3041952650000184
 20
-0.2414999999999994
 30
0.0
 11
98.3041952650000184
 21
-0.1499999999999995
 31
0.0
  0
LINE
  5
1D1
100
AcDbEntity
100
AcDbLine
  8
0
 62
3
420
65280
370
-1
 48
1.0
  6
BYLAYER
 10
89.8767500000000013
 20
7.8585000000000003
 30
0.0
 11
89.8767500000000013
 21
7.9500000000000002
 31
0.0
  0
LINE
  5
1D2
100
AcDbEntity
100
AcDbLine
  8
0
 62
3
420
65280
370
-1
 48
1.0
  6
BYLAYER
 10
98.3041952649999899
 20
0.458499977554185
 30
0.0
 11
98.3041952649999899
 21
0.5499999775541849
 31
0.0
  0
LINE
  5
1D3
100
AcDbEntity
100
AcDbLine
  8
0
 62
3
420
65280
370
-1
 48
1.0
  6
BYLAYER
 10
89.8767499999999728
 20
8.5584999775541846
 30
0.0
 11
89.8767499999999728
 21
8.6499999775541845
 31
0.0
  0
LINE
  5
1D4
100
AcDbEntity
100
AcDbLine
  8
0
 62
3
420
65280
370
-1
 48
1.0
  6
BYLAYER
 10
90.9492258052557077
 20
6.2185835005783243
 30
0.0
 11
90.9492258052557219
 21
6.3100835005783189
 31
0.0
  0
LINE
  5
1D5
100
AcDbEntity
100
AcDbLine
  8
0
 62
256
370
-1
 48
1.0
  6
BYLAYER
 10
81.5506952649999874
 20
1.8584999999999923
 30
0.0
 11
81.5506952649999874
 21
1.9500000000000028
 31
0.0
  0
LINE
  5
1D6
100
AcDbEntity
100
AcDbLine
  8
0
 62
256
370
-1
 48
1.0
  6
BYLAYER
 10
84.3041952650000184
 20
1.8584999999999918
 30
0.0
 11
84.3041952650000184
 21
1.9500000000000024
 31
0.0
  0
LINE
  5
1D7
100
AcDbEntity
100
AcDbLine
  8
0
 62
256
370
-1
 48
1.0
  6
BYLAYER
 10
84.3041952650000184
 20
6.1584999999999992
 30
0.0
 11
84.3041952650000184
 21
6.2499999999999991
 31
0.0
  0
LINE
  5
1D8
100
AcDbEntity
100
AcDbLine
  8
0
 62
3
420
65280
370
-1
 48
1.0
  6
BYLAYER
 10
81.5506952649999874
 20
1.1585000000000036
 30
0.0
 11
81.5506952649999874
 21
1.2500000000000002
 31
0.0
  0
LINE
  5
1D9
100
AcDbEntity
100
AcDbLine
  8
0
 62
3
420
65280
370
-1
 48
1.0
  6
BYLAYER
 10
84.3041952650000184
 20
1.1585000000000034
 30
0.0
 11
84.3041952650000184
 21
1.25
 31
0.0
  0
LINE
  5
1DA
100
AcDbEntity
100
AcDbLine
  8
0
 62
3
420
65280
370
-1
 48
1.0
  6
BYLAYER
 10
84.3041952650000184
 20
5.4584999999999999
 30
0.0
 11
84.3041952650000184
 21
5.5499999999999998
 31
0.0
  0
LINE
  5
1DB
100
AcDbEntity
100
AcDbLine
  8
0
 62
3
420
65280
370
-1
 48
1.0
  6
BYLAYER
 10
81.5506952649999874
 20
0.4585000000000009
 30
0.0
 11
81.5506952649999874
 21
0.5499999999999972
 31
0.0
  0
LINE
  5
1DC
100
AcDbEntity
100
AcDbLine
  8
0
 62
3
420
65280
370
-1
 48
1.0
  6
BYLAYER
 10
84.3041952650000184
 20
0.4585000000000009
 30
0.0
 11
84.3041952650000184
 21
0.5499999999999973
 31
0.0
  0
LINE
  5
1DD
100
AcDbEntity
100
AcDbLine
  8
0
 62
3
420
65280
370
-1
 48
1.0
  6
BYLAYER
 10
84.3041952650000184
 20
4.7584999999999997
 30
0.0
 11
84.3041952650000184
 21
4.8499999999999996
 31
0.0
  0
LINE
  5
1DE
100
AcDbEntity
100
AcDbLine
  8
0
 62
3
420
65280
370
-1
 48
1.0
  6
BYLAYER
 10
81.3041952650000184
 20
4.7584999999999997
 30
0.0
 11
81.3041952650000184
 21
4.8499999999999996
 31
0.0
  0
LINE
  5
1DF
100
AcDbEntity
100
AcDbLine
  8
0
 62
3
420
65280
370
-1
 48
1.0
  6
BYLAYER
 10
81.3041952649999899
 20
5.458499977554184
 30
0.0
 11
81.3041952649999899
 21
5.5499999775541839
 31
0.0
  0
LINE
  5
1E0
100
AcDbEntity
100
AcDbLine
  8
0
 62
3
420
65280
370
-1
 48
1.0
  6
BYLAYER
 10
92.0395127552563821
 20
6.2185835005779904
 30
0.0
 11
92.0395127552563679
 21
6.3100835005779858
 31
0.0
  0
LINE
  5
1E1
100
AcDbEntity
100
AcDbLine
  8
0
 62
3
420
65280
370
-1
 48
1.0
  6
BYLAYER
 10
95.5232500046281103
 20
7.7207252070323342
 30
0.0
 11
95.5232500046281103
 21
7.8122252070323341
 31
0.0
  0
LINE
  5
1E2
100
AcDbEntity
100
AcDbLine
  8
0
 62
7
420
0
370
-1
 48
1.0
  6
BYLAYER
 10
95.5232500046281103
 20
8.7283287962596301
 30
0.0
 11
95.5232500046281103
 21
8.81982879625963
 31
0.0
  0
LINE
  5
1E3
100
AcDbEntity
100
AcDbLine
  8
0
 62
6
420
16711935
370
-1
 48
1.0
  6
BYLAYER
 10
92.0442801749977662
 20
3.1569969718442108
 30
0.0
 11
92.0442801749977519
 21
3.2484969718442063
 31
0.0
  0
LINE
  5
1E4
100
AcDbEntity
100
AcDbLine
  8
0
 62
6
420
16711935
370
-1
 48
1.0
  6
BYLAYER
 10
90.9539932249970917
 20
3.1569969718445448
 30
0.0
 11
90.9539932249971059
 21
3.2484969718445393
 31
0.0
  0
LINE
  5
1E5
100
AcDbEntity
100
AcDbLine
  8
0
 62
256
370
-1
 48
1.0
  6
BYLAYER
 10
81.3041952650000326
 20
6.1585000448916363
 30
0.0
 11
81.3041952650000326
 21
6.2500000448916362
 31
0.0
  0
LINE
  5
1E6
100
AcDbEntity
100
AcDbLine
  8
0
 62
256
370
-1
 48
1.0
  6
BYLAYER
 10
98.3041952650000326
 20
1.1585000448916372
 30
0.0
 11
98.3041952650000326
 21
1.2500000448916371
 31
0.0
  0
LINE
  5
1E7
100
AcDbEntity
100
AcDbLine
  8
0
 62
256
370
-1
 48
1.0
  6
BYLAYER
 10
89.8767500000000155
 20
9.2585000448916368
 30
0.0
 11
89.8767500000000155
 21
9.3500000448916367
 31
0.0
  0
LINE
  5
1E8
100
AcDbEntity
100
AcDbLine
  8
0
 62
256
370
-1
 48
1.0
  6
BYLAYER
 10
101.3041952650000184
 20
1.1585000000000001
 30
0.0
 11
101.3041952650000184
 21
1.25
 31
0.0
  0
LINE
  5
1E9
100
AcDbEntity
100
AcDbLine
  8
0
 62
256
370
-1
 48
1.0
  6
BYLAYER
 10
92.8767500000000013
 20
9.2584999999999997
 30
0.0
 11
92.8767500000000013
 21
9.3499999999999996
 31
0.0
  0
LINE
  5
1EA
100
AcDbEntity
100
AcDbLine
  8
0
 62
3
420
65280
370
-1
 48
1.0
  6
BYLAYER
 10
101.3041952650000184
 20
0.4585000000000009
 30
0.0
 11
101.3041952650000184
 21
0.5500000000000008
 31
0.0
  0
LINE
  5
1EB
100
AcDbEntity
100
AcDbLine
  8
0
 62
3
420
65280
370
-1
 48
1.0
  6
BYLAYER
 10
92.8767500000000013
 20
8.5585000000000004
 30
0.0
 11
92.8767500000000013
 21
8.6500000000000004
 31
0.0
  0
LINE
  5
1EC
100
AcDbEntity
100
AcDbLine
  8
0
 62
3
420
65280
370
-1
 48
1.0
  6
BYLAYER
 10
101.3041952650000184
 20
-0.2414999999999994
 30
0.0
 11
101.3041952650000184
 21
-0.1499999999999995
 31
0.0
  0
LINE
  5
1ED
100
AcDbEntity
100
AcDbLine
  8
0
 62
3
420
65280
370
-1
 48
1.0
  6
BYLAYER
 10
92.8767500000000013
 20
7.8585000000000003
 30
0.0
 11
92.8767500000000013
 21
7.9500000000000002
 31
0.0
  0
LINE
  5
1EE
100
AcDbEntity
100
AcDbLine
  8
0
 62
3
420
65280
370
-1
 48
1.0
  6
BYLAYER
 10
98.5506952650000159
 20
-0.2414999999999994
 30
0.0
 11
98.5506952650000159
 21
-0.1499999999999995
 31
0.0
  0
LINE
  5
1EF
100
AcDbEntity
100
AcDbLine
  8
0
 62
3
420
65280
370
-1
 48
1.0
  6
BYLAYER
 10
90.1232499999999987
 20
7.8585000000000003
 30
0.0
 11
90.1232499999999987
 21
7.9500000000000002
 31
0.0
  0
LINE
  5
1F0
100
AcDbEntity
100
AcDbLine
  8
0
 62
3
420
65280
370
-1
 48
1.0
  6
BYLAYER
 10
98.5506952649999874
 20
0.458499977554185
 30
0.0
 11
98.5506952649999874
 21
0.5499999775541849
 31
0.0
  0
LINE
  5
1F1
100
AcDbEntity
100
AcDbLine
  8
0
 62
3
420
65280
370
-1
 48
1.0
  6
BYLAYER
 10
90.1232499999999703
 20
8.5584999775541846
 30
0.0
 11
90.1232499999999703
 21
8.6499999775541845
 31
0.0
  0
LINE
  5
1F2
100
AcDbEntity
100
AcDbLine
  8
0
 62
256
370
-1
 48
1.0
  6
BYLAYER
 10
81.3041952649999899
 20
1.8584999999999923
 30
0.0
 11
81.3041952649999899
 21
1.9500000000000028
 31
0.0
  0
LINE
  5
1F3
100
AcDbEntity
100
AcDbLine
  8
0
 62
256
370
-1
 48
1.0
  6
BYLAYER
 10
84.5506952650000159
 20
1.8584999999999918
 30
0.0
 11
84.5506952650000159
 21
1.9500000000000026
 31
0.0
  0
LINE
  5
1F4
100
AcDbEntity
100
AcDbLine
  8
0
 62
256
370
-1
 48
1.0
  6
BYLAYER
 10
84.5506952650000159
 20
6.1584999999999992
 30
0.0
 11
84.5506952650000159
 21
6.2499999999999991
 31
0.0
  0
LINE
  5
1F5
100
AcDbEntity
100
AcDbLine
  8
0
 62
3
420
65280
370
-1
 48
1.0
  6
BYLAYER
 10
81.3041952649999899
 20
1.1585000000000036
 30
0.0
 11
81.3041952649999899
 21
1.25
 31
0.0
  0
LINE
  5
1F6
100
AcDbEntity
100
AcDbLine
  8
0
 62
3
420
65280
370
-1
 48
1.0
  6
BYLAYER
 10
84.5506952650000159
 20
1.1585000000000032
 30
0.0
 11
84.5506952650000159
 21
1.2499999999999993
 31
0.0
  0
LINE
  5
1F7
100
AcDbEntity
100
AcDbLine
  8
0
 62
3
420
65280
370
-1
 48
1.0
  6
BYLAYER
 10
84.5506952650000159
 20
5.4584999999999999
 30
0.0
 11
84.5506952650000159
 21
5.5499999999999998
 31
0.0
  0
LINE
  5
1F8
100
AcDbEntity
100
AcDbLine
  8
0
 62
3
420
65280
370
-1
 48
1.0
  6
BYLAYER
 10
81.3041952649999899
 20
0.4585000000000009
 30
0.0
 11
81.3041952649999899
 21
0.5499999999999972
 31
0.0
  0
LINE
  5
1F9
100
AcDbEntity
100
AcDbLine
  8
0
 62
3
420
65280
370
-1
 48
1.0
  6
BYLAYER
 10
84.5506952650000159
 20
0.4585000000000002
 30
0.0
 11
84.5506952650000159
 21
0.5499999999999973
 31
0.0
  0
LINE
  5
1FA
100
AcDbEntity
100
AcDbLine
  8
0
 62
3
420
65280
370
-1
 48
1.0
  6
BYLAYER
 10
84.5506952650000159
 20
4.7584999999999997
 30
0.0
 11
84.5506952650000159
 21
4.8499999999999996
 31
0.0
  0
LINE
  5
1FB
100
AcDbEntity
100
AcDbLine
  8
0
 62
1
420
16711680
370
-1
 48
1.0
  6
BYLAYER
 10
91.1957258052557194
 20
6.2185835005783128
 30
0.0
 11
91.1957258052557052
 21
6.3100835005783198
 31
0.0
  0
LINE
  5
1FC
100
AcDbEntity
100
AcDbLine
  8
0
 62
3
420
65280
370
-1
 48
1.0
  6
BYLAYER
 10
81.5506952650000159
 20
4.7584999999999997
 30
0.0
 11
81.5506952650000159
 21
4.8499999999999996
 31
0.0
  0
LINE
  5
1FD
100
AcDbEntity
100
AcDbLine
  8
0
 62
3
420
65280
370
-1
 48
1.0
  6
BYLAYER
 10
81.5506952649999874
 20
5.458499977554184
 30
0.0
 11
81.5506952649999874
 21
5.5499999775541839
 31
0.0
  0
LINE
  5
1FE
100
AcDbEntity
100
AcDbLine
  8
0
 62
1
420
16711680
370
-1
 48
1.0
  6
BYLAYER
 10
91.7930127552563704
 20
6.2185835005779797
 30
0.0
 11
91.7930127552563846
 21
6.3100835005779867
 31
0.0
  0
LINE
  5
1FF
100
AcDbEntity
100
AcDbLine
  8
0
 62
3
420
65280
370
-1
 48
1.0
  6
BYLAYER
 10
95.2767500046281128
 20
7.7207252070323342
 30
0.0
 11
95.2767500046281128
 21
7.8122252070323341
 31
0.0
  0
LINE
  5
200
100
AcDbEntity
100
AcDbLine
  8
0
 62
7
420
0
370
-1
 48
1.0
  6
BYLAYER
 10
95.2767500046281128
 20
8.7283287962596301
 30
0.0
 11
95.2767500046281128
 21
8.81982879625963
 31
0.0
  0
LINE
  5
201
100
AcDbEntity
100
AcDbLine
  8
0
 62
6
420
16711935
370
-1
 48
1.0
  6
BYLAYER
 10
91.7977801749977544
 20
3.1569969718442001
 30
0.0
 11
91.7977801749977687
 21
3.2484969718442072
 31
0.0
  0
LINE
  5
202
100
AcDbEntity
100
AcDbLine
  8
0
 62
6
420
16711935
370
-1
 48
1.0
  6
BYLAYER
 10
91.2004932249971034
 20
3.1569969718445332
 30
0.0
 11
91.2004932249970892
 21
3.2484969718445402
 31
0.0
  0
LINE
  5
203
100
AcDbEntity
100
AcDbLine
  8
0
 62
256
370
-1
 48
1.0
  6
BYLAYER
 10
81.5506952650000301
 20
6.1585000448916363
 30
0.0
 11
81.5506952650000301
 21
6.2500000448916362
 31
0.0
  0
LINE
  5
204
100
AcDbEntity
100
AcDbLine
  8
0
 62
256
370
-1
 48
1.0
  6
BYLAYER
 10
98.5506952650000301
 20
1.1585000448916372
 30
0.0
 11
98.5506952650000301
 21
1.2500000448916371
 31
0.0
  0
LINE
  5
205
100
AcDbEntity
100
AcDbLine
  8
0
 62
256
370
-1
 48
1.0
  6
BYLAYER
 10
90.123250000000013
 20
9.2585000448916368
 30
0.0
 11
90.123250000000013
 21
9.3500000448916367
 31
0.0
  0
LINE
  5
206
100
AcDbEntity
100
AcDbLine
  8
0
 62
256
370
-1
 48
1.0
  6
BYLAYER
 10
101.5506952650000159
 20
1.1585000000000001
 30
0.0
 11
101.5506952650000159
 21
1.25
 31
0.0
  0
LINE
  5
207
100
AcDbEntity
100
AcDbLine
  8
0
 62
256
370
-1
 48
1.0
  6
BYLAYER
 10
93.1232499999999987
 20
9.2584999999999997
 30
0.0
 11
93.1232499999999987
 21
9.3499999999999996
 31
0.0
  0
LINE
  5
208
100
AcDbEntity
100
AcDbLine
  8
0
 62
3
420
65280
370
-1
 48
1.0
  6
BYLAYER
 10
101.5506952650000159
 20
0.4585000000000009
 30
0.0
 11
101.5506952650000159
 21
0.5500000000000008
 31
0.0
  0
LINE
  5
209
100
AcDbEntity
100
AcDbLine
  8
0
 62
3
420
65280
370
-1
 48
1.0
  6
BYLAYER
 10
93.1232499999999987
 20
8.5585000000000004
 30
0.0
 11
93.1232499999999987
 21
8.6500000000000004
 31
0.0
  0
LINE
  5
20A
100
AcDbEntity
100
AcDbLine
  8
0
 62
3
420
65280
370
-1
 48
1.0
  6
BYLAYER
 10
101.5506952650000159
 20
-0.2414999999999994
 30
0.0
 11
101.5506952650000159
 21
-0.1499999999999995
 31
0.0
  0
LINE
  5
20B
100
AcDbEntity
100
AcDbLine
  8
0
 62
3
420
65280
370
-1
 48
1.0
  6
BYLAYER
 10
93.1232499999999987
 20
7.8585000000000003
 30
0.0
 11
93.1232499999999987
 21
7.9500000000000002
 31
0.0
  0
LINE
  5
20C
100
AcDbEntity
100
AcDbLine
  8
0
 62
256
370
-1
 48
1.0
  6
BYLAYER
 10
84.373566807772562
 20
1.8584999999999923
 30
0.0
 11
84.3041952650000326
 21
1.858500000000006
 31
0.0
  0
LINE
  5
20D
100
AcDbEntity
100
AcDbLine
  8
0
 62
256
370
-1
 48
1.0
  6
BYLAYER
 10
81.4813237222274438
 20
1.8584999999999923
 30
0.0
 11
81.5506952649999732
 21
1.8585000000000065
 31
0.0
  0
LINE
  5
20E
100
AcDbEntity
100
AcDbLine
  8
0
 62
256
370
-1
 48
1.0
  6
BYLAYER
 10
84.373566807772562
 20
6.1584999999999992
 30
0.0
 11
84.3041952650000326
 21
6.158500000000001
 31
0.0
  0
LINE
  5
20F
100
AcDbEntity
100
AcDbLine
  8
0
 62
256
370
-1
 48
1.0
  6
BYLAYER
 10
81.3735668077725762
 20
6.1585000448916363
 30
0.0
 11
81.3041952650000468
 21
6.158500044891638
 31
0.0
  0
LINE
  5
210
100
AcDbEntity
100
AcDbLine
  8
0
 62
256
370
-1
 48
1.0
  6
BYLAYER
 10
98.3735668077725762
 20
1.1585000448916372
 30
0.0
 11
98.3041952650000468
 21
1.1585000448916389
 31
0.0
  0
LINE
  5
211
100
AcDbEntity
100
AcDbLine
  8
0
 62
256
370
-1
 48
1.0
  6
BYLAYER
 10
89.9461215427725591
 20
9.2585000448916368
 30
0.0
 11
89.8767500000000297
 21
9.2585000448916386
 31
0.0
  0
LINE
  5
212
100
AcDbEntity
100
AcDbLine
  8
0
 62
256
370
-1
 48
1.0
  6
BYLAYER
 10
101.373566807772562
 20
1.1585000000000001
 30
0.0
 11
101.3041952650000326
 21
1.1585000000000019
 31
0.0
  0
LINE
  5
213
100
AcDbEntity
100
AcDbLine
  8
0
 62
256
370
-1
 48
1.0
  6
BYLAYER
 10
92.9461215427725449
 20
9.2584999999999997
 30
0.0
 11
92.8767500000000155
 21
9.2585000000000015
 31
0.0
  0
LINE
  5
214
100
AcDbEntity
100
AcDbLine
  8
0
 62
256
370
-1
 48
1.0
  6
BYLAYER
 10
84.4813237650000133
 20
1.8584999999999923
 30
0.0
 11
84.5506952650000159
 21
1.8585000000000065
 31
0.0
  0
LINE
  5
215
100
AcDbEntity
100
AcDbLine
  8
0
 62
256
370
-1
 48
1.0
  6
BYLAYER
 10
81.3735667649999925
 20
1.8584999999999927
 30
0.0
 11
81.3041952649999899
 21
1.8585000000000067
 31
0.0
  0
LINE
  5
216
100
AcDbEntity
100
AcDbLine
  8
0
 62
256
370
-1
 48
1.0
  6
BYLAYER
 10
84.4813237650000133
 20
6.1584999999999992
 30
0.0
 11
84.5506952650000159
 21
6.158500000000001
 31
0.0
  0
LINE
  5
217
100
AcDbEntity
100
AcDbLine
  8
0
 62
256
370
-1
 48
1.0
  6
BYLAYER
 10
81.4813237650000275
 20
6.1585000448916363
 30
0.0
 11
81.5506952650000301
 21
6.158500044891638
 31
0.0
  0
LINE
  5
218
100
AcDbEntity
100
AcDbLine
  8
0
 62
256
370
-1
 48
1.0
  6
BYLAYER
 10
98.4813237650000275
 20
1.1585000448916372
 30
0.0
 11
98.5506952650000301
 21
1.1585000448916389
 31
0.0
  0
LINE
  5
219
100
AcDbEntity
100
AcDbLine
  8
0
 62
256
370
-1
 48
1.0
  6
BYLAYER
 10
90.0538785000000104
 20
9.2585000448916368
 30
0.0
 11
90.123250000000013
 21
9.2585000448916386
 31
0.0
  0
LINE
  5
21A
100
AcDbEntity
100
AcDbLine
  8
0
 62
256
370
-1
 48
1.0
  6
BYLAYER
 10
101.4813237650000133
 20
1.1585000000000001
 30
0.0
 11
101.5506952650000159
 21
1.1585000000000019
 31
0.0
  0
LINE
  5
21B
100
AcDbEntity
100
AcDbLine
  8
0
 62
256
370
-1
 48
1.0
  6
BYLAYER
 10
93.0538784999999962
 20
9.2584999999999997
 30
0.0
 11
93.1232499999999987
 21
9.2585000000000015
 31
0.0
  0
LINE
  5
21C
100
AcDbEntity
100
AcDbLine
  8
0
 62
256
370
-1
 48
1.0
  6
BYLAYER
 10
84.5506952650000159
 20
1.9500000000000026
 30
0.0
 11
84.4813237649999991
 21
1.9500000000000024
 31
0.0
  0
LINE
  5
21D
100
AcDbEntity
100
AcDbLine
  8
0
 62
256
370
-1
 48
1.0
  6
BYLAYER
 10
81.3041952649999899
 20
1.9500000000000028
 30
0.0
 11
81.3735667650000067
 21
1.9500000000000028
 31
0.0
  0
LINE
  5
21E
100
AcDbEntity
100
AcDbLine
  8
0
 62
256
370
-1
 48
1.0
  6
BYLAYER
 10
84.5506952650000159
 20
6.2500000000000009
 30
0.0
 11
84.4813237649999991
 21
6.2500000000000009
 31
0.0
  0
LINE
  5
21F
100
AcDbEntity
100
AcDbLine
  8
0
 62
256
370
-1
 48
1.0
  6
BYLAYER
 10
81.5506952650000301
 20
6.250000044891638
 30
0.0
 11
81.4813237650000133
 21
6.250000044891638
 31
0.0
  0
LINE
  5
220
100
AcDbEntity
100
AcDbLine
  8
0
 62
256
370
-1
 48
1.0
  6
BYLAYER
 10
98.5506952650000301
 20
1.2500000448916389
 30
0.0
 11
98.4813237650000133
 21
1.2500000448916389
 31
0.0
  0
LINE
  5
221
100
AcDbEntity
100
AcDbLine
  8
0
 62
256
370
-1
 48
1.0
  6
BYLAYER
 10
90.123250000000013
 20
9.3500000448916385
 30
0.0
 11
90.0538784999999962
 21
9.3500000448916385
 31
0.0
  0
LINE
  5
222
100
AcDbEntity
100
AcDbLine
  8
0
 62
256
370
-1
 48
1.0
  6
BYLAYER
 10
101.5506952650000159
 20
1.2500000000000018
 30
0.0
 11
101.4813237649999991
 21
1.2500000000000018
 31
0.0
  0
LINE
  5
223
100
AcDbEntity
100
AcDbLine
  8
0
 62
256
370
-1
 48
1.0
  6
BYLAYER
 10
93.1232499999999987
 20
9.3500000000000014
 30
0.0
 11
93.053878499999982
 21
9.3500000000000014
 31
0.0
  0
LINE
  5
224
100
AcDbEntity
100
AcDbLine
  8
0
 62
256
370
-1
 48
1.0
  6
BYLAYER
 10
84.3735667649999925
 20
1.9500000000000024
 30
0.0
 11
84.3041952650000326
 21
1.9500000000000024
 31
0.0
  0
LINE
  5
225
100
AcDbEntity
100
AcDbLine
  8
0
 62
256
370
-1
 48
1.0
  6
BYLAYER
 10
81.4813237650000133
 20
1.9500000000000028
 30
0.0
 11
81.5506952649999732
 21
1.9500000000000028
 31
0.0
  0
LINE
  5
226
100
AcDbEntity
100
AcDbLine
  8
0
 62
256
370
-1
 48
1.0
  6
BYLAYER
 10
84.3735667649999925
 20
6.2500000000000009
 30
0.0
 11
84.3041952650000326
 21
6.2500000000000009
 31
0.0
  0
LINE
  5
227
100
AcDbEntity
100
AcDbLine
  8
0
 62
256
370
-1
 48
1.0
  6
BYLAYER
 10
81.3735667650000067
 20
6.250000044891638
 30
0.0
 11
81.3041952650000468
 21
6.250000044891638
 31
0.0
  0
LINE
  5
228
100
AcDbEntity
100
AcDbLine
  8
0
 62
256
370
-1
 48
1.0
  6
BYLAYER
 10
98.3735667650000067
 20
1.2500000448916389
 30
0.0
 11
98.3041952650000468
 21
1.2500000448916389
 31
0.0
  0
LINE
  5
229
100
AcDbEntity
100
AcDbLine
  8
0
 62
256
370
-1
 48
1.0
  6
BYLAYER
 10
89.9461214999999896
 20
9.3500000448916385
 30
0.0
 11
89.8767500000000297
 21
9.3500000448916385
 31
0.0
  0
LINE
  5
22A
100
AcDbEntity
100
AcDbLine
  8
0
 62
256
370
-1
 48
1.0
  6
BYLAYER
 10
101.3735667649999925
 20
1.2500000000000018
 30
0.0
 11
101.3041952650000326
 21
1.2500000000000018
 31
0.0
  0
LINE
  5
22B
100
AcDbEntity
100
AcDbLine
  8
0
 62
256
370
-1
 48
1.0
  6
BYLAYER
 10
92.9461214999999754
 20
9.3500000000000014
 30
0.0
 11
92.8767500000000155
 21
9.3500000000000014
 31
0.0
  0
LINE
  5
22C
100
AcDbEntity
100
AcDbLine
  8
0
 62
3
420
65280
370
-1
 48
1.0
  6
BYLAYER
 10
91.3349422766434884
 20
5.58040358585792
 30
0.0
 11
91.3349422766434884
 21
5.8073614609279245
 31
0.0
  0
LINE
  5
22D
100
AcDbEntity
100
AcDbLine
  8
0
 62
1
420
16711680
370
-1
 48
1.0
  6
BYLAYER
 10
91.3397096963848583
 20
2.5188170571241835
 30
0.0
 11
91.3397096963848583
 21
2.745774932194188
 31
0.0
  0
LINE
  5
22E
100
AcDbEntity
100
AcDbLine
  8
0
 62
1
420
16711680
370
-1
 48
1.0
  6
BYLAYER
 10
91.3397096963849862
 20
3.0247440015405904
 30
0.0
 11
91.3397096963849862
 21
3.3405121436365026
 31
0.0
  0
LINE
  5
22F
100
AcDbEntity
100
AcDbLine
  8
0
 62
1
420
16711680
370
-1
 48
1.0
  6
BYLAYER
 10
91.3349422766436021
 20
6.0863305302743722
 30
0.0
 11
91.3349422766436021
 21
6.4020986723702844
 31
0.0
  0
LINE
  5
230
100
AcDbEntity
100
AcDbLine
  8
0
 62
1
420
16711680
370
-1
 48
1.0
  6
BYLAYER
 10
91.6585636967258779
 20
3.0247440015405851
 30
0.0
 11
91.6585635963847807
 21
3.3405121436365053
 31
0.0
  0
LINE
  5
231
100
AcDbEntity
100
AcDbLine
  8
0
 62
1
420
16711680
370
-1
 48
1.0
  6
BYLAYER
 10
91.6537962769844938
 20
6.0863305302743669
 30
0.0
 11
91.6537961766433966
 21
6.4020986723702871
 31
0.0
  0
LINE
  5
232
100
AcDbEntity
100
AcDbLine
  8
0
 62
3
420
65280
370
-1
 48
1.0
  6
BYLAYER
 10
91.7958701989106771
 20
5.3360765517652435
 30
0.0
 11
91.9932581757512651
 21
5.2221145502014101
 31
0.0
  0
LINE
  5
233
100
AcDbEntity
100
AcDbLine
  8
0
 62
1
420
16711680
370
-1
 48
1.0
  6
BYLAYER
 10
91.8006376186520612
 20
2.2744900230314617
 30
0.0
 11
91.9980255954926491
 21
2.1605280214676283
 31
0.0
  0
LINE
  5
234
100
AcDbEntity
100
AcDbLine
  8
0
 62
3
420
65280
370
-1
 48
1.0
  6
BYLAYER
 10
91.6364432489108793
 20
5.0599409742694128
 30
0.0
 11
91.8338312257511262
 21
4.9459789727058121
 31
0.0
  0
LINE
  5
235
100
AcDbEntity
100
AcDbLine
  8
0
 62
1
420
16711680
370
-1
 48
1.0
  6
BYLAYER
 10
91.6412106686522634
 20
1.998354445535631
 30
0.0
 11
91.8385986454925103
 21
1.8843924439720303
 31
0.0
  0
LINE
  5
236
100
AcDbEntity
100
AcDbLine
  8
0
 62
3
420
65280
370
-1
 48
1.0
  6
BYLAYER
 10
92.0581108156893322
 20
4.8164910910812804
 30
0.0
 11
92.3487409588427255
 21
4.6486956996970976
 31
0.0
  0
LINE
  5
237
100
AcDbEntity
100
AcDbLine
  8
0
 62
1
420
16711680
370
-1
 48
1.0
  6
BYLAYER
 10
92.0628782354307162
 20
1.7549045623474986
 30
0.0
 11
92.3535083785841096
 21
1.5871091709633158
 31
0.0
  0
LINE
  5
238
100
AcDbEntity
100
AcDbLine
  8
0
 62
3
420
65280
370
-1
 48
1.0
  6
BYLAYER
 10
92.2175377656893431
 20
5.0926266685769992
 30
0.0
 11
92.5081679088427364
 21
4.9248312771928173
 31
0.0
  0
LINE
  5
239
100
AcDbEntity
100
AcDbLine
  8
0
 62
1
420
16711680
370
-1
 48
1.0
  6
BYLAYER
 10
92.2223051854307272
 20
2.0310401398432174
 30
0.0
 11
92.5129353285841205
 21
1.8632447484590355
 31
0.0
  0
LINE
  5
23A
100
AcDbEntity
100
AcDbLine
  8
0
 62
3
420
65280
370
-1
 48
1.0
  6
BYLAYER
 10
91.1943541543761427
 20
5.33607655176497
 30
0.0
 11
90.9973513903524491
 21
5.2223369529247483
 31
0.0
  0
LINE
  5
23B
100
AcDbEntity
100
AcDbLine
  8
0
 62
1
420
16711680
370
-1
 48
1.0
  6
BYLAYER
 10
91.1991215741175267
 20
2.2744900230311882
 30
0.0
 11
91.0021188100938332
 21
2.1607504241909665
 31
0.0
  0
LINE
  5
23C
100
AcDbEntity
100
AcDbLine
  8
0
 62
3
420
65280
370
-1
 48
1.0
  6
BYLAYER
 10
91.353781104376182
 20
5.0599409742692938
 30
0.0
 11
91.1567783403522469
 21
4.9462013754290277
 31
0.0
  0
LINE
  5
23D
100
AcDbEntity
100
AcDbLine
  8
0
 62
1
420
16711680
370
-1
 48
1.0
  6
BYLAYER
 10
91.3585485241175661
 20
1.998354445535512
 30
0.0
 11
91.161545760093631
 21
1.8846148466952459
 31
0.0
  0
LINE
  5
23E
100
AcDbEntity
100
AcDbLine
  8
0
 62
3
420
65280
370
-1
 48
1.0
  6
BYLAYER
 10
90.7730511573461882
 20
5.0928371530193228
 30
0.0
 11
90.482297251674467
 21
4.9249703073118321
 31
0.0
  0
LINE
  5
23F
100
AcDbEntity
100
AcDbLine
  8
0
 62
1
420
16711680
370
-1
 48
1.0
  6
BYLAYER
 10
90.7778185770875723
 20
2.031250624285541
 30
0.0
 11
90.4870646714158511
 21
1.8633837785780503
 31
0.0
  0
LINE
  5
240
100
AcDbEntity
100
AcDbLine
  8
0
 62
3
420
65280
370
-1
 48
1.0
  6
BYLAYER
 10
90.9324781073460002
 20
4.8167015755236084
 30
0.0
 11
90.6417242016744922
 21
4.6488347298161177
 31
0.0
  0
LINE
  5
241
100
AcDbEntity
100
AcDbLine
  8
0
 62
1
420
16711680
370
-1
 48
1.0
  6
BYLAYER
 10
90.9372455270873843
 20
1.7551150467898267
 30
0.0
 11
90.6464916214158762
 21
1.5872482010823359
 31
0.0
  0
LINE
  5
242
100
AcDbEntity
100
AcDbLine
  8
0
 62
3
420
65280
370
-1
 48
1.0
  6
BYLAYER
 10
90.89819743688237
 20
5.2580089164717529
 30
0.0
 11
90.7209658135673038
 21
5.5649830927618549
 31
0.0
  0
LINE
  5
243
100
AcDbEntity
100
AcDbLine
  8
0
 62
3
420
65280
370
-1
 48
1.0
  6
BYLAYER
 10
90.7917317981108312
 20
5.1965409512675542
 30
0.0
 11
90.6145001747956655
 21
5.5035151275575451
 31
0.0
  0
LINE
  5
244
100
AcDbEntity
100
AcDbLine
  8
0
 62
3
420
65280
370
-1
 48
1.0
  6
BYLAYER
 10
91.2088601747950065
 20
4.4740534095705478
 30
0.0
 11
91.0415970655322582
 21
4.7637616130458094
 31
0.0
  0
LINE
  5
245
100
AcDbEntity
100
AcDbLine
  8
0
 62
3
420
65280
370
-1
 48
1.0
  6
BYLAYER
 10
91.3153258135667585
 20
4.5355213747747447
 30
0.0
 11
91.1480627043039817
 21
4.8252295782501564
 31
0.0
  0
LINE
  5
246
100
AcDbEntity
100
AcDbLine
  8
0
 62
3
420
65280
370
-1
 48
1.0
  6
BYLAYER
 10
91.8524203626552946
 20
4.8423309076028103
 30
0.0
 11
91.6751874821451906
 21
4.5353545537879114
 31
0.0
  0
LINE
  5
247
100
AcDbEntity
100
AcDbLine
  8
0
 62
3
420
65280
370
-1
 48
1.0
  6
BYLAYER
 10
91.958837866231633
 20
4.7808907332666593
 30
0.0
 11
91.781604985721529
 21
4.4739143794516476
 31
0.0
  0
LINE
  5
248
100
AcDbEntity
100
AcDbLine
  8
0
 62
3
420
65280
370
-1
 48
1.0
  6
BYLAYER
 10
92.3759649857221206
 20
5.5033760974380854
 30
0.0
 11
92.2086766144715568
 21
5.2136241389168125
 31
0.0
  0
LINE
  5
249
100
AcDbEntity
100
AcDbLine
  8
0
 62
3
420
65280
370
-1
 48
1.0
  6
BYLAYER
 10
92.2695474821458816
 20
5.5648162717742355
 30
0.0
 11
92.1022591108952042
 21
5.2750643132530719
 31
0.0
  0
LINE
  5
24A
100
AcDbEntity
100
AcDbLine
  8
0
 62
1
420
16711680
370
-1
 48
1.0
  6
BYLAYER
 10
91.4943692266433857
 20
6.7983386723702628
 30
0.0
 11
91.1961049243825101
 21
6.6492065212398304
 31
0.0
  0
LINE
  5
24B
100
AcDbEntity
100
AcDbLine
  8
0
 62
3
420
65280
370
-1
 48
1.0
  6
BYLAYER
 10
90.9688466861289271
 20
6.5355774021130246
 30
0.0
 11
90.6976918819028697
 21
6.4000000000000004
 31
0.0
  0
LINE
  5
24C
100
AcDbEntity
100
AcDbLine
  8
0
 62
3
420
65280
370
-1
 48
1.0
  6
BYLAYER
 10
92.2910465713839301
 20
6.3999999999999844
 30
0.0
 11
92.4898925123353592
 21
6.5827267143080173
 31
0.0
  0
LINE
  5
24D
100
AcDbEntity
100
AcDbLine
  8
0
 62
3
420
65280
370
-1
 48
1.0
  6
BYLAYER
 10
90.1989495354272179
 20
4.9204429480606944
 30
0.0
 11
89.888738453286777
 21
5.3223834395111327
 31
0.0
  0
LINE
  5
24E
100
AcDbEntity
100
AcDbLine
  8
0
 62
3
420
65280
370
-1
 48
1.0
  6
BYLAYER
 10
92.7915156250899855
 20
4.9203039179415571
 30
0.0
 11
93.0999999999999943
 21
5.3225473685756715
 31
0.0
  0
LINE
  5
24F
100
AcDbEntity
100
AcDbLine
  8
0
 62
1
420
16711680
370
-1
 48
1.0
  6
BYLAYER
 10
91.1269588052557111
 20
6.3100835005783162
 30
0.0
 11
91.1957258052557194
 21
6.3100835005783189
 31
0.0
  0
LINE
  5
250
100
AcDbEntity
100
AcDbLine
  8
0
 62
1
420
16711680
370
-1
 48
1.0
  6
BYLAYER
 10
91.8617797552560518
 20
6.3100835005779832
 30
0.0
 11
91.7930127552563846
 21
6.3100835005779858
 31
0.0
  0
LINE
  5
251
100
AcDbEntity
100
AcDbLine
  8
0
 62
1
420
16711680
370
-1
 48
1.0
  6
BYLAYER
 10
91.1957258052557194
 20
6.2185835005782995
 30
0.0
 11
91.1269588052557111
 21
6.2185835005783039
 31
0.0
  0
LINE
  5
252
100
AcDbEntity
100
AcDbLine
  8
0
 62
1
420
16711680
370
-1
 48
1.0
  6
BYLAYER
 10
91.7930127552563704
 20
6.2185835005779673
 30
0.0
 11
91.8617797552563786
 21
6.2185835005779708
 31
0.0
  0
LINE
  5
253
100
AcDbEntity
100
AcDbLine
  8
0
 62
3
420
65280
370
-1
 48
1.0
  6
BYLAYER
 10
91.0179928052557159
 20
6.2185835005783074
 30
0.0
 11
90.9492258052557077
 21
6.2185835005783243
 31
0.0
  0
LINE
  5
254
100
AcDbEntity
100
AcDbLine
  8
0
 62
3
420
65280
370
-1
 48
1.0
  6
BYLAYER
 10
91.9707457552563739
 20
6.2185835005779744
 30
0.0
 11
92.0395127552563821
 21
6.2185835005779904
 31
0.0
  0
LINE
  5
255
100
AcDbEntity
100
AcDbLine
  8
0
 62
6
420
16711935
370
-1
 48
1.0
  6
BYLAYER
 10
91.7977801749977544
 20
3.1569969718442001
 30
0.0
 11
92.0442801749977662
 21
3.1569969718442108
 31
0.0
  0
LINE
  5
256
100
AcDbEntity
100
AcDbLine
  8
0
 62
6
420
16711935
370
-1
 48
1.0
  6
BYLAYER
 10
91.2004932249971034
 20
3.1569969718445332
 30
0.0
 11
90.9539932249970917
 21
3.1569969718445448
 31
0.0
  0
LINE
  5
257
100
AcDbEntity
100
AcDbLine
  8
0
 62
3
420
65280
370
-1
 48
1.0
  6
BYLAYER
 10
90.9492258052557219
 20
6.310083500578334
 30
0.0
 11
91.0179928052557301
 21
6.3100835005783278
 31
0.0
  0
LINE
  5
258
100
AcDbEntity
100
AcDbLine
  8
0
 62
3
420
65280
370
-1
 48
1.0
  6
BYLAYER
 10
92.0395127552563537
 20
6.3100835005779983
 30
0.0
 11
91.9707457552558196
 21
6.3100835005779929
 31
0.0
  0
LINE
  5
259
100
AcDbEntity
100
AcDbLine
  8
0
 62
6
420
16711935
370
-1
 48
1.0
  6
BYLAYER
 10
92.0442801749977377
 20
3.2484969718442187
 30
0.0
 11
91.7977801749977687
 21
3.2484969718442072
 31
0.0
  0
LINE
  5
25A
100
AcDbEntity
100
AcDbLine
  8
0
 62
6
420
16711935
370
-1
 48
1.0
  6
BYLAYER
 10
90.9539932249971059
 20
3.2484969718445544
 30
0.0
 11
91.2004932249970892
 21
3.2484969718445402
 31
0.0
  0
LINE
  5
25B
100
AcDbEntity
100
AcDbLine
  8
0
 62
3
420
65280
370
-1
 48
1.0
  6
BYLAYER
 10
91.6537962838688998
 20
5.8073614609277477
 30
0.0
 11
91.6537962838688998
 21
5.5820252063775779
 31
0.0
  0
LINE
  5
25C
100
AcDbEntity
100
AcDbLine
  8
0
 62
1
420
16711680
370
-1
 48
1.0
  6
BYLAYER
 10
91.6585637036102838
 20
2.745774932193966
 30
0.0
 11
91.6585637036102838
 21
2.5204386776437961
 31
0.0
  0
LINE
  5
25D
100
AcDbEntity
100
AcDbLine
  8
0
 62
3
420
65280
370
-1
 48
1.0
  6
BYLAYER
 10
90.6417242016744922
 20
4.6488347298161177
 30
0.0
 11
90.482297251674467
 21
4.9249703073118321
 31
0.0
  0
LINE
  5
25E
100
AcDbEntity
100
AcDbLine
  8
0
 62
1
420
16711680
370
-1
 48
1.0
  6
BYLAYER
 10
90.6464916214159047
 20
1.5872482010823397
 30
0.0
 11
90.4870646714158795
 21
1.8633837785780538
 31
0.0
  0
LINE
  5
25F
100
AcDbEntity
100
AcDbLine
  8
0
 62
3
420
65280
370
-1
 48
1.0
  6
BYLAYER
 10
90.7730511573462024
 20
5.0928371530193397
 30
0.0
 11
90.7328162556613194
 21
5.1625260469749179
 31
0.0
  0
LINE
  5
260
100
AcDbEntity
100
AcDbLine
  8
0
 62
1
420
16711680
370
-1
 48
1.0
  6
BYLAYER
 10
90.7778185770875865
 20
2.0312506242855579
 30
0.0
 11
90.7375836754027034
 21
2.1009395182411361
 31
0.0
  0
LINE
  5
261
100
AcDbEntity
100
AcDbLine
  8
0
 62
3
420
65280
370
-1
 48
1.0
  6
BYLAYER
 10
90.7917317981108312
 20
5.1965409512675542
 30
0.0
 11
90.7328162556613194
 21
5.1625260469749188
 31
0.0
  0
LINE
  5
262
100
AcDbEntity
100
AcDbLine
  8
0
 62
3
420
65280
370
-1
 48
1.0
  6
BYLAYER
 10
90.9324781073459718
 20
4.8167015755235862
 30
0.0
 11
90.9826815230831727
 21
4.7297467087533436
 31
0.0
  0
LINE
  5
263
100
AcDbEntity
100
AcDbLine
  8
0
 62
1
420
16711680
370
-1
 48
1.0
  6
BYLAYER
 10
90.9372455270873559
 20
1.7551150467898045
 30
0.0
 11
90.9874489428245568
 21
1.6681601800195618
 31
0.0
  0
LINE
  5
264
100
AcDbEntity
100
AcDbLine
  8
0
 62
3
420
65280
370
-1
 48
1.0
  6
BYLAYER
 10
90.9826815230831727
 20
4.7297467087533436
 30
0.0
 11
91.0415970655322582
 21
4.7637616130458094
 31
0.0
  0
LINE
  5
265
100
AcDbEntity
100
AcDbLine
  8
0
 62
3
420
65280
370
-1
 48
1.0
  6
BYLAYER
 10
91.1480627043039817
 20
4.8252295782501564
 30
0.0
 11
91.2069817560896468
 21
4.8592465086589778
 31
0.0
  0
LINE
  5
266
100
AcDbEntity
100
AcDbLine
  8
0
 62
1
420
16711680
370
-1
 48
1.0
  6
BYLAYER
 10
90.9874489428245568
 20
1.6681601800195618
 30
0.0
 11
91.2117491758310308
 21
1.797659979925196
 31
0.0
  0
LINE
  5
267
100
AcDbEntity
100
AcDbLine
  8
0
 62
3
420
65280
370
-1
 48
1.0
  6
BYLAYER
 10
92.0178771711991459
 20
4.7468043746508188
 30
0.0
 11
92.0581108156893322
 21
4.8164910910812804
 31
0.0
  0
LINE
  5
268
100
AcDbEntity
100
AcDbLine
  8
0
 62
1
420
16711680
370
-1
 48
1.0
  6
BYLAYER
 10
92.02264459094053
 20
1.685217845917037
 30
0.0
 11
92.0628782354307162
 21
1.7549045623474986
 31
0.0
  0
LINE
  5
269
100
AcDbEntity
100
AcDbLine
  8
0
 62
3
420
65280
370
-1
 48
1.0
  6
BYLAYER
 10
92.3487409588427255
 20
4.6486956996970976
 30
0.0
 11
92.5081679088427364
 21
4.9248312771928173
 31
0.0
  0
LINE
  5
26A
100
AcDbEntity
100
AcDbLine
  8
0
 62
3
420
65280
370
-1
 48
1.0
  6
BYLAYER
 10
92.2175377656893431
 20
5.0926266685769992
 30
0.0
 11
92.2677159194388139
 21
5.179537780301211
 31
0.0
  0
LINE
  5
26B
100
AcDbEntity
100
AcDbLine
  8
0
 62
1
420
16711680
370
-1
 48
1.0
  6
BYLAYER
 10
92.2223051854307272
 20
2.0310401398432174
 30
0.0
 11
92.272483339180198
 21
2.1179512515674292
 31
0.0
  0
LINE
  5
26C
100
AcDbEntity
100
AcDbLine
  8
0
 62
3
420
65280
370
-1
 48
1.0
  6
BYLAYER
 10
91.958837866231633
 20
4.7808907332666593
 30
0.0
 11
92.0178771711991459
 21
4.7468043746508188
 31
0.0
  0
LINE
  5
26D
100
AcDbEntity
100
AcDbLine
  8
0
 62
1
420
16711680
370
-1
 48
1.0
  6
BYLAYER
 10
91.7983650010024661
 20
1.8147057275415643
 30
0.0
 11
92.02264459094053
 21
1.685217845917037
 31
0.0
  0
LINE
  5
26E
100
AcDbEntity
100
AcDbLine
  8
0
 62
3
420
65280
370
-1
 48
1.0
  6
BYLAYER
 10
92.2695474821458816
 20
5.5648162717742355
 30
0.0
 11
92.3759649857221206
 21
5.5033760974380854
 31
0.0
  0
LINE
  5
26F
100
AcDbEntity
100
AcDbLine
  8
0
 62
3
420
65280
370
-1
 48
1.0
  6
BYLAYER
 10
90.5311074225276684
 20
5.5498915418774262
 30
0.0
 11
90.7224990367640629
 21
5.6603915418773711
 31
0.0
  0
LINE
  5
270
100
AcDbEntity
100
AcDbLine
  8
0
 62
3
420
65280
370
-1
 48
1.0
  6
BYLAYER
 10
91.7831863441134885
 20
4.378478139468112
 30
0.0
 11
91.5917947298771651
 21
4.4889781394681725
 31
0.0
  0
LINE
  5
271
100
AcDbEntity
100
AcDbLine
  8
0
 62
3
420
65280
370
-1
 48
1.0
  6
BYLAYER
 10
90.9000092266433626
 20
5.8753979352232699
 30
0.0
 11
91.210924039495481
 21
5.8753979352230701
 31
0.0
  0
LINE
  5
272
100
AcDbEntity
100
AcDbLine
  8
0
 62
3
420
65280
370
-1
 48
1.0
  6
BYLAYER
 10
91.7778145210162677
 20
5.8753979352225789
 30
0.0
 11
92.0887292266435082
 21
5.8753979352224803
 31
0.0
  0
LINE
  5
273
100
AcDbEntity
100
AcDbLine
  8
0
 62
3
420
65280
370
-1
 48
1.0
  6
BYLAYER
 10
92.1607292266435536
 20
5.826366553796932
 30
0.0
 11
92.1607292266434683
 21
6.069031381426873
 31
0.0
  0
LINE
  5
274
100
AcDbEntity
100
AcDbLine
  8
0
 62
3
420
65280
370
-1
 48
1.0
  6
BYLAYER
 10
92.1607292266434683
 20
6.069031381426873
 30
0.0
 11
92.0887292266433803
 21
6.069031381426873
 31
0.0
  0
LINE
  5
275
100
AcDbEntity
100
AcDbLine
  8
0
 62
3
420
65280
370
-1
 48
1.0
  6
BYLAYER
 10
92.1607292266435536
 20
5.826366553796932
 30
0.0
 11
92.0887292266434798
 21
5.82636655379698
 31
0.0
  0
LINE
  5
276
100
AcDbEntity
100
AcDbLine
  8
0
 62
3
420
65280
370
-1
 48
1.0
  6
BYLAYER
 10
92.0887292266435225
 20
5.8753979352224803
 30
0.0
 11
92.0887292266435225
 21
5.8263665537969791
 31
0.0
  0
LINE
  5
277
100
AcDbEntity
100
AcDbLine
  8
0
 62
3
420
65280
370
-1
 48
1.0
  6
BYLAYER
 10
91.1529326557735118
 20
5.75
 30
0.0
 11
91.1529326557735118
 21
5.75
 31
0.0
  0
LINE
  5
278
100
AcDbEntity
100
AcDbLine
  8
0
 62
3
420
65280
370
-1
 48
1.0
  6
BYLAYER
 10
92.2910465713839301
 20
6.3999999999999879
 30
0.0
 11
92.0198917671578585
 21
6.5355774021130237
 31
0.0
  0
LINE
  5
279
100
AcDbEntity
100
AcDbLine
  8
0
 62
1
420
16711680
370
-1
 48
1.0
  6
BYLAYER
 10
91.792633636129537
 20
6.649206467627188
 30
0.0
 11
91.4943692266433999
 21
6.798338672370269
 31
0.0
  0
LINE
  5
27A
100
AcDbEntity
100
AcDbLine
  8
0
 62
1
420
16711680
370
-1
 48
1.0
  6
BYLAYER
 10
91.2449422766435987
 20
6.0863305302743722
 30
0.0
 11
91.3349422766436021
 21
6.0863305302743722
 31
0.0
  0
LINE
  5
27B
100
AcDbEntity
100
AcDbLine
  8
0
 62
1
420
16711680
370
-1
 48
1.0
  6
BYLAYER
 10
91.2497096963849827
 20
3.0247440015405904
 30
0.0
 11
91.3397096963849862
 21
3.0247440015405904
 31
0.0
  0
LINE
  5
27C
100
AcDbEntity
100
AcDbLine
  8
0
 62
1
420
16711680
370
-1
 48
1.0
  6
BYLAYER
 10
91.6537962769844938
 20
6.0863305302743669
 30
0.0
 11
91.7437962769844972
 21
6.0863305302743669
 31
0.0
  0
LINE
  5
27D
100
AcDbEntity
100
AcDbLine
  8
0
 62
1
420
16711680
370
-1
 48
1.0
  6
BYLAYER
 10
91.6585636967258779
 20
3.0247440015405851
 30
0.0
 11
91.7485636967258813
 21
3.0247440015405851
 31
0.0
  0
LINE
  5
27E
100
AcDbEntity
100
AcDbLine
  8
0
 62
1
420
16711680
370
-1
 48
1.0
  6
BYLAYER
 10
91.1269588052557111
 20
6.2185835005783039
 30
0.0
 11
91.1269588052557538
 21
6.0200000000003424
 31
0.0
  0
LINE
  5
27F
100
AcDbEntity
100
AcDbLine
  8
0
 62
1
420
16711680
370
-1
 48
1.0
  6
BYLAYER
 10
91.861779755256066
 20
6.2185835005780321
 30
0.0
 11
91.8617797552563502
 21
6.0199999999999996
 31
0.0
  0
LINE
  5
280
100
AcDbEntity
100
AcDbLine
  8
0
 62
3
420
65280
370
-1
 48
1.0
  6
BYLAYER
 10
91.0179928052557159
 20
6.2185835005783074
 30
0.0
 11
91.0179928052560001
 21
6.0200000000002749
 31
0.0
  0
LINE
  5
281
100
AcDbEntity
100
AcDbLine
  8
0
 62
3
420
65280
370
-1
 48
1.0
  6
BYLAYER
 10
91.9707457552558338
 20
6.2185835005779593
 30
0.0
 11
91.9707457552561181
 21
6.0199999999999267
 31
0.0
  0
LINE
  5
282
100
AcDbEntity
100
AcDbLine
  8
0
 62
3
420
65280
370
-1
 48
1.0
  6
BYLAYER
 10
91.0179928052557301
 20
6.3100835005783278
 30
0.0
 11
91.0179928052557301
 21
6.5355774021130237
 31
0.0
  0
LINE
  5
283
100
AcDbEntity
100
AcDbLine
  8
0
 62
3
420
65280
370
-1
 48
1.0
  6
BYLAYER
 10
91.9707457552558196
 20
6.3100835005779929
 30
0.0
 11
91.9707457552558338
 21
6.5355774021130246
 31
0.0
  0
LINE
  5
284
100
AcDbEntity
100
AcDbLine
  8
0
 62
1
420
16711680
370
-1
 48
1.0
  6
BYLAYER
 10
91.1269588052557111
 20
6.3100835005783162
 30
0.0
 11
91.1269588052557111
 21
6.5355774021130246
 31
0.0
  0
LINE
  5
285
100
AcDbEntity
100
AcDbLine
  8
0
 62
1
420
16711680
370
-1
 48
1.0
  6
BYLAYER
 10
91.8617797552560518
 20
6.3100835005779832
 30
0.0
 11
91.8617797552560518
 21
6.5355774021130246
 31
0.0
  0
LINE
  5
286
100
AcDbEntity
100
AcDbLine
  8
0
 62
1
420
16711680
370
-1
 48
1.0
  6
BYLAYER
 10
91.2449422766434708
 20
6.0200000000004099
 30
0.0
 11
91.1287385605123319
 21
6.020000000000338
 31
0.0
  0
LINE
  5
287
100
AcDbEntity
100
AcDbLine
  8
0
 62
1
420
16711680
370
-1
 48
1.0
  6
BYLAYER
 10
91.7437962769844972
 20
6.0200000000000733
 30
0.0
 11
91.861779755256336
 21
6.0199999999999996
 31
0.0
  0
LINE
  5
288
100
AcDbEntity
100
AcDbLine
  8
0
 62
3
420
65280
370
-1
 48
1.0
  6
BYLAYER
 10
91.9707457552560754
 20
6.0199999999999276
 30
0.0
 11
92.088729226643423
 21
6.0199999999998601
 31
0.0
  0
LINE
  5
289
100
AcDbEntity
100
AcDbLine
  8
0
 62
3
420
65280
370
-1
 48
1.0
  6
BYLAYER
 10
91.0179928052560001
 20
6.0200000000002749
 30
0.0
 11
90.9000092266434052
 21
6.0200000000005245
 31
0.0
  0
LINE
  5
28A
100
AcDbEntity
100
AcDbLine
  8
0
 62
3
420
65280
370
-1
 48
1.0
  6
BYLAYER
 10
90.5720371870633301
 20
5.4789991101597755
 30
0.0
 11
90.6145001747956655
 21
5.5035151275575451
 31
0.0
  0
LINE
  5
28B
100
AcDbEntity
100
AcDbLine
  8
0
 62
3
420
65280
370
-1
 48
1.0
  6
BYLAYER
 10
90.7209658135673038
 20
5.5649830927618549
 30
0.0
 11
90.7634288012997246
 21
5.5894991101597205
 31
0.0
  0
LINE
  5
28C
100
AcDbEntity
100
AcDbLine
  8
0
 62
3
420
65280
370
-1
 48
1.0
  6
BYLAYER
 10
91.2088601747950065
 20
4.4740534095705478
 30
0.0
 11
91.3153258135667585
 21
4.5355213747747447
 31
0.0
  0
LINE
  5
28D
100
AcDbEntity
100
AcDbLine
  8
0
 62
3
420
65280
370
-1
 48
1.0
  6
BYLAYER
 10
91.8241161086491928
 20
4.4493705711857361
 30
0.0
 11
91.781604985721529
 21
4.4739143794516476
 31
0.0
  0
LINE
  5
28E
100
AcDbEntity
100
AcDbLine
  8
0
 62
3
420
65280
370
-1
 48
1.0
  6
BYLAYER
 10
90.7734022501755788
 20
4.2226416595706899
 30
0.0
 11
90.9073908261883048
 21
4.2999999999999998
 31
0.0
  0
LINE
  5
28F
100
AcDbEntity
100
AcDbLine
  8
0
 62
3
420
65280
370
-1
 48
1.0
  6
BYLAYER
 10
90.9688466861289129
 20
6.5355774021130237
 30
0.0
 11
91.0179928052557301
 21
6.5355774021130237
 31
0.0
  0
LINE
  5
290
100
AcDbEntity
100
AcDbLine
  8
0
 62
1
420
16711680
370
-1
 48
1.0
  6
BYLAYER
 10
91.1269588052557111
 20
6.5355774021130246
 30
0.0
 11
91.1961049243825244
 21
6.5355774021130246
 31
0.0
  0
LINE
  5
291
100
AcDbEntity
100
AcDbLine
  8
0
 62
1
420
16711680
370
-1
 48
1.0
  6
BYLAYER
 10
91.792633636129537
 20
6.5355774021130246
 30
0.0
 11
91.8617797552560518
 21
6.5355774021130246
 31
0.0
  0
LINE
  5
292
100
AcDbEntity
100
AcDbLine
  8
0
 62
3
420
65280
370
-1
 48
1.0
  6
BYLAYER
 10
91.9707457552558338
 20
6.5355774021130246
 30
0.0
 11
92.0198918743831626
 21
6.5355774021130237
 31
0.0
  0
LINE
  5
293
100
AcDbEntity
100
AcDbLine
  8
0
 62
3
420
65280
370
-1
 48
1.0
  6
BYLAYER
 10
90.9739932249971446
 20
3.4739908733792508
 30
0.0
 11
91.201251463250756
 21
3.4739908733792517
 31
0.0
  0
LINE
  5
294
100
AcDbEntity
100
AcDbLine
  8
0
 62
3
420
65280
370
-1
 48
1.0
  6
BYLAYER
 10
91.7977801749977687
 20
3.4739908733792517
 30
0.0
 11
92.0250384132513943
 21
3.4739908733792508
 31
0.0
  0
LINE
  5
295
100
AcDbEntity
100
AcDbLine
  8
0
 62
1
420
16711680
370
-1
 48
1.0
  6
BYLAYER
 10
91.1961049243825244
 20
6.5355774021130246
 30
0.0
 11
91.1961049243825244
 21
6.6492065212398321
 31
0.0
  0
LINE
  5
296
100
AcDbEntity
100
AcDbLine
  8
0
 62
1
420
16711680
370
-1
 48
1.0
  6
BYLAYER
 10
91.792633636129537
 20
6.5355774021130246
 30
0.0
 11
91.792633636129537
 21
6.6492064676271863
 31
0.0
  0
LINE
  5
297
100
AcDbEntity
100
AcDbLine
  8
0
 62
3
420
65280
370
-1
 48
1.0
  6
BYLAYER
 10
91.7977801749977687
 20
3.4739908733792513
 30
0.0
 11
91.7977801749977544
 21
3.5874303793300473
 31
0.0
  0
LINE
  5
298
100
AcDbEntity
100
AcDbLine
  8
0
 62
3
420
65280
370
-1
 48
1.0
  6
BYLAYER
 10
91.7977801749977544
 20
3.5874303793300473
 30
0.0
 11
91.4991366463847555
 21
3.736752143636545
 31
0.0
  0
LINE
  5
299
100
AcDbEntity
100
AcDbLine
  8
0
 62
3
420
65280
370
-1
 48
1.0
  6
BYLAYER
 10
91.4991366463847555
 20
3.736752143636545
 30
0.0
 11
91.201251463250756
 21
3.5876199925060592
 31
0.0
  0
LINE
  5
29A
100
AcDbEntity
100
AcDbLine
  8
0
 62
3
420
65280
370
-1
 48
1.0
  6
BYLAYER
 10
91.201251463250756
 20
3.5876199925060592
 30
0.0
 11
91.2012514632507418
 21
3.4739908733792517
 31
0.0
  0
LINE
  5
29B
100
AcDbEntity
100
AcDbLine
  8
0
 62
3
420
65280
370
-1
 48
1.0
  6
BYLAYER
 10
90.9736141058704106
 20
3.4739908733799818
 30
0.0
 11
90.8502036270041486
 21
3.4122856339468792
 31
0.0
  0
LINE
  5
29C
100
AcDbEntity
100
AcDbLine
  8
0
 62
3
420
65280
370
-1
 48
1.0
  6
BYLAYER
 10
92.024659186899342
 20
3.4739908733792499
 30
0.0
 11
92.148069665765604
 21
3.4122856339461474
 31
0.0
  0
LINE
  5
29D
100
AcDbEntity
100
AcDbLine
  8
0
 62
3
420
65280
370
-1
 48
1.0
  6
BYLAYER
 10
90.9047766463851445
 20
3.0074448526938222
 30
0.0
 11
90.8502036270043334
 21
3.0789625377351686
 31
0.0
  0
LINE
  5
29E
100
AcDbEntity
100
AcDbLine
  8
0
 62
3
420
65280
370
-1
 48
1.0
  6
BYLAYER
 10
92.0934966463846081
 20
3.0074448526930904
 30
0.0
 11
92.1480696657654192
 21
3.0789625377344367
 31
0.0
  0
LINE
  5
29F
100
AcDbEntity
100
AcDbLine
  8
0
 62
3
420
65280
370
-1
 48
1.0
  6
BYLAYER
 10
90.8502036270041629
 20
3.0789625377354017
 30
0.0
 11
90.8502036270041486
 21
3.4122856339468792
 31
0.0
  0
LINE
  5
2A0
100
AcDbEntity
100
AcDbLine
  8
0
 62
3
420
65280
370
-1
 48
1.0
  6
BYLAYER
 10
92.1480696657655898
 20
3.0789625377346699
 30
0.0
 11
92.148069665765604
 21
3.4122856339461474
 31
0.0
  0
LINE
  5
2A1
100
AcDbEntity
100
AcDbLine
  8
0
 62
3
420
65280
370
-1
 48
1.0
  6
BYLAYER
 10
92.1798661713498007
 20
2.5577597430401844
 30
0.0
 11
92.8161903300830318
 21
2.1903778187044387
 31
0.0
  0
LINE
  5
2A2
100
AcDbEntity
100
AcDbLine
  8
0
 62
3
420
65280
370
-1
 48
1.0
  6
BYLAYER
 10
90.1838096699169398
 20
2.1905168488235716
 30
0.0
 11
90.8201819638456129
 21
2.5579265640281377
 31
0.0
  0
LINE
  5
2A3
100
AcDbEntity
100
AcDbLine
  8
0
 62
3
420
65280
370
-1
 48
1.0
  6
BYLAYER
 10
90.7781696699169629
 20
1.1610551308369081
 30
0.0
 11
91.4145419638448544
 21
1.5284648460409733
 31
0.0
  0
LINE
  5
2A4
100
AcDbEntity
100
AcDbLine
  8
0
 62
3
420
65280
370
-1
 48
1.0
  6
BYLAYER
 10
91.5855061713497776
 20
1.5282980250542599
 30
0.0
 11
92.2218303300830087
 21
1.1609161007177788
 31
0.0
  0
LINE
  5
2A5
100
AcDbEntity
100
AcDbLine
  8
0
 62
1
420
16711680
370
-1
 48
1.0
  6
BYLAYER
 10
92.3535083785841096
 20
1.5871091709633158
 30
0.0
 11
92.5129353285841205
 21
1.8632447484590355
 31
0.0
  0
LINE
  5
2A6
100
AcDbEntity
100
AcDbLine
  8
0
 62
3
420
65280
370
-1
 48
1.0
  6
BYLAYER
 10
91.1951121766435335
 20
4.1900000000000013
 30
0.0
 11
91.1951121766435335
 21
4.2500000000000009
 31
0.0
  0
LINE
  5
2A7
100
AcDbEntity
100
AcDbLine
  8
0
 62
3
420
65280
370
-1
 48
1.0
  6
BYLAYER
 10
91.1951121766435335
 20
4.2500000000000009
 30
0.0
 11
91.7951121766435278
 21
4.2500000000000009
 31
0.0
  0
LINE
  5
2A8
100
AcDbEntity
100
AcDbLine
  8
0
 62
3
420
65280
370
-1
 48
1.0
  6
BYLAYER
 10
91.7951121766435278
 20
4.2500000000000009
 30
0.0
 11
91.7951121766435278
 21
4.1900000000000013
 31
0.0
  0
LINE
  5
2A9
100
AcDbEntity
100
AcDbLine
  8
0
 62
3
420
65280
370
-1
 48
1.0
  6
BYLAYER
 10
91.1951121766435335
 20
4.1900000000000013
 30
0.0
 11
91.7951121766435278
 21
4.1900000000000013
 31
0.0
  0
LINE
  5
2AA
100
AcDbEntity
100
AcDbLine
  8
0
 62
3
420
65280
370
-1
 48
1.0
  6
BYLAYER
 10
91.095112176643525
 20
4.0999999999999996
 30
0.0
 11
91.8951121766435222
 21
4.0999999999999996
 31
0.0
  0
LINE
  5
2AB
100
AcDbEntity
100
AcDbLine
  8
0
 62
3
420
65280
370
-1
 48
1.0
  6
BYLAYER
 10
91.8951121766435222
 20
4.0999999999999996
 30
0.0
 11
92.0828335270987139
 21
4.2999999999999998
 31
0.0
  0
LINE
  5
2AC
100
AcDbEntity
100
AcDbLine
  8
0
 62
3
420
65280
370
-1
 48
1.0
  6
BYLAYER
 10
91.095112176643525
 20
4.0999999999999996
 30
0.0
 11
90.9073908261883048
 21
4.2999999999999998
 31
0.0
  0
LINE
  5
2AD
100
AcDbEntity
100
AcDbLine
  8
0
 62
3
420
65280
370
-1
 48
1.0
  6
BYLAYER
 10
91.7778145210165235
 20
5.87539793522284
 30
0.0
 11
91.7437962838688463
 21
5.8413796980751691
 31
0.0
  0
LINE
  5
2AE
100
AcDbEntity
100
AcDbLine
  8
0
 62
3
420
65280
370
-1
 48
1.0
  6
BYLAYER
 10
91.2109240394954952
 20
5.8753979352230692
 30
0.0
 11
91.2449422766431724
 21
5.8413796980753983
 31
0.0
  0
DIMENSION
  5
2AF
100
AcDbEntity
  8
0
 62
30
420
16744192
370
-1
 48
1.0
  6
BYLAYER
100
AcDbDimension
 10
85.6048905300000058
 20
6.5575765438506144
 30
0.0
 11
85.8548905300000058
 21
6.6513265438506144
 31
0.0
 70
0
 71
8
 72
2
 41
1.0
 42
0.0
  1

  3
Standard
100
AcDbAlignedDimension
 13
85.6048905300000058
 23
5.9999999999999112
 33
0.0
 14
86.1048905300000058
 24
5.9999999999999156
 34
0.0
 50
0.0
100
AcDbRotatedDimension
1001
ACAD
1000
DSTYLE
1002
{
1070
144
1040
0.5
1070
40
1040
1.0
1002
}
  0
DIMENSION
  5
2B0
100
AcDbEntity
  8
0
 62
30
420
16744192
370
-1
 48
1.0
  6
BYLAYER
100
AcDbDimension
 10
94.1774452649999887
 20
9.6575765438505474
 30
0.0
 11
94.4274452649999887
 21
9.7513265438505474
 31
0.0
 70
0
 71
8
 72
2
 41
1.0
 42
0.0
  1

  3
Standard
100
AcDbAlignedDimension
 13
94.1774452649999887
 23
9.0999999999999996
 33
0.0
 14
94.6774452649999887
 24
9.0999999999999996
 34
0.0
 50
0.0
100
AcDbRotatedDimension
1001
ACAD
1000
DSTYLE
1002
{
1070
144
1040
0.5
1070
40
1040
1.0
1002
}
  0
DIMENSION
  5
2B1
100
AcDbEntity
  8
0
 62
30
420
16744192
370
-1
 48
1.0
  6
BYLAYER
100
AcDbDimension
 10
85.10489053000002
 20
7.0183855755132205
 30
0.0
 11
85.5091960855556295
 21
7.1121355755132205
 31
0.0
 70
0
 71
8
 72
2
 41
1.0
 42
0.0
  1

  3
Standard
100
AcDbAlignedDimension
 13
85.10489053000002
 23
6.5500000000001446
 33
0.0
 14
85.2348905300000723
 24
6.5499999999998622
 34
0.0
 50
0.0
100
AcDbRotatedDimension
1001
ACAD
1000
DSTYLE
1002
{
1070
144
1040
0.5
1070
40
1040
1.0
1002
}
  0
DIMENSION
  5
2B2
100
AcDbEntity
  8
0
 62
30
420
16744192
370
-1
 48
1.0
  6
BYLAYER
100
AcDbDimension
 10
93.6774452650000029
 20
10.1183855755130843
 30
0.0
 11
94.0817508205556123
 21
10.2121355755130843
 31
0.0
 70
0
 71
8
 72
2
 41
1.0
 42
0.0
  1

  3
Standard
100
AcDbAlignedDimension
 13
93.6774452650000029
 23
9.6499999999999915
 33
0.0
 14
93.8074452650000552
 24
9.6499999999999915
 34
0.0
 50
0.0
100
AcDbRotatedDimension
1001
ACAD
1000
DSTYLE
1002
{
1070
144
1040
0.5
1070
40
1040
1.0
1002
}
  0
LINE
  5
2B3
100
AcDbEntity
100
AcDbLine
  8
0
 62
7
420
0
370
-1
 48
1.0
  6
BYLAYER
 10
95.3461214999311153
 20
8.8553427962596327
 30
0.0
 11
95.3461215022796154
 21
8.81982879625963
 31
0.0
  0
LINE
  5
2B4
100
AcDbEntity
100
AcDbLine
  8
0
 62
7
420
0
370
-1
 48
1.0
  6
BYLAYER
 10
95.4538785022796219
 20
8.81982879625963
 30
0.0
 11
95.4538784999311218
 21
8.8553427962596327
 31
0.0
  0
LINE
  5
2B5
100
AcDbEntity
100
AcDbLine
  8
0
 62
7
420
0
370
-1
 48
1.0
  6
BYLAYER
 10
95.5232500046281103
 20
7.637688019291506
 30
0.0
 11
95.5232500046281103
 21
7.6001580165479528
 31
0.0
  0
LINE
  5
2B6
100
AcDbEntity
100
AcDbLine
  8
0
 62
7
420
0
370
-1
 48
1.0
  6
BYLAYER
 10
95.5232500046281103
 20
8.6452916085188019
 30
0.0
 11
95.5232500046281103
 21
8.6077616057752486
 31
0.0
  0
LINE
  5
2B7
100
AcDbEntity
100
AcDbLine
  8
0
 62
7
420
0
370
-1
 48
1.0
  6
BYLAYER
 10
95.2767500046281128
 20
7.637688019291506
 30
0.0
 11
95.2767500046281128
 21
7.6001580130653554
 31
0.0
  0
LINE
  5
2B8
100
AcDbEntity
100
AcDbLine
  8
0
 62
7
420
0
370
-1
 48
1.0
  6
BYLAYER
 10
95.2767500046281128
 20
8.6452916085188019
 30
0.0
 11
95.2767500046281128
 21
8.6077616022926513
 31
0.0
  0
LINE
  5
2B9
100
AcDbEntity
100
AcDbLine
  8
0
 62
7
420
0
370
-1
 48
1.0
  6
BYLAYER
 10
95.5232500046281103
 20
8.6452916085188019
 30
0.0
 11
95.4538785055726464
 21
8.6452916085188019
 31
0.0
  0
LINE
  5
2BA
100
AcDbEntity
100
AcDbLine
  8
0
 62
7
420
0
370
-1
 48
1.0
  6
BYLAYER
 10
95.5232500046281103
 20
7.637688019291506
 30
0.0
 11
95.2767500046281128
 21
7.637688019291506
 31
0.0
  0
LINE
  5
2BB
100
AcDbEntity
100
AcDbLine
  8
0
 62
7
420
0
370
-1
 48
1.0
  6
BYLAYER
 10
95.3461215055726399
 20
8.6452916085188019
 30
0.0
 11
95.2767500046281128
 21
8.6452916085188019
 31
0.0
  0
LINE
  5
2BC
100
AcDbEntity
100
AcDbLine
  8
0
 62
7
420
0
370
-1
 48
1.0
  6
BYLAYER
 10
95.4538785055726464
 20
8.6452916085188019
 30
0.0
 11
95.453878506976622
 21
8.7283287962596301
 31
0.0
  0
LINE
  5
2BD
100
AcDbEntity
100
AcDbLine
  8
0
 62
7
420
0
370
-1
 48
1.0
  6
BYLAYER
 10
95.3461215069766155
 20
8.7283287962596301
 30
0.0
 11
95.3461215055726399
 21
8.6452916085188019
 31
0.0
  0
ARC
  5
2BE
100
AcDbEntity
  8
0
 62
7
420
0
370
-1
 48
1.0
  6
BYLAYER
100
AcDbCircle
 10
95.3999999999999915
 20
8.0923964107727038
 30
0.0
 40
0.5078225749612139
100
AcDbArc
 50
284.0571008336813748
 51
255.9429002756797047
  0
ARC
  5
2BF
100
AcDbEntity
  8
0
 62
7
420
0
370
-1
 48
1.0
  6
BYLAYER
100
AcDbCircle
 10
95.3999999999999915
 20
9.0999999999999996
 30
0.0
 40
0.5078225749612139
100
AcDbArc
 50
284.0571008336813748
 51
255.9429002756797047
  0
CIRCLE
  5
2C0
100
AcDbEntity
100
AcDbCircle
  8
0
 62
3
420
65280
370
-1
 48
1.0
  6
BYLAYER
 10
95.3999999999999915
 20
8.0923964107727038
 30
0.0
 40
0.2500000000000015
  0
DIMENSION
  5
2C1
100
AcDbEntity
  8
0
 62
30
420
16744192
370
-1
 48
1.0
  6
BYLAYER
100
AcDbDimension
 10
95.6499999999999915
 20
9.7624999999998998
 30
0.0
 11
95.3999999999999915
 21
9.8562499999999176
 31
0.0
 70
1
 71
8
 72
2
 41
1.0
 42
0.0
  1

  3
Standard
100
AcDbAlignedDimension
 13
95.6499999999999915
 23
9.0999999999999339
 33
0.0
 14
95.1499999999999915
 24
9.0999999999999694
 34
0.0
1001
ACAD
1000
DSTYLE
1002
{
1070
144
1040
1.0
1070
40
1040
1.0
1002
}
  0
DIMENSION
  5
2C2
100
AcDbEntity
  8
0
 62
30
420
16744192
370
-1
 48
1.0
  6
BYLAYER
100
AcDbDimension
 10
85.6048905300000058
 20
5.5000000000001554
 30
0.0
 11
85.4274452650000029
 21
5.4999999999999956
 31
0.0
 70
129
 71
8
 72
2
 41
1.0
 42
0.0
  1

  3
Standard
100
AcDbAlignedDimension
 13
85.6048905300000058
 23
5.9999999999999112
 33
0.0
 14
85.4198905300000177
 24
5.9999999999997442
 34
0.0
1001
ACAD
1000
DSTYLE
1002
{
1070
144
1040
1.0
1070
40
1040
1.0
1002
}
  0
DIMENSION
  5
2C3
100
AcDbEntity
  8
0
 62
30
420
16744192
370
-1
 48
1.0
  6
BYLAYER
100
AcDbDimension
 10
94.1774452649999887
 20
8.5999999999999996
 30
0.0
 11
93.9999999999999858
 21
8.5999999999999996
 31
0.0
 70
129
 71
8
 72
2
 41
1.0
 42
0.0
  1

  3
Standard
100
AcDbAlignedDimension
 13
94.1774452649999887
 23
9.0999999999999996
 33
0.0
 14
93.9924452650000006
 24
9.0999999999999996
 34
0.0
1001
ACAD
1000
DSTYLE
1002
{
1070
144
1040
1.0
1070
40
1040
1.0
1002
}
  0
DIMENSION
  5
2C4
100
AcDbEntity
  8
0
 62
30
420
16744192
370
-1
 48
1.0
  6
BYLAYER
100
AcDbDimension
 10
81.2933398080387519
 20
6.627812995920273
 30
0.0
 11
82.9274452650000171
 21
6.7215629959201628
 31
0.0
 70
1
 71
8
 72
2
 41
1.0
 42
0.0
  1

  3
Standard
100
AcDbAlignedDimension
 13
81.2933398080387519
 23
6.3500000000000538
 33
0.0
 14
84.5615507219612681
 24
6.3499999999998344
 34
0.0
1001
ACAD
1000
DSTYLE
1002
{
1070
144
1040
1.0
1070
40
1040
1.0
1002
}
  0
DIMENSION
  5
2C5
100
AcDbEntity
  8
0
 62
30
420
16744192
370
-1
 48
1.0
  6
BYLAYER
100
AcDbDimension
 10
89.8658945430387348
 20
9.7278129959202584
 30
0.0
 11
91.5
 21
9.8215629959202655
 31
0.0
 70
1
 71
8
 72
2
 41
1.0
 42
0.0
  1

  3
Standard
100
AcDbAlignedDimension
 13
89.8658945430387348
 23
9.4499999999999744
 33
0.0
 14
93.134105456961251
 24
9.4499999999999886
 34
0.0
1001
ACAD
1000
DSTYLE
1002
{
1070
144
1040
1.0
1070
40
1040
1.0
1002
}
  0
DIMENSION
  5
2C6
100
AcDbEntity
  8
0
 62
256
370
-1
 48
1.0
  6
BYLAYER
100
AcDbDimension
 10
93.4138370148651518
 20
5.628249999999988
 30
0.0
 11
93.3200870148651518
 21
4.8641249999999943
 31
0.0
 70
0
 71
8
 72
2
 41
1.0
 42
0.0
  1

  3
Standard
100
AcDbAlignedDimension
 13
92.5522384532868045
 23
5.628249999999988
 33
0.0
 14
91.8951121766435222
 24
4.0999999999999996
 34
0.0
 50
90.0
100
AcDbRotatedDimension
1001
ACAD
1000
DSTYLE
1002
{
1070
144
1040
1.0
1070
40
1040
1.0
1002
}
  0
CIRCLE
  5
2C7
100
AcDbEntity
100
AcDbCircle
  8
0
 62
256
370
-1
 48
1.0
  6
BYLAYER
 10
80.0
 20
5.9999999999999991
 30
0.0
 40
0.1875
  0
CIRCLE
  5
2C8
100
AcDbEntity
100
AcDbCircle
  8
0
 62
256
370
-1
 48
1.0
  6
BYLAYER
 10
80.0
 20
5.3000000000000194
 30
0.0
 40
0.1875
  0
CIRCLE
  5
2C9
100
AcDbEntity
100
AcDbCircle
  8
0
 62
256
370
-1
 48
1.0
  6
BYLAYER
 10
80.0
 20
4.6000000000000201
 30
0.0
 40
0.1875
  0
CIRCLE
  5
2CA
100
AcDbEntity
100
AcDbCircle
  8
0
 62
3
420
65280
370
-1
 48
1.0
  6
BYLAYER
 10
85.8548905300000058
 20
0.3000000000000256
 30
0.0
 40
0.1875
  0
CIRCLE
  5
2CB
100
AcDbEntity
100
AcDbCircle
  8
0
 62
3
420
65280
370
-1
 48
1.0
  6
BYLAYER
 10
80.0
 20
0.300000000000026
 30
0.0
 40
0.1875
  0
CIRCLE
  5
2CC
100
AcDbEntity
100
AcDbCircle
  8
0
 62
256
370
-1
 48
1.0
  6
BYLAYER
 10
85.8548905300000058
 20
4.6000000000000201
 30
0.0
 40
0.1875
  0
CIRCLE
  5
2CD
100
AcDbEntity
100
AcDbCircle
  8
0
 62
3
420
65280
370
-1
 48
1.0
  6
BYLAYER
 10
85.8548905300000058
 20
1.000000000000028
 30
0.0
 40
0.1875
  0
CIRCLE
  5
2CE
100
AcDbEntity
100
AcDbCircle
  8
0
 62
3
420
65280
370
-1
 48
1.0
  6
BYLAYER
 10
80.0
 20
1.0000000000000289
 30
0.0
 40
0.1875
  0
CIRCLE
  5
2CF
100
AcDbEntity
100
AcDbCircle
  8
0
 62
256
370
-1
 48
1.0
  6
BYLAYER
 10
85.8548905300000058
 20
5.3000000000000194
 30
0.0
 40
0.1875
  0
CIRCLE
  5
2D0
100
AcDbEntity
100
AcDbCircle
  8
0
 62
3
420
65280
370
-1
 48
1.0
  6
BYLAYER
 10
85.8548905300000058
 20
1.7000000000000031
 30
0.0
 40
0.1875
  0
CIRCLE
  5
2D1
100
AcDbEntity
100
AcDbCircle
  8
0
 62
3
420
65280
370
-1
 48
1.0
  6
BYLAYER
 10
80.0
 20
1.7000000000000028
 30
0.0
 40
0.1875
  0
CIRCLE
  5
2D2
100
AcDbEntity
100
AcDbCircle
  8
0
 62
256
370
-1
 48
1.0
  6
BYLAYER
 10
85.8548905300000058
 20
5.9999999999999991
 30
0.0
 40
0.1875
  0
LINE
  5
2D3
100
AcDbEntity
100
AcDbLine
  8
0
 62
256
370
-1
 48
1.0
  6
BYLAYER
 10
83.7774452649999972
 20
1.3500000000000085
 30
0.0
 11
85.8548905300000058
 21
1.3500000000000079
 31
0.0
  0
LINE
  5
2D4
100
AcDbEntity
100
AcDbLine
  8
0
 62
256
370
-1
 48
1.0
  6
BYLAYER
 10
82.0774452650000086
 20
1.3500000000000085
 30
0.0
 11
80.0
 21
1.3500000000000087
 31
0.0
  0
LINE
  5
2D5
100
AcDbEntity
100
AcDbLine
  8
0
 62
256
370
-1
 48
1.0
  6
BYLAYER
 10
83.7774452649999972
 20
0.6500000000000058
 30
0.0
 11
85.8548906710626341
 21
0.6500000000000057
 31
0.0
  0
LINE
  5
2D6
100
AcDbEntity
100
AcDbLine
  8
0
 62
256
370
-1
 48
1.0
  6
BYLAYER
 10
82.0774452650000228
 20
0.6500000000000058
 30
0.0
 11
79.9999998589373718
 21
0.6500000000000062
 31
0.0
  0
LINE
  5
2D7
100
AcDbEntity
100
AcDbLine
  8
0
 62
256
370
-1
 48
1.0
  6
BYLAYER
 10
83.7774452649999972
 20
-0.0499999999999692
 30
0.0
 11
85.8548905300000058
 21
-0.0499999999999847
 31
0.0
  0
LINE
  5
2D8
100
AcDbEntity
100
AcDbLine
  8
0
 62
256
370
-1
 48
1.0
  6
BYLAYER
 10
82.0774452650000228
 20
-0.0499999999999692
 30
0.0
 11
79.9999999999999858
 21
-0.0499999999999832
 31
0.0
  0
LINE
  5
2D9
100
AcDbEntity
100
AcDbLine
  8
0
 62
256
370
-1
 48
1.0
  6
BYLAYER
 10
83.7774452649999972
 20
2.0499999999999829
 30
0.0
 11
84.3735667649999925
 21
2.0499999999999829
 31
0.0
  0
LINE
  5
2DA
100
AcDbEntity
100
AcDbLine
  8
0
 62
256
370
-1
 48
1.0
  6
BYLAYER
 10
82.0774452650000086
 20
2.0499999999999829
 30
0.0
 11
82.0774452650000086
 21
-0.0499999999999687
 31
0.0
  0
LINE
  5
2DB
100
AcDbEntity
100
AcDbLine
  8
0
 62
256
370
-1
 48
1.0
  6
BYLAYER
 10
83.7774452649999972
 20
2.0499999999999829
 30
0.0
 11
83.7774452649999972
 21
-0.0499999999999687
 31
0.0
  0
LINE
  5
2DC
100
AcDbEntity
100
AcDbLine
  8
0
 62
256
370
-1
 48
1.0
  6
BYLAYER
 10
82.0774452650000086
 20
2.0499999999999829
 30
0.0
 11
81.4813237650000133
 21
2.0499999551083334
 31
0.0
  0
DIMENSION
  5
2DD
100
AcDbEntity
  8
0
 62
256
370
-1
 48
1.0
  6
BYLAYER
100
AcDbDimension
 10
84.3041952650000184
 20
5.2999999999999998
 30
0.0
 11
84.8805563761111301
 21
5.3937499999999998
 31
0.0
 70
0
 71
8
 72
2
 41
1.0
 42
0.0
  1

  3
Standard
100
AcDbAlignedDimension
 13
84.3041952650000184
 23
5.4584999999999999
 33
0.0
 14
84.5506952650000301
 24
5.4584999999999999
 34
0.0
 50
0.0
100
AcDbRotatedDimension
1001
ACAD
1000
DSTYLE
1002
{
1070
144
1040
1.0
1070
40
1040
1.0
1002
}
  0
DIMENSION
  5
2DE
100
AcDbEntity
  8
0
 62
256
370
-1
 48
1.0
  6
BYLAYER
100
AcDbDimension
 10
84.3041952650000184
 20
4.5999999999999996
 30
0.0
 11
84.8805563761111301
 21
4.6937499999999996
 31
0.0
 70
0
 71
8
 72
2
 41
1.0
 42
0.0
  1

  3
Standard
100
AcDbAlignedDimension
 13
84.3041952650000184
 23
4.7585000000000006
 33
0.0
 14
84.5506952650000301
 24
4.7585000000000006
 34
0.0
 50
0.0
100
AcDbRotatedDimension
1001
ACAD
1000
DSTYLE
1002
{
1070
144
1040
1.0
1070
40
1040
1.0
1002
}
  0
DIMENSION
  5
2DF
100
AcDbEntity
  8
0
 62
256
370
-1
 48
1.0
  6
BYLAYER
100
AcDbDimension
 10
81.3041952650000326
 20
4.5
 30
0.0
 11
81.8805563761111159
 21
4.59375
 31
0.0
 70
0
 71
8
 72
2
 41
1.0
 42
0.0
  1

  3
Standard
100
AcDbAlignedDimension
 13
81.3041952650000326
 23
4.7585000000000006
 33
0.0
 14
81.5506952650000159
 24
4.7585000000000006
 34
0.0
 50
0.0
100
AcDbRotatedDimension
1001
ACAD
1000
DSTYLE
1002
{
1070
144
1040
1.0
1070
40
1040
1.0
1002
}
  0
DIMENSION
  5
2E0
100
AcDbEntity
  8
0
 62
256
370
-1
 48
1.0
  6
BYLAYER
100
AcDbDimension
 10
81.3041952649999899
 20
5.1999999999999993
 30
0.0
 11
81.8805563761111017
 21
5.2937499999999993
 31
0.0
 70
0
 71
8
 72
2
 41
1.0
 42
0.0
  1

  3
Standard
100
AcDbAlignedDimension
 13
81.3041952649999899
 23
5.458499977554184
 33
0.0
 14
81.5506952649999874
 24
5.458499977554184
 34
0.0
 50
0.0
100
AcDbRotatedDimension
1001
ACAD
1000
DSTYLE
1002
{
1070
144
1040
1.0
1070
40
1040
1.0
1002
}
  0
DIMENSION
  5
2E1
100
AcDbEntity
  8
0
 62
256
370
-1
 48
1.0
  6
BYLAYER
100
AcDbDimension
 10
80.752318839289984
 20
5.458499977554184
 30
0.0
 11
80.658568839289984
 21
5.8590277553319616
 31
0.0
 70
0
 71
8
 72
2
 41
1.0
 42
0.0
  1

  3
Standard
100
AcDbAlignedDimension
 13
81.3041952649999899
 23
5.458499977554184
 33
0.0
 14
81.3041952649999899
 24
5.5499999775541839
 34
0.0
 50
90.0
100
AcDbRotatedDimension
1001
ACAD
1000
DSTYLE
1002
{
1070
144
1040
1.0
1070
40
1040
1.0
1002
}
  0
DIMENSION
  5
2E2
100
AcDbEntity
  8
0
 62
256
370
-1
 48
1.0
  6
BYLAYER
100
AcDbDimension
 10
84.3041952650000184
 20
5.826230152425012
 30
0.0
 11
84.8805563761111301
 21
5.919980152425012
 31
0.0
 70
0
 71
8
 72
2
 41
1.0
 42
0.0
  1

  3
Standard
100
AcDbAlignedDimension
 13
84.3041952650000184
 23
6.1585000000000001
 33
0.0
 14
84.5506952650000159
 24
6.1585000000000019
 34
0.0
 50
0.0
100
AcDbRotatedDimension
1001
ACAD
1000
DSTYLE
1002
{
1070
144
1040
1.0
1070
40
1040
1.0
1002
}
  0
DIMENSION
  5
2E3
100
AcDbEntity
  8
0
 62
256
370
-1
 48
1.0
  6
BYLAYER
100
AcDbDimension
 10
83.9538033597648763
 20
6.1585000000000001
 30
0.0
 11
83.8600533597648763
 21
6.5590277777777786
 31
0.0
 70
0
 71
8
 72
2
 41
1.0
 42
0.0
  1

  3
Standard
100
AcDbAlignedDimension
 13
84.3041952650000184
 23
6.1585000000000001
 33
0.0
 14
84.3041952650000184
 24
6.2500000000000009
 34
0.0
 50
90.0
100
AcDbRotatedDimension
1001
ACAD
1000
DSTYLE
1002
{
1070
144
1040
1.0
1070
40
1040
1.0
1002
}
  0
DIMENSION
  5
2E4
100
AcDbEntity
  8
0
 62
256
370
-1
 48
1.0
  6
BYLAYER
100
AcDbDimension
 10
89.6999999999999886
 20
9.2691822603347198
 30
0.0
 11
89.6062499999999886
 21
9.6729166657784589
 31
0.0
 70
0
 71
8
 72
2
 41
1.0
 42
0.0
  1

  3
Standard
100
AcDbAlignedDimension
 13
89.8922430000000077
 23
9.2691822603347198
 33
0.0
 14
89.8922429999999792
 24
9.3499999991117928
 34
0.0
 50
90.0
100
AcDbRotatedDimension
1001
ACAD
1000
DSTYLE
1002
{
1070
144
1040
1.0
1070
40
1040
1.0
1002
}
  0
DIMENSION
  5
2E5
100
AcDbEntity
  8
0
 62
256
370
-1
 48
1.0
  6
BYLAYER
100
AcDbDimension
 10
82.0774452650000086
 20
2.9999999999999996
 30
0.0
 11
82.9274452650000029
 21
3.0937499999999996
 31
0.0
 70
0
 71
8
 72
2
 41
1.0
 42
0.0
  1

  3
Standard
100
AcDbAlignedDimension
 13
82.0774452650000086
 23
2.0499999999999829
 33
0.0
 14
83.7774452649999972
 24
2.0499999999999829
 34
0.0
 50
0.0
100
AcDbRotatedDimension
1001
ACAD
1000
DSTYLE
1002
{
1070
144
1040
1.0
1070
40
1040
1.0
1002
}
  0
LINE
  5
2E6
100
AcDbEntity
100
AcDbLine
  8
0
 62
256
370
-1
 48
1.0
  6
BYLAYER
 10
99.9274491438269337
 20
1.3499999999999828
 30
0.0
 11
99.9274491438269337
 21
2.2999999999999829
 31
0.0
  0
LINE
  5
2E7
100
AcDbEntity
100
AcDbLine
  8
0
 62
256
370
-1
 48
1.0
  6
BYLAYER
 10
101.3735667649999925
 20
1.3499999999999908
 30
0.0
 11
101.3735667649999925
 21
2.2999999999999909
 31
0.0
  0
LINE
  5
2E8
100
AcDbEntity
100
AcDbLine
  8
0
 62
256
370
-1
 48
1.0
  6
BYLAYER
 10
98.4813237650000133
 20
1.3499999999999746
 30
0.0
 11
98.4813237650000133
 21
2.2999999999999745
 31
0.0
  0
LINE
  5
2E9
100
AcDbEntity
100
AcDbLine
  8
0
 62
3
420
65280
370
-1
 48
1.0
  6
BYLAYER
 10
106.8079999999999927
 20
1.3499999999999803
 30
0.0
 11
107.1919999999999931
 21
1.3499999999999803
 31
0.0
  0
LINE
  5
2EA
100
AcDbEntity
100
AcDbLine
  8
0
 62
3
420
65280
370
-1
 48
1.0
  6
BYLAYER
 10
104.8079999999999785
 20
1.4999999999999998
 30
0.0
 11
105.1919999999999789
 21
1.4999999999999998
 31
0.0
  0
LINE
  5
2EB
100
AcDbEntity
100
AcDbLine
  8
0
 62
1
420
16711680
370
-1
 48
1.0
  6
BYLAYER
 10
106.8079999999999927
 20
0.6500000000000121
 30
0.0
 11
107.1919999999999931
 21
0.6500000000000121
 31
0.0
  0
LINE
  5
2EC
100
AcDbEntity
100
AcDbLine
  8
0
 62
1
420
16711680
370
-1
 48
1.0
  6
BYLAYER
 10
104.8079999999999785
 20
0.8000000000000316
 30
0.0
 11
105.1919999999999789
 21
0.8000000000000316
 31
0.0
  0
LINE
  5
2ED
100
AcDbEntity
100
AcDbLine
  8
0
 62
3
420
65280
370
-1
 48
1.0
  6
BYLAYER
 10
106.7079999999999842
 20
0.4500000000000253
 30
0.0
 11
106.6079999999999899
 21
0.6232050807569156
 31
0.0
  0
LINE
  5
2EE
100
AcDbEntity
100
AcDbLine
  8
0
 62
3
420
65280
370
-1
 48
1.0
  6
BYLAYER
 10
107.2920000000000158
 20
0.4500000000000253
 30
0.0
 11
107.3920000000000101
 21
0.6232050807569158
 31
0.0
  0
LINE
  5
2EF
100
AcDbEntity
100
AcDbLine
  8
0
 62
3
420
65280
370
-1
 48
1.0
  6
BYLAYER
 10
105.2920000000000016
 20
0.9000000000000824
 30
0.0
 11
105.3919999999999959
 21
1.0732050807569729
 31
0.0
  0
LINE
  5
2F0
100
AcDbEntity
100
AcDbLine
  8
0
 62
3
420
65280
370
-1
 48
1.0
  6
BYLAYER
 10
104.70799999999997
 20
0.9000000000000824
 30
0.0
 11
104.6079999999999757
 21
1.0732050807569729
 31
0.0
  0
LINE
  5
2F1
100
AcDbEntity
100
AcDbLine
  8
0
 62
3
420
65280
370
-1
 48
1.0
  6
BYLAYER
 10
106.6079999999999899
 20
0.6232050807569156
 30
0.0
 11
106.5079999999999814
 21
0.4500000000000253
 31
0.0
  0
LINE
  5
2F2
100
AcDbEntity
100
AcDbLine
  8
0
 62
3
420
65280
370
-1
 48
1.0
  6
BYLAYER
 10
107.3920000000000101
 20
0.6232050807569158
 30
0.0
 11
107.4920000000000186
 21
0.4500000000000254
 31
0.0
  0
LINE
  5
2F3
100
AcDbEntity
100
AcDbLine
  8
0
 62
3
420
65280
370
-1
 48
1.0
  6
BYLAYER
 10
105.3919999999999959
 20
1.0732050807569729
 30
0.0
 11
105.4920000000000044
 21
0.9000000000000826
 31
0.0
  0
LINE
  5
2F4
100
AcDbEntity
100
AcDbLine
  8
0
 62
3
420
65280
370
-1
 48
1.0
  6
BYLAYER
 10
104.6079999999999757
 20
1.0732050807569729
 30
0.0
 11
104.5079999999999671
 21
0.9000000000000824
 31
0.0
  0
LINE
  5
2F5
100
AcDbEntity
100
AcDbLine
  8
0
 62
3
420
65280
370
-1
 48
1.0
  6
BYLAYER
 10
107.342000000000013
 20
0.4500000000000254
 30
0.0
 11
107.2919999999999874
 21
0.4500000000000254
 31
0.0
  0
LINE
  5
2F6
100
AcDbEntity
100
AcDbLine
  8
0
 62
3
420
65280
370
-1
 48
1.0
  6
BYLAYER
 10
107.4920000000000186
 20
0.4500000000000254
 30
0.0
 11
107.4419999999999931
 21
0.4500000000000255
 31
0.0
  0
LINE
  5
2F7
100
AcDbEntity
100
AcDbLine
  8
0
 62
3
420
65280
370
-1
 48
1.0
  6
BYLAYER
 10
106.657999999999987
 20
0.4500000000000253
 30
0.0
 11
106.7080000000000126
 21
0.4500000000000253
 31
0.0
  0
LINE
  5
2F8
100
AcDbEntity
100
AcDbLine
  8
0
 62
3
420
65280
370
-1
 48
1.0
  6
BYLAYER
 10
106.5079999999999814
 20
0.4500000000000253
 30
0.0
 11
106.5580000000000069
 21
0.4500000000000254
 31
0.0
  0
LINE
  5
2F9
100
AcDbEntity
100
AcDbLine
  8
0
 62
3
420
65280
370
-1
 48
1.0
  6
BYLAYER
 10
105.3419999999999987
 20
0.9000000000000826
 30
0.0
 11
105.2919999999999732
 21
0.9000000000000826
 31
0.0
  0
LINE
  5
2FA
100
AcDbEntity
100
AcDbLine
  8
0
 62
3
420
65280
370
-1
 48
1.0
  6
BYLAYER
 10
105.4920000000000044
 20
0.9000000000000826
 30
0.0
 11
105.4419999999999789
 21
0.9000000000000826
 31
0.0
  0
LINE
  5
2FB
100
AcDbEntity
100
AcDbLine
  8
0
 62
3
420
65280
370
-1
 48
1.0
  6
BYLAYER
 10
104.6579999999999728
 20
0.9000000000000824
 30
0.0
 11
104.7079999999999984
 21
0.9000000000000824
 31
0.0
  0
LINE
  5
2FC
100
AcDbEntity
100
AcDbLine
  8
0
 62
3
420
65280
370
-1
 48
1.0
  6
BYLAYER
 10
104.5079999999999671
 20
0.9000000000000824
 30
0.0
 11
104.5579999999999927
 21
0.9000000000000826
 31
0.0
  0
LINE
  5
2FD
100
AcDbEntity
100
AcDbLine
  8
0
 62
3
420
65280
370
-1
 48
1.0
  6
BYLAYER
 10
106.6580000000000013
 20
0.3499999999999743
 30
0.0
 11
106.8079999999999785
 21
0.3499999999999743
 31
0.0
  0
LINE
  5
2FE
100
AcDbEntity
100
AcDbLine
  8
0
 62
3
420
65280
370
-1
 48
1.0
  6
BYLAYER
 10
107.5919999999999703
 20
0.3499999999999747
 30
0.0
 11
107.4419999999999931
 21
0.3499999999999747
 31
0.0
  0
LINE
  5
2FF
100
AcDbEntity
100
AcDbLine
  8
0
 62
3
420
65280
370
-1
 48
1.0
  6
BYLAYER
 10
107.3419999999999987
 20
0.3499999999999744
 30
0.0
 11
107.1920000000000215
 21
0.3499999999999744
 31
0.0
  0
LINE
  5
300
100
AcDbEntity
100
AcDbLine
  8
0
 62
3
420
65280
370
-1
 48
1.0
  6
BYLAYER
 10
106.4080000000000297
 20
0.3499999999999744
 30
0.0
 11
106.5580000000000069
 21
0.3499999999999744
 31
0.0
  0
LINE
  5
301
100
AcDbEntity
100
AcDbLine
  8
0
 62
3
420
65280
370
-1
 48
1.0
  6
BYLAYER
 10
105.5919999999999561
 20
0.8000000000000318
 30
0.0
 11
105.4419999999999789
 21
0.8000000000000318
 31
0.0
  0
LINE
  5
302
100
AcDbEntity
100
AcDbLine
  8
0
 62
3
420
65280
370
-1
 48
1.0
  6
BYLAYER
 10
105.3419999999999845
 20
0.8000000000000316
 30
0.0
 11
105.1920000000000073
 21
0.8000000000000316
 31
0.0
  0
LINE
  5
303
100
AcDbEntity
100
AcDbLine
  8
0
 62
3
420
65280
370
-1
 48
1.0
  6
BYLAYER
 10
104.4080000000000155
 20
0.8000000000000316
 30
0.0
 11
104.5579999999999927
 21
0.8000000000000316
 31
0.0
  0
LINE
  5
304
100
AcDbEntity
100
AcDbLine
  8
0
 62
3
420
65280
370
-1
 48
1.0
  6
BYLAYER
 10
104.657999999999987
 20
0.8000000000000314
 30
0.0
 11
104.8079999999999643
 21
0.8000000000000314
 31
0.0
  0
LINE
  5
305
100
AcDbEntity
100
AcDbLine
  8
0
 62
256
370
-1
 48
1.0
  6
BYLAYER
 10
107.5919999999999703
 20
0.1000000000000001
 30
0.0
 11
107.5919999999999703
 21
1.8080000000000296
 31
0.0
  0
LINE
  5
306
100
AcDbEntity
100
AcDbLine
  8
0
 62
3
420
65280
370
-1
 48
1.0
  6
BYLAYER
 10
107.1920000000000215
 20
0.3499999999999744
 30
0.0
 11
107.1920000000000215
 21
1.3499999999999801
 31
0.0
  0
LINE
  5
307
100
AcDbEntity
100
AcDbLine
  8
0
 62
256
370
-1
 48
1.0
  6
BYLAYER
 10
106.4080000000000297
 20
0.3499999999999744
 30
0.0
 11
106.4080000000000297
 21
1.8080000000000296
 31
0.0
  0
LINE
  5
308
100
AcDbEntity
100
AcDbLine
  8
0
 62
3
420
65280
370
-1
 48
1.0
  6
BYLAYER
 10
106.8079999999999785
 20
0.3499999999999743
 30
0.0
 11
106.8079999999999785
 21
1.3499999999999801
 31
0.0
  0
LINE
  5
309
100
AcDbEntity
100
AcDbLine
  8
0
 62
256
370
-1
 48
1.0
  6
BYLAYER
 10
105.5919999999999561
 20
0.2500000000000195
 30
0.0
 11
105.5919999999999561
 21
1.958000000000049
 31
0.0
  0
LINE
  5
30A
100
AcDbEntity
100
AcDbLine
  8
0
 62
3
420
65280
370
-1
 48
1.0
  6
BYLAYER
 10
105.1920000000000073
 20
0.8000000000000316
 30
0.0
 11
105.1920000000000073
 21
1.8000000000000371
 31
0.0
  0
LINE
  5
30B
100
AcDbEntity
100
AcDbLine
  8
0
 62
256
370
-1
 48
1.0
  6
BYLAYER
 10
104.4080000000000155
 20
0.4999999999999939
 30
0.0
 11
104.4080000000000155
 21
1.958000000000049
 31
0.0
  0
LINE
  5
30C
100
AcDbEntity
100
AcDbLine
  8
0
 62
3
420
65280
370
-1
 48
1.0
  6
BYLAYER
 10
104.8079999999999643
 20
0.8000000000000314
 30
0.0
 11
104.8079999999999643
 21
1.8000000000000371
 31
0.0
  0
ARC
  5
30D
100
AcDbEntity
  8
0
 62
256
370
-1
 48
1.0
  6
BYLAYER
100
AcDbCircle
 10
107.0
 20
1.8080000000000296
 30
0.0
 40
0.5919999999999703
100
AcDbArc
 50
0.0
 51
180.0
  0
ARC
  5
30E
100
AcDbEntity
  8
0
 62
256
370
-1
 48
1.0
  6
BYLAYER
100
AcDbCircle
 10
104.9999999999999858
 20
1.958000000000049
 30
0.0
 40
0.5919999999999703
100
AcDbArc
 50
0.0
 51
180.0
  0
LINE
  5
30F
100
AcDbEntity
100
AcDbLine
  8
0
 62
256
370
-1
 48
1.0
  6
BYLAYER
 10
106.4080000000000297
 20
0.3499999999999744
 30
0.0
 11
106.4080000000000297
 21
0.1000000000000001
 31
0.0
  0
LINE
  5
310
100
AcDbEntity
100
AcDbLine
  8
0
 62
256
370
-1
 48
1.0
  6
BYLAYER
 10
104.4080000000000155
 20
0.4999999999999939
 30
0.0
 11
104.4080000000000155
 21
0.2500000000000195
 31
0.0
  0
LINE
  5
311
100
AcDbEntity
100
AcDbLine
  8
0
 62
256
370
-1
 48
1.0
  6
BYLAYER
 10
107.5919999999999703
 20
0.1000000000000001
 30
0.0
 11
107.25
 21
-0.3999999999999999
 31
0.0
  0
LINE
  5
312
100
AcDbEntity
100
AcDbLine
  8
0
 62
256
370
-1
 48
1.0
  6
BYLAYER
 10
106.4080000000000297
 20
0.1000000000000001
 30
0.0
 11
106.75
 21
-0.3999999999999999
 31
0.0
  0
LINE
  5
313
100
AcDbEntity
100
AcDbLine
  8
0
 62
256
370
-1
 48
1.0
  6
BYLAYER
 10
105.5919999999999561
 20
0.2500000000000195
 30
0.0
 11
105.2499999999999858
 21
-0.2499999999999805
 31
0.0
  0
LINE
  5
314
100
AcDbEntity
100
AcDbLine
  8
0
 62
256
370
-1
 48
1.0
  6
BYLAYER
 10
104.4080000000000155
 20
0.2500000000000195
 30
0.0
 11
104.7499999999999858
 21
-0.2499999999999805
 31
0.0
  0
LINE
  5
315
100
AcDbEntity
100
AcDbLine
  8
0
 62
256
370
-1
 48
1.0
  6
BYLAYER
 10
106.75
 20
-0.3999999999999999
 30
0.0
 11
107.25
 21
-0.3999999999999999
 31
0.0
  0
LINE
  5
316
100
AcDbEntity
100
AcDbLine
  8
0
 62
256
370
-1
 48
1.0
  6
BYLAYER
 10
104.7499999999999858
 20
-0.2499999999999805
 30
0.0
 11
105.2499999999999858
 21
-0.2499999999999805
 31
0.0
  0
LINE
  5
317
100
AcDbEntity
100
AcDbLine
  8
0
 62
1
420
16711680
370
-1
 48
1.0
  6
BYLAYER
 10
107.3000000000000114
 20
0.1359999999999806
 30
0.0
 11
107.3000000000000114
 21
0.2639999999999806
 31
0.0
  0
LINE
  5
318
100
AcDbEntity
100
AcDbLine
  8
0
 62
1
420
16711680
370
-1
 48
1.0
  6
BYLAYER
 10
106.7000000000000028
 20
0.1359999999999806
 30
0.0
 11
106.7000000000000028
 21
0.2639999999999806
 31
0.0
  0
LINE
  5
319
100
AcDbEntity
100
AcDbLine
  8
0
 62
256
370
-1
 48
1.0
  6
BYLAYER
 10
109.2999999999999972
 20
1.9359999999999999
 30
0.0
 11
109.2999999999999972
 21
2.0640000000000001
 31
0.0
  0
LINE
  5
31A
100
AcDbEntity
100
AcDbLine
  8
0
 62
256
370
-1
 48
1.0
  6
BYLAYER
 10
108.6999999999999886
 20
1.9359999999999999
 30
0.0
 11
108.6999999999999886
 21
2.0640000000000001
 31
0.0
  0
LINE
  5
31B
100
AcDbEntity
100
AcDbLine
  8
0
 62
1
420
16711680
370
-1
 48
1.0
  6
BYLAYER
 10
105.2999999999999972
 20
0.286
 30
0.0
 11
105.2999999999999972
 21
0.414
 31
0.0
  0
LINE
  5
31C
100
AcDbEntity
100
AcDbLine
  8
0
 62
1
420
16711680
370
-1
 48
1.0
  6
BYLAYER
 10
104.6999999999999886
 20
0.286
 30
0.0
 11
104.6999999999999886
 21
0.414
 31
0.0
  0
LINE
  5
31D
100
AcDbEntity
100
AcDbLine
  8
0
 62
1
420
16711680
370
-1
 48
1.0
  6
BYLAYER
 10
106.7000000000000028
 20
0.1359999999999806
 30
0.0
 11
107.3000000000000114
 21
0.1359999999999806
 31
0.0
  0
LINE
  5
31E
100
AcDbEntity
100
AcDbLine
  8
0
 62
256
370
-1
 48
1.0
  6
BYLAYER
 10
108.6999999999999886
 20
1.9359999999999999
 30
0.0
 11
109.2999999999999972
 21
1.9359999999999999
 31
0.0
  0
LINE
  5
31F
100
AcDbEntity
100
AcDbLine
  8
0
 62
1
420
16711680
370
-1
 48
1.0
  6
BYLAYER
 10
104.6999999999999886
 20
0.286
 30
0.0
 11
105.2999999999999972
 21
0.286
 31
0.0
  0
LINE
  5
320
100
AcDbEntity
100
AcDbLine
  8
0
 62
1
420
16711680
370
-1
 48
1.0
  6
BYLAYER
 10
107.3000000000000114
 20
0.2639999999999806
 30
0.0
 11
106.7000000000000028
 21
0.2639999999999806
 31
0.0
  0
LINE
  5
321
100
AcDbEntity
100
AcDbLine
  8
0
 62
256
370
-1
 48
1.0
  6
BYLAYER
 10
109.2999999999999972
 20
2.0640000000000001
 30
0.0
 11
108.6999999999999886
 21
2.0640000000000001
 31
0.0
  0
LINE
  5
322
100
AcDbEntity
100
AcDbLine
  8
0
 62
1
420
16711680
370
-1
 48
1.0
  6
BYLAYER
 10
105.2999999999999972
 20
0.414
 30
0.0
 11
104.6999999999999886
 21
0.414
 31
0.0
  0
LINE
  5
323
100
AcDbEntity
100
AcDbLine
  8
0
 62
3
420
65280
370
-1
 48
1.0
  6
BYLAYER
 10
107.4419999999999931
 20
0.4500000000000257
 30
0.0
 11
107.4419999999999931
 21
0.3499999999999746
 31
0.0
  0
LINE
  5
324
100
AcDbEntity
100
AcDbLine
  8
0
 62
3
420
65280
370
-1
 48
1.0
  6
BYLAYER
 10
107.3419999999999987
 20
0.4500000000000254
 30
0.0
 11
107.3419999999999987
 21
0.3499999999999744
 31
0.0
  0
LINE
  5
325
100
AcDbEntity
100
AcDbLine
  8
0
 62
3
420
65280
370
-1
 48
1.0
  6
BYLAYER
 10
106.6580000000000013
 20
0.4500000000000253
 30
0.0
 11
106.6580000000000013
 21
0.3499999999999743
 31
0.0
  0
LINE
  5
326
100
AcDbEntity
100
AcDbLine
  8
0
 62
3
420
65280
370
-1
 48
1.0
  6
BYLAYER
 10
106.5580000000000069
 20
0.4500000000000254
 30
0.0
 11
106.5580000000000069
 21
0.3499999999999744
 31
0.0
  0
LINE
  5
327
100
AcDbEntity
100
AcDbLine
  8
0
 62
3
420
65280
370
-1
 48
1.0
  6
BYLAYER
 10
105.4419999999999789
 20
0.9000000000000828
 30
0.0
 11
105.4419999999999789
 21
0.8000000000000318
 31
0.0
  0
LINE
  5
328
100
AcDbEntity
100
AcDbLine
  8
0
 62
3
420
65280
370
-1
 48
1.0
  6
BYLAYER
 10
105.3419999999999845
 20
0.9000000000000826
 30
0.0
 11
105.3419999999999845
 21
0.8000000000000316
 31
0.0
  0
LINE
  5
329
100
AcDbEntity
100
AcDbLine
  8
0
 62
3
420
65280
370
-1
 48
1.0
  6
BYLAYER
 10
104.657999999999987
 20
0.9000000000000824
 30
0.0
 11
104.657999999999987
 21
0.8000000000000314
 31
0.0
  0
LINE
  5
32A
100
AcDbEntity
100
AcDbLine
  8
0
 62
3
420
65280
370
-1
 48
1.0
  6
BYLAYER
 10
104.5579999999999927
 20
0.9000000000000826
 30
0.0
 11
104.5579999999999927
 21
0.8000000000000316
 31
0.0
  0
ENDSEC
  0
SECTION
  2
OBJECTS
  0
DICTIONARY
  5
C
100
AcDbDictionary
280
0
281
1
  3
ACAD_GROUP
350
D
  3
ACAD_LAYOUT
350
1A
  3
ACAD_MLINESTYLE
350
17
  3
ACAD_PLOTSETTINGS
350
19
  3
ACAD_PLOTSTYLENAME
350
E
  3
AcDbVariableDictionary
350
32B
  3
QCAD_OBJECTS
350
32C
  0
DICTIONARY
  5
D
100
AcDbDictionary
280
0
281
1
  0
ACDBDICTIONARYWDFLT
  5
E
100
AcDbDictionary
281
1
  3
Normal
350
F
100
AcDbDictionaryWithDefault
340
F
  0
ACDBPLACEHOLDER
  5
F
  0
DICTIONARY
  5
17
100
AcDbDictionary
280
0
281
1
  3
Standard
350
18
  0
MLINESTYLE
  5
18
100
AcDbMlineStyle
  2
STANDARD
 70
0
  3

 62
256
 51
90.0
 52
90.0
 71
2
 49
0.5
 62
256
  6
BYLAYER
 49
-0.5
 62
256
  6
BYLAYER
  0
DICTIONARY
  5
19
100
AcDbDictionary
280
0
281
1
  0
DICTIONARY
  5
1A
100
AcDbDictionary
281
1
  3
Layout1
350
1E
  3
Layout2
350
26
  3
Model
350
22
  0
LAYOUT
  5
1E
100
AcDbPlotSettings
  1

  2
none_device
  4

  6

 40
0.0
 41
0.0
 42
0.0
 43
0.0
 44
0.0
 45
0.0
 46
0.0
 47
0.0
 48
0.0
 49
0.0
140
0.0
141
0.0
142
1.0
143
1.0
 70
688
 72
0
 73
0
 74
5
  7

 75
16
147
1.0
148
0.0
149
0.0
100
AcDbLayout
  1
Layout1
 70
1
 71
1
 10
0.0
 20
0.0
 11
420.0
 21
297.0
 12
0.0
 22
0.0
 32
0.0
 14
100000000000000000000.0
 24
100000000000000000000.0
 34
100000000000000000000.0
 15
-100000000000000000000.0
 25
-100000000000000000000.0
 35
-100000000000000000000.0
146
0.0
 13
0.0
 23
0.0
 33
0.0
 16
1.0
 26
0.0
 36
0.0
 17
0.0
 27
1.0
 37
0.0
 76
0
330
1B
  0
LAYOUT
  5
22
100
AcDbPlotSettings
  1

  2
none_device
  4

  6

 40
0.0
 41
0.0
 42
0.0
 43
0.0
 44
0.0
 45
0.0
 46
0.0
 47
0.0
 48
0.0
 49
0.0
140
0.0
141
0.0
142
1.0
143
1.0
 70
1712
 72
0
 73
0
 74
0
  7

 75
0
147
1.0
148
0.0
149
0.0
100
AcDbLayout
  1
Model
 70
1
 71
0
 10
0.0
 20
0.0
 11
12.0
 21
9.0
 12
0.0
 22
0.0
 32
0.0
 14
0.0
 24
0.0
 34
0.0
 15
0.0
 25
0.0
 35
0.0
146
0.0
 13
0.0
 23
0.0
 33
0.0
 16
1.0
 26
0.0
 36
0.0
 17
0.0
 27
1.0
 37
0.0
 76
0
330
1F
  0
LAYOUT
  5
26
100
AcDbPlotSettings
  1

  2
none_device
  4

  6

 40
0.0
 41
0.0
 42
0.0
 43
0.0
 44
0.0
 45
0.0
 46
0.0
 47
0.0
 48
0.0
 49
0.0
140
0.0
141
0.0
142
1.0
143
1.0
 70
688
 72
0
 73
0
 74
5
  7

 75
16
147
1.0
148
0.0
149
0.0
100
AcDbLayout
  1
Layout2
 70
1
 71
2
 10
0.0
 20
0.0
 11
12.0
 21
9.0
 12
0.0
 22
0.0
 32
0.0
 14
0.0
 24
0.0
 34
0.0
 15
0.0
 25
0.0
 35
0.0
146
0.0
 13
0.0
 23
0.0
 33
0.0
 16
1.0
 26
0.0
 36
0.0
 17
0.0
 27
1.0
 37
0.0
 76
0
330
23
  0
DICTIONARY
  5
32B
100
AcDbDictionary
281
1
  3
DIMASSOC
350
32E
  3
HIDETEXT
350
32D
  0
DICTIONARYVAR
  5
32D
100
DictionaryVariables
280
0
  1
2
  0
DICTIONARYVAR
  5
32E
100
DictionaryVariables
280
0
  1
1
  0
DICTIONARY
  5
32C
100
AcDbDictionary
281
1
  3
ColorSettings/BackgroundColor
350
32F
  3
ColorSettings/ColorMode
350
330
  3
Grid/DisplayGrid00
350
331
  3
Grid/DisplayGrid01
350
332
  3
Grid/DisplayGrid02
350
333
  3
Grid/DisplayGrid03
350
334
  3
Grid/GridSpacingX00
350
335
  3
Grid/GridSpacingX01
350
336
  3
Grid/GridSpacingX02
350
337
  3
Grid/GridSpacingX03
350
338
  3
Grid/GridSpacingY00
350
339
  3
Grid/GridSpacingY01
350
33A
  3
Grid/GridSpacingY02
350
33B
  3
Grid/GridSpacingY03
350
33C
  3
Grid/IsometricGrid00
350
33D
  3
Grid/IsometricGrid01
350
33E
  3
Grid/IsometricGrid02
350
33F
  3
Grid/IsometricGrid03
350
340
  3
Grid/IsometricProjection00
350
341
  3
Grid/IsometricProjection01
350
342
  3
Grid/IsometricProjection02
350
343
  3
Grid/IsometricProjection03
350
344
  3
Grid/MetaGridSpacingX00
350
345
  3
Grid/MetaGridSpacingX01
350
346
  3
Grid/MetaGridSpacingX02
350
347
  3
Grid/MetaGridSpacingX03
350
348
  3
Grid/MetaGridSpacingY00
350
349
  3
Grid/MetaGridSpacingY01
350
34A
  3
Grid/MetaGridSpacingY02
350
34B
  3
Grid/MetaGridSpacingY03
350
34C
  3
MultiPageSettings/Columns
350
34D
  3
MultiPageSettings/GlueMarginsBottom
350
34E
  3
MultiPageSettings/GlueMarginsLeft
350
34F
  3
MultiPageSettings/GlueMarginsRight
350
350
  3
MultiPageSettings/GlueMarginsTop
350
351
  3
MultiPageSettings/PrintCropMarks
350
352
  3
MultiPageSettings/Rows
350
353
  3
PageSettings/OffsetX
350
354
  3
PageSettings/OffsetY
350
355
  3
PageSettings/PageOrientation
350
356
  3
PageSettings/PaperHeight
350
357
  3
PageSettings/PaperWidth
350
358
  3
PageSettings/Scale
350
359
  3
PageSettings/ShowPaperBorders
350
35A
  3
QCADVersion
350
35B
  3
UnitSettings/PaperUnit
350
35C
  0
XRECORD
  5
32F
330
32C
100
AcDbXrecord
280
1
1000
White
  0
XRECORD
  5
330
330
32C
100
AcDbXrecord
280
1
1000
FullColor
  0
XRECORD
  5
331
330
32C
100
AcDbXrecord
280
1
290
1
  0
XRECORD
  5
332
330
32C
100
AcDbXrecord
280
1
290
1
  0
XRECORD
  5
333
330
32C
100
AcDbXrecord
280
1
290
1
  0
XRECORD
  5
334
330
32C
100
AcDbXrecord
280
1
290
1
  0
XRECORD
  5
335
330
32C
100
AcDbXrecord
280
1
1000
auto
  0
XRECORD
  5
336
330
32C
100
AcDbXrecord
280
1
1000
auto
  0
XRECORD
  5
337
330
32C
100
AcDbXrecord
280
1
1000
auto
  0
XRECORD
  5
338
330
32C
100
AcDbXrecord
280
1
1000
auto
  0
XRECORD
  5
339
330
32C
100
AcDbXrecord
280
1
1000
auto
  0
XRECORD
  5
33A
330
32C
100
AcDbXrecord
280
1
1000
auto
  0
XRECORD
  5
33B
330
32C
100
AcDbXrecord
280
1
1000
auto
  0
XRECORD
  5
33C
330
32C
100
AcDbXrecord
280
1
1000
auto
  0
XRECORD
  5
33D
330
32C
100
AcDbXrecord
280
1
290
0
  0
XRECORD
  5
33E
330
32C
100
AcDbXrecord
280
1
290
0
  0
XRECORD
  5
33F
330
32C
100
AcDbXrecord
280
1
290
0
  0
XRECORD
  5
340
330
32C
100
AcDbXrecord
280
1
290
0
  0
XRECORD
  5
341
330
32C
100
AcDbXrecord
280
1
 90
0
  0
XRECORD
  5
342
330
32C
100
AcDbXrecord
280
1
 90
0
  0
XRECORD
  5
343
330
32C
100
AcDbXrecord
280
1
 90
0
  0
XRECORD
  5
344
330
32C
100
AcDbXrecord
280
1
 90
0
  0
XRECORD
  5
345
330
32C
100
AcDbXrecord
280
1
1000
auto
  0
XRECORD
  5
346
330
32C
100
AcDbXrecord
280
1
1000
auto
  0
XRECORD
  5
347
330
32C
100
AcDbXrecord
280
1
1000
auto
  0
XRECORD
  5
348
330
32C
100
AcDbXrecord
280
1
1000
auto
  0
XRECORD
  5
349
330
32C
100
AcDbXrecord
280
1
1000
auto
  0
XRECORD
  5
34A
330
32C
100
AcDbXrecord
280
1
1000
auto
  0
XRECORD
  5
34B
330
32C
100
AcDbXrecord
280
1
1000
auto
  0
XRECORD
  5
34C
330
32C
100
AcDbXrecord
280
1
1000
auto
  0
XRECORD
  5
34D
330
32C
100
AcDbXrecord
280
1
 90
1
  0
XRECORD
  5
34E
330
32C
100
AcDbXrecord
280
1
 40
0.5
  0
XRECORD
  5
34F
330
32C
100
AcDbXrecord
280
1
 40
0.5
  0
XRECORD
  5
350
330
32C
100
AcDbXrecord
280
1
 40
0.5
  0
XRECORD
  5
351
330
32C
100
AcDbXrecord
280
1
 40
0.5
  0
XRECORD
  5
352
330
32C
100
AcDbXrecord
280
1
290
0
  0
XRECORD
  5
353
330
32C
100
AcDbXrecord
280
1
 90
1
  0
XRECORD
  5
354
330
32C
100
AcDbXrecord
280
1
 40
0.0
  0
XRECORD
  5
355
330
32C
100
AcDbXrecord
280
1
 40
0.0
  0
XRECORD
  5
356
330
32C
100
AcDbXrecord
280
1
1000
Portrait
  0
XRECORD
  5
357
330
32C
100
AcDbXrecord
280
1
 40
11.6929133858268006
  0
XRECORD
  5
358
330
32C
100
AcDbXrecord
280
1
 40
8.2677165354330704
  0
XRECORD
  5
359
330
32C
100
AcDbXrecord
280
1
1000
1:1
  0
XRECORD
  5
35A
330
32C
100
AcDbXrecord
280
1
290
1
  0
XRECORD
  5
35B
330
32C
100
AcDbXrecord
280
1
1000
3.11.3
  0
XRECORD
  5
35C
330
32C
100
AcDbXrecord
280
1
 90
1
  0
ENDSEC
  0
EOF
