999
dxflib 3.7.5.0
  0
SECTION
  2
HEADER
  9
$ACADVER
  1
AC1015
  9
$HANDSEED
  5
FFFF
  9
$DIMADEC
 70
0
  9
$DIMASZ
 40
0.125
  9
$DIMAUNIT
 70
0
  9
$DIMAZIN
 70
2
  9
$DIMDEC
 70
4
  9
$DIMEXE
 40
0.0625
  9
$DIMEXO
 40
0.03125
  9
$DIMGAP
 40
0.03125
  9
$DIMLUNIT
 70
3
  9
$DIMSCALE
 40
1.0
  9
$DIMTSZ
 40
0.0
  9
$DIMTXT
 40
0.125
  9
$DIMZIN
 70
8
  9
$DWGCODEPAGE
  3
ANSI_1252
  9
$INSUNITS
 70
1
  9
$LTSCALE
 40
1.0
  9
$MEASUREMENT
 70
0
  9
$PDMODE
 70
0
  9
$PDSIZE
 40
0
  0
ENDSEC
  0
SECTION
  2
TABLES
  0
TABLE
  2
VPORT
  5
8
100
AcDbSymbolTable
 70
1
  0
VPORT
  5
30
100
AcDbSymbolTableRecord
100
AcDbViewportTableRecord
  2
*Active
 70
0
 10
0.0
 20
0.0
 11
1.0
 21
1.0
 12
286.3055555555554861
 22
148.5
 13
0.0
 23
0.0
 14
10.0
 24
10.0
 15
10.0
 25
10.0
 16
0.0
 26
0.0
 36
1.0
 17
0.0
 27
0.0
 37
0.0
 40
297.0
 41
1.92798353909465
 42
50.0
 43
0.0
 44
0.0
 50
0.0
 51
0.0
 71
0
 72
100
 73
1
 74
3
 75
1
 76
1
 77
0
 78
0
281
0
 65
1
110
0.0
120
0.0
130
0.0
111
1.0
121
0.0
131
0.0
112
0.0
122
1.0
132
0.0
 79
0
146
0.0
  0
ENDTAB
  0
TABLE
  2
LTYPE
  5
5
100
AcDbSymbolTable
 70
50
  0
LTYPE
  5
16
100
AcDbSymbolTableRecord
100
AcDbLinetypeTableRecord
  2
Continuous
 70
0
  3
Solid line
 72
65
 73
0
 40
0.0
  0
LTYPE
  5
31
100
AcDbSymbolTableRecord
100
AcDbLinetypeTableRecord
  2
ACAD_ISO15W100
 70
0
  3
ISO double-dash triple-dot __ __ . . . __ __ . .
 72
65
 73
10
 40
39.0
 49
12.0
 74
0
 49
-3.0
 74
0
 49
12.0
 74
0
 49
-3.0
 74
0
 49
0.0
 74
0
 49
-3.0
 74
0
 49
0.0
 74
0
 49
-3.0
 74
0
 49
0.0
 74
0
 49
-3.0
 74
0
  0
LTYPE
  5
32
100
AcDbSymbolTableRecord
100
AcDbLinetypeTableRecord
  2
HOT_WATER_SUPPLY
 70
0
  3
Hot water supply ---- HW ---- HW ---- HW ----
 72
65
 73
3
 40
22.8599999999999994
 49
12.6999999999999993
 74
0
 49
-5.0800000000000001
 74
0
 49
-5.0800000000000001
 74
0
  0
LTYPE
  5
33
100
AcDbSymbolTableRecord
100
AcDbLinetypeTableRecord
  2
DIVIDE
 70
0
  3
Divide ____ . . ____ . . ____ . . ____ . . ____
 72
65
 73
6
 40
31.75
 49
12.6999999999999993
 74
0
 49
-6.3499999999999996
 74
0
 49
0.0
 74
0
 49
-6.3499999999999996
 74
0
 49
0.0
 74
0
 49
-6.3499999999999996
 74
0
  0
LTYPE
  5
34
100
AcDbSymbolTableRecord
100
AcDbLinetypeTableRecord
  2
ACAD_ISO10W100
 70
0
  3
ISO dash dot __ . __ . __ . __ . __ . __ . __ . 
 72
65
 73
4
 40
18.0
 49
12.0
 74
0
 49
-3.0
 74
0
 49
0.0
 74
0
 49
-3.0
 74
0
  0
LTYPE
  5
35
100
AcDbSymbolTableRecord
100
AcDbLinetypeTableRecord
  2
GAS_LINE
 70
0
  3
Gas line ----GAS----GAS----GAS----GAS----GAS----GAS--
 72
65
 73
3
 40
24.1300000000000026
 49
12.6999999999999993
 74
0
 49
-5.0800000000000001
 74
0
 49
-6.3499999999999996
 74
0
  0
LTYPE
  5
36
100
AcDbSymbolTableRecord
100
AcDbLinetypeTableRecord
  2
ACAD_ISO04W100
 70
0
  3
ISO long-dash dot ____ . ____ . ____ . ____ . _
 72
65
 73
4
 40
30.0
 49
24.0
 74
0
 49
-3.0
 74
0
 49
0.0
 74
0
 49
-3.0
 74
0
  0
LTYPE
  5
37
100
AcDbSymbolTableRecord
100
AcDbLinetypeTableRecord
  2
CENTER2
 70
0
  3
Center (.5x) ___ _ ___ _ ___ _ ___ _ ___ _ ___
 72
65
 73
4
 40
28.5750000000000028
 49
19.0500000000000007
 74
0
 49
-3.1749999999999998
 74
0
 49
3.1749999999999998
 74
0
 49
-3.1749999999999998
 74
0
  0
LTYPE
  5
38
100
AcDbSymbolTableRecord
100
AcDbLinetypeTableRecord
  2
ACAD_ISO11W100
 70
0
  3
ISO double-dash dot __ __ . __ __ . __ __ . __ _
 72
65
 73
6
 40
33.0
 49
12.0
 74
0
 49
-3.0
 74
0
 49
12.0
 74
0
 49
-3.0
 74
0
 49
0.0
 74
0
 49
-3.0
 74
0
  0
LTYPE
  5
39
100
AcDbSymbolTableRecord
100
AcDbLinetypeTableRecord
  2
HIDDEN2
 70
0
  3
Hidden (.5x) _ _ _ _ _ _ _ _ _ _ _ _ _ _ _ _ _ 
 72
65
 73
2
 40
4.7624999999999993
 49
3.1749999999999998
 74
0
 49
-1.5874999999999999
 74
0
  0
LTYPE
  5
3A
100
AcDbSymbolTableRecord
100
AcDbLinetypeTableRecord
  2
BORDERX2
 70
0
  3
Border (2x) ____  ____  .  ____  ____  .  ___
 72
65
 73
6
 40
88.8999999999999915
 49
25.3999999999999986
 74
0
 49
-12.6999999999999993
 74
0
 49
25.3999999999999986
 74
0
 49
-12.6999999999999993
 74
0
 49
0.0
 74
0
 49
-12.6999999999999993
 74
0
  0
LTYPE
  5
3B
100
AcDbSymbolTableRecord
100
AcDbLinetypeTableRecord
  2
ACAD_ISO05W100
 70
0
  3
ISO long-dash double-dot ____ .. ____ .. ____ . 
 72
65
 73
6
 40
33.0
 49
24.0
 74
0
 49
-3.0
 74
0
 49
0.0
 74
0
 49
-3.0
 74
0
 49
0.0
 74
0
 49
-3.0
 74
0
  0
LTYPE
  5
3C
100
AcDbSymbolTableRecord
100
AcDbLinetypeTableRecord
  2
DASHDOTX2
 70
0
  3
Dash dot (2x) ____  .  ____  .  ____  .  ___
 72
65
 73
4
 40
50.7999999999999972
 49
25.3999999999999986
 74
0
 49
-12.6999999999999993
 74
0
 49
0.0
 74
0
 49
-12.6999999999999993
 74
0
  0
LTYPE
  5
3D
100
AcDbSymbolTableRecord
100
AcDbLinetypeTableRecord
  2
HIDDENX2
 70
0
  3
Hidden (2x) ____ ____ ____ ____ ____ ____ ____ 
 72
65
 73
2
 40
19.0499999999999972
 49
12.6999999999999993
 74
0
 49
-6.3499999999999996
 74
0
  0
LTYPE
  5
3E
100
AcDbSymbolTableRecord
100
AcDbLinetypeTableRecord
  2
CENTERX2
 70
0
  3
Center (2x) ________  __  ________  __  _____
 72
65
 73
4
 40
101.6000000000000085
 49
63.5
 74
0
 49
-12.6999999999999993
 74
0
 49
12.6999999999999993
 74
0
 49
-12.6999999999999993
 74
0
  0
LTYPE
  5
3F
100
AcDbSymbolTableRecord
100
AcDbLinetypeTableRecord
  2
BORDER2
 70
0
  3
Border (.5x) __.__.__.__.__.__.__.__.__.__.__.
 72
65
 73
6
 40
22.2249999999999979
 49
6.3499999999999996
 74
0
 49
-3.1749999999999998
 74
0
 49
6.3499999999999996
 74
0
 49
-3.1749999999999998
 74
0
 49
0.0
 74
0
 49
-3.1749999999999998
 74
0
  0
LTYPE
  5
40
100
AcDbSymbolTableRecord
100
AcDbLinetypeTableRecord
  2
DASHDOT2
 70
0
  3
Dash dot (.5x) _._._._._._._._._._._._._._._.
 72
65
 73
4
 40
12.6999999999999993
 49
6.3499999999999996
 74
0
 49
-3.1749999999999998
 74
0
 49
0.0
 74
0
 49
-3.1749999999999998
 74
0
  0
LTYPE
  5
41
100
AcDbSymbolTableRecord
100
AcDbLinetypeTableRecord
  2
ACAD_ISO12W100
 70
0
  3
ISO dash double-dot __ . . __ . . __ . . __ . . 
 72
65
 73
6
 40
21.0
 49
12.0
 74
0
 49
-3.0
 74
0
 49
0.0
 74
0
 49
-3.0
 74
0
 49
0.0
 74
0
 49
-3.0
 74
0
  0
LTYPE
  5
42
100
AcDbSymbolTableRecord
100
AcDbLinetypeTableRecord
  2
ACAD_ISO07W100
 70
0
  3
ISO dot . . . . . . . . . . . . . . . . . . . . 
 72
65
 73
2
 40
3.0
 49
0.0
 74
0
 49
-3.0
 74
0
  0
LTYPE
  5
43
100
AcDbSymbolTableRecord
100
AcDbLinetypeTableRecord
  2
ACAD_ISO06W100
 70
0
  3
ISO long-dash triple-dot ____ ... ____ ... ____
 72
65
 73
8
 40
36.0
 49
24.0
 74
0
 49
-3.0
 74
0
 49
0.0
 74
0
 49
-3.0
 74
0
 49
0.0
 74
0
 49
-3.0
 74
0
 49
0.0
 74
0
 49
-3.0
 74
0
  0
LTYPE
  5
44
100
AcDbSymbolTableRecord
100
AcDbLinetypeTableRecord
  2
CENTER
 70
0
  3
Center ____ _ ____ _ ____ _ ____ _ ____ _ ____
 72
65
 73
4
 40
50.8000000000000043
 49
31.75
 74
0
 49
-6.3499999999999996
 74
0
 49
6.3499999999999996
 74
0
 49
-6.3499999999999996
 74
0
  0
LTYPE
  5
45
100
AcDbSymbolTableRecord
100
AcDbLinetypeTableRecord
  2
HIDDEN
 70
0
  3
Hidden __ __ __ __ __ __ __ __ __ __ __ __ __ __
 72
65
 73
2
 40
9.5249999999999986
 49
6.3499999999999996
 74
0
 49
-3.1749999999999998
 74
0
  0
LTYPE
  5
46
100
AcDbSymbolTableRecord
100
AcDbLinetypeTableRecord
  2
DOTX2
 70
0
  3
Dot (2x) .  .  .  .  .  .  .  .  .  .  .  .  .  .
 72
65
 73
2
 40
12.6999999999999993
 49
0.0
 74
0
 49
-12.6999999999999993
 74
0
  0
LTYPE
  5
47
100
AcDbSymbolTableRecord
100
AcDbLinetypeTableRecord
  2
PHANTOM
 70
0
  3
Phantom ______  __  __  ______  __  __  ______ 
 72
65
 73
6
 40
63.5000000000000071
 49
31.75
 74
0
 49
-6.3499999999999996
 74
0
 49
6.3499999999999996
 74
0
 49
-6.3499999999999996
 74
0
 49
6.3499999999999996
 74
0
 49
-6.3499999999999996
 74
0
  0
LTYPE
  5
48
100
AcDbSymbolTableRecord
100
AcDbLinetypeTableRecord
  2
ACAD_ISO08W100
 70
0
  3
ISO long-dash short-dash ____ __ ____ __ ____ _
 72
65
 73
4
 40
36.0
 49
24.0
 74
0
 49
-3.0
 74
0
 49
6.0
 74
0
 49
-3.0
 74
0
  0
LTYPE
  5
49
100
AcDbSymbolTableRecord
100
AcDbLinetypeTableRecord
  2
DASHEDX2
 70
0
  3
Dashed (2x) ____  ____  ____  ____  ____  ___
 72
65
 73
2
 40
38.0999999999999943
 49
25.3999999999999986
 74
0
 49
-12.6999999999999993
 74
0
  0
LTYPE
  5
4A
100
AcDbSymbolTableRecord
100
AcDbLinetypeTableRecord
  2
DRAINAGE
 70
0
  3
Drainage ---->---->---->----
 72
65
 73
2
 40
10.1600000000000001
 49
5.0800000000000001
 74
0
 49
5.0800000000000001
 74
0
  0
LTYPE
  5
4B
100
AcDbSymbolTableRecord
100
AcDbLinetypeTableRecord
  2
ACAD_ISO02W100
 70
0
  3
ISO dash __ __ __ __ __ __ __ __ __ __ __ __ __
 72
65
 73
2
 40
15.0
 49
12.0
 74
0
 49
-3.0
 74
0
  0
LTYPE
  5
4C
100
AcDbSymbolTableRecord
100
AcDbLinetypeTableRecord
  2
PHANTOM2
 70
0
  3
Phantom (.5x) ___ _ _ ___ _ _ ___ _ _ ___ _ _
 72
65
 73
6
 40
31.7500000000000036
 49
15.875
 74
0
 49
-3.1749999999999998
 74
0
 49
3.1749999999999998
 74
0
 49
-3.1749999999999998
 74
0
 49
3.1749999999999998
 74
0
 49
-3.1749999999999998
 74
0
  0
LTYPE
  5
4D
100
AcDbSymbolTableRecord
100
AcDbLinetypeTableRecord
  2
DASHED2
 70
0
  3
Dashed (.5x) _ _ _ _ _ _ _ _ _ _ _ _ _ _ _ _ _ 
 72
65
 73
2
 40
9.5249999999999986
 49
6.3499999999999996
 74
0
 49
-3.1749999999999998
 74
0
  0
LTYPE
  5
4E
100
AcDbSymbolTableRecord
100
AcDbLinetypeTableRecord
  2
ACAD_ISO09W100
 70
0
  3
ISO long-dash double-short-dash ____ __ __ ____
 72
65
 73
6
 40
45.0
 49
24.0
 74
0
 49
-3.0
 74
0
 49
6.0
 74
0
 49
-3.0
 74
0
 49
6.0
 74
0
 49
-3.0
 74
0
  0
LTYPE
  5
4F
100
AcDbSymbolTableRecord
100
AcDbLinetypeTableRecord
  2
ACAD_ISO13W100
 70
0
  3
ISO double-dash double-dot __ __ . . __ __ . . _
 72
65
 73
8
 40
36.0
 49
12.0
 74
0
 49
-3.0
 74
0
 49
12.0
 74
0
 49
-3.0
 74
0
 49
0.0
 74
0
 49
-3.0
 74
0
 49
0.0
 74
0
 49
-3.0
 74
0
  0
LTYPE
  5
50
100
AcDbSymbolTableRecord
100
AcDbLinetypeTableRecord
  2
TRACKS
 70
0
  3
Tracks -|-|-|-|-|-|-|-|-|-|-|-|-|-|-|-|-|-|-|-|-|-|-|-|-
 72
65
 73
2
 40
7.6200000000000001
 49
3.8100000000000001
 74
0
 49
3.8100000000000001
 74
0
  0
LTYPE
  5
51
100
AcDbSymbolTableRecord
100
AcDbLinetypeTableRecord
  2
DRAINAGE2
 70
0
  3
Drainage reversed----<----<----<----
 72
65
 73
2
 40
10.1600000000000001
 49
5.0800000000000001
 74
0
 49
5.0800000000000001
 74
0
  0
LTYPE
  5
52
100
AcDbSymbolTableRecord
100
AcDbLinetypeTableRecord
  2
DOT2
 70
0
  3
Dot (.5x) ........................................
 72
65
 73
2
 40
3.1749999999999998
 49
0.0
 74
0
 49
-3.1749999999999998
 74
0
  0
LTYPE
  5
53
100
AcDbSymbolTableRecord
100
AcDbLinetypeTableRecord
  2
ZIGZAG
 70
0
  3
Zig zag /\/\/\/\/\/\/\/\/\/\/\/\/\/\/\/\/\/\/\/\/\/\/\/
 72
65
 73
4
 40
20.32254
 49
0.00254
 74
0
 49
-5.0800000000000001
 74
0
 49
-10.1600000000000001
 74
0
 49
-5.0800000000000001
 74
0
  0
LTYPE
  5
54
100
AcDbSymbolTableRecord
100
AcDbLinetypeTableRecord
  2
DASHED
 70
0
  3
Dashed __ __ __ __ __ __ __ __ __ __ __ __ __ _
 72
65
 73
2
 40
19.0499999999999972
 49
12.6999999999999993
 74
0
 49
-6.3499999999999996
 74
0
  0
LTYPE
  5
55
100
AcDbSymbolTableRecord
100
AcDbLinetypeTableRecord
  2
ACAD_ISO14W100
 70
0
  3
ISO dash triple-dot __ . . . __ . . . __ . . . _
 72
65
 73
8
 40
24.0
 49
12.0
 74
0
 49
-3.0
 74
0
 49
0.0
 74
0
 49
-3.0
 74
0
 49
0.0
 74
0
 49
-3.0
 74
0
 49
0.0
 74
0
 49
-3.0
 74
0
  0
LTYPE
  5
15
100
AcDbSymbolTableRecord
100
AcDbLinetypeTableRecord
  2
BYLAYER
 70
0
  3

 72
65
 73
0
 40
0.0
  0
LTYPE
  5
56
100
AcDbSymbolTableRecord
100
AcDbLinetypeTableRecord
  2
PHANTOMX2
 70
0
  3
Phantom (2x) ____________    ____    ____   _
 72
65
 73
6
 40
127.0000000000000142
 49
63.5
 74
0
 49
-12.6999999999999993
 74
0
 49
12.6999999999999993
 74
0
 49
-12.6999999999999993
 74
0
 49
12.6999999999999993
 74
0
 49
-12.6999999999999993
 74
0
  0
LTYPE
  5
14
100
AcDbSymbolTableRecord
100
AcDbLinetypeTableRecord
  2
BYBLOCK
 70
0
  3

 72
65
 73
0
 40
0.0
  0
LTYPE
  5
57
100
AcDbSymbolTableRecord
100
AcDbLinetypeTableRecord
  2
DIVIDEX2
 70
0
  3
Divide (2x) ________  .  .  ________  .  .  _
 72
65
 73
6
 40
63.5
 49
25.3999999999999986
 74
0
 49
-12.6999999999999993
 74
0
 49
0.0
 74
0
 49
-12.6999999999999993
 74
0
 49
0.0
 74
0
 49
-12.6999999999999993
 74
0
  0
LTYPE
  5
58
100
AcDbSymbolTableRecord
100
AcDbLinetypeTableRecord
  2
BORDER
 70
0
  3
Border __ __ . __ __ . __ __ . __ __ . __ __ .
 72
65
 73
6
 40
44.4499999999999957
 49
12.6999999999999993
 74
0
 49
-6.3499999999999996
 74
0
 49
12.6999999999999993
 74
0
 49
-6.3499999999999996
 74
0
 49
0.0
 74
0
 49
-6.3499999999999996
 74
0
  0
LTYPE
  5
59
100
AcDbSymbolTableRecord
100
AcDbLinetypeTableRecord
  2
DIVIDE2
 70
0
  3
Divide (.5x) __..__..__..__..__..__..__..__.._
 72
65
 73
6
 40
15.875
 49
6.3499999999999996
 74
0
 49
-3.1749999999999998
 74
0
 49
0.0
 74
0
 49
-3.1749999999999998
 74
0
 49
0.0
 74
0
 49
-3.1749999999999998
 74
0
  0
LTYPE
  5
5A
100
AcDbSymbolTableRecord
100
AcDbLinetypeTableRecord
  2
DOT
 70
0
  3
Dot . . . . . . . . . . . . . . . . . . . . . . . .
 72
65
 73
2
 40
6.3499999999999996
 49
0.0
 74
0
 49
-6.3499999999999996
 74
0
  0
LTYPE
  5
5B
100
AcDbSymbolTableRecord
100
AcDbLinetypeTableRecord
  2
DASHDOT
 70
0
  3
Dash dot __ . __ . __ . __ . __ . __ . __ . __
 72
65
 73
4
 40
25.3999999999999986
 49
12.6999999999999993
 74
0
 49
-6.3499999999999996
 74
0
 49
0.0
 74
0
 49
-6.3499999999999996
 74
0
  0
LTYPE
  5
5C
100
AcDbSymbolTableRecord
100
AcDbLinetypeTableRecord
  2
FENCELINE1
 70
0
  3
Fenceline circle ----0-----0----0-----0----0-----0--
 72
65
 73
4
 40
36.8299999999999983
 49
6.3499999999999996
 74
0
 49
-2.54
 74
0
 49
-2.54
 74
0
 49
25.3999999999999986
 74
0
  0
LTYPE
  5
5D
100
AcDbSymbolTableRecord
100
AcDbLinetypeTableRecord
  2
BATTING
 70
0
  3
Batting SSSSSSSSSSSSSSSSSSSSSSSSSSSSSSSSSSSSSSSSSSSSSSS
 72
65
 73
4
 40
10.1625399999999999
 49
0.00254
 74
0
 49
-2.54
 74
0
 49
-5.0800000000000001
 74
0
 49
-2.54
 74
0
  0
LTYPE
  5
5E
100
AcDbSymbolTableRecord
100
AcDbLinetypeTableRecord
  2
ACAD_ISO03W100
 70
0
  3
ISO dash space __    __    __    __    __    __
 72
65
 73
2
 40
30.0
 49
12.0
 74
0
 49
-18.0
 74
0
  0
LTYPE
  5
5F
100
AcDbSymbolTableRecord
100
AcDbLinetypeTableRecord
  2
FENCELINE2
 70
0
  3
Fenceline square ----[]-----[]----[]-----[]----[]---
 72
65
 73
4
 40
36.8299999999999983
 49
6.3499999999999996
 74
0
 49
-2.54
 74
0
 49
-2.54
 74
0
 49
25.3999999999999986
 74
0
  0
ENDTAB
  0
TABLE
  2
LAYER
  5
2
100
AcDbSymbolTable
 70
1
  0
LAYER
  5
10
100
AcDbSymbolTableRecord
100
AcDbLayerTableRecord
  2
0
 70
0
 62
7
420
16777215
  6
Continuous
370
25
390
F
  0
ENDTAB
  0
TABLE
  2
STYLE
  5
3
100
AcDbSymbolTable
 70
1
  0
STYLE
  5
60
100
AcDbSymbolTableRecord
100
AcDbTextStyleTableRecord
  2
Standard
 70
0
 40
0.0
 41
1.0
 50
0.0
 71
0
 42
2.5
  3

  4

1001
ACAD
1000
txt
1071
0
  0
ENDTAB
  0
TABLE
  2
VIEW
  5
6
100
AcDbSymbolTable
 70
0
  0
ENDTAB
  0
TABLE
  2
UCS
  5
7
100
AcDbSymbolTable
 70
0
  0
ENDTAB
  0
TABLE
  2
APPID
  5
9
100
AcDbSymbolTable
 70
1
  0
APPID
  5
12
100
AcDbSymbolTableRecord
100
AcDbRegAppTableRecord
  2
ACAD
 70
0
  0
APPID
  5
61
100
AcDbSymbolTableRecord
100
AcDbRegAppTableRecord
  2
QCAD
 70
0
  0
ENDTAB
  0
TABLE
  2
DIMSTYLE
  5
A
100
AcDbSymbolTable
 70
1
100
AcDbDimStyleTable
 71
0
  0
DIMSTYLE
105
27
100
AcDbSymbolTableRecord
100
AcDbDimStyleTableRecord
  2
Standard
 41
0.125
 42
0.03125
 43
3.75
 44
0.0625
 70
0
 73
0
 74
0
 77
1
 78
8
140
0.125
141
2.5
143
0.03937007874016
147
0.03125
171
3
172
1
271
2
272
2
274
3
278
44
283
0
284
8
340
60
  0
ENDTAB
  0
TABLE
  2
BLOCK_RECORD
  5
1
100
AcDbSymbolTable
 70
1
  0
BLOCK_RECORD
  5
1F
100
AcDbSymbolTableRecord
100
AcDbBlockTableRecord
  2
*Model_Space
340
22
  0
BLOCK_RECORD
  5
1B
100
AcDbSymbolTableRecord
100
AcDbBlockTableRecord
  2
*Paper_Space
340
1E
  0
BLOCK_RECORD
  5
23
100
AcDbSymbolTableRecord
100
AcDbBlockTableRecord
  2
*Paper_Space0
340
26
  0
ENDTAB
  0
ENDSEC
  0
SECTION
  2
BLOCKS
  0
BLOCK
  5
20
100
AcDbEntity
  8
0
100
AcDbBlockBegin
  2
*Model_Space
 70
0
 10
0.0
 20
0.0
 30
0.0
  3
*Model_Space
  1

  0
ENDBLK
  5
21
100
AcDbEntity
  8
0
100
AcDbBlockEnd
  0
BLOCK
  5
1C
100
AcDbEntity
 67
1
  8
0
100
AcDbBlockBegin
  2
*Paper_Space
 70
0
 10
0.0
 20
0.0
 30
0.0
  3
*Paper_Space
  1

  0
ENDBLK
  5
1D
100
AcDbEntity
 67
1
  8
0
100
AcDbBlockEnd
  0
BLOCK
  5
24
100
AcDbEntity
  8
0
100
AcDbBlockBegin
  2
*Paper_Space0
 70
0
 10
0.0
 20
0.0
 30
0.0
  3
*Paper_Space0
  1

  0
ENDBLK
  5
25
100
AcDbEntity
  8
0
100
AcDbBlockEnd
  0
ENDSEC
  0
SECTION
  2
ENTITIES
  0
LINE
  5
62
100
AcDbEntity
100
AcDbLine
  8
0
 62
4
420
65535
370
-1
 48
1.0
  6
BYLAYER
 10
3.7105924226520273
 20
5.4677286406201082
 30
0.0
 11
7.2205924226520182
 21
5.4677286406201082
 31
0.0
  0
LINE
  5
63
100
AcDbEntity
100
AcDbLine
  8
0
 62
4
420
65535
370
-1
 48
1.0
  6
BYLAYER
 10
7.2205924226520182
 20
5.4677286406201082
 30
0.0
 11
7.2205924226520182
 21
5.3312286406201066
 31
0.0
  0
LINE
  5
64
100
AcDbEntity
100
AcDbLine
  8
0
 62
4
420
65535
370
-1
 48
1.0
  6
BYLAYER
 10
7.2205924226520182
 20
5.3312286406201066
 30
0.0
 11
3.7105924226520273
 21
5.3312286406201066
 31
0.0
  0
LINE
  5
65
100
AcDbEntity
100
AcDbLine
  8
0
 62
4
420
65535
370
-1
 48
1.0
  6
BYLAYER
 10
3.7105924226520273
 20
5.3312286406201066
 30
0.0
 11
3.7105924226520273
 21
5.4677286406201082
 31
0.0
  0
LINE
  5
66
100
AcDbEntity
100
AcDbLine
  8
0
 62
4
420
65535
370
-1
 48
1.0
  6
BYLAYER
 10
8.4202073730129143
 20
2.3116954168400983
 30
0.0
 11
8.4202073730129143
 21
0.8296954168400985
 31
0.0
  0
LINE
  5
67
100
AcDbEntity
100
AcDbLine
  8
0
 62
4
420
65535
370
-1
 48
1.0
  6
BYLAYER
 10
8.4202073730129143
 20
0.8296954168400985
 30
0.0
 11
7.7572073730129176
 21
2.5066954168400986
 31
0.0
  0
LINE
  5
68
100
AcDbEntity
100
AcDbLine
  8
0
 62
4
420
65535
370
-1
 48
1.0
  6
BYLAYER
 10
7.7572073730129176
 20
2.5066954168400986
 30
0.0
 11
8.4202073730129143
 21
2.3116954168400983
 31
0.0
  0
LINE
  5
69
100
AcDbEntity
100
AcDbLine
  8
0
 62
4
420
65535
370
-1
 48
1.0
  6
BYLAYER
 10
8.86870737301291
 20
0.634695416840096
 30
0.0
 11
8.7322073730129119
 21
0.6346954168400982
 31
0.0
  0
LINE
  5
6A
100
AcDbEntity
100
AcDbLine
  8
0
 62
4
420
65535
370
-1
 48
1.0
  6
BYLAYER
 10
8.7322073730129119
 20
0.6346954168400982
 30
0.0
 11
8.7322073730129119
 21
4.144695416840098
 31
0.0
  0
LINE
  5
6B
100
AcDbEntity
100
AcDbLine
  8
0
 62
4
420
65535
370
-1
 48
1.0
  6
BYLAYER
 10
8.7322073730129119
 20
4.144695416840098
 30
0.0
 11
8.86870737301291
 21
4.1446954168400962
 31
0.0
  0
LINE
  5
6C
100
AcDbEntity
100
AcDbLine
  8
0
 62
4
420
65535
370
-1
 48
1.0
  6
BYLAYER
 10
8.86870737301291
 20
4.1446954168400962
 30
0.0
 11
8.86870737301291
 21
0.634695416840096
 31
0.0
  0
LINE
  5
6D
100
AcDbEntity
100
AcDbLine
  8
0
 62
4
420
65535
370
-1
 48
1.0
  6
BYLAYER
 10
7.016207373012918
 20
3.7156954168400982
 30
0.0
 11
7.016207373012918
 21
3.7156954168400982
 31
0.0
  0
LINE
  5
6E
100
AcDbEntity
100
AcDbLine
  8
0
 62
3
420
65280
370
-1
 48
1.0
  6
BYLAYER
 10
7.1425924226520152
 20
6.1112286406201086
 30
0.0
 11
3.7885924226520302
 21
6.1112286406201086
 31
0.0
  0
LINE
  5
6F
100
AcDbEntity
100
AcDbLine
  8
0
 62
3
420
65280
370
-1
 48
1.0
  6
BYLAYER
 10
3.8270346184159791
 20
4.5122286406201084
 30
0.0
 11
5.7775924226520203
 21
4.5122286406201066
 31
0.0
  0
LINE
  5
70
100
AcDbEntity
100
AcDbLine
  8
0
 62
3
420
65280
370
-1
 48
1.0
  6
BYLAYER
 10
5.7775924226520203
 20
4.5122286406201066
 30
0.0
 11
7.3282073730129156
 21
2.6626954168400983
 31
0.0
  0
LINE
  5
71
100
AcDbEntity
100
AcDbLine
  8
0
 62
3
420
65280
370
-1
 48
1.0
  6
BYLAYER
 10
7.3282073730129156
 20
2.6626954168400983
 30
0.0
 11
8.2642073730129084
 21
0.5956954168400985
 31
0.0
  0
LINE
  5
72
100
AcDbEntity
100
AcDbLine
  8
0
 62
3
420
65280
370
-1
 48
1.0
  6
BYLAYER
 10
8.2642073730129084
 20
0.5956954168400985
 30
0.0
 11
8.654207373012909
 21
0.2056954168400984
 31
0.0
  0
LINE
  5
73
100
AcDbEntity
100
AcDbLine
  8
0
 62
3
420
65280
370
-1
 48
1.0
  6
BYLAYER
 10
8.654207373012909
 20
0.2056954168400984
 30
0.0
 11
8.9662073730129066
 21
0.2056954168400984
 31
0.0
  0
LINE
  5
74
100
AcDbEntity
100
AcDbLine
  8
0
 62
3
420
65280
370
-1
 48
1.0
  6
BYLAYER
 10
9.1222073730129125
 20
0.4396954168400984
 30
0.0
 11
9.118544223732755
 21
4.1628642909346372
 31
0.0
  0
LINE
  5
75
100
AcDbEntity
100
AcDbLine
  8
0
 62
3
420
65280
370
-1
 48
1.0
  6
BYLAYER
 10
8.9662073730129066
 20
0.2056954168400984
 30
0.0
 11
9.1222073730129125
 21
0.4396954168400984
 31
0.0
  0
LINE
  5
76
100
AcDbEntity
100
AcDbLine
  8
0
 62
4
420
65535
370
-1
 48
1.0
  6
BYLAYER
 10
8.4202073730129143
 20
2.5456954168400983
 30
0.0
 11
7.5232073730129088
 21
2.8576954168400985
 31
0.0
  0
LINE
  5
77
100
AcDbEntity
100
AcDbLine
  8
0
 62
4
420
65535
370
-1
 48
1.0
  6
BYLAYER
 10
7.051512668472995
 20
3.4203206045597403
 30
0.0
 11
7.6792073730129147
 21
3.5986954168400982
 31
0.0
  0
LINE
  5
78
100
AcDbEntity
100
AcDbLine
  8
0
 62
4
420
65535
370
-1
 48
1.0
  6
BYLAYER
 10
7.6792073730129147
 20
3.5986954168400982
 30
0.0
 11
8.4202073730129143
 21
2.5456954168400983
 31
0.0
  0
LINE
  5
79
100
AcDbEntity
100
AcDbLine
  8
0
 62
3
420
65280
370
-1
 48
1.0
  6
BYLAYER
 10
8.4202073730129143
 20
2.9356954168400984
 30
0.0
 11
8.4202073730129143
 21
4.1056954168400983
 31
0.0
  0
LINE
  5
7A
100
AcDbEntity
100
AcDbLine
  8
0
 62
3
420
65280
370
-1
 48
1.0
  6
BYLAYER
 10
8.4202073730129143
 20
4.1056954168400983
 30
0.0
 11
8.2988165261791522
 21
4.4447639070316924
 31
0.0
  0
LINE
  5
7B
100
AcDbEntity
100
AcDbLine
  8
0
 62
3
420
65280
370
-1
 48
1.0
  6
BYLAYER
 10
7.9999866663746531
 20
4.3382744070315065
 30
0.0
 11
7.7962073730129049
 21
3.8326954168400982
 31
0.0
  0
LINE
  5
7C
100
AcDbEntity
100
AcDbLine
  8
0
 62
3
420
65280
370
-1
 48
1.0
  6
BYLAYER
 10
7.7962073730129049
 20
3.8326954168400982
 30
0.0
 11
8.4202073730129143
 21
2.9356954168400984
 31
0.0
  0
LINE
  5
7D
100
AcDbEntity
100
AcDbLine
  8
0
 62
3
420
65280
370
-1
 48
1.0
  6
BYLAYER
 10
8.6303189342508517
 20
5.9452251406199856
 30
0.0
 11
8.6303189342508517
 21
6.0032713517740053
 31
0.0
  0
LINE
  5
7E
100
AcDbEntity
100
AcDbLine
  8
0
 62
3
420
65280
370
-1
 48
1.0
  6
BYLAYER
 10
8.6303189342508517
 20
5.7442514291775923
 30
0.0
 11
8.6303189342508517
 21
5.8022879034725472
 31
0.0
  0
LINE
  5
7F
100
AcDbEntity
100
AcDbLine
  8
0
 62
3
420
65280
370
-1
 48
1.0
  6
BYLAYER
 10
8.530019372652049
 20
6.0032713517740053
 30
0.0
 11
8.530019372652049
 21
6.3389886406201317
 31
0.0
  0
LINE
  5
80
100
AcDbEntity
100
AcDbLine
  8
0
 62
3
420
65280
370
-1
 48
1.0
  6
BYLAYER
 10
8.9643340116979715
 20
4.7707015674068103
 30
0.0
 11
9.2549641548513648
 21
4.6029061760226275
 31
0.0
  0
LINE
  5
81
100
AcDbEntity
100
AcDbLine
  8
0
 62
3
420
65280
370
-1
 48
1.0
  6
BYLAYER
 10
7.6792743533548418
 20
5.0124066131934741
 30
0.0
 11
7.3885204476831206
 21
4.8445397674859834
 31
0.0
  0
LINE
  5
82
100
AcDbEntity
100
AcDbLine
  8
0
 62
3
420
65280
370
-1
 48
1.0
  6
BYLAYER
 10
8.5307623226520946
 20
5.5292109431982102
 30
0.0
 11
8.530019372652049
 21
5.7442514291775923
 31
0.0
  0
LINE
  5
83
100
AcDbEntity
100
AcDbLine
  8
0
 62
3
420
65280
370
-1
 48
1.0
  6
BYLAYER
 10
8.0906597787308243
 20
5.2499200992750277
 30
0.0
 11
7.9035745863611169
 21
5.1419064130989032
 31
0.0
  0
LINE
  5
84
100
AcDbEntity
100
AcDbLine
  8
0
 62
3
420
65280
370
-1
 48
1.0
  6
BYLAYER
 10
8.552584016573519
 20
5.0084255379307985
 30
0.0
 11
8.7400544217597655
 21
4.9001894490313376
 31
0.0
  0
LINE
  5
85
100
AcDbEntity
100
AcDbLine
  8
0
 62
3
420
65280
370
-1
 48
1.0
  6
BYLAYER
 10
2.6800193726520405
 20
6.0032713517740142
 30
0.0
 11
2.6800193726520405
 21
6.3389886406201317
 31
0.0
  0
LINE
  5
86
100
AcDbEntity
100
AcDbLine
  8
0
 62
3
420
65280
370
-1
 48
1.0
  6
BYLAYER
 10
3.0137213162781222
 20
4.7127807015165004
 30
0.0
 11
3.0641003672077858
 21
4.6836943429006634
 31
0.0
  0
LINE
  5
87
100
AcDbEntity
100
AcDbLine
  8
0
 62
3
420
65280
370
-1
 48
1.0
  6
BYLAYER
 10
2.8398207772697219
 20
4.8131822245251907
 30
0.0
 11
2.8899833046262131
 21
4.7842208758526592
 31
0.0
  0
LINE
  5
88
100
AcDbEntity
100
AcDbLine
  8
0
 62
3
420
65280
370
-1
 48
1.0
  6
BYLAYER
 10
3.114334011697963
 20
4.7707015674068147
 30
0.0
 11
3.4049641548513563
 21
4.602906176022632
 31
0.0
  0
LINE
  5
89
100
AcDbEntity
100
AcDbLine
  8
0
 62
3
420
65280
370
-1
 48
1.0
  6
BYLAYER
 10
1.8292947400816217
 20
5.1284309195174016
 30
0.0
 11
1.7790394516699592
 21
5.0994160152247616
 31
0.0
  0
LINE
  5
8A
100
AcDbEntity
100
AcDbLine
  8
0
 62
3
420
65280
370
-1
 48
1.0
  6
BYLAYER
 10
2.0033396846763338
 20
5.2289158151302972
 30
0.0
 11
1.9530808869288592
 21
5.1998988847215912
 31
0.0
  0
LINE
  5
8B
100
AcDbEntity
100
AcDbLine
  8
0
 62
3
420
65280
370
-1
 48
1.0
  6
BYLAYER
 10
1.8292743533548332
 20
5.0124066131934786
 30
0.0
 11
1.538520447683112
 21
4.8445397674859878
 31
0.0
  0
LINE
  5
8C
100
AcDbEntity
100
AcDbLine
  8
0
 62
3
420
65280
370
-1
 48
1.0
  6
BYLAYER
 10
2.680762322652086
 20
5.529210943198219
 30
0.0
 11
2.6800193726520405
 21
5.7442514291775923
 31
0.0
  0
LINE
  5
8D
100
AcDbEntity
100
AcDbLine
  8
0
 62
3
420
65280
370
-1
 48
1.0
  6
BYLAYER
 10
2.2406597787308016
 20
5.2499200992750321
 30
0.0
 11
2.0535745863610941
 21
5.1419064130989076
 31
0.0
  0
LINE
  5
8E
100
AcDbEntity
100
AcDbLine
  8
0
 62
3
420
65280
370
-1
 48
1.0
  6
BYLAYER
 10
2.7025840165734962
 20
5.0084255379308029
 30
0.0
 11
2.8900544217597712
 21
4.900189449031342
 31
0.0
  0
LINE
  5
8F
100
AcDbEntity
100
AcDbLine
  8
0
 62
3
420
65280
370
-1
 48
1.0
  6
BYLAYER
 10
11.1577482261963041
 20
6.3089960418147655
 30
0.0
 11
10.9706630338265967
 21
6.2009823556386943
 31
0.0
  0
LINE
  5
90
100
AcDbEntity
100
AcDbLine
  8
0
 62
3
420
65280
370
-1
 48
1.0
  6
BYLAYER
 10
11.6974073817163458
 20
7.0043010831597217
 30
0.0
 11
11.6974073817163458
 21
7.0623472943137457
 31
0.0
  0
LINE
  5
91
100
AcDbEntity
100
AcDbLine
  8
0
 62
3
420
65280
370
-1
 48
1.0
  6
BYLAYER
 10
11.6974073817163458
 20
6.8033273717173861
 30
0.0
 11
11.6974073817163458
 21
6.8613638460122868
 31
0.0
  0
LINE
  5
92
100
AcDbEntity
100
AcDbLine
  8
0
 62
3
420
65280
370
-1
 48
1.0
  6
BYLAYER
 10
11.597107820117543
 20
7.0623472943137457
 30
0.0
 11
11.597107820117543
 21
7.3980645831598677
 31
0.0
  0
LINE
  5
93
100
AcDbEntity
100
AcDbLine
  8
0
 62
3
420
65280
370
-1
 48
1.0
  6
BYLAYER
 10
11.930809763743639
 20
5.7718566440562338
 30
0.0
 11
11.9811888146733025
 21
5.7427702854403968
 31
0.0
  0
LINE
  5
94
100
AcDbEntity
100
AcDbLine
  8
0
 62
3
420
65280
370
-1
 48
1.0
  6
BYLAYER
 10
11.7569092247352103
 20
5.8722581670648708
 30
0.0
 11
11.8070717520917157
 21
5.8432968183923926
 31
0.0
  0
LINE
  5
95
100
AcDbEntity
100
AcDbLine
  8
0
 62
3
420
65280
370
-1
 48
1.0
  6
BYLAYER
 10
12.0314224591634655
 20
5.8297775099466014
 30
0.0
 11
12.3220526023168588
 21
5.6619821185623653
 31
0.0
  0
LINE
  5
96
100
AcDbEntity
100
AcDbLine
  8
0
 62
3
420
65280
370
-1
 48
1.0
  6
BYLAYER
 10
11.619672464039013
 20
6.0675014804705363
 30
0.0
 11
11.8071428692252738
 21
5.9592653915710754
 31
0.0
  0
LINE
  5
97
100
AcDbEntity
100
AcDbLine
  8
0
 62
3
420
65280
370
-1
 48
1.0
  6
BYLAYER
 10
10.7463831875471385
 20
6.1875068620570772
 30
0.0
 11
10.6961278991354618
 21
6.158491957764495
 31
0.0
  0
LINE
  5
98
100
AcDbEntity
100
AcDbLine
  8
0
 62
3
420
65280
370
-1
 48
1.0
  6
BYLAYER
 10
10.9204281321418364
 20
6.2879917576699773
 30
0.0
 11
10.8701693343943617
 21
6.2589748272613246
 31
0.0
  0
LINE
  5
99
100
AcDbEntity
100
AcDbLine
  8
0
 62
3
420
65280
370
-1
 48
1.0
  6
BYLAYER
 10
11.5978507701175886
 20
6.5882868857379497
 30
0.0
 11
11.597107820117543
 21
6.8033273717173861
 31
0.0
  0
LINE
  5
9A
100
AcDbEntity
100
AcDbLine
  8
0
 62
3
420
65280
370
-1
 48
1.0
  6
BYLAYER
 10
7.9191600075031516
 20
4.7129720893713865
 30
0.0
 11
7.868904719091816
 21
4.6839571850788593
 31
0.0
  0
LINE
  5
9B
100
AcDbEntity
100
AcDbLine
  8
0
 62
3
420
65280
370
-1
 48
1.0
  6
BYLAYER
 10
7.8187013033546435
 20
4.7709120518491348
 30
0.0
 11
7.5279473976831355
 21
4.603045206141644
 31
0.0
  0
LINE
  5
9C
100
AcDbEntity
100
AcDbLine
  8
0
 62
3
420
65280
370
-1
 48
1.0
  6
BYLAYER
 10
8.2300867287308392
 20
5.0084255379306839
 30
0.0
 11
8.0430015363609186
 21
4.9004118517545585
 31
0.0
  0
LINE
  5
9D
100
AcDbEntity
100
AcDbLine
  8
0
 62
3
420
65280
370
-1
 48
1.0
  6
BYLAYER
 10
8.2511654726521186
 20
5.5288212083952102
 30
0.0
 11
8.2511654726521186
 21
5.7442514291778144
 31
0.0
  0
LINE
  5
9E
100
AcDbEntity
100
AcDbLine
  8
0
 62
3
420
65280
370
-1
 48
1.0
  6
BYLAYER
 10
8.0932049520983043
 20
4.8134569849845104
 30
0.0
 11
8.0429461543504885
 21
4.7844400545756889
 31
0.0
  0
LINE
  5
9F
100
AcDbEntity
100
AcDbLine
  8
0
 62
3
420
65280
370
-1
 48
1.0
  6
BYLAYER
 10
8.251165472652005
 20
6.0032713517741207
 30
0.0
 11
8.251165472652005
 21
6.3389886406201317
 31
0.0
  0
LINE
  5
A0
100
AcDbEntity
100
AcDbLine
  8
0
 62
3
420
65280
370
-1
 48
1.0
  6
BYLAYER
 10
9.1035600645180352
 20
5.1281935990909711
 30
0.0
 11
9.1539391154474714
 21
5.0991072404753597
 31
0.0
  0
LINE
  5
A1
100
AcDbEntity
100
AcDbLine
  8
0
 62
3
420
65280
370
-1
 48
1.0
  6
BYLAYER
 10
9.1037609616980006
 20
5.0121961287511496
 30
0.0
 11
9.3943911048513939
 21
4.8444007373669677
 31
0.0
  0
LINE
  5
A2
100
AcDbEntity
100
AcDbLine
  8
0
 62
3
420
65280
370
-1
 48
1.0
  6
BYLAYER
 10
8.6920109665733207
 20
5.2499200992752542
 30
0.0
 11
8.8794813717599084
 21
5.1416840103755659
 31
0.0
  0
LINE
  5
A3
100
AcDbEntity
100
AcDbLine
  8
0
 62
3
420
65280
370
-1
 48
1.0
  6
BYLAYER
 10
8.9296595255093933
 20
5.228595122099887
 30
0.0
 11
8.9798220528660124
 21
5.19963377342724
 31
0.0
  0
LINE
  5
A4
100
AcDbEntity
100
AcDbLine
  8
0
 62
3
420
65280
370
-1
 48
1.0
  6
BYLAYER
 10
1.968701303354635
 20
4.7709120518491392
 30
0.0
 11
1.677947397683127
 21
4.6030452061416485
 31
0.0
  0
LINE
  5
A5
100
AcDbEntity
100
AcDbLine
  8
0
 62
3
420
65280
370
-1
 48
1.0
  6
BYLAYER
 10
2.3800867287308307
 20
5.0084255379306883
 30
0.0
 11
2.1930015363608959
 21
4.900411851754563
 31
0.0
  0
LINE
  5
A6
100
AcDbEntity
100
AcDbLine
  8
0
 62
3
420
65280
370
-1
 48
1.0
  6
BYLAYER
 10
2.4011654726521101
 20
5.5288212083952102
 30
0.0
 11
2.4011654726521101
 21
5.7442514291778144
 31
0.0
  0
LINE
  5
A7
100
AcDbEntity
100
AcDbLine
  8
0
 62
3
420
65280
370
-1
 48
1.0
  6
BYLAYER
 10
2.300783532301395
 20
5.9452251406203231
 30
0.0
 11
2.300783532301395
 21
6.0032713517740142
 31
0.0
  0
LINE
  5
A8
100
AcDbEntity
100
AcDbLine
  8
0
 62
3
420
65280
370
-1
 48
1.0
  6
BYLAYER
 10
2.4011654726519964
 20
6.0032713517741296
 30
0.0
 11
2.4011654726519964
 21
6.3389886406201317
 31
0.0
  0
LINE
  5
A9
100
AcDbEntity
100
AcDbLine
  8
0
 62
3
420
65280
370
-1
 48
1.0
  6
BYLAYER
 10
2.300783532301395
 20
5.7442514291775923
 30
0.0
 11
2.300783532301395
 21
5.8022879034728927
 31
0.0
  0
LINE
  5
AA
100
AcDbEntity
100
AcDbLine
  8
0
 62
3
420
65280
370
-1
 48
1.0
  6
BYLAYER
 10
3.2537609616979921
 20
5.0121961287511541
 30
0.0
 11
3.5443911048513854
 21
4.8444007373669722
 31
0.0
  0
LINE
  5
AB
100
AcDbEntity
100
AcDbLine
  8
0
 62
3
420
65280
370
-1
 48
1.0
  6
BYLAYER
 10
2.842010966573298
 20
5.2499200992752586
 30
0.0
 11
3.0294813717598998
 21
5.1416840103755703
 31
0.0
  0
LINE
  5
AC
100
AcDbEntity
100
AcDbLine
  8
0
 62
3
420
65280
370
-1
 48
1.0
  6
BYLAYER
 10
10.9862484549686457
 20
5.7720480319111269
 30
0.0
 11
10.93599316655731
 21
5.743033127618598
 31
0.0
  0
LINE
  5
AD
100
AcDbEntity
100
AcDbLine
  8
0
 62
3
420
65280
370
-1
 48
1.0
  6
BYLAYER
 10
11.2971751761963333
 20
6.0675014804704261
 30
0.0
 11
11.1100899838263985
 21
5.9594877942943016
 31
0.0
  0
LINE
  5
AE
100
AcDbEntity
100
AcDbLine
  8
0
 62
3
420
65280
370
-1
 48
1.0
  6
BYLAYER
 10
11.3182539201176127
 20
6.5878971509349507
 30
0.0
 11
11.3182539201176127
 21
6.8033273717174962
 31
0.0
  0
LINE
  5
AF
100
AcDbEntity
100
AcDbLine
  8
0
 62
3
420
65280
370
-1
 48
1.0
  6
BYLAYER
 10
11.1602933995637983
 20
5.8725329275242482
 30
0.0
 11
11.1100346018159826
 21
5.8435159971153743
 31
0.0
  0
LINE
  5
B0
100
AcDbEntity
100
AcDbLine
  8
0
 62
3
420
65280
370
-1
 48
1.0
  6
BYLAYER
 10
11.2178719797668975
 20
7.0043010831600583
 30
0.0
 11
11.2178719797668975
 21
7.0623472943137457
 31
0.0
  0
LINE
  5
B1
100
AcDbEntity
100
AcDbLine
  8
0
 62
3
420
65280
370
-1
 48
1.0
  6
BYLAYER
 10
11.318253920117499
 20
7.0623472943138612
 30
0.0
 11
11.318253920117499
 21
7.3980645831598677
 31
0.0
  0
LINE
  5
B2
100
AcDbEntity
100
AcDbLine
  8
0
 62
3
420
65280
370
-1
 48
1.0
  6
BYLAYER
 10
11.2178719797668975
 20
6.8033273717173861
 30
0.0
 11
11.2178719797668975
 21
6.8613638460126243
 31
0.0
  0
LINE
  5
B3
100
AcDbEntity
100
AcDbLine
  8
0
 62
3
420
65280
370
-1
 48
1.0
  6
BYLAYER
 10
12.1706485119835293
 20
6.1872695416307621
 30
0.0
 11
12.2210275629129654
 21
6.1581831830150975
 31
0.0
  0
LINE
  5
B4
100
AcDbEntity
100
AcDbLine
  8
0
 62
3
420
65280
370
-1
 48
1.0
  6
BYLAYER
 10
12.1708494091634947
 20
6.0712720712908874
 30
0.0
 11
12.461479552316888
 21
5.90347667990671
 31
0.0
  0
LINE
  5
B5
100
AcDbEntity
100
AcDbLine
  8
0
 62
3
420
65280
370
-1
 48
1.0
  6
BYLAYER
 10
11.7590994140388148
 20
6.308996041814992
 30
0.0
 11
11.9465698192254024
 21
6.2007599529153037
 31
0.0
  0
LINE
  5
B6
100
AcDbEntity
100
AcDbLine
  8
0
 62
3
420
65280
370
-1
 48
1.0
  6
BYLAYER
 10
11.9967479729748874
 20
6.287671064639567
 30
0.0
 11
12.0469105003315065
 21
6.2587097159669778
 31
0.0
  0
LINE
  5
B7
100
AcDbEntity
100
AcDbLine
  8
0
 62
3
420
65280
370
-1
 48
1.0
  6
BYLAYER
 10
8.7299833046261313
 20
4.7669003677770343
 30
0.0
 11
8.562750424116004
 21
4.4772445220377559
 31
0.0
  0
LINE
  5
B8
100
AcDbEntity
100
AcDbLine
  8
0
 62
3
420
65280
370
-1
 48
1.0
  6
BYLAYER
 10
7.7930808869288626
 20
5.2172193927972819
 30
0.0
 11
7.6258492636138016
 21
5.5068730610116932
 31
0.0
  0
LINE
  5
B9
100
AcDbEntity
100
AcDbLine
  8
0
 62
3
420
65280
370
-1
 48
1.0
  6
BYLAYER
 10
8.6303189342508517
 20
5.8022879034724406
 30
0.0
 11
8.9849524226521567
 21
5.8022879034723251
 31
0.0
  0
LINE
  5
BA
100
AcDbEntity
100
AcDbLine
  8
0
 62
3
420
65280
370
-1
 48
1.0
  6
BYLAYER
 10
2.8899833046260994
 20
4.7842208758526592
 30
0.0
 11
2.7127504241159954
 21
4.4772445220377604
 31
0.0
  0
LINE
  5
BB
100
AcDbEntity
100
AcDbLine
  8
0
 62
3
420
65280
370
-1
 48
1.0
  6
BYLAYER
 10
1.9530808869288592
 20
5.1998988847215912
 30
0.0
 11
1.775849263613793
 21
5.5068730610116932
 31
0.0
  0
LINE
  5
BC
100
AcDbEntity
100
AcDbLine
  8
0
 62
3
420
65280
370
-1
 48
1.0
  6
BYLAYER
 10
2.8003189342508392
 20
5.8022879034724344
 30
0.0
 11
3.1349524226521481
 21
5.8022879034723251
 31
0.0
  0
LINE
  5
BD
100
AcDbEntity
100
AcDbLine
  8
0
 62
3
420
65280
370
-1
 48
1.0
  6
BYLAYER
 10
7.796232422652011
 20
5.9452251406204297
 30
0.0
 11
8.1307835323014075
 21
5.9452251406203294
 31
0.0
  0
LINE
  5
BE
100
AcDbEntity
100
AcDbLine
  8
0
 62
3
420
65280
370
-1
 48
1.0
  6
BYLAYER
 10
7.796232422652011
 20
5.8022879034731147
 30
0.0
 11
8.1307835323014075
 21
5.8022879034728962
 31
0.0
  0
LINE
  5
BF
100
AcDbEntity
100
AcDbLine
  8
0
 62
3
420
65280
370
-1
 48
1.0
  6
BYLAYER
 10
8.8537213162781256
 20
4.6954601934408151
 30
0.0
 11
8.6864884357680268
 21
4.4058043477014852
 31
0.0
  0
LINE
  5
C0
100
AcDbEntity
100
AcDbLine
  8
0
 62
3
420
65280
370
-1
 48
1.0
  6
BYLAYER
 10
9.2808484357686183
 20
5.4352660656879195
 30
0.0
 11
9.1035600645180352
 21
5.1281935990909711
 31
0.0
  0
LINE
  5
C1
100
AcDbEntity
100
AcDbLine
  8
0
 62
3
420
65280
370
-1
 48
1.0
  6
BYLAYER
 10
9.157110424116695
 20
5.5067062400240774
 30
0.0
 11
8.9798220528660124
 21
5.19963377342724
 31
0.0
  0
LINE
  5
C2
100
AcDbEntity
100
AcDbLine
  8
0
 62
3
420
65280
370
-1
 48
1.0
  6
BYLAYER
 10
7.6692947400816394
 20
5.1457514275930949
 30
0.0
 11
7.5020631167664646
 21
5.4354050958073925
 31
0.0
  0
LINE
  5
C3
100
AcDbEntity
100
AcDbLine
  8
0
 62
3
420
65280
370
-1
 48
1.0
  6
BYLAYER
 10
8.6303189342508517
 20
5.9452251406199856
 30
0.0
 11
8.9849524226521567
 21
5.9452251406197556
 31
0.0
  0
LINE
  5
C4
100
AcDbEntity
100
AcDbLine
  8
0
 62
3
420
65280
370
-1
 48
1.0
  6
BYLAYER
 10
8.1016155280435243
 20
4.3969498576736221
 30
0.0
 11
7.9191600075030379
 21
4.7129720893713865
 31
0.0
  0
LINE
  5
C5
100
AcDbEntity
100
AcDbLine
  8
0
 62
3
420
65280
370
-1
 48
1.0
  6
BYLAYER
 10
8.2202092636132704
 20
4.4774113430245803
 30
0.0
 11
8.0429461543504885
 21
4.7844400545756889
 31
0.0
  0
LINE
  5
C6
100
AcDbEntity
100
AcDbLine
  8
0
 62
3
420
65280
370
-1
 48
1.0
  6
BYLAYER
 10
1.9462324226520025
 20
5.9452251406204386
 30
0.0
 11
2.3007835323012813
 21
5.9452251406203231
 31
0.0
  0
LINE
  5
C7
100
AcDbEntity
100
AcDbLine
  8
0
 62
3
420
65280
370
-1
 48
1.0
  6
BYLAYER
 10
1.9462324226520025
 20
5.8022879034731147
 30
0.0
 11
2.3007835323015087
 21
5.8022879034728927
 31
0.0
  0
LINE
  5
C8
100
AcDbEntity
100
AcDbLine
  8
0
 62
3
420
65280
370
-1
 48
1.0
  6
BYLAYER
 10
3.0137213162781222
 20
4.7127807015165004
 30
0.0
 11
2.8364884357680182
 21
4.4058043477014888
 31
0.0
  0
LINE
  5
C9
100
AcDbEntity
100
AcDbLine
  8
0
 62
3
420
65280
370
-1
 48
1.0
  6
BYLAYER
 10
3.4308484357686098
 20
5.4352660656879284
 30
0.0
 11
3.263560064518046
 21
5.1455141071666555
 31
0.0
  0
LINE
  5
CA
100
AcDbEntity
100
AcDbLine
  8
0
 62
3
420
65280
370
-1
 48
1.0
  6
BYLAYER
 10
3.3071104241166864
 20
5.5067062400240863
 30
0.0
 11
3.139822052866009
 21
5.2169542815029226
 31
0.0
  0
LINE
  5
CB
100
AcDbEntity
100
AcDbLine
  8
0
 62
3
420
65280
370
-1
 48
1.0
  6
BYLAYER
 10
1.8292947400816217
 20
5.1284309195174016
 30
0.0
 11
1.6520631167664561
 21
5.4354050958073925
 31
0.0
  0
LINE
  5
CC
100
AcDbEntity
100
AcDbLine
  8
0
 62
3
420
65280
370
-1
 48
1.0
  6
BYLAYER
 10
2.8003189342508392
 20
5.9452251406199856
 30
0.0
 11
3.1349524226521481
 21
5.9452251406197645
 31
0.0
  0
LINE
  5
CD
100
AcDbEntity
100
AcDbLine
  8
0
 62
3
420
65280
370
-1
 48
1.0
  6
BYLAYER
 10
2.2464231167657971
 20
4.4059433778203951
 30
0.0
 11
2.0791600075030487
 21
4.6956515812956567
 31
0.0
  0
LINE
  5
CE
100
AcDbEntity
100
AcDbLine
  8
0
 62
3
420
65280
370
-1
 48
1.0
  6
BYLAYER
 10
2.3702092636132477
 20
4.4774113430245848
 30
0.0
 11
2.2029461543504709
 21
4.7671195464999965
 31
0.0
  0
LINE
  5
CF
100
AcDbEntity
100
AcDbLine
  8
0
 62
3
420
65280
370
-1
 48
1.0
  6
BYLAYER
 10
9.3943911048513939
 20
4.8444007373669677
 30
0.0
 11
9.2549641548513648
 21
4.6029061760226275
 31
0.0
  0
LINE
  5
D0
100
AcDbEntity
100
AcDbLine
  8
0
 62
3
420
65280
370
-1
 48
1.0
  6
BYLAYER
 10
8.251165472652005
 20
6.3389886406201317
 30
0.0
 11
8.530019372652049
 21
6.3389886406201317
 31
0.0
  0
LINE
  5
D1
100
AcDbEntity
100
AcDbLine
  8
0
 62
3
420
65280
370
-1
 48
1.0
  6
BYLAYER
 10
7.5279473976831355
 20
4.603045206141644
 30
0.0
 11
7.3885204476831206
 21
4.8445397674859834
 31
0.0
  0
LINE
  5
D2
100
AcDbEntity
100
AcDbLine
  8
0
 62
3
420
65280
370
-1
 48
1.0
  6
BYLAYER
 10
3.5443911048513854
 20
4.8444007373669722
 30
0.0
 11
3.4049641548513563
 21
4.602906176022632
 31
0.0
  0
LINE
  5
D3
100
AcDbEntity
100
AcDbLine
  8
0
 62
3
420
65280
370
-1
 48
1.0
  6
BYLAYER
 10
2.4011654726519964
 20
6.3389886406201317
 30
0.0
 11
2.6800193726520405
 21
6.3389886406201317
 31
0.0
  0
LINE
  5
D4
100
AcDbEntity
100
AcDbLine
  8
0
 62
3
420
65280
370
-1
 48
1.0
  6
BYLAYER
 10
1.677947397683127
 20
4.6030452061416485
 30
0.0
 11
1.538520447683112
 21
4.8445397674859878
 31
0.0
  0
LINE
  5
D5
100
AcDbEntity
100
AcDbLine
  8
0
 62
3
420
65280
370
-1
 48
1.0
  6
BYLAYER
 10
12.461479552316888
 20
5.90347667990671
 30
0.0
 11
12.3220526023168588
 21
5.6619821185623653
 31
0.0
  0
LINE
  5
D6
100
AcDbEntity
100
AcDbLine
  8
0
 62
3
420
65280
370
-1
 48
1.0
  6
BYLAYER
 10
11.318253920117499
 20
7.3980645831598677
 30
0.0
 11
11.597107820117543
 21
7.3980645831598677
 31
0.0
  0
LINE
  5
D7
100
AcDbEntity
100
AcDbLine
  8
0
 62
3
420
65280
370
-1
 48
1.0
  6
BYLAYER
 10
10.5950358451486295
 20
5.6621211486813818
 30
0.0
 11
10.4556088951486004
 21
5.9036157100257221
 31
0.0
  0
LINE
  5
D8
100
AcDbEntity
100
AcDbLine
  8
0
 62
3
420
65280
370
-1
 48
1.0
  6
BYLAYER
 10
8.530019372652049
 20
6.0032713517740053
 30
0.0
 11
8.6303189342508517
 21
6.0032713517740053
 31
0.0
  0
LINE
  5
D9
100
AcDbEntity
100
AcDbLine
  8
0
 62
3
420
65280
370
-1
 48
1.0
  6
BYLAYER
 10
8.9643340116979715
 20
4.7707015674068103
 30
0.0
 11
8.904100367207775
 21
4.6663738348249817
 31
0.0
  0
LINE
  5
DA
100
AcDbEntity
100
AcDbLine
  8
0
 62
3
420
65280
370
-1
 48
1.0
  6
BYLAYER
 10
7.6792743533548418
 20
5.0124066131935896
 30
0.0
 11
7.6190394516699769
 21
5.1167365233004514
 31
0.0
  0
LINE
  5
DB
100
AcDbEntity
100
AcDbLine
  8
0
 62
3
420
65280
370
-1
 48
1.0
  6
BYLAYER
 10
2.6800193726520405
 20
6.0032713517740142
 30
0.0
 11
2.8003189342508392
 21
6.0032713517740142
 31
0.0
  0
LINE
  5
DC
100
AcDbEntity
100
AcDbLine
  8
0
 62
3
420
65280
370
-1
 48
1.0
  6
BYLAYER
 10
3.114334011697963
 20
4.7707015674068147
 30
0.0
 11
3.0641003672077858
 21
4.6836943429006634
 31
0.0
  0
LINE
  5
DD
100
AcDbEntity
100
AcDbLine
  8
0
 62
3
420
65280
370
-1
 48
1.0
  6
BYLAYER
 10
1.8292743533548332
 20
5.012406613193594
 30
0.0
 11
1.7790394516699592
 21
5.0994160152247616
 31
0.0
  0
LINE
  5
DE
100
AcDbEntity
100
AcDbLine
  8
0
 62
3
420
65280
370
-1
 48
1.0
  6
BYLAYER
 10
11.597107820117543
 20
7.0623472943137457
 30
0.0
 11
11.6974073817163458
 21
7.0623472943137457
 31
0.0
  0
LINE
  5
DF
100
AcDbEntity
100
AcDbLine
  8
0
 62
3
420
65280
370
-1
 48
1.0
  6
BYLAYER
 10
12.0314224591634655
 20
5.8297775099466014
 30
0.0
 11
11.9811888146733025
 21
5.7427702854403968
 31
0.0
  0
LINE
  5
E0
100
AcDbEntity
100
AcDbLine
  8
0
 62
3
420
65280
370
-1
 48
1.0
  6
BYLAYER
 10
10.7463628008203358
 20
6.0714825557332697
 30
0.0
 11
10.6961278991354618
 21
6.158491957764495
 31
0.0
  0
LINE
  5
E1
100
AcDbEntity
100
AcDbLine
  8
0
 62
3
420
65280
370
-1
 48
1.0
  6
BYLAYER
 10
7.868904719091816
 20
4.6839571850788593
 30
0.0
 11
7.8187013033546435
 21
4.7709120518490193
 31
0.0
  0
LINE
  5
E2
100
AcDbEntity
100
AcDbLine
  8
0
 62
3
420
65280
370
-1
 48
1.0
  6
BYLAYER
 10
8.1307835323014075
 20
6.0032713517740053
 30
0.0
 11
8.251165472652005
 21
6.0032713517741207
 31
0.0
  0
LINE
  5
E3
100
AcDbEntity
100
AcDbLine
  8
0
 62
3
420
65280
370
-1
 48
1.0
  6
BYLAYER
 10
9.1539391154474714
 20
5.0991072404753597
 30
0.0
 11
9.1037609616980006
 21
5.0121961287511496
 31
0.0
  0
LINE
  5
E4
100
AcDbEntity
100
AcDbLine
  8
0
 62
3
420
65280
370
-1
 48
1.0
  6
BYLAYER
 10
2.0289047190918126
 20
4.6666366770031811
 30
0.0
 11
1.968701303354635
 21
4.7709120518490238
 31
0.0
  0
LINE
  5
E5
100
AcDbEntity
100
AcDbLine
  8
0
 62
3
420
65280
370
-1
 48
1.0
  6
BYLAYER
 10
2.300783532301395
 20
6.0032713517740142
 30
0.0
 11
2.4011654726519964
 21
6.0032713517741296
 31
0.0
  0
LINE
  5
E6
100
AcDbEntity
100
AcDbLine
  8
0
 62
3
420
65280
370
-1
 48
1.0
  6
BYLAYER
 10
3.3139391154474538
 20
5.1164277485510556
 30
0.0
 11
3.2537609616979921
 21
5.0121961287511541
 31
0.0
  0
LINE
  5
E7
100
AcDbEntity
100
AcDbLine
  8
0
 62
3
420
65280
370
-1
 48
1.0
  6
BYLAYER
 10
10.93599316655731
 20
5.743033127618598
 30
0.0
 11
10.8857897508201376
 21
5.8299879943887571
 31
0.0
  0
LINE
  5
E8
100
AcDbEntity
100
AcDbLine
  8
0
 62
3
420
65280
370
-1
 48
1.0
  6
BYLAYER
 10
11.2178719797668975
 20
7.0623472943137457
 30
0.0
 11
11.318253920117499
 21
7.0623472943138612
 31
0.0
  0
LINE
  5
E9
100
AcDbEntity
100
AcDbLine
  8
0
 62
3
420
65280
370
-1
 48
1.0
  6
BYLAYER
 10
12.2210275629129654
 20
6.1581831830150975
 30
0.0
 11
12.1708494091634947
 21
6.0712720712909451
 31
0.0
  0
LINE
  5
EA
100
AcDbEntity
100
AcDbLine
  8
0
 62
3
420
65280
370
-1
 48
1.0
  6
BYLAYER
 10
8.1307835323014075
 20
5.7442514291775923
 30
0.0
 11
8.251165472652005
 21
5.7442514291778144
 31
0.0
  0
LINE
  5
EB
100
AcDbEntity
100
AcDbLine
  8
0
 62
3
420
65280
370
-1
 48
1.0
  6
BYLAYER
 10
8.9296595255093933
 20
5.228595122099887
 30
0.0
 11
8.8794813717600221
 21
5.1416840103756769
 31
0.0
  0
LINE
  5
EC
100
AcDbEntity
100
AcDbLine
  8
0
 62
3
420
65280
370
-1
 48
1.0
  6
BYLAYER
 10
8.0932049520983043
 20
4.8134569849845104
 30
0.0
 11
8.0430015363609186
 21
4.9004118517545585
 31
0.0
  0
LINE
  5
ED
100
AcDbEntity
100
AcDbLine
  8
0
 62
3
420
65280
370
-1
 48
1.0
  6
BYLAYER
 10
2.300783532301395
 20
5.7442514291775923
 30
0.0
 11
2.4011654726519964
 21
5.7442514291778144
 31
0.0
  0
LINE
  5
EE
100
AcDbEntity
100
AcDbLine
  8
0
 62
3
420
65280
370
-1
 48
1.0
  6
BYLAYER
 10
3.0896595255094041
 20
5.2459156301755696
 30
0.0
 11
3.0294813717600135
 21
5.1416840103756813
 31
0.0
  0
LINE
  5
EF
100
AcDbEntity
100
AcDbLine
  8
0
 62
3
420
65280
370
-1
 48
1.0
  6
BYLAYER
 10
2.2532049520982866
 20
4.7961364769088224
 30
0.0
 11
2.1930015363608959
 21
4.900411851754563
 31
0.0
  0
LINE
  5
F0
100
AcDbEntity
100
AcDbLine
  8
0
 62
3
420
65280
370
-1
 48
1.0
  6
BYLAYER
 10
11.2178719797668975
 20
6.8033273717173861
 30
0.0
 11
11.318253920117499
 21
6.8033273717174962
 31
0.0
  0
LINE
  5
F1
100
AcDbEntity
100
AcDbLine
  8
0
 62
3
420
65280
370
-1
 48
1.0
  6
BYLAYER
 10
11.9967479729748874
 20
6.287671064639567
 30
0.0
 11
11.9465698192255161
 21
6.2007599529154147
 31
0.0
  0
LINE
  5
F2
100
AcDbEntity
100
AcDbLine
  8
0
 62
3
420
65280
370
-1
 48
1.0
  6
BYLAYER
 10
11.1602933995637983
 20
5.8725329275242482
 30
0.0
 11
11.1100899838263985
 21
5.9594877942943016
 31
0.0
  0
LINE
  5
F3
100
AcDbEntity
100
AcDbLine
  8
0
 62
3
420
65280
370
-1
 48
1.0
  6
BYLAYER
 10
8.530019372652049
 20
5.7442514291775923
 30
0.0
 11
8.6303189342508517
 21
5.7442514291775923
 31
0.0
  0
LINE
  5
F4
100
AcDbEntity
100
AcDbLine
  8
0
 62
3
420
65280
370
-1
 48
1.0
  6
BYLAYER
 10
8.7400544217597655
 20
4.9001894490313376
 30
0.0
 11
8.6798207772697253
 21
4.795861716449501
 31
0.0
  0
LINE
  5
F5
100
AcDbEntity
100
AcDbLine
  8
0
 62
3
420
65280
370
-1
 48
1.0
  6
BYLAYER
 10
7.9035745863611169
 20
5.1419064130990142
 30
0.0
 11
7.843339684676323
 21
5.2462363232059737
 31
0.0
  0
LINE
  5
F6
100
AcDbEntity
100
AcDbLine
  8
0
 62
3
420
65280
370
-1
 48
1.0
  6
BYLAYER
 10
2.6800193726520405
 20
5.7442514291775923
 30
0.0
 11
2.8003189342508392
 21
5.7442514291775923
 31
0.0
  0
LINE
  5
F7
100
AcDbEntity
100
AcDbLine
  8
0
 62
3
420
65280
370
-1
 48
1.0
  6
BYLAYER
 10
2.8900544217597712
 20
4.900189449031342
 30
0.0
 11
2.8398207772697219
 21
4.8131822245251907
 31
0.0
  0
LINE
  5
F8
100
AcDbEntity
100
AcDbLine
  8
0
 62
3
420
65280
370
-1
 48
1.0
  6
BYLAYER
 10
2.0535745863610941
 20
5.1419064130990186
 30
0.0
 11
2.0033396846763338
 21
5.2289158151302972
 31
0.0
  0
LINE
  5
F9
100
AcDbEntity
100
AcDbLine
  8
0
 62
3
420
65280
370
-1
 48
1.0
  6
BYLAYER
 10
11.597107820117543
 20
6.8033273717173861
 30
0.0
 11
11.6974073817163458
 21
6.8033273717173861
 31
0.0
  0
LINE
  5
FA
100
AcDbEntity
100
AcDbLine
  8
0
 62
3
420
65280
370
-1
 48
1.0
  6
BYLAYER
 10
11.8071428692252738
 20
5.9592653915710754
 30
0.0
 11
11.7569092247352103
 21
5.8722581670648708
 31
0.0
  0
LINE
  5
FB
100
AcDbEntity
100
AcDbLine
  8
0
 62
3
420
65280
370
-1
 48
1.0
  6
BYLAYER
 10
10.9706630338265967
 20
6.200982355638752
 30
0.0
 11
10.9204281321418364
 21
6.2879917576699773
 31
0.0
  0
LINE
  5
FC
100
AcDbEntity
100
AcDbLine
  8
0
 62
3
420
65280
370
-1
 48
1.0
  6
BYLAYER
 10
9.2808484357686183
 20
5.4352660656879195
 30
0.0
 11
9.7076461063502961
 21
5.1888543156880615
 31
0.0
  0
LINE
  5
FD
100
AcDbEntity
100
AcDbLine
  8
0
 62
3
420
65280
370
-1
 48
1.0
  6
BYLAYER
 10
2.2464231167657971
 20
4.4059433778203951
 30
0.0
 11
2.3702092636132335
 21
4.4774113430245857
 31
0.0
  0
LINE
  5
FE
100
AcDbEntity
100
AcDbLine
  8
0
 62
3
420
65280
370
-1
 48
1.0
  6
BYLAYER
 10
1.9462324226520025
 20
5.9452251406204386
 30
0.0
 11
1.9462324226521019
 21
6.4380486406201571
 31
0.0
  0
LINE
  5
FF
100
AcDbEntity
100
AcDbLine
  8
0
 62
3
420
65280
370
-1
 48
1.0
  6
BYLAYER
 10
12.3479368832340981
 20
6.4943420082276591
 30
0.0
 11
12.7747345538157902
 21
6.2479302582277993
 31
0.0
  0
LINE
  5
100
100
AcDbEntity
100
AcDbLine
  8
0
 62
3
420
65280
370
-1
 48
1.0
  6
BYLAYER
 10
11.1635115642312996
 20
5.4650193203601303
 30
0.0
 11
10.7367138936497213
 21
5.2186075703602688
 31
0.0
  0
LINE
  5
101
100
AcDbEntity
100
AcDbLine
  8
0
 62
3
420
65280
370
-1
 48
1.0
  6
BYLAYER
 10
10.8633208701174908
 20
7.004301083160227
 30
0.0
 11
10.8633208701176187
 21
7.4971245831598932
 31
0.0
  0
LINE
  5
102
100
AcDbEntity
100
AcDbLine
  8
0
 62
3
420
65280
370
-1
 48
1.0
  6
BYLAYER
 10
9.7076461063502961
 20
5.1888543156880615
 30
0.0
 11
9.6678315358470144
 21
4.5255334566947516
 31
0.0
  0
LINE
  5
103
100
AcDbEntity
100
AcDbLine
  8
0
 62
3
420
65280
370
-1
 48
1.0
  6
BYLAYER
 10
1.846223196008637
 20
4.0368899682498443
 30
0.0
 11
1.2650800166874916
 21
4.525672486813888
 31
0.0
  0
LINE
  5
104
100
AcDbEntity
100
AcDbLine
  8
0
 62
3
420
65280
370
-1
 48
1.0
  6
BYLAYER
 10
1.9462324226521019
 20
6.4380486406201571
 30
0.0
 11
2.5405924226520114
 21
6.7352286406201083
 31
0.0
  0
LINE
  5
105
100
AcDbEntity
100
AcDbLine
  8
0
 62
3
420
65280
370
-1
 48
1.0
  6
BYLAYER
 10
12.7747345538157902
 20
6.2479302582277993
 30
0.0
 11
12.7349199833125084
 21
5.5846093992344938
 31
0.0
  0
LINE
  5
106
100
AcDbEntity
100
AcDbLine
  8
0
 62
3
420
65280
370
-1
 48
1.0
  6
BYLAYER
 10
10.7367138936497213
 20
5.2186075703602688
 30
0.0
 11
10.1821684641529941
 21
5.5847484293536214
 31
0.0
  0
LINE
  5
107
100
AcDbEntity
100
AcDbLine
  8
0
 62
3
420
65280
370
-1
 48
1.0
  6
BYLAYER
 10
10.8633208701176187
 20
7.4971245831598932
 30
0.0
 11
11.4576808701175139
 21
7.794304583159902
 31
0.0
  0
LINE
  5
108
100
AcDbEntity
100
AcDbLine
  8
0
 62
3
420
65280
370
-1
 48
1.0
  6
BYLAYER
 10
9.6678315358470144
 20
4.5255334566947516
 30
0.0
 11
9.118544223732755
 21
4.1628642909346372
 31
0.0
  0
LINE
  5
109
100
AcDbEntity
100
AcDbLine
  8
0
 62
3
420
65280
370
-1
 48
1.0
  6
BYLAYER
 10
8.3905924226520199
 20
6.7352286406201083
 30
0.0
 11
8.9849524226520572
 21
6.4380486406201571
 31
0.0
  0
LINE
  5
10A
100
AcDbEntity
100
AcDbLine
  8
0
 62
3
420
65280
370
-1
 48
1.0
  6
BYLAYER
 10
3.8270346184159791
 20
4.5122286406201084
 30
0.0
 11
3.2462231960086285
 21
4.0368899682498443
 31
0.0
  0
LINE
  5
10B
100
AcDbEntity
100
AcDbLine
  8
0
 62
3
420
65280
370
-1
 48
1.0
  6
BYLAYER
 10
1.2650800166874916
 20
4.525672486813888
 30
0.0
 11
1.2252654461841956
 21
5.1889933458071935
 31
0.0
  0
LINE
  5
10C
100
AcDbEntity
100
AcDbLine
  8
0
 62
3
420
65280
370
-1
 48
1.0
  6
BYLAYER
 10
8.3905924226520199
 20
6.7352286406201083
 30
0.0
 11
7.1425924226520152
 21
6.1112286406201086
 31
0.0
  0
LINE
  5
10D
100
AcDbEntity
100
AcDbLine
  8
0
 62
3
420
65280
370
-1
 48
1.0
  6
BYLAYER
 10
12.7349199833125084
 20
5.5846093992344938
 30
0.0
 11
12.1803745538157671
 21
5.2184685402411395
 31
0.0
  0
LINE
  5
10E
100
AcDbEntity
100
AcDbLine
  8
0
 62
3
420
65280
370
-1
 48
1.0
  6
BYLAYER
 10
10.1821684641529941
 20
5.5847484293536214
 30
0.0
 11
10.1423538936496982
 21
6.2480692883469313
 31
0.0
  0
LINE
  5
10F
100
AcDbEntity
100
AcDbLine
  8
0
 62
3
420
65280
370
-1
 48
1.0
  6
BYLAYER
 10
11.4576808701175139
 20
7.794304583159902
 30
0.0
 11
12.052040870117537
 21
7.4971245831598932
 31
0.0
  0
LINE
  5
110
100
AcDbEntity
100
AcDbLine
  8
0
 62
3
420
65280
370
-1
 48
1.0
  6
BYLAYER
 10
2.5405924226520114
 20
6.7352286406201083
 30
0.0
 11
3.788592422652016
 21
6.1112286406201086
 31
0.0
  0
LINE
  5
111
100
AcDbEntity
100
AcDbLine
  8
0
 62
256
370
-1
 48
1.0
  6
BYLAYER
 10
9.1254876101992721
 20
4.1523480561696307
 30
0.0
 11
9.1254876101992721
 21
4.1523480561696307
 31
0.0
  0
LINE
  5
112
100
AcDbEntity
100
AcDbLine
  8
0
 62
3
420
65280
370
-1
 48
1.0
  6
BYLAYER
 10
7.1003948450577781
 20
5.2035018110114883
 30
0.0
 11
7.1003948450577781
 21
5.2035018110114883
 31
0.0
  0
LINE
  5
113
100
AcDbEntity
100
AcDbLine
  8
0
 62
3
420
65280
370
-1
 48
1.0
  6
BYLAYER
 10
8.9849524226521567
 20
6.4529783392409898
 30
0.0
 11
8.9849524226521567
 21
6.4529783392409898
 31
0.0
  0
LINE
  5
114
100
AcDbEntity
100
AcDbLine
  8
0
 62
3
420
65280
370
-1
 48
1.0
  6
BYLAYER
 10
3.2754876101992636
 20
4.1523480561696342
 30
0.0
 11
3.2754876101992636
 21
4.1523480561696342
 31
0.0
  0
LINE
  5
115
100
AcDbEntity
100
AcDbLine
  8
0
 62
3
420
65280
370
-1
 48
1.0
  6
BYLAYER
 10
1.2503948450577695
 20
5.2035018110114928
 30
0.0
 11
1.2503948450577695
 21
5.2035018110114928
 31
0.0
  0
LINE
  5
116
100
AcDbEntity
100
AcDbLine
  8
0
 62
3
420
65280
370
-1
 48
1.0
  6
BYLAYER
 10
3.1349524226521481
 20
6.4529783392409898
 30
0.0
 11
3.1349524226521481
 21
6.4529783392409898
 31
0.0
  0
LINE
  5
117
100
AcDbEntity
100
AcDbLine
  8
0
 62
256
370
-1
 48
1.0
  6
BYLAYER
 10
7.6589774722912409
 20
4.1413926570316013
 30
0.0
 11
7.6589774722912409
 21
4.1413926570316013
 31
0.0
  0
LINE
  5
118
100
AcDbEntity
100
AcDbLine
  8
0
 62
3
420
65280
370
-1
 48
1.0
  6
BYLAYER
 10
7.7962324226519968
 20
6.4380486406201571
 30
0.0
 11
7.7962324226519968
 21
6.4380486406201571
 31
0.0
  0
LINE
  5
119
100
AcDbEntity
100
AcDbLine
  8
0
 62
3
420
65280
370
-1
 48
1.0
  6
BYLAYER
 10
12.1925760576647662
 20
5.2114239987093702
 30
0.0
 11
12.1925760576647662
 21
5.2114239987093702
 31
0.0
  0
LINE
  5
11A
100
AcDbEntity
100
AcDbLine
  8
0
 62
3
420
65280
370
-1
 48
1.0
  6
BYLAYER
 10
10.1674832925232721
 20
6.262577753551227
 30
0.0
 11
10.1674832925232721
 21
6.262577753551227
 31
0.0
  0
LINE
  5
11B
100
AcDbEntity
100
AcDbLine
  8
0
 62
3
420
65280
370
-1
 48
1.0
  6
BYLAYER
 10
12.0520408701176507
 20
7.5120542817806726
 30
0.0
 11
12.0520408701176507
 21
7.5120542817806726
 31
0.0
  0
LINE
  5
11C
100
AcDbEntity
100
AcDbLine
  8
0
 62
3
420
65280
370
-1
 48
1.0
  6
BYLAYER
 10
3.7293124226520717
 20
6.140868640620206
 30
0.0
 11
3.7293124226520717
 21
6.140868640620206
 31
0.0
  0
LINE
  5
11D
100
AcDbEntity
100
AcDbLine
  8
0
 62
3
420
65280
370
-1
 48
1.0
  6
BYLAYER
 10
12.3526986837251371
 20
5.1208002958868182
 30
0.0
 11
12.3526986837251371
 21
5.1208002958868182
 31
0.0
  0
LINE
  5
11E
100
AcDbEntity
100
AcDbLine
  8
0
 62
3
420
65280
370
-1
 48
1.0
  6
BYLAYER
 10
8.9849524226520572
 20
6.4380486406201571
 30
0.0
 11
8.9849524226521567
 21
5.9452251406197556
 31
0.0
  0
LINE
  5
11F
100
AcDbEntity
100
AcDbLine
  8
0
 62
3
420
65280
370
-1
 48
1.0
  6
BYLAYER
 10
3.2462231960086285
 20
4.0368899682498443
 30
0.0
 11
1.846223196008637
 21
4.0368899682498443
 31
0.0
  0
LINE
  5
120
100
AcDbEntity
100
AcDbLine
  8
0
 62
3
420
65280
370
-1
 48
1.0
  6
BYLAYER
 10
1.2252654461841956
 20
5.1889933458071935
 30
0.0
 11
1.6520631167664561
 21
5.4354050958073925
 31
0.0
  0
LINE
  5
121
100
AcDbEntity
100
AcDbLine
  8
0
 62
3
420
65280
370
-1
 48
1.0
  6
BYLAYER
 10
12.1803745538157671
 20
5.2184685402411395
 30
0.0
 11
11.7535768832335208
 21
5.4648802902412781
 31
0.0
  0
LINE
  5
122
100
AcDbEntity
100
AcDbLine
  8
0
 62
3
420
65280
370
-1
 48
1.0
  6
BYLAYER
 10
10.1423538936496982
 20
6.2480692883469313
 30
0.0
 11
10.5691515642319587
 21
6.4944810383471809
 31
0.0
  0
LINE
  5
123
100
AcDbEntity
100
AcDbLine
  8
0
 62
3
420
65280
370
-1
 48
1.0
  6
BYLAYER
 10
12.052040870117537
 20
7.4971245831598932
 30
0.0
 11
12.0520408701176507
 21
7.0043010831594952
 31
0.0
  0
ARC
  5
124
100
AcDbEntity
  8
0
 62
3
420
65280
370
-1
 48
1.0
  6
BYLAYER
100
AcDbCircle
 10
8.3913353726520654
 20
5.26251886013468
 30
0.0
 40
0.3009394317052707
100
AcDbArc
 50
357.6006239928848913
 51
62.3993760071328154
  0
ARC
  5
125
100
AcDbEntity
  8
0
 62
3
420
65280
370
-1
 48
1.0
  6
BYLAYER
100
AcDbCircle
 10
8.3913353726520654
 20
5.26251886013468
 30
0.0
 40
0.3009394317052707
100
AcDbArc
 50
117.6006239928552191
 51
182.3993760071419956
  0
ARC
  5
126
100
AcDbEntity
  8
0
 62
3
420
65280
370
-1
 48
1.0
  6
BYLAYER
100
AcDbCircle
 10
8.3913353726520654
 20
5.26251886013468
 30
0.0
 40
0.3009394317052707
100
AcDbArc
 50
237.6006239928553612
 51
302.3993760071594465
  0
ARC
  5
127
100
AcDbEntity
  8
0
 62
3
420
65280
370
-1
 48
1.0
  6
BYLAYER
100
AcDbCircle
 10
2.5413353726520569
 20
5.2625188601346844
 30
0.0
 40
0.3009394317052707
100
AcDbArc
 50
357.6006239928848913
 51
62.3993760071328154
  0
ARC
  5
128
100
AcDbEntity
  8
0
 62
3
420
65280
370
-1
 48
1.0
  6
BYLAYER
100
AcDbCircle
 10
2.5413353726520569
 20
5.2625188601346844
 30
0.0
 40
0.3009394317052707
100
AcDbArc
 50
117.6006239928552191
 51
182.3993760071419956
  0
ARC
  5
129
100
AcDbEntity
  8
0
 62
3
420
65280
370
-1
 48
1.0
  6
BYLAYER
100
AcDbCircle
 10
2.5413353726520569
 20
5.2625188601346844
 30
0.0
 40
0.3009394317052707
100
AcDbArc
 50
237.6006239928553612
 51
302.3993760071594465
  0
ARC
  5
12A
100
AcDbEntity
  8
0
 62
3
420
65280
370
-1
 48
1.0
  6
BYLAYER
100
AcDbCircle
 10
11.4584238201175594
 20
6.3215948026744178
 30
0.0
 40
0.3009394317052707
100
AcDbArc
 50
357.6006239928848913
 51
62.3993760071328154
  0
ARC
  5
12B
100
AcDbEntity
  8
0
 62
3
420
65280
370
-1
 48
1.0
  6
BYLAYER
100
AcDbCircle
 10
11.4584238201175594
 20
6.3215948026744178
 30
0.0
 40
0.3009394317052707
100
AcDbArc
 50
117.6006239928552191
 51
182.3993760071419956
  0
ARC
  5
12C
100
AcDbEntity
  8
0
 62
3
420
65280
370
-1
 48
1.0
  6
BYLAYER
100
AcDbCircle
 10
11.4584238201175594
 20
6.3215948026744178
 30
0.0
 40
0.3009394317052707
100
AcDbArc
 50
237.6006239928553612
 51
302.3993760071594465
  0
LINE
  5
12D
100
AcDbEntity
100
AcDbLine
  8
0
 62
3
420
65280
370
-1
 48
1.0
  6
BYLAYER
 10
2.9195135679242128
 20
4.357869765301511
 30
0.0
 11
2.8365365709633465
 21
4.4057765568334686
 31
0.0
  0
LINE
  5
12E
100
AcDbEntity
100
AcDbLine
  8
0
 62
3
420
65280
370
-1
 48
1.0
  6
BYLAYER
 10
2.7127504241159954
 20
4.4772445220377604
 30
0.0
 11
2.6297734271551292
 21
4.5251513135697179
 31
0.0
  0
LINE
  5
12F
100
AcDbEntity
100
AcDbLine
  8
0
 62
3
420
65280
370
-1
 48
1.0
  6
BYLAYER
 10
8.9849524226521567
 20
5.8022879034723251
 30
0.0
 11
8.9849524226519435
 21
5.7064743204084669
 31
0.0
  0
LINE
  5
130
100
AcDbEntity
100
AcDbLine
  8
0
 62
3
420
65280
370
-1
 48
1.0
  6
BYLAYER
 10
7.7962324226518973
 20
5.8022879034731147
 30
0.0
 11
7.7962324226519968
 21
5.9452251406204297
 31
0.0
  0
LINE
  5
131
100
AcDbEntity
100
AcDbLine
  8
0
 62
3
420
65280
370
-1
 48
1.0
  6
BYLAYER
 10
3.1349524226521481
 20
5.8022879034723251
 30
0.0
 11
3.1349524226521623
 21
5.9452251406197645
 31
0.0
  0
LINE
  5
132
100
AcDbEntity
100
AcDbLine
  8
0
 62
3
420
65280
370
-1
 48
1.0
  6
BYLAYER
 10
1.9462324226518888
 20
5.8022879034731147
 30
0.0
 11
1.9462324226521019
 21
5.7064743204092565
 31
0.0
  0
LINE
  5
133
100
AcDbEntity
100
AcDbLine
  8
0
 62
3
420
65280
370
-1
 48
1.0
  6
BYLAYER
 10
12.0520408701176507
 20
6.8613638460120612
 30
0.0
 11
12.0520408701174375
 21
6.7655502629482607
 31
0.0
  0
LINE
  5
134
100
AcDbEntity
100
AcDbLine
  8
0
 62
3
420
65280
370
-1
 48
1.0
  6
BYLAYER
 10
10.8633208701173913
 20
6.8613638460128499
 30
0.0
 11
10.8633208701176187
 21
6.7655502629489925
 31
0.0
  0
LINE
  5
135
100
AcDbEntity
100
AcDbLine
  8
0
 62
3
420
65280
370
-1
 48
1.0
  6
BYLAYER
 10
2.629773427155115
 20
4.5251513135697321
 30
0.0
 11
2.5888436626194107
 21
4.4542588818521063
 31
0.0
  0
LINE
  5
136
100
AcDbEntity
100
AcDbLine
  8
0
 62
3
420
65280
370
-1
 48
1.0
  6
BYLAYER
 10
2.9195135679242128
 20
4.357869765301511
 30
0.0
 11
2.8785838033885085
 21
4.286977333583887
 31
0.0
  0
LINE
  5
137
100
AcDbEntity
100
AcDbLine
  8
0
 62
3
420
65280
370
-1
 48
1.0
  6
BYLAYER
 10
8.9849524226519435
 20
5.7064743204084669
 30
0.0
 11
9.0395254420328541
 21
5.7064743204084669
 31
0.0
  0
LINE
  5
138
100
AcDbEntity
100
AcDbLine
  8
0
 62
3
420
65280
370
-1
 48
1.0
  6
BYLAYER
 10
1.9462324226523293
 20
5.7064743204092565
 30
0.0
 11
1.8916594032714187
 21
5.7064743204092565
 31
0.0
  0
LINE
  5
139
100
AcDbEntity
100
AcDbLine
  8
0
 62
3
420
65280
370
-1
 48
1.0
  6
BYLAYER
 10
12.0520408701174375
 20
6.7655502629482607
 30
0.0
 11
12.1066138894983482
 21
6.7655502629482607
 31
0.0
  0
LINE
  5
13A
100
AcDbEntity
100
AcDbLine
  8
0
 62
3
420
65280
370
-1
 48
1.0
  6
BYLAYER
 10
10.8633208701178319
 20
6.7655502629489925
 30
0.0
 11
10.8087478507369212
 21
6.7655502629489925
 31
0.0
  0
LINE
  5
13B
100
AcDbEntity
100
AcDbLine
  8
0
 62
3
420
65280
370
-1
 48
1.0
  6
BYLAYER
 10
8.6864884357680268
 20
4.4058043477014781
 30
0.0
 11
8.562750424116004
 21
4.4772445220377559
 31
0.0
  0
LINE
  5
13C
100
AcDbEntity
100
AcDbLine
  8
0
 62
3
420
65280
370
-1
 48
1.0
  6
BYLAYER
 10
8.2650279560686783
 20
4.5032874271784271
 30
0.0
 11
8.2202092636132704
 21
4.4774113430245803
 31
0.0
  0
LINE
  5
13D
100
AcDbEntity
100
AcDbLine
  8
0
 62
3
420
65280
370
-1
 48
1.0
  6
BYLAYER
 10
9.071321947617065
 20
5.5562362400238108
 30
0.0
 11
9.157110424116027
 21
5.5067062400238553
 31
0.0
  0
LINE
  5
13E
100
AcDbEntity
100
AcDbLine
  8
0
 62
3
420
65280
370
-1
 48
1.0
  6
BYLAYER
 10
7.5020631167664646
 20
5.4354050958073925
 30
0.0
 11
7.6258492636139152
 21
5.5068730610117989
 31
0.0
  0
LINE
  5
13F
100
AcDbEntity
100
AcDbLine
  8
0
 62
3
420
65280
370
-1
 48
1.0
  6
BYLAYER
 10
3.4308484357686098
 20
5.4352660656879284
 30
0.0
 11
3.3071104241160185
 21
5.5067062400238553
 31
0.0
  0
LINE
  5
140
100
AcDbEntity
100
AcDbLine
  8
0
 62
3
420
65280
370
-1
 48
1.0
  6
BYLAYER
 10
1.8616377401128688
 20
5.5564030610117632
 30
0.0
 11
1.7758492636139067
 21
5.5068730610118077
 31
0.0
  0
LINE
  5
141
100
AcDbEntity
100
AcDbLine
  8
0
 62
3
420
65280
370
-1
 48
1.0
  6
BYLAYER
 10
8.1016155280435243
 20
4.3969498576736221
 30
0.0
 11
7.9999866663746531
 21
4.3382744070315065
 31
0.0
  0
LINE
  5
142
100
AcDbEntity
100
AcDbLine
  8
0
 62
3
420
65280
370
-1
 48
1.0
  6
BYLAYER
 10
11.3730861875776128
 20
5.5860172855643331
 30
0.0
 11
11.2872977110787502
 21
5.5364872855643776
 31
0.0
  0
LINE
  5
143
100
AcDbEntity
100
AcDbLine
  8
0
 62
3
420
65280
370
-1
 48
1.0
  6
BYLAYER
 10
12.138410395082559
 20
6.6153121825635459
 30
0.0
 11
12.3479368832340981
 21
6.4943420082276591
 31
0.0
  0
LINE
  5
144
100
AcDbEntity
100
AcDbLine
  8
0
 62
3
420
65280
370
-1
 48
1.0
  6
BYLAYER
 10
10.7787261875783713
 20
6.6154790035514983
 30
0.0
 11
10.6929377110794093
 21
6.5659490035515438
 31
0.0
  0
LINE
  5
145
100
AcDbEntity
100
AcDbLine
  8
0
 62
3
420
65280
370
-1
 48
1.0
  6
BYLAYER
 10
11.5440503950825359
 20
5.5858504645776215
 30
0.0
 11
11.629838871581498
 21
5.5363204645774937
 31
0.0
  0
LINE
  5
146
100
AcDbEntity
100
AcDbLine
  8
0
 62
3
420
65280
370
-1
 48
1.0
  6
BYLAYER
 10
9.0999181064499766
 20
5.6057662400241028
 30
0.0
 11
9.071321947617065
 21
5.5562362400238108
 31
0.0
  0
LINE
  5
147
100
AcDbEntity
100
AcDbLine
  8
0
 62
3
420
65280
370
-1
 48
1.0
  6
BYLAYER
 10
1.8330415812798435
 20
5.6059330610120552
 30
0.0
 11
1.8616377401128688
 21
5.5564030610117632
 31
0.0
  0
LINE
  5
148
100
AcDbEntity
100
AcDbLine
  8
0
 62
3
420
65280
370
-1
 48
1.0
  6
BYLAYER
 10
8.2650279560686641
 20
4.5032874271784227
 30
0.0
 11
8.2988165261791522
 21
4.4447639070316924
 31
0.0
  0
LINE
  5
149
100
AcDbEntity
100
AcDbLine
  8
0
 62
3
420
65280
370
-1
 48
1.0
  6
BYLAYER
 10
12.1670065539154706
 20
6.664842182563838
 30
0.0
 11
12.138410395082559
 21
6.6153121825635459
 31
0.0
  0
LINE
  5
14A
100
AcDbEntity
100
AcDbLine
  8
0
 62
3
420
65280
370
-1
 48
1.0
  6
BYLAYER
 10
10.7501300287453461
 20
6.6650090035517904
 30
0.0
 11
10.7787261875783713
 21
6.6154790035514983
 31
0.0
  0
LINE
  5
14B
100
AcDbEntity
100
AcDbLine
  8
0
 62
3
420
65280
370
-1
 48
1.0
  6
BYLAYER
 10
11.5440503950825359
 20
5.5858504645776215
 30
0.0
 11
11.5154542362496244
 21
5.5363204645774937
 31
0.0
  0
LINE
  5
14C
100
AcDbEntity
100
AcDbLine
  8
0
 62
3
420
65280
370
-1
 48
1.0
  6
BYLAYER
 10
11.3730861875776128
 20
5.5860172855643331
 30
0.0
 11
11.4016823464105244
 21
5.5364872855640366
 31
0.0
  0
CIRCLE
  5
14D
100
AcDbEntity
100
AcDbCircle
  8
0
 62
6
420
16711935
370
-1
 48
1.0
  6
BYLAYER
 10
8.873421740895779
 20
5.5422478340760186
 30
0.0
 40
0.0544830000000068
  0
CIRCLE
  5
14E
100
AcDbEntity
100
AcDbCircle
  8
0
 62
6
420
16711935
370
-1
 48
1.0
  6
BYLAYER
 10
3.0234217408957704
 20
5.5422478340760275
 30
0.0
 40
0.0544830000000068
  0
CIRCLE
  5
14F
100
AcDbEntity
100
AcDbCircle
  8
0
 62
3
420
65280
370
-1
 48
1.0
  6
BYLAYER
 10
11.940510188361273
 20
6.6013237766157058
 30
0.0
 40
0.0544830000000068
  0
CIRCLE
  5
150
100
AcDbEntity
100
AcDbCircle
  8
0
 62
6
420
16711935
370
-1
 48
1.0
  6
BYLAYER
 10
7.9092490044085793
 20
5.5422478340767016
 30
0.0
 40
0.0544830000000068
  0
CIRCLE
  5
151
100
AcDbEntity
100
AcDbCircle
  8
0
 62
6
420
16711935
370
-1
 48
1.0
  6
BYLAYER
 10
2.0592490044085707
 20
5.5422478340767016
 30
0.0
 40
0.0544830000000068
  0
CIRCLE
  5
152
100
AcDbEntity
100
AcDbCircle
  8
0
 62
3
420
65280
370
-1
 48
1.0
  6
BYLAYER
 10
10.9763374518740733
 20
6.6013237766164945
 30
0.0
 40
0.0544830000000068
  0
CIRCLE
  5
153
100
AcDbEntity
100
AcDbCircle
  8
0
 62
6
420
16711935
370
-1
 48
1.0
  6
BYLAYER
 10
8.3913353726517244
 20
4.704834209609472
 30
0.0
 40
0.0544830000000068
  0
CIRCLE
  5
154
100
AcDbEntity
100
AcDbCircle
  8
0
 62
6
420
16711935
370
-1
 48
1.0
  6
BYLAYER
 10
2.5413353726517158
 20
4.7048342096094764
 30
0.0
 40
0.0544830000000068
  0
CIRCLE
  5
155
100
AcDbEntity
100
AcDbCircle
  8
0
 62
3
420
65280
370
-1
 48
1.0
  6
BYLAYER
 10
11.4584238201172184
 20
5.7639101521492098
 30
0.0
 40
0.0544830000000068
  0
LINE
  5
156
100
AcDbEntity
100
AcDbLine
  8
0
 62
4
420
65535
370
-1
 48
1.0
  6
BYLAYER
 10
7.051512668472995
 20
3.4203206045597425
 30
0.0
 11
7.523207373012923
 21
2.8576954168400985
 31
0.0
  0
LINE
  5
157
100
AcDbEntity
100
AcDbLine
  8
0
 62
3
420
65280
370
-1
 48
1.0
  6
BYLAYER
 10
1.8330415812798435
 20
5.6059330610120552
 30
0.0
 11
1.8916594032714187
 21
5.7064743204092565
 31
0.0
  0
LINE
  5
158
100
AcDbEntity
100
AcDbLine
  8
0
 62
3
420
65280
370
-1
 48
1.0
  6
BYLAYER
 10
10.7501300287453461
 20
6.6650090035517904
 30
0.0
 11
10.8087478507369212
 21
6.7655502629489925
 31
0.0
  0
LINE
  5
159
100
AcDbEntity
100
AcDbLine
  8
0
 62
3
420
65280
370
-1
 48
1.0
  6
BYLAYER
 10
9.0999181064499766
 20
5.6057662400241028
 30
0.0
 11
9.0395254420328541
 21
5.7064743204084669
 31
0.0
  0
LINE
  5
15A
100
AcDbEntity
100
AcDbLine
  8
0
 62
3
420
65280
370
-1
 48
1.0
  6
BYLAYER
 10
12.1670065539154706
 20
6.664842182563838
 30
0.0
 11
12.1066138894983482
 21
6.7655502629482607
 31
0.0
  0
LINE
  5
15B
100
AcDbEntity
100
AcDbLine
  8
0
 62
3
420
65280
370
-1
 48
1.0
  6
BYLAYER
 10
11.5154542362496244
 20
5.5363204645774937
 30
0.0
 11
11.4016823464105244
 21
5.5364872855640366
 31
0.0
  0
LINE
  5
15C
100
AcDbEntity
100
AcDbLine
  8
0
 62
3
420
65280
370
-1
 48
1.0
  6
BYLAYER
 10
10.5691515642319587
 20
6.4944810383471809
 30
0.0
 11
10.6929377110794093
 21
6.5659490035515438
 31
0.0
  0
LINE
  5
15D
100
AcDbEntity
100
AcDbLine
  8
0
 62
3
420
65280
370
-1
 48
1.0
  6
BYLAYER
 10
10.8633208701173913
 20
6.8613638460128499
 30
0.0
 11
10.8633208701174908
 21
7.004301083160227
 31
0.0
  0
LINE
  5
15E
100
AcDbEntity
100
AcDbLine
  8
0
 62
3
420
65280
370
-1
 48
1.0
  6
BYLAYER
 10
12.0520408701176507
 20
6.8613638460120612
 30
0.0
 11
12.0520408701176507
 21
7.0043010831594952
 31
0.0
  0
LINE
  5
15F
100
AcDbEntity
100
AcDbLine
  8
0
 62
3
420
65280
370
-1
 48
1.0
  6
BYLAYER
 10
12.1706485119835293
 20
6.1872695416307621
 30
0.0
 11
12.0469105003315065
 21
6.2587097159669778
 31
0.0
  0
LINE
  5
160
100
AcDbEntity
100
AcDbLine
  8
0
 62
3
420
65280
370
-1
 48
1.0
  6
BYLAYER
 10
2.5888436626194107
 20
4.4542588818521063
 30
0.0
 11
2.8785838033885085
 21
4.286977333583887
 31
0.0
  0
LINE
  5
161
100
AcDbEntity
100
AcDbLine
  8
0
 62
3
420
65280
370
-1
 48
1.0
  6
BYLAYER
 10
11.930809763743639
 20
5.7718566440562338
 30
0.0
 11
11.8070717520917157
 21
5.8432968183923926
 31
0.0
  0
LINE
  5
162
100
AcDbEntity
100
AcDbLine
  8
0
 62
3
420
65280
370
-1
 48
1.0
  6
BYLAYER
 10
11.7535768832335208
 20
5.4648802902412781
 30
0.0
 11
11.629838871581498
 21
5.5363204645774937
 31
0.0
  0
LINE
  5
163
100
AcDbEntity
100
AcDbLine
  8
0
 62
3
420
65280
370
-1
 48
1.0
  6
BYLAYER
 10
11.2872977110787502
 20
5.5364872855643776
 30
0.0
 11
11.1635115642312996
 21
5.4650193203601303
 31
0.0
  0
LINE
  5
164
100
AcDbEntity
100
AcDbLine
  8
0
 62
3
420
65280
370
-1
 48
1.0
  6
BYLAYER
 10
10.9862484549686457
 20
5.7720480319111269
 30
0.0
 11
11.1100346018159826
 21
5.8435159971153743
 31
0.0
  0
LINE
  5
165
100
AcDbEntity
100
AcDbLine
  8
0
 62
3
420
65280
370
-1
 48
1.0
  6
BYLAYER
 10
10.7463831875471385
 20
6.1875068620570772
 30
0.0
 11
10.8701693343943617
 21
6.2589748272613246
 31
0.0
  0
LINE
  5
166
100
AcDbEntity
100
AcDbLine
  8
0
 62
3
420
65280
370
-1
 48
1.0
  6
BYLAYER
 10
10.7463628008203358
 20
6.0714825557332697
 30
0.0
 11
10.4556088951486004
 21
5.9036157100257221
 31
0.0
  0
LINE
  5
167
100
AcDbEntity
100
AcDbLine
  8
0
 62
3
420
65280
370
-1
 48
1.0
  6
BYLAYER
 10
10.8857897508201376
 20
5.8299879943887571
 30
0.0
 11
10.5950358451486295
 21
5.6621211486813818
 31
0.0
  0
LINE
  5
168
100
AcDbEntity
100
AcDbLine
  8
0
 62
3
420
65280
370
-1
 48
1.0
  6
BYLAYER
 10
11.2178719797668975
 20
6.8613638460126243
 30
0.0
 11
11.2178719797668975
 21
7.0043010831600583
 31
0.0
  0
LINE
  5
169
100
AcDbEntity
100
AcDbLine
  8
0
 62
3
420
65280
370
-1
 48
1.0
  6
BYLAYER
 10
11.6974073817163458
 20
6.8613638460122868
 30
0.0
 11
11.6974073817163458
 21
7.0043010831597217
 31
0.0
  0
LINE
  5
16A
100
AcDbEntity
100
AcDbLine
  8
0
 62
3
420
65280
370
-1
 48
1.0
  6
BYLAYER
 10
2.0791600075031482
 20
4.6956515812957083
 30
0.0
 11
2.0289047190918126
 21
4.6666366770031811
 31
0.0
  0
LINE
  5
16B
100
AcDbEntity
100
AcDbLine
  8
0
 62
3
420
65280
370
-1
 48
1.0
  6
BYLAYER
 10
2.2532049520982866
 20
4.7961364769088224
 30
0.0
 11
2.2029461543504709
 21
4.7671195465000009
 31
0.0
  0
LINE
  5
16C
100
AcDbEntity
100
AcDbLine
  8
0
 62
3
420
65280
370
-1
 48
1.0
  6
BYLAYER
 10
3.0896595255094041
 20
5.2459156301755696
 30
0.0
 11
3.1398220528660232
 21
5.2169542815029226
 31
0.0
  0
LINE
  5
16D
100
AcDbEntity
100
AcDbLine
  8
0
 62
3
420
65280
370
-1
 48
1.0
  6
BYLAYER
 10
3.2635600645180176
 20
5.145514107166667
 30
0.0
 11
3.3139391154474538
 21
5.1164277485510556
 31
0.0
  0
LINE
  5
16E
100
AcDbEntity
100
AcDbLine
  8
0
 62
3
420
65280
370
-1
 48
1.0
  6
BYLAYER
 10
2.8003189342508392
 20
5.9452251406199856
 30
0.0
 11
2.8003189342508392
 21
6.0032713517740142
 31
0.0
  0
LINE
  5
16F
100
AcDbEntity
100
AcDbLine
  8
0
 62
3
420
65280
370
-1
 48
1.0
  6
BYLAYER
 10
2.8003189342508392
 20
5.7442514291775923
 30
0.0
 11
2.8003189342508392
 21
5.8022879034725561
 31
0.0
  0
LINE
  5
170
100
AcDbEntity
100
AcDbLine
  8
0
 62
3
420
65280
370
-1
 48
1.0
  6
BYLAYER
 10
8.1307835323014075
 20
5.7442514291775923
 30
0.0
 11
8.1307835323014075
 21
5.8022879034728838
 31
0.0
  0
LINE
  5
171
100
AcDbEntity
100
AcDbLine
  8
0
 62
3
420
65280
370
-1
 48
1.0
  6
BYLAYER
 10
8.1307835323014075
 20
5.9452251406203231
 30
0.0
 11
8.1307835323014075
 21
6.0032713517740053
 31
0.0
  0
LINE
  5
172
100
AcDbEntity
100
AcDbLine
  8
0
 62
3
420
65280
370
-1
 48
1.0
  6
BYLAYER
 10
7.843339684676323
 20
5.2462363232059737
 30
0.0
 11
7.7930808869288484
 21
5.2172193927972677
 31
0.0
  0
LINE
  5
173
100
AcDbEntity
100
AcDbLine
  8
0
 62
3
420
65280
370
-1
 48
1.0
  6
BYLAYER
 10
7.6692947400816394
 20
5.1457514275930913
 30
0.0
 11
7.6190394516699769
 21
5.1167365233004514
 31
0.0
  0
LINE
  5
174
100
AcDbEntity
100
AcDbLine
  8
0
 62
3
420
65280
370
-1
 48
1.0
  6
BYLAYER
 10
8.6798207772697253
 20
4.795861716449501
 30
0.0
 11
8.7299833046262307
 21
4.7669003677769695
 31
0.0
  0
LINE
  5
175
100
AcDbEntity
100
AcDbLine
  8
0
 62
3
420
65280
370
-1
 48
1.0
  6
BYLAYER
 10
8.8537213162781114
 20
4.6954601934408187
 30
0.0
 11
8.904100367207775
 21
4.6663738348249817
 31
0.0
  0
CIRCLE
  5
176
100
AcDbEntity
100
AcDbCircle
  8
0
 62
256
370
-1
 48
1.0
  6
BYLAYER
 10
2.5462231960086399
 20
5.2668899682498447
 30
0.0
 40
0.25
  0
CIRCLE
  5
177
100
AcDbEntity
100
AcDbCircle
  8
0
 62
256
370
-1
 48
1.0
  6
BYLAYER
 10
8.3962231960086484
 20
5.2568899682498449
 30
0.0
 40
0.25
  0
ENDSEC
  0
SECTION
  2
OBJECTS
  0
DICTIONARY
  5
C
100
AcDbDictionary
280
0
281
1
  3
ACAD_GROUP
350
D
  3
ACAD_LAYOUT
350
1A
  3
ACAD_MLINESTYLE
350
17
  3
ACAD_PLOTSETTINGS
350
19
  3
ACAD_PLOTSTYLENAME
350
E
  3
AcDbVariableDictionary
350
178
  3
QCAD_OBJECTS
350
179
  0
DICTIONARY
  5
D
100
AcDbDictionary
280
0
281
1
  0
ACDBDICTIONARYWDFLT
  5
E
100
AcDbDictionary
281
1
  3
Normal
350
F
100
AcDbDictionaryWithDefault
340
F
  0
ACDBPLACEHOLDER
  5
F
  0
DICTIONARY
  5
17
100
AcDbDictionary
280
0
281
1
  3
Standard
350
18
  0
MLINESTYLE
  5
18
100
AcDbMlineStyle
  2
STANDARD
 70
0
  3

 62
256
 51
90.0
 52
90.0
 71
2
 49
0.5
 62
256
  6
BYLAYER
 49
-0.5
 62
256
  6
BYLAYER
  0
DICTIONARY
  5
19
100
AcDbDictionary
280
0
281
1
  0
DICTIONARY
  5
1A
100
AcDbDictionary
281
1
  3
Layout1
350
1E
  3
Layout2
350
26
  3
Model
350
22
  0
LAYOUT
  5
1E
100
AcDbPlotSettings
  1

  2
none_device
  4

  6

 40
0.0
 41
0.0
 42
0.0
 43
0.0
 44
0.0
 45
0.0
 46
0.0
 47
0.0
 48
0.0
 49
0.0
140
0.0
141
0.0
142
1.0
143
1.0
 70
688
 72
0
 73
0
 74
5
  7

 75
16
147
1.0
148
0.0
149
0.0
100
AcDbLayout
  1
Layout1
 70
1
 71
1
 10
0.0
 20
0.0
 11
420.0
 21
297.0
 12
0.0
 22
0.0
 32
0.0
 14
100000000000000000000.0
 24
100000000000000000000.0
 34
100000000000000000000.0
 15
-100000000000000000000.0
 25
-100000000000000000000.0
 35
-100000000000000000000.0
146
0.0
 13
0.0
 23
0.0
 33
0.0
 16
1.0
 26
0.0
 36
0.0
 17
0.0
 27
1.0
 37
0.0
 76
0
330
1B
  0
LAYOUT
  5
22
100
AcDbPlotSettings
  1

  2
none_device
  4

  6

 40
0.0
 41
0.0
 42
0.0
 43
0.0
 44
0.0
 45
0.0
 46
0.0
 47
0.0
 48
0.0
 49
0.0
140
0.0
141
0.0
142
1.0
143
1.0
 70
1712
 72
0
 73
0
 74
0
  7

 75
0
147
1.0
148
0.0
149
0.0
100
AcDbLayout
  1
Model
 70
1
 71
0
 10
0.0
 20
0.0
 11
12.0
 21
9.0
 12
0.0
 22
0.0
 32
0.0
 14
0.0
 24
0.0
 34
0.0
 15
0.0
 25
0.0
 35
0.0
146
0.0
 13
0.0
 23
0.0
 33
0.0
 16
1.0
 26
0.0
 36
0.0
 17
0.0
 27
1.0
 37
0.0
 76
0
330
1F
  0
LAYOUT
  5
26
100
AcDbPlotSettings
  1

  2
none_device
  4

  6

 40
0.0
 41
0.0
 42
0.0
 43
0.0
 44
0.0
 45
0.0
 46
0.0
 47
0.0
 48
0.0
 49
0.0
140
0.0
141
0.0
142
1.0
143
1.0
 70
688
 72
0
 73
0
 74
5
  7

 75
16
147
1.0
148
0.0
149
0.0
100
AcDbLayout
  1
Layout2
 70
1
 71
2
 10
0.0
 20
0.0
 11
12.0
 21
9.0
 12
0.0
 22
0.0
 32
0.0
 14
0.0
 24
0.0
 34
0.0
 15
0.0
 25
0.0
 35
0.0
146
0.0
 13
0.0
 23
0.0
 33
0.0
 16
1.0
 26
0.0
 36
0.0
 17
0.0
 27
1.0
 37
0.0
 76
0
330
23
  0
DICTIONARY
  5
178
100
AcDbDictionary
281
1
  3
DIMASSOC
350
17B
  3
HIDETEXT
350
17A
  0
DICTIONARYVAR
  5
17A
100
DictionaryVariables
280
0
  1
2
  0
DICTIONARYVAR
  5
17B
100
DictionaryVariables
280
0
  1
1
  0
DICTIONARY
  5
179
100
AcDbDictionary
281
1
  3
ColorSettings/BackgroundColor
350
17C
  3
ColorSettings/ColorMode
350
17D
  3
Grid/DisplayGrid00
350
17E
  3
Grid/DisplayGrid01
350
17F
  3
Grid/DisplayGrid02
350
180
  3
Grid/DisplayGrid03
350
181
  3
Grid/GridSpacingX00
350
182
  3
Grid/GridSpacingX01
350
183
  3
Grid/GridSpacingX02
350
184
  3
Grid/GridSpacingX03
350
185
  3
Grid/GridSpacingY00
350
186
  3
Grid/GridSpacingY01
350
187
  3
Grid/GridSpacingY02
350
188
  3
Grid/GridSpacingY03
350
189
  3
Grid/IsometricGrid00
350
18A
  3
Grid/IsometricGrid01
350
18B
  3
Grid/IsometricGrid02
350
18C
  3
Grid/IsometricGrid03
350
18D
  3
Grid/IsometricProjection00
350
18E
  3
Grid/IsometricProjection01
350
18F
  3
Grid/IsometricProjection02
350
190
  3
Grid/IsometricProjection03
350
191
  3
Grid/MetaGridSpacingX00
350
192
  3
Grid/MetaGridSpacingX01
350
193
  3
Grid/MetaGridSpacingX02
350
194
  3
Grid/MetaGridSpacingX03
350
195
  3
Grid/MetaGridSpacingY00
350
196
  3
Grid/MetaGridSpacingY01
350
197
  3
Grid/MetaGridSpacingY02
350
198
  3
Grid/MetaGridSpacingY03
350
199
  3
MultiPageSettings/Columns
350
19A
  3
MultiPageSettings/GlueMarginsBottom
350
19B
  3
MultiPageSettings/GlueMarginsLeft
350
19C
  3
MultiPageSettings/GlueMarginsRight
350
19D
  3
MultiPageSettings/GlueMarginsTop
350
19E
  3
MultiPageSettings/PrintCropMarks
350
19F
  3
MultiPageSettings/Rows
350
1A0
  3
PageSettings/OffsetX
350
1A1
  3
PageSettings/OffsetY
350
1A2
  3
PageSettings/PageOrientation
350
1A3
  3
PageSettings/PaperHeight
350
1A4
  3
PageSettings/PaperWidth
350
1A5
  3
PageSettings/Scale
350
1A6
  3
PageSettings/ShowPaperBorders
350
1A7
  3
UnitSettings/PaperUnit
350
1A8
  0
XRECORD
  5
17C
330
179
100
AcDbXrecord
280
1
1000
White
  0
XRECORD
  5
17D
330
179
100
AcDbXrecord
280
1
1000
FullColor
  0
XRECORD
  5
17E
330
179
100
AcDbXrecord
280
1
290
1
  0
XRECORD
  5
17F
330
179
100
AcDbXrecord
280
1
290
1
  0
XRECORD
  5
180
330
179
100
AcDbXrecord
280
1
290
1
  0
XRECORD
  5
181
330
179
100
AcDbXrecord
280
1
290
1
  0
XRECORD
  5
182
330
179
100
AcDbXrecord
280
1
1000
auto
  0
XRECORD
  5
183
330
179
100
AcDbXrecord
280
1
1000
auto
  0
XRECORD
  5
184
330
179
100
AcDbXrecord
280
1
1000
auto
  0
XRECORD
  5
185
330
179
100
AcDbXrecord
280
1
1000
auto
  0
XRECORD
  5
186
330
179
100
AcDbXrecord
280
1
1000
auto
  0
XRECORD
  5
187
330
179
100
AcDbXrecord
280
1
1000
auto
  0
XRECORD
  5
188
330
179
100
AcDbXrecord
280
1
1000
auto
  0
XRECORD
  5
189
330
179
100
AcDbXrecord
280
1
1000
auto
  0
XRECORD
  5
18A
330
179
100
AcDbXrecord
280
1
290
0
  0
XRECORD
  5
18B
330
179
100
AcDbXrecord
280
1
290
0
  0
XRECORD
  5
18C
330
179
100
AcDbXrecord
280
1
290
0
  0
XRECORD
  5
18D
330
179
100
AcDbXrecord
280
1
290
0
  0
XRECORD
  5
18E
330
179
100
AcDbXrecord
280
1
 90
0
  0
XRECORD
  5
18F
330
179
100
AcDbXrecord
280
1
 90
0
  0
XRECORD
  5
190
330
179
100
AcDbXrecord
280
1
 90
0
  0
XRECORD
  5
191
330
179
100
AcDbXrecord
280
1
 90
0
  0
XRECORD
  5
192
330
179
100
AcDbXrecord
280
1
1000
auto
  0
XRECORD
  5
193
330
179
100
AcDbXrecord
280
1
1000
auto
  0
XRECORD
  5
194
330
179
100
AcDbXrecord
280
1
1000
auto
  0
XRECORD
  5
195
330
179
100
AcDbXrecord
280
1
1000
auto
  0
XRECORD
  5
196
330
179
100
AcDbXrecord
280
1
1000
auto
  0
XRECORD
  5
197
330
179
100
AcDbXrecord
280
1
1000
auto
  0
XRECORD
  5
198
330
179
100
AcDbXrecord
280
1
1000
auto
  0
XRECORD
  5
199
330
179
100
AcDbXrecord
280
1
1000
auto
  0
XRECORD
  5
19A
330
179
100
AcDbXrecord
280
1
 90
1
  0
XRECORD
  5
19B
330
179
100
AcDbXrecord
280
1
 40
0.5
  0
XRECORD
  5
19C
330
179
100
AcDbXrecord
280
1
 40
0.5
  0
XRECORD
  5
19D
330
179
100
AcDbXrecord
280
1
 40
0.5
  0
XRECORD
  5
19E
330
179
100
AcDbXrecord
280
1
 40
0.5
  0
XRECORD
  5
19F
330
179
100
AcDbXrecord
280
1
290
0
  0
XRECORD
  5
1A0
330
179
100
AcDbXrecord
280
1
 90
1
  0
XRECORD
  5
1A1
330
179
100
AcDbXrecord
280
1
 40
0.0
  0
XRECORD
  5
1A2
330
179
100
AcDbXrecord
280
1
 40
0.0
  0
XRECORD
  5
1A3
330
179
100
AcDbXrecord
280
1
1000
Portrait
  0
XRECORD
  5
1A4
330
179
100
AcDbXrecord
280
1
 40
11.6929133858268006
  0
XRECORD
  5
1A5
330
179
100
AcDbXrecord
280
1
 40
8.2677165354330704
  0
XRECORD
  5
1A6
330
179
100
AcDbXrecord
280
1
1000
1:1
  0
XRECORD
  5
1A7
330
179
100
AcDbXrecord
280
1
290
1
  0
XRECORD
  5
1A8
330
179
100
AcDbXrecord
280
1
 90
1
  0
ENDSEC
  0
EOF
