999
dxflib 3.7.5.0
  0
SECTION
  2
HEADER
  9
$ACADVER
  1
AC1015
  9
$HANDSEED
  5
FFFF
  9
$DIMADEC
 70
0
  9
$DIMASZ
 40
2.5
  9
$DIMAUNIT
 70
0
  9
$DIMAZIN
 70
2
  9
$DIMDEC
 70
4
  9
$DIMEXE
 40
1.25
  9
$DIMEXO
 40
0.625
  9
$DIMGAP
 40
0.625
  9
$DIMLUNIT
 70
2
  9
$DIMSCALE
 40
1.0
  9
$DIMTXT
 40
2.5
  9
$DIMZIN
 70
8
  9
$DWGCODEPAGE
  3
ANSI_1252
  9
$INSUNITS
 70
1
  9
$LTSCALE
 40
1.0
  9
$MEASUREMENT
 70
0
  9
$PDMODE
 70
2
  9
$PDSIZE
 40
0
  0
ENDSEC
  0
SECTION
  2
TABLES
  0
TABLE
  2
VPORT
  5
8
100
AcDbSymbolTable
 70
1
  0
VPORT
  5
30
100
AcDbSymbolTableRecord
100
AcDbViewportTableRecord
  2
*Active
 70
0
 10
0.0
 20
0.0
 11
1.0
 21
1.0
 12
286.3055555555554861
 22
148.5
 13
0.0
 23
0.0
 14
10.0
 24
10.0
 15
10.0
 25
10.0
 16
0.0
 26
0.0
 36
1.0
 17
0.0
 27
0.0
 37
0.0
 40
297.0
 41
1.92798353909465
 42
50.0
 43
0.0
 44
0.0
 50
0.0
 51
0.0
 71
0
 72
100
 73
1
 74
3
 75
1
 76
1
 77
0
 78
0
281
0
 65
1
110
0.0
120
0.0
130
0.0
111
1.0
121
0.0
131
0.0
112
0.0
122
1.0
132
0.0
 79
0
146
0.0
  0
ENDTAB
  0
TABLE
  2
LTYPE
  5
5
100
AcDbSymbolTable
 70
41
  0
LTYPE
  5
16
100
AcDbSymbolTableRecord
100
AcDbLinetypeTableRecord
  2
Continuous
 70
0
  3
Solid line
 72
65
 73
0
 40
0.0
  0
LTYPE
  5
31
100
AcDbSymbolTableRecord
100
AcDbLinetypeTableRecord
  2
ACAD_ISO15W100
 70
0
  3
ISO double-dash triple-dot __ __ . . . __ __ . .
 72
65
 73
10
 40
39.0
 49
12.0
 74
0
 49
-3.0
 74
0
 49
12.0
 74
0
 49
-3.0
 74
0
 49
0.0
 74
0
 49
-3.0
 74
0
 49
0.0
 74
0
 49
-3.0
 74
0
 49
0.0
 74
0
 49
-3.0
 74
0
  0
LTYPE
  5
32
100
AcDbSymbolTableRecord
100
AcDbLinetypeTableRecord
  2
DIVIDE
 70
0
  3
Divide ____ . . ____ . . ____ . . ____ . . ____
 72
65
 73
6
 40
31.75
 49
12.6999999999999993
 74
0
 49
-6.3499999999999996
 74
0
 49
0.0
 74
0
 49
-6.3499999999999996
 74
0
 49
0.0
 74
0
 49
-6.3499999999999996
 74
0
  0
LTYPE
  5
33
100
AcDbSymbolTableRecord
100
AcDbLinetypeTableRecord
  2
ACAD_ISO10W100
 70
0
  3
ISO dash dot __ . __ . __ . __ . __ . __ . __ . 
 72
65
 73
4
 40
18.0
 49
12.0
 74
0
 49
-3.0
 74
0
 49
0.0
 74
0
 49
-3.0
 74
0
  0
LTYPE
  5
34
100
AcDbSymbolTableRecord
100
AcDbLinetypeTableRecord
  2
ACAD_ISO04W100
 70
0
  3
ISO long-dash dot ____ . ____ . ____ . ____ . _
 72
65
 73
4
 40
30.0
 49
24.0
 74
0
 49
-3.0
 74
0
 49
0.0
 74
0
 49
-3.0
 74
0
  0
LTYPE
  5
35
100
AcDbSymbolTableRecord
100
AcDbLinetypeTableRecord
  2
CENTER2
 70
0
  3
Center (.5x) ___ _ ___ _ ___ _ ___ _ ___ _ ___
 72
65
 73
4
 40
28.5750000000000028
 49
19.0500000000000007
 74
0
 49
-3.1749999999999998
 74
0
 49
3.1749999999999998
 74
0
 49
-3.1749999999999998
 74
0
  0
LTYPE
  5
36
100
AcDbSymbolTableRecord
100
AcDbLinetypeTableRecord
  2
ACAD_ISO11W100
 70
0
  3
ISO double-dash dot __ __ . __ __ . __ __ . __ _
 72
65
 73
6
 40
33.0
 49
12.0
 74
0
 49
-3.0
 74
0
 49
12.0
 74
0
 49
-3.0
 74
0
 49
0.0
 74
0
 49
-3.0
 74
0
  0
LTYPE
  5
37
100
AcDbSymbolTableRecord
100
AcDbLinetypeTableRecord
  2
HIDDEN2
 70
0
  3
Hidden (.5x) _ _ _ _ _ _ _ _ _ _ _ _ _ _ _ _ _ 
 72
65
 73
2
 40
4.7624999999999993
 49
3.1749999999999998
 74
0
 49
-1.5874999999999999
 74
0
  0
LTYPE
  5
38
100
AcDbSymbolTableRecord
100
AcDbLinetypeTableRecord
  2
BORDERX2
 70
0
  3
Border (2x) ____  ____  .  ____  ____  .  ___
 72
65
 73
6
 40
88.8999999999999915
 49
25.3999999999999986
 74
0
 49
-12.6999999999999993
 74
0
 49
25.3999999999999986
 74
0
 49
-12.6999999999999993
 74
0
 49
0.0
 74
0
 49
-12.6999999999999993
 74
0
  0
LTYPE
  5
39
100
AcDbSymbolTableRecord
100
AcDbLinetypeTableRecord
  2
ACAD_ISO05W100
 70
0
  3
ISO long-dash double-dot ____ .. ____ .. ____ . 
 72
65
 73
6
 40
33.0
 49
24.0
 74
0
 49
-3.0
 74
0
 49
0.0
 74
0
 49
-3.0
 74
0
 49
0.0
 74
0
 49
-3.0
 74
0
  0
LTYPE
  5
3A
100
AcDbSymbolTableRecord
100
AcDbLinetypeTableRecord
  2
DASHDOTX2
 70
0
  3
Dash dot (2x) ____  .  ____  .  ____  .  ___
 72
65
 73
4
 40
50.7999999999999972
 49
25.3999999999999986
 74
0
 49
-12.6999999999999993
 74
0
 49
0.0
 74
0
 49
-12.6999999999999993
 74
0
  0
LTYPE
  5
3B
100
AcDbSymbolTableRecord
100
AcDbLinetypeTableRecord
  2
HIDDENX2
 70
0
  3
Hidden (2x) ____ ____ ____ ____ ____ ____ ____ 
 72
65
 73
2
 40
19.0499999999999972
 49
12.6999999999999993
 74
0
 49
-6.3499999999999996
 74
0
  0
LTYPE
  5
3C
100
AcDbSymbolTableRecord
100
AcDbLinetypeTableRecord
  2
CENTERX2
 70
0
  3
Center (2x) ________  __  ________  __  _____
 72
65
 73
4
 40
101.6000000000000085
 49
63.5
 74
0
 49
-12.6999999999999993
 74
0
 49
12.6999999999999993
 74
0
 49
-12.6999999999999993
 74
0
  0
LTYPE
  5
3D
100
AcDbSymbolTableRecord
100
AcDbLinetypeTableRecord
  2
BORDER2
 70
0
  3
Border (.5x) __.__.__.__.__.__.__.__.__.__.__.
 72
65
 73
6
 40
22.2249999999999979
 49
6.3499999999999996
 74
0
 49
-3.1749999999999998
 74
0
 49
6.3499999999999996
 74
0
 49
-3.1749999999999998
 74
0
 49
0.0
 74
0
 49
-3.1749999999999998
 74
0
  0
LTYPE
  5
3E
100
AcDbSymbolTableRecord
100
AcDbLinetypeTableRecord
  2
DASHDOT2
 70
0
  3
Dash dot (.5x) _._._._._._._._._._._._._._._.
 72
65
 73
4
 40
12.6999999999999993
 49
6.3499999999999996
 74
0
 49
-3.1749999999999998
 74
0
 49
0.0
 74
0
 49
-3.1749999999999998
 74
0
  0
LTYPE
  5
3F
100
AcDbSymbolTableRecord
100
AcDbLinetypeTableRecord
  2
ACAD_ISO12W100
 70
0
  3
ISO dash double-dot __ . . __ . . __ . . __ . . 
 72
65
 73
6
 40
21.0
 49
12.0
 74
0
 49
-3.0
 74
0
 49
0.0
 74
0
 49
-3.0
 74
0
 49
0.0
 74
0
 49
-3.0
 74
0
  0
LTYPE
  5
40
100
AcDbSymbolTableRecord
100
AcDbLinetypeTableRecord
  2
ACAD_ISO07W100
 70
0
  3
ISO dot . . . . . . . . . . . . . . . . . . . . 
 72
65
 73
2
 40
3.0
 49
0.0
 74
0
 49
-3.0
 74
0
  0
LTYPE
  5
41
100
AcDbSymbolTableRecord
100
AcDbLinetypeTableRecord
  2
HIDDEN
 70
0
  3
Hidden __ __ __ __ __ __ __ __ __ __ __ __ __ __
 72
65
 73
2
 40
9.5249999999999986
 49
6.3499999999999996
 74
0
 49
-3.1749999999999998
 74
0
  0
LTYPE
  5
42
100
AcDbSymbolTableRecord
100
AcDbLinetypeTableRecord
  2
ACAD_ISO06W100
 70
0
  3
ISO long-dash triple-dot ____ ... ____ ... ____
 72
65
 73
8
 40
36.0
 49
24.0
 74
0
 49
-3.0
 74
0
 49
0.0
 74
0
 49
-3.0
 74
0
 49
0.0
 74
0
 49
-3.0
 74
0
 49
0.0
 74
0
 49
-3.0
 74
0
  0
LTYPE
  5
43
100
AcDbSymbolTableRecord
100
AcDbLinetypeTableRecord
  2
CENTER
 70
0
  3
Center ____ _ ____ _ ____ _ ____ _ ____ _ ____
 72
65
 73
4
 40
50.8000000000000043
 49
31.75
 74
0
 49
-6.3499999999999996
 74
0
 49
6.3499999999999996
 74
0
 49
-6.3499999999999996
 74
0
  0
LTYPE
  5
44
100
AcDbSymbolTableRecord
100
AcDbLinetypeTableRecord
  2
DOTX2
 70
0
  3
Dot (2x) .  .  .  .  .  .  .  .  .  .  .  .  .  .
 72
65
 73
2
 40
12.6999999999999993
 49
0.0
 74
0
 49
-12.6999999999999993
 74
0
  0
LTYPE
  5
45
100
AcDbSymbolTableRecord
100
AcDbLinetypeTableRecord
  2
PHANTOM
 70
0
  3
Phantom ______  __  __  ______  __  __  ______ 
 72
65
 73
6
 40
63.5000000000000071
 49
31.75
 74
0
 49
-6.3499999999999996
 74
0
 49
6.3499999999999996
 74
0
 49
-6.3499999999999996
 74
0
 49
6.3499999999999996
 74
0
 49
-6.3499999999999996
 74
0
  0
LTYPE
  5
46
100
AcDbSymbolTableRecord
100
AcDbLinetypeTableRecord
  2
ACAD_ISO08W100
 70
0
  3
ISO long-dash short-dash ____ __ ____ __ ____ _
 72
65
 73
4
 40
36.0
 49
24.0
 74
0
 49
-3.0
 74
0
 49
6.0
 74
0
 49
-3.0
 74
0
  0
LTYPE
  5
47
100
AcDbSymbolTableRecord
100
AcDbLinetypeTableRecord
  2
DASHEDX2
 70
0
  3
Dashed (2x) ____  ____  ____  ____  ____  ___
 72
65
 73
2
 40
38.0999999999999943
 49
25.3999999999999986
 74
0
 49
-12.6999999999999993
 74
0
  0
LTYPE
  5
48
100
AcDbSymbolTableRecord
100
AcDbLinetypeTableRecord
  2
ACAD_ISO02W100
 70
0
  3
ISO dash __ __ __ __ __ __ __ __ __ __ __ __ __
 72
65
 73
2
 40
15.0
 49
12.0
 74
0
 49
-3.0
 74
0
  0
LTYPE
  5
49
100
AcDbSymbolTableRecord
100
AcDbLinetypeTableRecord
  2
PHANTOM2
 70
0
  3
Phantom (.5x) ___ _ _ ___ _ _ ___ _ _ ___ _ _
 72
65
 73
6
 40
31.7500000000000036
 49
15.875
 74
0
 49
-3.1749999999999998
 74
0
 49
3.1749999999999998
 74
0
 49
-3.1749999999999998
 74
0
 49
3.1749999999999998
 74
0
 49
-3.1749999999999998
 74
0
  0
LTYPE
  5
4A
100
AcDbSymbolTableRecord
100
AcDbLinetypeTableRecord
  2
DASHED2
 70
0
  3
Dashed (.5x) _ _ _ _ _ _ _ _ _ _ _ _ _ _ _ _ _ 
 72
65
 73
2
 40
9.5249999999999986
 49
6.3499999999999996
 74
0
 49
-3.1749999999999998
 74
0
  0
LTYPE
  5
4B
100
AcDbSymbolTableRecord
100
AcDbLinetypeTableRecord
  2
ACAD_ISO09W100
 70
0
  3
ISO long-dash double-short-dash ____ __ __ ____
 72
65
 73
6
 40
45.0
 49
24.0
 74
0
 49
-3.0
 74
0
 49
6.0
 74
0
 49
-3.0
 74
0
 49
6.0
 74
0
 49
-3.0
 74
0
  0
LTYPE
  5
4C
100
AcDbSymbolTableRecord
100
AcDbLinetypeTableRecord
  2
ACAD_ISO13W100
 70
0
  3
ISO double-dash double-dot __ __ . . __ __ . . _
 72
65
 73
8
 40
36.0
 49
12.0
 74
0
 49
-3.0
 74
0
 49
12.0
 74
0
 49
-3.0
 74
0
 49
0.0
 74
0
 49
-3.0
 74
0
 49
0.0
 74
0
 49
-3.0
 74
0
  0
LTYPE
  5
4D
100
AcDbSymbolTableRecord
100
AcDbLinetypeTableRecord
  2
DOT2
 70
0
  3
Dot (.5x) ........................................
 72
65
 73
2
 40
3.1749999999999998
 49
0.0
 74
0
 49
-3.1749999999999998
 74
0
  0
LTYPE
  5
4E
100
AcDbSymbolTableRecord
100
AcDbLinetypeTableRecord
  2
DASHED
 70
0
  3
Dashed __ __ __ __ __ __ __ __ __ __ __ __ __ _
 72
65
 73
2
 40
19.0499999999999972
 49
12.6999999999999993
 74
0
 49
-6.3499999999999996
 74
0
  0
LTYPE
  5
4F
100
AcDbSymbolTableRecord
100
AcDbLinetypeTableRecord
  2
ACAD_ISO14W100
 70
0
  3
ISO dash triple-dot __ . . . __ . . . __ . . . _
 72
65
 73
8
 40
24.0
 49
12.0
 74
0
 49
-3.0
 74
0
 49
0.0
 74
0
 49
-3.0
 74
0
 49
0.0
 74
0
 49
-3.0
 74
0
 49
0.0
 74
0
 49
-3.0
 74
0
  0
LTYPE
  5
15
100
AcDbSymbolTableRecord
100
AcDbLinetypeTableRecord
  2
BYLAYER
 70
0
  3

 72
65
 73
0
 40
0.0
  0
LTYPE
  5
50
100
AcDbSymbolTableRecord
100
AcDbLinetypeTableRecord
  2
PHANTOMX2
 70
0
  3
Phantom (2x) ____________    ____    ____   _
 72
65
 73
6
 40
127.0000000000000142
 49
63.5
 74
0
 49
-12.6999999999999993
 74
0
 49
12.6999999999999993
 74
0
 49
-12.6999999999999993
 74
0
 49
12.6999999999999993
 74
0
 49
-12.6999999999999993
 74
0
  0
LTYPE
  5
14
100
AcDbSymbolTableRecord
100
AcDbLinetypeTableRecord
  2
BYBLOCK
 70
0
  3

 72
65
 73
0
 40
0.0
  0
LTYPE
  5
51
100
AcDbSymbolTableRecord
100
AcDbLinetypeTableRecord
  2
DIVIDEX2
 70
0
  3
Divide (2x) ________  .  .  ________  .  .  _
 72
65
 73
6
 40
63.5
 49
25.3999999999999986
 74
0
 49
-12.6999999999999993
 74
0
 49
0.0
 74
0
 49
-12.6999999999999993
 74
0
 49
0.0
 74
0
 49
-12.6999999999999993
 74
0
  0
LTYPE
  5
52
100
AcDbSymbolTableRecord
100
AcDbLinetypeTableRecord
  2
BORDER
 70
0
  3
Border __ __ . __ __ . __ __ . __ __ . __ __ .
 72
65
 73
6
 40
44.4499999999999957
 49
12.6999999999999993
 74
0
 49
-6.3499999999999996
 74
0
 49
12.6999999999999993
 74
0
 49
-6.3499999999999996
 74
0
 49
0.0
 74
0
 49
-6.3499999999999996
 74
0
  0
LTYPE
  5
53
100
AcDbSymbolTableRecord
100
AcDbLinetypeTableRecord
  2
DIVIDE2
 70
0
  3
Divide (.5x) __..__..__..__..__..__..__..__.._
 72
65
 73
6
 40
15.875
 49
6.3499999999999996
 74
0
 49
-3.1749999999999998
 74
0
 49
0.0
 74
0
 49
-3.1749999999999998
 74
0
 49
0.0
 74
0
 49
-3.1749999999999998
 74
0
  0
LTYPE
  5
54
100
AcDbSymbolTableRecord
100
AcDbLinetypeTableRecord
  2
DOT
 70
0
  3
Dot . . . . . . . . . . . . . . . . . . . . . . . .
 72
65
 73
2
 40
6.3499999999999996
 49
0.0
 74
0
 49
-6.3499999999999996
 74
0
  0
LTYPE
  5
55
100
AcDbSymbolTableRecord
100
AcDbLinetypeTableRecord
  2
DASHDOT
 70
0
  3
Dash dot __ . __ . __ . __ . __ . __ . __ . __
 72
65
 73
4
 40
25.3999999999999986
 49
12.6999999999999993
 74
0
 49
-6.3499999999999996
 74
0
 49
0.0
 74
0
 49
-6.3499999999999996
 74
0
  0
LTYPE
  5
56
100
AcDbSymbolTableRecord
100
AcDbLinetypeTableRecord
  2
ACAD_ISO03W100
 70
0
  3
ISO dash space __    __    __    __    __    __
 72
65
 73
2
 40
30.0
 49
12.0
 74
0
 49
-18.0
 74
0
  0
ENDTAB
  0
TABLE
  2
LAYER
  5
2
100
AcDbSymbolTable
 70
1
  0
LAYER
  5
10
100
AcDbSymbolTableRecord
100
AcDbLayerTableRecord
  2
0
 70
0
 62
7
420
16777215
  6
Continuous
370
25
390
F
  0
ENDTAB
  0
TABLE
  2
STYLE
  5
3
100
AcDbSymbolTable
 70
1
  0
STYLE
  5
57
100
AcDbSymbolTableRecord
100
AcDbTextStyleTableRecord
  2
Standard
 70
0
 40
0.0
 41
1.0
 50
0.0
 71
0
 42
2.5
  3

  4

1001
ACAD
1000
txt
1071
0
  0
ENDTAB
  0
TABLE
  2
VIEW
  5
6
100
AcDbSymbolTable
 70
0
  0
ENDTAB
  0
TABLE
  2
UCS
  5
7
100
AcDbSymbolTable
 70
0
  0
ENDTAB
  0
TABLE
  2
APPID
  5
9
100
AcDbSymbolTable
 70
1
  0
APPID
  5
12
100
AcDbSymbolTableRecord
100
AcDbRegAppTableRecord
  2
ACAD
 70
0
  0
APPID
  5
58
100
AcDbSymbolTableRecord
100
AcDbRegAppTableRecord
  2
QCAD
 70
0
  0
ENDTAB
  0
TABLE
  2
DIMSTYLE
  5
A
100
AcDbSymbolTable
 70
1
100
AcDbDimStyleTable
 71
0
  0
DIMSTYLE
105
27
100
AcDbSymbolTableRecord
100
AcDbDimStyleTableRecord
  2
Standard
 41
2.5
 42
0.625
 43
3.75
 44
1.25
 70
0
 73
0
 74
0
 77
1
 78
8
140
2.5
141
2.5
143
0.03937007874016
147
0.625
171
3
172
1
271
2
272
2
274
3
278
44
283
0
284
8
340
57
  0
ENDTAB
  0
TABLE
  2
BLOCK_RECORD
  5
1
100
AcDbSymbolTable
 70
1
  0
BLOCK_RECORD
  5
1F
100
AcDbSymbolTableRecord
100
AcDbBlockTableRecord
  2
*Model_Space
340
22
  0
BLOCK_RECORD
  5
1B
100
AcDbSymbolTableRecord
100
AcDbBlockTableRecord
  2
*Paper_Space
340
1E
  0
BLOCK_RECORD
  5
23
100
AcDbSymbolTableRecord
100
AcDbBlockTableRecord
  2
*Paper_Space0
340
26
  0
BLOCK_RECORD
  5
59
100
AcDbSymbolTableRecord
100
AcDbBlockTableRecord
  2
block 1
340
0
  0
ENDTAB
  0
ENDSEC
  0
SECTION
  2
BLOCKS
  0
BLOCK
  5
20
100
AcDbEntity
  8
0
100
AcDbBlockBegin
  2
*Model_Space
 70
0
 10
0.0
 20
0.0
 30
0.0
  3
*Model_Space
  1

  0
ENDBLK
  5
21
100
AcDbEntity
  8
0
100
AcDbBlockEnd
  0
BLOCK
  5
1C
100
AcDbEntity
 67
1
  8
0
100
AcDbBlockBegin
  2
*Paper_Space
 70
0
 10
0.0
 20
0.0
 30
0.0
  3
*Paper_Space
  1

  0
ENDBLK
  5
1D
100
AcDbEntity
 67
1
  8
0
100
AcDbBlockEnd
  0
BLOCK
  5
24
100
AcDbEntity
  8
0
100
AcDbBlockBegin
  2
*Paper_Space0
 70
0
 10
0.0
 20
0.0
 30
0.0
  3
*Paper_Space0
  1

  0
ENDBLK
  5
25
100
AcDbEntity
  8
0
100
AcDbBlockEnd
  0
BLOCK
  5
5A
100
AcDbEntity
  8
0
100
AcDbBlockBegin
  2
block 1
 70
0
 10
0.0
 20
0.0
 30
0.0
  3
block 1
  1

  0
ENDBLK
  5
5B
100
AcDbEntity
  8
0
100
AcDbBlockEnd
  0
ENDSEC
  0
SECTION
  2
ENTITIES
  0
LINE
  5
5C
100
AcDbEntity
100
AcDbLine
  8
0
 62
6
420
16711935
370
-1
 48
1.0
  6
BYLAYER
 10
15.3074452650000552
 20
11.0499999999999741
 30
0.0
 11
15.1774452650000029
 21
11.0499999999999741
 31
0.0
  0
LINE
  5
5D
100
AcDbEntity
100
AcDbLine
  8
0
 62
6
420
16711935
370
-1
 48
1.0
  6
BYLAYER
 10
10.8225547349999971
 20
11.0499999999999741
 30
0.0
 11
10.6925547350000159
 21
11.0499999999999741
 31
0.0
  0
LINE
  5
5E
100
AcDbEntity
100
AcDbLine
  8
0
 62
256
370
-1
 48
1.0
  6
BYLAYER
 10
10.3775695871709441
 20
2.5792791529791828
 30
0.0
 11
10.4112733871709491
 21
2.5889901529791786
 31
0.0
  0
LINE
  5
5F
100
AcDbEntity
100
AcDbLine
  8
0
 62
256
370
-1
 48
1.0
  6
BYLAYER
 10
10.4112733871709491
 20
2.5889901529791786
 30
0.0
 11
10.4134066871709461
 21
2.5903941529791723
 31
0.0
  0
LINE
  5
60
100
AcDbEntity
100
AcDbLine
  8
0
 62
256
370
-1
 48
1.0
  6
BYLAYER
 10
10.4134066871709461
 20
2.5903941529791723
 30
0.0
 11
10.4162926871709427
 21
2.5936974529791712
 31
0.0
  0
LINE
  5
61
100
AcDbEntity
100
AcDbLine
  8
0
 62
256
370
-1
 48
1.0
  6
BYLAYER
 10
10.4162926871709427
 20
2.5936974529791712
 30
0.0
 11
10.4181529871709468
 21
2.5975974529791728
 31
0.0
  0
LINE
  5
62
100
AcDbEntity
100
AcDbLine
  8
0
 62
256
370
-1
 48
1.0
  6
BYLAYER
 10
10.4181529871709468
 20
2.5975974529791728
 30
0.0
 11
10.4188432871709491
 21
2.6018718529791727
 31
0.0
  0
LINE
  5
63
100
AcDbEntity
100
AcDbLine
  8
0
 62
256
370
-1
 48
1.0
  6
BYLAYER
 10
10.4188432871709491
 20
2.6018718529791727
 30
0.0
 11
10.4192878871709436
 21
2.63801822297917
 31
0.0
  0
LINE
  5
64
100
AcDbEntity
100
AcDbLine
  8
0
 62
256
370
-1
 48
1.0
  6
BYLAYER
 10
10.4192878871709436
 20
2.63801822297917
 30
0.0
 11
10.4199781871709458
 21
2.6422801429791747
 31
0.0
  0
LINE
  5
65
100
AcDbEntity
100
AcDbLine
  8
0
 62
256
370
-1
 48
1.0
  6
BYLAYER
 10
10.4199781871709458
 20
2.6422801429791747
 30
0.0
 11
10.4218384871709429
 21
2.6461809229791697
 31
0.0
  0
LINE
  5
66
100
AcDbEntity
100
AcDbLine
  8
0
 62
256
370
-1
 48
1.0
  6
BYLAYER
 10
10.4218384871709429
 20
2.6461809229791697
 30
0.0
 11
10.4247244871709466
 21
2.6494904629791733
 31
0.0
  0
LINE
  5
67
100
AcDbEntity
100
AcDbLine
  8
0
 62
256
370
-1
 48
1.0
  6
BYLAYER
 10
10.4247244871709466
 20
2.6494904629791733
 30
0.0
 11
10.4284918871709475
 21
2.6519802229791765
 31
0.0
  0
LINE
  5
68
100
AcDbEntity
100
AcDbLine
  8
0
 62
256
370
-1
 48
1.0
  6
BYLAYER
 10
10.4284918871709475
 20
2.6519802229791765
 30
0.0
 11
10.462016287170945
 21
2.6681234929791771
 31
0.0
  0
LINE
  5
69
100
AcDbEntity
100
AcDbLine
  8
0
 62
256
370
-1
 48
1.0
  6
BYLAYER
 10
10.462016287170945
 20
2.6681234929791771
 30
0.0
 11
10.4663101871709454
 21
2.6695169629791735
 31
0.0
  0
LINE
  5
6A
100
AcDbEntity
100
AcDbLine
  8
0
 62
256
370
-1
 48
1.0
  6
BYLAYER
 10
10.4663101871709454
 20
2.6695169629791735
 30
0.0
 11
10.4706976871709454
 21
2.6697111829791709
 31
0.0
  0
LINE
  5
6B
100
AcDbEntity
100
AcDbLine
  8
0
 62
256
370
-1
 48
1.0
  6
BYLAYER
 10
10.4706976871709454
 20
2.6697111829791709
 30
0.0
 11
10.4749096871709479
 21
2.6687338429791794
 31
0.0
  0
LINE
  5
6C
100
AcDbEntity
100
AcDbLine
  8
0
 62
256
370
-1
 48
1.0
  6
BYLAYER
 10
10.4749096871709479
 20
2.6687338429791794
 30
0.0
 11
10.478669287170943
 21
2.6666161429791799
 31
0.0
  0
LINE
  5
6D
100
AcDbEntity
100
AcDbLine
  8
0
 62
256
370
-1
 48
1.0
  6
BYLAYER
 10
10.478669287170943
 20
2.6666161429791799
 30
0.0
 11
10.507205587170942
 21
2.6444263129791779
 31
0.0
  0
LINE
  5
6E
100
AcDbEntity
100
AcDbLine
  8
0
 62
256
370
-1
 48
1.0
  6
BYLAYER
 10
10.507205587170942
 20
2.6444263129791779
 30
0.0
 11
10.5109807871709489
 21
2.6423012029791835
 31
0.0
  0
LINE
  5
6F
100
AcDbEntity
100
AcDbLine
  8
0
 62
256
370
-1
 48
1.0
  6
BYLAYER
 10
10.5109807871709489
 20
2.6423012029791835
 30
0.0
 11
10.5151927871709443
 21
2.6413269829791801
 31
0.0
  0
LINE
  5
70
100
AcDbEntity
100
AcDbLine
  8
0
 62
256
370
-1
 48
1.0
  6
BYLAYER
 10
10.5151927871709443
 20
2.6413269829791801
 30
0.0
 11
10.5195763871709485
 21
2.6415251029791733
 31
0.0
  0
LINE
  5
71
100
AcDbEntity
100
AcDbLine
  8
0
 62
256
370
-1
 48
1.0
  6
BYLAYER
 10
10.5195763871709485
 20
2.6415251029791733
 30
0.0
 11
10.521998287170943
 21
2.642312902979171
 31
0.0
  0
LINE
  5
72
100
AcDbEntity
100
AcDbLine
  8
0
 62
256
370
-1
 48
1.0
  6
BYLAYER
 10
10.521998287170943
 20
2.642312902979171
 30
0.0
 11
10.5506047871709452
 21
2.6626092829791759
 31
0.0
  0
LINE
  5
73
100
AcDbEntity
100
AcDbLine
  8
0
 62
256
370
-1
 48
1.0
  6
BYLAYER
 10
10.5506047871709452
 20
2.6626092829791759
 30
0.0
 11
10.5767581871709435
 21
2.685981592979175
 31
0.0
  0
LINE
  5
74
100
AcDbEntity
100
AcDbLine
  8
0
 62
256
370
-1
 48
1.0
  6
BYLAYER
 10
10.5767581871709435
 20
2.685981592979175
 30
0.0
 11
10.5780685871709448
 21
2.6881722229791762
 31
0.0
  0
LINE
  5
75
100
AcDbEntity
100
AcDbLine
  8
0
 62
256
370
-1
 48
1.0
  6
BYLAYER
 10
10.5780685871709448
 20
2.6881722229791762
 30
0.0
 11
10.5792346871709437
 21
2.6923994329791725
 31
0.0
  0
LINE
  5
76
100
AcDbEntity
100
AcDbLine
  8
0
 62
256
370
-1
 48
1.0
  6
BYLAYER
 10
10.5792346871709437
 20
2.6923994329791725
 30
0.0
 11
10.5792190871709462
 21
2.6967194629791749
 31
0.0
  0
LINE
  5
77
100
AcDbEntity
100
AcDbLine
  8
0
 62
256
370
-1
 48
1.0
  6
BYLAYER
 10
10.5792190871709462
 20
2.6967194629791749
 30
0.0
 11
10.5779866871709469
 21
2.7008714029791747
 31
0.0
  0
LINE
  5
78
100
AcDbEntity
100
AcDbLine
  8
0
 62
256
370
-1
 48
1.0
  6
BYLAYER
 10
10.5779866871709469
 20
2.7008714029791747
 30
0.0
 11
10.5627025871709446
 21
2.7336298429791839
 31
0.0
  0
LINE
  5
79
100
AcDbEntity
100
AcDbLine
  8
0
 62
256
370
-1
 48
1.0
  6
BYLAYER
 10
10.5627025871709446
 20
2.7336298429791839
 30
0.0
 11
10.5614740871709483
 21
2.737770082979182
 31
0.0
  0
LINE
  5
7A
100
AcDbEntity
100
AcDbLine
  8
0
 62
256
370
-1
 48
1.0
  6
BYLAYER
 10
10.5614740871709483
 20
2.737770082979182
 30
0.0
 11
10.5614584871709436
 21
2.7420916729791713
 31
0.0
  0
LINE
  5
7B
100
AcDbEntity
100
AcDbLine
  8
0
 62
256
370
-1
 48
1.0
  6
BYLAYER
 10
10.5614584871709436
 20
2.7420916729791713
 30
0.0
 11
10.5626245871709425
 21
2.7463255129791833
 31
0.0
  0
LINE
  5
7C
100
AcDbEntity
100
AcDbLine
  8
0
 62
256
370
-1
 48
1.0
  6
BYLAYER
 10
10.5626245871709425
 20
2.7463255129791833
 30
0.0
 11
10.5649411871709429
 21
2.7502040629791793
 31
0.0
  0
LINE
  5
7D
100
AcDbEntity
100
AcDbLine
  8
0
 62
256
370
-1
 48
1.0
  6
BYLAYER
 10
10.5649411871709429
 20
2.7502040629791793
 30
0.0
 11
10.5881383871709485
 21
2.7792933829791764
 31
0.0
  0
LINE
  5
7E
100
AcDbEntity
100
AcDbLine
  8
0
 62
256
370
-1
 48
1.0
  6
BYLAYER
 10
10.5881383871709485
 20
2.7792933829791764
 30
0.0
 11
10.5914026871709464
 21
2.7824126029791785
 31
0.0
  0
LINE
  5
7F
100
AcDbEntity
100
AcDbLine
  8
0
 62
256
370
-1
 48
1.0
  6
BYLAYER
 10
10.5914026871709464
 20
2.7824126029791785
 30
0.0
 11
10.5952714871709457
 21
2.7844913029791769
 31
0.0
  0
LINE
  5
80
100
AcDbEntity
100
AcDbLine
  8
0
 62
256
370
-1
 48
1.0
  6
BYLAYER
 10
10.5952714871709457
 20
2.7844913029791769
 30
0.0
 11
10.599491287170947
 21
2.7854374429791733
 31
0.0
  0
LINE
  5
81
100
AcDbEntity
100
AcDbLine
  8
0
 62
256
370
-1
 48
1.0
  6
BYLAYER
 10
10.599491287170947
 20
2.7854374429791733
 30
0.0
 11
10.6037968871709491
 21
2.7851613229791781
 31
0.0
  0
LINE
  5
82
100
AcDbEntity
100
AcDbLine
  8
0
 62
256
370
-1
 48
1.0
  6
BYLAYER
 10
10.6037968871709491
 20
2.7851613229791781
 30
0.0
 11
10.6391386871709468
 21
2.777550862979183
 31
0.0
  0
LINE
  5
83
100
AcDbEntity
100
AcDbLine
  8
0
 62
256
370
-1
 48
1.0
  6
BYLAYER
 10
10.6391386871709468
 20
2.777550862979183
 30
0.0
 11
10.6434598871709465
 21
2.7772739629791801
 31
0.0
  0
LINE
  5
84
100
AcDbEntity
100
AcDbLine
  8
0
 62
256
370
-1
 48
1.0
  6
BYLAYER
 10
10.6434598871709465
 20
2.7772739629791801
 30
0.0
 11
10.6476757871709449
 21
2.7782240029791723
 31
0.0
  0
LINE
  5
85
100
AcDbEntity
100
AcDbLine
  8
0
 62
256
370
-1
 48
1.0
  6
BYLAYER
 10
10.6476757871709449
 20
2.7782240029791723
 30
0.0
 11
10.6515406871709484
 21
2.7803038729791751
 31
0.0
  0
LINE
  5
86
100
AcDbEntity
100
AcDbLine
  8
0
 62
256
370
-1
 48
1.0
  6
BYLAYER
 10
10.6515406871709484
 20
2.7803038729791751
 30
0.0
 11
10.6533814871709449
 21
2.7820647229791717
 31
0.0
  0
LINE
  5
87
100
AcDbEntity
100
AcDbLine
  8
0
 62
256
370
-1
 48
1.0
  6
BYLAYER
 10
10.6533814871709449
 20
2.7820647229791717
 30
0.0
 11
10.6703464871709439
 21
2.8127620129791779
 31
0.0
  0
LINE
  5
88
100
AcDbEntity
100
AcDbLine
  8
0
 62
256
370
-1
 48
1.0
  6
BYLAYER
 10
10.6703464871709439
 20
2.8127620129791779
 30
0.0
 11
10.6837702871709421
 21
2.8451671129791833
 31
0.0
  0
LINE
  5
89
100
AcDbEntity
100
AcDbLine
  8
0
 62
256
370
-1
 48
1.0
  6
BYLAYER
 10
10.6837702871709421
 20
2.8451671129791833
 30
0.0
 11
10.6840003871709452
 21
2.8477099129791839
 31
0.0
  0
LINE
  5
8A
100
AcDbEntity
100
AcDbLine
  8
0
 62
256
370
-1
 48
1.0
  6
BYLAYER
 10
10.6840003871709452
 20
2.8477099129791839
 30
0.0
 11
10.6832164871709434
 21
2.8520248729791717
 31
0.0
  0
LINE
  5
8B
100
AcDbEntity
100
AcDbLine
  8
0
 62
256
370
-1
 48
1.0
  6
BYLAYER
 10
10.6832164871709434
 20
2.8520248729791717
 30
0.0
 11
10.6813288871709471
 21
2.8559108329791769
 31
0.0
  0
LINE
  5
8C
100
AcDbEntity
100
AcDbLine
  8
0
 62
256
370
-1
 48
1.0
  6
BYLAYER
 10
10.6813288871709471
 20
2.8559108329791769
 30
0.0
 11
10.6784155871709441
 21
2.8591166329791804
 31
0.0
  0
LINE
  5
8D
100
AcDbEntity
100
AcDbLine
  8
0
 62
256
370
-1
 48
1.0
  6
BYLAYER
 10
10.6784155871709441
 20
2.8591166329791804
 30
0.0
 11
10.6504330871709438
 21
2.8819998829791729
 31
0.0
  0
LINE
  5
8E
100
AcDbEntity
100
AcDbLine
  8
0
 62
256
370
-1
 48
1.0
  6
BYLAYER
 10
10.6504330871709438
 20
2.8819998829791729
 30
0.0
 11
10.6475314871709426
 21
2.885197102979177
 31
0.0
  0
LINE
  5
8F
100
AcDbEntity
100
AcDbLine
  8
0
 62
256
370
-1
 48
1.0
  6
BYLAYER
 10
10.6475314871709426
 20
2.885197102979177
 30
0.0
 11
10.6456399871709433
 21
2.8890838429791756
 31
0.0
  0
LINE
  5
90
100
AcDbEntity
100
AcDbLine
  8
0
 62
256
370
-1
 48
1.0
  6
BYLAYER
 10
10.6456399871709433
 20
2.8890838429791756
 30
0.0
 11
10.6448560871709486
 21
2.893403872979178
 31
0.0
  0
LINE
  5
91
100
AcDbEntity
100
AcDbLine
  8
0
 62
256
370
-1
 48
1.0
  6
BYLAYER
 10
10.6448560871709486
 20
2.893403872979178
 30
0.0
 11
10.6452577871709462
 21
2.8979025229791802
 31
0.0
  0
LINE
  5
92
100
AcDbEntity
100
AcDbLine
  8
0
 62
256
370
-1
 48
1.0
  6
BYLAYER
 10
10.6452577871709462
 20
2.8979025229791802
 30
0.0
 11
10.6535374871709489
 21
2.9341764229791778
 31
0.0
  0
LINE
  5
93
100
AcDbEntity
100
AcDbLine
  8
0
 62
256
370
-1
 48
1.0
  6
BYLAYER
 10
10.6535374871709489
 20
2.9341764229791778
 30
0.0
 11
10.655124787170946
 21
2.9384044129791818
 31
0.0
  0
LINE
  5
94
100
AcDbEntity
100
AcDbLine
  8
0
 62
256
370
-1
 48
1.0
  6
BYLAYER
 10
10.655124787170946
 20
2.9384044129791818
 30
0.0
 11
10.6577104871709434
 21
2.9419553629791722
 31
0.0
  0
LINE
  5
95
100
AcDbEntity
100
AcDbLine
  8
0
 62
256
370
-1
 48
1.0
  6
BYLAYER
 10
10.6577104871709434
 20
2.9419553629791722
 30
0.0
 11
10.6610995871709431
 21
2.9446373929791747
 31
0.0
  0
LINE
  5
96
100
AcDbEntity
100
AcDbLine
  8
0
 62
256
370
-1
 48
1.0
  6
BYLAYER
 10
10.6610995871709431
 20
2.9446373929791747
 30
0.0
 11
10.665100987170943
 21
2.9462582329791758
 31
0.0
  0
LINE
  5
97
100
AcDbEntity
100
AcDbLine
  8
0
 62
256
370
-1
 48
1.0
  6
BYLAYER
 10
10.665100987170943
 20
2.9462582329791758
 30
0.0
 11
10.7002399871709439
 21
2.9547344929791706
 31
0.0
  0
LINE
  5
98
100
AcDbEntity
100
AcDbLine
  8
0
 62
256
370
-1
 48
1.0
  6
BYLAYER
 10
10.7002399871709439
 20
2.9547344929791706
 30
0.0
 11
10.7042569871709485
 21
2.9563607929791829
 31
0.0
  0
LINE
  5
99
100
AcDbEntity
100
AcDbLine
  8
0
 62
256
370
-1
 48
1.0
  6
BYLAYER
 10
10.7042569871709485
 20
2.9563607929791829
 30
0.0
 11
10.7076421871709453
 21
2.9590459429791736
 31
0.0
  0
LINE
  5
9A
100
AcDbEntity
100
AcDbLine
  8
0
 62
256
370
-1
 48
1.0
  6
BYLAYER
 10
10.7076421871709453
 20
2.9590459429791736
 30
0.0
 11
10.7102200871709439
 21
2.9625954889791757
 31
0.0
  0
LINE
  5
9B
100
AcDbEntity
100
AcDbLine
  8
0
 62
256
370
-1
 48
1.0
  6
BYLAYER
 10
10.7102200871709439
 20
2.9625954889791757
 30
0.0
 11
10.7111170871709458
 21
2.964981235979181
 31
0.0
  0
LINE
  5
9C
100
AcDbEntity
100
AcDbLine
  8
0
 62
256
370
-1
 48
1.0
  6
BYLAYER
 10
10.7111170871709458
 20
2.964981235979181
 30
0.0
 11
10.7130826871709441
 21
2.999999452979182
 31
0.0
  0
LINE
  5
9D
100
AcDbEntity
100
AcDbLine
  8
0
 62
256
370
-1
 48
1.0
  6
BYLAYER
 10
10.7130826871709441
 20
2.999999452979182
 30
0.0
 11
10.7111170871709458
 21
3.035018878979173
 31
0.0
  0
LINE
  5
9E
100
AcDbEntity
100
AcDbLine
  8
0
 62
256
370
-1
 48
1.0
  6
BYLAYER
 10
10.7111170871709458
 20
3.035018878979173
 30
0.0
 11
10.7102200871709439
 21
3.0374093839791811
 31
0.0
  0
LINE
  5
9F
100
AcDbEntity
100
AcDbLine
  8
0
 62
256
370
-1
 48
1.0
  6
BYLAYER
 10
10.7102200871709439
 20
3.0374093839791811
 30
0.0
 11
10.7076421871709453
 21
3.0409580329791766
 31
0.0
  0
LINE
  5
A0
100
AcDbEntity
100
AcDbLine
  8
0
 62
256
370
-1
 48
1.0
  6
BYLAYER
 10
10.7076421871709453
 20
3.0409580329791766
 30
0.0
 11
10.7042569871709485
 21
3.0436400629791791
 31
0.0
  0
LINE
  5
A1
100
AcDbEntity
100
AcDbLine
  8
0
 62
256
370
-1
 48
1.0
  6
BYLAYER
 10
10.7042569871709485
 20
3.0436400629791791
 30
0.0
 11
10.7002399871709439
 21
3.0452644129791793
 31
0.0
  0
LINE
  5
A2
100
AcDbEntity
100
AcDbLine
  8
0
 62
256
370
-1
 48
1.0
  6
BYLAYER
 10
10.7002399871709439
 20
3.0452644129791793
 30
0.0
 11
10.665100987170943
 21
3.0537406729791741
 31
0.0
  0
LINE
  5
A3
100
AcDbEntity
100
AcDbLine
  8
0
 62
256
370
-1
 48
1.0
  6
BYLAYER
 10
10.665100987170943
 20
3.0537406729791741
 30
0.0
 11
10.6610995871709431
 21
3.0553615129791751
 31
0.0
  0
LINE
  5
A4
100
AcDbEntity
100
AcDbLine
  8
0
 62
256
370
-1
 48
1.0
  6
BYLAYER
 10
10.6610995871709431
 20
3.0553615129791751
 30
0.0
 11
10.6577104871709434
 21
3.0580435429791777
 31
0.0
  0
LINE
  5
A5
100
AcDbEntity
100
AcDbLine
  8
0
 62
256
370
-1
 48
1.0
  6
BYLAYER
 10
10.6577104871709434
 20
3.0580435429791777
 30
0.0
 11
10.655124787170946
 21
3.0615944929791823
 31
0.0
  0
LINE
  5
A6
100
AcDbEntity
100
AcDbLine
  8
0
 62
256
370
-1
 48
1.0
  6
BYLAYER
 10
10.655124787170946
 20
3.0615944929791823
 30
0.0
 11
10.6535374871709489
 21
3.065822482979172
 31
0.0
  0
LINE
  5
A7
100
AcDbEntity
100
AcDbLine
  8
0
 62
256
370
-1
 48
1.0
  6
BYLAYER
 10
10.6535374871709489
 20
3.065822482979172
 30
0.0
 11
10.6452577871709462
 21
3.1020963829791697
 31
0.0
  0
LINE
  5
A8
100
AcDbEntity
100
AcDbLine
  8
0
 62
256
370
-1
 48
1.0
  6
BYLAYER
 10
10.6452577871709462
 20
3.1020963829791697
 30
0.0
 11
10.6448560871709486
 21
3.1065950329791718
 31
0.0
  0
LINE
  5
A9
100
AcDbEntity
100
AcDbLine
  8
0
 62
256
370
-1
 48
1.0
  6
BYLAYER
 10
10.6448560871709486
 20
3.1065950329791718
 30
0.0
 11
10.6456399871709433
 21
3.1109150629791742
 31
0.0
  0
LINE
  5
AA
100
AcDbEntity
100
AcDbLine
  8
0
 62
256
370
-1
 48
1.0
  6
BYLAYER
 10
10.6456399871709433
 20
3.1109150629791742
 30
0.0
 11
10.6475314871709426
 21
3.1148018029791729
 31
0.0
  0
LINE
  5
AB
100
AcDbEntity
100
AcDbLine
  8
0
 62
256
370
-1
 48
1.0
  6
BYLAYER
 10
10.6475314871709426
 20
3.1148018029791729
 30
0.0
 11
10.6504330871709438
 21
3.117999022979177
 31
0.0
  0
LINE
  5
AC
100
AcDbEntity
100
AcDbLine
  8
0
 62
256
370
-1
 48
1.0
  6
BYLAYER
 10
10.6504330871709438
 20
3.117999022979177
 30
0.0
 11
10.6784155871709441
 21
3.1408822729791837
 31
0.0
  0
LINE
  5
AD
100
AcDbEntity
100
AcDbLine
  8
0
 62
256
370
-1
 48
1.0
  6
BYLAYER
 10
10.6784155871709441
 20
3.1408822729791837
 30
0.0
 11
10.6813288871709471
 21
3.1440900229791708
 31
0.0
  0
LINE
  5
AE
100
AcDbEntity
100
AcDbLine
  8
0
 62
256
370
-1
 48
1.0
  6
BYLAYER
 10
10.6813288871709471
 20
3.1440900229791708
 30
0.0
 11
10.6832164871709434
 21
3.1479787129791816
 31
0.0
  0
LINE
  5
AF
100
AcDbEntity
100
AcDbLine
  8
0
 62
256
370
-1
 48
1.0
  6
BYLAYER
 10
10.6832164871709434
 20
3.1479787129791816
 30
0.0
 11
10.6839964871709423
 21
3.1522956229791816
 31
0.0
  0
LINE
  5
B0
100
AcDbEntity
100
AcDbLine
  8
0
 62
256
370
-1
 48
1.0
  6
BYLAYER
 10
10.6839964871709423
 20
3.1522956229791816
 30
0.0
 11
10.6837702871709421
 21
3.1548325729791742
 31
0.0
  0
LINE
  5
B1
100
AcDbEntity
100
AcDbLine
  8
0
 62
256
370
-1
 48
1.0
  6
BYLAYER
 10
10.6837702871709421
 20
3.1548325729791742
 30
0.0
 11
10.6703464871709439
 21
3.1872368929791719
 31
0.0
  0
LINE
  5
B2
100
AcDbEntity
100
AcDbLine
  8
0
 62
256
370
-1
 48
1.0
  6
BYLAYER
 10
10.6703464871709439
 20
3.1872368929791719
 30
0.0
 11
10.6533814871709449
 21
3.2179353529791825
 31
0.0
  0
LINE
  5
B3
100
AcDbEntity
100
AcDbLine
  8
0
 62
256
370
-1
 48
1.0
  6
BYLAYER
 10
10.6533814871709449
 20
3.2179353529791825
 30
0.0
 11
10.6515367871709454
 21
3.2197004929791717
 31
0.0
  0
LINE
  5
B4
100
AcDbEntity
100
AcDbLine
  8
0
 62
256
370
-1
 48
1.0
  6
BYLAYER
 10
10.6515367871709454
 20
3.2197004929791717
 30
0.0
 11
10.6476757871709449
 21
3.2217791929791701
 31
0.0
  0
LINE
  5
B5
100
AcDbEntity
100
AcDbLine
  8
0
 62
256
370
-1
 48
1.0
  6
BYLAYER
 10
10.6476757871709449
 20
3.2217791929791701
 30
0.0
 11
10.6434598871709465
 21
3.2227261129791742
 31
0.0
  0
LINE
  5
B6
100
AcDbEntity
100
AcDbLine
  8
0
 62
256
370
-1
 48
1.0
  6
BYLAYER
 10
10.6434598871709465
 20
3.2227261129791742
 30
0.0
 11
10.6391386871709468
 21
3.2224480429791811
 31
0.0
  0
LINE
  5
B7
100
AcDbEntity
100
AcDbLine
  8
0
 62
256
370
-1
 48
1.0
  6
BYLAYER
 10
10.6391386871709468
 20
3.2224480429791811
 30
0.0
 11
10.6037968871709491
 21
3.2148375829791718
 31
0.0
  0
LINE
  5
B8
100
AcDbEntity
100
AcDbLine
  8
0
 62
256
370
-1
 48
1.0
  6
BYLAYER
 10
10.6037968871709491
 20
3.2148375829791718
 30
0.0
 11
10.599491287170947
 21
3.2145614629791766
 31
0.0
  0
LINE
  5
B9
100
AcDbEntity
100
AcDbLine
  8
0
 62
256
370
-1
 48
1.0
  6
BYLAYER
 10
10.599491287170947
 20
3.2145614629791766
 30
0.0
 11
10.5952714871709457
 21
3.2155076029791729
 31
0.0
  0
LINE
  5
BA
100
AcDbEntity
100
AcDbLine
  8
0
 62
256
370
-1
 48
1.0
  6
BYLAYER
 10
10.5952714871709457
 20
3.2155076029791729
 30
0.0
 11
10.5914026871709464
 21
3.2175863029791714
 31
0.0
  0
LINE
  5
BB
100
AcDbEntity
100
AcDbLine
  8
0
 62
256
370
-1
 48
1.0
  6
BYLAYER
 10
10.5914026871709464
 20
3.2175863029791714
 30
0.0
 11
10.5881383871709485
 21
3.2207055229791735
 31
0.0
  0
LINE
  5
BC
100
AcDbEntity
100
AcDbLine
  8
0
 62
256
370
-1
 48
1.0
  6
BYLAYER
 10
10.5881383871709485
 20
3.2207055229791735
 30
0.0
 11
10.5649411871709429
 21
3.2497948429791705
 31
0.0
  0
LINE
  5
BD
100
AcDbEntity
100
AcDbLine
  8
0
 62
256
370
-1
 48
1.0
  6
BYLAYER
 10
10.5649411871709429
 20
3.2497948429791705
 30
0.0
 11
10.5626245871709425
 21
3.2536733929791808
 31
0.0
  0
CIRCLE
  5
BE
100
AcDbEntity
100
AcDbCircle
  8
0
 62
3
420
65280
370
-1
 48
1.0
  6
BYLAYER
 10
13.0
 20
9.8000000000000025
 30
0.0
 40
0.0538785000000007
  0
LINE
  5
BF
100
AcDbEntity
100
AcDbLine
  8
0
 62
256
370
-1
 48
1.0
  6
BYLAYER
 10
10.5626245871709425
 20
3.2536733929791808
 30
0.0
 11
10.5614584871709436
 21
3.2579072329791785
 31
0.0
  0
LINE
  5
C0
100
AcDbEntity
100
AcDbLine
  8
0
 62
256
370
-1
 48
1.0
  6
BYLAYER
 10
10.5614584871709436
 20
3.2579072329791785
 30
0.0
 11
10.5614740871709483
 21
3.262228822979182
 31
0.0
  0
LINE
  5
C1
100
AcDbEntity
100
AcDbLine
  8
0
 62
256
370
-1
 48
1.0
  6
BYLAYER
 10
10.5614740871709483
 20
3.262228822979182
 30
0.0
 11
10.5627025871709446
 21
3.2663690629791802
 31
0.0
  0
CIRCLE
  5
C2
100
AcDbEntity
100
AcDbCircle
  8
0
 62
3
420
65280
370
-1
 48
1.0
  6
BYLAYER
 10
10.5075547349999994
 20
9.8000000000000025
 30
0.0
 40
0.0538785000000007
  0
LINE
  5
C3
100
AcDbEntity
100
AcDbLine
  8
0
 62
256
370
-1
 48
1.0
  6
BYLAYER
 10
10.5627025871709446
 20
3.2663690629791802
 30
0.0
 11
10.5779866871709469
 21
3.2991275029791751
 31
0.0
  0
LINE
  5
C4
100
AcDbEntity
100
AcDbLine
  8
0
 62
256
370
-1
 48
1.0
  6
BYLAYER
 10
10.5779866871709469
 20
3.2991275029791751
 30
0.0
 11
10.5792190871709462
 21
3.3032806129791794
 31
0.0
  0
LINE
  5
C5
100
AcDbEntity
100
AcDbLine
  8
0
 62
256
370
-1
 48
1.0
  6
BYLAYER
 10
10.5792190871709462
 20
3.3032806129791794
 30
0.0
 11
10.5792307871709479
 21
3.3076033729791732
 31
0.0
  0
CIRCLE
  5
C6
100
AcDbEntity
100
AcDbCircle
  8
0
 62
3
420
65280
370
-1
 48
1.0
  6
BYLAYER
 10
15.4924452650000148
 20
9.8000000000000025
 30
0.0
 40
0.0538785000000007
  0
LINE
  5
C7
100
AcDbEntity
100
AcDbLine
  8
0
 62
256
370
-1
 48
1.0
  6
BYLAYER
 10
10.5792307871709479
 20
3.3076033729791732
 30
0.0
 11
10.5780646871709489
 21
3.3118317529791739
 31
0.0
  0
LINE
  5
C8
100
AcDbEntity
100
AcDbLine
  8
0
 62
256
370
-1
 48
1.0
  6
BYLAYER
 10
10.5780646871709489
 20
3.3118317529791739
 30
0.0
 11
10.5767542871709477
 21
3.3140184829791792
 31
0.0
  0
LINE
  5
C9
100
AcDbEntity
100
AcDbLine
  8
0
 62
256
370
-1
 48
1.0
  6
BYLAYER
 10
10.5767542871709477
 20
3.3140184829791792
 30
0.0
 11
10.5506047871709452
 21
3.337389622979174
 31
0.0
  0
CIRCLE
  5
CA
100
AcDbEntity
100
AcDbCircle
  8
0
 62
3
420
65280
370
-1
 48
1.0
  6
BYLAYER
 10
13.0
 20
9.1000000000000032
 30
0.0
 40
0.0538785000000007
  0
LINE
  5
CB
100
AcDbEntity
100
AcDbLine
  8
0
 62
256
370
-1
 48
1.0
  6
BYLAYER
 10
10.5506047871709452
 20
3.337389622979174
 30
0.0
 11
10.521998287170943
 21
3.3576871729791833
 31
0.0
  0
LINE
  5
CC
100
AcDbEntity
100
AcDbLine
  8
0
 62
256
370
-1
 48
1.0
  6
BYLAYER
 10
10.521998287170943
 20
3.3576871729791833
 30
0.0
 11
10.5195685871709426
 21
3.3584769229791789
 31
0.0
  0
LINE
  5
CD
100
AcDbEntity
100
AcDbLine
  8
0
 62
256
370
-1
 48
1.0
  6
BYLAYER
 10
10.5195685871709426
 20
3.3584769229791789
 30
0.0
 11
10.5151888871709485
 21
3.3586742629791786
 31
0.0
  0
CIRCLE
  5
CE
100
AcDbEntity
100
AcDbCircle
  8
0
 62
3
420
65280
370
-1
 48
1.0
  6
BYLAYER
 10
13.0
 20
10.499999999999984
 30
0.0
 40
0.0538785000000007
  0
LINE
  5
CF
100
AcDbEntity
100
AcDbLine
  8
0
 62
256
370
-1
 48
1.0
  6
BYLAYER
 10
10.5151888871709485
 20
3.3586742629791786
 30
0.0
 11
10.5109807871709489
 21
3.3576984829791741
 31
0.0
  0
LINE
  5
D0
100
AcDbEntity
100
AcDbLine
  8
0
 62
256
370
-1
 48
1.0
  6
BYLAYER
 10
10.5109807871709489
 20
3.3576984829791741
 30
0.0
 11
10.507205587170942
 21
3.355572592979172
 31
0.0
  0
LINE
  5
D1
100
AcDbEntity
100
AcDbLine
  8
0
 62
256
370
-1
 48
1.0
  6
BYLAYER
 10
10.507205587170942
 20
3.355572592979172
 30
0.0
 11
10.478669287170943
 21
3.3333827629791699
 31
0.0
  0
CIRCLE
  5
D2
100
AcDbEntity
100
AcDbCircle
  8
0
 62
3
420
65280
370
-1
 48
1.0
  6
BYLAYER
 10
10.5075547349999994
 20
9.0999999999999996
 30
0.0
 40
0.0538785000000007
  0
LINE
  5
D3
100
AcDbEntity
100
AcDbLine
  8
0
 62
256
370
-1
 48
1.0
  6
BYLAYER
 10
10.478669287170943
 20
3.3333827629791699
 30
0.0
 11
10.4749096871709479
 21
3.3312650629791705
 31
0.0
  0
LINE
  5
D4
100
AcDbEntity
100
AcDbLine
  8
0
 62
256
370
-1
 48
1.0
  6
BYLAYER
 10
10.4749096871709479
 20
3.3312650629791705
 30
0.0
 11
10.4706976871709454
 21
3.330287722979179
 31
0.0
  0
LINE
  5
D5
100
AcDbEntity
100
AcDbLine
  8
0
 62
256
370
-1
 48
1.0
  6
BYLAYER
 10
10.4706976871709454
 20
3.330287722979179
 30
0.0
 11
10.4663101871709454
 21
3.3304819429791763
 31
0.0
  0
CIRCLE
  5
D6
100
AcDbEntity
100
AcDbCircle
  8
0
 62
3
420
65280
370
-1
 48
1.0
  6
BYLAYER
 10
15.4924452650000148
 20
9.1000000000000032
 30
0.0
 40
0.0538785000000007
  0
LINE
  5
D7
100
AcDbEntity
100
AcDbLine
  8
0
 62
256
370
-1
 48
1.0
  6
BYLAYER
 10
10.4663101871709454
 20
3.3304819429791763
 30
0.0
 11
10.462016287170945
 21
3.3318754129791728
 31
0.0
  0
LINE
  5
D8
100
AcDbEntity
100
AcDbLine
  8
0
 62
256
370
-1
 48
1.0
  6
BYLAYER
 10
10.462016287170945
 20
3.3318754129791728
 30
0.0
 11
10.4284918871709475
 21
3.3480186829791734
 31
0.0
  0
LINE
  5
D9
100
AcDbEntity
100
AcDbLine
  8
0
 62
256
370
-1
 48
1.0
  6
BYLAYER
 10
10.4284918871709475
 20
3.3480186829791734
 30
0.0
 11
10.4247244871709466
 21
3.3505084429791765
 31
0.0
  0
LINE
  5
DA
100
AcDbEntity
100
AcDbLine
  8
0
 62
256
370
-1
 48
1.0
  6
BYLAYER
 10
10.4247244871709466
 20
3.3505084429791765
 30
0.0
 11
10.4218384871709429
 21
3.3538179829791801
 31
0.0
  0
LINE
  5
DB
100
AcDbEntity
100
AcDbLine
  8
0
 62
256
370
-1
 48
1.0
  6
BYLAYER
 10
10.4218384871709429
 20
3.3538179829791801
 30
0.0
 11
10.4199781871709458
 21
3.3577187629791752
 31
0.0
  0
LINE
  5
DC
100
AcDbEntity
100
AcDbLine
  8
0
 62
256
370
-1
 48
1.0
  6
BYLAYER
 10
10.4199781871709458
 20
3.3577187629791752
 30
0.0
 11
10.4192878871709436
 21
3.3619806829791798
 31
0.0
  0
CIRCLE
  5
DD
100
AcDbEntity
100
AcDbCircle
  8
0
 62
3
420
65280
370
-1
 48
1.0
  6
BYLAYER
 10
15.4924452650000148
 20
10.499999999999984
 30
0.0
 40
0.0538785000000007
  0
LINE
  5
DE
100
AcDbEntity
100
AcDbLine
  8
0
 62
256
370
-1
 48
1.0
  6
BYLAYER
 10
10.4192878871709436
 20
3.3619806829791798
 30
0.0
 11
10.4188432871709491
 21
3.3981270529791772
 31
0.0
  0
LINE
  5
DF
100
AcDbEntity
100
AcDbLine
  8
0
 62
256
370
-1
 48
1.0
  6
BYLAYER
 10
10.4188432871709491
 20
3.3981270529791772
 30
0.0
 11
10.4181490871709439
 21
3.4024014529791771
 31
0.0
  0
LINE
  5
E0
100
AcDbEntity
100
AcDbLine
  8
0
 62
256
370
-1
 48
1.0
  6
BYLAYER
 10
10.4181490871709439
 20
3.4024014529791771
 30
0.0
 11
10.4162887871709469
 21
3.4063014529791786
 31
0.0
  0
CIRCLE
  5
E1
100
AcDbEntity
100
AcDbCircle
  8
0
 62
3
420
65280
370
-1
 48
1.0
  6
BYLAYER
 10
10.5075547349999994
 20
10.4999999999999805
 30
0.0
 40
0.0538785000000007
  0
LINE
  5
E2
100
AcDbEntity
100
AcDbLine
  8
0
 62
256
370
-1
 48
1.0
  6
BYLAYER
 10
10.4162887871709469
 20
3.4063014529791786
 30
0.0
 11
10.4133988871709473
 21
3.4096047529791775
 31
0.0
  0
LINE
  5
E3
100
AcDbEntity
100
AcDbLine
  8
0
 62
256
370
-1
 48
1.0
  6
BYLAYER
 10
10.4133988871709473
 20
3.4096047529791775
 30
0.0
 11
10.4112733871709491
 21
3.4110087529791713
 31
0.0
  0
LINE
  5
E4
100
AcDbEntity
100
AcDbLine
  8
0
 62
256
370
-1
 48
1.0
  6
BYLAYER
 10
10.4112733871709491
 20
3.4110087529791713
 30
0.0
 11
10.3775695871709441
 21
3.4207197529791813
 31
0.0
  0
LINE
  5
E5
100
AcDbEntity
100
AcDbLine
  8
0
 62
256
370
-1
 48
1.0
  6
BYLAYER
 10
10.3775695871709441
 20
3.4207197529791813
 30
0.0
 11
10.3429882871709449
 21
3.42659315297918
 31
0.0
  0
LINE
  5
E6
100
AcDbEntity
100
AcDbLine
  8
0
 62
256
370
-1
 48
1.0
  6
BYLAYER
 10
10.3429882871709449
 20
3.42659315297918
 30
0.0
 11
10.340461087170949
 21
3.4262538529791726
 31
0.0
  0
LINE
  5
E7
100
AcDbEntity
100
AcDbLine
  8
0
 62
256
370
-1
 48
1.0
  6
BYLAYER
 10
10.340461087170949
 20
3.4262538529791726
 30
0.0
 11
10.3364284871709469
 21
3.4245300529791791
 31
0.0
  0
LINE
  5
E8
100
AcDbEntity
100
AcDbLine
  8
0
 62
256
370
-1
 48
1.0
  6
BYLAYER
 10
10.3364284871709469
 20
3.4245300529791791
 30
0.0
 11
10.3330588871709477
 21
3.4218234529791829
 31
0.0
  0
LINE
  5
E9
100
AcDbEntity
100
AcDbLine
  8
0
 62
256
370
-1
 48
1.0
  6
BYLAYER
 10
10.3330588871709477
 20
3.4218234529791829
 30
0.0
 11
10.3305823871709475
 21
3.4182705529791804
 31
0.0
  0
LINE
  5
EA
100
AcDbEntity
100
AcDbLine
  8
0
 62
256
370
-1
 48
1.0
  6
BYLAYER
 10
10.3305823871709475
 20
3.4182705529791804
 30
0.0
 11
10.3144987871709457
 21
3.3858974329791778
 31
0.0
  0
LINE
  5
EB
100
AcDbEntity
100
AcDbLine
  8
0
 62
256
370
-1
 48
1.0
  6
BYLAYER
 10
10.3144987871709457
 20
3.3858974329791778
 30
0.0
 11
10.3120261871709484
 21
3.3823566229791737
 31
0.0
  0
LINE
  5
EC
100
AcDbEntity
100
AcDbLine
  8
0
 62
256
370
-1
 48
1.0
  6
BYLAYER
 10
10.3120261871709484
 20
3.3823566229791737
 30
0.0
 11
10.3086604871709451
 21
3.3796496329791808
 31
0.0
  0
LINE
  5
ED
100
AcDbEntity
100
AcDbLine
  8
0
 62
256
370
-1
 48
1.0
  6
BYLAYER
 10
10.3086604871709451
 20
3.3796496329791808
 30
0.0
 11
10.3046239871709471
 21
3.3779207629791728
 31
0.0
  0
LINE
  5
EE
100
AcDbEntity
100
AcDbLine
  8
0
 62
256
370
-1
 48
1.0
  6
BYLAYER
 10
10.3046239871709471
 20
3.3779207629791728
 30
0.0
 11
10.3001467871709433
 21
3.3773127529791793
 31
0.0
  0
LINE
  5
EF
100
AcDbEntity
100
AcDbLine
  8
0
 62
256
370
-1
 48
1.0
  6
BYLAYER
 10
10.3001467871709433
 20
3.3773127529791793
 30
0.0
 11
10.2629407871709457
 21
3.3773127529791793
 31
0.0
  0
LINE
  5
F0
100
AcDbEntity
100
AcDbLine
  8
0
 62
256
370
-1
 48
1.0
  6
BYLAYER
 10
10.2629407871709457
 20
3.3773127529791793
 30
0.0
 11
10.2584635871709491
 21
3.3779207629791728
 31
0.0
  0
LINE
  5
F1
100
AcDbEntity
100
AcDbLine
  8
0
 62
256
370
-1
 48
1.0
  6
BYLAYER
 10
10.2584635871709491
 20
3.3779207629791728
 30
0.0
 11
10.254427087170944
 21
3.3796496329791808
 31
0.0
  0
LINE
  5
F2
100
AcDbEntity
100
AcDbLine
  8
0
 62
256
370
-1
 48
1.0
  6
BYLAYER
 10
10.254427087170944
 20
3.3796496329791808
 30
0.0
 11
10.2510574871709448
 21
3.3823566229791737
 31
0.0
  0
LINE
  5
F3
100
AcDbEntity
100
AcDbLine
  8
0
 62
256
370
-1
 48
1.0
  6
BYLAYER
 10
10.2510574871709448
 20
3.3823566229791737
 30
0.0
 11
10.2485887871709433
 21
3.3858974329791778
 31
0.0
  0
LINE
  5
F4
100
AcDbEntity
100
AcDbLine
  8
0
 62
256
370
-1
 48
1.0
  6
BYLAYER
 10
10.2485887871709433
 20
3.3858974329791778
 30
0.0
 11
10.2325051871709487
 21
3.4182705529791804
 31
0.0
  0
LINE
  5
F5
100
AcDbEntity
100
AcDbLine
  8
0
 62
256
370
-1
 48
1.0
  6
BYLAYER
 10
10.2325051871709487
 20
3.4182705529791804
 30
0.0
 11
10.2300247871709455
 21
3.4218234529791829
 31
0.0
  0
LINE
  5
F6
100
AcDbEntity
100
AcDbLine
  8
0
 62
256
370
-1
 48
1.0
  6
BYLAYER
 10
10.2300247871709455
 20
3.4218234529791829
 30
0.0
 11
10.2266551871709463
 21
3.4245300529791791
 31
0.0
  0
LINE
  5
F7
100
AcDbEntity
100
AcDbLine
  8
0
 62
256
370
-1
 48
1.0
  6
BYLAYER
 10
10.2266551871709463
 20
3.4245300529791791
 30
0.0
 11
10.2226186871709483
 21
3.4262538529791726
 31
0.0
  0
LINE
  5
F8
100
AcDbEntity
100
AcDbLine
  8
0
 62
256
370
-1
 48
1.0
  6
BYLAYER
 10
10.2226186871709483
 20
3.4262538529791726
 30
0.0
 11
10.2200953871709483
 21
3.42659315297918
 31
0.0
  0
LINE
  5
F9
100
AcDbEntity
100
AcDbLine
  8
0
 62
256
370
-1
 48
1.0
  6
BYLAYER
 10
10.2200953871709483
 20
3.42659315297918
 30
0.0
 11
10.1855179871709449
 21
3.4207197529791813
 31
0.0
  0
LINE
  5
FA
100
AcDbEntity
100
AcDbLine
  8
0
 62
256
370
-1
 48
1.0
  6
BYLAYER
 10
10.1855179871709449
 20
3.4207197529791813
 30
0.0
 11
10.1518141871709471
 21
3.4110087529791713
 31
0.0
  0
LINE
  5
FB
100
AcDbEntity
100
AcDbLine
  8
0
 62
256
370
-1
 48
1.0
  6
BYLAYER
 10
10.1518141871709471
 20
3.4110087529791713
 30
0.0
 11
10.149680887170943
 21
3.4096047529791775
 31
0.0
  0
LINE
  5
FC
100
AcDbEntity
100
AcDbLine
  8
0
 62
256
370
-1
 48
1.0
  6
BYLAYER
 10
10.149680887170943
 20
3.4096047529791775
 30
0.0
 11
10.1467948871709464
 21
3.4063014529791786
 31
0.0
  0
LINE
  5
FD
100
AcDbEntity
100
AcDbLine
  8
0
 62
256
370
-1
 48
1.0
  6
BYLAYER
 10
10.1467948871709464
 20
3.4063014529791786
 30
0.0
 11
10.1449345871709493
 21
3.4024014529791771
 31
0.0
  0
LINE
  5
FE
100
AcDbEntity
100
AcDbLine
  8
0
 62
256
370
-1
 48
1.0
  6
BYLAYER
 10
10.1449345871709493
 20
3.4024014529791771
 30
0.0
 11
10.1442442871709471
 21
3.3981270529791772
 31
0.0
  0
LINE
  5
FF
100
AcDbEntity
100
AcDbLine
  8
0
 62
256
370
-1
 48
1.0
  6
BYLAYER
 10
10.1442442871709471
 20
3.3981270529791772
 30
0.0
 11
10.1437996871709455
 21
3.3619806829791798
 31
0.0
  0
LINE
  5
100
100
AcDbEntity
100
AcDbLine
  8
0
 62
256
370
-1
 48
1.0
  6
BYLAYER
 10
10.1437996871709455
 20
3.3619806829791798
 30
0.0
 11
10.1431093871709432
 21
3.3577187629791752
 31
0.0
  0
LINE
  5
101
100
AcDbEntity
100
AcDbLine
  8
0
 62
256
370
-1
 48
1.0
  6
BYLAYER
 10
10.1431093871709432
 20
3.3577187629791752
 30
0.0
 11
10.1412490871709462
 21
3.3538179829791801
 31
0.0
  0
LINE
  5
102
100
AcDbEntity
100
AcDbLine
  8
0
 62
256
370
-1
 48
1.0
  6
BYLAYER
 10
10.1412490871709462
 20
3.3538179829791801
 30
0.0
 11
10.1383630871709425
 21
3.3505084429791765
 31
0.0
  0
LINE
  5
103
100
AcDbEntity
100
AcDbLine
  8
0
 62
256
370
-1
 48
1.0
  6
BYLAYER
 10
10.1383630871709425
 20
3.3505084429791765
 30
0.0
 11
10.1345956871709486
 21
3.3480186829791734
 31
0.0
  0
LINE
  5
104
100
AcDbEntity
100
AcDbLine
  8
0
 62
256
370
-1
 48
1.0
  6
BYLAYER
 10
10.1345956871709486
 20
3.3480186829791734
 30
0.0
 11
10.101071287170944
 21
3.3318754129791728
 31
0.0
  0
LINE
  5
105
100
AcDbEntity
100
AcDbLine
  8
0
 62
256
370
-1
 48
1.0
  6
BYLAYER
 10
10.101071287170944
 20
3.3318754129791728
 30
0.0
 11
10.0967773871709436
 21
3.3304819429791763
 31
0.0
  0
CIRCLE
  5
106
100
AcDbEntity
100
AcDbCircle
  8
0
 62
3
420
65280
370
-1
 48
1.0
  6
BYLAYER
 10
15.9274452650000029
 20
9.8000000000000025
 30
0.0
 40
0.25
  0
LINE
  5
107
100
AcDbEntity
100
AcDbLine
  8
0
 62
256
370
-1
 48
1.0
  6
BYLAYER
 10
10.0967773871709436
 20
3.3304819429791763
 30
0.0
 11
10.0923898871709437
 21
3.330287722979179
 31
0.0
  0
LINE
  5
108
100
AcDbEntity
100
AcDbLine
  8
0
 62
256
370
-1
 48
1.0
  6
BYLAYER
 10
10.0923898871709437
 20
3.330287722979179
 30
0.0
 11
10.0881778871709482
 21
3.3312650629791705
 31
0.0
  0
LINE
  5
109
100
AcDbEntity
100
AcDbLine
  8
0
 62
256
370
-1
 48
1.0
  6
BYLAYER
 10
10.0881778871709482
 20
3.3312650629791705
 30
0.0
 11
10.0844143871709431
 21
3.3333827629791699
 31
0.0
  0
CIRCLE
  5
10A
100
AcDbEntity
100
AcDbCircle
  8
0
 62
3
420
65280
370
-1
 48
1.0
  6
BYLAYER
 10
10.0725547349999971
 20
9.8000000000000025
 30
0.0
 40
0.25
  0
LINE
  5
10B
100
AcDbEntity
100
AcDbLine
  8
0
 62
256
370
-1
 48
1.0
  6
BYLAYER
 10
10.0844143871709431
 20
3.3333827629791699
 30
0.0
 11
10.0558780871709441
 21
3.355572592979172
 31
0.0
  0
LINE
  5
10C
100
AcDbEntity
100
AcDbLine
  8
0
 62
256
370
-1
 48
1.0
  6
BYLAYER
 10
10.0558780871709441
 20
3.355572592979172
 30
0.0
 11
10.0521028871709444
 21
3.3576977029791806
 31
0.0
  0
LINE
  5
10D
100
AcDbEntity
100
AcDbLine
  8
0
 62
256
370
-1
 48
1.0
  6
BYLAYER
 10
10.0521028871709444
 20
3.3576977029791806
 30
0.0
 11
10.0478947871709448
 21
3.3586719229791839
 31
0.0
  0
CIRCLE
  5
10E
100
AcDbEntity
100
AcDbCircle
  8
0
 62
3
420
65280
370
-1
 48
1.0
  6
BYLAYER
 10
15.9274452650000029
 20
10.499999999999984
 30
0.0
 40
0.25
  0
LINE
  5
10F
100
AcDbEntity
100
AcDbLine
  8
0
 62
256
370
-1
 48
1.0
  6
BYLAYER
 10
10.0478947871709448
 20
3.3586719229791839
 30
0.0
 11
10.0435111871709477
 21
3.3584738029791765
 31
0.0
  0
LINE
  5
110
100
AcDbEntity
100
AcDbLine
  8
0
 62
256
370
-1
 48
1.0
  6
BYLAYER
 10
10.0435111871709477
 20
3.3584738029791765
 30
0.0
 11
10.0410892871709461
 21
3.3576860029791789
 31
0.0
  0
LINE
  5
111
100
AcDbEntity
100
AcDbLine
  8
0
 62
256
370
-1
 48
1.0
  6
BYLAYER
 10
10.0410892871709461
 20
3.3576860029791789
 30
0.0
 11
10.0124827871709439
 21
3.337389622979174
 31
0.0
  0
CIRCLE
  5
112
100
AcDbEntity
100
AcDbCircle
  8
0
 62
3
420
65280
370
-1
 48
1.0
  6
BYLAYER
 10
10.0725547349999971
 20
10.499999999999984
 30
0.0
 40
0.25
  0
LINE
  5
113
100
AcDbEntity
100
AcDbLine
  8
0
 62
256
370
-1
 48
1.0
  6
BYLAYER
 10
10.0124827871709439
 20
3.337389622979174
 30
0.0
 11
9.9863293871709455
 21
3.3140173129791748
 31
0.0
  0
LINE
  5
114
100
AcDbEntity
100
AcDbLine
  8
0
 62
256
370
-1
 48
1.0
  6
BYLAYER
 10
9.9863293871709455
 20
3.3140173129791748
 30
0.0
 11
9.9850189871709443
 21
3.3118266829791736
 31
0.0
  0
LINE
  5
115
100
AcDbEntity
100
AcDbLine
  8
0
 62
256
370
-1
 48
1.0
  6
BYLAYER
 10
9.9850189871709443
 20
3.3118266829791736
 30
0.0
 11
9.9838528871709453
 21
3.3075994729791773
 31
0.0
  0
LINE
  5
116
100
AcDbEntity
100
AcDbLine
  8
0
 62
256
370
-1
 48
1.0
  6
BYLAYER
 10
9.9838528871709453
 20
3.3075994729791773
 30
0.0
 11
9.9838684871709429
 21
3.303279442979175
 31
0.0
  0
CIRCLE
  5
117
100
AcDbEntity
100
AcDbCircle
  8
0
 62
3
420
65280
370
-1
 48
1.0
  6
BYLAYER
 10
15.9274452650000029
 20
9.1000000000000032
 30
0.0
 40
0.25
  0
LINE
  5
118
100
AcDbEntity
100
AcDbLine
  8
0
 62
256
370
-1
 48
1.0
  6
BYLAYER
 10
9.9838684871709429
 20
3.303279442979175
 30
0.0
 11
9.9851008871709492
 21
3.2991275029791751
 31
0.0
  0
LINE
  5
119
100
AcDbEntity
100
AcDbLine
  8
0
 62
256
370
-1
 48
1.0
  6
BYLAYER
 10
9.9851008871709492
 20
3.2991275029791751
 30
0.0
 11
10.0003849871709445
 21
3.2663690629791802
 31
0.0
  0
LINE
  5
11A
100
AcDbEntity
100
AcDbLine
  8
0
 62
256
370
-1
 48
1.0
  6
BYLAYER
 10
10.0003849871709445
 20
3.2663690629791802
 30
0.0
 11
10.0016095871709449
 21
3.262228822979182
 31
0.0
  0
CIRCLE
  5
11B
100
AcDbEntity
100
AcDbCircle
  8
0
 62
3
420
65280
370
-1
 48
1.0
  6
BYLAYER
 10
10.0725547349999971
 20
9.1000000000000032
 30
0.0
 40
0.25
  0
LINE
  5
11C
100
AcDbEntity
100
AcDbLine
  8
0
 62
256
370
-1
 48
1.0
  6
BYLAYER
 10
10.0016095871709449
 20
3.262228822979182
 30
0.0
 11
10.0016251871709425
 21
3.2579072329791785
 31
0.0
  0
LINE
  5
11D
100
AcDbEntity
100
AcDbLine
  8
0
 62
256
370
-1
 48
1.0
  6
BYLAYER
 10
10.0016251871709425
 20
3.2579072329791785
 30
0.0
 11
10.0004629871709465
 21
3.2536733929791808
 31
0.0
  0
LINE
  5
11E
100
AcDbEntity
100
AcDbLine
  8
0
 62
256
370
-1
 48
1.0
  6
BYLAYER
 10
10.0004629871709465
 20
3.2536733929791808
 30
0.0
 11
9.9981463871709462
 21
3.2497948429791705
 31
0.0
  0
LINE
  5
11F
100
AcDbEntity
100
AcDbLine
  8
0
 62
256
370
-1
 48
1.0
  6
BYLAYER
 10
10.0725547349999971
 20
10.1499999999999968
 30
0.0
 11
15.9274452650000029
 21
10.1499999999999932
 31
0.0
  0
LINE
  5
120
100
AcDbEntity
100
AcDbLine
  8
0
 62
256
370
-1
 48
1.0
  6
BYLAYER
 10
9.9981463871709462
 20
3.2497948429791705
 30
0.0
 11
9.9749491871709477
 21
3.2207055229791735
 31
0.0
  0
LINE
  5
121
100
AcDbEntity
100
AcDbLine
  8
0
 62
256
370
-1
 48
1.0
  6
BYLAYER
 10
9.9749491871709477
 20
3.2207055229791735
 30
0.0
 11
9.9716809871709469
 21
3.2175863029791714
 31
0.0
  0
LINE
  5
122
100
AcDbEntity
100
AcDbLine
  8
0
 62
256
370
-1
 48
1.0
  6
BYLAYER
 10
9.9716809871709469
 20
3.2175863029791714
 30
0.0
 11
9.9678160871709434
 21
3.2155076029791729
 31
0.0
  0
LINE
  5
123
100
AcDbEntity
100
AcDbLine
  8
0
 62
256
370
-1
 48
1.0
  6
BYLAYER
 10
9.9678160871709434
 20
3.2155076029791729
 30
0.0
 11
9.9635962871709491
 21
3.2145614629791766
 31
0.0
  0
LINE
  5
124
100
AcDbEntity
100
AcDbLine
  8
0
 62
256
370
-1
 48
1.0
  6
BYLAYER
 10
9.9635962871709491
 20
3.2145614629791766
 30
0.0
 11
9.9592867871709441
 21
3.2148375829791718
 31
0.0
  0
LINE
  5
125
100
AcDbEntity
100
AcDbLine
  8
0
 62
256
370
-1
 48
1.0
  6
BYLAYER
 10
9.9592867871709441
 20
3.2148375829791718
 30
0.0
 11
9.9239488871709423
 21
3.2224480429791811
 31
0.0
  0
LINE
  5
126
100
AcDbEntity
100
AcDbLine
  8
0
 62
256
370
-1
 48
1.0
  6
BYLAYER
 10
9.9239488871709423
 20
3.2224480429791811
 30
0.0
 11
9.9196276871709426
 21
3.2227249429791698
 31
0.0
  0
LINE
  5
127
100
AcDbEntity
100
AcDbLine
  8
0
 62
256
370
-1
 48
1.0
  6
BYLAYER
 10
10.0725547349999971
 20
8.7500000000000124
 30
0.0
 11
15.9274452650000029
 21
8.7500000000000089
 31
0.0
  0
LINE
  5
128
100
AcDbEntity
100
AcDbLine
  8
0
 62
256
370
-1
 48
1.0
  6
BYLAYER
 10
9.9196276871709426
 20
3.2227249429791698
 30
0.0
 11
9.9154078871709483
 21
3.2217749029791776
 31
0.0
  0
LINE
  5
129
100
AcDbEntity
100
AcDbLine
  8
0
 62
256
370
-1
 48
1.0
  6
BYLAYER
 10
9.9154078871709483
 20
3.2217749029791776
 30
0.0
 11
9.9115468871709478
 21
3.2196950329791747
 31
0.0
  0
LINE
  5
12A
100
AcDbEntity
100
AcDbLine
  8
0
 62
256
370
-1
 48
1.0
  6
BYLAYER
 10
9.9115468871709478
 20
3.2196950329791747
 30
0.0
 11
9.9097060871709441
 21
3.2179341829791781
 31
0.0
  0
LINE
  5
12B
100
AcDbEntity
100
AcDbLine
  8
0
 62
256
370
-1
 48
1.0
  6
BYLAYER
 10
10.0725547349999971
 20
9.449999999999994
 30
0.0
 11
15.9274452650000029
 21
9.449999999999994
 31
0.0
  0
LINE
  5
12C
100
AcDbEntity
100
AcDbLine
  8
0
 62
256
370
-1
 48
1.0
  6
BYLAYER
 10
9.9097060871709441
 20
3.2179341829791781
 30
0.0
 11
9.8927410871709451
 21
3.1872368929791719
 31
0.0
  0
LINE
  5
12D
100
AcDbEntity
100
AcDbLine
  8
0
 62
256
370
-1
 48
1.0
  6
BYLAYER
 10
9.8927410871709451
 20
3.1872368929791719
 30
0.0
 11
9.8793172871709469
 21
3.1548317929791807
 31
0.0
  0
LINE
  5
12E
100
AcDbEntity
100
AcDbLine
  8
0
 62
256
370
-1
 48
1.0
  6
BYLAYER
 10
9.8793172871709469
 20
3.1548317929791807
 30
0.0
 11
9.8790871871709438
 21
3.1522889929791802
 31
0.0
  0
LINE
  5
12F
100
AcDbEntity
100
AcDbLine
  8
0
 62
256
370
-1
 48
1.0
  6
BYLAYER
 10
10.0725547349999971
 20
10.1499999999999968
 30
0.0
 11
15.9274452650000029
 21
10.1499999999999932
 31
0.0
  0
LINE
  5
130
100
AcDbEntity
100
AcDbLine
  8
0
 62
256
370
-1
 48
1.0
  6
BYLAYER
 10
9.8790871871709438
 20
3.1522889929791802
 30
0.0
 11
9.8798710871709456
 21
3.1479740329791781
 31
0.0
  0
LINE
  5
131
100
AcDbEntity
100
AcDbLine
  8
0
 62
256
370
-1
 48
1.0
  6
BYLAYER
 10
9.8798710871709456
 20
3.1479740329791781
 30
0.0
 11
9.8817586871709491
 21
3.1440880729791729
 31
0.0
  0
LINE
  5
132
100
AcDbEntity
100
AcDbLine
  8
0
 62
256
370
-1
 48
1.0
  6
BYLAYER
 10
9.8817586871709491
 20
3.1440880729791729
 30
0.0
 11
9.884671987170945
 21
3.1408822729791837
 31
0.0
  0
LINE
  5
133
100
AcDbEntity
100
AcDbLine
  8
0
 62
256
370
-1
 48
1.0
  6
BYLAYER
 10
10.0725547349999971
 20
9.449999999999994
 30
0.0
 11
15.9274452650000029
 21
9.449999999999994
 31
0.0
  0
LINE
  5
134
100
AcDbEntity
100
AcDbLine
  8
0
 62
256
370
-1
 48
1.0
  6
BYLAYER
 10
9.884671987170945
 20
3.1408822729791837
 30
0.0
 11
9.9126544871709452
 21
3.117999022979177
 31
0.0
  0
LINE
  5
135
100
AcDbEntity
100
AcDbLine
  8
0
 62
256
370
-1
 48
1.0
  6
BYLAYER
 10
9.9126544871709452
 20
3.117999022979177
 30
0.0
 11
9.9155560871709465
 21
3.1148018029791729
 31
0.0
  0
LINE
  5
136
100
AcDbEntity
100
AcDbLine
  8
0
 62
256
370
-1
 48
1.0
  6
BYLAYER
 10
9.9155560871709465
 20
3.1148018029791729
 30
0.0
 11
9.9174436871709428
 21
3.1109150629791742
 31
0.0
  0
ARC
  5
137
100
AcDbEntity
  8
0
 62
256
370
-1
 48
1.0
  6
BYLAYER
100
AcDbCircle
 10
10.0725547349999971
 20
9.8000000000000025
 30
0.0
 40
0.3499999999999904
100
AcDbArc
 50
90.0
 51
270.0
  0
LINE
  5
138
100
AcDbEntity
100
AcDbLine
  8
0
 62
256
370
-1
 48
1.0
  6
BYLAYER
 10
9.9174436871709428
 20
3.1109150629791742
 30
0.0
 11
9.9182314871709476
 21
3.1065950329791718
 31
0.0
  0
LINE
  5
139
100
AcDbEntity
100
AcDbLine
  8
0
 62
3
420
65280
370
-1
 48
1.0
  6
BYLAYER
 10
-2.7581124192600583
 20
1.3210411940430191
 30
0.0
 11
-2.9999999953909366
 21
1.321629964268304
 31
0.0
  0
LINE
  5
13A
100
AcDbEntity
100
AcDbLine
  8
0
 62
256
370
-1
 48
1.0
  6
BYLAYER
 10
9.9182314871709476
 20
3.1065950329791718
 30
0.0
 11
9.9178297871709429
 21
3.1020963829791697
 31
0.0
  0
ARC
  5
13B
100
AcDbEntity
  8
0
 62
256
370
-1
 48
1.0
  6
BYLAYER
100
AcDbCircle
 10
10.0725547349999971
 20
10.499999999999984
 30
0.0
 40
0.3499999999999904
100
AcDbArc
 50
90.0
 51
270.0
  0
LINE
  5
13C
100
AcDbEntity
100
AcDbLine
  8
0
 62
3
420
65280
370
-1
 48
1.0
  6
BYLAYER
 10
-2.7581124192600583
 20
3.2527111940430196
 30
0.0
 11
-2.9999999953909366
 21
3.2532999642683045
 31
0.0
  0
LINE
  5
13D
100
AcDbEntity
100
AcDbLine
  8
0
 62
256
370
-1
 48
1.0
  6
BYLAYER
 10
9.9178297871709429
 20
3.1020963829791697
 30
0.0
 11
9.9095500871709472
 21
3.065822482979172
 31
0.0
  0
LINE
  5
13E
100
AcDbEntity
100
AcDbLine
  8
0
 62
3
420
65280
370
-1
 48
1.0
  6
BYLAYER
 10
-1.3865905522297481
 20
3.1372354790597043
 30
0.0
 11
-1.4546639953909306
 21
3.1372354790597008
 31
0.0
  0
LINE
  5
13F
100
AcDbEntity
100
AcDbLine
  8
0
 62
256
370
-1
 48
1.0
  6
BYLAYER
 10
9.9095500871709472
 20
3.065822482979172
 30
0.0
 11
9.907962787170943
 21
3.0615944929791823
 31
0.0
  0
LINE
  5
140
100
AcDbEntity
100
AcDbLine
  8
0
 62
256
370
-1
 48
1.0
  6
BYLAYER
 10
9.907962787170943
 20
3.0615944929791823
 30
0.0
 11
9.9053770871709457
 21
3.0580435429791777
 31
0.0
  0
ARC
  5
141
100
AcDbEntity
  8
0
 62
256
370
-1
 48
1.0
  6
BYLAYER
100
AcDbCircle
 10
10.0725547349999971
 20
9.1000000000000032
 30
0.0
 40
0.3499999999999904
100
AcDbArc
 50
90.0
 51
270.0
  0
LINE
  5
142
100
AcDbEntity
100
AcDbLine
  8
0
 62
256
370
-1
 48
1.0
  6
BYLAYER
 10
9.9053770871709457
 20
3.0580435429791777
 30
0.0
 11
9.901987987170946
 21
3.0553615129791751
 31
0.0
  0
LINE
  5
143
100
AcDbEntity
100
AcDbLine
  8
0
 62
256
370
-1
 48
1.0
  6
BYLAYER
 10
9.901987987170946
 20
3.0553615129791751
 30
0.0
 11
9.897986587170946
 21
3.0537406729791741
 31
0.0
  0
LINE
  5
144
100
AcDbEntity
100
AcDbLine
  8
0
 62
3
420
65280
370
-1
 48
1.0
  6
BYLAYER
 10
-2.7581124192600583
 20
1.2312533091030211
 30
0.0
 11
-2.9999999953909366
 21
1.2312533044939045
 31
0.0
  0
LINE
  5
145
100
AcDbEntity
100
AcDbLine
  8
0
 62
256
370
-1
 48
1.0
  6
BYLAYER
 10
9.897986587170946
 20
3.0537406729791741
 30
0.0
 11
9.8628475871709451
 21
3.0452644129791793
 31
0.0
  0
LINE
  5
146
100
AcDbEntity
100
AcDbLine
  8
0
 62
3
420
65280
370
-1
 48
1.0
  6
BYLAYER
 10
-2.7581124192600583
 20
3.1629233091030216
 30
0.0
 11
-2.9999999953909366
 21
3.1629233044939049
 31
0.0
  0
LINE
  5
147
100
AcDbEntity
100
AcDbLine
  8
0
 62
256
370
-1
 48
1.0
  6
BYLAYER
 10
9.8628475871709451
 20
3.0452644129791793
 30
0.0
 11
9.8588305871709476
 21
3.0436381129791812
 31
0.0
  0
LINE
  5
148
100
AcDbEntity
100
AcDbLine
  8
0
 62
3
420
65280
370
-1
 48
1.0
  6
BYLAYER
 10
-1.3865905476206137
 20
3.0468588238944143
 30
0.0
 11
-1.4546639953909306
 21
3.0468588192853012
 31
0.0
  0
LINE
  5
149
100
AcDbEntity
100
AcDbLine
  8
0
 62
256
370
-1
 48
1.0
  6
BYLAYER
 10
9.8588305871709476
 20
3.0436381129791812
 30
0.0
 11
9.8554414871709479
 21
3.0409529629791763
 31
0.0
  0
LINE
  5
14A
100
AcDbEntity
100
AcDbLine
  8
0
 62
256
370
-1
 48
1.0
  6
BYLAYER
 10
9.8554414871709479
 20
3.0409529629791763
 30
0.0
 11
9.8528674871709452
 21
3.0374034169791742
 31
0.0
  0
ARC
  5
14B
100
AcDbEntity
  8
0
 62
256
370
-1
 48
1.0
  6
BYLAYER
100
AcDbCircle
 10
15.9274452650000029
 20
9.8000000000000025
 30
0.0
 40
0.3499999999999904
100
AcDbArc
 50
270.0
 51
90.0
  0
LINE
  5
14C
100
AcDbEntity
100
AcDbLine
  8
0
 62
256
370
-1
 48
1.0
  6
BYLAYER
 10
9.8528674871709452
 20
3.0374034169791742
 30
0.0
 11
9.8519704871709433
 21
3.0350176699791831
 31
0.0
  0
LINE
  5
14D
100
AcDbEntity
100
AcDbLine
  8
0
 62
256
370
-1
 48
1.0
  6
BYLAYER
 10
9.8519704871709433
 20
3.0350176699791831
 30
0.0
 11
9.8500048871709449
 21
2.999999452979182
 31
0.0
  0
LINE
  5
14E
100
AcDbEntity
100
AcDbLine
  8
0
 62
3
420
65280
370
-1
 48
1.0
  6
BYLAYER
 10
-1.2127764146509179
 20
3.0468588238944143
 30
0.0
 11
-1.2808498578121004
 21
3.0468588238944143
 31
0.0
  0
LINE
  5
14F
100
AcDbEntity
100
AcDbLine
  8
0
 62
256
370
-1
 48
1.0
  6
BYLAYER
 10
9.8500048871709449
 20
2.999999452979182
 30
0.0
 11
9.8519704871709433
 21
2.9649800269791768
 31
0.0
  0
ARC
  5
150
100
AcDbEntity
  8
0
 62
256
370
-1
 48
1.0
  6
BYLAYER
100
AcDbCircle
 10
15.9274452650000029
 20
10.499999999999984
 30
0.0
 40
0.3499999999999904
100
AcDbArc
 50
270.0
 51
90.0
  0
LINE
  5
151
100
AcDbEntity
100
AcDbLine
  8
0
 62
256
370
-1
 48
1.0
  6
BYLAYER
 10
9.8519704871709433
 20
2.9649800269791768
 30
0.0
 11
9.8528674871709452
 21
2.9625895219791829
 31
0.0
  0
LINE
  5
152
100
AcDbEntity
100
AcDbLine
  8
0
 62
256
370
-1
 48
1.0
  6
BYLAYER
 10
9.8528674871709452
 20
2.9625895219791829
 30
0.0
 11
9.8554453871709438
 21
2.9590408729791733
 31
0.0
  0
LINE
  5
153
100
AcDbEntity
100
AcDbLine
  8
0
 62
256
370
-1
 48
1.0
  6
BYLAYER
 10
9.8554453871709438
 20
2.9590408729791733
 30
0.0
 11
9.8588305871709476
 21
2.9563588429791707
 31
0.0
  0
ARC
  5
154
100
AcDbEntity
  8
0
 62
256
370
-1
 48
1.0
  6
BYLAYER
100
AcDbCircle
 10
15.9274452650000029
 20
9.1000000000000032
 30
0.0
 40
0.3499999999999904
100
AcDbArc
 50
270.0
 51
90.0
  0
LINE
  5
155
100
AcDbEntity
100
AcDbLine
  8
0
 62
3
420
65280
370
-1
 48
1.0
  6
BYLAYER
 10
-1.2127764192600523
 20
3.1372354790597043
 30
0.0
 11
-1.2808498624212348
 21
3.1372354790597008
 31
0.0
  0
LINE
  5
156
100
AcDbEntity
100
AcDbLine
  8
0
 62
256
370
-1
 48
1.0
  6
BYLAYER
 10
9.8588305871709476
 20
2.9563588429791707
 30
0.0
 11
9.8628475871709451
 21
2.9547344929791706
 31
0.0
  0
LINE
  5
157
100
AcDbEntity
100
AcDbLine
  8
0
 62
256
370
-1
 48
1.0
  6
BYLAYER
 10
9.8628475871709451
 20
2.9547344929791706
 30
0.0
 11
9.897986587170946
 21
2.9462582329791758
 31
0.0
  0
LINE
  5
158
100
AcDbEntity
100
AcDbLine
  8
0
 62
256
370
-1
 48
1.0
  6
BYLAYER
 10
9.897986587170946
 20
2.9462582329791758
 30
0.0
 11
9.901987987170946
 21
2.9446373929791747
 31
0.0
  0
LINE
  5
159
100
AcDbEntity
100
AcDbLine
  8
0
 62
256
370
-1
 48
1.0
  6
BYLAYER
 10
9.901987987170946
 20
2.9446373929791747
 30
0.0
 11
9.9053770871709457
 21
2.9419553629791722
 31
0.0
  0
LINE
  5
15A
100
AcDbEntity
100
AcDbLine
  8
0
 62
256
370
-1
 48
1.0
  6
BYLAYER
 10
9.9053770871709457
 20
2.9419553629791722
 30
0.0
 11
9.907962787170943
 21
2.9384044129791818
 31
0.0
  0
LINE
  5
15B
100
AcDbEntity
100
AcDbLine
  8
0
 62
256
370
-1
 48
1.0
  6
BYLAYER
 10
9.907962787170943
 20
2.9384044129791818
 30
0.0
 11
9.9095500871709472
 21
2.9341764229791778
 31
0.0
  0
LINE
  5
15C
100
AcDbEntity
100
AcDbLine
  8
0
 62
256
370
-1
 48
1.0
  6
BYLAYER
 10
9.9095500871709472
 20
2.9341764229791778
 30
0.0
 11
9.9178297871709429
 21
2.8979025229791802
 31
0.0
  0
LINE
  5
15D
100
AcDbEntity
100
AcDbLine
  8
0
 62
256
370
-1
 48
1.0
  6
BYLAYER
 10
9.9178297871709429
 20
2.8979025229791802
 30
0.0
 11
9.9182314871709476
 21
2.893403872979178
 31
0.0
  0
LINE
  5
15E
100
AcDbEntity
100
AcDbLine
  8
0
 62
3
420
65280
370
-1
 48
1.0
  6
BYLAYER
 10
-2.7581124192600583
 20
1.2312533091030211
 30
0.0
 11
-2.7581124192600583
 21
1.3210411940430191
 31
0.0
  0
LINE
  5
15F
100
AcDbEntity
100
AcDbLine
  8
0
 62
256
370
-1
 48
1.0
  6
BYLAYER
 10
9.9182314871709476
 20
2.893403872979178
 30
0.0
 11
9.9174436871709428
 21
2.8890838429791756
 31
0.0
  0
LINE
  5
160
100
AcDbEntity
100
AcDbLine
  8
0
 62
3
420
65280
370
-1
 48
1.0
  6
BYLAYER
 10
-2.7581124192600583
 20
3.1629233091030216
 30
0.0
 11
-2.7581124192600583
 21
3.2527111940430196
 31
0.0
  0
LINE
  5
161
100
AcDbEntity
100
AcDbLine
  8
0
 62
256
370
-1
 48
1.0
  6
BYLAYER
 10
9.9174436871709428
 20
2.8890838429791756
 30
0.0
 11
9.9155560871709465
 21
2.885197102979177
 31
0.0
  0
LINE
  5
162
100
AcDbEntity
100
AcDbLine
  8
0
 62
3
420
65280
370
-1
 48
1.0
  6
BYLAYER
 10
-1.2127764192600523
 20
3.0468588238944179
 30
0.0
 11
-1.2127764192600523
 21
3.1366467088344159
 31
0.0
  0
LINE
  5
163
100
AcDbEntity
100
AcDbLine
  8
0
 62
256
370
-1
 48
1.0
  6
BYLAYER
 10
9.9155560871709465
 20
2.885197102979177
 30
0.0
 11
9.9126544871709452
 21
2.8819998829791729
 31
0.0
  0
LINE
  5
164
100
AcDbEntity
100
AcDbLine
  8
0
 62
256
370
-1
 48
1.0
  6
BYLAYER
 10
9.9126544871709452
 20
2.8819998829791729
 30
0.0
 11
9.884671987170945
 21
2.8591166329791804
 31
0.0
  0
LINE
  5
165
100
AcDbEntity
100
AcDbLine
  8
0
 62
6
420
16711935
370
-1
 48
1.0
  6
BYLAYER
 10
15.1774452650000029
 20
11.0499999999999741
 30
0.0
 11
15.1774452650000029
 21
10.1499999999999932
 31
0.0
  0
LINE
  5
166
100
AcDbEntity
100
AcDbLine
  8
0
 62
256
370
-1
 48
1.0
  6
BYLAYER
 10
9.884671987170945
 20
2.8591166329791804
 30
0.0
 11
9.8817586871709491
 21
2.855908882979179
 31
0.0
  0
LINE
  5
167
100
AcDbEntity
100
AcDbLine
  8
0
 62
256
370
-1
 48
1.0
  6
BYLAYER
 10
9.8817586871709491
 20
2.855908882979179
 30
0.0
 11
9.8798710871709456
 21
2.8520201929791824
 31
0.0
  0
LINE
  5
168
100
AcDbEntity
100
AcDbLine
  8
0
 62
256
370
-1
 48
1.0
  6
BYLAYER
 10
9.8798710871709456
 20
2.8520201929791824
 30
0.0
 11
9.8790871871709438
 21
2.8477032829791824
 31
0.0
  0
LINE
  5
169
100
AcDbEntity
100
AcDbLine
  8
0
 62
6
420
16711935
370
-1
 48
1.0
  6
BYLAYER
 10
10.6925547350000159
 20
11.049999999999967
 30
0.0
 11
10.6925547350000159
 21
10.1499999999999826
 31
0.0
  0
LINE
  5
16A
100
AcDbEntity
100
AcDbLine
  8
0
 62
256
370
-1
 48
1.0
  6
BYLAYER
 10
9.8790871871709438
 20
2.8477032829791824
 30
0.0
 11
9.8793172871709469
 21
2.8451663329791756
 31
0.0
  0
LINE
  5
16B
100
AcDbEntity
100
AcDbLine
  8
0
 62
256
370
-1
 48
1.0
  6
BYLAYER
 10
9.8793172871709469
 20
2.8451663329791756
 30
0.0
 11
9.8927410871709451
 21
2.8127620129791779
 31
0.0
  0
LINE
  5
16C
100
AcDbEntity
100
AcDbLine
  8
0
 62
256
370
-1
 48
1.0
  6
BYLAYER
 10
9.8927410871709451
 20
2.8127620129791779
 30
0.0
 11
9.9097060871709441
 21
2.7820635529791815
 31
0.0
  0
LINE
  5
16D
100
AcDbEntity
100
AcDbLine
  8
0
 62
256
370
-1
 48
1.0
  6
BYLAYER
 10
9.9097060871709441
 20
2.7820635529791815
 30
0.0
 11
9.9115507871709436
 21
2.7802984129791781
 31
0.0
  0
LINE
  5
16E
100
AcDbEntity
100
AcDbLine
  8
0
 62
256
370
-1
 48
1.0
  6
BYLAYER
 10
9.9115507871709436
 20
2.7802984129791781
 30
0.0
 11
9.9154117871709442
 21
2.7782197129791797
 31
0.0
  0
LINE
  5
16F
100
AcDbEntity
100
AcDbLine
  8
0
 62
256
370
-1
 48
1.0
  6
BYLAYER
 10
9.9154117871709442
 20
2.7782197129791797
 30
0.0
 11
9.9196276871709426
 21
2.7772727929791756
 31
0.0
  0
LINE
  5
170
100
AcDbEntity
100
AcDbLine
  8
0
 62
256
370
-1
 48
1.0
  6
BYLAYER
 10
9.9196276871709426
 20
2.7772727929791756
 30
0.0
 11
9.9239488871709423
 21
2.777550862979183
 31
0.0
  0
LINE
  5
171
100
AcDbEntity
100
AcDbLine
  8
0
 62
256
370
-1
 48
1.0
  6
BYLAYER
 10
9.9239488871709423
 20
2.777550862979183
 30
0.0
 11
9.9592867871709441
 21
2.7851613229791781
 31
0.0
  0
LINE
  5
172
100
AcDbEntity
100
AcDbLine
  8
0
 62
256
370
-1
 48
1.0
  6
BYLAYER
 10
9.9592867871709441
 20
2.7851613229791781
 30
0.0
 11
9.9635962871709491
 21
2.7854374429791733
 31
0.0
  0
LINE
  5
173
100
AcDbEntity
100
AcDbLine
  8
0
 62
256
370
-1
 48
1.0
  6
BYLAYER
 10
9.9635962871709491
 20
2.7854374429791733
 30
0.0
 11
9.9678160871709434
 21
2.7844913029791769
 31
0.0
  0
LINE
  5
174
100
AcDbEntity
100
AcDbLine
  8
0
 62
3
420
65280
370
-1
 48
1.0
  6
BYLAYER
 10
-2.9999999953909366
 20
1.2312533091030176
 30
0.0
 11
-2.9999999953909366
 21
1.3210411940430191
 31
0.0
  0
LINE
  5
175
100
AcDbEntity
100
AcDbLine
  8
0
 62
256
370
-1
 48
1.0
  6
BYLAYER
 10
9.9678160871709434
 20
2.7844913029791769
 30
0.0
 11
9.9716809871709469
 21
2.7824126029791785
 31
0.0
  0
LINE
  5
176
100
AcDbEntity
100
AcDbLine
  8
0
 62
3
420
65280
370
-1
 48
1.0
  6
BYLAYER
 10
-2.9999999953909366
 20
3.162923309103018
 30
0.0
 11
-2.9999999953909366
 21
3.252711194043016
 31
0.0
  0
LINE
  5
177
100
AcDbEntity
100
AcDbLine
  8
0
 62
256
370
-1
 48
1.0
  6
BYLAYER
 10
9.9716809871709469
 20
2.7824126029791785
 30
0.0
 11
9.9749491871709477
 21
2.7792933829791764
 31
0.0
  0
LINE
  5
178
100
AcDbEntity
100
AcDbLine
  8
0
 62
3
420
65280
370
-1
 48
1.0
  6
BYLAYER
 10
-1.4546639953909306
 20
3.0468588238944143
 30
0.0
 11
-1.4546639953909306
 21
3.1366467088344123
 31
0.0
  0
LINE
  5
179
100
AcDbEntity
100
AcDbLine
  8
0
 62
256
370
-1
 48
1.0
  6
BYLAYER
 10
9.9749491871709477
 20
2.7792933829791764
 30
0.0
 11
9.9981463871709462
 21
2.7502040629791793
 31
0.0
  0
LINE
  5
17A
100
AcDbEntity
100
AcDbLine
  8
0
 62
256
370
-1
 48
1.0
  6
BYLAYER
 10
9.9981463871709462
 20
2.7502040629791793
 30
0.0
 11
10.0004629871709465
 21
2.7463255129791833
 31
0.0
  0
LINE
  5
17B
100
AcDbEntity
100
AcDbLine
  8
0
 62
256
370
-1
 48
1.0
  6
BYLAYER
 10
10.0004629871709465
 20
2.7463255129791833
 30
0.0
 11
10.0016251871709425
 21
2.7420916729791713
 31
0.0
  0
LINE
  5
17C
100
AcDbEntity
100
AcDbLine
  8
0
 62
256
370
-1
 48
1.0
  6
BYLAYER
 10
10.0016251871709425
 20
2.7420916729791713
 30
0.0
 11
10.0016095871709449
 21
2.737770082979182
 31
0.0
  0
LINE
  5
17D
100
AcDbEntity
100
AcDbLine
  8
0
 62
256
370
-1
 48
1.0
  6
BYLAYER
 10
10.0016095871709449
 20
2.737770082979182
 30
0.0
 11
10.0003849871709445
 21
2.7336298429791839
 31
0.0
  0
LINE
  5
17E
100
AcDbEntity
100
AcDbLine
  8
0
 62
256
370
-1
 48
1.0
  6
BYLAYER
 10
10.0003849871709445
 20
2.7336298429791839
 30
0.0
 11
9.9851008871709492
 21
2.7008714029791747
 31
0.0
  0
LINE
  5
17F
100
AcDbEntity
100
AcDbLine
  8
0
 62
256
370
-1
 48
1.0
  6
BYLAYER
 10
9.9851008871709492
 20
2.7008714029791747
 30
0.0
 11
9.9838684871709429
 21
2.6967182929791704
 31
0.0
  0
LINE
  5
180
100
AcDbEntity
100
AcDbLine
  8
0
 62
6
420
16711935
370
-1
 48
1.0
  6
BYLAYER
 10
15.3074452650000552
 20
11.0499999999999456
 30
0.0
 11
15.3074452650000552
 21
10.1499999999999648
 31
0.0
  0
LINE
  5
181
100
AcDbEntity
100
AcDbLine
  8
0
 62
256
370
-1
 48
1.0
  6
BYLAYER
 10
9.9838684871709429
 20
2.6967182929791704
 30
0.0
 11
9.9838567871709483
 21
2.6923955329791767
 31
0.0
  0
LINE
  5
182
100
AcDbEntity
100
AcDbLine
  8
0
 62
256
370
-1
 48
1.0
  6
BYLAYER
 10
9.9838567871709483
 20
2.6923955329791767
 30
0.0
 11
9.9850228871709472
 21
2.688167152979176
 31
0.0
  0
LINE
  5
183
100
AcDbEntity
100
AcDbLine
  8
0
 62
256
370
-1
 48
1.0
  6
BYLAYER
 10
9.9850228871709472
 20
2.688167152979176
 30
0.0
 11
9.9863293871709455
 21
2.6859804229791706
 31
0.0
  0
LINE
  5
184
100
AcDbEntity
100
AcDbLine
  8
0
 62
256
370
-1
 48
1.0
  6
BYLAYER
 10
9.9863293871709455
 20
2.6859804229791706
 30
0.0
 11
10.0124827871709439
 21
2.6626092829791759
 31
0.0
  0
LINE
  5
185
100
AcDbEntity
100
AcDbLine
  8
0
 62
256
370
-1
 48
1.0
  6
BYLAYER
 10
10.0124827871709439
 20
2.6626092829791759
 30
0.0
 11
10.0410892871709461
 21
2.6423117329791808
 31
0.0
  0
LINE
  5
186
100
AcDbEntity
100
AcDbLine
  8
0
 62
256
370
-1
 48
1.0
  6
BYLAYER
 10
10.0410892871709461
 20
2.6423117329791808
 30
0.0
 11
10.0435150871709435
 21
2.641521982979171
 31
0.0
  0
LINE
  5
187
100
AcDbEntity
100
AcDbLine
  8
0
 62
256
370
-1
 48
1.0
  6
BYLAYER
 10
10.0435150871709435
 20
2.641521982979171
 30
0.0
 11
10.0478986871709477
 21
2.6413246429791712
 31
0.0
  0
LINE
  5
188
100
AcDbEntity
100
AcDbLine
  8
0
 62
6
420
16711935
370
-1
 48
1.0
  6
BYLAYER
 10
10.8225547349999971
 20
11.0499999999999741
 30
0.0
 11
10.8225547349999971
 21
10.1499999999999897
 31
0.0
  0
LINE
  5
189
100
AcDbEntity
100
AcDbLine
  8
0
 62
256
370
-1
 48
1.0
  6
BYLAYER
 10
10.0478986871709477
 20
2.6413246429791712
 30
0.0
 11
10.0521067871709473
 21
2.6423004229791758
 31
0.0
  0
LINE
  5
18A
100
AcDbEntity
100
AcDbLine
  8
0
 62
256
370
-1
 48
1.0
  6
BYLAYER
 10
10.0521067871709473
 20
2.6423004229791758
 30
0.0
 11
10.0558780871709441
 21
2.6444263129791779
 31
0.0
  0
LINE
  5
18B
100
AcDbEntity
100
AcDbLine
  8
0
 62
256
370
-1
 48
1.0
  6
BYLAYER
 10
10.0558780871709441
 20
2.6444263129791779
 30
0.0
 11
10.0844143871709431
 21
2.6666161429791799
 31
0.0
  0
LINE
  5
18C
100
AcDbEntity
100
AcDbLine
  8
0
 62
256
370
-1
 48
1.0
  6
BYLAYER
 10
10.0844143871709431
 20
2.6666161429791799
 30
0.0
 11
10.0881778871709482
 21
2.6687338429791794
 31
0.0
  0
LINE
  5
18D
100
AcDbEntity
100
AcDbLine
  8
0
 62
256
370
-1
 48
1.0
  6
BYLAYER
 10
10.0881778871709482
 20
2.6687338429791794
 30
0.0
 11
10.0923898871709437
 21
2.6697111829791709
 31
0.0
  0
LINE
  5
18E
100
AcDbEntity
100
AcDbLine
  8
0
 62
256
370
-1
 48
1.0
  6
BYLAYER
 10
10.0923898871709437
 20
2.6697111829791709
 30
0.0
 11
10.0967773871709436
 21
2.6695169629791735
 31
0.0
  0
LINE
  5
18F
100
AcDbEntity
100
AcDbLine
  8
0
 62
256
370
-1
 48
1.0
  6
BYLAYER
 10
10.0967773871709436
 20
2.6695169629791735
 30
0.0
 11
10.101071287170944
 21
2.6681234929791771
 31
0.0
  0
LINE
  5
190
100
AcDbEntity
100
AcDbLine
  8
0
 62
256
370
-1
 48
1.0
  6
BYLAYER
 10
10.101071287170944
 20
2.6681234929791771
 30
0.0
 11
10.1345956871709486
 21
2.6519802229791765
 31
0.0
  0
LINE
  5
191
100
AcDbEntity
100
AcDbLine
  8
0
 62
256
370
-1
 48
1.0
  6
BYLAYER
 10
10.1345956871709486
 20
2.6519802229791765
 30
0.0
 11
10.1383630871709425
 21
2.6494904629791733
 31
0.0
  0
LINE
  5
192
100
AcDbEntity
100
AcDbLine
  8
0
 62
256
370
-1
 48
1.0
  6
BYLAYER
 10
10.1383630871709425
 20
2.6494904629791733
 30
0.0
 11
10.1412490871709462
 21
2.6461809229791697
 31
0.0
  0
LINE
  5
193
100
AcDbEntity
100
AcDbLine
  8
0
 62
256
370
-1
 48
1.0
  6
BYLAYER
 10
10.1412490871709462
 20
2.6461809229791697
 30
0.0
 11
10.1431093871709432
 21
2.6422801429791747
 31
0.0
  0
LINE
  5
194
100
AcDbEntity
100
AcDbLine
  8
0
 62
256
370
-1
 48
1.0
  6
BYLAYER
 10
15.9274452650000313
 20
10.849999999999957
 30
0.0
 11
15.4456952650000403
 21
11.2499999999999556
 31
0.0
  0
LINE
  5
195
100
AcDbEntity
100
AcDbLine
  8
0
 62
256
370
-1
 48
1.0
  6
BYLAYER
 10
10.1431093871709432
 20
2.6422801429791747
 30
0.0
 11
10.1437996871709455
 21
2.63801822297917
 31
0.0
  0
LINE
  5
196
100
AcDbEntity
100
AcDbLine
  8
0
 62
256
370
-1
 48
1.0
  6
BYLAYER
 10
10.1437996871709455
 20
2.63801822297917
 30
0.0
 11
10.1442442871709471
 21
2.6018718529791727
 31
0.0
  0
LINE
  5
197
100
AcDbEntity
100
AcDbLine
  8
0
 62
256
370
-1
 48
1.0
  6
BYLAYER
 10
10.1442442871709471
 20
2.6018718529791727
 30
0.0
 11
10.1449345871709493
 21
2.5975974529791728
 31
0.0
  0
LINE
  5
198
100
AcDbEntity
100
AcDbLine
  8
0
 62
256
370
-1
 48
1.0
  6
BYLAYER
 10
10.0725547349999971
 20
10.8499999999999712
 30
0.0
 11
10.5543047349999881
 21
11.2499999999999698
 31
0.0
  0
LINE
  5
199
100
AcDbEntity
100
AcDbLine
  8
0
 62
256
370
-1
 48
1.0
  6
BYLAYER
 10
10.1449345871709493
 20
2.5975974529791728
 30
0.0
 11
10.1467987871709422
 21
2.5936974529791712
 31
0.0
  0
LINE
  5
19A
100
AcDbEntity
100
AcDbLine
  8
0
 62
256
370
-1
 48
1.0
  6
BYLAYER
 10
10.1467987871709422
 20
2.5936974529791712
 30
0.0
 11
10.1496886871709489
 21
2.5903941529791723
 31
0.0
  0
LINE
  5
19B
100
AcDbEntity
100
AcDbLine
  8
0
 62
256
370
-1
 48
1.0
  6
BYLAYER
 10
10.1496886871709489
 20
2.5903941529791723
 30
0.0
 11
10.1518141871709471
 21
2.5889901529791786
 31
0.0
  0
LINE
  5
19C
100
AcDbEntity
100
AcDbLine
  8
0
 62
256
370
-1
 48
1.0
  6
BYLAYER
 10
10.1518141871709471
 20
2.5889901529791786
 30
0.0
 11
10.1855179871709449
 21
2.5792791529791828
 31
0.0
  0
LINE
  5
19D
100
AcDbEntity
100
AcDbLine
  8
0
 62
256
370
-1
 48
1.0
  6
BYLAYER
 10
10.1855179871709449
 20
2.5792791529791828
 30
0.0
 11
10.2200953871709483
 21
2.5734057529791698
 31
0.0
  0
LINE
  5
19E
100
AcDbEntity
100
AcDbLine
  8
0
 62
256
370
-1
 48
1.0
  6
BYLAYER
 10
10.2200953871709483
 20
2.5734057529791698
 30
0.0
 11
10.2226264871709471
 21
2.5737450529791772
 31
0.0
  0
LINE
  5
19F
100
AcDbEntity
100
AcDbLine
  8
0
 62
256
370
-1
 48
1.0
  6
BYLAYER
 10
10.2226264871709471
 20
2.5737450529791772
 30
0.0
 11
10.2266590871709422
 21
2.5754688529791707
 31
0.0
  0
LINE
  5
1A0
100
AcDbEntity
100
AcDbLine
  8
0
 62
256
370
-1
 48
1.0
  6
BYLAYER
 10
10.2266590871709422
 20
2.5754688529791707
 30
0.0
 11
10.2300286871709485
 21
2.5781754529791812
 31
0.0
  0
LINE
  5
1A1
100
AcDbEntity
100
AcDbLine
  8
0
 62
256
370
-1
 48
1.0
  6
BYLAYER
 10
10.2300286871709485
 20
2.5781754529791812
 30
0.0
 11
10.2325051871709487
 21
2.5817283529791837
 31
0.0
  0
LINE
  5
1A2
100
AcDbEntity
100
AcDbLine
  8
0
 62
256
370
-1
 48
1.0
  6
BYLAYER
 10
10.2325051871709487
 20
2.5817283529791837
 30
0.0
 11
10.2485887871709433
 21
2.6141014729791721
 31
0.0
  0
LINE
  5
1A3
100
AcDbEntity
100
AcDbLine
  8
0
 62
256
370
-1
 48
1.0
  6
BYLAYER
 10
10.2485887871709433
 20
2.6141014729791721
 30
0.0
 11
10.2510574871709448
 21
2.6176422829791761
 31
0.0
  0
LINE
  5
1A4
100
AcDbEntity
100
AcDbLine
  8
0
 62
256
370
-1
 48
1.0
  6
BYLAYER
 10
10.2510574871709448
 20
2.6176422829791761
 30
0.0
 11
10.254427087170944
 21
2.6203492729791833
 31
0.0
  0
LINE
  5
1A5
100
AcDbEntity
100
AcDbLine
  8
0
 62
256
370
-1
 48
1.0
  6
BYLAYER
 10
10.254427087170944
 20
2.6203492729791833
 30
0.0
 11
10.2584635871709491
 21
2.6220781429791771
 31
0.0
  0
LINE
  5
1A6
100
AcDbEntity
100
AcDbLine
  8
0
 62
256
370
-1
 48
1.0
  6
BYLAYER
 10
10.2584635871709491
 20
2.6220781429791771
 30
0.0
 11
10.2629407871709457
 21
2.6226861529791705
 31
0.0
  0
LINE
  5
1A7
100
AcDbEntity
100
AcDbLine
  8
0
 62
256
370
-1
 48
1.0
  6
BYLAYER
 10
10.2629407871709457
 20
2.6226861529791705
 30
0.0
 11
10.3001467871709433
 21
2.6226861529791705
 31
0.0
  0
LINE
  5
1A8
100
AcDbEntity
100
AcDbLine
  8
0
 62
256
370
-1
 48
1.0
  6
BYLAYER
 10
10.3001467871709433
 20
2.6226861529791705
 30
0.0
 11
10.3046239871709471
 21
2.6220781429791771
 31
0.0
  0
LINE
  5
1A9
100
AcDbEntity
100
AcDbLine
  8
0
 62
256
370
-1
 48
1.0
  6
BYLAYER
 10
10.3046239871709471
 20
2.6220781429791771
 30
0.0
 11
10.3086604871709451
 21
2.6203492729791833
 31
0.0
  0
LINE
  5
1AA
100
AcDbEntity
100
AcDbLine
  8
0
 62
256
370
-1
 48
1.0
  6
BYLAYER
 10
10.3086604871709451
 20
2.6203492729791833
 30
0.0
 11
10.3120261871709484
 21
2.6176422829791761
 31
0.0
  0
LINE
  5
1AB
100
AcDbEntity
100
AcDbLine
  8
0
 62
256
370
-1
 48
1.0
  6
BYLAYER
 10
10.3120261871709484
 20
2.6176422829791761
 30
0.0
 11
10.3144987871709457
 21
2.6141014729791721
 31
0.0
  0
LINE
  5
1AC
100
AcDbEntity
100
AcDbLine
  8
0
 62
256
370
-1
 48
1.0
  6
BYLAYER
 10
10.3144987871709457
 20
2.6141014729791721
 30
0.0
 11
10.3305823871709475
 21
2.5817283529791837
 31
0.0
  0
LINE
  5
1AD
100
AcDbEntity
100
AcDbLine
  8
0
 62
256
370
-1
 48
1.0
  6
BYLAYER
 10
10.3305823871709475
 20
2.5817283529791837
 30
0.0
 11
10.3330627871709435
 21
2.5781754529791812
 31
0.0
  0
LINE
  5
1AE
100
AcDbEntity
100
AcDbLine
  8
0
 62
256
370
-1
 48
1.0
  6
BYLAYER
 10
10.3330627871709435
 20
2.5781754529791812
 30
0.0
 11
10.3364323871709427
 21
2.5754688529791707
 31
0.0
  0
LINE
  5
1AF
100
AcDbEntity
100
AcDbLine
  8
0
 62
256
370
-1
 48
1.0
  6
BYLAYER
 10
10.3364323871709427
 20
2.5754688529791707
 30
0.0
 11
10.3404649871709449
 21
2.5737450529791772
 31
0.0
  0
LINE
  5
1B0
100
AcDbEntity
100
AcDbLine
  8
0
 62
256
370
-1
 48
1.0
  6
BYLAYER
 10
10.3404649871709449
 20
2.5737450529791772
 30
0.0
 11
10.3429921871709478
 21
2.5734057529791698
 31
0.0
  0
LINE
  5
1B1
100
AcDbEntity
100
AcDbLine
  8
0
 62
256
370
-1
 48
1.0
  6
BYLAYER
 10
10.3429921871709478
 20
2.5734057529791698
 30
0.0
 11
10.3775695871709441
 21
2.5792791529791828
 31
0.0
  0
LINE
  5
1B2
100
AcDbEntity
100
AcDbLine
  8
0
 62
256
370
-1
 48
1.0
  6
BYLAYER
 10
11.4461215000000038
 20
10.849999999999957
 30
0.0
 11
11.365894543038749
 21
10.849999999999957
 31
0.0
  0
LINE
  5
1B3
100
AcDbEntity
100
AcDbLine
  8
0
 62
256
370
-1
 48
1.0
  6
BYLAYER
 10
14.4461292576538511
 20
10.8499999999999712
 30
0.0
 11
11.5538785000000104
 21
10.849999999999957
 31
0.0
  0
CIRCLE
  5
1B4
100
AcDbEntity
100
AcDbCircle
  8
0
 62
256
370
-1
 48
1.0
  6
BYLAYER
 10
9.1115432893255086
 20
3.0
 30
0.0
 40
0.4315392412536839
  0
LINE
  5
1B5
100
AcDbEntity
100
AcDbLine
  8
0
 62
256
370
-1
 48
1.0
  6
BYLAYER
 10
14.5538784999999962
 20
10.8499999999999748
 30
0.0
 11
14.6341054569612652
 21
10.8499999999999712
 31
0.0
  0
LINE
  5
1B6
100
AcDbEntity
100
AcDbLine
  8
0
 62
256
370
-1
 48
1.0
  6
BYLAYER
 10
11.4461215000000038
 20
10.7499999999999556
 30
0.0
 11
11.4461215000000038
 21
10.849999999999957
 31
0.0
  0
LINE
  5
1B7
100
AcDbEntity
100
AcDbLine
  8
0
 62
256
370
-1
 48
1.0
  6
BYLAYER
 10
14.4461214999999896
 20
10.7499999551083167
 30
0.0
 11
14.4461214999999896
 21
10.8499999551083182
 31
0.0
  0
LINE
  5
1B8
100
AcDbEntity
100
AcDbLine
  8
0
 62
256
370
-1
 48
1.0
  6
BYLAYER
 10
11.5538785000000104
 20
10.7500000448916122
 30
0.0
 11
11.5538785000000104
 21
10.8500000448916136
 31
0.0
  0
LINE
  5
1B9
100
AcDbEntity
100
AcDbLine
  8
0
 62
256
370
-1
 48
1.0
  6
BYLAYER
 10
14.5538784999999962
 20
10.7499999999999734
 30
0.0
 11
14.5538784999999962
 21
10.8499999999999748
 31
0.0
  0
LINE
  5
1BA
100
AcDbEntity
100
AcDbLine
  8
0
 62
256
370
-1
 48
1.0
  6
BYLAYER
 10
11.4461215427725733
 20
10.6585000448916194
 30
0.0
 11
11.4461215427725733
 21
10.5662570457798122
 31
0.0
  0
LINE
  5
1BB
100
AcDbEntity
100
AcDbLine
  8
0
 62
256
370
-1
 48
1.0
  6
BYLAYER
 10
14.4461215427725591
 20
10.6584999999999805
 30
0.0
 11
14.4461215427725591
 21
10.5662570008881769
 31
0.0
  0
CIRCLE
  5
1BC
100
AcDbEntity
100
AcDbCircle
  8
0
 62
3
420
65280
370
-1
 48
1.0
  6
BYLAYER
 10
-3.417830310639502
 20
1.696886412460227
 30
0.0
 40
0.0476797514338548
  0
CIRCLE
  5
1BD
100
AcDbEntity
100
AcDbCircle
  8
0
 62
3
420
65280
370
-1
 48
1.0
  6
BYLAYER
 10
-2.3402821177036373
 20
1.696886412460227
 30
0.0
 40
0.0476797514338548
  0
CIRCLE
  5
1BE
100
AcDbEntity
100
AcDbCircle
  8
0
 62
3
420
65280
370
-1
 48
1.0
  6
BYLAYER
 10
-3.417830310639502
 20
3.6285564124602274
 30
0.0
 40
0.0476797514338548
  0
CIRCLE
  5
1BF
100
AcDbEntity
100
AcDbCircle
  8
0
 62
3
420
65280
370
-1
 48
1.0
  6
BYLAYER
 10
-2.3402821177036373
 20
3.6285564124602274
 30
0.0
 40
0.0476797514338548
  0
CIRCLE
  5
1C0
100
AcDbEntity
100
AcDbCircle
  8
0
 62
3
420
65280
370
-1
 48
1.0
  6
BYLAYER
 10
-0.7949461177036454
 20
3.5124919272516237
 30
0.0
 40
0.0476797514338548
  0
CIRCLE
  5
1C1
100
AcDbEntity
100
AcDbCircle
  8
0
 62
3
420
65280
370
-1
 48
1.0
  6
BYLAYER
 10
-1.872494310639496
 20
3.5124919272516237
 30
0.0
 40
0.0476797514338548
  0
LINE
  5
1C2
100
AcDbEntity
100
AcDbLine
  8
0
 62
256
370
-1
 48
1.0
  6
BYLAYER
 10
11.5538785000000246
 20
10.6585000897832582
 30
0.0
 11
11.5538785000000246
 21
10.5662570457798122
 31
0.0
  0
LINE
  5
1C3
100
AcDbEntity
100
AcDbLine
  8
0
 62
256
370
-1
 48
1.0
  6
BYLAYER
 10
14.5538785000000104
 20
10.6585000448916229
 30
0.0
 11
14.5538785000000104
 21
10.5662570008881769
 31
0.0
  0
LINE
  5
1C4
100
AcDbEntity
100
AcDbLine
  8
0
 62
256
370
-1
 48
1.0
  6
BYLAYER
 10
11.4461215427725733
 20
10.5662570457798122
 30
0.0
 11
11.5538785000000246
 21
10.5662570457798122
 31
0.0
  0
LINE
  5
1C5
100
AcDbEntity
100
AcDbLine
  8
0
 62
256
370
-1
 48
1.0
  6
BYLAYER
 10
14.4461215427725591
 20
10.5662570008881769
 30
0.0
 11
14.5538785000000104
 21
10.5662570008881769
 31
0.0
  0
LINE
  5
1C6
100
AcDbEntity
100
AcDbLine
  8
0
 62
256
370
-1
 48
1.0
  6
BYLAYER
 10
11.365894543038749
 20
10.8499999999999535
 30
0.0
 11
11.365894543038749
 21
10.8999999999999648
 31
0.0
  0
LINE
  5
1C7
100
AcDbEntity
100
AcDbLine
  8
0
 62
256
370
-1
 48
1.0
  6
BYLAYER
 10
14.6341054569612652
 20
10.8499999999999712
 30
0.0
 11
14.6341054569612652
 21
10.8999999999999826
 31
0.0
  0
LINE
  5
1C8
100
AcDbEntity
100
AcDbLine
  8
0
 62
256
370
-1
 48
1.0
  6
BYLAYER
 10
15.0456952650000204
 20
11.2499999999999911
 30
0.0
 11
14.6341054569612652
 21
10.8999999999999826
 31
0.0
  0
LINE
  5
1C9
100
AcDbEntity
100
AcDbLine
  8
0
 62
256
370
-1
 48
1.0
  6
BYLAYER
 10
10.9543047349999654
 20
11.2499999999999911
 30
0.0
 11
11.365894543038749
 21
10.8999999999999648
 31
0.0
  0
LINE
  5
1CA
100
AcDbEntity
100
AcDbLine
  8
0
 62
256
370
-1
 48
1.0
  6
BYLAYER
 10
10.5543047349999881
 20
11.2499999999999698
 30
0.0
 11
10.9543047349999654
 21
11.2499999999999911
 31
0.0
  0
LINE
  5
1CB
100
AcDbEntity
100
AcDbLine
  8
0
 62
256
370
-1
 48
1.0
  6
BYLAYER
 10
15.0456952650000204
 20
11.2499999999999911
 30
0.0
 11
15.4456952650000403
 21
11.2499999999999556
 31
0.0
  0
LINE
  5
1CC
100
AcDbEntity
100
AcDbLine
  8
0
 62
3
420
65280
370
-1
 48
1.0
  6
BYLAYER
 10
14.3767500000000297
 20
9.258499999999982
 30
0.0
 11
14.6232500000000272
 21
9.258499999999982
 31
0.0
  0
LINE
  5
1CD
100
AcDbEntity
100
AcDbLine
  8
0
 62
3
420
65280
370
-1
 48
1.0
  6
BYLAYER
 10
11.3767500000000297
 20
9.258499999999982
 30
0.0
 11
11.6232500000000272
 21
9.258499999999982
 31
0.0
  0
LINE
  5
1CE
100
AcDbEntity
100
AcDbLine
  8
0
 62
3
420
65280
370
-1
 48
1.0
  6
BYLAYER
 10
11.3767500000000013
 20
9.9584999775541672
 30
0.0
 11
11.6232499999999987
 21
9.9584999775541672
 31
0.0
  0
LINE
  5
1CF
100
AcDbEntity
100
AcDbLine
  8
0
 62
3
420
65280
370
-1
 48
1.0
  6
BYLAYER
 10
14.3767500000000297
 20
9.9584999999999848
 30
0.0
 11
14.6232500000000272
 21
9.9584999999999848
 31
0.0
  0
LINE
  5
1D0
100
AcDbEntity
100
AcDbLine
  8
0
 62
3
420
65280
370
-1
 48
1.0
  6
BYLAYER
 10
11.3767500000000155
 20
9.3499999999999819
 30
0.0
 11
11.623250000000013
 21
9.3499999999999819
 31
0.0
  0
LINE
  5
1D1
100
AcDbEntity
100
AcDbLine
  8
0
 62
3
420
65280
370
-1
 48
1.0
  6
BYLAYER
 10
11.376749999999987
 20
10.0499999775541671
 30
0.0
 11
11.6232499999999845
 21
10.0499999775541671
 31
0.0
  0
LINE
  5
1D2
100
AcDbEntity
100
AcDbLine
  8
0
 62
3
420
65280
370
-1
 48
1.0
  6
BYLAYER
 10
14.3767500000000155
 20
10.0499999999999812
 30
0.0
 11
14.623250000000013
 21
10.0499999999999812
 31
0.0
  0
LINE
  5
1D3
100
AcDbEntity
100
AcDbLine
  8
0
 62
3
420
65280
370
-1
 48
1.0
  6
BYLAYER
 10
14.3767500000000155
 20
9.3499999999999819
 30
0.0
 11
14.623250000000013
 21
9.3499999999999819
 31
0.0
  0
LINE
  5
1D4
100
AcDbEntity
100
AcDbLine
  8
0
 62
3
420
65280
370
-1
 48
1.0
  6
BYLAYER
 10
11.3767500000000155
 20
9.258499999999982
 30
0.0
 11
11.3767500000000155
 21
9.3499999999999819
 31
0.0
  0
LINE
  5
1D5
100
AcDbEntity
100
AcDbLine
  8
0
 62
3
420
65280
370
-1
 48
1.0
  6
BYLAYER
 10
11.376749999999987
 20
9.9584999775541672
 30
0.0
 11
11.376749999999987
 21
10.0499999775541671
 31
0.0
  0
LINE
  5
1D6
100
AcDbEntity
100
AcDbLine
  8
0
 62
256
370
-1
 48
1.0
  6
BYLAYER
 10
11.3767500000000297
 20
10.6585000448916194
 30
0.0
 11
11.3767500000000297
 21
10.7500000448916193
 31
0.0
  0
LINE
  5
1D7
100
AcDbEntity
100
AcDbLine
  8
0
 62
256
370
-1
 48
1.0
  6
BYLAYER
 10
14.3767500000000155
 20
10.6584999999999805
 30
0.0
 11
14.3767500000000155
 21
10.749999999999984
 31
0.0
  0
LINE
  5
1D8
100
AcDbEntity
100
AcDbLine
  8
0
 62
3
420
65280
370
-1
 48
1.0
  6
BYLAYER
 10
14.3767500000000155
 20
9.9584999999999848
 30
0.0
 11
14.3767500000000155
 21
10.0499999999999812
 31
0.0
  0
LINE
  5
1D9
100
AcDbEntity
100
AcDbLine
  8
0
 62
3
420
65280
370
-1
 48
1.0
  6
BYLAYER
 10
14.3767500000000155
 20
9.258499999999982
 30
0.0
 11
14.3767500000000155
 21
9.3499999999999819
 31
0.0
  0
LINE
  5
1DA
100
AcDbEntity
100
AcDbLine
  8
0
 62
3
420
65280
370
-1
 48
1.0
  6
BYLAYER
 10
11.623250000000013
 20
9.258499999999982
 30
0.0
 11
11.623250000000013
 21
9.3499999999999819
 31
0.0
  0
LINE
  5
1DB
100
AcDbEntity
100
AcDbLine
  8
0
 62
3
420
65280
370
-1
 48
1.0
  6
BYLAYER
 10
11.6232499999999845
 20
9.9584999775541672
 30
0.0
 11
11.6232499999999845
 21
10.0499999775541671
 31
0.0
  0
LINE
  5
1DC
100
AcDbEntity
100
AcDbLine
  8
0
 62
256
370
-1
 48
1.0
  6
BYLAYER
 10
11.6232500000000272
 20
10.6585000448916194
 30
0.0
 11
11.6232500000000272
 21
10.7500000448916193
 31
0.0
  0
LINE
  5
1DD
100
AcDbEntity
100
AcDbLine
  8
0
 62
256
370
-1
 48
1.0
  6
BYLAYER
 10
14.623250000000013
 20
10.6584999999999805
 30
0.0
 11
14.623250000000013
 21
10.749999999999984
 31
0.0
  0
LINE
  5
1DE
100
AcDbEntity
100
AcDbLine
  8
0
 62
3
420
65280
370
-1
 48
1.0
  6
BYLAYER
 10
14.623250000000013
 20
9.9584999999999848
 30
0.0
 11
14.623250000000013
 21
10.0499999999999812
 31
0.0
  0
LINE
  5
1DF
100
AcDbEntity
100
AcDbLine
  8
0
 62
3
420
65280
370
-1
 48
1.0
  6
BYLAYER
 10
14.623250000000013
 20
9.258499999999982
 30
0.0
 11
14.623250000000013
 21
9.3499999999999819
 31
0.0
  0
LINE
  5
1E0
100
AcDbEntity
100
AcDbLine
  8
0
 62
3
420
65280
370
-1
 48
1.0
  6
BYLAYER
 10
-1.3865905529666236
 20
3.1746988548701083
 30
0.0
 11
-1.3865905522297481
 21
3.1372354790597043
 31
0.0
  0
LINE
  5
1E1
100
AcDbEntity
100
AcDbLine
  8
0
 62
256
370
-1
 48
1.0
  6
BYLAYER
 10
11.4461215427725733
 20
10.6585000448916194
 30
0.0
 11
11.3767500000000439
 21
10.6585000448916229
 31
0.0
  0
LINE
  5
1E2
100
AcDbEntity
100
AcDbLine
  8
0
 62
256
370
-1
 48
1.0
  6
BYLAYER
 10
14.4461215427725591
 20
10.6584999999999805
 30
0.0
 11
14.3767500000000297
 21
10.6584999999999841
 31
0.0
  0
LINE
  5
1E3
100
AcDbEntity
100
AcDbLine
  8
0
 62
3
420
65280
370
-1
 48
1.0
  6
BYLAYER
 10
-1.2808498624212348
 20
3.1372354790597008
 30
0.0
 11
-1.2808498631581102
 21
3.174698856782495
 31
0.0
  0
LINE
  5
1E4
100
AcDbEntity
100
AcDbLine
  8
0
 62
256
370
-1
 48
1.0
  6
BYLAYER
 10
11.5538785000000246
 20
10.6585000448916194
 30
0.0
 11
11.6232500000000272
 21
10.6585000448916229
 31
0.0
  0
LINE
  5
1E5
100
AcDbEntity
100
AcDbLine
  8
0
 62
256
370
-1
 48
1.0
  6
BYLAYER
 10
14.5538785000000104
 20
10.6584999999999805
 30
0.0
 11
14.623250000000013
 21
10.6584999999999841
 31
0.0
  0
LINE
  5
1E6
100
AcDbEntity
100
AcDbLine
  8
0
 62
256
370
-1
 48
1.0
  6
BYLAYER
 10
11.6232500000000272
 20
10.7500000448916193
 30
0.0
 11
11.5538785000000104
 21
10.7500000448916193
 31
0.0
  0
LINE
  5
1E7
100
AcDbEntity
100
AcDbLine
  8
0
 62
256
370
-1
 48
1.0
  6
BYLAYER
 10
14.623250000000013
 20
10.749999999999984
 30
0.0
 11
14.5538784999999962
 21
10.749999999999984
 31
0.0
  0
LINE
  5
1E8
100
AcDbEntity
100
AcDbLine
  8
0
 62
256
370
-1
 48
1.0
  6
BYLAYER
 10
11.4461215000000038
 20
10.7500000448916193
 30
0.0
 11
11.3767500000000439
 21
10.7500000448916193
 31
0.0
  0
LINE
  5
1E9
100
AcDbEntity
100
AcDbLine
  8
0
 62
256
370
-1
 48
1.0
  6
BYLAYER
 10
14.4461214999999896
 20
10.749999999999984
 30
0.0
 11
14.3767500000000297
 21
10.749999999999984
 31
0.0
  0
LINE
  5
1EA
100
AcDbEntity
100
AcDbLine
  8
0
 62
256
370
-1
 48
1.0
  6
BYLAYER
 10
-2.7581124192600299
 20
1.1051577548430203
 30
0.0
 11
-2.7581124192600299
 21
1.0683299999999996
 31
0.0
  0
LINE
  5
1EB
100
AcDbEntity
100
AcDbLine
  8
0
 62
256
370
-1
 48
1.0
  6
BYLAYER
 10
-2.7581124192600299
 20
3.0368277548430171
 30
0.0
 11
-2.7581124192600299
 21
3.0
 31
0.0
  0
LINE
  5
1EC
100
AcDbEntity
100
AcDbLine
  8
0
 62
3
420
65280
370
-1
 48
1.0
  6
BYLAYER
 10
-1.2127764192600523
 20
2.9207632696344135
 30
0.0
 11
-1.2127764192600523
 21
2.8839355147913963
 31
0.0
  0
LINE
  5
1ED
100
AcDbEntity
100
AcDbLine
  8
0
 62
256
370
-1
 48
1.0
  6
BYLAYER
 10
-3.0
 20
1.1051577548430203
 30
0.0
 11
-3.0
 21
1.0683299965825661
 31
0.0
  0
LINE
  5
1EE
100
AcDbEntity
100
AcDbLine
  8
0
 62
256
370
-1
 48
1.0
  6
BYLAYER
 10
-3.0
 20
3.0368277548430171
 30
0.0
 11
-3.0
 21
2.9999999965825666
 31
0.0
  0
LINE
  5
1EF
100
AcDbEntity
100
AcDbLine
  8
0
 62
3
420
65280
370
-1
 48
1.0
  6
BYLAYER
 10
-1.4546640000000224
 20
2.9207632696344135
 30
0.0
 11
-1.4546640000000224
 21
2.8839355113739629
 31
0.0
  0
LINE
  5
1F0
100
AcDbEntity
100
AcDbLine
  8
0
 62
3
420
65280
370
-1
 48
1.0
  6
BYLAYER
 10
-1.2808498591898001
 20
2.9207632696344135
 30
0.0
 11
-1.2808498578121004
 21
3.0468588238944143
 31
0.0
  0
LINE
  5
1F1
100
AcDbEntity
100
AcDbLine
  8
0
 62
3
420
65280
370
-1
 48
1.0
  6
BYLAYER
 10
-1.3865905476206137
 20
3.0468588238944143
 30
0.0
 11
-1.3865905489983135
 21
2.9207632696344135
 31
0.0
  0
ARC
  5
1F2
100
AcDbEntity
  8
0
 62
6
420
16711935
370
-1
 48
1.0
  6
BYLAYER
100
AcDbCircle
 10
7.5515432893255063
 20
3.0
 30
0.0
 40
0.0942036825600001
100
AcDbArc
 50
126.8698976458433236
 51
53.1301023541566622
  0
ARC
  5
1F3
100
AcDbEntity
  8
0
 62
6
420
16711935
370
-1
 48
1.0
  6
BYLAYER
100
AcDbCircle
 10
9.1115432893255086
 20
3.0
 30
0.0
 40
0.0942036825600001
100
AcDbArc
 50
126.8698976458433236
 51
53.1301023541566622
  0
ARC
  5
1F4
100
AcDbEntity
  8
0
 62
6
420
16711935
370
-1
 48
1.0
  6
BYLAYER
100
AcDbCircle
 10
10.2815432893255032
 20
3.0
 30
0.0
 40
0.0942036825600001
100
AcDbArc
 50
126.8698976458433236
 51
53.1301023541566622
  0
ARC
  5
1F5
100
AcDbEntity
  8
0
 62
256
370
-1
 48
1.0
  6
BYLAYER
100
AcDbCircle
 10
-2.8790562141715696
 20
1.696886412460227
 30
0.0
 40
0.686901852
100
AcDbArc
 50
106.1659935491153846
 51
246.2142500597239803
  0
ARC
  5
1F6
100
AcDbEntity
  8
0
 62
256
370
-1
 48
1.0
  6
BYLAYER
100
AcDbCircle
 10
-2.8790562141715696
 20
1.696886412460227
 30
0.0
 40
0.686901852
100
AcDbArc
 50
293.785749940276105
 51
73.8340064508846012
  0
ARC
  5
1F7
100
AcDbEntity
  8
0
 62
256
370
-1
 48
1.0
  6
BYLAYER
100
AcDbCircle
 10
-2.8790562141715696
 20
3.6285564124602274
 30
0.0
 40
0.686901852
100
AcDbArc
 50
106.1659935491153846
 51
246.2142500597239803
  0
ARC
  5
1F8
100
AcDbEntity
  8
0
 62
256
370
-1
 48
1.0
  6
BYLAYER
100
AcDbCircle
 10
-2.8790562141715696
 20
3.6285564124602274
 30
0.0
 40
0.686901852
100
AcDbArc
 50
293.785749940276105
 51
73.8340064508846012
  0
LINE
  5
1F9
100
AcDbEntity
100
AcDbLine
  8
0
 62
6
420
16711935
370
-1
 48
1.0
  6
BYLAYER
 10
7.608065498861512
 20
3.0753629460479885
 30
0.0
 11
7.4950210797895007
 21
3.0753629460479885
 31
0.0
  0
LINE
  5
1FA
100
AcDbEntity
100
AcDbLine
  8
0
 62
6
420
16711935
370
-1
 48
1.0
  6
BYLAYER
 10
9.1680654988615142
 20
3.0753629460479885
 30
0.0
 11
9.0550210797894959
 21
3.0753629460479885
 31
0.0
  0
LINE
  5
1FB
100
AcDbEntity
100
AcDbLine
  8
0
 62
6
420
16711935
370
-1
 48
1.0
  6
BYLAYER
 10
10.3380654988615159
 20
3.0753629460479885
 30
0.0
 11
10.2250210797894976
 21
3.0753629460479885
 31
0.0
  0
ARC
  5
1FC
100
AcDbEntity
  8
0
 62
256
370
-1
 48
1.0
  6
BYLAYER
100
AcDbCircle
 10
-1.3337202141715636
 20
3.5124919272516237
 30
0.0
 40
0.686901852
100
AcDbArc
 50
106.1659935491153846
 51
246.2142500597239803
  0
CIRCLE
  5
1FD
100
AcDbEntity
100
AcDbCircle
  8
0
 62
256
370
-1
 48
1.0
  6
BYLAYER
 10
7.5515432893255063
 20
3.0
 30
0.0
 40
0.5515432893255071
  0
ARC
  5
1FE
100
AcDbEntity
  8
0
 62
256
370
-1
 48
1.0
  6
BYLAYER
100
AcDbCircle
 10
-1.3337202141715636
 20
3.5124919272516237
 30
0.0
 40
0.686901852
100
AcDbArc
 50
293.785749940276105
 51
73.8340064508846012
  0
LINE
  5
1FF
100
AcDbEntity
100
AcDbLine
  8
0
 62
256
370
-1
 48
1.0
  6
BYLAYER
 10
-2.7581124192600299
 20
1.0683299999999996
 30
0.0
 11
-2.6020165227261742
 21
1.0683299999999996
 31
0.0
  0
LINE
  5
200
100
AcDbEntity
100
AcDbLine
  8
0
 62
256
370
-1
 48
1.0
  6
BYLAYER
 10
-2.7581124192600299
 20
3.0
 30
0.0
 11
-2.6020165227261742
 21
3.0
 31
0.0
  0
LINE
  5
201
100
AcDbEntity
100
AcDbLine
  8
0
 62
3
420
65280
370
-1
 48
1.0
  6
BYLAYER
 10
-1.2127764192600523
 20
2.8839355147913963
 30
0.0
 11
-1.0566805227261966
 21
2.8839355147913963
 31
0.0
  0
LINE
  5
202
100
AcDbEntity
100
AcDbLine
  8
0
 62
256
370
-1
 48
1.0
  6
BYLAYER
 10
-3.0
 20
1.0683299999999996
 30
0.0
 11
-3.1560959056169224
 21
1.0683299999999996
 31
0.0
  0
LINE
  5
203
100
AcDbEntity
100
AcDbLine
  8
0
 62
256
370
-1
 48
1.0
  6
BYLAYER
 10
-3.0
 20
3.0
 30
0.0
 11
-3.1560959056169224
 21
3.0
 31
0.0
  0
LINE
  5
204
100
AcDbEntity
100
AcDbLine
  8
0
 62
3
420
65280
370
-1
 48
1.0
  6
BYLAYER
 10
-1.4546640000000224
 20
2.8839355147913963
 30
0.0
 11
-1.6107599056169448
 21
2.8839355147913963
 31
0.0
  0
LINE
  5
205
100
AcDbEntity
100
AcDbLine
  8
0
 62
256
370
-1
 48
1.0
  6
BYLAYER
 10
-2.7581124192600299
 20
1.1051577548430203
 30
0.0
 11
-3.0
 21
1.1051577548430203
 31
0.0
  0
LINE
  5
206
100
AcDbEntity
100
AcDbLine
  8
0
 62
256
370
-1
 48
1.0
  6
BYLAYER
 10
-2.7581124192600299
 20
3.0368277548430171
 30
0.0
 11
-3.0
 21
3.0368277548430171
 31
0.0
  0
LINE
  5
207
100
AcDbEntity
100
AcDbLine
  8
0
 62
3
420
65280
370
-1
 48
1.0
  6
BYLAYER
 10
-1.3865905489983135
 20
2.9207632696344135
 30
0.0
 11
-1.4546640000000224
 21
2.9207632696344135
 31
0.0
  0
LINE
  5
208
100
AcDbEntity
100
AcDbLine
  8
0
 62
3
420
65280
370
-1
 48
1.0
  6
BYLAYER
 10
-1.2808498591898001
 20
2.9207632696344135
 30
0.0
 11
-1.2127764192600523
 21
2.9207632696344135
 31
0.0
  0
CIRCLE
  5
209
100
AcDbEntity
100
AcDbCircle
  8
0
 62
3
420
65280
370
-1
 48
1.0
  6
BYLAYER
 10
2.9999370942501429
 20
4.7104906521475147
 30
0.0
 40
0.1839915675
  0
CIRCLE
  5
20A
100
AcDbEntity
100
AcDbCircle
  8
0
 62
3
420
65280
370
-1
 48
1.0
  6
BYLAYER
 10
3.0000629057498287
 20
1.2894909033055608
 30
0.0
 40
0.1839915675
  0
CIRCLE
  5
20B
100
AcDbEntity
100
AcDbCircle
  8
0
 62
3
420
65280
370
-1
 48
1.0
  6
BYLAYER
 10
2.999937094247656
 20
5.1030059961475143
 30
0.0
 40
0.0528703449042562
  0
CIRCLE
  5
20C
100
AcDbEntity
100
AcDbCircle
  8
0
 62
3
420
65280
370
-1
 48
1.0
  6
BYLAYER
 10
2.9999999999999858
 20
4.1775368097265364
 30
0.0
 40
0.0528703449042562
  0
CIRCLE
  5
20D
100
AcDbEntity
100
AcDbCircle
  8
0
 62
3
420
65280
370
-1
 48
1.0
  6
BYLAYER
 10
3.0000629057523156
 20
0.8969755593055613
 30
0.0
 40
0.0528703449042562
  0
CIRCLE
  5
20E
100
AcDbEntity
100
AcDbCircle
  8
0
 62
3
420
65280
370
-1
 48
1.0
  6
BYLAYER
 10
2.9999999999999858
 20
1.8224447457265391
 30
0.0
 40
0.0528703449042562
  0
CIRCLE
  5
20F
100
AcDbEntity
100
AcDbCircle
  8
0
 62
3
420
65280
370
-1
 48
1.0
  6
BYLAYER
 10
1.8224539679999907
 20
2.999990777726536
 30
0.0
 40
0.0528703449042562
  0
CIRCLE
  5
210
100
AcDbEntity
100
AcDbCircle
  8
0
 62
3
420
65280
370
-1
 48
1.0
  6
BYLAYER
 10
4.1775460319999951
 20
2.999990777726536
 30
0.0
 40
0.0528703449042562
  0
LINE
  5
211
100
AcDbEntity
100
AcDbLine
  8
0
 62
256
370
-1
 48
1.0
  6
BYLAYER
 10
1.8517533761407918
 20
4.5375916222667243
 30
0.0
 11
1.3964713360714427
 21
4.5375916222667261
 31
0.0
  0
LINE
  5
212
100
AcDbEntity
100
AcDbLine
  8
0
 62
256
370
-1
 48
1.0
  6
BYLAYER
 10
1.8517625984142398
 20
1.4622601757622569
 30
0.0
 11
1.3964805583448907
 21
1.4622601757622569
 31
0.0
  0
LINE
  5
213
100
AcDbEntity
100
AcDbLine
  8
0
 62
256
370
-1
 48
1.0
  6
BYLAYER
 10
4.1482359749596895
 20
4.5375916222667261
 30
0.0
 11
4.6035286639285573
 21
4.5375916222667261
 31
0.0
  0
LINE
  5
214
100
AcDbEntity
100
AcDbLine
  8
0
 62
256
370
-1
 48
1.0
  6
BYLAYER
 10
4.1482451972331518
 20
1.4622601757622551
 30
0.0
 11
4.6035378862020195
 21
1.4622601757622551
 31
0.0
  0
LINE
  5
215
100
AcDbEntity
100
AcDbLine
  8
0
 62
256
370
-1
 48
1.0
  6
BYLAYER
 10
4.6035286639285573
 20
4.5375916222667261
 30
0.0
 11
4.6035286639285573
 21
5.1425041543624541
 31
0.0
  0
LINE
  5
216
100
AcDbEntity
100
AcDbLine
  8
0
 62
256
370
-1
 48
1.0
  6
BYLAYER
 10
4.6035378862020195
 20
1.4622601757622551
 30
0.0
 11
4.6035378862020195
 21
0.857347643666527
 31
0.0
  0
CIRCLE
  5
217
100
AcDbEntity
100
AcDbCircle
  8
0
 62
3
420
65280
370
-1
 48
1.0
  6
BYLAYER
 10
3.0
 20
3.0
 30
0.0
 40
1.079417195999999
  0
LINE
  5
218
100
AcDbEntity
100
AcDbLine
  8
0
 62
256
370
-1
 48
1.0
  6
BYLAYER
 10
1.3964713360714427
 20
5.1425041543624435
 30
0.0
 11
1.3964713360714427
 21
4.5375916222667261
 31
0.0
  0
LINE
  5
219
100
AcDbEntity
100
AcDbLine
  8
0
 62
256
370
-1
 48
1.0
  6
BYLAYER
 10
1.3964805583448907
 20
0.8573476436665359
 30
0.0
 11
1.3964805583448907
 21
1.4622601757622569
 31
0.0
  0
ARC
  5
21A
100
AcDbEntity
  8
0
 62
256
370
-1
 48
1.0
  6
BYLAYER
100
AcDbCircle
 10
3.0000019489118444
 20
2.9999593248994998
 30
0.0
 40
1.320064699864113
100
AcDbArc
 50
129.019859573060188
 51
230.9810737422943134
  0
ARC
  5
21B
100
AcDbEntity
  8
0
 62
256
370
-1
 48
1.0
  6
BYLAYER
100
AcDbCircle
 10
3.0000019489118444
 20
2.9999593248994998
 30
0.0
 40
1.320064699864113
100
AcDbArc
 50
309.0189850890738512
 51
50.9805317772752815
  0
LINE
  5
21C
100
AcDbEntity
100
AcDbLine
  8
0
 62
256
370
-1
 48
1.0
  6
BYLAYER
 10
2.1689027793377846
 20
4.0255542654879584
 30
0.0
 11
1.8517533761407918
 21
4.5375916222667243
 31
0.0
  0
LINE
  5
21D
100
AcDbEntity
100
AcDbLine
  8
0
 62
256
370
-1
 48
1.0
  6
BYLAYER
 10
3.8310941132921812
 20
4.0255599421638095
 30
0.0
 11
4.1482359749596895
 21
4.5375916222667261
 31
0.0
  0
LINE
  5
21E
100
AcDbEntity
100
AcDbLine
  8
0
 62
256
370
-1
 48
1.0
  6
BYLAYER
 10
4.1482451972331518
 20
1.4622601757622551
 30
0.0
 11
3.8310854651183206
 21
1.9743516996756867
 31
0.0
  0
LINE
  5
21F
100
AcDbEntity
100
AcDbLine
  8
0
 62
256
370
-1
 48
1.0
  6
BYLAYER
 10
2.168919485800842
 20
1.9743508463187762
 30
0.0
 11
1.8517625984142541
 21
1.4622601757622569
 31
0.0
  0
LINE
  5
220
100
AcDbEntity
100
AcDbLine
  8
0
 62
256
370
-1
 48
1.0
  6
BYLAYER
 10
3.0981963528890475
 20
0.7428977923024451
 30
0.0
 11
2.9019386808890602
 21
0.7428977923024451
 31
0.0
  0
LINE
  5
221
100
AcDbEntity
100
AcDbLine
  8
0
 62
256
370
-1
 48
1.0
  6
BYLAYER
 10
3.0981334471367177
 20
5.2569540057265378
 30
0.0
 11
2.9018757751367303
 21
5.2569540057265378
 31
0.0
  0
LINE
  5
222
100
AcDbEntity
100
AcDbLine
  8
0
 62
256
370
-1
 48
1.0
  6
BYLAYER
 10
3.2126462042531472
 20
0.8573476436665359
 30
0.0
 11
3.0981963528890475
 21
0.7428977923024451
 31
0.0
  0
LINE
  5
223
100
AcDbEntity
100
AcDbLine
  8
0
 62
256
370
-1
 48
1.0
  6
BYLAYER
 10
3.2125832985008174
 20
5.142504154362447
 30
0.0
 11
3.0981334471367177
 21
5.2569540057265378
 31
0.0
  0
LINE
  5
224
100
AcDbEntity
100
AcDbLine
  8
0
 62
256
370
-1
 48
1.0
  6
BYLAYER
 10
2.7874888295249605
 20
0.8573476436665377
 30
0.0
 11
2.9019386808890602
 21
0.7428977923024451
 31
0.0
  0
LINE
  5
225
100
AcDbEntity
100
AcDbLine
  8
0
 62
256
370
-1
 48
1.0
  6
BYLAYER
 10
2.7874259237726307
 20
5.1425041543624452
 30
0.0
 11
2.9018757751367303
 21
5.2569540057265378
 31
0.0
  0
LINE
  5
226
100
AcDbEntity
100
AcDbLine
  8
0
 62
256
370
-1
 48
1.0
  6
BYLAYER
 10
3.2126462042531472
 20
0.8573476436665359
 30
0.0
 11
4.6035915696808871
 21
0.8573476436665359
 31
0.0
  0
LINE
  5
227
100
AcDbEntity
100
AcDbLine
  8
0
 62
256
370
-1
 48
1.0
  6
BYLAYER
 10
3.2125832985008174
 20
5.142504154362447
 30
0.0
 11
4.6035286639285573
 21
5.1425041543624488
 31
0.0
  0
LINE
  5
228
100
AcDbEntity
100
AcDbLine
  8
0
 62
256
370
-1
 48
1.0
  6
BYLAYER
 10
2.7874888295249605
 20
0.8573476436665377
 30
0.0
 11
1.3965342418237725
 21
0.8573476436665359
 31
0.0
  0
LINE
  5
229
100
AcDbEntity
100
AcDbLine
  8
0
 62
256
370
-1
 48
1.0
  6
BYLAYER
 10
2.7874259237726307
 20
5.1425041543624452
 30
0.0
 11
1.3964713360714427
 21
5.1425041543624435
 31
0.0
  0
CIRCLE
  5
22A
100
AcDbEntity
100
AcDbCircle
  8
0
 62
3
420
65280
370
-1
 48
1.0
  6
BYLAYER
 10
-2.8790562141715696
 20
1.696886412460227
 30
0.0
 40
0.3419055899999998
  0
CIRCLE
  5
22B
100
AcDbEntity
100
AcDbCircle
  8
0
 62
3
420
65280
370
-1
 48
1.0
  6
BYLAYER
 10
1.2336889387113588
 20
6.9802106110324678
 30
0.0
 40
0.3419055899999998
  0
CIRCLE
  5
22C
100
AcDbEntity
100
AcDbCircle
  8
0
 62
3
420
65280
370
-1
 48
1.0
  6
BYLAYER
 10
1.2336729652886129
 20
9.0197801667076103
 30
0.0
 40
0.3419055899999998
  0
CIRCLE
  5
22D
100
AcDbEntity
100
AcDbCircle
  8
0
 62
3
420
65280
370
-1
 48
1.0
  6
BYLAYER
 10
3.0
 20
8.000009222273464
 30
0.0
 40
0.3419055899999998
  0
CIRCLE
  5
22E
100
AcDbEntity
100
AcDbCircle
  8
0
 62
3
420
65280
370
-1
 48
1.0
  6
BYLAYER
 10
-2.8790562141715696
 20
3.6285564124602274
 30
0.0
 40
0.3419055899999998
  0
ARC
  5
22F
100
AcDbEntity
  8
0
 62
3
420
65280
370
-1
 48
1.0
  6
BYLAYER
100
AcDbCircle
 10
-1.3337202141715636
 20
3.5124919272516237
 30
0.0
 40
0.3419055899999998
100
AcDbArc
 50
278.8955907720395544
 51
261.1044113004230098
  0
CIRCLE
  5
230
100
AcDbEntity
100
AcDbCircle
  8
0
 62
3
420
65280
370
-1
 48
1.0
  6
BYLAYER
 10
-2.8790562141715696
 20
2.3837882644602288
 30
0.0
 40
0.111071025
  0
CIRCLE
  5
231
100
AcDbEntity
100
AcDbCircle
  8
0
 62
3
420
65280
370
-1
 48
1.0
  6
BYLAYER
 10
-2.8790562141715696
 20
4.3154582644602257
 30
0.0
 40
0.111071025
  0
CIRCLE
  5
232
100
AcDbEntity
100
AcDbCircle
  8
0
 62
3
420
65280
370
-1
 48
1.0
  6
BYLAYER
 10
-1.3337202141715636
 20
4.199393779251622
 30
0.0
 40
0.111071025
  0
ARC
  5
233
100
AcDbEntity
  8
0
 62
256
370
-1
 48
1.0
  6
BYLAYER
100
AcDbCircle
 10
-2.8790562141715696
 20
2.3837882644602288
 30
0.0
 40
0.193167
100
AcDbArc
 50
351.9170032254423859
 51
188.0829967745576425
  0
ARC
  5
234
100
AcDbEntity
  8
0
 62
256
370
-1
 48
1.0
  6
BYLAYER
100
AcDbCircle
 10
-2.8790562141715696
 20
4.3154582644602257
 30
0.0
 40
0.193167
100
AcDbArc
 50
351.9170032254423859
 51
188.0829967745576425
  0
ARC
  5
235
100
AcDbEntity
  8
0
 62
256
370
-1
 48
1.0
  6
BYLAYER
100
AcDbCircle
 10
-1.3337202141715636
 20
4.199393779251622
 30
0.0
 40
0.193167
100
AcDbArc
 50
351.9170032254423859
 51
188.0829967745576425
  0
INSERT
  5
236
100
AcDbEntity
100
AcDbBlockReference
  8
0
 62
256
370
-1
 48
1.0
  6
BYLAYER
  2
block 1
 10
0.7929426721428712
 20
0.9999999999999991
 30
0.0
 41
0.039
 42
0.039
 43
1.0
  0
CIRCLE
  5
237
100
AcDbEntity
100
AcDbCircle
  8
0
 62
3
420
65280
370
-1
 48
1.0
  6
BYLAYER
 10
1.8224539679999907
 20
8.0
 30
0.0
 40
0.3718831448796613
  0
CIRCLE
  5
238
100
AcDbEntity
100
AcDbCircle
  8
0
 62
256
370
-1
 48
1.0
  6
BYLAYER
 10
1.8224539679999907
 20
8.0
 30
0.0
 40
1.6775460320253583
  0
ENDSEC
  0
SECTION
  2
OBJECTS
  0
DICTIONARY
  5
C
100
AcDbDictionary
280
0
281
1
  3
ACAD_GROUP
350
D
  3
ACAD_LAYOUT
350
1A
  3
ACAD_MLINESTYLE
350
17
  3
ACAD_PLOTSETTINGS
350
19
  3
ACAD_PLOTSTYLENAME
350
E
  3
AcDbVariableDictionary
350
239
  3
QCAD_OBJECTS
350
23A
  0
DICTIONARY
  5
D
100
AcDbDictionary
280
0
281
1
  0
ACDBDICTIONARYWDFLT
  5
E
100
AcDbDictionary
281
1
  3
Normal
350
F
100
AcDbDictionaryWithDefault
340
F
  0
ACDBPLACEHOLDER
  5
F
  0
DICTIONARY
  5
17
100
AcDbDictionary
280
0
281
1
  3
Standard
350
18
  0
MLINESTYLE
  5
18
100
AcDbMlineStyle
  2
STANDARD
 70
0
  3

 62
256
 51
90.0
 52
90.0
 71
2
 49
0.5
 62
256
  6
BYLAYER
 49
-0.5
 62
256
  6
BYLAYER
  0
DICTIONARY
  5
19
100
AcDbDictionary
280
0
281
1
  0
DICTIONARY
  5
1A
100
AcDbDictionary
281
1
  3
Layout1
350
1E
  3
Layout2
350
26
  3
Model
350
22
  0
LAYOUT
  5
1E
100
AcDbPlotSettings
  1

  2
none_device
  4

  6

 40
0.0
 41
0.0
 42
0.0
 43
0.0
 44
0.0
 45
0.0
 46
0.0
 47
0.0
 48
0.0
 49
0.0
140
0.0
141
0.0
142
1.0
143
1.0
 70
688
 72
0
 73
0
 74
5
  7

 75
16
147
1.0
148
0.0
149
0.0
100
AcDbLayout
  1
Layout1
 70
1
 71
1
 10
0.0
 20
0.0
 11
420.0
 21
297.0
 12
0.0
 22
0.0
 32
0.0
 14
100000000000000000000.0
 24
100000000000000000000.0
 34
100000000000000000000.0
 15
-100000000000000000000.0
 25
-100000000000000000000.0
 35
-100000000000000000000.0
146
0.0
 13
0.0
 23
0.0
 33
0.0
 16
1.0
 26
0.0
 36
0.0
 17
0.0
 27
1.0
 37
0.0
 76
0
330
1B
  0
LAYOUT
  5
22
100
AcDbPlotSettings
  1

  2
none_device
  4

  6

 40
0.0
 41
0.0
 42
0.0
 43
0.0
 44
0.0
 45
0.0
 46
0.0
 47
0.0
 48
0.0
 49
0.0
140
0.0
141
0.0
142
1.0
143
1.0
 70
1712
 72
0
 73
0
 74
0
  7

 75
0
147
1.0
148
0.0
149
0.0
100
AcDbLayout
  1
Model
 70
1
 71
0
 10
0.0
 20
0.0
 11
12.0
 21
9.0
 12
0.0
 22
0.0
 32
0.0
 14
0.0
 24
0.0
 34
0.0
 15
0.0
 25
0.0
 35
0.0
146
0.0
 13
0.0
 23
0.0
 33
0.0
 16
1.0
 26
0.0
 36
0.0
 17
0.0
 27
1.0
 37
0.0
 76
0
330
1F
  0
LAYOUT
  5
26
100
AcDbPlotSettings
  1

  2
none_device
  4

  6

 40
0.0
 41
0.0
 42
0.0
 43
0.0
 44
0.0
 45
0.0
 46
0.0
 47
0.0
 48
0.0
 49
0.0
140
0.0
141
0.0
142
1.0
143
1.0
 70
688
 72
0
 73
0
 74
5
  7

 75
16
147
1.0
148
0.0
149
0.0
100
AcDbLayout
  1
Layout2
 70
1
 71
2
 10
0.0
 20
0.0
 11
12.0
 21
9.0
 12
0.0
 22
0.0
 32
0.0
 14
0.0
 24
0.0
 34
0.0
 15
0.0
 25
0.0
 35
0.0
146
0.0
 13
0.0
 23
0.0
 33
0.0
 16
1.0
 26
0.0
 36
0.0
 17
0.0
 27
1.0
 37
0.0
 76
0
330
23
  0
DICTIONARY
  5
239
100
AcDbDictionary
281
1
  3
DIMASSOC
350
23C
  3
HIDETEXT
350
23B
  0
DICTIONARYVAR
  5
23B
100
DictionaryVariables
280
0
  1
2
  0
DICTIONARYVAR
  5
23C
100
DictionaryVariables
280
0
  1
1
  0
DICTIONARY
  5
23A
100
AcDbDictionary
281
1
  3
ColorSettings/BackgroundColor
350
23D
  3
ColorSettings/ColorMode
350
23E
  3
Grid/DisplayGrid00
350
23F
  3
Grid/DisplayGrid01
350
240
  3
Grid/DisplayGrid02
350
241
  3
Grid/DisplayGrid03
350
242
  3
Grid/GridSpacingX00
350
243
  3
Grid/GridSpacingX01
350
244
  3
Grid/GridSpacingX02
350
245
  3
Grid/GridSpacingX03
350
246
  3
Grid/GridSpacingY00
350
247
  3
Grid/GridSpacingY01
350
248
  3
Grid/GridSpacingY02
350
249
  3
Grid/GridSpacingY03
350
24A
  3
Grid/IsometricGrid00
350
24B
  3
Grid/IsometricGrid01
350
24C
  3
Grid/IsometricGrid02
350
24D
  3
Grid/IsometricGrid03
350
24E
  3
Grid/IsometricProjection00
350
24F
  3
Grid/IsometricProjection01
350
250
  3
Grid/IsometricProjection02
350
251
  3
Grid/IsometricProjection03
350
252
  3
Grid/MetaGridSpacingX00
350
253
  3
Grid/MetaGridSpacingX01
350
254
  3
Grid/MetaGridSpacingX02
350
255
  3
Grid/MetaGridSpacingX03
350
256
  3
Grid/MetaGridSpacingY00
350
257
  3
Grid/MetaGridSpacingY01
350
258
  3
Grid/MetaGridSpacingY02
350
259
  3
Grid/MetaGridSpacingY03
350
25A
  3
MultiPageSettings/Columns
350
25B
  3
MultiPageSettings/GlueMarginsBottom
350
25C
  3
MultiPageSettings/GlueMarginsLeft
350
25D
  3
MultiPageSettings/GlueMarginsRight
350
25E
  3
MultiPageSettings/GlueMarginsTop
350
25F
  3
MultiPageSettings/PrintCropMarks
350
260
  3
MultiPageSettings/Rows
350
261
  3
PageSettings/OffsetX
350
262
  3
PageSettings/OffsetY
350
263
  3
PageSettings/PageOrientation
350
264
  3
PageSettings/PaperHeight
350
265
  3
PageSettings/PaperSizeName
350
266
  3
PageSettings/PaperWidth
350
267
  3
PageSettings/Scale
350
268
  3
PageSettings/ShowPaperBorders
350
269
  3
QCADVersion
350
26A
  3
UnitSettings/PaperUnit
350
26B
  0
XRECORD
  5
23D
330
23A
100
AcDbXrecord
280
1
1000
White
  0
XRECORD
  5
23E
330
23A
100
AcDbXrecord
280
1
1000
FullColor
  0
XRECORD
  5
23F
330
23A
100
AcDbXrecord
280
1
290
1
  0
XRECORD
  5
240
330
23A
100
AcDbXrecord
280
1
290
1
  0
XRECORD
  5
241
330
23A
100
AcDbXrecord
280
1
290
1
  0
XRECORD
  5
242
330
23A
100
AcDbXrecord
280
1
290
1
  0
XRECORD
  5
243
330
23A
100
AcDbXrecord
280
1
1000
auto
  0
XRECORD
  5
244
330
23A
100
AcDbXrecord
280
1
1000
auto
  0
XRECORD
  5
245
330
23A
100
AcDbXrecord
280
1
1000
auto
  0
XRECORD
  5
246
330
23A
100
AcDbXrecord
280
1
1000
auto
  0
XRECORD
  5
247
330
23A
100
AcDbXrecord
280
1
1000
auto
  0
XRECORD
  5
248
330
23A
100
AcDbXrecord
280
1
1000
auto
  0
XRECORD
  5
249
330
23A
100
AcDbXrecord
280
1
1000
auto
  0
XRECORD
  5
24A
330
23A
100
AcDbXrecord
280
1
1000
auto
  0
XRECORD
  5
24B
330
23A
100
AcDbXrecord
280
1
290
0
  0
XRECORD
  5
24C
330
23A
100
AcDbXrecord
280
1
290
0
  0
XRECORD
  5
24D
330
23A
100
AcDbXrecord
280
1
290
0
  0
XRECORD
  5
24E
330
23A
100
AcDbXrecord
280
1
290
0
  0
XRECORD
  5
24F
330
23A
100
AcDbXrecord
280
1
 90
0
  0
XRECORD
  5
250
330
23A
100
AcDbXrecord
280
1
 90
0
  0
XRECORD
  5
251
330
23A
100
AcDbXrecord
280
1
 90
0
  0
XRECORD
  5
252
330
23A
100
AcDbXrecord
280
1
 90
0
  0
XRECORD
  5
253
330
23A
100
AcDbXrecord
280
1
1000
auto
  0
XRECORD
  5
254
330
23A
100
AcDbXrecord
280
1
1000
auto
  0
XRECORD
  5
255
330
23A
100
AcDbXrecord
280
1
1000
auto
  0
XRECORD
  5
256
330
23A
100
AcDbXrecord
280
1
1000
auto
  0
XRECORD
  5
257
330
23A
100
AcDbXrecord
280
1
1000
auto
  0
XRECORD
  5
258
330
23A
100
AcDbXrecord
280
1
1000
auto
  0
XRECORD
  5
259
330
23A
100
AcDbXrecord
280
1
1000
auto
  0
XRECORD
  5
25A
330
23A
100
AcDbXrecord
280
1
1000
auto
  0
XRECORD
  5
25B
330
23A
100
AcDbXrecord
280
1
 90
1
  0
XRECORD
  5
25C
330
23A
100
AcDbXrecord
280
1
 40
0.5
  0
XRECORD
  5
25D
330
23A
100
AcDbXrecord
280
1
 40
0.5
  0
XRECORD
  5
25E
330
23A
100
AcDbXrecord
280
1
 40
0.5
  0
XRECORD
  5
25F
330
23A
100
AcDbXrecord
280
1
 40
0.5
  0
XRECORD
  5
260
330
23A
100
AcDbXrecord
280
1
290
0
  0
XRECORD
  5
261
330
23A
100
AcDbXrecord
280
1
 90
1
  0
XRECORD
  5
262
330
23A
100
AcDbXrecord
280
1
1000

  0
XRECORD
  5
263
330
23A
100
AcDbXrecord
280
1
1000

  0
XRECORD
  5
264
330
23A
100
AcDbXrecord
280
1
1000
Portrait
  0
XRECORD
  5
265
330
23A
100
AcDbXrecord
280
1
1000

  0
XRECORD
  5
266
330
23A
100
AcDbXrecord
280
1
1000
Custom
  0
XRECORD
  5
267
330
23A
100
AcDbXrecord
280
1
1000

  0
XRECORD
  5
268
330
23A
100
AcDbXrecord
280
1
1000
1" = 1"
  0
XRECORD
  5
269
330
23A
100
AcDbXrecord
280
1
290
1
  0
XRECORD
  5
26A
330
23A
100
AcDbXrecord
280
1
1000
3.11.3
  0
XRECORD
  5
26B
330
23A
100
AcDbXrecord
280
1
 90
1
  0
ENDSEC
  0
EOF
