999
dxflib 3.7.5.0
  0
SECTION
  2
HEADER
  9
$ACADVER
  1
AC1015
  9
$HANDSEED
  5
FFFF
  9
$DIMADEC
 70
0
  9
$DIMASZ
 40
0.125
  9
$DIMAUNIT
 70
0
  9
$DIMAZIN
 70
2
  9
$DIMDEC
 70
4
  9
$DIMEXE
 40
0.0625
  9
$DIMEXO
 40
0.03125
  9
$DIMGAP
 40
0.03125
  9
$DIMLUNIT
 70
3
  9
$DIMSCALE
 40
1.0
  9
$DIMTSZ
 40
0.0
  9
$DIMTXT
 40
0.125
  9
$DIMZIN
 70
8
  9
$DWGCODEPAGE
  3
ANSI_1252
  9
$INSUNITS
 70
1
  9
$LTSCALE
 40
1.0
  9
$MEASUREMENT
 70
0
  9
$PDMODE
 70
0
  9
$PDSIZE
 40
0
  0
ENDSEC
  0
SECTION
  2
TABLES
  0
TABLE
  2
VPORT
  5
8
100
AcDbSymbolTable
 70
1
  0
VPORT
  5
30
100
AcDbSymbolTableRecord
100
AcDbViewportTableRecord
  2
*Active
 70
0
 10
0.0
 20
0.0
 11
1.0
 21
1.0
 12
286.3055555555554861
 22
148.5
 13
0.0
 23
0.0
 14
10.0
 24
10.0
 15
10.0
 25
10.0
 16
0.0
 26
0.0
 36
1.0
 17
0.0
 27
0.0
 37
0.0
 40
297.0
 41
1.92798353909465
 42
50.0
 43
0.0
 44
0.0
 50
0.0
 51
0.0
 71
0
 72
100
 73
1
 74
3
 75
1
 76
1
 77
0
 78
0
281
0
 65
1
110
0.0
120
0.0
130
0.0
111
1.0
121
0.0
131
0.0
112
0.0
122
1.0
132
0.0
 79
0
146
0.0
  0
ENDTAB
  0
TABLE
  2
LTYPE
  5
5
100
AcDbSymbolTable
 70
50
  0
LTYPE
  5
16
100
AcDbSymbolTableRecord
100
AcDbLinetypeTableRecord
  2
Continuous
 70
0
  3
Solid line
 72
65
 73
0
 40
0.0
  0
LTYPE
  5
31
100
AcDbSymbolTableRecord
100
AcDbLinetypeTableRecord
  2
ACAD_ISO15W100
 70
0
  3
ISO double-dash triple-dot __ __ . . . __ __ . .
 72
65
 73
10
 40
39.0
 49
12.0
 74
0
 49
-3.0
 74
0
 49
12.0
 74
0
 49
-3.0
 74
0
 49
0.0
 74
0
 49
-3.0
 74
0
 49
0.0
 74
0
 49
-3.0
 74
0
 49
0.0
 74
0
 49
-3.0
 74
0
  0
LTYPE
  5
32
100
AcDbSymbolTableRecord
100
AcDbLinetypeTableRecord
  2
HOT_WATER_SUPPLY
 70
0
  3
Hot water supply ---- HW ---- HW ---- HW ----
 72
65
 73
3
 40
22.8599999999999994
 49
12.6999999999999993
 74
0
 49
-5.0800000000000001
 74
0
 49
-5.0800000000000001
 74
0
  0
LTYPE
  5
33
100
AcDbSymbolTableRecord
100
AcDbLinetypeTableRecord
  2
DIVIDE
 70
0
  3
Divide ____ . . ____ . . ____ . . ____ . . ____
 72
65
 73
6
 40
31.75
 49
12.6999999999999993
 74
0
 49
-6.3499999999999996
 74
0
 49
0.0
 74
0
 49
-6.3499999999999996
 74
0
 49
0.0
 74
0
 49
-6.3499999999999996
 74
0
  0
LTYPE
  5
34
100
AcDbSymbolTableRecord
100
AcDbLinetypeTableRecord
  2
ACAD_ISO10W100
 70
0
  3
ISO dash dot __ . __ . __ . __ . __ . __ . __ . 
 72
65
 73
4
 40
18.0
 49
12.0
 74
0
 49
-3.0
 74
0
 49
0.0
 74
0
 49
-3.0
 74
0
  0
LTYPE
  5
35
100
AcDbSymbolTableRecord
100
AcDbLinetypeTableRecord
  2
GAS_LINE
 70
0
  3
Gas line ----GAS----GAS----GAS----GAS----GAS----GAS--
 72
65
 73
3
 40
24.1300000000000026
 49
12.6999999999999993
 74
0
 49
-5.0800000000000001
 74
0
 49
-6.3499999999999996
 74
0
  0
LTYPE
  5
36
100
AcDbSymbolTableRecord
100
AcDbLinetypeTableRecord
  2
ACAD_ISO04W100
 70
0
  3
ISO long-dash dot ____ . ____ . ____ . ____ . _
 72
65
 73
4
 40
30.0
 49
24.0
 74
0
 49
-3.0
 74
0
 49
0.0
 74
0
 49
-3.0
 74
0
  0
LTYPE
  5
37
100
AcDbSymbolTableRecord
100
AcDbLinetypeTableRecord
  2
CENTER2
 70
0
  3
Center (.5x) ___ _ ___ _ ___ _ ___ _ ___ _ ___
 72
65
 73
4
 40
28.5750000000000028
 49
19.0500000000000007
 74
0
 49
-3.1749999999999998
 74
0
 49
3.1749999999999998
 74
0
 49
-3.1749999999999998
 74
0
  0
LTYPE
  5
38
100
AcDbSymbolTableRecord
100
AcDbLinetypeTableRecord
  2
ACAD_ISO11W100
 70
0
  3
ISO double-dash dot __ __ . __ __ . __ __ . __ _
 72
65
 73
6
 40
33.0
 49
12.0
 74
0
 49
-3.0
 74
0
 49
12.0
 74
0
 49
-3.0
 74
0
 49
0.0
 74
0
 49
-3.0
 74
0
  0
LTYPE
  5
39
100
AcDbSymbolTableRecord
100
AcDbLinetypeTableRecord
  2
HIDDEN2
 70
0
  3
Hidden (.5x) _ _ _ _ _ _ _ _ _ _ _ _ _ _ _ _ _ 
 72
65
 73
2
 40
4.7624999999999993
 49
3.1749999999999998
 74
0
 49
-1.5874999999999999
 74
0
  0
LTYPE
  5
3A
100
AcDbSymbolTableRecord
100
AcDbLinetypeTableRecord
  2
BORDERX2
 70
0
  3
Border (2x) ____  ____  .  ____  ____  .  ___
 72
65
 73
6
 40
88.8999999999999915
 49
25.3999999999999986
 74
0
 49
-12.6999999999999993
 74
0
 49
25.3999999999999986
 74
0
 49
-12.6999999999999993
 74
0
 49
0.0
 74
0
 49
-12.6999999999999993
 74
0
  0
LTYPE
  5
3B
100
AcDbSymbolTableRecord
100
AcDbLinetypeTableRecord
  2
ACAD_ISO05W100
 70
0
  3
ISO long-dash double-dot ____ .. ____ .. ____ . 
 72
65
 73
6
 40
33.0
 49
24.0
 74
0
 49
-3.0
 74
0
 49
0.0
 74
0
 49
-3.0
 74
0
 49
0.0
 74
0
 49
-3.0
 74
0
  0
LTYPE
  5
3C
100
AcDbSymbolTableRecord
100
AcDbLinetypeTableRecord
  2
DASHDOTX2
 70
0
  3
Dash dot (2x) ____  .  ____  .  ____  .  ___
 72
65
 73
4
 40
50.7999999999999972
 49
25.3999999999999986
 74
0
 49
-12.6999999999999993
 74
0
 49
0.0
 74
0
 49
-12.6999999999999993
 74
0
  0
LTYPE
  5
3D
100
AcDbSymbolTableRecord
100
AcDbLinetypeTableRecord
  2
HIDDENX2
 70
0
  3
Hidden (2x) ____ ____ ____ ____ ____ ____ ____ 
 72
65
 73
2
 40
19.0499999999999972
 49
12.6999999999999993
 74
0
 49
-6.3499999999999996
 74
0
  0
LTYPE
  5
3E
100
AcDbSymbolTableRecord
100
AcDbLinetypeTableRecord
  2
CENTERX2
 70
0
  3
Center (2x) ________  __  ________  __  _____
 72
65
 73
4
 40
101.6000000000000085
 49
63.5
 74
0
 49
-12.6999999999999993
 74
0
 49
12.6999999999999993
 74
0
 49
-12.6999999999999993
 74
0
  0
LTYPE
  5
3F
100
AcDbSymbolTableRecord
100
AcDbLinetypeTableRecord
  2
BORDER2
 70
0
  3
Border (.5x) __.__.__.__.__.__.__.__.__.__.__.
 72
65
 73
6
 40
22.2249999999999979
 49
6.3499999999999996
 74
0
 49
-3.1749999999999998
 74
0
 49
6.3499999999999996
 74
0
 49
-3.1749999999999998
 74
0
 49
0.0
 74
0
 49
-3.1749999999999998
 74
0
  0
LTYPE
  5
40
100
AcDbSymbolTableRecord
100
AcDbLinetypeTableRecord
  2
DASHDOT2
 70
0
  3
Dash dot (.5x) _._._._._._._._._._._._._._._.
 72
65
 73
4
 40
12.6999999999999993
 49
6.3499999999999996
 74
0
 49
-3.1749999999999998
 74
0
 49
0.0
 74
0
 49
-3.1749999999999998
 74
0
  0
LTYPE
  5
41
100
AcDbSymbolTableRecord
100
AcDbLinetypeTableRecord
  2
ACAD_ISO12W100
 70
0
  3
ISO dash double-dot __ . . __ . . __ . . __ . . 
 72
65
 73
6
 40
21.0
 49
12.0
 74
0
 49
-3.0
 74
0
 49
0.0
 74
0
 49
-3.0
 74
0
 49
0.0
 74
0
 49
-3.0
 74
0
  0
LTYPE
  5
42
100
AcDbSymbolTableRecord
100
AcDbLinetypeTableRecord
  2
ACAD_ISO07W100
 70
0
  3
ISO dot . . . . . . . . . . . . . . . . . . . . 
 72
65
 73
2
 40
3.0
 49
0.0
 74
0
 49
-3.0
 74
0
  0
LTYPE
  5
43
100
AcDbSymbolTableRecord
100
AcDbLinetypeTableRecord
  2
ACAD_ISO06W100
 70
0
  3
ISO long-dash triple-dot ____ ... ____ ... ____
 72
65
 73
8
 40
36.0
 49
24.0
 74
0
 49
-3.0
 74
0
 49
0.0
 74
0
 49
-3.0
 74
0
 49
0.0
 74
0
 49
-3.0
 74
0
 49
0.0
 74
0
 49
-3.0
 74
0
  0
LTYPE
  5
44
100
AcDbSymbolTableRecord
100
AcDbLinetypeTableRecord
  2
CENTER
 70
0
  3
Center ____ _ ____ _ ____ _ ____ _ ____ _ ____
 72
65
 73
4
 40
50.8000000000000043
 49
31.75
 74
0
 49
-6.3499999999999996
 74
0
 49
6.3499999999999996
 74
0
 49
-6.3499999999999996
 74
0
  0
LTYPE
  5
45
100
AcDbSymbolTableRecord
100
AcDbLinetypeTableRecord
  2
HIDDEN
 70
0
  3
Hidden __ __ __ __ __ __ __ __ __ __ __ __ __ __
 72
65
 73
2
 40
9.5249999999999986
 49
6.3499999999999996
 74
0
 49
-3.1749999999999998
 74
0
  0
LTYPE
  5
46
100
AcDbSymbolTableRecord
100
AcDbLinetypeTableRecord
  2
DOTX2
 70
0
  3
Dot (2x) .  .  .  .  .  .  .  .  .  .  .  .  .  .
 72
65
 73
2
 40
12.6999999999999993
 49
0.0
 74
0
 49
-12.6999999999999993
 74
0
  0
LTYPE
  5
47
100
AcDbSymbolTableRecord
100
AcDbLinetypeTableRecord
  2
PHANTOM
 70
0
  3
Phantom ______  __  __  ______  __  __  ______ 
 72
65
 73
6
 40
63.5000000000000071
 49
31.75
 74
0
 49
-6.3499999999999996
 74
0
 49
6.3499999999999996
 74
0
 49
-6.3499999999999996
 74
0
 49
6.3499999999999996
 74
0
 49
-6.3499999999999996
 74
0
  0
LTYPE
  5
48
100
AcDbSymbolTableRecord
100
AcDbLinetypeTableRecord
  2
ACAD_ISO08W100
 70
0
  3
ISO long-dash short-dash ____ __ ____ __ ____ _
 72
65
 73
4
 40
36.0
 49
24.0
 74
0
 49
-3.0
 74
0
 49
6.0
 74
0
 49
-3.0
 74
0
  0
LTYPE
  5
49
100
AcDbSymbolTableRecord
100
AcDbLinetypeTableRecord
  2
DASHEDX2
 70
0
  3
Dashed (2x) ____  ____  ____  ____  ____  ___
 72
65
 73
2
 40
38.0999999999999943
 49
25.3999999999999986
 74
0
 49
-12.6999999999999993
 74
0
  0
LTYPE
  5
4A
100
AcDbSymbolTableRecord
100
AcDbLinetypeTableRecord
  2
DRAINAGE
 70
0
  3
Drainage ---->---->---->----
 72
65
 73
2
 40
10.1600000000000001
 49
5.0800000000000001
 74
0
 49
5.0800000000000001
 74
0
  0
LTYPE
  5
4B
100
AcDbSymbolTableRecord
100
AcDbLinetypeTableRecord
  2
ACAD_ISO02W100
 70
0
  3
ISO dash __ __ __ __ __ __ __ __ __ __ __ __ __
 72
65
 73
2
 40
15.0
 49
12.0
 74
0
 49
-3.0
 74
0
  0
LTYPE
  5
4C
100
AcDbSymbolTableRecord
100
AcDbLinetypeTableRecord
  2
PHANTOM2
 70
0
  3
Phantom (.5x) ___ _ _ ___ _ _ ___ _ _ ___ _ _
 72
65
 73
6
 40
31.7500000000000036
 49
15.875
 74
0
 49
-3.1749999999999998
 74
0
 49
3.1749999999999998
 74
0
 49
-3.1749999999999998
 74
0
 49
3.1749999999999998
 74
0
 49
-3.1749999999999998
 74
0
  0
LTYPE
  5
4D
100
AcDbSymbolTableRecord
100
AcDbLinetypeTableRecord
  2
DASHED2
 70
0
  3
Dashed (.5x) _ _ _ _ _ _ _ _ _ _ _ _ _ _ _ _ _ 
 72
65
 73
2
 40
9.5249999999999986
 49
6.3499999999999996
 74
0
 49
-3.1749999999999998
 74
0
  0
LTYPE
  5
4E
100
AcDbSymbolTableRecord
100
AcDbLinetypeTableRecord
  2
ACAD_ISO09W100
 70
0
  3
ISO long-dash double-short-dash ____ __ __ ____
 72
65
 73
6
 40
45.0
 49
24.0
 74
0
 49
-3.0
 74
0
 49
6.0
 74
0
 49
-3.0
 74
0
 49
6.0
 74
0
 49
-3.0
 74
0
  0
LTYPE
  5
4F
100
AcDbSymbolTableRecord
100
AcDbLinetypeTableRecord
  2
ACAD_ISO13W100
 70
0
  3
ISO double-dash double-dot __ __ . . __ __ . . _
 72
65
 73
8
 40
36.0
 49
12.0
 74
0
 49
-3.0
 74
0
 49
12.0
 74
0
 49
-3.0
 74
0
 49
0.0
 74
0
 49
-3.0
 74
0
 49
0.0
 74
0
 49
-3.0
 74
0
  0
LTYPE
  5
50
100
AcDbSymbolTableRecord
100
AcDbLinetypeTableRecord
  2
TRACKS
 70
0
  3
Tracks -|-|-|-|-|-|-|-|-|-|-|-|-|-|-|-|-|-|-|-|-|-|-|-|-
 72
65
 73
2
 40
7.6200000000000001
 49
3.8100000000000001
 74
0
 49
3.8100000000000001
 74
0
  0
LTYPE
  5
51
100
AcDbSymbolTableRecord
100
AcDbLinetypeTableRecord
  2
DRAINAGE2
 70
0
  3
Drainage reversed----<----<----<----
 72
65
 73
2
 40
10.1600000000000001
 49
5.0800000000000001
 74
0
 49
5.0800000000000001
 74
0
  0
LTYPE
  5
52
100
AcDbSymbolTableRecord
100
AcDbLinetypeTableRecord
  2
DOT2
 70
0
  3
Dot (.5x) ........................................
 72
65
 73
2
 40
3.1749999999999998
 49
0.0
 74
0
 49
-3.1749999999999998
 74
0
  0
LTYPE
  5
53
100
AcDbSymbolTableRecord
100
AcDbLinetypeTableRecord
  2
ZIGZAG
 70
0
  3
Zig zag /\/\/\/\/\/\/\/\/\/\/\/\/\/\/\/\/\/\/\/\/\/\/\/
 72
65
 73
4
 40
20.32254
 49
0.00254
 74
0
 49
-5.0800000000000001
 74
0
 49
-10.1600000000000001
 74
0
 49
-5.0800000000000001
 74
0
  0
LTYPE
  5
54
100
AcDbSymbolTableRecord
100
AcDbLinetypeTableRecord
  2
DASHED
 70
0
  3
Dashed __ __ __ __ __ __ __ __ __ __ __ __ __ _
 72
65
 73
2
 40
19.0499999999999972
 49
12.6999999999999993
 74
0
 49
-6.3499999999999996
 74
0
  0
LTYPE
  5
55
100
AcDbSymbolTableRecord
100
AcDbLinetypeTableRecord
  2
ACAD_ISO14W100
 70
0
  3
ISO dash triple-dot __ . . . __ . . . __ . . . _
 72
65
 73
8
 40
24.0
 49
12.0
 74
0
 49
-3.0
 74
0
 49
0.0
 74
0
 49
-3.0
 74
0
 49
0.0
 74
0
 49
-3.0
 74
0
 49
0.0
 74
0
 49
-3.0
 74
0
  0
LTYPE
  5
15
100
AcDbSymbolTableRecord
100
AcDbLinetypeTableRecord
  2
BYLAYER
 70
0
  3

 72
65
 73
0
 40
0.0
  0
LTYPE
  5
56
100
AcDbSymbolTableRecord
100
AcDbLinetypeTableRecord
  2
PHANTOMX2
 70
0
  3
Phantom (2x) ____________    ____    ____   _
 72
65
 73
6
 40
127.0000000000000142
 49
63.5
 74
0
 49
-12.6999999999999993
 74
0
 49
12.6999999999999993
 74
0
 49
-12.6999999999999993
 74
0
 49
12.6999999999999993
 74
0
 49
-12.6999999999999993
 74
0
  0
LTYPE
  5
14
100
AcDbSymbolTableRecord
100
AcDbLinetypeTableRecord
  2
BYBLOCK
 70
0
  3

 72
65
 73
0
 40
0.0
  0
LTYPE
  5
57
100
AcDbSymbolTableRecord
100
AcDbLinetypeTableRecord
  2
DIVIDEX2
 70
0
  3
Divide (2x) ________  .  .  ________  .  .  _
 72
65
 73
6
 40
63.5
 49
25.3999999999999986
 74
0
 49
-12.6999999999999993
 74
0
 49
0.0
 74
0
 49
-12.6999999999999993
 74
0
 49
0.0
 74
0
 49
-12.6999999999999993
 74
0
  0
LTYPE
  5
58
100
AcDbSymbolTableRecord
100
AcDbLinetypeTableRecord
  2
BORDER
 70
0
  3
Border __ __ . __ __ . __ __ . __ __ . __ __ .
 72
65
 73
6
 40
44.4499999999999957
 49
12.6999999999999993
 74
0
 49
-6.3499999999999996
 74
0
 49
12.6999999999999993
 74
0
 49
-6.3499999999999996
 74
0
 49
0.0
 74
0
 49
-6.3499999999999996
 74
0
  0
LTYPE
  5
59
100
AcDbSymbolTableRecord
100
AcDbLinetypeTableRecord
  2
DIVIDE2
 70
0
  3
Divide (.5x) __..__..__..__..__..__..__..__.._
 72
65
 73
6
 40
15.875
 49
6.3499999999999996
 74
0
 49
-3.1749999999999998
 74
0
 49
0.0
 74
0
 49
-3.1749999999999998
 74
0
 49
0.0
 74
0
 49
-3.1749999999999998
 74
0
  0
LTYPE
  5
5A
100
AcDbSymbolTableRecord
100
AcDbLinetypeTableRecord
  2
DOT
 70
0
  3
Dot . . . . . . . . . . . . . . . . . . . . . . . .
 72
65
 73
2
 40
6.3499999999999996
 49
0.0
 74
0
 49
-6.3499999999999996
 74
0
  0
LTYPE
  5
5B
100
AcDbSymbolTableRecord
100
AcDbLinetypeTableRecord
  2
DASHDOT
 70
0
  3
Dash dot __ . __ . __ . __ . __ . __ . __ . __
 72
65
 73
4
 40
25.3999999999999986
 49
12.6999999999999993
 74
0
 49
-6.3499999999999996
 74
0
 49
0.0
 74
0
 49
-6.3499999999999996
 74
0
  0
LTYPE
  5
5C
100
AcDbSymbolTableRecord
100
AcDbLinetypeTableRecord
  2
FENCELINE1
 70
0
  3
Fenceline circle ----0-----0----0-----0----0-----0--
 72
65
 73
4
 40
36.8299999999999983
 49
6.3499999999999996
 74
0
 49
-2.54
 74
0
 49
-2.54
 74
0
 49
25.3999999999999986
 74
0
  0
LTYPE
  5
5D
100
AcDbSymbolTableRecord
100
AcDbLinetypeTableRecord
  2
BATTING
 70
0
  3
Batting SSSSSSSSSSSSSSSSSSSSSSSSSSSSSSSSSSSSSSSSSSSSSSS
 72
65
 73
4
 40
10.1625399999999999
 49
0.00254
 74
0
 49
-2.54
 74
0
 49
-5.0800000000000001
 74
0
 49
-2.54
 74
0
  0
LTYPE
  5
5E
100
AcDbSymbolTableRecord
100
AcDbLinetypeTableRecord
  2
ACAD_ISO03W100
 70
0
  3
ISO dash space __    __    __    __    __    __
 72
65
 73
2
 40
30.0
 49
12.0
 74
0
 49
-18.0
 74
0
  0
LTYPE
  5
5F
100
AcDbSymbolTableRecord
100
AcDbLinetypeTableRecord
  2
FENCELINE2
 70
0
  3
Fenceline square ----[]-----[]----[]-----[]----[]---
 72
65
 73
4
 40
36.8299999999999983
 49
6.3499999999999996
 74
0
 49
-2.54
 74
0
 49
-2.54
 74
0
 49
25.3999999999999986
 74
0
  0
ENDTAB
  0
TABLE
  2
LAYER
  5
2
100
AcDbSymbolTable
 70
1
  0
LAYER
  5
10
100
AcDbSymbolTableRecord
100
AcDbLayerTableRecord
  2
0
 70
0
 62
7
420
16777215
  6
Continuous
370
25
390
F
  0
ENDTAB
  0
TABLE
  2
STYLE
  5
3
100
AcDbSymbolTable
 70
1
  0
STYLE
  5
60
100
AcDbSymbolTableRecord
100
AcDbTextStyleTableRecord
  2
Standard
 70
0
 40
0.0
 41
1.0
 50
0.0
 71
0
 42
2.5
  3

  4

1001
ACAD
1000
txt
1071
0
  0
ENDTAB
  0
TABLE
  2
VIEW
  5
6
100
AcDbSymbolTable
 70
0
  0
ENDTAB
  0
TABLE
  2
UCS
  5
7
100
AcDbSymbolTable
 70
0
  0
ENDTAB
  0
TABLE
  2
APPID
  5
9
100
AcDbSymbolTable
 70
1
  0
APPID
  5
12
100
AcDbSymbolTableRecord
100
AcDbRegAppTableRecord
  2
ACAD
 70
0
  0
APPID
  5
61
100
AcDbSymbolTableRecord
100
AcDbRegAppTableRecord
  2
QCAD
 70
0
  0
ENDTAB
  0
TABLE
  2
DIMSTYLE
  5
A
100
AcDbSymbolTable
 70
1
100
AcDbDimStyleTable
 71
0
  0
DIMSTYLE
105
27
100
AcDbSymbolTableRecord
100
AcDbDimStyleTableRecord
  2
Standard
 41
0.125
 42
0.03125
 43
3.75
 44
0.0625
 70
0
 73
0
 74
0
 77
1
 78
8
140
0.125
141
2.5
143
0.03937007874016
147
0.03125
171
3
172
1
271
2
272
2
274
3
278
44
283
0
284
8
340
60
  0
ENDTAB
  0
TABLE
  2
BLOCK_RECORD
  5
1
100
AcDbSymbolTable
 70
1
  0
BLOCK_RECORD
  5
1F
100
AcDbSymbolTableRecord
100
AcDbBlockTableRecord
  2
*Model_Space
340
22
  0
BLOCK_RECORD
  5
1B
100
AcDbSymbolTableRecord
100
AcDbBlockTableRecord
  2
*Paper_Space
340
1E
  0
BLOCK_RECORD
  5
23
100
AcDbSymbolTableRecord
100
AcDbBlockTableRecord
  2
*Paper_Space0
340
26
  0
ENDTAB
  0
ENDSEC
  0
SECTION
  2
BLOCKS
  0
BLOCK
  5
20
100
AcDbEntity
  8
0
100
AcDbBlockBegin
  2
*Model_Space
 70
0
 10
0.0
 20
0.0
 30
0.0
  3
*Model_Space
  1

  0
ENDBLK
  5
21
100
AcDbEntity
  8
0
100
AcDbBlockEnd
  0
BLOCK
  5
1C
100
AcDbEntity
 67
1
  8
0
100
AcDbBlockBegin
  2
*Paper_Space
 70
0
 10
0.0
 20
0.0
 30
0.0
  3
*Paper_Space
  1

  0
ENDBLK
  5
1D
100
AcDbEntity
 67
1
  8
0
100
AcDbBlockEnd
  0
BLOCK
  5
24
100
AcDbEntity
  8
0
100
AcDbBlockBegin
  2
*Paper_Space0
 70
0
 10
0.0
 20
0.0
 30
0.0
  3
*Paper_Space0
  1

  0
ENDBLK
  5
25
100
AcDbEntity
  8
0
100
AcDbBlockEnd
  0
ENDSEC
  0
SECTION
  2
ENTITIES
  0
CIRCLE
  5
62
100
AcDbEntity
100
AcDbCircle
  8
0
 62
3
420
65280
370
-1
 48
1.0
  6
BYLAYER
 10
-2.000000001879318
 20
2.3505501280218173
 30
0.0
 40
0.0538785000000007
  0
CIRCLE
  5
63
100
AcDbEntity
100
AcDbCircle
  8
0
 62
3
420
65280
370
-1
 48
1.0
  6
BYLAYER
 10
-1.5499999915924667
 20
3.243134325604363
 30
0.0
 40
0.0538785000000007
  0
CIRCLE
  5
64
100
AcDbEntity
100
AcDbCircle
  8
0
 62
3
420
65280
370
-1
 48
1.0
  6
BYLAYER
 10
-2.4499999915924668
 20
3.243134325604363
 30
0.0
 40
0.0538785000000007
  0
CIRCLE
  5
65
100
AcDbEntity
100
AcDbCircle
  8
0
 62
3
420
65280
370
-1
 48
1.0
  6
BYLAYER
 10
-5.2999999999999998
 20
-1.337638808139384
 30
0.0
 40
0.0538785000000007
  0
CIRCLE
  5
66
100
AcDbEntity
100
AcDbCircle
  8
0
 62
3
420
65280
370
-1
 48
1.0
  6
BYLAYER
 10
-5.9999999999999991
 20
-1.337638808139384
 30
0.0
 40
0.0538785000000007
  0
CIRCLE
  5
67
100
AcDbEntity
100
AcDbCircle
  8
0
 62
3
420
65280
370
-1
 48
1.0
  6
BYLAYER
 10
-3.3499999999999996
 20
-0.2612686512087271
 30
0.0
 40
0.0538785000000007
  0
CIRCLE
  5
68
100
AcDbEntity
100
AcDbCircle
  8
0
 62
3
420
65280
370
-1
 48
1.0
  6
BYLAYER
 10
-4.25
 20
-0.2612686512087271
 30
0.0
 40
0.0538785000000007
  0
CIRCLE
  5
69
100
AcDbEntity
100
AcDbCircle
  8
0
 62
3
420
65280
370
-1
 48
1.0
  6
BYLAYER
 10
-3.8000000102868512
 20
-1.1538528487912727
 30
0.0
 40
0.0538785000000007
  0
CIRCLE
  5
6A
100
AcDbEntity
100
AcDbCircle
  8
0
 62
3
420
65280
370
-1
 48
1.0
  6
BYLAYER
 10
-1.5499999999999998
 20
0.4387313487912729
 30
0.0
 40
0.0538785000000007
  0
CIRCLE
  5
6B
100
AcDbEntity
100
AcDbCircle
  8
0
 62
3
420
65280
370
-1
 48
1.0
  6
BYLAYER
 10
-2.4499999999999997
 20
0.4387313487912729
 30
0.0
 40
0.0538785000000007
  0
CIRCLE
  5
6C
100
AcDbEntity
100
AcDbCircle
  8
0
 62
3
420
65280
370
-1
 48
1.0
  6
BYLAYER
 10
-2.0000000102868509
 20
-0.4538528487912727
 30
0.0
 40
0.0538785000000007
  0
CIRCLE
  5
6D
100
AcDbEntity
100
AcDbCircle
  8
0
 62
3
420
65280
370
-1
 48
1.0
  6
BYLAYER
 10
1.8999999999999999
 20
-0.4
 30
0.0
 40
0.0538785000000007
  0
CIRCLE
  5
6E
100
AcDbEntity
100
AcDbCircle
  8
0
 62
3
420
65280
370
-1
 48
1.0
  6
BYLAYER
 10
0.9999999999999999
 20
-0.4
 30
0.0
 40
0.0538785000000007
  0
CIRCLE
  5
6F
100
AcDbEntity
100
AcDbCircle
  8
0
 62
3
420
65280
370
-1
 48
1.0
  6
BYLAYER
 10
1.4499999897131486
 20
-1.2925841975825456
 30
0.0
 40
0.0538785000000007
  0
CIRCLE
  5
70
100
AcDbEntity
100
AcDbCircle
  8
0
 62
3
420
65280
370
-1
 48
1.0
  6
BYLAYER
 10
4.9499999999999886
 20
1.9374999999999929
 30
0.0
 40
0.0538785000000007
  0
CIRCLE
  5
71
100
AcDbEntity
100
AcDbCircle
  8
0
 62
3
420
65280
370
-1
 48
1.0
  6
BYLAYER
 10
3.9499999999999886
 20
1.9374999999999929
 30
0.0
 40
0.0538785000000007
  0
CIRCLE
  5
72
100
AcDbEntity
100
AcDbCircle
  8
0
 62
3
420
65280
370
-1
 48
1.0
  6
BYLAYER
 10
1.9499999999999957
 20
1.7624999999999922
 30
0.0
 40
0.0538785000000007
  0
CIRCLE
  5
73
100
AcDbEntity
100
AcDbCircle
  8
0
 62
3
420
65280
370
-1
 48
1.0
  6
BYLAYER
 10
0.9499999999999957
 20
1.7624999999999922
 30
0.0
 40
0.0538785000000007
  0
LINE
  5
74
100
AcDbEntity
100
AcDbLine
  8
0
 62
3
420
65280
370
-1
 48
1.0
  6
BYLAYER
 10
-7.2299999999999738
 20
-2.8800186512087311
 30
0.0
 11
-7.0999999999999925
 21
-2.8800186512087311
 31
0.0
  0
LINE
  5
75
100
AcDbEntity
100
AcDbLine
  8
0
 62
3
420
65280
370
-1
 48
1.0
  6
BYLAYER
 10
-7.2299999999999738
 20
-3.3800186512087311
 30
0.0
 11
-7.0999999999999925
 21
-3.3800186512087311
 31
0.0
  0
LINE
  5
76
100
AcDbEntity
100
AcDbLine
  8
0
 62
3
420
65280
370
-1
 48
1.0
  6
BYLAYER
 10
-6.7549999999999937
 20
-3.3800186512087311
 30
0.0
 11
-6.6250000000000124
 21
-3.3800186512087311
 31
0.0
  0
LINE
  5
77
100
AcDbEntity
100
AcDbLine
  8
0
 62
3
420
65280
370
-1
 48
1.0
  6
BYLAYER
 10
-6.7549999999999937
 20
-2.8800186512087311
 30
0.0
 11
-6.6250000000000124
 21
-2.8800186512087311
 31
0.0
  0
CIRCLE
  5
78
100
AcDbEntity
100
AcDbCircle
  8
0
 62
3
420
65280
370
-1
 48
1.0
  6
BYLAYER
 10
4.9249999999999972
 20
-1.0
 30
0.0
 40
0.0538785000000007
  0
CIRCLE
  5
79
100
AcDbEntity
100
AcDbCircle
  8
0
 62
3
420
65280
370
-1
 48
1.0
  6
BYLAYER
 10
4.0
 20
-1.0
 30
0.0
 40
0.0538785000000007
  0
CIRCLE
  5
7A
100
AcDbEntity
100
AcDbCircle
  8
0
 62
3
420
65280
370
-1
 48
1.0
  6
BYLAYER
 10
2.2499999999999929
 20
-1.3874999999999957
 30
0.0
 40
0.0538785000000007
  0
CIRCLE
  5
7B
100
AcDbEntity
100
AcDbCircle
  8
0
 62
3
420
65280
370
-1
 48
1.0
  6
BYLAYER
 10
3.0730612509337689
 20
-1.8096317060010136
 30
0.0
 40
0.0538785000000007
  0
CIRCLE
  5
7C
100
AcDbEntity
100
AcDbCircle
  8
0
 62
3
420
65280
370
-1
 48
1.0
  6
BYLAYER
 10
2.904073772597549
 20
-2.0415737725975553
 30
0.0
 40
0.0538785000000007
  0
CIRCLE
  5
7D
100
AcDbEntity
100
AcDbCircle
  8
0
 62
3
420
65280
370
-1
 48
1.0
  6
BYLAYER
 10
2.6721317060010037
 20
-2.2105612509337789
 30
0.0
 40
0.0538785000000007
  0
CIRCLE
  5
7E
100
AcDbEntity
100
AcDbCircle
  8
0
 62
3
420
65280
370
-1
 48
1.0
  6
BYLAYER
 10
-0.1730612509337917
 20
-1.8096317060010136
 30
0.0
 40
0.0538785000000007
  0
CIRCLE
  5
7F
100
AcDbEntity
100
AcDbCircle
  8
0
 62
3
420
65280
370
-1
 48
1.0
  6
BYLAYER
 10
-0.0040737725975717
 20
-2.0415737725975553
 30
0.0
 40
0.0538785000000007
  0
CIRCLE
  5
80
100
AcDbEntity
100
AcDbCircle
  8
0
 62
3
420
65280
370
-1
 48
1.0
  6
BYLAYER
 10
0.2278682939989736
 20
-2.2105612509337789
 30
0.0
 40
0.0538785000000007
  0
CIRCLE
  5
81
100
AcDbEntity
100
AcDbCircle
  8
0
 62
3
420
65280
370
-1
 48
1.0
  6
BYLAYER
 10
0.6499999999999844
 20
-1.3874999999999993
 30
0.0
 40
0.0538785000000007
  0
CIRCLE
  5
82
100
AcDbEntity
100
AcDbCircle
  8
0
 62
3
420
65280
370
-1
 48
1.0
  6
BYLAYER
 10
7.1664999999999992
 20
-1.0
 30
0.0
 40
0.0538785000000007
  0
CIRCLE
  5
83
100
AcDbEntity
100
AcDbCircle
  8
0
 62
3
420
65280
370
-1
 48
1.0
  6
BYLAYER
 10
6.8707103157492249
 20
-1.9207680181435385
 30
0.0
 40
0.0538785000000007
  0
CIRCLE
  5
84
100
AcDbEntity
100
AcDbCircle
  8
0
 62
3
420
65280
370
-1
 48
1.0
  6
BYLAYER
 10
5.6707103157492291
 20
-1.9207680181435385
 30
0.0
 40
0.0538785000000007
  0
CIRCLE
  5
85
100
AcDbEntity
100
AcDbCircle
  8
0
 62
3
420
65280
370
-1
 48
1.0
  6
BYLAYER
 10
4.4707103157492263
 20
-1.9207680181435385
 30
0.0
 40
0.0538785000000007
  0
ARC
  5
86
100
AcDbEntity
  8
0
 62
7
420
0
370
-1
 48
1.0
  6
BYLAYER
100
AcDbCircle
 10
-3.5159672195374814
 20
-2.6767993957757077
 30
0.0
 40
0.25
100
AcDbArc
 50
53.3957887070050177
 51
270.0
  0
ARC
  5
87
100
AcDbEntity
  8
0
 62
7
420
0
370
-1
 48
1.0
  6
BYLAYER
100
AcDbCircle
 10
-3.0809672298243473
 20
-3.1318835933582494
 30
0.0
 40
0.25
100
AcDbArc
 50
185.5208288087178516
 51
235.735062095250413
  0
LINE
  5
88
100
AcDbEntity
100
AcDbLine
  8
0
 62
256
370
-1
 48
1.0
  6
BYLAYER
 10
-3.6297458264520461
 20
-3.280123648783043
 30
0.0
 11
-3.8589334583695587
 21
-2.9357456291252295
 31
0.0
  0
LINE
  5
89
100
AcDbEntity
100
AcDbLine
  8
0
 62
256
370
-1
 48
1.0
  6
BYLAYER
 10
-3.3634379241195038
 20
-3.155956512835441
 30
0.0
 11
-3.329807552240462
 21
-3.1559354943193618
 31
0.0
  0
LINE
  5
8A
100
AcDbEntity
100
AcDbLine
  8
0
 62
256
370
-1
 48
1.0
  6
BYLAYER
 10
-3.3650554657768001
 20
-3.0660807844721454
 30
0.0
 11
-3.3634379241195038
 21
-3.155956512835441
 31
0.0
  0
SPLINE
  5
8B
  8
0
 62
256
370
-1
 48
1.0
  6
BYLAYER
100
AcDbEntity
100
AcDbSpline
 70
8
 71
2
 72
6
 73
3
 74
0
 40
0.0
 40
0.0
 40
0.0
 40
1.0
 40
1.0
 40
1.0
 10
-3.3650554657768073
 20
-3.0660807844721454
 30
0.0
 10
-3.408363413329015
 20
-2.9723543749592647
 30
0.0
 10
-3.4978899854200254
 20
-2.9267993957757072
 30
0.0
  0
LINE
  5
8C
100
AcDbEntity
100
AcDbLine
  8
0
 62
256
370
-1
 48
1.0
  6
BYLAYER
 10
-3.5159672195374814
 20
-2.9267993957757072
 30
0.0
 11
-3.4978899854200254
 21
-2.9267993957757072
 31
0.0
  0
LINE
  5
8D
100
AcDbEntity
100
AcDbLine
  8
0
 62
256
370
-1
 48
1.0
  6
BYLAYER
 10
-3.3336372599220514
 20
-3.3526272920973703
 30
0.0
 11
-3.5259672298243121
 21
-3.3507620933582496
 31
0.0
  0
SPLINE
  5
8E
  8
0
 62
256
370
-1
 48
1.0
  6
BYLAYER
100
AcDbEntity
100
AcDbSpline
 70
8
 71
2
 72
6
 73
3
 74
0
 40
0.0
 40
0.0
 40
0.0
 40
1.0
 40
1.0
 40
1.0
 10
-3.6297458264520532
 20
-3.280123648783043
 30
0.0
 10
-3.5634672298243419
 20
-3.3522554427278104
 30
0.0
 10
-3.5259672298243192
 20
-3.3507620933582496
 30
0.0
  0
LINE
  5
8F
100
AcDbEntity
100
AcDbLine
  8
0
 62
256
370
-1
 48
1.0
  6
BYLAYER
 10
-3.366896249241254
 20
-2.476105983290541
 30
0.0
 11
-3.2704477902657323
 21
-2.4976878985573259
 31
0.0
  0
LINE
  5
90
100
AcDbEntity
100
AcDbLine
  8
0
 62
256
370
-1
 48
1.0
  6
BYLAYER
 10
-3.3336372599220514
 20
-3.3526272920973703
 30
0.0
 11
-3.2217223331805744
 21
-3.3384943406081904
 31
0.0
  0
LINE
  5
91
100
AcDbEntity
100
AcDbLine
  8
0
 62
256
370
-1
 48
1.0
  6
BYLAYER
 10
-3.3159672298243326
 20
-2.2318835933582495
 30
0.0
 11
-3.3159672298243321
 21
-2.2318835933582495
 31
0.0
  0
CIRCLE
  5
92
100
AcDbEntity
100
AcDbCircle
  8
0
 62
3
420
65280
370
-1
 48
1.0
  6
BYLAYER
 10
-1.9999999915924607
 20
-2.3931343256043753
 30
0.0
 40
0.25
  0
CIRCLE
  5
93
100
AcDbEntity
100
AcDbCircle
  8
0
 62
3
420
65280
370
-1
 48
1.0
  6
BYLAYER
 10
-1.9999999915924604
 20
2.8068656743956244
 30
0.0
 40
0.25
  0
CIRCLE
  5
94
100
AcDbEntity
100
AcDbCircle
  8
0
 62
3
420
65280
370
-1
 48
1.0
  6
BYLAYER
 10
1.4500000000000062
 20
-0.8362686512087385
 30
0.0
 40
0.25
  0
CIRCLE
  5
95
100
AcDbEntity
100
AcDbCircle
  8
0
 62
3
420
65280
370
-1
 48
1.0
  6
BYLAYER
 10
-1.9999999999999967
 20
0.0012313487912672
 30
0.0
 40
0.25
  0
ARC
  5
96
100
AcDbEntity
  8
0
 62
7
420
0
370
-1
 48
1.0
  6
BYLAYER
100
AcDbCircle
 10
4.0
 20
-1.0
 30
0.0
 40
0.2834999999999983
100
AcDbArc
 50
90.0
 51
270.0
  0
ARC
  5
97
100
AcDbEntity
  8
0
 62
7
420
0
370
-1
 48
1.0
  6
BYLAYER
100
AcDbCircle
 10
7.1664999999999992
 20
-1.0
 30
0.0
 40
0.2834999999999983
100
AcDbArc
 50
270.0
 51
90.0
  0
ARC
  5
98
100
AcDbEntity
  8
0
 62
7
420
0
370
-1
 48
1.0
  6
BYLAYER
100
AcDbCircle
 10
6.8707103157492249
 20
-1.9207680181435385
 30
0.0
 40
0.2834999999999983
100
AcDbArc
 50
0.0
 51
180.0
  0
ARC
  5
99
100
AcDbEntity
  8
0
 62
7
420
0
370
-1
 48
1.0
  6
BYLAYER
100
AcDbCircle
 10
5.6707103157492291
 20
-1.9207680181435385
 30
0.0
 40
0.2834999999999983
100
AcDbArc
 50
0.0
 51
180.0
  0
ARC
  5
9A
100
AcDbEntity
  8
0
 62
7
420
0
370
-1
 48
1.0
  6
BYLAYER
100
AcDbCircle
 10
4.4707103157492263
 20
-1.9207680181435385
 30
0.0
 40
0.2834999999999983
100
AcDbArc
 50
0.0
 51
180.0
  0
LINE
  5
9B
100
AcDbEntity
100
AcDbLine
  8
0
 62
7
420
0
370
-1
 48
1.0
  6
BYLAYER
 10
7.1542103157492214
 20
-2.2290180181435395
 30
0.0
 11
7.1542103157492214
 21
-1.9207680181435385
 31
0.0
  0
LINE
  5
9C
100
AcDbEntity
100
AcDbLine
  8
0
 62
7
420
0
370
-1
 48
1.0
  6
BYLAYER
 10
5.9542103157492257
 20
-2.2290180181435395
 30
0.0
 11
5.9542103157492257
 21
-1.9207680181435385
 31
0.0
  0
LINE
  5
9D
100
AcDbEntity
100
AcDbLine
  8
0
 62
7
420
0
370
-1
 48
1.0
  6
BYLAYER
 10
4.7542103157492228
 20
-2.2290180181435395
 30
0.0
 11
4.7542103157492228
 21
-1.9207680181435385
 31
0.0
  0
LINE
  5
9E
100
AcDbEntity
100
AcDbLine
  8
0
 62
7
420
0
370
-1
 48
1.0
  6
BYLAYER
 10
6.5872103157492283
 20
-2.2290180181435395
 30
0.0
 11
6.5872103157492283
 21
-1.9207680181435385
 31
0.0
  0
LINE
  5
9F
100
AcDbEntity
100
AcDbLine
  8
0
 62
7
420
0
370
-1
 48
1.0
  6
BYLAYER
 10
5.3872103157492326
 20
-2.2290180181435395
 30
0.0
 11
5.3872103157492326
 21
-1.9207680181435385
 31
0.0
  0
LINE
  5
A0
100
AcDbEntity
100
AcDbLine
  8
0
 62
7
420
0
370
-1
 48
1.0
  6
BYLAYER
 10
4.1872103157492297
 20
-2.2290180181435395
 30
0.0
 11
4.1872103157492297
 21
-1.9207680181435385
 31
0.0
  0
LINE
  5
A1
100
AcDbEntity
100
AcDbLine
  8
0
 62
7
420
0
370
-1
 48
1.0
  6
BYLAYER
 10
7.1664999999999992
 20
-0.716500000000007
 30
0.0
 11
4.0
 21
-0.7165000000000035
 31
0.0
  0
LINE
  5
A2
100
AcDbEntity
100
AcDbLine
  8
0
 62
7
420
0
370
-1
 48
1.0
  6
BYLAYER
 10
7.1664999999999992
 20
-1.2834999999999965
 30
0.0
 11
4.0
 21
-1.2834999999999965
 31
0.0
  0
CIRCLE
  5
A3
100
AcDbEntity
100
AcDbCircle
  8
0
 62
3
420
65280
370
-1
 48
1.0
  6
BYLAYER
 10
7.1664999999999992
 20
-1.0
 30
0.0
 40
0.125
  0
CIRCLE
  5
A4
100
AcDbEntity
100
AcDbCircle
  8
0
 62
3
420
65280
370
-1
 48
1.0
  6
BYLAYER
 10
4.0
 20
-1.0
 30
0.0
 40
0.125
  0
LINE
  5
A5
100
AcDbEntity
100
AcDbLine
  8
0
 62
7
420
0
370
-1
 48
1.0
  6
BYLAYER
 10
-2.12499999159246
 20
-2.0605720780209396
 30
0.0
 11
-2.12499999159246
 21
-1.9105720780209408
 31
0.0
  0
LINE
  5
A6
100
AcDbEntity
100
AcDbLine
  8
0
 62
7
420
0
370
-1
 48
1.0
  6
BYLAYER
 10
-1.87499999159246
 20
-2.0605720780209396
 30
0.0
 11
-1.87499999159246
 21
-1.9105720780209408
 31
0.0
  0
LINE
  5
A7
100
AcDbEntity
100
AcDbLine
  8
0
 62
7
420
0
370
-1
 48
1.0
  6
BYLAYER
 10
1.3250000000000028
 20
2.1124999999999936
 30
0.0
 11
1.3250000000000028
 21
2.2624999999999922
 31
0.0
  0
LINE
  5
A8
100
AcDbEntity
100
AcDbLine
  8
0
 62
7
420
0
370
-1
 48
1.0
  6
BYLAYER
 10
1.5750000000000028
 20
2.1124999999999936
 30
0.0
 11
1.5750000000000028
 21
2.2624999999999922
 31
0.0
  0
LINE
  5
A9
100
AcDbEntity
100
AcDbLine
  8
0
 62
3
420
65280
370
-1
 48
1.0
  6
BYLAYER
 10
4.3249999999999957
 20
2.2874999999999943
 30
0.0
 11
4.3249999999999957
 21
2.4374999999999929
 31
0.0
  0
LINE
  5
AA
100
AcDbEntity
100
AcDbLine
  8
0
 62
3
420
65280
370
-1
 48
1.0
  6
BYLAYER
 10
4.5749999999999957
 20
2.2874999999999943
 30
0.0
 11
4.5749999999999957
 21
2.4374999999999929
 31
0.0
  0
LINE
  5
AB
100
AcDbEntity
100
AcDbLine
  8
0
 62
7
420
0
370
-1
 48
1.0
  6
BYLAYER
 10
-1.9461214915924567
 20
-1.9105720780209408
 30
0.0
 11
-1.87499999159246
 21
-1.9105720780209408
 31
0.0
  0
LINE
  5
AC
100
AcDbEntity
100
AcDbLine
  8
0
 62
7
420
0
370
-1
 48
1.0
  6
BYLAYER
 10
1.5038785000000061
 20
2.2624999999999922
 30
0.0
 11
1.5750000000000028
 21
2.2624999999999922
 31
0.0
  0
LINE
  5
AD
100
AcDbEntity
100
AcDbLine
  8
0
 62
7
420
0
370
-1
 48
1.0
  6
BYLAYER
 10
-2.0538784915924633
 20
-1.9105720780209408
 30
0.0
 11
-2.12499999159246
 21
-1.9105720780209408
 31
0.0
  0
LINE
  5
AE
100
AcDbEntity
100
AcDbLine
  8
0
 62
7
420
0
370
-1
 48
1.0
  6
BYLAYER
 10
1.3961214999999996
 20
2.2624999999999922
 30
0.0
 11
1.3250000000000028
 21
2.2624999999999922
 31
0.0
  0
LINE
  5
AF
100
AcDbEntity
100
AcDbLine
  8
0
 62
7
420
0
370
-1
 48
1.0
  6
BYLAYER
 10
-2.0538784915924633
 20
-2.0605720780209396
 30
0.0
 11
-2.12499999159246
 21
-2.0605720780209396
 31
0.0
  0
LINE
  5
B0
100
AcDbEntity
100
AcDbLine
  8
0
 62
7
420
0
370
-1
 48
1.0
  6
BYLAYER
 10
1.3961214999999996
 20
2.1124999999999936
 30
0.0
 11
1.3250000000000028
 21
2.1124999999999936
 31
0.0
  0
LINE
  5
B1
100
AcDbEntity
100
AcDbLine
  8
0
 62
7
420
0
370
-1
 48
1.0
  6
BYLAYER
 10
-1.9461214915924567
 20
-2.0605720780209396
 30
0.0
 11
-1.87499999159246
 21
-2.0605720780209396
 31
0.0
  0
LINE
  5
B2
100
AcDbEntity
100
AcDbLine
  8
0
 62
7
420
0
370
-1
 48
1.0
  6
BYLAYER
 10
1.5038785000000061
 20
2.1124999999999936
 30
0.0
 11
1.5750000000000028
 21
2.1124999999999936
 31
0.0
  0
LINE
  5
B3
100
AcDbEntity
100
AcDbLine
  8
0
 62
7
420
0
370
-1
 48
1.0
  6
BYLAYER
 10
-1.9461214915924496
 20
-2.0605720780209396
 30
0.0
 11
-1.9461214915924496
 21
-2.1485610647745785
 31
0.0
  0
LINE
  5
B4
100
AcDbEntity
100
AcDbLine
  8
0
 62
7
420
0
370
-1
 48
1.0
  6
BYLAYER
 10
1.5038785000000132
 20
2.1124999999999936
 30
0.0
 11
1.5038785000000132
 21
2.0245110132463546
 31
0.0
  0
LINE
  5
B5
100
AcDbEntity
100
AcDbLine
  8
0
 62
7
420
0
370
-1
 48
1.0
  6
BYLAYER
 10
-2.0538784915924633
 20
-2.0605720780209396
 30
0.0
 11
-2.0538784915924633
 21
-2.1485610647745768
 31
0.0
  0
LINE
  5
B6
100
AcDbEntity
100
AcDbLine
  8
0
 62
7
420
0
370
-1
 48
1.0
  6
BYLAYER
 10
1.3961214999999996
 20
2.1124999999999936
 30
0.0
 11
1.3961214999999996
 21
2.0245110132463564
 31
0.0
  0
LINE
  5
B7
100
AcDbEntity
100
AcDbLine
  8
0
 62
7
420
0
370
-1
 48
1.0
  6
BYLAYER
 10
-1.9461214915924567
 20
-1.9105720780209408
 30
0.0
 11
-1.9461214915924567
 21
-1.855634325604371
 31
0.0
  0
LINE
  5
B8
100
AcDbEntity
100
AcDbLine
  8
0
 62
7
420
0
370
-1
 48
1.0
  6
BYLAYER
 10
1.5038785000000061
 20
2.2624999999999922
 30
0.0
 11
1.5038785000000061
 21
2.4124999999999908
 31
0.0
  0
LINE
  5
B9
100
AcDbEntity
100
AcDbLine
  8
0
 62
7
420
0
370
-1
 48
1.0
  6
BYLAYER
 10
-2.0538784915924633
 20
-1.9105720780209408
 30
0.0
 11
-2.0538784915924633
 21
-1.855634325604371
 31
0.0
  0
LINE
  5
BA
100
AcDbEntity
100
AcDbLine
  8
0
 62
7
420
0
370
-1
 48
1.0
  6
BYLAYER
 10
1.3961214999999996
 20
2.2624999999999922
 30
0.0
 11
1.3961214999999996
 21
2.4124999999999908
 31
0.0
  0
LINE
  5
BB
100
AcDbEntity
100
AcDbLine
  8
0
 62
7
420
0
370
-1
 48
1.0
  6
BYLAYER
 10
1.5038785000000061
 20
2.4124999999999908
 30
0.0
 11
1.6499999999999986
 21
2.4124999999999908
 31
0.0
  0
LINE
  5
BC
100
AcDbEntity
100
AcDbLine
  8
0
 62
7
420
0
370
-1
 48
1.0
  6
BYLAYER
 10
-1.9461214915924567
 20
-1.855634325604371
 30
0.0
 11
-1.7999999915924643
 21
-1.855634325604371
 31
0.0
  0
LINE
  5
BD
100
AcDbEntity
100
AcDbLine
  8
0
 62
7
420
0
370
-1
 48
1.0
  6
BYLAYER
 10
1.6499999999999986
 20
2.4124999999999908
 30
0.0
 11
1.6499999999999986
 21
2.5124999999999922
 31
0.0
  0
LINE
  5
BE
100
AcDbEntity
100
AcDbLine
  8
0
 62
7
420
0
370
-1
 48
1.0
  6
BYLAYER
 10
4.6499999999999915
 20
2.5874999999999915
 30
0.0
 11
4.6499999999999915
 21
2.6874999999999929
 31
0.0
  0
LINE
  5
BF
100
AcDbEntity
100
AcDbLine
  8
0
 62
7
420
0
370
-1
 48
1.0
  6
BYLAYER
 10
-1.7999999915924643
 20
-1.855634325604371
 30
0.0
 11
-1.7999999915924643
 21
-1.7556343256043696
 31
0.0
  0
LINE
  5
C0
100
AcDbEntity
100
AcDbLine
  8
0
 62
7
420
0
370
-1
 48
1.0
  6
BYLAYER
 10
1.25
 20
2.5124999999999922
 30
0.0
 11
1.25
 21
2.4124999999999908
 31
0.0
  0
LINE
  5
C1
100
AcDbEntity
100
AcDbLine
  8
0
 62
7
420
0
370
-1
 48
1.0
  6
BYLAYER
 10
4.2499999999999929
 20
2.6874999999999929
 30
0.0
 11
4.2499999999999929
 21
2.5874999999999915
 31
0.0
  0
LINE
  5
C2
100
AcDbEntity
100
AcDbLine
  8
0
 62
7
420
0
370
-1
 48
1.0
  6
BYLAYER
 10
-2.1999999915924628
 20
-1.7556343256043696
 30
0.0
 11
-2.1999999915924628
 21
-1.855634325604371
 31
0.0
  0
LINE
  5
C3
100
AcDbEntity
100
AcDbLine
  8
0
 62
7
420
0
370
-1
 48
1.0
  6
BYLAYER
 10
1.25
 20
2.4124999999999908
 30
0.0
 11
1.3961214999999996
 21
2.4124999999999908
 31
0.0
  0
LINE
  5
C4
100
AcDbEntity
100
AcDbLine
  8
0
 62
7
420
0
370
-1
 48
1.0
  6
BYLAYER
 10
-2.1999999915924628
 20
-1.855634325604371
 30
0.0
 11
-2.0538784915924633
 21
-1.855634325604371
 31
0.0
  0
LINE
  5
C5
100
AcDbEntity
100
AcDbLine
  8
0
 62
7
420
0
370
-1
 48
1.0
  6
BYLAYER
 10
0.8500000000000014
 20
2.5124999999999922
 30
0.0
 11
1.25
 21
2.5124999999999922
 31
0.0
  0
LINE
  5
C6
100
AcDbEntity
100
AcDbLine
  8
0
 62
7
420
0
370
-1
 48
1.0
  6
BYLAYER
 10
2.0499999999999972
 20
2.5124999999999922
 30
0.0
 11
1.6499999999999986
 21
2.5124999999999922
 31
0.0
  0
LINE
  5
C7
100
AcDbEntity
100
AcDbLine
  8
0
 62
7
420
0
370
-1
 48
1.0
  6
BYLAYER
 10
3.8499999999999943
 20
2.6874999999999929
 30
0.0
 11
4.2499999999999929
 21
2.6874999999999929
 31
0.0
  0
LINE
  5
C8
100
AcDbEntity
100
AcDbLine
  8
0
 62
7
420
0
370
-1
 48
1.0
  6
BYLAYER
 10
5.0499999999999901
 20
2.6874999999999929
 30
0.0
 11
4.6499999999999915
 21
2.6874999999999929
 31
0.0
  0
LINE
  5
C9
100
AcDbEntity
100
AcDbLine
  8
0
 62
7
420
0
370
-1
 48
1.0
  6
BYLAYER
 10
1.6499999999999986
 20
2.5124999999999922
 30
0.0
 11
1.6499999999999915
 21
2.5124999999999922
 31
0.0
  0
LINE
  5
CA
100
AcDbEntity
100
AcDbLine
  8
0
 62
256
370
-1
 48
1.0
  6
BYLAYER
 10
4.6499999999999915
 20
2.6874999999999929
 30
0.0
 11
4.6499999999999844
 21
2.6874999999999929
 31
0.0
  0
LINE
  5
CB
100
AcDbEntity
100
AcDbLine
  8
0
 62
7
420
0
370
-1
 48
1.0
  6
BYLAYER
 10
3.1490704550672177
 20
-2.6874999999999929
 30
0.0
 11
3.5499999999999829
 21
-2.2865704550672277
 31
0.0
  0
LINE
  5
CC
100
AcDbEntity
100
AcDbLine
  8
0
 62
7
420
0
370
-1
 48
1.0
  6
BYLAYER
 10
-0.2490704550672405
 20
-2.6874999999999929
 30
0.0
 11
-0.6500000000000057
 21
-2.2865704550672277
 31
0.0
  0
LINE
  5
CD
100
AcDbEntity
100
AcDbLine
  8
0
 62
7
420
0
370
-1
 48
1.0
  6
BYLAYER
 10
3.5500000000000611
 20
-2.2865704550670358
 30
0.0
 11
3.5499999999999829
 21
-1.587499999999995
 31
0.0
  0
LINE
  5
CE
100
AcDbEntity
100
AcDbLine
  8
0
 62
7
420
0
370
-1
 48
1.0
  6
BYLAYER
 10
-0.6500000000000838
 20
-2.2865704550670358
 30
0.0
 11
-0.6500000000000057
 21
-1.587499999999995
 31
0.0
  0
LINE
  5
CF
100
AcDbEntity
100
AcDbLine
  8
0
 62
7
420
0
370
-1
 48
1.0
  6
BYLAYER
 10
3.5499999999999829
 20
-1.587499999999995
 30
0.0
 11
2.391421356237295
 21
-0.4289213562373071
 31
0.0
  0
LINE
  5
D0
100
AcDbEntity
100
AcDbLine
  8
0
 62
7
420
0
370
-1
 48
1.0
  6
BYLAYER
 10
-0.6500000000000057
 20
-1.587499999999995
 30
0.0
 11
0.5085786437626822
 21
-0.4289213562373035
 31
0.0
  0
LINE
  5
D1
100
AcDbEntity
100
AcDbLine
  8
0
 62
7
420
0
370
-1
 48
1.0
  6
BYLAYER
 10
6.5872103157492283
 20
-2.2290180181435395
 30
0.0
 11
6.3707103157492249
 21
-2.3207680181435406
 31
0.0
  0
LINE
  5
D2
100
AcDbEntity
100
AcDbLine
  8
0
 62
7
420
0
370
-1
 48
1.0
  6
BYLAYER
 10
5.3872103157492326
 20
-2.2290180181435395
 30
0.0
 11
5.1707103157492291
 21
-2.3207680181435406
 31
0.0
  0
LINE
  5
D3
100
AcDbEntity
100
AcDbLine
  8
0
 62
7
420
0
370
-1
 48
1.0
  6
BYLAYER
 10
4.1872103157492297
 20
-2.2290180181435395
 30
0.0
 11
3.9707103157492263
 21
-2.3207680181435406
 31
0.0
  0
LINE
  5
D4
100
AcDbEntity
100
AcDbLine
  8
0
 62
7
420
0
370
-1
 48
1.0
  6
BYLAYER
 10
6.3707103157492249
 20
-2.3207680181435406
 30
0.0
 11
6.3707103157492249
 21
-2.4207680181435385
 31
0.0
  0
LINE
  5
D5
100
AcDbEntity
100
AcDbLine
  8
0
 62
7
420
0
370
-1
 48
1.0
  6
BYLAYER
 10
5.1707103157492291
 20
-2.3207680181435406
 30
0.0
 11
5.1707103157492291
 21
-2.4207680181435385
 31
0.0
  0
LINE
  5
D6
100
AcDbEntity
100
AcDbLine
  8
0
 62
7
420
0
370
-1
 48
1.0
  6
BYLAYER
 10
3.9707103157492263
 20
-2.3207680181435406
 30
0.0
 11
3.9707103157492263
 21
-2.4207680181435385
 31
0.0
  0
LINE
  5
D7
100
AcDbEntity
100
AcDbLine
  8
0
 62
7
420
0
370
-1
 48
1.0
  6
BYLAYER
 10
6.3707103157492249
 20
-2.4207680181435385
 30
0.0
 11
7.3707103157492249
 21
-2.4207680181435385
 31
0.0
  0
LINE
  5
D8
100
AcDbEntity
100
AcDbLine
  8
0
 62
7
420
0
370
-1
 48
1.0
  6
BYLAYER
 10
5.1707103157492291
 20
-2.4207680181435385
 30
0.0
 11
6.1707103157492291
 21
-2.4207680181435385
 31
0.0
  0
LINE
  5
D9
100
AcDbEntity
100
AcDbLine
  8
0
 62
7
420
0
370
-1
 48
1.0
  6
BYLAYER
 10
3.9707103157492263
 20
-2.4207680181435385
 30
0.0
 11
4.9707103157492263
 21
-2.4207680181435385
 31
0.0
  0
LINE
  5
DA
100
AcDbEntity
100
AcDbLine
  8
0
 62
7
420
0
370
-1
 48
1.0
  6
BYLAYER
 10
7.3707103157492249
 20
-2.4207680181435385
 30
0.0
 11
7.3707103157492249
 21
-2.3207680181435406
 31
0.0
  0
LINE
  5
DB
100
AcDbEntity
100
AcDbLine
  8
0
 62
7
420
0
370
-1
 48
1.0
  6
BYLAYER
 10
6.1707103157492291
 20
-2.4207680181435385
 30
0.0
 11
6.1707103157492291
 21
-2.3207680181435406
 31
0.0
  0
LINE
  5
DC
100
AcDbEntity
100
AcDbLine
  8
0
 62
7
420
0
370
-1
 48
1.0
  6
BYLAYER
 10
4.9707103157492263
 20
-2.4207680181435385
 30
0.0
 11
4.9707103157492263
 21
-2.3207680181435406
 31
0.0
  0
LINE
  5
DD
100
AcDbEntity
100
AcDbLine
  8
0
 62
7
420
0
370
-1
 48
1.0
  6
BYLAYER
 10
7.3707103157492249
 20
-2.3207680181435406
 30
0.0
 11
7.1542103157492214
 21
-2.2290180181435395
 31
0.0
  0
LINE
  5
DE
100
AcDbEntity
100
AcDbLine
  8
0
 62
7
420
0
370
-1
 48
1.0
  6
BYLAYER
 10
6.1707103157492291
 20
-2.3207680181435406
 30
0.0
 11
5.9542103157492257
 21
-2.2290180181435395
 31
0.0
  0
LINE
  5
DF
100
AcDbEntity
100
AcDbLine
  8
0
 62
7
420
0
370
-1
 48
1.0
  6
BYLAYER
 10
4.9707103157492263
 20
-2.3207680181435406
 30
0.0
 11
4.7542103157492228
 21
-2.2290180181435395
 31
0.0
  0
LINE
  5
E0
100
AcDbEntity
100
AcDbLine
  8
0
 62
7
420
0
370
-1
 48
1.0
  6
BYLAYER
 10
0.6499999999999915
 20
-0.0874999999999932
 30
0.0
 11
0.6499999999999986
 21
2.3124999999999929
 31
0.0
  0
LINE
  5
E1
100
AcDbEntity
100
AcDbLine
  8
0
 62
7
420
0
370
-1
 48
1.0
  6
BYLAYER
 10
2.2499999999999858
 20
-0.0874999999999986
 30
0.0
 11
2.2499999999999929
 21
2.3124999999999929
 31
0.0
  0
LINE
  5
E2
100
AcDbEntity
100
AcDbLine
  8
0
 62
3
420
65280
370
-1
 48
1.0
  6
BYLAYER
 10
-2.172500000000003
 20
1.3056343256043554
 30
0.0
 11
-2.1724999999999888
 21
2.1656716280218173
 31
0.0
  0
LINE
  5
E3
100
AcDbEntity
100
AcDbLine
  8
0
 62
3
420
65280
370
-1
 48
1.0
  6
BYLAYER
 10
1.2774999915924639
 20
-2.3375000000000075
 30
0.0
 11
1.2774999915924781
 21
-1.4774626975825456
 31
0.0
  0
LINE
  5
E4
100
AcDbEntity
100
AcDbLine
  8
0
 62
3
420
65280
370
-1
 48
1.0
  6
BYLAYER
 10
-2.172500000000003
 20
-3.8943656743956443
 30
0.0
 11
-2.1724999999999888
 21
-3.0343283719781824
 31
0.0
  0
LINE
  5
E5
100
AcDbEntity
100
AcDbLine
  8
0
 62
7
420
0
370
-1
 48
1.0
  6
BYLAYER
 10
3.8499999999999943
 20
2.6874999999999929
 30
0.0
 11
3.6499999999999915
 21
2.4874999999999936
 31
0.0
  0
LINE
  5
E6
100
AcDbEntity
100
AcDbLine
  8
0
 62
7
420
0
370
-1
 48
1.0
  6
BYLAYER
 10
0.8500000000000014
 20
2.5124999999999922
 30
0.0
 11
0.6499999999999986
 21
2.3124999999999929
 31
0.0
  0
LINE
  5
E7
100
AcDbEntity
100
AcDbLine
  8
0
 62
7
420
0
370
-1
 48
1.0
  6
BYLAYER
 10
5.0499999999999901
 20
2.6874999999999929
 30
0.0
 11
5.2499999999999858
 21
2.4874999999999936
 31
0.0
  0
LINE
  5
E8
100
AcDbEntity
100
AcDbLine
  8
0
 62
7
420
0
370
-1
 48
1.0
  6
BYLAYER
 10
2.0499999999999972
 20
2.5124999999999922
 30
0.0
 11
2.2499999999999929
 21
2.3124999999999929
 31
0.0
  0
LINE
  5
E9
100
AcDbEntity
100
AcDbLine
  8
0
 62
7
420
0
370
-1
 48
1.0
  6
BYLAYER
 10
2.391421356237295
 20
-0.4289213562373071
 30
0.0
 11
2.2499999999999858
 21
-0.0874999999999986
 31
0.0
  0
LINE
  5
EA
100
AcDbEntity
100
AcDbLine
  8
0
 62
7
420
0
370
-1
 48
1.0
  6
BYLAYER
 10
0.5085786437626822
 20
-0.4289213562373035
 30
0.0
 11
0.6499999999999915
 21
-0.0874999999999932
 31
0.0
  0
LINE
  5
EB
100
AcDbEntity
100
AcDbLine
  8
0
 62
7
420
0
370
-1
 48
1.0
  6
BYLAYER
 10
5.2499999999999929
 20
1.0374999999999943
 30
0.0
 11
5.0499999999999901
 21
0.8374999999999932
 31
0.0
  0
LINE
  5
EC
100
AcDbEntity
100
AcDbLine
  8
0
 62
7
420
0
370
-1
 48
1.0
  6
BYLAYER
 10
5.0499999999999901
 20
0.8374999999999932
 30
0.0
 11
3.8499999999999943
 21
0.8374999999999932
 31
0.0
  0
LINE
  5
ED
100
AcDbEntity
100
AcDbLine
  8
0
 62
7
420
0
370
-1
 48
1.0
  6
BYLAYER
 10
3.8499999999999943
 20
0.8374999999999932
 30
0.0
 11
3.6499999999999915
 21
1.0374999999999943
 31
0.0
  0
LINE
  5
EE
100
AcDbEntity
100
AcDbLine
  8
0
 62
7
420
0
370
-1
 48
1.0
  6
BYLAYER
 10
3.6499999999999915
 20
1.0374999999999943
 30
0.0
 11
3.6499999999999915
 21
2.4874999999999936
 31
0.0
  0
LINE
  5
EF
100
AcDbEntity
100
AcDbLine
  8
0
 62
7
420
0
370
-1
 48
1.0
  6
BYLAYER
 10
5.2499999999999929
 20
1.0374999999999943
 30
0.0
 11
5.2499999999999858
 21
2.4874999999999936
 31
0.0
  0
LINE
  5
F0
100
AcDbEntity
100
AcDbLine
  8
0
 62
7
420
0
370
-1
 48
1.0
  6
BYLAYER
 10
4.2499999999999929
 20
2.5874999999999915
 30
0.0
 11
4.6499999999999915
 21
2.5874999999999915
 31
0.0
  0
LINE
  5
F1
100
AcDbEntity
100
AcDbLine
  8
0
 62
3
420
65280
370
-1
 48
1.0
  6
BYLAYER
 10
4.3249999999999957
 20
2.4374999999999929
 30
0.0
 11
4.5749999999999957
 21
2.4374999999999929
 31
0.0
  0
LINE
  5
F2
100
AcDbEntity
100
AcDbLine
  8
0
 62
3
420
65280
370
-1
 48
1.0
  6
BYLAYER
 10
4.3249999999999957
 20
2.2874999999999943
 30
0.0
 11
4.5749999999999957
 21
2.2874999999999943
 31
0.0
  0
ARC
  5
F3
100
AcDbEntity
  8
0
 62
3
420
65280
370
-1
 48
1.0
  6
BYLAYER
100
AcDbCircle
 10
4.4499999999999957
 20
1.3774999987262893
 30
0.0
 40
0.21875
100
AcDbArc
 50
180.0
 51
0.0
  0
ARC
  5
F4
100
AcDbEntity
  8
0
 62
256
370
-1
 48
1.0
  6
BYLAYER
100
AcDbCircle
 10
1.4500000000000028
 20
1.2024999999999935
 30
0.0
 40
0.21875
100
AcDbArc
 50
180.0
 51
0.0
  0
ARC
  5
F5
100
AcDbEntity
  8
0
 62
256
370
-1
 48
1.0
  6
BYLAYER
100
AcDbCircle
 10
1.4500000000000028
 20
1.8124999999999929
 30
0.0
 40
0.21875
100
AcDbArc
 50
104.2587740464295933
 51
180.0
  0
ARC
  5
F6
100
AcDbEntity
  8
0
 62
3
420
65280
370
-1
 48
1.0
  6
BYLAYER
100
AcDbCircle
 10
4.4499999999999957
 20
1.9874999987262889
 30
0.0
 40
0.21875
100
AcDbArc
 50
0.0
 51
180.0
  0
ARC
  5
F7
100
AcDbEntity
  8
0
 62
256
370
-1
 48
1.0
  6
BYLAYER
100
AcDbCircle
 10
1.4500000000000028
 20
1.8124999999999929
 30
0.0
 40
0.21875
100
AcDbArc
 50
0.0
 51
75.741225953568474
  0
LINE
  5
F8
100
AcDbEntity
100
AcDbLine
  8
0
 62
3
420
65280
370
-1
 48
1.0
  6
BYLAYER
 10
4.6687499999999957
 20
1.3774999987262893
 30
0.0
 11
4.6687499999999957
 21
1.9874999987262889
 31
0.0
  0
LINE
  5
F9
100
AcDbEntity
100
AcDbLine
  8
0
 62
256
370
-1
 48
1.0
  6
BYLAYER
 10
1.6687500000000028
 20
1.2024999999999935
 30
0.0
 11
1.6687500000000028
 21
1.8124999999999929
 31
0.0
  0
LINE
  5
FA
100
AcDbEntity
100
AcDbLine
  8
0
 62
3
420
65280
370
-1
 48
1.0
  6
BYLAYER
 10
4.2312499999999957
 20
1.3774999987262893
 30
0.0
 11
4.2312499999999957
 21
1.9874999987262889
 31
0.0
  0
LINE
  5
FB
100
AcDbEntity
100
AcDbLine
  8
0
 62
256
370
-1
 48
1.0
  6
BYLAYER
 10
1.2312500000000028
 20
1.2024999999999935
 30
0.0
 11
1.2312500000000028
 21
1.8124999999999929
 31
0.0
  0
LINE
  5
FC
100
AcDbEntity
100
AcDbLine
  8
0
 62
256
370
-1
 48
1.0
  6
BYLAYER
 10
-6.7549999999999937
 20
-3.5600373024174621
 30
0.0
 11
-6.7549999999999937
 21
-3.9100373024174475
 31
0.0
  0
LINE
  5
FD
100
AcDbEntity
100
AcDbLine
  8
0
 62
256
370
-1
 48
1.0
  6
BYLAYER
 10
-6.7549999999999937
 20
-3.9100373024174475
 30
0.0
 11
-5.1999999999999851
 21
-3.9100373024174475
 31
0.0
  0
LINE
  5
FE
100
AcDbEntity
100
AcDbLine
  8
0
 62
256
370
-1
 48
1.0
  6
BYLAYER
 10
-5.1999999999999851
 20
-3.9100373024174475
 30
0.0
 11
-4.9999999999999991
 21
-3.7100373024174473
 31
0.0
  0
LINE
  5
FF
100
AcDbEntity
100
AcDbLine
  8
0
 62
256
370
-1
 48
1.0
  6
BYLAYER
 10
-4.9999999999999991
 20
-3.7100373024174473
 30
0.0
 11
-4.9999999999999991
 21
-3.4100373024174475
 31
0.0
  0
LINE
  5
100
100
AcDbEntity
100
AcDbLine
  8
0
 62
256
370
-1
 48
1.0
  6
BYLAYER
 10
-4.9999999999999991
 20
-3.4100373024174475
 30
0.0
 11
-5.9999999999999654
 21
-2.6999999999999997
 31
0.0
  0
LINE
  5
101
100
AcDbEntity
100
AcDbLine
  8
0
 62
3
420
65280
370
-1
 48
1.0
  6
BYLAYER
 10
-7.0999999999999925
 20
-3.3800186512087311
 30
0.0
 11
-7.0999999999999925
 21
-2.8800186512087311
 31
0.0
  0
LINE
  5
102
100
AcDbEntity
100
AcDbLine
  8
0
 62
3
420
65280
370
-1
 48
1.0
  6
BYLAYER
 10
-6.6250000000000124
 20
-3.3800186512087311
 30
0.0
 11
-6.6250000000000124
 21
-2.8800186512087311
 31
0.0
  0
LINE
  5
103
100
AcDbEntity
100
AcDbLine
  8
0
 62
3
420
65280
370
-1
 48
1.0
  6
BYLAYER
 10
-7.2299999999999738
 20
-2.8800186512087311
 30
0.0
 11
-7.2299999999999738
 21
-3.3800186512087311
 31
0.0
  0
LINE
  5
104
100
AcDbEntity
100
AcDbLine
  8
0
 62
3
420
65280
370
-1
 48
1.0
  6
BYLAYER
 10
-6.7549999999999937
 20
-2.8800186512087311
 30
0.0
 11
-6.7549999999999937
 21
-3.3800186512087311
 31
0.0
  0
LINE
  5
105
100
AcDbEntity
100
AcDbLine
  8
0
 62
256
370
-1
 48
1.0
  6
BYLAYER
 10
-7.3999999999999995
 20
-3.5600373024174621
 30
0.0
 11
-7.3999999999999995
 21
-2.6999999999999997
 31
0.0
  0
LINE
  5
106
100
AcDbEntity
100
AcDbLine
  8
0
 62
256
370
-1
 48
1.0
  6
BYLAYER
 10
-3.6275000084075302
 20
-1.3387313319761904
 30
0.0
 11
-2.9500000000000002
 21
-0.061268651208727
 31
0.0
  0
LINE
  5
107
100
AcDbEntity
100
AcDbLine
  8
0
 62
256
370
-1
 48
1.0
  6
BYLAYER
 10
-1.8275000084075304
 20
-0.6387313319761905
 30
0.0
 11
-1.1499999999999999
 21
0.6387313487912729
 31
0.0
  0
LINE
  5
108
100
AcDbEntity
100
AcDbLine
  8
0
 62
256
370
-1
 48
1.0
  6
BYLAYER
 10
-1.1499999915924637
 20
3.4443656743956304
 30
0.0
 11
-2.8499999915924636
 21
3.4443656743956304
 31
0.0
  0
LINE
  5
109
100
AcDbEntity
100
AcDbLine
  8
0
 62
256
370
-1
 48
1.0
  6
BYLAYER
 10
-2.9500000000000002
 20
-0.061268651208727
 30
0.0
 11
-4.6499999999999995
 21
-0.061268651208727
 31
0.0
  0
LINE
  5
10A
100
AcDbEntity
100
AcDbLine
  8
0
 62
256
370
-1
 48
1.0
  6
BYLAYER
 10
-1.1499999999999999
 20
0.6387313487912729
 30
0.0
 11
-2.8499999999999996
 21
0.6387313487912729
 31
0.0
  0
LINE
  5
10B
100
AcDbEntity
100
AcDbLine
  8
0
 62
256
370
-1
 48
1.0
  6
BYLAYER
 10
-4.6499999999999995
 20
-0.061268651208727
 30
0.0
 11
-3.9725000084075219
 21
-1.3387313487912729
 31
0.0
  0
LINE
  5
10C
100
AcDbEntity
100
AcDbLine
  8
0
 62
256
370
-1
 48
1.0
  6
BYLAYER
 10
-2.8499999999999996
 20
0.6387313487912729
 30
0.0
 11
-2.1725000084075217
 21
-0.6387313487912729
 31
0.0
  0
LINE
  5
10D
100
AcDbEntity
100
AcDbLine
  8
0
 62
3
420
65280
370
-1
 48
1.0
  6
BYLAYER
 10
-2.1724999999999879
 20
2.1656716280218173
 30
0.0
 11
-1.8274999999999966
 21
2.1656716448368996
 31
0.0
  0
LINE
  5
10E
100
AcDbEntity
100
AcDbLine
  8
0
 62
3
420
65280
370
-1
 48
1.0
  6
BYLAYER
 10
-2.1724999999999852
 20
2.1669029768130841
 30
0.0
 11
-1.8274999999999941
 21
2.1669029936281667
 31
0.0
  0
LINE
  5
10F
100
AcDbEntity
100
AcDbLine
  8
0
 62
3
420
65280
370
-1
 48
1.0
  6
BYLAYER
 10
1.2774999915924812
 20
-1.4762313487912786
 30
0.0
 11
1.6224999915924725
 21
-1.4762313319761962
 31
0.0
  0
LINE
  5
110
100
AcDbEntity
100
AcDbLine
  8
0
 62
256
370
-1
 48
1.0
  6
BYLAYER
 10
-3.9725000084075219
 20
-1.3387313487912729
 30
0.0
 11
-3.6275000084075302
 21
-1.3387313319761904
 31
0.0
  0
LINE
  5
111
100
AcDbEntity
100
AcDbLine
  8
0
 62
256
370
-1
 48
1.0
  6
BYLAYER
 10
-2.1725000084075217
 20
-0.6387313487912729
 30
0.0
 11
-1.8275000084075304
 21
-0.6387313319761905
 31
0.0
  0
LINE
  5
112
100
AcDbEntity
100
AcDbLine
  8
0
 62
3
420
65280
370
-1
 48
1.0
  6
BYLAYER
 10
-2.1724999999999857
 20
-3.0330970231869152
 30
0.0
 11
-1.8274999999999944
 21
-3.033097006371833
 31
0.0
  0
LINE
  5
113
100
AcDbEntity
100
AcDbLine
  8
0
 62
7
420
0
370
-1
 48
1.0
  6
BYLAYER
 10
-6.2759658653723269
 20
-1.0876388165469253
 30
0.0
 11
-6.2759658653723269
 21
-1.5876387997318429
 31
0.0
  0
LINE
  5
114
100
AcDbEntity
100
AcDbLine
  8
0
 62
256
370
-1
 48
1.0
  6
BYLAYER
 10
-7.3999999999999995
 20
-3.5600373024174621
 30
0.0
 11
-6.7549999999999937
 21
-3.5600373024174621
 31
0.0
  0
LINE
  5
115
100
AcDbEntity
100
AcDbLine
  8
0
 62
256
370
-1
 48
1.0
  6
BYLAYER
 10
-5.1000000000000068
 20
-0.9076201653381943
 30
0.0
 11
-5.1000000000000068
 21
-1.0876388165469253
 31
0.0
  0
LINE
  5
116
100
AcDbEntity
100
AcDbLine
  8
0
 62
256
370
-1
 48
1.0
  6
BYLAYER
 10
-5.1000000000000068
 20
-1.7676574509405738
 30
0.0
 11
-5.1000000000000068
 21
-1.5876387997318429
 31
0.0
  0
LINE
  5
117
100
AcDbEntity
100
AcDbLine
  8
0
 62
256
370
-1
 48
1.0
  6
BYLAYER
 10
-7.3999999999999995
 20
-2.6999999999999997
 30
0.0
 11
-5.9999999999999654
 21
-2.6999999999999997
 31
0.0
  0
LINE
  5
118
100
AcDbEntity
100
AcDbLine
  8
0
 62
256
370
-1
 48
1.0
  6
BYLAYER
 10
-6.275965865372326
 20
-0.9076201653381943
 30
0.0
 11
-6.275965865372326
 21
-0.5576201653382094
 31
0.0
  0
LINE
  5
119
100
AcDbEntity
100
AcDbLine
  8
0
 62
256
370
-1
 48
1.0
  6
BYLAYER
 10
-6.275965865372326
 20
-1.7676574509405738
 30
0.0
 11
-6.275965865372326
 21
-2.117657450940559
 31
0.0
  0
LINE
  5
11A
100
AcDbEntity
100
AcDbLine
  8
0
 62
256
370
-1
 48
1.0
  6
BYLAYER
 10
-4.7999999999999998
 20
-2.117657450940559
 30
0.0
 11
-4.7999999999999998
 21
-0.5576201653382087
 31
0.0
  0
LINE
  5
11B
100
AcDbEntity
100
AcDbLine
  8
0
 62
256
370
-1
 48
1.0
  6
BYLAYER
 10
-6.2759658653723269
 20
-1.0876388165469253
 30
0.0
 11
-5.1000000000000068
 21
-1.0876388165469253
 31
0.0
  0
LINE
  5
11C
100
AcDbEntity
100
AcDbLine
  8
0
 62
256
370
-1
 48
1.0
  6
BYLAYER
 10
-6.2759658653723269
 20
-1.5876387997318429
 30
0.0
 11
-5.1000000000000068
 21
-1.5876387997318429
 31
0.0
  0
LINE
  5
11D
100
AcDbEntity
100
AcDbLine
  8
0
 62
256
370
-1
 48
1.0
  6
BYLAYER
 10
-4.7999999999999998
 20
-0.5576201653382087
 30
0.0
 11
-6.275965865372326
 21
-0.5576201653382094
 31
0.0
  0
LINE
  5
11E
100
AcDbEntity
100
AcDbLine
  8
0
 62
256
370
-1
 48
1.0
  6
BYLAYER
 10
-5.1000000000000068
 20
-0.9076201653381943
 30
0.0
 11
-6.275965865372326
 21
-0.9076201653381943
 31
0.0
  0
LINE
  5
11F
100
AcDbEntity
100
AcDbLine
  8
0
 62
256
370
-1
 48
1.0
  6
BYLAYER
 10
-4.7999999999999998
 20
-2.117657450940559
 30
0.0
 11
-6.275965865372326
 21
-2.117657450940559
 31
0.0
  0
LINE
  5
120
100
AcDbEntity
100
AcDbLine
  8
0
 62
256
370
-1
 48
1.0
  6
BYLAYER
 10
-5.1000000000000068
 20
-1.7676574509405738
 30
0.0
 11
-6.275965865372326
 21
-1.7676574509405738
 31
0.0
  0
LINE
  5
121
100
AcDbEntity
100
AcDbLine
  8
0
 62
256
370
-1
 48
1.0
  6
BYLAYER
 10
-2.4499999915924668
 20
0.95563432560437
 30
0.0
 11
-2.4499999915924668
 21
0.9556343256043704
 31
0.0
  0
LINE
  5
122
100
AcDbEntity
100
AcDbLine
  8
0
 62
256
370
-1
 48
1.0
  6
BYLAYER
 10
1.0
 20
-2.6874999999999929
 30
0.0
 11
1.0
 21
-2.6874999999999925
 31
0.0
  0
LINE
  5
123
100
AcDbEntity
100
AcDbLine
  8
0
 62
256
370
-1
 48
1.0
  6
BYLAYER
 10
-2.4499999915924668
 20
-4.2443656743956293
 30
0.0
 11
-2.4499999915924668
 21
-4.2443656743956293
 31
0.0
  0
LINE
  5
124
100
AcDbEntity
100
AcDbLine
  8
0
 62
256
370
-1
 48
1.0
  6
BYLAYER
 10
-2.4499999915924668
 20
0.9556343256043704
 30
0.0
 11
-2.2249999957962334
 21
1.1306343256043632
 31
0.0
  0
LINE
  5
125
100
AcDbEntity
100
AcDbLine
  8
0
 62
256
370
-1
 48
1.0
  6
BYLAYER
 10
-1.5500000084075329
 20
0.9556343256043704
 30
0.0
 11
-1.7750000042037664
 21
1.1306343256043632
 31
0.0
  0
LINE
  5
126
100
AcDbEntity
100
AcDbLine
  8
0
 62
256
370
-1
 48
1.0
  6
BYLAYER
 10
1.0
 20
-2.6874999999999925
 30
0.0
 11
1.2249999957962332
 21
-2.5124999999999997
 31
0.0
  0
LINE
  5
127
100
AcDbEntity
100
AcDbLine
  8
0
 62
256
370
-1
 48
1.0
  6
BYLAYER
 10
1.8999999831849337
 20
-2.6874999999999925
 30
0.0
 11
1.6749999873887003
 21
-2.5124999999999997
 31
0.0
  0
LINE
  5
128
100
AcDbEntity
100
AcDbLine
  8
0
 62
256
370
-1
 48
1.0
  6
BYLAYER
 10
-2.4499999915924668
 20
-4.2443656743956293
 30
0.0
 11
-2.2249999957962334
 21
-4.0693656743956366
 31
0.0
  0
LINE
  5
129
100
AcDbEntity
100
AcDbLine
  8
0
 62
256
370
-1
 48
1.0
  6
BYLAYER
 10
-1.5500000084075332
 20
-4.2443656743956293
 30
0.0
 11
-1.7750000042037666
 21
-4.0693656743956366
 31
0.0
  0
LINE
  5
12A
100
AcDbEntity
100
AcDbLine
  8
0
 62
256
370
-1
 48
1.0
  6
BYLAYER
 10
1.8999999831849339
 20
-2.6874999999999929
 30
0.0
 11
3.1490704550672168
 21
-2.6874999999999929
 31
0.0
  0
LINE
  5
12B
100
AcDbEntity
100
AcDbLine
  8
0
 62
256
370
-1
 48
1.0
  6
BYLAYER
 10
1.0
 20
-2.6874999999999929
 30
0.0
 11
-0.2490704550672402
 21
-2.6874999999999929
 31
0.0
  0
LINE
  5
12C
100
AcDbEntity
100
AcDbLine
  8
0
 62
256
370
-1
 48
1.0
  6
BYLAYER
 10
-1.6501730475248453
 20
2.5012624936578209
 30
0.0
 11
-1.1016111688585857
 21
0.95563432560437
 31
0.0
  0
LINE
  5
12D
100
AcDbEntity
100
AcDbLine
  8
0
 62
256
370
-1
 48
1.0
  6
BYLAYER
 10
-2.3498269524751541
 20
2.5012624936578201
 30
0.0
 11
-2.8983888311414141
 21
0.9556343256043696
 31
0.0
  0
LINE
  5
12E
100
AcDbEntity
100
AcDbLine
  8
0
 62
256
370
-1
 48
1.0
  6
BYLAYER
 10
-1.6501730475248455
 20
-2.6987375063421788
 30
0.0
 11
-1.1016111688585859
 21
-4.2443656743956293
 31
0.0
  0
LINE
  5
12F
100
AcDbEntity
100
AcDbLine
  8
0
 62
256
370
-1
 48
1.0
  6
BYLAYER
 10
-2.3498269524751545
 20
-2.6987375063421792
 30
0.0
 11
-2.8983888311414141
 21
-4.2443656743956302
 31
0.0
  0
LINE
  5
130
100
AcDbEntity
100
AcDbLine
  8
0
 62
256
370
-1
 48
1.0
  6
BYLAYER
 10
-1.1016111688585857
 20
0.95563432560437
 30
0.0
 11
-1.5500000084075329
 21
0.95563432560437
 31
0.0
  0
LINE
  5
131
100
AcDbEntity
100
AcDbLine
  8
0
 62
256
370
-1
 48
1.0
  6
BYLAYER
 10
2.3483888227338809
 20
-2.6874999999999929
 30
0.0
 11
1.8999999831849337
 21
-2.6874999999999929
 31
0.0
  0
LINE
  5
132
100
AcDbEntity
100
AcDbLine
  8
0
 62
256
370
-1
 48
1.0
  6
BYLAYER
 10
-1.1016111688585859
 20
-4.2443656743956293
 30
0.0
 11
-1.5500000084075332
 21
-4.2443656743956293
 31
0.0
  0
LINE
  5
133
100
AcDbEntity
100
AcDbLine
  8
0
 62
3
420
65280
370
-1
 48
1.0
  6
BYLAYER
 10
-1.827499999999997
 20
1.3056343256043554
 30
0.0
 11
-1.8274999999999937
 21
2.1669029936281667
 31
0.0
  0
LINE
  5
134
100
AcDbEntity
100
AcDbLine
  8
0
 62
3
420
65280
370
-1
 48
1.0
  6
BYLAYER
 10
1.6224999915924696
 20
-2.3375000000000075
 30
0.0
 11
1.6224999915924729
 21
-1.4762313319761962
 31
0.0
  0
LINE
  5
135
100
AcDbEntity
100
AcDbLine
  8
0
 62
3
420
65280
370
-1
 48
1.0
  6
BYLAYER
 10
-1.8274999999999972
 20
-3.8943656743956443
 30
0.0
 11
-1.8274999999999939
 21
-3.033097006371833
 31
0.0
  0
LINE
  5
136
100
AcDbEntity
100
AcDbLine
  8
0
 62
256
370
-1
 48
1.0
  6
BYLAYER
 10
-2.2249999957962334
 20
1.1306343256043627
 30
0.0
 11
-1.7750000042037664
 21
1.1306343256043627
 31
0.0
  0
LINE
  5
137
100
AcDbEntity
100
AcDbLine
  8
0
 62
256
370
-1
 48
1.0
  6
BYLAYER
 10
1.2249999957962334
 20
-2.5125000000000002
 30
0.0
 11
1.6749999873887003
 21
-2.5125000000000002
 31
0.0
  0
LINE
  5
138
100
AcDbEntity
100
AcDbLine
  8
0
 62
256
370
-1
 48
1.0
  6
BYLAYER
 10
-2.2249999957962334
 20
-4.0693656743956375
 30
0.0
 11
-1.7750000042037666
 21
-4.0693656743956375
 31
0.0
  0
LINE
  5
139
100
AcDbEntity
100
AcDbLine
  8
0
 62
3
420
65280
370
-1
 48
1.0
  6
BYLAYER
 10
-2.172500000000003
 20
1.3056343256043554
 30
0.0
 11
-1.827499999999997
 21
1.3056343256043554
 31
0.0
  0
LINE
  5
13A
100
AcDbEntity
100
AcDbLine
  8
0
 62
3
420
65280
370
-1
 48
1.0
  6
BYLAYER
 10
1.2774999915924639
 20
-2.3375000000000075
 30
0.0
 11
1.6224999915924696
 21
-2.3375000000000075
 31
0.0
  0
LINE
  5
13B
100
AcDbEntity
100
AcDbLine
  8
0
 62
3
420
65280
370
-1
 48
1.0
  6
BYLAYER
 10
-2.172500000000003
 20
-3.8943656743956443
 30
0.0
 11
-1.8274999999999972
 21
-3.8943656743956443
 31
0.0
  0
LINE
  5
13C
100
AcDbEntity
100
AcDbLine
  8
0
 62
256
370
-1
 48
1.0
  6
BYLAYER
 10
-1.6501730475248453
 20
2.5012624936578205
 30
0.0
 11
-1.1499999915924632
 21
3.4443656743956304
 31
0.0
  0
LINE
  5
13D
100
AcDbEntity
100
AcDbLine
  8
0
 62
256
370
-1
 48
1.0
  6
BYLAYER
 10
-1.6501730475248455
 20
-2.6987375063421792
 30
0.0
 11
-1.1539110071948615
 21
-1.7556343256043696
 31
0.0
  0
LINE
  5
13E
100
AcDbEntity
100
AcDbLine
  8
0
 62
256
370
-1
 48
1.0
  6
BYLAYER
 10
-2.3498269533501741
 20
2.5012624911923638
 30
0.0
 11
-2.8460889759900962
 21
3.4443656743956304
 31
0.0
  0
LINE
  5
13F
100
AcDbEntity
100
AcDbLine
  8
0
 62
256
370
-1
 48
1.0
  6
BYLAYER
 10
-2.3498269533501746
 20
-2.6987375088076364
 30
0.0
 11
-2.8460889759900967
 21
-1.7556343256043696
 31
0.0
  0
LINE
  5
140
100
AcDbEntity
100
AcDbLine
  8
0
 62
256
370
-1
 48
1.0
  6
BYLAYER
 10
-2.4499999915924682
 20
0.95563432560437
 30
0.0
 11
-2.8983888311414137
 21
0.95563432560437
 31
0.0
  0
LINE
  5
141
100
AcDbEntity
100
AcDbLine
  8
0
 62
256
370
-1
 48
1.0
  6
BYLAYER
 10
0.9999999999999986
 20
-2.6874999999999929
 30
0.0
 11
0.5516111604510529
 21
-2.6874999999999929
 31
0.0
  0
LINE
  5
142
100
AcDbEntity
100
AcDbLine
  8
0
 62
256
370
-1
 48
1.0
  6
BYLAYER
 10
-2.4499999915924682
 20
-4.2443656743956293
 30
0.0
 11
-2.8983888311414141
 21
-4.2443656743956293
 31
0.0
  0
LINE
  5
143
100
AcDbEntity
100
AcDbLine
  8
0
 62
256
370
-1
 48
1.0
  6
BYLAYER
 10
-2.1999999915924628
 20
-1.7556343256043696
 30
0.0
 11
-2.8460889759900967
 21
-1.7556343256043698
 31
0.0
  0
LINE
  5
144
100
AcDbEntity
100
AcDbLine
  8
0
 62
256
370
-1
 48
1.0
  6
BYLAYER
 10
-1.7999999915924643
 20
-1.7556343256043696
 30
0.0
 11
-1.1539110071948615
 21
-1.7556343256043696
 31
0.0
  0
CIRCLE
  5
145
100
AcDbEntity
100
AcDbCircle
  8
0
 62
3
420
65280
370
-1
 48
1.0
  6
BYLAYER
 10
-3.5159672298243354
 20
-3.1318835933582494
 30
0.0
 40
0.0482499999999999
  0
CIRCLE
  5
146
100
AcDbEntity
100
AcDbCircle
  8
0
 62
3
420
65280
370
-1
 48
1.0
  6
BYLAYER
 10
-2.5
 20
-3.8999999999999995
 30
0.0
 40
0.0482499999999999
  0
CIRCLE
  5
147
100
AcDbEntity
100
AcDbCircle
  8
0
 62
3
420
65280
370
-1
 48
1.0
  6
BYLAYER
 10
-1.4999999999999998
 20
-3.8999999999999995
 30
0.0
 40
0.0482499999999999
  0
CIRCLE
  5
148
100
AcDbEntity
100
AcDbCircle
  8
0
 62
3
420
65280
370
-1
 48
1.0
  6
BYLAYER
 10
-2.000000001879318
 20
-2.8494498719781824
 30
0.0
 40
0.0482499999999999
  0
CIRCLE
  5
149
100
AcDbEntity
100
AcDbCircle
  8
0
 62
3
420
65280
370
-1
 48
1.0
  6
BYLAYER
 10
-1.5499999915924669
 20
-1.9568656743956367
 30
0.0
 40
0.0482499999999999
  0
CIRCLE
  5
14A
100
AcDbEntity
100
AcDbCircle
  8
0
 62
3
420
65280
370
-1
 48
1.0
  6
BYLAYER
 10
-2.4499999915924668
 20
-1.9568656743956367
 30
0.0
 40
0.0482499999999999
  0
ARC
  5
14B
100
AcDbEntity
  8
0
 62
256
370
-1
 48
1.0
  6
BYLAYER
100
AcDbCircle
 10
-3.5159672195374814
 20
-2.6767993957757077
 30
0.0
 40
0.4297429379809823
100
AcDbArc
 50
36.1115237542991707
 51
217.0535199026921873
  0
LINE
  5
14C
100
AcDbEntity
100
AcDbLine
  8
0
 62
256
370
-1
 48
1.0
  6
BYLAYER
 10
-3.2704477902657323
 20
-2.4976878985573259
 30
0.0
 11
-3.1687902060645787
 21
-2.4235265901676786
 31
0.0
  0
ENDSEC
  0
SECTION
  2
OBJECTS
  0
DICTIONARY
  5
C
100
AcDbDictionary
280
0
281
1
  3
ACAD_GROUP
350
D
  3
ACAD_LAYOUT
350
1A
  3
ACAD_MLINESTYLE
350
17
  3
ACAD_PLOTSETTINGS
350
19
  3
ACAD_PLOTSTYLENAME
350
E
  3
AcDbVariableDictionary
350
14D
  3
QCAD_OBJECTS
350
14E
  0
DICTIONARY
  5
D
100
AcDbDictionary
280
0
281
1
  0
ACDBDICTIONARYWDFLT
  5
E
100
AcDbDictionary
281
1
  3
Normal
350
F
100
AcDbDictionaryWithDefault
340
F
  0
ACDBPLACEHOLDER
  5
F
  0
DICTIONARY
  5
17
100
AcDbDictionary
280
0
281
1
  3
Standard
350
18
  0
MLINESTYLE
  5
18
100
AcDbMlineStyle
  2
STANDARD
 70
0
  3

 62
256
 51
90.0
 52
90.0
 71
2
 49
0.5
 62
256
  6
BYLAYER
 49
-0.5
 62
256
  6
BYLAYER
  0
DICTIONARY
  5
19
100
AcDbDictionary
280
0
281
1
  0
DICTIONARY
  5
1A
100
AcDbDictionary
281
1
  3
Layout1
350
1E
  3
Layout2
350
26
  3
Model
350
22
  0
LAYOUT
  5
1E
100
AcDbPlotSettings
  1

  2
none_device
  4

  6

 40
0.0
 41
0.0
 42
0.0
 43
0.0
 44
0.0
 45
0.0
 46
0.0
 47
0.0
 48
0.0
 49
0.0
140
0.0
141
0.0
142
1.0
143
1.0
 70
688
 72
0
 73
0
 74
5
  7

 75
16
147
1.0
148
0.0
149
0.0
100
AcDbLayout
  1
Layout1
 70
1
 71
1
 10
0.0
 20
0.0
 11
420.0
 21
297.0
 12
0.0
 22
0.0
 32
0.0
 14
100000000000000000000.0
 24
100000000000000000000.0
 34
100000000000000000000.0
 15
-100000000000000000000.0
 25
-100000000000000000000.0
 35
-100000000000000000000.0
146
0.0
 13
0.0
 23
0.0
 33
0.0
 16
1.0
 26
0.0
 36
0.0
 17
0.0
 27
1.0
 37
0.0
 76
0
330
1B
  0
LAYOUT
  5
22
100
AcDbPlotSettings
  1

  2
none_device
  4

  6

 40
0.0
 41
0.0
 42
0.0
 43
0.0
 44
0.0
 45
0.0
 46
0.0
 47
0.0
 48
0.0
 49
0.0
140
0.0
141
0.0
142
1.0
143
1.0
 70
1712
 72
0
 73
0
 74
0
  7

 75
0
147
1.0
148
0.0
149
0.0
100
AcDbLayout
  1
Model
 70
1
 71
0
 10
0.0
 20
0.0
 11
12.0
 21
9.0
 12
0.0
 22
0.0
 32
0.0
 14
0.0
 24
0.0
 34
0.0
 15
0.0
 25
0.0
 35
0.0
146
0.0
 13
0.0
 23
0.0
 33
0.0
 16
1.0
 26
0.0
 36
0.0
 17
0.0
 27
1.0
 37
0.0
 76
0
330
1F
  0
LAYOUT
  5
26
100
AcDbPlotSettings
  1

  2
none_device
  4

  6

 40
0.0
 41
0.0
 42
0.0
 43
0.0
 44
0.0
 45
0.0
 46
0.0
 47
0.0
 48
0.0
 49
0.0
140
0.0
141
0.0
142
1.0
143
1.0
 70
688
 72
0
 73
0
 74
5
  7

 75
16
147
1.0
148
0.0
149
0.0
100
AcDbLayout
  1
Layout2
 70
1
 71
2
 10
0.0
 20
0.0
 11
12.0
 21
9.0
 12
0.0
 22
0.0
 32
0.0
 14
0.0
 24
0.0
 34
0.0
 15
0.0
 25
0.0
 35
0.0
146
0.0
 13
0.0
 23
0.0
 33
0.0
 16
1.0
 26
0.0
 36
0.0
 17
0.0
 27
1.0
 37
0.0
 76
0
330
23
  0
DICTIONARY
  5
14D
100
AcDbDictionary
281
1
  3
DIMASSOC
350
150
  3
HIDETEXT
350
14F
  0
DICTIONARYVAR
  5
14F
100
DictionaryVariables
280
0
  1
2
  0
DICTIONARYVAR
  5
150
100
DictionaryVariables
280
0
  1
1
  0
DICTIONARY
  5
14E
100
AcDbDictionary
281
1
  3
ColorSettings/BackgroundColor
350
151
  3
ColorSettings/ColorMode
350
152
  3
Grid/DisplayGrid00
350
153
  3
Grid/DisplayGrid01
350
154
  3
Grid/DisplayGrid02
350
155
  3
Grid/DisplayGrid03
350
156
  3
Grid/GridSpacingX00
350
157
  3
Grid/GridSpacingX01
350
158
  3
Grid/GridSpacingX02
350
159
  3
Grid/GridSpacingX03
350
15A
  3
Grid/GridSpacingY00
350
15B
  3
Grid/GridSpacingY01
350
15C
  3
Grid/GridSpacingY02
350
15D
  3
Grid/GridSpacingY03
350
15E
  3
Grid/IsometricGrid00
350
15F
  3
Grid/IsometricGrid01
350
160
  3
Grid/IsometricGrid02
350
161
  3
Grid/IsometricGrid03
350
162
  3
Grid/IsometricProjection00
350
163
  3
Grid/IsometricProjection01
350
164
  3
Grid/IsometricProjection02
350
165
  3
Grid/IsometricProjection03
350
166
  3
Grid/MetaGridSpacingX00
350
167
  3
Grid/MetaGridSpacingX01
350
168
  3
Grid/MetaGridSpacingX02
350
169
  3
Grid/MetaGridSpacingX03
350
16A
  3
Grid/MetaGridSpacingY00
350
16B
  3
Grid/MetaGridSpacingY01
350
16C
  3
Grid/MetaGridSpacingY02
350
16D
  3
Grid/MetaGridSpacingY03
350
16E
  3
MultiPageSettings/Columns
350
16F
  3
MultiPageSettings/GlueMarginsBottom
350
170
  3
MultiPageSettings/GlueMarginsLeft
350
171
  3
MultiPageSettings/GlueMarginsRight
350
172
  3
MultiPageSettings/GlueMarginsTop
350
173
  3
MultiPageSettings/PrintCropMarks
350
174
  3
MultiPageSettings/Rows
350
175
  3
PageSettings/OffsetX
350
176
  3
PageSettings/OffsetY
350
177
  3
PageSettings/PageOrientation
350
178
  3
PageSettings/PaperHeight
350
179
  3
PageSettings/PaperWidth
350
17A
  3
PageSettings/Scale
350
17B
  3
PageSettings/ShowPaperBorders
350
17C
  3
QCADVersion
350
17D
  3
UnitSettings/PaperUnit
350
17E
  0
XRECORD
  5
151
330
14E
100
AcDbXrecord
280
1
1000
White
  0
XRECORD
  5
152
330
14E
100
AcDbXrecord
280
1
1000
FullColor
  0
XRECORD
  5
153
330
14E
100
AcDbXrecord
280
1
290
1
  0
XRECORD
  5
154
330
14E
100
AcDbXrecord
280
1
290
1
  0
XRECORD
  5
155
330
14E
100
AcDbXrecord
280
1
290
1
  0
XRECORD
  5
156
330
14E
100
AcDbXrecord
280
1
290
1
  0
XRECORD
  5
157
330
14E
100
AcDbXrecord
280
1
1000
auto
  0
XRECORD
  5
158
330
14E
100
AcDbXrecord
280
1
1000
auto
  0
XRECORD
  5
159
330
14E
100
AcDbXrecord
280
1
1000
auto
  0
XRECORD
  5
15A
330
14E
100
AcDbXrecord
280
1
1000
auto
  0
XRECORD
  5
15B
330
14E
100
AcDbXrecord
280
1
1000
auto
  0
XRECORD
  5
15C
330
14E
100
AcDbXrecord
280
1
1000
auto
  0
XRECORD
  5
15D
330
14E
100
AcDbXrecord
280
1
1000
auto
  0
XRECORD
  5
15E
330
14E
100
AcDbXrecord
280
1
1000
auto
  0
XRECORD
  5
15F
330
14E
100
AcDbXrecord
280
1
290
0
  0
XRECORD
  5
160
330
14E
100
AcDbXrecord
280
1
290
0
  0
XRECORD
  5
161
330
14E
100
AcDbXrecord
280
1
290
0
  0
XRECORD
  5
162
330
14E
100
AcDbXrecord
280
1
290
0
  0
XRECORD
  5
163
330
14E
100
AcDbXrecord
280
1
 90
0
  0
XRECORD
  5
164
330
14E
100
AcDbXrecord
280
1
 90
0
  0
XRECORD
  5
165
330
14E
100
AcDbXrecord
280
1
 90
0
  0
XRECORD
  5
166
330
14E
100
AcDbXrecord
280
1
 90
0
  0
XRECORD
  5
167
330
14E
100
AcDbXrecord
280
1
1000
auto
  0
XRECORD
  5
168
330
14E
100
AcDbXrecord
280
1
1000
auto
  0
XRECORD
  5
169
330
14E
100
AcDbXrecord
280
1
1000
auto
  0
XRECORD
  5
16A
330
14E
100
AcDbXrecord
280
1
1000
auto
  0
XRECORD
  5
16B
330
14E
100
AcDbXrecord
280
1
1000
auto
  0
XRECORD
  5
16C
330
14E
100
AcDbXrecord
280
1
1000
auto
  0
XRECORD
  5
16D
330
14E
100
AcDbXrecord
280
1
1000
auto
  0
XRECORD
  5
16E
330
14E
100
AcDbXrecord
280
1
1000
auto
  0
XRECORD
  5
16F
330
14E
100
AcDbXrecord
280
1
 90
1
  0
XRECORD
  5
170
330
14E
100
AcDbXrecord
280
1
 40
0.5
  0
XRECORD
  5
171
330
14E
100
AcDbXrecord
280
1
 40
0.5
  0
XRECORD
  5
172
330
14E
100
AcDbXrecord
280
1
 40
0.5
  0
XRECORD
  5
173
330
14E
100
AcDbXrecord
280
1
 40
0.5
  0
XRECORD
  5
174
330
14E
100
AcDbXrecord
280
1
290
0
  0
XRECORD
  5
175
330
14E
100
AcDbXrecord
280
1
 90
1
  0
XRECORD
  5
176
330
14E
100
AcDbXrecord
280
1
 40
0.0
  0
XRECORD
  5
177
330
14E
100
AcDbXrecord
280
1
 40
0.0
  0
XRECORD
  5
178
330
14E
100
AcDbXrecord
280
1
1000
Portrait
  0
XRECORD
  5
179
330
14E
100
AcDbXrecord
280
1
 40
11.6929133858268006
  0
XRECORD
  5
17A
330
14E
100
AcDbXrecord
280
1
 40
8.2677165354330704
  0
XRECORD
  5
17B
330
14E
100
AcDbXrecord
280
1
1000
1:1
  0
XRECORD
  5
17C
330
14E
100
AcDbXrecord
280
1
290
1
  0
XRECORD
  5
17D
330
14E
100
AcDbXrecord
280
1
1000
3.11.3
  0
XRECORD
  5
17E
330
14E
100
AcDbXrecord
280
1
 90
1
  0
ENDSEC
  0
EOF
