999
dxflib 3.7.5.0
  0
SECTION
  2
HEADER
  9
$ACADVER
  1
AC1015
  9
$HANDSEED
  5
FFFF
  9
$DIMADEC
 70
1
  9
$DIMASZ
 40
0.125
  9
$DIMAUNIT
 70
0
  9
$DIMAZIN
 70
2
  9
$DIMDEC
 70
3
  9
$DIMEXE
 40
0.0625
  9
$DIMEXO
 40
0.03125
  9
$DIMGAP
 40
0.03125
  9
$DIMLUNIT
 70
2
  9
$DIMSCALE
 40
1.0
  9
$DIMTSZ
 40
0.125
  9
$DIMTXT
 40
2.5
  9
$DIMZIN
 70
8
  9
$DWGCODEPAGE
  3
ANSI_1252
  9
$INSUNITS
 70
1
  9
$LTSCALE
 40
1.0
  9
$MEASUREMENT
 70
0
  9
$PDMODE
 70
2
  9
$PDSIZE
 40
0
  0
ENDSEC
  0
SECTION
  2
TABLES
  0
TABLE
  2
VPORT
  5
8
100
AcDbSymbolTable
 70
1
  0
VPORT
  5
30
100
AcDbSymbolTableRecord
100
AcDbViewportTableRecord
  2
*Active
 70
0
 10
0.0
 20
0.0
 11
1.0
 21
1.0
 12
286.3055555555554861
 22
148.5
 13
0.0
 23
0.0
 14
10.0
 24
10.0
 15
10.0
 25
10.0
 16
0.0
 26
0.0
 36
1.0
 17
0.0
 27
0.0
 37
0.0
 40
297.0
 41
1.92798353909465
 42
50.0
 43
0.0
 44
0.0
 50
0.0
 51
0.0
 71
0
 72
100
 73
1
 74
3
 75
1
 76
1
 77
0
 78
0
281
0
 65
1
110
0.0
120
0.0
130
0.0
111
1.0
121
0.0
131
0.0
112
0.0
122
1.0
132
0.0
 79
0
146
0.0
  0
ENDTAB
  0
TABLE
  2
LTYPE
  5
5
100
AcDbSymbolTable
 70
41
  0
LTYPE
  5
16
100
AcDbSymbolTableRecord
100
AcDbLinetypeTableRecord
  2
Continuous
 70
0
  3
Solid line
 72
65
 73
0
 40
0.0
  0
LTYPE
  5
31
100
AcDbSymbolTableRecord
100
AcDbLinetypeTableRecord
  2
ACAD_ISO15W100
 70
0
  3
ISO double-dash triple-dot __ __ . . . __ __ . .
 72
65
 73
10
 40
39.0000000000000071
 49
12.0
 74
0
 49
-3.0
 74
0
 49
12.0
 74
0
 49
-2.9500000000000002
 74
0
 49
0.1
 74
0
 49
-2.9000000000000004
 74
0
 49
0.1
 74
0
 49
-2.9000000000000004
 74
0
 49
0.1
 74
0
 49
-2.9500000000000002
 74
0
  0
LTYPE
  5
32
100
AcDbSymbolTableRecord
100
AcDbLinetypeTableRecord
  2
DIVIDE
 70
0
  3
Divide ____ . . ____ . . ____ . . ____ . . ____
 72
65
 73
6
 40
31.7500000000000036
 49
12.6999999999999993
 74
0
 49
-6.2999999999999998
 74
0
 49
0.1
 74
0
 49
-6.25
 74
0
 49
0.1
 74
0
 49
-6.2999999999999998
 74
0
  0
LTYPE
  5
33
100
AcDbSymbolTableRecord
100
AcDbLinetypeTableRecord
  2
ACAD_ISO10W100
 70
0
  3
ISO dash dot __ . __ . __ . __ . __ . __ . __ . 
 72
65
 73
4
 40
18.0
 49
12.0
 74
0
 49
-2.9500000000000002
 74
0
 49
0.1
 74
0
 49
-2.9500000000000002
 74
0
  0
LTYPE
  5
34
100
AcDbSymbolTableRecord
100
AcDbLinetypeTableRecord
  2
ACAD_ISO04W100
 70
0
  3
ISO long-dash dot ____ . ____ . ____ . ____ . _
 72
65
 73
4
 40
30.0
 49
24.0
 74
0
 49
-2.9500000000000002
 74
0
 49
0.1
 74
0
 49
-2.9500000000000002
 74
0
  0
LTYPE
  5
35
100
AcDbSymbolTableRecord
100
AcDbLinetypeTableRecord
  2
CENTER2
 70
0
  3
Center (.5x) ___ _ ___ _ ___ _ ___ _ ___ _ ___
 72
65
 73
4
 40
28.5750000000000028
 49
19.0500000000000007
 74
0
 49
-3.1749999999999998
 74
0
 49
3.1749999999999998
 74
0
 49
-3.1749999999999998
 74
0
  0
LTYPE
  5
36
100
AcDbSymbolTableRecord
100
AcDbLinetypeTableRecord
  2
ACAD_ISO11W100
 70
0
  3
ISO double-dash dot __ __ . __ __ . __ __ . __ _
 72
65
 73
6
 40
33.0
 49
12.0
 74
0
 49
-3.0
 74
0
 49
12.0
 74
0
 49
-2.9500000000000002
 74
0
 49
0.1
 74
0
 49
-2.9500000000000002
 74
0
  0
LTYPE
  5
37
100
AcDbSymbolTableRecord
100
AcDbLinetypeTableRecord
  2
HIDDEN2
 70
0
  3
Hidden (.5x) _ _ _ _ _ _ _ _ _ _ _ _ _ _ _ _ _ 
 72
65
 73
2
 40
4.7624999999999993
 49
3.1749999999999998
 74
0
 49
-1.5874999999999999
 74
0
  0
LTYPE
  5
38
100
AcDbSymbolTableRecord
100
AcDbLinetypeTableRecord
  2
BORDERX2
 70
0
  3
Border (2x) ____  ____  .  ____  ____  .  ___
 72
65
 73
6
 40
88.8999999999999773
 49
25.3999999999999986
 74
0
 49
-12.6999999999999993
 74
0
 49
25.3999999999999986
 74
0
 49
-12.6499999999999986
 74
0
 49
0.1
 74
0
 49
-12.6499999999999986
 74
0
  0
LTYPE
  5
39
100
AcDbSymbolTableRecord
100
AcDbLinetypeTableRecord
  2
ACAD_ISO05W100
 70
0
  3
ISO long-dash double-dot ____ .. ____ .. ____ . 
 72
65
 73
6
 40
33.0000000000000071
 49
24.0
 74
0
 49
-2.9500000000000002
 74
0
 49
0.1
 74
0
 49
-2.9000000000000004
 74
0
 49
0.1
 74
0
 49
-2.9500000000000002
 74
0
  0
LTYPE
  5
3A
100
AcDbSymbolTableRecord
100
AcDbLinetypeTableRecord
  2
DASHDOTX2
 70
0
  3
Dash dot (2x) ____  .  ____  .  ____  .  ___
 72
65
 73
4
 40
50.7999999999999972
 49
25.3999999999999986
 74
0
 49
-12.6499999999999986
 74
0
 49
0.1
 74
0
 49
-12.6499999999999986
 74
0
  0
LTYPE
  5
3B
100
AcDbSymbolTableRecord
100
AcDbLinetypeTableRecord
  2
HIDDENX2
 70
0
  3
Hidden (2x) ____ ____ ____ ____ ____ ____ ____ 
 72
65
 73
2
 40
19.0499999999999972
 49
12.6999999999999993
 74
0
 49
-6.3499999999999996
 74
0
  0
LTYPE
  5
3C
100
AcDbSymbolTableRecord
100
AcDbLinetypeTableRecord
  2
CENTERX2
 70
0
  3
Center (2x) ________  __  ________  __  _____
 72
65
 73
4
 40
101.6000000000000085
 49
63.5
 74
0
 49
-12.6999999999999993
 74
0
 49
12.6999999999999993
 74
0
 49
-12.6999999999999993
 74
0
  0
LTYPE
  5
3D
100
AcDbSymbolTableRecord
100
AcDbLinetypeTableRecord
  2
BORDER2
 70
0
  3
Border (.5x) __.__.__.__.__.__.__.__.__.__.__.
 72
65
 73
6
 40
22.2250000000000014
 49
6.3499999999999996
 74
0
 49
-3.1749999999999998
 74
0
 49
6.3499999999999996
 74
0
 49
-3.125
 74
0
 49
0.1
 74
0
 49
-3.125
 74
0
  0
LTYPE
  5
3E
100
AcDbSymbolTableRecord
100
AcDbLinetypeTableRecord
  2
DASHDOT2
 70
0
  3
Dash dot (.5x) _._._._._._._._._._._._._._._.
 72
65
 73
4
 40
12.6999999999999993
 49
6.3499999999999996
 74
0
 49
-3.125
 74
0
 49
0.1
 74
0
 49
-3.125
 74
0
  0
LTYPE
  5
3F
100
AcDbSymbolTableRecord
100
AcDbLinetypeTableRecord
  2
ACAD_ISO12W100
 70
0
  3
ISO dash double-dot __ . . __ . . __ . . __ . . 
 72
65
 73
6
 40
21.0
 49
12.0
 74
0
 49
-2.9500000000000002
 74
0
 49
0.1
 74
0
 49
-2.9000000000000004
 74
0
 49
0.1
 74
0
 49
-2.9500000000000002
 74
0
  0
LTYPE
  5
40
100
AcDbSymbolTableRecord
100
AcDbLinetypeTableRecord
  2
ACAD_ISO07W100
 70
0
  3
ISO dot . . . . . . . . . . . . . . . . . . . . 
 72
65
 73
2
 40
3.0
 49
0.1
 74
0
 49
-2.8999999999999999
 74
0
  0
LTYPE
  5
41
100
AcDbSymbolTableRecord
100
AcDbLinetypeTableRecord
  2
HIDDEN
 70
0
  3
Hidden __ __ __ __ __ __ __ __ __ __ __ __ __ __
 72
65
 73
2
 40
9.5249999999999986
 49
6.3499999999999996
 74
0
 49
-3.1749999999999998
 74
0
  0
LTYPE
  5
42
100
AcDbSymbolTableRecord
100
AcDbLinetypeTableRecord
  2
ACAD_ISO06W100
 70
0
  3
ISO long-dash triple-dot ____ ... ____ ... ____
 72
65
 73
8
 40
36.0000000000000071
 49
24.0
 74
0
 49
-2.9500000000000002
 74
0
 49
0.1
 74
0
 49
-2.9000000000000004
 74
0
 49
0.1
 74
0
 49
-2.9000000000000004
 74
0
 49
0.1
 74
0
 49
-2.9500000000000002
 74
0
  0
LTYPE
  5
43
100
AcDbSymbolTableRecord
100
AcDbLinetypeTableRecord
  2
CENTER
 70
0
  3
Center ____ _ ____ _ ____ _ ____ _ ____ _ ____
 72
65
 73
4
 40
50.8000000000000043
 49
31.75
 74
0
 49
-6.3499999999999996
 74
0
 49
6.3499999999999996
 74
0
 49
-6.3499999999999996
 74
0
  0
LTYPE
  5
44
100
AcDbSymbolTableRecord
100
AcDbLinetypeTableRecord
  2
DOTX2
 70
0
  3
Dot (2x) .  .  .  .  .  .  .  .  .  .  .  .  .  .
 72
65
 73
2
 40
12.6999999999999993
 49
0.1
 74
0
 49
-12.5999999999999996
 74
0
  0
LTYPE
  5
45
100
AcDbSymbolTableRecord
100
AcDbLinetypeTableRecord
  2
PHANTOM
 70
0
  3
Phantom ______  __  __  ______  __  __  ______ 
 72
65
 73
6
 40
63.5000000000000071
 49
31.75
 74
0
 49
-6.3499999999999996
 74
0
 49
6.3499999999999996
 74
0
 49
-6.3499999999999996
 74
0
 49
6.3499999999999996
 74
0
 49
-6.3499999999999996
 74
0
  0
LTYPE
  5
46
100
AcDbSymbolTableRecord
100
AcDbLinetypeTableRecord
  2
ACAD_ISO08W100
 70
0
  3
ISO long-dash short-dash ____ __ ____ __ ____ _
 72
65
 73
4
 40
36.0
 49
24.0
 74
0
 49
-3.0
 74
0
 49
6.0
 74
0
 49
-3.0
 74
0
  0
LTYPE
  5
47
100
AcDbSymbolTableRecord
100
AcDbLinetypeTableRecord
  2
DASHEDX2
 70
0
  3
Dashed (2x) ____  ____  ____  ____  ____  ___
 72
65
 73
2
 40
38.0999999999999943
 49
25.3999999999999986
 74
0
 49
-12.6999999999999993
 74
0
  0
LTYPE
  5
48
100
AcDbSymbolTableRecord
100
AcDbLinetypeTableRecord
  2
ACAD_ISO02W100
 70
0
  3
ISO dash __ __ __ __ __ __ __ __ __ __ __ __ __
 72
65
 73
2
 40
15.0
 49
12.0
 74
0
 49
-3.0
 74
0
  0
LTYPE
  5
49
100
AcDbSymbolTableRecord
100
AcDbLinetypeTableRecord
  2
PHANTOM2
 70
0
  3
Phantom (.5x) ___ _ _ ___ _ _ ___ _ _ ___ _ _
 72
65
 73
6
 40
31.7500000000000036
 49
15.875
 74
0
 49
-3.1749999999999998
 74
0
 49
3.1749999999999998
 74
0
 49
-3.1749999999999998
 74
0
 49
3.1749999999999998
 74
0
 49
-3.1749999999999998
 74
0
  0
LTYPE
  5
4A
100
AcDbSymbolTableRecord
100
AcDbLinetypeTableRecord
  2
DASHED2
 70
0
  3
Dashed (.5x) _ _ _ _ _ _ _ _ _ _ _ _ _ _ _ _ _ 
 72
65
 73
2
 40
9.5249999999999986
 49
6.3499999999999996
 74
0
 49
-3.1749999999999998
 74
0
  0
LTYPE
  5
4B
100
AcDbSymbolTableRecord
100
AcDbLinetypeTableRecord
  2
ACAD_ISO09W100
 70
0
  3
ISO long-dash double-short-dash ____ __ __ ____
 72
65
 73
6
 40
45.0
 49
24.0
 74
0
 49
-3.0
 74
0
 49
6.0
 74
0
 49
-3.0
 74
0
 49
6.0
 74
0
 49
-3.0
 74
0
  0
LTYPE
  5
4C
100
AcDbSymbolTableRecord
100
AcDbLinetypeTableRecord
  2
ACAD_ISO13W100
 70
0
  3
ISO double-dash double-dot __ __ . . __ __ . . _
 72
65
 73
8
 40
36.0000000000000071
 49
12.0
 74
0
 49
-3.0
 74
0
 49
12.0
 74
0
 49
-2.9500000000000002
 74
0
 49
0.1
 74
0
 49
-2.9000000000000004
 74
0
 49
0.1
 74
0
 49
-2.9500000000000002
 74
0
  0
LTYPE
  5
4D
100
AcDbSymbolTableRecord
100
AcDbLinetypeTableRecord
  2
DOT2
 70
0
  3
Dot (.5x) ........................................
 72
65
 73
2
 40
3.1749999999999998
 49
0.1
 74
0
 49
-3.0749999999999997
 74
0
  0
LTYPE
  5
4E
100
AcDbSymbolTableRecord
100
AcDbLinetypeTableRecord
  2
DASHED
 70
0
  3
Dashed __ __ __ __ __ __ __ __ __ __ __ __ __ _
 72
65
 73
2
 40
19.0499999999999972
 49
12.6999999999999993
 74
0
 49
-6.3499999999999996
 74
0
  0
LTYPE
  5
4F
100
AcDbSymbolTableRecord
100
AcDbLinetypeTableRecord
  2
ACAD_ISO14W100
 70
0
  3
ISO dash triple-dot __ . . . __ . . . __ . . . _
 72
65
 73
8
 40
24.0000000000000036
 49
12.0
 74
0
 49
-2.9500000000000002
 74
0
 49
0.1
 74
0
 49
-2.9000000000000004
 74
0
 49
0.1
 74
0
 49
-2.9000000000000004
 74
0
 49
0.1
 74
0
 49
-2.9500000000000002
 74
0
  0
LTYPE
  5
15
100
AcDbSymbolTableRecord
100
AcDbLinetypeTableRecord
  2
BYLAYER
 70
0
  3

 72
65
 73
0
 40
0.0
  0
LTYPE
  5
50
100
AcDbSymbolTableRecord
100
AcDbLinetypeTableRecord
  2
PHANTOMX2
 70
0
  3
Phantom (2x) ____________    ____    ____   _
 72
65
 73
6
 40
127.0000000000000142
 49
63.5
 74
0
 49
-12.6999999999999993
 74
0
 49
12.6999999999999993
 74
0
 49
-12.6999999999999993
 74
0
 49
12.6999999999999993
 74
0
 49
-12.6999999999999993
 74
0
  0
LTYPE
  5
14
100
AcDbSymbolTableRecord
100
AcDbLinetypeTableRecord
  2
BYBLOCK
 70
0
  3

 72
65
 73
0
 40
0.0
  0
LTYPE
  5
51
100
AcDbSymbolTableRecord
100
AcDbLinetypeTableRecord
  2
DIVIDEX2
 70
0
  3
Divide (2x) ________  .  .  ________  .  .  _
 72
65
 73
6
 40
63.5
 49
25.3999999999999986
 74
0
 49
-12.6499999999999986
 74
0
 49
0.1
 74
0
 49
-12.5999999999999979
 74
0
 49
0.1
 74
0
 49
-12.6499999999999986
 74
0
  0
LTYPE
  5
52
100
AcDbSymbolTableRecord
100
AcDbLinetypeTableRecord
  2
BORDER
 70
0
  3
Border __ __ . __ __ . __ __ . __ __ . __ __ .
 72
65
 73
6
 40
44.4499999999999957
 49
12.6999999999999993
 74
0
 49
-6.3499999999999996
 74
0
 49
12.6999999999999993
 74
0
 49
-6.2999999999999998
 74
0
 49
0.1
 74
0
 49
-6.2999999999999998
 74
0
  0
LTYPE
  5
53
100
AcDbSymbolTableRecord
100
AcDbLinetypeTableRecord
  2
DIVIDE2
 70
0
  3
Divide (.5x) __..__..__..__..__..__..__..__.._
 72
65
 73
6
 40
15.8749999999999982
 49
6.3499999999999996
 74
0
 49
-3.125
 74
0
 49
0.1
 74
0
 49
-3.0750000000000002
 74
0
 49
0.1
 74
0
 49
-3.125
 74
0
  0
LTYPE
  5
54
100
AcDbSymbolTableRecord
100
AcDbLinetypeTableRecord
  2
DOT
 70
0
  3
Dot . . . . . . . . . . . . . . . . . . . . . . . .
 72
65
 73
2
 40
6.3499999999999996
 49
0.1
 74
0
 49
-6.25
 74
0
  0
LTYPE
  5
55
100
AcDbSymbolTableRecord
100
AcDbLinetypeTableRecord
  2
DASHDOT
 70
0
  3
Dash dot __ . __ . __ . __ . __ . __ . __ . __
 72
65
 73
4
 40
25.4000000000000021
 49
12.6999999999999993
 74
0
 49
-6.2999999999999998
 74
0
 49
0.1
 74
0
 49
-6.2999999999999998
 74
0
  0
LTYPE
  5
56
100
AcDbSymbolTableRecord
100
AcDbLinetypeTableRecord
  2
ACAD_ISO03W100
 70
0
  3
ISO dash space __    __    __    __    __    __
 72
65
 73
2
 40
30.0
 49
12.0
 74
0
 49
-18.0
 74
0
  0
ENDTAB
  0
TABLE
  2
LAYER
  5
2
100
AcDbSymbolTable
 70
1
  0
LAYER
  5
10
100
AcDbSymbolTableRecord
100
AcDbLayerTableRecord
  2
0
 70
0
 62
7
420
16777215
  6
Continuous
370
25
390
F
  0
ENDTAB
  0
TABLE
  2
STYLE
  5
3
100
AcDbSymbolTable
 70
1
  0
STYLE
  5
57
100
AcDbSymbolTableRecord
100
AcDbTextStyleTableRecord
  2
Standard
 70
0
 40
0.0
 41
1.0
 50
0.0
 71
0
 42
2.5
  3

  4

1001
ACAD
1000
txt
1071
0
  0
ENDTAB
  0
TABLE
  2
VIEW
  5
6
100
AcDbSymbolTable
 70
0
  0
ENDTAB
  0
TABLE
  2
UCS
  5
7
100
AcDbSymbolTable
 70
0
  0
ENDTAB
  0
TABLE
  2
APPID
  5
9
100
AcDbSymbolTable
 70
1
  0
APPID
  5
12
100
AcDbSymbolTableRecord
100
AcDbRegAppTableRecord
  2
ACAD
 70
0
  0
APPID
  5
58
100
AcDbSymbolTableRecord
100
AcDbRegAppTableRecord
  2
QCAD
 70
0
  0
ENDTAB
  0
TABLE
  2
DIMSTYLE
  5
A
100
AcDbSymbolTable
 70
1
100
AcDbDimStyleTable
 71
0
  0
DIMSTYLE
105
27
100
AcDbSymbolTableRecord
100
AcDbDimStyleTableRecord
  2
Standard
 41
0.125
 42
0.03125
 43
3.75
 44
0.0625
 70
0
 73
0
 74
0
 77
1
 78
8
140
2.5
141
2.5
143
0.03937007874016
147
0.03125
171
3
172
1
271
2
272
2
274
3
278
44
283
0
284
8
340
57
  0
ENDTAB
  0
TABLE
  2
BLOCK_RECORD
  5
1
100
AcDbSymbolTable
 70
1
  0
BLOCK_RECORD
  5
1F
100
AcDbSymbolTableRecord
100
AcDbBlockTableRecord
  2
*Model_Space
340
22
  0
BLOCK_RECORD
  5
1B
100
AcDbSymbolTableRecord
100
AcDbBlockTableRecord
  2
*Paper_Space
340
1E
  0
BLOCK_RECORD
  5
23
100
AcDbSymbolTableRecord
100
AcDbBlockTableRecord
  2
*Paper_Space0
340
26
  0
BLOCK_RECORD
  5
59
100
AcDbSymbolTableRecord
100
AcDbBlockTableRecord
  2
block 1
340
0
  0
ENDTAB
  0
ENDSEC
  0
SECTION
  2
BLOCKS
  0
BLOCK
  5
20
100
AcDbEntity
  8
0
100
AcDbBlockBegin
  2
*Model_Space
 70
0
 10
0.0
 20
0.0
 30
0.0
  3
*Model_Space
  1

  0
ENDBLK
  5
21
100
AcDbEntity
  8
0
100
AcDbBlockEnd
  0
BLOCK
  5
1C
100
AcDbEntity
 67
1
  8
0
100
AcDbBlockBegin
  2
*Paper_Space
 70
0
 10
0.0
 20
0.0
 30
0.0
  3
*Paper_Space
  1

  0
ENDBLK
  5
1D
100
AcDbEntity
 67
1
  8
0
100
AcDbBlockEnd
  0
BLOCK
  5
24
100
AcDbEntity
  8
0
100
AcDbBlockBegin
  2
*Paper_Space0
 70
0
 10
0.0
 20
0.0
 30
0.0
  3
*Paper_Space0
  1

  0
ENDBLK
  5
25
100
AcDbEntity
  8
0
100
AcDbBlockEnd
  0
BLOCK
  5
5A
100
AcDbEntity
  8
0
100
AcDbBlockBegin
  2
block 1
 70
0
 10
0.0
 20
0.0
 30
0.0
  3
block 1
  1

  0
CIRCLE
  5
5B
100
AcDbEntity
100
AcDbCircle
  8
0
 62
3
420
65280
370
-1
 48
1.0
  6
BYLAYER
 10
41.1142701514168465
 20
98.7985386789994635
 30
0.0
 40
4.7177324999999994
  0
CIRCLE
  5
5C
100
AcDbEntity
100
AcDbCircle
  8
0
 62
3
420
65280
370
-1
 48
1.0
  6
BYLAYER
 10
41.1174960873060868
 20
11.0805964010006317
 30
0.0
 40
4.7177324999999994
  0
CIRCLE
  5
5D
100
AcDbEntity
100
AcDbCircle
  8
0
 62
3
420
65280
370
-1
 48
1.0
  6
BYLAYER
 10
41.1142701513529332
 20
108.8630346789994547
 30
0.0
 40
1.3556498693399035
  0
CIRCLE
  5
5E
100
AcDbEntity
100
AcDbCircle
  8
0
 62
3
420
65280
370
-1
 48
1.0
  6
BYLAYER
 10
41.1158831193614702
 20
85.1330555400000151
 30
0.0
 40
1.3556498693399035
  0
CIRCLE
  5
5F
100
AcDbEntity
100
AcDbCircle
  8
0
 62
3
420
65280
370
-1
 48
1.0
  6
BYLAYER
 10
41.1174960873700002
 20
1.0161004010006656
 30
0.0
 40
1.3556498693399035
  0
CIRCLE
  5
60
100
AcDbEntity
100
AcDbCircle
  8
0
 62
3
420
65280
370
-1
 48
1.0
  6
BYLAYER
 10
41.1158831193614702
 20
24.7460795400000784
 30
0.0
 40
1.3556498693399035
  0
CIRCLE
  5
61
100
AcDbEntity
100
AcDbCircle
  8
0
 62
3
420
65280
370
-1
 48
1.0
  6
BYLAYER
 10
10.9223951193613971
 20
54.9395675399999988
 30
0.0
 40
1.3556498693399035
  0
CIRCLE
  5
62
100
AcDbEntity
100
AcDbCircle
  8
0
 62
3
420
65280
370
-1
 48
1.0
  6
BYLAYER
 10
71.3093711193614297
 20
54.9395675399999988
 30
0.0
 40
1.3556498693399035
  0
LINE
  5
63
100
AcDbEntity
100
AcDbLine
  8
0
 62
256
370
-1
 48
1.0
  6
BYLAYER
 10
11.6736619947667091
 20
94.3652302205176454
 30
0.0
 11
-0.0002364685500541
 21
94.3652302205176881
 31
0.0
  0
LINE
  5
64
100
AcDbEntity
100
AcDbLine
  8
0
 62
256
370
-1
 48
1.0
  6
BYLAYER
 10
11.6738984633167604
 20
15.5105777460441185
 30
0.0
 11
0.0
 21
15.5105777460441185
 31
0.0
  0
LINE
  5
65
100
AcDbEntity
100
AcDbLine
  8
0
 62
256
370
-1
 48
1.0
  6
BYLAYER
 10
70.5578311952513104
 20
94.3652302205176881
 30
0.0
 11
82.2320027072736366
 21
94.3652302205177023
 31
0.0
  0
LINE
  5
66
100
AcDbEntity
100
AcDbLine
  8
0
 62
256
370
-1
 48
1.0
  6
BYLAYER
 10
70.5580676638013529
 20
15.5105777460440688
 30
0.0
 11
82.232239175823679
 21
15.5105777460440688
 31
0.0
  0
LINE
  5
67
100
AcDbEntity
100
AcDbLine
  8
0
 62
256
370
-1
 48
1.0
  6
BYLAYER
 10
82.2320027072736366
 20
94.3652302205177023
 30
0.0
 11
82.2320027072736366
 21
109.8758079665620073
 31
0.0
  0
LINE
  5
68
100
AcDbEntity
100
AcDbLine
  8
0
 62
256
370
-1
 48
1.0
  6
BYLAYER
 10
82.232239175823679
 20
15.5105777460440688
 30
0.0
 11
82.232239175823679
 21
-0.0000000000002261
 31
0.0
  0
CIRCLE
  5
69
100
AcDbEntity
100
AcDbCircle
  8
0
 62
3
420
65280
370
-1
 48
1.0
  6
BYLAYER
 10
41.1158831193617331
 20
54.9398040085503681
 30
0.0
 40
27.6773639999999723
  0
LINE
  5
6A
100
AcDbEntity
100
AcDbLine
  8
0
 62
256
370
-1
 48
1.0
  6
BYLAYER
 10
-0.0002364685500541
 20
109.8758079665617515
 30
0.0
 11
-0.0002364685500541
 21
94.3652302205176881
 31
0.0
  0
LINE
  5
6B
100
AcDbEntity
100
AcDbLine
  8
0
 62
256
370
-1
 48
1.0
  6
BYLAYER
 10
0.0
 20
0.0
 30
0.0
 11
0.0
 21
15.5105777460441185
 31
0.0
  0
ARC
  5
6C
100
AcDbEntity
  8
0
 62
256
370
-1
 48
1.0
  6
BYLAYER
100
AcDbCircle
 10
41.1159330914604411
 20
54.9387610572554834
 30
0.0
 40
33.8478128170285402
100
AcDbArc
 50
129.019859573060188
 51
230.9810737422943134
  0
ARC
  5
6D
100
AcDbEntity
  8
0
 62
256
370
-1
 48
1.0
  6
BYLAYER
100
AcDbCircle
 10
41.1159330914604411
 20
54.9387610572554834
 30
0.0
 40
33.8478128170285402
100
AcDbArc
 50
309.0189850890738512
 51
50.9805317772752815
  0
LINE
  5
6E
100
AcDbEntity
100
AcDbLine
  8
0
 62
256
370
-1
 48
1.0
  6
BYLAYER
 10
19.8056979741768799
 20
81.2360672261903005
 30
0.0
 11
11.6736619947667091
 21
94.3652302205176454
 31
0.0
  0
LINE
  5
6F
100
AcDbEntity
100
AcDbLine
  8
0
 62
256
370
-1
 48
1.0
  6
BYLAYER
 10
62.4259885883921868
 20
81.2362127819813793
 30
0.0
 11
70.5578311952513104
 21
94.3652302205176881
 31
0.0
  0
LINE
  5
70
100
AcDbEntity
100
AcDbLine
  8
0
 62
256
370
-1
 48
1.0
  6
BYLAYER
 10
70.5580676638013529
 20
15.5105777460440688
 30
0.0
 11
62.4257668403441599
 21
28.6411296412602638
 31
0.0
  0
LINE
  5
71
100
AcDbEntity
100
AcDbLine
  8
0
 62
256
370
-1
 48
1.0
  6
BYLAYER
 10
19.8061263450242393
 20
28.6411077603138722
 30
0.0
 11
11.6738984633168492
 21
15.5105777460441185
 31
0.0
  0
LINE
  5
72
100
AcDbEntity
100
AcDbLine
  8
0
 62
256
370
-1
 48
1.0
  6
BYLAYER
 10
43.6337383216451471
 20
-2.9346115734382003
 30
0.0
 11
38.6014903216451657
 21
-2.9346115734382003
 31
0.0
  0
LINE
  5
73
100
AcDbEntity
100
AcDbLine
  8
0
 62
256
370
-1
 48
1.0
  6
BYLAYER
 10
43.6321253536367024
 20
112.8104195400000407
 30
0.0
 11
38.5998773536367281
 21
112.8104195400000407
 31
0.0
  0
LINE
  5
74
100
AcDbEntity
100
AcDbLine
  8
0
 62
256
370
-1
 48
1.0
  6
BYLAYER
 10
46.5683498950834149
 20
0.0000000000000203
 30
0.0
 11
43.6337383216451471
 21
-2.9346115734382003
 31
0.0
  0
LINE
  5
75
100
AcDbEntity
100
AcDbLine
  8
0
 62
256
370
-1
 48
1.0
  6
BYLAYER
 10
46.5667369270749774
 20
109.8758079665618226
 30
0.0
 11
43.6321253536367024
 21
112.8104195400000407
 31
0.0
  0
LINE
  5
76
100
AcDbEntity
100
AcDbLine
  8
0
 62
256
370
-1
 48
1.0
  6
BYLAYER
 10
35.6668787482069973
 20
0.0000000000000432
 30
0.0
 11
38.6014903216451657
 21
-2.9346115734382003
 31
0.0
  0
LINE
  5
77
100
AcDbEntity
100
AcDbLine
  8
0
 62
256
370
-1
 48
1.0
  6
BYLAYER
 10
35.6652657801985526
 20
109.8758079665617942
 30
0.0
 11
38.5998773536367281
 21
112.8104195400000407
 31
0.0
  0
LINE
  5
78
100
AcDbEntity
100
AcDbLine
  8
0
 62
256
370
-1
 48
1.0
  6
BYLAYER
 10
46.5683498950835073
 20
0.0000000000000203
 30
0.0
 11
82.2336156752818823
 21
0.0
 31
0.0
  0
LINE
  5
79
100
AcDbEntity
100
AcDbLine
  8
0
 62
256
370
-1
 48
1.0
  6
BYLAYER
 10
46.5667369270750626
 20
109.8758079665618226
 30
0.0
 11
82.2320027072734376
 21
109.875807966561851
 31
0.0
  0
LINE
  5
7A
100
AcDbEntity
100
AcDbLine
  8
0
 62
256
370
-1
 48
1.0
  6
BYLAYER
 10
35.666878748206905
 20
0.0000000000000432
 30
0.0
 11
0.0013764994583824
 21
0.0
 31
0.0
  0
LINE
  5
7B
100
AcDbEntity
100
AcDbLine
  8
0
 62
256
370
-1
 48
1.0
  6
BYLAYER
 10
35.6652657801984532
 20
109.8758079665617942
 30
0.0
 11
-0.0002364685500541
 21
109.8758079665617515
 31
0.0
  0
ENDBLK
  5
7C
100
AcDbEntity
  8
0
100
AcDbBlockEnd
  0
ENDSEC
  0
SECTION
  2
ENTITIES
  0
LINE
  5
7D
100
AcDbEntity
100
AcDbLine
  8
0
 62
3
420
65280
370
-1
 48
1.0
  6
BYLAYER
 10
-125.6768771700004237
 20
118.6697898193721272
 30
0.0
 11
-131.8791228299996305
 21
118.6697898193721272
 31
0.0
  0
LINE
  5
7E
100
AcDbEntity
100
AcDbLine
  8
0
 62
3
420
65280
370
-1
 48
1.0
  6
BYLAYER
 10
-56.3348771700004178
 20
117.5809905724431985
 30
0.0
 11
-62.5371228299996318
 21
117.5809905724431985
 31
0.0
  0
LINE
  5
7F
100
AcDbEntity
100
AcDbLine
  8
0
 62
3
420
65280
370
-1
 48
1.0
  6
BYLAYER
 10
-56.3348771700004178
 20
67.2585105724432282
 30
0.0
 11
-62.5371228299996318
 21
67.2585105724432282
 31
0.0
  0
LINE
  5
80
100
AcDbEntity
100
AcDbLine
  8
0
 62
3
420
65280
370
-1
 48
1.0
  6
BYLAYER
 10
-125.6768771700004237
 20
116.3524396869288893
 30
0.0
 11
-131.8791228299996305
 21
116.3524395687464761
 31
0.0
  0
LINE
  5
81
100
AcDbEntity
100
AcDbLine
  8
0
 62
3
420
65280
370
-1
 48
1.0
  6
BYLAYER
 10
-56.3348771700004178
 20
115.2636404399999606
 30
0.0
 11
-62.5371228299996318
 21
115.2636403218175474
 31
0.0
  0
LINE
  5
82
100
AcDbEntity
100
AcDbLine
  8
0
 62
3
420
65280
370
-1
 48
1.0
  6
BYLAYER
 10
-56.3348771700004178
 20
64.9411604399999618
 30
0.0
 11
-62.5371228299996318
 21
64.9411603218175344
 31
0.0
  0
LINE
  5
83
100
AcDbEntity
100
AcDbLine
  8
0
 62
3
420
65280
370
-1
 48
1.0
  6
BYLAYER
 10
-165.3008770535508063
 20
-2.9555752943173603
 30
0.0
 11
-171.5031225953683816
 21
-2.940478621874187
 31
0.0
  0
LINE
  5
84
100
AcDbEntity
100
AcDbLine
  8
0
 62
3
420
65280
370
-1
 48
1.0
  6
BYLAYER
 10
-165.3008770535508063
 20
46.574424705682631
 30
0.0
 11
-171.5031225953683816
 21
46.5895213781258022
 31
0.0
  0
LINE
  5
85
100
AcDbEntity
100
AcDbLine
  8
0
 62
3
420
65280
370
-1
 48
1.0
  6
BYLAYER
 10
-130.133649693799498
 20
43.6135089368796542
 30
0.0
 11
-131.8791225953683579
 21
43.613508936879569
 31
0.0
  0
LINE
  5
86
100
AcDbEntity
100
AcDbLine
  8
0
 62
3
420
65280
370
-1
 48
1.0
  6
BYLAYER
 10
-60.7916498102491047
 20
92.4197505724432204
 30
0.0
 11
-62.5371227118180002
 21
92.4197505724431352
 31
0.0
  0
LINE
  5
87
100
AcDbEntity
100
AcDbLine
  8
0
 62
3
420
65280
370
-1
 48
1.0
  6
BYLAYER
 10
-165.3008770535508063
 20
-5.2578287543173481
 30
0.0
 11
-171.5031225953683816
 21
-5.2578288724997808
 31
0.0
  0
LINE
  5
88
100
AcDbEntity
100
AcDbLine
  8
0
 62
3
420
65280
370
-1
 48
1.0
  6
BYLAYER
 10
-165.3008770535508063
 20
44.2721712456826424
 30
0.0
 11
-171.5031225953683816
 21
44.2721711275002079
 31
0.0
  0
LINE
  5
89
100
AcDbEntity
100
AcDbLine
  8
0
 62
3
420
65280
370
-1
 48
1.0
  6
BYLAYER
 10
-130.1336495756163742
 20
41.2961588044363239
 30
0.0
 11
-131.8791225953683579
 21
41.2961586862539747
 31
0.0
  0
LINE
  5
8A
100
AcDbEntity
100
AcDbLine
  8
0
 62
3
420
65280
370
-1
 48
1.0
  6
BYLAYER
 10
-60.7916496920660094
 20
90.102400439999883
 30
0.0
 11
-62.5371227118180002
 21
90.1024003218175409
 31
0.0
  0
LINE
  5
8B
100
AcDbEntity
100
AcDbLine
  8
0
 62
3
420
65280
370
-1
 48
1.0
  6
BYLAYER
 10
-125.6768769353677158
 20
41.2961588044363239
 30
0.0
 11
-127.4223498369365899
 21
41.2961588044363239
 31
0.0
  0
LINE
  5
8C
100
AcDbEntity
100
AcDbLine
  8
0
 62
3
420
65280
370
-1
 48
1.0
  6
BYLAYER
 10
-56.3348770518173296
 20
90.102400439999883
 30
0.0
 11
-58.0803499533862109
 21
90.102400439999883
 31
0.0
  0
LINE
  5
8D
100
AcDbEntity
100
AcDbLine
  8
0
 62
3
420
65280
370
-1
 48
1.0
  6
BYLAYER
 10
-125.6768770535507969
 20
43.6135089368796542
 30
0.0
 11
-127.4223499551196994
 21
43.613508936879569
 31
0.0
  0
LINE
  5
8E
100
AcDbEntity
100
AcDbLine
  8
0
 62
3
420
65280
370
-1
 48
1.0
  6
BYLAYER
 10
-56.3348771700004178
 20
92.4197505724432204
 30
0.0
 11
-58.0803500715693133
 21
92.4197505724431352
 31
0.0
  0
LINE
  5
8F
100
AcDbEntity
100
AcDbLine
  8
0
 62
3
420
65280
370
-1
 48
1.0
  6
BYLAYER
 10
-125.6768771700004237
 20
116.3524396869288893
 30
0.0
 11
-125.6768771700004237
 21
118.6546931469288637
 31
0.0
  0
LINE
  5
90
100
AcDbEntity
100
AcDbLine
  8
0
 62
3
420
65280
370
-1
 48
1.0
  6
BYLAYER
 10
-56.3348771700004178
 20
115.2636404399999606
 30
0.0
 11
-56.3348771700004178
 21
117.565893899999935
 31
0.0
  0
LINE
  5
91
100
AcDbEntity
100
AcDbLine
  8
0
 62
3
420
65280
370
-1
 48
1.0
  6
BYLAYER
 10
-165.3008770535508063
 20
-5.2578287543173481
 30
0.0
 11
-165.3008770535508063
 21
-2.9555752943173603
 31
0.0
  0
LINE
  5
92
100
AcDbEntity
100
AcDbLine
  8
0
 62
3
420
65280
370
-1
 48
1.0
  6
BYLAYER
 10
-165.3008770535508063
 20
44.2721712456826424
 30
0.0
 11
-165.3008770535508063
 21
46.574424705682631
 31
0.0
  0
LINE
  5
93
100
AcDbEntity
100
AcDbLine
  8
0
 62
3
420
65280
370
-1
 48
1.0
  6
BYLAYER
 10
-125.6768770535507969
 20
41.2961588044364092
 30
0.0
 11
-125.6768770535507969
 21
43.5984122644363978
 31
0.0
  0
LINE
  5
94
100
AcDbEntity
100
AcDbLine
  8
0
 62
3
420
65280
370
-1
 48
1.0
  6
BYLAYER
 10
-56.3348771700004178
 20
90.1024004399999825
 30
0.0
 11
-56.3348771700004178
 21
92.4046538999999569
 31
0.0
  0
LINE
  5
95
100
AcDbEntity
100
AcDbLine
  8
0
 62
3
420
65280
370
-1
 48
1.0
  6
BYLAYER
 10
-56.3348771700004178
 20
64.9411604399999618
 30
0.0
 11
-56.3348771700004178
 21
67.2585105724432282
 31
0.0
  0
LINE
  5
96
100
AcDbEntity
100
AcDbLine
  8
0
 62
3
420
65280
370
-1
 48
1.0
  6
BYLAYER
 10
-131.8791228299996305
 20
116.3524396869288893
 30
0.0
 11
-131.8791228299996305
 21
118.6697898193721272
 31
0.0
  0
LINE
  5
97
100
AcDbEntity
100
AcDbLine
  8
0
 62
3
420
65280
370
-1
 48
1.0
  6
BYLAYER
 10
-62.5371228299996318
 20
115.2636404399999606
 30
0.0
 11
-62.5371228299996318
 21
117.5809905724431985
 31
0.0
  0
LINE
  5
98
100
AcDbEntity
100
AcDbLine
  8
0
 62
3
420
65280
370
-1
 48
1.0
  6
BYLAYER
 10
-62.5371228299996318
 20
64.9411604399999618
 30
0.0
 11
-62.5371228299996318
 21
67.2585105724432282
 31
0.0
  0
LINE
  5
99
100
AcDbEntity
100
AcDbLine
  8
0
 62
3
420
65280
370
-1
 48
1.0
  6
BYLAYER
 10
-171.5031225953683816
 20
-5.2578287543174316
 30
0.0
 11
-171.5031225953683816
 21
-2.9555752943174443
 31
0.0
  0
LINE
  5
9A
100
AcDbEntity
100
AcDbLine
  8
0
 62
3
420
65280
370
-1
 48
1.0
  6
BYLAYER
 10
-171.5031225953683816
 20
44.2721712456825571
 30
0.0
 11
-171.5031225953683816
 21
46.5744247056825458
 31
0.0
  0
LINE
  5
9B
100
AcDbEntity
100
AcDbLine
  8
0
 62
3
420
65280
370
-1
 48
1.0
  6
BYLAYER
 10
-131.8791225953683579
 20
41.2961588044363239
 30
0.0
 11
-131.8791225953683579
 21
43.5984122644363126
 31
0.0
  0
LINE
  5
9C
100
AcDbEntity
100
AcDbLine
  8
0
 62
3
420
65280
370
-1
 48
1.0
  6
BYLAYER
 10
-62.5371227118180002
 20
90.102400439999883
 30
0.0
 11
-62.5371227118180002
 21
92.4046538999998717
 31
0.0
  0
CIRCLE
  5
9D
100
AcDbEntity
100
AcDbCircle
  8
0
 62
3
420
65280
370
-1
 48
1.0
  6
BYLAYER
 10
-118.7135041164487461
 20
123.6869411469288593
 30
0.0
 40
1.2225577290731999
  0
CIRCLE
  5
9E
100
AcDbEntity
100
AcDbCircle
  8
0
 62
3
420
65280
370
-1
 48
1.0
  6
BYLAYER
 10
-49.3715041164487474
 20
122.5981418999999306
 30
0.0
 40
1.2225577290731999
  0
CIRCLE
  5
9F
100
AcDbEntity
100
AcDbCircle
  8
0
 62
3
420
65280
370
-1
 48
1.0
  6
BYLAYER
 10
-138.8424961164490128
 20
123.6869411469288593
 30
0.0
 40
1.2225577290731999
  0
CIRCLE
  5
A0
100
AcDbEntity
100
AcDbCircle
  8
0
 62
3
420
65280
370
-1
 48
1.0
  6
BYLAYER
 10
-69.5004961164490282
 20
122.5981418999999306
 30
0.0
 40
1.2225577290731999
  0
CIRCLE
  5
A1
100
AcDbEntity
100
AcDbCircle
  8
0
 62
3
420
65280
370
-1
 48
1.0
  6
BYLAYER
 10
-49.3715041164487474
 20
97.4369018999999525
 30
0.0
 40
1.2225577290731999
  0
CIRCLE
  5
A2
100
AcDbEntity
100
AcDbCircle
  8
0
 62
3
420
65280
370
-1
 48
1.0
  6
BYLAYER
 10
-69.5004961164490282
 20
97.4369018999999525
 30
0.0
 40
1.2225577290731999
  0
CIRCLE
  5
A3
100
AcDbEntity
100
AcDbCircle
  8
0
 62
3
420
65280
370
-1
 48
1.0
  6
BYLAYER
 10
-182.216720422254582
 20
6.6814815881751368
 30
0.0
 40
1.2225577290731999
  0
CIRCLE
  5
A4
100
AcDbEntity
100
AcDbCircle
  8
0
 62
3
420
65280
370
-1
 48
1.0
  6
BYLAYER
 10
-154.5872795777453916
 20
6.6814815881751368
 30
0.0
 40
1.2225577290731999
  0
CIRCLE
  5
A5
100
AcDbEntity
100
AcDbCircle
  8
0
 62
3
420
65280
370
-1
 48
1.0
  6
BYLAYER
 10
-182.216720422254582
 20
56.2114815881751255
 30
0.0
 40
1.2225577290731999
  0
CIRCLE
  5
A6
100
AcDbEntity
100
AcDbCircle
  8
0
 62
3
420
65280
370
-1
 48
1.0
  6
BYLAYER
 10
-154.5872795777453916
 20
56.2114815881751255
 30
0.0
 40
1.2225577290731999
  0
CIRCLE
  5
A7
100
AcDbEntity
100
AcDbCircle
  8
0
 62
3
420
65280
370
-1
 48
1.0
  6
BYLAYER
 10
-114.963279577745368
 20
53.2354691469288852
 30
0.0
 40
1.2225577290731999
  0
CIRCLE
  5
A8
100
AcDbEntity
100
AcDbCircle
  8
0
 62
3
420
65280
370
-1
 48
1.0
  6
BYLAYER
 10
-142.5927204222546152
 20
53.2354691469288852
 30
0.0
 40
1.2225577290731999
  0
CIRCLE
  5
A9
100
AcDbEntity
100
AcDbCircle
  8
0
 62
3
420
65280
370
-1
 48
1.0
  6
BYLAYER
 10
-49.3715041164487474
 20
72.2756618999999603
 30
0.0
 40
1.2225577290731999
  0
CIRCLE
  5
AA
100
AcDbEntity
100
AcDbCircle
  8
0
 62
3
420
65280
370
-1
 48
1.0
  6
BYLAYER
 10
-69.5004961164490282
 20
72.2756618999999603
 30
0.0
 40
1.2225577290731999
  0
CIRCLE
  5
AB
100
AcDbEntity
100
AcDbCircle
  8
0
 62
3
420
65280
370
-1
 48
1.0
  6
BYLAYER
 10
-49.3715040000005914
 20
42.2833910371478083
 30
0.0
 40
1.2225577290731999
  0
CIRCLE
  5
AC
100
AcDbEntity
100
AcDbCircle
  8
0
 62
3
420
65280
370
-1
 48
1.0
  6
BYLAYER
 10
-69.5004959999994583
 20
42.2833910371478083
 30
0.0
 40
1.2225577290731999
  0
CIRCLE
  5
AD
100
AcDbEntity
100
AcDbCircle
  8
0
 62
3
420
65280
370
-1
 48
1.0
  6
BYLAYER
 10
-49.3715040000005914
 20
12.5806199999999961
 30
0.0
 40
1.2225577290731999
  0
CIRCLE
  5
AE
100
AcDbEntity
100
AcDbCircle
  8
0
 62
3
420
65280
370
-1
 48
1.0
  6
BYLAYER
 10
-69.5004959999994583
 20
12.5806199999999961
 30
0.0
 40
1.2225577290731999
  0
LINE
  5
AF
100
AcDbEntity
100
AcDbLine
  8
0
 62
3
420
65280
370
-1
 48
1.0
  6
BYLAYER
 10
-130.1336497126935683
 20
44.5741083166335912
 30
0.0
 11
-130.133649693799498
 21
43.6135089368796542
 31
0.0
  0
LINE
  5
B0
100
AcDbEntity
100
AcDbLine
  8
0
 62
3
420
65280
370
-1
 48
1.0
  6
BYLAYER
 10
-60.7916498693399205
 20
95.4240026999999174
 30
0.0
 11
-60.7916498102491047
 21
92.4197505724432204
 31
0.0
  0
LINE
  5
B1
100
AcDbEntity
100
AcDbLine
  8
0
 62
3
420
65280
370
-1
 48
1.0
  6
BYLAYER
 10
-127.4223499551196994
 20
43.613508936879569
 30
0.0
 11
-127.4223499740137839
 21
44.5741083656692041
 31
0.0
  0
LINE
  5
B2
100
AcDbEntity
100
AcDbLine
  8
0
 62
3
420
65280
370
-1
 48
1.0
  6
BYLAYER
 10
-58.0803500715693133
 20
92.4197505724431352
 30
0.0
 11
-58.0803501306601291
 21
95.4240026999999174
 31
0.0
  0
ARC
  5
B3
100
AcDbEntity
  8
0
 62
3
420
65280
370
-1
 48
1.0
  6
BYLAYER
100
AcDbCircle
 10
-59.4360001164496197
 20
122.5981418999999306
 30
0.0
 40
2.5161239999999898
100
AcDbArc
 50
306.8698976458433663
 51
233.1301023541566906
  0
ARC
  5
B4
100
AcDbEntity
  8
0
 62
3
420
65280
370
-1
 48
1.0
  6
BYLAYER
100
AcDbCircle
 10
-59.4360001164496197
 20
97.4369018999999525
 30
0.0
 40
2.5161239999999898
100
AcDbArc
 50
306.8698976458433663
 51
233.1301023541566906
  0
ARC
  5
B5
100
AcDbEntity
  8
0
 62
3
420
65280
370
-1
 48
1.0
  6
BYLAYER
100
AcDbCircle
 10
-59.4360001164496197
 20
72.2756618999999603
 30
0.0
 40
2.5161239999999898
100
AcDbArc
 50
306.8698976458433663
 51
233.1301023541566906
  0
LINE
  5
B6
100
AcDbEntity
100
AcDbLine
  8
0
 62
3
420
65280
370
-1
 48
1.0
  6
BYLAYER
 10
-60.9456745164496709
 20
120.5852426999998812
 30
0.0
 11
-57.9263257164495542
 21
120.5852426999998812
 31
0.0
  0
LINE
  5
B7
100
AcDbEntity
100
AcDbLine
  8
0
 62
3
420
65280
370
-1
 48
1.0
  6
BYLAYER
 10
-60.9456745164496709
 20
70.2627626999999109
 30
0.0
 11
-57.9263257164495542
 21
70.2627626999999109
 31
0.0
  0
LINE
  5
B8
100
AcDbEntity
100
AcDbLine
  8
0
 62
256
370
-1
 48
1.0
  6
BYLAYER
 10
-124.4364280380005852
 20
108.8921320269288628
 30
0.0
 11
-124.4364280380005852
 21
107.5701100582050742
 31
0.0
  0
LINE
  5
B9
100
AcDbEntity
100
AcDbLine
  8
0
 62
256
370
-1
 48
1.0
  6
BYLAYER
 10
-56.3348771700004178
 20
112.0304210999999412
 30
0.0
 11
-56.3348771700004178
 21
111.0861196937686373
 31
0.0
  0
LINE
  5
BA
100
AcDbEntity
100
AcDbLine
  8
0
 62
256
370
-1
 48
1.0
  6
BYLAYER
 10
-165.3008770535502663
 20
-8.4910480943174171
 30
0.0
 11
-165.3008770535502663
 21
-9.4353495005486696
 31
0.0
  0
LINE
  5
BB
100
AcDbEntity
100
AcDbLine
  8
0
 62
256
370
-1
 48
1.0
  6
BYLAYER
 10
-165.3008770535502663
 20
41.0389519056825733
 30
0.0
 11
-165.3008770535502663
 21
40.0946504994513262
 31
0.0
  0
LINE
  5
BC
100
AcDbEntity
100
AcDbLine
  8
0
 62
3
420
65280
370
-1
 48
1.0
  6
BYLAYER
 10
-125.6768770535507969
 20
38.0629394644363472
 30
0.0
 11
-125.6768770535507969
 21
37.118638058205093
 31
0.0
  0
LINE
  5
BD
100
AcDbEntity
100
AcDbLine
  8
0
 62
256
370
-1
 48
1.0
  6
BYLAYER
 10
-56.3348771700004178
 20
86.8691810999999063
 30
0.0
 11
-56.3348771700004178
 21
85.9248796937686592
 31
0.0
  0
LINE
  5
BE
100
AcDbEntity
100
AcDbLine
  8
0
 62
256
370
-1
 48
1.0
  6
BYLAYER
 10
-56.3348771700004178
 20
61.707941099999907
 30
0.0
 11
-56.3348771700004178
 21
60.763639693768674
 31
0.0
  0
LINE
  5
BF
100
AcDbEntity
100
AcDbLine
  8
0
 62
256
370
-1
 48
1.0
  6
BYLAYER
 10
-133.1195719619994691
 20
108.8921320269288628
 30
0.0
 11
-133.1195719619994691
 21
107.5701099355280235
 31
0.0
  0
LINE
  5
C0
100
AcDbEntity
100
AcDbLine
  8
0
 62
256
370
-1
 48
1.0
  6
BYLAYER
 10
-62.5371228299996318
 20
112.0304210999999412
 30
0.0
 11
-62.5371228299996318
 21
111.0861196061421765
 31
0.0
  0
LINE
  5
C1
100
AcDbEntity
100
AcDbLine
  8
0
 62
256
370
-1
 48
1.0
  6
BYLAYER
 10
-171.5031227135494873
 20
-8.4910480943174171
 30
0.0
 11
-171.5031227135494873
 21
-9.4353495881751321
 31
0.0
  0
LINE
  5
C2
100
AcDbEntity
100
AcDbLine
  8
0
 62
256
370
-1
 48
1.0
  6
BYLAYER
 10
-171.5031227135494873
 20
41.0389519056825733
 30
0.0
 11
-171.5031227135494873
 21
40.0946504118248583
 31
0.0
  0
LINE
  5
C3
100
AcDbEntity
100
AcDbLine
  8
0
 62
3
420
65280
370
-1
 48
1.0
  6
BYLAYER
 10
-131.8791227135500037
 20
38.0629394644363472
 30
0.0
 11
-131.8791227135500037
 21
37.1186379705786322
 31
0.0
  0
LINE
  5
C4
100
AcDbEntity
100
AcDbLine
  8
0
 62
256
370
-1
 48
1.0
  6
BYLAYER
 10
-62.5371228299996318
 20
86.8691810999999063
 30
0.0
 11
-62.5371228299996318
 21
85.9248796061421984
 31
0.0
  0
LINE
  5
C5
100
AcDbEntity
100
AcDbLine
  8
0
 62
256
370
-1
 48
1.0
  6
BYLAYER
 10
-62.5371228299996318
 20
61.707941099999907
 30
0.0
 11
-62.5371228299996318
 21
60.7636396061422062
 31
0.0
  0
LINE
  5
C6
100
AcDbEntity
100
AcDbLine
  8
0
 62
256
370
-1
 48
1.0
  6
BYLAYER
 10
-124.4364280380005852
 20
108.8921320269288628
 30
0.0
 11
-133.1195719619994691
 21
108.8921320269288628
 31
0.0
  0
LINE
  5
C7
100
AcDbEntity
100
AcDbLine
  8
0
 62
256
370
-1
 48
1.0
  6
BYLAYER
 10
-56.3348771700004178
 20
112.0304210999999412
 30
0.0
 11
-62.5371228299996318
 21
112.0304210999999412
 31
0.0
  0
LINE
  5
C8
100
AcDbEntity
100
AcDbLine
  8
0
 62
256
370
-1
 48
1.0
  6
BYLAYER
 10
-56.3348771700004178
 20
61.707941099999907
 30
0.0
 11
-62.5371228299996318
 21
61.707941099999907
 31
0.0
  0
LINE
  5
C9
100
AcDbEntity
100
AcDbLine
  8
0
 62
3
420
65280
370
-1
 48
1.0
  6
BYLAYER
 10
-127.4223498722623731
 20
38.0629394644363472
 30
0.0
 11
-127.4223498369365899
 21
41.2961588044363239
 31
0.0
  0
LINE
  5
CA
100
AcDbEntity
100
AcDbLine
  8
0
 62
3
420
65280
370
-1
 48
1.0
  6
BYLAYER
 10
-58.0803499887120083
 20
86.8691810999999063
 30
0.0
 11
-58.0803499533862109
 21
90.102400439999883
 31
0.0
  0
LINE
  5
CB
100
AcDbEntity
100
AcDbLine
  8
0
 62
3
420
65280
370
-1
 48
1.0
  6
BYLAYER
 10
-130.1336495756163742
 20
41.2961588044363239
 30
0.0
 11
-130.1336496109421716
 21
38.0629394644363472
 31
0.0
  0
LINE
  5
CC
100
AcDbEntity
100
AcDbLine
  8
0
 62
3
420
65280
370
-1
 48
1.0
  6
BYLAYER
 10
-60.7916496920660094
 20
90.102400439999883
 30
0.0
 11
-60.7916497273917997
 21
86.8691810999999063
 31
0.0
  0
LINE
  5
CD
100
AcDbEntity
100
AcDbLine
  8
0
 62
3
420
65280
370
-1
 48
1.0
  6
BYLAYER
 10
-62.6440580999999881
 20
15.7886780999999328
 30
0.0
 11
-56.2279419000000615
 21
15.7886780999999328
 31
0.0
  0
LINE
  5
CE
100
AcDbEntity
100
AcDbLine
  8
0
 62
3
420
65280
370
-1
 48
1.0
  6
BYLAYER
 10
-62.6440580999999881
 20
9.3725618999999654
 30
0.0
 11
-56.2279419000000615
 21
9.3725618999999654
 31
0.0
  0
LINE
  5
CF
100
AcDbEntity
100
AcDbLine
  8
0
 62
3
420
65280
370
-1
 48
1.0
  6
BYLAYER
 10
-56.2279419000000615
 20
9.3725618999999654
 30
0.0
 11
-56.2279419000000615
 21
15.7886780999999328
 31
0.0
  0
LINE
  5
D0
100
AcDbEntity
100
AcDbLine
  8
0
 62
3
420
65280
370
-1
 48
1.0
  6
BYLAYER
 10
-62.6440580999999881
 20
9.3725618999999654
 30
0.0
 11
-62.6440580999999881
 21
15.7886780999999328
 31
0.0
  0
ARC
  5
D1
100
AcDbEntity
  8
0
 62
256
370
-1
 48
1.0
  6
BYLAYER
100
AcDbCircle
 10
-128.7779999999999916
 20
123.6869411469288593
 30
0.0
 40
17.6128679999999989
100
AcDbArc
 50
293.785749940276105
 51
246.2142500597239803
  0
ARC
  5
D2
100
AcDbEntity
  8
0
 62
256
370
-1
 48
1.0
  6
BYLAYER
100
AcDbCircle
 10
-59.4359999999999928
 20
122.5981418999999306
 30
0.0
 40
12.5806199999999997
100
AcDbArc
 50
293.785749940276105
 51
246.2142500597239803
  0
ARC
  5
D3
100
AcDbEntity
  8
0
 62
256
370
-1
 48
1.0
  6
BYLAYER
100
AcDbCircle
 10
-59.4359999999999928
 20
97.4369018999999525
 30
0.0
 40
12.5806199999999997
100
AcDbArc
 50
293.785749940276105
 51
246.2142500597239803
  0
ARC
  5
D4
100
AcDbEntity
  8
0
 62
256
370
-1
 48
1.0
  6
BYLAYER
100
AcDbCircle
 10
-168.4019999999999868
 20
6.6814815881751368
 30
0.0
 40
17.6128679999999989
100
AcDbArc
 50
106.1659935491153846
 51
246.2142500597239803
  0
ARC
  5
D5
100
AcDbEntity
  8
0
 62
256
370
-1
 48
1.0
  6
BYLAYER
100
AcDbCircle
 10
-168.4019999999999868
 20
6.6814815881751368
 30
0.0
 40
17.6128679999999989
100
AcDbArc
 50
293.785749940276105
 51
73.8340064508846012
  0
ARC
  5
D6
100
AcDbEntity
  8
0
 62
256
370
-1
 48
1.0
  6
BYLAYER
100
AcDbCircle
 10
-168.4019999999999868
 20
56.2114815881751255
 30
0.0
 40
17.6128679999999989
100
AcDbArc
 50
106.1659935491153846
 51
246.2142500597239803
  0
ARC
  5
D7
100
AcDbEntity
  8
0
 62
256
370
-1
 48
1.0
  6
BYLAYER
100
AcDbCircle
 10
-168.4019999999999868
 20
56.2114815881751255
 30
0.0
 40
17.6128679999999989
100
AcDbArc
 50
293.785749940276105
 51
73.8340064508846012
  0
ARC
  5
D8
100
AcDbEntity
  8
0
 62
256
370
-1
 48
1.0
  6
BYLAYER
100
AcDbCircle
 10
-128.7779999999999916
 20
53.2354691469288852
 30
0.0
 40
17.6128679999999989
100
AcDbArc
 50
106.1659935491153846
 51
246.2142500597239803
  0
ARC
  5
D9
100
AcDbEntity
  8
0
 62
256
370
-1
 48
1.0
  6
BYLAYER
100
AcDbCircle
 10
-128.7779999999999916
 20
53.2354691469288852
 30
0.0
 40
17.6128679999999989
100
AcDbArc
 50
293.785749940276105
 51
73.8340064508846012
  0
ARC
  5
DA
100
AcDbEntity
  8
0
 62
256
370
-1
 48
1.0
  6
BYLAYER
100
AcDbCircle
 10
-59.4359999999999928
 20
72.2756618999999603
 30
0.0
 40
12.5806199999999997
100
AcDbArc
 50
293.785749940276105
 51
246.2142500597239803
  0
CIRCLE
  5
DB
100
AcDbEntity
100
AcDbCircle
  8
0
 62
256
370
-1
 48
1.0
  6
BYLAYER
 10
-59.4359999999999928
 20
42.2833910371478083
 30
0.0
 40
12.5806199999999997
  0
CIRCLE
  5
DC
100
AcDbEntity
100
AcDbCircle
  8
0
 62
256
370
-1
 48
1.0
  6
BYLAYER
 10
-59.4359999999999928
 20
12.5806199999999961
 30
0.0
 40
12.5806199999999997
  0
CIRCLE
  5
DD
100
AcDbEntity
100
AcDbCircle
  8
0
 62
3
420
65280
370
-1
 48
1.0
  6
BYLAYER
 10
-59.4359999999999928
 20
42.2833910371478083
 30
0.0
 40
7.3974045600000125
  0
LINE
  5
DE
100
AcDbEntity
100
AcDbLine
  8
0
 62
256
370
-1
 48
1.0
  6
BYLAYER
 10
-124.4364280380005852
 20
107.5701100582050742
 30
0.0
 11
-121.6744181680674615
 21
107.5701100582050742
 31
0.0
  0
LINE
  5
DF
100
AcDbEntity
100
AcDbLine
  8
0
 62
256
370
-1
 48
1.0
  6
BYLAYER
 10
-56.3348771700004178
 20
111.0861196937686373
 30
0.0
 11
-54.3620129771910499
 21
111.0861196937686373
 31
0.0
  0
LINE
  5
E0
100
AcDbEntity
100
AcDbLine
  8
0
 62
256
370
-1
 48
1.0
  6
BYLAYER
 10
-56.3348771700004178
 20
85.9248796937686592
 30
0.0
 11
-54.3620129771910499
 21
85.9248796937686592
 31
0.0
  0
LINE
  5
E1
100
AcDbEntity
100
AcDbLine
  8
0
 62
256
370
-1
 48
1.0
  6
BYLAYER
 10
-165.3008770535502663
 20
-9.4353495005486696
 30
0.0
 11
-161.2984181680669167
 21
-9.4353495005486696
 31
0.0
  0
LINE
  5
E2
100
AcDbEntity
100
AcDbLine
  8
0
 62
256
370
-1
 48
1.0
  6
BYLAYER
 10
-165.3008770535502663
 20
40.0946504994513262
 30
0.0
 11
-161.2984181680669167
 21
40.0946504994513262
 31
0.0
  0
LINE
  5
E3
100
AcDbEntity
100
AcDbLine
  8
0
 62
3
420
65280
370
-1
 48
1.0
  6
BYLAYER
 10
-125.6768770535507969
 20
37.118638058205093
 30
0.0
 11
-121.6744181680674615
 21
37.118638058205093
 31
0.0
  0
LINE
  5
E4
100
AcDbEntity
100
AcDbLine
  8
0
 62
256
370
-1
 48
1.0
  6
BYLAYER
 10
-56.3348771700004178
 20
60.763639693768674
 30
0.0
 11
-54.3620129771910499
 21
60.763639693768674
 31
0.0
  0
LINE
  5
E5
100
AcDbEntity
100
AcDbLine
  8
0
 62
256
370
-1
 48
1.0
  6
BYLAYER
 10
-133.1195719619994691
 20
107.5701100582050742
 30
0.0
 11
-135.881581831932607
 21
107.5701100582050742
 31
0.0
  0
LINE
  5
E6
100
AcDbEntity
100
AcDbLine
  8
0
 62
256
370
-1
 48
1.0
  6
BYLAYER
 10
-62.5371228299996318
 20
111.0861196937686373
 30
0.0
 11
-64.5099870228089998
 21
111.0861196937686373
 31
0.0
  0
LINE
  5
E7
100
AcDbEntity
100
AcDbLine
  8
0
 62
256
370
-1
 48
1.0
  6
BYLAYER
 10
-62.5371228299996318
 20
85.9248796937686592
 30
0.0
 11
-64.5099870228089998
 21
85.9248796937686592
 31
0.0
  0
LINE
  5
E8
100
AcDbEntity
100
AcDbLine
  8
0
 62
256
370
-1
 48
1.0
  6
BYLAYER
 10
-171.5031227135494873
 20
-9.4353495005486696
 30
0.0
 11
-175.5055818319320906
 21
-9.4353495005486696
 31
0.0
  0
LINE
  5
E9
100
AcDbEntity
100
AcDbLine
  8
0
 62
256
370
-1
 48
1.0
  6
BYLAYER
 10
-171.5031227135494873
 20
40.0946504994513262
 30
0.0
 11
-175.5055818319320906
 21
40.0946504994513262
 31
0.0
  0
LINE
  5
EA
100
AcDbEntity
100
AcDbLine
  8
0
 62
3
420
65280
370
-1
 48
1.0
  6
BYLAYER
 10
-131.8791227135500037
 20
37.118638058205093
 30
0.0
 11
-135.881581831932607
 21
37.118638058205093
 31
0.0
  0
LINE
  5
EB
100
AcDbEntity
100
AcDbLine
  8
0
 62
256
370
-1
 48
1.0
  6
BYLAYER
 10
-62.5371228299996318
 20
60.763639693768674
 30
0.0
 11
-64.5099870228089998
 21
60.763639693768674
 31
0.0
  0
LINE
  5
EC
100
AcDbEntity
100
AcDbLine
  8
0
 62
256
370
-1
 48
1.0
  6
BYLAYER
 10
-165.3008770535502663
 20
-8.4910480943174171
 30
0.0
 11
-171.5031227135494873
 21
-8.4910480943174171
 31
0.0
  0
LINE
  5
ED
100
AcDbEntity
100
AcDbLine
  8
0
 62
256
370
-1
 48
1.0
  6
BYLAYER
 10
-165.3008770535502663
 20
41.0389519056825733
 30
0.0
 11
-171.5031227135494873
 21
41.0389519056825733
 31
0.0
  0
LINE
  5
EE
100
AcDbEntity
100
AcDbLine
  8
0
 62
3
420
65280
370
-1
 48
1.0
  6
BYLAYER
 10
-130.1336496109421716
 20
38.0629394644363472
 30
0.0
 11
-131.8791227135500037
 21
38.0629394644363472
 31
0.0
  0
LINE
  5
EF
100
AcDbEntity
100
AcDbLine
  8
0
 62
256
370
-1
 48
1.0
  6
BYLAYER
 10
-60.7916497273917997
 20
86.8691810999999063
 30
0.0
 11
-62.5371228299996318
 21
86.8691810999999063
 31
0.0
  0
LINE
  5
F0
100
AcDbEntity
100
AcDbLine
  8
0
 62
3
420
65280
370
-1
 48
1.0
  6
BYLAYER
 10
-127.4223498722623731
 20
38.0629394644363472
 30
0.0
 11
-125.6768770535507969
 21
38.0629394644363472
 31
0.0
  0
LINE
  5
F1
100
AcDbEntity
100
AcDbLine
  8
0
 62
256
370
-1
 48
1.0
  6
BYLAYER
 10
-58.0803499887120083
 20
86.8691810999999063
 30
0.0
 11
-56.3348771700004178
 21
86.8691810999999063
 31
0.0
  0
CIRCLE
  5
F2
100
AcDbEntity
100
AcDbCircle
  8
0
 62
3
420
65280
370
-1
 48
1.0
  6
BYLAYER
 10
-168.4019999999999868
 20
6.6814815881751368
 30
0.0
 40
8.7668099999999942
  0
CIRCLE
  5
F3
100
AcDbEntity
100
AcDbCircle
  8
0
 62
3
420
65280
370
-1
 48
1.0
  6
BYLAYER
 10
-168.4019999999999868
 20
56.2114815881751255
 30
0.0
 40
8.7668099999999942
  0
ARC
  5
F4
100
AcDbEntity
  8
0
 62
3
420
65280
370
-1
 48
1.0
  6
BYLAYER
100
AcDbCircle
 10
-128.7779999999999916
 20
53.2354691469288852
 30
0.0
 40
8.7668099999999942
100
AcDbArc
 50
278.8955907720395544
 51
261.1044113004230098
  0
CIRCLE
  5
F5
100
AcDbEntity
100
AcDbCircle
  8
0
 62
256
370
-1
 48
1.0
  6
BYLAYER
 10
-89.1539999999999964
 20
128.7779999999999916
 30
0.0
 40
8.7668099999999942
  0
CIRCLE
  5
F6
100
AcDbEntity
100
AcDbCircle
  8
0
 62
3
420
65280
370
-1
 48
1.0
  6
BYLAYER
 10
-168.4019999999999868
 20
24.2943495881751304
 30
0.0
 40
2.8479749999999999
  0
CIRCLE
  5
F7
100
AcDbEntity
100
AcDbCircle
  8
0
 62
3
420
65280
370
-1
 48
1.0
  6
BYLAYER
 10
-168.4019999999999868
 20
73.8243495881751244
 30
0.0
 40
2.8479749999999999
  0
CIRCLE
  5
F8
100
AcDbEntity
100
AcDbCircle
  8
0
 62
3
420
65280
370
-1
 48
1.0
  6
BYLAYER
 10
-128.7779999999999916
 20
70.8483371469288841
 30
0.0
 40
2.8479749999999999
  0
ARC
  5
F9
100
AcDbEntity
  8
0
 62
256
370
-1
 48
1.0
  6
BYLAYER
100
AcDbCircle
 10
-168.4019999999999868
 20
24.2943495881751304
 30
0.0
 40
4.9530000000000003
100
AcDbArc
 50
351.9170032254423859
 51
188.0829967745576425
  0
ARC
  5
FA
100
AcDbEntity
  8
0
 62
256
370
-1
 48
1.0
  6
BYLAYER
100
AcDbCircle
 10
-168.4019999999999868
 20
73.8243495881751244
 30
0.0
 40
4.9530000000000003
100
AcDbArc
 50
351.9170032254423859
 51
188.0829967745576425
  0
ARC
  5
FB
100
AcDbEntity
  8
0
 62
256
370
-1
 48
1.0
  6
BYLAYER
100
AcDbCircle
 10
-128.7779999999999916
 20
70.8483371469288841
 30
0.0
 40
4.9530000000000003
100
AcDbArc
 50
351.9170032254423859
 51
188.0829967745576425
  0
INSERT
  5
FC
100
AcDbEntity
100
AcDbBlockReference
  8
0
 62
256
370
-1
 48
1.0
  6
BYLAYER
  2
block 1
 10
0.0
 20
0.0
 30
0.0
  0
ENDSEC
  0
SECTION
  2
OBJECTS
  0
DICTIONARY
  5
C
100
AcDbDictionary
280
0
281
1
  3
ACAD_GROUP
350
D
  3
ACAD_LAYOUT
350
1A
  3
ACAD_MLINESTYLE
350
17
  3
ACAD_PLOTSETTINGS
350
19
  3
ACAD_PLOTSTYLENAME
350
E
  3
AcDbVariableDictionary
350
FD
  3
QCAD_OBJECTS
350
FE
  0
DICTIONARY
  5
D
100
AcDbDictionary
280
0
281
1
  0
ACDBDICTIONARYWDFLT
  5
E
100
AcDbDictionary
281
1
  3
Normal
350
F
100
AcDbDictionaryWithDefault
340
F
  0
ACDBPLACEHOLDER
  5
F
  0
DICTIONARY
  5
17
100
AcDbDictionary
280
0
281
1
  3
Standard
350
18
  0
MLINESTYLE
  5
18
100
AcDbMlineStyle
  2
STANDARD
 70
0
  3

 62
256
 51
90.0
 52
90.0
 71
2
 49
0.5
 62
256
  6
BYLAYER
 49
-0.5
 62
256
  6
BYLAYER
  0
DICTIONARY
  5
19
100
AcDbDictionary
280
0
281
1
  0
DICTIONARY
  5
1A
100
AcDbDictionary
281
1
  3
Layout1
350
1E
  3
Layout2
350
26
  3
Model
350
22
  0
LAYOUT
  5
1E
100
AcDbPlotSettings
  1

  2
none_device
  4

  6

 40
0.0
 41
0.0
 42
0.0
 43
0.0
 44
0.0
 45
0.0
 46
0.0
 47
0.0
 48
0.0
 49
0.0
140
0.0
141
0.0
142
1.0
143
1.0
 70
688
 72
0
 73
0
 74
5
  7

 75
16
147
1.0
148
0.0
149
0.0
100
AcDbLayout
  1
Layout1
 70
1
 71
1
 10
0.0
 20
0.0
 11
420.0
 21
297.0
 12
0.0
 22
0.0
 32
0.0
 14
100000000000000000000.0
 24
100000000000000000000.0
 34
100000000000000000000.0
 15
-100000000000000000000.0
 25
-100000000000000000000.0
 35
-100000000000000000000.0
146
0.0
 13
0.0
 23
0.0
 33
0.0
 16
1.0
 26
0.0
 36
0.0
 17
0.0
 27
1.0
 37
0.0
 76
0
330
1B
  0
LAYOUT
  5
22
100
AcDbPlotSettings
  1

  2
none_device
  4

  6

 40
0.0
 41
0.0
 42
0.0
 43
0.0
 44
0.0
 45
0.0
 46
0.0
 47
0.0
 48
0.0
 49
0.0
140
0.0
141
0.0
142
1.0
143
1.0
 70
1712
 72
0
 73
0
 74
0
  7

 75
0
147
1.0
148
0.0
149
0.0
100
AcDbLayout
  1
Model
 70
1
 71
0
 10
0.0
 20
0.0
 11
12.0
 21
9.0
 12
0.0
 22
0.0
 32
0.0
 14
0.0
 24
0.0
 34
0.0
 15
0.0
 25
0.0
 35
0.0
146
0.0
 13
0.0
 23
0.0
 33
0.0
 16
1.0
 26
0.0
 36
0.0
 17
0.0
 27
1.0
 37
0.0
 76
0
330
1F
  0
LAYOUT
  5
26
100
AcDbPlotSettings
  1

  2
none_device
  4

  6

 40
0.0
 41
0.0
 42
0.0
 43
0.0
 44
0.0
 45
0.0
 46
0.0
 47
0.0
 48
0.0
 49
0.0
140
0.0
141
0.0
142
1.0
143
1.0
 70
688
 72
0
 73
0
 74
5
  7

 75
16
147
1.0
148
0.0
149
0.0
100
AcDbLayout
  1
Layout2
 70
1
 71
2
 10
0.0
 20
0.0
 11
12.0
 21
9.0
 12
0.0
 22
0.0
 32
0.0
 14
0.0
 24
0.0
 34
0.0
 15
0.0
 25
0.0
 35
0.0
146
0.0
 13
0.0
 23
0.0
 33
0.0
 16
1.0
 26
0.0
 36
0.0
 17
0.0
 27
1.0
 37
0.0
 76
0
330
23
  0
DICTIONARY
  5
FD
100
AcDbDictionary
281
1
  3
DIMASSOC
350
100
  3
HIDETEXT
350
FF
  0
DICTIONARYVAR
  5
FF
100
DictionaryVariables
280
0
  1
2
  0
DICTIONARYVAR
  5
100
100
DictionaryVariables
280
0
  1
1
  0
DICTIONARY
  5
FE
100
AcDbDictionary
281
1
  3
ColorSettings/BackgroundColor
350
101
  3
ColorSettings/ColorMode
350
102
  3
DimensionSettings/AngularFormat
350
103
  3
DimensionSettings/AngularPrecision
350
104
  3
DimensionSettings/DimensionFont
350
105
  3
DimensionSettings/KeepProportions
350
106
  3
DimensionSettings/LinearFormat
350
107
  3
DimensionSettings/LinearPrecision
350
108
  3
Grid/DisplayGrid00
350
109
  3
Grid/DisplayGrid01
350
10A
  3
Grid/DisplayGrid02
350
10B
  3
Grid/DisplayGrid03
350
10C
  3
Grid/GridSpacingX00
350
10D
  3
Grid/GridSpacingX01
350
10E
  3
Grid/GridSpacingX02
350
10F
  3
Grid/GridSpacingX03
350
110
  3
Grid/GridSpacingY00
350
111
  3
Grid/GridSpacingY01
350
112
  3
Grid/GridSpacingY02
350
113
  3
Grid/GridSpacingY03
350
114
  3
Grid/IsometricGrid00
350
115
  3
Grid/IsometricGrid01
350
116
  3
Grid/IsometricGrid02
350
117
  3
Grid/IsometricGrid03
350
118
  3
Grid/IsometricProjection00
350
119
  3
Grid/IsometricProjection01
350
11A
  3
Grid/IsometricProjection02
350
11B
  3
Grid/IsometricProjection03
350
11C
  3
Grid/MetaGridSpacingX00
350
11D
  3
Grid/MetaGridSpacingX01
350
11E
  3
Grid/MetaGridSpacingX02
350
11F
  3
Grid/MetaGridSpacingX03
350
120
  3
Grid/MetaGridSpacingY00
350
121
  3
Grid/MetaGridSpacingY01
350
122
  3
Grid/MetaGridSpacingY02
350
123
  3
Grid/MetaGridSpacingY03
350
124
  3
MultiPageSettings/Columns
350
125
  3
MultiPageSettings/GlueMarginsBottom
350
126
  3
MultiPageSettings/GlueMarginsLeft
350
127
  3
MultiPageSettings/GlueMarginsRight
350
128
  3
MultiPageSettings/GlueMarginsTop
350
129
  3
MultiPageSettings/PrintCropMarks
350
12A
  3
MultiPageSettings/Rows
350
12B
  3
PageSettings/OffsetX
350
12C
  3
PageSettings/OffsetY
350
12D
  3
PageSettings/PageOrientation
350
12E
  3
PageSettings/PaperHeight
350
12F
  3
PageSettings/PaperWidth
350
130
  3
PageSettings/Scale
350
131
  3
PageSettings/ShowPaperBorders
350
132
  3
QCADVersion
350
133
  3
UnitSettings/PaperUnit
350
134
  0
XRECORD
  5
101
330
FE
100
AcDbXrecord
280
1
1000
White
  0
XRECORD
  5
102
330
FE
100
AcDbXrecord
280
1
1000
FullColor
  0
XRECORD
  5
103
330
FE
100
AcDbXrecord
280
1
 90
0
  0
XRECORD
  5
104
330
FE
100
AcDbXrecord
280
1
 90
1
  0
XRECORD
  5
105
330
FE
100
AcDbXrecord
280
1
1000
Helvetica
  0
XRECORD
  5
106
330
FE
100
AcDbXrecord
280
1
290
1
  0
XRECORD
  5
107
330
FE
100
AcDbXrecord
280
1
 90
2
  0
XRECORD
  5
108
330
FE
100
AcDbXrecord
280
1
 90
3
  0
XRECORD
  5
109
330
FE
100
AcDbXrecord
280
1
290
1
  0
XRECORD
  5
10A
330
FE
100
AcDbXrecord
280
1
290
1
  0
XRECORD
  5
10B
330
FE
100
AcDbXrecord
280
1
290
1
  0
XRECORD
  5
10C
330
FE
100
AcDbXrecord
280
1
290
1
  0
XRECORD
  5
10D
330
FE
100
AcDbXrecord
280
1
1000
auto
  0
XRECORD
  5
10E
330
FE
100
AcDbXrecord
280
1
1000
auto
  0
XRECORD
  5
10F
330
FE
100
AcDbXrecord
280
1
1000
auto
  0
XRECORD
  5
110
330
FE
100
AcDbXrecord
280
1
1000
auto
  0
XRECORD
  5
111
330
FE
100
AcDbXrecord
280
1
1000
auto
  0
XRECORD
  5
112
330
FE
100
AcDbXrecord
280
1
1000
auto
  0
XRECORD
  5
113
330
FE
100
AcDbXrecord
280
1
1000
auto
  0
XRECORD
  5
114
330
FE
100
AcDbXrecord
280
1
1000
auto
  0
XRECORD
  5
115
330
FE
100
AcDbXrecord
280
1
290
0
  0
XRECORD
  5
116
330
FE
100
AcDbXrecord
280
1
290
0
  0
XRECORD
  5
117
330
FE
100
AcDbXrecord
280
1
290
0
  0
XRECORD
  5
118
330
FE
100
AcDbXrecord
280
1
290
0
  0
XRECORD
  5
119
330
FE
100
AcDbXrecord
280
1
 90
0
  0
XRECORD
  5
11A
330
FE
100
AcDbXrecord
280
1
 90
0
  0
XRECORD
  5
11B
330
FE
100
AcDbXrecord
280
1
 90
0
  0
XRECORD
  5
11C
330
FE
100
AcDbXrecord
280
1
 90
0
  0
XRECORD
  5
11D
330
FE
100
AcDbXrecord
280
1
1000
auto
  0
XRECORD
  5
11E
330
FE
100
AcDbXrecord
280
1
1000
auto
  0
XRECORD
  5
11F
330
FE
100
AcDbXrecord
280
1
1000
auto
  0
XRECORD
  5
120
330
FE
100
AcDbXrecord
280
1
1000
auto
  0
XRECORD
  5
121
330
FE
100
AcDbXrecord
280
1
1000
auto
  0
XRECORD
  5
122
330
FE
100
AcDbXrecord
280
1
1000
auto
  0
XRECORD
  5
123
330
FE
100
AcDbXrecord
280
1
1000
auto
  0
XRECORD
  5
124
330
FE
100
AcDbXrecord
280
1
1000
auto
  0
XRECORD
  5
125
330
FE
100
AcDbXrecord
280
1
 90
1
  0
XRECORD
  5
126
330
FE
100
AcDbXrecord
280
1
 40
0.5
  0
XRECORD
  5
127
330
FE
100
AcDbXrecord
280
1
 40
0.5
  0
XRECORD
  5
128
330
FE
100
AcDbXrecord
280
1
 40
0.5
  0
XRECORD
  5
129
330
FE
100
AcDbXrecord
280
1
 40
0.5
  0
XRECORD
  5
12A
330
FE
100
AcDbXrecord
280
1
290
0
  0
XRECORD
  5
12B
330
FE
100
AcDbXrecord
280
1
 90
1
  0
XRECORD
  5
12C
330
FE
100
AcDbXrecord
280
1
 40
0.0
  0
XRECORD
  5
12D
330
FE
100
AcDbXrecord
280
1
 40
0.0
  0
XRECORD
  5
12E
330
FE
100
AcDbXrecord
280
1
1000
Portrait
  0
XRECORD
  5
12F
330
FE
100
AcDbXrecord
280
1
 40
11.6929999999999996
  0
XRECORD
  5
130
330
FE
100
AcDbXrecord
280
1
 40
8.2680000000000007
  0
XRECORD
  5
131
330
FE
100
AcDbXrecord
280
1
1000
1" = 1"
  0
XRECORD
  5
132
330
FE
100
AcDbXrecord
280
1
290
1
  0
XRECORD
  5
133
330
FE
100
AcDbXrecord
280
1
1000
3.11.3
  0
XRECORD
  5
134
330
FE
100
AcDbXrecord
280
1
 90
1
  0
ENDSEC
  0
EOF
