999
dxflib 3.7.5.0
  0
SECTION
  2
HEADER
  9
$ACADVER
  1
AC1015
  9
$HANDSEED
  5
FFFF
  9
$DIMADEC
 70
0
  9
$DIMASZ
 40
0.125
  9
$DIMAUNIT
 70
0
  9
$DIMAZIN
 70
2
  9
$DIMDEC
 70
4
  9
$DIMEXE
 40
0.0625
  9
$DIMEXO
 40
0.03125
  9
$DIMGAP
 40
0.03125
  9
$DIMLUNIT
 70
3
  9
$DIMSCALE
 40
1.0
  9
$DIMTSZ
 40
0.0
  9
$DIMTXT
 40
0.125
  9
$DIMZIN
 70
8
  9
$DWGCODEPAGE
  3
ANSI_1252
  9
$INSUNITS
 70
1
  9
$LTSCALE
 40
1.0
  9
$MEASUREMENT
 70
0
  9
$PDMODE
 70
0
  9
$PDSIZE
 40
0
  0
ENDSEC
  0
SECTION
  2
TABLES
  0
TABLE
  2
VPORT
  5
8
100
AcDbSymbolTable
 70
1
  0
VPORT
  5
30
100
AcDbSymbolTableRecord
100
AcDbViewportTableRecord
  2
*Active
 70
0
 10
0.0
 20
0.0
 11
1.0
 21
1.0
 12
286.3055555555554861
 22
148.5
 13
0.0
 23
0.0
 14
10.0
 24
10.0
 15
10.0
 25
10.0
 16
0.0
 26
0.0
 36
1.0
 17
0.0
 27
0.0
 37
0.0
 40
297.0
 41
1.92798353909465
 42
50.0
 43
0.0
 44
0.0
 50
0.0
 51
0.0
 71
0
 72
100
 73
1
 74
3
 75
1
 76
1
 77
0
 78
0
281
0
 65
1
110
0.0
120
0.0
130
0.0
111
1.0
121
0.0
131
0.0
112
0.0
122
1.0
132
0.0
 79
0
146
0.0
  0
ENDTAB
  0
TABLE
  2
LTYPE
  5
5
100
AcDbSymbolTable
 70
50
  0
LTYPE
  5
16
100
AcDbSymbolTableRecord
100
AcDbLinetypeTableRecord
  2
Continuous
 70
0
  3
Solid line
 72
65
 73
0
 40
0.0
  0
LTYPE
  5
31
100
AcDbSymbolTableRecord
100
AcDbLinetypeTableRecord
  2
ACAD_ISO15W100
 70
0
  3
ISO double-dash triple-dot __ __ . . . __ __ . .
 72
65
 73
10
 40
39.0000000000000071
 49
12.0
 74
0
 49
-3.0
 74
0
 49
12.0
 74
0
 49
-2.9500000000000002
 74
0
 49
0.1
 74
0
 49
-2.9000000000000004
 74
0
 49
0.1
 74
0
 49
-2.9000000000000004
 74
0
 49
0.1
 74
0
 49
-2.9500000000000002
 74
0
  0
LTYPE
  5
32
100
AcDbSymbolTableRecord
100
AcDbLinetypeTableRecord
  2
HOT_WATER_SUPPLY
 70
0
  3
Hot water supply ---- HW ---- HW ---- HW ----
 72
65
 73
3
 40
22.8599999999999994
 49
12.6999999999999993
 74
0
 49
-5.0800000000000001
 74
0
 49
-5.0800000000000001
 74
0
  0
LTYPE
  5
33
100
AcDbSymbolTableRecord
100
AcDbLinetypeTableRecord
  2
DIVIDE
 70
0
  3
Divide ____ . . ____ . . ____ . . ____ . . ____
 72
65
 73
6
 40
31.7500000000000036
 49
12.6999999999999993
 74
0
 49
-6.2999999999999998
 74
0
 49
0.1
 74
0
 49
-6.25
 74
0
 49
0.1
 74
0
 49
-6.2999999999999998
 74
0
  0
LTYPE
  5
34
100
AcDbSymbolTableRecord
100
AcDbLinetypeTableRecord
  2
ACAD_ISO10W100
 70
0
  3
ISO dash dot __ . __ . __ . __ . __ . __ . __ . 
 72
65
 73
4
 40
18.0
 49
12.0
 74
0
 49
-2.9500000000000002
 74
0
 49
0.1
 74
0
 49
-2.9500000000000002
 74
0
  0
LTYPE
  5
35
100
AcDbSymbolTableRecord
100
AcDbLinetypeTableRecord
  2
GAS_LINE
 70
0
  3
Gas line ----GAS----GAS----GAS----GAS----GAS----GAS--
 72
65
 73
3
 40
24.1300000000000026
 49
12.6999999999999993
 74
0
 49
-5.0800000000000001
 74
0
 49
-6.3499999999999996
 74
0
  0
LTYPE
  5
36
100
AcDbSymbolTableRecord
100
AcDbLinetypeTableRecord
  2
ACAD_ISO04W100
 70
0
  3
ISO long-dash dot ____ . ____ . ____ . ____ . _
 72
65
 73
4
 40
30.0
 49
24.0
 74
0
 49
-2.9500000000000002
 74
0
 49
0.1
 74
0
 49
-2.9500000000000002
 74
0
  0
LTYPE
  5
37
100
AcDbSymbolTableRecord
100
AcDbLinetypeTableRecord
  2
CENTER2
 70
0
  3
Center (.5x) ___ _ ___ _ ___ _ ___ _ ___ _ ___
 72
65
 73
4
 40
28.5750000000000028
 49
19.0500000000000007
 74
0
 49
-3.1749999999999998
 74
0
 49
3.1749999999999998
 74
0
 49
-3.1749999999999998
 74
0
  0
LTYPE
  5
38
100
AcDbSymbolTableRecord
100
AcDbLinetypeTableRecord
  2
ACAD_ISO11W100
 70
0
  3
ISO double-dash dot __ __ . __ __ . __ __ . __ _
 72
65
 73
6
 40
33.0
 49
12.0
 74
0
 49
-3.0
 74
0
 49
12.0
 74
0
 49
-2.9500000000000002
 74
0
 49
0.1
 74
0
 49
-2.9500000000000002
 74
0
  0
LTYPE
  5
39
100
AcDbSymbolTableRecord
100
AcDbLinetypeTableRecord
  2
HIDDEN2
 70
0
  3
Hidden (.5x) _ _ _ _ _ _ _ _ _ _ _ _ _ _ _ _ _ 
 72
65
 73
2
 40
4.7624999999999993
 49
3.1749999999999998
 74
0
 49
-1.5874999999999999
 74
0
  0
LTYPE
  5
3A
100
AcDbSymbolTableRecord
100
AcDbLinetypeTableRecord
  2
BORDERX2
 70
0
  3
Border (2x) ____  ____  .  ____  ____  .  ___
 72
65
 73
6
 40
88.8999999999999773
 49
25.3999999999999986
 74
0
 49
-12.6999999999999993
 74
0
 49
25.3999999999999986
 74
0
 49
-12.6499999999999986
 74
0
 49
0.1
 74
0
 49
-12.6499999999999986
 74
0
  0
LTYPE
  5
3B
100
AcDbSymbolTableRecord
100
AcDbLinetypeTableRecord
  2
ACAD_ISO05W100
 70
0
  3
ISO long-dash double-dot ____ .. ____ .. ____ . 
 72
65
 73
6
 40
33.0000000000000071
 49
24.0
 74
0
 49
-2.9500000000000002
 74
0
 49
0.1
 74
0
 49
-2.9000000000000004
 74
0
 49
0.1
 74
0
 49
-2.9500000000000002
 74
0
  0
LTYPE
  5
3C
100
AcDbSymbolTableRecord
100
AcDbLinetypeTableRecord
  2
DASHDOTX2
 70
0
  3
Dash dot (2x) ____  .  ____  .  ____  .  ___
 72
65
 73
4
 40
50.7999999999999972
 49
25.3999999999999986
 74
0
 49
-12.6499999999999986
 74
0
 49
0.1
 74
0
 49
-12.6499999999999986
 74
0
  0
LTYPE
  5
3D
100
AcDbSymbolTableRecord
100
AcDbLinetypeTableRecord
  2
HIDDENX2
 70
0
  3
Hidden (2x) ____ ____ ____ ____ ____ ____ ____ 
 72
65
 73
2
 40
19.0499999999999972
 49
12.6999999999999993
 74
0
 49
-6.3499999999999996
 74
0
  0
LTYPE
  5
3E
100
AcDbSymbolTableRecord
100
AcDbLinetypeTableRecord
  2
CENTERX2
 70
0
  3
Center (2x) ________  __  ________  __  _____
 72
65
 73
4
 40
101.6000000000000085
 49
63.5
 74
0
 49
-12.6999999999999993
 74
0
 49
12.6999999999999993
 74
0
 49
-12.6999999999999993
 74
0
  0
LTYPE
  5
3F
100
AcDbSymbolTableRecord
100
AcDbLinetypeTableRecord
  2
BORDER2
 70
0
  3
Border (.5x) __.__.__.__.__.__.__.__.__.__.__.
 72
65
 73
6
 40
22.2250000000000014
 49
6.3499999999999996
 74
0
 49
-3.1749999999999998
 74
0
 49
6.3499999999999996
 74
0
 49
-3.125
 74
0
 49
0.1
 74
0
 49
-3.125
 74
0
  0
LTYPE
  5
40
100
AcDbSymbolTableRecord
100
AcDbLinetypeTableRecord
  2
DASHDOT2
 70
0
  3
Dash dot (.5x) _._._._._._._._._._._._._._._.
 72
65
 73
4
 40
12.6999999999999993
 49
6.3499999999999996
 74
0
 49
-3.125
 74
0
 49
0.1
 74
0
 49
-3.125
 74
0
  0
LTYPE
  5
41
100
AcDbSymbolTableRecord
100
AcDbLinetypeTableRecord
  2
ACAD_ISO12W100
 70
0
  3
ISO dash double-dot __ . . __ . . __ . . __ . . 
 72
65
 73
6
 40
21.0
 49
12.0
 74
0
 49
-2.9500000000000002
 74
0
 49
0.1
 74
0
 49
-2.9000000000000004
 74
0
 49
0.1
 74
0
 49
-2.9500000000000002
 74
0
  0
LTYPE
  5
42
100
AcDbSymbolTableRecord
100
AcDbLinetypeTableRecord
  2
ACAD_ISO07W100
 70
0
  3
ISO dot . . . . . . . . . . . . . . . . . . . . 
 72
65
 73
2
 40
3.0
 49
0.1
 74
0
 49
-2.8999999999999999
 74
0
  0
LTYPE
  5
43
100
AcDbSymbolTableRecord
100
AcDbLinetypeTableRecord
  2
ACAD_ISO06W100
 70
0
  3
ISO long-dash triple-dot ____ ... ____ ... ____
 72
65
 73
8
 40
36.0000000000000071
 49
24.0
 74
0
 49
-2.9500000000000002
 74
0
 49
0.1
 74
0
 49
-2.9000000000000004
 74
0
 49
0.1
 74
0
 49
-2.9000000000000004
 74
0
 49
0.1
 74
0
 49
-2.9500000000000002
 74
0
  0
LTYPE
  5
44
100
AcDbSymbolTableRecord
100
AcDbLinetypeTableRecord
  2
CENTER
 70
0
  3
Center ____ _ ____ _ ____ _ ____ _ ____ _ ____
 72
65
 73
4
 40
50.8000000000000043
 49
31.75
 74
0
 49
-6.3499999999999996
 74
0
 49
6.3499999999999996
 74
0
 49
-6.3499999999999996
 74
0
  0
LTYPE
  5
45
100
AcDbSymbolTableRecord
100
AcDbLinetypeTableRecord
  2
HIDDEN
 70
0
  3
Hidden __ __ __ __ __ __ __ __ __ __ __ __ __ __
 72
65
 73
2
 40
9.5249999999999986
 49
6.3499999999999996
 74
0
 49
-3.1749999999999998
 74
0
  0
LTYPE
  5
46
100
AcDbSymbolTableRecord
100
AcDbLinetypeTableRecord
  2
DOTX2
 70
0
  3
Dot (2x) .  .  .  .  .  .  .  .  .  .  .  .  .  .
 72
65
 73
2
 40
12.6999999999999993
 49
0.1
 74
0
 49
-12.5999999999999996
 74
0
  0
LTYPE
  5
47
100
AcDbSymbolTableRecord
100
AcDbLinetypeTableRecord
  2
PHANTOM
 70
0
  3
Phantom ______  __  __  ______  __  __  ______ 
 72
65
 73
6
 40
63.5000000000000071
 49
31.75
 74
0
 49
-6.3499999999999996
 74
0
 49
6.3499999999999996
 74
0
 49
-6.3499999999999996
 74
0
 49
6.3499999999999996
 74
0
 49
-6.3499999999999996
 74
0
  0
LTYPE
  5
48
100
AcDbSymbolTableRecord
100
AcDbLinetypeTableRecord
  2
ACAD_ISO08W100
 70
0
  3
ISO long-dash short-dash ____ __ ____ __ ____ _
 72
65
 73
4
 40
36.0
 49
24.0
 74
0
 49
-3.0
 74
0
 49
6.0
 74
0
 49
-3.0
 74
0
  0
LTYPE
  5
49
100
AcDbSymbolTableRecord
100
AcDbLinetypeTableRecord
  2
DASHEDX2
 70
0
  3
Dashed (2x) ____  ____  ____  ____  ____  ___
 72
65
 73
2
 40
38.0999999999999943
 49
25.3999999999999986
 74
0
 49
-12.6999999999999993
 74
0
  0
LTYPE
  5
4A
100
AcDbSymbolTableRecord
100
AcDbLinetypeTableRecord
  2
DRAINAGE
 70
0
  3
Drainage ---->---->---->----
 72
65
 73
2
 40
10.1600000000000001
 49
5.0800000000000001
 74
0
 49
5.0800000000000001
 74
0
  0
LTYPE
  5
4B
100
AcDbSymbolTableRecord
100
AcDbLinetypeTableRecord
  2
ACAD_ISO02W100
 70
0
  3
ISO dash __ __ __ __ __ __ __ __ __ __ __ __ __
 72
65
 73
2
 40
15.0
 49
12.0
 74
0
 49
-3.0
 74
0
  0
LTYPE
  5
4C
100
AcDbSymbolTableRecord
100
AcDbLinetypeTableRecord
  2
PHANTOM2
 70
0
  3
Phantom (.5x) ___ _ _ ___ _ _ ___ _ _ ___ _ _
 72
65
 73
6
 40
31.7500000000000036
 49
15.875
 74
0
 49
-3.1749999999999998
 74
0
 49
3.1749999999999998
 74
0
 49
-3.1749999999999998
 74
0
 49
3.1749999999999998
 74
0
 49
-3.1749999999999998
 74
0
  0
LTYPE
  5
4D
100
AcDbSymbolTableRecord
100
AcDbLinetypeTableRecord
  2
DASHED2
 70
0
  3
Dashed (.5x) _ _ _ _ _ _ _ _ _ _ _ _ _ _ _ _ _ 
 72
65
 73
2
 40
9.5249999999999986
 49
6.3499999999999996
 74
0
 49
-3.1749999999999998
 74
0
  0
LTYPE
  5
4E
100
AcDbSymbolTableRecord
100
AcDbLinetypeTableRecord
  2
ACAD_ISO09W100
 70
0
  3
ISO long-dash double-short-dash ____ __ __ ____
 72
65
 73
6
 40
45.0
 49
24.0
 74
0
 49
-3.0
 74
0
 49
6.0
 74
0
 49
-3.0
 74
0
 49
6.0
 74
0
 49
-3.0
 74
0
  0
LTYPE
  5
4F
100
AcDbSymbolTableRecord
100
AcDbLinetypeTableRecord
  2
ACAD_ISO13W100
 70
0
  3
ISO double-dash double-dot __ __ . . __ __ . . _
 72
65
 73
8
 40
36.0000000000000071
 49
12.0
 74
0
 49
-3.0
 74
0
 49
12.0
 74
0
 49
-2.9500000000000002
 74
0
 49
0.1
 74
0
 49
-2.9000000000000004
 74
0
 49
0.1
 74
0
 49
-2.9500000000000002
 74
0
  0
LTYPE
  5
50
100
AcDbSymbolTableRecord
100
AcDbLinetypeTableRecord
  2
TRACKS
 70
0
  3
Tracks -|-|-|-|-|-|-|-|-|-|-|-|-|-|-|-|-|-|-|-|-|-|-|-|-
 72
65
 73
2
 40
7.6200000000000001
 49
3.8100000000000001
 74
0
 49
3.8100000000000001
 74
0
  0
LTYPE
  5
51
100
AcDbSymbolTableRecord
100
AcDbLinetypeTableRecord
  2
DRAINAGE2
 70
0
  3
Drainage reversed----<----<----<----
 72
65
 73
2
 40
10.1600000000000001
 49
5.0800000000000001
 74
0
 49
5.0800000000000001
 74
0
  0
LTYPE
  5
52
100
AcDbSymbolTableRecord
100
AcDbLinetypeTableRecord
  2
DOT2
 70
0
  3
Dot (.5x) ........................................
 72
65
 73
2
 40
3.1749999999999998
 49
0.1
 74
0
 49
-3.0749999999999997
 74
0
  0
LTYPE
  5
53
100
AcDbSymbolTableRecord
100
AcDbLinetypeTableRecord
  2
ZIGZAG
 70
0
  3
Zig zag /\/\/\/\/\/\/\/\/\/\/\/\/\/\/\/\/\/\/\/\/\/\/\/
 72
65
 73
4
 40
20.32254
 49
0.00254
 74
0
 49
-5.0800000000000001
 74
0
 49
-10.1600000000000001
 74
0
 49
-5.0800000000000001
 74
0
  0
LTYPE
  5
54
100
AcDbSymbolTableRecord
100
AcDbLinetypeTableRecord
  2
DASHED
 70
0
  3
Dashed __ __ __ __ __ __ __ __ __ __ __ __ __ _
 72
65
 73
2
 40
19.0499999999999972
 49
12.6999999999999993
 74
0
 49
-6.3499999999999996
 74
0
  0
LTYPE
  5
55
100
AcDbSymbolTableRecord
100
AcDbLinetypeTableRecord
  2
ACAD_ISO14W100
 70
0
  3
ISO dash triple-dot __ . . . __ . . . __ . . . _
 72
65
 73
8
 40
24.0000000000000036
 49
12.0
 74
0
 49
-2.9500000000000002
 74
0
 49
0.1
 74
0
 49
-2.9000000000000004
 74
0
 49
0.1
 74
0
 49
-2.9000000000000004
 74
0
 49
0.1
 74
0
 49
-2.9500000000000002
 74
0
  0
LTYPE
  5
15
100
AcDbSymbolTableRecord
100
AcDbLinetypeTableRecord
  2
BYLAYER
 70
0
  3

 72
65
 73
0
 40
0.0
  0
LTYPE
  5
56
100
AcDbSymbolTableRecord
100
AcDbLinetypeTableRecord
  2
PHANTOMX2
 70
0
  3
Phantom (2x) ____________    ____    ____   _
 72
65
 73
6
 40
127.0000000000000142
 49
63.5
 74
0
 49
-12.6999999999999993
 74
0
 49
12.6999999999999993
 74
0
 49
-12.6999999999999993
 74
0
 49
12.6999999999999993
 74
0
 49
-12.6999999999999993
 74
0
  0
LTYPE
  5
14
100
AcDbSymbolTableRecord
100
AcDbLinetypeTableRecord
  2
BYBLOCK
 70
0
  3

 72
65
 73
0
 40
0.0
  0
LTYPE
  5
57
100
AcDbSymbolTableRecord
100
AcDbLinetypeTableRecord
  2
DIVIDEX2
 70
0
  3
Divide (2x) ________  .  .  ________  .  .  _
 72
65
 73
6
 40
63.5
 49
25.3999999999999986
 74
0
 49
-12.6499999999999986
 74
0
 49
0.1
 74
0
 49
-12.5999999999999979
 74
0
 49
0.1
 74
0
 49
-12.6499999999999986
 74
0
  0
LTYPE
  5
58
100
AcDbSymbolTableRecord
100
AcDbLinetypeTableRecord
  2
BORDER
 70
0
  3
Border __ __ . __ __ . __ __ . __ __ . __ __ .
 72
65
 73
6
 40
44.4499999999999957
 49
12.6999999999999993
 74
0
 49
-6.3499999999999996
 74
0
 49
12.6999999999999993
 74
0
 49
-6.2999999999999998
 74
0
 49
0.1
 74
0
 49
-6.2999999999999998
 74
0
  0
LTYPE
  5
59
100
AcDbSymbolTableRecord
100
AcDbLinetypeTableRecord
  2
DIVIDE2
 70
0
  3
Divide (.5x) __..__..__..__..__..__..__..__.._
 72
65
 73
6
 40
15.8749999999999982
 49
6.3499999999999996
 74
0
 49
-3.125
 74
0
 49
0.1
 74
0
 49
-3.0750000000000002
 74
0
 49
0.1
 74
0
 49
-3.125
 74
0
  0
LTYPE
  5
5A
100
AcDbSymbolTableRecord
100
AcDbLinetypeTableRecord
  2
DOT
 70
0
  3
Dot . . . . . . . . . . . . . . . . . . . . . . . .
 72
65
 73
2
 40
6.3499999999999996
 49
0.1
 74
0
 49
-6.25
 74
0
  0
LTYPE
  5
5B
100
AcDbSymbolTableRecord
100
AcDbLinetypeTableRecord
  2
DASHDOT
 70
0
  3
Dash dot __ . __ . __ . __ . __ . __ . __ . __
 72
65
 73
4
 40
25.4000000000000021
 49
12.6999999999999993
 74
0
 49
-6.2999999999999998
 74
0
 49
0.1
 74
0
 49
-6.2999999999999998
 74
0
  0
LTYPE
  5
5C
100
AcDbSymbolTableRecord
100
AcDbLinetypeTableRecord
  2
FENCELINE1
 70
0
  3
Fenceline circle ----0-----0----0-----0----0-----0--
 72
65
 73
4
 40
36.8299999999999983
 49
6.3499999999999996
 74
0
 49
-2.54
 74
0
 49
-2.54
 74
0
 49
25.3999999999999986
 74
0
  0
LTYPE
  5
5D
100
AcDbSymbolTableRecord
100
AcDbLinetypeTableRecord
  2
BATTING
 70
0
  3
Batting SSSSSSSSSSSSSSSSSSSSSSSSSSSSSSSSSSSSSSSSSSSSSSS
 72
65
 73
4
 40
10.1625399999999999
 49
0.00254
 74
0
 49
-2.54
 74
0
 49
-5.0800000000000001
 74
0
 49
-2.54
 74
0
  0
LTYPE
  5
5E
100
AcDbSymbolTableRecord
100
AcDbLinetypeTableRecord
  2
ACAD_ISO03W100
 70
0
  3
ISO dash space __    __    __    __    __    __
 72
65
 73
2
 40
30.0
 49
12.0
 74
0
 49
-18.0
 74
0
  0
LTYPE
  5
5F
100
AcDbSymbolTableRecord
100
AcDbLinetypeTableRecord
  2
FENCELINE2
 70
0
  3
Fenceline square ----[]-----[]----[]-----[]----[]---
 72
65
 73
4
 40
36.8299999999999983
 49
6.3499999999999996
 74
0
 49
-2.54
 74
0
 49
-2.54
 74
0
 49
25.3999999999999986
 74
0
  0
ENDTAB
  0
TABLE
  2
LAYER
  5
2
100
AcDbSymbolTable
 70
1
  0
LAYER
  5
10
100
AcDbSymbolTableRecord
100
AcDbLayerTableRecord
  2
0
 70
0
 62
7
420
16777215
  6
Continuous
370
25
390
F
  0
ENDTAB
  0
TABLE
  2
STYLE
  5
3
100
AcDbSymbolTable
 70
1
  0
STYLE
  5
60
100
AcDbSymbolTableRecord
100
AcDbTextStyleTableRecord
  2
Standard
 70
0
 40
0.0
 41
1.0
 50
0.0
 71
0
 42
2.5
  3

  4

1001
ACAD
1000
txt
1071
0
  0
ENDTAB
  0
TABLE
  2
VIEW
  5
6
100
AcDbSymbolTable
 70
0
  0
ENDTAB
  0
TABLE
  2
UCS
  5
7
100
AcDbSymbolTable
 70
0
  0
ENDTAB
  0
TABLE
  2
APPID
  5
9
100
AcDbSymbolTable
 70
1
  0
APPID
  5
12
100
AcDbSymbolTableRecord
100
AcDbRegAppTableRecord
  2
ACAD
 70
0
  0
APPID
  5
61
100
AcDbSymbolTableRecord
100
AcDbRegAppTableRecord
  2
QCAD
 70
0
  0
ENDTAB
  0
TABLE
  2
DIMSTYLE
  5
A
100
AcDbSymbolTable
 70
1
100
AcDbDimStyleTable
 71
0
  0
DIMSTYLE
105
27
100
AcDbSymbolTableRecord
100
AcDbDimStyleTableRecord
  2
Standard
 41
0.125
 42
0.03125
 43
3.75
 44
0.0625
 70
0
 73
0
 74
0
 77
1
 78
8
140
0.125
141
2.5
143
0.03937007874016
147
0.03125
171
3
172
1
271
2
272
2
274
3
278
44
283
0
284
8
340
60
  0
ENDTAB
  0
TABLE
  2
BLOCK_RECORD
  5
1
100
AcDbSymbolTable
 70
1
  0
BLOCK_RECORD
  5
1F
100
AcDbSymbolTableRecord
100
AcDbBlockTableRecord
  2
*Model_Space
340
22
  0
BLOCK_RECORD
  5
1B
100
AcDbSymbolTableRecord
100
AcDbBlockTableRecord
  2
*Paper_Space
340
1E
  0
BLOCK_RECORD
  5
23
100
AcDbSymbolTableRecord
100
AcDbBlockTableRecord
  2
*Paper_Space0
340
26
  0
ENDTAB
  0
ENDSEC
  0
SECTION
  2
BLOCKS
  0
BLOCK
  5
20
100
AcDbEntity
  8
0
100
AcDbBlockBegin
  2
*Model_Space
 70
0
 10
0.0
 20
0.0
 30
0.0
  3
*Model_Space
  1

  0
ENDBLK
  5
21
100
AcDbEntity
  8
0
100
AcDbBlockEnd
  0
BLOCK
  5
1C
100
AcDbEntity
 67
1
  8
0
100
AcDbBlockBegin
  2
*Paper_Space
 70
0
 10
0.0
 20
0.0
 30
0.0
  3
*Paper_Space
  1

  0
ENDBLK
  5
1D
100
AcDbEntity
 67
1
  8
0
100
AcDbBlockEnd
  0
BLOCK
  5
24
100
AcDbEntity
  8
0
100
AcDbBlockBegin
  2
*Paper_Space0
 70
0
 10
0.0
 20
0.0
 30
0.0
  3
*Paper_Space0
  1

  0
ENDBLK
  5
25
100
AcDbEntity
  8
0
100
AcDbBlockEnd
  0
ENDSEC
  0
SECTION
  2
ENTITIES
  0
LINE
  5
62
100
AcDbEntity
100
AcDbLine
  8
0
 62
1
420
16711680
370
-1
 48
1.0
  6
BYLAYER
 10
-4.7403642037915539
 20
1.467474307786709
 30
0.0
 11
-4.7810494364142642
 21
1.4850181192071454
 31
0.0
  0
LINE
  5
63
100
AcDbEntity
100
AcDbLine
  8
0
 62
7
420
0
370
-1
 48
1.0
  6
BYLAYER
 10
-0.7403642037915539
 20
1.4674743077867145
 30
0.0
 11
-0.7810494364142642
 21
1.485018119207151
 31
0.0
  0
LINE
  5
64
100
AcDbEntity
100
AcDbLine
  8
0
 62
7
420
0
370
-1
 48
1.0
  6
BYLAYER
 10
3.2596357962084461
 20
1.4674743077867092
 30
0.0
 11
3.2189505635857358
 21
1.4850181192071457
 31
0.0
  0
LINE
  5
65
100
AcDbEntity
100
AcDbLine
  8
0
 62
1
420
16711680
370
-1
 48
1.0
  6
BYLAYER
 10
-4.7399214174202093
 20
1.5231735604308623
 30
0.0
 11
-4.774679661839766
 21
1.5506496940305909
 31
0.0
  0
LINE
  5
66
100
AcDbEntity
100
AcDbLine
  8
0
 62
7
420
0
370
-1
 48
1.0
  6
BYLAYER
 10
-0.7399214174202076
 20
1.5231735604308678
 30
0.0
 11
-0.774679661839766
 21
1.5506496940305965
 31
0.0
  0
LINE
  5
67
100
AcDbEntity
100
AcDbLine
  8
0
 62
7
420
0
370
-1
 48
1.0
  6
BYLAYER
 10
3.2600785825797907
 20
1.5231735604308625
 30
0.0
 11
3.225320338160234
 21
1.5506496940305912
 31
0.0
  0
LINE
  5
68
100
AcDbEntity
100
AcDbLine
  8
0
 62
1
420
16711680
370
-1
 48
1.0
  6
BYLAYER
 10
-4.7250776912463124
 20
1.5768603055190338
 30
0.0
 11
-4.7515402305462402
 21
1.6123963081996917
 31
0.0
  0
LINE
  5
69
100
AcDbEntity
100
AcDbLine
  8
0
 62
7
420
0
370
-1
 48
1.0
  6
BYLAYER
 10
-0.7250776912463124
 20
1.5768603055190393
 30
0.0
 11
-0.7515402305462402
 21
1.6123963081996973
 31
0.0
  0
LINE
  5
6A
100
AcDbEntity
100
AcDbLine
  8
0
 62
7
420
0
370
-1
 48
1.0
  6
BYLAYER
 10
3.2749223087536876
 20
1.576860305519034
 30
0.0
 11
3.2484597694537598
 21
1.6123963081996919
 31
0.0
  0
LINE
  5
6B
100
AcDbEntity
100
AcDbLine
  8
0
 62
1
420
16711680
370
-1
 48
1.0
  6
BYLAYER
 10
-4.696844600678201
 20
1.6248758800950058
 30
0.0
 11
-4.7132080565366223
 21
1.6660500319999245
 31
0.0
  0
LINE
  5
6C
100
AcDbEntity
100
AcDbLine
  8
0
 62
7
420
0
370
-1
 48
1.0
  6
BYLAYER
 10
-0.696844600678201
 20
1.6248758800950114
 30
0.0
 11
-0.7132080565366223
 21
1.6660500319999301
 31
0.0
  0
LINE
  5
6D
100
AcDbEntity
100
AcDbLine
  8
0
 62
7
420
0
370
-1
 48
1.0
  6
BYLAYER
 10
3.303155399321799
 20
1.6248758800950061
 30
0.0
 11
3.2867919434633777
 21
1.6660500319999247
 31
0.0
  0
LINE
  5
6E
100
AcDbEntity
100
AcDbLine
  8
0
 62
1
420
16711680
370
-1
 48
1.0
  6
BYLAYER
 10
-4.6571461841807
 20
1.6639481021009137
 30
0.0
 11
-4.6622954141227559
 21
1.707954452821278
 31
0.0
  0
LINE
  5
6F
100
AcDbEntity
100
AcDbLine
  8
0
 62
7
420
0
370
-1
 48
1.0
  6
BYLAYER
 10
-0.6571461841807018
 20
1.6639481021009193
 30
0.0
 11
-0.6622954141227542
 21
1.7079544528212836
 31
0.0
  0
LINE
  5
70
100
AcDbEntity
100
AcDbLine
  8
0
 62
7
420
0
370
-1
 48
1.0
  6
BYLAYER
 10
3.3428538158193
 20
1.6639481021009139
 30
0.0
 11
3.3377045858772441
 21
1.7079544528212782
 31
0.0
  0
LINE
  5
71
100
AcDbEntity
100
AcDbLine
  8
0
 62
1
420
16711680
370
-1
 48
1.0
  6
BYLAYER
 10
-4.6086878232333852
 20
1.6914142641769556
 30
0.0
 11
-4.6022719157480232
 21
1.7352538536351056
 31
0.0
  0
LINE
  5
72
100
AcDbEntity
100
AcDbLine
  8
0
 62
7
420
0
370
-1
 48
1.0
  6
BYLAYER
 10
-0.6086878232333834
 20
1.6914142641769612
 30
0.0
 11
-0.6022719157480232
 21
1.7352538536351112
 31
0.0
  0
LINE
  5
73
100
AcDbEntity
100
AcDbLine
  8
0
 62
7
420
0
370
-1
 48
1.0
  6
BYLAYER
 10
3.3913121767666148
 20
1.6914142641769558
 30
0.0
 11
3.3977280842519768
 21
1.7352538536351059
 31
0.0
  0
LINE
  5
74
100
AcDbEntity
100
AcDbLine
  8
0
 62
1
420
16711680
370
-1
 48
1.0
  6
BYLAYER
 10
-4.5547718750535786
 20
1.705402592767628
 30
0.0
 11
-4.5372280636331439
 21
1.7460878253903382
 31
0.0
  0
LINE
  5
75
100
AcDbEntity
100
AcDbLine
  8
0
 62
7
420
0
370
-1
 48
1.0
  6
BYLAYER
 10
-0.5547718750535804
 20
1.7054025927676335
 30
0.0
 11
-0.5372280636331439
 21
1.7460878253903438
 31
0.0
  0
LINE
  5
76
100
AcDbEntity
100
AcDbLine
  8
0
 62
7
420
0
370
-1
 48
1.0
  6
BYLAYER
 10
3.4452281249464214
 20
1.7054025927676282
 30
0.0
 11
3.4627719363668561
 21
1.7460878253903385
 31
0.0
  0
LINE
  5
77
100
AcDbEntity
100
AcDbLine
  8
0
 62
1
420
16711680
370
-1
 48
1.0
  6
BYLAYER
 10
-4.4990726224094253
 20
1.7049598063962816
 30
0.0
 11
-4.4715964888096984
 21
1.7397180508158401
 31
0.0
  0
LINE
  5
78
100
AcDbEntity
100
AcDbLine
  8
0
 62
7
420
0
370
-1
 48
1.0
  6
BYLAYER
 10
-0.4990726224094253
 20
1.7049598063962872
 30
0.0
 11
-0.4715964888096984
 21
1.7397180508158456
 31
0.0
  0
LINE
  5
79
100
AcDbEntity
100
AcDbLine
  8
0
 62
7
420
0
370
-1
 48
1.0
  6
BYLAYER
 10
3.5009273775905747
 20
1.7049598063962819
 30
0.0
 11
3.5284035111903016
 21
1.7397180508158403
 31
0.0
  0
LINE
  5
7A
100
AcDbEntity
100
AcDbLine
  8
0
 62
1
420
16711680
370
-1
 48
1.0
  6
BYLAYER
 10
-4.4453858773212538
 20
1.6901160802223865
 30
0.0
 11
-4.4098498746405959
 21
1.7165786195223143
 31
0.0
  0
LINE
  5
7B
100
AcDbEntity
100
AcDbLine
  8
0
 62
7
420
0
370
-1
 48
1.0
  6
BYLAYER
 10
-0.4453858773212556
 20
1.690116080222392
 30
0.0
 11
-0.4098498746405976
 21
1.7165786195223198
 31
0.0
  0
LINE
  5
7C
100
AcDbEntity
100
AcDbLine
  8
0
 62
7
420
0
370
-1
 48
1.0
  6
BYLAYER
 10
3.5546141226787462
 20
1.6901160802223867
 30
0.0
 11
3.5901501253594041
 21
1.7165786195223145
 31
0.0
  0
LINE
  5
7D
100
AcDbEntity
100
AcDbLine
  8
0
 62
1
420
16711680
370
-1
 48
1.0
  6
BYLAYER
 10
-4.3973703027452835
 20
1.6618829896542751
 30
0.0
 11
-4.3561961508403648
 21
1.6782464455126964
 31
0.0
  0
LINE
  5
7E
100
AcDbEntity
100
AcDbLine
  8
0
 62
7
420
0
370
-1
 48
1.0
  6
BYLAYER
 10
-0.3973703027452835
 20
1.6618829896542806
 30
0.0
 11
-0.356196150840363
 21
1.678246445512702
 31
0.0
  0
LINE
  5
7F
100
AcDbEntity
100
AcDbLine
  8
0
 62
7
420
0
370
-1
 48
1.0
  6
BYLAYER
 10
3.6026296972547165
 20
1.6618829896542753
 30
0.0
 11
3.6438038491596352
 21
1.6782464455126966
 31
0.0
  0
LINE
  5
80
100
AcDbEntity
100
AcDbLine
  8
0
 62
1
420
16711680
370
-1
 48
1.0
  6
BYLAYER
 10
-4.3582980807393774
 20
1.6221845731567759
 30
0.0
 11
-4.3142917300190113
 21
1.6273338030988282
 31
0.0
  0
LINE
  5
81
100
AcDbEntity
100
AcDbLine
  8
0
 62
7
420
0
370
-1
 48
1.0
  6
BYLAYER
 10
-0.3582980807393756
 20
1.6221845731567814
 30
0.0
 11
-0.3142917300190096
 21
1.6273338030988338
 31
0.0
  0
LINE
  5
82
100
AcDbEntity
100
AcDbLine
  8
0
 62
7
420
0
370
-1
 48
1.0
  6
BYLAYER
 10
3.6417019192606226
 20
1.6221845731567761
 30
0.0
 11
3.6857082699809887
 21
1.6273338030988285
 31
0.0
  0
LINE
  5
83
100
AcDbEntity
100
AcDbLine
  8
0
 62
1
420
16711680
370
-1
 48
1.0
  6
BYLAYER
 10
-4.3308319186633319
 20
1.5737262122094575
 30
0.0
 11
-4.2869923292051837
 21
1.5673103047240973
 31
0.0
  0
LINE
  5
84
100
AcDbEntity
100
AcDbLine
  8
0
 62
7
420
0
370
-1
 48
1.0
  6
BYLAYER
 10
-0.3308319186633337
 20
1.5737262122094631
 30
0.0
 11
-0.2869923292051837
 21
1.5673103047241028
 31
0.0
  0
LINE
  5
85
100
AcDbEntity
100
AcDbLine
  8
0
 62
7
420
0
370
-1
 48
1.0
  6
BYLAYER
 10
3.6691680813366681
 20
1.5737262122094577
 30
0.0
 11
3.7130076707948163
 21
1.5673103047240975
 31
0.0
  0
LINE
  5
86
100
AcDbEntity
100
AcDbLine
  8
0
 62
1
420
16711680
370
-1
 48
1.0
  6
BYLAYER
 10
-4.3168435900726614
 20
1.5198102640296545
 30
0.0
 11
-4.2761583574499511
 21
1.502266452609218
 31
0.0
  0
LINE
  5
87
100
AcDbEntity
100
AcDbLine
  8
0
 62
7
420
0
370
-1
 48
1.0
  6
BYLAYER
 10
-0.3168435900726614
 20
1.51981026402966
 30
0.0
 11
-0.2761583574499511
 21
1.5022664526092235
 31
0.0
  0
LINE
  5
88
100
AcDbEntity
100
AcDbLine
  8
0
 62
7
420
0
370
-1
 48
1.0
  6
BYLAYER
 10
3.6831564099273386
 20
1.5198102640296547
 30
0.0
 11
3.7238416425500489
 21
1.5022664526092182
 31
0.0
  0
LINE
  5
89
100
AcDbEntity
100
AcDbLine
  8
0
 62
1
420
16711680
370
-1
 48
1.0
  6
BYLAYER
 10
-4.3172863764440059
 20
1.4641110113854994
 30
0.0
 11
-4.2825281320244493
 21
1.4366348777857725
 31
0.0
  0
LINE
  5
8A
100
AcDbEntity
100
AcDbLine
  8
0
 62
7
420
0
370
-1
 48
1.0
  6
BYLAYER
 10
-0.3172863764440077
 20
1.4641110113855049
 30
0.0
 11
-0.2825281320244493
 21
1.436634877785778
 31
0.0
  0
LINE
  5
8B
100
AcDbEntity
100
AcDbLine
  8
0
 62
7
420
0
370
-1
 48
1.0
  6
BYLAYER
 10
3.6827136235559941
 20
1.4641110113854996
 30
0.0
 11
3.7174718679755507
 21
1.4366348777857727
 31
0.0
  0
LINE
  5
8C
100
AcDbEntity
100
AcDbLine
  8
0
 62
1
420
16711680
370
-1
 48
1.0
  6
BYLAYER
 10
-4.3321301026179029
 20
1.4104242662973279
 30
0.0
 11
-4.3056675633179751
 21
1.3748882636166717
 31
0.0
  0
LINE
  5
8D
100
AcDbEntity
100
AcDbLine
  8
0
 62
7
420
0
370
-1
 48
1.0
  6
BYLAYER
 10
-0.3321301026179029
 20
1.4104242662973334
 30
0.0
 11
-0.3056675633179751
 21
1.3748882636166773
 31
0.0
  0
LINE
  5
8E
100
AcDbEntity
100
AcDbLine
  8
0
 62
7
420
0
370
-1
 48
1.0
  6
BYLAYER
 10
3.6678698973820971
 20
1.4104242662973281
 30
0.0
 11
3.6943324366820249
 21
1.3748882636166719
 31
0.0
  0
LINE
  5
8F
100
AcDbEntity
100
AcDbLine
  8
0
 62
1
420
16711680
370
-1
 48
1.0
  6
BYLAYER
 10
-4.3603631931860143
 20
1.3624086917213576
 30
0.0
 11
-4.3439997373275929
 21
1.3212345398164371
 31
0.0
  0
LINE
  5
90
100
AcDbEntity
100
AcDbLine
  8
0
 62
7
420
0
370
-1
 48
1.0
  6
BYLAYER
 10
-0.3603631931860143
 20
1.3624086917213631
 30
0.0
 11
-0.3439997373275929
 21
1.3212345398164427
 31
0.0
  0
LINE
  5
91
100
AcDbEntity
100
AcDbLine
  8
0
 62
7
420
0
370
-1
 48
1.0
  6
BYLAYER
 10
3.6396368068139857
 20
1.3624086917213578
 30
0.0
 11
3.6560002626724071
 21
1.3212345398164373
 31
0.0
  0
LINE
  5
92
100
AcDbEntity
100
AcDbLine
  8
0
 62
7
420
0
370
-1
 48
1.0
  6
BYLAYER
 10
-0.4000616096835135
 20
1.3233364697154553
 30
0.0
 11
-0.3949123797414611
 21
1.2793301189950892
 31
0.0
  0
LINE
  5
93
100
AcDbEntity
100
AcDbLine
  8
0
 62
7
420
0
370
-1
 48
1.0
  6
BYLAYER
 10
3.5999383903164848
 20
1.3233364697154499
 30
0.0
 11
3.6050876202585407
 21
1.2793301189950839
 31
0.0
  0
LINE
  5
94
100
AcDbEntity
100
AcDbLine
  8
0
 62
1
420
16711680
370
-1
 48
1.0
  6
BYLAYER
 10
-4.4000616096835152
 20
1.3233364697154497
 30
0.0
 11
-4.3949123797414593
 21
1.2793301189950836
 31
0.0
  0
LINE
  5
95
100
AcDbEntity
100
AcDbLine
  8
0
 62
7
420
0
370
-1
 48
1.0
  6
BYLAYER
 10
-0.4485199706308318
 20
1.2958703076394134
 30
0.0
 11
-0.4549358781161921
 21
1.2520307181812633
 31
0.0
  0
LINE
  5
96
100
AcDbEntity
100
AcDbLine
  8
0
 62
7
420
0
370
-1
 48
1.0
  6
BYLAYER
 10
3.55148002936917
 20
1.295870307639408
 30
0.0
 11
3.5450641218838079
 21
1.252030718181258
 31
0.0
  0
LINE
  5
97
100
AcDbEntity
100
AcDbLine
  8
0
 62
1
420
16711680
370
-1
 48
1.0
  6
BYLAYER
 10
-4.44851997063083
 20
1.2958703076394078
 30
0.0
 11
-4.4549358781161921
 21
1.2520307181812578
 31
0.0
  0
LINE
  5
98
100
AcDbEntity
100
AcDbLine
  8
0
 62
7
420
0
370
-1
 48
1.0
  6
BYLAYER
 10
-0.5024359188106349
 20
1.281881979048741
 30
0.0
 11
-0.5199797302310714
 21
1.2411967464260307
 31
0.0
  0
LINE
  5
99
100
AcDbEntity
100
AcDbLine
  8
0
 62
7
420
0
370
-1
 48
1.0
  6
BYLAYER
 10
3.4975640811893633
 20
1.2818819790487357
 30
0.0
 11
3.4800202697689286
 21
1.2411967464260254
 31
0.0
  0
LINE
  5
9A
100
AcDbEntity
100
AcDbLine
  8
0
 62
1
420
16711680
370
-1
 48
1.0
  6
BYLAYER
 10
-4.5024359188106367
 20
1.2818819790487355
 30
0.0
 11
-4.5199797302310714
 21
1.2411967464260252
 31
0.0
  0
LINE
  5
9B
100
AcDbEntity
100
AcDbLine
  8
0
 62
7
420
0
370
-1
 48
1.0
  6
BYLAYER
 10
-0.55813517145479
 20
1.2823247654200873
 30
0.0
 11
-0.5856113050545169
 21
1.2475665210005289
 31
0.0
  0
LINE
  5
9C
100
AcDbEntity
100
AcDbLine
  8
0
 62
7
420
0
370
-1
 48
1.0
  6
BYLAYER
 10
3.44186482854521
 20
1.282324765420082
 30
0.0
 11
3.4143886949454831
 21
1.2475665210005236
 31
0.0
  0
LINE
  5
9D
100
AcDbEntity
100
AcDbLine
  8
0
 62
1
420
16711680
370
-1
 48
1.0
  6
BYLAYER
 10
-4.55813517145479
 20
1.2823247654200818
 30
0.0
 11
-4.5856113050545169
 21
1.2475665210005233
 31
0.0
  0
LINE
  5
9E
100
AcDbEntity
100
AcDbLine
  8
0
 62
7
420
0
370
-1
 48
1.0
  6
BYLAYER
 10
-0.6118219165429597
 20
1.2971684915939825
 30
0.0
 11
-0.6473579192236176
 21
1.2707059522940547
 31
0.0
  0
LINE
  5
9F
100
AcDbEntity
100
AcDbLine
  8
0
 62
7
420
0
370
-1
 48
1.0
  6
BYLAYER
 10
3.3881780834570385
 20
1.2971684915939772
 30
0.0
 11
3.3526420807763806
 21
1.2707059522940494
 31
0.0
  0
LINE
  5
A0
100
AcDbEntity
100
AcDbLine
  8
0
 62
1
420
16711680
370
-1
 48
1.0
  6
BYLAYER
 10
-4.6118219165429615
 20
1.297168491593977
 30
0.0
 11
-4.6473579192236194
 21
1.2707059522940491
 31
0.0
  0
LINE
  5
A1
100
AcDbEntity
100
AcDbLine
  8
0
 62
7
420
0
370
-1
 48
1.0
  6
BYLAYER
 10
-0.6598374911189318
 20
1.3254015821620939
 30
0.0
 11
-0.7010116430238504
 21
1.3090381263036726
 31
0.0
  0
LINE
  5
A2
100
AcDbEntity
100
AcDbLine
  8
0
 62
7
420
0
370
-1
 48
1.0
  6
BYLAYER
 10
3.3401625088810682
 20
1.3254015821620886
 30
0.0
 11
3.2989883569761496
 21
1.3090381263036672
 31
0.0
  0
LINE
  5
A3
100
AcDbEntity
100
AcDbLine
  8
0
 62
1
420
16711680
370
-1
 48
1.0
  6
BYLAYER
 10
-4.6598374911189318
 20
1.3254015821620884
 30
0.0
 11
-4.7010116430238504
 21
1.309038126303667
 31
0.0
  0
LINE
  5
A4
100
AcDbEntity
100
AcDbLine
  8
0
 62
7
420
0
370
-1
 48
1.0
  6
BYLAYER
 10
-0.6989097131248396
 20
1.3650999986595931
 30
0.0
 11
-0.7429160638452039
 21
1.3599507687175407
 31
0.0
  0
LINE
  5
A5
100
AcDbEntity
100
AcDbLine
  8
0
 62
7
420
0
370
-1
 48
1.0
  6
BYLAYER
 10
3.3010902868751621
 20
1.3650999986595878
 30
0.0
 11
3.2570839361547961
 21
1.3599507687175354
 31
0.0
  0
LINE
  5
A6
100
AcDbEntity
100
AcDbLine
  8
0
 62
1
420
16711680
370
-1
 48
1.0
  6
BYLAYER
 10
-4.6989097131248379
 20
1.3650999986595875
 30
0.0
 11
-4.7429160638452039
 21
1.3599507687175352
 31
0.0
  0
LINE
  5
A7
100
AcDbEntity
100
AcDbLine
  8
0
 62
7
420
0
370
-1
 48
1.0
  6
BYLAYER
 10
-0.7263758752008815
 20
1.4135583596069115
 30
0.0
 11
-0.7702154646590316
 21
1.4199742670922717
 31
0.0
  0
LINE
  5
A8
100
AcDbEntity
100
AcDbLine
  8
0
 62
7
420
0
370
-1
 48
1.0
  6
BYLAYER
 10
3.2736241247991167
 20
1.4135583596069061
 30
0.0
 11
3.2297845353409684
 21
1.4199742670922664
 31
0.0
  0
LINE
  5
A9
100
AcDbEntity
100
AcDbLine
  8
0
 62
1
420
16711680
370
-1
 48
1.0
  6
BYLAYER
 10
-4.7263758752008833
 20
1.4135583596069059
 30
0.0
 11
-4.7702154646590316
 21
1.4199742670922662
 31
0.0
  0
LINE
  5
AA
100
AcDbEntity
100
AcDbLine
  8
0
 62
7
420
0
370
-1
 48
1.0
  6
BYLAYER
 10
-0.7810494364142642
 20
1.5022664526092218
 30
0.0
 11
-0.7403642037915539
 21
1.5198102640296582
 31
0.0
  0
LINE
  5
AB
100
AcDbEntity
100
AcDbLine
  8
0
 62
7
420
0
370
-1
 48
1.0
  6
BYLAYER
 10
3.2189505635857358
 20
1.5022664526092164
 30
0.0
 11
3.2596357962084461
 21
1.5198102640296529
 31
0.0
  0
LINE
  5
AC
100
AcDbEntity
100
AcDbLine
  8
0
 62
1
420
16711680
370
-1
 48
1.0
  6
BYLAYER
 10
-4.7810494364142642
 20
1.5022664526092162
 30
0.0
 11
-4.7403642037915539
 21
1.5198102640296527
 31
0.0
  0
LINE
  5
AD
100
AcDbEntity
100
AcDbLine
  8
0
 62
7
420
0
370
-1
 48
1.0
  6
BYLAYER
 10
-0.7702154646590316
 20
1.567310304724101
 30
0.0
 11
-0.7263758752008815
 21
1.5737262122094613
 31
0.0
  0
LINE
  5
AE
100
AcDbEntity
100
AcDbLine
  8
0
 62
7
420
0
370
-1
 48
1.0
  6
BYLAYER
 10
3.2297845353409684
 20
1.5673103047240957
 30
0.0
 11
3.2736241247991167
 21
1.573726212209456
 31
0.0
  0
LINE
  5
AF
100
AcDbEntity
100
AcDbLine
  8
0
 62
1
420
16711680
370
-1
 48
1.0
  6
BYLAYER
 10
-4.7702154646590316
 20
1.5673103047240955
 30
0.0
 11
-4.7263758752008833
 21
1.5737262122094557
 31
0.0
  0
LINE
  5
B0
100
AcDbEntity
100
AcDbLine
  8
0
 62
7
420
0
370
-1
 48
1.0
  6
BYLAYER
 10
-0.7429160638452057
 20
1.6273338030988338
 30
0.0
 11
-0.6989097131248414
 21
1.6221845731567797
 31
0.0
  0
LINE
  5
B1
100
AcDbEntity
100
AcDbLine
  8
0
 62
7
420
0
370
-1
 48
1.0
  6
BYLAYER
 10
3.2570839361547961
 20
1.6273338030988285
 30
0.0
 11
3.3010902868751586
 21
1.6221845731567743
 31
0.0
  0
LINE
  5
B2
100
AcDbEntity
100
AcDbLine
  8
0
 62
1
420
16711680
370
-1
 48
1.0
  6
BYLAYER
 10
-4.7429160638452039
 20
1.6273338030988282
 30
0.0
 11
-4.6989097131248414
 21
1.6221845731567741
 31
0.0
  0
LINE
  5
B3
100
AcDbEntity
100
AcDbLine
  8
0
 62
7
420
0
370
-1
 48
1.0
  6
BYLAYER
 10
-0.7010116430238522
 20
1.678246445512702
 30
0.0
 11
-0.6598374911189335
 21
1.6618829896542788
 31
0.0
  0
LINE
  5
B4
100
AcDbEntity
100
AcDbLine
  8
0
 62
7
420
0
370
-1
 48
1.0
  6
BYLAYER
 10
3.2989883569761496
 20
1.6782464455126966
 30
0.0
 11
3.3401625088810682
 21
1.6618829896542735
 31
0.0
  0
LINE
  5
B5
100
AcDbEntity
100
AcDbLine
  8
0
 62
1
420
16711680
370
-1
 48
1.0
  6
BYLAYER
 10
-4.7010116430238504
 20
1.6782464455126964
 30
0.0
 11
-4.6598374911189318
 21
1.6618829896542733
 31
0.0
  0
LINE
  5
B6
100
AcDbEntity
100
AcDbLine
  8
0
 62
7
420
0
370
-1
 48
1.0
  6
BYLAYER
 10
-0.6473579192236176
 20
1.7165786195223198
 30
0.0
 11
-0.6118219165429615
 21
1.690116080222392
 31
0.0
  0
LINE
  5
B7
100
AcDbEntity
100
AcDbLine
  8
0
 62
7
420
0
370
-1
 48
1.0
  6
BYLAYER
 10
3.3526420807763806
 20
1.7165786195223145
 30
0.0
 11
3.3881780834570385
 21
1.6901160802223867
 31
0.0
  0
LINE
  5
B8
100
AcDbEntity
100
AcDbLine
  8
0
 62
1
420
16711680
370
-1
 48
1.0
  6
BYLAYER
 10
-4.6473579192236194
 20
1.7165786195223143
 30
0.0
 11
-4.6118219165429615
 21
1.6901160802223865
 31
0.0
  0
LINE
  5
B9
100
AcDbEntity
100
AcDbLine
  8
0
 62
7
420
0
370
-1
 48
1.0
  6
BYLAYER
 10
-0.5856113050545186
 20
1.7397180508158456
 30
0.0
 11
-0.55813517145479
 21
1.7049598063962872
 31
0.0
  0
LINE
  5
BA
100
AcDbEntity
100
AcDbLine
  8
0
 62
7
420
0
370
-1
 48
1.0
  6
BYLAYER
 10
3.4143886949454831
 20
1.7397180508158403
 30
0.0
 11
3.44186482854521
 21
1.7049598063962819
 31
0.0
  0
LINE
  5
BB
100
AcDbEntity
100
AcDbLine
  8
0
 62
1
420
16711680
370
-1
 48
1.0
  6
BYLAYER
 10
-4.5856113050545169
 20
1.7397180508158401
 30
0.0
 11
-4.55813517145479
 21
1.7049598063962816
 31
0.0
  0
LINE
  5
BC
100
AcDbEntity
100
AcDbLine
  8
0
 62
7
420
0
370
-1
 48
1.0
  6
BYLAYER
 10
-0.5199797302310731
 20
1.7460878253903438
 30
0.0
 11
-0.5024359188106367
 21
1.7054025927676335
 31
0.0
  0
LINE
  5
BD
100
AcDbEntity
100
AcDbLine
  8
0
 62
7
420
0
370
-1
 48
1.0
  6
BYLAYER
 10
3.4800202697689251
 20
1.7460878253903385
 30
0.0
 11
3.4975640811893633
 21
1.7054025927676282
 31
0.0
  0
LINE
  5
BE
100
AcDbEntity
100
AcDbLine
  8
0
 62
1
420
16711680
370
-1
 48
1.0
  6
BYLAYER
 10
-4.5199797302310749
 20
1.7460878253903382
 30
0.0
 11
-4.5024359188106367
 21
1.705402592767628
 31
0.0
  0
LINE
  5
BF
100
AcDbEntity
100
AcDbLine
  8
0
 62
7
420
0
370
-1
 48
1.0
  6
BYLAYER
 10
-0.4549358781161921
 20
1.7352538536351112
 30
0.0
 11
-0.4485199706308336
 21
1.6914142641769612
 31
0.0
  0
LINE
  5
C0
100
AcDbEntity
100
AcDbLine
  8
0
 62
7
420
0
370
-1
 48
1.0
  6
BYLAYER
 10
3.5450641218838079
 20
1.7352538536351059
 30
0.0
 11
3.5514800293691664
 21
1.6914142641769558
 31
0.0
  0
LINE
  5
C1
100
AcDbEntity
100
AcDbLine
  8
0
 62
1
420
16711680
370
-1
 48
1.0
  6
BYLAYER
 10
-4.4549358781161921
 20
1.7352538536351056
 30
0.0
 11
-4.4485199706308336
 21
1.6914142641769556
 31
0.0
  0
LINE
  5
C2
100
AcDbEntity
100
AcDbLine
  8
0
 62
7
420
0
370
-1
 48
1.0
  6
BYLAYER
 10
-0.3949123797414611
 20
1.7079544528212836
 30
0.0
 11
-0.4000616096835152
 21
1.6639481021009193
 31
0.0
  0
LINE
  5
C3
100
AcDbEntity
100
AcDbLine
  8
0
 62
7
420
0
370
-1
 48
1.0
  6
BYLAYER
 10
3.6050876202585407
 20
1.7079544528212782
 30
0.0
 11
3.5999383903164848
 21
1.6639481021009139
 31
0.0
  0
LINE
  5
C4
100
AcDbEntity
100
AcDbLine
  8
0
 62
1
420
16711680
370
-1
 48
1.0
  6
BYLAYER
 10
-4.3949123797414593
 20
1.707954452821278
 30
0.0
 11
-4.4000616096835152
 21
1.6639481021009137
 31
0.0
  0
LINE
  5
C5
100
AcDbEntity
100
AcDbLine
  8
0
 62
7
420
0
370
-1
 48
1.0
  6
BYLAYER
 10
-0.3439997373275929
 20
1.6660500319999318
 30
0.0
 11
-0.3603631931860161
 21
1.6248758800950132
 31
0.0
  0
LINE
  5
C6
100
AcDbEntity
100
AcDbLine
  8
0
 62
7
420
0
370
-1
 48
1.0
  6
BYLAYER
 10
3.6560002626724071
 20
1.6660500319999265
 30
0.0
 11
3.6396368068139857
 21
1.6248758800950078
 31
0.0
  0
LINE
  5
C7
100
AcDbEntity
100
AcDbLine
  8
0
 62
1
420
16711680
370
-1
 48
1.0
  6
BYLAYER
 10
-4.3439997373275929
 20
1.6660500319999263
 30
0.0
 11
-4.3603631931860143
 21
1.6248758800950076
 31
0.0
  0
LINE
  5
C8
100
AcDbEntity
100
AcDbLine
  8
0
 62
7
420
0
370
-1
 48
1.0
  6
BYLAYER
 10
-0.3056675633179751
 20
1.6123963081996973
 30
0.0
 11
-0.3321301026179029
 21
1.5768603055190411
 31
0.0
  0
LINE
  5
C9
100
AcDbEntity
100
AcDbLine
  8
0
 62
7
420
0
370
-1
 48
1.0
  6
BYLAYER
 10
3.6943324366820249
 20
1.6123963081996919
 30
0.0
 11
3.6678698973820971
 21
1.5768603055190358
 31
0.0
  0
LINE
  5
CA
100
AcDbEntity
100
AcDbLine
  8
0
 62
1
420
16711680
370
-1
 48
1.0
  6
BYLAYER
 10
-4.3056675633179751
 20
1.6123963081996917
 30
0.0
 11
-4.3321301026179029
 21
1.5768603055190356
 31
0.0
  0
LINE
  5
CB
100
AcDbEntity
100
AcDbLine
  8
0
 62
7
420
0
370
-1
 48
1.0
  6
BYLAYER
 10
-0.2825281320244493
 20
1.5506496940305983
 30
0.0
 11
-0.3172863764440077
 21
1.5231735604308696
 31
0.0
  0
LINE
  5
CC
100
AcDbEntity
100
AcDbLine
  8
0
 62
7
420
0
370
-1
 48
1.0
  6
BYLAYER
 10
3.7174718679755507
 20
1.5506496940305929
 30
0.0
 11
3.6827136235559941
 21
1.5231735604308643
 31
0.0
  0
LINE
  5
CD
100
AcDbEntity
100
AcDbLine
  8
0
 62
1
420
16711680
370
-1
 48
1.0
  6
BYLAYER
 10
-4.2825281320244493
 20
1.5506496940305927
 30
0.0
 11
-4.3172863764440059
 21
1.523173560430864
 31
0.0
  0
LINE
  5
CE
100
AcDbEntity
100
AcDbLine
  8
0
 62
7
420
0
370
-1
 48
1.0
  6
BYLAYER
 10
-0.2761583574499511
 20
1.4850181192071528
 30
0.0
 11
-0.3168435900726614
 21
1.4674743077867163
 31
0.0
  0
LINE
  5
CF
100
AcDbEntity
100
AcDbLine
  8
0
 62
7
420
0
370
-1
 48
1.0
  6
BYLAYER
 10
3.7238416425500489
 20
1.4850181192071474
 30
0.0
 11
3.6831564099273386
 21
1.467474307786711
 31
0.0
  0
LINE
  5
D0
100
AcDbEntity
100
AcDbLine
  8
0
 62
1
420
16711680
370
-1
 48
1.0
  6
BYLAYER
 10
-4.2761583574499511
 20
1.4850181192071472
 30
0.0
 11
-4.3168435900726614
 21
1.4674743077867107
 31
0.0
  0
LINE
  5
D1
100
AcDbEntity
100
AcDbLine
  8
0
 62
7
420
0
370
-1
 48
1.0
  6
BYLAYER
 10
-0.2869923292051837
 20
1.4199742670922735
 30
0.0
 11
-0.3308319186633337
 21
1.4135583596069132
 31
0.0
  0
LINE
  5
D2
100
AcDbEntity
100
AcDbLine
  8
0
 62
7
420
0
370
-1
 48
1.0
  6
BYLAYER
 10
3.7130076707948163
 20
1.4199742670922681
 30
0.0
 11
3.6691680813366681
 21
1.4135583596069079
 31
0.0
  0
LINE
  5
D3
100
AcDbEntity
100
AcDbLine
  8
0
 62
1
420
16711680
370
-1
 48
1.0
  6
BYLAYER
 10
-4.2869923292051837
 20
1.4199742670922679
 30
0.0
 11
-4.3308319186633319
 21
1.4135583596069077
 31
0.0
  0
LINE
  5
D4
100
AcDbEntity
100
AcDbLine
  8
0
 62
7
420
0
370
-1
 48
1.0
  6
BYLAYER
 10
-0.3142917300190096
 20
1.3599507687175407
 30
0.0
 11
-0.3582980807393739
 21
1.3650999986595949
 31
0.0
  0
LINE
  5
D5
100
AcDbEntity
100
AcDbLine
  8
0
 62
7
420
0
370
-1
 48
1.0
  6
BYLAYER
 10
3.6857082699809887
 20
1.3599507687175354
 30
0.0
 11
3.6417019192606261
 21
1.3650999986595895
 31
0.0
  0
LINE
  5
D6
100
AcDbEntity
100
AcDbLine
  8
0
 62
1
420
16711680
370
-1
 48
1.0
  6
BYLAYER
 10
-4.3142917300190113
 20
1.3599507687175352
 30
0.0
 11
-4.3582980807393739
 21
1.3650999986595893
 31
0.0
  0
LINE
  5
D7
100
AcDbEntity
100
AcDbLine
  8
0
 62
7
420
0
370
-1
 48
1.0
  6
BYLAYER
 10
-0.356196150840363
 20
1.3090381263036726
 30
0.0
 11
-0.3973703027452817
 21
1.3254015821620957
 31
0.0
  0
LINE
  5
D8
100
AcDbEntity
100
AcDbLine
  8
0
 62
7
420
0
370
-1
 48
1.0
  6
BYLAYER
 10
3.6438038491596352
 20
1.3090381263036672
 30
0.0
 11
3.6026296972547165
 21
1.3254015821620904
 31
0.0
  0
LINE
  5
D9
100
AcDbEntity
100
AcDbLine
  8
0
 62
1
420
16711680
370
-1
 48
1.0
  6
BYLAYER
 10
-4.3561961508403648
 20
1.309038126303667
 30
0.0
 11
-4.3973703027452835
 21
1.3254015821620901
 31
0.0
  0
LINE
  5
DA
100
AcDbEntity
100
AcDbLine
  8
0
 62
7
420
0
370
-1
 48
1.0
  6
BYLAYER
 10
-0.4098498746405976
 20
1.2707059522940547
 30
0.0
 11
-0.4453858773212538
 21
1.2971684915939825
 31
0.0
  0
LINE
  5
DB
100
AcDbEntity
100
AcDbLine
  8
0
 62
7
420
0
370
-1
 48
1.0
  6
BYLAYER
 10
3.5901501253594041
 20
1.2707059522940494
 30
0.0
 11
3.5546141226787462
 21
1.2971684915939772
 31
0.0
  0
LINE
  5
DC
100
AcDbEntity
100
AcDbLine
  8
0
 62
1
420
16711680
370
-1
 48
1.0
  6
BYLAYER
 10
-4.4098498746405959
 20
1.2707059522940491
 30
0.0
 11
-4.4453858773212538
 21
1.297168491593977
 31
0.0
  0
LINE
  5
DD
100
AcDbEntity
100
AcDbLine
  8
0
 62
7
420
0
370
-1
 48
1.0
  6
BYLAYER
 10
-0.4715964888096966
 20
1.2475665210005289
 30
0.0
 11
-0.4990726224094253
 21
1.2823247654200873
 31
0.0
  0
LINE
  5
DE
100
AcDbEntity
100
AcDbLine
  8
0
 62
7
420
0
370
-1
 48
1.0
  6
BYLAYER
 10
3.5284035111903016
 20
1.2475665210005236
 30
0.0
 11
3.5009273775905747
 21
1.282324765420082
 31
0.0
  0
LINE
  5
DF
100
AcDbEntity
100
AcDbLine
  8
0
 62
1
420
16711680
370
-1
 48
1.0
  6
BYLAYER
 10
-4.4715964888096984
 20
1.2475665210005233
 30
0.0
 11
-4.4990726224094253
 21
1.2823247654200818
 31
0.0
  0
LINE
  5
E0
100
AcDbEntity
100
AcDbLine
  8
0
 62
7
420
0
370
-1
 48
1.0
  6
BYLAYER
 10
-0.5372280636331421
 20
1.2411967464260307
 30
0.0
 11
-0.5547718750535786
 21
1.281881979048741
 31
0.0
  0
LINE
  5
E1
100
AcDbEntity
100
AcDbLine
  8
0
 62
7
420
0
370
-1
 48
1.0
  6
BYLAYER
 10
3.4627719363668596
 20
1.2411967464260254
 30
0.0
 11
3.4452281249464214
 21
1.2818819790487357
 31
0.0
  0
LINE
  5
E2
100
AcDbEntity
100
AcDbLine
  8
0
 62
1
420
16711680
370
-1
 48
1.0
  6
BYLAYER
 10
-4.5372280636331404
 20
1.2411967464260252
 30
0.0
 11
-4.5547718750535786
 21
1.2818819790487355
 31
0.0
  0
LINE
  5
E3
100
AcDbEntity
100
AcDbLine
  8
0
 62
7
420
0
370
-1
 48
1.0
  6
BYLAYER
 10
-0.6022719157480214
 20
1.2520307181812633
 30
0.0
 11
-0.6086878232333817
 21
1.2958703076394134
 31
0.0
  0
LINE
  5
E4
100
AcDbEntity
100
AcDbLine
  8
0
 62
7
420
0
370
-1
 48
1.0
  6
BYLAYER
 10
3.3977280842519768
 20
1.252030718181258
 30
0.0
 11
3.3913121767666183
 21
1.295870307639408
 31
0.0
  0
LINE
  5
E5
100
AcDbEntity
100
AcDbLine
  8
0
 62
1
420
16711680
370
-1
 48
1.0
  6
BYLAYER
 10
-4.6022719157480232
 20
1.2520307181812578
 30
0.0
 11
-4.6086878232333817
 21
1.2958703076394078
 31
0.0
  0
LINE
  5
E6
100
AcDbEntity
100
AcDbLine
  8
0
 62
7
420
0
370
-1
 48
1.0
  6
BYLAYER
 10
-0.6622954141227542
 20
1.2793301189950892
 30
0.0
 11
-0.6571461841807
 21
1.3233364697154553
 31
0.0
  0
LINE
  5
E7
100
AcDbEntity
100
AcDbLine
  8
0
 62
7
420
0
370
-1
 48
1.0
  6
BYLAYER
 10
3.3377045858772441
 20
1.2793301189950839
 30
0.0
 11
3.3428538158193
 21
1.3233364697154499
 31
0.0
  0
LINE
  5
E8
100
AcDbEntity
100
AcDbLine
  8
0
 62
1
420
16711680
370
-1
 48
1.0
  6
BYLAYER
 10
-4.6622954141227559
 20
1.2793301189950836
 30
0.0
 11
-4.6571461841807
 21
1.3233364697154497
 31
0.0
  0
LINE
  5
E9
100
AcDbEntity
100
AcDbLine
  8
0
 62
7
420
0
370
-1
 48
1.0
  6
BYLAYER
 10
-0.7132080565366223
 20
1.3212345398164427
 30
0.0
 11
-0.6968446006781992
 21
1.3624086917213614
 31
0.0
  0
LINE
  5
EA
100
AcDbEntity
100
AcDbLine
  8
0
 62
7
420
0
370
-1
 48
1.0
  6
BYLAYER
 10
3.2867919434633777
 20
1.3212345398164373
 30
0.0
 11
3.303155399321799
 21
1.362408691721356
 31
0.0
  0
LINE
  5
EB
100
AcDbEntity
100
AcDbLine
  8
0
 62
1
420
16711680
370
-1
 48
1.0
  6
BYLAYER
 10
-4.7132080565366223
 20
1.3212345398164371
 30
0.0
 11
-4.696844600678201
 21
1.3624086917213558
 31
0.0
  0
LINE
  5
EC
100
AcDbEntity
100
AcDbLine
  8
0
 62
7
420
0
370
-1
 48
1.0
  6
BYLAYER
 10
-0.7515402305462402
 20
1.3748882636166773
 30
0.0
 11
-0.7250776912463124
 21
1.4104242662973334
 31
0.0
  0
LINE
  5
ED
100
AcDbEntity
100
AcDbLine
  8
0
 62
7
420
0
370
-1
 48
1.0
  6
BYLAYER
 10
3.2484597694537598
 20
1.3748882636166719
 30
0.0
 11
3.2749223087536876
 21
1.4104242662973281
 31
0.0
  0
LINE
  5
EE
100
AcDbEntity
100
AcDbLine
  8
0
 62
1
420
16711680
370
-1
 48
1.0
  6
BYLAYER
 10
-4.7515402305462402
 20
1.3748882636166717
 30
0.0
 11
-4.7250776912463124
 21
1.4104242662973279
 31
0.0
  0
LINE
  5
EF
100
AcDbEntity
100
AcDbLine
  8
0
 62
7
420
0
370
-1
 48
1.0
  6
BYLAYER
 10
-0.774679661839766
 20
1.4366348777857763
 30
0.0
 11
-0.7399214174202076
 21
1.4641110113855049
 31
0.0
  0
LINE
  5
F0
100
AcDbEntity
100
AcDbLine
  8
0
 62
7
420
0
370
-1
 48
1.0
  6
BYLAYER
 10
3.225320338160234
 20
1.4366348777857709
 30
0.0
 11
3.2600785825797907
 21
1.4641110113854996
 31
0.0
  0
LINE
  5
F1
100
AcDbEntity
100
AcDbLine
  8
0
 62
1
420
16711680
370
-1
 48
1.0
  6
BYLAYER
 10
-4.774679661839766
 20
1.4366348777857707
 30
0.0
 11
-4.7399214174202093
 21
1.4641110113854994
 31
0.0
  0
CIRCLE
  5
F2
100
AcDbEntity
100
AcDbCircle
  8
0
 62
3
420
65280
370
-1
 48
1.0
  6
BYLAYER
 10
4.0759055011505936
 20
0.8891038969321023
 30
0.0
 40
0.0538784999999979
  0
CIRCLE
  5
F3
100
AcDbEntity
100
AcDbCircle
  8
0
 62
3
420
65280
370
-1
 48
1.0
  6
BYLAYER
 10
0.0759055011505936
 20
0.8891038969321077
 30
0.0
 40
0.0538784999999979
  0
CIRCLE
  5
F4
100
AcDbEntity
100
AcDbCircle
  8
0
 62
3
420
65280
370
-1
 48
1.0
  6
BYLAYER
 10
-5.1330944988493954
 20
0.8891038969321021
 30
0.0
 40
0.0538784999999979
  0
CIRCLE
  5
F5
100
AcDbEntity
100
AcDbCircle
  8
0
 62
3
420
65280
370
-1
 48
1.0
  6
BYLAYER
 10
-3.9240944988494064
 20
0.8891038969321021
 30
0.0
 40
0.0538784999999979
  0
CIRCLE
  5
F6
100
AcDbEntity
100
AcDbCircle
  8
0
 62
3
420
65280
370
-1
 48
1.0
  6
BYLAYER
 10
2.8669055011506046
 20
0.8891038969321023
 30
0.0
 40
0.0538784999999962
  0
CIRCLE
  5
F7
100
AcDbEntity
100
AcDbCircle
  8
0
 62
3
420
65280
370
-1
 48
1.0
  6
BYLAYER
 10
-1.1330944988493954
 20
0.8891038969321077
 30
0.0
 40
0.0538784999999962
  0
CIRCLE
  5
F8
100
AcDbEntity
100
AcDbCircle
  8
0
 62
3
420
65280
370
-1
 48
1.0
  6
BYLAYER
 10
4.0759055011505936
 20
2.0981038969321073
 30
0.0
 40
0.0538784999999962
  0
CIRCLE
  5
F9
100
AcDbEntity
100
AcDbCircle
  8
0
 62
3
420
65280
370
-1
 48
1.0
  6
BYLAYER
 10
0.0759055011505936
 20
2.0981038969321126
 30
0.0
 40
0.0538784999999962
  0
CIRCLE
  5
FA
100
AcDbEntity
100
AcDbCircle
  8
0
 62
3
420
65280
370
-1
 48
1.0
  6
BYLAYER
 10
2.8669055011506011
 20
2.0981038969321073
 30
0.0
 40
0.0538784999999962
  0
CIRCLE
  5
FB
100
AcDbEntity
100
AcDbCircle
  8
0
 62
3
420
65280
370
-1
 48
1.0
  6
BYLAYER
 10
-1.1330944988493989
 20
2.0981038969321126
 30
0.0
 40
0.0538784999999962
  0
CIRCLE
  5
FC
100
AcDbEntity
100
AcDbCircle
  8
0
 62
3
420
65280
370
-1
 48
1.0
  6
BYLAYER
 10
-3.5206705095561155
 20
3.4538784999999925
 30
0.0
 40
0.0538784999999962
  0
CIRCLE
  5
FD
100
AcDbEntity
100
AcDbCircle
  8
0
 62
3
420
65280
370
-1
 48
1.0
  6
BYLAYER
 10
-3.5206705110696959
 20
4.5461215010282636
 30
0.0
 40
0.0538784999999962
  0
CIRCLE
  5
FE
100
AcDbEntity
100
AcDbCircle
  8
0
 62
3
420
65280
370
-1
 48
1.0
  6
BYLAYER
 10
-5.5365372843080927
 20
3.4538784999999965
 30
0.0
 40
0.0538784999999962
  0
CIRCLE
  5
FF
100
AcDbEntity
100
AcDbCircle
  8
0
 62
3
420
65280
370
-1
 48
1.0
  6
BYLAYER
 10
-5.5365372827945123
 20
4.5461215010282681
 30
0.0
 40
0.0538784999999962
  0
CIRCLE
  5
100
100
AcDbEntity
100
AcDbCircle
  8
0
 62
3
420
65280
370
-1
 48
1.0
  6
BYLAYER
 10
-3.9240944988494064
 20
2.0981038969321073
 30
0.0
 40
0.0538784999999962
  0
CIRCLE
  5
101
100
AcDbEntity
100
AcDbCircle
  8
0
 62
3
420
65280
370
-1
 48
1.0
  6
BYLAYER
 10
-5.1330944988493989
 20
2.0981038969321073
 30
0.0
 40
0.0538784999999962
  0
CIRCLE
  5
102
100
AcDbEntity
100
AcDbCircle
  8
0
 62
14
420
8388608
370
-1
 48
1.0
  6
BYLAYER
 10
3.4713961030678924
 20
1.4936422859081819
 30
0.0
 40
0.438763036903433
  0
CIRCLE
  5
103
100
AcDbEntity
100
AcDbCircle
  8
0
 62
14
420
8388608
370
-1
 48
1.0
  6
BYLAYER
 10
-0.5286038969321076
 20
1.4936422859081873
 30
0.0
 40
0.438763036903433
  0
CIRCLE
  5
104
100
AcDbEntity
100
AcDbCircle
  8
0
 62
14
420
8388608
370
-1
 48
1.0
  6
BYLAYER
 10
-4.5286038969321076
 20
1.4936422859081817
 30
0.0
 40
0.438763036903433
  0
LINE
  5
105
100
AcDbEntity
100
AcDbLine
  8
0
 62
256
370
-1
 48
1.0
  6
BYLAYER
 10
2.5205764086440041
 20
2.8006038969321079
 30
0.0
 11
2.5205764086440006
 21
2.3670962735273946
 31
0.0
  0
LINE
  5
106
100
AcDbEntity
100
AcDbLine
  8
0
 62
256
370
-1
 48
1.0
  6
BYLAYER
 10
4.5337157936993577
 20
2.8006038969321079
 30
0.0
 11
4.5337157936993577
 21
2.3670962735273946
 31
0.0
  0
LINE
  5
107
100
AcDbEntity
100
AcDbLine
  8
0
 62
256
370
-1
 48
1.0
  6
BYLAYER
 10
0.5337157936993577
 20
2.8006038969321079
 30
0.0
 11
0.5337157936993577
 21
2.3670962735273946
 31
0.0
  0
LINE
  5
108
100
AcDbEntity
100
AcDbLine
  8
0
 62
256
370
-1
 48
1.0
  6
BYLAYER
 10
-1.4794235913559959
 20
2.8006038969321079
 30
0.0
 11
-1.4794235913559977
 21
2.3670962735273946
 31
0.0
  0
LINE
  5
109
100
AcDbEntity
100
AcDbLine
  8
0
 62
3
420
65280
370
-1
 48
1.0
  6
BYLAYER
 10
-5.4794235913559959
 20
2.8006038969321079
 30
0.0
 11
-5.4794235913559994
 21
2.3670962735273946
 31
0.0
  0
LINE
  5
10A
100
AcDbEntity
100
AcDbLine
  8
0
 62
3
420
65280
370
-1
 48
1.0
  6
BYLAYER
 10
-3.4662842063006423
 20
2.8006038969321079
 30
0.0
 11
-3.4662842063006423
 21
2.3670962735273946
 31
0.0
  0
LINE
  5
10B
100
AcDbEntity
100
AcDbLine
  8
0
 62
256
370
-1
 48
1.0
  6
BYLAYER
 10
-1.3636038969321085
 20
2.3286422859081881
 30
0.0
 11
0.3063961030678932
 21
2.3286422859081881
 31
0.0
  0
LINE
  5
10C
100
AcDbEntity
100
AcDbLine
  8
0
 62
256
370
-1
 48
1.0
  6
BYLAYER
 10
-5.3636038969321085
 20
2.3286422859081828
 30
0.0
 11
-3.6936038969321068
 21
2.3286422859081828
 31
0.0
  0
LINE
  5
10D
100
AcDbEntity
100
AcDbLine
  8
0
 62
256
370
-1
 48
1.0
  6
BYLAYER
 10
-1.3636038969321085
 20
0.6586422859081864
 30
0.0
 11
-1.3636038969321085
 21
2.3286422859081881
 31
0.0
  0
LINE
  5
10E
100
AcDbEntity
100
AcDbLine
  8
0
 62
256
370
-1
 48
1.0
  6
BYLAYER
 10
0.3063961030678932
 20
0.6586422859081864
 30
0.0
 11
0.3063961030678932
 21
2.3286422859081881
 31
0.0
  0
LINE
  5
10F
100
AcDbEntity
100
AcDbLine
  8
0
 62
256
370
-1
 48
1.0
  6
BYLAYER
 10
-1.3636038969321085
 20
0.6586422859081864
 30
0.0
 11
0.3063961030678932
 21
0.6586422859081864
 31
0.0
  0
LINE
  5
110
100
AcDbEntity
100
AcDbLine
  8
0
 62
256
370
-1
 48
1.0
  6
BYLAYER
 10
-5.3636038969321085
 20
0.6586422859081809
 30
0.0
 11
-5.3636038969321085
 21
2.3286422859081828
 31
0.0
  0
LINE
  5
111
100
AcDbEntity
100
AcDbLine
  8
0
 62
256
370
-1
 48
1.0
  6
BYLAYER
 10
-3.6936038969321068
 20
0.6586422859081809
 30
0.0
 11
-3.6936038969321068
 21
2.3286422859081828
 31
0.0
  0
LINE
  5
112
100
AcDbEntity
100
AcDbLine
  8
0
 62
256
370
-1
 48
1.0
  6
BYLAYER
 10
-5.3636038969321085
 20
0.6586422859081809
 30
0.0
 11
-3.6936038969321068
 21
0.6586422859081809
 31
0.0
  0
LINE
  5
113
100
AcDbEntity
100
AcDbLine
  8
0
 62
256
370
-1
 48
1.0
  6
BYLAYER
 10
4.9427922061357883
 20
0.459973865405976
 30
0.0
 11
2.0
 21
0.4599738654059795
 31
0.0
  0
LINE
  5
114
100
AcDbEntity
100
AcDbLine
  8
0
 62
256
370
-1
 48
1.0
  6
BYLAYER
 10
0.9427922061357883
 20
0.4599738654059813
 30
0.0
 11
-2.0
 21
0.4599738654059848
 31
0.0
  0
LINE
  5
115
100
AcDbEntity
100
AcDbLine
  8
0
 62
256
370
-1
 48
1.0
  6
BYLAYER
 10
-3.0572077938642117
 20
0.4599738654059757
 30
0.0
 11
-6.0
 21
0.4599738654059793
 31
0.0
  0
CIRCLE
  5
116
100
AcDbEntity
100
AcDbCircle
  8
0
 62
256
370
-1
 48
1.0
  6
BYLAYER
 10
3.4713961030678924
 20
1.4936422859081819
 30
0.0
 40
0.0999999999999996
  0
CIRCLE
  5
117
100
AcDbEntity
100
AcDbCircle
  8
0
 62
256
370
-1
 48
1.0
  6
BYLAYER
 10
-0.5286038969321076
 20
1.4936422859081873
 30
0.0
 40
0.0999999999999996
  0
CIRCLE
  5
118
100
AcDbEntity
100
AcDbCircle
  8
0
 62
4
420
65535
370
-1
 48
1.0
  6
BYLAYER
 10
-4.5286038969321076
 20
1.4936422859081817
 30
0.0
 40
0.0999999999999996
  0
LINE
  5
119
100
AcDbEntity
100
AcDbLine
  8
0
 62
256
370
-1
 48
1.0
  6
BYLAYER
 10
-0.7810494364142642
 20
1.485018119207151
 30
0.0
 11
-0.7810494364142642
 21
1.5022664526092235
 31
0.0
  0
LINE
  5
11A
100
AcDbEntity
100
AcDbLine
  8
0
 62
256
370
-1
 48
1.0
  6
BYLAYER
 10
3.2189505635857358
 20
1.4850181192071457
 30
0.0
 11
3.2189505635857358
 21
1.5022664526092182
 31
0.0
  0
LINE
  5
11B
100
AcDbEntity
100
AcDbLine
  8
0
 62
1
420
16711680
370
-1
 48
1.0
  6
BYLAYER
 10
-4.7810494364142642
 20
1.4850181192071454
 30
0.0
 11
-4.7810494364142642
 21
1.502266452609218
 31
0.0
  0
LINE
  5
11C
100
AcDbEntity
100
AcDbLine
  8
0
 62
256
370
-1
 48
1.0
  6
BYLAYER
 10
-0.774679661839766
 20
1.5506496940305965
 30
0.0
 11
-0.7702154646590316
 21
1.5673103047241028
 31
0.0
  0
LINE
  5
11D
100
AcDbEntity
100
AcDbLine
  8
0
 62
256
370
-1
 48
1.0
  6
BYLAYER
 10
3.225320338160234
 20
1.5506496940305912
 30
0.0
 11
3.2297845353409684
 21
1.5673103047240975
 31
0.0
  0
LINE
  5
11E
100
AcDbEntity
100
AcDbLine
  8
0
 62
1
420
16711680
370
-1
 48
1.0
  6
BYLAYER
 10
-4.774679661839766
 20
1.5506496940305909
 30
0.0
 11
-4.7702154646590316
 21
1.5673103047240973
 31
0.0
  0
LINE
  5
11F
100
AcDbEntity
100
AcDbLine
  8
0
 62
256
370
-1
 48
1.0
  6
BYLAYER
 10
-0.7515402305462402
 20
1.6123963081996973
 30
0.0
 11
-0.7429160638452039
 21
1.6273338030988338
 31
0.0
  0
LINE
  5
120
100
AcDbEntity
100
AcDbLine
  8
0
 62
256
370
-1
 48
1.0
  6
BYLAYER
 10
3.2484597694537598
 20
1.6123963081996919
 30
0.0
 11
3.2570839361547961
 21
1.6273338030988285
 31
0.0
  0
LINE
  5
121
100
AcDbEntity
100
AcDbLine
  8
0
 62
1
420
16711680
370
-1
 48
1.0
  6
BYLAYER
 10
-4.7515402305462402
 20
1.6123963081996917
 30
0.0
 11
-4.7429160638452039
 21
1.6273338030988282
 31
0.0
  0
LINE
  5
122
100
AcDbEntity
100
AcDbLine
  8
0
 62
256
370
-1
 48
1.0
  6
BYLAYER
 10
-0.7132080565366223
 20
1.6660500319999301
 30
0.0
 11
-0.7010116430238504
 21
1.678246445512702
 31
0.0
  0
LINE
  5
123
100
AcDbEntity
100
AcDbLine
  8
0
 62
256
370
-1
 48
1.0
  6
BYLAYER
 10
3.2867919434633777
 20
1.6660500319999247
 30
0.0
 11
3.2989883569761496
 21
1.6782464455126966
 31
0.0
  0
LINE
  5
124
100
AcDbEntity
100
AcDbLine
  8
0
 62
1
420
16711680
370
-1
 48
1.0
  6
BYLAYER
 10
-4.7132080565366223
 20
1.6660500319999245
 30
0.0
 11
-4.7010116430238504
 21
1.6782464455126964
 31
0.0
  0
LINE
  5
125
100
AcDbEntity
100
AcDbLine
  8
0
 62
256
370
-1
 48
1.0
  6
BYLAYER
 10
-0.6622954141227542
 20
1.7079544528212836
 30
0.0
 11
-0.6473579192236176
 21
1.7165786195223198
 31
0.0
  0
LINE
  5
126
100
AcDbEntity
100
AcDbLine
  8
0
 62
256
370
-1
 48
1.0
  6
BYLAYER
 10
3.3377045858772441
 20
1.7079544528212782
 30
0.0
 11
3.3526420807763806
 21
1.7165786195223145
 31
0.0
  0
LINE
  5
127
100
AcDbEntity
100
AcDbLine
  8
0
 62
1
420
16711680
370
-1
 48
1.0
  6
BYLAYER
 10
-4.6622954141227559
 20
1.707954452821278
 30
0.0
 11
-4.6473579192236194
 21
1.7165786195223143
 31
0.0
  0
LINE
  5
128
100
AcDbEntity
100
AcDbLine
  8
0
 62
256
370
-1
 48
1.0
  6
BYLAYER
 10
-0.6022719157480232
 20
1.7352538536351112
 30
0.0
 11
-0.5856113050545169
 21
1.7397180508158456
 31
0.0
  0
LINE
  5
129
100
AcDbEntity
100
AcDbLine
  8
0
 62
256
370
-1
 48
1.0
  6
BYLAYER
 10
3.3977280842519768
 20
1.7352538536351059
 30
0.0
 11
3.4143886949454831
 21
1.7397180508158403
 31
0.0
  0
LINE
  5
12A
100
AcDbEntity
100
AcDbLine
  8
0
 62
1
420
16711680
370
-1
 48
1.0
  6
BYLAYER
 10
-4.6022719157480232
 20
1.7352538536351056
 30
0.0
 11
-4.5856113050545169
 21
1.7397180508158401
 31
0.0
  0
LINE
  5
12B
100
AcDbEntity
100
AcDbLine
  8
0
 62
256
370
-1
 48
1.0
  6
BYLAYER
 10
-0.5372280636331439
 20
1.7460878253903438
 30
0.0
 11
-0.5199797302310714
 21
1.7460878253903438
 31
0.0
  0
LINE
  5
12C
100
AcDbEntity
100
AcDbLine
  8
0
 62
256
370
-1
 48
1.0
  6
BYLAYER
 10
3.4627719363668561
 20
1.7460878253903385
 30
0.0
 11
3.4800202697689286
 21
1.7460878253903385
 31
0.0
  0
LINE
  5
12D
100
AcDbEntity
100
AcDbLine
  8
0
 62
1
420
16711680
370
-1
 48
1.0
  6
BYLAYER
 10
-4.5372280636331439
 20
1.7460878253903382
 30
0.0
 11
-4.5199797302310714
 21
1.7460878253903382
 31
0.0
  0
LINE
  5
12E
100
AcDbEntity
100
AcDbLine
  8
0
 62
256
370
-1
 48
1.0
  6
BYLAYER
 10
-0.4715964888096984
 20
1.7397180508158456
 30
0.0
 11
-0.4549358781161921
 21
1.7352538536351112
 31
0.0
  0
LINE
  5
12F
100
AcDbEntity
100
AcDbLine
  8
0
 62
256
370
-1
 48
1.0
  6
BYLAYER
 10
3.5284035111903016
 20
1.7397180508158403
 30
0.0
 11
3.5450641218838079
 21
1.7352538536351059
 31
0.0
  0
LINE
  5
130
100
AcDbEntity
100
AcDbLine
  8
0
 62
1
420
16711680
370
-1
 48
1.0
  6
BYLAYER
 10
-4.4715964888096984
 20
1.7397180508158401
 30
0.0
 11
-4.4549358781161921
 21
1.7352538536351056
 31
0.0
  0
LINE
  5
131
100
AcDbEntity
100
AcDbLine
  8
0
 62
256
370
-1
 48
1.0
  6
BYLAYER
 10
-0.4098498746405976
 20
1.7165786195223198
 30
0.0
 11
-0.3949123797414611
 21
1.7079544528212836
 31
0.0
  0
LINE
  5
132
100
AcDbEntity
100
AcDbLine
  8
0
 62
256
370
-1
 48
1.0
  6
BYLAYER
 10
3.5901501253594041
 20
1.7165786195223145
 30
0.0
 11
3.6050876202585407
 21
1.7079544528212782
 31
0.0
  0
LINE
  5
133
100
AcDbEntity
100
AcDbLine
  8
0
 62
1
420
16711680
370
-1
 48
1.0
  6
BYLAYER
 10
-4.4098498746405959
 20
1.7165786195223143
 30
0.0
 11
-4.3949123797414593
 21
1.707954452821278
 31
0.0
  0
LINE
  5
134
100
AcDbEntity
100
AcDbLine
  8
0
 62
256
370
-1
 48
1.0
  6
BYLAYER
 10
-0.356196150840363
 20
1.678246445512702
 30
0.0
 11
-0.3439997373275929
 21
1.6660500319999301
 31
0.0
  0
LINE
  5
135
100
AcDbEntity
100
AcDbLine
  8
0
 62
256
370
-1
 48
1.0
  6
BYLAYER
 10
3.6438038491596352
 20
1.6782464455126966
 30
0.0
 11
3.6560002626724071
 21
1.6660500319999247
 31
0.0
  0
LINE
  5
136
100
AcDbEntity
100
AcDbLine
  8
0
 62
1
420
16711680
370
-1
 48
1.0
  6
BYLAYER
 10
-4.3561961508403648
 20
1.6782464455126964
 30
0.0
 11
-4.3439997373275929
 21
1.6660500319999245
 31
0.0
  0
LINE
  5
137
100
AcDbEntity
100
AcDbLine
  8
0
 62
256
370
-1
 48
1.0
  6
BYLAYER
 10
-0.3142917300190096
 20
1.6273338030988338
 30
0.0
 11
-0.3056675633179751
 21
1.6123963081996973
 31
0.0
  0
LINE
  5
138
100
AcDbEntity
100
AcDbLine
  8
0
 62
256
370
-1
 48
1.0
  6
BYLAYER
 10
3.6857082699809887
 20
1.6273338030988285
 30
0.0
 11
3.6943324366820249
 21
1.6123963081996919
 31
0.0
  0
LINE
  5
139
100
AcDbEntity
100
AcDbLine
  8
0
 62
1
420
16711680
370
-1
 48
1.0
  6
BYLAYER
 10
-4.3142917300190113
 20
1.6273338030988282
 30
0.0
 11
-4.3056675633179751
 21
1.6123963081996917
 31
0.0
  0
LINE
  5
13A
100
AcDbEntity
100
AcDbLine
  8
0
 62
256
370
-1
 48
1.0
  6
BYLAYER
 10
-0.2869923292051837
 20
1.5673103047241028
 30
0.0
 11
-0.2825281320244493
 21
1.5506496940305965
 31
0.0
  0
LINE
  5
13B
100
AcDbEntity
100
AcDbLine
  8
0
 62
256
370
-1
 48
1.0
  6
BYLAYER
 10
3.7130076707948163
 20
1.5673103047240975
 30
0.0
 11
3.7174718679755507
 21
1.5506496940305912
 31
0.0
  0
LINE
  5
13C
100
AcDbEntity
100
AcDbLine
  8
0
 62
1
420
16711680
370
-1
 48
1.0
  6
BYLAYER
 10
-4.2869923292051837
 20
1.5673103047240973
 30
0.0
 11
-4.2825281320244493
 21
1.5506496940305909
 31
0.0
  0
LINE
  5
13D
100
AcDbEntity
100
AcDbLine
  8
0
 62
256
370
-1
 48
1.0
  6
BYLAYER
 10
-0.2761583574499511
 20
1.5022664526092235
 30
0.0
 11
-0.2761583574499511
 21
1.485018119207151
 31
0.0
  0
LINE
  5
13E
100
AcDbEntity
100
AcDbLine
  8
0
 62
256
370
-1
 48
1.0
  6
BYLAYER
 10
3.7238416425500489
 20
1.5022664526092182
 30
0.0
 11
3.7238416425500489
 21
1.4850181192071457
 31
0.0
  0
LINE
  5
13F
100
AcDbEntity
100
AcDbLine
  8
0
 62
1
420
16711680
370
-1
 48
1.0
  6
BYLAYER
 10
-4.2761583574499511
 20
1.502266452609218
 30
0.0
 11
-4.2761583574499511
 21
1.4850181192071454
 31
0.0
  0
LINE
  5
140
100
AcDbEntity
100
AcDbLine
  8
0
 62
256
370
-1
 48
1.0
  6
BYLAYER
 10
-0.2825281320244493
 20
1.436634877785778
 30
0.0
 11
-0.2869923292051837
 21
1.4199742670922717
 31
0.0
  0
LINE
  5
141
100
AcDbEntity
100
AcDbLine
  8
0
 62
256
370
-1
 48
1.0
  6
BYLAYER
 10
3.7174718679755507
 20
1.4366348777857727
 30
0.0
 11
3.7130076707948163
 21
1.4199742670922664
 31
0.0
  0
LINE
  5
142
100
AcDbEntity
100
AcDbLine
  8
0
 62
1
420
16711680
370
-1
 48
1.0
  6
BYLAYER
 10
-4.2825281320244493
 20
1.4366348777857725
 30
0.0
 11
-4.2869923292051837
 21
1.4199742670922662
 31
0.0
  0
LINE
  5
143
100
AcDbEntity
100
AcDbLine
  8
0
 62
256
370
-1
 48
1.0
  6
BYLAYER
 10
-0.3056675633179751
 20
1.3748882636166773
 30
0.0
 11
-0.3142917300190113
 21
1.3599507687175407
 31
0.0
  0
LINE
  5
144
100
AcDbEntity
100
AcDbLine
  8
0
 62
256
370
-1
 48
1.0
  6
BYLAYER
 10
3.6943324366820249
 20
1.3748882636166719
 30
0.0
 11
3.6857082699809887
 21
1.3599507687175354
 31
0.0
  0
LINE
  5
145
100
AcDbEntity
100
AcDbLine
  8
0
 62
1
420
16711680
370
-1
 48
1.0
  6
BYLAYER
 10
-4.3056675633179751
 20
1.3748882636166717
 30
0.0
 11
-4.3142917300190113
 21
1.3599507687175352
 31
0.0
  0
LINE
  5
146
100
AcDbEntity
100
AcDbLine
  8
0
 62
256
370
-1
 48
1.0
  6
BYLAYER
 10
-0.3439997373275929
 20
1.3212345398164427
 30
0.0
 11
-0.3561961508403648
 21
1.3090381263036726
 31
0.0
  0
LINE
  5
147
100
AcDbEntity
100
AcDbLine
  8
0
 62
256
370
-1
 48
1.0
  6
BYLAYER
 10
3.6560002626724071
 20
1.3212345398164373
 30
0.0
 11
3.6438038491596352
 21
1.3090381263036672
 31
0.0
  0
LINE
  5
148
100
AcDbEntity
100
AcDbLine
  8
0
 62
1
420
16711680
370
-1
 48
1.0
  6
BYLAYER
 10
-4.3439997373275929
 20
1.3212345398164371
 30
0.0
 11
-4.3561961508403648
 21
1.309038126303667
 31
0.0
  0
LINE
  5
149
100
AcDbEntity
100
AcDbLine
  8
0
 62
256
370
-1
 48
1.0
  6
BYLAYER
 10
-0.3949123797414611
 20
1.2793301189950892
 30
0.0
 11
-0.4098498746405976
 21
1.2707059522940547
 31
0.0
  0
LINE
  5
14A
100
AcDbEntity
100
AcDbLine
  8
0
 62
256
370
-1
 48
1.0
  6
BYLAYER
 10
3.6050876202585407
 20
1.2793301189950839
 30
0.0
 11
3.5901501253594041
 21
1.2707059522940494
 31
0.0
  0
LINE
  5
14B
100
AcDbEntity
100
AcDbLine
  8
0
 62
1
420
16711680
370
-1
 48
1.0
  6
BYLAYER
 10
-4.3949123797414593
 20
1.2793301189950836
 30
0.0
 11
-4.4098498746405959
 21
1.2707059522940491
 31
0.0
  0
LINE
  5
14C
100
AcDbEntity
100
AcDbLine
  8
0
 62
256
370
-1
 48
1.0
  6
BYLAYER
 10
-0.4549358781161921
 20
1.2520307181812633
 30
0.0
 11
-0.4715964888096984
 21
1.2475665210005289
 31
0.0
  0
LINE
  5
14D
100
AcDbEntity
100
AcDbLine
  8
0
 62
256
370
-1
 48
1.0
  6
BYLAYER
 10
3.5450641218838079
 20
1.252030718181258
 30
0.0
 11
3.5284035111903016
 21
1.2475665210005236
 31
0.0
  0
LINE
  5
14E
100
AcDbEntity
100
AcDbLine
  8
0
 62
1
420
16711680
370
-1
 48
1.0
  6
BYLAYER
 10
-4.4549358781161921
 20
1.2520307181812578
 30
0.0
 11
-4.4715964888096984
 21
1.2475665210005233
 31
0.0
  0
LINE
  5
14F
100
AcDbEntity
100
AcDbLine
  8
0
 62
256
370
-1
 48
1.0
  6
BYLAYER
 10
-0.5199797302310714
 20
1.2411967464260307
 30
0.0
 11
-0.5372280636331439
 21
1.2411967464260307
 31
0.0
  0
LINE
  5
150
100
AcDbEntity
100
AcDbLine
  8
0
 62
256
370
-1
 48
1.0
  6
BYLAYER
 10
3.4800202697689286
 20
1.2411967464260254
 30
0.0
 11
3.4627719363668561
 21
1.2411967464260254
 31
0.0
  0
LINE
  5
151
100
AcDbEntity
100
AcDbLine
  8
0
 62
1
420
16711680
370
-1
 48
1.0
  6
BYLAYER
 10
-4.5199797302310714
 20
1.2411967464260252
 30
0.0
 11
-4.5372280636331439
 21
1.2411967464260252
 31
0.0
  0
LINE
  5
152
100
AcDbEntity
100
AcDbLine
  8
0
 62
256
370
-1
 48
1.0
  6
BYLAYER
 10
-0.5856113050545169
 20
1.2475665210005289
 30
0.0
 11
-0.6022719157480232
 21
1.2520307181812633
 31
0.0
  0
LINE
  5
153
100
AcDbEntity
100
AcDbLine
  8
0
 62
256
370
-1
 48
1.0
  6
BYLAYER
 10
3.4143886949454831
 20
1.2475665210005236
 30
0.0
 11
3.3977280842519768
 21
1.252030718181258
 31
0.0
  0
LINE
  5
154
100
AcDbEntity
100
AcDbLine
  8
0
 62
1
420
16711680
370
-1
 48
1.0
  6
BYLAYER
 10
-4.5856113050545169
 20
1.2475665210005233
 30
0.0
 11
-4.6022719157480232
 21
1.2520307181812578
 31
0.0
  0
LINE
  5
155
100
AcDbEntity
100
AcDbLine
  8
0
 62
256
370
-1
 48
1.0
  6
BYLAYER
 10
-0.6473579192236176
 20
1.2707059522940547
 30
0.0
 11
-0.6622954141227542
 21
1.2793301189950892
 31
0.0
  0
LINE
  5
156
100
AcDbEntity
100
AcDbLine
  8
0
 62
256
370
-1
 48
1.0
  6
BYLAYER
 10
3.3526420807763806
 20
1.2707059522940494
 30
0.0
 11
3.3377045858772441
 21
1.2793301189950839
 31
0.0
  0
LINE
  5
157
100
AcDbEntity
100
AcDbLine
  8
0
 62
1
420
16711680
370
-1
 48
1.0
  6
BYLAYER
 10
-4.6473579192236194
 20
1.2707059522940491
 30
0.0
 11
-4.6622954141227559
 21
1.2793301189950836
 31
0.0
  0
LINE
  5
158
100
AcDbEntity
100
AcDbLine
  8
0
 62
256
370
-1
 48
1.0
  6
BYLAYER
 10
-0.7010116430238504
 20
1.3090381263036726
 30
0.0
 11
-0.7132080565366223
 21
1.3212345398164427
 31
0.0
  0
LINE
  5
159
100
AcDbEntity
100
AcDbLine
  8
0
 62
256
370
-1
 48
1.0
  6
BYLAYER
 10
3.2989883569761496
 20
1.3090381263036672
 30
0.0
 11
3.2867919434633777
 21
1.3212345398164373
 31
0.0
  0
LINE
  5
15A
100
AcDbEntity
100
AcDbLine
  8
0
 62
1
420
16711680
370
-1
 48
1.0
  6
BYLAYER
 10
-4.7010116430238504
 20
1.309038126303667
 30
0.0
 11
-4.7132080565366223
 21
1.3212345398164371
 31
0.0
  0
LINE
  5
15B
100
AcDbEntity
100
AcDbLine
  8
0
 62
256
370
-1
 48
1.0
  6
BYLAYER
 10
-0.7429160638452039
 20
1.3599507687175407
 30
0.0
 11
-0.7515402305462402
 21
1.3748882636166773
 31
0.0
  0
LINE
  5
15C
100
AcDbEntity
100
AcDbLine
  8
0
 62
256
370
-1
 48
1.0
  6
BYLAYER
 10
3.2570839361547961
 20
1.3599507687175354
 30
0.0
 11
3.2484597694537598
 21
1.3748882636166719
 31
0.0
  0
LINE
  5
15D
100
AcDbEntity
100
AcDbLine
  8
0
 62
1
420
16711680
370
-1
 48
1.0
  6
BYLAYER
 10
-4.7429160638452039
 20
1.3599507687175352
 30
0.0
 11
-4.7515402305462402
 21
1.3748882636166717
 31
0.0
  0
LINE
  5
15E
100
AcDbEntity
100
AcDbLine
  8
0
 62
256
370
-1
 48
1.0
  6
BYLAYER
 10
-0.7702154646590316
 20
1.4199742670922717
 30
0.0
 11
-0.774679661839766
 21
1.436634877785778
 31
0.0
  0
LINE
  5
15F
100
AcDbEntity
100
AcDbLine
  8
0
 62
256
370
-1
 48
1.0
  6
BYLAYER
 10
3.2297845353409684
 20
1.4199742670922664
 30
0.0
 11
3.225320338160234
 21
1.4366348777857727
 31
0.0
  0
LINE
  5
160
100
AcDbEntity
100
AcDbLine
  8
0
 62
1
420
16711680
370
-1
 48
1.0
  6
BYLAYER
 10
-4.7702154646590316
 20
1.4199742670922662
 30
0.0
 11
-4.774679661839766
 21
1.4366348777857725
 31
0.0
  0
LINE
  5
161
100
AcDbEntity
100
AcDbLine
  8
0
 62
256
370
-1
 48
1.0
  6
BYLAYER
 10
-0.7263758752008815
 20
1.5737262122094631
 30
0.0
 11
-0.7250776912463106
 21
1.5768603055190411
 31
0.0
  0
LINE
  5
162
100
AcDbEntity
100
AcDbLine
  8
0
 62
256
370
-1
 48
1.0
  6
BYLAYER
 10
3.2736241247991167
 20
1.5737262122094577
 30
0.0
 11
3.2749223087536912
 21
1.5768603055190358
 31
0.0
  0
LINE
  5
163
100
AcDbEntity
100
AcDbLine
  8
0
 62
1
420
16711680
370
-1
 48
1.0
  6
BYLAYER
 10
-4.7263758752008833
 20
1.5737262122094575
 30
0.0
 11
-4.7250776912463088
 21
1.5768603055190356
 31
0.0
  0
LINE
  5
164
100
AcDbEntity
100
AcDbLine
  8
0
 62
256
370
-1
 48
1.0
  6
BYLAYER
 10
-0.6989097131248396
 20
1.6221845731567814
 30
0.0
 11
-0.6968446006781992
 21
1.6248758800950132
 31
0.0
  0
LINE
  5
165
100
AcDbEntity
100
AcDbLine
  8
0
 62
256
370
-1
 48
1.0
  6
BYLAYER
 10
3.3010902868751621
 20
1.6221845731567761
 30
0.0
 11
3.303155399321799
 21
1.6248758800950078
 31
0.0
  0
LINE
  5
166
100
AcDbEntity
100
AcDbLine
  8
0
 62
1
420
16711680
370
-1
 48
1.0
  6
BYLAYER
 10
-4.6989097131248379
 20
1.6221845731567759
 30
0.0
 11
-4.696844600678201
 21
1.6248758800950076
 31
0.0
  0
LINE
  5
167
100
AcDbEntity
100
AcDbLine
  8
0
 62
256
370
-1
 48
1.0
  6
BYLAYER
 10
-0.6598374911189318
 20
1.6618829896542806
 30
0.0
 11
-0.6571461841806983
 21
1.663948102100921
 31
0.0
  0
LINE
  5
168
100
AcDbEntity
100
AcDbLine
  8
0
 62
256
370
-1
 48
1.0
  6
BYLAYER
 10
3.3401625088810682
 20
1.6618829896542753
 30
0.0
 11
3.3428538158193
 21
1.6639481021009157
 31
0.0
  0
LINE
  5
169
100
AcDbEntity
100
AcDbLine
  8
0
 62
1
420
16711680
370
-1
 48
1.0
  6
BYLAYER
 10
-4.6598374911189318
 20
1.6618829896542751
 30
0.0
 11
-4.6571461841807
 21
1.6639481021009155
 31
0.0
  0
LINE
  5
16A
100
AcDbEntity
100
AcDbLine
  8
0
 62
256
370
-1
 48
1.0
  6
BYLAYER
 10
-0.6118219165429597
 20
1.6901160802223938
 30
0.0
 11
-0.6086878232333817
 21
1.6914142641769629
 31
0.0
  0
LINE
  5
16B
100
AcDbEntity
100
AcDbLine
  8
0
 62
256
370
-1
 48
1.0
  6
BYLAYER
 10
3.3881780834570385
 20
1.6901160802223885
 30
0.0
 11
3.3913121767666183
 21
1.6914142641769576
 31
0.0
  0
LINE
  5
16C
100
AcDbEntity
100
AcDbLine
  8
0
 62
1
420
16711680
370
-1
 48
1.0
  6
BYLAYER
 10
-4.6118219165429615
 20
1.6901160802223882
 30
0.0
 11
-4.6086878232333817
 21
1.6914142641769574
 31
0.0
  0
LINE
  5
16D
100
AcDbEntity
100
AcDbLine
  8
0
 62
256
370
-1
 48
1.0
  6
BYLAYER
 10
-0.5581351714547864
 20
1.7049598063962907
 30
0.0
 11
-0.5547718750535768
 21
1.7054025927676353
 31
0.0
  0
LINE
  5
16E
100
AcDbEntity
100
AcDbLine
  8
0
 62
256
370
-1
 48
1.0
  6
BYLAYER
 10
3.4418648285452136
 20
1.7049598063962854
 30
0.0
 11
3.4452281249464214
 21
1.70540259276763
 31
0.0
  0
LINE
  5
16F
100
AcDbEntity
100
AcDbLine
  8
0
 62
1
420
16711680
370
-1
 48
1.0
  6
BYLAYER
 10
-4.5581351714547864
 20
1.7049598063962852
 30
0.0
 11
-4.5547718750535786
 21
1.7054025927676297
 31
0.0
  0
LINE
  5
170
100
AcDbEntity
100
AcDbLine
  8
0
 62
256
370
-1
 48
1.0
  6
BYLAYER
 10
-0.5024359188106331
 20
1.7054025927676371
 30
0.0
 11
-0.4990726224094217
 21
1.7049598063962907
 31
0.0
  0
LINE
  5
171
100
AcDbEntity
100
AcDbLine
  8
0
 62
256
370
-1
 48
1.0
  6
BYLAYER
 10
3.4975640811893669
 20
1.7054025927676317
 30
0.0
 11
3.5009273775905783
 21
1.7049598063962854
 31
0.0
  0
LINE
  5
172
100
AcDbEntity
100
AcDbLine
  8
0
 62
1
420
16711680
370
-1
 48
1.0
  6
BYLAYER
 10
-4.5024359188106331
 20
1.7054025927676315
 30
0.0
 11
-4.4990726224094217
 21
1.7049598063962852
 31
0.0
  0
LINE
  5
173
100
AcDbEntity
100
AcDbLine
  8
0
 62
256
370
-1
 48
1.0
  6
BYLAYER
 10
-0.4485199706308283
 20
1.6914142641769647
 30
0.0
 11
-0.4453858773212502
 21
1.6901160802223938
 31
0.0
  0
LINE
  5
174
100
AcDbEntity
100
AcDbLine
  8
0
 62
256
370
-1
 48
1.0
  6
BYLAYER
 10
3.55148002936917
 20
1.6914142641769594
 30
0.0
 11
3.5546141226787498
 21
1.6901160802223885
 31
0.0
  0
LINE
  5
175
100
AcDbEntity
100
AcDbLine
  8
0
 62
1
420
16711680
370
-1
 48
1.0
  6
BYLAYER
 10
-4.44851997063083
 20
1.6914142641769592
 30
0.0
 11
-4.4453858773212502
 21
1.6901160802223882
 31
0.0
  0
LINE
  5
176
100
AcDbEntity
100
AcDbLine
  8
0
 62
256
370
-1
 48
1.0
  6
BYLAYER
 10
-0.4000616096835099
 20
1.6639481021009228
 30
0.0
 11
-0.3973703027452782
 21
1.6618829896542824
 31
0.0
  0
LINE
  5
177
100
AcDbEntity
100
AcDbLine
  8
0
 62
256
370
-1
 48
1.0
  6
BYLAYER
 10
3.5999383903164919
 20
1.6639481021009175
 30
0.0
 11
3.6026296972547236
 21
1.6618829896542771
 31
0.0
  0
LINE
  5
178
100
AcDbEntity
100
AcDbLine
  8
0
 62
1
420
16711680
370
-1
 48
1.0
  6
BYLAYER
 10
-4.4000616096835081
 20
1.6639481021009173
 30
0.0
 11
-4.3973703027452764
 21
1.6618829896542768
 31
0.0
  0
LINE
  5
179
100
AcDbEntity
100
AcDbLine
  8
0
 62
256
370
-1
 48
1.0
  6
BYLAYER
 10
-0.360363193186009
 20
1.6248758800950132
 30
0.0
 11
-0.3582980807393685
 21
1.6221845731567814
 31
0.0
  0
LINE
  5
17A
100
AcDbEntity
100
AcDbLine
  8
0
 62
256
370
-1
 48
1.0
  6
BYLAYER
 10
3.6396368068139928
 20
1.6248758800950078
 30
0.0
 11
3.6417019192606297
 21
1.6221845731567761
 31
0.0
  0
LINE
  5
17B
100
AcDbEntity
100
AcDbLine
  8
0
 62
1
420
16711680
370
-1
 48
1.0
  6
BYLAYER
 10
-4.3603631931860072
 20
1.6248758800950076
 30
0.0
 11
-4.3582980807393703
 21
1.6221845731567759
 31
0.0
  0
LINE
  5
17C
100
AcDbEntity
100
AcDbLine
  8
0
 62
256
370
-1
 48
1.0
  6
BYLAYER
 10
-0.3321301026178975
 20
1.5768603055190411
 30
0.0
 11
-0.3308319186633266
 21
1.5737262122094631
 31
0.0
  0
LINE
  5
17D
100
AcDbEntity
100
AcDbLine
  8
0
 62
256
370
-1
 48
1.0
  6
BYLAYER
 10
3.6678698973821007
 20
1.5768603055190358
 30
0.0
 11
3.6691680813366752
 21
1.5737262122094577
 31
0.0
  0
LINE
  5
17E
100
AcDbEntity
100
AcDbLine
  8
0
 62
1
420
16711680
370
-1
 48
1.0
  6
BYLAYER
 10
-4.3321301026178993
 20
1.5768603055190356
 30
0.0
 11
-4.3308319186633248
 21
1.5737262122094575
 31
0.0
  0
LINE
  5
17F
100
AcDbEntity
100
AcDbLine
  8
0
 62
256
370
-1
 48
1.0
  6
BYLAYER
 10
-0.3172863764440006
 20
1.5231735604308696
 30
0.0
 11
-0.3168435900726543
 21
1.5198102640296582
 31
0.0
  0
LINE
  5
180
100
AcDbEntity
100
AcDbLine
  8
0
 62
256
370
-1
 48
1.0
  6
BYLAYER
 10
3.6827136235560012
 20
1.5231735604308643
 30
0.0
 11
3.6831564099273457
 21
1.5198102640296529
 31
0.0
  0
LINE
  5
181
100
AcDbEntity
100
AcDbLine
  8
0
 62
1
420
16711680
370
-1
 48
1.0
  6
BYLAYER
 10
-4.3172863764439988
 20
1.523173560430864
 30
0.0
 11
-4.3168435900726543
 21
1.5198102640296527
 31
0.0
  0
LINE
  5
182
100
AcDbEntity
100
AcDbLine
  8
0
 62
256
370
-1
 48
1.0
  6
BYLAYER
 10
-0.3168435900726543
 20
1.4674743077867145
 30
0.0
 11
-0.3172863764440006
 21
1.4641110113855049
 31
0.0
  0
LINE
  5
183
100
AcDbEntity
100
AcDbLine
  8
0
 62
256
370
-1
 48
1.0
  6
BYLAYER
 10
3.6831564099273457
 20
1.4674743077867092
 30
0.0
 11
3.6827136235560012
 21
1.4641110113854996
 31
0.0
  0
LINE
  5
184
100
AcDbEntity
100
AcDbLine
  8
0
 62
1
420
16711680
370
-1
 48
1.0
  6
BYLAYER
 10
-4.3168435900726543
 20
1.467474307786709
 30
0.0
 11
-4.3172863764439988
 21
1.4641110113854994
 31
0.0
  0
LINE
  5
185
100
AcDbEntity
100
AcDbLine
  8
0
 62
256
370
-1
 48
1.0
  6
BYLAYER
 10
-0.3308319186633266
 20
1.4135583596069115
 30
0.0
 11
-0.3321301026178958
 21
1.4104242662973334
 31
0.0
  0
LINE
  5
186
100
AcDbEntity
100
AcDbLine
  8
0
 62
256
370
-1
 48
1.0
  6
BYLAYER
 10
3.6691680813366752
 20
1.4135583596069061
 30
0.0
 11
3.6678698973821042
 21
1.4104242662973281
 31
0.0
  0
LINE
  5
187
100
AcDbEntity
100
AcDbLine
  8
0
 62
1
420
16711680
370
-1
 48
1.0
  6
BYLAYER
 10
-4.3308319186633248
 20
1.4135583596069059
 30
0.0
 11
-4.3321301026178958
 21
1.4104242662973279
 31
0.0
  0
LINE
  5
188
100
AcDbEntity
100
AcDbLine
  8
0
 62
256
370
-1
 48
1.0
  6
BYLAYER
 10
-0.3582980807393685
 20
1.3650999986595931
 30
0.0
 11
-0.360363193186009
 21
1.3624086917213596
 31
0.0
  0
LINE
  5
189
100
AcDbEntity
100
AcDbLine
  8
0
 62
256
370
-1
 48
1.0
  6
BYLAYER
 10
3.6417019192606297
 20
1.3650999986595878
 30
0.0
 11
3.6396368068139928
 21
1.3624086917213543
 31
0.0
  0
LINE
  5
18A
100
AcDbEntity
100
AcDbLine
  8
0
 62
1
420
16711680
370
-1
 48
1.0
  6
BYLAYER
 10
-4.3582980807393703
 20
1.3650999986595875
 30
0.0
 11
-4.3603631931860072
 21
1.362408691721354
 31
0.0
  0
LINE
  5
18B
100
AcDbEntity
100
AcDbLine
  8
0
 62
256
370
-1
 48
1.0
  6
BYLAYER
 10
-0.3973703027452764
 20
1.3254015821620921
 30
0.0
 11
-0.4000616096835081
 21
1.3233364697154517
 31
0.0
  0
LINE
  5
18C
100
AcDbEntity
100
AcDbLine
  8
0
 62
256
370
-1
 48
1.0
  6
BYLAYER
 10
3.6026296972547236
 20
1.3254015821620868
 30
0.0
 11
3.5999383903164919
 21
1.3233364697154464
 31
0.0
  0
LINE
  5
18D
100
AcDbEntity
100
AcDbLine
  8
0
 62
1
420
16711680
370
-1
 48
1.0
  6
BYLAYER
 10
-4.3973703027452764
 20
1.3254015821620866
 30
0.0
 11
-4.4000616096835081
 21
1.3233364697154462
 31
0.0
  0
LINE
  5
18E
100
AcDbEntity
100
AcDbLine
  8
0
 62
256
370
-1
 48
1.0
  6
BYLAYER
 10
-0.4453858773212485
 20
1.297168491593979
 30
0.0
 11
-0.4485199706308265
 21
1.2958703076394098
 31
0.0
  0
LINE
  5
18F
100
AcDbEntity
100
AcDbLine
  8
0
 62
256
370
-1
 48
1.0
  6
BYLAYER
 10
3.5546141226787533
 20
1.2971684915939736
 30
0.0
 11
3.5514800293691735
 21
1.2958703076394045
 31
0.0
  0
LINE
  5
190
100
AcDbEntity
100
AcDbLine
  8
0
 62
1
420
16711680
370
-1
 48
1.0
  6
BYLAYER
 10
-4.4453858773212467
 20
1.2971684915939734
 30
0.0
 11
-4.4485199706308265
 21
1.2958703076394043
 31
0.0
  0
LINE
  5
191
100
AcDbEntity
100
AcDbLine
  8
0
 62
256
370
-1
 48
1.0
  6
BYLAYER
 10
-0.4990726224094217
 20
1.2823247654200838
 30
0.0
 11
-0.5024359188106313
 21
1.2818819790487375
 31
0.0
  0
LINE
  5
192
100
AcDbEntity
100
AcDbLine
  8
0
 62
256
370
-1
 48
1.0
  6
BYLAYER
 10
3.5009273775905783
 20
1.2823247654200784
 30
0.0
 11
3.4975640811893705
 21
1.2818819790487321
 31
0.0
  0
LINE
  5
193
100
AcDbEntity
100
AcDbLine
  8
0
 62
1
420
16711680
370
-1
 48
1.0
  6
BYLAYER
 10
-4.4990726224094217
 20
1.2823247654200782
 30
0.0
 11
-4.5024359188106295
 21
1.2818819790487319
 31
0.0
  0
LINE
  5
194
100
AcDbEntity
100
AcDbLine
  8
0
 62
256
370
-1
 48
1.0
  6
BYLAYER
 10
-0.5547718750535751
 20
1.2818819790487375
 30
0.0
 11
-0.5581351714547864
 21
1.2823247654200838
 31
0.0
  0
LINE
  5
195
100
AcDbEntity
100
AcDbLine
  8
0
 62
256
370
-1
 48
1.0
  6
BYLAYER
 10
3.4452281249464249
 20
1.2818819790487321
 30
0.0
 11
3.4418648285452136
 21
1.2823247654200784
 31
0.0
  0
LINE
  5
196
100
AcDbEntity
100
AcDbLine
  8
0
 62
1
420
16711680
370
-1
 48
1.0
  6
BYLAYER
 10
-4.5547718750535751
 20
1.2818819790487319
 30
0.0
 11
-4.5581351714547864
 21
1.2823247654200782
 31
0.0
  0
LINE
  5
197
100
AcDbEntity
100
AcDbLine
  8
0
 62
256
370
-1
 48
1.0
  6
BYLAYER
 10
-0.6086878232333799
 20
1.295870307639408
 30
0.0
 11
-0.6118219165429579
 21
1.297168491593979
 31
0.0
  0
LINE
  5
198
100
AcDbEntity
100
AcDbLine
  8
0
 62
256
370
-1
 48
1.0
  6
BYLAYER
 10
3.3913121767666219
 20
1.2958703076394027
 30
0.0
 11
3.3881780834570421
 21
1.2971684915939736
 31
0.0
  0
LINE
  5
199
100
AcDbEntity
100
AcDbLine
  8
0
 62
1
420
16711680
370
-1
 48
1.0
  6
BYLAYER
 10
-4.6086878232333781
 20
1.2958703076394025
 30
0.0
 11
-4.6118219165429579
 21
1.2971684915939734
 31
0.0
  0
LINE
  5
19A
100
AcDbEntity
100
AcDbLine
  8
0
 62
256
370
-1
 48
1.0
  6
BYLAYER
 10
-0.6571461841806983
 20
1.3233364697154517
 30
0.0
 11
-0.65983749111893
 21
1.3254015821620921
 31
0.0
  0
LINE
  5
19B
100
AcDbEntity
100
AcDbLine
  8
0
 62
256
370
-1
 48
1.0
  6
BYLAYER
 10
3.3428538158193
 20
1.3233364697154464
 30
0.0
 11
3.3401625088810682
 21
1.3254015821620868
 31
0.0
  0
LINE
  5
19C
100
AcDbEntity
100
AcDbLine
  8
0
 62
1
420
16711680
370
-1
 48
1.0
  6
BYLAYER
 10
-4.6571461841807
 20
1.3233364697154462
 30
0.0
 11
-4.6598374911189318
 21
1.3254015821620866
 31
0.0
  0
LINE
  5
19D
100
AcDbEntity
100
AcDbLine
  8
0
 62
256
370
-1
 48
1.0
  6
BYLAYER
 10
-0.6968446006781992
 20
1.3624086917213596
 30
0.0
 11
-0.6989097131248396
 21
1.3650999986595913
 31
0.0
  0
LINE
  5
19E
100
AcDbEntity
100
AcDbLine
  8
0
 62
256
370
-1
 48
1.0
  6
BYLAYER
 10
3.303155399321799
 20
1.3624086917213543
 30
0.0
 11
3.3010902868751621
 21
1.365099998659586
 31
0.0
  0
LINE
  5
19F
100
AcDbEntity
100
AcDbLine
  8
0
 62
1
420
16711680
370
-1
 48
1.0
  6
BYLAYER
 10
-4.696844600678201
 20
1.362408691721354
 30
0.0
 11
-4.6989097131248379
 21
1.3650999986595858
 31
0.0
  0
LINE
  5
1A0
100
AcDbEntity
100
AcDbLine
  8
0
 62
256
370
-1
 48
1.0
  6
BYLAYER
 10
-0.7250776912463106
 20
1.4104242662973316
 30
0.0
 11
-0.7263758752008815
 21
1.4135583596069097
 31
0.0
  0
LINE
  5
1A1
100
AcDbEntity
100
AcDbLine
  8
0
 62
256
370
-1
 48
1.0
  6
BYLAYER
 10
3.2749223087536912
 20
1.4104242662973263
 30
0.0
 11
3.2736241247991167
 21
1.4135583596069043
 31
0.0
  0
LINE
  5
1A2
100
AcDbEntity
100
AcDbLine
  8
0
 62
1
420
16711680
370
-1
 48
1.0
  6
BYLAYER
 10
-4.7250776912463088
 20
1.4104242662973261
 30
0.0
 11
-4.7263758752008833
 21
1.4135583596069041
 31
0.0
  0
LINE
  5
1A3
100
AcDbEntity
100
AcDbLine
  8
0
 62
256
370
-1
 48
1.0
  6
BYLAYER
 10
-0.7399214174202076
 20
1.4641110113855031
 30
0.0
 11
-0.7403642037915539
 21
1.4674743077867145
 31
0.0
  0
LINE
  5
1A4
100
AcDbEntity
100
AcDbLine
  8
0
 62
256
370
-1
 48
1.0
  6
BYLAYER
 10
3.2600785825797907
 20
1.4641110113854978
 30
0.0
 11
3.2596357962084461
 21
1.4674743077867092
 31
0.0
  0
LINE
  5
1A5
100
AcDbEntity
100
AcDbLine
  8
0
 62
1
420
16711680
370
-1
 48
1.0
  6
BYLAYER
 10
-4.7399214174202093
 20
1.4641110113854976
 30
0.0
 11
-4.7403642037915539
 21
1.467474307786709
 31
0.0
  0
LINE
  5
1A6
100
AcDbEntity
100
AcDbLine
  8
0
 62
256
370
-1
 48
1.0
  6
BYLAYER
 10
-0.7403642037915539
 20
1.5198102640296582
 30
0.0
 11
-0.7399214174202076
 21
1.5231735604308678
 31
0.0
  0
LINE
  5
1A7
100
AcDbEntity
100
AcDbLine
  8
0
 62
256
370
-1
 48
1.0
  6
BYLAYER
 10
3.2596357962084461
 20
1.5198102640296529
 30
0.0
 11
3.2600785825797907
 21
1.5231735604308625
 31
0.0
  0
LINE
  5
1A8
100
AcDbEntity
100
AcDbLine
  8
0
 62
1
420
16711680
370
-1
 48
1.0
  6
BYLAYER
 10
-4.7403642037915539
 20
1.5198102640296527
 30
0.0
 11
-4.7399214174202093
 21
1.5231735604308623
 31
0.0
  0
LINE
  5
1A9
100
AcDbEntity
100
AcDbLine
  8
0
 62
256
370
-1
 48
1.0
  6
BYLAYER
 10
-1.5909235913559954
 20
2.9999999999999982
 30
0.0
 11
-2.0
 21
3.0
 31
0.0
  0
LINE
  5
1AA
100
AcDbEntity
100
AcDbLine
  8
0
 62
256
370
-1
 48
1.0
  6
BYLAYER
 10
0.5337157936993577
 20
2.9999999999999964
 30
0.0
 11
0.9427922061357883
 21
3.0
 31
0.0
  0
LINE
  5
1AB
100
AcDbEntity
100
AcDbLine
  8
0
 62
256
370
-1
 48
1.0
  6
BYLAYER
 10
4.6019657936993639
 20
2.8936038969321114
 30
0.0
 11
4.6019657936993639
 21
2.8006038969321079
 31
0.0
  0
LINE
  5
1AC
100
AcDbEntity
100
AcDbLine
  8
0
 62
256
370
-1
 48
1.0
  6
BYLAYER
 10
2.5888264086440067
 20
2.8936038969321114
 30
0.0
 11
2.5888264086440067
 21
2.8006038969321079
 31
0.0
  0
LINE
  5
1AD
100
AcDbEntity
100
AcDbLine
  8
0
 62
256
370
-1
 48
1.0
  6
BYLAYER
 10
0.6019657936993639
 20
2.8936038969321114
 30
0.0
 11
0.6019657936993639
 21
2.8006038969321079
 31
0.0
  0
LINE
  5
1AE
100
AcDbEntity
100
AcDbLine
  8
0
 62
256
370
-1
 48
1.0
  6
BYLAYER
 10
-1.4111735913559951
 20
2.8936038969321114
 30
0.0
 11
-1.4111735913559951
 21
2.8006038969321079
 31
0.0
  0
LINE
  5
1AF
100
AcDbEntity
100
AcDbLine
  8
0
 62
256
370
-1
 48
1.0
  6
BYLAYER
 10
4.6528442951432893
 20
0.7723699684738747
 30
0.0
 11
4.7458442951432858
 21
0.7723699684738747
 31
0.0
  0
LINE
  5
1B0
100
AcDbEntity
100
AcDbLine
  8
0
 62
256
370
-1
 48
1.0
  6
BYLAYER
 10
4.6528442951432858
 20
1.7956038969321071
 30
0.0
 11
4.7458442951432858
 21
1.7956038969321071
 31
0.0
  0
LINE
  5
1B1
100
AcDbEntity
100
AcDbLine
  8
0
 62
256
370
-1
 48
1.0
  6
BYLAYER
 10
2.2899479109925061
 20
0.7723699684738747
 30
0.0
 11
2.1969479109925025
 21
0.7723699684738747
 31
0.0
  0
LINE
  5
1B2
100
AcDbEntity
100
AcDbLine
  8
0
 62
256
370
-1
 48
1.0
  6
BYLAYER
 10
2.2899479109925061
 20
1.7956038969321071
 30
0.0
 11
2.1969479109925061
 21
1.7956038969321071
 31
0.0
  0
LINE
  5
1B3
100
AcDbEntity
100
AcDbLine
  8
0
 62
3
420
65280
370
-1
 48
1.0
  6
BYLAYER
 10
-3.3980342063006361
 20
2.8936038969321114
 30
0.0
 11
-3.3980342063006361
 21
2.8006038969321079
 31
0.0
  0
LINE
  5
1B4
100
AcDbEntity
100
AcDbLine
  8
0
 62
3
420
65280
370
-1
 48
1.0
  6
BYLAYER
 10
-5.4111735913559933
 20
2.8936038969321114
 30
0.0
 11
-5.4111735913559933
 21
2.8006038969321079
 31
0.0
  0
LINE
  5
1B5
100
AcDbEntity
100
AcDbLine
  8
0
 62
3
420
65280
370
-1
 48
1.0
  6
BYLAYER
 10
-3.3471557048567107
 20
0.7723699684738745
 30
0.0
 11
-3.2541557048567142
 21
0.7723699684738745
 31
0.0
  0
LINE
  5
1B6
100
AcDbEntity
100
AcDbLine
  8
0
 62
3
420
65280
370
-1
 48
1.0
  6
BYLAYER
 10
-3.3471557048567142
 20
1.7956038969321069
 30
0.0
 11
-3.2541557048567142
 21
1.7956038969321069
 31
0.0
  0
LINE
  5
1B7
100
AcDbEntity
100
AcDbLine
  8
0
 62
3
420
65280
370
-1
 48
1.0
  6
BYLAYER
 10
-5.7100520890074939
 20
0.7723699684738745
 30
0.0
 11
-5.8030520890074975
 21
0.7723699684738745
 31
0.0
  0
LINE
  5
1B8
100
AcDbEntity
100
AcDbLine
  8
0
 62
3
420
65280
370
-1
 48
1.0
  6
BYLAYER
 10
-5.7100520890074939
 20
1.7956038969321069
 30
0.0
 11
-5.8030520890074939
 21
1.7956038969321069
 31
0.0
  0
LINE
  5
1B9
100
AcDbEntity
100
AcDbLine
  8
0
 62
256
370
-1
 48
1.0
  6
BYLAYER
 10
0.6528442951432893
 20
0.7723699684738801
 30
0.0
 11
0.7458442951432858
 21
0.7723699684738801
 31
0.0
  0
LINE
  5
1BA
100
AcDbEntity
100
AcDbLine
  8
0
 62
256
370
-1
 48
1.0
  6
BYLAYER
 10
0.6528442951432858
 20
1.7956038969321124
 30
0.0
 11
0.7458442951432858
 21
1.7956038969321124
 31
0.0
  0
LINE
  5
1BB
100
AcDbEntity
100
AcDbLine
  8
0
 62
256
370
-1
 48
1.0
  6
BYLAYER
 10
-1.7100520890074957
 20
0.7723699684738801
 30
0.0
 11
-1.8030520890074957
 21
0.7723699684738801
 31
0.0
  0
LINE
  5
1BC
100
AcDbEntity
100
AcDbLine
  8
0
 62
256
370
-1
 48
1.0
  6
BYLAYER
 10
-1.7100520890074939
 20
1.7956038969321124
 30
0.0
 11
-1.8030520890074939
 21
1.7956038969321124
 31
0.0
  0
LINE
  5
1BD
100
AcDbEntity
100
AcDbLine
  8
0
 62
256
370
-1
 48
1.0
  6
BYLAYER
 10
4.3539657936993592
 20
2.8006038969321079
 30
0.0
 11
4.3539657936993592
 21
2.8936038969321078
 31
0.0
  0
LINE
  5
1BE
100
AcDbEntity
100
AcDbLine
  8
0
 62
256
370
-1
 48
1.0
  6
BYLAYER
 10
2.340826408644002
 20
2.8006038969321079
 30
0.0
 11
2.340826408644002
 21
2.8936038969321078
 31
0.0
  0
LINE
  5
1BF
100
AcDbEntity
100
AcDbLine
  8
0
 62
256
370
-1
 48
1.0
  6
BYLAYER
 10
0.3539657936993592
 20
2.8006038969321079
 30
0.0
 11
0.3539657936993592
 21
2.8936038969321078
 31
0.0
  0
LINE
  5
1C0
100
AcDbEntity
100
AcDbLine
  8
0
 62
256
370
-1
 48
1.0
  6
BYLAYER
 10
-1.6591735913559962
 20
2.8006038969321079
 30
0.0
 11
-1.6591735913559962
 21
2.8936038969321078
 31
0.0
  0
LINE
  5
1C1
100
AcDbEntity
100
AcDbLine
  8
0
 62
256
370
-1
 48
1.0
  6
BYLAYER
 10
4.7458442951432858
 20
1.0203699684738758
 30
0.0
 11
4.6528442951432893
 21
1.0203699684738758
 31
0.0
  0
LINE
  5
1C2
100
AcDbEntity
100
AcDbLine
  8
0
 62
256
370
-1
 48
1.0
  6
BYLAYER
 10
4.7458442951432858
 20
2.0436038969321082
 30
0.0
 11
4.6528442951432858
 21
2.0436038969321082
 31
0.0
  0
LINE
  5
1C3
100
AcDbEntity
100
AcDbLine
  8
0
 62
256
370
-1
 48
1.0
  6
BYLAYER
 10
2.1969479109925025
 20
1.0203699684738758
 30
0.0
 11
2.2899479109925061
 21
1.0203699684738758
 31
0.0
  0
LINE
  5
1C4
100
AcDbEntity
100
AcDbLine
  8
0
 62
256
370
-1
 48
1.0
  6
BYLAYER
 10
2.1969479109925061
 20
2.0436038969321082
 30
0.0
 11
2.2899479109925061
 21
2.0436038969321082
 31
0.0
  0
LINE
  5
1C5
100
AcDbEntity
100
AcDbLine
  8
0
 62
3
420
65280
370
-1
 48
1.0
  6
BYLAYER
 10
-3.6460342063006408
 20
2.8006038969321079
 30
0.0
 11
-3.6460342063006408
 21
2.8936038969321078
 31
0.0
  0
LINE
  5
1C6
100
AcDbEntity
100
AcDbLine
  8
0
 62
3
420
65280
370
-1
 48
1.0
  6
BYLAYER
 10
-5.659173591355998
 20
2.8006038969321079
 30
0.0
 11
-5.659173591355998
 21
2.8936038969321078
 31
0.0
  0
LINE
  5
1C7
100
AcDbEntity
100
AcDbLine
  8
0
 62
3
420
65280
370
-1
 48
1.0
  6
BYLAYER
 10
-3.2541557048567142
 20
1.0203699684738756
 30
0.0
 11
-3.3471557048567107
 21
1.0203699684738756
 31
0.0
  0
LINE
  5
1C8
100
AcDbEntity
100
AcDbLine
  8
0
 62
3
420
65280
370
-1
 48
1.0
  6
BYLAYER
 10
-3.2541557048567142
 20
2.0436038969321082
 30
0.0
 11
-3.3471557048567142
 21
2.0436038969321082
 31
0.0
  0
LINE
  5
1C9
100
AcDbEntity
100
AcDbLine
  8
0
 62
3
420
65280
370
-1
 48
1.0
  6
BYLAYER
 10
-5.8030520890074975
 20
1.0203699684738756
 30
0.0
 11
-5.7100520890074939
 21
1.0203699684738756
 31
0.0
  0
LINE
  5
1CA
100
AcDbEntity
100
AcDbLine
  8
0
 62
3
420
65280
370
-1
 48
1.0
  6
BYLAYER
 10
-5.8030520890074939
 20
2.0436038969321082
 30
0.0
 11
-5.7100520890074939
 21
2.0436038969321082
 31
0.0
  0
LINE
  5
1CB
100
AcDbEntity
100
AcDbLine
  8
0
 62
256
370
-1
 48
1.0
  6
BYLAYER
 10
0.7458442951432858
 20
1.0203699684738812
 30
0.0
 11
0.6528442951432893
 21
1.0203699684738812
 31
0.0
  0
LINE
  5
1CC
100
AcDbEntity
100
AcDbLine
  8
0
 62
256
370
-1
 48
1.0
  6
BYLAYER
 10
0.7458442951432858
 20
2.0436038969321135
 30
0.0
 11
0.6528442951432858
 21
2.0436038969321135
 31
0.0
  0
LINE
  5
1CD
100
AcDbEntity
100
AcDbLine
  8
0
 62
256
370
-1
 48
1.0
  6
BYLAYER
 10
-1.8030520890074957
 20
1.0203699684738812
 30
0.0
 11
-1.7100520890074957
 21
1.0203699684738812
 31
0.0
  0
LINE
  5
1CE
100
AcDbEntity
100
AcDbLine
  8
0
 62
256
370
-1
 48
1.0
  6
BYLAYER
 10
-1.8030520890074939
 20
2.0436038969321135
 30
0.0
 11
-1.7100520890074939
 21
2.0436038969321135
 31
0.0
  0
LINE
  5
1CF
100
AcDbEntity
100
AcDbLine
  8
0
 62
256
370
-1
 48
1.0
  6
BYLAYER
 10
0.5337157936993577
 20
2.9999999999999982
 30
0.0
 11
0.5337157936993577
 21
2.8936038969321078
 31
0.0
  0
LINE
  5
1D0
100
AcDbEntity
100
AcDbLine
  8
0
 62
256
370
-1
 48
1.0
  6
BYLAYER
 10
-1.4794235913559977
 20
2.9999999999999982
 30
0.0
 11
-1.4794235913559977
 21
2.8936038969321078
 31
0.0
  0
LINE
  5
1D1
100
AcDbEntity
100
AcDbLine
  8
0
 62
256
370
-1
 48
1.0
  6
BYLAYER
 10
0.6528442951432858
 20
1.9753538969321127
 30
0.0
 11
0.4558963841507797
 21
1.9753538969321127
 31
0.0
  0
LINE
  5
1D2
100
AcDbEntity
100
AcDbLine
  8
0
 62
256
370
-1
 48
1.0
  6
BYLAYER
 10
0.9427922061357918
 20
1.9753538969321127
 30
0.0
 11
0.7458442951432858
 21
1.9753538969321127
 31
0.0
  0
LINE
  5
1D3
100
AcDbEntity
100
AcDbLine
  8
0
 62
256
370
-1
 48
1.0
  6
BYLAYER
 10
0.6528442951432893
 20
0.9521199684738804
 30
0.0
 11
0.4558963841507833
 21
0.9521199684738804
 31
0.0
  0
LINE
  5
1D4
100
AcDbEntity
100
AcDbLine
  8
0
 62
256
370
-1
 48
1.0
  6
BYLAYER
 10
0.9427922061357918
 20
0.9521199684738804
 30
0.0
 11
0.7458442951432858
 21
0.9521199684738804
 31
0.0
  0
LINE
  5
1D5
100
AcDbEntity
100
AcDbLine
  8
0
 62
256
370
-1
 48
1.0
  6
BYLAYER
 10
-1.7100520890074957
 20
0.9521199684738804
 30
0.0
 11
-1.5131041780149896
 21
0.9521199684738804
 31
0.0
  0
LINE
  5
1D6
100
AcDbEntity
100
AcDbLine
  8
0
 62
256
370
-1
 48
1.0
  6
BYLAYER
 10
-2.0000000000000018
 20
0.9521199684738804
 30
0.0
 11
-1.8030520890074957
 21
0.9521199684738804
 31
0.0
  0
LINE
  5
1D7
100
AcDbEntity
100
AcDbLine
  8
0
 62
256
370
-1
 48
1.0
  6
BYLAYER
 10
-1.7100520890074939
 20
1.9753538969321127
 30
0.0
 11
-1.5131041780149879
 21
1.9753538969321127
 31
0.0
  0
LINE
  5
1D8
100
AcDbEntity
100
AcDbLine
  8
0
 62
256
370
-1
 48
1.0
  6
BYLAYER
 10
-2.0
 20
1.9753538969321127
 30
0.0
 11
-1.8030520890074939
 21
1.9753538969321127
 31
0.0
  0
LINE
  5
1D9
100
AcDbEntity
100
AcDbLine
  8
0
 62
256
370
-1
 48
1.0
  6
BYLAYER
 10
4.4222157936993582
 20
2.8006038969321079
 30
0.0
 11
4.4222157936993582
 21
2.3670962735262275
 31
0.0
  0
LINE
  5
1DA
100
AcDbEntity
100
AcDbLine
  8
0
 62
256
370
-1
 48
1.0
  6
BYLAYER
 10
2.4090764086440011
 20
2.8006038969321079
 30
0.0
 11
2.4090764086440011
 21
2.3670962735262275
 31
0.0
  0
LINE
  5
1DB
100
AcDbEntity
100
AcDbLine
  8
0
 62
256
370
-1
 48
1.0
  6
BYLAYER
 10
0.4222157936993582
 20
2.8006038969321079
 30
0.0
 11
0.4222157936993582
 21
2.3670962735262275
 31
0.0
  0
LINE
  5
1DC
100
AcDbEntity
100
AcDbLine
  8
0
 62
256
370
-1
 48
1.0
  6
BYLAYER
 10
0.4222157936993582
 20
2.9999999999999982
 30
0.0
 11
0.4222157936993582
 21
2.8936038969321078
 31
0.0
  0
LINE
  5
1DD
100
AcDbEntity
100
AcDbLine
  8
0
 62
256
370
-1
 48
1.0
  6
BYLAYER
 10
-1.5909235913559971
 20
2.8006038969321079
 30
0.0
 11
-1.5909235913559971
 21
2.3670962735262275
 31
0.0
  0
LINE
  5
1DE
100
AcDbEntity
100
AcDbLine
  8
0
 62
256
370
-1
 48
1.0
  6
BYLAYER
 10
-1.5909235913559989
 20
2.9999999999999982
 30
0.0
 11
-1.5909235913559971
 21
2.8936038969321078
 31
0.0
  0
LINE
  5
1DF
100
AcDbEntity
100
AcDbLine
  8
0
 62
3
420
65280
370
-1
 48
1.0
  6
BYLAYER
 10
-3.5777842063006418
 20
2.8006038969321079
 30
0.0
 11
-3.5777842063006418
 21
2.3670962735262275
 31
0.0
  0
LINE
  5
1E0
100
AcDbEntity
100
AcDbLine
  8
0
 62
3
420
65280
370
-1
 48
1.0
  6
BYLAYER
 10
-5.5909235913559989
 20
2.8006038969321079
 30
0.0
 11
-5.5909235913559989
 21
2.3670962735262275
 31
0.0
  0
LINE
  5
1E1
100
AcDbEntity
100
AcDbLine
  8
0
 62
256
370
-1
 48
1.0
  6
BYLAYER
 10
0.6528442951432858
 20
1.8638538969321132
 30
0.0
 11
0.4558963841507797
 21
1.8638538969321132
 31
0.0
  0
LINE
  5
1E2
100
AcDbEntity
100
AcDbLine
  8
0
 62
256
370
-1
 48
1.0
  6
BYLAYER
 10
0.9427922061357918
 20
1.8638538969321132
 30
0.0
 11
0.7458442951432858
 21
1.8638538969321132
 31
0.0
  0
LINE
  5
1E3
100
AcDbEntity
100
AcDbLine
  8
0
 62
256
370
-1
 48
1.0
  6
BYLAYER
 10
0.6528442951432893
 20
0.8406199684738809
 30
0.0
 11
0.4558963841507833
 21
0.8406199684738809
 31
0.0
  0
LINE
  5
1E4
100
AcDbEntity
100
AcDbLine
  8
0
 62
256
370
-1
 48
1.0
  6
BYLAYER
 10
0.9427922061357918
 20
0.8406199684738809
 30
0.0
 11
0.7458442951432858
 21
0.8406199684738809
 31
0.0
  0
LINE
  5
1E5
100
AcDbEntity
100
AcDbLine
  8
0
 62
256
370
-1
 48
1.0
  6
BYLAYER
 10
-1.7100520890074957
 20
0.8406199684738809
 30
0.0
 11
-1.5131041780149896
 21
0.8406199684738809
 31
0.0
  0
LINE
  5
1E6
100
AcDbEntity
100
AcDbLine
  8
0
 62
256
370
-1
 48
1.0
  6
BYLAYER
 10
-2.0000000000000018
 20
0.8406199684738809
 30
0.0
 11
-1.8030520890074957
 21
0.8406199684738809
 31
0.0
  0
LINE
  5
1E7
100
AcDbEntity
100
AcDbLine
  8
0
 62
256
370
-1
 48
1.0
  6
BYLAYER
 10
-1.7100520890074939
 20
1.8638538969321132
 30
0.0
 11
-1.5131041780149879
 21
1.8638538969321132
 31
0.0
  0
LINE
  5
1E8
100
AcDbEntity
100
AcDbLine
  8
0
 62
256
370
-1
 48
1.0
  6
BYLAYER
 10
-2.0
 20
1.8638538969321132
 30
0.0
 11
-1.8030520890074939
 21
1.8638538969321132
 31
0.0
  0
LINE
  5
1E9
100
AcDbEntity
100
AcDbLine
  8
0
 62
256
370
-1
 48
1.0
  6
BYLAYER
 10
4.4222157936993653
 20
2.8006038969321079
 30
0.0
 11
4.3539657936993592
 21
2.8006038969321096
 31
0.0
  0
LINE
  5
1EA
100
AcDbEntity
100
AcDbLine
  8
0
 62
256
370
-1
 48
1.0
  6
BYLAYER
 10
2.4090764086440082
 20
2.8006038969321079
 30
0.0
 11
2.340826408644002
 21
2.8006038969321096
 31
0.0
  0
LINE
  5
1EB
100
AcDbEntity
100
AcDbLine
  8
0
 62
256
370
-1
 48
1.0
  6
BYLAYER
 10
0.4222157936993653
 20
2.8006038969321079
 30
0.0
 11
0.3539657936993592
 21
2.8006038969321096
 31
0.0
  0
LINE
  5
1EC
100
AcDbEntity
100
AcDbLine
  8
0
 62
256
370
-1
 48
1.0
  6
BYLAYER
 10
-1.5909235913559936
 20
2.8006038969321079
 30
0.0
 11
-1.6591735913559962
 21
2.8006038969321096
 31
0.0
  0
LINE
  5
1ED
100
AcDbEntity
100
AcDbLine
  8
0
 62
3
420
65280
370
-1
 48
1.0
  6
BYLAYER
 10
-3.5777842063006347
 20
2.8006038969321079
 30
0.0
 11
-3.6460342063006408
 21
2.8006038969321096
 31
0.0
  0
LINE
  5
1EE
100
AcDbEntity
100
AcDbLine
  8
0
 62
3
420
65280
370
-1
 48
1.0
  6
BYLAYER
 10
-5.5909235913559918
 20
2.8006038969321079
 30
0.0
 11
-5.659173591355998
 21
2.8006038969321096
 31
0.0
  0
LINE
  5
1EF
100
AcDbEntity
100
AcDbLine
  8
0
 62
256
370
-1
 48
1.0
  6
BYLAYER
 10
0.7458442951432858
 20
1.9753538969321109
 30
0.0
 11
0.7458442951432858
 21
2.0436038969321135
 31
0.0
  0
LINE
  5
1F0
100
AcDbEntity
100
AcDbLine
  8
0
 62
256
370
-1
 48
1.0
  6
BYLAYER
 10
0.7458442951432858
 20
0.9521199684738786
 30
0.0
 11
0.7458442951432858
 21
1.0203699684738812
 31
0.0
  0
LINE
  5
1F1
100
AcDbEntity
100
AcDbLine
  8
0
 62
256
370
-1
 48
1.0
  6
BYLAYER
 10
-1.8030520890074957
 20
0.9521199684738786
 30
0.0
 11
-1.8030520890074939
 21
1.0203699684738812
 31
0.0
  0
LINE
  5
1F2
100
AcDbEntity
100
AcDbLine
  8
0
 62
256
370
-1
 48
1.0
  6
BYLAYER
 10
-1.8030520890074939
 20
1.9753538969321109
 30
0.0
 11
-1.8030520890074921
 21
2.0436038969321135
 31
0.0
  0
LINE
  5
1F3
100
AcDbEntity
100
AcDbLine
  8
0
 62
256
370
-1
 48
1.0
  6
BYLAYER
 10
0.4222157936993653
 20
2.8936038969321078
 30
0.0
 11
0.3539657936993592
 21
2.8936038969321096
 31
0.0
  0
LINE
  5
1F4
100
AcDbEntity
100
AcDbLine
  8
0
 62
256
370
-1
 48
1.0
  6
BYLAYER
 10
-1.5909235913559936
 20
2.8936038969321078
 30
0.0
 11
-1.6591735913559962
 21
2.8936038969321096
 31
0.0
  0
LINE
  5
1F5
100
AcDbEntity
100
AcDbLine
  8
0
 62
256
370
-1
 48
1.0
  6
BYLAYER
 10
0.6528442951432858
 20
1.9753538969321109
 30
0.0
 11
0.6528442951432822
 21
2.0436038969321135
 31
0.0
  0
LINE
  5
1F6
100
AcDbEntity
100
AcDbLine
  8
0
 62
256
370
-1
 48
1.0
  6
BYLAYER
 10
0.6528442951432893
 20
0.9521199684738786
 30
0.0
 11
0.6528442951432858
 21
1.0203699684738812
 31
0.0
  0
LINE
  5
1F7
100
AcDbEntity
100
AcDbLine
  8
0
 62
256
370
-1
 48
1.0
  6
BYLAYER
 10
-1.7100520890074957
 20
0.9521199684738786
 30
0.0
 11
-1.7100520890074939
 21
1.0203699684738812
 31
0.0
  0
LINE
  5
1F8
100
AcDbEntity
100
AcDbLine
  8
0
 62
256
370
-1
 48
1.0
  6
BYLAYER
 10
-1.7100520890074939
 20
1.9753538969321109
 30
0.0
 11
-1.7100520890074922
 21
2.0436038969321135
 31
0.0
  0
LINE
  5
1F9
100
AcDbEntity
100
AcDbLine
  8
0
 62
256
370
-1
 48
1.0
  6
BYLAYER
 10
4.3539657936993592
 20
2.8936038969321078
 30
0.0
 11
4.6019657936993639
 21
2.8936038969321096
 31
0.0
  0
LINE
  5
1FA
100
AcDbEntity
100
AcDbLine
  8
0
 62
256
370
-1
 48
1.0
  6
BYLAYER
 10
2.340826408644002
 20
2.8936038969321078
 30
0.0
 11
2.5888264086440067
 21
2.8936038969321096
 31
0.0
  0
LINE
  5
1FB
100
AcDbEntity
100
AcDbLine
  8
0
 62
256
370
-1
 48
1.0
  6
BYLAYER
 10
0.5337157936993577
 20
2.8936038969321078
 30
0.0
 11
0.6019657936993639
 21
2.8936038969321096
 31
0.0
  0
LINE
  5
1FC
100
AcDbEntity
100
AcDbLine
  8
0
 62
256
370
-1
 48
1.0
  6
BYLAYER
 10
-1.4794235913559959
 20
2.8936038969321078
 30
0.0
 11
-1.4111735913559951
 21
2.8936038969321096
 31
0.0
  0
LINE
  5
1FD
100
AcDbEntity
100
AcDbLine
  8
0
 62
3
420
65280
370
-1
 48
1.0
  6
BYLAYER
 10
-3.6460342063006408
 20
2.8936038969321078
 30
0.0
 11
-3.3980342063006361
 21
2.8936038969321096
 31
0.0
  0
LINE
  5
1FE
100
AcDbEntity
100
AcDbLine
  8
0
 62
3
420
65280
370
-1
 48
1.0
  6
BYLAYER
 10
-5.659173591355998
 20
2.8936038969321078
 30
0.0
 11
-5.4111735913559933
 21
2.8936038969321096
 31
0.0
  0
LINE
  5
1FF
100
AcDbEntity
100
AcDbLine
  8
0
 62
256
370
-1
 48
1.0
  6
BYLAYER
 10
0.6528442951432858
 20
1.8638538969321132
 30
0.0
 11
0.6528442951432822
 21
1.7956038969321124
 31
0.0
  0
LINE
  5
200
100
AcDbEntity
100
AcDbLine
  8
0
 62
256
370
-1
 48
1.0
  6
BYLAYER
 10
0.6528442951432893
 20
0.8406199684738809
 30
0.0
 11
0.6528442951432858
 21
0.7723699684738801
 31
0.0
  0
LINE
  5
201
100
AcDbEntity
100
AcDbLine
  8
0
 62
256
370
-1
 48
1.0
  6
BYLAYER
 10
-1.7100520890074957
 20
0.8406199684738809
 30
0.0
 11
-1.7100520890074939
 21
0.7723699684738801
 31
0.0
  0
LINE
  5
202
100
AcDbEntity
100
AcDbLine
  8
0
 62
256
370
-1
 48
1.0
  6
BYLAYER
 10
-1.7100520890074939
 20
1.8638538969321132
 30
0.0
 11
-1.7100520890074922
 21
1.7956038969321124
 31
0.0
  0
LINE
  5
203
100
AcDbEntity
100
AcDbLine
  8
0
 62
256
370
-1
 48
1.0
  6
BYLAYER
 10
2.5205764086440041
 20
2.8006038969321079
 30
0.0
 11
2.5888264086440067
 21
2.8006038969321096
 31
0.0
  0
LINE
  5
204
100
AcDbEntity
100
AcDbLine
  8
0
 62
256
370
-1
 48
1.0
  6
BYLAYER
 10
4.5337157936993577
 20
2.8006038969321079
 30
0.0
 11
4.6019657936993639
 21
2.8006038969321096
 31
0.0
  0
LINE
  5
205
100
AcDbEntity
100
AcDbLine
  8
0
 62
256
370
-1
 48
1.0
  6
BYLAYER
 10
0.5337157936993577
 20
2.8006038969321079
 30
0.0
 11
0.6019657936993639
 21
2.8006038969321096
 31
0.0
  0
LINE
  5
206
100
AcDbEntity
100
AcDbLine
  8
0
 62
256
370
-1
 48
1.0
  6
BYLAYER
 10
-1.4794235913559959
 20
2.8006038969321079
 30
0.0
 11
-1.4111735913559951
 21
2.8006038969321096
 31
0.0
  0
LINE
  5
207
100
AcDbEntity
100
AcDbLine
  8
0
 62
3
420
65280
370
-1
 48
1.0
  6
BYLAYER
 10
-5.4794235913559959
 20
2.8006038969321079
 30
0.0
 11
-5.4111735913559933
 21
2.8006038969321096
 31
0.0
  0
LINE
  5
208
100
AcDbEntity
100
AcDbLine
  8
0
 62
3
420
65280
370
-1
 48
1.0
  6
BYLAYER
 10
-3.4662842063006423
 20
2.8006038969321079
 30
0.0
 11
-3.3980342063006361
 21
2.8006038969321096
 31
0.0
  0
LINE
  5
209
100
AcDbEntity
100
AcDbLine
  8
0
 62
256
370
-1
 48
1.0
  6
BYLAYER
 10
0.7458442951432858
 20
1.8638538969321132
 30
0.0
 11
0.7458442951432858
 21
1.7956038969321124
 31
0.0
  0
LINE
  5
20A
100
AcDbEntity
100
AcDbLine
  8
0
 62
256
370
-1
 48
1.0
  6
BYLAYER
 10
0.7458442951432858
 20
0.8406199684738809
 30
0.0
 11
0.7458442951432858
 21
0.7723699684738801
 31
0.0
  0
LINE
  5
20B
100
AcDbEntity
100
AcDbLine
  8
0
 62
256
370
-1
 48
1.0
  6
BYLAYER
 10
-1.8030520890074957
 20
0.8406199684738809
 30
0.0
 11
-1.8030520890074939
 21
0.7723699684738801
 31
0.0
  0
LINE
  5
20C
100
AcDbEntity
100
AcDbLine
  8
0
 62
256
370
-1
 48
1.0
  6
BYLAYER
 10
-1.8030520890074939
 20
1.8638538969321132
 30
0.0
 11
-1.8030520890074921
 21
1.7956038969321124
 31
0.0
  0
ARC
  5
20D
100
AcDbEntity
  8
0
 62
256
370
-1
 48
1.0
  6
BYLAYER
100
AcDbCircle
 10
4.4779657936993615
 20
2.3670962735262275
 30
0.0
 40
0.0557499999999997
100
AcDbArc
 50
180.0
 51
0.0
  0
ARC
  5
20E
100
AcDbEntity
  8
0
 62
256
370
-1
 48
1.0
  6
BYLAYER
100
AcDbCircle
 10
2.4648264086440044
 20
2.3670962735262275
 30
0.0
 40
0.0557499999999997
100
AcDbArc
 50
180.0
 51
0.0
  0
ARC
  5
20F
100
AcDbEntity
  8
0
 62
256
370
-1
 48
1.0
  6
BYLAYER
100
AcDbCircle
 10
0.4779657936993615
 20
2.3670962735262275
 30
0.0
 40
0.0557499999999997
100
AcDbArc
 50
180.0
 51
0.0
  0
ARC
  5
210
100
AcDbEntity
  8
0
 62
256
370
-1
 48
1.0
  6
BYLAYER
100
AcDbCircle
 10
-1.5351735913559974
 20
2.3670962735262275
 30
0.0
 40
0.0557499999999997
100
AcDbArc
 50
180.0
 51
0.0
  0
ARC
  5
211
100
AcDbEntity
  8
0
 62
3
420
65280
370
-1
 48
1.0
  6
BYLAYER
100
AcDbCircle
 10
-3.5220342063006385
 20
2.3670962735262275
 30
0.0
 40
0.0557499999999997
100
AcDbArc
 50
180.0
 51
0.0
  0
ARC
  5
212
100
AcDbEntity
  8
0
 62
3
420
65280
370
-1
 48
1.0
  6
BYLAYER
100
AcDbCircle
 10
-5.5351735913559956
 20
2.3670962735262275
 30
0.0
 40
0.0557499999999997
100
AcDbArc
 50
180.0
 51
0.0
  0
ARC
  5
213
100
AcDbEntity
  8
0
 62
256
370
-1
 48
1.0
  6
BYLAYER
100
AcDbCircle
 10
0.4558963841507833
 20
0.8963699684738806
 30
0.0
 40
0.0557499999999997
100
AcDbArc
 50
90.0
 51
270.0
  0
ARC
  5
214
100
AcDbEntity
  8
0
 62
256
370
-1
 48
1.0
  6
BYLAYER
100
AcDbCircle
 10
0.4558963841507797
 20
1.919603896932113
 30
0.0
 40
0.0557499999999997
100
AcDbArc
 50
90.0
 51
270.0
  0
ARC
  5
215
100
AcDbEntity
  8
0
 62
256
370
-1
 48
1.0
  6
BYLAYER
100
AcDbCircle
 10
-1.5131041780149896
 20
0.8963699684738806
 30
0.0
 40
0.0557499999999997
100
AcDbArc
 50
270.0
 51
90.0
  0
ARC
  5
216
100
AcDbEntity
  8
0
 62
256
370
-1
 48
1.0
  6
BYLAYER
100
AcDbCircle
 10
-1.5131041780149879
 20
1.919603896932113
 30
0.0
 40
0.0557499999999997
100
AcDbArc
 50
270.0
 51
90.0
  0
LINE
  5
217
100
AcDbEntity
100
AcDbLine
  8
0
 62
256
370
-1
 48
1.0
  6
BYLAYER
 10
4.9427922061357918
 20
2.9999999999999947
 30
0.0
 11
4.9427922061357883
 21
0.459973865405976
 31
0.0
  0
LINE
  5
218
100
AcDbEntity
100
AcDbLine
  8
0
 62
256
370
-1
 48
1.0
  6
BYLAYER
 10
2.0
 20
2.9999999999999982
 30
0.0
 11
2.0
 21
0.4599738654059795
 31
0.0
  0
LINE
  5
219
100
AcDbEntity
100
AcDbLine
  8
0
 62
256
370
-1
 48
1.0
  6
BYLAYER
 10
-3.0572077938642086
 20
2.7999999999999949
 30
0.0
 11
-3.0572077938642117
 21
0.4599738654059757
 31
0.0
  0
LINE
  5
21A
100
AcDbEntity
100
AcDbLine
  8
0
 62
256
370
-1
 48
1.0
  6
BYLAYER
 10
-6.0
 20
2.7999999999999976
 30
0.0
 11
-6.0
 21
0.4599738654059793
 31
0.0
  0
LINE
  5
21B
100
AcDbEntity
100
AcDbLine
  8
0
 62
256
370
-1
 48
1.0
  6
BYLAYER
 10
0.9427922061357918
 20
1.863853896932115
 30
0.0
 11
0.9427922061357918
 21
0.9521199684738804
 31
0.0
  0
LINE
  5
21C
100
AcDbEntity
100
AcDbLine
  8
0
 62
256
370
-1
 48
1.0
  6
BYLAYER
 10
-2.0
 20
1.863853896932115
 30
0.0
 11
-2.0000000000000018
 21
0.9521199684738804
 31
0.0
  0
LINE
  5
21D
100
AcDbEntity
100
AcDbLine
  8
0
 62
256
370
-1
 48
1.0
  6
BYLAYER
 10
0.9427922061357918
 20
0.8406199684738809
 30
0.0
 11
0.9427922061357918
 21
0.4599738654059848
 31
0.0
  0
LINE
  5
21E
100
AcDbEntity
100
AcDbLine
  8
0
 62
256
370
-1
 48
1.0
  6
BYLAYER
 10
-2.0000000000000018
 20
0.8406199684738809
 30
0.0
 11
-2.0
 21
0.4599738654059848
 31
0.0
  0
LINE
  5
21F
100
AcDbEntity
100
AcDbLine
  8
0
 62
256
370
-1
 48
1.0
  6
BYLAYER
 10
2.0
 20
3.0
 30
0.0
 11
4.9427922061357918
 21
2.9999999999999982
 31
0.0
  0
LINE
  5
220
100
AcDbEntity
100
AcDbLine
  8
0
 62
256
370
-1
 48
1.0
  6
BYLAYER
 10
-1.4794235875635682
 20
2.9999999999999982
 30
0.0
 11
0.4222157936993582
 21
2.9999999999999982
 31
0.0
  0
LINE
  5
221
100
AcDbEntity
100
AcDbLine
  8
0
 62
256
370
-1
 48
1.0
  6
BYLAYER
 10
2.1969479109925025
 20
0.7723699684738747
 30
0.0
 11
2.1969479109925025
 21
1.0203699684738758
 31
0.0
  0
LINE
  5
222
100
AcDbEntity
100
AcDbLine
  8
0
 62
3
420
65280
370
-1
 48
1.0
  6
BYLAYER
 10
-5.8030520890074975
 20
0.7723699684738745
 30
0.0
 11
-5.8030520890074975
 21
1.0203699684738756
 31
0.0
  0
LINE
  5
223
100
AcDbEntity
100
AcDbLine
  8
0
 62
256
370
-1
 48
1.0
  6
BYLAYER
 10
2.2899479109925061
 20
0.7723699684738747
 30
0.0
 11
2.2899479109925061
 21
1.0203699684738758
 31
0.0
  0
LINE
  5
224
100
AcDbEntity
100
AcDbLine
  8
0
 62
3
420
65280
370
-1
 48
1.0
  6
BYLAYER
 10
-5.7100520890074939
 20
0.7723699684738745
 30
0.0
 11
-5.7100520890074939
 21
1.0203699684738756
 31
0.0
  0
LINE
  5
225
100
AcDbEntity
100
AcDbLine
  8
0
 62
256
370
-1
 48
1.0
  6
BYLAYER
 10
4.6528442951432893
 20
0.7723699684738747
 30
0.0
 11
4.6528442951432893
 21
1.0203699684738758
 31
0.0
  0
LINE
  5
226
100
AcDbEntity
100
AcDbLine
  8
0
 62
3
420
65280
370
-1
 48
1.0
  6
BYLAYER
 10
-3.3471557048567107
 20
0.7723699684738745
 30
0.0
 11
-3.3471557048567107
 21
1.0203699684738756
 31
0.0
  0
LINE
  5
227
100
AcDbEntity
100
AcDbLine
  8
0
 62
256
370
-1
 48
1.0
  6
BYLAYER
 10
4.7458442951432858
 20
0.7723699684738747
 30
0.0
 11
4.7458442951432858
 21
1.0203699684738758
 31
0.0
  0
LINE
  5
228
100
AcDbEntity
100
AcDbLine
  8
0
 62
3
420
65280
370
-1
 48
1.0
  6
BYLAYER
 10
-3.2541557048567142
 20
0.7723699684738745
 30
0.0
 11
-3.2541557048567142
 21
1.0203699684738756
 31
0.0
  0
LINE
  5
229
100
AcDbEntity
100
AcDbLine
  8
0
 62
256
370
-1
 48
1.0
  6
BYLAYER
 10
4.6528442951432858
 20
1.7956038969321071
 30
0.0
 11
4.6528442951432858
 21
2.0436038969321082
 31
0.0
  0
LINE
  5
22A
100
AcDbEntity
100
AcDbLine
  8
0
 62
3
420
65280
370
-1
 48
1.0
  6
BYLAYER
 10
-3.3471557048567142
 20
1.7956038969321069
 30
0.0
 11
-3.3471557048567142
 21
2.0436038969321082
 31
0.0
  0
LINE
  5
22B
100
AcDbEntity
100
AcDbLine
  8
0
 62
256
370
-1
 48
1.0
  6
BYLAYER
 10
4.7458442951432858
 20
1.7956038969321071
 30
0.0
 11
4.7458442951432858
 21
2.0436038969321082
 31
0.0
  0
LINE
  5
22C
100
AcDbEntity
100
AcDbLine
  8
0
 62
3
420
65280
370
-1
 48
1.0
  6
BYLAYER
 10
-3.2541557048567142
 20
1.7956038969321069
 30
0.0
 11
-3.2541557048567142
 21
2.0436038969321082
 31
0.0
  0
LINE
  5
22D
100
AcDbEntity
100
AcDbLine
  8
0
 62
256
370
-1
 48
1.0
  6
BYLAYER
 10
2.1969479109925061
 20
1.7956038969321071
 30
0.0
 11
2.1969479109925061
 21
2.0436038969321082
 31
0.0
  0
LINE
  5
22E
100
AcDbEntity
100
AcDbLine
  8
0
 62
3
420
65280
370
-1
 48
1.0
  6
BYLAYER
 10
-5.8030520890074939
 20
1.7956038969321069
 30
0.0
 11
-5.8030520890074939
 21
2.0436038969321082
 31
0.0
  0
LINE
  5
22F
100
AcDbEntity
100
AcDbLine
  8
0
 62
256
370
-1
 48
1.0
  6
BYLAYER
 10
2.2899479109925061
 20
1.7956038969321071
 30
0.0
 11
2.2899479109925061
 21
2.0436038969321082
 31
0.0
  0
LINE
  5
230
100
AcDbEntity
100
AcDbLine
  8
0
 62
3
420
65280
370
-1
 48
1.0
  6
BYLAYER
 10
-5.7100520890074939
 20
1.7956038969321069
 30
0.0
 11
-5.7100520890074939
 21
2.0436038969321082
 31
0.0
  0
LINE
  5
231
100
AcDbEntity
100
AcDbLine
  8
0
 62
256
370
-1
 48
1.0
  6
BYLAYER
 10
-2.0
 20
1.9753538969321127
 30
0.0
 11
-2.0
 21
3.0000000000000018
 31
0.0
  0
LINE
  5
232
100
AcDbEntity
100
AcDbLine
  8
0
 62
256
370
-1
 48
1.0
  6
BYLAYER
 10
0.9427922061357918
 20
1.9753538969321127
 30
0.0
 11
0.9427922061357883
 21
3.0
 31
0.0
  0
CIRCLE
  5
233
100
AcDbEntity
100
AcDbCircle
  8
0
 62
3
420
65280
370
-1
 48
1.0
  6
BYLAYER
 10
3.0
 20
2.5999999999999996
 30
0.0
 40
0.04905
  0
CIRCLE
  5
234
100
AcDbEntity
100
AcDbCircle
  8
0
 62
3
420
65280
370
-1
 48
1.0
  6
BYLAYER
 10
2.4428110023011982
 20
0.7000000000000002
 30
0.0
 40
0.04905
  0
CIRCLE
  5
235
100
AcDbEntity
100
AcDbCircle
  8
0
 62
3
420
65280
370
-1
 48
1.0
  6
BYLAYER
 10
4.5
 20
0.7000000000000002
 30
0.0
 40
0.04905
  0
CIRCLE
  5
236
100
AcDbEntity
100
AcDbCircle
  8
0
 62
3
420
65280
370
-1
 48
1.0
  6
BYLAYER
 10
3.9428110023011946
 20
2.5999999999999996
 30
0.0
 40
0.04905
  0
CIRCLE
  5
237
100
AcDbEntity
100
AcDbCircle
  8
0
 62
3
420
65280
370
-1
 48
1.0
  6
BYLAYER
 10
-1.0
 20
2.600000000000005
 30
0.0
 40
0.04905
  0
CIRCLE
  5
238
100
AcDbEntity
100
AcDbCircle
  8
0
 62
3
420
65280
370
-1
 48
1.0
  6
BYLAYER
 10
-1.5571889976988018
 20
0.7000000000000055
 30
0.0
 40
0.04905
  0
CIRCLE
  5
239
100
AcDbEntity
100
AcDbCircle
  8
0
 62
3
420
65280
370
-1
 48
1.0
  6
BYLAYER
 10
0.5000000000000004
 20
0.7000000000000055
 30
0.0
 40
0.04905
  0
CIRCLE
  5
23A
100
AcDbEntity
100
AcDbCircle
  8
0
 62
3
420
65280
370
-1
 48
1.0
  6
BYLAYER
 10
-0.0571889976988054
 20
2.600000000000005
 30
0.0
 40
0.04905
  0
CIRCLE
  5
23B
100
AcDbEntity
100
AcDbCircle
  8
0
 62
3
420
65280
370
-1
 48
1.0
  6
BYLAYER
 10
-5.5571889976988018
 20
0.7
 30
0.0
 40
0.04905
  0
CIRCLE
  5
23C
100
AcDbEntity
100
AcDbCircle
  8
0
 62
3
420
65280
370
-1
 48
1.0
  6
BYLAYER
 10
-3.4999999999999996
 20
0.7
 30
0.0
 40
0.04905
  0
CIRCLE
  5
23D
100
AcDbEntity
100
AcDbCircle
  8
0
 62
3
420
65280
370
-1
 48
1.0
  6
BYLAYER
 10
-4.0571889976988054
 20
2.5999999999999996
 30
0.0
 40
0.04905
  0
CIRCLE
  5
23E
100
AcDbEntity
100
AcDbCircle
  8
0
 62
3
420
65280
370
-1
 48
1.0
  6
BYLAYER
 10
-5.0
 20
2.5999999999999996
 30
0.0
 40
0.04905
  0
CIRCLE
  5
23F
100
AcDbEntity
100
AcDbCircle
  8
0
 62
6
420
16711935
370
-1
 48
1.0
  6
BYLAYER
 10
-4.5286038969321076
 20
1.4936422859081819
 30
0.0
 40
0.0557499999999997
  0
LINE
  5
240
100
AcDbEntity
100
AcDbLine
  8
0
 62
256
370
-1
 48
1.0
  6
BYLAYER
 10
-4.2999999999999998
 20
2.6999999999999997
 30
0.0
 11
-3.9999999999999996
 21
2.9999999999999996
 31
0.0
  0
LINE
  5
241
100
AcDbEntity
100
AcDbLine
  8
0
 62
256
370
-1
 48
1.0
  6
BYLAYER
 10
-4.7572077938642074
 20
2.6999999999999997
 30
0.0
 11
-5.0572077938642073
 21
2.9999999999999996
 31
0.0
  0
LINE
  5
242
100
AcDbEntity
100
AcDbLine
  8
0
 62
256
370
-1
 48
1.0
  6
BYLAYER
 10
-4.7572077938642074
 20
2.6999999999999997
 30
0.0
 11
-4.2999999999999998
 21
2.6999999999999997
 31
0.0
  0
LINE
  5
243
100
AcDbEntity
100
AcDbLine
  8
0
 62
256
370
-1
 48
1.0
  6
BYLAYER
 10
-3.9999999999999996
 20
2.9999999999999996
 30
0.0
 11
-3.2572077938642083
 21
2.9999999999999956
 31
0.0
  0
LINE
  5
244
100
AcDbEntity
100
AcDbLine
  8
0
 62
256
370
-1
 48
1.0
  6
BYLAYER
 10
-5.0572077938642073
 20
2.9999999999999996
 30
0.0
 11
-5.7999999999999998
 21
2.9999999999999987
 31
0.0
  0
LINE
  5
245
100
AcDbEntity
100
AcDbLine
  8
0
 62
256
370
-1
 48
1.0
  6
BYLAYER
 10
-6.0
 20
2.7999999999999976
 30
0.0
 11
-5.7999999999999998
 21
2.9999999999999982
 31
0.0
  0
LINE
  5
246
100
AcDbEntity
100
AcDbLine
  8
0
 62
256
370
-1
 48
1.0
  6
BYLAYER
 10
-3.2572077938642083
 20
2.9999999999999947
 30
0.0
 11
-3.0572077938642086
 21
2.7999999999999949
 31
0.0
  0
LINE
  5
247
100
AcDbEntity
100
AcDbLine
  8
0
 62
256
370
-1
 48
1.0
  6
BYLAYER
 10
-3.2572077938642092
 20
3.4907193558074328
 30
0.0
 11
-3.7999999999999989
 21
3.8594693558074322
 31
0.0
  0
LINE
  5
248
100
AcDbEntity
100
AcDbLine
  8
0
 62
256
370
-1
 48
1.0
  6
BYLAYER
 10
-5.7999999999999989
 20
3.4907193558074368
 30
0.0
 11
-5.2572077938642092
 21
3.8594693558074362
 31
0.0
  0
LINE
  5
249
100
AcDbEntity
100
AcDbLine
  8
0
 62
256
370
-1
 48
1.0
  6
BYLAYER
 10
-3.7999999999999989
 20
4.1405306452208226
 30
0.0
 11
-3.7999999999999989
 21
3.8594693558074304
 31
0.0
  0
LINE
  5
24A
100
AcDbEntity
100
AcDbLine
  8
0
 62
256
370
-1
 48
1.0
  6
BYLAYER
 10
-5.2572077938642092
 20
4.1405306452208261
 30
0.0
 11
-5.2572077938642092
 21
3.8594693558074344
 31
0.0
  0
LINE
  5
24B
100
AcDbEntity
100
AcDbLine
  8
0
 62
256
370
-1
 48
1.0
  6
BYLAYER
 10
-3.2572077938642092
 20
4.5092806452208229
 30
0.0
 11
-3.799999999999998
 21
4.1405306452208226
 31
0.0
  0
LINE
  5
24C
100
AcDbEntity
100
AcDbLine
  8
0
 62
256
370
-1
 48
1.0
  6
BYLAYER
 10
-5.7999999999999989
 20
4.5092806452208274
 30
0.0
 11
-5.2572077938642101
 21
4.140530645220827
 31
0.0
  0
LINE
  5
24D
100
AcDbEntity
100
AcDbLine
  8
0
 62
256
370
-1
 48
1.0
  6
BYLAYER
 10
-3.2572077938642092
 20
4.5092806452208229
 30
0.0
 11
-3.2572077938642092
 21
4.7249999999999961
 31
0.0
  0
LINE
  5
24E
100
AcDbEntity
100
AcDbLine
  8
0
 62
256
370
-1
 48
1.0
  6
BYLAYER
 10
-3.2572077938642092
 20
3.4907193558074328
 30
0.0
 11
-3.2572077938642092
 21
3.2749999999999964
 31
0.0
  0
LINE
  5
24F
100
AcDbEntity
100
AcDbLine
  8
0
 62
256
370
-1
 48
1.0
  6
BYLAYER
 10
-5.7999999999999989
 20
3.4907193558074368
 30
0.0
 11
-5.7999999999999989
 21
3.2750000000000004
 31
0.0
  0
LINE
  5
250
100
AcDbEntity
100
AcDbLine
  8
0
 62
256
370
-1
 48
1.0
  6
BYLAYER
 10
-5.7999999999999989
 20
4.5092806452208274
 30
0.0
 11
-5.7999999999999989
 21
4.7249999999999996
 31
0.0
  0
LINE
  5
251
100
AcDbEntity
100
AcDbLine
  8
0
 62
256
370
-1
 48
1.0
  6
BYLAYER
 10
-5.7999999999999989
 20
3.2750000000000004
 30
0.0
 11
-5.1643019484660515
 21
3.2750000000000004
 31
0.0
  0
LINE
  5
252
100
AcDbEntity
100
AcDbLine
  8
0
 62
256
370
-1
 48
1.0
  6
BYLAYER
 10
-5.7999999999999989
 20
4.7249999999999996
 30
0.0
 11
-5.1643019484660515
 21
4.7249999999999988
 31
0.0
  0
LINE
  5
253
100
AcDbEntity
100
AcDbLine
  8
0
 62
256
370
-1
 48
1.0
  6
BYLAYER
 10
-4.6999999999999993
 20
3.5999999999999996
 30
0.0
 11
-5.1643019484660515
 21
3.2750000000000004
 31
0.0
  0
LINE
  5
254
100
AcDbEntity
100
AcDbLine
  8
0
 62
256
370
-1
 48
1.0
  6
BYLAYER
 10
-4.3572077938642089
 20
3.5999999999999996
 30
0.0
 11
-3.8929058453981567
 21
3.2750000000000004
 31
0.0
  0
LINE
  5
255
100
AcDbEntity
100
AcDbLine
  8
0
 62
256
370
-1
 48
1.0
  6
BYLAYER
 10
-4.3572077938642089
 20
4.3999999999999995
 30
0.0
 11
-3.8929058453981567
 21
4.7249999999999988
 31
0.0
  0
LINE
  5
256
100
AcDbEntity
100
AcDbLine
  8
0
 62
256
370
-1
 48
1.0
  6
BYLAYER
 10
-4.6999999999999993
 20
4.3999999999999995
 30
0.0
 11
-5.1643019484660515
 21
4.7249999999999988
 31
0.0
  0
LINE
  5
257
100
AcDbEntity
100
AcDbLine
  8
0
 62
256
370
-1
 48
1.0
  6
BYLAYER
 10
-4.6999999999999993
 20
3.5999999999999996
 30
0.0
 11
-4.3572077938642089
 21
3.5999999999999996
 31
0.0
  0
LINE
  5
258
100
AcDbEntity
100
AcDbLine
  8
0
 62
256
370
-1
 48
1.0
  6
BYLAYER
 10
-4.6999999999999993
 20
4.3999999999999995
 30
0.0
 11
-4.3572077938642089
 21
4.3999999999999995
 31
0.0
  0
LINE
  5
259
100
AcDbEntity
100
AcDbLine
  8
0
 62
256
370
-1
 48
1.0
  6
BYLAYER
 10
-3.8929058453981567
 20
3.2750000000000004
 30
0.0
 11
-3.2572077938642092
 21
3.2750000000000039
 31
0.0
  0
LINE
  5
25A
100
AcDbEntity
100
AcDbLine
  8
0
 62
256
370
-1
 48
1.0
  6
BYLAYER
 10
-3.8929058453981567
 20
4.7249999999999988
 30
0.0
 11
-3.2572077938642092
 21
4.7249999999999961
 31
0.0
  0
ENDSEC
  0
SECTION
  2
OBJECTS
  0
DICTIONARY
  5
C
100
AcDbDictionary
280
0
281
1
  3
ACAD_GROUP
350
D
  3
ACAD_LAYOUT
350
1A
  3
ACAD_MLINESTYLE
350
17
  3
ACAD_PLOTSETTINGS
350
19
  3
ACAD_PLOTSTYLENAME
350
E
  3
AcDbVariableDictionary
350
25B
  3
QCAD_OBJECTS
350
25C
  0
DICTIONARY
  5
D
100
AcDbDictionary
280
0
281
1
  0
ACDBDICTIONARYWDFLT
  5
E
100
AcDbDictionary
281
1
  3
Normal
350
F
100
AcDbDictionaryWithDefault
340
F
  0
ACDBPLACEHOLDER
  5
F
  0
DICTIONARY
  5
17
100
AcDbDictionary
280
0
281
1
  3
Standard
350
18
  0
MLINESTYLE
  5
18
100
AcDbMlineStyle
  2
STANDARD
 70
0
  3

 62
256
 51
90.0
 52
90.0
 71
2
 49
0.5
 62
256
  6
BYLAYER
 49
-0.5
 62
256
  6
BYLAYER
  0
DICTIONARY
  5
19
100
AcDbDictionary
280
0
281
1
  0
DICTIONARY
  5
1A
100
AcDbDictionary
281
1
  3
Layout1
350
1E
  3
Layout2
350
26
  3
Model
350
22
  0
LAYOUT
  5
1E
100
AcDbPlotSettings
  1

  2
none_device
  4

  6

 40
0.0
 41
0.0
 42
0.0
 43
0.0
 44
0.0
 45
0.0
 46
0.0
 47
0.0
 48
0.0
 49
0.0
140
0.0
141
0.0
142
1.0
143
1.0
 70
688
 72
0
 73
0
 74
5
  7

 75
16
147
1.0
148
0.0
149
0.0
100
AcDbLayout
  1
Layout1
 70
1
 71
1
 10
0.0
 20
0.0
 11
420.0
 21
297.0
 12
0.0
 22
0.0
 32
0.0
 14
100000000000000000000.0
 24
100000000000000000000.0
 34
100000000000000000000.0
 15
-100000000000000000000.0
 25
-100000000000000000000.0
 35
-100000000000000000000.0
146
0.0
 13
0.0
 23
0.0
 33
0.0
 16
1.0
 26
0.0
 36
0.0
 17
0.0
 27
1.0
 37
0.0
 76
0
330
1B
  0
LAYOUT
  5
22
100
AcDbPlotSettings
  1

  2
none_device
  4

  6

 40
0.0
 41
0.0
 42
0.0
 43
0.0
 44
0.0
 45
0.0
 46
0.0
 47
0.0
 48
0.0
 49
0.0
140
0.0
141
0.0
142
1.0
143
1.0
 70
1712
 72
0
 73
0
 74
0
  7

 75
0
147
1.0
148
0.0
149
0.0
100
AcDbLayout
  1
Model
 70
1
 71
0
 10
0.0
 20
0.0
 11
12.0
 21
9.0
 12
0.0
 22
0.0
 32
0.0
 14
0.0
 24
0.0
 34
0.0
 15
0.0
 25
0.0
 35
0.0
146
0.0
 13
0.0
 23
0.0
 33
0.0
 16
1.0
 26
0.0
 36
0.0
 17
0.0
 27
1.0
 37
0.0
 76
0
330
1F
  0
LAYOUT
  5
26
100
AcDbPlotSettings
  1

  2
none_device
  4

  6

 40
0.0
 41
0.0
 42
0.0
 43
0.0
 44
0.0
 45
0.0
 46
0.0
 47
0.0
 48
0.0
 49
0.0
140
0.0
141
0.0
142
1.0
143
1.0
 70
688
 72
0
 73
0
 74
5
  7

 75
16
147
1.0
148
0.0
149
0.0
100
AcDbLayout
  1
Layout2
 70
1
 71
2
 10
0.0
 20
0.0
 11
12.0
 21
9.0
 12
0.0
 22
0.0
 32
0.0
 14
0.0
 24
0.0
 34
0.0
 15
0.0
 25
0.0
 35
0.0
146
0.0
 13
0.0
 23
0.0
 33
0.0
 16
1.0
 26
0.0
 36
0.0
 17
0.0
 27
1.0
 37
0.0
 76
0
330
23
  0
DICTIONARY
  5
25B
100
AcDbDictionary
281
1
  3
DIMASSOC
350
25E
  3
HIDETEXT
350
25D
  0
DICTIONARYVAR
  5
25D
100
DictionaryVariables
280
0
  1
2
  0
DICTIONARYVAR
  5
25E
100
DictionaryVariables
280
0
  1
1
  0
DICTIONARY
  5
25C
100
AcDbDictionary
281
1
  3
ColorSettings/BackgroundColor
350
25F
  3
ColorSettings/ColorMode
350
260
  3
Grid/DisplayGrid00
350
261
  3
Grid/DisplayGrid01
350
262
  3
Grid/DisplayGrid02
350
263
  3
Grid/DisplayGrid03
350
264
  3
Grid/GridSpacingX00
350
265
  3
Grid/GridSpacingX01
350
266
  3
Grid/GridSpacingX02
350
267
  3
Grid/GridSpacingX03
350
268
  3
Grid/GridSpacingY00
350
269
  3
Grid/GridSpacingY01
350
26A
  3
Grid/GridSpacingY02
350
26B
  3
Grid/GridSpacingY03
350
26C
  3
Grid/IsometricGrid00
350
26D
  3
Grid/IsometricGrid01
350
26E
  3
Grid/IsometricGrid02
350
26F
  3
Grid/IsometricGrid03
350
270
  3
Grid/IsometricProjection00
350
271
  3
Grid/IsometricProjection01
350
272
  3
Grid/IsometricProjection02
350
273
  3
Grid/IsometricProjection03
350
274
  3
Grid/MetaGridSpacingX00
350
275
  3
Grid/MetaGridSpacingX01
350
276
  3
Grid/MetaGridSpacingX02
350
277
  3
Grid/MetaGridSpacingX03
350
278
  3
Grid/MetaGridSpacingY00
350
279
  3
Grid/MetaGridSpacingY01
350
27A
  3
Grid/MetaGridSpacingY02
350
27B
  3
Grid/MetaGridSpacingY03
350
27C
  3
MultiPageSettings/Columns
350
27D
  3
MultiPageSettings/GlueMarginsBottom
350
27E
  3
MultiPageSettings/GlueMarginsLeft
350
27F
  3
MultiPageSettings/GlueMarginsRight
350
280
  3
MultiPageSettings/GlueMarginsTop
350
281
  3
MultiPageSettings/PrintCropMarks
350
282
  3
MultiPageSettings/Rows
350
283
  3
PageSettings/OffsetX
350
284
  3
PageSettings/OffsetY
350
285
  3
PageSettings/PageOrientation
350
286
  3
PageSettings/PaperHeight
350
287
  3
PageSettings/PaperWidth
350
288
  3
PageSettings/Scale
350
289
  3
PageSettings/ShowPaperBorders
350
28A
  3
QCADVersion
350
28B
  3
UnitSettings/PaperUnit
350
28C
  0
XRECORD
  5
25F
330
25C
100
AcDbXrecord
280
1
1000
White
  0
XRECORD
  5
260
330
25C
100
AcDbXrecord
280
1
1000
FullColor
  0
XRECORD
  5
261
330
25C
100
AcDbXrecord
280
1
290
1
  0
XRECORD
  5
262
330
25C
100
AcDbXrecord
280
1
290
1
  0
XRECORD
  5
263
330
25C
100
AcDbXrecord
280
1
290
1
  0
XRECORD
  5
264
330
25C
100
AcDbXrecord
280
1
290
1
  0
XRECORD
  5
265
330
25C
100
AcDbXrecord
280
1
1000
auto
  0
XRECORD
  5
266
330
25C
100
AcDbXrecord
280
1
1000
auto
  0
XRECORD
  5
267
330
25C
100
AcDbXrecord
280
1
1000
auto
  0
XRECORD
  5
268
330
25C
100
AcDbXrecord
280
1
1000
auto
  0
XRECORD
  5
269
330
25C
100
AcDbXrecord
280
1
1000
auto
  0
XRECORD
  5
26A
330
25C
100
AcDbXrecord
280
1
1000
auto
  0
XRECORD
  5
26B
330
25C
100
AcDbXrecord
280
1
1000
auto
  0
XRECORD
  5
26C
330
25C
100
AcDbXrecord
280
1
1000
auto
  0
XRECORD
  5
26D
330
25C
100
AcDbXrecord
280
1
290
0
  0
XRECORD
  5
26E
330
25C
100
AcDbXrecord
280
1
290
0
  0
XRECORD
  5
26F
330
25C
100
AcDbXrecord
280
1
290
0
  0
XRECORD
  5
270
330
25C
100
AcDbXrecord
280
1
290
0
  0
XRECORD
  5
271
330
25C
100
AcDbXrecord
280
1
 90
0
  0
XRECORD
  5
272
330
25C
100
AcDbXrecord
280
1
 90
0
  0
XRECORD
  5
273
330
25C
100
AcDbXrecord
280
1
 90
0
  0
XRECORD
  5
274
330
25C
100
AcDbXrecord
280
1
 90
0
  0
XRECORD
  5
275
330
25C
100
AcDbXrecord
280
1
1000
auto
  0
XRECORD
  5
276
330
25C
100
AcDbXrecord
280
1
1000
auto
  0
XRECORD
  5
277
330
25C
100
AcDbXrecord
280
1
1000
auto
  0
XRECORD
  5
278
330
25C
100
AcDbXrecord
280
1
1000
auto
  0
XRECORD
  5
279
330
25C
100
AcDbXrecord
280
1
1000
auto
  0
XRECORD
  5
27A
330
25C
100
AcDbXrecord
280
1
1000
auto
  0
XRECORD
  5
27B
330
25C
100
AcDbXrecord
280
1
1000
auto
  0
XRECORD
  5
27C
330
25C
100
AcDbXrecord
280
1
1000
auto
  0
XRECORD
  5
27D
330
25C
100
AcDbXrecord
280
1
 90
1
  0
XRECORD
  5
27E
330
25C
100
AcDbXrecord
280
1
 40
0.5
  0
XRECORD
  5
27F
330
25C
100
AcDbXrecord
280
1
 40
0.5
  0
XRECORD
  5
280
330
25C
100
AcDbXrecord
280
1
 40
0.5
  0
XRECORD
  5
281
330
25C
100
AcDbXrecord
280
1
 40
0.5
  0
XRECORD
  5
282
330
25C
100
AcDbXrecord
280
1
290
0
  0
XRECORD
  5
283
330
25C
100
AcDbXrecord
280
1
 90
1
  0
XRECORD
  5
284
330
25C
100
AcDbXrecord
280
1
 40
0.0
  0
XRECORD
  5
285
330
25C
100
AcDbXrecord
280
1
 40
0.0
  0
XRECORD
  5
286
330
25C
100
AcDbXrecord
280
1
1000
Portrait
  0
XRECORD
  5
287
330
25C
100
AcDbXrecord
280
1
 40
11.6929133858268006
  0
XRECORD
  5
288
330
25C
100
AcDbXrecord
280
1
 40
8.2677165354330704
  0
XRECORD
  5
289
330
25C
100
AcDbXrecord
280
1
1000
1:1
  0
XRECORD
  5
28A
330
25C
100
AcDbXrecord
280
1
290
1
  0
XRECORD
  5
28B
330
25C
100
AcDbXrecord
280
1
1000
3.11.3
  0
XRECORD
  5
28C
330
25C
100
AcDbXrecord
280
1
 90
1
  0
ENDSEC
  0
EOF
