999
dxflib 3.7.5.0
  0
SECTION
  2
HEADER
  9
$ACADVER
  1
AC1015
  9
$HANDSEED
  5
FFFF
  9
$DIMADEC
 70
0
  9
$DIMASZ
 40
0.125
  9
$DIMAUNIT
 70
0
  9
$DIMAZIN
 70
2
  9
$DIMDEC
 70
4
  9
$DIMEXE
 40
0.0625
  9
$DIMEXO
 40
0.03125
  9
$DIMGAP
 40
0.03125
  9
$DIMLUNIT
 70
3
  9
$DIMSCALE
 40
1.0
  9
$DIMTSZ
 40
0.0
  9
$DIMTXT
 40
0.125
  9
$DIMZIN
 70
8
  9
$DWGCODEPAGE
  3
ANSI_1252
  9
$INSUNITS
 70
1
  9
$LTSCALE
 40
1.0
  9
$MEASUREMENT
 70
0
  9
$PDMODE
 70
0
  9
$PDSIZE
 40
0
  0
ENDSEC
  0
SECTION
  2
TABLES
  0
TABLE
  2
VPORT
  5
8
100
AcDbSymbolTable
 70
1
  0
VPORT
  5
30
100
AcDbSymbolTableRecord
100
AcDbViewportTableRecord
  2
*Active
 70
0
 10
0.0
 20
0.0
 11
1.0
 21
1.0
 12
286.3055555555554861
 22
148.5
 13
0.0
 23
0.0
 14
10.0
 24
10.0
 15
10.0
 25
10.0
 16
0.0
 26
0.0
 36
1.0
 17
0.0
 27
0.0
 37
0.0
 40
297.0
 41
1.92798353909465
 42
50.0
 43
0.0
 44
0.0
 50
0.0
 51
0.0
 71
0
 72
100
 73
1
 74
3
 75
1
 76
1
 77
0
 78
0
281
0
 65
1
110
0.0
120
0.0
130
0.0
111
1.0
121
0.0
131
0.0
112
0.0
122
1.0
132
0.0
 79
0
146
0.0
  0
ENDTAB
  0
TABLE
  2
LTYPE
  5
5
100
AcDbSymbolTable
 70
50
  0
LTYPE
  5
16
100
AcDbSymbolTableRecord
100
AcDbLinetypeTableRecord
  2
Continuous
 70
0
  3
Solid line
 72
65
 73
0
 40
0.0
  0
LTYPE
  5
31
100
AcDbSymbolTableRecord
100
AcDbLinetypeTableRecord
  2
ACAD_ISO15W100
 70
0
  3
ISO double-dash triple-dot __ __ . . . __ __ . .
 72
65
 73
10
 40
39.0000000000000071
 49
12.0
 74
0
 49
-3.0
 74
0
 49
12.0
 74
0
 49
-2.9500000000000002
 74
0
 49
0.1
 74
0
 49
-2.9000000000000004
 74
0
 49
0.1
 74
0
 49
-2.9000000000000004
 74
0
 49
0.1
 74
0
 49
-2.9500000000000002
 74
0
  0
LTYPE
  5
32
100
AcDbSymbolTableRecord
100
AcDbLinetypeTableRecord
  2
HOT_WATER_SUPPLY
 70
0
  3
Hot water supply ---- HW ---- HW ---- HW ----
 72
65
 73
3
 40
22.8599999999999994
 49
12.6999999999999993
 74
0
 49
-5.0800000000000001
 74
0
 49
-5.0800000000000001
 74
0
  0
LTYPE
  5
33
100
AcDbSymbolTableRecord
100
AcDbLinetypeTableRecord
  2
DIVIDE
 70
0
  3
Divide ____ . . ____ . . ____ . . ____ . . ____
 72
65
 73
6
 40
31.7500000000000036
 49
12.6999999999999993
 74
0
 49
-6.2999999999999998
 74
0
 49
0.1
 74
0
 49
-6.25
 74
0
 49
0.1
 74
0
 49
-6.2999999999999998
 74
0
  0
LTYPE
  5
34
100
AcDbSymbolTableRecord
100
AcDbLinetypeTableRecord
  2
ACAD_ISO10W100
 70
0
  3
ISO dash dot __ . __ . __ . __ . __ . __ . __ . 
 72
65
 73
4
 40
18.0
 49
12.0
 74
0
 49
-2.9500000000000002
 74
0
 49
0.1
 74
0
 49
-2.9500000000000002
 74
0
  0
LTYPE
  5
35
100
AcDbSymbolTableRecord
100
AcDbLinetypeTableRecord
  2
GAS_LINE
 70
0
  3
Gas line ----GAS----GAS----GAS----GAS----GAS----GAS--
 72
65
 73
3
 40
24.1300000000000026
 49
12.6999999999999993
 74
0
 49
-5.0800000000000001
 74
0
 49
-6.3499999999999996
 74
0
  0
LTYPE
  5
36
100
AcDbSymbolTableRecord
100
AcDbLinetypeTableRecord
  2
ACAD_ISO04W100
 70
0
  3
ISO long-dash dot ____ . ____ . ____ . ____ . _
 72
65
 73
4
 40
30.0
 49
24.0
 74
0
 49
-2.9500000000000002
 74
0
 49
0.1
 74
0
 49
-2.9500000000000002
 74
0
  0
LTYPE
  5
37
100
AcDbSymbolTableRecord
100
AcDbLinetypeTableRecord
  2
CENTER2
 70
0
  3
Center (.5x) ___ _ ___ _ ___ _ ___ _ ___ _ ___
 72
65
 73
4
 40
28.5750000000000028
 49
19.0500000000000007
 74
0
 49
-3.1749999999999998
 74
0
 49
3.1749999999999998
 74
0
 49
-3.1749999999999998
 74
0
  0
LTYPE
  5
38
100
AcDbSymbolTableRecord
100
AcDbLinetypeTableRecord
  2
ACAD_ISO11W100
 70
0
  3
ISO double-dash dot __ __ . __ __ . __ __ . __ _
 72
65
 73
6
 40
33.0
 49
12.0
 74
0
 49
-3.0
 74
0
 49
12.0
 74
0
 49
-2.9500000000000002
 74
0
 49
0.1
 74
0
 49
-2.9500000000000002
 74
0
  0
LTYPE
  5
39
100
AcDbSymbolTableRecord
100
AcDbLinetypeTableRecord
  2
HIDDEN2
 70
0
  3
Hidden (.5x) _ _ _ _ _ _ _ _ _ _ _ _ _ _ _ _ _ 
 72
65
 73
2
 40
4.7624999999999993
 49
3.1749999999999998
 74
0
 49
-1.5874999999999999
 74
0
  0
LTYPE
  5
3A
100
AcDbSymbolTableRecord
100
AcDbLinetypeTableRecord
  2
BORDERX2
 70
0
  3
Border (2x) ____  ____  .  ____  ____  .  ___
 72
65
 73
6
 40
88.8999999999999773
 49
25.3999999999999986
 74
0
 49
-12.6999999999999993
 74
0
 49
25.3999999999999986
 74
0
 49
-12.6499999999999986
 74
0
 49
0.1
 74
0
 49
-12.6499999999999986
 74
0
  0
LTYPE
  5
3B
100
AcDbSymbolTableRecord
100
AcDbLinetypeTableRecord
  2
ACAD_ISO05W100
 70
0
  3
ISO long-dash double-dot ____ .. ____ .. ____ . 
 72
65
 73
6
 40
33.0000000000000071
 49
24.0
 74
0
 49
-2.9500000000000002
 74
0
 49
0.1
 74
0
 49
-2.9000000000000004
 74
0
 49
0.1
 74
0
 49
-2.9500000000000002
 74
0
  0
LTYPE
  5
3C
100
AcDbSymbolTableRecord
100
AcDbLinetypeTableRecord
  2
DASHDOTX2
 70
0
  3
Dash dot (2x) ____  .  ____  .  ____  .  ___
 72
65
 73
4
 40
50.7999999999999972
 49
25.3999999999999986
 74
0
 49
-12.6499999999999986
 74
0
 49
0.1
 74
0
 49
-12.6499999999999986
 74
0
  0
LTYPE
  5
3D
100
AcDbSymbolTableRecord
100
AcDbLinetypeTableRecord
  2
HIDDENX2
 70
0
  3
Hidden (2x) ____ ____ ____ ____ ____ ____ ____ 
 72
65
 73
2
 40
19.0499999999999972
 49
12.6999999999999993
 74
0
 49
-6.3499999999999996
 74
0
  0
LTYPE
  5
3E
100
AcDbSymbolTableRecord
100
AcDbLinetypeTableRecord
  2
CENTERX2
 70
0
  3
Center (2x) ________  __  ________  __  _____
 72
65
 73
4
 40
101.6000000000000085
 49
63.5
 74
0
 49
-12.6999999999999993
 74
0
 49
12.6999999999999993
 74
0
 49
-12.6999999999999993
 74
0
  0
LTYPE
  5
3F
100
AcDbSymbolTableRecord
100
AcDbLinetypeTableRecord
  2
BORDER2
 70
0
  3
Border (.5x) __.__.__.__.__.__.__.__.__.__.__.
 72
65
 73
6
 40
22.2250000000000014
 49
6.3499999999999996
 74
0
 49
-3.1749999999999998
 74
0
 49
6.3499999999999996
 74
0
 49
-3.125
 74
0
 49
0.1
 74
0
 49
-3.125
 74
0
  0
LTYPE
  5
40
100
AcDbSymbolTableRecord
100
AcDbLinetypeTableRecord
  2
DASHDOT2
 70
0
  3
Dash dot (.5x) _._._._._._._._._._._._._._._.
 72
65
 73
4
 40
12.6999999999999993
 49
6.3499999999999996
 74
0
 49
-3.125
 74
0
 49
0.1
 74
0
 49
-3.125
 74
0
  0
LTYPE
  5
41
100
AcDbSymbolTableRecord
100
AcDbLinetypeTableRecord
  2
ACAD_ISO12W100
 70
0
  3
ISO dash double-dot __ . . __ . . __ . . __ . . 
 72
65
 73
6
 40
21.0
 49
12.0
 74
0
 49
-2.9500000000000002
 74
0
 49
0.1
 74
0
 49
-2.9000000000000004
 74
0
 49
0.1
 74
0
 49
-2.9500000000000002
 74
0
  0
LTYPE
  5
42
100
AcDbSymbolTableRecord
100
AcDbLinetypeTableRecord
  2
ACAD_ISO07W100
 70
0
  3
ISO dot . . . . . . . . . . . . . . . . . . . . 
 72
65
 73
2
 40
3.0
 49
0.1
 74
0
 49
-2.8999999999999999
 74
0
  0
LTYPE
  5
43
100
AcDbSymbolTableRecord
100
AcDbLinetypeTableRecord
  2
ACAD_ISO06W100
 70
0
  3
ISO long-dash triple-dot ____ ... ____ ... ____
 72
65
 73
8
 40
36.0000000000000071
 49
24.0
 74
0
 49
-2.9500000000000002
 74
0
 49
0.1
 74
0
 49
-2.9000000000000004
 74
0
 49
0.1
 74
0
 49
-2.9000000000000004
 74
0
 49
0.1
 74
0
 49
-2.9500000000000002
 74
0
  0
LTYPE
  5
44
100
AcDbSymbolTableRecord
100
AcDbLinetypeTableRecord
  2
CENTER
 70
0
  3
Center ____ _ ____ _ ____ _ ____ _ ____ _ ____
 72
65
 73
4
 40
50.8000000000000043
 49
31.75
 74
0
 49
-6.3499999999999996
 74
0
 49
6.3499999999999996
 74
0
 49
-6.3499999999999996
 74
0
  0
LTYPE
  5
45
100
AcDbSymbolTableRecord
100
AcDbLinetypeTableRecord
  2
HIDDEN
 70
0
  3
Hidden __ __ __ __ __ __ __ __ __ __ __ __ __ __
 72
65
 73
2
 40
9.5249999999999986
 49
6.3499999999999996
 74
0
 49
-3.1749999999999998
 74
0
  0
LTYPE
  5
46
100
AcDbSymbolTableRecord
100
AcDbLinetypeTableRecord
  2
DOTX2
 70
0
  3
Dot (2x) .  .  .  .  .  .  .  .  .  .  .  .  .  .
 72
65
 73
2
 40
12.6999999999999993
 49
0.1
 74
0
 49
-12.5999999999999996
 74
0
  0
LTYPE
  5
47
100
AcDbSymbolTableRecord
100
AcDbLinetypeTableRecord
  2
PHANTOM
 70
0
  3
Phantom ______  __  __  ______  __  __  ______ 
 72
65
 73
6
 40
63.5000000000000071
 49
31.75
 74
0
 49
-6.3499999999999996
 74
0
 49
6.3499999999999996
 74
0
 49
-6.3499999999999996
 74
0
 49
6.3499999999999996
 74
0
 49
-6.3499999999999996
 74
0
  0
LTYPE
  5
48
100
AcDbSymbolTableRecord
100
AcDbLinetypeTableRecord
  2
ACAD_ISO08W100
 70
0
  3
ISO long-dash short-dash ____ __ ____ __ ____ _
 72
65
 73
4
 40
36.0
 49
24.0
 74
0
 49
-3.0
 74
0
 49
6.0
 74
0
 49
-3.0
 74
0
  0
LTYPE
  5
49
100
AcDbSymbolTableRecord
100
AcDbLinetypeTableRecord
  2
DASHEDX2
 70
0
  3
Dashed (2x) ____  ____  ____  ____  ____  ___
 72
65
 73
2
 40
38.0999999999999943
 49
25.3999999999999986
 74
0
 49
-12.6999999999999993
 74
0
  0
LTYPE
  5
4A
100
AcDbSymbolTableRecord
100
AcDbLinetypeTableRecord
  2
DRAINAGE
 70
0
  3
Drainage ---->---->---->----
 72
65
 73
2
 40
10.1600000000000001
 49
5.0800000000000001
 74
0
 49
5.0800000000000001
 74
0
  0
LTYPE
  5
4B
100
AcDbSymbolTableRecord
100
AcDbLinetypeTableRecord
  2
ACAD_ISO02W100
 70
0
  3
ISO dash __ __ __ __ __ __ __ __ __ __ __ __ __
 72
65
 73
2
 40
15.0
 49
12.0
 74
0
 49
-3.0
 74
0
  0
LTYPE
  5
4C
100
AcDbSymbolTableRecord
100
AcDbLinetypeTableRecord
  2
PHANTOM2
 70
0
  3
Phantom (.5x) ___ _ _ ___ _ _ ___ _ _ ___ _ _
 72
65
 73
6
 40
31.7500000000000036
 49
15.875
 74
0
 49
-3.1749999999999998
 74
0
 49
3.1749999999999998
 74
0
 49
-3.1749999999999998
 74
0
 49
3.1749999999999998
 74
0
 49
-3.1749999999999998
 74
0
  0
LTYPE
  5
4D
100
AcDbSymbolTableRecord
100
AcDbLinetypeTableRecord
  2
DASHED2
 70
0
  3
Dashed (.5x) _ _ _ _ _ _ _ _ _ _ _ _ _ _ _ _ _ 
 72
65
 73
2
 40
9.5249999999999986
 49
6.3499999999999996
 74
0
 49
-3.1749999999999998
 74
0
  0
LTYPE
  5
4E
100
AcDbSymbolTableRecord
100
AcDbLinetypeTableRecord
  2
ACAD_ISO09W100
 70
0
  3
ISO long-dash double-short-dash ____ __ __ ____
 72
65
 73
6
 40
45.0
 49
24.0
 74
0
 49
-3.0
 74
0
 49
6.0
 74
0
 49
-3.0
 74
0
 49
6.0
 74
0
 49
-3.0
 74
0
  0
LTYPE
  5
4F
100
AcDbSymbolTableRecord
100
AcDbLinetypeTableRecord
  2
ACAD_ISO13W100
 70
0
  3
ISO double-dash double-dot __ __ . . __ __ . . _
 72
65
 73
8
 40
36.0000000000000071
 49
12.0
 74
0
 49
-3.0
 74
0
 49
12.0
 74
0
 49
-2.9500000000000002
 74
0
 49
0.1
 74
0
 49
-2.9000000000000004
 74
0
 49
0.1
 74
0
 49
-2.9500000000000002
 74
0
  0
LTYPE
  5
50
100
AcDbSymbolTableRecord
100
AcDbLinetypeTableRecord
  2
TRACKS
 70
0
  3
Tracks -|-|-|-|-|-|-|-|-|-|-|-|-|-|-|-|-|-|-|-|-|-|-|-|-
 72
65
 73
2
 40
7.6200000000000001
 49
3.8100000000000001
 74
0
 49
3.8100000000000001
 74
0
  0
LTYPE
  5
51
100
AcDbSymbolTableRecord
100
AcDbLinetypeTableRecord
  2
DRAINAGE2
 70
0
  3
Drainage reversed----<----<----<----
 72
65
 73
2
 40
10.1600000000000001
 49
5.0800000000000001
 74
0
 49
5.0800000000000001
 74
0
  0
LTYPE
  5
52
100
AcDbSymbolTableRecord
100
AcDbLinetypeTableRecord
  2
DOT2
 70
0
  3
Dot (.5x) ........................................
 72
65
 73
2
 40
3.1749999999999998
 49
0.1
 74
0
 49
-3.0749999999999997
 74
0
  0
LTYPE
  5
53
100
AcDbSymbolTableRecord
100
AcDbLinetypeTableRecord
  2
ZIGZAG
 70
0
  3
Zig zag /\/\/\/\/\/\/\/\/\/\/\/\/\/\/\/\/\/\/\/\/\/\/\/
 72
65
 73
4
 40
20.32254
 49
0.00254
 74
0
 49
-5.0800000000000001
 74
0
 49
-10.1600000000000001
 74
0
 49
-5.0800000000000001
 74
0
  0
LTYPE
  5
54
100
AcDbSymbolTableRecord
100
AcDbLinetypeTableRecord
  2
DASHED
 70
0
  3
Dashed __ __ __ __ __ __ __ __ __ __ __ __ __ _
 72
65
 73
2
 40
19.0499999999999972
 49
12.6999999999999993
 74
0
 49
-6.3499999999999996
 74
0
  0
LTYPE
  5
55
100
AcDbSymbolTableRecord
100
AcDbLinetypeTableRecord
  2
ACAD_ISO14W100
 70
0
  3
ISO dash triple-dot __ . . . __ . . . __ . . . _
 72
65
 73
8
 40
24.0000000000000036
 49
12.0
 74
0
 49
-2.9500000000000002
 74
0
 49
0.1
 74
0
 49
-2.9000000000000004
 74
0
 49
0.1
 74
0
 49
-2.9000000000000004
 74
0
 49
0.1
 74
0
 49
-2.9500000000000002
 74
0
  0
LTYPE
  5
15
100
AcDbSymbolTableRecord
100
AcDbLinetypeTableRecord
  2
BYLAYER
 70
0
  3

 72
65
 73
0
 40
0.0
  0
LTYPE
  5
56
100
AcDbSymbolTableRecord
100
AcDbLinetypeTableRecord
  2
PHANTOMX2
 70
0
  3
Phantom (2x) ____________    ____    ____   _
 72
65
 73
6
 40
127.0000000000000142
 49
63.5
 74
0
 49
-12.6999999999999993
 74
0
 49
12.6999999999999993
 74
0
 49
-12.6999999999999993
 74
0
 49
12.6999999999999993
 74
0
 49
-12.6999999999999993
 74
0
  0
LTYPE
  5
14
100
AcDbSymbolTableRecord
100
AcDbLinetypeTableRecord
  2
BYBLOCK
 70
0
  3

 72
65
 73
0
 40
0.0
  0
LTYPE
  5
57
100
AcDbSymbolTableRecord
100
AcDbLinetypeTableRecord
  2
DIVIDEX2
 70
0
  3
Divide (2x) ________  .  .  ________  .  .  _
 72
65
 73
6
 40
63.5
 49
25.3999999999999986
 74
0
 49
-12.6499999999999986
 74
0
 49
0.1
 74
0
 49
-12.5999999999999979
 74
0
 49
0.1
 74
0
 49
-12.6499999999999986
 74
0
  0
LTYPE
  5
58
100
AcDbSymbolTableRecord
100
AcDbLinetypeTableRecord
  2
BORDER
 70
0
  3
Border __ __ . __ __ . __ __ . __ __ . __ __ .
 72
65
 73
6
 40
44.4499999999999957
 49
12.6999999999999993
 74
0
 49
-6.3499999999999996
 74
0
 49
12.6999999999999993
 74
0
 49
-6.2999999999999998
 74
0
 49
0.1
 74
0
 49
-6.2999999999999998
 74
0
  0
LTYPE
  5
59
100
AcDbSymbolTableRecord
100
AcDbLinetypeTableRecord
  2
DIVIDE2
 70
0
  3
Divide (.5x) __..__..__..__..__..__..__..__.._
 72
65
 73
6
 40
15.8749999999999982
 49
6.3499999999999996
 74
0
 49
-3.125
 74
0
 49
0.1
 74
0
 49
-3.0750000000000002
 74
0
 49
0.1
 74
0
 49
-3.125
 74
0
  0
LTYPE
  5
5A
100
AcDbSymbolTableRecord
100
AcDbLinetypeTableRecord
  2
DOT
 70
0
  3
Dot . . . . . . . . . . . . . . . . . . . . . . . .
 72
65
 73
2
 40
6.3499999999999996
 49
0.1
 74
0
 49
-6.25
 74
0
  0
LTYPE
  5
5B
100
AcDbSymbolTableRecord
100
AcDbLinetypeTableRecord
  2
DASHDOT
 70
0
  3
Dash dot __ . __ . __ . __ . __ . __ . __ . __
 72
65
 73
4
 40
25.4000000000000021
 49
12.6999999999999993
 74
0
 49
-6.2999999999999998
 74
0
 49
0.1
 74
0
 49
-6.2999999999999998
 74
0
  0
LTYPE
  5
5C
100
AcDbSymbolTableRecord
100
AcDbLinetypeTableRecord
  2
FENCELINE1
 70
0
  3
Fenceline circle ----0-----0----0-----0----0-----0--
 72
65
 73
4
 40
36.8299999999999983
 49
6.3499999999999996
 74
0
 49
-2.54
 74
0
 49
-2.54
 74
0
 49
25.3999999999999986
 74
0
  0
LTYPE
  5
5D
100
AcDbSymbolTableRecord
100
AcDbLinetypeTableRecord
  2
BATTING
 70
0
  3
Batting SSSSSSSSSSSSSSSSSSSSSSSSSSSSSSSSSSSSSSSSSSSSSSS
 72
65
 73
4
 40
10.1625399999999999
 49
0.00254
 74
0
 49
-2.54
 74
0
 49
-5.0800000000000001
 74
0
 49
-2.54
 74
0
  0
LTYPE
  5
5E
100
AcDbSymbolTableRecord
100
AcDbLinetypeTableRecord
  2
ACAD_ISO03W100
 70
0
  3
ISO dash space __    __    __    __    __    __
 72
65
 73
2
 40
30.0
 49
12.0
 74
0
 49
-18.0
 74
0
  0
LTYPE
  5
5F
100
AcDbSymbolTableRecord
100
AcDbLinetypeTableRecord
  2
FENCELINE2
 70
0
  3
Fenceline square ----[]-----[]----[]-----[]----[]---
 72
65
 73
4
 40
36.8299999999999983
 49
6.3499999999999996
 74
0
 49
-2.54
 74
0
 49
-2.54
 74
0
 49
25.3999999999999986
 74
0
  0
ENDTAB
  0
TABLE
  2
LAYER
  5
2
100
AcDbSymbolTable
 70
1
  0
LAYER
  5
10
100
AcDbSymbolTableRecord
100
AcDbLayerTableRecord
  2
0
 70
0
 62
7
420
16777215
  6
Continuous
370
25
390
F
  0
ENDTAB
  0
TABLE
  2
STYLE
  5
3
100
AcDbSymbolTable
 70
1
  0
STYLE
  5
60
100
AcDbSymbolTableRecord
100
AcDbTextStyleTableRecord
  2
Standard
 70
0
 40
0.0
 41
1.0
 50
0.0
 71
0
 42
2.5
  3

  4

1001
ACAD
1000
txt
1071
0
  0
ENDTAB
  0
TABLE
  2
VIEW
  5
6
100
AcDbSymbolTable
 70
0
  0
ENDTAB
  0
TABLE
  2
UCS
  5
7
100
AcDbSymbolTable
 70
0
  0
ENDTAB
  0
TABLE
  2
APPID
  5
9
100
AcDbSymbolTable
 70
1
  0
APPID
  5
12
100
AcDbSymbolTableRecord
100
AcDbRegAppTableRecord
  2
ACAD
 70
0
  0
APPID
  5
61
100
AcDbSymbolTableRecord
100
AcDbRegAppTableRecord
  2
QCAD
 70
0
  0
ENDTAB
  0
TABLE
  2
DIMSTYLE
  5
A
100
AcDbSymbolTable
 70
1
100
AcDbDimStyleTable
 71
0
  0
DIMSTYLE
105
27
100
AcDbSymbolTableRecord
100
AcDbDimStyleTableRecord
  2
Standard
 41
0.125
 42
0.03125
 43
3.75
 44
0.0625
 70
0
 73
0
 74
0
 77
1
 78
8
140
0.125
141
2.5
143
0.03937007874016
147
0.03125
171
3
172
1
271
2
272
2
274
3
278
44
283
0
284
8
340
60
  0
ENDTAB
  0
TABLE
  2
BLOCK_RECORD
  5
1
100
AcDbSymbolTable
 70
1
  0
BLOCK_RECORD
  5
1F
100
AcDbSymbolTableRecord
100
AcDbBlockTableRecord
  2
*Model_Space
340
22
  0
BLOCK_RECORD
  5
1B
100
AcDbSymbolTableRecord
100
AcDbBlockTableRecord
  2
*Paper_Space
340
1E
  0
BLOCK_RECORD
  5
23
100
AcDbSymbolTableRecord
100
AcDbBlockTableRecord
  2
*Paper_Space0
340
26
  0
ENDTAB
  0
ENDSEC
  0
SECTION
  2
BLOCKS
  0
BLOCK
  5
20
100
AcDbEntity
  8
0
100
AcDbBlockBegin
  2
*Model_Space
 70
0
 10
0.0
 20
0.0
 30
0.0
  3
*Model_Space
  1

  0
ENDBLK
  5
21
100
AcDbEntity
  8
0
100
AcDbBlockEnd
  0
BLOCK
  5
1C
100
AcDbEntity
 67
1
  8
0
100
AcDbBlockBegin
  2
*Paper_Space
 70
0
 10
0.0
 20
0.0
 30
0.0
  3
*Paper_Space
  1

  0
ENDBLK
  5
1D
100
AcDbEntity
 67
1
  8
0
100
AcDbBlockEnd
  0
BLOCK
  5
24
100
AcDbEntity
  8
0
100
AcDbBlockBegin
  2
*Paper_Space0
 70
0
 10
0.0
 20
0.0
 30
0.0
  3
*Paper_Space0
  1

  0
ENDBLK
  5
25
100
AcDbEntity
  8
0
100
AcDbBlockEnd
  0
ENDSEC
  0
SECTION
  2
ENTITIES
  0
LINE
  5
62
100
AcDbEntity
100
AcDbLine
  8
0
 62
7
420
0
370
-1
 48
1.0
  6
BYLAYER
 10
-3.0737002915353671
 20
0.4674743077867196
 30
0.0
 11
-3.1143855241580773
 21
0.4850181192071561
 31
0.0
  0
LINE
  5
63
100
AcDbEntity
100
AcDbLine
  8
0
 62
7
420
0
370
-1
 48
1.0
  6
BYLAYER
 10
0.07339567908015
 20
0.4674743077867163
 30
0.0
 11
0.0327104464574397
 21
0.4850181192071528
 31
0.0
  0
LINE
  5
64
100
AcDbEntity
100
AcDbLine
  8
0
 62
7
420
0
370
-1
 48
1.0
  6
BYLAYER
 10
3.3168435900726543
 20
0.4674743077867127
 30
0.0
 11
3.276158357449944
 21
0.4850181192071492
 31
0.0
  0
LINE
  5
65
100
AcDbEntity
100
AcDbLine
  8
0
 62
7
420
0
370
-1
 48
1.0
  6
BYLAYER
 10
-3.0732575051640225
 20
0.5231735604308729
 30
0.0
 11
-3.1080157495835792
 21
0.5506496940306016
 31
0.0
  0
LINE
  5
66
100
AcDbEntity
100
AcDbLine
  8
0
 62
7
420
0
370
-1
 48
1.0
  6
BYLAYER
 10
0.0738384654514963
 20
0.5231735604308696
 30
0.0
 11
0.0390802210319379
 21
0.5506496940305983
 31
0.0
  0
LINE
  5
67
100
AcDbEntity
100
AcDbLine
  8
0
 62
7
420
0
370
-1
 48
1.0
  6
BYLAYER
 10
3.3172863764439988
 20
0.523173560430866
 30
0.0
 11
3.2825281320244422
 21
0.5506496940305947
 31
0.0
  0
LINE
  5
68
100
AcDbEntity
100
AcDbLine
  8
0
 62
7
420
0
370
-1
 48
1.0
  6
BYLAYER
 10
-3.0584137789901256
 20
0.5768603055190444
 30
0.0
 11
-3.0848763182900534
 21
0.6123963081997024
 31
0.0
  0
LINE
  5
69
100
AcDbEntity
100
AcDbLine
  8
0
 62
7
420
0
370
-1
 48
1.0
  6
BYLAYER
 10
0.0886821916253915
 20
0.5768603055190411
 30
0.0
 11
0.0622196523254637
 21
0.612396308199699
 31
0.0
  0
LINE
  5
6A
100
AcDbEntity
100
AcDbLine
  8
0
 62
7
420
0
370
-1
 48
1.0
  6
BYLAYER
 10
3.3321301026178958
 20
0.5768603055190376
 30
0.0
 11
3.305667563317968
 21
0.6123963081996955
 31
0.0
  0
LINE
  5
6B
100
AcDbEntity
100
AcDbLine
  8
0
 62
7
420
0
370
-1
 48
1.0
  6
BYLAYER
 10
-3.0301806884220142
 20
0.6248758800950165
 30
0.0
 11
-3.0465441442804355
 21
0.6660500319999352
 31
0.0
  0
LINE
  5
6C
100
AcDbEntity
100
AcDbLine
  8
0
 62
7
420
0
370
-1
 48
1.0
  6
BYLAYER
 10
0.1169152821935029
 20
0.6248758800950132
 30
0.0
 11
0.1005518263350815
 21
0.6660500319999318
 31
0.0
  0
LINE
  5
6D
100
AcDbEntity
100
AcDbLine
  8
0
 62
7
420
0
370
-1
 48
1.0
  6
BYLAYER
 10
3.3603631931860072
 20
0.6248758800950096
 30
0.0
 11
3.3439997373275858
 21
0.6660500319999283
 31
0.0
  0
LINE
  5
6E
100
AcDbEntity
100
AcDbLine
  8
0
 62
7
420
0
370
-1
 48
1.0
  6
BYLAYER
 10
-2.9904822719245132
 20
0.6639481021009244
 30
0.0
 11
-2.9956315018665691
 21
0.7079544528212887
 31
0.0
  0
LINE
  5
6F
100
AcDbEntity
100
AcDbLine
  8
0
 62
7
420
0
370
-1
 48
1.0
  6
BYLAYER
 10
0.1566136986910021
 20
0.663948102100921
 30
0.0
 11
0.1514644687489497
 21
0.7079544528212853
 31
0.0
  0
LINE
  5
70
100
AcDbEntity
100
AcDbLine
  8
0
 62
7
420
0
370
-1
 48
1.0
  6
BYLAYER
 10
3.4000616096835081
 20
0.6639481021009175
 30
0.0
 11
3.3949123797414522
 21
0.7079544528212818
 31
0.0
  0
LINE
  5
71
100
AcDbEntity
100
AcDbLine
  8
0
 62
7
420
0
370
-1
 48
1.0
  6
BYLAYER
 10
-2.9420239109771984
 20
0.6914142641769663
 30
0.0
 11
-2.9356080034918364
 21
0.7352538536351163
 31
0.0
  0
LINE
  5
72
100
AcDbEntity
100
AcDbLine
  8
0
 62
7
420
0
370
-1
 48
1.0
  6
BYLAYER
 10
0.2050720596383204
 20
0.6914142641769629
 30
0.0
 11
0.2114879671236807
 21
0.735253853635113
 31
0.0
  0
LINE
  5
73
100
AcDbEntity
100
AcDbLine
  8
0
 62
7
420
0
370
-1
 48
1.0
  6
BYLAYER
 10
3.4485199706308229
 20
0.6914142641769594
 30
0.0
 11
3.454935878116185
 21
0.7352538536351094
 31
0.0
  0
LINE
  5
74
100
AcDbEntity
100
AcDbLine
  8
0
 62
7
420
0
370
-1
 48
1.0
  6
BYLAYER
 10
-2.8881079627973918
 20
0.7054025927676386
 30
0.0
 11
-2.8705641513769571
 21
0.7460878253903489
 31
0.0
  0
LINE
  5
75
100
AcDbEntity
100
AcDbLine
  8
0
 62
7
420
0
370
-1
 48
1.0
  6
BYLAYER
 10
0.2589880078181235
 20
0.7054025927676353
 30
0.0
 11
0.27653181923856
 21
0.7460878253903456
 31
0.0
  0
LINE
  5
76
100
AcDbEntity
100
AcDbLine
  8
0
 62
7
420
0
370
-1
 48
1.0
  6
BYLAYER
 10
3.5024359188106295
 20
0.7054025927676317
 30
0.0
 11
3.5199797302310643
 21
0.746087825390342
 31
0.0
  0
LINE
  5
77
100
AcDbEntity
100
AcDbLine
  8
0
 62
7
420
0
370
-1
 48
1.0
  6
BYLAYER
 10
-2.8324087101532385
 20
0.7049598063962923
 30
0.0
 11
-2.8049325765535116
 21
0.7397180508158507
 31
0.0
  0
LINE
  5
78
100
AcDbEntity
100
AcDbLine
  8
0
 62
7
420
0
370
-1
 48
1.0
  6
BYLAYER
 10
0.3146872604622786
 20
0.704959806396289
 30
0.0
 11
0.3421633940620055
 21
0.7397180508158474
 31
0.0
  0
LINE
  5
79
100
AcDbEntity
100
AcDbLine
  8
0
 62
7
420
0
370
-1
 48
1.0
  6
BYLAYER
 10
3.5581351714547829
 20
0.7049598063962854
 30
0.0
 11
3.5856113050545098
 21
0.7397180508158439
 31
0.0
  0
LINE
  5
7A
100
AcDbEntity
100
AcDbLine
  8
0
 62
7
420
0
370
-1
 48
1.0
  6
BYLAYER
 10
-2.778721965065067
 20
0.6901160802223971
 30
0.0
 11
-2.743185962384409
 21
0.7165786195223249
 31
0.0
  0
LINE
  5
7B
100
AcDbEntity
100
AcDbLine
  8
0
 62
7
420
0
370
-1
 48
1.0
  6
BYLAYER
 10
0.3683740055504483
 20
0.6901160802223938
 30
0.0
 11
0.4039100082311062
 21
0.7165786195223216
 31
0.0
  0
LINE
  5
7C
100
AcDbEntity
100
AcDbLine
  8
0
 62
7
420
0
370
-1
 48
1.0
  6
BYLAYER
 10
3.6118219165429544
 20
0.6901160802223902
 30
0.0
 11
3.6473579192236123
 21
0.716578619522318
 31
0.0
  0
LINE
  5
7D
100
AcDbEntity
100
AcDbLine
  8
0
 62
7
420
0
370
-1
 48
1.0
  6
BYLAYER
 10
-2.7307063904890967
 20
0.6618829896542857
 30
0.0
 11
-2.689532238584178
 21
0.6782464455127071
 31
0.0
  0
LINE
  5
7E
100
AcDbEntity
100
AcDbLine
  8
0
 62
7
420
0
370
-1
 48
1.0
  6
BYLAYER
 10
0.4163895801264204
 20
0.6618829896542824
 30
0.0
 11
0.4575637320313408
 21
0.6782464455127037
 31
0.0
  0
LINE
  5
7F
100
AcDbEntity
100
AcDbLine
  8
0
 62
7
420
0
370
-1
 48
1.0
  6
BYLAYER
 10
3.6598374911189246
 20
0.6618829896542788
 30
0.0
 11
3.7010116430238433
 21
0.6782464455127002
 31
0.0
  0
LINE
  5
80
100
AcDbEntity
100
AcDbLine
  8
0
 62
7
420
0
370
-1
 48
1.0
  6
BYLAYER
 10
-2.6916341684831906
 20
0.6221845731567865
 30
0.0
 11
-2.6476278177628245
 21
0.6273338030988389
 31
0.0
  0
LINE
  5
81
100
AcDbEntity
100
AcDbLine
  8
0
 62
7
420
0
370
-1
 48
1.0
  6
BYLAYER
 10
0.4554618021323282
 20
0.6221845731567832
 30
0.0
 11
0.4994681528526943
 21
0.6273338030988356
 31
0.0
  0
LINE
  5
82
100
AcDbEntity
100
AcDbLine
  8
0
 62
7
420
0
370
-1
 48
1.0
  6
BYLAYER
 10
3.6989097131248307
 20
0.6221845731567797
 30
0.0
 11
3.7429160638451968
 21
0.627333803098832
 31
0.0
  0
LINE
  5
83
100
AcDbEntity
100
AcDbLine
  8
0
 62
7
420
0
370
-1
 48
1.0
  6
BYLAYER
 10
-2.6641680064071451
 20
0.5737262122094682
 30
0.0
 11
-2.6203284169489969
 21
0.5673103047241079
 31
0.0
  0
LINE
  5
84
100
AcDbEntity
100
AcDbLine
  8
0
 62
7
420
0
370
-1
 48
1.0
  6
BYLAYER
 10
0.4829279642083701
 20
0.5737262122094648
 30
0.0
 11
0.5267675536665202
 21
0.5673103047241046
 31
0.0
  0
LINE
  5
85
100
AcDbEntity
100
AcDbLine
  8
0
 62
7
420
0
370
-1
 48
1.0
  6
BYLAYER
 10
3.7263758752008762
 20
0.5737262122094613
 30
0.0
 11
3.7702154646590245
 21
0.567310304724101
 31
0.0
  0
LINE
  5
86
100
AcDbEntity
100
AcDbLine
  8
0
 62
7
420
0
370
-1
 48
1.0
  6
BYLAYER
 10
-2.6501796778164746
 20
0.5198102640296651
 30
0.0
 11
-2.6094944451937643
 21
0.5022664526092286
 31
0.0
  0
LINE
  5
87
100
AcDbEntity
100
AcDbLine
  8
0
 62
7
420
0
370
-1
 48
1.0
  6
BYLAYER
 10
0.4969162927990425
 20
0.5198102640296618
 30
0.0
 11
0.5376015254217528
 21
0.5022664526092253
 31
0.0
  0
LINE
  5
88
100
AcDbEntity
100
AcDbLine
  8
0
 62
7
420
0
370
-1
 48
1.0
  6
BYLAYER
 10
3.7403642037915468
 20
0.5198102640296582
 30
0.0
 11
3.7810494364142571
 21
0.5022664526092218
 31
0.0
  0
LINE
  5
89
100
AcDbEntity
100
AcDbLine
  8
0
 62
7
420
0
370
-1
 48
1.0
  6
BYLAYER
 10
-2.6506224641878191
 20
0.46411101138551
 30
0.0
 11
-2.6158642197682624
 21
0.4366348777857831
 31
0.0
  0
LINE
  5
8A
100
AcDbEntity
100
AcDbLine
  8
0
 62
7
420
0
370
-1
 48
1.0
  6
BYLAYER
 10
0.4964735064276962
 20
0.4641110113855067
 30
0.0
 11
0.5312317508472546
 21
0.4366348777857798
 31
0.0
  0
LINE
  5
8B
100
AcDbEntity
100
AcDbLine
  8
0
 62
7
420
0
370
-1
 48
1.0
  6
BYLAYER
 10
3.7399214174202022
 20
0.4641110113855031
 30
0.0
 11
3.7746796618397589
 21
0.4366348777857763
 31
0.0
  0
LINE
  5
8C
100
AcDbEntity
100
AcDbLine
  8
0
 62
7
420
0
370
-1
 48
1.0
  6
BYLAYER
 10
-2.6654661903617161
 20
0.4104242662973385
 30
0.0
 11
-2.6390036510617882
 21
0.3748882636166824
 31
0.0
  0
LINE
  5
8D
100
AcDbEntity
100
AcDbLine
  8
0
 62
7
420
0
370
-1
 48
1.0
  6
BYLAYER
 10
0.481629780253801
 20
0.4104242662973352
 30
0.0
 11
0.5080923195537288
 21
0.374888263616679
 31
0.0
  0
LINE
  5
8E
100
AcDbEntity
100
AcDbLine
  8
0
 62
7
420
0
370
-1
 48
1.0
  6
BYLAYER
 10
3.7250776912463053
 20
0.4104242662973316
 30
0.0
 11
3.7515402305462331
 21
0.3748882636166755
 31
0.0
  0
LINE
  5
8F
100
AcDbEntity
100
AcDbLine
  8
0
 62
7
420
0
370
-1
 48
1.0
  6
BYLAYER
 10
-2.6936992809298275
 20
0.3624086917213682
 30
0.0
 11
-2.6773358250714061
 21
0.3212345398164478
 31
0.0
  0
LINE
  5
90
100
AcDbEntity
100
AcDbLine
  8
0
 62
7
420
0
370
-1
 48
1.0
  6
BYLAYER
 10
0.4533966896856896
 20
0.3624086917213649
 30
0.0
 11
0.4697601455441109
 21
0.3212345398164445
 31
0.0
  0
LINE
  5
91
100
AcDbEntity
100
AcDbLine
  8
0
 62
7
420
0
370
-1
 48
1.0
  6
BYLAYER
 10
3.6968446006781939
 20
0.3624086917213614
 30
0.0
 11
3.7132080565366152
 21
0.3212345398164409
 31
0.0
  0
LINE
  5
92
100
AcDbEntity
100
AcDbLine
  8
0
 62
7
420
0
370
-1
 48
1.0
  6
BYLAYER
 10
0.4136982731881904
 20
0.323336469715457
 30
0.0
 11
0.4188475031302428
 21
0.279330118995091
 31
0.0
  0
LINE
  5
93
100
AcDbEntity
100
AcDbLine
  8
0
 62
7
420
0
370
-1
 48
1.0
  6
BYLAYER
 10
3.6571461841806929
 20
0.3233364697154535
 30
0.0
 11
3.6622954141227488
 21
0.2793301189950874
 31
0.0
  0
LINE
  5
94
100
AcDbEntity
100
AcDbLine
  8
0
 62
7
420
0
370
-1
 48
1.0
  6
BYLAYER
 10
-2.7333976974273284
 20
0.3233364697154604
 30
0.0
 11
-2.7282484674852725
 21
0.2793301189950943
 31
0.0
  0
LINE
  5
95
100
AcDbEntity
100
AcDbLine
  8
0
 62
7
420
0
370
-1
 48
1.0
  6
BYLAYER
 10
0.365239912240872
 20
0.2958703076394151
 30
0.0
 11
0.3588240047555118
 21
0.2520307181812651
 31
0.0
  0
LINE
  5
96
100
AcDbEntity
100
AcDbLine
  8
0
 62
7
420
0
370
-1
 48
1.0
  6
BYLAYER
 10
3.6086878232333781
 20
0.2958703076394116
 30
0.0
 11
3.6022719157480161
 21
0.2520307181812615
 31
0.0
  0
LINE
  5
97
100
AcDbEntity
100
AcDbLine
  8
0
 62
7
420
0
370
-1
 48
1.0
  6
BYLAYER
 10
-2.7818560583746432
 20
0.2958703076394185
 30
0.0
 11
-2.7882719658600053
 21
0.2520307181812684
 31
0.0
  0
LINE
  5
98
100
AcDbEntity
100
AcDbLine
  8
0
 62
7
420
0
370
-1
 48
1.0
  6
BYLAYER
 10
0.311323964061069
 20
0.2818819790487428
 30
0.0
 11
0.2937801526406325
 21
0.2411967464260325
 31
0.0
  0
LINE
  5
99
100
AcDbEntity
100
AcDbLine
  8
0
 62
7
420
0
370
-1
 48
1.0
  6
BYLAYER
 10
3.5547718750535715
 20
0.2818819790487392
 30
0.0
 11
3.5372280636331368
 21
0.241196746426029
 31
0.0
  0
LINE
  5
9A
100
AcDbEntity
100
AcDbLine
  8
0
 62
7
420
0
370
-1
 48
1.0
  6
BYLAYER
 10
-2.8357720065544498
 20
0.2818819790487461
 30
0.0
 11
-2.8533158179748845
 21
0.2411967464260358
 31
0.0
  0
LINE
  5
9B
100
AcDbEntity
100
AcDbLine
  8
0
 62
7
420
0
370
-1
 48
1.0
  6
BYLAYER
 10
0.2556247114169139
 20
0.2823247654200891
 30
0.0
 11
0.228148577817187
 21
0.2475665210005307
 31
0.0
  0
LINE
  5
9C
100
AcDbEntity
100
AcDbLine
  8
0
 62
7
420
0
370
-1
 48
1.0
  6
BYLAYER
 10
3.4990726224094182
 20
0.2823247654200856
 30
0.0
 11
3.4715964888096913
 21
0.2475665210005271
 31
0.0
  0
LINE
  5
9D
100
AcDbEntity
100
AcDbLine
  8
0
 62
7
420
0
370
-1
 48
1.0
  6
BYLAYER
 10
-2.8914712591986031
 20
0.2823247654200924
 30
0.0
 11
-2.91894739279833
 21
0.247566521000534
 31
0.0
  0
LINE
  5
9E
100
AcDbEntity
100
AcDbLine
  8
0
 62
7
420
0
370
-1
 48
1.0
  6
BYLAYER
 10
0.2019379663287442
 20
0.2971684915939843
 30
0.0
 11
0.1664019636480862
 21
0.2707059522940565
 31
0.0
  0
LINE
  5
9F
100
AcDbEntity
100
AcDbLine
  8
0
 62
7
420
0
370
-1
 48
1.0
  6
BYLAYER
 10
3.4453858773212467
 20
0.2971684915939807
 30
0.0
 11
3.4098498746405888
 21
0.2707059522940529
 31
0.0
  0
LINE
  5
A0
100
AcDbEntity
100
AcDbLine
  8
0
 62
7
420
0
370
-1
 48
1.0
  6
BYLAYER
 10
-2.9451580042867747
 20
0.2971684915939876
 30
0.0
 11
-2.9806940069674326
 21
0.2707059522940598
 31
0.0
  0
LINE
  5
A1
100
AcDbEntity
100
AcDbLine
  8
0
 62
7
420
0
370
-1
 48
1.0
  6
BYLAYER
 10
0.1539223917527721
 20
0.3254015821620957
 30
0.0
 11
0.1127482398478534
 21
0.3090381263036743
 31
0.0
  0
LINE
  5
A2
100
AcDbEntity
100
AcDbLine
  8
0
 62
7
420
0
370
-1
 48
1.0
  6
BYLAYER
 10
3.3973703027452764
 20
0.3254015821620921
 30
0.0
 11
3.3561961508403577
 21
0.3090381263036708
 31
0.0
  0
LINE
  5
A3
100
AcDbEntity
100
AcDbLine
  8
0
 62
7
420
0
370
-1
 48
1.0
  6
BYLAYER
 10
-2.9931735788627449
 20
0.325401582162099
 30
0.0
 11
-3.0343477307676636
 21
0.3090381263036777
 31
0.0
  0
LINE
  5
A4
100
AcDbEntity
100
AcDbLine
  8
0
 62
7
420
0
370
-1
 48
1.0
  6
BYLAYER
 10
0.1148501697468642
 20
0.3650999986595949
 30
0.0
 11
0.0708438190264999
 21
0.3599507687175425
 31
0.0
  0
LINE
  5
A5
100
AcDbEntity
100
AcDbLine
  8
0
 62
7
420
0
370
-1
 48
1.0
  6
BYLAYER
 10
3.3582980807393703
 20
0.3650999986595913
 30
0.0
 11
3.3142917300190042
 21
0.3599507687175389
 31
0.0
  0
LINE
  5
A6
100
AcDbEntity
100
AcDbLine
  8
0
 62
7
420
0
370
-1
 48
1.0
  6
BYLAYER
 10
-3.032245800868651
 20
0.3650999986595982
 30
0.0
 11
-3.0762521515890171
 21
0.3599507687175458
 31
0.0
  0
LINE
  5
A7
100
AcDbEntity
100
AcDbLine
  8
0
 62
7
420
0
370
-1
 48
1.0
  6
BYLAYER
 10
0.0873840076708223
 20
0.4135583596069132
 30
0.0
 11
0.0435444182126723
 21
0.4199742670922735
 31
0.0
  0
LINE
  5
A8
100
AcDbEntity
100
AcDbLine
  8
0
 62
7
420
0
370
-1
 48
1.0
  6
BYLAYER
 10
3.3308319186633248
 20
0.4135583596069097
 30
0.0
 11
3.2869923292051766
 21
0.4199742670922699
 31
0.0
  0
LINE
  5
A9
100
AcDbEntity
100
AcDbLine
  8
0
 62
7
420
0
370
-1
 48
1.0
  6
BYLAYER
 10
-3.0597119629446965
 20
0.4135583596069166
 30
0.0
 11
-3.1035515524028447
 21
0.4199742670922768
 31
0.0
  0
LINE
  5
AA
100
AcDbEntity
100
AcDbLine
  8
0
 62
7
420
0
370
-1
 48
1.0
  6
BYLAYER
 10
0.0327104464574397
 20
0.5022664526092235
 30
0.0
 11
0.07339567908015
 21
0.51981026402966
 31
0.0
  0
LINE
  5
AB
100
AcDbEntity
100
AcDbLine
  8
0
 62
7
420
0
370
-1
 48
1.0
  6
BYLAYER
 10
3.276158357449944
 20
0.50226645260922
 30
0.0
 11
3.3168435900726543
 21
0.5198102640296565
 31
0.0
  0
LINE
  5
AC
100
AcDbEntity
100
AcDbLine
  8
0
 62
7
420
0
370
-1
 48
1.0
  6
BYLAYER
 10
-3.1143855241580773
 20
0.5022664526092269
 30
0.0
 11
-3.0737002915353671
 21
0.5198102640296633
 31
0.0
  0
LINE
  5
AD
100
AcDbEntity
100
AcDbLine
  8
0
 62
7
420
0
370
-1
 48
1.0
  6
BYLAYER
 10
0.0435444182126723
 20
0.5673103047241028
 30
0.0
 11
0.0873840076708223
 21
0.5737262122094631
 31
0.0
  0
LINE
  5
AE
100
AcDbEntity
100
AcDbLine
  8
0
 62
7
420
0
370
-1
 48
1.0
  6
BYLAYER
 10
3.2869923292051766
 20
0.5673103047240993
 30
0.0
 11
3.3308319186633248
 21
0.5737262122094595
 31
0.0
  0
LINE
  5
AF
100
AcDbEntity
100
AcDbLine
  8
0
 62
7
420
0
370
-1
 48
1.0
  6
BYLAYER
 10
-3.1035515524028447
 20
0.5673103047241062
 30
0.0
 11
-3.0597119629446965
 21
0.5737262122094664
 31
0.0
  0
LINE
  5
B0
100
AcDbEntity
100
AcDbLine
  8
0
 62
7
420
0
370
-1
 48
1.0
  6
BYLAYER
 10
0.0708438190264982
 20
0.6273338030988356
 30
0.0
 11
0.1148501697468625
 21
0.6221845731567814
 31
0.0
  0
LINE
  5
B1
100
AcDbEntity
100
AcDbLine
  8
0
 62
7
420
0
370
-1
 48
1.0
  6
BYLAYER
 10
3.3142917300190042
 20
0.627333803098832
 30
0.0
 11
3.3582980807393668
 21
0.6221845731567779
 31
0.0
  0
LINE
  5
B2
100
AcDbEntity
100
AcDbLine
  8
0
 62
7
420
0
370
-1
 48
1.0
  6
BYLAYER
 10
-3.0762521515890171
 20
0.6273338030988389
 30
0.0
 11
-3.0322458008686546
 21
0.6221845731567848
 31
0.0
  0
LINE
  5
B3
100
AcDbEntity
100
AcDbLine
  8
0
 62
7
420
0
370
-1
 48
1.0
  6
BYLAYER
 10
0.1127482398478517
 20
0.6782464455127037
 30
0.0
 11
0.1539223917527703
 21
0.6618829896542806
 31
0.0
  0
LINE
  5
B4
100
AcDbEntity
100
AcDbLine
  8
0
 62
7
420
0
370
-1
 48
1.0
  6
BYLAYER
 10
3.3561961508403577
 20
0.6782464455127002
 30
0.0
 11
3.3973703027452764
 21
0.6618829896542771
 31
0.0
  0
LINE
  5
B5
100
AcDbEntity
100
AcDbLine
  8
0
 62
7
420
0
370
-1
 48
1.0
  6
BYLAYER
 10
-3.0343477307676636
 20
0.6782464455127071
 30
0.0
 11
-2.9931735788627449
 21
0.6618829896542839
 31
0.0
  0
LINE
  5
B6
100
AcDbEntity
100
AcDbLine
  8
0
 62
7
420
0
370
-1
 48
1.0
  6
BYLAYER
 10
0.1664019636480862
 20
0.7165786195223216
 30
0.0
 11
0.2019379663287424
 21
0.6901160802223938
 31
0.0
  0
LINE
  5
B7
100
AcDbEntity
100
AcDbLine
  8
0
 62
7
420
0
370
-1
 48
1.0
  6
BYLAYER
 10
3.4098498746405888
 20
0.716578619522318
 30
0.0
 11
3.4453858773212467
 21
0.6901160802223902
 31
0.0
  0
LINE
  5
B8
100
AcDbEntity
100
AcDbLine
  8
0
 62
7
420
0
370
-1
 48
1.0
  6
BYLAYER
 10
-2.9806940069674326
 20
0.7165786195223249
 30
0.0
 11
-2.9451580042867747
 21
0.6901160802223971
 31
0.0
  0
LINE
  5
B9
100
AcDbEntity
100
AcDbLine
  8
0
 62
7
420
0
370
-1
 48
1.0
  6
BYLAYER
 10
0.2281485778171852
 20
0.7397180508158474
 30
0.0
 11
0.2556247114169139
 21
0.704959806396289
 31
0.0
  0
LINE
  5
BA
100
AcDbEntity
100
AcDbLine
  8
0
 62
7
420
0
370
-1
 48
1.0
  6
BYLAYER
 10
3.4715964888096913
 20
0.7397180508158439
 30
0.0
 11
3.4990726224094182
 21
0.7049598063962854
 31
0.0
  0
LINE
  5
BB
100
AcDbEntity
100
AcDbLine
  8
0
 62
7
420
0
370
-1
 48
1.0
  6
BYLAYER
 10
-2.91894739279833
 20
0.7397180508158507
 30
0.0
 11
-2.8914712591986031
 21
0.7049598063962923
 31
0.0
  0
LINE
  5
BC
100
AcDbEntity
100
AcDbLine
  8
0
 62
7
420
0
370
-1
 48
1.0
  6
BYLAYER
 10
0.2937801526406307
 20
0.7460878253903456
 30
0.0
 11
0.3113239640610672
 21
0.7054025927676353
 31
0.0
  0
LINE
  5
BD
100
AcDbEntity
100
AcDbLine
  8
0
 62
7
420
0
370
-1
 48
1.0
  6
BYLAYER
 10
3.5372280636331332
 20
0.746087825390342
 30
0.0
 11
3.5547718750535715
 21
0.7054025927676317
 31
0.0
  0
LINE
  5
BE
100
AcDbEntity
100
AcDbLine
  8
0
 62
7
420
0
370
-1
 48
1.0
  6
BYLAYER
 10
-2.8533158179748881
 20
0.7460878253903489
 30
0.0
 11
-2.8357720065544498
 21
0.7054025927676386
 31
0.0
  0
LINE
  5
BF
100
AcDbEntity
100
AcDbLine
  8
0
 62
7
420
0
370
-1
 48
1.0
  6
BYLAYER
 10
0.3588240047555118
 20
0.735253853635113
 30
0.0
 11
0.3652399122408703
 21
0.6914142641769629
 31
0.0
  0
LINE
  5
C0
100
AcDbEntity
100
AcDbLine
  8
0
 62
7
420
0
370
-1
 48
1.0
  6
BYLAYER
 10
3.6022719157480161
 20
0.7352538536351094
 30
0.0
 11
3.6086878232333746
 21
0.6914142641769594
 31
0.0
  0
LINE
  5
C1
100
AcDbEntity
100
AcDbLine
  8
0
 62
7
420
0
370
-1
 48
1.0
  6
BYLAYER
 10
-2.7882719658600053
 20
0.7352538536351163
 30
0.0
 11
-2.7818560583746468
 21
0.6914142641769663
 31
0.0
  0
LINE
  5
C2
100
AcDbEntity
100
AcDbLine
  8
0
 62
7
420
0
370
-1
 48
1.0
  6
BYLAYER
 10
0.4188475031302428
 20
0.7079544528212853
 30
0.0
 11
0.4136982731881886
 21
0.663948102100921
 31
0.0
  0
LINE
  5
C3
100
AcDbEntity
100
AcDbLine
  8
0
 62
7
420
0
370
-1
 48
1.0
  6
BYLAYER
 10
3.6622954141227488
 20
0.7079544528212818
 30
0.0
 11
3.6571461841806929
 21
0.6639481021009175
 31
0.0
  0
LINE
  5
C4
100
AcDbEntity
100
AcDbLine
  8
0
 62
7
420
0
370
-1
 48
1.0
  6
BYLAYER
 10
-2.7282484674852725
 20
0.7079544528212887
 30
0.0
 11
-2.7333976974273284
 21
0.6639481021009244
 31
0.0
  0
LINE
  5
C5
100
AcDbEntity
100
AcDbLine
  8
0
 62
7
420
0
370
-1
 48
1.0
  6
BYLAYER
 10
0.4697601455441109
 20
0.6660500319999336
 30
0.0
 11
0.4533966896856878
 21
0.6248758800950149
 31
0.0
  0
LINE
  5
C6
100
AcDbEntity
100
AcDbLine
  8
0
 62
7
420
0
370
-1
 48
1.0
  6
BYLAYER
 10
3.7132080565366152
 20
0.6660500319999301
 30
0.0
 11
3.6968446006781939
 21
0.6248758800950114
 31
0.0
  0
LINE
  5
C7
100
AcDbEntity
100
AcDbLine
  8
0
 62
7
420
0
370
-1
 48
1.0
  6
BYLAYER
 10
-2.6773358250714061
 20
0.666050031999937
 30
0.0
 11
-2.6936992809298275
 21
0.6248758800950183
 31
0.0
  0
LINE
  5
C8
100
AcDbEntity
100
AcDbLine
  8
0
 62
7
420
0
370
-1
 48
1.0
  6
BYLAYER
 10
0.5080923195537288
 20
0.612396308199699
 30
0.0
 11
0.481629780253801
 21
0.5768603055190429
 31
0.0
  0
LINE
  5
C9
100
AcDbEntity
100
AcDbLine
  8
0
 62
7
420
0
370
-1
 48
1.0
  6
BYLAYER
 10
3.7515402305462331
 20
0.6123963081996955
 30
0.0
 11
3.7250776912463053
 21
0.5768603055190393
 31
0.0
  0
LINE
  5
CA
100
AcDbEntity
100
AcDbLine
  8
0
 62
7
420
0
370
-1
 48
1.0
  6
BYLAYER
 10
-2.6390036510617882
 20
0.6123963081997024
 30
0.0
 11
-2.6654661903617161
 21
0.5768603055190462
 31
0.0
  0
LINE
  5
CB
100
AcDbEntity
100
AcDbLine
  8
0
 62
7
420
0
370
-1
 48
1.0
  6
BYLAYER
 10
0.5312317508472546
 20
0.5506496940306
 30
0.0
 11
0.4964735064276962
 21
0.5231735604308714
 31
0.0
  0
LINE
  5
CC
100
AcDbEntity
100
AcDbLine
  8
0
 62
7
420
0
370
-1
 48
1.0
  6
BYLAYER
 10
3.7746796618397589
 20
0.5506496940305965
 30
0.0
 11
3.7399214174202022
 21
0.5231735604308678
 31
0.0
  0
LINE
  5
CD
100
AcDbEntity
100
AcDbLine
  8
0
 62
7
420
0
370
-1
 48
1.0
  6
BYLAYER
 10
-2.6158642197682624
 20
0.5506496940306034
 30
0.0
 11
-2.6506224641878191
 21
0.5231735604308747
 31
0.0
  0
LINE
  5
CE
100
AcDbEntity
100
AcDbLine
  8
0
 62
7
420
0
370
-1
 48
1.0
  6
BYLAYER
 10
0.5376015254217528
 20
0.4850181192071545
 30
0.0
 11
0.4969162927990425
 21
0.4674743077867181
 31
0.0
  0
LINE
  5
CF
100
AcDbEntity
100
AcDbLine
  8
0
 62
7
420
0
370
-1
 48
1.0
  6
BYLAYER
 10
3.7810494364142571
 20
0.485018119207151
 30
0.0
 11
3.7403642037915468
 21
0.4674743077867145
 31
0.0
  0
LINE
  5
D0
100
AcDbEntity
100
AcDbLine
  8
0
 62
7
420
0
370
-1
 48
1.0
  6
BYLAYER
 10
-2.6094944451937643
 20
0.4850181192071579
 30
0.0
 11
-2.6501796778164746
 21
0.4674743077867214
 31
0.0
  0
LINE
  5
D1
100
AcDbEntity
100
AcDbLine
  8
0
 62
7
420
0
370
-1
 48
1.0
  6
BYLAYER
 10
0.5267675536665202
 20
0.4199742670922753
 30
0.0
 11
0.4829279642083701
 21
0.413558359606915
 31
0.0
  0
LINE
  5
D2
100
AcDbEntity
100
AcDbLine
  8
0
 62
7
420
0
370
-1
 48
1.0
  6
BYLAYER
 10
3.7702154646590245
 20
0.4199742670922717
 30
0.0
 11
3.7263758752008762
 21
0.4135583596069115
 31
0.0
  0
LINE
  5
D3
100
AcDbEntity
100
AcDbLine
  8
0
 62
7
420
0
370
-1
 48
1.0
  6
BYLAYER
 10
-2.6203284169489969
 20
0.4199742670922786
 30
0.0
 11
-2.6641680064071451
 21
0.4135583596069183
 31
0.0
  0
LINE
  5
D4
100
AcDbEntity
100
AcDbLine
  8
0
 62
7
420
0
370
-1
 48
1.0
  6
BYLAYER
 10
0.4994681528526943
 20
0.3599507687175425
 30
0.0
 11
0.45546180213233
 21
0.3650999986595966
 31
0.0
  0
LINE
  5
D5
100
AcDbEntity
100
AcDbLine
  8
0
 62
7
420
0
370
-1
 48
1.0
  6
BYLAYER
 10
3.7429160638451968
 20
0.3599507687175389
 30
0.0
 11
3.6989097131248343
 21
0.3650999986595931
 31
0.0
  0
LINE
  5
D6
100
AcDbEntity
100
AcDbLine
  8
0
 62
7
420
0
370
-1
 48
1.0
  6
BYLAYER
 10
-2.6476278177628245
 20
0.3599507687175458
 30
0.0
 11
-2.691634168483187
 21
0.3650999986596
 31
0.0
  0
LINE
  5
D7
100
AcDbEntity
100
AcDbLine
  8
0
 62
7
420
0
370
-1
 48
1.0
  6
BYLAYER
 10
0.4575637320313408
 20
0.3090381263036743
 30
0.0
 11
0.4163895801264221
 21
0.3254015821620975
 31
0.0
  0
LINE
  5
D8
100
AcDbEntity
100
AcDbLine
  8
0
 62
7
420
0
370
-1
 48
1.0
  6
BYLAYER
 10
3.7010116430238433
 20
0.3090381263036708
 30
0.0
 11
3.6598374911189246
 21
0.3254015821620939
 31
0.0
  0
LINE
  5
D9
100
AcDbEntity
100
AcDbLine
  8
0
 62
7
420
0
370
-1
 48
1.0
  6
BYLAYER
 10
-2.689532238584178
 20
0.3090381263036777
 30
0.0
 11
-2.7307063904890967
 21
0.3254015821621008
 31
0.0
  0
LINE
  5
DA
100
AcDbEntity
100
AcDbLine
  8
0
 62
7
420
0
370
-1
 48
1.0
  6
BYLAYER
 10
0.4039100082311062
 20
0.2707059522940565
 30
0.0
 11
0.3683740055504501
 21
0.2971684915939843
 31
0.0
  0
LINE
  5
DB
100
AcDbEntity
100
AcDbLine
  8
0
 62
7
420
0
370
-1
 48
1.0
  6
BYLAYER
 10
3.6473579192236123
 20
0.2707059522940529
 30
0.0
 11
3.6118219165429544
 21
0.2971684915939807
 31
0.0
  0
LINE
  5
DC
100
AcDbEntity
100
AcDbLine
  8
0
 62
7
420
0
370
-1
 48
1.0
  6
BYLAYER
 10
-2.743185962384409
 20
0.2707059522940598
 30
0.0
 11
-2.778721965065067
 21
0.2971684915939876
 31
0.0
  0
LINE
  5
DD
100
AcDbEntity
100
AcDbLine
  8
0
 62
7
420
0
370
-1
 48
1.0
  6
BYLAYER
 10
0.3421633940620072
 20
0.2475665210005307
 30
0.0
 11
0.3146872604622786
 21
0.2823247654200891
 31
0.0
  0
LINE
  5
DE
100
AcDbEntity
100
AcDbLine
  8
0
 62
7
420
0
370
-1
 48
1.0
  6
BYLAYER
 10
3.5856113050545098
 20
0.2475665210005271
 30
0.0
 11
3.5581351714547829
 21
0.2823247654200856
 31
0.0
  0
LINE
  5
DF
100
AcDbEntity
100
AcDbLine
  8
0
 62
7
420
0
370
-1
 48
1.0
  6
BYLAYER
 10
-2.8049325765535116
 20
0.247566521000534
 30
0.0
 11
-2.8324087101532385
 21
0.2823247654200924
 31
0.0
  0
LINE
  5
E0
100
AcDbEntity
100
AcDbLine
  8
0
 62
7
420
0
370
-1
 48
1.0
  6
BYLAYER
 10
0.2765318192385617
 20
0.2411967464260325
 30
0.0
 11
0.2589880078181253
 21
0.2818819790487428
 31
0.0
  0
LINE
  5
E1
100
AcDbEntity
100
AcDbLine
  8
0
 62
7
420
0
370
-1
 48
1.0
  6
BYLAYER
 10
3.5199797302310678
 20
0.241196746426029
 30
0.0
 11
3.5024359188106295
 21
0.2818819790487392
 31
0.0
  0
LINE
  5
E2
100
AcDbEntity
100
AcDbLine
  8
0
 62
7
420
0
370
-1
 48
1.0
  6
BYLAYER
 10
-2.8705641513769535
 20
0.2411967464260358
 30
0.0
 11
-2.8881079627973918
 21
0.2818819790487461
 31
0.0
  0
LINE
  5
E3
100
AcDbEntity
100
AcDbLine
  8
0
 62
7
420
0
370
-1
 48
1.0
  6
BYLAYER
 10
0.2114879671236825
 20
0.2520307181812651
 30
0.0
 11
0.2050720596383222
 21
0.2958703076394151
 31
0.0
  0
LINE
  5
E4
100
AcDbEntity
100
AcDbLine
  8
0
 62
7
420
0
370
-1
 48
1.0
  6
BYLAYER
 10
3.454935878116185
 20
0.2520307181812615
 30
0.0
 11
3.4485199706308265
 21
0.2958703076394116
 31
0.0
  0
LINE
  5
E5
100
AcDbEntity
100
AcDbLine
  8
0
 62
7
420
0
370
-1
 48
1.0
  6
BYLAYER
 10
-2.9356080034918364
 20
0.2520307181812684
 30
0.0
 11
-2.9420239109771948
 21
0.2958703076394185
 31
0.0
  0
LINE
  5
E6
100
AcDbEntity
100
AcDbLine
  8
0
 62
7
420
0
370
-1
 48
1.0
  6
BYLAYER
 10
0.1514644687489497
 20
0.279330118995091
 30
0.0
 11
0.1566136986910038
 21
0.323336469715457
 31
0.0
  0
LINE
  5
E7
100
AcDbEntity
100
AcDbLine
  8
0
 62
7
420
0
370
-1
 48
1.0
  6
BYLAYER
 10
3.3949123797414522
 20
0.2793301189950874
 30
0.0
 11
3.4000616096835081
 21
0.3233364697154535
 31
0.0
  0
LINE
  5
E8
100
AcDbEntity
100
AcDbLine
  8
0
 62
7
420
0
370
-1
 48
1.0
  6
BYLAYER
 10
-2.9956315018665691
 20
0.2793301189950943
 30
0.0
 11
-2.9904822719245132
 21
0.3233364697154604
 31
0.0
  0
LINE
  5
E9
100
AcDbEntity
100
AcDbLine
  8
0
 62
7
420
0
370
-1
 48
1.0
  6
BYLAYER
 10
0.1005518263350815
 20
0.3212345398164445
 30
0.0
 11
0.1169152821935047
 21
0.3624086917213631
 31
0.0
  0
LINE
  5
EA
100
AcDbEntity
100
AcDbLine
  8
0
 62
7
420
0
370
-1
 48
1.0
  6
BYLAYER
 10
3.3439997373275858
 20
0.3212345398164409
 30
0.0
 11
3.3603631931860072
 21
0.3624086917213596
 31
0.0
  0
LINE
  5
EB
100
AcDbEntity
100
AcDbLine
  8
0
 62
7
420
0
370
-1
 48
1.0
  6
BYLAYER
 10
-3.0465441442804355
 20
0.3212345398164478
 30
0.0
 11
-3.0301806884220142
 21
0.3624086917213665
 31
0.0
  0
LINE
  5
EC
100
AcDbEntity
100
AcDbLine
  8
0
 62
7
420
0
370
-1
 48
1.0
  6
BYLAYER
 10
0.0622196523254637
 20
0.374888263616679
 30
0.0
 11
0.0886821916253915
 21
0.4104242662973352
 31
0.0
  0
LINE
  5
ED
100
AcDbEntity
100
AcDbLine
  8
0
 62
7
420
0
370
-1
 48
1.0
  6
BYLAYER
 10
3.305667563317968
 20
0.3748882636166755
 30
0.0
 11
3.3321301026178958
 21
0.4104242662973316
 31
0.0
  0
LINE
  5
EE
100
AcDbEntity
100
AcDbLine
  8
0
 62
7
420
0
370
-1
 48
1.0
  6
BYLAYER
 10
-3.0848763182900534
 20
0.3748882636166824
 30
0.0
 11
-3.0584137789901256
 21
0.4104242662973385
 31
0.0
  0
LINE
  5
EF
100
AcDbEntity
100
AcDbLine
  8
0
 62
7
420
0
370
-1
 48
1.0
  6
BYLAYER
 10
0.0390802210319379
 20
0.436634877785778
 30
0.0
 11
0.0738384654514963
 21
0.4641110113855067
 31
0.0
  0
LINE
  5
F0
100
AcDbEntity
100
AcDbLine
  8
0
 62
7
420
0
370
-1
 48
1.0
  6
BYLAYER
 10
3.2825281320244422
 20
0.4366348777857745
 30
0.0
 11
3.3172863764439988
 21
0.4641110113855031
 31
0.0
  0
LINE
  5
F1
100
AcDbEntity
100
AcDbLine
  8
0
 62
7
420
0
370
-1
 48
1.0
  6
BYLAYER
 10
-3.1080157495835792
 20
0.4366348777857814
 30
0.0
 11
-3.0732575051640225
 21
0.46411101138551
 31
0.0
  0
CIRCLE
  5
F2
100
AcDbEntity
100
AcDbCircle
  8
0
 62
3
420
65280
370
-1
 48
1.0
  6
BYLAYER
 10
4.1331132950148017
 20
-0.1108961030678941
 30
0.0
 40
0.0538784999999979
  0
CIRCLE
  5
F3
100
AcDbEntity
100
AcDbCircle
  8
0
 62
3
420
65280
370
-1
 48
1.0
  6
BYLAYER
 10
0.8896653840222974
 20
-0.1108961030678906
 30
0.0
 40
0.0538784999999979
  0
CIRCLE
  5
F4
100
AcDbEntity
100
AcDbCircle
  8
0
 62
3
420
65280
370
-1
 48
1.0
  6
BYLAYER
 10
-2.2574305865932196
 20
-0.1108961030678872
 30
0.0
 40
0.0538784999999979
  0
CIRCLE
  5
F5
100
AcDbEntity
100
AcDbCircle
  8
0
 62
3
420
65280
370
-1
 48
1.0
  6
BYLAYER
 10
2.9241132950148128
 20
-0.1108961030678941
 30
0.0
 40
0.0538784999999962
  0
CIRCLE
  5
F6
100
AcDbEntity
100
AcDbCircle
  8
0
 62
3
420
65280
370
-1
 48
1.0
  6
BYLAYER
 10
-0.3193346159776915
 20
-0.1108961030678906
 30
0.0
 40
0.0538784999999962
  0
CIRCLE
  5
F7
100
AcDbEntity
100
AcDbCircle
  8
0
 62
3
420
65280
370
-1
 48
1.0
  6
BYLAYER
 10
-3.4664305865932086
 20
-0.1108961030678872
 30
0.0
 40
0.0538784999999962
  0
CIRCLE
  5
F8
100
AcDbEntity
100
AcDbCircle
  8
0
 62
3
420
65280
370
-1
 48
1.0
  6
BYLAYER
 10
4.1331132950148017
 20
1.0981038969321109
 30
0.0
 40
0.0538784999999962
  0
CIRCLE
  5
F9
100
AcDbEntity
100
AcDbCircle
  8
0
 62
3
420
65280
370
-1
 48
1.0
  6
BYLAYER
 10
0.8896653840222974
 20
1.0981038969321144
 30
0.0
 40
0.0538784999999962
  0
CIRCLE
  5
FA
100
AcDbEntity
100
AcDbCircle
  8
0
 62
3
420
65280
370
-1
 48
1.0
  6
BYLAYER
 10
-2.2574305865932196
 20
1.0981038969321177
 30
0.0
 40
0.0538784999999962
  0
CIRCLE
  5
FB
100
AcDbEntity
100
AcDbCircle
  8
0
 62
3
420
65280
370
-1
 48
1.0
  6
BYLAYER
 10
2.9241132950148092
 20
1.0981038969321109
 30
0.0
 40
0.0538784999999962
  0
CIRCLE
  5
FC
100
AcDbEntity
100
AcDbCircle
  8
0
 62
3
420
65280
370
-1
 48
1.0
  6
BYLAYER
 10
-0.3193346159776951
 20
1.0981038969321144
 30
0.0
 40
0.0538784999999962
  0
CIRCLE
  5
FD
100
AcDbEntity
100
AcDbCircle
  8
0
 62
3
420
65280
370
-1
 48
1.0
  6
BYLAYER
 10
-3.4664305865932121
 20
1.0981038969321177
 30
0.0
 40
0.0538784999999962
  0
CIRCLE
  5
FE
100
AcDbEntity
100
AcDbCircle
  8
0
 62
14
420
8388608
370
-1
 48
1.0
  6
BYLAYER
 10
3.5286038969321005
 20
0.4936422859081855
 30
0.0
 40
0.438763036903433
  0
CIRCLE
  5
FF
100
AcDbEntity
100
AcDbCircle
  8
0
 62
14
420
8388608
370
-1
 48
1.0
  6
BYLAYER
 10
0.2851559859395962
 20
0.493642285908189
 30
0.0
 40
0.438763036903433
  0
CIRCLE
  5
100
100
AcDbEntity
100
AcDbCircle
  8
0
 62
14
420
8388608
370
-1
 48
1.0
  6
BYLAYER
 10
-2.8619399846759208
 20
0.4936422859081924
 30
0.0
 40
0.438763036903433
  0
LINE
  5
101
100
AcDbEntity
100
AcDbLine
  8
0
 62
256
370
-1
 48
1.0
  6
BYLAYER
 10
2.5777842025082123
 20
1.8006038969321114
 30
0.0
 11
2.5777842025082087
 21
1.3670962735273982
 31
0.0
  0
LINE
  5
102
100
AcDbEntity
100
AcDbLine
  8
0
 62
256
370
-1
 48
1.0
  6
BYLAYER
 10
4.5909235875635659
 20
1.8006038969321114
 30
0.0
 11
4.5909235875635659
 21
1.3670962735273982
 31
0.0
  0
LINE
  5
103
100
AcDbEntity
100
AcDbLine
  8
0
 62
256
370
-1
 48
1.0
  6
BYLAYER
 10
1.3474756765710616
 20
1.8006038969321096
 30
0.0
 11
1.3474756765710616
 21
1.3670962735273964
 31
0.0
  0
LINE
  5
104
100
AcDbEntity
100
AcDbLine
  8
0
 62
256
370
-1
 48
1.0
  6
BYLAYER
 10
-0.665663708484292
 20
1.8006038969321096
 30
0.0
 11
-0.6656637084842938
 21
1.3670962735273964
 31
0.0
  0
LINE
  5
105
100
AcDbEntity
100
AcDbLine
  8
0
 62
256
370
-1
 48
1.0
  6
BYLAYER
 10
-3.8127596790998091
 20
1.8006038969321183
 30
0.0
 11
-3.8127596790998126
 21
1.367096273527405
 31
0.0
  0
LINE
  5
106
100
AcDbEntity
100
AcDbLine
  8
0
 62
256
370
-1
 48
1.0
  6
BYLAYER
 10
-1.7996202940444554
 20
1.8006038969321183
 30
0.0
 11
-1.7996202940444554
 21
1.367096273527405
 31
0.0
  0
LINE
  5
107
100
AcDbEntity
100
AcDbLine
  8
0
 62
256
370
-1
 48
1.0
  6
BYLAYER
 10
-0.5498440140604046
 20
1.3286422859081899
 30
0.0
 11
1.1201559859395971
 21
1.3286422859081899
 31
0.0
  0
LINE
  5
108
100
AcDbEntity
100
AcDbLine
  8
0
 62
256
370
-1
 48
1.0
  6
BYLAYER
 10
-3.6969399846759217
 20
1.3286422859081932
 30
0.0
 11
-2.02693998467592
 21
1.3286422859081932
 31
0.0
  0
LINE
  5
109
100
AcDbEntity
100
AcDbLine
  8
0
 62
256
370
-1
 48
1.0
  6
BYLAYER
 10
-0.5498440140604046
 20
-0.3413577140918118
 30
0.0
 11
-0.5498440140604046
 21
1.3286422859081899
 31
0.0
  0
LINE
  5
10A
100
AcDbEntity
100
AcDbLine
  8
0
 62
256
370
-1
 48
1.0
  6
BYLAYER
 10
1.1201559859395971
 20
-0.3413577140918118
 30
0.0
 11
1.1201559859395971
 21
1.3286422859081899
 31
0.0
  0
LINE
  5
10B
100
AcDbEntity
100
AcDbLine
  8
0
 62
256
370
-1
 48
1.0
  6
BYLAYER
 10
-0.5498440140604046
 20
-0.3413577140918118
 30
0.0
 11
1.1201559859395971
 21
-0.3413577140918118
 31
0.0
  0
LINE
  5
10C
100
AcDbEntity
100
AcDbLine
  8
0
 62
256
370
-1
 48
1.0
  6
BYLAYER
 10
-3.6969399846759217
 20
-0.3413577140918085
 30
0.0
 11
-3.6969399846759217
 21
1.3286422859081932
 31
0.0
  0
LINE
  5
10D
100
AcDbEntity
100
AcDbLine
  8
0
 62
256
370
-1
 48
1.0
  6
BYLAYER
 10
-2.02693998467592
 20
-0.3413577140918085
 30
0.0
 11
-2.02693998467592
 21
1.3286422859081932
 31
0.0
  0
LINE
  5
10E
100
AcDbEntity
100
AcDbLine
  8
0
 62
256
370
-1
 48
1.0
  6
BYLAYER
 10
-3.6969399846759217
 20
-0.3413577140918085
 30
0.0
 11
-2.02693998467592
 21
-0.3413577140918085
 31
0.0
  0
LINE
  5
10F
100
AcDbEntity
100
AcDbLine
  8
0
 62
256
370
-1
 48
1.0
  6
BYLAYER
 10
4.9999999999999964
 20
-0.5400261345940205
 30
0.0
 11
2.0572077938642082
 21
-0.5400261345940169
 31
0.0
  0
LINE
  5
110
100
AcDbEntity
100
AcDbLine
  8
0
 62
256
370
-1
 48
1.0
  6
BYLAYER
 10
1.7565520890074922
 20
-0.5400261345940169
 30
0.0
 11
-1.1862401171282961
 21
-0.5400261345940134
 31
0.0
  0
LINE
  5
111
100
AcDbEntity
100
AcDbLine
  8
0
 62
256
370
-1
 48
1.0
  6
BYLAYER
 10
-1.3905438816080249
 20
-0.5400261345940136
 30
0.0
 11
-4.3333360877438132
 21
-0.5400261345940101
 31
0.0
  0
CIRCLE
  5
112
100
AcDbEntity
100
AcDbCircle
  8
0
 62
256
370
-1
 48
1.0
  6
BYLAYER
 10
3.5286038969321005
 20
0.4936422859081855
 30
0.0
 40
0.0999999999999996
  0
CIRCLE
  5
113
100
AcDbEntity
100
AcDbCircle
  8
0
 62
256
370
-1
 48
1.0
  6
BYLAYER
 10
0.2851559859395962
 20
0.493642285908189
 30
0.0
 40
0.0999999999999996
  0
CIRCLE
  5
114
100
AcDbEntity
100
AcDbCircle
  8
0
 62
256
370
-1
 48
1.0
  6
BYLAYER
 10
-2.8619399846759208
 20
0.4936422859081924
 30
0.0
 40
0.0999999999999996
  0
LINE
  5
115
100
AcDbEntity
100
AcDbLine
  8
0
 62
256
370
-1
 48
1.0
  6
BYLAYER
 10
0.0327104464574397
 20
0.4850181192071528
 30
0.0
 11
0.0327104464574397
 21
0.5022664526092253
 31
0.0
  0
LINE
  5
116
100
AcDbEntity
100
AcDbLine
  8
0
 62
256
370
-1
 48
1.0
  6
BYLAYER
 10
3.276158357449944
 20
0.4850181192071492
 30
0.0
 11
3.276158357449944
 21
0.5022664526092218
 31
0.0
  0
LINE
  5
117
100
AcDbEntity
100
AcDbLine
  8
0
 62
256
370
-1
 48
1.0
  6
BYLAYER
 10
-3.1143855241580773
 20
0.4850181192071561
 30
0.0
 11
-3.1143855241580773
 21
0.5022664526092286
 31
0.0
  0
LINE
  5
118
100
AcDbEntity
100
AcDbLine
  8
0
 62
256
370
-1
 48
1.0
  6
BYLAYER
 10
0.0390802210319379
 20
0.5506496940305983
 30
0.0
 11
0.0435444182126723
 21
0.5673103047241046
 31
0.0
  0
LINE
  5
119
100
AcDbEntity
100
AcDbLine
  8
0
 62
256
370
-1
 48
1.0
  6
BYLAYER
 10
3.2825281320244422
 20
0.5506496940305947
 30
0.0
 11
3.2869923292051766
 21
0.567310304724101
 31
0.0
  0
LINE
  5
11A
100
AcDbEntity
100
AcDbLine
  8
0
 62
256
370
-1
 48
1.0
  6
BYLAYER
 10
-3.1080157495835792
 20
0.5506496940306016
 30
0.0
 11
-3.1035515524028447
 21
0.5673103047241079
 31
0.0
  0
LINE
  5
11B
100
AcDbEntity
100
AcDbLine
  8
0
 62
256
370
-1
 48
1.0
  6
BYLAYER
 10
0.0622196523254637
 20
0.612396308199699
 30
0.0
 11
0.0708438190264999
 21
0.6273338030988356
 31
0.0
  0
LINE
  5
11C
100
AcDbEntity
100
AcDbLine
  8
0
 62
256
370
-1
 48
1.0
  6
BYLAYER
 10
3.305667563317968
 20
0.6123963081996955
 30
0.0
 11
3.3142917300190042
 21
0.627333803098832
 31
0.0
  0
LINE
  5
11D
100
AcDbEntity
100
AcDbLine
  8
0
 62
256
370
-1
 48
1.0
  6
BYLAYER
 10
-3.0848763182900534
 20
0.6123963081997024
 30
0.0
 11
-3.0762521515890171
 21
0.6273338030988389
 31
0.0
  0
LINE
  5
11E
100
AcDbEntity
100
AcDbLine
  8
0
 62
256
370
-1
 48
1.0
  6
BYLAYER
 10
0.1005518263350815
 20
0.6660500319999318
 30
0.0
 11
0.1127482398478534
 21
0.6782464455127037
 31
0.0
  0
LINE
  5
11F
100
AcDbEntity
100
AcDbLine
  8
0
 62
256
370
-1
 48
1.0
  6
BYLAYER
 10
3.3439997373275858
 20
0.6660500319999283
 30
0.0
 11
3.3561961508403577
 21
0.6782464455127002
 31
0.0
  0
LINE
  5
120
100
AcDbEntity
100
AcDbLine
  8
0
 62
256
370
-1
 48
1.0
  6
BYLAYER
 10
-3.0465441442804355
 20
0.6660500319999352
 30
0.0
 11
-3.0343477307676636
 21
0.6782464455127071
 31
0.0
  0
LINE
  5
121
100
AcDbEntity
100
AcDbLine
  8
0
 62
256
370
-1
 48
1.0
  6
BYLAYER
 10
0.1514644687489497
 20
0.7079544528212853
 30
0.0
 11
0.1664019636480862
 21
0.7165786195223216
 31
0.0
  0
LINE
  5
122
100
AcDbEntity
100
AcDbLine
  8
0
 62
256
370
-1
 48
1.0
  6
BYLAYER
 10
3.3949123797414522
 20
0.7079544528212818
 30
0.0
 11
3.4098498746405888
 21
0.716578619522318
 31
0.0
  0
LINE
  5
123
100
AcDbEntity
100
AcDbLine
  8
0
 62
256
370
-1
 48
1.0
  6
BYLAYER
 10
-2.9956315018665691
 20
0.7079544528212887
 30
0.0
 11
-2.9806940069674326
 21
0.7165786195223249
 31
0.0
  0
LINE
  5
124
100
AcDbEntity
100
AcDbLine
  8
0
 62
256
370
-1
 48
1.0
  6
BYLAYER
 10
0.2114879671236807
 20
0.735253853635113
 30
0.0
 11
0.228148577817187
 21
0.7397180508158474
 31
0.0
  0
LINE
  5
125
100
AcDbEntity
100
AcDbLine
  8
0
 62
256
370
-1
 48
1.0
  6
BYLAYER
 10
3.454935878116185
 20
0.7352538536351094
 30
0.0
 11
3.4715964888096913
 21
0.7397180508158439
 31
0.0
  0
LINE
  5
126
100
AcDbEntity
100
AcDbLine
  8
0
 62
256
370
-1
 48
1.0
  6
BYLAYER
 10
-2.9356080034918364
 20
0.7352538536351163
 30
0.0
 11
-2.91894739279833
 21
0.7397180508158507
 31
0.0
  0
LINE
  5
127
100
AcDbEntity
100
AcDbLine
  8
0
 62
256
370
-1
 48
1.0
  6
BYLAYER
 10
0.27653181923856
 20
0.7460878253903456
 30
0.0
 11
0.2937801526406325
 21
0.7460878253903456
 31
0.0
  0
LINE
  5
128
100
AcDbEntity
100
AcDbLine
  8
0
 62
256
370
-1
 48
1.0
  6
BYLAYER
 10
3.5199797302310643
 20
0.746087825390342
 30
0.0
 11
3.5372280636331368
 21
0.746087825390342
 31
0.0
  0
LINE
  5
129
100
AcDbEntity
100
AcDbLine
  8
0
 62
256
370
-1
 48
1.0
  6
BYLAYER
 10
-2.8705641513769571
 20
0.7460878253903489
 30
0.0
 11
-2.8533158179748845
 21
0.7460878253903489
 31
0.0
  0
LINE
  5
12A
100
AcDbEntity
100
AcDbLine
  8
0
 62
256
370
-1
 48
1.0
  6
BYLAYER
 10
0.3421633940620055
 20
0.7397180508158474
 30
0.0
 11
0.3588240047555118
 21
0.735253853635113
 31
0.0
  0
LINE
  5
12B
100
AcDbEntity
100
AcDbLine
  8
0
 62
256
370
-1
 48
1.0
  6
BYLAYER
 10
3.5856113050545098
 20
0.7397180508158439
 30
0.0
 11
3.6022719157480161
 21
0.7352538536351094
 31
0.0
  0
LINE
  5
12C
100
AcDbEntity
100
AcDbLine
  8
0
 62
256
370
-1
 48
1.0
  6
BYLAYER
 10
-2.8049325765535116
 20
0.7397180508158507
 30
0.0
 11
-2.7882719658600053
 21
0.7352538536351163
 31
0.0
  0
LINE
  5
12D
100
AcDbEntity
100
AcDbLine
  8
0
 62
256
370
-1
 48
1.0
  6
BYLAYER
 10
0.4039100082311062
 20
0.7165786195223216
 30
0.0
 11
0.4188475031302428
 21
0.7079544528212853
 31
0.0
  0
LINE
  5
12E
100
AcDbEntity
100
AcDbLine
  8
0
 62
256
370
-1
 48
1.0
  6
BYLAYER
 10
3.6473579192236123
 20
0.716578619522318
 30
0.0
 11
3.6622954141227488
 21
0.7079544528212818
 31
0.0
  0
LINE
  5
12F
100
AcDbEntity
100
AcDbLine
  8
0
 62
256
370
-1
 48
1.0
  6
BYLAYER
 10
-2.743185962384409
 20
0.7165786195223249
 30
0.0
 11
-2.7282484674852725
 21
0.7079544528212887
 31
0.0
  0
LINE
  5
130
100
AcDbEntity
100
AcDbLine
  8
0
 62
256
370
-1
 48
1.0
  6
BYLAYER
 10
0.4575637320313408
 20
0.6782464455127037
 30
0.0
 11
0.4697601455441109
 21
0.6660500319999318
 31
0.0
  0
LINE
  5
131
100
AcDbEntity
100
AcDbLine
  8
0
 62
256
370
-1
 48
1.0
  6
BYLAYER
 10
3.7010116430238433
 20
0.6782464455127002
 30
0.0
 11
3.7132080565366152
 21
0.6660500319999283
 31
0.0
  0
LINE
  5
132
100
AcDbEntity
100
AcDbLine
  8
0
 62
256
370
-1
 48
1.0
  6
BYLAYER
 10
-2.689532238584178
 20
0.6782464455127071
 30
0.0
 11
-2.6773358250714061
 21
0.6660500319999352
 31
0.0
  0
LINE
  5
133
100
AcDbEntity
100
AcDbLine
  8
0
 62
256
370
-1
 48
1.0
  6
BYLAYER
 10
0.4994681528526943
 20
0.6273338030988356
 30
0.0
 11
0.5080923195537288
 21
0.612396308199699
 31
0.0
  0
LINE
  5
134
100
AcDbEntity
100
AcDbLine
  8
0
 62
256
370
-1
 48
1.0
  6
BYLAYER
 10
3.7429160638451968
 20
0.627333803098832
 30
0.0
 11
3.7515402305462331
 21
0.6123963081996955
 31
0.0
  0
LINE
  5
135
100
AcDbEntity
100
AcDbLine
  8
0
 62
256
370
-1
 48
1.0
  6
BYLAYER
 10
-2.6476278177628245
 20
0.6273338030988389
 30
0.0
 11
-2.6390036510617882
 21
0.6123963081997024
 31
0.0
  0
LINE
  5
136
100
AcDbEntity
100
AcDbLine
  8
0
 62
256
370
-1
 48
1.0
  6
BYLAYER
 10
0.5267675536665202
 20
0.5673103047241046
 30
0.0
 11
0.5312317508472546
 21
0.5506496940305983
 31
0.0
  0
LINE
  5
137
100
AcDbEntity
100
AcDbLine
  8
0
 62
256
370
-1
 48
1.0
  6
BYLAYER
 10
3.7702154646590245
 20
0.567310304724101
 30
0.0
 11
3.7746796618397589
 21
0.5506496940305947
 31
0.0
  0
LINE
  5
138
100
AcDbEntity
100
AcDbLine
  8
0
 62
256
370
-1
 48
1.0
  6
BYLAYER
 10
-2.6203284169489969
 20
0.5673103047241079
 30
0.0
 11
-2.6158642197682624
 21
0.5506496940306016
 31
0.0
  0
LINE
  5
139
100
AcDbEntity
100
AcDbLine
  8
0
 62
256
370
-1
 48
1.0
  6
BYLAYER
 10
0.5376015254217528
 20
0.5022664526092253
 30
0.0
 11
0.5376015254217528
 21
0.4850181192071528
 31
0.0
  0
LINE
  5
13A
100
AcDbEntity
100
AcDbLine
  8
0
 62
256
370
-1
 48
1.0
  6
BYLAYER
 10
3.7810494364142571
 20
0.5022664526092218
 30
0.0
 11
3.7810494364142571
 21
0.4850181192071492
 31
0.0
  0
LINE
  5
13B
100
AcDbEntity
100
AcDbLine
  8
0
 62
256
370
-1
 48
1.0
  6
BYLAYER
 10
-2.6094944451937643
 20
0.5022664526092286
 30
0.0
 11
-2.6094944451937643
 21
0.4850181192071561
 31
0.0
  0
LINE
  5
13C
100
AcDbEntity
100
AcDbLine
  8
0
 62
256
370
-1
 48
1.0
  6
BYLAYER
 10
0.5312317508472546
 20
0.4366348777857798
 30
0.0
 11
0.5267675536665202
 21
0.4199742670922735
 31
0.0
  0
LINE
  5
13D
100
AcDbEntity
100
AcDbLine
  8
0
 62
256
370
-1
 48
1.0
  6
BYLAYER
 10
3.7746796618397589
 20
0.4366348777857763
 30
0.0
 11
3.7702154646590245
 21
0.4199742670922699
 31
0.0
  0
LINE
  5
13E
100
AcDbEntity
100
AcDbLine
  8
0
 62
256
370
-1
 48
1.0
  6
BYLAYER
 10
-2.6158642197682624
 20
0.4366348777857831
 30
0.0
 11
-2.6203284169489969
 21
0.4199742670922768
 31
0.0
  0
LINE
  5
13F
100
AcDbEntity
100
AcDbLine
  8
0
 62
256
370
-1
 48
1.0
  6
BYLAYER
 10
0.5080923195537288
 20
0.374888263616679
 30
0.0
 11
0.4994681528526925
 21
0.3599507687175425
 31
0.0
  0
LINE
  5
140
100
AcDbEntity
100
AcDbLine
  8
0
 62
256
370
-1
 48
1.0
  6
BYLAYER
 10
3.7515402305462331
 20
0.3748882636166755
 30
0.0
 11
3.7429160638451968
 21
0.3599507687175389
 31
0.0
  0
LINE
  5
141
100
AcDbEntity
100
AcDbLine
  8
0
 62
256
370
-1
 48
1.0
  6
BYLAYER
 10
-2.6390036510617882
 20
0.3748882636166824
 30
0.0
 11
-2.6476278177628245
 21
0.3599507687175458
 31
0.0
  0
LINE
  5
142
100
AcDbEntity
100
AcDbLine
  8
0
 62
256
370
-1
 48
1.0
  6
BYLAYER
 10
0.4697601455441109
 20
0.3212345398164445
 30
0.0
 11
0.457563732031339
 21
0.3090381263036743
 31
0.0
  0
LINE
  5
143
100
AcDbEntity
100
AcDbLine
  8
0
 62
256
370
-1
 48
1.0
  6
BYLAYER
 10
3.7132080565366152
 20
0.3212345398164409
 30
0.0
 11
3.7010116430238433
 21
0.3090381263036708
 31
0.0
  0
LINE
  5
144
100
AcDbEntity
100
AcDbLine
  8
0
 62
256
370
-1
 48
1.0
  6
BYLAYER
 10
-2.6773358250714061
 20
0.3212345398164478
 30
0.0
 11
-2.689532238584178
 21
0.3090381263036777
 31
0.0
  0
LINE
  5
145
100
AcDbEntity
100
AcDbLine
  8
0
 62
256
370
-1
 48
1.0
  6
BYLAYER
 10
0.4188475031302428
 20
0.279330118995091
 30
0.0
 11
0.4039100082311062
 21
0.2707059522940565
 31
0.0
  0
LINE
  5
146
100
AcDbEntity
100
AcDbLine
  8
0
 62
256
370
-1
 48
1.0
  6
BYLAYER
 10
3.6622954141227488
 20
0.2793301189950874
 30
0.0
 11
3.6473579192236123
 21
0.2707059522940529
 31
0.0
  0
LINE
  5
147
100
AcDbEntity
100
AcDbLine
  8
0
 62
256
370
-1
 48
1.0
  6
BYLAYER
 10
-2.7282484674852725
 20
0.2793301189950943
 30
0.0
 11
-2.743185962384409
 21
0.2707059522940598
 31
0.0
  0
LINE
  5
148
100
AcDbEntity
100
AcDbLine
  8
0
 62
256
370
-1
 48
1.0
  6
BYLAYER
 10
0.3588240047555118
 20
0.2520307181812651
 30
0.0
 11
0.3421633940620055
 21
0.2475665210005307
 31
0.0
  0
LINE
  5
149
100
AcDbEntity
100
AcDbLine
  8
0
 62
256
370
-1
 48
1.0
  6
BYLAYER
 10
3.6022719157480161
 20
0.2520307181812615
 30
0.0
 11
3.5856113050545098
 21
0.2475665210005271
 31
0.0
  0
LINE
  5
14A
100
AcDbEntity
100
AcDbLine
  8
0
 62
256
370
-1
 48
1.0
  6
BYLAYER
 10
-2.7882719658600053
 20
0.2520307181812684
 30
0.0
 11
-2.8049325765535116
 21
0.247566521000534
 31
0.0
  0
LINE
  5
14B
100
AcDbEntity
100
AcDbLine
  8
0
 62
256
370
-1
 48
1.0
  6
BYLAYER
 10
0.2937801526406325
 20
0.2411967464260325
 30
0.0
 11
0.27653181923856
 21
0.2411967464260325
 31
0.0
  0
LINE
  5
14C
100
AcDbEntity
100
AcDbLine
  8
0
 62
256
370
-1
 48
1.0
  6
BYLAYER
 10
3.5372280636331368
 20
0.241196746426029
 30
0.0
 11
3.5199797302310643
 21
0.241196746426029
 31
0.0
  0
LINE
  5
14D
100
AcDbEntity
100
AcDbLine
  8
0
 62
256
370
-1
 48
1.0
  6
BYLAYER
 10
-2.8533158179748845
 20
0.2411967464260358
 30
0.0
 11
-2.8705641513769571
 21
0.2411967464260358
 31
0.0
  0
LINE
  5
14E
100
AcDbEntity
100
AcDbLine
  8
0
 62
256
370
-1
 48
1.0
  6
BYLAYER
 10
0.228148577817187
 20
0.2475665210005307
 30
0.0
 11
0.2114879671236807
 21
0.2520307181812651
 31
0.0
  0
LINE
  5
14F
100
AcDbEntity
100
AcDbLine
  8
0
 62
256
370
-1
 48
1.0
  6
BYLAYER
 10
3.4715964888096913
 20
0.2475665210005271
 30
0.0
 11
3.454935878116185
 21
0.2520307181812615
 31
0.0
  0
LINE
  5
150
100
AcDbEntity
100
AcDbLine
  8
0
 62
256
370
-1
 48
1.0
  6
BYLAYER
 10
-2.91894739279833
 20
0.247566521000534
 30
0.0
 11
-2.9356080034918364
 21
0.2520307181812684
 31
0.0
  0
LINE
  5
151
100
AcDbEntity
100
AcDbLine
  8
0
 62
256
370
-1
 48
1.0
  6
BYLAYER
 10
0.1664019636480862
 20
0.2707059522940565
 30
0.0
 11
0.1514644687489497
 21
0.279330118995091
 31
0.0
  0
LINE
  5
152
100
AcDbEntity
100
AcDbLine
  8
0
 62
256
370
-1
 48
1.0
  6
BYLAYER
 10
3.4098498746405888
 20
0.2707059522940529
 30
0.0
 11
3.3949123797414522
 21
0.2793301189950874
 31
0.0
  0
LINE
  5
153
100
AcDbEntity
100
AcDbLine
  8
0
 62
256
370
-1
 48
1.0
  6
BYLAYER
 10
-2.9806940069674326
 20
0.2707059522940598
 30
0.0
 11
-2.9956315018665691
 21
0.2793301189950943
 31
0.0
  0
LINE
  5
154
100
AcDbEntity
100
AcDbLine
  8
0
 62
256
370
-1
 48
1.0
  6
BYLAYER
 10
0.1127482398478534
 20
0.3090381263036743
 30
0.0
 11
0.1005518263350815
 21
0.3212345398164445
 31
0.0
  0
LINE
  5
155
100
AcDbEntity
100
AcDbLine
  8
0
 62
256
370
-1
 48
1.0
  6
BYLAYER
 10
3.3561961508403577
 20
0.3090381263036708
 30
0.0
 11
3.3439997373275858
 21
0.3212345398164409
 31
0.0
  0
LINE
  5
156
100
AcDbEntity
100
AcDbLine
  8
0
 62
256
370
-1
 48
1.0
  6
BYLAYER
 10
-3.0343477307676636
 20
0.3090381263036777
 30
0.0
 11
-3.0465441442804355
 21
0.3212345398164478
 31
0.0
  0
LINE
  5
157
100
AcDbEntity
100
AcDbLine
  8
0
 62
256
370
-1
 48
1.0
  6
BYLAYER
 10
0.0708438190264999
 20
0.3599507687175425
 30
0.0
 11
0.0622196523254637
 21
0.374888263616679
 31
0.0
  0
LINE
  5
158
100
AcDbEntity
100
AcDbLine
  8
0
 62
256
370
-1
 48
1.0
  6
BYLAYER
 10
3.3142917300190042
 20
0.3599507687175389
 30
0.0
 11
3.305667563317968
 21
0.3748882636166755
 31
0.0
  0
LINE
  5
159
100
AcDbEntity
100
AcDbLine
  8
0
 62
256
370
-1
 48
1.0
  6
BYLAYER
 10
-3.0762521515890171
 20
0.3599507687175458
 30
0.0
 11
-3.0848763182900534
 21
0.3748882636166824
 31
0.0
  0
LINE
  5
15A
100
AcDbEntity
100
AcDbLine
  8
0
 62
256
370
-1
 48
1.0
  6
BYLAYER
 10
0.0435444182126723
 20
0.4199742670922735
 30
0.0
 11
0.0390802210319379
 21
0.4366348777857798
 31
0.0
  0
LINE
  5
15B
100
AcDbEntity
100
AcDbLine
  8
0
 62
256
370
-1
 48
1.0
  6
BYLAYER
 10
3.2869923292051766
 20
0.4199742670922699
 30
0.0
 11
3.2825281320244422
 21
0.4366348777857763
 31
0.0
  0
LINE
  5
15C
100
AcDbEntity
100
AcDbLine
  8
0
 62
256
370
-1
 48
1.0
  6
BYLAYER
 10
-3.1035515524028447
 20
0.4199742670922768
 30
0.0
 11
-3.1080157495835792
 21
0.4366348777857831
 31
0.0
  0
LINE
  5
15D
100
AcDbEntity
100
AcDbLine
  8
0
 62
256
370
-1
 48
1.0
  6
BYLAYER
 10
0.0873840076708223
 20
0.5737262122094648
 30
0.0
 11
0.0886821916253933
 21
0.5768603055190429
 31
0.0
  0
LINE
  5
15E
100
AcDbEntity
100
AcDbLine
  8
0
 62
256
370
-1
 48
1.0
  6
BYLAYER
 10
3.3308319186633248
 20
0.5737262122094613
 30
0.0
 11
3.3321301026178993
 21
0.5768603055190393
 31
0.0
  0
LINE
  5
15F
100
AcDbEntity
100
AcDbLine
  8
0
 62
256
370
-1
 48
1.0
  6
BYLAYER
 10
-3.0597119629446965
 20
0.5737262122094682
 30
0.0
 11
-3.058413778990122
 21
0.5768603055190462
 31
0.0
  0
LINE
  5
160
100
AcDbEntity
100
AcDbLine
  8
0
 62
256
370
-1
 48
1.0
  6
BYLAYER
 10
0.1148501697468642
 20
0.6221845731567832
 30
0.0
 11
0.1169152821935047
 21
0.6248758800950149
 31
0.0
  0
LINE
  5
161
100
AcDbEntity
100
AcDbLine
  8
0
 62
256
370
-1
 48
1.0
  6
BYLAYER
 10
3.3582980807393703
 20
0.6221845731567797
 30
0.0
 11
3.3603631931860072
 21
0.6248758800950114
 31
0.0
  0
LINE
  5
162
100
AcDbEntity
100
AcDbLine
  8
0
 62
256
370
-1
 48
1.0
  6
BYLAYER
 10
-3.032245800868651
 20
0.6221845731567865
 30
0.0
 11
-3.0301806884220142
 21
0.6248758800950183
 31
0.0
  0
LINE
  5
163
100
AcDbEntity
100
AcDbLine
  8
0
 62
256
370
-1
 48
1.0
  6
BYLAYER
 10
0.1539223917527721
 20
0.6618829896542824
 30
0.0
 11
0.1566136986910056
 21
0.6639481021009228
 31
0.0
  0
LINE
  5
164
100
AcDbEntity
100
AcDbLine
  8
0
 62
256
370
-1
 48
1.0
  6
BYLAYER
 10
3.3973703027452764
 20
0.6618829896542788
 30
0.0
 11
3.4000616096835081
 21
0.6639481021009193
 31
0.0
  0
LINE
  5
165
100
AcDbEntity
100
AcDbLine
  8
0
 62
256
370
-1
 48
1.0
  6
BYLAYER
 10
-2.9931735788627449
 20
0.6618829896542857
 30
0.0
 11
-2.9904822719245132
 21
0.6639481021009261
 31
0.0
  0
LINE
  5
166
100
AcDbEntity
100
AcDbLine
  8
0
 62
256
370
-1
 48
1.0
  6
BYLAYER
 10
0.2019379663287442
 20
0.6901160802223956
 30
0.0
 11
0.2050720596383222
 21
0.6914142641769647
 31
0.0
  0
LINE
  5
167
100
AcDbEntity
100
AcDbLine
  8
0
 62
256
370
-1
 48
1.0
  6
BYLAYER
 10
3.4453858773212467
 20
0.690116080222392
 30
0.0
 11
3.4485199706308265
 21
0.6914142641769612
 31
0.0
  0
LINE
  5
168
100
AcDbEntity
100
AcDbLine
  8
0
 62
256
370
-1
 48
1.0
  6
BYLAYER
 10
-2.9451580042867747
 20
0.6901160802223989
 30
0.0
 11
-2.9420239109771948
 21
0.6914142641769681
 31
0.0
  0
LINE
  5
169
100
AcDbEntity
100
AcDbLine
  8
0
 62
256
370
-1
 48
1.0
  6
BYLAYER
 10
0.2556247114169174
 20
0.7049598063962925
 30
0.0
 11
0.258988007818127
 21
0.7054025927676371
 31
0.0
  0
LINE
  5
16A
100
AcDbEntity
100
AcDbLine
  8
0
 62
256
370
-1
 48
1.0
  6
BYLAYER
 10
3.4990726224094217
 20
0.704959806396289
 30
0.0
 11
3.5024359188106295
 21
0.7054025927676335
 31
0.0
  0
LINE
  5
16B
100
AcDbEntity
100
AcDbLine
  8
0
 62
256
370
-1
 48
1.0
  6
BYLAYER
 10
-2.8914712591985996
 20
0.7049598063962959
 30
0.0
 11
-2.8881079627973918
 21
0.7054025927676404
 31
0.0
  0
LINE
  5
16C
100
AcDbEntity
100
AcDbLine
  8
0
 62
256
370
-1
 48
1.0
  6
BYLAYER
 10
0.3113239640610708
 20
0.7054025927676388
 30
0.0
 11
0.3146872604622821
 21
0.7049598063962925
 31
0.0
  0
LINE
  5
16D
100
AcDbEntity
100
AcDbLine
  8
0
 62
256
370
-1
 48
1.0
  6
BYLAYER
 10
3.5547718750535751
 20
0.7054025927676353
 30
0.0
 11
3.5581351714547864
 21
0.704959806396289
 31
0.0
  0
LINE
  5
16E
100
AcDbEntity
100
AcDbLine
  8
0
 62
256
370
-1
 48
1.0
  6
BYLAYER
 10
-2.8357720065544463
 20
0.7054025927676422
 30
0.0
 11
-2.8324087101532349
 21
0.7049598063962959
 31
0.0
  0
LINE
  5
16F
100
AcDbEntity
100
AcDbLine
  8
0
 62
256
370
-1
 48
1.0
  6
BYLAYER
 10
0.3652399122408756
 20
0.6914142641769665
 30
0.0
 11
0.3683740055504536
 21
0.6901160802223956
 31
0.0
  0
LINE
  5
170
100
AcDbEntity
100
AcDbLine
  8
0
 62
256
370
-1
 48
1.0
  6
BYLAYER
 10
3.6086878232333781
 20
0.6914142641769629
 30
0.0
 11
3.6118219165429579
 21
0.690116080222392
 31
0.0
  0
LINE
  5
171
100
AcDbEntity
100
AcDbLine
  8
0
 62
256
370
-1
 48
1.0
  6
BYLAYER
 10
-2.7818560583746432
 20
0.6914142641769698
 30
0.0
 11
-2.7787219650650634
 21
0.6901160802223989
 31
0.0
  0
LINE
  5
172
100
AcDbEntity
100
AcDbLine
  8
0
 62
256
370
-1
 48
1.0
  6
BYLAYER
 10
0.413698273188194
 20
0.6639481021009246
 30
0.0
 11
0.4163895801264257
 21
0.6618829896542842
 31
0.0
  0
LINE
  5
173
100
AcDbEntity
100
AcDbLine
  8
0
 62
256
370
-1
 48
1.0
  6
BYLAYER
 10
3.6571461841807
 20
0.663948102100921
 30
0.0
 11
3.6598374911189318
 21
0.6618829896542806
 31
0.0
  0
LINE
  5
174
100
AcDbEntity
100
AcDbLine
  8
0
 62
256
370
-1
 48
1.0
  6
BYLAYER
 10
-2.7333976974273213
 20
0.6639481021009279
 30
0.0
 11
-2.7307063904890896
 21
0.6618829896542875
 31
0.0
  0
LINE
  5
175
100
AcDbEntity
100
AcDbLine
  8
0
 62
256
370
-1
 48
1.0
  6
BYLAYER
 10
0.4533966896856949
 20
0.6248758800950149
 30
0.0
 11
0.4554618021323353
 21
0.6221845731567832
 31
0.0
  0
LINE
  5
176
100
AcDbEntity
100
AcDbLine
  8
0
 62
256
370
-1
 48
1.0
  6
BYLAYER
 10
3.696844600678201
 20
0.6248758800950114
 30
0.0
 11
3.6989097131248379
 21
0.6221845731567797
 31
0.0
  0
LINE
  5
177
100
AcDbEntity
100
AcDbLine
  8
0
 62
256
370
-1
 48
1.0
  6
BYLAYER
 10
-2.6936992809298204
 20
0.6248758800950183
 30
0.0
 11
-2.6916341684831835
 21
0.6221845731567865
 31
0.0
  0
LINE
  5
178
100
AcDbEntity
100
AcDbLine
  8
0
 62
256
370
-1
 48
1.0
  6
BYLAYER
 10
0.4816297802538063
 20
0.5768603055190429
 30
0.0
 11
0.4829279642083772
 21
0.5737262122094648
 31
0.0
  0
LINE
  5
179
100
AcDbEntity
100
AcDbLine
  8
0
 62
256
370
-1
 48
1.0
  6
BYLAYER
 10
3.7250776912463088
 20
0.5768603055190393
 30
0.0
 11
3.7263758752008833
 21
0.5737262122094613
 31
0.0
  0
LINE
  5
17A
100
AcDbEntity
100
AcDbLine
  8
0
 62
256
370
-1
 48
1.0
  6
BYLAYER
 10
-2.6654661903617125
 20
0.5768603055190462
 30
0.0
 11
-2.664168006407138
 21
0.5737262122094682
 31
0.0
  0
LINE
  5
17B
100
AcDbEntity
100
AcDbLine
  8
0
 62
256
370
-1
 48
1.0
  6
BYLAYER
 10
0.4964735064277033
 20
0.5231735604308714
 30
0.0
 11
0.4969162927990496
 21
0.51981026402966
 31
0.0
  0
LINE
  5
17C
100
AcDbEntity
100
AcDbLine
  8
0
 62
256
370
-1
 48
1.0
  6
BYLAYER
 10
3.7399214174202093
 20
0.5231735604308678
 30
0.0
 11
3.7403642037915539
 21
0.5198102640296565
 31
0.0
  0
LINE
  5
17D
100
AcDbEntity
100
AcDbLine
  8
0
 62
256
370
-1
 48
1.0
  6
BYLAYER
 10
-2.650622464187812
 20
0.5231735604308747
 30
0.0
 11
-2.6501796778164675
 21
0.5198102640296633
 31
0.0
  0
LINE
  5
17E
100
AcDbEntity
100
AcDbLine
  8
0
 62
256
370
-1
 48
1.0
  6
BYLAYER
 10
0.4969162927990496
 20
0.4674743077867163
 30
0.0
 11
0.4964735064277033
 21
0.4641110113855067
 31
0.0
  0
LINE
  5
17F
100
AcDbEntity
100
AcDbLine
  8
0
 62
256
370
-1
 48
1.0
  6
BYLAYER
 10
3.7403642037915539
 20
0.4674743077867127
 30
0.0
 11
3.7399214174202093
 21
0.4641110113855031
 31
0.0
  0
LINE
  5
180
100
AcDbEntity
100
AcDbLine
  8
0
 62
256
370
-1
 48
1.0
  6
BYLAYER
 10
-2.6501796778164675
 20
0.4674743077867196
 30
0.0
 11
-2.650622464187812
 21
0.46411101138551
 31
0.0
  0
LINE
  5
181
100
AcDbEntity
100
AcDbLine
  8
0
 62
256
370
-1
 48
1.0
  6
BYLAYER
 10
0.4829279642083772
 20
0.4135583596069132
 30
0.0
 11
0.4816297802538081
 21
0.4104242662973352
 31
0.0
  0
LINE
  5
182
100
AcDbEntity
100
AcDbLine
  8
0
 62
256
370
-1
 48
1.0
  6
BYLAYER
 10
3.7263758752008833
 20
0.4135583596069097
 30
0.0
 11
3.7250776912463124
 21
0.4104242662973316
 31
0.0
  0
LINE
  5
183
100
AcDbEntity
100
AcDbLine
  8
0
 62
256
370
-1
 48
1.0
  6
BYLAYER
 10
-2.664168006407138
 20
0.4135583596069166
 30
0.0
 11
-2.665466190361709
 21
0.4104242662973385
 31
0.0
  0
LINE
  5
184
100
AcDbEntity
100
AcDbLine
  8
0
 62
256
370
-1
 48
1.0
  6
BYLAYER
 10
0.4554618021323353
 20
0.3650999986595949
 30
0.0
 11
0.4533966896856949
 21
0.3624086917213614
 31
0.0
  0
LINE
  5
185
100
AcDbEntity
100
AcDbLine
  8
0
 62
256
370
-1
 48
1.0
  6
BYLAYER
 10
3.6989097131248379
 20
0.3650999986595913
 30
0.0
 11
3.696844600678201
 21
0.3624086917213578
 31
0.0
  0
LINE
  5
186
100
AcDbEntity
100
AcDbLine
  8
0
 62
256
370
-1
 48
1.0
  6
BYLAYER
 10
-2.6916341684831835
 20
0.3650999986595982
 30
0.0
 11
-2.6936992809298204
 21
0.3624086917213647
 31
0.0
  0
LINE
  5
187
100
AcDbEntity
100
AcDbLine
  8
0
 62
256
370
-1
 48
1.0
  6
BYLAYER
 10
0.4163895801264275
 20
0.3254015821620939
 30
0.0
 11
0.4136982731881957
 21
0.3233364697154535
 31
0.0
  0
LINE
  5
188
100
AcDbEntity
100
AcDbLine
  8
0
 62
256
370
-1
 48
1.0
  6
BYLAYER
 10
3.6598374911189318
 20
0.3254015821620904
 30
0.0
 11
3.6571461841807
 21
0.3233364697154499
 31
0.0
  0
LINE
  5
189
100
AcDbEntity
100
AcDbLine
  8
0
 62
256
370
-1
 48
1.0
  6
BYLAYER
 10
-2.7307063904890896
 20
0.3254015821620972
 30
0.0
 11
-2.7333976974273213
 21
0.3233364697154568
 31
0.0
  0
LINE
  5
18A
100
AcDbEntity
100
AcDbLine
  8
0
 62
256
370
-1
 48
1.0
  6
BYLAYER
 10
0.3683740055504554
 20
0.2971684915939807
 30
0.0
 11
0.3652399122408774
 21
0.2958703076394116
 31
0.0
  0
LINE
  5
18B
100
AcDbEntity
100
AcDbLine
  8
0
 62
256
370
-1
 48
1.0
  6
BYLAYER
 10
3.6118219165429615
 20
0.2971684915939772
 30
0.0
 11
3.6086878232333817
 21
0.295870307639408
 31
0.0
  0
LINE
  5
18C
100
AcDbEntity
100
AcDbLine
  8
0
 62
256
370
-1
 48
1.0
  6
BYLAYER
 10
-2.7787219650650599
 20
0.2971684915939841
 30
0.0
 11
-2.7818560583746397
 21
0.2958703076394149
 31
0.0
  0
LINE
  5
18D
100
AcDbEntity
100
AcDbLine
  8
0
 62
256
370
-1
 48
1.0
  6
BYLAYER
 10
0.3146872604622821
 20
0.2823247654200856
 30
0.0
 11
0.3113239640610725
 21
0.2818819790487392
 31
0.0
  0
LINE
  5
18E
100
AcDbEntity
100
AcDbLine
  8
0
 62
256
370
-1
 48
1.0
  6
BYLAYER
 10
3.5581351714547864
 20
0.282324765420082
 30
0.0
 11
3.5547718750535786
 21
0.2818819790487357
 31
0.0
  0
LINE
  5
18F
100
AcDbEntity
100
AcDbLine
  8
0
 62
256
370
-1
 48
1.0
  6
BYLAYER
 10
-2.8324087101532349
 20
0.2823247654200889
 30
0.0
 11
-2.8357720065544427
 21
0.2818819790487426
 31
0.0
  0
LINE
  5
190
100
AcDbEntity
100
AcDbLine
  8
0
 62
256
370
-1
 48
1.0
  6
BYLAYER
 10
0.2589880078181288
 20
0.2818819790487392
 30
0.0
 11
0.2556247114169174
 21
0.2823247654200856
 31
0.0
  0
LINE
  5
191
100
AcDbEntity
100
AcDbLine
  8
0
 62
256
370
-1
 48
1.0
  6
BYLAYER
 10
3.5024359188106331
 20
0.2818819790487357
 30
0.0
 11
3.4990726224094217
 21
0.282324765420082
 31
0.0
  0
LINE
  5
192
100
AcDbEntity
100
AcDbLine
  8
0
 62
256
370
-1
 48
1.0
  6
BYLAYER
 10
-2.8881079627973882
 20
0.2818819790487426
 30
0.0
 11
-2.8914712591985996
 21
0.2823247654200889
 31
0.0
  0
LINE
  5
193
100
AcDbEntity
100
AcDbLine
  8
0
 62
256
370
-1
 48
1.0
  6
BYLAYER
 10
0.205072059638324
 20
0.2958703076394098
 30
0.0
 11
0.2019379663287459
 21
0.2971684915939807
 31
0.0
  0
LINE
  5
194
100
AcDbEntity
100
AcDbLine
  8
0
 62
256
370
-1
 48
1.0
  6
BYLAYER
 10
3.44851997063083
 20
0.2958703076394062
 30
0.0
 11
3.4453858773212502
 21
0.2971684915939772
 31
0.0
  0
LINE
  5
195
100
AcDbEntity
100
AcDbLine
  8
0
 62
256
370
-1
 48
1.0
  6
BYLAYER
 10
-2.9420239109771913
 20
0.2958703076394131
 30
0.0
 11
-2.9451580042867711
 21
0.2971684915939841
 31
0.0
  0
LINE
  5
196
100
AcDbEntity
100
AcDbLine
  8
0
 62
256
370
-1
 48
1.0
  6
BYLAYER
 10
0.1566136986910056
 20
0.3233364697154535
 30
0.0
 11
0.1539223917527739
 21
0.3254015821620939
 31
0.0
  0
LINE
  5
197
100
AcDbEntity
100
AcDbLine
  8
0
 62
256
370
-1
 48
1.0
  6
BYLAYER
 10
3.4000616096835081
 20
0.3233364697154499
 30
0.0
 11
3.3973703027452764
 21
0.3254015821620904
 31
0.0
  0
LINE
  5
198
100
AcDbEntity
100
AcDbLine
  8
0
 62
256
370
-1
 48
1.0
  6
BYLAYER
 10
-2.9904822719245132
 20
0.3233364697154568
 30
0.0
 11
-2.9931735788627449
 21
0.3254015821620972
 31
0.0
  0
LINE
  5
199
100
AcDbEntity
100
AcDbLine
  8
0
 62
256
370
-1
 48
1.0
  6
BYLAYER
 10
0.1169152821935047
 20
0.3624086917213614
 30
0.0
 11
0.1148501697468642
 21
0.3650999986595931
 31
0.0
  0
LINE
  5
19A
100
AcDbEntity
100
AcDbLine
  8
0
 62
256
370
-1
 48
1.0
  6
BYLAYER
 10
3.3603631931860072
 20
0.3624086917213578
 30
0.0
 11
3.3582980807393703
 21
0.3650999986595895
 31
0.0
  0
LINE
  5
19B
100
AcDbEntity
100
AcDbLine
  8
0
 62
256
370
-1
 48
1.0
  6
BYLAYER
 10
-3.0301806884220142
 20
0.3624086917213647
 30
0.0
 11
-3.032245800868651
 21
0.3650999986595964
 31
0.0
  0
LINE
  5
19C
100
AcDbEntity
100
AcDbLine
  8
0
 62
256
370
-1
 48
1.0
  6
BYLAYER
 10
0.0886821916253933
 20
0.4104242662973334
 30
0.0
 11
0.0873840076708223
 21
0.4135583596069115
 31
0.0
  0
LINE
  5
19D
100
AcDbEntity
100
AcDbLine
  8
0
 62
256
370
-1
 48
1.0
  6
BYLAYER
 10
3.3321301026178993
 20
0.4104242662973299
 30
0.0
 11
3.3308319186633248
 21
0.4135583596069079
 31
0.0
  0
LINE
  5
19E
100
AcDbEntity
100
AcDbLine
  8
0
 62
256
370
-1
 48
1.0
  6
BYLAYER
 10
-3.058413778990122
 20
0.4104242662973367
 30
0.0
 11
-3.0597119629446965
 21
0.4135583596069148
 31
0.0
  0
LINE
  5
19F
100
AcDbEntity
100
AcDbLine
  8
0
 62
256
370
-1
 48
1.0
  6
BYLAYER
 10
0.0738384654514963
 20
0.4641110113855049
 30
0.0
 11
0.07339567908015
 21
0.4674743077867163
 31
0.0
  0
LINE
  5
1A0
100
AcDbEntity
100
AcDbLine
  8
0
 62
256
370
-1
 48
1.0
  6
BYLAYER
 10
3.3172863764439988
 20
0.4641110113855014
 30
0.0
 11
3.3168435900726543
 21
0.4674743077867127
 31
0.0
  0
LINE
  5
1A1
100
AcDbEntity
100
AcDbLine
  8
0
 62
256
370
-1
 48
1.0
  6
BYLAYER
 10
-3.0732575051640225
 20
0.4641110113855083
 30
0.0
 11
-3.0737002915353671
 21
0.4674743077867196
 31
0.0
  0
LINE
  5
1A2
100
AcDbEntity
100
AcDbLine
  8
0
 62
256
370
-1
 48
1.0
  6
BYLAYER
 10
0.07339567908015
 20
0.51981026402966
 30
0.0
 11
0.0738384654514963
 21
0.5231735604308696
 31
0.0
  0
LINE
  5
1A3
100
AcDbEntity
100
AcDbLine
  8
0
 62
256
370
-1
 48
1.0
  6
BYLAYER
 10
3.3168435900726543
 20
0.5198102640296565
 30
0.0
 11
3.3172863764439988
 21
0.523173560430866
 31
0.0
  0
LINE
  5
1A4
100
AcDbEntity
100
AcDbLine
  8
0
 62
256
370
-1
 48
1.0
  6
BYLAYER
 10
-3.0737002915353671
 20
0.5198102640296633
 30
0.0
 11
-3.0732575051640225
 21
0.5231735604308729
 31
0.0
  0
LINE
  5
1A5
100
AcDbEntity
100
AcDbLine
  8
0
 62
256
370
-1
 48
1.0
  6
BYLAYER
 10
-1.1862401171282961
 20
1.1835878253903456
 30
0.0
 11
1.7565520890074922
 21
1.1835878253903456
 31
0.0
  0
LINE
  5
1A6
100
AcDbEntity
100
AcDbLine
  8
0
 62
256
370
-1
 48
1.0
  6
BYLAYER
 10
2.0572077938642082
 20
1.183587825390342
 30
0.0
 11
4.9999999999999964
 21
1.183587825390342
 31
0.0
  0
LINE
  5
1A7
100
AcDbEntity
100
AcDbLine
  8
0
 62
256
370
-1
 48
1.0
  6
BYLAYER
 10
-4.3333360877438132
 20
1.1835878253903489
 30
0.0
 11
-1.3905438816080249
 21
1.1835878253903489
 31
0.0
  0
LINE
  5
1A8
100
AcDbEntity
100
AcDbLine
  8
0
 62
256
370
-1
 48
1.0
  6
BYLAYER
 10
1.7565520890074922
 20
0.7460878253903456
 30
0.0
 11
-1.1862401171282961
 21
0.7460878253903456
 31
0.0
  0
LINE
  5
1A9
100
AcDbEntity
100
AcDbLine
  8
0
 62
256
370
-1
 48
1.0
  6
BYLAYER
 10
4.9999999999999964
 20
0.746087825390342
 30
0.0
 11
2.0572077938642082
 21
0.746087825390342
 31
0.0
  0
LINE
  5
1AA
100
AcDbEntity
100
AcDbLine
  8
0
 62
256
370
-1
 48
1.0
  6
BYLAYER
 10
-1.3905438816080249
 20
0.7460878253903489
 30
0.0
 11
-4.3333360877438132
 21
0.7460878253903489
 31
0.0
  0
LINE
  5
1AB
100
AcDbEntity
100
AcDbLine
  8
0
 62
256
370
-1
 48
1.0
  6
BYLAYER
 10
-0.7771637084842915
 20
2.0
 30
0.0
 11
-1.1862401171282961
 21
2.0000000000000018
 31
0.0
  0
LINE
  5
1AC
100
AcDbEntity
100
AcDbLine
  8
0
 62
256
370
-1
 48
1.0
  6
BYLAYER
 10
1.3474756765710616
 20
1.9999999999999982
 30
0.0
 11
1.7565520890074922
 21
2.0000000000000018
 31
0.0
  0
LINE
  5
1AD
100
AcDbEntity
100
AcDbLine
  8
0
 62
256
370
-1
 48
1.0
  6
BYLAYER
 10
4.659173587563572
 20
1.8936038969321149
 30
0.0
 11
4.659173587563572
 21
1.8006038969321114
 31
0.0
  0
LINE
  5
1AE
100
AcDbEntity
100
AcDbLine
  8
0
 62
256
370
-1
 48
1.0
  6
BYLAYER
 10
2.6460342025082149
 20
1.8936038969321149
 30
0.0
 11
2.6460342025082149
 21
1.8006038969321114
 31
0.0
  0
LINE
  5
1AF
100
AcDbEntity
100
AcDbLine
  8
0
 62
256
370
-1
 48
1.0
  6
BYLAYER
 10
1.4157256765710677
 20
1.8936038969321132
 30
0.0
 11
1.4157256765710677
 21
1.8006038969321096
 31
0.0
  0
LINE
  5
1B0
100
AcDbEntity
100
AcDbLine
  8
0
 62
256
370
-1
 48
1.0
  6
BYLAYER
 10
-0.5974137084842912
 20
1.8936038969321132
 30
0.0
 11
-0.5974137084842912
 21
1.8006038969321096
 31
0.0
  0
LINE
  5
1B1
100
AcDbEntity
100
AcDbLine
  8
0
 62
256
370
-1
 48
1.0
  6
BYLAYER
 10
4.7100520890074975
 20
-0.2276300315261217
 30
0.0
 11
4.8030520890074939
 21
-0.2276300315261217
 31
0.0
  0
LINE
  5
1B2
100
AcDbEntity
100
AcDbLine
  8
0
 62
256
370
-1
 48
1.0
  6
BYLAYER
 10
4.7100520890074939
 20
0.7956038969321106
 30
0.0
 11
4.8030520890074939
 21
0.7956038969321106
 31
0.0
  0
LINE
  5
1B3
100
AcDbEntity
100
AcDbLine
  8
0
 62
256
370
-1
 48
1.0
  6
BYLAYER
 10
2.3471557048567142
 20
-0.2276300315261217
 30
0.0
 11
2.2541557048567107
 21
-0.2276300315261217
 31
0.0
  0
LINE
  5
1B4
100
AcDbEntity
100
AcDbLine
  8
0
 62
256
370
-1
 48
1.0
  6
BYLAYER
 10
2.3471557048567142
 20
0.7956038969321106
 30
0.0
 11
2.2541557048567142
 21
0.7956038969321106
 31
0.0
  0
LINE
  5
1B5
100
AcDbEntity
100
AcDbLine
  8
0
 62
256
370
-1
 48
1.0
  6
BYLAYER
 10
-1.7313702940444493
 20
1.8936038969321218
 30
0.0
 11
-1.7313702940444493
 21
1.8006038969321183
 31
0.0
  0
LINE
  5
1B6
100
AcDbEntity
100
AcDbLine
  8
0
 62
256
370
-1
 48
1.0
  6
BYLAYER
 10
-3.7445096790998065
 20
1.8936038969321218
 30
0.0
 11
-3.7445096790998065
 21
1.8006038969321183
 31
0.0
  0
LINE
  5
1B7
100
AcDbEntity
100
AcDbLine
  8
0
 62
256
370
-1
 48
1.0
  6
BYLAYER
 10
-1.6804917926005238
 20
-0.2276300315261148
 30
0.0
 11
-1.5874917926005274
 21
-0.2276300315261148
 31
0.0
  0
LINE
  5
1B8
100
AcDbEntity
100
AcDbLine
  8
0
 62
256
370
-1
 48
1.0
  6
BYLAYER
 10
-1.6804917926005274
 20
0.7956038969321175
 30
0.0
 11
-1.5874917926005274
 21
0.7956038969321175
 31
0.0
  0
LINE
  5
1B9
100
AcDbEntity
100
AcDbLine
  8
0
 62
256
370
-1
 48
1.0
  6
BYLAYER
 10
-4.0433881767513071
 20
-0.2276300315261148
 30
0.0
 11
-4.1363881767513107
 21
-0.2276300315261148
 31
0.0
  0
LINE
  5
1BA
100
AcDbEntity
100
AcDbLine
  8
0
 62
256
370
-1
 48
1.0
  6
BYLAYER
 10
-4.0433881767513071
 20
0.7956038969321175
 30
0.0
 11
-4.1363881767513071
 21
0.7956038969321175
 31
0.0
  0
LINE
  5
1BB
100
AcDbEntity
100
AcDbLine
  8
0
 62
256
370
-1
 48
1.0
  6
BYLAYER
 10
1.4666041780149932
 20
-0.2276300315261182
 30
0.0
 11
1.5596041780149896
 21
-0.2276300315261182
 31
0.0
  0
LINE
  5
1BC
100
AcDbEntity
100
AcDbLine
  8
0
 62
256
370
-1
 48
1.0
  6
BYLAYER
 10
1.4666041780149897
 20
0.7956038969321142
 30
0.0
 11
1.5596041780149896
 21
0.7956038969321142
 31
0.0
  0
LINE
  5
1BD
100
AcDbEntity
100
AcDbLine
  8
0
 62
256
370
-1
 48
1.0
  6
BYLAYER
 10
-0.8962922061357919
 20
-0.2276300315261182
 30
0.0
 11
-0.9892922061357918
 21
-0.2276300315261182
 31
0.0
  0
LINE
  5
1BE
100
AcDbEntity
100
AcDbLine
  8
0
 62
256
370
-1
 48
1.0
  6
BYLAYER
 10
-0.8962922061357901
 20
0.7956038969321142
 30
0.0
 11
-0.9892922061357901
 21
0.7956038969321142
 31
0.0
  0
LINE
  5
1BF
100
AcDbEntity
100
AcDbLine
  8
0
 62
256
370
-1
 48
1.0
  6
BYLAYER
 10
4.4111735875635674
 20
1.8006038969321114
 30
0.0
 11
4.4111735875635674
 21
1.8936038969321114
 31
0.0
  0
LINE
  5
1C0
100
AcDbEntity
100
AcDbLine
  8
0
 62
256
370
-1
 48
1.0
  6
BYLAYER
 10
2.3980342025082102
 20
1.8006038969321114
 30
0.0
 11
2.3980342025082102
 21
1.8936038969321114
 31
0.0
  0
LINE
  5
1C1
100
AcDbEntity
100
AcDbLine
  8
0
 62
256
370
-1
 48
1.0
  6
BYLAYER
 10
1.1677256765710631
 20
1.8006038969321096
 30
0.0
 11
1.1677256765710631
 21
1.8936038969321096
 31
0.0
  0
LINE
  5
1C2
100
AcDbEntity
100
AcDbLine
  8
0
 62
256
370
-1
 48
1.0
  6
BYLAYER
 10
-0.8454137084842923
 20
1.8006038969321096
 30
0.0
 11
-0.8454137084842923
 21
1.8936038969321096
 31
0.0
  0
LINE
  5
1C3
100
AcDbEntity
100
AcDbLine
  8
0
 62
256
370
-1
 48
1.0
  6
BYLAYER
 10
4.8030520890074939
 20
0.0203699684738794
 30
0.0
 11
4.7100520890074975
 21
0.0203699684738794
 31
0.0
  0
LINE
  5
1C4
100
AcDbEntity
100
AcDbLine
  8
0
 62
256
370
-1
 48
1.0
  6
BYLAYER
 10
4.8030520890074939
 20
1.0436038969321118
 30
0.0
 11
4.7100520890074939
 21
1.0436038969321118
 31
0.0
  0
LINE
  5
1C5
100
AcDbEntity
100
AcDbLine
  8
0
 62
256
370
-1
 48
1.0
  6
BYLAYER
 10
2.2541557048567107
 20
0.0203699684738794
 30
0.0
 11
2.3471557048567142
 21
0.0203699684738794
 31
0.0
  0
LINE
  5
1C6
100
AcDbEntity
100
AcDbLine
  8
0
 62
256
370
-1
 48
1.0
  6
BYLAYER
 10
2.2541557048567142
 20
1.0436038969321118
 30
0.0
 11
2.3471557048567142
 21
1.0436038969321118
 31
0.0
  0
LINE
  5
1C7
100
AcDbEntity
100
AcDbLine
  8
0
 62
256
370
-1
 48
1.0
  6
BYLAYER
 10
-1.979370294044454
 20
1.8006038969321183
 30
0.0
 11
-1.979370294044454
 21
1.8936038969321183
 31
0.0
  0
LINE
  5
1C8
100
AcDbEntity
100
AcDbLine
  8
0
 62
256
370
-1
 48
1.0
  6
BYLAYER
 10
-3.9925096790998111
 20
1.8006038969321183
 30
0.0
 11
-3.9925096790998111
 21
1.8936038969321183
 31
0.0
  0
LINE
  5
1C9
100
AcDbEntity
100
AcDbLine
  8
0
 62
256
370
-1
 48
1.0
  6
BYLAYER
 10
-1.5874917926005274
 20
0.0203699684738863
 30
0.0
 11
-1.6804917926005238
 21
0.0203699684738863
 31
0.0
  0
LINE
  5
1CA
100
AcDbEntity
100
AcDbLine
  8
0
 62
256
370
-1
 48
1.0
  6
BYLAYER
 10
-1.5874917926005274
 20
1.0436038969321186
 30
0.0
 11
-1.6804917926005274
 21
1.0436038969321186
 31
0.0
  0
LINE
  5
1CB
100
AcDbEntity
100
AcDbLine
  8
0
 62
256
370
-1
 48
1.0
  6
BYLAYER
 10
-4.1363881767513107
 20
0.0203699684738863
 30
0.0
 11
-4.0433881767513071
 21
0.0203699684738863
 31
0.0
  0
LINE
  5
1CC
100
AcDbEntity
100
AcDbLine
  8
0
 62
256
370
-1
 48
1.0
  6
BYLAYER
 10
-4.1363881767513071
 20
1.0436038969321186
 30
0.0
 11
-4.0433881767513071
 21
1.0436038969321186
 31
0.0
  0
LINE
  5
1CD
100
AcDbEntity
100
AcDbLine
  8
0
 62
256
370
-1
 48
1.0
  6
BYLAYER
 10
1.5596041780149896
 20
0.0203699684738829
 30
0.0
 11
1.4666041780149932
 21
0.0203699684738829
 31
0.0
  0
LINE
  5
1CE
100
AcDbEntity
100
AcDbLine
  8
0
 62
256
370
-1
 48
1.0
  6
BYLAYER
 10
1.5596041780149896
 20
1.0436038969321153
 30
0.0
 11
1.4666041780149897
 21
1.0436038969321153
 31
0.0
  0
LINE
  5
1CF
100
AcDbEntity
100
AcDbLine
  8
0
 62
256
370
-1
 48
1.0
  6
BYLAYER
 10
-0.9892922061357918
 20
0.0203699684738829
 30
0.0
 11
-0.8962922061357919
 21
0.0203699684738829
 31
0.0
  0
LINE
  5
1D0
100
AcDbEntity
100
AcDbLine
  8
0
 62
256
370
-1
 48
1.0
  6
BYLAYER
 10
-0.9892922061357901
 20
1.0436038969321153
 30
0.0
 11
-0.8962922061357901
 21
1.0436038969321153
 31
0.0
  0
LINE
  5
1D1
100
AcDbEntity
100
AcDbLine
  8
0
 62
256
370
-1
 48
1.0
  6
BYLAYER
 10
1.3474756765710616
 20
2.0
 30
0.0
 11
1.3474756765710616
 21
1.8936038969321096
 31
0.0
  0
LINE
  5
1D2
100
AcDbEntity
100
AcDbLine
  8
0
 62
256
370
-1
 48
1.0
  6
BYLAYER
 10
-0.6656637084842938
 20
2.0
 30
0.0
 11
-0.6656637084842938
 21
1.8936038969321096
 31
0.0
  0
LINE
  5
1D3
100
AcDbEntity
100
AcDbLine
  8
0
 62
256
370
-1
 48
1.0
  6
BYLAYER
 10
1.4666041780149897
 20
0.9753538969321145
 30
0.0
 11
1.2696562670224836
 21
0.9753538969321145
 31
0.0
  0
LINE
  5
1D4
100
AcDbEntity
100
AcDbLine
  8
0
 62
256
370
-1
 48
1.0
  6
BYLAYER
 10
1.7565520890074957
 20
0.9753538969321145
 30
0.0
 11
1.5596041780149896
 21
0.9753538969321145
 31
0.0
  0
LINE
  5
1D5
100
AcDbEntity
100
AcDbLine
  8
0
 62
256
370
-1
 48
1.0
  6
BYLAYER
 10
1.4666041780149932
 20
-0.0478800315261179
 30
0.0
 11
1.2696562670224871
 21
-0.0478800315261179
 31
0.0
  0
LINE
  5
1D6
100
AcDbEntity
100
AcDbLine
  8
0
 62
256
370
-1
 48
1.0
  6
BYLAYER
 10
1.7565520890074957
 20
-0.0478800315261179
 30
0.0
 11
1.5596041780149896
 21
-0.0478800315261179
 31
0.0
  0
LINE
  5
1D7
100
AcDbEntity
100
AcDbLine
  8
0
 62
256
370
-1
 48
1.0
  6
BYLAYER
 10
-0.8962922061357919
 20
-0.0478800315261179
 30
0.0
 11
-0.6993442951432858
 21
-0.0478800315261179
 31
0.0
  0
LINE
  5
1D8
100
AcDbEntity
100
AcDbLine
  8
0
 62
256
370
-1
 48
1.0
  6
BYLAYER
 10
-1.1862401171282979
 20
-0.0478800315261179
 30
0.0
 11
-0.9892922061357918
 21
-0.0478800315261179
 31
0.0
  0
LINE
  5
1D9
100
AcDbEntity
100
AcDbLine
  8
0
 62
256
370
-1
 48
1.0
  6
BYLAYER
 10
-0.8962922061357901
 20
0.9753538969321145
 30
0.0
 11
-0.699344295143284
 21
0.9753538969321145
 31
0.0
  0
LINE
  5
1DA
100
AcDbEntity
100
AcDbLine
  8
0
 62
256
370
-1
 48
1.0
  6
BYLAYER
 10
-1.1862401171282961
 20
0.9753538969321145
 30
0.0
 11
-0.9892922061357901
 21
0.9753538969321145
 31
0.0
  0
LINE
  5
1DB
100
AcDbEntity
100
AcDbLine
  8
0
 62
256
370
-1
 48
1.0
  6
BYLAYER
 10
4.4794235875635664
 20
1.8006038969321114
 30
0.0
 11
4.4794235875635664
 21
1.3670962735262311
 31
0.0
  0
LINE
  5
1DC
100
AcDbEntity
100
AcDbLine
  8
0
 62
256
370
-1
 48
1.0
  6
BYLAYER
 10
2.4662842025082092
 20
1.8006038969321114
 30
0.0
 11
2.4662842025082092
 21
1.3670962735262311
 31
0.0
  0
LINE
  5
1DD
100
AcDbEntity
100
AcDbLine
  8
0
 62
256
370
-1
 48
1.0
  6
BYLAYER
 10
1.2359756765710621
 20
1.8006038969321096
 30
0.0
 11
1.2359756765710621
 21
1.3670962735262293
 31
0.0
  0
LINE
  5
1DE
100
AcDbEntity
100
AcDbLine
  8
0
 62
256
370
-1
 48
1.0
  6
BYLAYER
 10
1.2359756765710621
 20
2.0
 30
0.0
 11
1.2359756765710621
 21
1.8936038969321096
 31
0.0
  0
LINE
  5
1DF
100
AcDbEntity
100
AcDbLine
  8
0
 62
256
370
-1
 48
1.0
  6
BYLAYER
 10
-0.7771637084842933
 20
1.8006038969321096
 30
0.0
 11
-0.7771637084842933
 21
1.3670962735262293
 31
0.0
  0
LINE
  5
1E0
100
AcDbEntity
100
AcDbLine
  8
0
 62
256
370
-1
 48
1.0
  6
BYLAYER
 10
-0.7771637084842951
 20
2.0
 30
0.0
 11
-0.7771637084842933
 21
1.8936038969321096
 31
0.0
  0
LINE
  5
1E1
100
AcDbEntity
100
AcDbLine
  8
0
 62
256
370
-1
 48
1.0
  6
BYLAYER
 10
-1.9111202940444549
 20
1.8006038969321183
 30
0.0
 11
-1.9111202940444549
 21
1.367096273526238
 31
0.0
  0
LINE
  5
1E2
100
AcDbEntity
100
AcDbLine
  8
0
 62
256
370
-1
 48
1.0
  6
BYLAYER
 10
-3.9242596790998121
 20
1.8006038969321183
 30
0.0
 11
-3.9242596790998121
 21
1.367096273526238
 31
0.0
  0
LINE
  5
1E3
100
AcDbEntity
100
AcDbLine
  8
0
 62
256
370
-1
 48
1.0
  6
BYLAYER
 10
1.4666041780149897
 20
0.863853896932115
 30
0.0
 11
1.2696562670224836
 21
0.863853896932115
 31
0.0
  0
LINE
  5
1E4
100
AcDbEntity
100
AcDbLine
  8
0
 62
256
370
-1
 48
1.0
  6
BYLAYER
 10
1.7565520890074957
 20
0.863853896932115
 30
0.0
 11
1.5596041780149896
 21
0.863853896932115
 31
0.0
  0
LINE
  5
1E5
100
AcDbEntity
100
AcDbLine
  8
0
 62
256
370
-1
 48
1.0
  6
BYLAYER
 10
1.4666041780149932
 20
-0.1593800315261173
 30
0.0
 11
1.2696562670224871
 21
-0.1593800315261173
 31
0.0
  0
LINE
  5
1E6
100
AcDbEntity
100
AcDbLine
  8
0
 62
256
370
-1
 48
1.0
  6
BYLAYER
 10
1.7565520890074957
 20
-0.1593800315261173
 30
0.0
 11
1.5596041780149896
 21
-0.1593800315261173
 31
0.0
  0
LINE
  5
1E7
100
AcDbEntity
100
AcDbLine
  8
0
 62
256
370
-1
 48
1.0
  6
BYLAYER
 10
-0.8962922061357919
 20
-0.1593800315261173
 30
0.0
 11
-0.6993442951432858
 21
-0.1593800315261173
 31
0.0
  0
LINE
  5
1E8
100
AcDbEntity
100
AcDbLine
  8
0
 62
256
370
-1
 48
1.0
  6
BYLAYER
 10
-1.1862401171282979
 20
-0.1593800315261173
 30
0.0
 11
-0.9892922061357918
 21
-0.1593800315261173
 31
0.0
  0
LINE
  5
1E9
100
AcDbEntity
100
AcDbLine
  8
0
 62
256
370
-1
 48
1.0
  6
BYLAYER
 10
-0.8962922061357901
 20
0.863853896932115
 30
0.0
 11
-0.699344295143284
 21
0.863853896932115
 31
0.0
  0
LINE
  5
1EA
100
AcDbEntity
100
AcDbLine
  8
0
 62
256
370
-1
 48
1.0
  6
BYLAYER
 10
-1.1862401171282961
 20
0.863853896932115
 30
0.0
 11
-0.9892922061357901
 21
0.863853896932115
 31
0.0
  0
LINE
  5
1EB
100
AcDbEntity
100
AcDbLine
  8
0
 62
256
370
-1
 48
1.0
  6
BYLAYER
 10
4.4794235875635735
 20
1.8006038969321114
 30
0.0
 11
4.4111735875635674
 21
1.8006038969321132
 31
0.0
  0
LINE
  5
1EC
100
AcDbEntity
100
AcDbLine
  8
0
 62
256
370
-1
 48
1.0
  6
BYLAYER
 10
2.4662842025082163
 20
1.8006038969321114
 30
0.0
 11
2.3980342025082102
 21
1.8006038969321132
 31
0.0
  0
LINE
  5
1ED
100
AcDbEntity
100
AcDbLine
  8
0
 62
256
370
-1
 48
1.0
  6
BYLAYER
 10
1.2359756765710692
 20
1.8006038969321096
 30
0.0
 11
1.1677256765710631
 21
1.8006038969321114
 31
0.0
  0
LINE
  5
1EE
100
AcDbEntity
100
AcDbLine
  8
0
 62
256
370
-1
 48
1.0
  6
BYLAYER
 10
-0.7771637084842897
 20
1.8006038969321096
 30
0.0
 11
-0.8454137084842923
 21
1.8006038969321114
 31
0.0
  0
LINE
  5
1EF
100
AcDbEntity
100
AcDbLine
  8
0
 62
256
370
-1
 48
1.0
  6
BYLAYER
 10
-1.9111202940444478
 20
1.8006038969321183
 30
0.0
 11
-1.979370294044454
 21
1.8006038969321201
 31
0.0
  0
LINE
  5
1F0
100
AcDbEntity
100
AcDbLine
  8
0
 62
256
370
-1
 48
1.0
  6
BYLAYER
 10
-3.924259679099805
 20
1.8006038969321183
 30
0.0
 11
-3.9925096790998111
 21
1.8006038969321201
 31
0.0
  0
LINE
  5
1F1
100
AcDbEntity
100
AcDbLine
  8
0
 62
256
370
-1
 48
1.0
  6
BYLAYER
 10
1.5596041780149896
 20
0.9753538969321127
 30
0.0
 11
1.5596041780149896
 21
1.0436038969321153
 31
0.0
  0
LINE
  5
1F2
100
AcDbEntity
100
AcDbLine
  8
0
 62
256
370
-1
 48
1.0
  6
BYLAYER
 10
1.5596041780149896
 20
-0.0478800315261196
 30
0.0
 11
1.5596041780149896
 21
0.0203699684738829
 31
0.0
  0
LINE
  5
1F3
100
AcDbEntity
100
AcDbLine
  8
0
 62
256
370
-1
 48
1.0
  6
BYLAYER
 10
-0.9892922061357918
 20
-0.0478800315261196
 30
0.0
 11
-0.9892922061357901
 21
0.0203699684738829
 31
0.0
  0
LINE
  5
1F4
100
AcDbEntity
100
AcDbLine
  8
0
 62
256
370
-1
 48
1.0
  6
BYLAYER
 10
-0.9892922061357901
 20
0.9753538969321127
 30
0.0
 11
-0.9892922061357883
 21
1.0436038969321153
 31
0.0
  0
LINE
  5
1F5
100
AcDbEntity
100
AcDbLine
  8
0
 62
256
370
-1
 48
1.0
  6
BYLAYER
 10
1.2359756765710692
 20
1.8936038969321096
 30
0.0
 11
1.1677256765710631
 21
1.8936038969321114
 31
0.0
  0
LINE
  5
1F6
100
AcDbEntity
100
AcDbLine
  8
0
 62
256
370
-1
 48
1.0
  6
BYLAYER
 10
-0.7771637084842897
 20
1.8936038969321096
 30
0.0
 11
-0.8454137084842923
 21
1.8936038969321114
 31
0.0
  0
LINE
  5
1F7
100
AcDbEntity
100
AcDbLine
  8
0
 62
256
370
-1
 48
1.0
  6
BYLAYER
 10
1.4666041780149897
 20
0.9753538969321127
 30
0.0
 11
1.4666041780149861
 21
1.0436038969321153
 31
0.0
  0
LINE
  5
1F8
100
AcDbEntity
100
AcDbLine
  8
0
 62
256
370
-1
 48
1.0
  6
BYLAYER
 10
1.4666041780149932
 20
-0.0478800315261196
 30
0.0
 11
1.4666041780149897
 21
0.0203699684738829
 31
0.0
  0
LINE
  5
1F9
100
AcDbEntity
100
AcDbLine
  8
0
 62
256
370
-1
 48
1.0
  6
BYLAYER
 10
-0.8962922061357919
 20
-0.0478800315261196
 30
0.0
 11
-0.8962922061357901
 21
0.0203699684738829
 31
0.0
  0
LINE
  5
1FA
100
AcDbEntity
100
AcDbLine
  8
0
 62
256
370
-1
 48
1.0
  6
BYLAYER
 10
-0.8962922061357901
 20
0.9753538969321127
 30
0.0
 11
-0.8962922061357883
 21
1.0436038969321153
 31
0.0
  0
LINE
  5
1FB
100
AcDbEntity
100
AcDbLine
  8
0
 62
256
370
-1
 48
1.0
  6
BYLAYER
 10
4.4111735875635674
 20
1.8936038969321114
 30
0.0
 11
4.659173587563572
 21
1.8936038969321132
 31
0.0
  0
LINE
  5
1FC
100
AcDbEntity
100
AcDbLine
  8
0
 62
256
370
-1
 48
1.0
  6
BYLAYER
 10
2.3980342025082102
 20
1.8936038969321114
 30
0.0
 11
2.6460342025082149
 21
1.8936038969321132
 31
0.0
  0
LINE
  5
1FD
100
AcDbEntity
100
AcDbLine
  8
0
 62
256
370
-1
 48
1.0
  6
BYLAYER
 10
1.3474756765710616
 20
1.8936038969321096
 30
0.0
 11
1.4157256765710677
 21
1.8936038969321114
 31
0.0
  0
LINE
  5
1FE
100
AcDbEntity
100
AcDbLine
  8
0
 62
256
370
-1
 48
1.0
  6
BYLAYER
 10
-0.665663708484292
 20
1.8936038969321096
 30
0.0
 11
-0.5974137084842912
 21
1.8936038969321114
 31
0.0
  0
LINE
  5
1FF
100
AcDbEntity
100
AcDbLine
  8
0
 62
256
370
-1
 48
1.0
  6
BYLAYER
 10
-1.979370294044454
 20
1.8936038969321183
 30
0.0
 11
-1.7313702940444493
 21
1.8936038969321201
 31
0.0
  0
LINE
  5
200
100
AcDbEntity
100
AcDbLine
  8
0
 62
256
370
-1
 48
1.0
  6
BYLAYER
 10
-3.9925096790998111
 20
1.8936038969321183
 30
0.0
 11
-3.7445096790998065
 21
1.8936038969321201
 31
0.0
  0
LINE
  5
201
100
AcDbEntity
100
AcDbLine
  8
0
 62
256
370
-1
 48
1.0
  6
BYLAYER
 10
1.4666041780149897
 20
0.863853896932115
 30
0.0
 11
1.4666041780149861
 21
0.7956038969321142
 31
0.0
  0
LINE
  5
202
100
AcDbEntity
100
AcDbLine
  8
0
 62
256
370
-1
 48
1.0
  6
BYLAYER
 10
1.4666041780149932
 20
-0.1593800315261173
 30
0.0
 11
1.4666041780149897
 21
-0.2276300315261182
 31
0.0
  0
LINE
  5
203
100
AcDbEntity
100
AcDbLine
  8
0
 62
256
370
-1
 48
1.0
  6
BYLAYER
 10
-0.8962922061357919
 20
-0.1593800315261173
 30
0.0
 11
-0.8962922061357901
 21
-0.2276300315261182
 31
0.0
  0
LINE
  5
204
100
AcDbEntity
100
AcDbLine
  8
0
 62
256
370
-1
 48
1.0
  6
BYLAYER
 10
-0.8962922061357901
 20
0.863853896932115
 30
0.0
 11
-0.8962922061357883
 21
0.7956038969321142
 31
0.0
  0
LINE
  5
205
100
AcDbEntity
100
AcDbLine
  8
0
 62
256
370
-1
 48
1.0
  6
BYLAYER
 10
2.5777842025082123
 20
1.8006038969321114
 30
0.0
 11
2.6460342025082149
 21
1.8006038969321132
 31
0.0
  0
LINE
  5
206
100
AcDbEntity
100
AcDbLine
  8
0
 62
256
370
-1
 48
1.0
  6
BYLAYER
 10
4.5909235875635659
 20
1.8006038969321114
 30
0.0
 11
4.659173587563572
 21
1.8006038969321132
 31
0.0
  0
LINE
  5
207
100
AcDbEntity
100
AcDbLine
  8
0
 62
256
370
-1
 48
1.0
  6
BYLAYER
 10
1.3474756765710616
 20
1.8006038969321096
 30
0.0
 11
1.4157256765710677
 21
1.8006038969321114
 31
0.0
  0
LINE
  5
208
100
AcDbEntity
100
AcDbLine
  8
0
 62
256
370
-1
 48
1.0
  6
BYLAYER
 10
-0.665663708484292
 20
1.8006038969321096
 30
0.0
 11
-0.5974137084842912
 21
1.8006038969321114
 31
0.0
  0
LINE
  5
209
100
AcDbEntity
100
AcDbLine
  8
0
 62
256
370
-1
 48
1.0
  6
BYLAYER
 10
-3.8127596790998091
 20
1.8006038969321183
 30
0.0
 11
-3.7445096790998065
 21
1.8006038969321201
 31
0.0
  0
LINE
  5
20A
100
AcDbEntity
100
AcDbLine
  8
0
 62
256
370
-1
 48
1.0
  6
BYLAYER
 10
-1.7996202940444554
 20
1.8006038969321183
 30
0.0
 11
-1.7313702940444493
 21
1.8006038969321201
 31
0.0
  0
LINE
  5
20B
100
AcDbEntity
100
AcDbLine
  8
0
 62
256
370
-1
 48
1.0
  6
BYLAYER
 10
1.5596041780149896
 20
0.863853896932115
 30
0.0
 11
1.5596041780149896
 21
0.7956038969321142
 31
0.0
  0
LINE
  5
20C
100
AcDbEntity
100
AcDbLine
  8
0
 62
256
370
-1
 48
1.0
  6
BYLAYER
 10
1.5596041780149896
 20
-0.1593800315261173
 30
0.0
 11
1.5596041780149896
 21
-0.2276300315261182
 31
0.0
  0
LINE
  5
20D
100
AcDbEntity
100
AcDbLine
  8
0
 62
256
370
-1
 48
1.0
  6
BYLAYER
 10
-0.9892922061357918
 20
-0.1593800315261173
 30
0.0
 11
-0.9892922061357901
 21
-0.2276300315261182
 31
0.0
  0
LINE
  5
20E
100
AcDbEntity
100
AcDbLine
  8
0
 62
256
370
-1
 48
1.0
  6
BYLAYER
 10
-0.9892922061357901
 20
0.863853896932115
 30
0.0
 11
-0.9892922061357883
 21
0.7956038969321142
 31
0.0
  0
ARC
  5
20F
100
AcDbEntity
  8
0
 62
256
370
-1
 48
1.0
  6
BYLAYER
100
AcDbCircle
 10
4.5351735875635697
 20
1.3670962735262311
 30
0.0
 40
0.0557499999999997
100
AcDbArc
 50
180.0
 51
0.0
  0
ARC
  5
210
100
AcDbEntity
  8
0
 62
256
370
-1
 48
1.0
  6
BYLAYER
100
AcDbCircle
 10
2.5220342025082125
 20
1.3670962735262311
 30
0.0
 40
0.0557499999999997
100
AcDbArc
 50
180.0
 51
0.0
  0
ARC
  5
211
100
AcDbEntity
  8
0
 62
256
370
-1
 48
1.0
  6
BYLAYER
100
AcDbCircle
 10
1.2917256765710654
 20
1.3670962735262293
 30
0.0
 40
0.0557499999999997
100
AcDbArc
 50
180.0
 51
0.0
  0
ARC
  5
212
100
AcDbEntity
  8
0
 62
256
370
-1
 48
1.0
  6
BYLAYER
100
AcDbCircle
 10
-0.7214137084842935
 20
1.3670962735262293
 30
0.0
 40
0.0557499999999997
100
AcDbArc
 50
180.0
 51
0.0
  0
ARC
  5
213
100
AcDbEntity
  8
0
 62
256
370
-1
 48
1.0
  6
BYLAYER
100
AcDbCircle
 10
-1.8553702940444516
 20
1.367096273526238
 30
0.0
 40
0.0557499999999997
100
AcDbArc
 50
180.0
 51
0.0
  0
ARC
  5
214
100
AcDbEntity
  8
0
 62
256
370
-1
 48
1.0
  6
BYLAYER
100
AcDbCircle
 10
-3.8685096790998088
 20
1.367096273526238
 30
0.0
 40
0.0557499999999997
100
AcDbArc
 50
180.0
 51
0.0
  0
ARC
  5
215
100
AcDbEntity
  8
0
 62
256
370
-1
 48
1.0
  6
BYLAYER
100
AcDbCircle
 10
1.2696562670224871
 20
-0.1036300315261176
 30
0.0
 40
0.0557499999999997
100
AcDbArc
 50
90.0
 51
270.0
  0
ARC
  5
216
100
AcDbEntity
  8
0
 62
256
370
-1
 48
1.0
  6
BYLAYER
100
AcDbCircle
 10
1.2696562670224836
 20
0.9196038969321148
 30
0.0
 40
0.0557499999999997
100
AcDbArc
 50
90.0
 51
270.0
  0
ARC
  5
217
100
AcDbEntity
  8
0
 62
256
370
-1
 48
1.0
  6
BYLAYER
100
AcDbCircle
 10
-0.6993442951432858
 20
-0.1036300315261176
 30
0.0
 40
0.0557499999999997
100
AcDbArc
 50
270.0
 51
90.0
  0
ARC
  5
218
100
AcDbEntity
  8
0
 62
256
370
-1
 48
1.0
  6
BYLAYER
100
AcDbCircle
 10
-0.699344295143284
 20
0.9196038969321148
 30
0.0
 40
0.0557499999999997
100
AcDbArc
 50
270.0
 51
90.0
  0
LINE
  5
219
100
AcDbEntity
100
AcDbLine
  8
0
 62
256
370
-1
 48
1.0
  6
BYLAYER
 10
5.0
 20
1.9999999999999982
 30
0.0
 11
4.9999999999999964
 21
-0.5400261345940205
 31
0.0
  0
LINE
  5
21A
100
AcDbEntity
100
AcDbLine
  8
0
 62
256
370
-1
 48
1.0
  6
BYLAYER
 10
2.0572077938642082
 20
2.0000000000000018
 30
0.0
 11
2.0572077938642082
 21
-0.5400261345940169
 31
0.0
  0
LINE
  5
21B
100
AcDbEntity
100
AcDbLine
  8
0
 62
256
370
-1
 48
1.0
  6
BYLAYER
 10
-1.3905438816080213
 20
2.0000000000000053
 30
0.0
 11
-1.3905438816080249
 21
-0.5400261345940136
 31
0.0
  0
LINE
  5
21C
100
AcDbEntity
100
AcDbLine
  8
0
 62
256
370
-1
 48
1.0
  6
BYLAYER
 10
-4.3333360877438132
 20
2.0000000000000089
 30
0.0
 11
-4.3333360877438132
 21
-0.5400261345940101
 31
0.0
  0
LINE
  5
21D
100
AcDbEntity
100
AcDbLine
  8
0
 62
256
370
-1
 48
1.0
  6
BYLAYER
 10
1.7565520890074957
 20
0.8638538969321168
 30
0.0
 11
1.7565520890074957
 21
-0.0478800315261179
 31
0.0
  0
LINE
  5
21E
100
AcDbEntity
100
AcDbLine
  8
0
 62
256
370
-1
 48
1.0
  6
BYLAYER
 10
-1.1862401171282961
 20
0.8638538969321168
 30
0.0
 11
-1.1862401171282979
 21
-0.0478800315261179
 31
0.0
  0
LINE
  5
21F
100
AcDbEntity
100
AcDbLine
  8
0
 62
256
370
-1
 48
1.0
  6
BYLAYER
 10
1.7565520890074957
 20
-0.1593800315261173
 30
0.0
 11
1.7565520890074957
 21
-0.5400261345940134
 31
0.0
  0
LINE
  5
220
100
AcDbEntity
100
AcDbLine
  8
0
 62
256
370
-1
 48
1.0
  6
BYLAYER
 10
-1.1862401171282979
 20
-0.1593800315261173
 30
0.0
 11
-1.1862401171282961
 21
-0.5400261345940134
 31
0.0
  0
LINE
  5
221
100
AcDbEntity
100
AcDbLine
  8
0
 62
256
370
-1
 48
1.0
  6
BYLAYER
 10
2.0572077938642082
 20
2.0000000000000036
 30
0.0
 11
5.0
 21
2.0000000000000018
 31
0.0
  0
LINE
  5
222
100
AcDbEntity
100
AcDbLine
  8
0
 62
256
370
-1
 48
1.0
  6
BYLAYER
 10
-4.3333360877438132
 20
2.0000000000000107
 30
0.0
 11
-1.3905438816080213
 21
2.0000000000000089
 31
0.0
  0
LINE
  5
223
100
AcDbEntity
100
AcDbLine
  8
0
 62
256
370
-1
 48
1.0
  6
BYLAYER
 10
-0.6656637046918643
 20
2.0
 30
0.0
 11
1.2359756765710621
 21
2.0
 31
0.0
  0
LINE
  5
224
100
AcDbEntity
100
AcDbLine
  8
0
 62
256
370
-1
 48
1.0
  6
BYLAYER
 10
2.2541557048567107
 20
-0.2276300315261217
 30
0.0
 11
2.2541557048567107
 21
0.0203699684738794
 31
0.0
  0
LINE
  5
225
100
AcDbEntity
100
AcDbLine
  8
0
 62
256
370
-1
 48
1.0
  6
BYLAYER
 10
-4.1363881767513107
 20
-0.2276300315261148
 30
0.0
 11
-4.1363881767513107
 21
0.0203699684738863
 31
0.0
  0
LINE
  5
226
100
AcDbEntity
100
AcDbLine
  8
0
 62
256
370
-1
 48
1.0
  6
BYLAYER
 10
2.3471557048567142
 20
-0.2276300315261217
 30
0.0
 11
2.3471557048567142
 21
0.0203699684738794
 31
0.0
  0
LINE
  5
227
100
AcDbEntity
100
AcDbLine
  8
0
 62
256
370
-1
 48
1.0
  6
BYLAYER
 10
-4.0433881767513071
 20
-0.2276300315261148
 30
0.0
 11
-4.0433881767513071
 21
0.0203699684738863
 31
0.0
  0
LINE
  5
228
100
AcDbEntity
100
AcDbLine
  8
0
 62
256
370
-1
 48
1.0
  6
BYLAYER
 10
4.7100520890074975
 20
-0.2276300315261217
 30
0.0
 11
4.7100520890074975
 21
0.0203699684738794
 31
0.0
  0
LINE
  5
229
100
AcDbEntity
100
AcDbLine
  8
0
 62
256
370
-1
 48
1.0
  6
BYLAYER
 10
-1.6804917926005238
 20
-0.2276300315261148
 30
0.0
 11
-1.6804917926005238
 21
0.0203699684738863
 31
0.0
  0
LINE
  5
22A
100
AcDbEntity
100
AcDbLine
  8
0
 62
256
370
-1
 48
1.0
  6
BYLAYER
 10
4.8030520890074939
 20
-0.2276300315261217
 30
0.0
 11
4.8030520890074939
 21
0.0203699684738794
 31
0.0
  0
LINE
  5
22B
100
AcDbEntity
100
AcDbLine
  8
0
 62
256
370
-1
 48
1.0
  6
BYLAYER
 10
-1.5874917926005274
 20
-0.2276300315261148
 30
0.0
 11
-1.5874917926005274
 21
0.0203699684738863
 31
0.0
  0
LINE
  5
22C
100
AcDbEntity
100
AcDbLine
  8
0
 62
256
370
-1
 48
1.0
  6
BYLAYER
 10
4.7100520890074939
 20
0.7956038969321106
 30
0.0
 11
4.7100520890074939
 21
1.0436038969321118
 31
0.0
  0
LINE
  5
22D
100
AcDbEntity
100
AcDbLine
  8
0
 62
256
370
-1
 48
1.0
  6
BYLAYER
 10
-1.6804917926005274
 20
0.7956038969321175
 30
0.0
 11
-1.6804917926005274
 21
1.0436038969321186
 31
0.0
  0
LINE
  5
22E
100
AcDbEntity
100
AcDbLine
  8
0
 62
256
370
-1
 48
1.0
  6
BYLAYER
 10
4.8030520890074939
 20
0.7956038969321106
 30
0.0
 11
4.8030520890074939
 21
1.0436038969321118
 31
0.0
  0
LINE
  5
22F
100
AcDbEntity
100
AcDbLine
  8
0
 62
256
370
-1
 48
1.0
  6
BYLAYER
 10
-1.5874917926005274
 20
0.7956038969321175
 30
0.0
 11
-1.5874917926005274
 21
1.0436038969321186
 31
0.0
  0
LINE
  5
230
100
AcDbEntity
100
AcDbLine
  8
0
 62
256
370
-1
 48
1.0
  6
BYLAYER
 10
2.2541557048567142
 20
0.7956038969321106
 30
0.0
 11
2.2541557048567142
 21
1.0436038969321118
 31
0.0
  0
LINE
  5
231
100
AcDbEntity
100
AcDbLine
  8
0
 62
256
370
-1
 48
1.0
  6
BYLAYER
 10
-4.1363881767513071
 20
0.7956038969321175
 30
0.0
 11
-4.1363881767513071
 21
1.0436038969321186
 31
0.0
  0
LINE
  5
232
100
AcDbEntity
100
AcDbLine
  8
0
 62
256
370
-1
 48
1.0
  6
BYLAYER
 10
2.3471557048567142
 20
0.7956038969321106
 30
0.0
 11
2.3471557048567142
 21
1.0436038969321118
 31
0.0
  0
LINE
  5
233
100
AcDbEntity
100
AcDbLine
  8
0
 62
256
370
-1
 48
1.0
  6
BYLAYER
 10
-4.0433881767513071
 20
0.7956038969321175
 30
0.0
 11
-4.0433881767513071
 21
1.0436038969321186
 31
0.0
  0
LINE
  5
234
100
AcDbEntity
100
AcDbLine
  8
0
 62
256
370
-1
 48
1.0
  6
BYLAYER
 10
-1.1862401171282961
 20
0.9753538969321145
 30
0.0
 11
-1.1862401171282961
 21
2.0000000000000036
 31
0.0
  0
LINE
  5
235
100
AcDbEntity
100
AcDbLine
  8
0
 62
256
370
-1
 48
1.0
  6
BYLAYER
 10
1.7565520890074957
 20
0.9753538969321145
 30
0.0
 11
1.7565520890074922
 21
2.0000000000000018
 31
0.0
  0
ENDSEC
  0
SECTION
  2
OBJECTS
  0
DICTIONARY
  5
C
100
AcDbDictionary
280
0
281
1
  3
ACAD_GROUP
350
D
  3
ACAD_LAYOUT
350
1A
  3
ACAD_MLINESTYLE
350
17
  3
ACAD_PLOTSETTINGS
350
19
  3
ACAD_PLOTSTYLENAME
350
E
  3
AcDbVariableDictionary
350
236
  3
QCAD_OBJECTS
350
237
  0
DICTIONARY
  5
D
100
AcDbDictionary
280
0
281
1
  0
ACDBDICTIONARYWDFLT
  5
E
100
AcDbDictionary
281
1
  3
Normal
350
F
100
AcDbDictionaryWithDefault
340
F
  0
ACDBPLACEHOLDER
  5
F
  0
DICTIONARY
  5
17
100
AcDbDictionary
280
0
281
1
  3
Standard
350
18
  0
MLINESTYLE
  5
18
100
AcDbMlineStyle
  2
STANDARD
 70
0
  3

 62
256
 51
90.0
 52
90.0
 71
2
 49
0.5
 62
256
  6
BYLAYER
 49
-0.5
 62
256
  6
BYLAYER
  0
DICTIONARY
  5
19
100
AcDbDictionary
280
0
281
1
  0
DICTIONARY
  5
1A
100
AcDbDictionary
281
1
  3
Layout1
350
1E
  3
Layout2
350
26
  3
Model
350
22
  0
LAYOUT
  5
1E
100
AcDbPlotSettings
  1

  2
none_device
  4

  6

 40
0.0
 41
0.0
 42
0.0
 43
0.0
 44
0.0
 45
0.0
 46
0.0
 47
0.0
 48
0.0
 49
0.0
140
0.0
141
0.0
142
1.0
143
1.0
 70
688
 72
0
 73
0
 74
5
  7

 75
16
147
1.0
148
0.0
149
0.0
100
AcDbLayout
  1
Layout1
 70
1
 71
1
 10
0.0
 20
0.0
 11
420.0
 21
297.0
 12
0.0
 22
0.0
 32
0.0
 14
100000000000000000000.0
 24
100000000000000000000.0
 34
100000000000000000000.0
 15
-100000000000000000000.0
 25
-100000000000000000000.0
 35
-100000000000000000000.0
146
0.0
 13
0.0
 23
0.0
 33
0.0
 16
1.0
 26
0.0
 36
0.0
 17
0.0
 27
1.0
 37
0.0
 76
0
330
1B
  0
LAYOUT
  5
22
100
AcDbPlotSettings
  1

  2
none_device
  4

  6

 40
0.0
 41
0.0
 42
0.0
 43
0.0
 44
0.0
 45
0.0
 46
0.0
 47
0.0
 48
0.0
 49
0.0
140
0.0
141
0.0
142
1.0
143
1.0
 70
1712
 72
0
 73
0
 74
0
  7

 75
0
147
1.0
148
0.0
149
0.0
100
AcDbLayout
  1
Model
 70
1
 71
0
 10
0.0
 20
0.0
 11
12.0
 21
9.0
 12
0.0
 22
0.0
 32
0.0
 14
0.0
 24
0.0
 34
0.0
 15
0.0
 25
0.0
 35
0.0
146
0.0
 13
0.0
 23
0.0
 33
0.0
 16
1.0
 26
0.0
 36
0.0
 17
0.0
 27
1.0
 37
0.0
 76
0
330
1F
  0
LAYOUT
  5
26
100
AcDbPlotSettings
  1

  2
none_device
  4

  6

 40
0.0
 41
0.0
 42
0.0
 43
0.0
 44
0.0
 45
0.0
 46
0.0
 47
0.0
 48
0.0
 49
0.0
140
0.0
141
0.0
142
1.0
143
1.0
 70
688
 72
0
 73
0
 74
5
  7

 75
16
147
1.0
148
0.0
149
0.0
100
AcDbLayout
  1
Layout2
 70
1
 71
2
 10
0.0
 20
0.0
 11
12.0
 21
9.0
 12
0.0
 22
0.0
 32
0.0
 14
0.0
 24
0.0
 34
0.0
 15
0.0
 25
0.0
 35
0.0
146
0.0
 13
0.0
 23
0.0
 33
0.0
 16
1.0
 26
0.0
 36
0.0
 17
0.0
 27
1.0
 37
0.0
 76
0
330
23
  0
DICTIONARY
  5
236
100
AcDbDictionary
281
1
  3
DIMASSOC
350
239
  3
HIDETEXT
350
238
  0
DICTIONARYVAR
  5
238
100
DictionaryVariables
280
0
  1
2
  0
DICTIONARYVAR
  5
239
100
DictionaryVariables
280
0
  1
1
  0
DICTIONARY
  5
237
100
AcDbDictionary
281
1
  3
ColorSettings/BackgroundColor
350
23A
  3
ColorSettings/ColorMode
350
23B
  3
Grid/DisplayGrid00
350
23C
  3
Grid/DisplayGrid01
350
23D
  3
Grid/DisplayGrid02
350
23E
  3
Grid/DisplayGrid03
350
23F
  3
Grid/GridSpacingX00
350
240
  3
Grid/GridSpacingX01
350
241
  3
Grid/GridSpacingX02
350
242
  3
Grid/GridSpacingX03
350
243
  3
Grid/GridSpacingY00
350
244
  3
Grid/GridSpacingY01
350
245
  3
Grid/GridSpacingY02
350
246
  3
Grid/GridSpacingY03
350
247
  3
Grid/IsometricGrid00
350
248
  3
Grid/IsometricGrid01
350
249
  3
Grid/IsometricGrid02
350
24A
  3
Grid/IsometricGrid03
350
24B
  3
Grid/IsometricProjection00
350
24C
  3
Grid/IsometricProjection01
350
24D
  3
Grid/IsometricProjection02
350
24E
  3
Grid/IsometricProjection03
350
24F
  3
Grid/MetaGridSpacingX00
350
250
  3
Grid/MetaGridSpacingX01
350
251
  3
Grid/MetaGridSpacingX02
350
252
  3
Grid/MetaGridSpacingX03
350
253
  3
Grid/MetaGridSpacingY00
350
254
  3
Grid/MetaGridSpacingY01
350
255
  3
Grid/MetaGridSpacingY02
350
256
  3
Grid/MetaGridSpacingY03
350
257
  3
MultiPageSettings/Columns
350
258
  3
MultiPageSettings/GlueMarginsBottom
350
259
  3
MultiPageSettings/GlueMarginsLeft
350
25A
  3
MultiPageSettings/GlueMarginsRight
350
25B
  3
MultiPageSettings/GlueMarginsTop
350
25C
  3
MultiPageSettings/PrintCropMarks
350
25D
  3
MultiPageSettings/Rows
350
25E
  3
PageSettings/OffsetX
350
25F
  3
PageSettings/OffsetY
350
260
  3
PageSettings/PageOrientation
350
261
  3
PageSettings/PaperHeight
350
262
  3
PageSettings/PaperWidth
350
263
  3
PageSettings/Scale
350
264
  3
PageSettings/ShowPaperBorders
350
265
  3
QCADVersion
350
266
  3
UnitSettings/PaperUnit
350
267
  0
XRECORD
  5
23A
330
237
100
AcDbXrecord
280
1
1000
White
  0
XRECORD
  5
23B
330
237
100
AcDbXrecord
280
1
1000
FullColor
  0
XRECORD
  5
23C
330
237
100
AcDbXrecord
280
1
290
1
  0
XRECORD
  5
23D
330
237
100
AcDbXrecord
280
1
290
1
  0
XRECORD
  5
23E
330
237
100
AcDbXrecord
280
1
290
1
  0
XRECORD
  5
23F
330
237
100
AcDbXrecord
280
1
290
1
  0
XRECORD
  5
240
330
237
100
AcDbXrecord
280
1
1000
auto
  0
XRECORD
  5
241
330
237
100
AcDbXrecord
280
1
1000
auto
  0
XRECORD
  5
242
330
237
100
AcDbXrecord
280
1
1000
auto
  0
XRECORD
  5
243
330
237
100
AcDbXrecord
280
1
1000
auto
  0
XRECORD
  5
244
330
237
100
AcDbXrecord
280
1
1000
auto
  0
XRECORD
  5
245
330
237
100
AcDbXrecord
280
1
1000
auto
  0
XRECORD
  5
246
330
237
100
AcDbXrecord
280
1
1000
auto
  0
XRECORD
  5
247
330
237
100
AcDbXrecord
280
1
1000
auto
  0
XRECORD
  5
248
330
237
100
AcDbXrecord
280
1
290
0
  0
XRECORD
  5
249
330
237
100
AcDbXrecord
280
1
290
0
  0
XRECORD
  5
24A
330
237
100
AcDbXrecord
280
1
290
0
  0
XRECORD
  5
24B
330
237
100
AcDbXrecord
280
1
290
0
  0
XRECORD
  5
24C
330
237
100
AcDbXrecord
280
1
 90
0
  0
XRECORD
  5
24D
330
237
100
AcDbXrecord
280
1
 90
0
  0
XRECORD
  5
24E
330
237
100
AcDbXrecord
280
1
 90
0
  0
XRECORD
  5
24F
330
237
100
AcDbXrecord
280
1
 90
0
  0
XRECORD
  5
250
330
237
100
AcDbXrecord
280
1
1000
auto
  0
XRECORD
  5
251
330
237
100
AcDbXrecord
280
1
1000
auto
  0
XRECORD
  5
252
330
237
100
AcDbXrecord
280
1
1000
auto
  0
XRECORD
  5
253
330
237
100
AcDbXrecord
280
1
1000
auto
  0
XRECORD
  5
254
330
237
100
AcDbXrecord
280
1
1000
auto
  0
XRECORD
  5
255
330
237
100
AcDbXrecord
280
1
1000
auto
  0
XRECORD
  5
256
330
237
100
AcDbXrecord
280
1
1000
auto
  0
XRECORD
  5
257
330
237
100
AcDbXrecord
280
1
1000
auto
  0
XRECORD
  5
258
330
237
100
AcDbXrecord
280
1
 90
1
  0
XRECORD
  5
259
330
237
100
AcDbXrecord
280
1
 40
0.5
  0
XRECORD
  5
25A
330
237
100
AcDbXrecord
280
1
 40
0.5
  0
XRECORD
  5
25B
330
237
100
AcDbXrecord
280
1
 40
0.5
  0
XRECORD
  5
25C
330
237
100
AcDbXrecord
280
1
 40
0.5
  0
XRECORD
  5
25D
330
237
100
AcDbXrecord
280
1
290
0
  0
XRECORD
  5
25E
330
237
100
AcDbXrecord
280
1
 90
1
  0
XRECORD
  5
25F
330
237
100
AcDbXrecord
280
1
 40
0.0
  0
XRECORD
  5
260
330
237
100
AcDbXrecord
280
1
 40
0.0
  0
XRECORD
  5
261
330
237
100
AcDbXrecord
280
1
1000
Portrait
  0
XRECORD
  5
262
330
237
100
AcDbXrecord
280
1
 40
11.6929133858268006
  0
XRECORD
  5
263
330
237
100
AcDbXrecord
280
1
 40
8.2677165354330704
  0
XRECORD
  5
264
330
237
100
AcDbXrecord
280
1
1000
1:1
  0
XRECORD
  5
265
330
237
100
AcDbXrecord
280
1
290
1
  0
XRECORD
  5
266
330
237
100
AcDbXrecord
280
1
1000
3.11.3
  0
XRECORD
  5
267
330
237
100
AcDbXrecord
280
1
 90
1
  0
ENDSEC
  0
EOF
