999
dxflib 3.7.5.0
  0
SECTION
  2
HEADER
  9
$ACADVER
  1
AC1015
  9
$HANDSEED
  5
FFFF
  9
$DIMADEC
 70
0
  9
$DIMASZ
 40
0.125
  9
$DIMAUNIT
 70
0
  9
$DIMAZIN
 70
2
  9
$DIMDEC
 70
4
  9
$DIMEXE
 40
0.0625
  9
$DIMEXO
 40
0.03125
  9
$DIMGAP
 40
0.03125
  9
$DIMLUNIT
 70
3
  9
$DIMSCALE
 40
1.0
  9
$DIMTSZ
 40
0.0
  9
$DIMTXT
 40
0.125
  9
$DIMZIN
 70
8
  9
$DWGCODEPAGE
  3
ANSI_1252
  9
$INSUNITS
 70
1
  9
$LTSCALE
 40
1.0
  9
$MEASUREMENT
 70
0
  9
$PDMODE
 70
0
  9
$PDSIZE
 40
0
  0
ENDSEC
  0
SECTION
  2
TABLES
  0
TABLE
  2
VPORT
  5
8
100
AcDbSymbolTable
 70
1
  0
VPORT
  5
30
100
AcDbSymbolTableRecord
100
AcDbViewportTableRecord
  2
*Active
 70
0
 10
0.0
 20
0.0
 11
1.0
 21
1.0
 12
286.3055555555554861
 22
148.5
 13
0.0
 23
0.0
 14
10.0
 24
10.0
 15
10.0
 25
10.0
 16
0.0
 26
0.0
 36
1.0
 17
0.0
 27
0.0
 37
0.0
 40
297.0
 41
1.92798353909465
 42
50.0
 43
0.0
 44
0.0
 50
0.0
 51
0.0
 71
0
 72
100
 73
1
 74
3
 75
1
 76
1
 77
0
 78
0
281
0
 65
1
110
0.0
120
0.0
130
0.0
111
1.0
121
0.0
131
0.0
112
0.0
122
1.0
132
0.0
 79
0
146
0.0
  0
ENDTAB
  0
TABLE
  2
LTYPE
  5
5
100
AcDbSymbolTable
 70
50
  0
LTYPE
  5
16
100
AcDbSymbolTableRecord
100
AcDbLinetypeTableRecord
  2
Continuous
 70
0
  3
Solid line
 72
65
 73
0
 40
0.0
  0
LTYPE
  5
31
100
AcDbSymbolTableRecord
100
AcDbLinetypeTableRecord
  2
ACAD_ISO15W100
 70
0
  3
ISO double-dash triple-dot __ __ . . . __ __ . .
 72
65
 73
10
 40
39.0000000000000071
 49
12.0
 74
0
 49
-3.0
 74
0
 49
12.0
 74
0
 49
-2.9500000000000002
 74
0
 49
0.1
 74
0
 49
-2.9000000000000004
 74
0
 49
0.1
 74
0
 49
-2.9000000000000004
 74
0
 49
0.1
 74
0
 49
-2.9500000000000002
 74
0
  0
LTYPE
  5
32
100
AcDbSymbolTableRecord
100
AcDbLinetypeTableRecord
  2
HOT_WATER_SUPPLY
 70
0
  3
Hot water supply ---- HW ---- HW ---- HW ----
 72
65
 73
3
 40
22.8599999999999994
 49
12.6999999999999993
 74
0
 49
-5.0800000000000001
 74
0
 49
-5.0800000000000001
 74
0
  0
LTYPE
  5
33
100
AcDbSymbolTableRecord
100
AcDbLinetypeTableRecord
  2
DIVIDE
 70
0
  3
Divide ____ . . ____ . . ____ . . ____ . . ____
 72
65
 73
6
 40
31.7500000000000036
 49
12.6999999999999993
 74
0
 49
-6.2999999999999998
 74
0
 49
0.1
 74
0
 49
-6.25
 74
0
 49
0.1
 74
0
 49
-6.2999999999999998
 74
0
  0
LTYPE
  5
34
100
AcDbSymbolTableRecord
100
AcDbLinetypeTableRecord
  2
ACAD_ISO10W100
 70
0
  3
ISO dash dot __ . __ . __ . __ . __ . __ . __ . 
 72
65
 73
4
 40
18.0
 49
12.0
 74
0
 49
-2.9500000000000002
 74
0
 49
0.1
 74
0
 49
-2.9500000000000002
 74
0
  0
LTYPE
  5
35
100
AcDbSymbolTableRecord
100
AcDbLinetypeTableRecord
  2
GAS_LINE
 70
0
  3
Gas line ----GAS----GAS----GAS----GAS----GAS----GAS--
 72
65
 73
3
 40
24.1300000000000026
 49
12.6999999999999993
 74
0
 49
-5.0800000000000001
 74
0
 49
-6.3499999999999996
 74
0
  0
LTYPE
  5
36
100
AcDbSymbolTableRecord
100
AcDbLinetypeTableRecord
  2
ACAD_ISO04W100
 70
0
  3
ISO long-dash dot ____ . ____ . ____ . ____ . _
 72
65
 73
4
 40
30.0
 49
24.0
 74
0
 49
-2.9500000000000002
 74
0
 49
0.1
 74
0
 49
-2.9500000000000002
 74
0
  0
LTYPE
  5
37
100
AcDbSymbolTableRecord
100
AcDbLinetypeTableRecord
  2
CENTER2
 70
0
  3
Center (.5x) ___ _ ___ _ ___ _ ___ _ ___ _ ___
 72
65
 73
4
 40
28.5750000000000028
 49
19.0500000000000007
 74
0
 49
-3.1749999999999998
 74
0
 49
3.1749999999999998
 74
0
 49
-3.1749999999999998
 74
0
  0
LTYPE
  5
38
100
AcDbSymbolTableRecord
100
AcDbLinetypeTableRecord
  2
ACAD_ISO11W100
 70
0
  3
ISO double-dash dot __ __ . __ __ . __ __ . __ _
 72
65
 73
6
 40
33.0
 49
12.0
 74
0
 49
-3.0
 74
0
 49
12.0
 74
0
 49
-2.9500000000000002
 74
0
 49
0.1
 74
0
 49
-2.9500000000000002
 74
0
  0
LTYPE
  5
39
100
AcDbSymbolTableRecord
100
AcDbLinetypeTableRecord
  2
HIDDEN2
 70
0
  3
Hidden (.5x) _ _ _ _ _ _ _ _ _ _ _ _ _ _ _ _ _ 
 72
65
 73
2
 40
4.7624999999999993
 49
3.1749999999999998
 74
0
 49
-1.5874999999999999
 74
0
  0
LTYPE
  5
3A
100
AcDbSymbolTableRecord
100
AcDbLinetypeTableRecord
  2
BORDERX2
 70
0
  3
Border (2x) ____  ____  .  ____  ____  .  ___
 72
65
 73
6
 40
88.8999999999999773
 49
25.3999999999999986
 74
0
 49
-12.6999999999999993
 74
0
 49
25.3999999999999986
 74
0
 49
-12.6499999999999986
 74
0
 49
0.1
 74
0
 49
-12.6499999999999986
 74
0
  0
LTYPE
  5
3B
100
AcDbSymbolTableRecord
100
AcDbLinetypeTableRecord
  2
ACAD_ISO05W100
 70
0
  3
ISO long-dash double-dot ____ .. ____ .. ____ . 
 72
65
 73
6
 40
33.0000000000000071
 49
24.0
 74
0
 49
-2.9500000000000002
 74
0
 49
0.1
 74
0
 49
-2.9000000000000004
 74
0
 49
0.1
 74
0
 49
-2.9500000000000002
 74
0
  0
LTYPE
  5
3C
100
AcDbSymbolTableRecord
100
AcDbLinetypeTableRecord
  2
DASHDOTX2
 70
0
  3
Dash dot (2x) ____  .  ____  .  ____  .  ___
 72
65
 73
4
 40
50.7999999999999972
 49
25.3999999999999986
 74
0
 49
-12.6499999999999986
 74
0
 49
0.1
 74
0
 49
-12.6499999999999986
 74
0
  0
LTYPE
  5
3D
100
AcDbSymbolTableRecord
100
AcDbLinetypeTableRecord
  2
HIDDENX2
 70
0
  3
Hidden (2x) ____ ____ ____ ____ ____ ____ ____ 
 72
65
 73
2
 40
19.0499999999999972
 49
12.6999999999999993
 74
0
 49
-6.3499999999999996
 74
0
  0
LTYPE
  5
3E
100
AcDbSymbolTableRecord
100
AcDbLinetypeTableRecord
  2
CENTERX2
 70
0
  3
Center (2x) ________  __  ________  __  _____
 72
65
 73
4
 40
101.6000000000000085
 49
63.5
 74
0
 49
-12.6999999999999993
 74
0
 49
12.6999999999999993
 74
0
 49
-12.6999999999999993
 74
0
  0
LTYPE
  5
3F
100
AcDbSymbolTableRecord
100
AcDbLinetypeTableRecord
  2
BORDER2
 70
0
  3
Border (.5x) __.__.__.__.__.__.__.__.__.__.__.
 72
65
 73
6
 40
22.2250000000000014
 49
6.3499999999999996
 74
0
 49
-3.1749999999999998
 74
0
 49
6.3499999999999996
 74
0
 49
-3.125
 74
0
 49
0.1
 74
0
 49
-3.125
 74
0
  0
LTYPE
  5
40
100
AcDbSymbolTableRecord
100
AcDbLinetypeTableRecord
  2
DASHDOT2
 70
0
  3
Dash dot (.5x) _._._._._._._._._._._._._._._.
 72
65
 73
4
 40
12.6999999999999993
 49
6.3499999999999996
 74
0
 49
-3.125
 74
0
 49
0.1
 74
0
 49
-3.125
 74
0
  0
LTYPE
  5
41
100
AcDbSymbolTableRecord
100
AcDbLinetypeTableRecord
  2
ACAD_ISO12W100
 70
0
  3
ISO dash double-dot __ . . __ . . __ . . __ . . 
 72
65
 73
6
 40
21.0
 49
12.0
 74
0
 49
-2.9500000000000002
 74
0
 49
0.1
 74
0
 49
-2.9000000000000004
 74
0
 49
0.1
 74
0
 49
-2.9500000000000002
 74
0
  0
LTYPE
  5
42
100
AcDbSymbolTableRecord
100
AcDbLinetypeTableRecord
  2
ACAD_ISO07W100
 70
0
  3
ISO dot . . . . . . . . . . . . . . . . . . . . 
 72
65
 73
2
 40
3.0
 49
0.1
 74
0
 49
-2.8999999999999999
 74
0
  0
LTYPE
  5
43
100
AcDbSymbolTableRecord
100
AcDbLinetypeTableRecord
  2
ACAD_ISO06W100
 70
0
  3
ISO long-dash triple-dot ____ ... ____ ... ____
 72
65
 73
8
 40
36.0000000000000071
 49
24.0
 74
0
 49
-2.9500000000000002
 74
0
 49
0.1
 74
0
 49
-2.9000000000000004
 74
0
 49
0.1
 74
0
 49
-2.9000000000000004
 74
0
 49
0.1
 74
0
 49
-2.9500000000000002
 74
0
  0
LTYPE
  5
44
100
AcDbSymbolTableRecord
100
AcDbLinetypeTableRecord
  2
CENTER
 70
0
  3
Center ____ _ ____ _ ____ _ ____ _ ____ _ ____
 72
65
 73
4
 40
50.8000000000000043
 49
31.75
 74
0
 49
-6.3499999999999996
 74
0
 49
6.3499999999999996
 74
0
 49
-6.3499999999999996
 74
0
  0
LTYPE
  5
45
100
AcDbSymbolTableRecord
100
AcDbLinetypeTableRecord
  2
HIDDEN
 70
0
  3
Hidden __ __ __ __ __ __ __ __ __ __ __ __ __ __
 72
65
 73
2
 40
9.5249999999999986
 49
6.3499999999999996
 74
0
 49
-3.1749999999999998
 74
0
  0
LTYPE
  5
46
100
AcDbSymbolTableRecord
100
AcDbLinetypeTableRecord
  2
DOTX2
 70
0
  3
Dot (2x) .  .  .  .  .  .  .  .  .  .  .  .  .  .
 72
65
 73
2
 40
12.6999999999999993
 49
0.1
 74
0
 49
-12.5999999999999996
 74
0
  0
LTYPE
  5
47
100
AcDbSymbolTableRecord
100
AcDbLinetypeTableRecord
  2
PHANTOM
 70
0
  3
Phantom ______  __  __  ______  __  __  ______ 
 72
65
 73
6
 40
63.5000000000000071
 49
31.75
 74
0
 49
-6.3499999999999996
 74
0
 49
6.3499999999999996
 74
0
 49
-6.3499999999999996
 74
0
 49
6.3499999999999996
 74
0
 49
-6.3499999999999996
 74
0
  0
LTYPE
  5
48
100
AcDbSymbolTableRecord
100
AcDbLinetypeTableRecord
  2
ACAD_ISO08W100
 70
0
  3
ISO long-dash short-dash ____ __ ____ __ ____ _
 72
65
 73
4
 40
36.0
 49
24.0
 74
0
 49
-3.0
 74
0
 49
6.0
 74
0
 49
-3.0
 74
0
  0
LTYPE
  5
49
100
AcDbSymbolTableRecord
100
AcDbLinetypeTableRecord
  2
DASHEDX2
 70
0
  3
Dashed (2x) ____  ____  ____  ____  ____  ___
 72
65
 73
2
 40
38.0999999999999943
 49
25.3999999999999986
 74
0
 49
-12.6999999999999993
 74
0
  0
LTYPE
  5
4A
100
AcDbSymbolTableRecord
100
AcDbLinetypeTableRecord
  2
DRAINAGE
 70
0
  3
Drainage ---->---->---->----
 72
65
 73
2
 40
10.1600000000000001
 49
5.0800000000000001
 74
0
 49
5.0800000000000001
 74
0
  0
LTYPE
  5
4B
100
AcDbSymbolTableRecord
100
AcDbLinetypeTableRecord
  2
ACAD_ISO02W100
 70
0
  3
ISO dash __ __ __ __ __ __ __ __ __ __ __ __ __
 72
65
 73
2
 40
15.0
 49
12.0
 74
0
 49
-3.0
 74
0
  0
LTYPE
  5
4C
100
AcDbSymbolTableRecord
100
AcDbLinetypeTableRecord
  2
PHANTOM2
 70
0
  3
Phantom (.5x) ___ _ _ ___ _ _ ___ _ _ ___ _ _
 72
65
 73
6
 40
31.7500000000000036
 49
15.875
 74
0
 49
-3.1749999999999998
 74
0
 49
3.1749999999999998
 74
0
 49
-3.1749999999999998
 74
0
 49
3.1749999999999998
 74
0
 49
-3.1749999999999998
 74
0
  0
LTYPE
  5
4D
100
AcDbSymbolTableRecord
100
AcDbLinetypeTableRecord
  2
DASHED2
 70
0
  3
Dashed (.5x) _ _ _ _ _ _ _ _ _ _ _ _ _ _ _ _ _ 
 72
65
 73
2
 40
9.5249999999999986
 49
6.3499999999999996
 74
0
 49
-3.1749999999999998
 74
0
  0
LTYPE
  5
4E
100
AcDbSymbolTableRecord
100
AcDbLinetypeTableRecord
  2
ACAD_ISO09W100
 70
0
  3
ISO long-dash double-short-dash ____ __ __ ____
 72
65
 73
6
 40
45.0
 49
24.0
 74
0
 49
-3.0
 74
0
 49
6.0
 74
0
 49
-3.0
 74
0
 49
6.0
 74
0
 49
-3.0
 74
0
  0
LTYPE
  5
4F
100
AcDbSymbolTableRecord
100
AcDbLinetypeTableRecord
  2
ACAD_ISO13W100
 70
0
  3
ISO double-dash double-dot __ __ . . __ __ . . _
 72
65
 73
8
 40
36.0000000000000071
 49
12.0
 74
0
 49
-3.0
 74
0
 49
12.0
 74
0
 49
-2.9500000000000002
 74
0
 49
0.1
 74
0
 49
-2.9000000000000004
 74
0
 49
0.1
 74
0
 49
-2.9500000000000002
 74
0
  0
LTYPE
  5
50
100
AcDbSymbolTableRecord
100
AcDbLinetypeTableRecord
  2
TRACKS
 70
0
  3
Tracks -|-|-|-|-|-|-|-|-|-|-|-|-|-|-|-|-|-|-|-|-|-|-|-|-
 72
65
 73
2
 40
7.6200000000000001
 49
3.8100000000000001
 74
0
 49
3.8100000000000001
 74
0
  0
LTYPE
  5
51
100
AcDbSymbolTableRecord
100
AcDbLinetypeTableRecord
  2
DRAINAGE2
 70
0
  3
Drainage reversed----<----<----<----
 72
65
 73
2
 40
10.1600000000000001
 49
5.0800000000000001
 74
0
 49
5.0800000000000001
 74
0
  0
LTYPE
  5
52
100
AcDbSymbolTableRecord
100
AcDbLinetypeTableRecord
  2
DOT2
 70
0
  3
Dot (.5x) ........................................
 72
65
 73
2
 40
3.1749999999999998
 49
0.1
 74
0
 49
-3.0749999999999997
 74
0
  0
LTYPE
  5
53
100
AcDbSymbolTableRecord
100
AcDbLinetypeTableRecord
  2
ZIGZAG
 70
0
  3
Zig zag /\/\/\/\/\/\/\/\/\/\/\/\/\/\/\/\/\/\/\/\/\/\/\/
 72
65
 73
4
 40
20.32254
 49
0.00254
 74
0
 49
-5.0800000000000001
 74
0
 49
-10.1600000000000001
 74
0
 49
-5.0800000000000001
 74
0
  0
LTYPE
  5
54
100
AcDbSymbolTableRecord
100
AcDbLinetypeTableRecord
  2
DASHED
 70
0
  3
Dashed __ __ __ __ __ __ __ __ __ __ __ __ __ _
 72
65
 73
2
 40
19.0499999999999972
 49
12.6999999999999993
 74
0
 49
-6.3499999999999996
 74
0
  0
LTYPE
  5
55
100
AcDbSymbolTableRecord
100
AcDbLinetypeTableRecord
  2
ACAD_ISO14W100
 70
0
  3
ISO dash triple-dot __ . . . __ . . . __ . . . _
 72
65
 73
8
 40
24.0000000000000036
 49
12.0
 74
0
 49
-2.9500000000000002
 74
0
 49
0.1
 74
0
 49
-2.9000000000000004
 74
0
 49
0.1
 74
0
 49
-2.9000000000000004
 74
0
 49
0.1
 74
0
 49
-2.9500000000000002
 74
0
  0
LTYPE
  5
15
100
AcDbSymbolTableRecord
100
AcDbLinetypeTableRecord
  2
BYLAYER
 70
0
  3

 72
65
 73
0
 40
0.0
  0
LTYPE
  5
56
100
AcDbSymbolTableRecord
100
AcDbLinetypeTableRecord
  2
PHANTOMX2
 70
0
  3
Phantom (2x) ____________    ____    ____   _
 72
65
 73
6
 40
127.0000000000000142
 49
63.5
 74
0
 49
-12.6999999999999993
 74
0
 49
12.6999999999999993
 74
0
 49
-12.6999999999999993
 74
0
 49
12.6999999999999993
 74
0
 49
-12.6999999999999993
 74
0
  0
LTYPE
  5
14
100
AcDbSymbolTableRecord
100
AcDbLinetypeTableRecord
  2
BYBLOCK
 70
0
  3

 72
65
 73
0
 40
0.0
  0
LTYPE
  5
57
100
AcDbSymbolTableRecord
100
AcDbLinetypeTableRecord
  2
DIVIDEX2
 70
0
  3
Divide (2x) ________  .  .  ________  .  .  _
 72
65
 73
6
 40
63.5
 49
25.3999999999999986
 74
0
 49
-12.6499999999999986
 74
0
 49
0.1
 74
0
 49
-12.5999999999999979
 74
0
 49
0.1
 74
0
 49
-12.6499999999999986
 74
0
  0
LTYPE
  5
58
100
AcDbSymbolTableRecord
100
AcDbLinetypeTableRecord
  2
BORDER
 70
0
  3
Border __ __ . __ __ . __ __ . __ __ . __ __ .
 72
65
 73
6
 40
44.4499999999999957
 49
12.6999999999999993
 74
0
 49
-6.3499999999999996
 74
0
 49
12.6999999999999993
 74
0
 49
-6.2999999999999998
 74
0
 49
0.1
 74
0
 49
-6.2999999999999998
 74
0
  0
LTYPE
  5
59
100
AcDbSymbolTableRecord
100
AcDbLinetypeTableRecord
  2
DIVIDE2
 70
0
  3
Divide (.5x) __..__..__..__..__..__..__..__.._
 72
65
 73
6
 40
15.8749999999999982
 49
6.3499999999999996
 74
0
 49
-3.125
 74
0
 49
0.1
 74
0
 49
-3.0750000000000002
 74
0
 49
0.1
 74
0
 49
-3.125
 74
0
  0
LTYPE
  5
5A
100
AcDbSymbolTableRecord
100
AcDbLinetypeTableRecord
  2
DOT
 70
0
  3
Dot . . . . . . . . . . . . . . . . . . . . . . . .
 72
65
 73
2
 40
6.3499999999999996
 49
0.1
 74
0
 49
-6.25
 74
0
  0
LTYPE
  5
5B
100
AcDbSymbolTableRecord
100
AcDbLinetypeTableRecord
  2
DASHDOT
 70
0
  3
Dash dot __ . __ . __ . __ . __ . __ . __ . __
 72
65
 73
4
 40
25.4000000000000021
 49
12.6999999999999993
 74
0
 49
-6.2999999999999998
 74
0
 49
0.1
 74
0
 49
-6.2999999999999998
 74
0
  0
LTYPE
  5
5C
100
AcDbSymbolTableRecord
100
AcDbLinetypeTableRecord
  2
FENCELINE1
 70
0
  3
Fenceline circle ----0-----0----0-----0----0-----0--
 72
65
 73
4
 40
36.8299999999999983
 49
6.3499999999999996
 74
0
 49
-2.54
 74
0
 49
-2.54
 74
0
 49
25.3999999999999986
 74
0
  0
LTYPE
  5
5D
100
AcDbSymbolTableRecord
100
AcDbLinetypeTableRecord
  2
BATTING
 70
0
  3
Batting SSSSSSSSSSSSSSSSSSSSSSSSSSSSSSSSSSSSSSSSSSSSSSS
 72
65
 73
4
 40
10.1625399999999999
 49
0.00254
 74
0
 49
-2.54
 74
0
 49
-5.0800000000000001
 74
0
 49
-2.54
 74
0
  0
LTYPE
  5
5E
100
AcDbSymbolTableRecord
100
AcDbLinetypeTableRecord
  2
ACAD_ISO03W100
 70
0
  3
ISO dash space __    __    __    __    __    __
 72
65
 73
2
 40
30.0
 49
12.0
 74
0
 49
-18.0
 74
0
  0
LTYPE
  5
5F
100
AcDbSymbolTableRecord
100
AcDbLinetypeTableRecord
  2
FENCELINE2
 70
0
  3
Fenceline square ----[]-----[]----[]-----[]----[]---
 72
65
 73
4
 40
36.8299999999999983
 49
6.3499999999999996
 74
0
 49
-2.54
 74
0
 49
-2.54
 74
0
 49
25.3999999999999986
 74
0
  0
ENDTAB
  0
TABLE
  2
LAYER
  5
2
100
AcDbSymbolTable
 70
1
  0
LAYER
  5
10
100
AcDbSymbolTableRecord
100
AcDbLayerTableRecord
  2
0
 70
0
 62
7
420
16777215
  6
Continuous
370
25
390
F
  0
ENDTAB
  0
TABLE
  2
STYLE
  5
3
100
AcDbSymbolTable
 70
1
  0
STYLE
  5
60
100
AcDbSymbolTableRecord
100
AcDbTextStyleTableRecord
  2
Standard
 70
0
 40
0.0
 41
1.0
 50
0.0
 71
0
 42
2.5
  3

  4

1001
ACAD
1000
txt
1071
0
  0
ENDTAB
  0
TABLE
  2
VIEW
  5
6
100
AcDbSymbolTable
 70
0
  0
ENDTAB
  0
TABLE
  2
UCS
  5
7
100
AcDbSymbolTable
 70
0
  0
ENDTAB
  0
TABLE
  2
APPID
  5
9
100
AcDbSymbolTable
 70
1
  0
APPID
  5
12
100
AcDbSymbolTableRecord
100
AcDbRegAppTableRecord
  2
ACAD
 70
0
  0
APPID
  5
61
100
AcDbSymbolTableRecord
100
AcDbRegAppTableRecord
  2
QCAD
 70
0
  0
ENDTAB
  0
TABLE
  2
DIMSTYLE
  5
A
100
AcDbSymbolTable
 70
1
100
AcDbDimStyleTable
 71
0
  0
DIMSTYLE
105
27
100
AcDbSymbolTableRecord
100
AcDbDimStyleTableRecord
  2
Standard
 41
0.125
 42
0.03125
 43
3.75
 44
0.0625
 70
0
 73
0
 74
0
 77
1
 78
8
140
0.125
141
2.5
143
0.03937007874016
147
0.03125
171
3
172
1
271
2
272
2
274
3
278
44
283
0
284
8
340
60
  0
ENDTAB
  0
TABLE
  2
BLOCK_RECORD
  5
1
100
AcDbSymbolTable
 70
1
  0
BLOCK_RECORD
  5
1F
100
AcDbSymbolTableRecord
100
AcDbBlockTableRecord
  2
*Model_Space
340
22
  0
BLOCK_RECORD
  5
1B
100
AcDbSymbolTableRecord
100
AcDbBlockTableRecord
  2
*Paper_Space
340
1E
  0
BLOCK_RECORD
  5
23
100
AcDbSymbolTableRecord
100
AcDbBlockTableRecord
  2
*Paper_Space0
340
26
  0
ENDTAB
  0
ENDSEC
  0
SECTION
  2
BLOCKS
  0
BLOCK
  5
20
100
AcDbEntity
  8
0
100
AcDbBlockBegin
  2
*Model_Space
 70
0
 10
0.0
 20
0.0
 30
0.0
  3
*Model_Space
  1

  0
ENDBLK
  5
21
100
AcDbEntity
  8
0
100
AcDbBlockEnd
  0
BLOCK
  5
1C
100
AcDbEntity
 67
1
  8
0
100
AcDbBlockBegin
  2
*Paper_Space
 70
0
 10
0.0
 20
0.0
 30
0.0
  3
*Paper_Space
  1

  0
ENDBLK
  5
1D
100
AcDbEntity
 67
1
  8
0
100
AcDbBlockEnd
  0
BLOCK
  5
24
100
AcDbEntity
  8
0
100
AcDbBlockBegin
  2
*Paper_Space0
 70
0
 10
0.0
 20
0.0
 30
0.0
  3
*Paper_Space0
  1

  0
ENDBLK
  5
25
100
AcDbEntity
  8
0
100
AcDbBlockEnd
  0
ENDSEC
  0
SECTION
  2
ENTITIES
  0
LINE
  5
62
100
AcDbEntity
100
AcDbLine
  8
0
 62
6
420
16711935
370
-1
 48
1.0
  6
BYLAYER
 10
8.8697007192108117
 20
-0.8209193361851463
 30
0.0
 11
9.006200719210824
 21
-0.8209193361851463
 31
0.0
  0
LINE
  5
63
100
AcDbEntity
100
AcDbLine
  8
0
 62
6
420
16711935
370
-1
 48
1.0
  6
BYLAYER
 10
9.1427007192108505
 20
-0.1209193361851622
 30
0.0
 11
9.2792007192108628
 21
-0.1209193361851622
 31
0.0
  0
LINE
  5
64
100
AcDbEntity
100
AcDbLine
  8
0
 62
6
420
16711935
370
-1
 48
1.0
  6
BYLAYER
 10
9.1427007192108078
 20
-0.8209193361851437
 30
0.0
 11
9.2792007192108201
 21
-0.8209193361851437
 31
0.0
  0
LINE
  5
65
100
AcDbEntity
100
AcDbLine
  8
0
 62
6
420
16711935
370
-1
 48
1.0
  6
BYLAYER
 10
6.4809622659240205
 20
-0.8209193361851437
 30
0.0
 11
6.3444622659240082
 21
-0.8209193361851437
 31
0.0
  0
LINE
  5
66
100
AcDbEntity
100
AcDbLine
  8
0
 62
6
420
16711935
370
-1
 48
1.0
  6
BYLAYER
 10
6.753962265924045
 20
-0.1209193361851622
 30
0.0
 11
6.6174622659240327
 21
-0.1209193361851622
 31
0.0
  0
LINE
  5
67
100
AcDbEntity
100
AcDbLine
  8
0
 62
6
420
16711935
370
-1
 48
1.0
  6
BYLAYER
 10
6.4809622659240063
 20
-0.1209193361851613
 30
0.0
 11
6.344462265923994
 21
-0.1209193361851613
 31
0.0
  0
LINE
  5
68
100
AcDbEntity
100
AcDbLine
  8
0
 62
6
420
16711935
370
-1
 48
1.0
  6
BYLAYER
 10
6.7539622659241161
 20
-0.8209193361851428
 30
0.0
 11
6.6174622659241038
 21
-0.8209193361851428
 31
0.0
  0
LINE
  5
69
100
AcDbEntity
100
AcDbLine
  8
0
 62
3
420
65280
370
-1
 48
1.0
  6
BYLAYER
 10
8.1110598471851176
 20
-1.5728770799097882
 30
0.0
 11
8.1698826285793302
 21
-1.6068384285823241
 31
0.0
  0
LINE
  5
6A
100
AcDbEntity
100
AcDbLine
  8
0
 62
3
420
65280
370
-1
 48
1.0
  6
BYLAYER
 10
7.1005338099970174
 20
-1.2576283849175773
 30
0.0
 11
7.050278521585355
 21
-1.2866432892102173
 31
0.0
  0
LINE
  5
6B
100
AcDbEntity
100
AcDbLine
  8
0
 62
3
420
65280
370
-1
 48
1.0
  6
BYLAYER
 10
7.2745787545917295
 20
-1.1571434893046817
 30
0.0
 11
7.2156597028064056
 21
-1.1911604197133814
 31
0.0
  0
LINE
  5
6C
100
AcDbEntity
100
AcDbLine
  8
0
 62
3
420
65280
370
-1
 48
1.0
  6
BYLAYER
 10
7.5624045425671511
 20
-0.6418078752573866
 30
0.0
 11
7.562404542567208
 21
-0.6077896381097538
 31
0.0
  0
LINE
  5
6D
100
AcDbEntity
100
AcDbLine
  8
0
 62
1
420
16711680
370
-1
 48
1.0
  6
BYLAYER
 10
7.6524045425676377
 20
-0.0470706638148464
 30
0.0
 11
7.9712584425674322
 21
-0.0470706638148473
 31
0.0
  0
LINE
  5
6E
100
AcDbEntity
100
AcDbLine
  8
0
 62
3
420
65280
370
-1
 48
1.0
  6
BYLAYER
 10
6.9491864675985227
 20
-1.7830140982933305
 30
0.0
 11
6.8097595175985077
 21
-1.5415195369489911
 31
0.0
  0
LINE
  5
6F
100
AcDbEntity
100
AcDbLine
  8
0
 62
3
420
65280
370
-1
 48
1.0
  6
BYLAYER
 10
7.090513423270238
 20
-1.3563321831657946
 30
0.0
 11
7.050278521585355
 21
-1.2866432892102173
 31
0.0
  0
LINE
  5
70
100
AcDbEntity
100
AcDbLine
  8
0
 62
3
420
65280
370
-1
 48
1.0
  6
BYLAYER
 10
7.5624045425671511
 20
-0.6418078752573866
 30
0.0
 11
7.652404542567524
 21
-0.6418078752572098
 31
0.0
  0
LINE
  5
71
100
AcDbEntity
100
AcDbLine
  8
0
 62
3
420
65280
370
-1
 48
1.0
  6
BYLAYER
 10
8.3608985954247999
 20
-1.1401436742594093
 30
0.0
 11
8.3107204416753149
 21
-1.2270547859837375
 31
0.0
  0
LINE
  5
72
100
AcDbEntity
100
AcDbLine
  8
0
 62
3
420
65280
370
-1
 48
1.0
  6
BYLAYER
 10
7.5244440220136823
 20
-1.5899228275261565
 30
0.0
 11
7.4742406062763393
 21
-1.5029679607560738
 31
0.0
  0
LINE
  5
73
100
AcDbEntity
100
AcDbLine
  8
0
 62
3
420
65280
370
-1
 48
1.0
  6
BYLAYER
 10
7.9712585497929354
 20
-0.6418078752573866
 30
0.0
 11
8.0612585497928677
 21
-0.6418078752573866
 31
0.0
  0
LINE
  5
74
100
AcDbEntity
100
AcDbLine
  8
0
 62
3
420
65280
370
-1
 48
1.0
  6
BYLAYER
 10
8.151293491675176
 20
-1.5031903634793249
 30
0.0
 11
8.1110598471851176
 21
-1.5728770799097882
 31
0.0
  0
LINE
  5
75
100
AcDbEntity
100
AcDbLine
  8
0
 62
3
420
65280
370
-1
 48
1.0
  6
BYLAYER
 10
7.3148136562765274
 20
-1.2268323832603532
 30
0.0
 11
7.2745787545917295
 21
-1.1571434893046817
 31
0.0
  0
LINE
  5
76
100
AcDbEntity
100
AcDbLine
  8
0
 62
3
420
65280
370
-1
 48
1.0
  6
BYLAYER
 10
9.1089778910140495
 20
-1.5288654182435417
 30
0.0
 11
9.0890706057624016
 21
-1.8605258477402193
 31
0.0
  0
LINE
  5
77
100
AcDbEntity
100
AcDbLine
  8
0
 62
3
420
65280
370
-1
 48
1.0
  6
BYLAYER
 10
7.0908645160996144
 20
-2.2265276766144444
 30
0.0
 11
6.5363190866028873
 21
-1.8603868176210918
 31
0.0
  0
LINE
  5
78
100
AcDbEntity
100
AcDbLine
  8
0
 62
3
420
65280
370
-1
 48
1.0
  6
BYLAYER
 10
9.0890706057624016
 20
-1.8605258477402193
 30
0.0
 11
8.5345251762656602
 21
-2.2266667067335737
 31
0.0
  0
LINE
  5
79
100
AcDbEntity
100
AcDbLine
  8
0
 62
3
420
65280
370
-1
 48
1.0
  6
BYLAYER
 10
6.5363190866028873
 20
-1.8603868176210918
 30
0.0
 11
6.5164118013512393
 21
-1.5287263881243964
 31
0.0
  0
LINE
  5
7A
100
AcDbEntity
100
AcDbLine
  8
0
 62
3
420
65280
370
-1
 48
1.0
  6
BYLAYER
 10
8.7068493061750303
 20
-2.3243349510878941
 30
0.0
 11
8.7068493061750303
 21
-2.3243349510878941
 31
0.0
  0
LINE
  5
7B
100
AcDbEntity
100
AcDbLine
  8
0
 62
3
420
65280
370
-1
 48
1.0
  6
BYLAYER
 10
8.5467266801146593
 20
-2.233711248265343
 30
0.0
 11
8.5467266801146593
 21
-2.233711248265343
 31
0.0
  0
LINE
  5
7C
100
AcDbEntity
100
AcDbLine
  8
0
 62
3
420
65280
370
-1
 48
1.0
  6
BYLAYER
 10
6.5216339149731652
 20
-1.1825574934234862
 30
0.0
 11
6.5216339149731652
 21
-1.1825574934234862
 31
0.0
  0
LINE
  5
7D
100
AcDbEntity
100
AcDbLine
  8
0
 62
3
420
65280
370
-1
 48
1.0
  6
BYLAYER
 10
8.5345251762656602
 20
-2.2266667067335737
 30
0.0
 11
8.4002957930227495
 21
-2.1491693361851345
 31
0.0
  0
ARC
  5
7E
100
AcDbEntity
  8
0
 62
3
420
65280
370
-1
 48
1.0
  6
BYLAYER
100
AcDbCircle
 10
7.8125744425674526
 20
-1.1235404443002945
 30
0.0
 40
0.3009394317052707
100
AcDbArc
 50
122.1564549379602909
 51
178.010472988906173
  0
ARC
  5
7F
100
AcDbEntity
  8
0
 62
3
420
65280
370
-1
 48
1.0
  6
BYLAYER
100
AcDbCircle
 10
7.8125744425674526
 20
-1.1235404443002945
 30
0.0
 40
0.3009394317052707
100
AcDbArc
 50
1.9895270111452892
 51
58.2465658153527173
  0
ARC
  5
80
100
AcDbEntity
  8
0
 62
3
420
65280
370
-1
 48
1.0
  6
BYLAYER
100
AcDbCircle
 10
7.8125744425674526
 20
-1.1235404443002945
 30
0.0
 40
0.3009394317052707
100
AcDbArc
 50
241.9895270111169339
 51
298.0104729889320083
  0
LINE
  5
81
100
AcDbEntity
100
AcDbLine
  8
0
 62
3
420
65280
370
-1
 48
1.0
  6
BYLAYER
 10
7.2174714925673698
 20
-0.5737714009618644
 30
0.0
 11
7.2174714925674266
 21
-0.4291693361846107
 31
0.0
  0
LINE
  5
82
100
AcDbEntity
100
AcDbLine
  8
0
 62
3
420
65280
370
-1
 48
1.0
  6
BYLAYER
 10
8.4061914925674586
 20
-0.4291693361852733
 30
0.0
 11
8.4061914925672596
 21
-0.3801379547582622
 31
0.0
  0
LINE
  5
83
100
AcDbEntity
100
AcDbLine
  8
0
 62
3
420
65280
370
-1
 48
1.0
  6
BYLAYER
 10
7.950186760336905
 20
-1.889298764999336
 30
0.0
 11
7.9092569958012007
 21
-1.9601911967169618
 31
0.0
  0
LINE
  5
84
100
AcDbEntity
100
AcDbLine
  8
0
 62
3
420
65280
370
-1
 48
1.0
  6
BYLAYER
 10
8.1415783745732284
 20
-1.9997987649993982
 30
0.0
 11
8.1006486100375241
 21
-2.0706911967170223
 31
0.0
  0
LINE
  5
85
100
AcDbEntity
100
AcDbLine
  8
0
 62
3
420
65280
370
-1
 48
1.0
  6
BYLAYER
 10
6.848569688451704
 20
-0.8992777943077082
 30
0.0
 11
6.8894994529873657
 21
-0.9701702260253589
 31
0.0
  0
LINE
  5
86
100
AcDbEntity
100
AcDbLine
  8
0
 62
3
420
65280
370
-1
 48
1.0
  6
BYLAYER
 10
7.0399613026880985
 20
-0.7887777943077632
 30
0.0
 11
7.0808910672237602
 21
-0.8596702260254139
 31
0.0
  0
LINE
  5
87
100
AcDbEntity
100
AcDbLine
  8
0
 62
3
420
65280
370
-1
 48
1.0
  6
BYLAYER
 10
7.9501867603368908
 20
-1.8892987649993369
 30
0.0
 11
7.9926497480692262
 21
-1.9138147823972229
 31
0.0
  0
CIRCLE
  5
88
100
AcDbEntity
100
AcDbCircle
  8
0
 62
6
420
16711935
370
-1
 48
1.0
  6
BYLAYER
 10
8.2946608108111661
 20
-0.8438114703589514
 30
0.0
 40
0.0544830000000068
  0
CIRCLE
  5
89
100
AcDbEntity
100
AcDbCircle
  8
0
 62
6
420
16711935
370
-1
 48
1.0
  6
BYLAYER
 10
7.8118314925674355
 20
0.1222721558740067
 30
0.0
 40
0.0544830000000068
  0
CIRCLE
  5
8A
100
AcDbEntity
100
AcDbCircle
  8
0
 62
6
420
16711935
370
-1
 48
1.0
  6
BYLAYER
 10
7.3304880743239664
 20
-0.8438114703582773
 30
0.0
 40
0.0544830000000068
  0
CIRCLE
  5
8B
100
AcDbEntity
100
AcDbCircle
  8
0
 62
6
420
16711935
370
-1
 48
1.0
  6
BYLAYER
 10
7.8125744425671115
 20
-1.6812250948255025
 30
0.0
 40
0.0544830000000068
  0
LINE
  5
8C
100
AcDbEntity
100
AcDbLine
  8
0
 62
3
420
65280
370
-1
 48
1.0
  6
BYLAYER
 10
8.3608985954247999
 20
-1.1401436742594093
 30
0.0
 11
8.4197213768192398
 21
-1.1741050229320624
 31
0.0
  0
LINE
  5
8D
100
AcDbEntity
100
AcDbLine
  8
0
 62
3
420
65280
370
-1
 48
1.0
  6
BYLAYER
 10
8.5261388803955924
 20
-1.2355451972683218
 30
0.0
 11
8.5851781853628495
 21
-1.2696315558839233
 31
0.0
  0
LINE
  5
8E
100
AcDbEntity
100
AcDbLine
  8
0
 62
3
420
65280
370
-1
 48
1.0
  6
BYLAYER
 10
8.0612585497928819
 20
-0.6418078752573866
 30
0.0
 11
8.0612585497928819
 21
-0.607789638109967
 31
0.0
  0
LINE
  5
8F
100
AcDbEntity
100
AcDbLine
  8
0
 62
6
420
16711935
370
-1
 48
1.0
  6
BYLAYER
 10
8.8697007192108401
 20
-0.1209193361851639
 30
0.0
 11
8.8697007192108401
 21
-0.8209193361851455
 31
0.0
  0
LINE
  5
90
100
AcDbEntity
100
AcDbLine
  8
0
 62
6
420
16711935
370
-1
 48
1.0
  6
BYLAYER
 10
9.1427007192108363
 20
-0.1209193361851613
 30
0.0
 11
9.1427007192108363
 21
-0.8209193361851428
 31
0.0
  0
LINE
  5
91
100
AcDbEntity
100
AcDbLine
  8
0
 62
6
420
16711935
370
-1
 48
1.0
  6
BYLAYER
 10
9.2792007192108485
 20
-0.1209193361851622
 30
0.0
 11
9.2792007192108485
 21
-0.8209193361851437
 31
0.0
  0
LINE
  5
92
100
AcDbEntity
100
AcDbLine
  8
0
 62
6
420
16711935
370
-1
 48
1.0
  6
BYLAYER
 10
9.1427007192108505
 20
-0.1209193361851622
 30
0.0
 11
9.1427007192108505
 21
-0.8209193361851437
 31
0.0
  0
LINE
  5
93
100
AcDbEntity
100
AcDbLine
  8
0
 62
6
420
16711935
370
-1
 48
1.0
  6
BYLAYER
 10
6.480962265923992
 20
-0.1209193361851613
 30
0.0
 11
6.480962265923992
 21
-0.8209193361851428
 31
0.0
  0
LINE
  5
94
100
AcDbEntity
100
AcDbLine
  8
0
 62
6
420
16711935
370
-1
 48
1.0
  6
BYLAYER
 10
6.3444622659239798
 20
-0.1209193361851622
 30
0.0
 11
6.3444622659239798
 21
-0.8209193361851437
 31
0.0
  0
LINE
  5
95
100
AcDbEntity
100
AcDbLine
  8
0
 62
6
420
16711935
370
-1
 48
1.0
  6
BYLAYER
 10
6.6174622659240754
 20
-0.1209193361851613
 30
0.0
 11
6.6174622659240754
 21
-0.8209193361851428
 31
0.0
  0
LINE
  5
96
100
AcDbEntity
100
AcDbLine
  8
0
 62
6
420
16711935
370
-1
 48
1.0
  6
BYLAYER
 10
-1.0
 20
-2.0
 30
0.0
 11
-1.0
 21
-2.6999999999999815
 31
0.0
  0
LINE
  5
97
100
AcDbEntity
100
AcDbLine
  8
0
 62
6
420
16711935
370
-1
 48
1.0
  6
BYLAYER
 10
1.1157384499999998
 20
-2.0
 30
0.0
 11
1.1157384499999998
 21
-2.6999999999999815
 31
0.0
  0
LINE
  5
98
100
AcDbEntity
100
AcDbLine
  8
0
 62
6
420
16711935
370
-1
 48
1.0
  6
BYLAYER
 10
6.7539622659240877
 20
-0.1209193361851604
 30
0.0
 11
6.7539622659240877
 21
-0.8209193361851419
 31
0.0
  0
LINE
  5
99
100
AcDbEntity
100
AcDbLine
  8
0
 62
6
420
16711935
370
-1
 48
1.0
  6
BYLAYER
 10
9.1427007192108221
 20
-0.1209193361851613
 30
0.0
 11
9.1427007192108221
 21
-0.8209193361851428
 31
0.0
  0
LINE
  5
9A
100
AcDbEntity
100
AcDbLine
  8
0
 62
6
420
16711935
370
-1
 48
1.0
  6
BYLAYER
 10
9.0062007192108098
 20
-0.1209193361851604
 30
0.0
 11
9.0062007192108098
 21
-0.8209193361851419
 31
0.0
  0
LINE
  5
9B
100
AcDbEntity
100
AcDbLine
  8
0
 62
3
420
65280
370
-1
 48
1.0
  6
BYLAYER
 10
6.3444622659240792
 20
0.1335573781228945
 30
0.0
 11
6.4809622659240347
 21
0.1335573781228945
 31
0.0
  0
LINE
  5
9C
100
AcDbEntity
100
AcDbLine
  8
0
 62
3
420
65280
370
-1
 48
1.0
  6
BYLAYER
 10
9.2792007192107775
 20
0.1335573781228829
 30
0.0
 11
9.1427007192108221
 21
0.1335573781228829
 31
0.0
  0
LINE
  5
9D
100
AcDbEntity
100
AcDbLine
  8
0
 62
3
420
65280
370
-1
 48
1.0
  6
BYLAYER
 10
9.1427007192108078
 20
0.0790806638148398
 30
0.0
 11
9.0062007192108524
 21
0.0790806638148398
 31
0.0
  0
LINE
  5
9E
100
AcDbEntity
100
AcDbLine
  8
0
 62
3
420
65280
370
-1
 48
1.0
  6
BYLAYER
 10
6.4809622659240489
 20
0.0790806638148398
 30
0.0
 11
6.6174622659240043
 21
0.0790806638148398
 31
0.0
  0
LINE
  5
9F
100
AcDbEntity
100
AcDbLine
  8
0
 62
3
420
65280
370
-1
 48
1.0
  6
BYLAYER
 10
9.0062007192108524
 20
0.0790806638148398
 30
0.0
 11
9.0062007192108524
 21
0.1335573781228829
 31
0.0
  0
LINE
  5
A0
100
AcDbEntity
100
AcDbLine
  8
0
 62
3
420
65280
370
-1
 48
1.0
  6
BYLAYER
 10
9.1427007192108078
 20
0.0790806638148398
 30
0.0
 11
9.1427007192108078
 21
0.1335573781228829
 31
0.0
  0
LINE
  5
A1
100
AcDbEntity
100
AcDbLine
  8
0
 62
3
420
65280
370
-1
 48
1.0
  6
BYLAYER
 10
9.1427007192108078
 20
0.0790806638148389
 30
0.0
 11
9.1427007192108078
 21
0.133557378122882
 31
0.0
  0
LINE
  5
A2
100
AcDbEntity
100
AcDbLine
  8
0
 62
3
420
65280
370
-1
 48
1.0
  6
BYLAYER
 10
6.6174622659240896
 20
0.0790806638148398
 30
0.0
 11
6.6174622659240896
 21
0.1335573781228829
 31
0.0
  0
LINE
  5
A3
100
AcDbEntity
100
AcDbLine
  8
0
 62
3
420
65280
370
-1
 48
1.0
  6
BYLAYER
 10
6.4809622659240489
 20
0.0790806638148398
 30
0.0
 11
6.4809622659240489
 21
0.1335573781228829
 31
0.0
  0
LINE
  5
A4
100
AcDbEntity
100
AcDbLine
  8
0
 62
3
420
65280
370
-1
 48
1.0
  6
BYLAYER
 10
6.4809622659240347
 20
0.0790806638148389
 30
0.0
 11
6.4809622659240347
 21
0.133557378122882
 31
0.0
  0
LINE
  5
A5
100
AcDbEntity
100
AcDbLine
  8
0
 62
3
420
65280
370
-1
 48
1.0
  6
BYLAYER
 10
9.2792007192107775
 20
0.133557378122882
 30
0.0
 11
9.4174622659240299
 21
-0.0491693361851366
 31
0.0
  0
LINE
  5
A6
100
AcDbEntity
100
AcDbLine
  8
0
 62
3
420
65280
370
-1
 48
1.0
  6
BYLAYER
 10
9.0062007192108524
 20
0.1335573781228829
 30
0.0
 11
8.8073547782593806
 21
0.1335573781228838
 31
0.0
  0
LINE
  5
A7
100
AcDbEntity
100
AcDbLine
  8
0
 62
3
420
65280
370
-1
 48
1.0
  6
BYLAYER
 10
6.344462265924065
 20
0.133557378122882
 30
0.0
 11
6.2062007192108126
 21
-0.0491693361851366
 31
0.0
  0
LINE
  5
A8
100
AcDbEntity
100
AcDbLine
  8
0
 62
3
420
65280
370
-1
 48
1.0
  6
BYLAYER
 10
6.6174622659240896
 20
0.1335573781228829
 30
0.0
 11
6.8163082068755045
 21
0.1335573781228829
 31
0.0
  0
LINE
  5
A9
100
AcDbEntity
100
AcDbLine
  8
0
 62
3
420
65280
370
-1
 48
1.0
  6
BYLAYER
 10
9.4174622659240299
 20
-1.1266219676094611
 30
0.0
 11
9.4174622659240299
 21
-0.0491693361851366
 31
0.0
  0
LINE
  5
AA
100
AcDbEntity
100
AcDbLine
  8
0
 62
3
420
65280
370
-1
 48
1.0
  6
BYLAYER
 10
6.2062007192107984
 20
-1.1267858966740052
 30
0.0
 11
6.2062007192108126
 21
-0.0491693361851366
 31
0.0
  0
LINE
  5
AB
100
AcDbEntity
100
AcDbLine
  8
0
 62
3
420
65280
370
-1
 48
1.0
  6
BYLAYER
 10
7.0151541478268911
 20
-0.0491693361851349
 30
0.0
 11
6.8163082068754903
 21
0.1335573781228829
 31
0.0
  0
LINE
  5
AC
100
AcDbEntity
100
AcDbLine
  8
0
 62
1
420
16711680
370
-1
 48
1.0
  6
BYLAYER
 10
7.5624045425675064
 20
-0.4291693361847244
 30
0.0
 11
7.5624045425676343
 21
-0.3628388059107648
 31
0.0
  0
LINE
  5
AD
100
AcDbEntity
100
AcDbLine
  8
0
 62
1
420
16711680
370
-1
 48
1.0
  6
BYLAYER
 10
8.0612585429085328
 20
-0.4291693361850513
 30
0.0
 11
8.0612585429085328
 21
-0.3628388059107674
 31
0.0
  0
LINE
  5
AE
100
AcDbEntity
100
AcDbLine
  8
0
 62
3
420
65280
370
-1
 48
1.0
  6
BYLAYER
 10
7.2666880711797432
 20
-0.23058583560681
 30
0.0
 11
7.2666880711797575
 21
-0.1390858356068154
 31
0.0
  0
LINE
  5
AF
100
AcDbEntity
100
AcDbLine
  8
0
 62
3
420
65280
370
-1
 48
1.0
  6
BYLAYER
 10
8.3569750211804177
 20
-0.230585835607144
 30
0.0
 11
8.3569750211804035
 21
-0.1390858356071485
 31
0.0
  0
LINE
  5
B0
100
AcDbEntity
100
AcDbLine
  8
0
 62
1
420
16711680
370
-1
 48
1.0
  6
BYLAYER
 10
7.513188071179755
 20
-0.2305858356068216
 30
0.0
 11
7.5131880711797407
 21
-0.1390858356068145
 31
0.0
  0
LINE
  5
B1
100
AcDbEntity
100
AcDbLine
  8
0
 62
1
420
16711680
370
-1
 48
1.0
  6
BYLAYER
 10
8.110475021180406
 20
-0.2305858356071546
 30
0.0
 11
8.1104750211804202
 21
-0.1390858356071476
 31
0.0
  0
ARC
  5
B2
100
AcDbEntity
  8
0
 62
3
420
65280
370
-1
 48
1.0
  6
BYLAYER
100
AcDbCircle
 10
3.4713961030678924
 20
1.4936422859081815
 30
0.0
 40
0.0960000000000001
100
AcDbArc
 50
126.8698976458433236
 51
53.1301023541566764
  0
LINE
  5
B3
100
AcDbEntity
100
AcDbLine
  8
0
 62
3
420
65280
370
-1
 48
1.0
  6
BYLAYER
 10
7.652404542567524
 20
-0.8687657503272144
 30
0.0
 11
7.652404542567524
 21
-0.6418078752572098
 31
0.0
  0
LINE
  5
B4
100
AcDbEntity
100
AcDbLine
  8
0
 62
1
420
16711680
370
-1
 48
1.0
  6
BYLAYER
 10
7.6524045425676377
 20
-0.3628388059107621
 30
0.0
 11
7.6524045425676377
 21
-0.0470706638148499
 31
0.0
  0
LINE
  5
B5
100
AcDbEntity
100
AcDbLine
  8
0
 62
1
420
16711680
370
-1
 48
1.0
  6
BYLAYER
 10
7.9712585429085294
 20
-0.3628388059107674
 30
0.0
 11
7.9712584425674322
 21
-0.0470706638148473
 31
0.0
  0
LINE
  5
B6
100
AcDbEntity
100
AcDbLine
  8
0
 62
3
420
65280
370
-1
 48
1.0
  6
BYLAYER
 10
8.1133324648347127
 20
-1.1130927844198908
 30
0.0
 11
8.3107204416753007
 21
-1.2270547859837242
 31
0.0
  0
LINE
  5
B7
100
AcDbEntity
100
AcDbLine
  8
0
 62
3
420
65280
370
-1
 48
1.0
  6
BYLAYER
 10
7.9539055148349149
 20
-1.3892283619157215
 30
0.0
 11
8.1512934916751618
 21
-1.5031903634793222
 31
0.0
  0
LINE
  5
B8
100
AcDbEntity
100
AcDbLine
  8
0
 62
3
420
65280
370
-1
 48
1.0
  6
BYLAYER
 10
8.3755730816133678
 20
-1.632678245103854
 30
0.0
 11
8.6662032247667611
 21
-1.8004736364880367
 31
0.0
  0
LINE
  5
B9
100
AcDbEntity
100
AcDbLine
  8
0
 62
3
420
65280
370
-1
 48
1.0
  6
BYLAYER
 10
8.5350000316133787
 20
-1.3565426676081351
 30
0.0
 11
8.825630174766772
 21
-1.524338058992317
 31
0.0
  0
LINE
  5
BA
100
AcDbEntity
100
AcDbLine
  8
0
 62
3
420
65280
370
-1
 48
1.0
  6
BYLAYER
 10
7.5118164203001783
 20
-1.1130927844201643
 30
0.0
 11
7.3148136562764847
 21
-1.226832383260386
 31
0.0
  0
LINE
  5
BB
100
AcDbEntity
100
AcDbLine
  8
0
 62
3
420
65280
370
-1
 48
1.0
  6
BYLAYER
 10
7.6712433703002176
 20
-1.3892283619158405
 30
0.0
 11
7.4742406062762825
 21
-1.5029679607561066
 31
0.0
  0
LINE
  5
BC
100
AcDbEntity
100
AcDbLine
  8
0
 62
3
420
65280
370
-1
 48
1.0
  6
BYLAYER
 10
7.0905134232702238
 20
-1.3563321831658115
 30
0.0
 11
6.7997595175985026
 21
-1.5241990288733023
 31
0.0
  0
LINE
  5
BD
100
AcDbEntity
100
AcDbLine
  8
0
 62
3
420
65280
370
-1
 48
1.0
  6
BYLAYER
 10
7.2499403732700358
 20
-1.6324677606615259
 30
0.0
 11
6.9591864675985278
 21
-1.8003346063690167
 31
0.0
  0
LINE
  5
BE
100
AcDbEntity
100
AcDbLine
  8
0
 62
3
420
65280
370
-1
 48
1.0
  6
BYLAYER
 10
7.2156597028064056
 20
-1.1911604197133814
 30
0.0
 11
7.0384280794913394
 21
-0.8841862434232794
 31
0.0
  0
LINE
  5
BF
100
AcDbEntity
100
AcDbLine
  8
0
 62
3
420
65280
370
-1
 48
1.0
  6
BYLAYER
 10
7.1091940640348668
 20
-1.2526283849175801
 30
0.0
 11
6.9319624407197011
 21
-0.9456542086275892
 31
0.0
  0
LINE
  5
C0
100
AcDbEntity
100
AcDbLine
  8
0
 62
3
420
65280
370
-1
 48
1.0
  6
BYLAYER
 10
7.5263224407190421
 20
-1.9751159266145866
 30
0.0
 11
7.3590593314562938
 21
-1.685407723139325
 31
0.0
  0
LINE
  5
C1
100
AcDbEntity
100
AcDbLine
  8
0
 62
3
420
65280
370
-1
 48
1.0
  6
BYLAYER
 10
7.6327880794907941
 20
-1.9136479614103896
 30
0.0
 11
7.4655249702280173
 21
-1.6239397579349779
 31
0.0
  0
LINE
  5
C2
100
AcDbEntity
100
AcDbLine
  8
0
 62
3
420
65280
370
-1
 48
1.0
  6
BYLAYER
 10
8.1698826285793302
 20
-1.6068384285823241
 30
0.0
 11
7.9926497480692262
 21
-1.9138147823972229
 31
0.0
  0
LINE
  5
C3
100
AcDbEntity
100
AcDbLine
  8
0
 62
3
420
65280
370
-1
 48
1.0
  6
BYLAYER
 10
8.2763001321556686
 20
-1.6682786029184751
 30
0.0
 11
8.0990672516455646
 21
-1.9752549567334867
 31
0.0
  0
LINE
  5
C4
100
AcDbEntity
100
AcDbLine
  8
0
 62
3
420
65280
370
-1
 48
1.0
  6
BYLAYER
 10
8.6934272516461562
 20
-0.9457932387470489
 30
0.0
 11
8.5261388803955924
 21
-1.2355451972683218
 31
0.0
  0
LINE
  5
C5
100
AcDbEntity
100
AcDbLine
  8
0
 62
3
420
65280
370
-1
 48
1.0
  6
BYLAYER
 10
8.5870097480699172
 20
-0.8843530644108988
 30
0.0
 11
8.4197213768192398
 21
-1.1741050229320624
 31
0.0
  0
LINE
  5
C6
100
AcDbEntity
100
AcDbLine
  8
0
 62
1
420
16711680
370
-1
 48
1.0
  6
BYLAYER
 10
7.8118314925674213
 20
0.3491693361851285
 30
0.0
 11
7.5135671903065457
 21
0.200037185054696
 31
0.0
  0
LINE
  5
C7
100
AcDbEntity
100
AcDbLine
  8
0
 62
3
420
65280
370
-1
 48
1.0
  6
BYLAYER
 10
7.2863089520529627
 20
0.0864080659278903
 30
0.0
 11
7.0151541478269053
 21
-0.049169336185134
 31
0.0
  0
LINE
  5
C8
100
AcDbEntity
100
AcDbLine
  8
0
 62
3
420
65280
370
-1
 48
1.0
  6
BYLAYER
 10
8.6085088373079657
 20
-0.04916933618515
 30
0.0
 11
8.8073547782593948
 21
0.1335573781228829
 31
0.0
  0
LINE
  5
C9
100
AcDbEntity
100
AcDbLine
  8
0
 62
3
420
65280
370
-1
 48
1.0
  6
BYLAYER
 10
6.5164118013512535
 20
-1.5287263881244399
 30
0.0
 11
6.2062007192108126
 21
-1.1267858966740016
 31
0.0
  0
LINE
  5
CA
100
AcDbEntity
100
AcDbLine
  8
0
 62
3
420
65280
370
-1
 48
1.0
  6
BYLAYER
 10
9.1089778910140211
 20
-1.5288654182435772
 30
0.0
 11
9.4174622659240299
 21
-1.1266219676094629
 31
0.0
  0
LINE
  5
CB
100
AcDbEntity
100
AcDbLine
  8
0
 62
1
420
16711680
370
-1
 48
1.0
  6
BYLAYER
 10
7.4444210711797467
 20
-0.1390858356068181
 30
0.0
 11
7.513188071179755
 21
-0.1390858356068154
 31
0.0
  0
LINE
  5
CC
100
AcDbEntity
100
AcDbLine
  8
0
 62
1
420
16711680
370
-1
 48
1.0
  6
BYLAYER
 10
8.1792420211800874
 20
-0.1390858356071512
 30
0.0
 11
8.1104750211804202
 21
-0.1390858356071485
 31
0.0
  0
LINE
  5
CD
100
AcDbEntity
100
AcDbLine
  8
0
 62
1
420
16711680
370
-1
 48
1.0
  6
BYLAYER
 10
7.513188071179755
 20
-0.2305858356068349
 30
0.0
 11
7.4444210711797467
 21
-0.2305858356068304
 31
0.0
  0
LINE
  5
CE
100
AcDbEntity
100
AcDbLine
  8
0
 62
1
420
16711680
370
-1
 48
1.0
  6
BYLAYER
 10
8.110475021180406
 20
-0.2305858356071671
 30
0.0
 11
8.1792420211804142
 21
-0.2305858356071635
 31
0.0
  0
LINE
  5
CF
100
AcDbEntity
100
AcDbLine
  8
0
 62
3
420
65280
370
-1
 48
1.0
  6
BYLAYER
 10
3.4137961030678929
 20
1.5704422859081828
 30
0.0
 11
3.5289961030678914
 21
1.5704422859081828
 31
0.0
  0
CIRCLE
  5
D0
100
AcDbEntity
100
AcDbCircle
  8
0
 62
3
420
65280
370
-1
 48
1.0
  6
BYLAYER
 10
4.0759055011505936
 20
0.8891038969321023
 30
0.0
 40
0.0538784999999979
  0
LINE
  5
D1
100
AcDbEntity
100
AcDbLine
  8
0
 62
3
420
65280
370
-1
 48
1.0
  6
BYLAYER
 10
7.3354550711797515
 20
-0.2305858356068269
 30
0.0
 11
7.2666880711797432
 21
-0.23058583560681
 31
0.0
  0
LINE
  5
D2
100
AcDbEntity
100
AcDbLine
  8
0
 62
3
420
65280
370
-1
 48
1.0
  6
BYLAYER
 10
8.2882080211804094
 20
-0.23058583560716
 30
0.0
 11
8.3569750211804177
 21
-0.230585835607144
 31
0.0
  0
CIRCLE
  5
D3
100
AcDbEntity
100
AcDbCircle
  8
0
 62
3
420
65280
370
-1
 48
1.0
  6
BYLAYER
 10
2.8669055011506046
 20
0.8891038969321023
 30
0.0
 40
0.0538784999999962
  0
CIRCLE
  5
D4
100
AcDbEntity
100
AcDbCircle
  8
0
 62
3
420
65280
370
-1
 48
1.0
  6
BYLAYER
 10
4.0759055011505936
 20
2.0981038969321073
 30
0.0
 40
0.0538784999999962
  0
LINE
  5
D5
100
AcDbEntity
100
AcDbLine
  8
0
 62
3
420
65280
370
-1
 48
1.0
  6
BYLAYER
 10
7.2666880711797575
 20
-0.1390858356068003
 30
0.0
 11
7.3354550711797657
 21
-0.1390858356068065
 31
0.0
  0
CIRCLE
  5
D6
100
AcDbEntity
100
AcDbCircle
  8
0
 62
3
420
65280
370
-1
 48
1.0
  6
BYLAYER
 10
2.8669055011506011
 20
2.0981038969321073
 30
0.0
 40
0.0538784999999962
  0
LINE
  5
D7
100
AcDbEntity
100
AcDbLine
  8
0
 62
3
420
65280
370
-1
 48
1.0
  6
BYLAYER
 10
8.3569750211803893
 20
-0.1390858356071361
 30
0.0
 11
8.2882080211798552
 21
-0.1390858356071414
 31
0.0
  0
CIRCLE
  5
D8
100
AcDbEntity
100
AcDbCircle
  8
0
 62
3
420
65280
370
-1
 48
1.0
  6
BYLAYER
 10
3.4713961030678924
 20
1.4936422859081819
 30
0.0
 40
0.438763036903433
  0
LINE
  5
D9
100
AcDbEntity
100
AcDbLine
  8
0
 62
3
420
65280
370
-1
 48
1.0
  6
BYLAYER
 10
7.9712585497929354
 20
-0.6418078752573866
 30
0.0
 11
7.9712585497929354
 21
-0.8671441298075564
 31
0.0
  0
LINE
  5
DA
100
AcDbEntity
100
AcDbLine
  8
0
 62
3
420
65280
370
-1
 48
1.0
  6
BYLAYER
 10
6.9591864675985278
 20
-1.8003346063690167
 30
0.0
 11
6.7997595175985026
 21
-1.5241990288733023
 31
0.0
  0
LINE
  5
DB
100
AcDbEntity
100
AcDbLine
  8
0
 62
3
420
65280
370
-1
 48
1.0
  6
BYLAYER
 10
2.5205764086440041
 20
2.8006038969321079
 30
0.0
 11
2.5205764086440006
 21
2.3670962735273946
 31
0.0
  0
LINE
  5
DC
100
AcDbEntity
100
AcDbLine
  8
0
 62
3
420
65280
370
-1
 48
1.0
  6
BYLAYER
 10
4.5337157936993577
 20
2.8006038969321079
 30
0.0
 11
4.5337157936993577
 21
2.3670962735273946
 31
0.0
  0
LINE
  5
DD
100
AcDbEntity
100
AcDbLine
  8
0
 62
256
370
-1
 48
1.0
  6
BYLAYER
 10
0.5337157936993577
 20
2.8006038969321079
 30
0.0
 11
0.5337157936993577
 21
2.3670962735273946
 31
0.0
  0
LINE
  5
DE
100
AcDbEntity
100
AcDbLine
  8
0
 62
256
370
-1
 48
1.0
  6
BYLAYER
 10
-1.4794235913559959
 20
2.8006038969321079
 30
0.0
 11
-1.4794235913559977
 21
2.3670962735273946
 31
0.0
  0
LINE
  5
DF
100
AcDbEntity
100
AcDbLine
  8
0
 62
3
420
65280
370
-1
 48
1.0
  6
BYLAYER
 10
7.090513423270238
 20
-1.3563321831657946
 30
0.0
 11
7.050278521585355
 21
-1.2866432892102164
 31
0.0
  0
LINE
  5
E0
100
AcDbEntity
100
AcDbLine
  8
0
 62
3
420
65280
370
-1
 48
1.0
  6
BYLAYER
 10
-5.4794235913559959
 20
2.8006038969321079
 30
0.0
 11
-5.4794235913559994
 21
2.3670962735273946
 31
0.0
  0
LINE
  5
E1
100
AcDbEntity
100
AcDbLine
  8
0
 62
3
420
65280
370
-1
 48
1.0
  6
BYLAYER
 10
-3.4662842063006423
 20
2.8006038969321079
 30
0.0
 11
-3.4662842063006423
 21
2.3670962735273946
 31
0.0
  0
LINE
  5
E2
100
AcDbEntity
100
AcDbLine
  8
0
 62
3
420
65280
370
-1
 48
1.0
  6
BYLAYER
 10
7.1091940640348668
 20
-1.2526283849175801
 30
0.0
 11
7.050278521585355
 21
-1.2866432892102155
 31
0.0
  0
LINE
  5
E3
100
AcDbEntity
100
AcDbLine
  8
0
 62
3
420
65280
370
-1
 48
1.0
  6
BYLAYER
 10
7.2499403732700074
 20
-1.6324677606615481
 30
0.0
 11
7.3001437890072083
 21
-1.7194226274317908
 31
0.0
  0
LINE
  5
E4
100
AcDbEntity
100
AcDbLine
  8
0
 62
3
420
65280
370
-1
 48
1.0
  6
BYLAYER
 10
7.3001437890072083
 20
-1.7194226274317908
 30
0.0
 11
7.3590593314562938
 21
-1.685407723139325
 31
0.0
  0
LINE
  5
E5
100
AcDbEntity
100
AcDbLine
  8
0
 62
3
420
65280
370
-1
 48
1.0
  6
BYLAYER
 10
7.4655249702280173
 20
-1.6239397579349779
 30
0.0
 11
7.5244440220136823
 21
-1.5899228275261565
 31
0.0
  0
LINE
  5
E6
100
AcDbEntity
100
AcDbLine
  8
0
 62
3
420
65280
370
-1
 48
1.0
  6
BYLAYER
 10
8.3353394371231815
 20
-1.7023649615343155
 30
0.0
 11
8.3755730816133678
 21
-1.632678245103854
 31
0.0
  0
LINE
  5
E7
100
AcDbEntity
100
AcDbLine
  8
0
 62
3
420
65280
370
-1
 48
1.0
  6
BYLAYER
 10
8.6662032247667611
 20
-1.8004736364880367
 30
0.0
 11
8.825630174766772
 21
-1.524338058992317
 31
0.0
  0
LINE
  5
E8
100
AcDbEntity
100
AcDbLine
  8
0
 62
3
420
65280
370
-1
 48
1.0
  6
BYLAYER
 10
8.5350000316133787
 20
-1.3565426676081351
 30
0.0
 11
8.5851781853628495
 21
-1.2696315558839233
 31
0.0
  0
LINE
  5
E9
100
AcDbEntity
100
AcDbLine
  8
0
 62
3
420
65280
370
-1
 48
1.0
  6
BYLAYER
 10
8.2763001321556686
 20
-1.6682786029184751
 30
0.0
 11
8.3353394371231815
 21
-1.7023649615343155
 31
0.0
  0
LINE
  5
EA
100
AcDbEntity
100
AcDbLine
  8
0
 62
3
420
65280
370
-1
 48
1.0
  6
BYLAYER
 10
8.5870097480699172
 20
-0.8843530644108988
 30
0.0
 11
8.6934272516461562
 21
-0.9457932387470489
 31
0.0
  0
LINE
  5
EB
100
AcDbEntity
100
AcDbLine
  8
0
 62
3
420
65280
370
-1
 48
1.0
  6
BYLAYER
 10
6.848569688451704
 20
-0.8992777943077082
 30
0.0
 11
7.0399613026880985
 21
-0.7887777943077632
 31
0.0
  0
LINE
  5
EC
100
AcDbEntity
100
AcDbLine
  8
0
 62
3
420
65280
370
-1
 48
1.0
  6
BYLAYER
 10
8.1006486100375241
 20
-2.0706911967170223
 30
0.0
 11
7.9092569958012007
 21
-1.9601911967169618
 31
0.0
  0
LINE
  5
ED
100
AcDbEntity
100
AcDbLine
  8
0
 62
3
420
65280
370
-1
 48
1.0
  6
BYLAYER
 10
7.2174714925673982
 20
-0.5737714009618644
 30
0.0
 11
7.5283863054195166
 21
-0.5737714009620642
 31
0.0
  0
LINE
  5
EE
100
AcDbEntity
100
AcDbLine
  8
0
 62
3
420
65280
370
-1
 48
1.0
  6
BYLAYER
 10
8.0952767869403033
 20
-0.5737714009625554
 30
0.0
 11
8.4061914925675438
 21
-0.573771400962654
 31
0.0
  0
LINE
  5
EF
100
AcDbEntity
100
AcDbLine
  8
0
 62
3
420
65280
370
-1
 48
1.0
  6
BYLAYER
 10
8.4781914925675892
 20
-0.6228027823882023
 30
0.0
 11
8.4781914925675039
 21
-0.3801379547582613
 31
0.0
  0
LINE
  5
F0
100
AcDbEntity
100
AcDbLine
  8
0
 62
3
420
65280
370
-1
 48
1.0
  6
BYLAYER
 10
8.4781914925675039
 20
-0.3801379547582613
 30
0.0
 11
8.4061914925674159
 21
-0.3801379547582613
 31
0.0
  0
LINE
  5
F1
100
AcDbEntity
100
AcDbLine
  8
0
 62
3
420
65280
370
-1
 48
1.0
  6
BYLAYER
 10
8.4781914925675892
 20
-0.6228027823882023
 30
0.0
 11
8.4061914925675154
 21
-0.6228027823881543
 31
0.0
  0
LINE
  5
F2
100
AcDbEntity
100
AcDbLine
  8
0
 62
3
420
65280
370
-1
 48
1.0
  6
BYLAYER
 10
8.406191492567558
 20
-0.573771400962654
 30
0.0
 11
8.406191492567558
 21
-0.6228027823881552
 31
0.0
  0
LINE
  5
F3
100
AcDbEntity
100
AcDbLine
  8
0
 62
3
420
65280
370
-1
 48
1.0
  6
BYLAYER
 10
7.4703949216975474
 20
-0.6991693361851343
 30
0.0
 11
7.4703949216975474
 21
-0.6991693361851343
 31
0.0
  0
LINE
  5
F4
100
AcDbEntity
100
AcDbLine
  8
0
 62
3
420
65280
370
-1
 48
1.0
  6
BYLAYER
 10
8.6085088373079657
 20
-0.0491693361851464
 30
0.0
 11
8.337354033081894
 21
0.0864080659278894
 31
0.0
  0
LINE
  5
F5
100
AcDbEntity
100
AcDbLine
  8
0
 62
1
420
16711680
370
-1
 48
1.0
  6
BYLAYER
 10
8.1100959020535726
 20
0.2000371314420537
 30
0.0
 11
7.8118314925674355
 21
0.3491693361851347
 31
0.0
  0
LINE
  5
F6
100
AcDbEntity
100
AcDbLine
  8
0
 62
1
420
16711680
370
-1
 48
1.0
  6
BYLAYER
 10
7.5624045425676343
 20
-0.3628388059107621
 30
0.0
 11
7.6524045425676377
 21
-0.3628388059107621
 31
0.0
  0
LINE
  5
F7
100
AcDbEntity
100
AcDbLine
  8
0
 62
1
420
16711680
370
-1
 48
1.0
  6
BYLAYER
 10
7.9712585429085294
 20
-0.3628388059107674
 30
0.0
 11
8.0612585429085328
 21
-0.3628388059107674
 31
0.0
  0
LINE
  5
F8
100
AcDbEntity
100
AcDbLine
  8
0
 62
1
420
16711680
370
-1
 48
1.0
  6
BYLAYER
 10
7.4444210711797467
 20
-0.2305858356068304
 30
0.0
 11
7.4444210711797894
 21
-0.4291693361847919
 31
0.0
  0
LINE
  5
F9
100
AcDbEntity
100
AcDbLine
  8
0
 62
1
420
16711680
370
-1
 48
1.0
  6
BYLAYER
 10
8.1792420211801016
 20
-0.2305858356071022
 30
0.0
 11
8.1792420211803858
 21
-0.4291693361851348
 31
0.0
  0
LINE
  5
FA
100
AcDbEntity
100
AcDbLine
  8
0
 62
3
420
65280
370
-1
 48
1.0
  6
BYLAYER
 10
7.3354550711797515
 20
-0.2305858356068269
 30
0.0
 11
7.3354550711800357
 21
-0.4291693361848594
 31
0.0
  0
LINE
  5
FB
100
AcDbEntity
100
AcDbLine
  8
0
 62
3
420
65280
370
-1
 48
1.0
  6
BYLAYER
 10
8.2882080211798694
 20
-0.230585835607175
 30
0.0
 11
8.2882080211801537
 21
-0.4291693361852076
 31
0.0
  0
LINE
  5
FC
100
AcDbEntity
100
AcDbLine
  8
0
 62
3
420
65280
370
-1
 48
1.0
  6
BYLAYER
 10
7.3354550711797657
 20
-0.1390858356068065
 30
0.0
 11
7.3354550711797657
 21
0.0864080659278894
 31
0.0
  0
LINE
  5
FD
100
AcDbEntity
100
AcDbLine
  8
0
 62
3
420
65280
370
-1
 48
1.0
  6
BYLAYER
 10
8.2882080211798552
 20
-0.1390858356071414
 30
0.0
 11
8.2882080211798694
 21
0.0864080659278903
 31
0.0
  0
LINE
  5
FE
100
AcDbEntity
100
AcDbLine
  8
0
 62
1
420
16711680
370
-1
 48
1.0
  6
BYLAYER
 10
7.4444210711797467
 20
-0.1390858356068181
 30
0.0
 11
7.4444210711797467
 21
0.0864080659278903
 31
0.0
  0
LINE
  5
FF
100
AcDbEntity
100
AcDbLine
  8
0
 62
1
420
16711680
370
-1
 48
1.0
  6
BYLAYER
 10
8.1792420211800874
 20
-0.1390858356071512
 30
0.0
 11
8.1792420211800874
 21
0.0864080659278903
 31
0.0
  0
LINE
  5
100
100
AcDbEntity
100
AcDbLine
  8
0
 62
1
420
16711680
370
-1
 48
1.0
  6
BYLAYER
 10
7.5624045425675064
 20
-0.4291693361847244
 30
0.0
 11
7.4462008264363675
 21
-0.4291693361847964
 31
0.0
  0
LINE
  5
101
100
AcDbEntity
100
AcDbLine
  8
0
 62
1
420
16711680
370
-1
 48
1.0
  6
BYLAYER
 10
8.0612585429085328
 20
-0.429169336185061
 30
0.0
 11
8.1792420211803716
 21
-0.4291693361851348
 31
0.0
  0
LINE
  5
102
100
AcDbEntity
100
AcDbLine
  8
0
 62
256
370
-1
 48
1.0
  6
BYLAYER
 10
4.9427922061357883
 20
0.459973865405976
 30
0.0
 11
2.0
 21
0.4599738654059795
 31
0.0
  0
LINE
  5
103
100
AcDbEntity
100
AcDbLine
  8
0
 62
256
370
-1
 48
1.0
  6
BYLAYER
 10
0.9427922061357883
 20
0.4599738654059813
 30
0.0
 11
-2.0
 21
0.4599738654059848
 31
0.0
  0
LINE
  5
104
100
AcDbEntity
100
AcDbLine
  8
0
 62
3
420
65280
370
-1
 48
1.0
  6
BYLAYER
 10
8.288208021180111
 20
-0.4291693361852067
 30
0.0
 11
8.4061914925674586
 21
-0.4291693361852742
 31
0.0
  0
LINE
  5
105
100
AcDbEntity
100
AcDbLine
  8
0
 62
256
370
-1
 48
1.0
  6
BYLAYER
 10
-3.0572077938642117
 20
0.4599738654059757
 30
0.0
 11
-6.0
 21
0.4599738654059793
 31
0.0
  0
LINE
  5
106
100
AcDbEntity
100
AcDbLine
  8
0
 62
3
420
65280
370
-1
 48
1.0
  6
BYLAYER
 10
7.3354550711800357
 20
-0.4291693361848594
 30
0.0
 11
7.2174714925674408
 21
-0.4291693361846098
 31
0.0
  0
LINE
  5
107
100
AcDbEntity
100
AcDbLine
  8
0
 62
3
420
65280
370
-1
 48
1.0
  6
BYLAYER
 10
6.8894994529873657
 20
-0.9701702260253589
 30
0.0
 11
6.9319624407197011
 21
-0.9456542086275892
 31
0.0
  0
LINE
  5
108
100
AcDbEntity
100
AcDbLine
  8
0
 62
3
420
65280
370
-1
 48
1.0
  6
BYLAYER
 10
7.0384280794913394
 20
-0.8841862434232794
 30
0.0
 11
7.0808910672237602
 21
-0.8596702260254139
 31
0.0
  0
LINE
  5
109
100
AcDbEntity
100
AcDbLine
  8
0
 62
3
420
65280
370
-1
 48
1.0
  6
BYLAYER
 10
7.5263224407190421
 20
-1.9751159266145866
 30
0.0
 11
7.6327880794907941
 21
-1.9136479614103896
 31
0.0
  0
LINE
  5
10A
100
AcDbEntity
100
AcDbLine
  8
0
 62
3
420
65280
370
-1
 48
1.0
  6
BYLAYER
 10
8.1415783745732284
 20
-1.9997987649993982
 30
0.0
 11
8.0990672516455646
 21
-1.9752549567334867
 31
0.0
  0
LINE
  5
10B
100
AcDbEntity
100
AcDbLine
  8
0
 62
3
420
65280
370
-1
 48
1.0
  6
BYLAYER
 10
7.0908645160996144
 20
-2.2265276766144444
 30
0.0
 11
7.2248530921123404
 21
-2.1491693361851345
 31
0.0
  0
LINE
  5
10C
100
AcDbEntity
100
AcDbLine
  8
0
 62
3
420
65280
370
-1
 48
1.0
  6
BYLAYER
 10
7.2863089520529485
 20
0.0864080659278894
 30
0.0
 11
7.3354550711797657
 21
0.0864080659278894
 31
0.0
  0
LINE
  5
10D
100
AcDbEntity
100
AcDbLine
  8
0
 62
1
420
16711680
370
-1
 48
1.0
  6
BYLAYER
 10
7.4444210711797467
 20
0.0864080659278903
 30
0.0
 11
7.51356719030656
 21
0.0864080659278903
 31
0.0
  0
LINE
  5
10E
100
AcDbEntity
100
AcDbLine
  8
0
 62
1
420
16711680
370
-1
 48
1.0
  6
BYLAYER
 10
8.1100959020535726
 20
0.0864080659278903
 30
0.0
 11
8.1792420211800874
 21
0.0864080659278903
 31
0.0
  0
LINE
  5
10F
100
AcDbEntity
100
AcDbLine
  8
0
 62
3
420
65280
370
-1
 48
1.0
  6
BYLAYER
 10
8.2882080211798694
 20
0.0864080659278903
 30
0.0
 11
8.3373541403071982
 21
0.0864080659278894
 31
0.0
  0
LINE
  5
110
100
AcDbEntity
100
AcDbLine
  8
0
 62
1
420
16711680
370
-1
 48
1.0
  6
BYLAYER
 10
7.51356719030656
 20
0.0864080659278903
 30
0.0
 11
7.51356719030656
 21
0.2000371850546978
 31
0.0
  0
LINE
  5
111
100
AcDbEntity
100
AcDbLine
  8
0
 62
1
420
16711680
370
-1
 48
1.0
  6
BYLAYER
 10
8.1100959020535726
 20
0.0864080659278903
 30
0.0
 11
8.1100959020535726
 21
0.2000371314420519
 31
0.0
  0
LINE
  5
112
100
AcDbEntity
100
AcDbLine
  8
0
 62
3
420
65280
370
-1
 48
1.0
  6
BYLAYER
 10
7.5125744425675691
 20
-2.259169336185133
 30
0.0
 11
7.5125744425675691
 21
-2.1991693361851334
 31
0.0
  0
LINE
  5
113
100
AcDbEntity
100
AcDbLine
  8
0
 62
3
420
65280
370
-1
 48
1.0
  6
BYLAYER
 10
7.5125744425675691
 20
-2.1991693361851334
 30
0.0
 11
8.1125744425675634
 21
-2.1991693361851334
 31
0.0
  0
LINE
  5
114
100
AcDbEntity
100
AcDbLine
  8
0
 62
3
420
65280
370
-1
 48
1.0
  6
BYLAYER
 10
8.1125744425675634
 20
-2.1991693361851334
 30
0.0
 11
8.1125744425675634
 21
-2.259169336185133
 31
0.0
  0
LINE
  5
115
100
AcDbEntity
100
AcDbLine
  8
0
 62
3
420
65280
370
-1
 48
1.0
  6
BYLAYER
 10
7.5125744425675691
 20
-2.259169336185133
 30
0.0
 11
8.1125744425675634
 21
-2.259169336185133
 31
0.0
  0
LINE
  5
116
100
AcDbEntity
100
AcDbLine
  8
0
 62
3
420
65280
370
-1
 48
1.0
  6
BYLAYER
 10
7.4125744425675606
 20
-2.3491693361851347
 30
0.0
 11
8.2125744425675578
 21
-2.3491693361851347
 31
0.0
  0
LINE
  5
117
100
AcDbEntity
100
AcDbLine
  8
0
 62
3
420
65280
370
-1
 48
1.0
  6
BYLAYER
 10
8.2125744425675578
 20
-2.3491693361851347
 30
0.0
 11
8.4002957930227495
 21
-2.1491693361851345
 31
0.0
  0
LINE
  5
118
100
AcDbEntity
100
AcDbLine
  8
0
 62
3
420
65280
370
-1
 48
1.0
  6
BYLAYER
 10
7.4125744425675606
 20
-2.3491693361851347
 30
0.0
 11
7.2248530921123404
 21
-2.1491693361851345
 31
0.0
  0
LINE
  5
119
100
AcDbEntity
100
AcDbLine
  8
0
 62
3
420
65280
370
-1
 48
1.0
  6
BYLAYER
 10
8.0952767869405591
 20
-0.5737714009622943
 30
0.0
 11
8.0612585497928819
 21
-0.6077896381099652
 31
0.0
  0
LINE
  5
11A
100
AcDbEntity
100
AcDbLine
  8
0
 62
3
420
65280
370
-1
 48
1.0
  6
BYLAYER
 10
7.5283863054195308
 20
-0.5737714009620651
 30
0.0
 11
7.562404542567208
 21
-0.6077896381097361
 31
0.0
  0
DIMENSION
  5
11B
100
AcDbEntity
  8
0
 62
256
370
-1
 48
1.0
  6
BYLAYER
100
AcDbDimension
 10
9.7312992807891874
 20
-0.8209193361850599
 30
0.0
 11
9.6375492807891874
 21
-1.5850443361851032
 31
0.0
 70
0
 71
8
 72
2
 41
1.0
 42
0.0
  1

  3
Standard
100
AcDbAlignedDimension
 13
8.8697007192108401
 23
-0.8209193361849512
 33
0.0
 14
8.2125744425675578
 24
-2.3491693361852555
 34
0.0
 50
90.0
100
AcDbRotatedDimension
1001
ACAD
1000
DSTYLE
1002
{
1070
144
1040
1.0
1070
40
1040
1.0
1002
}
  0
LINE
  5
11C
100
AcDbEntity
100
AcDbLine
  8
0
 62
3
420
65280
370
-1
 48
1.0
  6
BYLAYER
 10
4.6019657936993639
 20
2.8936038969321114
 30
0.0
 11
4.6019657936993639
 21
2.8006038969321079
 31
0.0
  0
LINE
  5
11D
100
AcDbEntity
100
AcDbLine
  8
0
 62
3
420
65280
370
-1
 48
1.0
  6
BYLAYER
 10
2.5888264086440067
 20
2.8936038969321114
 30
0.0
 11
2.5888264086440067
 21
2.8006038969321079
 31
0.0
  0
LINE
  5
11E
100
AcDbEntity
100
AcDbLine
  8
0
 62
256
370
-1
 48
1.0
  6
BYLAYER
 10
0.6019657936993639
 20
2.8936038969321114
 30
0.0
 11
0.6019657936993639
 21
2.8006038969321079
 31
0.0
  0
LINE
  5
11F
100
AcDbEntity
100
AcDbLine
  8
0
 62
256
370
-1
 48
1.0
  6
BYLAYER
 10
-1.4111735913559951
 20
2.8936038969321114
 30
0.0
 11
-1.4111735913559951
 21
2.8006038969321079
 31
0.0
  0
LINE
  5
120
100
AcDbEntity
100
AcDbLine
  8
0
 62
3
420
65280
370
-1
 48
1.0
  6
BYLAYER
 10
4.6528442951432893
 20
0.7723699684738747
 30
0.0
 11
4.7458442951432858
 21
0.7723699684738747
 31
0.0
  0
LINE
  5
121
100
AcDbEntity
100
AcDbLine
  8
0
 62
3
420
65280
370
-1
 48
1.0
  6
BYLAYER
 10
4.6528442951432858
 20
1.7956038969321071
 30
0.0
 11
4.7458442951432858
 21
1.7956038969321071
 31
0.0
  0
LINE
  5
122
100
AcDbEntity
100
AcDbLine
  8
0
 62
3
420
65280
370
-1
 48
1.0
  6
BYLAYER
 10
2.2899479109925061
 20
0.7723699684738747
 30
0.0
 11
2.1969479109925025
 21
0.7723699684738747
 31
0.0
  0
LINE
  5
123
100
AcDbEntity
100
AcDbLine
  8
0
 62
3
420
65280
370
-1
 48
1.0
  6
BYLAYER
 10
2.2899479109925061
 20
1.7956038969321071
 30
0.0
 11
2.1969479109925061
 21
1.7956038969321071
 31
0.0
  0
LINE
  5
124
100
AcDbEntity
100
AcDbLine
  8
0
 62
3
420
65280
370
-1
 48
1.0
  6
BYLAYER
 10
-3.3980342063006361
 20
2.8936038969321114
 30
0.0
 11
-3.3980342063006361
 21
2.8006038969321079
 31
0.0
  0
LINE
  5
125
100
AcDbEntity
100
AcDbLine
  8
0
 62
3
420
65280
370
-1
 48
1.0
  6
BYLAYER
 10
-5.4111735913559933
 20
2.8936038969321114
 30
0.0
 11
-5.4111735913559933
 21
2.8006038969321079
 31
0.0
  0
LINE
  5
126
100
AcDbEntity
100
AcDbLine
  8
0
 62
3
420
65280
370
-1
 48
1.0
  6
BYLAYER
 10
-3.3471557048567107
 20
0.7723699684738745
 30
0.0
 11
-3.2541557048567142
 21
0.7723699684738745
 31
0.0
  0
LINE
  5
127
100
AcDbEntity
100
AcDbLine
  8
0
 62
3
420
65280
370
-1
 48
1.0
  6
BYLAYER
 10
-3.3471557048567142
 20
1.7956038969321069
 30
0.0
 11
-3.2541557048567142
 21
1.7956038969321069
 31
0.0
  0
LINE
  5
128
100
AcDbEntity
100
AcDbLine
  8
0
 62
3
420
65280
370
-1
 48
1.0
  6
BYLAYER
 10
-5.7100520890074939
 20
0.7723699684738745
 30
0.0
 11
-5.8030520890074975
 21
0.7723699684738745
 31
0.0
  0
LINE
  5
129
100
AcDbEntity
100
AcDbLine
  8
0
 62
3
420
65280
370
-1
 48
1.0
  6
BYLAYER
 10
-5.7100520890074939
 20
1.7956038969321069
 30
0.0
 11
-5.8030520890074939
 21
1.7956038969321069
 31
0.0
  0
LINE
  5
12A
100
AcDbEntity
100
AcDbLine
  8
0
 62
256
370
-1
 48
1.0
  6
BYLAYER
 10
0.6528442951432893
 20
0.7723699684738801
 30
0.0
 11
0.7458442951432858
 21
0.7723699684738801
 31
0.0
  0
LINE
  5
12B
100
AcDbEntity
100
AcDbLine
  8
0
 62
256
370
-1
 48
1.0
  6
BYLAYER
 10
0.6528442951432858
 20
1.7956038969321124
 30
0.0
 11
0.7458442951432858
 21
1.7956038969321124
 31
0.0
  0
LINE
  5
12C
100
AcDbEntity
100
AcDbLine
  8
0
 62
256
370
-1
 48
1.0
  6
BYLAYER
 10
-1.7100520890074957
 20
0.7723699684738801
 30
0.0
 11
-1.8030520890074957
 21
0.7723699684738801
 31
0.0
  0
LINE
  5
12D
100
AcDbEntity
100
AcDbLine
  8
0
 62
256
370
-1
 48
1.0
  6
BYLAYER
 10
-1.7100520890074939
 20
1.7956038969321124
 30
0.0
 11
-1.8030520890074939
 21
1.7956038969321124
 31
0.0
  0
LINE
  5
12E
100
AcDbEntity
100
AcDbLine
  8
0
 62
3
420
65280
370
-1
 48
1.0
  6
BYLAYER
 10
4.3539657936993592
 20
2.8006038969321079
 30
0.0
 11
4.3539657936993592
 21
2.8936038969321078
 31
0.0
  0
LINE
  5
12F
100
AcDbEntity
100
AcDbLine
  8
0
 62
3
420
65280
370
-1
 48
1.0
  6
BYLAYER
 10
2.340826408644002
 20
2.8006038969321079
 30
0.0
 11
2.340826408644002
 21
2.8936038969321078
 31
0.0
  0
LINE
  5
130
100
AcDbEntity
100
AcDbLine
  8
0
 62
256
370
-1
 48
1.0
  6
BYLAYER
 10
0.3539657936993592
 20
2.8006038969321079
 30
0.0
 11
0.3539657936993592
 21
2.8936038969321078
 31
0.0
  0
LINE
  5
131
100
AcDbEntity
100
AcDbLine
  8
0
 62
256
370
-1
 48
1.0
  6
BYLAYER
 10
-1.6591735913559962
 20
2.8006038969321079
 30
0.0
 11
-1.6591735913559962
 21
2.8936038969321078
 31
0.0
  0
LINE
  5
132
100
AcDbEntity
100
AcDbLine
  8
0
 62
3
420
65280
370
-1
 48
1.0
  6
BYLAYER
 10
4.7458442951432858
 20
1.0203699684738758
 30
0.0
 11
4.6528442951432893
 21
1.0203699684738758
 31
0.0
  0
LINE
  5
133
100
AcDbEntity
100
AcDbLine
  8
0
 62
3
420
65280
370
-1
 48
1.0
  6
BYLAYER
 10
4.7458442951432858
 20
2.0436038969321082
 30
0.0
 11
4.6528442951432858
 21
2.0436038969321082
 31
0.0
  0
LINE
  5
134
100
AcDbEntity
100
AcDbLine
  8
0
 62
3
420
65280
370
-1
 48
1.0
  6
BYLAYER
 10
2.1969479109925025
 20
1.0203699684738758
 30
0.0
 11
2.2899479109925061
 21
1.0203699684738758
 31
0.0
  0
LINE
  5
135
100
AcDbEntity
100
AcDbLine
  8
0
 62
3
420
65280
370
-1
 48
1.0
  6
BYLAYER
 10
2.1969479109925061
 20
2.0436038969321082
 30
0.0
 11
2.2899479109925061
 21
2.0436038969321082
 31
0.0
  0
LINE
  5
136
100
AcDbEntity
100
AcDbLine
  8
0
 62
3
420
65280
370
-1
 48
1.0
  6
BYLAYER
 10
-3.6460342063006408
 20
2.8006038969321079
 30
0.0
 11
-3.6460342063006408
 21
2.8936038969321078
 31
0.0
  0
LINE
  5
137
100
AcDbEntity
100
AcDbLine
  8
0
 62
3
420
65280
370
-1
 48
1.0
  6
BYLAYER
 10
-5.659173591355998
 20
2.8006038969321079
 30
0.0
 11
-5.659173591355998
 21
2.8936038969321078
 31
0.0
  0
LINE
  5
138
100
AcDbEntity
100
AcDbLine
  8
0
 62
3
420
65280
370
-1
 48
1.0
  6
BYLAYER
 10
-3.2541557048567142
 20
1.0203699684738756
 30
0.0
 11
-3.3471557048567107
 21
1.0203699684738756
 31
0.0
  0
LINE
  5
139
100
AcDbEntity
100
AcDbLine
  8
0
 62
3
420
65280
370
-1
 48
1.0
  6
BYLAYER
 10
-3.2541557048567142
 20
2.0436038969321082
 30
0.0
 11
-3.3471557048567142
 21
2.0436038969321082
 31
0.0
  0
LINE
  5
13A
100
AcDbEntity
100
AcDbLine
  8
0
 62
3
420
65280
370
-1
 48
1.0
  6
BYLAYER
 10
-5.8030520890074975
 20
1.0203699684738756
 30
0.0
 11
-5.7100520890074939
 21
1.0203699684738756
 31
0.0
  0
LINE
  5
13B
100
AcDbEntity
100
AcDbLine
  8
0
 62
3
420
65280
370
-1
 48
1.0
  6
BYLAYER
 10
-5.8030520890074939
 20
2.0436038969321082
 30
0.0
 11
-5.7100520890074939
 21
2.0436038969321082
 31
0.0
  0
LINE
  5
13C
100
AcDbEntity
100
AcDbLine
  8
0
 62
256
370
-1
 48
1.0
  6
BYLAYER
 10
0.7458442951432858
 20
1.0203699684738812
 30
0.0
 11
0.6528442951432893
 21
1.0203699684738812
 31
0.0
  0
LINE
  5
13D
100
AcDbEntity
100
AcDbLine
  8
0
 62
256
370
-1
 48
1.0
  6
BYLAYER
 10
0.7458442951432858
 20
2.0436038969321135
 30
0.0
 11
0.6528442951432858
 21
2.0436038969321135
 31
0.0
  0
LINE
  5
13E
100
AcDbEntity
100
AcDbLine
  8
0
 62
256
370
-1
 48
1.0
  6
BYLAYER
 10
-1.8030520890074957
 20
1.0203699684738812
 30
0.0
 11
-1.7100520890074957
 21
1.0203699684738812
 31
0.0
  0
LINE
  5
13F
100
AcDbEntity
100
AcDbLine
  8
0
 62
256
370
-1
 48
1.0
  6
BYLAYER
 10
-1.8030520890074939
 20
2.0436038969321135
 30
0.0
 11
-1.7100520890074939
 21
2.0436038969321135
 31
0.0
  0
LINE
  5
140
100
AcDbEntity
100
AcDbLine
  8
0
 62
256
370
-1
 48
1.0
  6
BYLAYER
 10
0.5337157936993577
 20
2.9999999999999982
 30
0.0
 11
0.5337157936993577
 21
2.8936038969321078
 31
0.0
  0
LINE
  5
141
100
AcDbEntity
100
AcDbLine
  8
0
 62
256
370
-1
 48
1.0
  6
BYLAYER
 10
-1.4794235913559977
 20
2.9999999999999982
 30
0.0
 11
-1.4794235913559977
 21
2.8936038969321078
 31
0.0
  0
LINE
  5
142
100
AcDbEntity
100
AcDbLine
  8
0
 62
256
370
-1
 48
1.0
  6
BYLAYER
 10
0.6528442951432858
 20
1.9753538969321127
 30
0.0
 11
0.4558963841507797
 21
1.9753538969321127
 31
0.0
  0
LINE
  5
143
100
AcDbEntity
100
AcDbLine
  8
0
 62
256
370
-1
 48
1.0
  6
BYLAYER
 10
0.9427922061357918
 20
1.9753538969321127
 30
0.0
 11
0.7458442951432858
 21
1.9753538969321127
 31
0.0
  0
LINE
  5
144
100
AcDbEntity
100
AcDbLine
  8
0
 62
256
370
-1
 48
1.0
  6
BYLAYER
 10
0.6528442951432893
 20
0.9521199684738804
 30
0.0
 11
0.4558963841507833
 21
0.9521199684738804
 31
0.0
  0
LINE
  5
145
100
AcDbEntity
100
AcDbLine
  8
0
 62
256
370
-1
 48
1.0
  6
BYLAYER
 10
0.9427922061357918
 20
0.9521199684738804
 30
0.0
 11
0.7458442951432858
 21
0.9521199684738804
 31
0.0
  0
LINE
  5
146
100
AcDbEntity
100
AcDbLine
  8
0
 62
256
370
-1
 48
1.0
  6
BYLAYER
 10
-1.7100520890074957
 20
0.9521199684738804
 30
0.0
 11
-1.5131041780149896
 21
0.9521199684738804
 31
0.0
  0
LINE
  5
147
100
AcDbEntity
100
AcDbLine
  8
0
 62
256
370
-1
 48
1.0
  6
BYLAYER
 10
-2.0000000000000018
 20
0.9521199684738804
 30
0.0
 11
-1.8030520890074957
 21
0.9521199684738804
 31
0.0
  0
LINE
  5
148
100
AcDbEntity
100
AcDbLine
  8
0
 62
256
370
-1
 48
1.0
  6
BYLAYER
 10
-1.7100520890074939
 20
1.9753538969321127
 30
0.0
 11
-1.5131041780149879
 21
1.9753538969321127
 31
0.0
  0
LINE
  5
149
100
AcDbEntity
100
AcDbLine
  8
0
 62
256
370
-1
 48
1.0
  6
BYLAYER
 10
-2.0
 20
1.9753538969321127
 30
0.0
 11
-1.8030520890074939
 21
1.9753538969321127
 31
0.0
  0
LINE
  5
14A
100
AcDbEntity
100
AcDbLine
  8
0
 62
3
420
65280
370
-1
 48
1.0
  6
BYLAYER
 10
4.4222157936993582
 20
2.8006038969321079
 30
0.0
 11
4.4222157936993582
 21
2.3670962735262275
 31
0.0
  0
LINE
  5
14B
100
AcDbEntity
100
AcDbLine
  8
0
 62
3
420
65280
370
-1
 48
1.0
  6
BYLAYER
 10
2.4090764086440011
 20
2.8006038969321079
 30
0.0
 11
2.4090764086440011
 21
2.3670962735262275
 31
0.0
  0
LINE
  5
14C
100
AcDbEntity
100
AcDbLine
  8
0
 62
256
370
-1
 48
1.0
  6
BYLAYER
 10
0.4222157936993582
 20
2.8006038969321079
 30
0.0
 11
0.4222157936993582
 21
2.3670962735262275
 31
0.0
  0
LINE
  5
14D
100
AcDbEntity
100
AcDbLine
  8
0
 62
256
370
-1
 48
1.0
  6
BYLAYER
 10
0.4222157936993582
 20
2.9999999999999982
 30
0.0
 11
0.4222157936993582
 21
2.8936038969321078
 31
0.0
  0
LINE
  5
14E
100
AcDbEntity
100
AcDbLine
  8
0
 62
256
370
-1
 48
1.0
  6
BYLAYER
 10
-1.5909235913559971
 20
2.8006038969321079
 30
0.0
 11
-1.5909235913559971
 21
2.3670962735262275
 31
0.0
  0
LINE
  5
14F
100
AcDbEntity
100
AcDbLine
  8
0
 62
256
370
-1
 48
1.0
  6
BYLAYER
 10
-1.5909235913559989
 20
2.9999999999999982
 30
0.0
 11
-1.5909235913559971
 21
2.8936038969321078
 31
0.0
  0
LINE
  5
150
100
AcDbEntity
100
AcDbLine
  8
0
 62
3
420
65280
370
-1
 48
1.0
  6
BYLAYER
 10
-3.5777842063006418
 20
2.8006038969321079
 30
0.0
 11
-3.5777842063006418
 21
2.3670962735262275
 31
0.0
  0
LINE
  5
151
100
AcDbEntity
100
AcDbLine
  8
0
 62
3
420
65280
370
-1
 48
1.0
  6
BYLAYER
 10
-5.5909235913559989
 20
2.8006038969321079
 30
0.0
 11
-5.5909235913559989
 21
2.3670962735262275
 31
0.0
  0
LINE
  5
152
100
AcDbEntity
100
AcDbLine
  8
0
 62
256
370
-1
 48
1.0
  6
BYLAYER
 10
0.6528442951432858
 20
1.8638538969321132
 30
0.0
 11
0.4558963841507797
 21
1.8638538969321132
 31
0.0
  0
LINE
  5
153
100
AcDbEntity
100
AcDbLine
  8
0
 62
256
370
-1
 48
1.0
  6
BYLAYER
 10
0.9427922061357918
 20
1.8638538969321132
 30
0.0
 11
0.7458442951432858
 21
1.8638538969321132
 31
0.0
  0
LINE
  5
154
100
AcDbEntity
100
AcDbLine
  8
0
 62
256
370
-1
 48
1.0
  6
BYLAYER
 10
0.6528442951432893
 20
0.8406199684738809
 30
0.0
 11
0.4558963841507833
 21
0.8406199684738809
 31
0.0
  0
LINE
  5
155
100
AcDbEntity
100
AcDbLine
  8
0
 62
256
370
-1
 48
1.0
  6
BYLAYER
 10
0.9427922061357918
 20
0.8406199684738809
 30
0.0
 11
0.7458442951432858
 21
0.8406199684738809
 31
0.0
  0
LINE
  5
156
100
AcDbEntity
100
AcDbLine
  8
0
 62
256
370
-1
 48
1.0
  6
BYLAYER
 10
-1.7100520890074957
 20
0.8406199684738809
 30
0.0
 11
-1.5131041780149896
 21
0.8406199684738809
 31
0.0
  0
LINE
  5
157
100
AcDbEntity
100
AcDbLine
  8
0
 62
256
370
-1
 48
1.0
  6
BYLAYER
 10
-2.0000000000000018
 20
0.8406199684738809
 30
0.0
 11
-1.8030520890074957
 21
0.8406199684738809
 31
0.0
  0
LINE
  5
158
100
AcDbEntity
100
AcDbLine
  8
0
 62
256
370
-1
 48
1.0
  6
BYLAYER
 10
-1.7100520890074939
 20
1.8638538969321132
 30
0.0
 11
-1.5131041780149879
 21
1.8638538969321132
 31
0.0
  0
LINE
  5
159
100
AcDbEntity
100
AcDbLine
  8
0
 62
256
370
-1
 48
1.0
  6
BYLAYER
 10
-2.0
 20
1.8638538969321132
 30
0.0
 11
-1.8030520890074939
 21
1.8638538969321132
 31
0.0
  0
LINE
  5
15A
100
AcDbEntity
100
AcDbLine
  8
0
 62
3
420
65280
370
-1
 48
1.0
  6
BYLAYER
 10
4.4222157936993653
 20
2.8006038969321079
 30
0.0
 11
4.3539657936993592
 21
2.8006038969321096
 31
0.0
  0
LINE
  5
15B
100
AcDbEntity
100
AcDbLine
  8
0
 62
3
420
65280
370
-1
 48
1.0
  6
BYLAYER
 10
2.4090764086440082
 20
2.8006038969321079
 30
0.0
 11
2.340826408644002
 21
2.8006038969321096
 31
0.0
  0
LINE
  5
15C
100
AcDbEntity
100
AcDbLine
  8
0
 62
256
370
-1
 48
1.0
  6
BYLAYER
 10
0.4222157936993653
 20
2.8006038969321079
 30
0.0
 11
0.3539657936993592
 21
2.8006038969321096
 31
0.0
  0
LINE
  5
15D
100
AcDbEntity
100
AcDbLine
  8
0
 62
256
370
-1
 48
1.0
  6
BYLAYER
 10
-1.5909235913559936
 20
2.8006038969321079
 30
0.0
 11
-1.6591735913559962
 21
2.8006038969321096
 31
0.0
  0
LINE
  5
15E
100
AcDbEntity
100
AcDbLine
  8
0
 62
3
420
65280
370
-1
 48
1.0
  6
BYLAYER
 10
-3.5777842063006347
 20
2.8006038969321079
 30
0.0
 11
-3.6460342063006408
 21
2.8006038969321096
 31
0.0
  0
LINE
  5
15F
100
AcDbEntity
100
AcDbLine
  8
0
 62
3
420
65280
370
-1
 48
1.0
  6
BYLAYER
 10
-5.5909235913559918
 20
2.8006038969321079
 30
0.0
 11
-5.659173591355998
 21
2.8006038969321096
 31
0.0
  0
LINE
  5
160
100
AcDbEntity
100
AcDbLine
  8
0
 62
256
370
-1
 48
1.0
  6
BYLAYER
 10
0.7458442951432858
 20
1.9753538969321109
 30
0.0
 11
0.7458442951432858
 21
2.0436038969321135
 31
0.0
  0
LINE
  5
161
100
AcDbEntity
100
AcDbLine
  8
0
 62
256
370
-1
 48
1.0
  6
BYLAYER
 10
0.7458442951432858
 20
0.9521199684738786
 30
0.0
 11
0.7458442951432858
 21
1.0203699684738812
 31
0.0
  0
LINE
  5
162
100
AcDbEntity
100
AcDbLine
  8
0
 62
256
370
-1
 48
1.0
  6
BYLAYER
 10
-1.8030520890074957
 20
0.9521199684738786
 30
0.0
 11
-1.8030520890074939
 21
1.0203699684738812
 31
0.0
  0
LINE
  5
163
100
AcDbEntity
100
AcDbLine
  8
0
 62
256
370
-1
 48
1.0
  6
BYLAYER
 10
-1.8030520890074939
 20
1.9753538969321109
 30
0.0
 11
-1.8030520890074921
 21
2.0436038969321135
 31
0.0
  0
LINE
  5
164
100
AcDbEntity
100
AcDbLine
  8
0
 62
256
370
-1
 48
1.0
  6
BYLAYER
 10
0.4222157936993653
 20
2.8936038969321078
 30
0.0
 11
0.3539657936993592
 21
2.8936038969321096
 31
0.0
  0
LINE
  5
165
100
AcDbEntity
100
AcDbLine
  8
0
 62
256
370
-1
 48
1.0
  6
BYLAYER
 10
-1.5909235913559936
 20
2.8936038969321078
 30
0.0
 11
-1.6591735913559962
 21
2.8936038969321096
 31
0.0
  0
LINE
  5
166
100
AcDbEntity
100
AcDbLine
  8
0
 62
256
370
-1
 48
1.0
  6
BYLAYER
 10
0.6528442951432858
 20
1.9753538969321109
 30
0.0
 11
0.6528442951432822
 21
2.0436038969321135
 31
0.0
  0
LINE
  5
167
100
AcDbEntity
100
AcDbLine
  8
0
 62
256
370
-1
 48
1.0
  6
BYLAYER
 10
0.6528442951432893
 20
0.9521199684738786
 30
0.0
 11
0.6528442951432858
 21
1.0203699684738812
 31
0.0
  0
LINE
  5
168
100
AcDbEntity
100
AcDbLine
  8
0
 62
256
370
-1
 48
1.0
  6
BYLAYER
 10
-1.7100520890074957
 20
0.9521199684738786
 30
0.0
 11
-1.7100520890074939
 21
1.0203699684738812
 31
0.0
  0
LINE
  5
169
100
AcDbEntity
100
AcDbLine
  8
0
 62
256
370
-1
 48
1.0
  6
BYLAYER
 10
-1.7100520890074939
 20
1.9753538969321109
 30
0.0
 11
-1.7100520890074922
 21
2.0436038969321135
 31
0.0
  0
LINE
  5
16A
100
AcDbEntity
100
AcDbLine
  8
0
 62
3
420
65280
370
-1
 48
1.0
  6
BYLAYER
 10
4.3539657936993592
 20
2.8936038969321078
 30
0.0
 11
4.6019657936993639
 21
2.8936038969321096
 31
0.0
  0
LINE
  5
16B
100
AcDbEntity
100
AcDbLine
  8
0
 62
3
420
65280
370
-1
 48
1.0
  6
BYLAYER
 10
2.340826408644002
 20
2.8936038969321078
 30
0.0
 11
2.5888264086440067
 21
2.8936038969321096
 31
0.0
  0
LINE
  5
16C
100
AcDbEntity
100
AcDbLine
  8
0
 62
256
370
-1
 48
1.0
  6
BYLAYER
 10
0.5337157936993577
 20
2.8936038969321078
 30
0.0
 11
0.6019657936993639
 21
2.8936038969321096
 31
0.0
  0
LINE
  5
16D
100
AcDbEntity
100
AcDbLine
  8
0
 62
256
370
-1
 48
1.0
  6
BYLAYER
 10
-1.4794235913559959
 20
2.8936038969321078
 30
0.0
 11
-1.4111735913559951
 21
2.8936038969321096
 31
0.0
  0
LINE
  5
16E
100
AcDbEntity
100
AcDbLine
  8
0
 62
3
420
65280
370
-1
 48
1.0
  6
BYLAYER
 10
-3.6460342063006408
 20
2.8936038969321078
 30
0.0
 11
-3.3980342063006361
 21
2.8936038969321096
 31
0.0
  0
LINE
  5
16F
100
AcDbEntity
100
AcDbLine
  8
0
 62
3
420
65280
370
-1
 48
1.0
  6
BYLAYER
 10
-5.659173591355998
 20
2.8936038969321078
 30
0.0
 11
-5.4111735913559933
 21
2.8936038969321096
 31
0.0
  0
LINE
  5
170
100
AcDbEntity
100
AcDbLine
  8
0
 62
256
370
-1
 48
1.0
  6
BYLAYER
 10
0.6528442951432858
 20
1.8638538969321132
 30
0.0
 11
0.6528442951432822
 21
1.7956038969321124
 31
0.0
  0
LINE
  5
171
100
AcDbEntity
100
AcDbLine
  8
0
 62
256
370
-1
 48
1.0
  6
BYLAYER
 10
0.6528442951432893
 20
0.8406199684738809
 30
0.0
 11
0.6528442951432858
 21
0.7723699684738801
 31
0.0
  0
LINE
  5
172
100
AcDbEntity
100
AcDbLine
  8
0
 62
256
370
-1
 48
1.0
  6
BYLAYER
 10
-1.7100520890074957
 20
0.8406199684738809
 30
0.0
 11
-1.7100520890074939
 21
0.7723699684738801
 31
0.0
  0
LINE
  5
173
100
AcDbEntity
100
AcDbLine
  8
0
 62
256
370
-1
 48
1.0
  6
BYLAYER
 10
-1.7100520890074939
 20
1.8638538969321132
 30
0.0
 11
-1.7100520890074922
 21
1.7956038969321124
 31
0.0
  0
LINE
  5
174
100
AcDbEntity
100
AcDbLine
  8
0
 62
3
420
65280
370
-1
 48
1.0
  6
BYLAYER
 10
2.5205764086440041
 20
2.8006038969321079
 30
0.0
 11
2.5888264086440067
 21
2.8006038969321096
 31
0.0
  0
LINE
  5
175
100
AcDbEntity
100
AcDbLine
  8
0
 62
3
420
65280
370
-1
 48
1.0
  6
BYLAYER
 10
4.5337157936993577
 20
2.8006038969321079
 30
0.0
 11
4.6019657936993639
 21
2.8006038969321096
 31
0.0
  0
LINE
  5
176
100
AcDbEntity
100
AcDbLine
  8
0
 62
256
370
-1
 48
1.0
  6
BYLAYER
 10
0.5337157936993577
 20
2.8006038969321079
 30
0.0
 11
0.6019657936993639
 21
2.8006038969321096
 31
0.0
  0
LINE
  5
177
100
AcDbEntity
100
AcDbLine
  8
0
 62
256
370
-1
 48
1.0
  6
BYLAYER
 10
-1.4794235913559959
 20
2.8006038969321079
 30
0.0
 11
-1.4111735913559951
 21
2.8006038969321096
 31
0.0
  0
LINE
  5
178
100
AcDbEntity
100
AcDbLine
  8
0
 62
3
420
65280
370
-1
 48
1.0
  6
BYLAYER
 10
-5.4794235913559959
 20
2.8006038969321079
 30
0.0
 11
-5.4111735913559933
 21
2.8006038969321096
 31
0.0
  0
LINE
  5
179
100
AcDbEntity
100
AcDbLine
  8
0
 62
3
420
65280
370
-1
 48
1.0
  6
BYLAYER
 10
-3.4662842063006423
 20
2.8006038969321079
 30
0.0
 11
-3.3980342063006361
 21
2.8006038969321096
 31
0.0
  0
LINE
  5
17A
100
AcDbEntity
100
AcDbLine
  8
0
 62
256
370
-1
 48
1.0
  6
BYLAYER
 10
0.7458442951432858
 20
1.8638538969321132
 30
0.0
 11
0.7458442951432858
 21
1.7956038969321124
 31
0.0
  0
LINE
  5
17B
100
AcDbEntity
100
AcDbLine
  8
0
 62
256
370
-1
 48
1.0
  6
BYLAYER
 10
0.7458442951432858
 20
0.8406199684738809
 30
0.0
 11
0.7458442951432858
 21
0.7723699684738801
 31
0.0
  0
LINE
  5
17C
100
AcDbEntity
100
AcDbLine
  8
0
 62
256
370
-1
 48
1.0
  6
BYLAYER
 10
-1.8030520890074957
 20
0.8406199684738809
 30
0.0
 11
-1.8030520890074939
 21
0.7723699684738801
 31
0.0
  0
LINE
  5
17D
100
AcDbEntity
100
AcDbLine
  8
0
 62
256
370
-1
 48
1.0
  6
BYLAYER
 10
-1.8030520890074939
 20
1.8638538969321132
 30
0.0
 11
-1.8030520890074921
 21
1.7956038969321124
 31
0.0
  0
ARC
  5
17E
100
AcDbEntity
  8
0
 62
3
420
65280
370
-1
 48
1.0
  6
BYLAYER
100
AcDbCircle
 10
4.4779657936993615
 20
2.3670962735262275
 30
0.0
 40
0.0557499999999997
100
AcDbArc
 50
180.0
 51
0.0
  0
ARC
  5
17F
100
AcDbEntity
  8
0
 62
3
420
65280
370
-1
 48
1.0
  6
BYLAYER
100
AcDbCircle
 10
2.4648264086440044
 20
2.3670962735262275
 30
0.0
 40
0.0557499999999997
100
AcDbArc
 50
180.0
 51
0.0
  0
ARC
  5
180
100
AcDbEntity
  8
0
 62
256
370
-1
 48
1.0
  6
BYLAYER
100
AcDbCircle
 10
0.4779657936993615
 20
2.3670962735262275
 30
0.0
 40
0.0557499999999997
100
AcDbArc
 50
180.0
 51
0.0
  0
ARC
  5
181
100
AcDbEntity
  8
0
 62
256
370
-1
 48
1.0
  6
BYLAYER
100
AcDbCircle
 10
-1.5351735913559974
 20
2.3670962735262275
 30
0.0
 40
0.0557499999999997
100
AcDbArc
 50
180.0
 51
0.0
  0
ARC
  5
182
100
AcDbEntity
  8
0
 62
3
420
65280
370
-1
 48
1.0
  6
BYLAYER
100
AcDbCircle
 10
-3.5220342063006385
 20
2.3670962735262275
 30
0.0
 40
0.0557499999999997
100
AcDbArc
 50
180.0
 51
0.0
  0
ARC
  5
183
100
AcDbEntity
  8
0
 62
3
420
65280
370
-1
 48
1.0
  6
BYLAYER
100
AcDbCircle
 10
-5.5351735913559956
 20
2.3670962735262275
 30
0.0
 40
0.0557499999999997
100
AcDbArc
 50
180.0
 51
0.0
  0
ARC
  5
184
100
AcDbEntity
  8
0
 62
256
370
-1
 48
1.0
  6
BYLAYER
100
AcDbCircle
 10
0.4558963841507833
 20
0.8963699684738806
 30
0.0
 40
0.0557499999999997
100
AcDbArc
 50
90.0
 51
270.0
  0
ARC
  5
185
100
AcDbEntity
  8
0
 62
256
370
-1
 48
1.0
  6
BYLAYER
100
AcDbCircle
 10
0.4558963841507797
 20
1.919603896932113
 30
0.0
 40
0.0557499999999997
100
AcDbArc
 50
90.0
 51
270.0
  0
ARC
  5
186
100
AcDbEntity
  8
0
 62
256
370
-1
 48
1.0
  6
BYLAYER
100
AcDbCircle
 10
-1.5131041780149896
 20
0.8963699684738806
 30
0.0
 40
0.0557499999999997
100
AcDbArc
 50
270.0
 51
90.0
  0
ARC
  5
187
100
AcDbEntity
  8
0
 62
256
370
-1
 48
1.0
  6
BYLAYER
100
AcDbCircle
 10
-1.5131041780149879
 20
1.919603896932113
 30
0.0
 40
0.0557499999999997
100
AcDbArc
 50
270.0
 51
90.0
  0
LINE
  5
188
100
AcDbEntity
100
AcDbLine
  8
0
 62
256
370
-1
 48
1.0
  6
BYLAYER
 10
-3.0572077938642086
 20
2.7999999999999949
 30
0.0
 11
-3.0572077938642117
 21
0.4599738654059757
 31
0.0
  0
LINE
  5
189
100
AcDbEntity
100
AcDbLine
  8
0
 62
256
370
-1
 48
1.0
  6
BYLAYER
 10
-6.0
 20
2.7999999999999976
 30
0.0
 11
-6.0
 21
0.4599738654059793
 31
0.0
  0
LINE
  5
18A
100
AcDbEntity
100
AcDbLine
  8
0
 62
256
370
-1
 48
1.0
  6
BYLAYER
 10
2.0
 20
2.7999999999999976
 30
0.0
 11
2.0
 21
0.4599738654059795
 31
0.0
  0
LINE
  5
18B
100
AcDbEntity
100
AcDbLine
  8
0
 62
256
370
-1
 48
1.0
  6
BYLAYER
 10
4.942792206135791
 20
2.7999999999999949
 30
0.0
 11
4.9427922061357883
 21
0.459973865405976
 31
0.0
  0
LINE
  5
18C
100
AcDbEntity
100
AcDbLine
  8
0
 62
256
370
-1
 48
1.0
  6
BYLAYER
 10
0.9427922061357918
 20
1.863853896932115
 30
0.0
 11
0.9427922061357918
 21
0.9521199684738804
 31
0.0
  0
LINE
  5
18D
100
AcDbEntity
100
AcDbLine
  8
0
 62
256
370
-1
 48
1.0
  6
BYLAYER
 10
-2.0
 20
1.863853896932115
 30
0.0
 11
-2.0000000000000018
 21
0.9521199684738804
 31
0.0
  0
LINE
  5
18E
100
AcDbEntity
100
AcDbLine
  8
0
 62
256
370
-1
 48
1.0
  6
BYLAYER
 10
0.9427922061357918
 20
0.8406199684738809
 30
0.0
 11
0.9427922061357918
 21
0.4599738654059848
 31
0.0
  0
LINE
  5
18F
100
AcDbEntity
100
AcDbLine
  8
0
 62
256
370
-1
 48
1.0
  6
BYLAYER
 10
-2.0000000000000018
 20
0.8406199684738809
 30
0.0
 11
-2.0
 21
0.4599738654059848
 31
0.0
  0
LINE
  5
190
100
AcDbEntity
100
AcDbLine
  8
0
 62
3
420
65280
370
-1
 48
1.0
  6
BYLAYER
 10
2.1969479109925025
 20
0.7723699684738747
 30
0.0
 11
2.1969479109925025
 21
1.0203699684738758
 31
0.0
  0
LINE
  5
191
100
AcDbEntity
100
AcDbLine
  8
0
 62
3
420
65280
370
-1
 48
1.0
  6
BYLAYER
 10
-5.8030520890074975
 20
0.7723699684738745
 30
0.0
 11
-5.8030520890074975
 21
1.0203699684738756
 31
0.0
  0
LINE
  5
192
100
AcDbEntity
100
AcDbLine
  8
0
 62
3
420
65280
370
-1
 48
1.0
  6
BYLAYER
 10
2.2899479109925061
 20
0.7723699684738747
 30
0.0
 11
2.2899479109925061
 21
1.0203699684738758
 31
0.0
  0
LINE
  5
193
100
AcDbEntity
100
AcDbLine
  8
0
 62
3
420
65280
370
-1
 48
1.0
  6
BYLAYER
 10
-5.7100520890074939
 20
0.7723699684738745
 30
0.0
 11
-5.7100520890074939
 21
1.0203699684738756
 31
0.0
  0
LINE
  5
194
100
AcDbEntity
100
AcDbLine
  8
0
 62
3
420
65280
370
-1
 48
1.0
  6
BYLAYER
 10
4.6528442951432893
 20
0.7723699684738747
 30
0.0
 11
4.6528442951432893
 21
1.0203699684738758
 31
0.0
  0
LINE
  5
195
100
AcDbEntity
100
AcDbLine
  8
0
 62
3
420
65280
370
-1
 48
1.0
  6
BYLAYER
 10
-3.3471557048567107
 20
0.7723699684738745
 30
0.0
 11
-3.3471557048567107
 21
1.0203699684738756
 31
0.0
  0
LINE
  5
196
100
AcDbEntity
100
AcDbLine
  8
0
 62
3
420
65280
370
-1
 48
1.0
  6
BYLAYER
 10
4.7458442951432858
 20
0.7723699684738747
 30
0.0
 11
4.7458442951432858
 21
1.0203699684738758
 31
0.0
  0
LINE
  5
197
100
AcDbEntity
100
AcDbLine
  8
0
 62
3
420
65280
370
-1
 48
1.0
  6
BYLAYER
 10
-3.2541557048567142
 20
0.7723699684738745
 30
0.0
 11
-3.2541557048567142
 21
1.0203699684738756
 31
0.0
  0
LINE
  5
198
100
AcDbEntity
100
AcDbLine
  8
0
 62
3
420
65280
370
-1
 48
1.0
  6
BYLAYER
 10
4.6528442951432858
 20
1.7956038969321071
 30
0.0
 11
4.6528442951432858
 21
2.0436038969321082
 31
0.0
  0
LINE
  5
199
100
AcDbEntity
100
AcDbLine
  8
0
 62
3
420
65280
370
-1
 48
1.0
  6
BYLAYER
 10
-3.3471557048567142
 20
1.7956038969321069
 30
0.0
 11
-3.3471557048567142
 21
2.0436038969321082
 31
0.0
  0
LINE
  5
19A
100
AcDbEntity
100
AcDbLine
  8
0
 62
3
420
65280
370
-1
 48
1.0
  6
BYLAYER
 10
4.7458442951432858
 20
1.7956038969321071
 30
0.0
 11
4.7458442951432858
 21
2.0436038969321082
 31
0.0
  0
LINE
  5
19B
100
AcDbEntity
100
AcDbLine
  8
0
 62
3
420
65280
370
-1
 48
1.0
  6
BYLAYER
 10
-3.2541557048567142
 20
1.7956038969321069
 30
0.0
 11
-3.2541557048567142
 21
2.0436038969321082
 31
0.0
  0
LINE
  5
19C
100
AcDbEntity
100
AcDbLine
  8
0
 62
3
420
65280
370
-1
 48
1.0
  6
BYLAYER
 10
2.1969479109925061
 20
1.7956038969321071
 30
0.0
 11
2.1969479109925061
 21
2.0436038969321082
 31
0.0
  0
LINE
  5
19D
100
AcDbEntity
100
AcDbLine
  8
0
 62
3
420
65280
370
-1
 48
1.0
  6
BYLAYER
 10
-5.8030520890074939
 20
1.7956038969321069
 30
0.0
 11
-5.8030520890074939
 21
2.0436038969321082
 31
0.0
  0
LINE
  5
19E
100
AcDbEntity
100
AcDbLine
  8
0
 62
3
420
65280
370
-1
 48
1.0
  6
BYLAYER
 10
2.2899479109925061
 20
1.7956038969321071
 30
0.0
 11
2.2899479109925061
 21
2.0436038969321082
 31
0.0
  0
LINE
  5
19F
100
AcDbEntity
100
AcDbLine
  8
0
 62
3
420
65280
370
-1
 48
1.0
  6
BYLAYER
 10
-5.7100520890074939
 20
1.7956038969321069
 30
0.0
 11
-5.7100520890074939
 21
2.0436038969321082
 31
0.0
  0
CIRCLE
  5
1A0
100
AcDbEntity
100
AcDbCircle
  8
0
 62
3
420
65280
370
-1
 48
1.0
  6
BYLAYER
 10
3.0
 20
2.5999999999999996
 30
0.0
 40
0.04905
  0
CIRCLE
  5
1A1
100
AcDbEntity
100
AcDbCircle
  8
0
 62
3
420
65280
370
-1
 48
1.0
  6
BYLAYER
 10
2.4428110023011982
 20
0.7000000000000002
 30
0.0
 40
0.04905
  0
CIRCLE
  5
1A2
100
AcDbEntity
100
AcDbCircle
  8
0
 62
3
420
65280
370
-1
 48
1.0
  6
BYLAYER
 10
4.5
 20
0.7000000000000002
 30
0.0
 40
0.04905
  0
CIRCLE
  5
1A3
100
AcDbEntity
100
AcDbCircle
  8
0
 62
3
420
65280
370
-1
 48
1.0
  6
BYLAYER
 10
3.9428110023011946
 20
2.5999999999999996
 30
0.0
 40
0.04905
  0
CIRCLE
  5
1A4
100
AcDbEntity
100
AcDbCircle
  8
0
 62
3
420
65280
370
-1
 48
1.0
  6
BYLAYER
 10
-1.0
 20
2.600000000000005
 30
0.0
 40
0.04905
  0
CIRCLE
  5
1A5
100
AcDbEntity
100
AcDbCircle
  8
0
 62
3
420
65280
370
-1
 48
1.0
  6
BYLAYER
 10
-1.5571889976988018
 20
0.7000000000000055
 30
0.0
 40
0.04905
  0
CIRCLE
  5
1A6
100
AcDbEntity
100
AcDbCircle
  8
0
 62
3
420
65280
370
-1
 48
1.0
  6
BYLAYER
 10
0.5000000000000004
 20
0.7000000000000055
 30
0.0
 40
0.04905
  0
CIRCLE
  5
1A7
100
AcDbEntity
100
AcDbCircle
  8
0
 62
3
420
65280
370
-1
 48
1.0
  6
BYLAYER
 10
-0.0571889976988054
 20
2.600000000000005
 30
0.0
 40
0.04905
  0
CIRCLE
  5
1A8
100
AcDbEntity
100
AcDbCircle
  8
0
 62
3
420
65280
370
-1
 48
1.0
  6
BYLAYER
 10
-5.5571889976988018
 20
0.7
 30
0.0
 40
0.04905
  0
CIRCLE
  5
1A9
100
AcDbEntity
100
AcDbCircle
  8
0
 62
3
420
65280
370
-1
 48
1.0
  6
BYLAYER
 10
-3.4999999999999996
 20
0.7
 30
0.0
 40
0.04905
  0
CIRCLE
  5
1AA
100
AcDbEntity
100
AcDbCircle
  8
0
 62
3
420
65280
370
-1
 48
1.0
  6
BYLAYER
 10
-4.0571889976988054
 20
2.5999999999999996
 30
0.0
 40
0.04905
  0
CIRCLE
  5
1AB
100
AcDbEntity
100
AcDbCircle
  8
0
 62
3
420
65280
370
-1
 48
1.0
  6
BYLAYER
 10
-5.0
 20
2.5999999999999996
 30
0.0
 40
0.04905
  0
LINE
  5
1AC
100
AcDbEntity
100
AcDbLine
  8
0
 62
256
370
-1
 48
1.0
  6
BYLAYER
 10
-4.2999999999999998
 20
2.6999999999999997
 30
0.0
 11
-3.9999999999999996
 21
2.9999999999999996
 31
0.0
  0
LINE
  5
1AD
100
AcDbEntity
100
AcDbLine
  8
0
 62
256
370
-1
 48
1.0
  6
BYLAYER
 10
-4.7572077938642074
 20
2.6999999999999997
 30
0.0
 11
-5.0572077938642073
 21
2.9999999999999996
 31
0.0
  0
LINE
  5
1AE
100
AcDbEntity
100
AcDbLine
  8
0
 62
256
370
-1
 48
1.0
  6
BYLAYER
 10
-0.2999999999999996
 20
2.7000000000000046
 30
0.0
 11
0.0000000000000007
 21
3.0000000000000053
 31
0.0
  0
LINE
  5
1AF
100
AcDbEntity
100
AcDbLine
  8
0
 62
256
370
-1
 48
1.0
  6
BYLAYER
 10
-0.7572077938642072
 20
2.7000000000000046
 30
0.0
 11
-1.057207793864207
 21
3.0000000000000053
 31
0.0
  0
LINE
  5
1B0
100
AcDbEntity
100
AcDbLine
  8
0
 62
256
370
-1
 48
1.0
  6
BYLAYER
 10
3.7000000000000002
 20
2.6999999999999997
 30
0.0
 11
4.0000000000000009
 21
2.9999999999999996
 31
0.0
  0
LINE
  5
1B1
100
AcDbEntity
100
AcDbLine
  8
0
 62
256
370
-1
 48
1.0
  6
BYLAYER
 10
3.2427922061357926
 20
2.6999999999999997
 30
0.0
 11
2.9427922061357927
 21
2.9999999999999996
 31
0.0
  0
LINE
  5
1B2
100
AcDbEntity
100
AcDbLine
  8
0
 62
256
370
-1
 48
1.0
  6
BYLAYER
 10
-0.2999999999999998
 20
2.7000000000000046
 30
0.0
 11
0.0000000000000004
 21
3.0000000000000044
 31
0.0
  0
LINE
  5
1B3
100
AcDbEntity
100
AcDbLine
  8
0
 62
256
370
-1
 48
1.0
  6
BYLAYER
 10
-0.7572077938642074
 20
2.7000000000000046
 30
0.0
 11
-1.0572077938642073
 21
3.0000000000000044
 31
0.0
  0
LINE
  5
1B4
100
AcDbEntity
100
AcDbLine
  8
0
 62
256
370
-1
 48
1.0
  6
BYLAYER
 10
-4.7572077938642074
 20
2.6999999999999997
 30
0.0
 11
-4.2999999999999998
 21
2.6999999999999997
 31
0.0
  0
LINE
  5
1B5
100
AcDbEntity
100
AcDbLine
  8
0
 62
256
370
-1
 48
1.0
  6
BYLAYER
 10
3.2427922061357926
 20
2.6999999999999997
 30
0.0
 11
3.7000000000000002
 21
2.6999999999999997
 31
0.0
  0
LINE
  5
1B6
100
AcDbEntity
100
AcDbLine
  8
0
 62
256
370
-1
 48
1.0
  6
BYLAYER
 10
-0.7572077938642074
 20
2.7000000000000046
 30
0.0
 11
-0.2999999999999998
 21
2.7000000000000046
 31
0.0
  0
LINE
  5
1B7
100
AcDbEntity
100
AcDbLine
  8
0
 62
256
370
-1
 48
1.0
  6
BYLAYER
 10
-3.9999999999999996
 20
2.9999999999999996
 30
0.0
 11
-3.2572077938642083
 21
2.9999999999999956
 31
0.0
  0
LINE
  5
1B8
100
AcDbEntity
100
AcDbLine
  8
0
 62
256
370
-1
 48
1.0
  6
BYLAYER
 10
4.0000000000000009
 20
2.9999999999999996
 30
0.0
 11
4.7427922061357917
 21
2.9999999999999956
 31
0.0
  0
LINE
  5
1B9
100
AcDbEntity
100
AcDbLine
  8
0
 62
256
370
-1
 48
1.0
  6
BYLAYER
 10
-5.0572077938642073
 20
2.9999999999999996
 30
0.0
 11
-5.7999999999999998
 21
2.9999999999999987
 31
0.0
  0
LINE
  5
1BA
100
AcDbEntity
100
AcDbLine
  8
0
 62
256
370
-1
 48
1.0
  6
BYLAYER
 10
2.9427922061357927
 20
2.9999999999999996
 30
0.0
 11
2.2000000000000002
 21
2.9999999999999987
 31
0.0
  0
LINE
  5
1BB
100
AcDbEntity
100
AcDbLine
  8
0
 62
256
370
-1
 48
1.0
  6
BYLAYER
 10
-6.0
 20
2.7999999999999976
 30
0.0
 11
-5.7999999999999998
 21
2.9999999999999982
 31
0.0
  0
LINE
  5
1BC
100
AcDbEntity
100
AcDbLine
  8
0
 62
256
370
-1
 48
1.0
  6
BYLAYER
 10
-1.9999999999999998
 20
2.8000000000000025
 30
0.0
 11
-1.7999999999999996
 21
3.0000000000000036
 31
0.0
  0
LINE
  5
1BD
100
AcDbEntity
100
AcDbLine
  8
0
 62
256
370
-1
 48
1.0
  6
BYLAYER
 10
2.0
 20
2.7999999999999976
 30
0.0
 11
2.2000000000000002
 21
2.9999999999999982
 31
0.0
  0
LINE
  5
1BE
100
AcDbEntity
100
AcDbLine
  8
0
 62
256
370
-1
 48
1.0
  6
BYLAYER
 10
-3.2572077938642083
 20
2.9999999999999947
 30
0.0
 11
-3.0572077938642086
 21
2.7999999999999949
 31
0.0
  0
LINE
  5
1BF
100
AcDbEntity
100
AcDbLine
  8
0
 62
256
370
-1
 48
1.0
  6
BYLAYER
 10
0.7427922061357919
 20
3.0
 30
0.0
 11
0.9427922061357916
 21
2.8000000000000007
 31
0.0
  0
LINE
  5
1C0
100
AcDbEntity
100
AcDbLine
  8
0
 62
256
370
-1
 48
1.0
  6
BYLAYER
 10
4.7427922061357917
 20
2.9999999999999947
 30
0.0
 11
4.942792206135791
 21
2.7999999999999949
 31
0.0
  0
LINE
  5
1C1
100
AcDbEntity
100
AcDbLine
  8
0
 62
256
370
-1
 48
1.0
  6
BYLAYER
 10
0.0000000000000004
 20
3.0000000000000044
 30
0.0
 11
0.4222157936993582
 21
2.9999999999999982
 31
0.0
  0
LINE
  5
1C2
100
AcDbEntity
100
AcDbLine
  8
0
 62
256
370
-1
 48
1.0
  6
BYLAYER
 10
-1.0572077938642073
 20
3.0000000000000044
 30
0.0
 11
-1.4794235913559977
 21
2.9999999999999982
 31
0.0
  0
LINE
  5
1C3
100
AcDbEntity
100
AcDbLine
  8
0
 62
256
370
-1
 48
1.0
  6
BYLAYER
 10
0.9427922061357916
 20
2.8000000000000007
 30
0.0
 11
0.9427922061357918
 21
1.9753538969321127
 31
0.0
  0
LINE
  5
1C4
100
AcDbEntity
100
AcDbLine
  8
0
 62
256
370
-1
 48
1.0
  6
BYLAYER
 10
-2.0
 20
1.9753538969321127
 30
0.0
 11
-1.9999999999999998
 21
2.8000000000000025
 31
0.0
  0
LINE
  5
1C5
100
AcDbEntity
100
AcDbLine
  8
0
 62
256
370
-1
 48
1.0
  6
BYLAYER
 10
-1.5909235913559989
 20
2.9999999999999982
 30
0.0
 11
-1.7999999999999996
 21
3.0000000000000036
 31
0.0
  0
LINE
  5
1C6
100
AcDbEntity
100
AcDbLine
  8
0
 62
256
370
-1
 48
1.0
  6
BYLAYER
 10
0.5337157936993577
 20
2.9999999999999982
 30
0.0
 11
0.7427922061357919
 21
3.0
 31
0.0
  0
LINE
  5
1C7
100
AcDbEntity
100
AcDbLine
  8
0
 62
6
420
16711935
370
-1
 48
1.0
  6
BYLAYER
 10
8.8697007192108543
 20
-0.1209193361851648
 30
0.0
 11
9.0062007192108666
 21
-0.1209193361851648
 31
0.0
  0
LINE
  5
1C8
100
AcDbEntity
100
AcDbLine
  8
0
 62
256
370
-1
 48
1.0
  6
BYLAYER
 10
-0.73553269375
 20
-2.6999999999999815
 30
0.0
 11
-0.4710653875000001
 21
-2.3499999999999912
 31
0.0
  0
LINE
  5
1C9
100
AcDbEntity
100
AcDbLine
  8
0
 62
256
370
-1
 48
1.0
  6
BYLAYER
 10
0.5868038374999996
 20
-2.3499999999999912
 30
0.0
 11
0.8512711437499998
 21
-2.6999999999999815
 31
0.0
  0
LINE
  5
1CA
100
AcDbEntity
100
AcDbLine
  8
0
 62
256
370
-1
 48
1.0
  6
BYLAYER
 10
1.1157384499999998
 20
-2.0
 30
0.0
 11
1.6697007159240884
 21
-2.0
 31
0.0
  0
LINE
  5
1CB
100
AcDbEntity
100
AcDbLine
  8
0
 62
256
370
-1
 48
1.0
  6
BYLAYER
 10
-1.5539622659240875
 20
-2.0
 30
0.0
 11
-0.9999999999999991
 21
-2.0
 31
0.0
  0
CIRCLE
  5
1CC
100
AcDbEntity
100
AcDbCircle
  8
0
 62
3
420
65280
370
-1
 48
1.0
  6
BYLAYER
 10
0.5819192249999999
 20
-0.7457383889760743
 30
0.0
 40
0.04905
  0
CIRCLE
  5
1CD
100
AcDbEntity
100
AcDbCircle
  8
0
 62
3
420
65280
370
-1
 48
1.0
  6
BYLAYER
 10
0.5819192249999999
 20
-1.7689723174343066
 30
0.0
 40
0.04905
  0
CIRCLE
  5
1CE
100
AcDbEntity
100
AcDbCircle
  8
0
 62
3
420
65280
370
-1
 48
1.0
  6
BYLAYER
 10
-0.4661807750000001
 20
-0.7457383889760743
 30
0.0
 40
0.04905
  0
CIRCLE
  5
1CF
100
AcDbEntity
100
AcDbCircle
  8
0
 62
3
420
65280
370
-1
 48
1.0
  6
BYLAYER
 10
-0.4661807750000001
 20
-1.7689723174343066
 30
0.0
 40
0.04905
  0
CIRCLE
  5
1D0
100
AcDbEntity
100
AcDbCircle
  8
0
 62
3
420
65280
370
-1
 48
1.0
  6
BYLAYER
 10
-0.4661807750000001
 20
-1.7689723174343066
 30
0.0
 40
0.04905
  0
LINE
  5
1D1
100
AcDbEntity
100
AcDbLine
  8
0
 62
256
370
-1
 48
1.0
  6
BYLAYER
 10
-2.0
 20
0.6586422859081877
 30
0.0
 11
-2.0
 21
0.4599738654059848
 31
0.0
  0
LINE
  5
1D2
100
AcDbEntity
100
AcDbLine
  8
0
 62
256
370
-1
 48
1.0
  6
BYLAYER
 10
-1.4999999999999998
 20
-1.9999999999999998
 30
0.0
 11
-1.5000000000000016
 21
-1.8180223174343064
 31
0.0
  0
LINE
  5
1D3
100
AcDbEntity
100
AcDbLine
  8
0
 62
256
370
-1
 48
1.0
  6
BYLAYER
 10
-2.0
 20
0.6586422859081877
 30
0.0
 11
-2.0000000000000018
 21
0.840619968473881
 31
0.0
  0
LINE
  5
1D4
100
AcDbEntity
100
AcDbLine
  8
0
 62
256
370
-1
 48
1.0
  6
BYLAYER
 10
0.5868038374999996
 20
-2.3499999999999912
 30
0.0
 11
-0.4710653875000001
 21
-2.3499999999999912
 31
0.0
  0
LINE
  5
1D5
100
AcDbEntity
100
AcDbLine
  8
0
 62
256
370
-1
 48
1.0
  6
BYLAYER
 10
0.3944192249999999
 20
-0.4779383889760742
 30
0.0
 11
0.7694192249999999
 21
-0.4779383889760742
 31
0.0
  0
LINE
  5
1D6
100
AcDbEntity
100
AcDbLine
  8
0
 62
256
370
-1
 48
1.0
  6
BYLAYER
 10
-0.6536807750000001
 20
-0.4779383889760742
 30
0.0
 11
-0.2786807750000001
 21
-0.4779383889760742
 31
0.0
  0
CIRCLE
  5
1D7
100
AcDbEntity
100
AcDbCircle
  8
0
 62
256
370
-1
 48
1.0
  6
BYLAYER
 10
0.0578692249999999
 20
-0.6966883889760742
 30
0.0
 40
0.21875
  0
LINE
  5
1D8
100
AcDbEntity
100
AcDbLine
  8
0
 62
256
370
-1
 48
1.0
  6
BYLAYER
 10
-0.2786807750000001
 20
-0.4779383889760742
 30
0.0
 11
-0.2786807750000001
 21
-1.5999999999999999
 31
0.0
  0
LINE
  5
1D9
100
AcDbEntity
100
AcDbLine
  8
0
 62
256
370
-1
 48
1.0
  6
BYLAYER
 10
-0.2786807750000001
 20
-1.5999999999999999
 30
0.0
 11
0.3944192249999999
 21
-1.5999999999999999
 31
0.0
  0
LINE
  5
1DA
100
AcDbEntity
100
AcDbLine
  8
0
 62
256
370
-1
 48
1.0
  6
BYLAYER
 10
0.3944192249999999
 20
-1.5999999999999999
 30
0.0
 11
0.3944192249999999
 21
-0.4779383889760742
 31
0.0
  0
LINE
  5
1DB
100
AcDbEntity
100
AcDbLine
  8
0
 62
256
370
-1
 48
1.0
  6
BYLAYER
 10
-0.73553269375
 20
-2.6999999999999815
 30
0.0
 11
-1.0
 21
-2.6999999999999815
 31
0.0
  0
LINE
  5
1DC
100
AcDbEntity
100
AcDbLine
  8
0
 62
256
370
-1
 48
1.0
  6
BYLAYER
 10
0.8512711437499998
 20
-2.6999999999999815
 30
0.0
 11
1.1157384499999998
 21
-2.6999999999999815
 31
0.0
  0
ENDSEC
  0
SECTION
  2
OBJECTS
  0
DICTIONARY
  5
C
100
AcDbDictionary
280
0
281
1
  3
ACAD_GROUP
350
D
  3
ACAD_LAYOUT
350
1A
  3
ACAD_MLINESTYLE
350
17
  3
ACAD_PLOTSETTINGS
350
19
  3
ACAD_PLOTSTYLENAME
350
E
  3
AcDbVariableDictionary
350
1DD
  3
QCAD_OBJECTS
350
1DE
  0
DICTIONARY
  5
D
100
AcDbDictionary
280
0
281
1
  0
ACDBDICTIONARYWDFLT
  5
E
100
AcDbDictionary
281
1
  3
Normal
350
F
100
AcDbDictionaryWithDefault
340
F
  0
ACDBPLACEHOLDER
  5
F
  0
DICTIONARY
  5
17
100
AcDbDictionary
280
0
281
1
  3
Standard
350
18
  0
MLINESTYLE
  5
18
100
AcDbMlineStyle
  2
STANDARD
 70
0
  3

 62
256
 51
90.0
 52
90.0
 71
2
 49
0.5
 62
256
  6
BYLAYER
 49
-0.5
 62
256
  6
BYLAYER
  0
DICTIONARY
  5
19
100
AcDbDictionary
280
0
281
1
  0
DICTIONARY
  5
1A
100
AcDbDictionary
281
1
  3
Layout1
350
1E
  3
Layout2
350
26
  3
Model
350
22
  0
LAYOUT
  5
1E
100
AcDbPlotSettings
  1

  2
none_device
  4

  6

 40
0.0
 41
0.0
 42
0.0
 43
0.0
 44
0.0
 45
0.0
 46
0.0
 47
0.0
 48
0.0
 49
0.0
140
0.0
141
0.0
142
1.0
143
1.0
 70
688
 72
0
 73
0
 74
5
  7

 75
16
147
1.0
148
0.0
149
0.0
100
AcDbLayout
  1
Layout1
 70
1
 71
1
 10
0.0
 20
0.0
 11
420.0
 21
297.0
 12
0.0
 22
0.0
 32
0.0
 14
100000000000000000000.0
 24
100000000000000000000.0
 34
100000000000000000000.0
 15
-100000000000000000000.0
 25
-100000000000000000000.0
 35
-100000000000000000000.0
146
0.0
 13
0.0
 23
0.0
 33
0.0
 16
1.0
 26
0.0
 36
0.0
 17
0.0
 27
1.0
 37
0.0
 76
0
330
1B
  0
LAYOUT
  5
22
100
AcDbPlotSettings
  1

  2
none_device
  4

  6

 40
0.0
 41
0.0
 42
0.0
 43
0.0
 44
0.0
 45
0.0
 46
0.0
 47
0.0
 48
0.0
 49
0.0
140
0.0
141
0.0
142
1.0
143
1.0
 70
1712
 72
0
 73
0
 74
0
  7

 75
0
147
1.0
148
0.0
149
0.0
100
AcDbLayout
  1
Model
 70
1
 71
0
 10
0.0
 20
0.0
 11
12.0
 21
9.0
 12
0.0
 22
0.0
 32
0.0
 14
0.0
 24
0.0
 34
0.0
 15
0.0
 25
0.0
 35
0.0
146
0.0
 13
0.0
 23
0.0
 33
0.0
 16
1.0
 26
0.0
 36
0.0
 17
0.0
 27
1.0
 37
0.0
 76
0
330
1F
  0
LAYOUT
  5
26
100
AcDbPlotSettings
  1

  2
none_device
  4

  6

 40
0.0
 41
0.0
 42
0.0
 43
0.0
 44
0.0
 45
0.0
 46
0.0
 47
0.0
 48
0.0
 49
0.0
140
0.0
141
0.0
142
1.0
143
1.0
 70
688
 72
0
 73
0
 74
5
  7

 75
16
147
1.0
148
0.0
149
0.0
100
AcDbLayout
  1
Layout2
 70
1
 71
2
 10
0.0
 20
0.0
 11
12.0
 21
9.0
 12
0.0
 22
0.0
 32
0.0
 14
0.0
 24
0.0
 34
0.0
 15
0.0
 25
0.0
 35
0.0
146
0.0
 13
0.0
 23
0.0
 33
0.0
 16
1.0
 26
0.0
 36
0.0
 17
0.0
 27
1.0
 37
0.0
 76
0
330
23
  0
DICTIONARY
  5
1DD
100
AcDbDictionary
281
1
  3
DIMASSOC
350
1E0
  3
HIDETEXT
350
1DF
  0
DICTIONARYVAR
  5
1DF
100
DictionaryVariables
280
0
  1
2
  0
DICTIONARYVAR
  5
1E0
100
DictionaryVariables
280
0
  1
1
  0
DICTIONARY
  5
1DE
100
AcDbDictionary
281
1
  3
ColorSettings/BackgroundColor
350
1E1
  3
ColorSettings/ColorMode
350
1E2
  3
Grid/DisplayGrid00
350
1E3
  3
Grid/DisplayGrid01
350
1E4
  3
Grid/DisplayGrid02
350
1E5
  3
Grid/DisplayGrid03
350
1E6
  3
Grid/GridSpacingX00
350
1E7
  3
Grid/GridSpacingX01
350
1E8
  3
Grid/GridSpacingX02
350
1E9
  3
Grid/GridSpacingX03
350
1EA
  3
Grid/GridSpacingY00
350
1EB
  3
Grid/GridSpacingY01
350
1EC
  3
Grid/GridSpacingY02
350
1ED
  3
Grid/GridSpacingY03
350
1EE
  3
Grid/IsometricGrid00
350
1EF
  3
Grid/IsometricGrid01
350
1F0
  3
Grid/IsometricGrid02
350
1F1
  3
Grid/IsometricGrid03
350
1F2
  3
Grid/IsometricProjection00
350
1F3
  3
Grid/IsometricProjection01
350
1F4
  3
Grid/IsometricProjection02
350
1F5
  3
Grid/IsometricProjection03
350
1F6
  3
Grid/MetaGridSpacingX00
350
1F7
  3
Grid/MetaGridSpacingX01
350
1F8
  3
Grid/MetaGridSpacingX02
350
1F9
  3
Grid/MetaGridSpacingX03
350
1FA
  3
Grid/MetaGridSpacingY00
350
1FB
  3
Grid/MetaGridSpacingY01
350
1FC
  3
Grid/MetaGridSpacingY02
350
1FD
  3
Grid/MetaGridSpacingY03
350
1FE
  3
MultiPageSettings/Columns
350
1FF
  3
MultiPageSettings/GlueMarginsBottom
350
200
  3
MultiPageSettings/GlueMarginsLeft
350
201
  3
MultiPageSettings/GlueMarginsRight
350
202
  3
MultiPageSettings/GlueMarginsTop
350
203
  3
MultiPageSettings/PrintCropMarks
350
204
  3
MultiPageSettings/Rows
350
205
  3
PageSettings/OffsetX
350
206
  3
PageSettings/OffsetY
350
207
  3
PageSettings/PageOrientation
350
208
  3
PageSettings/PaperHeight
350
209
  3
PageSettings/PaperWidth
350
20A
  3
PageSettings/Scale
350
20B
  3
PageSettings/ShowPaperBorders
350
20C
  3
QCADVersion
350
20D
  3
UnitSettings/PaperUnit
350
20E
  0
XRECORD
  5
1E1
330
1DE
100
AcDbXrecord
280
1
1000
White
  0
XRECORD
  5
1E2
330
1DE
100
AcDbXrecord
280
1
1000
FullColor
  0
XRECORD
  5
1E3
330
1DE
100
AcDbXrecord
280
1
290
1
  0
XRECORD
  5
1E4
330
1DE
100
AcDbXrecord
280
1
290
1
  0
XRECORD
  5
1E5
330
1DE
100
AcDbXrecord
280
1
290
1
  0
XRECORD
  5
1E6
330
1DE
100
AcDbXrecord
280
1
290
1
  0
XRECORD
  5
1E7
330
1DE
100
AcDbXrecord
280
1
1000
auto
  0
XRECORD
  5
1E8
330
1DE
100
AcDbXrecord
280
1
1000
auto
  0
XRECORD
  5
1E9
330
1DE
100
AcDbXrecord
280
1
1000
auto
  0
XRECORD
  5
1EA
330
1DE
100
AcDbXrecord
280
1
1000
auto
  0
XRECORD
  5
1EB
330
1DE
100
AcDbXrecord
280
1
1000
auto
  0
XRECORD
  5
1EC
330
1DE
100
AcDbXrecord
280
1
1000
auto
  0
XRECORD
  5
1ED
330
1DE
100
AcDbXrecord
280
1
1000
auto
  0
XRECORD
  5
1EE
330
1DE
100
AcDbXrecord
280
1
1000
auto
  0
XRECORD
  5
1EF
330
1DE
100
AcDbXrecord
280
1
290
0
  0
XRECORD
  5
1F0
330
1DE
100
AcDbXrecord
280
1
290
0
  0
XRECORD
  5
1F1
330
1DE
100
AcDbXrecord
280
1
290
0
  0
XRECORD
  5
1F2
330
1DE
100
AcDbXrecord
280
1
290
0
  0
XRECORD
  5
1F3
330
1DE
100
AcDbXrecord
280
1
 90
0
  0
XRECORD
  5
1F4
330
1DE
100
AcDbXrecord
280
1
 90
0
  0
XRECORD
  5
1F5
330
1DE
100
AcDbXrecord
280
1
 90
0
  0
XRECORD
  5
1F6
330
1DE
100
AcDbXrecord
280
1
 90
0
  0
XRECORD
  5
1F7
330
1DE
100
AcDbXrecord
280
1
1000
auto
  0
XRECORD
  5
1F8
330
1DE
100
AcDbXrecord
280
1
1000
auto
  0
XRECORD
  5
1F9
330
1DE
100
AcDbXrecord
280
1
1000
auto
  0
XRECORD
  5
1FA
330
1DE
100
AcDbXrecord
280
1
1000
auto
  0
XRECORD
  5
1FB
330
1DE
100
AcDbXrecord
280
1
1000
auto
  0
XRECORD
  5
1FC
330
1DE
100
AcDbXrecord
280
1
1000
auto
  0
XRECORD
  5
1FD
330
1DE
100
AcDbXrecord
280
1
1000
auto
  0
XRECORD
  5
1FE
330
1DE
100
AcDbXrecord
280
1
1000
auto
  0
XRECORD
  5
1FF
330
1DE
100
AcDbXrecord
280
1
 90
1
  0
XRECORD
  5
200
330
1DE
100
AcDbXrecord
280
1
 40
0.5
  0
XRECORD
  5
201
330
1DE
100
AcDbXrecord
280
1
 40
0.5
  0
XRECORD
  5
202
330
1DE
100
AcDbXrecord
280
1
 40
0.5
  0
XRECORD
  5
203
330
1DE
100
AcDbXrecord
280
1
 40
0.5
  0
XRECORD
  5
204
330
1DE
100
AcDbXrecord
280
1
290
0
  0
XRECORD
  5
205
330
1DE
100
AcDbXrecord
280
1
 90
1
  0
XRECORD
  5
206
330
1DE
100
AcDbXrecord
280
1
 40
0.0
  0
XRECORD
  5
207
330
1DE
100
AcDbXrecord
280
1
 40
0.0
  0
XRECORD
  5
208
330
1DE
100
AcDbXrecord
280
1
1000
Portrait
  0
XRECORD
  5
209
330
1DE
100
AcDbXrecord
280
1
 40
11.6929133858268006
  0
XRECORD
  5
20A
330
1DE
100
AcDbXrecord
280
1
 40
8.2677165354330704
  0
XRECORD
  5
20B
330
1DE
100
AcDbXrecord
280
1
1000
1:1
  0
XRECORD
  5
20C
330
1DE
100
AcDbXrecord
280
1
290
1
  0
XRECORD
  5
20D
330
1DE
100
AcDbXrecord
280
1
1000
3.11.3
  0
XRECORD
  5
20E
330
1DE
100
AcDbXrecord
280
1
 90
1
  0
ENDSEC
  0
EOF
