999
dxflib 3.7.5.0
  0
SECTION
  2
HEADER
  9
$ACADVER
  1
AC1015
  9
$HANDSEED
  5
FFFF
  9
$DIMADEC
 70
0
  9
$DIMASZ
 40
0.125
  9
$DIMAUNIT
 70
0
  9
$DIMAZIN
 70
2
  9
$DIMDEC
 70
4
  9
$DIMEXE
 40
0.0625
  9
$DIMEXO
 40
0.03125
  9
$DIMGAP
 40
0.03125
  9
$DIMLUNIT
 70
3
  9
$DIMSCALE
 40
1.0
  9
$DIMTSZ
 40
0.0
  9
$DIMTXT
 40
0.125
  9
$DIMZIN
 70
8
  9
$DWGCODEPAGE
  3
ANSI_1252
  9
$INSUNITS
 70
1
  9
$LTSCALE
 40
1.0
  9
$MEASUREMENT
 70
0
  9
$PDMODE
 70
0
  9
$PDSIZE
 40
0
  0
ENDSEC
  0
SECTION
  2
TABLES
  0
TABLE
  2
VPORT
  5
8
100
AcDbSymbolTable
 70
1
  0
VPORT
  5
30
100
AcDbSymbolTableRecord
100
AcDbViewportTableRecord
  2
*Active
 70
0
 10
0.0
 20
0.0
 11
1.0
 21
1.0
 12
286.3055555555554861
 22
148.5
 13
0.0
 23
0.0
 14
10.0
 24
10.0
 15
10.0
 25
10.0
 16
0.0
 26
0.0
 36
1.0
 17
0.0
 27
0.0
 37
0.0
 40
297.0
 41
1.92798353909465
 42
50.0
 43
0.0
 44
0.0
 50
0.0
 51
0.0
 71
0
 72
100
 73
1
 74
3
 75
1
 76
1
 77
0
 78
0
281
0
 65
1
110
0.0
120
0.0
130
0.0
111
1.0
121
0.0
131
0.0
112
0.0
122
1.0
132
0.0
 79
0
146
0.0
  0
ENDTAB
  0
TABLE
  2
LTYPE
  5
5
100
AcDbSymbolTable
 70
50
  0
LTYPE
  5
16
100
AcDbSymbolTableRecord
100
AcDbLinetypeTableRecord
  2
Continuous
 70
0
  3
Solid line
 72
65
 73
0
 40
0.0
  0
LTYPE
  5
31
100
AcDbSymbolTableRecord
100
AcDbLinetypeTableRecord
  2
ACAD_ISO15W100
 70
0
  3
ISO double-dash triple-dot __ __ . . . __ __ . .
 72
65
 73
10
 40
39.0
 49
12.0
 74
0
 49
-3.0
 74
0
 49
12.0
 74
0
 49
-3.0
 74
0
 49
0.0
 74
0
 49
-3.0
 74
0
 49
0.0
 74
0
 49
-3.0
 74
0
 49
0.0
 74
0
 49
-3.0
 74
0
  0
LTYPE
  5
32
100
AcDbSymbolTableRecord
100
AcDbLinetypeTableRecord
  2
HOT_WATER_SUPPLY
 70
0
  3
Hot water supply ---- HW ---- HW ---- HW ----
 72
65
 73
3
 40
22.8599999999999994
 49
12.6999999999999993
 74
0
 49
-5.0800000000000001
 74
0
 49
-5.0800000000000001
 74
0
  0
LTYPE
  5
33
100
AcDbSymbolTableRecord
100
AcDbLinetypeTableRecord
  2
DIVIDE
 70
0
  3
Divide ____ . . ____ . . ____ . . ____ . . ____
 72
65
 73
6
 40
31.75
 49
12.6999999999999993
 74
0
 49
-6.3499999999999996
 74
0
 49
0.0
 74
0
 49
-6.3499999999999996
 74
0
 49
0.0
 74
0
 49
-6.3499999999999996
 74
0
  0
LTYPE
  5
34
100
AcDbSymbolTableRecord
100
AcDbLinetypeTableRecord
  2
ACAD_ISO10W100
 70
0
  3
ISO dash dot __ . __ . __ . __ . __ . __ . __ . 
 72
65
 73
4
 40
18.0
 49
12.0
 74
0
 49
-3.0
 74
0
 49
0.0
 74
0
 49
-3.0
 74
0
  0
LTYPE
  5
35
100
AcDbSymbolTableRecord
100
AcDbLinetypeTableRecord
  2
GAS_LINE
 70
0
  3
Gas line ----GAS----GAS----GAS----GAS----GAS----GAS--
 72
65
 73
3
 40
24.1300000000000026
 49
12.6999999999999993
 74
0
 49
-5.0800000000000001
 74
0
 49
-6.3499999999999996
 74
0
  0
LTYPE
  5
36
100
AcDbSymbolTableRecord
100
AcDbLinetypeTableRecord
  2
ACAD_ISO04W100
 70
0
  3
ISO long-dash dot ____ . ____ . ____ . ____ . _
 72
65
 73
4
 40
30.0
 49
24.0
 74
0
 49
-3.0
 74
0
 49
0.0
 74
0
 49
-3.0
 74
0
  0
LTYPE
  5
37
100
AcDbSymbolTableRecord
100
AcDbLinetypeTableRecord
  2
CENTER2
 70
0
  3
Center (.5x) ___ _ ___ _ ___ _ ___ _ ___ _ ___
 72
65
 73
4
 40
28.5750000000000028
 49
19.0500000000000007
 74
0
 49
-3.1749999999999998
 74
0
 49
3.1749999999999998
 74
0
 49
-3.1749999999999998
 74
0
  0
LTYPE
  5
38
100
AcDbSymbolTableRecord
100
AcDbLinetypeTableRecord
  2
ACAD_ISO11W100
 70
0
  3
ISO double-dash dot __ __ . __ __ . __ __ . __ _
 72
65
 73
6
 40
33.0
 49
12.0
 74
0
 49
-3.0
 74
0
 49
12.0
 74
0
 49
-3.0
 74
0
 49
0.0
 74
0
 49
-3.0
 74
0
  0
LTYPE
  5
39
100
AcDbSymbolTableRecord
100
AcDbLinetypeTableRecord
  2
HIDDEN2
 70
0
  3
Hidden (.5x) _ _ _ _ _ _ _ _ _ _ _ _ _ _ _ _ _ 
 72
65
 73
2
 40
4.7624999999999993
 49
3.1749999999999998
 74
0
 49
-1.5874999999999999
 74
0
  0
LTYPE
  5
3A
100
AcDbSymbolTableRecord
100
AcDbLinetypeTableRecord
  2
BORDERX2
 70
0
  3
Border (2x) ____  ____  .  ____  ____  .  ___
 72
65
 73
6
 40
88.8999999999999915
 49
25.3999999999999986
 74
0
 49
-12.6999999999999993
 74
0
 49
25.3999999999999986
 74
0
 49
-12.6999999999999993
 74
0
 49
0.0
 74
0
 49
-12.6999999999999993
 74
0
  0
LTYPE
  5
3B
100
AcDbSymbolTableRecord
100
AcDbLinetypeTableRecord
  2
ACAD_ISO05W100
 70
0
  3
ISO long-dash double-dot ____ .. ____ .. ____ . 
 72
65
 73
6
 40
33.0
 49
24.0
 74
0
 49
-3.0
 74
0
 49
0.0
 74
0
 49
-3.0
 74
0
 49
0.0
 74
0
 49
-3.0
 74
0
  0
LTYPE
  5
3C
100
AcDbSymbolTableRecord
100
AcDbLinetypeTableRecord
  2
DASHDOTX2
 70
0
  3
Dash dot (2x) ____  .  ____  .  ____  .  ___
 72
65
 73
4
 40
50.7999999999999972
 49
25.3999999999999986
 74
0
 49
-12.6999999999999993
 74
0
 49
0.0
 74
0
 49
-12.6999999999999993
 74
0
  0
LTYPE
  5
3D
100
AcDbSymbolTableRecord
100
AcDbLinetypeTableRecord
  2
HIDDENX2
 70
0
  3
Hidden (2x) ____ ____ ____ ____ ____ ____ ____ 
 72
65
 73
2
 40
19.0499999999999972
 49
12.6999999999999993
 74
0
 49
-6.3499999999999996
 74
0
  0
LTYPE
  5
3E
100
AcDbSymbolTableRecord
100
AcDbLinetypeTableRecord
  2
CENTERX2
 70
0
  3
Center (2x) ________  __  ________  __  _____
 72
65
 73
4
 40
101.6000000000000085
 49
63.5
 74
0
 49
-12.6999999999999993
 74
0
 49
12.6999999999999993
 74
0
 49
-12.6999999999999993
 74
0
  0
LTYPE
  5
3F
100
AcDbSymbolTableRecord
100
AcDbLinetypeTableRecord
  2
BORDER2
 70
0
  3
Border (.5x) __.__.__.__.__.__.__.__.__.__.__.
 72
65
 73
6
 40
22.2249999999999979
 49
6.3499999999999996
 74
0
 49
-3.1749999999999998
 74
0
 49
6.3499999999999996
 74
0
 49
-3.1749999999999998
 74
0
 49
0.0
 74
0
 49
-3.1749999999999998
 74
0
  0
LTYPE
  5
40
100
AcDbSymbolTableRecord
100
AcDbLinetypeTableRecord
  2
DASHDOT2
 70
0
  3
Dash dot (.5x) _._._._._._._._._._._._._._._.
 72
65
 73
4
 40
12.6999999999999993
 49
6.3499999999999996
 74
0
 49
-3.1749999999999998
 74
0
 49
0.0
 74
0
 49
-3.1749999999999998
 74
0
  0
LTYPE
  5
41
100
AcDbSymbolTableRecord
100
AcDbLinetypeTableRecord
  2
ACAD_ISO12W100
 70
0
  3
ISO dash double-dot __ . . __ . . __ . . __ . . 
 72
65
 73
6
 40
21.0
 49
12.0
 74
0
 49
-3.0
 74
0
 49
0.0
 74
0
 49
-3.0
 74
0
 49
0.0
 74
0
 49
-3.0
 74
0
  0
LTYPE
  5
42
100
AcDbSymbolTableRecord
100
AcDbLinetypeTableRecord
  2
ACAD_ISO07W100
 70
0
  3
ISO dot . . . . . . . . . . . . . . . . . . . . 
 72
65
 73
2
 40
3.0
 49
0.0
 74
0
 49
-3.0
 74
0
  0
LTYPE
  5
43
100
AcDbSymbolTableRecord
100
AcDbLinetypeTableRecord
  2
ACAD_ISO06W100
 70
0
  3
ISO long-dash triple-dot ____ ... ____ ... ____
 72
65
 73
8
 40
36.0
 49
24.0
 74
0
 49
-3.0
 74
0
 49
0.0
 74
0
 49
-3.0
 74
0
 49
0.0
 74
0
 49
-3.0
 74
0
 49
0.0
 74
0
 49
-3.0
 74
0
  0
LTYPE
  5
44
100
AcDbSymbolTableRecord
100
AcDbLinetypeTableRecord
  2
CENTER
 70
0
  3
Center ____ _ ____ _ ____ _ ____ _ ____ _ ____
 72
65
 73
4
 40
50.8000000000000043
 49
31.75
 74
0
 49
-6.3499999999999996
 74
0
 49
6.3499999999999996
 74
0
 49
-6.3499999999999996
 74
0
  0
LTYPE
  5
45
100
AcDbSymbolTableRecord
100
AcDbLinetypeTableRecord
  2
HIDDEN
 70
0
  3
Hidden __ __ __ __ __ __ __ __ __ __ __ __ __ __
 72
65
 73
2
 40
9.5249999999999986
 49
6.3499999999999996
 74
0
 49
-3.1749999999999998
 74
0
  0
LTYPE
  5
46
100
AcDbSymbolTableRecord
100
AcDbLinetypeTableRecord
  2
DOTX2
 70
0
  3
Dot (2x) .  .  .  .  .  .  .  .  .  .  .  .  .  .
 72
65
 73
2
 40
12.6999999999999993
 49
0.0
 74
0
 49
-12.6999999999999993
 74
0
  0
LTYPE
  5
47
100
AcDbSymbolTableRecord
100
AcDbLinetypeTableRecord
  2
PHANTOM
 70
0
  3
Phantom ______  __  __  ______  __  __  ______ 
 72
65
 73
6
 40
63.5000000000000071
 49
31.75
 74
0
 49
-6.3499999999999996
 74
0
 49
6.3499999999999996
 74
0
 49
-6.3499999999999996
 74
0
 49
6.3499999999999996
 74
0
 49
-6.3499999999999996
 74
0
  0
LTYPE
  5
48
100
AcDbSymbolTableRecord
100
AcDbLinetypeTableRecord
  2
ACAD_ISO08W100
 70
0
  3
ISO long-dash short-dash ____ __ ____ __ ____ _
 72
65
 73
4
 40
36.0
 49
24.0
 74
0
 49
-3.0
 74
0
 49
6.0
 74
0
 49
-3.0
 74
0
  0
LTYPE
  5
49
100
AcDbSymbolTableRecord
100
AcDbLinetypeTableRecord
  2
DASHEDX2
 70
0
  3
Dashed (2x) ____  ____  ____  ____  ____  ___
 72
65
 73
2
 40
38.0999999999999943
 49
25.3999999999999986
 74
0
 49
-12.6999999999999993
 74
0
  0
LTYPE
  5
4A
100
AcDbSymbolTableRecord
100
AcDbLinetypeTableRecord
  2
DRAINAGE
 70
0
  3
Drainage ---->---->---->----
 72
65
 73
2
 40
10.1600000000000001
 49
5.0800000000000001
 74
0
 49
5.0800000000000001
 74
0
  0
LTYPE
  5
4B
100
AcDbSymbolTableRecord
100
AcDbLinetypeTableRecord
  2
ACAD_ISO02W100
 70
0
  3
ISO dash __ __ __ __ __ __ __ __ __ __ __ __ __
 72
65
 73
2
 40
15.0
 49
12.0
 74
0
 49
-3.0
 74
0
  0
LTYPE
  5
4C
100
AcDbSymbolTableRecord
100
AcDbLinetypeTableRecord
  2
PHANTOM2
 70
0
  3
Phantom (.5x) ___ _ _ ___ _ _ ___ _ _ ___ _ _
 72
65
 73
6
 40
31.7500000000000036
 49
15.875
 74
0
 49
-3.1749999999999998
 74
0
 49
3.1749999999999998
 74
0
 49
-3.1749999999999998
 74
0
 49
3.1749999999999998
 74
0
 49
-3.1749999999999998
 74
0
  0
LTYPE
  5
4D
100
AcDbSymbolTableRecord
100
AcDbLinetypeTableRecord
  2
DASHED2
 70
0
  3
Dashed (.5x) _ _ _ _ _ _ _ _ _ _ _ _ _ _ _ _ _ 
 72
65
 73
2
 40
9.5249999999999986
 49
6.3499999999999996
 74
0
 49
-3.1749999999999998
 74
0
  0
LTYPE
  5
4E
100
AcDbSymbolTableRecord
100
AcDbLinetypeTableRecord
  2
ACAD_ISO09W100
 70
0
  3
ISO long-dash double-short-dash ____ __ __ ____
 72
65
 73
6
 40
45.0
 49
24.0
 74
0
 49
-3.0
 74
0
 49
6.0
 74
0
 49
-3.0
 74
0
 49
6.0
 74
0
 49
-3.0
 74
0
  0
LTYPE
  5
4F
100
AcDbSymbolTableRecord
100
AcDbLinetypeTableRecord
  2
ACAD_ISO13W100
 70
0
  3
ISO double-dash double-dot __ __ . . __ __ . . _
 72
65
 73
8
 40
36.0
 49
12.0
 74
0
 49
-3.0
 74
0
 49
12.0
 74
0
 49
-3.0
 74
0
 49
0.0
 74
0
 49
-3.0
 74
0
 49
0.0
 74
0
 49
-3.0
 74
0
  0
LTYPE
  5
50
100
AcDbSymbolTableRecord
100
AcDbLinetypeTableRecord
  2
TRACKS
 70
0
  3
Tracks -|-|-|-|-|-|-|-|-|-|-|-|-|-|-|-|-|-|-|-|-|-|-|-|-
 72
65
 73
2
 40
7.6200000000000001
 49
3.8100000000000001
 74
0
 49
3.8100000000000001
 74
0
  0
LTYPE
  5
51
100
AcDbSymbolTableRecord
100
AcDbLinetypeTableRecord
  2
DRAINAGE2
 70
0
  3
Drainage reversed----<----<----<----
 72
65
 73
2
 40
10.1600000000000001
 49
5.0800000000000001
 74
0
 49
5.0800000000000001
 74
0
  0
LTYPE
  5
52
100
AcDbSymbolTableRecord
100
AcDbLinetypeTableRecord
  2
DOT2
 70
0
  3
Dot (.5x) ........................................
 72
65
 73
2
 40
3.1749999999999998
 49
0.0
 74
0
 49
-3.1749999999999998
 74
0
  0
LTYPE
  5
53
100
AcDbSymbolTableRecord
100
AcDbLinetypeTableRecord
  2
ZIGZAG
 70
0
  3
Zig zag /\/\/\/\/\/\/\/\/\/\/\/\/\/\/\/\/\/\/\/\/\/\/\/
 72
65
 73
4
 40
20.32254
 49
0.00254
 74
0
 49
-5.0800000000000001
 74
0
 49
-10.1600000000000001
 74
0
 49
-5.0800000000000001
 74
0
  0
LTYPE
  5
54
100
AcDbSymbolTableRecord
100
AcDbLinetypeTableRecord
  2
DASHED
 70
0
  3
Dashed __ __ __ __ __ __ __ __ __ __ __ __ __ _
 72
65
 73
2
 40
19.0499999999999972
 49
12.6999999999999993
 74
0
 49
-6.3499999999999996
 74
0
  0
LTYPE
  5
55
100
AcDbSymbolTableRecord
100
AcDbLinetypeTableRecord
  2
ACAD_ISO14W100
 70
0
  3
ISO dash triple-dot __ . . . __ . . . __ . . . _
 72
65
 73
8
 40
24.0
 49
12.0
 74
0
 49
-3.0
 74
0
 49
0.0
 74
0
 49
-3.0
 74
0
 49
0.0
 74
0
 49
-3.0
 74
0
 49
0.0
 74
0
 49
-3.0
 74
0
  0
LTYPE
  5
15
100
AcDbSymbolTableRecord
100
AcDbLinetypeTableRecord
  2
BYLAYER
 70
0
  3

 72
65
 73
0
 40
0.0
  0
LTYPE
  5
56
100
AcDbSymbolTableRecord
100
AcDbLinetypeTableRecord
  2
PHANTOMX2
 70
0
  3
Phantom (2x) ____________    ____    ____   _
 72
65
 73
6
 40
127.0000000000000142
 49
63.5
 74
0
 49
-12.6999999999999993
 74
0
 49
12.6999999999999993
 74
0
 49
-12.6999999999999993
 74
0
 49
12.6999999999999993
 74
0
 49
-12.6999999999999993
 74
0
  0
LTYPE
  5
14
100
AcDbSymbolTableRecord
100
AcDbLinetypeTableRecord
  2
BYBLOCK
 70
0
  3

 72
65
 73
0
 40
0.0
  0
LTYPE
  5
57
100
AcDbSymbolTableRecord
100
AcDbLinetypeTableRecord
  2
DIVIDEX2
 70
0
  3
Divide (2x) ________  .  .  ________  .  .  _
 72
65
 73
6
 40
63.5
 49
25.3999999999999986
 74
0
 49
-12.6999999999999993
 74
0
 49
0.0
 74
0
 49
-12.6999999999999993
 74
0
 49
0.0
 74
0
 49
-12.6999999999999993
 74
0
  0
LTYPE
  5
58
100
AcDbSymbolTableRecord
100
AcDbLinetypeTableRecord
  2
BORDER
 70
0
  3
Border __ __ . __ __ . __ __ . __ __ . __ __ .
 72
65
 73
6
 40
44.4499999999999957
 49
12.6999999999999993
 74
0
 49
-6.3499999999999996
 74
0
 49
12.6999999999999993
 74
0
 49
-6.3499999999999996
 74
0
 49
0.0
 74
0
 49
-6.3499999999999996
 74
0
  0
LTYPE
  5
59
100
AcDbSymbolTableRecord
100
AcDbLinetypeTableRecord
  2
DIVIDE2
 70
0
  3
Divide (.5x) __..__..__..__..__..__..__..__.._
 72
65
 73
6
 40
15.875
 49
6.3499999999999996
 74
0
 49
-3.1749999999999998
 74
0
 49
0.0
 74
0
 49
-3.1749999999999998
 74
0
 49
0.0
 74
0
 49
-3.1749999999999998
 74
0
  0
LTYPE
  5
5A
100
AcDbSymbolTableRecord
100
AcDbLinetypeTableRecord
  2
DOT
 70
0
  3
Dot . . . . . . . . . . . . . . . . . . . . . . . .
 72
65
 73
2
 40
6.3499999999999996
 49
0.0
 74
0
 49
-6.3499999999999996
 74
0
  0
LTYPE
  5
5B
100
AcDbSymbolTableRecord
100
AcDbLinetypeTableRecord
  2
DASHDOT
 70
0
  3
Dash dot __ . __ . __ . __ . __ . __ . __ . __
 72
65
 73
4
 40
25.3999999999999986
 49
12.6999999999999993
 74
0
 49
-6.3499999999999996
 74
0
 49
0.0
 74
0
 49
-6.3499999999999996
 74
0
  0
LTYPE
  5
5C
100
AcDbSymbolTableRecord
100
AcDbLinetypeTableRecord
  2
FENCELINE1
 70
0
  3
Fenceline circle ----0-----0----0-----0----0-----0--
 72
65
 73
4
 40
36.8299999999999983
 49
6.3499999999999996
 74
0
 49
-2.54
 74
0
 49
-2.54
 74
0
 49
25.3999999999999986
 74
0
  0
LTYPE
  5
5D
100
AcDbSymbolTableRecord
100
AcDbLinetypeTableRecord
  2
BATTING
 70
0
  3
Batting SSSSSSSSSSSSSSSSSSSSSSSSSSSSSSSSSSSSSSSSSSSSSSS
 72
65
 73
4
 40
10.1625399999999999
 49
0.00254
 74
0
 49
-2.54
 74
0
 49
-5.0800000000000001
 74
0
 49
-2.54
 74
0
  0
LTYPE
  5
5E
100
AcDbSymbolTableRecord
100
AcDbLinetypeTableRecord
  2
ACAD_ISO03W100
 70
0
  3
ISO dash space __    __    __    __    __    __
 72
65
 73
2
 40
30.0
 49
12.0
 74
0
 49
-18.0
 74
0
  0
LTYPE
  5
5F
100
AcDbSymbolTableRecord
100
AcDbLinetypeTableRecord
  2
FENCELINE2
 70
0
  3
Fenceline square ----[]-----[]----[]-----[]----[]---
 72
65
 73
4
 40
36.8299999999999983
 49
6.3499999999999996
 74
0
 49
-2.54
 74
0
 49
-2.54
 74
0
 49
25.3999999999999986
 74
0
  0
ENDTAB
  0
TABLE
  2
LAYER
  5
2
100
AcDbSymbolTable
 70
1
  0
LAYER
  5
10
100
AcDbSymbolTableRecord
100
AcDbLayerTableRecord
  2
0
 70
0
 62
7
420
16777215
  6
Continuous
370
25
390
F
  0
ENDTAB
  0
TABLE
  2
STYLE
  5
3
100
AcDbSymbolTable
 70
1
  0
STYLE
  5
60
100
AcDbSymbolTableRecord
100
AcDbTextStyleTableRecord
  2
Standard
 70
0
 40
0.0
 41
1.0
 50
0.0
 71
0
 42
2.5
  3

  4

1001
ACAD
1000
txt
1071
0
  0
ENDTAB
  0
TABLE
  2
VIEW
  5
6
100
AcDbSymbolTable
 70
0
  0
ENDTAB
  0
TABLE
  2
UCS
  5
7
100
AcDbSymbolTable
 70
0
  0
ENDTAB
  0
TABLE
  2
APPID
  5
9
100
AcDbSymbolTable
 70
1
  0
APPID
  5
12
100
AcDbSymbolTableRecord
100
AcDbRegAppTableRecord
  2
ACAD
 70
0
  0
APPID
  5
61
100
AcDbSymbolTableRecord
100
AcDbRegAppTableRecord
  2
QCAD
 70
0
  0
ENDTAB
  0
TABLE
  2
DIMSTYLE
  5
A
100
AcDbSymbolTable
 70
1
100
AcDbDimStyleTable
 71
0
  0
DIMSTYLE
105
27
100
AcDbSymbolTableRecord
100
AcDbDimStyleTableRecord
  2
Standard
 41
0.125
 42
0.03125
 43
3.75
 44
0.0625
 70
0
 73
0
 74
0
 77
1
 78
8
140
0.125
141
2.5
143
0.03937007874016
147
0.03125
171
3
172
1
271
2
272
2
274
3
278
44
283
0
284
8
340
60
  0
ENDTAB
  0
TABLE
  2
BLOCK_RECORD
  5
1
100
AcDbSymbolTable
 70
1
  0
BLOCK_RECORD
  5
1F
100
AcDbSymbolTableRecord
100
AcDbBlockTableRecord
  2
*Model_Space
340
22
  0
BLOCK_RECORD
  5
1B
100
AcDbSymbolTableRecord
100
AcDbBlockTableRecord
  2
*Paper_Space
340
1E
  0
BLOCK_RECORD
  5
23
100
AcDbSymbolTableRecord
100
AcDbBlockTableRecord
  2
*Paper_Space0
340
26
  0
BLOCK_RECORD
  5
62
100
AcDbSymbolTableRecord
100
AcDbBlockTableRecord
  2
bearing-gear
340
0
  0
ENDTAB
  0
ENDSEC
  0
SECTION
  2
BLOCKS
  0
BLOCK
  5
20
100
AcDbEntity
  8
0
100
AcDbBlockBegin
  2
*Model_Space
 70
0
 10
0.0
 20
0.0
 30
0.0
  3
*Model_Space
  1

  0
ENDBLK
  5
21
100
AcDbEntity
  8
0
100
AcDbBlockEnd
  0
BLOCK
  5
1C
100
AcDbEntity
 67
1
  8
0
100
AcDbBlockBegin
  2
*Paper_Space
 70
0
 10
0.0
 20
0.0
 30
0.0
  3
*Paper_Space
  1

  0
ENDBLK
  5
1D
100
AcDbEntity
 67
1
  8
0
100
AcDbBlockEnd
  0
BLOCK
  5
24
100
AcDbEntity
  8
0
100
AcDbBlockBegin
  2
*Paper_Space0
 70
0
 10
0.0
 20
0.0
 30
0.0
  3
*Paper_Space0
  1

  0
ENDBLK
  5
25
100
AcDbEntity
  8
0
100
AcDbBlockEnd
  0
BLOCK
  5
63
100
AcDbEntity
  8
0
100
AcDbBlockBegin
  2
bearing-gear
 70
0
 10
0.0
 20
0.0
 30
0.0
  3
bearing-gear
  1

  0
LINE
  5
64
100
AcDbEntity
100
AcDbLine
  8
0
 62
7
420
0
370
-1
 48
1.0
  6
BYLAYER
 10
0.4602524267262247
 20
0.1953655642446372
 30
0.0
 11
0.5044843764932381
 21
0.19279494320525
 31
0.0
  0
LINE
  5
65
100
AcDbEntity
100
AcDbLine
  8
0
 62
7
420
0
370
-1
 48
1.0
  6
BYLAYER
 10
0.4829629131445383
 20
0.1294095225512606
 30
0.0
 11
0.5264066393155495
 21
0.1207080210085343
 31
0.0
  0
LINE
  5
66
100
AcDbEntity
100
AcDbLine
  8
0
 62
7
420
0
370
-1
 48
1.0
  6
BYLAYER
 10
0.4962730758206657
 20
0.0609346717025734
 30
0.0
 11
0.5380829956822595
 21
0.0462716544862265
 31
0.0
  0
LINE
  5
67
100
AcDbEntity
100
AcDbLine
  8
0
 62
7
420
0
370
-1
 48
1.0
  6
BYLAYER
 10
0.4999238475781995
 20
-0.0087262032186428
 30
0.0
 11
0.5392861785983509
 21
-0.029065337157429
 31
0.0
  0
LINE
  5
68
100
AcDbEntity
100
AcDbLine
  8
0
 62
7
420
0
370
-1
 48
1.0
  6
BYLAYER
 10
0.4938441702975727
 20
-0.0782172325201167
 30
0.0
 11
0.5299927694769613
 21
-0.103836605074646
 31
0.0
  0
LINE
  5
69
100
AcDbEntity
100
AcDbLine
  8
0
 62
7
420
0
370
-1
 48
1.0
  6
BYLAYER
 10
0.4781523779815213
 20
-0.1461858523613702
 30
0.0
 11
0.5103836539555422
 21
-0.1765868115864724
 31
0.0
  0
LINE
  5
6A
100
AcDbEntity
100
AcDbLine
  8
0
 62
7
420
0
370
-1
 48
1.0
  6
BYLAYER
 10
0.4531538935183281
 20
-0.2113091308703521
 30
0.0
 11
0.4808405011626808
 21
-0.2458999566752891
 31
0.0
  0
LINE
  5
6B
100
AcDbEntity
100
AcDbLine
  8
0
 62
7
420
0
370
-1
 48
1.0
  6
BYLAYER
 10
0.4193352839727149
 20
-0.2723195175075162
 30
0.0
 11
0.4419383349626509
 21
-0.3104269388144767
 31
0.0
  0
LINE
  5
6C
100
AcDbEntity
100
AcDbLine
  8
0
 62
7
420
0
370
-1
 48
1.0
  6
BYLAYER
 10
0.3773547901113883
 20
-0.3280295144952567
 30
0.0
 11
0.3944343417699789
 21
-0.3689118136950491
 31
0.0
  0
LINE
  5
6D
100
AcDbEntity
100
AcDbLine
  8
0
 62
7
420
0
370
-1
 48
1.0
  6
BYLAYER
 10
0.3280295144952561
 20
-0.3773547901113894
 30
0.0
 11
0.3392531327771673
 21
-0.4202162397530167
 31
0.0
  0
LINE
  5
6E
100
AcDbEntity
100
AcDbLine
  8
0
 62
7
420
0
370
-1
 48
1.0
  6
BYLAYER
 10
0.2723195175075155
 20
-0.4193352839727156
 30
0.0
 11
0.2774687474495678
 21
-0.4633416346930799
 31
0.0
  0
LINE
  5
6F
100
AcDbEntity
100
AcDbLine
  8
0
 62
7
420
0
370
-1
 48
1.0
  6
BYLAYER
 10
0.211309130870351
 20
-0.4531538935183288
 30
0.0
 11
0.2102837485688838
 21
-0.4974486117571397
 31
0.0
  0
LINE
  5
70
100
AcDbEntity
100
AcDbLine
  8
0
 62
7
420
0
370
-1
 48
1.0
  6
BYLAYER
 10
0.1461858523613691
 20
-0.4781523779815215
 30
0.0
 11
0.1390058157165255
 21
-0.5218733174327561
 31
0.0
  0
LINE
  5
71
100
AcDbEntity
100
AcDbLine
  8
0
 62
7
420
0
370
-1
 48
1.0
  6
BYLAYER
 10
0.0782172325201156
 20
-0.4938441702975724
 30
0.0
 11
0.0650222927780169
 21
-0.5361403526066442
 31
0.0
  0
LINE
  5
72
100
AcDbEntity
100
AcDbLine
  8
0
 62
7
420
0
370
-1
 48
1.0
  6
BYLAYER
 10
0.0087262032186413
 20
-0.4999238475781993
 30
0.0
 11
-0.0102268151276537
 21
-0.5399720256676559
 31
0.0
  0
LINE
  5
73
100
AcDbEntity
100
AcDbLine
  8
0
 62
7
420
0
370
-1
 48
1.0
  6
BYLAYER
 10
-0.0609346717025741
 20
-0.4962730758206646
 30
0.0
 11
-0.0852768697096948
 21
-0.5332937574581222
 31
0.0
  0
LINE
  5
74
100
AcDbEntity
100
AcDbLine
  8
0
 62
7
420
0
370
-1
 48
1.0
  6
BYLAYER
 10
-0.1294095225512617
 20
-0.4829629131445377
 30
0.0
 11
-0.1586671070238372
 21
-0.5162355328723243
 31
0.0
  0
LINE
  5
75
100
AcDbEntity
100
AcDbLine
  8
0
 62
7
420
0
370
-1
 48
1.0
  6
BYLAYER
 10
-0.1953655642446392
 20
-0.4602524267262231
 30
0.0
 11
-0.2289690695809208
 21
-0.4891293708483822
 31
0.0
  0
LINE
  5
76
100
AcDbEntity
100
AcDbLine
  8
0
 62
7
420
0
370
-1
 48
1.0
  6
BYLAYER
 10
-0.2575190374550296
 20
-0.4285836503510587
 30
0.0
 11
-0.2948144096470671
 21
-0.4525028619972888
 31
0.0
  0
LINE
  5
77
100
AcDbEntity
100
AcDbLine
  8
0
 62
7
420
0
370
-1
 48
1.0
  6
BYLAYER
 10
-0.3146601955249206
 20
-0.3885729807284879
 30
0.0
 11
-0.3549215225758555
 21
-0.4070688996517953
 31
0.0
  0
LINE
  5
78
100
AcDbEntity
100
AcDbLine
  8
0
 62
7
420
0
370
-1
 48
1.0
  6
BYLAYER
 10
-0.3656768508095878
 20
-0.3409991800312511
 30
0.0
 11
-0.4081204917849517
 21
-0.3537118042085894
 31
0.0
  0
LINE
  5
79
100
AcDbEntity
100
AcDbLine
  8
0
 62
7
420
0
370
-1
 48
1.0
  6
BYLAYER
 10
-0.4095760221444991
 20
-0.2867882181755246
 30
0.0
 11
-0.4533758598516329
 21
-0.2934701108376776
 31
0.0
  0
LINE
  5
7A
100
AcDbEntity
100
AcDbLine
  8
0
 62
7
420
0
370
-1
 48
1.0
  6
BYLAYER
 10
-0.4455032620941868
 20
-0.2269952498697745
 30
0.0
 11
-0.4898067825136998
 21
-0.2275163555766138
 31
0.0
  0
LINE
  5
7B
100
AcDbEntity
100
AcDbLine
  8
0
 62
7
420
0
370
-1
 48
1.0
  6
BYLAYER
 10
-0.4727592877996614
 20
-0.1627840772285787
 30
0.0
 11
-0.5167041733010933
 21
-0.1571342532502695
 31
0.0
  0
LINE
  5
7C
100
AcDbEntity
100
AcDbLine
  8
0
 62
7
420
0
370
-1
 48
1.0
  6
BYLAYER
 10
-0.4908135917238354
 20
-0.0954044976882724
 30
0.0
 11
-0.5335445050974679
 21
-0.0836937114219733
 31
0.0
  0
LINE
  5
7D
100
AcDbEntity
100
AcDbLine
  8
0
 62
7
420
0
370
-1
 48
1.0
  6
BYLAYER
 10
-0.4993147673772906
 20
-0.0261679781214712
 30
0.0
 11
-0.5399999999999991
 21
-0.0086241667010338
 31
0.0
  0
LINE
  5
7E
100
AcDbEntity
100
AcDbLine
  8
0
 62
7
420
0
370
-1
 48
1.0
  6
BYLAYER
 10
-0.4980973490458762
 20
0.0435778713738304
 30
0.0
 11
-0.5359450091434264
 21
0.0666132376148982
 31
0.0
  0
LINE
  5
7F
100
AcDbEntity
100
AcDbLine
  8
0
 62
7
420
0
370
-1
 48
1.0
  6
BYLAYER
 10
-0.4871850323926203
 20
0.1124755271719335
 30
0.0
 11
-0.5214584583122894
 21
0.140554091032089
 31
0.0
  0
LINE
  5
80
100
AcDbEntity
100
AcDbLine
  8
0
 62
7
420
0
370
-1
 48
1.0
  6
BYLAYER
 10
-0.4667902132486033
 20
0.1791839747726527
 30
0.0
 11
-0.4968223117403081
 21
0.2117592189452502
 31
0.0
  0
LINE
  5
81
100
AcDbEntity
100
AcDbLine
  8
0
 62
7
420
0
370
-1
 48
1.0
  6
BYLAYER
 10
-0.4373098535697011
 20
0.2424048101231706
 30
0.0
 11
-0.4625160839973059
 21
0.2788426945341833
 31
0.0
  0
LINE
  5
82
100
AcDbEntity
100
AcDbLine
  8
0
 62
7
420
0
370
-1
 48
1.0
  6
BYLAYER
 10
-0.399317755023648
 20
0.3009075115760276
 30
0.0
 11
-0.4192075067835432
 21
0.3404988142528727
 31
0.0
  0
LINE
  5
83
100
AcDbEntity
100
AcDbLine
  8
0
 62
7
420
0
370
-1
 48
1.0
  6
BYLAYER
 10
-0.3535533905932757
 20
0.3535533905932768
 30
0.0
 11
-0.3677395322917096
 21
0.3955275118637902
 31
0.0
  0
LINE
  5
84
100
AcDbEntity
100
AcDbLine
  8
0
 62
7
420
0
370
-1
 48
1.0
  6
BYLAYER
 10
-0.3009075115760256
 20
0.3993177550236497
 30
0.0
 11
-0.3091139261013378
 21
0.4428577163621552
 31
0.0
  0
LINE
  5
85
100
AcDbEntity
100
AcDbLine
  8
0
 62
7
420
0
370
-1
 48
1.0
  6
BYLAYER
 10
-0.2424048101231691
 20
0.4373098535697015
 30
0.0
 11
-0.2444717689512812
 21
0.4815681991547178
 31
0.0
  0
LINE
  5
86
100
AcDbEntity
100
AcDbLine
  8
0
 62
7
420
0
370
-1
 48
1.0
  6
BYLAYER
 10
-0.1791839747726502
 20
0.4667902132486046
 30
0.0
 11
-0.1750712469011049
 21
0.5109055047264406
 31
0.0
  0
LINE
  5
87
100
AcDbEntity
100
AcDbLine
  8
0
 62
7
420
0
370
-1
 48
1.0
  6
BYLAYER
 10
-0.1124755271719318
 20
0.4871850323926215
 30
0.0
 11
-0.1022631621705887
 21
0.5302986157950618
 31
0.0
  0
LINE
  5
88
100
AcDbEntity
100
AcDbLine
  8
0
 62
7
420
0
370
-1
 48
1.0
  6
BYLAYER
 10
-0.0435778713738282
 20
0.4980973490458764
 30
0.0
 11
-0.0274646413110471
 21
0.5393700675129667
 31
0.0
  0
LINE
  5
89
100
AcDbEntity
100
AcDbLine
  8
0
 62
7
420
0
370
-1
 48
1.0
  6
BYLAYER
 10
0.0261679781214728
 20
0.4993147673772906
 30
0.0
 11
0.0478684475510498
 21
0.5379432943910902
 31
0.0
  0
LINE
  5
8A
100
AcDbEntity
100
AcDbLine
  8
0
 62
7
420
0
370
-1
 48
1.0
  6
BYLAYER
 10
0.0954044976882749
 20
0.4908135917238354
 30
0.0
 11
0.1222698315311161
 21
0.5260460669453193
 31
0.0
  0
LINE
  5
8B
100
AcDbEntity
100
AcDbLine
  8
0
 62
7
420
0
370
-1
 48
1.0
  6
BYLAYER
 10
0.1627840772285811
 20
0.4727592877996616
 30
0.0
 11
0.1942913723203024
 21
0.5039099511749898
 31
0.0
  0
LINE
  5
8C
100
AcDbEntity
100
AcDbLine
  8
0
 62
7
420
0
370
-1
 48
1.0
  6
BYLAYER
 10
0.2269952498697769
 20
0.4455032620941868
 30
0.0
 11
0.2625312525504331
 21
0.471965801394113
 31
0.0
  0
LINE
  5
8D
100
AcDbEntity
100
AcDbLine
  8
0
 62
7
420
0
370
-1
 48
1.0
  6
BYLAYER
 10
0.2867882181755261
 20
0.4095760221444984
 30
0.0
 11
0.3256612605745444
 21
0.4308353741422424
 31
0.0
  0
LINE
  5
8E
100
AcDbEntity
100
AcDbLine
  8
0
 62
7
420
0
370
-1
 48
1.0
  6
BYLAYER
 10
0.3409991800312522
 20
0.3656768508095873
 30
0.0
 11
0.3824526425957648
 21
0.3813192264006671
 31
0.0
  0
LINE
  5
8F
100
AcDbEntity
100
AcDbLine
  8
0
 62
7
420
0
370
-1
 48
1.0
  6
BYLAYER
 10
0.3885729807284894
 20
0.3146601955249204
 30
0.0
 11
0.4318000189622921
 21
0.324381133661394
 31
0.0
  0
LINE
  5
90
100
AcDbEntity
100
AcDbLine
  8
0
 62
7
420
0
370
-1
 48
1.0
  6
BYLAYER
 10
0.4808405011626808
 20
0.2458999566752893
 30
0.0
 11
0.4531538935183281
 21
0.2113091308703516
 31
0.0
  0
LINE
  5
91
100
AcDbEntity
100
AcDbLine
  8
0
 62
7
420
0
370
-1
 48
1.0
  6
BYLAYER
 10
0.5103836539555431
 20
0.1765868115864724
 30
0.0
 11
0.4781523779815213
 21
0.1461858523613699
 31
0.0
  0
LINE
  5
92
100
AcDbEntity
100
AcDbLine
  8
0
 62
7
420
0
370
-1
 48
1.0
  6
BYLAYER
 10
0.5299927694769613
 20
0.1038366050746455
 30
0.0
 11
0.4938441702975727
 21
0.0782172325201167
 31
0.0
  0
LINE
  5
93
100
AcDbEntity
100
AcDbLine
  8
0
 62
7
420
0
370
-1
 48
1.0
  6
BYLAYER
 10
0.5392861785983509
 20
0.0290653371574285
 30
0.0
 11
0.4999238475781995
 21
0.0087262032186426
 31
0.0
  0
LINE
  5
94
100
AcDbEntity
100
AcDbLine
  8
0
 62
7
420
0
370
-1
 48
1.0
  6
BYLAYER
 10
0.5380829956822595
 20
-0.0462716544862267
 30
0.0
 11
0.4962730758206657
 21
-0.0609346717025738
 31
0.0
  0
LINE
  5
95
100
AcDbEntity
100
AcDbLine
  8
0
 62
7
420
0
370
-1
 48
1.0
  6
BYLAYER
 10
0.5264066393155487
 20
-0.1207080210085347
 30
0.0
 11
0.4829629131445383
 21
-0.1294095225512606
 31
0.0
  0
LINE
  5
96
100
AcDbEntity
100
AcDbLine
  8
0
 62
7
420
0
370
-1
 48
1.0
  6
BYLAYER
 10
0.5044843764932381
 20
-0.1927949432052503
 30
0.0
 11
0.4602524267262247
 21
-0.1953655642446377
 31
0.0
  0
LINE
  5
97
100
AcDbEntity
100
AcDbLine
  8
0
 62
7
420
0
370
-1
 48
1.0
  6
BYLAYER
 10
0.4727428991249605
 20
-0.2611293311334724
 30
0.0
 11
0.4285836503510598
 21
-0.2575190374550285
 31
0.0
  0
LINE
  5
98
100
AcDbEntity
100
AcDbLine
  8
0
 62
7
420
0
370
-1
 48
1.0
  6
BYLAYER
 10
0.4318000189622921
 20
-0.324381133661394
 30
0.0
 11
0.3885729807284886
 21
-0.3146601955249204
 31
0.0
  0
LINE
  5
99
100
AcDbEntity
100
AcDbLine
  8
0
 62
7
420
0
370
-1
 48
1.0
  6
BYLAYER
 10
0.3824526425957657
 20
-0.3813192264006668
 30
0.0
 11
0.3409991800312522
 21
-0.3656768508095876
 31
0.0
  0
LINE
  5
9A
100
AcDbEntity
100
AcDbLine
  8
0
 62
7
420
0
370
-1
 48
1.0
  6
BYLAYER
 10
0.3256612605745444
 20
-0.4308353741422424
 30
0.0
 11
0.2867882181755261
 21
-0.4095760221444984
 31
0.0
  0
LINE
  5
9B
100
AcDbEntity
100
AcDbLine
  8
0
 62
7
420
0
370
-1
 48
1.0
  6
BYLAYER
 10
0.2625312525504331
 20
-0.4719658013941135
 30
0.0
 11
0.226995249869776
 21
-0.445503262094187
 31
0.0
  0
LINE
  5
9C
100
AcDbEntity
100
AcDbLine
  8
0
 62
7
420
0
370
-1
 48
1.0
  6
BYLAYER
 10
0.1942913723203024
 20
-0.5039099511749898
 30
0.0
 11
0.1627840772285811
 21
-0.4727592877996616
 31
0.0
  0
LINE
  5
9D
100
AcDbEntity
100
AcDbLine
  8
0
 62
7
420
0
370
-1
 48
1.0
  6
BYLAYER
 10
0.1222698315311161
 20
-0.5260460669453193
 30
0.0
 11
0.095404497688274
 21
-0.4908135917238357
 31
0.0
  0
LINE
  5
9E
100
AcDbEntity
100
AcDbLine
  8
0
 62
7
420
0
370
-1
 48
1.0
  6
BYLAYER
 10
0.0478684475510489
 20
-0.5379432943910902
 30
0.0
 11
0.0261679781214736
 21
-0.4993147673772904
 31
0.0
  0
LINE
  5
9F
100
AcDbEntity
100
AcDbLine
  8
0
 62
7
420
0
370
-1
 48
1.0
  6
BYLAYER
 10
-0.0274646413110471
 20
-0.5393700675129669
 30
0.0
 11
-0.0435778713738282
 21
-0.4980973490458764
 31
0.0
  0
LINE
  5
A0
100
AcDbEntity
100
AcDbLine
  8
0
 62
7
420
0
370
-1
 48
1.0
  6
BYLAYER
 10
-0.1022631621705896
 20
-0.5302986157950615
 30
0.0
 11
-0.1124755271719327
 21
-0.4871850323926215
 31
0.0
  0
LINE
  5
A1
100
AcDbEntity
100
AcDbLine
  8
0
 62
7
420
0
370
-1
 48
1.0
  6
BYLAYER
 10
-0.1750712469011049
 20
-0.5109055047264406
 30
0.0
 11
-0.1791839747726502
 21
-0.4667902132486044
 31
0.0
  0
LINE
  5
A2
100
AcDbEntity
100
AcDbLine
  8
0
 62
7
420
0
370
-1
 48
1.0
  6
BYLAYER
 10
-0.2444717689512821
 20
-0.4815681991547176
 30
0.0
 11
-0.2424048101231691
 21
-0.4373098535697013
 31
0.0
  0
LINE
  5
A3
100
AcDbEntity
100
AcDbLine
  8
0
 62
7
420
0
370
-1
 48
1.0
  6
BYLAYER
 10
-0.3091139261013378
 20
-0.4428577163621557
 30
0.0
 11
-0.3009075115760256
 21
-0.3993177550236495
 31
0.0
  0
LINE
  5
A4
100
AcDbEntity
100
AcDbLine
  8
0
 62
7
420
0
370
-1
 48
1.0
  6
BYLAYER
 10
-0.3677395322917096
 20
-0.3955275118637902
 30
0.0
 11
-0.3535533905932748
 21
-0.3535533905932768
 31
0.0
  0
LINE
  5
A5
100
AcDbEntity
100
AcDbLine
  8
0
 62
7
420
0
370
-1
 48
1.0
  6
BYLAYER
 10
-0.4192075067835432
 20
-0.3404988142528727
 30
0.0
 11
-0.3993177550236489
 21
-0.3009075115760271
 31
0.0
  0
LINE
  5
A6
100
AcDbEntity
100
AcDbLine
  8
0
 62
7
420
0
370
-1
 48
1.0
  6
BYLAYER
 10
-0.4625160839973059
 20
-0.2788426945341833
 30
0.0
 11
-0.4373098535697002
 21
-0.2424048101231711
 31
0.0
  0
LINE
  5
A7
100
AcDbEntity
100
AcDbLine
  8
0
 62
7
420
0
370
-1
 48
1.0
  6
BYLAYER
 10
-0.4968223117403081
 20
-0.21175921894525
 30
0.0
 11
-0.4667902132486041
 21
-0.1791839747726522
 31
0.0
  0
LINE
  5
A8
100
AcDbEntity
100
AcDbLine
  8
0
 62
7
420
0
370
-1
 48
1.0
  6
BYLAYER
 10
-0.5214584583122894
 20
-0.140554091032089
 30
0.0
 11
-0.4871850323926203
 21
-0.1124755271719338
 31
0.0
  0
LINE
  5
A9
100
AcDbEntity
100
AcDbLine
  8
0
 62
7
420
0
370
-1
 48
1.0
  6
BYLAYER
 10
-0.5359450091434264
 20
-0.0666132376148976
 30
0.0
 11
-0.4980973490458762
 21
-0.0435778713738302
 31
0.0
  0
LINE
  5
AA
100
AcDbEntity
100
AcDbLine
  8
0
 62
7
420
0
370
-1
 48
1.0
  6
BYLAYER
 10
-0.5399999999999991
 20
0.0086241667010343
 30
0.0
 11
-0.4993147673772906
 21
0.0261679781214716
 31
0.0
  0
LINE
  5
AB
100
AcDbEntity
100
AcDbLine
  8
0
 62
7
420
0
370
-1
 48
1.0
  6
BYLAYER
 10
-0.5335445050974679
 20
0.0836937114219731
 30
0.0
 11
-0.4908135917238354
 21
0.0954044976882726
 31
0.0
  0
LINE
  5
AC
100
AcDbEntity
100
AcDbLine
  8
0
 62
7
420
0
370
-1
 48
1.0
  6
BYLAYER
 10
-0.5167041733010933
 20
0.1571342532502698
 30
0.0
 11
-0.4727592877996614
 21
0.1627840772285782
 31
0.0
  0
LINE
  5
AD
100
AcDbEntity
100
AcDbLine
  8
0
 62
7
420
0
370
-1
 48
1.0
  6
BYLAYER
 10
-0.4898067825136989
 20
0.2275163555766138
 30
0.0
 11
-0.4455032620941868
 21
0.2269952498697749
 31
0.0
  0
LINE
  5
AE
100
AcDbEntity
100
AcDbLine
  8
0
 62
7
420
0
370
-1
 48
1.0
  6
BYLAYER
 10
-0.4533758598516329
 20
0.2934701108376778
 30
0.0
 11
-0.4095760221444991
 21
0.2867882181755244
 31
0.0
  0
LINE
  5
AF
100
AcDbEntity
100
AcDbLine
  8
0
 62
7
420
0
370
-1
 48
1.0
  6
BYLAYER
 10
-0.4081204917849517
 20
0.3537118042085896
 30
0.0
 11
-0.3656768508095878
 21
0.3409991800312517
 31
0.0
  0
LINE
  5
B0
100
AcDbEntity
100
AcDbLine
  8
0
 62
7
420
0
370
-1
 48
1.0
  6
BYLAYER
 10
-0.3549215225758546
 20
0.4070688996517953
 30
0.0
 11
-0.3146601955249215
 21
0.3885729807284877
 31
0.0
  0
LINE
  5
B1
100
AcDbEntity
100
AcDbLine
  8
0
 62
7
420
0
370
-1
 48
1.0
  6
BYLAYER
 10
-0.2948144096470671
 20
0.4525028619972893
 30
0.0
 11
-0.2575190374550296
 21
0.4285836503510589
 31
0.0
  0
LINE
  5
B2
100
AcDbEntity
100
AcDbLine
  8
0
 62
7
420
0
370
-1
 48
1.0
  6
BYLAYER
 10
-0.2289690695809208
 20
0.4891293708483819
 30
0.0
 11
-0.1953655642446384
 21
0.4602524267262234
 31
0.0
  0
LINE
  5
B3
100
AcDbEntity
100
AcDbLine
  8
0
 62
7
420
0
370
-1
 48
1.0
  6
BYLAYER
 10
-0.1586671070238364
 20
0.5162355328723247
 30
0.0
 11
-0.1294095225512617
 21
0.4829629131445377
 31
0.0
  0
LINE
  5
B4
100
AcDbEntity
100
AcDbLine
  8
0
 62
7
420
0
370
-1
 48
1.0
  6
BYLAYER
 10
-0.0852768697096948
 20
0.5332937574581222
 30
0.0
 11
-0.0609346717025741
 21
0.4962730758206646
 31
0.0
  0
LINE
  5
B5
100
AcDbEntity
100
AcDbLine
  8
0
 62
7
420
0
370
-1
 48
1.0
  6
BYLAYER
 10
-0.0102268151276537
 20
0.5399720256676559
 30
0.0
 11
0.0087262032186413
 21
0.4999238475781993
 31
0.0
  0
LINE
  5
B6
100
AcDbEntity
100
AcDbLine
  8
0
 62
7
420
0
370
-1
 48
1.0
  6
BYLAYER
 10
0.0650222927780177
 20
0.5361403526066442
 30
0.0
 11
0.0782172325201156
 21
0.4938441702975727
 31
0.0
  0
LINE
  5
B7
100
AcDbEntity
100
AcDbLine
  8
0
 62
7
420
0
370
-1
 48
1.0
  6
BYLAYER
 10
0.1390058157165255
 20
0.5218733174327561
 30
0.0
 11
0.1461858523613699
 21
0.4781523779815215
 31
0.0
  0
LINE
  5
B8
100
AcDbEntity
100
AcDbLine
  8
0
 62
7
420
0
370
-1
 48
1.0
  6
BYLAYER
 10
0.2102837485688838
 20
0.4974486117571397
 30
0.0
 11
0.211309130870351
 21
0.4531538935183286
 31
0.0
  0
LINE
  5
B9
100
AcDbEntity
100
AcDbLine
  8
0
 62
7
420
0
370
-1
 48
1.0
  6
BYLAYER
 10
0.2774687474495678
 20
0.4633416346930794
 30
0.0
 11
0.2723195175075155
 21
0.4193352839727154
 31
0.0
  0
LINE
  5
BA
100
AcDbEntity
100
AcDbLine
  8
0
 62
7
420
0
370
-1
 48
1.0
  6
BYLAYER
 10
0.3392531327771673
 20
0.4202162397530167
 30
0.0
 11
0.3280295144952561
 21
0.3773547901113894
 31
0.0
  0
LINE
  5
BB
100
AcDbEntity
100
AcDbLine
  8
0
 62
7
420
0
370
-1
 48
1.0
  6
BYLAYER
 10
0.394434341769978
 20
0.3689118136950496
 30
0.0
 11
0.3773547901113883
 21
0.3280295144952565
 31
0.0
  0
LINE
  5
BC
100
AcDbEntity
100
AcDbLine
  8
0
 62
7
420
0
370
-1
 48
1.0
  6
BYLAYER
 10
0.4419383349626518
 20
0.3104269388144765
 30
0.0
 11
0.4193352839727158
 21
0.2723195175075162
 31
0.0
  0
LINE
  5
BD
100
AcDbEntity
100
AcDbLine
  8
0
 62
256
370
-1
 48
1.0
  6
BYLAYER
 10
-0.3549215225758555
 20
-0.4070688996517953
 30
0.0
 11
-0.3677395322917096
 21
-0.3955275118637902
 31
0.0
  0
LINE
  5
BE
100
AcDbEntity
100
AcDbLine
  8
0
 62
256
370
-1
 48
1.0
  6
BYLAYER
 10
-0.4081204917849517
 20
-0.3537118042085894
 30
0.0
 11
-0.4192075067835432
 21
-0.3404988142528727
 31
0.0
  0
LINE
  5
BF
100
AcDbEntity
100
AcDbLine
  8
0
 62
256
370
-1
 48
1.0
  6
BYLAYER
 10
-0.4533758598516329
 20
-0.2934701108376776
 30
0.0
 11
-0.4625160839973059
 21
-0.2788426945341833
 31
0.0
  0
LINE
  5
C0
100
AcDbEntity
100
AcDbLine
  8
0
 62
256
370
-1
 48
1.0
  6
BYLAYER
 10
-0.4898067825136998
 20
-0.2275163555766138
 30
0.0
 11
-0.4968223117403081
 21
-0.21175921894525
 31
0.0
  0
LINE
  5
C1
100
AcDbEntity
100
AcDbLine
  8
0
 62
256
370
-1
 48
1.0
  6
BYLAYER
 10
-0.5167041733010933
 20
-0.1571342532502695
 30
0.0
 11
-0.5214584583122894
 21
-0.140554091032089
 31
0.0
  0
LINE
  5
C2
100
AcDbEntity
100
AcDbLine
  8
0
 62
256
370
-1
 48
1.0
  6
BYLAYER
 10
-0.5335445050974679
 20
-0.0836937114219733
 30
0.0
 11
-0.5359450091434264
 21
-0.0666132376148976
 31
0.0
  0
LINE
  5
C3
100
AcDbEntity
100
AcDbLine
  8
0
 62
256
370
-1
 48
1.0
  6
BYLAYER
 10
-0.5399999999999991
 20
-0.0086241667010361
 30
0.0
 11
-0.5399999999999991
 21
0.0086241667010374
 31
0.0
  0
LINE
  5
C4
100
AcDbEntity
100
AcDbLine
  8
0
 62
256
370
-1
 48
1.0
  6
BYLAYER
 10
-0.5359450091434264
 20
0.0666132376148982
 30
0.0
 11
-0.5335445050974679
 21
0.0836937114219731
 31
0.0
  0
LINE
  5
C5
100
AcDbEntity
100
AcDbLine
  8
0
 62
256
370
-1
 48
1.0
  6
BYLAYER
 10
-0.5214584583122894
 20
0.140554091032089
 30
0.0
 11
-0.5167041733010933
 21
0.1571342532502698
 31
0.0
  0
LINE
  5
C6
100
AcDbEntity
100
AcDbLine
  8
0
 62
256
370
-1
 48
1.0
  6
BYLAYER
 10
-0.4968223117403081
 20
0.2117592189452502
 30
0.0
 11
-0.4898067825136989
 21
0.2275163555766138
 31
0.0
  0
LINE
  5
C7
100
AcDbEntity
100
AcDbLine
  8
0
 62
256
370
-1
 48
1.0
  6
BYLAYER
 10
-0.4625160839973059
 20
0.2788426945341833
 30
0.0
 11
-0.4533758598516329
 21
0.2934701108376778
 31
0.0
  0
LINE
  5
C8
100
AcDbEntity
100
AcDbLine
  8
0
 62
256
370
-1
 48
1.0
  6
BYLAYER
 10
-0.4192075067835432
 20
0.3404988142528727
 30
0.0
 11
-0.4081204917849517
 21
0.3537118042085896
 31
0.0
  0
LINE
  5
C9
100
AcDbEntity
100
AcDbLine
  8
0
 62
256
370
-1
 48
1.0
  6
BYLAYER
 10
-0.3677395322917096
 20
0.3955275118637902
 30
0.0
 11
-0.3549215225758546
 21
0.4070688996517953
 31
0.0
  0
LINE
  5
CA
100
AcDbEntity
100
AcDbLine
  8
0
 62
256
370
-1
 48
1.0
  6
BYLAYER
 10
-0.3091139261013378
 20
0.4428577163621552
 30
0.0
 11
-0.2948144096470671
 21
0.4525028619972893
 31
0.0
  0
LINE
  5
CB
100
AcDbEntity
100
AcDbLine
  8
0
 62
256
370
-1
 48
1.0
  6
BYLAYER
 10
-0.2444717689512812
 20
0.4815681991547178
 30
0.0
 11
-0.2289690695809208
 21
0.4891293708483819
 31
0.0
  0
LINE
  5
CC
100
AcDbEntity
100
AcDbLine
  8
0
 62
256
370
-1
 48
1.0
  6
BYLAYER
 10
-0.1750712469011049
 20
0.5109055047264406
 30
0.0
 11
-0.1586671070238364
 21
0.5162355328723247
 31
0.0
  0
LINE
  5
CD
100
AcDbEntity
100
AcDbLine
  8
0
 62
256
370
-1
 48
1.0
  6
BYLAYER
 10
-0.1022631621705887
 20
0.5302986157950618
 30
0.0
 11
-0.0852768697096948
 21
0.5332937574581222
 31
0.0
  0
LINE
  5
CE
100
AcDbEntity
100
AcDbLine
  8
0
 62
256
370
-1
 48
1.0
  6
BYLAYER
 10
-0.0274646413110471
 20
0.5393700675129667
 30
0.0
 11
-0.0102268151276537
 21
0.5399720256676559
 31
0.0
  0
LINE
  5
CF
100
AcDbEntity
100
AcDbLine
  8
0
 62
256
370
-1
 48
1.0
  6
BYLAYER
 10
0.0478684475510498
 20
0.5379432943910902
 30
0.0
 11
0.0650222927780177
 21
0.5361403526066442
 31
0.0
  0
LINE
  5
D0
100
AcDbEntity
100
AcDbLine
  8
0
 62
256
370
-1
 48
1.0
  6
BYLAYER
 10
0.1222698315311161
 20
0.5260460669453193
 30
0.0
 11
0.1390058157165255
 21
0.5218733174327561
 31
0.0
  0
LINE
  5
D1
100
AcDbEntity
100
AcDbLine
  8
0
 62
256
370
-1
 48
1.0
  6
BYLAYER
 10
0.1942913723203024
 20
0.5039099511749898
 30
0.0
 11
0.2102837485688838
 21
0.4974486117571397
 31
0.0
  0
LINE
  5
D2
100
AcDbEntity
100
AcDbLine
  8
0
 62
256
370
-1
 48
1.0
  6
BYLAYER
 10
0.2625312525504331
 20
0.471965801394113
 30
0.0
 11
0.2774687474495678
 21
0.4633416346930794
 31
0.0
  0
LINE
  5
D3
100
AcDbEntity
100
AcDbLine
  8
0
 62
256
370
-1
 48
1.0
  6
BYLAYER
 10
0.3256612605745444
 20
0.4308353741422424
 30
0.0
 11
0.3392531327771673
 21
0.4202162397530167
 31
0.0
  0
LINE
  5
D4
100
AcDbEntity
100
AcDbLine
  8
0
 62
256
370
-1
 48
1.0
  6
BYLAYER
 10
0.3824526425957648
 20
0.3813192264006671
 30
0.0
 11
0.394434341769978
 21
0.3689118136950496
 31
0.0
  0
LINE
  5
D5
100
AcDbEntity
100
AcDbLine
  8
0
 62
256
370
-1
 48
1.0
  6
BYLAYER
 10
0.4318000189622921
 20
0.324381133661394
 30
0.0
 11
0.4419383349626518
 21
0.3104269388144765
 31
0.0
  0
LINE
  5
D6
100
AcDbEntity
100
AcDbLine
  8
0
 62
256
370
-1
 48
1.0
  6
BYLAYER
 10
0.4727428991249605
 20
0.2611293311334728
 30
0.0
 11
0.4808405011626808
 21
0.2458999566752893
 31
0.0
  0
LINE
  5
D7
100
AcDbEntity
100
AcDbLine
  8
0
 62
256
370
-1
 48
1.0
  6
BYLAYER
 10
0.5044843764932381
 20
0.19279494320525
 30
0.0
 11
0.5103836539555431
 21
0.1765868115864724
 31
0.0
  0
LINE
  5
D8
100
AcDbEntity
100
AcDbLine
  8
0
 62
256
370
-1
 48
1.0
  6
BYLAYER
 10
0.5264066393155495
 20
0.1207080210085343
 30
0.0
 11
0.5299927694769613
 21
0.1038366050746455
 31
0.0
  0
LINE
  5
D9
100
AcDbEntity
100
AcDbLine
  8
0
 62
256
370
-1
 48
1.0
  6
BYLAYER
 10
0.5380829956822595
 20
0.0462716544862265
 30
0.0
 11
0.5392861785983509
 21
0.0290653371574285
 31
0.0
  0
LINE
  5
DA
100
AcDbEntity
100
AcDbLine
  8
0
 62
256
370
-1
 48
1.0
  6
BYLAYER
 10
0.5392861785983509
 20
-0.029065337157429
 30
0.0
 11
0.5380829956822595
 21
-0.0462716544862267
 31
0.0
  0
LINE
  5
DB
100
AcDbEntity
100
AcDbLine
  8
0
 62
256
370
-1
 48
1.0
  6
BYLAYER
 10
0.5299927694769613
 20
-0.103836605074646
 30
0.0
 11
0.5264066393155487
 21
-0.1207080210085347
 31
0.0
  0
LINE
  5
DC
100
AcDbEntity
100
AcDbLine
  8
0
 62
256
370
-1
 48
1.0
  6
BYLAYER
 10
0.5103836539555422
 20
-0.1765868115864724
 30
0.0
 11
0.5044843764932381
 21
-0.1927949432052503
 31
0.0
  0
LINE
  5
DD
100
AcDbEntity
100
AcDbLine
  8
0
 62
256
370
-1
 48
1.0
  6
BYLAYER
 10
0.4808405011626808
 20
-0.2458999566752891
 30
0.0
 11
0.4727428991249605
 21
-0.2611293311334724
 31
0.0
  0
LINE
  5
DE
100
AcDbEntity
100
AcDbLine
  8
0
 62
256
370
-1
 48
1.0
  6
BYLAYER
 10
0.4419383349626509
 20
-0.3104269388144767
 30
0.0
 11
0.4318000189622921
 21
-0.324381133661394
 31
0.0
  0
LINE
  5
DF
100
AcDbEntity
100
AcDbLine
  8
0
 62
256
370
-1
 48
1.0
  6
BYLAYER
 10
0.3944343417699789
 20
-0.3689118136950491
 30
0.0
 11
0.3824526425957657
 21
-0.3813192264006668
 31
0.0
  0
LINE
  5
E0
100
AcDbEntity
100
AcDbLine
  8
0
 62
256
370
-1
 48
1.0
  6
BYLAYER
 10
0.3392531327771673
 20
-0.4202162397530167
 30
0.0
 11
0.3256612605745444
 21
-0.4308353741422424
 31
0.0
  0
LINE
  5
E1
100
AcDbEntity
100
AcDbLine
  8
0
 62
256
370
-1
 48
1.0
  6
BYLAYER
 10
0.2774687474495678
 20
-0.4633416346930799
 30
0.0
 11
0.2625312525504331
 21
-0.4719658013941135
 31
0.0
  0
LINE
  5
E2
100
AcDbEntity
100
AcDbLine
  8
0
 62
256
370
-1
 48
1.0
  6
BYLAYER
 10
0.2102837485688838
 20
-0.4974486117571397
 30
0.0
 11
0.1942913723203024
 21
-0.5039099511749898
 31
0.0
  0
LINE
  5
E3
100
AcDbEntity
100
AcDbLine
  8
0
 62
256
370
-1
 48
1.0
  6
BYLAYER
 10
0.1390058157165255
 20
-0.5218733174327561
 30
0.0
 11
0.1222698315311161
 21
-0.5260460669453193
 31
0.0
  0
LINE
  5
E4
100
AcDbEntity
100
AcDbLine
  8
0
 62
256
370
-1
 48
1.0
  6
BYLAYER
 10
0.0650222927780169
 20
-0.5361403526066442
 30
0.0
 11
0.0478684475510489
 21
-0.5379432943910902
 31
0.0
  0
LINE
  5
E5
100
AcDbEntity
100
AcDbLine
  8
0
 62
256
370
-1
 48
1.0
  6
BYLAYER
 10
-0.0102268151276537
 20
-0.5399720256676559
 30
0.0
 11
-0.0274646413110471
 21
-0.5393700675129669
 31
0.0
  0
LINE
  5
E6
100
AcDbEntity
100
AcDbLine
  8
0
 62
256
370
-1
 48
1.0
  6
BYLAYER
 10
-0.0852768697096948
 20
-0.5332937574581222
 30
0.0
 11
-0.1022631621705896
 21
-0.5302986157950615
 31
0.0
  0
LINE
  5
E7
100
AcDbEntity
100
AcDbLine
  8
0
 62
256
370
-1
 48
1.0
  6
BYLAYER
 10
-0.1586671070238372
 20
-0.5162355328723243
 30
0.0
 11
-0.1750712469011049
 21
-0.5109055047264406
 31
0.0
  0
LINE
  5
E8
100
AcDbEntity
100
AcDbLine
  8
0
 62
256
370
-1
 48
1.0
  6
BYLAYER
 10
-0.2289690695809208
 20
-0.4891293708483822
 30
0.0
 11
-0.2444717689512821
 21
-0.4815681991547176
 31
0.0
  0
LINE
  5
E9
100
AcDbEntity
100
AcDbLine
  8
0
 62
256
370
-1
 48
1.0
  6
BYLAYER
 10
-0.2948144096470671
 20
-0.4525028619972888
 30
0.0
 11
-0.3091139261013378
 21
-0.4428577163621557
 31
0.0
  0
LINE
  5
EA
100
AcDbEntity
100
AcDbLine
  8
0
 62
256
370
-1
 48
1.0
  6
BYLAYER
 10
-0.4993147673772906
 20
0.0261679781214716
 30
0.0
 11
-0.4980973490458762
 21
0.0435778713738304
 31
0.0
  0
LINE
  5
EB
100
AcDbEntity
100
AcDbLine
  8
0
 62
256
370
-1
 48
1.0
  6
BYLAYER
 10
-0.4908135917238354
 20
0.0954044976882726
 30
0.0
 11
-0.4871850323926203
 21
0.1124755271719344
 31
0.0
  0
LINE
  5
EC
100
AcDbEntity
100
AcDbLine
  8
0
 62
256
370
-1
 48
1.0
  6
BYLAYER
 10
-0.4727592877996614
 20
0.1627840772285782
 30
0.0
 11
-0.4667902132486033
 21
0.1791839747726525
 31
0.0
  0
LINE
  5
ED
100
AcDbEntity
100
AcDbLine
  8
0
 62
256
370
-1
 48
1.0
  6
BYLAYER
 10
-0.4455032620941868
 20
0.2269952498697749
 30
0.0
 11
-0.4373098535696993
 21
0.2424048101231713
 31
0.0
  0
LINE
  5
EE
100
AcDbEntity
100
AcDbLine
  8
0
 62
256
370
-1
 48
1.0
  6
BYLAYER
 10
-0.4095760221444991
 20
0.2867882181755244
 30
0.0
 11
-0.399317755023648
 21
0.3009075115760274
 31
0.0
  0
LINE
  5
EF
100
AcDbEntity
100
AcDbLine
  8
0
 62
256
370
-1
 48
1.0
  6
BYLAYER
 10
-0.3656768508095878
 20
0.3409991800312517
 30
0.0
 11
-0.3535533905932748
 21
0.3535533905932773
 31
0.0
  0
LINE
  5
F0
100
AcDbEntity
100
AcDbLine
  8
0
 62
256
370
-1
 48
1.0
  6
BYLAYER
 10
-0.3146601955249215
 20
0.3885729807284877
 30
0.0
 11
-0.3009075115760247
 21
0.3993177550236502
 31
0.0
  0
LINE
  5
F1
100
AcDbEntity
100
AcDbLine
  8
0
 62
256
370
-1
 48
1.0
  6
BYLAYER
 10
-0.2575190374550296
 20
0.4285836503510589
 30
0.0
 11
-0.2424048101231691
 21
0.4373098535697013
 31
0.0
  0
LINE
  5
F2
100
AcDbEntity
100
AcDbLine
  8
0
 62
256
370
-1
 48
1.0
  6
BYLAYER
 10
-0.1953655642446384
 20
0.4602524267262234
 30
0.0
 11
-0.1791839747726502
 21
0.4667902132486046
 31
0.0
  0
LINE
  5
F3
100
AcDbEntity
100
AcDbLine
  8
0
 62
256
370
-1
 48
1.0
  6
BYLAYER
 10
-0.1294095225512617
 20
0.4829629131445377
 30
0.0
 11
-0.1124755271719318
 21
0.4871850323926212
 31
0.0
  0
LINE
  5
F4
100
AcDbEntity
100
AcDbLine
  8
0
 62
256
370
-1
 48
1.0
  6
BYLAYER
 10
-0.0609346717025741
 20
0.4962730758206646
 30
0.0
 11
-0.0435778713738273
 21
0.4980973490458764
 31
0.0
  0
LINE
  5
F5
100
AcDbEntity
100
AcDbLine
  8
0
 62
256
370
-1
 48
1.0
  6
BYLAYER
 10
0.0087262032186413
 20
0.4999238475781993
 30
0.0
 11
0.0261679781214736
 21
0.4993147673772904
 31
0.0
  0
LINE
  5
F6
100
AcDbEntity
100
AcDbLine
  8
0
 62
256
370
-1
 48
1.0
  6
BYLAYER
 10
0.0782172325201156
 20
0.4938441702975727
 30
0.0
 11
0.0954044976882749
 21
0.4908135917238352
 31
0.0
  0
LINE
  5
F7
100
AcDbEntity
100
AcDbLine
  8
0
 62
256
370
-1
 48
1.0
  6
BYLAYER
 10
0.1461858523613699
 20
0.4781523779815215
 30
0.0
 11
0.1627840772285811
 21
0.4727592877996614
 31
0.0
  0
LINE
  5
F8
100
AcDbEntity
100
AcDbLine
  8
0
 62
256
370
-1
 48
1.0
  6
BYLAYER
 10
0.211309130870351
 20
0.4531538935183286
 30
0.0
 11
0.2269952498697769
 21
0.4455032620941863
 31
0.0
  0
LINE
  5
F9
100
AcDbEntity
100
AcDbLine
  8
0
 62
256
370
-1
 48
1.0
  6
BYLAYER
 10
0.2723195175075155
 20
0.4193352839727154
 30
0.0
 11
0.286788218175527
 21
0.409576022144498
 31
0.0
  0
LINE
  5
FA
100
AcDbEntity
100
AcDbLine
  8
0
 62
256
370
-1
 48
1.0
  6
BYLAYER
 10
0.3280295144952561
 20
0.3773547901113894
 30
0.0
 11
0.3409991800312522
 21
0.3656768508095873
 31
0.0
  0
LINE
  5
FB
100
AcDbEntity
100
AcDbLine
  8
0
 62
256
370
-1
 48
1.0
  6
BYLAYER
 10
0.3773547901113883
 20
0.3280295144952565
 30
0.0
 11
0.3885729807284894
 21
0.3146601955249204
 31
0.0
  0
LINE
  5
FC
100
AcDbEntity
100
AcDbLine
  8
0
 62
256
370
-1
 48
1.0
  6
BYLAYER
 10
0.4193352839727158
 20
0.2723195175075162
 30
0.0
 11
0.4285836503510598
 21
0.257519037455028
 31
0.0
  0
LINE
  5
FD
100
AcDbEntity
100
AcDbLine
  8
0
 62
256
370
-1
 48
1.0
  6
BYLAYER
 10
0.4531538935183281
 20
0.2113091308703516
 30
0.0
 11
0.4602524267262247
 21
0.1953655642446372
 31
0.0
  0
LINE
  5
FE
100
AcDbEntity
100
AcDbLine
  8
0
 62
256
370
-1
 48
1.0
  6
BYLAYER
 10
0.4781523779815213
 20
0.1461858523613699
 30
0.0
 11
0.4829629131445383
 21
0.1294095225512601
 31
0.0
  0
LINE
  5
FF
100
AcDbEntity
100
AcDbLine
  8
0
 62
256
370
-1
 48
1.0
  6
BYLAYER
 10
0.4938441702975727
 20
0.0782172325201167
 30
0.0
 11
0.4962730758206657
 21
0.0609346717025729
 31
0.0
  0
LINE
  5
100
100
AcDbEntity
100
AcDbLine
  8
0
 62
256
370
-1
 48
1.0
  6
BYLAYER
 10
0.4999238475781995
 20
0.0087262032186426
 30
0.0
 11
0.4999238475781995
 21
-0.0087262032186433
 31
0.0
  0
LINE
  5
101
100
AcDbEntity
100
AcDbLine
  8
0
 62
256
370
-1
 48
1.0
  6
BYLAYER
 10
0.4962730758206657
 20
-0.0609346717025738
 30
0.0
 11
0.4938441702975727
 21
-0.0782172325201176
 31
0.0
  0
LINE
  5
102
100
AcDbEntity
100
AcDbLine
  8
0
 62
256
370
-1
 48
1.0
  6
BYLAYER
 10
0.4829629131445383
 20
-0.1294095225512606
 30
0.0
 11
0.4781523779815213
 21
-0.1461858523613706
 31
0.0
  0
LINE
  5
103
100
AcDbEntity
100
AcDbLine
  8
0
 62
256
370
-1
 48
1.0
  6
BYLAYER
 10
0.4602524267262247
 20
-0.1953655642446377
 30
0.0
 11
0.4531538935183281
 21
-0.2113091308703521
 31
0.0
  0
LINE
  5
104
100
AcDbEntity
100
AcDbLine
  8
0
 62
256
370
-1
 48
1.0
  6
BYLAYER
 10
0.4285836503510598
 20
-0.2575190374550285
 30
0.0
 11
0.4193352839727149
 21
-0.2723195175075162
 31
0.0
  0
LINE
  5
105
100
AcDbEntity
100
AcDbLine
  8
0
 62
256
370
-1
 48
1.0
  6
BYLAYER
 10
0.3885729807284886
 20
-0.3146601955249204
 30
0.0
 11
0.3773547901113883
 21
-0.3280295144952567
 31
0.0
  0
LINE
  5
106
100
AcDbEntity
100
AcDbLine
  8
0
 62
256
370
-1
 48
1.0
  6
BYLAYER
 10
0.3409991800312522
 20
-0.3656768508095876
 30
0.0
 11
0.3280295144952561
 21
-0.3773547901113894
 31
0.0
  0
LINE
  5
107
100
AcDbEntity
100
AcDbLine
  8
0
 62
256
370
-1
 48
1.0
  6
BYLAYER
 10
0.2867882181755261
 20
-0.4095760221444984
 30
0.0
 11
0.2723195175075155
 21
-0.4193352839727156
 31
0.0
  0
LINE
  5
108
100
AcDbEntity
100
AcDbLine
  8
0
 62
256
370
-1
 48
1.0
  6
BYLAYER
 10
0.226995249869776
 20
-0.445503262094187
 30
0.0
 11
0.211309130870351
 21
-0.4531538935183288
 31
0.0
  0
LINE
  5
109
100
AcDbEntity
100
AcDbLine
  8
0
 62
256
370
-1
 48
1.0
  6
BYLAYER
 10
0.1627840772285811
 20
-0.4727592877996616
 30
0.0
 11
0.1461858523613682
 21
-0.4781523779815215
 31
0.0
  0
LINE
  5
10A
100
AcDbEntity
100
AcDbLine
  8
0
 62
256
370
-1
 48
1.0
  6
BYLAYER
 10
0.095404497688274
 20
-0.4908135917238357
 30
0.0
 11
0.0782172325201156
 21
-0.4938441702975724
 31
0.0
  0
LINE
  5
10B
100
AcDbEntity
100
AcDbLine
  8
0
 62
256
370
-1
 48
1.0
  6
BYLAYER
 10
0.0261679781214736
 20
-0.4993147673772904
 30
0.0
 11
0.0087262032186413
 21
-0.4999238475781993
 31
0.0
  0
LINE
  5
10C
100
AcDbEntity
100
AcDbLine
  8
0
 62
256
370
-1
 48
1.0
  6
BYLAYER
 10
-0.0435778713738282
 20
-0.4980973490458764
 30
0.0
 11
-0.0609346717025749
 21
-0.4962730758206646
 31
0.0
  0
LINE
  5
10D
100
AcDbEntity
100
AcDbLine
  8
0
 62
256
370
-1
 48
1.0
  6
BYLAYER
 10
-0.1124755271719327
 20
-0.4871850323926215
 30
0.0
 11
-0.1294095225512617
 21
-0.4829629131445372
 31
0.0
  0
LINE
  5
10E
100
AcDbEntity
100
AcDbLine
  8
0
 62
256
370
-1
 48
1.0
  6
BYLAYER
 10
-0.1791839747726502
 20
-0.4667902132486044
 30
0.0
 11
-0.1953655642446392
 21
-0.4602524267262231
 31
0.0
  0
LINE
  5
10F
100
AcDbEntity
100
AcDbLine
  8
0
 62
256
370
-1
 48
1.0
  6
BYLAYER
 10
-0.2424048101231691
 20
-0.4373098535697013
 30
0.0
 11
-0.2575190374550296
 21
-0.4285836503510587
 31
0.0
  0
LINE
  5
110
100
AcDbEntity
100
AcDbLine
  8
0
 62
256
370
-1
 48
1.0
  6
BYLAYER
 10
-0.3009075115760256
 20
-0.3993177550236495
 30
0.0
 11
-0.3146601955249215
 21
-0.3885729807284874
 31
0.0
  0
LINE
  5
111
100
AcDbEntity
100
AcDbLine
  8
0
 62
256
370
-1
 48
1.0
  6
BYLAYER
 10
-0.3535533905932748
 20
-0.3535533905932768
 30
0.0
 11
-0.3656768508095887
 21
-0.3409991800312506
 31
0.0
  0
LINE
  5
112
100
AcDbEntity
100
AcDbLine
  8
0
 62
256
370
-1
 48
1.0
  6
BYLAYER
 10
-0.3993177550236489
 20
-0.3009075115760271
 30
0.0
 11
-0.4095760221444991
 21
-0.2867882181755241
 31
0.0
  0
LINE
  5
113
100
AcDbEntity
100
AcDbLine
  8
0
 62
256
370
-1
 48
1.0
  6
BYLAYER
 10
-0.4373098535697002
 20
-0.2424048101231711
 30
0.0
 11
-0.4455032620941868
 21
-0.226995249869774
 31
0.0
  0
LINE
  5
114
100
AcDbEntity
100
AcDbLine
  8
0
 62
256
370
-1
 48
1.0
  6
BYLAYER
 10
-0.4667902132486041
 20
-0.1791839747726522
 30
0.0
 11
-0.4727592877996614
 21
-0.1627840772285787
 31
0.0
  0
LINE
  5
115
100
AcDbEntity
100
AcDbLine
  8
0
 62
256
370
-1
 48
1.0
  6
BYLAYER
 10
-0.4871850323926203
 20
-0.1124755271719338
 30
0.0
 11
-0.4908135917238354
 21
-0.095404497688272
 31
0.0
  0
LINE
  5
116
100
AcDbEntity
100
AcDbLine
  8
0
 62
256
370
-1
 48
1.0
  6
BYLAYER
 10
-0.4980973490458762
 20
-0.0435778713738302
 30
0.0
 11
-0.4993147673772906
 21
-0.0261679781214712
 31
0.0
  0
LINE
  5
117
100
AcDbEntity
100
AcDbLine
  8
0
 62
7
420
0
370
-1
 48
1.0
  6
BYLAYER
 10
0.4285836503510598
 20
0.2575190374550282
 30
0.0
 11
0.4727428991249605
 21
0.2611293311334728
 31
0.0
  0
ENDBLK
  5
118
100
AcDbEntity
  8
0
100
AcDbBlockEnd
  0
ENDSEC
  0
SECTION
  2
ENTITIES
  0
LINE
  5
119
100
AcDbEntity
100
AcDbLine
  8
0
 62
3
420
65280
370
-1
 48
1.0
  6
BYLAYER
 10
7.0499999999999758
 20
4.5258784859712531
 30
0.0
 11
7.0499999999999758
 21
4.3958784859712008
 31
0.0
  0
LINE
  5
11A
100
AcDbEntity
100
AcDbLine
  8
0
 62
3
420
65280
370
-1
 48
1.0
  6
BYLAYER
 10
7.0499999999999758
 20
1.4741215140287469
 30
0.0
 11
7.0499999999999758
 21
1.6041215140287992
 31
0.0
  0
LINE
  5
11B
100
AcDbEntity
100
AcDbLine
  8
0
 62
7
420
0
370
-1
 48
1.0
  6
BYLAYER
 10
1.7882396931405498
 20
1.9738320218785281
 30
0.0
 11
1.7475544605178395
 21
1.9913758332989646
 31
0.0
  0
LINE
  5
11C
100
AcDbEntity
100
AcDbLine
  8
0
 62
7
420
0
370
-1
 48
1.0
  6
BYLAYER
 10
1.7886824795118961
 20
2.0295312745226814
 30
0.0
 11
1.7539242350923376
 21
2.0570074081224101
 31
0.0
  0
LINE
  5
11D
100
AcDbEntity
100
AcDbLine
  8
0
 62
7
420
0
370
-1
 48
1.0
  6
BYLAYER
 10
1.8035262056857913
 20
2.083218019610853
 30
0.0
 11
1.7770636663858634
 21
2.11875402229151
 31
0.0
  0
LINE
  5
11E
100
AcDbEntity
100
AcDbLine
  8
0
 62
7
420
0
370
-1
 48
1.0
  6
BYLAYER
 10
1.8317592962539027
 20
2.131233594186825
 30
0.0
 11
1.8153958403954813
 21
2.1724077460917437
 31
0.0
  0
LINE
  5
11F
100
AcDbEntity
100
AcDbLine
  8
0
 62
7
420
0
370
-1
 48
1.0
  6
BYLAYER
 10
1.8714577127514018
 20
2.1703058161927329
 30
0.0
 11
1.8663084828093495
 21
2.2143121669130972
 31
0.0
  0
LINE
  5
120
100
AcDbEntity
100
AcDbLine
  8
0
 62
7
420
0
370
-1
 48
1.0
  6
BYLAYER
 10
1.9199160736987202
 20
2.1977719782687748
 30
0.0
 11
1.9263319811840804
 21
2.2416115677269248
 31
0.0
  0
LINE
  5
121
100
AcDbEntity
100
AcDbLine
  8
0
 62
7
420
0
370
-1
 48
1.0
  6
BYLAYER
 10
1.9738320218785232
 20
2.2117603068594462
 30
0.0
 11
1.9913758332989597
 21
2.2524455394821565
 31
0.0
  0
LINE
  5
122
100
AcDbEntity
100
AcDbLine
  8
0
 62
7
420
0
370
-1
 48
1.0
  6
BYLAYER
 10
2.0295312745226783
 20
2.2113175204881008
 30
0.0
 11
2.0570074081224052
 21
2.2460757649076593
 31
0.0
  0
LINE
  5
123
100
AcDbEntity
100
AcDbLine
  8
0
 62
7
420
0
370
-1
 48
1.0
  6
BYLAYER
 10
2.0832180196108481
 20
2.1964737943142048
 30
0.0
 11
2.118754022291506
 21
2.2229363336141335
 31
0.0
  0
LINE
  5
124
100
AcDbEntity
100
AcDbLine
  8
0
 62
7
420
0
370
-1
 48
1.0
  6
BYLAYER
 10
2.1312335941868201
 20
2.1682407037460933
 30
0.0
 11
2.1724077460917406
 21
2.1846041596045147
 31
0.0
  0
LINE
  5
125
100
AcDbEntity
100
AcDbLine
  8
0
 62
7
420
0
370
-1
 48
1.0
  6
BYLAYER
 10
2.170305816192728
 20
2.1285422872485933
 30
0.0
 11
2.2143121669130941
 21
2.1336915171906474
 31
0.0
  0
LINE
  5
126
100
AcDbEntity
100
AcDbLine
  8
0
 62
7
420
0
370
-1
 48
1.0
  6
BYLAYER
 10
2.1977719782687699
 20
2.0800839263012758
 30
0.0
 11
2.2416115677269199
 21
2.0736680188159156
 31
0.0
  0
LINE
  5
127
100
AcDbEntity
100
AcDbLine
  8
0
 62
7
420
0
370
-1
 48
1.0
  6
BYLAYER
 10
2.2117603068594422
 20
2.0261679781214728
 30
0.0
 11
2.2524455394821525
 21
2.0086241667010363
 31
0.0
  0
CIRCLE
  5
128
100
AcDbEntity
100
AcDbCircle
  8
0
 62
3
420
65280
370
-1
 48
1.0
  6
BYLAYER
 10
6.4999999999999858
 20
4.7108784859712127
 30
0.0
 40
0.0538785000000007
  0
CIRCLE
  5
129
100
AcDbEntity
100
AcDbCircle
  8
0
 62
3
420
65280
370
-1
 48
1.0
  6
BYLAYER
 10
6.4999999999999858
 20
1.2891215140287873
 30
0.0
 40
0.0538785000000007
  0
LINE
  5
12A
100
AcDbEntity
100
AcDbLine
  8
0
 62
7
420
0
370
-1
 48
1.0
  6
BYLAYER
 10
2.2113175204880959
 20
1.9704687254773186
 30
0.0
 11
2.2460757649076544
 21
1.9429925918775908
 31
0.0
  0
LINE
  5
12B
100
AcDbEntity
100
AcDbLine
  8
0
 62
7
420
0
370
-1
 48
1.0
  6
BYLAYER
 10
2.1964737943142008
 20
1.916781980389147
 30
0.0
 11
2.2229363336141286
 21
1.8812459777084909
 31
0.0
  0
CIRCLE
  5
12C
100
AcDbEntity
100
AcDbCircle
  8
0
 62
3
420
65280
370
-1
 48
1.0
  6
BYLAYER
 10
5.8000000000000043
 20
3.2000000000000002
 30
0.0
 40
0.0538785000000007
  0
CIRCLE
  5
12D
100
AcDbEntity
100
AcDbCircle
  8
0
 62
3
420
65280
370
-1
 48
1.0
  6
BYLAYER
 10
5.8000000000000043
 20
2.8000000000000007
 30
0.0
 40
0.0538785000000007
  0
LINE
  5
12E
100
AcDbEntity
100
AcDbLine
  8
0
 62
7
420
0
370
-1
 48
1.0
  6
BYLAYER
 10
2.1682407037460893
 20
1.8687664058131759
 30
0.0
 11
2.1846041596045107
 21
1.8275922539082563
 31
0.0
  0
LINE
  5
12F
100
AcDbEntity
100
AcDbLine
  8
0
 62
7
420
0
370
-1
 48
1.0
  6
BYLAYER
 10
2.1285422872485902
 20
1.829694183807268
 30
0.0
 11
2.1336915171906425
 21
1.7856878330869028
 31
0.0
  0
CIRCLE
  5
130
100
AcDbEntity
100
AcDbCircle
  8
0
 62
3
420
65280
370
-1
 48
1.0
  6
BYLAYER
 10
5.8000000000000043
 20
4.7108784859712127
 30
0.0
 40
0.0538785000000007
  0
CIRCLE
  5
131
100
AcDbEntity
100
AcDbCircle
  8
0
 62
3
420
65280
370
-1
 48
1.0
  6
BYLAYER
 10
5.8000000000000043
 20
1.2891215140287873
 30
0.0
 40
0.0538785000000007
  0
LINE
  5
132
100
AcDbEntity
100
AcDbLine
  8
0
 62
7
420
0
370
-1
 48
1.0
  6
BYLAYER
 10
2.0800839263012718
 20
1.8022280217312261
 30
0.0
 11
2.0736680188159116
 21
1.7583884322730752
 31
0.0
  0
CIRCLE
  5
133
100
AcDbEntity
100
AcDbCircle
  8
0
 62
3
420
65280
370
-1
 48
1.0
  6
BYLAYER
 10
5.100000000000005
 20
3.2000000000000002
 30
0.0
 40
0.0538785000000007
  0
CIRCLE
  5
134
100
AcDbEntity
100
AcDbCircle
  8
0
 62
3
420
65280
370
-1
 48
1.0
  6
BYLAYER
 10
5.100000000000005
 20
2.8000000000000007
 30
0.0
 40
0.0538785000000007
  0
LINE
  5
135
100
AcDbEntity
100
AcDbLine
  8
0
 62
7
420
0
370
-1
 48
1.0
  6
BYLAYER
 10
2.0261679781214688
 20
1.7882396931405538
 30
0.0
 11
2.0086241667010323
 21
1.7475544605178435
 31
0.0
  0
CIRCLE
  5
136
100
AcDbEntity
100
AcDbCircle
  8
0
 62
3
420
65280
370
-1
 48
1.0
  6
BYLAYER
 10
6.4999999999999858
 20
3.2000000000000002
 30
0.0
 40
0.0538785000000007
  0
CIRCLE
  5
137
100
AcDbEntity
100
AcDbCircle
  8
0
 62
3
420
65280
370
-1
 48
1.0
  6
BYLAYER
 10
6.4999999999999858
 20
2.8000000000000007
 30
0.0
 40
0.0538785000000007
  0
LINE
  5
138
100
AcDbEntity
100
AcDbLine
  8
0
 62
7
420
0
370
-1
 48
1.0
  6
BYLAYER
 10
1.9704687254773137
 20
1.7886824795119001
 30
0.0
 11
1.9429925918775868
 21
1.7539242350923416
 31
0.0
  0
LINE
  5
139
100
AcDbEntity
100
AcDbLine
  8
0
 62
7
420
0
370
-1
 48
1.0
  6
BYLAYER
 10
1.9167819803891439
 20
1.8035262056857952
 30
0.0
 11
1.881245977708486
 21
1.7770636663858674
 31
0.0
  0
CIRCLE
  5
13A
100
AcDbEntity
100
AcDbCircle
  8
0
 62
3
420
65280
370
-1
 48
1.0
  6
BYLAYER
 10
5.1000000000000014
 20
4.7108784859712118
 30
0.0
 40
0.0538785000000007
  0
CIRCLE
  5
13B
100
AcDbEntity
100
AcDbCircle
  8
0
 62
3
420
65280
370
-1
 48
1.0
  6
BYLAYER
 10
5.1000000000000014
 20
1.2891215140287873
 30
0.0
 40
0.0538785000000007
  0
LINE
  5
13C
100
AcDbEntity
100
AcDbLine
  8
0
 62
7
420
0
370
-1
 48
1.0
  6
BYLAYER
 10
1.8687664058131719
 20
1.8317592962539075
 30
0.0
 11
1.8275922539082532
 21
1.8153958403954853
 31
0.0
  0
LINE
  5
13D
100
AcDbEntity
100
AcDbLine
  8
0
 62
7
420
0
370
-1
 48
1.0
  6
BYLAYER
 10
1.829694183807264
 20
1.8714577127514067
 30
0.0
 11
1.7856878330868997
 21
1.8663084828093535
 31
0.0
  0
LINE
  5
13E
100
AcDbEntity
100
AcDbLine
  8
0
 62
7
420
0
370
-1
 48
1.0
  6
BYLAYER
 10
1.8022280217312221
 20
1.9199160736987242
 30
0.0
 11
1.7583884322730721
 21
1.9263319811840853
 31
0.0
  0
LINE
  5
13F
100
AcDbEntity
100
AcDbLine
  8
0
 62
7
420
0
370
-1
 48
1.0
  6
BYLAYER
 10
1.7882396931405498
 20
3.973832021878529
 30
0.0
 11
1.7475544605178395
 21
3.9913758332989646
 31
0.0
  0
LINE
  5
140
100
AcDbEntity
100
AcDbLine
  8
0
 62
7
420
0
370
-1
 48
1.0
  6
BYLAYER
 10
1.7886824795118961
 20
4.0295312745226823
 30
0.0
 11
1.7539242350923376
 21
4.0570074081224101
 31
0.0
  0
LINE
  5
141
100
AcDbEntity
100
AcDbLine
  8
0
 62
7
420
0
370
-1
 48
1.0
  6
BYLAYER
 10
1.8035262056857913
 20
4.0832180196108538
 30
0.0
 11
1.7770636663858634
 21
4.11875402229151
 31
0.0
  0
LINE
  5
142
100
AcDbEntity
100
AcDbLine
  8
0
 62
7
420
0
370
-1
 48
1.0
  6
BYLAYER
 10
1.8317592962539027
 20
4.131233594186825
 30
0.0
 11
1.8153958403954813
 21
4.1724077460917437
 31
0.0
  0
LINE
  5
143
100
AcDbEntity
100
AcDbLine
  8
0
 62
7
420
0
370
-1
 48
1.0
  6
BYLAYER
 10
1.8714577127514018
 20
4.1703058161927329
 30
0.0
 11
1.8663084828093495
 21
4.2143121669130981
 31
0.0
  0
LINE
  5
144
100
AcDbEntity
100
AcDbLine
  8
0
 62
7
420
0
370
-1
 48
1.0
  6
BYLAYER
 10
1.9199160736987202
 20
4.1977719782687748
 30
0.0
 11
1.9263319811840804
 21
4.2416115677269257
 31
0.0
  0
LINE
  5
145
100
AcDbEntity
100
AcDbLine
  8
0
 62
7
420
0
370
-1
 48
1.0
  6
BYLAYER
 10
1.9738320218785232
 20
4.2117603068594471
 30
0.0
 11
1.9913758332989597
 21
4.2524455394821574
 31
0.0
  0
LINE
  5
146
100
AcDbEntity
100
AcDbLine
  8
0
 62
7
420
0
370
-1
 48
1.0
  6
BYLAYER
 10
2.0295312745226788
 20
4.2113175204881008
 30
0.0
 11
2.0570074081224057
 21
4.2460757649076593
 31
0.0
  0
LINE
  5
147
100
AcDbEntity
100
AcDbLine
  8
0
 62
7
420
0
370
-1
 48
1.0
  6
BYLAYER
 10
2.0832180196108485
 20
4.1964737943142056
 30
0.0
 11
2.1187540222915064
 21
4.2229363336141335
 31
0.0
  0
LINE
  5
148
100
AcDbEntity
100
AcDbLine
  8
0
 62
7
420
0
370
-1
 48
1.0
  6
BYLAYER
 10
2.1312335941868206
 20
4.1682407037460933
 30
0.0
 11
2.172407746091741
 21
4.1846041596045156
 31
0.0
  0
LINE
  5
149
100
AcDbEntity
100
AcDbLine
  8
0
 62
7
420
0
370
-1
 48
1.0
  6
BYLAYER
 10
2.1703058161927284
 20
4.1285422872485942
 30
0.0
 11
2.2143121669130945
 21
4.1336915171906474
 31
0.0
  0
LINE
  5
14A
100
AcDbEntity
100
AcDbLine
  8
0
 62
7
420
0
370
-1
 48
1.0
  6
BYLAYER
 10
2.1977719782687704
 20
4.0800839263012767
 30
0.0
 11
2.2416115677269204
 21
4.0736680188159156
 31
0.0
  0
LINE
  5
14B
100
AcDbEntity
100
AcDbLine
  8
0
 62
7
420
0
370
-1
 48
1.0
  6
BYLAYER
 10
2.2117603068594427
 20
4.0261679781214728
 30
0.0
 11
2.252445539482153
 21
4.0086241667010363
 31
0.0
  0
LINE
  5
14C
100
AcDbEntity
100
AcDbLine
  8
0
 62
7
420
0
370
-1
 48
1.0
  6
BYLAYER
 10
2.2113175204880964
 20
3.9704687254773194
 30
0.0
 11
2.2460757649076548
 21
3.9429925918775908
 31
0.0
  0
LINE
  5
14D
100
AcDbEntity
100
AcDbLine
  8
0
 62
7
420
0
370
-1
 48
1.0
  6
BYLAYER
 10
2.1964737943142012
 20
3.9167819803891479
 30
0.0
 11
2.222936333614129
 21
3.8812459777084909
 31
0.0
  0
ARC
  5
14E
100
AcDbEntity
  8
0
 62
7
420
0
370
-1
 48
1.0
  6
BYLAYER
100
AcDbCircle
 10
5.100000000000005
 20
5.1458784859712008
 30
0.0
 40
0.3499999999999904
100
AcDbArc
 50
0.0
 51
180.0
  0
ARC
  5
14F
100
AcDbEntity
  8
0
 62
7
420
0
370
-1
 48
1.0
  6
BYLAYER
100
AcDbCircle
 10
5.100000000000005
 20
0.8541215140287992
 30
0.0
 40
0.3499999999999904
100
AcDbArc
 50
180.0
 51
0.0
  0
LINE
  5
150
100
AcDbEntity
100
AcDbLine
  8
0
 62
7
420
0
370
-1
 48
1.0
  6
BYLAYER
 10
2.1682407037460898
 20
3.8687664058131759
 30
0.0
 11
2.1846041596045112
 21
3.8275922539082572
 31
0.0
  0
ARC
  5
151
100
AcDbEntity
  8
0
 62
7
420
0
370
-1
 48
1.0
  6
BYLAYER
100
AcDbCircle
 10
5.8000000000000043
 20
5.1458784859712008
 30
0.0
 40
0.3499999999999904
100
AcDbArc
 50
0.0
 51
180.0
  0
ARC
  5
152
100
AcDbEntity
  8
0
 62
7
420
0
370
-1
 48
1.0
  6
BYLAYER
100
AcDbCircle
 10
5.8000000000000043
 20
0.8541215140287992
 30
0.0
 40
0.3499999999999904
100
AcDbArc
 50
180.0
 51
0.0
  0
LINE
  5
153
100
AcDbEntity
100
AcDbLine
  8
0
 62
7
420
0
370
-1
 48
1.0
  6
BYLAYER
 10
2.1285422872485906
 20
3.829694183807268
 30
0.0
 11
2.133691517190643
 21
3.7856878330869037
 31
0.0
  0
ARC
  5
154
100
AcDbEntity
  8
0
 62
7
420
0
370
-1
 48
1.0
  6
BYLAYER
100
AcDbCircle
 10
6.4999999999999858
 20
5.1458784859712008
 30
0.0
 40
0.3499999999999904
100
AcDbArc
 50
0.0
 51
180.0
  0
ARC
  5
155
100
AcDbEntity
  8
0
 62
7
420
0
370
-1
 48
1.0
  6
BYLAYER
100
AcDbCircle
 10
6.4999999999999858
 20
0.8541215140287992
 30
0.0
 40
0.3499999999999904
100
AcDbArc
 50
180.0
 51
0.0
  0
LINE
  5
156
100
AcDbEntity
100
AcDbLine
  8
0
 62
7
420
0
370
-1
 48
1.0
  6
BYLAYER
 10
2.0800839263012723
 20
3.8022280217312261
 30
0.0
 11
2.073668018815912
 21
3.7583884322730761
 31
0.0
  0
LINE
  5
157
100
AcDbEntity
100
AcDbLine
  8
0
 62
7
420
0
370
-1
 48
1.0
  6
BYLAYER
 10
2.0261679781214692
 20
3.7882396931405546
 30
0.0
 11
2.0086241667010327
 21
3.7475544605178444
 31
0.0
  0
LINE
  5
158
100
AcDbEntity
100
AcDbLine
  8
0
 62
7
420
0
370
-1
 48
1.0
  6
BYLAYER
 10
1.9704687254773137
 20
3.7886824795119001
 30
0.0
 11
1.9429925918775868
 21
3.7539242350923416
 31
0.0
  0
LINE
  5
159
100
AcDbEntity
100
AcDbLine
  8
0
 62
3
420
65280
370
-1
 48
1.0
  6
BYLAYER
 10
7.0499999999999758
 20
4.3958784859712008
 30
0.0
 11
6.149999999999995
 21
4.3958784859712008
 31
0.0
  0
LINE
  5
15A
100
AcDbEntity
100
AcDbLine
  8
0
 62
3
420
65280
370
-1
 48
1.0
  6
BYLAYER
 10
7.0499999999999758
 20
1.6041215140287992
 30
0.0
 11
6.149999999999995
 21
1.6041215140287992
 31
0.0
  0
LINE
  5
15B
100
AcDbEntity
100
AcDbLine
  8
0
 62
7
420
0
370
-1
 48
1.0
  6
BYLAYER
 10
1.9167819803891439
 20
3.8035262056857961
 30
0.0
 11
1.881245977708486
 21
3.7770636663858674
 31
0.0
  0
LINE
  5
15C
100
AcDbEntity
100
AcDbLine
  8
0
 62
7
420
0
370
-1
 48
1.0
  6
BYLAYER
 10
1.8687664058131719
 20
3.8317592962539075
 30
0.0
 11
1.8275922539082532
 21
3.8153958403954862
 31
0.0
  0
LINE
  5
15D
100
AcDbEntity
100
AcDbLine
  8
0
 62
7
420
0
370
-1
 48
1.0
  6
BYLAYER
 10
1.829694183807264
 20
3.8714577127514076
 30
0.0
 11
1.7856878330868997
 21
3.8663084828093535
 31
0.0
  0
LINE
  5
15E
100
AcDbEntity
100
AcDbLine
  8
0
 62
7
420
0
370
-1
 48
1.0
  6
BYLAYER
 10
1.8022280217312221
 20
3.9199160736987251
 30
0.0
 11
1.7583884322730721
 21
3.9263319811840853
 31
0.0
  0
LINE
  5
15F
100
AcDbEntity
100
AcDbLine
  8
0
 62
3
420
65280
370
-1
 48
1.0
  6
BYLAYER
 10
7.0499999999999474
 20
4.5258784859712522
 30
0.0
 11
6.1499999999999666
 21
4.5258784859712531
 31
0.0
  0
LINE
  5
160
100
AcDbEntity
100
AcDbLine
  8
0
 62
3
420
65280
370
-1
 48
1.0
  6
BYLAYER
 10
7.0499999999999474
 20
1.4741215140287478
 30
0.0
 11
6.1499999999999666
 21
1.4741215140287469
 31
0.0
  0
LINE
  5
161
100
AcDbEntity
100
AcDbLine
  8
0
 62
7
420
0
370
-1
 48
1.0
  6
BYLAYER
 10
6.8499999999999552
 20
5.1458784859712292
 30
0.0
 11
7.2499999999999538
 21
4.6641284859712382
 31
0.0
  0
LINE
  5
162
100
AcDbEntity
100
AcDbLine
  8
0
 62
7
420
0
370
-1
 48
1.0
  6
BYLAYER
 10
6.8499999999999552
 20
0.8541215140287708
 30
0.0
 11
7.2499999999999538
 21
1.3358715140287618
 31
0.0
  0
ARC
  5
163
100
AcDbEntity
  8
0
 62
7
420
16777215
370
-1
 48
1.0
  6
BYLAYER
100
AcDbCircle
 10
1.3806680859281073
 20
3.9999999976514995
 30
0.0
 40
0.0538785000000007
100
AcDbArc
 50
270.0000025689566314
 51
89.9999975740443006
  0
ARC
  5
164
100
AcDbEntity
  8
0
 62
3
420
65280
370
-1
 48
1.0
  6
BYLAYER
100
AcDbCircle
 10
1.3806680859281037
 20
2.0
 30
0.0
 40
0.0538785000000007
100
AcDbArc
 50
270.0000025689566314
 51
89.9999975740443006
  0
ARC
  5
165
100
AcDbEntity
  8
0
 62
7
420
16777215
370
-1
 48
1.0
  6
BYLAYER
100
AcDbCircle
 10
2.6193319140718945
 20
4.0000000003147278
 30
0.0
 40
0.0538785000000007
100
AcDbArc
 50
89.9999975740443006
 51
269.9999974310433686
  0
ARC
  5
166
100
AcDbEntity
  8
0
 62
3
420
65280
370
-1
 48
1.0
  6
BYLAYER
100
AcDbCircle
 10
2.6193319140718927
 20
2.0000000003147269
 30
0.0
 40
0.0538785000000007
100
AcDbArc
 50
89.9999975740443006
 51
269.9999974310433686
  0
LINE
  5
167
100
AcDbEntity
100
AcDbLine
  8
0
 62
7
420
0
370
-1
 48
1.0
  6
BYLAYER
 10
6.8499999999999766
 20
3.772311720971194
 30
0.0
 11
6.849999999999973
 21
3.8525386779324631
 31
0.0
  0
LINE
  5
168
100
AcDbEntity
100
AcDbLine
  8
0
 62
7
420
0
370
-1
 48
1.0
  6
BYLAYER
 10
6.8499999999999766
 20
2.227688279028806
 30
0.0
 11
6.849999999999973
 21
2.1474613220675369
 31
0.0
  0
CIRCLE
  5
169
100
AcDbEntity
100
AcDbCircle
  8
0
 62
3
420
65280
370
-1
 48
1.0
  6
BYLAYER
 10
1.1999999999999993
 20
3.5999999999999996
 30
0.0
 40
0.0538785000000007
  0
LINE
  5
16A
100
AcDbEntity
100
AcDbLine
  8
0
 62
7
420
0
370
-1
 48
1.0
  6
BYLAYER
 10
6.7499999551083185
 20
3.6645547209711875
 30
0.0
 11
6.8499999551083199
 21
3.6645547209711875
 31
0.0
  0
LINE
  5
16B
100
AcDbEntity
100
AcDbLine
  8
0
 62
7
420
0
370
-1
 48
1.0
  6
BYLAYER
 10
6.7499999551083185
 20
2.3354452790288125
 30
0.0
 11
6.8499999551083199
 21
2.3354452790288125
 31
0.0
  0
CIRCLE
  5
16C
100
AcDbEntity
100
AcDbCircle
  8
0
 62
3
420
65280
370
-1
 48
1.0
  6
BYLAYER
 10
2.8000000000000007
 20
3.5999999999999996
 30
0.0
 40
0.0538785000000007
  0
LINE
  5
16D
100
AcDbEntity
100
AcDbLine
  8
0
 62
7
420
0
370
-1
 48
1.0
  6
BYLAYER
 10
6.7499999999999751
 20
3.772311720971194
 30
0.0
 11
6.8499999999999766
 21
3.772311720971194
 31
0.0
  0
LINE
  5
16E
100
AcDbEntity
100
AcDbLine
  8
0
 62
7
420
0
370
-1
 48
1.0
  6
BYLAYER
 10
6.7499999999999751
 20
2.227688279028806
 30
0.0
 11
6.8499999999999766
 21
2.227688279028806
 31
0.0
  0
CIRCLE
  5
16F
100
AcDbEntity
100
AcDbCircle
  8
0
 62
3
420
65280
370
-1
 48
1.0
  6
BYLAYER
 10
2.8000000000000007
 20
4.4000000000000004
 30
0.0
 40
0.0538785000000007
  0
CIRCLE
  5
170
100
AcDbEntity
100
AcDbCircle
  8
0
 62
3
420
65280
370
-1
 48
1.0
  6
BYLAYER
 10
1.1999999999999993
 20
4.4000000000000004
 30
0.0
 40
0.0538785000000007
  0
CIRCLE
  5
171
100
AcDbEntity
100
AcDbCircle
  8
0
 62
3
420
65280
370
-1
 48
1.0
  6
BYLAYER
 10
1.1999999999999993
 20
1.5999999999999996
 30
0.0
 40
0.0538785000000007
  0
CIRCLE
  5
172
100
AcDbEntity
100
AcDbCircle
  8
0
 62
3
420
65280
370
-1
 48
1.0
  6
BYLAYER
 10
1.1999999999999993
 20
2.3999999999999999
 30
0.0
 40
0.0538785000000007
  0
CIRCLE
  5
173
100
AcDbEntity
100
AcDbCircle
  8
0
 62
3
420
65280
370
-1
 48
1.0
  6
BYLAYER
 10
2.8000000000000007
 20
2.3999999999999999
 30
0.0
 40
0.0538785000000007
  0
CIRCLE
  5
174
100
AcDbEntity
100
AcDbCircle
  8
0
 62
3
420
65280
370
-1
 48
1.0
  6
BYLAYER
 10
2.8000000000000007
 20
1.5999999999999996
 30
0.0
 40
0.0538785000000007
  0
LINE
  5
175
100
AcDbEntity
100
AcDbLine
  8
0
 62
7
420
0
370
-1
 48
1.0
  6
BYLAYER
 10
6.6584999999999823
 20
3.664554763743757
 30
0.0
 11
6.5662570008881787
 21
3.664554763743757
 31
0.0
  0
LINE
  5
176
100
AcDbEntity
100
AcDbLine
  8
0
 62
7
420
0
370
-1
 48
1.0
  6
BYLAYER
 10
6.6584999999999823
 20
2.335445236256243
 30
0.0
 11
6.5662570008881787
 21
2.335445236256243
 31
0.0
  0
LINE
  5
177
100
AcDbEntity
100
AcDbLine
  8
0
 62
7
420
0
370
-1
 48
1.0
  6
BYLAYER
 10
6.6585000448916212
 20
3.7723117209712083
 30
0.0
 11
6.5662570008881751
 21
3.7723117209712083
 31
0.0
  0
LINE
  5
178
100
AcDbEntity
100
AcDbLine
  8
0
 62
7
420
0
370
-1
 48
1.0
  6
BYLAYER
 10
6.6585000448916212
 20
2.2276882790287917
 30
0.0
 11
6.5662570008881751
 21
2.2276882790287917
 31
0.0
  0
LINE
  5
179
100
AcDbEntity
100
AcDbLine
  8
0
 62
7
420
16777215
370
-1
 48
1.0
  6
BYLAYER
 10
0.8457500000000024
 20
1.8767500046970031
 30
0.0
 11
0.8457499999999989
 21
2.1232499999999987
 31
0.0
  0
LINE
  5
17A
100
AcDbEntity
100
AcDbLine
  8
0
 62
3
420
65280
370
-1
 48
1.0
  6
BYLAYER
 10
1.219032585928101
 20
2.0538785000000006
 30
0.0
 11
1.219032585928101
 21
2.1232499976514978
 31
0.0
  0
LINE
  5
17B
100
AcDbEntity
100
AcDbLine
  8
0
 62
7
420
16777215
370
-1
 48
1.0
  6
BYLAYER
 10
1.2190325859281046
 20
4.0538785000000015
 30
0.0
 11
1.2190325859281046
 21
4.1232499976514987
 31
0.0
  0
LINE
  5
17C
100
AcDbEntity
100
AcDbLine
  8
0
 62
7
420
16777215
370
-1
 48
1.0
  6
BYLAYER
 10
2.7809674140718972
 20
4.0538785000000015
 30
0.0
 11
2.7809674140718972
 21
4.1232499976514987
 31
0.0
  0
LINE
  5
17D
100
AcDbEntity
100
AcDbLine
  8
0
 62
3
420
65280
370
-1
 48
1.0
  6
BYLAYER
 10
2.7809674140718954
 20
2.0538785000000006
 30
0.0
 11
2.7809674140718954
 21
2.1232499976514978
 31
0.0
  0
LINE
  5
17E
100
AcDbEntity
100
AcDbLine
  8
0
 62
3
420
65280
370
-1
 48
1.0
  6
BYLAYER
 10
1.219032585928101
 20
1.8767500023485022
 30
0.0
 11
1.219032585928101
 21
1.9461214999999994
 31
0.0
  0
LINE
  5
17F
100
AcDbEntity
100
AcDbLine
  8
0
 62
7
420
16777215
370
-1
 48
1.0
  6
BYLAYER
 10
1.2190325859281046
 20
3.8767500023485026
 30
0.0
 11
1.2190325859281046
 21
3.9461214999999998
 31
0.0
  0
LINE
  5
180
100
AcDbEntity
100
AcDbLine
  8
0
 62
7
420
16777215
370
-1
 48
1.0
  6
BYLAYER
 10
2.7809674140718972
 20
3.8767500023485026
 30
0.0
 11
2.7809674140718972
 21
3.9461214999999998
 31
0.0
  0
LINE
  5
181
100
AcDbEntity
100
AcDbLine
  8
0
 62
3
420
65280
370
-1
 48
1.0
  6
BYLAYER
 10
2.7809674140718954
 20
1.8767500023485022
 30
0.0
 11
2.7809674140718954
 21
1.9461214999999994
 31
0.0
  0
LINE
  5
182
100
AcDbEntity
100
AcDbLine
  8
0
 62
7
420
16777215
370
-1
 48
1.0
  6
BYLAYER
 10
3.1542499999999976
 20
1.8767500046970031
 30
0.0
 11
3.1542499999999976
 21
2.1232499999999987
 31
0.0
  0
LINE
  5
183
100
AcDbEntity
100
AcDbLine
  8
0
 62
7
420
0
370
-1
 48
1.0
  6
BYLAYER
 10
6.5662570008881787
 20
3.664554763743757
 30
0.0
 11
6.5662570008881751
 21
3.7723117209712083
 31
0.0
  0
LINE
  5
184
100
AcDbEntity
100
AcDbLine
  8
0
 62
7
420
0
370
-1
 48
1.0
  6
BYLAYER
 10
6.5662570008881787
 20
2.335445236256243
 30
0.0
 11
6.5662570008881751
 21
2.2276882790287917
 31
0.0
  0
LINE
  5
185
100
AcDbEntity
100
AcDbLine
  8
0
 62
7
420
16777215
370
-1
 48
1.0
  6
BYLAYER
 10
0.8457500000000024
 20
4.0538785023485016
 30
0.0
 11
0.8457500000000007
 21
4.1232499999999987
 31
0.0
  0
LINE
  5
186
100
AcDbEntity
100
AcDbLine
  8
0
 62
7
420
16777215
370
-1
 48
1.0
  6
BYLAYER
 10
0.8457500000000024
 20
3.8767500046970031
 30
0.0
 11
0.8457500000000007
 21
3.9461215023485003
 31
0.0
  0
LINE
  5
187
100
AcDbEntity
100
AcDbLine
  8
0
 62
7
420
16777215
370
-1
 48
1.0
  6
BYLAYER
 10
3.1542499999999976
 20
4.0538785023485016
 30
0.0
 11
3.1542500000000011
 21
4.1232499999999987
 31
0.0
  0
LINE
  5
188
100
AcDbEntity
100
AcDbLine
  8
0
 62
7
420
16777215
370
-1
 48
1.0
  6
BYLAYER
 10
3.1542499999999976
 20
3.8767500046970031
 30
0.0
 11
3.1542500000000011
 21
3.9461215023485003
 31
0.0
  0
LINE
  5
189
100
AcDbEntity
100
AcDbLine
  8
0
 62
7
420
16777215
370
-1
 48
1.0
  6
BYLAYER
 10
1.074032585928105
 20
3.8767499976515007
 30
0.0
 11
1.2190325859281046
 21
3.8767499976515007
 31
0.0
  0
LINE
  5
18A
100
AcDbEntity
100
AcDbLine
  8
0
 62
7
420
16777215
370
-1
 48
1.0
  6
BYLAYER
 10
2.9259674140718968
 20
3.8767499976515007
 30
0.0
 11
2.7809674140718972
 21
3.8767499976515007
 31
0.0
  0
LINE
  5
18B
100
AcDbEntity
100
AcDbLine
  8
0
 62
3
420
65280
370
-1
 48
1.0
  6
BYLAYER
 10
2.925967414071895
 20
1.8767499976515003
 30
0.0
 11
2.7809674140718954
 21
1.8767499976515003
 31
0.0
  0
LINE
  5
18C
100
AcDbEntity
100
AcDbLine
  8
0
 62
3
420
65280
370
-1
 48
1.0
  6
BYLAYER
 10
1.0740325859281015
 20
1.8767499976515003
 30
0.0
 11
1.219032585928101
 21
1.8767499976515003
 31
0.0
  0
LINE
  5
18D
100
AcDbEntity
100
AcDbLine
  8
0
 62
7
420
16777215
370
-1
 48
1.0
  6
BYLAYER
 10
0.6857063196838205
 20
2.1232499999999987
 30
0.0
 11
0.8457499999999989
 21
2.1232499999999987
 31
0.0
  0
LINE
  5
18E
100
AcDbEntity
100
AcDbLine
  8
0
 62
7
420
16777215
370
-1
 48
1.0
  6
BYLAYER
 10
1.074032585928105
 20
4.1232499976514987
 30
0.0
 11
1.2190325859281046
 21
4.1232499976514987
 31
0.0
  0
LINE
  5
18F
100
AcDbEntity
100
AcDbLine
  8
0
 62
7
420
16777215
370
-1
 48
1.0
  6
BYLAYER
 10
2.9259674140718968
 20
4.1232499976514987
 30
0.0
 11
2.7809674140718972
 21
4.1232499976514987
 31
0.0
  0
LINE
  5
190
100
AcDbEntity
100
AcDbLine
  8
0
 62
3
420
65280
370
-1
 48
1.0
  6
BYLAYER
 10
2.925967414071895
 20
2.1232499976514978
 30
0.0
 11
2.7809674140718954
 21
2.1232499976514978
 31
0.0
  0
LINE
  5
191
100
AcDbEntity
100
AcDbLine
  8
0
 62
3
420
65280
370
-1
 48
1.0
  6
BYLAYER
 10
1.0740325859281015
 20
2.1232499976514978
 30
0.0
 11
1.219032585928101
 21
2.1232499976514978
 31
0.0
  0
LINE
  5
192
100
AcDbEntity
100
AcDbLine
  8
0
 62
7
420
0
370
-1
 48
1.0
  6
BYLAYER
 10
6.849999999999973
 20
3.8525386779324631
 30
0.0
 11
6.8999999999999844
 21
3.8525386779324631
 31
0.0
  0
LINE
  5
193
100
AcDbEntity
100
AcDbLine
  8
0
 62
7
420
0
370
-1
 48
1.0
  6
BYLAYER
 10
6.849999999999973
 20
2.1474613220675369
 30
0.0
 11
6.8999999999999844
 21
2.1474613220675369
 31
0.0
  0
LINE
  5
194
100
AcDbEntity
100
AcDbLine
  8
0
 62
7
420
16777215
370
-1
 48
1.0
  6
BYLAYER
 10
0.685706319683824
 20
1.8767500046970027
 30
0.0
 11
0.8457500000000024
 21
1.8767500046970031
 31
0.0
  0
LINE
  5
195
100
AcDbEntity
100
AcDbLine
  8
0
 62
7
420
16777215
370
-1
 48
1.0
  6
BYLAYER
 10
3.314293680316176
 20
2.1232499999999987
 30
0.0
 11
3.1542499999999976
 21
2.1232499999999987
 31
0.0
  0
LINE
  5
196
100
AcDbEntity
100
AcDbLine
  8
0
 62
7
420
0
370
-1
 48
1.0
  6
BYLAYER
 10
7.2499999999999893
 20
4.2641284859712192
 30
0.0
 11
6.8999999999999844
 21
3.8525386779324631
 31
0.0
  0
LINE
  5
197
100
AcDbEntity
100
AcDbLine
  8
0
 62
7
420
0
370
-1
 48
1.0
  6
BYLAYER
 10
7.2499999999999893
 20
1.7358715140287773
 30
0.0
 11
6.8999999999999844
 21
2.1474613220675369
 31
0.0
  0
LINE
  5
198
100
AcDbEntity
100
AcDbLine
  8
0
 62
7
420
16777215
370
-1
 48
1.0
  6
BYLAYER
 10
3.314293680316176
 20
1.8767500046970031
 30
0.0
 11
3.1542499999999976
 21
1.8767500046970031
 31
0.0
  0
LINE
  5
199
100
AcDbEntity
100
AcDbLine
  8
0
 62
7
420
16777215
370
-1
 48
1.0
  6
BYLAYER
 10
0.6857063196838222
 20
4.1232499999999987
 30
0.0
 11
0.8457500000000007
 21
4.1232499999999987
 31
0.0
  0
LINE
  5
19A
100
AcDbEntity
100
AcDbLine
  8
0
 62
7
420
16777215
370
-1
 48
1.0
  6
BYLAYER
 10
0.685706319683824
 20
3.8767500046970031
 30
0.0
 11
0.8457500000000024
 21
3.8767500046970031
 31
0.0
  0
LINE
  5
19B
100
AcDbEntity
100
AcDbLine
  8
0
 62
7
420
16777215
370
-1
 48
1.0
  6
BYLAYER
 10
3.314293680316176
 20
3.8767500046970031
 30
0.0
 11
3.1542499999999976
 21
3.8767500046970031
 31
0.0
  0
LINE
  5
19C
100
AcDbEntity
100
AcDbLine
  8
0
 62
7
420
0
370
-1
 48
1.0
  6
BYLAYER
 10
7.2499999999999893
 20
4.2641284859712192
 30
0.0
 11
7.2499999999999538
 21
4.6641284859712382
 31
0.0
  0
LINE
  5
19D
100
AcDbEntity
100
AcDbLine
  8
0
 62
7
420
0
370
-1
 48
1.0
  6
BYLAYER
 10
7.2499999999999893
 20
1.7358715140287773
 30
0.0
 11
7.2499999999999538
 21
1.3358715140287618
 31
0.0
  0
LINE
  5
19E
100
AcDbEntity
100
AcDbLine
  8
0
 62
7
420
16777215
370
-1
 48
1.0
  6
BYLAYER
 10
3.3142936803161795
 20
4.1232499999999987
 30
0.0
 11
3.1542500000000011
 21
4.1232499999999987
 31
0.0
  0
LINE
  5
19F
100
AcDbEntity
100
AcDbLine
  8
0
 62
3
420
65280
370
-1
 48
1.0
  6
BYLAYER
 10
5.958499999999983
 20
3.5951832209712276
 30
0.0
 11
5.958499999999983
 21
3.8416832209712251
 31
0.0
  0
LINE
  5
1A0
100
AcDbEntity
100
AcDbLine
  8
0
 62
3
420
65280
370
-1
 48
1.0
  6
BYLAYER
 10
5.958499999999983
 20
2.4048167790287724
 30
0.0
 11
5.958499999999983
 21
2.1583167790287749
 31
0.0
  0
LINE
  5
1A1
100
AcDbEntity
100
AcDbLine
  8
0
 62
3
420
65280
370
-1
 48
1.0
  6
BYLAYER
 10
5.2584999999999837
 20
3.5951832209712276
 30
0.0
 11
5.2584999999999837
 21
3.8416832209712251
 31
0.0
  0
LINE
  5
1A2
100
AcDbEntity
100
AcDbLine
  8
0
 62
3
420
65280
370
-1
 48
1.0
  6
BYLAYER
 10
5.2584999999999837
 20
2.4048167790287724
 30
0.0
 11
5.2584999999999837
 21
2.1583167790287749
 31
0.0
  0
LINE
  5
1A3
100
AcDbEntity
100
AcDbLine
  8
0
 62
3
420
65280
370
-1
 48
1.0
  6
BYLAYER
 10
6.0499999999999829
 20
3.5951832209712133
 30
0.0
 11
6.0499999999999865
 21
3.8416832209712108
 31
0.0
  0
LINE
  5
1A4
100
AcDbEntity
100
AcDbLine
  8
0
 62
3
420
65280
370
-1
 48
1.0
  6
BYLAYER
 10
6.0499999999999829
 20
2.4048167790287867
 30
0.0
 11
6.0499999999999865
 21
2.1583167790287892
 31
0.0
  0
LINE
  5
1A5
100
AcDbEntity
100
AcDbLine
  8
0
 62
3
420
65280
370
-1
 48
1.0
  6
BYLAYER
 10
5.3499999999999837
 20
3.5951832209712133
 30
0.0
 11
5.3499999999999837
 21
3.84168322097121
 31
0.0
  0
LINE
  5
1A6
100
AcDbEntity
100
AcDbLine
  8
0
 62
3
420
65280
370
-1
 48
1.0
  6
BYLAYER
 10
5.3499999999999837
 20
2.4048167790287867
 30
0.0
 11
5.3499999999999837
 21
2.15831677902879
 31
0.0
  0
LINE
  5
1A7
100
AcDbEntity
100
AcDbLine
  8
0
 62
7
420
0
370
-1
 48
1.0
  6
BYLAYER
 10
6.6584999999999823
 20
3.5951832209712133
 30
0.0
 11
6.7499999999999858
 21
3.5951832209712133
 31
0.0
  0
LINE
  5
1A8
100
AcDbEntity
100
AcDbLine
  8
0
 62
7
420
0
370
-1
 48
1.0
  6
BYLAYER
 10
6.6584999999999823
 20
2.4048167790287867
 30
0.0
 11
6.7499999999999858
 21
2.4048167790287867
 31
0.0
  0
LINE
  5
1A9
100
AcDbEntity
100
AcDbLine
  8
0
 62
3
420
65280
370
-1
 48
1.0
  6
BYLAYER
 10
5.9584999999999866
 20
3.5951832209712133
 30
0.0
 11
6.0499999999999829
 21
3.5951832209712133
 31
0.0
  0
LINE
  5
1AA
100
AcDbEntity
100
AcDbLine
  8
0
 62
3
420
65280
370
-1
 48
1.0
  6
BYLAYER
 10
5.9584999999999866
 20
2.4048167790287867
 30
0.0
 11
6.0499999999999829
 21
2.4048167790287867
 31
0.0
  0
LINE
  5
1AB
100
AcDbEntity
100
AcDbLine
  8
0
 62
3
420
65280
370
-1
 48
1.0
  6
BYLAYER
 10
5.2584999999999837
 20
3.5951832209712133
 30
0.0
 11
5.3499999999999837
 21
3.5951832209712133
 31
0.0
  0
LINE
  5
1AC
100
AcDbEntity
100
AcDbLine
  8
0
 62
3
420
65280
370
-1
 48
1.0
  6
BYLAYER
 10
5.2584999999999837
 20
2.4048167790287867
 30
0.0
 11
5.3499999999999837
 21
2.4048167790287867
 31
0.0
  0
LINE
  5
1AD
100
AcDbEntity
100
AcDbLine
  8
0
 62
7
420
0
370
-1
 48
1.0
  6
BYLAYER
 10
6.6584999999999823
 20
3.8416832209712108
 30
0.0
 11
6.7499999999999822
 21
3.8416832209712108
 31
0.0
  0
LINE
  5
1AE
100
AcDbEntity
100
AcDbLine
  8
0
 62
7
420
0
370
-1
 48
1.0
  6
BYLAYER
 10
6.6584999999999823
 20
2.1583167790287892
 30
0.0
 11
6.7499999999999822
 21
2.1583167790287892
 31
0.0
  0
LINE
  5
1AF
100
AcDbEntity
100
AcDbLine
  8
0
 62
3
420
65280
370
-1
 48
1.0
  6
BYLAYER
 10
5.9584999999999866
 20
3.8416832209712108
 30
0.0
 11
6.0499999999999865
 21
3.8416832209712108
 31
0.0
  0
LINE
  5
1B0
100
AcDbEntity
100
AcDbLine
  8
0
 62
3
420
65280
370
-1
 48
1.0
  6
BYLAYER
 10
5.9584999999999866
 20
2.1583167790287892
 30
0.0
 11
6.0499999999999865
 21
2.1583167790287892
 31
0.0
  0
LINE
  5
1B1
100
AcDbEntity
100
AcDbLine
  8
0
 62
3
420
65280
370
-1
 48
1.0
  6
BYLAYER
 10
5.2584999999999837
 20
3.8416832209712108
 30
0.0
 11
5.3499999999999837
 21
3.84168322097121
 31
0.0
  0
LINE
  5
1B2
100
AcDbEntity
100
AcDbLine
  8
0
 62
3
420
65280
370
-1
 48
1.0
  6
BYLAYER
 10
5.2584999999999837
 20
2.1583167790287883
 30
0.0
 11
5.3499999999999837
 21
2.15831677902879
 31
0.0
  0
LINE
  5
1B3
100
AcDbEntity
100
AcDbLine
  8
0
 62
7
420
0
370
-1
 48
1.0
  6
BYLAYER
 10
6.6584999999999823
 20
2.335445236256243
 30
0.0
 11
6.6584999999999859
 21
2.4048167790287724
 31
0.0
  0
LINE
  5
1B4
100
AcDbEntity
100
AcDbLine
  8
0
 62
7
420
0
370
-1
 48
1.0
  6
BYLAYER
 10
6.6584999999999823
 20
3.664554763743757
 30
0.0
 11
6.6584999999999859
 21
3.5951832209712276
 31
0.0
  0
LINE
  5
1B5
100
AcDbEntity
100
AcDbLine
  8
0
 62
7
420
0
370
-1
 48
1.0
  6
BYLAYER
 10
6.6584999999999823
 20
2.2276882790287917
 30
0.0
 11
6.6584999999999859
 21
2.1583167790287892
 31
0.0
  0
LINE
  5
1B6
100
AcDbEntity
100
AcDbLine
  8
0
 62
7
420
0
370
-1
 48
1.0
  6
BYLAYER
 10
6.6584999999999823
 20
3.7723117209712083
 30
0.0
 11
6.6584999999999859
 21
3.8416832209712108
 31
0.0
  0
LINE
  5
1B7
100
AcDbEntity
100
AcDbLine
  8
0
 62
7
420
0
370
-1
 48
1.0
  6
BYLAYER
 10
6.7499999999999858
 20
2.1583167790287892
 30
0.0
 11
6.7499999999999858
 21
2.227688279028806
 31
0.0
  0
LINE
  5
1B8
100
AcDbEntity
100
AcDbLine
  8
0
 62
7
420
0
370
-1
 48
1.0
  6
BYLAYER
 10
6.7499999999999858
 20
3.8416832209712108
 30
0.0
 11
6.7499999999999858
 21
3.772311720971194
 31
0.0
  0
LINE
  5
1B9
100
AcDbEntity
100
AcDbLine
  8
0
 62
7
420
0
370
-1
 48
1.0
  6
BYLAYER
 10
6.7499999999999858
 20
2.3354452790288125
 30
0.0
 11
6.7499999999999858
 21
2.4048167790287724
 31
0.0
  0
LINE
  5
1BA
100
AcDbEntity
100
AcDbLine
  8
0
 62
7
420
0
370
-1
 48
1.0
  6
BYLAYER
 10
6.7499999999999858
 20
3.6645547209711875
 30
0.0
 11
6.7499999999999858
 21
3.5951832209712276
 31
0.0
  0
LINE
  5
1BB
100
AcDbEntity
100
AcDbLine
  8
0
 62
7
420
0
370
-1
 48
1.0
  6
BYLAYER
 10
2.1846041596045107
 20
2.1724077460917437
 30
0.0
 11
2.1682407037460876
 21
2.131233594186825
 31
0.0
  0
LINE
  5
1BC
100
AcDbEntity
100
AcDbLine
  8
0
 62
7
420
0
370
-1
 48
1.0
  6
BYLAYER
 10
2.2229363336141286
 20
2.11875402229151
 30
0.0
 11
2.1964737943142008
 21
2.0832180196108538
 31
0.0
  0
LINE
  5
1BD
100
AcDbEntity
100
AcDbLine
  8
0
 62
7
420
0
370
-1
 48
1.0
  6
BYLAYER
 10
2.2460757649076544
 20
2.057007408122411
 30
0.0
 11
2.2113175204880959
 21
2.0295312745226823
 31
0.0
  0
LINE
  5
1BE
100
AcDbEntity
100
AcDbLine
  8
0
 62
7
420
0
370
-1
 48
1.0
  6
BYLAYER
 10
2.2524455394821525
 20
1.9913758332989655
 30
0.0
 11
2.2117603068594422
 21
1.973832021878529
 31
0.0
  0
LINE
  5
1BF
100
AcDbEntity
100
AcDbLine
  8
0
 62
7
420
0
370
-1
 48
1.0
  6
BYLAYER
 10
2.2416115677269199
 20
1.9263319811840853
 30
0.0
 11
2.1977719782687699
 21
1.9199160736987251
 31
0.0
  0
LINE
  5
1C0
100
AcDbEntity
100
AcDbLine
  8
0
 62
7
420
0
370
-1
 48
1.0
  6
BYLAYER
 10
2.2143121669130941
 20
1.8663084828093535
 30
0.0
 11
2.1703058161927298
 21
1.8714577127514076
 31
0.0
  0
LINE
  5
1C1
100
AcDbEntity
100
AcDbLine
  8
0
 62
7
420
0
370
-1
 48
1.0
  6
BYLAYER
 10
2.1724077460917406
 20
1.8153958403954862
 30
0.0
 11
2.1312335941868219
 21
1.8317592962539084
 31
0.0
  0
LINE
  5
1C2
100
AcDbEntity
100
AcDbLine
  8
0
 62
7
420
0
370
-1
 48
1.0
  6
BYLAYER
 10
2.118754022291506
 20
1.7770636663858674
 30
0.0
 11
2.0832180196108498
 21
1.8035262056857961
 31
0.0
  0
LINE
  5
1C3
100
AcDbEntity
100
AcDbLine
  8
0
 62
7
420
0
370
-1
 48
1.0
  6
BYLAYER
 10
2.057007408122407
 20
1.7539242350923416
 30
0.0
 11
2.0295312745226783
 21
1.7886824795119001
 31
0.0
  0
LINE
  5
1C4
100
AcDbEntity
100
AcDbLine
  8
0
 62
7
420
0
370
-1
 48
1.0
  6
BYLAYER
 10
1.9913758332989615
 20
1.7475544605178435
 30
0.0
 11
1.973832021878525
 21
1.7882396931405538
 31
0.0
  0
LINE
  5
1C5
100
AcDbEntity
100
AcDbLine
  8
0
 62
7
420
0
370
-1
 48
1.0
  6
BYLAYER
 10
1.9263319811840822
 20
1.7583884322730752
 30
0.0
 11
1.919916073698722
 21
1.8022280217312261
 31
0.0
  0
LINE
  5
1C6
100
AcDbEntity
100
AcDbLine
  8
0
 62
7
420
0
370
-1
 48
1.0
  6
BYLAYER
 10
1.8663084828093495
 20
1.7856878330869028
 30
0.0
 11
1.8714577127514036
 21
1.8296941838072671
 31
0.0
  0
LINE
  5
1C7
100
AcDbEntity
100
AcDbLine
  8
0
 62
7
420
0
370
-1
 48
1.0
  6
BYLAYER
 10
1.8153958403954813
 20
1.8275922539082563
 30
0.0
 11
1.8317592962539044
 21
1.868766405813175
 31
0.0
  0
LINE
  5
1C8
100
AcDbEntity
100
AcDbLine
  8
0
 62
7
420
0
370
-1
 48
1.0
  6
BYLAYER
 10
1.7770636663858634
 20
1.88124597770849
 30
0.0
 11
1.8035262056857913
 21
1.9167819803891462
 31
0.0
  0
LINE
  5
1C9
100
AcDbEntity
100
AcDbLine
  8
0
 62
7
420
0
370
-1
 48
1.0
  6
BYLAYER
 10
1.7539242350923376
 20
1.9429925918775899
 30
0.0
 11
1.7886824795118961
 21
1.9704687254773177
 31
0.0
  0
LINE
  5
1CA
100
AcDbEntity
100
AcDbLine
  8
0
 62
7
420
0
370
-1
 48
1.0
  6
BYLAYER
 10
1.7475544605178395
 20
2.0086241667010354
 30
0.0
 11
1.7882396931405498
 21
2.026167978121471
 31
0.0
  0
LINE
  5
1CB
100
AcDbEntity
100
AcDbLine
  8
0
 62
7
420
0
370
-1
 48
1.0
  6
BYLAYER
 10
1.7583884322730721
 20
2.0736680188159147
 30
0.0
 11
1.8022280217312221
 21
2.0800839263012749
 31
0.0
  0
LINE
  5
1CC
100
AcDbEntity
100
AcDbLine
  8
0
 62
7
420
0
370
-1
 48
1.0
  6
BYLAYER
 10
1.7856878330868979
 20
2.1336915171906465
 30
0.0
 11
1.8296941838072622
 21
2.1285422872485924
 31
0.0
  0
LINE
  5
1CD
100
AcDbEntity
100
AcDbLine
  8
0
 62
7
420
0
370
-1
 48
1.0
  6
BYLAYER
 10
1.8275922539082514
 20
2.1846041596045147
 30
0.0
 11
1.8687664058131701
 21
2.1682407037460925
 31
0.0
  0
LINE
  5
1CE
100
AcDbEntity
100
AcDbLine
  8
0
 62
7
420
0
370
-1
 48
1.0
  6
BYLAYER
 10
1.881245977708486
 20
2.2229363336141326
 30
0.0
 11
1.9167819803891422
 21
2.1964737943142048
 31
0.0
  0
LINE
  5
1CF
100
AcDbEntity
100
AcDbLine
  8
0
 62
7
420
0
370
-1
 48
1.0
  6
BYLAYER
 10
1.942992591877585
 20
2.2460757649076584
 30
0.0
 11
1.9704687254773137
 21
2.2113175204880999
 31
0.0
  0
LINE
  5
1D0
100
AcDbEntity
100
AcDbLine
  8
0
 62
7
420
0
370
-1
 48
1.0
  6
BYLAYER
 10
2.0086241667010305
 20
2.2524455394821565
 30
0.0
 11
2.026167978121467
 21
2.2117603068594462
 31
0.0
  0
LINE
  5
1D1
100
AcDbEntity
100
AcDbLine
  8
0
 62
7
420
0
370
-1
 48
1.0
  6
BYLAYER
 10
2.0736680188159116
 20
2.2416115677269248
 30
0.0
 11
2.08008392630127
 21
2.1977719782687748
 31
0.0
  0
LINE
  5
1D2
100
AcDbEntity
100
AcDbLine
  8
0
 62
7
420
0
370
-1
 48
1.0
  6
BYLAYER
 10
2.1336915171906425
 20
2.2143121669130972
 30
0.0
 11
2.1285422872485884
 21
2.1703058161927329
 31
0.0
  0
LINE
  5
1D3
100
AcDbEntity
100
AcDbLine
  8
0
 62
7
420
0
370
-1
 48
1.0
  6
BYLAYER
 10
1.7475544605178395
 20
4.0086241667010354
 30
0.0
 11
1.7882396931405498
 21
4.0261679781214719
 31
0.0
  0
LINE
  5
1D4
100
AcDbEntity
100
AcDbLine
  8
0
 62
7
420
0
370
-1
 48
1.0
  6
BYLAYER
 10
1.7583884322730721
 20
4.0736680188159156
 30
0.0
 11
1.8022280217312221
 21
4.0800839263012758
 31
0.0
  0
LINE
  5
1D5
100
AcDbEntity
100
AcDbLine
  8
0
 62
7
420
0
370
-1
 48
1.0
  6
BYLAYER
 10
1.7856878330868979
 20
4.1336915171906474
 30
0.0
 11
1.8296941838072622
 21
4.1285422872485933
 31
0.0
  0
LINE
  5
1D6
100
AcDbEntity
100
AcDbLine
  8
0
 62
7
420
0
370
-1
 48
1.0
  6
BYLAYER
 10
1.8275922539082514
 20
4.1846041596045156
 30
0.0
 11
1.8687664058131701
 21
4.1682407037460925
 31
0.0
  0
LINE
  5
1D7
100
AcDbEntity
100
AcDbLine
  8
0
 62
7
420
0
370
-1
 48
1.0
  6
BYLAYER
 10
1.881245977708486
 20
4.2229363336141335
 30
0.0
 11
1.9167819803891422
 21
4.1964737943142048
 31
0.0
  0
LINE
  5
1D8
100
AcDbEntity
100
AcDbLine
  8
0
 62
7
420
0
370
-1
 48
1.0
  6
BYLAYER
 10
1.942992591877585
 20
4.2460757649076593
 30
0.0
 11
1.9704687254773137
 21
4.2113175204881008
 31
0.0
  0
LINE
  5
1D9
100
AcDbEntity
100
AcDbLine
  8
0
 62
7
420
0
370
-1
 48
1.0
  6
BYLAYER
 10
2.0086241667010309
 20
4.2524455394821574
 30
0.0
 11
2.0261679781214674
 21
4.2117603068594471
 31
0.0
  0
LINE
  5
1DA
100
AcDbEntity
100
AcDbLine
  8
0
 62
7
420
0
370
-1
 48
1.0
  6
BYLAYER
 10
2.073668018815912
 20
4.2416115677269257
 30
0.0
 11
2.0800839263012705
 21
4.1977719782687748
 31
0.0
  0
LINE
  5
1DB
100
AcDbEntity
100
AcDbLine
  8
0
 62
7
420
0
370
-1
 48
1.0
  6
BYLAYER
 10
2.133691517190643
 20
4.2143121669130981
 30
0.0
 11
2.1285422872485888
 21
4.1703058161927338
 31
0.0
  0
LINE
  5
1DC
100
AcDbEntity
100
AcDbLine
  8
0
 62
7
420
0
370
-1
 48
1.0
  6
BYLAYER
 10
2.1846041596045112
 20
4.1724077460917446
 30
0.0
 11
2.168240703746088
 21
4.1312335941868259
 31
0.0
  0
LINE
  5
1DD
100
AcDbEntity
100
AcDbLine
  8
0
 62
7
420
0
370
-1
 48
1.0
  6
BYLAYER
 10
2.222936333614129
 20
4.1187540222915109
 30
0.0
 11
2.1964737943142012
 21
4.0832180196108547
 31
0.0
  0
LINE
  5
1DE
100
AcDbEntity
100
AcDbLine
  8
0
 62
7
420
0
370
-1
 48
1.0
  6
BYLAYER
 10
2.2460757649076548
 20
4.057007408122411
 30
0.0
 11
2.2113175204880964
 21
4.0295312745226832
 31
0.0
  0
LINE
  5
1DF
100
AcDbEntity
100
AcDbLine
  8
0
 62
7
420
0
370
-1
 48
1.0
  6
BYLAYER
 10
2.252445539482153
 20
3.9913758332989655
 30
0.0
 11
2.2117603068594427
 21
3.9738320218785299
 31
0.0
  0
LINE
  5
1E0
100
AcDbEntity
100
AcDbLine
  8
0
 62
7
420
0
370
-1
 48
1.0
  6
BYLAYER
 10
2.2416115677269204
 20
3.9263319811840862
 30
0.0
 11
2.1977719782687704
 21
3.919916073698726
 31
0.0
  0
LINE
  5
1E1
100
AcDbEntity
100
AcDbLine
  8
0
 62
7
420
0
370
-1
 48
1.0
  6
BYLAYER
 10
2.2143121669130945
 20
3.8663084828093544
 30
0.0
 11
2.1703058161927302
 21
3.8714577127514085
 31
0.0
  0
LINE
  5
1E2
100
AcDbEntity
100
AcDbLine
  8
0
 62
7
420
0
370
-1
 48
1.0
  6
BYLAYER
 10
2.172407746091741
 20
3.8153958403954862
 30
0.0
 11
2.1312335941868223
 21
3.8317592962539084
 31
0.0
  0
LINE
  5
1E3
100
AcDbEntity
100
AcDbLine
  8
0
 62
7
420
0
370
-1
 48
1.0
  6
BYLAYER
 10
2.1187540222915064
 20
3.7770636663858683
 30
0.0
 11
2.0832180196108503
 21
3.8035262056857961
 31
0.0
  0
LINE
  5
1E4
100
AcDbEntity
100
AcDbLine
  8
0
 62
7
420
0
370
-1
 48
1.0
  6
BYLAYER
 10
2.0570074081224075
 20
3.7539242350923425
 30
0.0
 11
2.0295312745226788
 21
3.788682479511901
 31
0.0
  0
LINE
  5
1E5
100
AcDbEntity
100
AcDbLine
  8
0
 62
7
420
0
370
-1
 48
1.0
  6
BYLAYER
 10
1.9913758332989615
 20
3.7475544605178444
 30
0.0
 11
1.973832021878525
 21
3.7882396931405546
 31
0.0
  0
LINE
  5
1E6
100
AcDbEntity
100
AcDbLine
  8
0
 62
7
420
0
370
-1
 48
1.0
  6
BYLAYER
 10
1.9263319811840822
 20
3.7583884322730761
 30
0.0
 11
1.919916073698722
 21
3.8022280217312261
 31
0.0
  0
LINE
  5
1E7
100
AcDbEntity
100
AcDbLine
  8
0
 62
7
420
0
370
-1
 48
1.0
  6
BYLAYER
 10
1.8663084828093495
 20
3.7856878330869028
 30
0.0
 11
1.8714577127514036
 21
3.829694183807268
 31
0.0
  0
LINE
  5
1E8
100
AcDbEntity
100
AcDbLine
  8
0
 62
7
420
0
370
-1
 48
1.0
  6
BYLAYER
 10
1.8153958403954813
 20
3.8275922539082563
 30
0.0
 11
1.8317592962539044
 21
3.868766405813175
 31
0.0
  0
LINE
  5
1E9
100
AcDbEntity
100
AcDbLine
  8
0
 62
7
420
0
370
-1
 48
1.0
  6
BYLAYER
 10
1.7770636663858634
 20
3.8812459777084909
 30
0.0
 11
1.8035262056857913
 21
3.916781980389147
 31
0.0
  0
LINE
  5
1EA
100
AcDbEntity
100
AcDbLine
  8
0
 62
7
420
0
370
-1
 48
1.0
  6
BYLAYER
 10
1.7539242350923376
 20
3.9429925918775899
 30
0.0
 11
1.7886824795118961
 21
3.9704687254773177
 31
0.0
  0
CIRCLE
  5
1EB
100
AcDbEntity
100
AcDbCircle
  8
0
 62
3
420
65280
370
-1
 48
1.0
  6
BYLAYER
 10
5.100000000000005
 20
5.1458784859712008
 30
0.0
 40
0.1875
  0
CIRCLE
  5
1EC
100
AcDbEntity
100
AcDbCircle
  8
0
 62
3
420
65280
370
-1
 48
1.0
  6
BYLAYER
 10
5.100000000000005
 20
0.8541215140287992
 30
0.0
 40
0.1875
  0
CIRCLE
  5
1ED
100
AcDbEntity
100
AcDbCircle
  8
0
 62
3
420
65280
370
-1
 48
1.0
  6
BYLAYER
 10
5.8000000000000043
 20
0.8541215140287992
 30
0.0
 40
0.1875
  0
CIRCLE
  5
1EE
100
AcDbEntity
100
AcDbCircle
  8
0
 62
3
420
65280
370
-1
 48
1.0
  6
BYLAYER
 10
5.8000000000000043
 20
5.1458784859712008
 30
0.0
 40
0.1875
  0
CIRCLE
  5
1EF
100
AcDbEntity
100
AcDbCircle
  8
0
 62
3
420
65280
370
-1
 48
1.0
  6
BYLAYER
 10
6.4999999999999858
 20
0.8541215140287992
 30
0.0
 40
0.1875
  0
CIRCLE
  5
1F0
100
AcDbEntity
100
AcDbCircle
  8
0
 62
3
420
65280
370
-1
 48
1.0
  6
BYLAYER
 10
6.4999999999999858
 20
5.1458784859712008
 30
0.0
 40
0.1875
  0
LINE
  5
1F1
100
AcDbEntity
100
AcDbLine
  8
0
 62
256
370
-1
 48
1.0
  6
BYLAYER
 10
1.7475544605178395
 20
1.9913758332989646
 30
0.0
 11
1.7475544605178395
 21
2.0086241667010363
 31
0.0
  0
LINE
  5
1F2
100
AcDbEntity
100
AcDbLine
  8
0
 62
256
370
-1
 48
1.0
  6
BYLAYER
 10
1.7539242350923376
 20
2.0570074081224101
 30
0.0
 11
1.7583884322730721
 21
2.0736680188159156
 31
0.0
  0
LINE
  5
1F3
100
AcDbEntity
100
AcDbLine
  8
0
 62
256
370
-1
 48
1.0
  6
BYLAYER
 10
1.7770636663858634
 20
2.11875402229151
 30
0.0
 11
1.7856878330868997
 21
2.1336915171906474
 31
0.0
  0
LINE
  5
1F4
100
AcDbEntity
100
AcDbLine
  8
0
 62
256
370
-1
 48
1.0
  6
BYLAYER
 10
1.8153958403954813
 20
2.1724077460917437
 30
0.0
 11
1.8275922539082532
 21
2.1846041596045147
 31
0.0
  0
LINE
  5
1F5
100
AcDbEntity
100
AcDbLine
  8
0
 62
256
370
-1
 48
1.0
  6
BYLAYER
 10
1.8663084828093495
 20
2.2143121669130972
 30
0.0
 11
1.881245977708486
 21
2.2229363336141335
 31
0.0
  0
LINE
  5
1F6
100
AcDbEntity
100
AcDbLine
  8
0
 62
256
370
-1
 48
1.0
  6
BYLAYER
 10
1.9263319811840804
 20
2.2416115677269248
 30
0.0
 11
1.9429925918775868
 21
2.2460757649076593
 31
0.0
  0
LINE
  5
1F7
100
AcDbEntity
100
AcDbLine
  8
0
 62
256
370
-1
 48
1.0
  6
BYLAYER
 10
1.9913758332989597
 20
2.2524455394821565
 30
0.0
 11
2.0086241667010323
 21
2.2524455394821565
 31
0.0
  0
LINE
  5
1F8
100
AcDbEntity
100
AcDbLine
  8
0
 62
256
370
-1
 48
1.0
  6
BYLAYER
 10
2.0570074081224052
 20
2.2460757649076593
 30
0.0
 11
2.0736680188159116
 21
2.2416115677269248
 31
0.0
  0
LINE
  5
1F9
100
AcDbEntity
100
AcDbLine
  8
0
 62
256
370
-1
 48
1.0
  6
BYLAYER
 10
2.118754022291506
 20
2.2229363336141335
 30
0.0
 11
2.1336915171906425
 21
2.2143121669130972
 31
0.0
  0
LINE
  5
1FA
100
AcDbEntity
100
AcDbLine
  8
0
 62
256
370
-1
 48
1.0
  6
BYLAYER
 10
2.1724077460917406
 20
2.1846041596045147
 30
0.0
 11
2.1846041596045107
 21
2.1724077460917437
 31
0.0
  0
LINE
  5
1FB
100
AcDbEntity
100
AcDbLine
  8
0
 62
256
370
-1
 48
1.0
  6
BYLAYER
 10
2.2143121669130941
 20
2.1336915171906474
 30
0.0
 11
2.2229363336141286
 21
2.1187540222915091
 31
0.0
  0
LINE
  5
1FC
100
AcDbEntity
100
AcDbLine
  8
0
 62
256
370
-1
 48
1.0
  6
BYLAYER
 10
2.2416115677269199
 20
2.0736680188159156
 30
0.0
 11
2.2460757649076544
 21
2.0570074081224101
 31
0.0
  0
LINE
  5
1FD
100
AcDbEntity
100
AcDbLine
  8
0
 62
256
370
-1
 48
1.0
  6
BYLAYER
 10
2.2524455394821525
 20
2.0086241667010363
 30
0.0
 11
2.2524455394821525
 21
1.9913758332989646
 31
0.0
  0
LINE
  5
1FE
100
AcDbEntity
100
AcDbLine
  8
0
 62
256
370
-1
 48
1.0
  6
BYLAYER
 10
2.2460757649076544
 20
1.9429925918775908
 30
0.0
 11
2.2416115677269199
 21
1.9263319811840853
 31
0.0
  0
LINE
  5
1FF
100
AcDbEntity
100
AcDbLine
  8
0
 62
256
370
-1
 48
1.0
  6
BYLAYER
 10
2.2229363336141286
 20
1.8812459777084909
 30
0.0
 11
2.2143121669130923
 21
1.8663084828093526
 31
0.0
  0
LINE
  5
200
100
AcDbEntity
100
AcDbLine
  8
0
 62
256
370
-1
 48
1.0
  6
BYLAYER
 10
2.1846041596045107
 20
1.8275922539082563
 30
0.0
 11
2.1724077460917388
 21
1.8153958403954853
 31
0.0
  0
LINE
  5
201
100
AcDbEntity
100
AcDbLine
  8
0
 62
256
370
-1
 48
1.0
  6
BYLAYER
 10
2.1336915171906425
 20
1.7856878330869028
 30
0.0
 11
2.118754022291506
 21
1.7770636663858674
 31
0.0
  0
LINE
  5
202
100
AcDbEntity
100
AcDbLine
  8
0
 62
256
370
-1
 48
1.0
  6
BYLAYER
 10
2.0736680188159116
 20
1.7583884322730752
 30
0.0
 11
2.0570074081224052
 21
1.7539242350923416
 31
0.0
  0
LINE
  5
203
100
AcDbEntity
100
AcDbLine
  8
0
 62
256
370
-1
 48
1.0
  6
BYLAYER
 10
2.0086241667010323
 20
1.7475544605178435
 30
0.0
 11
1.9913758332989597
 21
1.7475544605178435
 31
0.0
  0
LINE
  5
204
100
AcDbEntity
100
AcDbLine
  8
0
 62
256
370
-1
 48
1.0
  6
BYLAYER
 10
1.9429925918775868
 20
1.7539242350923416
 30
0.0
 11
1.9263319811840804
 21
1.7583884322730752
 31
0.0
  0
LINE
  5
205
100
AcDbEntity
100
AcDbLine
  8
0
 62
256
370
-1
 48
1.0
  6
BYLAYER
 10
1.881245977708486
 20
1.7770636663858674
 30
0.0
 11
1.8663084828093495
 21
1.7856878330869028
 31
0.0
  0
LINE
  5
206
100
AcDbEntity
100
AcDbLine
  8
0
 62
256
370
-1
 48
1.0
  6
BYLAYER
 10
1.8275922539082532
 20
1.8153958403954853
 30
0.0
 11
1.8153958403954813
 21
1.8275922539082563
 31
0.0
  0
LINE
  5
207
100
AcDbEntity
100
AcDbLine
  8
0
 62
256
370
-1
 48
1.0
  6
BYLAYER
 10
1.7856878330868997
 20
1.8663084828093535
 30
0.0
 11
1.7770636663858634
 21
1.8812459777084909
 31
0.0
  0
LINE
  5
208
100
AcDbEntity
100
AcDbLine
  8
0
 62
256
370
-1
 48
1.0
  6
BYLAYER
 10
1.7583884322730721
 20
1.9263319811840853
 30
0.0
 11
1.7539242350923376
 21
1.9429925918775908
 31
0.0
  0
LINE
  5
209
100
AcDbEntity
100
AcDbLine
  8
0
 62
256
370
-1
 48
1.0
  6
BYLAYER
 10
1.7475544605178395
 20
3.9913758332989646
 30
0.0
 11
1.7475544605178395
 21
4.0086241667010363
 31
0.0
  0
LINE
  5
20A
100
AcDbEntity
100
AcDbLine
  8
0
 62
256
370
-1
 48
1.0
  6
BYLAYER
 10
1.7539242350923376
 20
4.0570074081224101
 30
0.0
 11
1.7583884322730721
 21
4.0736680188159156
 31
0.0
  0
LINE
  5
20B
100
AcDbEntity
100
AcDbLine
  8
0
 62
256
370
-1
 48
1.0
  6
BYLAYER
 10
1.7770636663858634
 20
4.11875402229151
 30
0.0
 11
1.7856878330868997
 21
4.1336915171906483
 31
0.0
  0
LINE
  5
20C
100
AcDbEntity
100
AcDbLine
  8
0
 62
256
370
-1
 48
1.0
  6
BYLAYER
 10
1.8153958403954813
 20
4.1724077460917437
 30
0.0
 11
1.8275922539082532
 21
4.1846041596045156
 31
0.0
  0
LINE
  5
20D
100
AcDbEntity
100
AcDbLine
  8
0
 62
256
370
-1
 48
1.0
  6
BYLAYER
 10
1.8663084828093495
 20
4.2143121669130981
 30
0.0
 11
1.881245977708486
 21
4.2229363336141335
 31
0.0
  0
LINE
  5
20E
100
AcDbEntity
100
AcDbLine
  8
0
 62
256
370
-1
 48
1.0
  6
BYLAYER
 10
1.9263319811840804
 20
4.2416115677269257
 30
0.0
 11
1.9429925918775868
 21
4.2460757649076593
 31
0.0
  0
LINE
  5
20F
100
AcDbEntity
100
AcDbLine
  8
0
 62
256
370
-1
 48
1.0
  6
BYLAYER
 10
1.9913758332989597
 20
4.2524455394821574
 30
0.0
 11
2.0086241667010327
 21
4.2524455394821574
 31
0.0
  0
LINE
  5
210
100
AcDbEntity
100
AcDbLine
  8
0
 62
256
370
-1
 48
1.0
  6
BYLAYER
 10
2.0570074081224057
 20
4.2460757649076593
 30
0.0
 11
2.073668018815912
 21
4.2416115677269248
 31
0.0
  0
LINE
  5
211
100
AcDbEntity
100
AcDbLine
  8
0
 62
256
370
-1
 48
1.0
  6
BYLAYER
 10
2.1187540222915064
 20
4.2229363336141335
 30
0.0
 11
2.133691517190643
 21
4.2143121669130981
 31
0.0
  0
LINE
  5
212
100
AcDbEntity
100
AcDbLine
  8
0
 62
256
370
-1
 48
1.0
  6
BYLAYER
 10
2.172407746091741
 20
4.1846041596045156
 30
0.0
 11
2.1846041596045112
 21
4.1724077460917437
 31
0.0
  0
LINE
  5
213
100
AcDbEntity
100
AcDbLine
  8
0
 62
256
370
-1
 48
1.0
  6
BYLAYER
 10
2.2143121669130945
 20
4.1336915171906474
 30
0.0
 11
2.222936333614129
 21
4.11875402229151
 31
0.0
  0
LINE
  5
214
100
AcDbEntity
100
AcDbLine
  8
0
 62
256
370
-1
 48
1.0
  6
BYLAYER
 10
2.2416115677269204
 20
4.0736680188159156
 30
0.0
 11
2.2460757649076548
 21
4.0570074081224101
 31
0.0
  0
LINE
  5
215
100
AcDbEntity
100
AcDbLine
  8
0
 62
256
370
-1
 48
1.0
  6
BYLAYER
 10
2.252445539482153
 20
4.0086241667010363
 30
0.0
 11
2.252445539482153
 21
3.9913758332989646
 31
0.0
  0
LINE
  5
216
100
AcDbEntity
100
AcDbLine
  8
0
 62
256
370
-1
 48
1.0
  6
BYLAYER
 10
2.2460757649076548
 20
3.9429925918775908
 30
0.0
 11
2.2416115677269204
 21
3.9263319811840853
 31
0.0
  0
LINE
  5
217
100
AcDbEntity
100
AcDbLine
  8
0
 62
256
370
-1
 48
1.0
  6
BYLAYER
 10
2.222936333614129
 20
3.8812459777084909
 30
0.0
 11
2.2143121669130927
 21
3.8663084828093535
 31
0.0
  0
LINE
  5
218
100
AcDbEntity
100
AcDbLine
  8
0
 62
256
370
-1
 48
1.0
  6
BYLAYER
 10
2.1846041596045112
 20
3.8275922539082572
 30
0.0
 11
2.1724077460917393
 21
3.8153958403954853
 31
0.0
  0
LINE
  5
219
100
AcDbEntity
100
AcDbLine
  8
0
 62
256
370
-1
 48
1.0
  6
BYLAYER
 10
2.133691517190643
 20
3.7856878330869037
 30
0.0
 11
2.1187540222915064
 21
3.7770636663858674
 31
0.0
  0
LINE
  5
21A
100
AcDbEntity
100
AcDbLine
  8
0
 62
256
370
-1
 48
1.0
  6
BYLAYER
 10
2.073668018815912
 20
3.7583884322730761
 30
0.0
 11
2.0570074081224057
 21
3.7539242350923416
 31
0.0
  0
LINE
  5
21B
100
AcDbEntity
100
AcDbLine
  8
0
 62
256
370
-1
 48
1.0
  6
BYLAYER
 10
2.0086241667010327
 20
3.7475544605178444
 30
0.0
 11
1.9913758332989597
 21
3.7475544605178444
 31
0.0
  0
LINE
  5
21C
100
AcDbEntity
100
AcDbLine
  8
0
 62
256
370
-1
 48
1.0
  6
BYLAYER
 10
1.9429925918775868
 20
3.7539242350923416
 30
0.0
 11
1.9263319811840804
 21
3.7583884322730761
 31
0.0
  0
LINE
  5
21D
100
AcDbEntity
100
AcDbLine
  8
0
 62
256
370
-1
 48
1.0
  6
BYLAYER
 10
1.881245977708486
 20
3.7770636663858674
 30
0.0
 11
1.8663084828093495
 21
3.7856878330869037
 31
0.0
  0
LINE
  5
21E
100
AcDbEntity
100
AcDbLine
  8
0
 62
256
370
-1
 48
1.0
  6
BYLAYER
 10
1.8275922539082532
 20
3.8153958403954862
 30
0.0
 11
1.8153958403954813
 21
3.8275922539082572
 31
0.0
  0
LINE
  5
21F
100
AcDbEntity
100
AcDbLine
  8
0
 62
256
370
-1
 48
1.0
  6
BYLAYER
 10
1.7856878330868997
 20
3.8663084828093535
 30
0.0
 11
1.7770636663858634
 21
3.8812459777084918
 31
0.0
  0
LINE
  5
220
100
AcDbEntity
100
AcDbLine
  8
0
 62
256
370
-1
 48
1.0
  6
BYLAYER
 10
1.7583884322730721
 20
3.9263319811840853
 30
0.0
 11
1.7539242350923376
 21
3.9429925918775908
 31
0.0
  0
ARC
  5
221
100
AcDbEntity
  8
0
 62
3
420
65280
370
-1
 48
1.0
  6
BYLAYER
100
AcDbCircle
 10
2.0
 20
2.0
 30
0.0
 40
0.0960000000000001
100
AcDbArc
 50
126.8698976458433236
 51
53.1301023541566764
  0
ARC
  5
222
100
AcDbEntity
  8
0
 62
3
420
65280
370
-1
 48
1.0
  6
BYLAYER
100
AcDbCircle
 10
2.0
 20
4.0
 30
0.0
 40
0.0960000000000001
100
AcDbArc
 50
126.8698976458433236
 51
53.1301023541566764
  0
LINE
  5
223
100
AcDbEntity
100
AcDbLine
  8
0
 62
256
370
-1
 48
1.0
  6
BYLAYER
 10
1.8022280217312221
 20
2.0800839263012758
 30
0.0
 11
1.803526205685793
 21
2.0832180196108538
 31
0.0
  0
LINE
  5
224
100
AcDbEntity
100
AcDbLine
  8
0
 62
256
370
-1
 48
1.0
  6
BYLAYER
 10
1.829694183807264
 20
2.1285422872485942
 30
0.0
 11
1.8317592962539044
 21
2.1312335941868268
 31
0.0
  0
LINE
  5
225
100
AcDbEntity
100
AcDbLine
  8
0
 62
256
370
-1
 48
1.0
  6
BYLAYER
 10
1.8687664058131719
 20
2.1682407037460942
 30
0.0
 11
1.8714577127514054
 21
2.1703058161927347
 31
0.0
  0
LINE
  5
226
100
AcDbEntity
100
AcDbLine
  8
0
 62
256
370
-1
 48
1.0
  6
BYLAYER
 10
1.9167819803891439
 20
2.1964737943142074
 30
0.0
 11
1.919916073698722
 21
2.1977719782687766
 31
0.0
  0
LINE
  5
227
100
AcDbEntity
100
AcDbLine
  8
0
 62
256
370
-1
 48
1.0
  6
BYLAYER
 10
1.9704687254773172
 20
2.2113175204881035
 30
0.0
 11
1.9738320218785268
 21
2.2117603068594489
 31
0.0
  0
LINE
  5
228
100
AcDbEntity
100
AcDbLine
  8
0
 62
256
370
-1
 48
1.0
  6
BYLAYER
 10
2.0261679781214705
 20
2.2117603068594498
 30
0.0
 11
2.0295312745226819
 21
2.2113175204881035
 31
0.0
  0
LINE
  5
229
100
AcDbEntity
100
AcDbLine
  8
0
 62
256
370
-1
 48
1.0
  6
BYLAYER
 10
2.0800839263012754
 20
2.1977719782687775
 30
0.0
 11
2.0832180196108534
 21
2.1964737943142074
 31
0.0
  0
LINE
  5
22A
100
AcDbEntity
100
AcDbLine
  8
0
 62
256
370
-1
 48
1.0
  6
BYLAYER
 10
2.1285422872485937
 20
2.1703058161927355
 30
0.0
 11
2.1312335941868255
 21
2.1682407037460951
 31
0.0
  0
LINE
  5
22B
100
AcDbEntity
100
AcDbLine
  8
0
 62
256
370
-1
 48
1.0
  6
BYLAYER
 10
2.1682407037460947
 20
2.1312335941868268
 30
0.0
 11
2.1703058161927351
 21
2.1285422872485951
 31
0.0
  0
LINE
  5
22C
100
AcDbEntity
100
AcDbLine
  8
0
 62
256
370
-1
 48
1.0
  6
BYLAYER
 10
2.1964737943142061
 20
2.0832180196108547
 30
0.0
 11
2.197771978268777
 21
2.0800839263012767
 31
0.0
  0
LINE
  5
22D
100
AcDbEntity
100
AcDbLine
  8
0
 62
256
370
-1
 48
1.0
  6
BYLAYER
 10
2.211317520488103
 20
2.0295312745226823
 30
0.0
 11
2.2117603068594494
 21
2.0261679781214719
 31
0.0
  0
LINE
  5
22E
100
AcDbEntity
100
AcDbLine
  8
0
 62
256
370
-1
 48
1.0
  6
BYLAYER
 10
2.2117603068594494
 20
1.9738320218785281
 30
0.0
 11
2.211317520488103
 21
1.9704687254773177
 31
0.0
  0
LINE
  5
22F
100
AcDbEntity
100
AcDbLine
  8
0
 62
256
370
-1
 48
1.0
  6
BYLAYER
 10
2.197771978268777
 20
1.9199160736987233
 30
0.0
 11
2.1964737943142079
 21
1.9167819803891453
 31
0.0
  0
LINE
  5
230
100
AcDbEntity
100
AcDbLine
  8
0
 62
256
370
-1
 48
1.0
  6
BYLAYER
 10
2.1703058161927351
 20
1.8714577127514049
 30
0.0
 11
2.1682407037460947
 21
1.8687664058131732
 31
0.0
  0
LINE
  5
231
100
AcDbEntity
100
AcDbLine
  8
0
 62
256
370
-1
 48
1.0
  6
BYLAYER
 10
2.1312335941868272
 20
1.8317592962539049
 30
0.0
 11
2.1285422872485955
 21
1.8296941838072645
 31
0.0
  0
LINE
  5
232
100
AcDbEntity
100
AcDbLine
  8
0
 62
256
370
-1
 48
1.0
  6
BYLAYER
 10
2.0832180196108552
 20
1.8035262056857926
 30
0.0
 11
2.0800839263012771
 21
1.8022280217312225
 31
0.0
  0
LINE
  5
233
100
AcDbEntity
100
AcDbLine
  8
0
 62
256
370
-1
 48
1.0
  6
BYLAYER
 10
2.0295312745226819
 20
1.7886824795118965
 30
0.0
 11
2.0261679781214723
 21
1.7882396931405502
 31
0.0
  0
LINE
  5
234
100
AcDbEntity
100
AcDbLine
  8
0
 62
256
370
-1
 48
1.0
  6
BYLAYER
 10
1.9738320218785286
 20
1.7882396931405502
 30
0.0
 11
1.9704687254773172
 21
1.7886824795118965
 31
0.0
  0
LINE
  5
235
100
AcDbEntity
100
AcDbLine
  8
0
 62
256
370
-1
 48
1.0
  6
BYLAYER
 10
1.9199160736987237
 20
1.8022280217312217
 30
0.0
 11
1.9167819803891457
 21
1.8035262056857926
 31
0.0
  0
LINE
  5
236
100
AcDbEntity
100
AcDbLine
  8
0
 62
256
370
-1
 48
1.0
  6
BYLAYER
 10
1.8714577127514054
 20
1.8296941838072636
 30
0.0
 11
1.8687664058131737
 21
1.8317592962539049
 31
0.0
  0
LINE
  5
237
100
AcDbEntity
100
AcDbLine
  8
0
 62
256
370
-1
 48
1.0
  6
BYLAYER
 10
1.8317592962539044
 20
1.8687664058131723
 30
0.0
 11
1.829694183807264
 21
1.8714577127514049
 31
0.0
  0
LINE
  5
238
100
AcDbEntity
100
AcDbLine
  8
0
 62
256
370
-1
 48
1.0
  6
BYLAYER
 10
1.803526205685793
 20
1.9167819803891444
 30
0.0
 11
1.8022280217312221
 21
1.9199160736987224
 31
0.0
  0
LINE
  5
239
100
AcDbEntity
100
AcDbLine
  8
0
 62
256
370
-1
 48
1.0
  6
BYLAYER
 10
1.7886824795118961
 20
1.9704687254773168
 30
0.0
 11
1.7882396931405498
 21
1.9738320218785272
 31
0.0
  0
LINE
  5
23A
100
AcDbEntity
100
AcDbLine
  8
0
 62
256
370
-1
 48
1.0
  6
BYLAYER
 10
1.7882396931405498
 20
2.026167978121471
 30
0.0
 11
1.7886824795118961
 21
2.0295312745226814
 31
0.0
  0
LINE
  5
23B
100
AcDbEntity
100
AcDbLine
  8
0
 62
256
370
-1
 48
1.0
  6
BYLAYER
 10
1.8022280217312221
 20
4.0800839263012767
 30
0.0
 11
1.803526205685793
 21
4.0832180196108547
 31
0.0
  0
LINE
  5
23C
100
AcDbEntity
100
AcDbLine
  8
0
 62
256
370
-1
 48
1.0
  6
BYLAYER
 10
1.829694183807264
 20
4.1285422872485951
 30
0.0
 11
1.8317592962539044
 21
4.1312335941868268
 31
0.0
  0
LINE
  5
23D
100
AcDbEntity
100
AcDbLine
  8
0
 62
256
370
-1
 48
1.0
  6
BYLAYER
 10
1.8687664058131719
 20
4.1682407037460951
 30
0.0
 11
1.8714577127514054
 21
4.1703058161927355
 31
0.0
  0
LINE
  5
23E
100
AcDbEntity
100
AcDbLine
  8
0
 62
256
370
-1
 48
1.0
  6
BYLAYER
 10
1.9167819803891439
 20
4.1964737943142074
 30
0.0
 11
1.919916073698722
 21
4.1977719782687775
 31
0.0
  0
LINE
  5
23F
100
AcDbEntity
100
AcDbLine
  8
0
 62
256
370
-1
 48
1.0
  6
BYLAYER
 10
1.9704687254773172
 20
4.2113175204881035
 30
0.0
 11
1.9738320218785268
 21
4.2117603068594498
 31
0.0
  0
LINE
  5
240
100
AcDbEntity
100
AcDbLine
  8
0
 62
256
370
-1
 48
1.0
  6
BYLAYER
 10
2.026167978121471
 20
4.2117603068594498
 30
0.0
 11
2.0295312745226823
 21
4.2113175204881035
 31
0.0
  0
LINE
  5
241
100
AcDbEntity
100
AcDbLine
  8
0
 62
256
370
-1
 48
1.0
  6
BYLAYER
 10
2.0800839263012758
 20
4.1977719782687783
 30
0.0
 11
2.0832180196108538
 21
4.1964737943142074
 31
0.0
  0
LINE
  5
242
100
AcDbEntity
100
AcDbLine
  8
0
 62
256
370
-1
 48
1.0
  6
BYLAYER
 10
2.1285422872485942
 20
4.1703058161927364
 30
0.0
 11
2.1312335941868259
 21
4.1682407037460951
 31
0.0
  0
LINE
  5
243
100
AcDbEntity
100
AcDbLine
  8
0
 62
256
370
-1
 48
1.0
  6
BYLAYER
 10
2.1682407037460951
 20
4.1312335941868277
 30
0.0
 11
2.1703058161927355
 21
4.1285422872485951
 31
0.0
  0
LINE
  5
244
100
AcDbEntity
100
AcDbLine
  8
0
 62
256
370
-1
 48
1.0
  6
BYLAYER
 10
2.1964737943142065
 20
4.0832180196108556
 30
0.0
 11
2.1977719782687775
 21
4.0800839263012767
 31
0.0
  0
LINE
  5
245
100
AcDbEntity
100
AcDbLine
  8
0
 62
256
370
-1
 48
1.0
  6
BYLAYER
 10
2.2113175204881035
 20
4.0295312745226832
 30
0.0
 11
2.2117603068594498
 21
4.0261679781214728
 31
0.0
  0
LINE
  5
246
100
AcDbEntity
100
AcDbLine
  8
0
 62
256
370
-1
 48
1.0
  6
BYLAYER
 10
2.2117603068594498
 20
3.973832021878529
 30
0.0
 11
2.2113175204881035
 21
3.9704687254773186
 31
0.0
  0
LINE
  5
247
100
AcDbEntity
100
AcDbLine
  8
0
 62
256
370
-1
 48
1.0
  6
BYLAYER
 10
2.1977719782687775
 20
3.9199160736987242
 30
0.0
 11
2.1964737943142083
 21
3.9167819803891462
 31
0.0
  0
LINE
  5
248
100
AcDbEntity
100
AcDbLine
  8
0
 62
256
370
-1
 48
1.0
  6
BYLAYER
 10
2.1703058161927355
 20
3.8714577127514058
 30
0.0
 11
2.1682407037460951
 21
3.8687664058131732
 31
0.0
  0
LINE
  5
249
100
AcDbEntity
100
AcDbLine
  8
0
 62
256
370
-1
 48
1.0
  6
BYLAYER
 10
2.1312335941868277
 20
3.8317592962539058
 30
0.0
 11
2.128542287248596
 21
3.8296941838072653
 31
0.0
  0
LINE
  5
24A
100
AcDbEntity
100
AcDbLine
  8
0
 62
256
370
-1
 48
1.0
  6
BYLAYER
 10
2.0832180196108556
 20
3.8035262056857926
 30
0.0
 11
2.0800839263012776
 21
3.8022280217312234
 31
0.0
  0
LINE
  5
24B
100
AcDbEntity
100
AcDbLine
  8
0
 62
256
370
-1
 48
1.0
  6
BYLAYER
 10
2.0295312745226823
 20
3.7886824795118965
 30
0.0
 11
2.0261679781214728
 21
3.7882396931405511
 31
0.0
  0
LINE
  5
24C
100
AcDbEntity
100
AcDbLine
  8
0
 62
256
370
-1
 48
1.0
  6
BYLAYER
 10
1.9738320218785286
 20
3.7882396931405502
 30
0.0
 11
1.9704687254773172
 21
3.7886824795118965
 31
0.0
  0
LINE
  5
24D
100
AcDbEntity
100
AcDbLine
  8
0
 62
256
370
-1
 48
1.0
  6
BYLAYER
 10
1.9199160736987237
 20
3.8022280217312225
 30
0.0
 11
1.9167819803891457
 21
3.8035262056857926
 31
0.0
  0
LINE
  5
24E
100
AcDbEntity
100
AcDbLine
  8
0
 62
256
370
-1
 48
1.0
  6
BYLAYER
 10
1.8714577127514054
 20
3.8296941838072645
 30
0.0
 11
1.8687664058131737
 21
3.8317592962539049
 31
0.0
  0
LINE
  5
24F
100
AcDbEntity
100
AcDbLine
  8
0
 62
256
370
-1
 48
1.0
  6
BYLAYER
 10
1.8317592962539044
 20
3.8687664058131723
 30
0.0
 11
1.829694183807264
 21
3.8714577127514049
 31
0.0
  0
LINE
  5
250
100
AcDbEntity
100
AcDbLine
  8
0
 62
256
370
-1
 48
1.0
  6
BYLAYER
 10
1.803526205685793
 20
3.9167819803891453
 30
0.0
 11
1.8022280217312221
 21
3.9199160736987233
 31
0.0
  0
LINE
  5
251
100
AcDbEntity
100
AcDbLine
  8
0
 62
256
370
-1
 48
1.0
  6
BYLAYER
 10
1.7886824795118961
 20
3.9704687254773168
 30
0.0
 11
1.7882396931405498
 21
3.9738320218785281
 31
0.0
  0
LINE
  5
252
100
AcDbEntity
100
AcDbLine
  8
0
 62
256
370
-1
 48
1.0
  6
BYLAYER
 10
1.7882396931405498
 20
4.0261679781214719
 30
0.0
 11
1.7886824795118961
 21
4.0295312745226823
 31
0.0
  0
LINE
  5
253
100
AcDbEntity
100
AcDbLine
  8
0
 62
3
420
65280
370
-1
 48
1.0
  6
BYLAYER
 10
1.9424000000000006
 20
2.0768000000000004
 30
0.0
 11
2.0575999999999994
 21
2.0768000000000004
 31
0.0
  0
LINE
  5
254
100
AcDbEntity
100
AcDbLine
  8
0
 62
3
420
65280
370
-1
 48
1.0
  6
BYLAYER
 10
1.9424000000000006
 20
4.0768000000000013
 30
0.0
 11
2.057599999999999
 21
4.0768000000000013
 31
0.0
  0
CIRCLE
  5
255
100
AcDbEntity
100
AcDbCircle
  8
0
 62
3
420
65280
370
-1
 48
1.0
  6
BYLAYER
 10
2.6044999999999945
 20
3.3954999999999993
 30
0.0
 40
0.0538784999999979
  0
CIRCLE
  5
256
100
AcDbEntity
100
AcDbCircle
  8
0
 62
3
420
65280
370
-1
 48
1.0
  6
BYLAYER
 10
2.6044999999999945
 20
1.3955000000000002
 30
0.0
 40
0.0538784999999979
  0
CIRCLE
  5
257
100
AcDbEntity
100
AcDbCircle
  8
0
 62
3
420
65280
370
-1
 48
1.0
  6
BYLAYER
 10
1.3955000000000055
 20
3.3954999999999993
 30
0.0
 40
0.0538784999999962
  0
CIRCLE
  5
258
100
AcDbEntity
100
AcDbCircle
  8
0
 62
3
420
65280
370
-1
 48
1.0
  6
BYLAYER
 10
1.3955000000000055
 20
1.3955000000000002
 30
0.0
 40
0.0538784999999962
  0
CIRCLE
  5
259
100
AcDbEntity
100
AcDbCircle
  8
0
 62
3
420
65280
370
-1
 48
1.0
  6
BYLAYER
 10
2.6044999999999945
 20
4.6045000000000034
 30
0.0
 40
0.0538784999999962
  0
CIRCLE
  5
25A
100
AcDbEntity
100
AcDbCircle
  8
0
 62
3
420
65280
370
-1
 48
1.0
  6
BYLAYER
 10
1.395500000000002
 20
4.6045000000000034
 30
0.0
 40
0.0538784999999962
  0
CIRCLE
  5
25B
100
AcDbEntity
100
AcDbCircle
  8
0
 62
3
420
65280
370
-1
 48
1.0
  6
BYLAYER
 10
2.6044999999999945
 20
2.6045000000000034
 30
0.0
 40
0.0538784999999962
  0
CIRCLE
  5
25C
100
AcDbEntity
100
AcDbCircle
  8
0
 62
3
420
65280
370
-1
 48
1.0
  6
BYLAYER
 10
1.395500000000002
 20
2.6045000000000034
 30
0.0
 40
0.0538784999999962
  0
CIRCLE
  5
25D
100
AcDbEntity
100
AcDbCircle
  8
0
 62
14
420
8388608
370
-1
 48
1.0
  6
BYLAYER
 10
1.9999906019172933
 20
4.000038388976078
 30
0.0
 40
0.438763036903433
  0
CIRCLE
  5
25E
100
AcDbEntity
100
AcDbCircle
  8
0
 62
14
420
8388608
370
-1
 48
1.0
  6
BYLAYER
 10
1.9999906019172933
 20
2.000038388976078
 30
0.0
 40
0.438763036903433
  0
LINE
  5
25F
100
AcDbEntity
100
AcDbLine
  8
0
 62
7
420
16777215
370
-1
 48
1.0
  6
BYLAYER
 10
1.3806680836468406
 20
4.0538785023485016
 30
0.0
 11
1.2190325859281028
 21
4.0538785000000006
 31
0.0
  0
LINE
  5
260
100
AcDbEntity
100
AcDbLine
  8
0
 62
7
420
16777215
370
-1
 48
1.0
  6
BYLAYER
 10
2.6193319163531612
 20
4.0538785023485016
 30
0.0
 11
2.780967414071899
 21
4.0538785000000006
 31
0.0
  0
LINE
  5
261
100
AcDbEntity
100
AcDbLine
  8
0
 62
7
420
16777215
370
-1
 48
1.0
  6
BYLAYER
 10
1.2190325859281046
 20
3.9461214999999998
 30
0.0
 11
1.3806680883438425
 21
3.9461215023485008
 31
0.0
  0
LINE
  5
262
100
AcDbEntity
100
AcDbLine
  8
0
 62
7
420
16777215
370
-1
 48
1.0
  6
BYLAYER
 10
2.7809674140718972
 20
3.9461214999999998
 30
0.0
 11
2.6193319116561593
 21
3.9461215023485008
 31
0.0
  0
LINE
  5
263
100
AcDbEntity
100
AcDbLine
  8
0
 62
3
420
65280
370
-1
 48
1.0
  6
BYLAYER
 10
2.7809674140718954
 20
1.9461214999999994
 30
0.0
 11
2.6193319116561575
 21
1.9461215023485003
 31
0.0
  0
LINE
  5
264
100
AcDbEntity
100
AcDbLine
  8
0
 62
3
420
65280
370
-1
 48
1.0
  6
BYLAYER
 10
1.219032585928101
 20
1.9461214999999994
 30
0.0
 11
1.3806680883438389
 21
1.9461215023484999
 31
0.0
  0
LINE
  5
265
100
AcDbEntity
100
AcDbLine
  8
0
 62
3
420
65280
370
-1
 48
1.0
  6
BYLAYER
 10
2.925967414071895
 20
1.8767499976515003
 30
0.0
 11
2.925967414071895
 21
2.1232499976514978
 31
0.0
  0
LINE
  5
266
100
AcDbEntity
100
AcDbLine
  8
0
 62
3
420
65280
370
-1
 48
1.0
  6
BYLAYER
 10
1.0740325859281015
 20
1.8767499976515003
 30
0.0
 11
1.0740325859281015
 21
2.1232499976514978
 31
0.0
  0
LINE
  5
267
100
AcDbEntity
100
AcDbLine
  8
0
 62
256
370
-1
 48
1.0
  6
BYLAYER
 10
1.0857063196838208
 20
3.0999999999999996
 30
0.0
 11
2.9142936803161774
 21
3.0999999999999996
 31
0.0
  0
LINE
  5
268
100
AcDbEntity
100
AcDbLine
  8
0
 62
256
370
-1
 48
1.0
  6
BYLAYER
 10
1.0857063196838208
 20
1.1000000000000001
 30
0.0
 11
2.9142936803161774
 21
1.1000000000000001
 31
0.0
  0
LINE
  5
269
100
AcDbEntity
100
AcDbLine
  8
0
 62
256
370
-1
 48
1.0
  6
BYLAYER
 10
2.9142936803161774
 20
3.0999999999999996
 30
0.0
 11
3.314293680316176
 21
3.3999999999999999
 31
0.0
  0
LINE
  5
26A
100
AcDbEntity
100
AcDbLine
  8
0
 62
256
370
-1
 48
1.0
  6
BYLAYER
 10
2.9142936803161774
 20
1.1000000000000001
 30
0.0
 11
3.314293680316176
 21
1.3999999999999999
 31
0.0
  0
LINE
  5
26B
100
AcDbEntity
100
AcDbLine
  8
0
 62
256
370
-1
 48
1.0
  6
BYLAYER
 10
3.314293680316176
 20
4.5999999999999996
 30
0.0
 11
2.9142936803161774
 21
4.9000000000000004
 31
0.0
  0
LINE
  5
26C
100
AcDbEntity
100
AcDbLine
  8
0
 62
256
370
-1
 48
1.0
  6
BYLAYER
 10
3.314293680316176
 20
2.6000000000000001
 30
0.0
 11
2.9142936803161774
 21
2.8999999999999999
 31
0.0
  0
LINE
  5
26D
100
AcDbEntity
100
AcDbLine
  8
0
 62
256
370
-1
 48
1.0
  6
BYLAYER
 10
2.9142936803161774
 20
4.9000000000000004
 30
0.0
 11
1.0857063196838208
 21
4.9000000000000004
 31
0.0
  0
LINE
  5
26E
100
AcDbEntity
100
AcDbLine
  8
0
 62
256
370
-1
 48
1.0
  6
BYLAYER
 10
2.9142936803161774
 20
2.8999999999999999
 30
0.0
 11
1.0857063196838208
 21
2.8999999999999999
 31
0.0
  0
LINE
  5
26F
100
AcDbEntity
100
AcDbLine
  8
0
 62
256
370
-1
 48
1.0
  6
BYLAYER
 10
1.0857063196838208
 20
4.9000000000000004
 30
0.0
 11
0.6857063196838205
 21
4.5
 31
0.0
  0
LINE
  5
270
100
AcDbEntity
100
AcDbLine
  8
0
 62
256
370
-1
 48
1.0
  6
BYLAYER
 10
1.0857063196838208
 20
2.8999999999999999
 30
0.0
 11
0.6857063196838205
 21
2.5
 31
0.0
  0
LINE
  5
271
100
AcDbEntity
100
AcDbLine
  8
0
 62
256
370
-1
 48
1.0
  6
BYLAYER
 10
0.6857063196838205
 20
3.3999999999999999
 30
0.0
 11
1.0857063196838208
 21
3.0999999999999996
 31
0.0
  0
LINE
  5
272
100
AcDbEntity
100
AcDbLine
  8
0
 62
256
370
-1
 48
1.0
  6
BYLAYER
 10
0.6857063196838205
 20
1.3999999999999999
 30
0.0
 11
1.0857063196838208
 21
1.1000000000000001
 31
0.0
  0
LINE
  5
273
100
AcDbEntity
100
AcDbLine
  8
0
 62
256
370
-1
 48
1.0
  6
BYLAYER
 10
3.314293680316176
 20
3.8767500046970031
 30
0.0
 11
3.314293680316176
 21
3.3999999999999999
 31
0.0
  0
LINE
  5
274
100
AcDbEntity
100
AcDbLine
  8
0
 62
256
370
-1
 48
1.0
  6
BYLAYER
 10
3.314293680316176
 20
1.8767500046970031
 30
0.0
 11
3.314293680316176
 21
1.4000000000000004
 31
0.0
  0
LINE
  5
275
100
AcDbEntity
100
AcDbLine
  8
0
 62
256
370
-1
 48
1.0
  6
BYLAYER
 10
3.314293680316176
 20
1.4000000000000004
 30
0.0
 11
3.314293680316176
 21
1.4000000000000004
 31
0.0
  0
LINE
  5
276
100
AcDbEntity
100
AcDbLine
  8
0
 62
256
370
-1
 48
1.0
  6
BYLAYER
 10
3.314293680316176
 20
2.1232499999999987
 30
0.0
 11
3.314293680316176
 21
2.6000000000000001
 31
0.0
  0
LINE
  5
277
100
AcDbEntity
100
AcDbLine
  8
0
 62
256
370
-1
 48
1.0
  6
BYLAYER
 10
3.314293680316176
 20
4.1232499999999987
 30
0.0
 11
3.314293680316176
 21
4.5999999999999996
 31
0.0
  0
LINE
  5
278
100
AcDbEntity
100
AcDbLine
  8
0
 62
256
370
-1
 48
1.0
  6
BYLAYER
 10
0.6857063196838205
 20
3.4000000000000012
 30
0.0
 11
0.6857063196838205
 21
3.8767500000000013
 31
0.0
  0
LINE
  5
279
100
AcDbEntity
100
AcDbLine
  8
0
 62
256
370
-1
 48
1.0
  6
BYLAYER
 10
0.6857063196838205
 20
1.4000000000000012
 30
0.0
 11
0.6857063196838205
 21
1.8767500000000017
 31
0.0
  0
LINE
  5
27A
100
AcDbEntity
100
AcDbLine
  8
0
 62
256
370
-1
 48
1.0
  6
BYLAYER
 10
0.6857063196838205
 20
4.1232499999999987
 30
0.0
 11
0.6857063196838205
 21
4.4999999999999991
 31
0.0
  0
LINE
  5
27B
100
AcDbEntity
100
AcDbLine
  8
0
 62
256
370
-1
 48
1.0
  6
BYLAYER
 10
0.6857063196838205
 20
2.1232499999999987
 30
0.0
 11
0.6857063196838205
 21
2.4999999999999991
 31
0.0
  0
LINE
  5
27C
100
AcDbEntity
100
AcDbLine
  8
0
 62
3
420
65280
370
-1
 48
1.0
  6
BYLAYER
 10
2.7809674140718954
 20
2.0538785000000006
 30
0.0
 11
2.6193319117906277
 21
2.0538785000000006
 31
0.0
  0
LINE
  5
27D
100
AcDbEntity
100
AcDbLine
  8
0
 62
3
420
65280
370
-1
 48
1.0
  6
BYLAYER
 10
1.219032585928101
 20
2.0538785000000002
 30
0.0
 11
1.3806680882093687
 21
2.0538785000000006
 31
0.0
  0
LINE
  5
27E
100
AcDbEntity
100
AcDbLine
  8
0
 62
256
370
-1
 48
1.0
  6
BYLAYER
 10
0.8457500000000024
 20
4.0538785023485016
 30
0.0
 11
1.074032585928105
 21
4.0538785023485016
 31
0.0
  0
LINE
  5
27F
100
AcDbEntity
100
AcDbLine
  8
0
 62
256
370
-1
 48
1.0
  6
BYLAYER
 10
3.1542499999999976
 20
4.0538785023485016
 30
0.0
 11
2.9259674140718968
 21
4.0538785023485016
 31
0.0
  0
LINE
  5
280
100
AcDbEntity
100
AcDbLine
  8
0
 62
256
370
-1
 48
1.0
  6
BYLAYER
 10
1.074032585928105
 20
3.9461214962075664
 30
0.0
 11
0.8457499999999989
 21
3.9461215000673282
 31
0.0
  0
LINE
  5
281
100
AcDbEntity
100
AcDbLine
  8
0
 62
256
370
-1
 48
1.0
  6
BYLAYER
 10
2.9259674140718968
 20
3.9461214962075664
 30
0.0
 11
3.1542500000000047
 21
3.9461215000673282
 31
0.0
  0
LINE
  5
282
100
AcDbEntity
100
AcDbLine
  8
0
 62
256
370
-1
 48
1.0
  6
BYLAYER
 10
1.0740325859281032
 20
4.0538785023485016
 30
0.0
 11
1.074032585928105
 21
4.1232499976514987
 31
0.0
  0
LINE
  5
283
100
AcDbEntity
100
AcDbLine
  8
0
 62
256
370
-1
 48
1.0
  6
BYLAYER
 10
2.9259674140718985
 20
4.0538785023485016
 30
0.0
 11
2.9259674140718968
 21
4.1232499976514987
 31
0.0
  0
LINE
  5
284
100
AcDbEntity
100
AcDbLine
  8
0
 62
256
370
-1
 48
1.0
  6
BYLAYER
 10
1.074032585928105
 20
3.9461214962075664
 30
0.0
 11
1.074032585928105
 21
3.8767499976515007
 31
0.0
  0
LINE
  5
285
100
AcDbEntity
100
AcDbLine
  8
0
 62
256
370
-1
 48
1.0
  6
BYLAYER
 10
2.9259674140718968
 20
3.9461214962075664
 30
0.0
 11
2.9259674140718968
 21
3.8767499976515007
 31
0.0
  0
LINE
  5
286
100
AcDbEntity
100
AcDbLine
  8
0
 62
7
420
0
370
-1
 48
1.0
  6
BYLAYER
 10
6.149999999999995
 20
3.0
 30
0.0
 11
6.149999999999995
 21
0.8541215140287992
 31
0.0
  0
LINE
  5
287
100
AcDbEntity
100
AcDbLine
  8
0
 62
7
420
0
370
-1
 48
1.0
  6
BYLAYER
 10
6.149999999999995
 20
3.0
 30
0.0
 11
6.149999999999995
 21
5.1458784859712008
 31
0.0
  0
LINE
  5
288
100
AcDbEntity
100
AcDbLine
  8
0
 62
7
420
0
370
-1
 48
1.0
  6
BYLAYER
 10
5.4499999999999957
 20
3.0
 30
0.0
 11
5.4499999999999922
 21
0.8541213729661798
 31
0.0
  0
LINE
  5
289
100
AcDbEntity
100
AcDbLine
  8
0
 62
7
420
0
370
-1
 48
1.0
  6
BYLAYER
 10
5.4499999999999957
 20
3.0
 30
0.0
 11
5.4499999999999922
 21
5.145878627033821
 31
0.0
  0
LINE
  5
28A
100
AcDbEntity
100
AcDbLine
  8
0
 62
7
420
0
370
-1
 48
1.0
  6
BYLAYER
 10
4.7500000000000142
 20
3.0
 30
0.0
 11
4.7500000000000071
 21
0.8541215140287974
 31
0.0
  0
LINE
  5
28B
100
AcDbEntity
100
AcDbLine
  8
0
 62
7
420
0
370
-1
 48
1.0
  6
BYLAYER
 10
4.7500000000000142
 20
3.0
 30
0.0
 11
4.7500000000000071
 21
5.1458784859712026
 31
0.0
  0
LINE
  5
28C
100
AcDbEntity
100
AcDbLine
  8
0
 62
7
420
0
370
-1
 48
1.0
  6
BYLAYER
 10
4.7500000000000142
 20
3.0
 30
0.0
 11
6.849999999999973
 21
3.0
 31
0.0
  0
LINE
  5
28D
100
AcDbEntity
100
AcDbLine
  8
0
 62
7
420
0
370
-1
 48
1.0
  6
BYLAYER
 10
6.849999999999973
 20
3.0
 30
0.0
 11
6.849999999999973
 21
2.3354452790288125
 31
0.0
  0
LINE
  5
28E
100
AcDbEntity
100
AcDbLine
  8
0
 62
7
420
0
370
-1
 48
1.0
  6
BYLAYER
 10
6.849999999999973
 20
3.0
 30
0.0
 11
6.849999999999973
 21
3.6645547209711875
 31
0.0
  0
ENDSEC
  0
SECTION
  2
OBJECTS
  0
DICTIONARY
  5
C
100
AcDbDictionary
280
0
281
1
  3
ACAD_GROUP
350
D
  3
ACAD_LAYOUT
350
1A
  3
ACAD_MLINESTYLE
350
17
  3
ACAD_PLOTSETTINGS
350
19
  3
ACAD_PLOTSTYLENAME
350
E
  3
AcDbVariableDictionary
350
28F
  3
QCAD_OBJECTS
350
290
  0
DICTIONARY
  5
D
100
AcDbDictionary
280
0
281
1
  0
ACDBDICTIONARYWDFLT
  5
E
100
AcDbDictionary
281
1
  3
Normal
350
F
100
AcDbDictionaryWithDefault
340
F
  0
ACDBPLACEHOLDER
  5
F
  0
DICTIONARY
  5
17
100
AcDbDictionary
280
0
281
1
  3
Standard
350
18
  0
MLINESTYLE
  5
18
100
AcDbMlineStyle
  2
STANDARD
 70
0
  3

 62
256
 51
90.0
 52
90.0
 71
2
 49
0.5
 62
256
  6
BYLAYER
 49
-0.5
 62
256
  6
BYLAYER
  0
DICTIONARY
  5
19
100
AcDbDictionary
280
0
281
1
  0
DICTIONARY
  5
1A
100
AcDbDictionary
281
1
  3
Layout1
350
1E
  3
Layout2
350
26
  3
Model
350
22
  0
LAYOUT
  5
1E
100
AcDbPlotSettings
  1

  2
none_device
  4

  6

 40
0.0
 41
0.0
 42
0.0
 43
0.0
 44
0.0
 45
0.0
 46
0.0
 47
0.0
 48
0.0
 49
0.0
140
0.0
141
0.0
142
1.0
143
1.0
 70
688
 72
0
 73
0
 74
5
  7

 75
16
147
1.0
148
0.0
149
0.0
100
AcDbLayout
  1
Layout1
 70
1
 71
1
 10
0.0
 20
0.0
 11
420.0
 21
297.0
 12
0.0
 22
0.0
 32
0.0
 14
100000000000000000000.0
 24
100000000000000000000.0
 34
100000000000000000000.0
 15
-100000000000000000000.0
 25
-100000000000000000000.0
 35
-100000000000000000000.0
146
0.0
 13
0.0
 23
0.0
 33
0.0
 16
1.0
 26
0.0
 36
0.0
 17
0.0
 27
1.0
 37
0.0
 76
0
330
1B
  0
LAYOUT
  5
22
100
AcDbPlotSettings
  1

  2
none_device
  4

  6

 40
0.0
 41
0.0
 42
0.0
 43
0.0
 44
0.0
 45
0.0
 46
0.0
 47
0.0
 48
0.0
 49
0.0
140
0.0
141
0.0
142
1.0
143
1.0
 70
1712
 72
0
 73
0
 74
0
  7

 75
0
147
1.0
148
0.0
149
0.0
100
AcDbLayout
  1
Model
 70
1
 71
0
 10
0.0
 20
0.0
 11
12.0
 21
9.0
 12
0.0
 22
0.0
 32
0.0
 14
0.0
 24
0.0
 34
0.0
 15
0.0
 25
0.0
 35
0.0
146
0.0
 13
0.0
 23
0.0
 33
0.0
 16
1.0
 26
0.0
 36
0.0
 17
0.0
 27
1.0
 37
0.0
 76
0
330
1F
  0
LAYOUT
  5
26
100
AcDbPlotSettings
  1

  2
none_device
  4

  6

 40
0.0
 41
0.0
 42
0.0
 43
0.0
 44
0.0
 45
0.0
 46
0.0
 47
0.0
 48
0.0
 49
0.0
140
0.0
141
0.0
142
1.0
143
1.0
 70
688
 72
0
 73
0
 74
5
  7

 75
16
147
1.0
148
0.0
149
0.0
100
AcDbLayout
  1
Layout2
 70
1
 71
2
 10
0.0
 20
0.0
 11
12.0
 21
9.0
 12
0.0
 22
0.0
 32
0.0
 14
0.0
 24
0.0
 34
0.0
 15
0.0
 25
0.0
 35
0.0
146
0.0
 13
0.0
 23
0.0
 33
0.0
 16
1.0
 26
0.0
 36
0.0
 17
0.0
 27
1.0
 37
0.0
 76
0
330
23
  0
DICTIONARY
  5
28F
100
AcDbDictionary
281
1
  3
DIMASSOC
350
292
  3
HIDETEXT
350
291
  0
DICTIONARYVAR
  5
291
100
DictionaryVariables
280
0
  1
2
  0
DICTIONARYVAR
  5
292
100
DictionaryVariables
280
0
  1
1
  0
DICTIONARY
  5
290
100
AcDbDictionary
281
1
  3
ColorSettings/BackgroundColor
350
293
  3
ColorSettings/ColorMode
350
294
  3
Grid/DisplayGrid00
350
295
  3
Grid/DisplayGrid01
350
296
  3
Grid/DisplayGrid02
350
297
  3
Grid/DisplayGrid03
350
298
  3
Grid/GridSpacingX00
350
299
  3
Grid/GridSpacingX01
350
29A
  3
Grid/GridSpacingX02
350
29B
  3
Grid/GridSpacingX03
350
29C
  3
Grid/GridSpacingY00
350
29D
  3
Grid/GridSpacingY01
350
29E
  3
Grid/GridSpacingY02
350
29F
  3
Grid/GridSpacingY03
350
2A0
  3
Grid/IsometricGrid00
350
2A1
  3
Grid/IsometricGrid01
350
2A2
  3
Grid/IsometricGrid02
350
2A3
  3
Grid/IsometricGrid03
350
2A4
  3
Grid/IsometricProjection00
350
2A5
  3
Grid/IsometricProjection01
350
2A6
  3
Grid/IsometricProjection02
350
2A7
  3
Grid/IsometricProjection03
350
2A8
  3
Grid/MetaGridSpacingX00
350
2A9
  3
Grid/MetaGridSpacingX01
350
2AA
  3
Grid/MetaGridSpacingX02
350
2AB
  3
Grid/MetaGridSpacingX03
350
2AC
  3
Grid/MetaGridSpacingY00
350
2AD
  3
Grid/MetaGridSpacingY01
350
2AE
  3
Grid/MetaGridSpacingY02
350
2AF
  3
Grid/MetaGridSpacingY03
350
2B0
  3
MultiPageSettings/Columns
350
2B1
  3
MultiPageSettings/GlueMarginsBottom
350
2B2
  3
MultiPageSettings/GlueMarginsLeft
350
2B3
  3
MultiPageSettings/GlueMarginsRight
350
2B4
  3
MultiPageSettings/GlueMarginsTop
350
2B5
  3
MultiPageSettings/PrintCropMarks
350
2B6
  3
MultiPageSettings/Rows
350
2B7
  3
PageSettings/OffsetX
350
2B8
  3
PageSettings/OffsetY
350
2B9
  3
PageSettings/PageOrientation
350
2BA
  3
PageSettings/PaperHeight
350
2BB
  3
PageSettings/PaperWidth
350
2BC
  3
PageSettings/Scale
350
2BD
  3
PageSettings/ShowPaperBorders
350
2BE
  3
QCADVersion
350
2BF
  3
UnitSettings/PaperUnit
350
2C0
  0
XRECORD
  5
293
330
290
100
AcDbXrecord
280
1
1000
White
  0
XRECORD
  5
294
330
290
100
AcDbXrecord
280
1
1000
FullColor
  0
XRECORD
  5
295
330
290
100
AcDbXrecord
280
1
290
1
  0
XRECORD
  5
296
330
290
100
AcDbXrecord
280
1
290
1
  0
XRECORD
  5
297
330
290
100
AcDbXrecord
280
1
290
1
  0
XRECORD
  5
298
330
290
100
AcDbXrecord
280
1
290
1
  0
XRECORD
  5
299
330
290
100
AcDbXrecord
280
1
1000
auto
  0
XRECORD
  5
29A
330
290
100
AcDbXrecord
280
1
1000
auto
  0
XRECORD
  5
29B
330
290
100
AcDbXrecord
280
1
1000
auto
  0
XRECORD
  5
29C
330
290
100
AcDbXrecord
280
1
1000
auto
  0
XRECORD
  5
29D
330
290
100
AcDbXrecord
280
1
1000
auto
  0
XRECORD
  5
29E
330
290
100
AcDbXrecord
280
1
1000
auto
  0
XRECORD
  5
29F
330
290
100
AcDbXrecord
280
1
1000
auto
  0
XRECORD
  5
2A0
330
290
100
AcDbXrecord
280
1
1000
auto
  0
XRECORD
  5
2A1
330
290
100
AcDbXrecord
280
1
290
0
  0
XRECORD
  5
2A2
330
290
100
AcDbXrecord
280
1
290
0
  0
XRECORD
  5
2A3
330
290
100
AcDbXrecord
280
1
290
0
  0
XRECORD
  5
2A4
330
290
100
AcDbXrecord
280
1
290
0
  0
XRECORD
  5
2A5
330
290
100
AcDbXrecord
280
1
 90
0
  0
XRECORD
  5
2A6
330
290
100
AcDbXrecord
280
1
 90
0
  0
XRECORD
  5
2A7
330
290
100
AcDbXrecord
280
1
 90
0
  0
XRECORD
  5
2A8
330
290
100
AcDbXrecord
280
1
 90
0
  0
XRECORD
  5
2A9
330
290
100
AcDbXrecord
280
1
1000
auto
  0
XRECORD
  5
2AA
330
290
100
AcDbXrecord
280
1
1000
auto
  0
XRECORD
  5
2AB
330
290
100
AcDbXrecord
280
1
1000
auto
  0
XRECORD
  5
2AC
330
290
100
AcDbXrecord
280
1
1000
auto
  0
XRECORD
  5
2AD
330
290
100
AcDbXrecord
280
1
1000
auto
  0
XRECORD
  5
2AE
330
290
100
AcDbXrecord
280
1
1000
auto
  0
XRECORD
  5
2AF
330
290
100
AcDbXrecord
280
1
1000
auto
  0
XRECORD
  5
2B0
330
290
100
AcDbXrecord
280
1
1000
auto
  0
XRECORD
  5
2B1
330
290
100
AcDbXrecord
280
1
 90
1
  0
XRECORD
  5
2B2
330
290
100
AcDbXrecord
280
1
 40
0.5
  0
XRECORD
  5
2B3
330
290
100
AcDbXrecord
280
1
 40
0.5
  0
XRECORD
  5
2B4
330
290
100
AcDbXrecord
280
1
 40
0.5
  0
XRECORD
  5
2B5
330
290
100
AcDbXrecord
280
1
 40
0.5
  0
XRECORD
  5
2B6
330
290
100
AcDbXrecord
280
1
290
0
  0
XRECORD
  5
2B7
330
290
100
AcDbXrecord
280
1
 90
1
  0
XRECORD
  5
2B8
330
290
100
AcDbXrecord
280
1
 40
0.0
  0
XRECORD
  5
2B9
330
290
100
AcDbXrecord
280
1
 40
0.0
  0
XRECORD
  5
2BA
330
290
100
AcDbXrecord
280
1
1000
Portrait
  0
XRECORD
  5
2BB
330
290
100
AcDbXrecord
280
1
 40
11.6929133858268006
  0
XRECORD
  5
2BC
330
290
100
AcDbXrecord
280
1
 40
8.2677165354330704
  0
XRECORD
  5
2BD
330
290
100
AcDbXrecord
280
1
1000
1:1
  0
XRECORD
  5
2BE
330
290
100
AcDbXrecord
280
1
290
1
  0
XRECORD
  5
2BF
330
290
100
AcDbXrecord
280
1
1000
3.11.3
  0
XRECORD
  5
2C0
330
290
100
AcDbXrecord
280
1
 90
1
  0
ENDSEC
  0
EOF
