999
dxflib 3.7.5.0
  0
SECTION
  2
HEADER
  9
$ACADVER
  1
AC1015
  9
$HANDSEED
  5
FFFF
  9
$DIMADEC
 70
0
  9
$DIMASZ
 40
0.125
  9
$DIMAUNIT
 70
0
  9
$DIMAZIN
 70
2
  9
$DIMDEC
 70
4
  9
$DIMEXE
 40
0.0625
  9
$DIMEXO
 40
0.03125
  9
$DIMGAP
 40
0.03125
  9
$DIMLUNIT
 70
3
  9
$DIMSCALE
 40
1.0
  9
$DIMTSZ
 40
0.0
  9
$DIMTXT
 40
0.125
  9
$DIMZIN
 70
8
  9
$DWGCODEPAGE
  3
ANSI_1252
  9
$INSUNITS
 70
1
  9
$LTSCALE
 40
1.0
  9
$MEASUREMENT
 70
0
  9
$PDMODE
 70
0
  9
$PDSIZE
 40
0
  0
ENDSEC
  0
SECTION
  2
TABLES
  0
TABLE
  2
VPORT
  5
8
100
AcDbSymbolTable
 70
1
  0
VPORT
  5
30
100
AcDbSymbolTableRecord
100
AcDbViewportTableRecord
  2
*Active
 70
0
 10
0.0
 20
0.0
 11
1.0
 21
1.0
 12
286.3055555555554861
 22
148.5
 13
0.0
 23
0.0
 14
10.0
 24
10.0
 15
10.0
 25
10.0
 16
0.0
 26
0.0
 36
1.0
 17
0.0
 27
0.0
 37
0.0
 40
297.0
 41
1.92798353909465
 42
50.0
 43
0.0
 44
0.0
 50
0.0
 51
0.0
 71
0
 72
100
 73
1
 74
3
 75
1
 76
1
 77
0
 78
0
281
0
 65
1
110
0.0
120
0.0
130
0.0
111
1.0
121
0.0
131
0.0
112
0.0
122
1.0
132
0.0
 79
0
146
0.0
  0
ENDTAB
  0
TABLE
  2
LTYPE
  5
5
100
AcDbSymbolTable
 70
50
  0
LTYPE
  5
16
100
AcDbSymbolTableRecord
100
AcDbLinetypeTableRecord
  2
Continuous
 70
0
  3
Solid line
 72
65
 73
0
 40
0.0
  0
LTYPE
  5
31
100
AcDbSymbolTableRecord
100
AcDbLinetypeTableRecord
  2
ACAD_ISO15W100
 70
0
  3
ISO double-dash triple-dot __ __ . . . __ __ . .
 72
65
 73
10
 40
39.0
 49
12.0
 74
0
 49
-3.0
 74
0
 49
12.0
 74
0
 49
-3.0
 74
0
 49
0.0
 74
0
 49
-3.0
 74
0
 49
0.0
 74
0
 49
-3.0
 74
0
 49
0.0
 74
0
 49
-3.0
 74
0
  0
LTYPE
  5
32
100
AcDbSymbolTableRecord
100
AcDbLinetypeTableRecord
  2
HOT_WATER_SUPPLY
 70
0
  3
Hot water supply ---- HW ---- HW ---- HW ----
 72
65
 73
3
 40
22.8599999999999994
 49
12.6999999999999993
 74
0
 49
-5.0800000000000001
 74
0
 49
-5.0800000000000001
 74
0
  0
LTYPE
  5
33
100
AcDbSymbolTableRecord
100
AcDbLinetypeTableRecord
  2
DIVIDE
 70
0
  3
Divide ____ . . ____ . . ____ . . ____ . . ____
 72
65
 73
6
 40
31.75
 49
12.6999999999999993
 74
0
 49
-6.3499999999999996
 74
0
 49
0.0
 74
0
 49
-6.3499999999999996
 74
0
 49
0.0
 74
0
 49
-6.3499999999999996
 74
0
  0
LTYPE
  5
34
100
AcDbSymbolTableRecord
100
AcDbLinetypeTableRecord
  2
ACAD_ISO10W100
 70
0
  3
ISO dash dot __ . __ . __ . __ . __ . __ . __ . 
 72
65
 73
4
 40
18.0
 49
12.0
 74
0
 49
-3.0
 74
0
 49
0.0
 74
0
 49
-3.0
 74
0
  0
LTYPE
  5
35
100
AcDbSymbolTableRecord
100
AcDbLinetypeTableRecord
  2
GAS_LINE
 70
0
  3
Gas line ----GAS----GAS----GAS----GAS----GAS----GAS--
 72
65
 73
3
 40
24.1300000000000026
 49
12.6999999999999993
 74
0
 49
-5.0800000000000001
 74
0
 49
-6.3499999999999996
 74
0
  0
LTYPE
  5
36
100
AcDbSymbolTableRecord
100
AcDbLinetypeTableRecord
  2
ACAD_ISO04W100
 70
0
  3
ISO long-dash dot ____ . ____ . ____ . ____ . _
 72
65
 73
4
 40
30.0
 49
24.0
 74
0
 49
-3.0
 74
0
 49
0.0
 74
0
 49
-3.0
 74
0
  0
LTYPE
  5
37
100
AcDbSymbolTableRecord
100
AcDbLinetypeTableRecord
  2
CENTER2
 70
0
  3
Center (.5x) ___ _ ___ _ ___ _ ___ _ ___ _ ___
 72
65
 73
4
 40
28.5750000000000028
 49
19.0500000000000007
 74
0
 49
-3.1749999999999998
 74
0
 49
3.1749999999999998
 74
0
 49
-3.1749999999999998
 74
0
  0
LTYPE
  5
38
100
AcDbSymbolTableRecord
100
AcDbLinetypeTableRecord
  2
ACAD_ISO11W100
 70
0
  3
ISO double-dash dot __ __ . __ __ . __ __ . __ _
 72
65
 73
6
 40
33.0
 49
12.0
 74
0
 49
-3.0
 74
0
 49
12.0
 74
0
 49
-3.0
 74
0
 49
0.0
 74
0
 49
-3.0
 74
0
  0
LTYPE
  5
39
100
AcDbSymbolTableRecord
100
AcDbLinetypeTableRecord
  2
HIDDEN2
 70
0
  3
Hidden (.5x) _ _ _ _ _ _ _ _ _ _ _ _ _ _ _ _ _ 
 72
65
 73
2
 40
4.7624999999999993
 49
3.1749999999999998
 74
0
 49
-1.5874999999999999
 74
0
  0
LTYPE
  5
3A
100
AcDbSymbolTableRecord
100
AcDbLinetypeTableRecord
  2
BORDERX2
 70
0
  3
Border (2x) ____  ____  .  ____  ____  .  ___
 72
65
 73
6
 40
88.8999999999999915
 49
25.3999999999999986
 74
0
 49
-12.6999999999999993
 74
0
 49
25.3999999999999986
 74
0
 49
-12.6999999999999993
 74
0
 49
0.0
 74
0
 49
-12.6999999999999993
 74
0
  0
LTYPE
  5
3B
100
AcDbSymbolTableRecord
100
AcDbLinetypeTableRecord
  2
ACAD_ISO05W100
 70
0
  3
ISO long-dash double-dot ____ .. ____ .. ____ . 
 72
65
 73
6
 40
33.0
 49
24.0
 74
0
 49
-3.0
 74
0
 49
0.0
 74
0
 49
-3.0
 74
0
 49
0.0
 74
0
 49
-3.0
 74
0
  0
LTYPE
  5
3C
100
AcDbSymbolTableRecord
100
AcDbLinetypeTableRecord
  2
DASHDOTX2
 70
0
  3
Dash dot (2x) ____  .  ____  .  ____  .  ___
 72
65
 73
4
 40
50.7999999999999972
 49
25.3999999999999986
 74
0
 49
-12.6999999999999993
 74
0
 49
0.0
 74
0
 49
-12.6999999999999993
 74
0
  0
LTYPE
  5
3D
100
AcDbSymbolTableRecord
100
AcDbLinetypeTableRecord
  2
HIDDENX2
 70
0
  3
Hidden (2x) ____ ____ ____ ____ ____ ____ ____ 
 72
65
 73
2
 40
19.0499999999999972
 49
12.6999999999999993
 74
0
 49
-6.3499999999999996
 74
0
  0
LTYPE
  5
3E
100
AcDbSymbolTableRecord
100
AcDbLinetypeTableRecord
  2
CENTERX2
 70
0
  3
Center (2x) ________  __  ________  __  _____
 72
65
 73
4
 40
101.6000000000000085
 49
63.5
 74
0
 49
-12.6999999999999993
 74
0
 49
12.6999999999999993
 74
0
 49
-12.6999999999999993
 74
0
  0
LTYPE
  5
3F
100
AcDbSymbolTableRecord
100
AcDbLinetypeTableRecord
  2
BORDER2
 70
0
  3
Border (.5x) __.__.__.__.__.__.__.__.__.__.__.
 72
65
 73
6
 40
22.2249999999999979
 49
6.3499999999999996
 74
0
 49
-3.1749999999999998
 74
0
 49
6.3499999999999996
 74
0
 49
-3.1749999999999998
 74
0
 49
0.0
 74
0
 49
-3.1749999999999998
 74
0
  0
LTYPE
  5
40
100
AcDbSymbolTableRecord
100
AcDbLinetypeTableRecord
  2
DASHDOT2
 70
0
  3
Dash dot (.5x) _._._._._._._._._._._._._._._.
 72
65
 73
4
 40
12.6999999999999993
 49
6.3499999999999996
 74
0
 49
-3.1749999999999998
 74
0
 49
0.0
 74
0
 49
-3.1749999999999998
 74
0
  0
LTYPE
  5
41
100
AcDbSymbolTableRecord
100
AcDbLinetypeTableRecord
  2
ACAD_ISO12W100
 70
0
  3
ISO dash double-dot __ . . __ . . __ . . __ . . 
 72
65
 73
6
 40
21.0
 49
12.0
 74
0
 49
-3.0
 74
0
 49
0.0
 74
0
 49
-3.0
 74
0
 49
0.0
 74
0
 49
-3.0
 74
0
  0
LTYPE
  5
42
100
AcDbSymbolTableRecord
100
AcDbLinetypeTableRecord
  2
ACAD_ISO07W100
 70
0
  3
ISO dot . . . . . . . . . . . . . . . . . . . . 
 72
65
 73
2
 40
3.0
 49
0.0
 74
0
 49
-3.0
 74
0
  0
LTYPE
  5
43
100
AcDbSymbolTableRecord
100
AcDbLinetypeTableRecord
  2
ACAD_ISO06W100
 70
0
  3
ISO long-dash triple-dot ____ ... ____ ... ____
 72
65
 73
8
 40
36.0
 49
24.0
 74
0
 49
-3.0
 74
0
 49
0.0
 74
0
 49
-3.0
 74
0
 49
0.0
 74
0
 49
-3.0
 74
0
 49
0.0
 74
0
 49
-3.0
 74
0
  0
LTYPE
  5
44
100
AcDbSymbolTableRecord
100
AcDbLinetypeTableRecord
  2
CENTER
 70
0
  3
Center ____ _ ____ _ ____ _ ____ _ ____ _ ____
 72
65
 73
4
 40
50.8000000000000043
 49
31.75
 74
0
 49
-6.3499999999999996
 74
0
 49
6.3499999999999996
 74
0
 49
-6.3499999999999996
 74
0
  0
LTYPE
  5
45
100
AcDbSymbolTableRecord
100
AcDbLinetypeTableRecord
  2
HIDDEN
 70
0
  3
Hidden __ __ __ __ __ __ __ __ __ __ __ __ __ __
 72
65
 73
2
 40
9.5249999999999986
 49
6.3499999999999996
 74
0
 49
-3.1749999999999998
 74
0
  0
LTYPE
  5
46
100
AcDbSymbolTableRecord
100
AcDbLinetypeTableRecord
  2
DOTX2
 70
0
  3
Dot (2x) .  .  .  .  .  .  .  .  .  .  .  .  .  .
 72
65
 73
2
 40
12.6999999999999993
 49
0.0
 74
0
 49
-12.6999999999999993
 74
0
  0
LTYPE
  5
47
100
AcDbSymbolTableRecord
100
AcDbLinetypeTableRecord
  2
PHANTOM
 70
0
  3
Phantom ______  __  __  ______  __  __  ______ 
 72
65
 73
6
 40
63.5000000000000071
 49
31.75
 74
0
 49
-6.3499999999999996
 74
0
 49
6.3499999999999996
 74
0
 49
-6.3499999999999996
 74
0
 49
6.3499999999999996
 74
0
 49
-6.3499999999999996
 74
0
  0
LTYPE
  5
48
100
AcDbSymbolTableRecord
100
AcDbLinetypeTableRecord
  2
ACAD_ISO08W100
 70
0
  3
ISO long-dash short-dash ____ __ ____ __ ____ _
 72
65
 73
4
 40
36.0
 49
24.0
 74
0
 49
-3.0
 74
0
 49
6.0
 74
0
 49
-3.0
 74
0
  0
LTYPE
  5
49
100
AcDbSymbolTableRecord
100
AcDbLinetypeTableRecord
  2
DASHEDX2
 70
0
  3
Dashed (2x) ____  ____  ____  ____  ____  ___
 72
65
 73
2
 40
38.0999999999999943
 49
25.3999999999999986
 74
0
 49
-12.6999999999999993
 74
0
  0
LTYPE
  5
4A
100
AcDbSymbolTableRecord
100
AcDbLinetypeTableRecord
  2
DRAINAGE
 70
0
  3
Drainage ---->---->---->----
 72
65
 73
2
 40
10.1600000000000001
 49
5.0800000000000001
 74
0
 49
5.0800000000000001
 74
0
  0
LTYPE
  5
4B
100
AcDbSymbolTableRecord
100
AcDbLinetypeTableRecord
  2
ACAD_ISO02W100
 70
0
  3
ISO dash __ __ __ __ __ __ __ __ __ __ __ __ __
 72
65
 73
2
 40
15.0
 49
12.0
 74
0
 49
-3.0
 74
0
  0
LTYPE
  5
4C
100
AcDbSymbolTableRecord
100
AcDbLinetypeTableRecord
  2
PHANTOM2
 70
0
  3
Phantom (.5x) ___ _ _ ___ _ _ ___ _ _ ___ _ _
 72
65
 73
6
 40
31.7500000000000036
 49
15.875
 74
0
 49
-3.1749999999999998
 74
0
 49
3.1749999999999998
 74
0
 49
-3.1749999999999998
 74
0
 49
3.1749999999999998
 74
0
 49
-3.1749999999999998
 74
0
  0
LTYPE
  5
4D
100
AcDbSymbolTableRecord
100
AcDbLinetypeTableRecord
  2
DASHED2
 70
0
  3
Dashed (.5x) _ _ _ _ _ _ _ _ _ _ _ _ _ _ _ _ _ 
 72
65
 73
2
 40
9.5249999999999986
 49
6.3499999999999996
 74
0
 49
-3.1749999999999998
 74
0
  0
LTYPE
  5
4E
100
AcDbSymbolTableRecord
100
AcDbLinetypeTableRecord
  2
ACAD_ISO09W100
 70
0
  3
ISO long-dash double-short-dash ____ __ __ ____
 72
65
 73
6
 40
45.0
 49
24.0
 74
0
 49
-3.0
 74
0
 49
6.0
 74
0
 49
-3.0
 74
0
 49
6.0
 74
0
 49
-3.0
 74
0
  0
LTYPE
  5
4F
100
AcDbSymbolTableRecord
100
AcDbLinetypeTableRecord
  2
ACAD_ISO13W100
 70
0
  3
ISO double-dash double-dot __ __ . . __ __ . . _
 72
65
 73
8
 40
36.0
 49
12.0
 74
0
 49
-3.0
 74
0
 49
12.0
 74
0
 49
-3.0
 74
0
 49
0.0
 74
0
 49
-3.0
 74
0
 49
0.0
 74
0
 49
-3.0
 74
0
  0
LTYPE
  5
50
100
AcDbSymbolTableRecord
100
AcDbLinetypeTableRecord
  2
TRACKS
 70
0
  3
Tracks -|-|-|-|-|-|-|-|-|-|-|-|-|-|-|-|-|-|-|-|-|-|-|-|-
 72
65
 73
2
 40
7.6200000000000001
 49
3.8100000000000001
 74
0
 49
3.8100000000000001
 74
0
  0
LTYPE
  5
51
100
AcDbSymbolTableRecord
100
AcDbLinetypeTableRecord
  2
DRAINAGE2
 70
0
  3
Drainage reversed----<----<----<----
 72
65
 73
2
 40
10.1600000000000001
 49
5.0800000000000001
 74
0
 49
5.0800000000000001
 74
0
  0
LTYPE
  5
52
100
AcDbSymbolTableRecord
100
AcDbLinetypeTableRecord
  2
DOT2
 70
0
  3
Dot (.5x) ........................................
 72
65
 73
2
 40
3.1749999999999998
 49
0.0
 74
0
 49
-3.1749999999999998
 74
0
  0
LTYPE
  5
53
100
AcDbSymbolTableRecord
100
AcDbLinetypeTableRecord
  2
ZIGZAG
 70
0
  3
Zig zag /\/\/\/\/\/\/\/\/\/\/\/\/\/\/\/\/\/\/\/\/\/\/\/
 72
65
 73
4
 40
20.32254
 49
0.00254
 74
0
 49
-5.0800000000000001
 74
0
 49
-10.1600000000000001
 74
0
 49
-5.0800000000000001
 74
0
  0
LTYPE
  5
54
100
AcDbSymbolTableRecord
100
AcDbLinetypeTableRecord
  2
DASHED
 70
0
  3
Dashed __ __ __ __ __ __ __ __ __ __ __ __ __ _
 72
65
 73
2
 40
19.0499999999999972
 49
12.6999999999999993
 74
0
 49
-6.3499999999999996
 74
0
  0
LTYPE
  5
55
100
AcDbSymbolTableRecord
100
AcDbLinetypeTableRecord
  2
ACAD_ISO14W100
 70
0
  3
ISO dash triple-dot __ . . . __ . . . __ . . . _
 72
65
 73
8
 40
24.0
 49
12.0
 74
0
 49
-3.0
 74
0
 49
0.0
 74
0
 49
-3.0
 74
0
 49
0.0
 74
0
 49
-3.0
 74
0
 49
0.0
 74
0
 49
-3.0
 74
0
  0
LTYPE
  5
15
100
AcDbSymbolTableRecord
100
AcDbLinetypeTableRecord
  2
BYLAYER
 70
0
  3

 72
65
 73
0
 40
0.0
  0
LTYPE
  5
56
100
AcDbSymbolTableRecord
100
AcDbLinetypeTableRecord
  2
PHANTOMX2
 70
0
  3
Phantom (2x) ____________    ____    ____   _
 72
65
 73
6
 40
127.0000000000000142
 49
63.5
 74
0
 49
-12.6999999999999993
 74
0
 49
12.6999999999999993
 74
0
 49
-12.6999999999999993
 74
0
 49
12.6999999999999993
 74
0
 49
-12.6999999999999993
 74
0
  0
LTYPE
  5
14
100
AcDbSymbolTableRecord
100
AcDbLinetypeTableRecord
  2
BYBLOCK
 70
0
  3

 72
65
 73
0
 40
0.0
  0
LTYPE
  5
57
100
AcDbSymbolTableRecord
100
AcDbLinetypeTableRecord
  2
DIVIDEX2
 70
0
  3
Divide (2x) ________  .  .  ________  .  .  _
 72
65
 73
6
 40
63.5
 49
25.3999999999999986
 74
0
 49
-12.6999999999999993
 74
0
 49
0.0
 74
0
 49
-12.6999999999999993
 74
0
 49
0.0
 74
0
 49
-12.6999999999999993
 74
0
  0
LTYPE
  5
58
100
AcDbSymbolTableRecord
100
AcDbLinetypeTableRecord
  2
BORDER
 70
0
  3
Border __ __ . __ __ . __ __ . __ __ . __ __ .
 72
65
 73
6
 40
44.4499999999999957
 49
12.6999999999999993
 74
0
 49
-6.3499999999999996
 74
0
 49
12.6999999999999993
 74
0
 49
-6.3499999999999996
 74
0
 49
0.0
 74
0
 49
-6.3499999999999996
 74
0
  0
LTYPE
  5
59
100
AcDbSymbolTableRecord
100
AcDbLinetypeTableRecord
  2
DIVIDE2
 70
0
  3
Divide (.5x) __..__..__..__..__..__..__..__.._
 72
65
 73
6
 40
15.875
 49
6.3499999999999996
 74
0
 49
-3.1749999999999998
 74
0
 49
0.0
 74
0
 49
-3.1749999999999998
 74
0
 49
0.0
 74
0
 49
-3.1749999999999998
 74
0
  0
LTYPE
  5
5A
100
AcDbSymbolTableRecord
100
AcDbLinetypeTableRecord
  2
DOT
 70
0
  3
Dot . . . . . . . . . . . . . . . . . . . . . . . .
 72
65
 73
2
 40
6.3499999999999996
 49
0.0
 74
0
 49
-6.3499999999999996
 74
0
  0
LTYPE
  5
5B
100
AcDbSymbolTableRecord
100
AcDbLinetypeTableRecord
  2
DASHDOT
 70
0
  3
Dash dot __ . __ . __ . __ . __ . __ . __ . __
 72
65
 73
4
 40
25.3999999999999986
 49
12.6999999999999993
 74
0
 49
-6.3499999999999996
 74
0
 49
0.0
 74
0
 49
-6.3499999999999996
 74
0
  0
LTYPE
  5
5C
100
AcDbSymbolTableRecord
100
AcDbLinetypeTableRecord
  2
FENCELINE1
 70
0
  3
Fenceline circle ----0-----0----0-----0----0-----0--
 72
65
 73
4
 40
36.8299999999999983
 49
6.3499999999999996
 74
0
 49
-2.54
 74
0
 49
-2.54
 74
0
 49
25.3999999999999986
 74
0
  0
LTYPE
  5
5D
100
AcDbSymbolTableRecord
100
AcDbLinetypeTableRecord
  2
BATTING
 70
0
  3
Batting SSSSSSSSSSSSSSSSSSSSSSSSSSSSSSSSSSSSSSSSSSSSSSS
 72
65
 73
4
 40
10.1625399999999999
 49
0.00254
 74
0
 49
-2.54
 74
0
 49
-5.0800000000000001
 74
0
 49
-2.54
 74
0
  0
LTYPE
  5
5E
100
AcDbSymbolTableRecord
100
AcDbLinetypeTableRecord
  2
ACAD_ISO03W100
 70
0
  3
ISO dash space __    __    __    __    __    __
 72
65
 73
2
 40
30.0
 49
12.0
 74
0
 49
-18.0
 74
0
  0
LTYPE
  5
5F
100
AcDbSymbolTableRecord
100
AcDbLinetypeTableRecord
  2
FENCELINE2
 70
0
  3
Fenceline square ----[]-----[]----[]-----[]----[]---
 72
65
 73
4
 40
36.8299999999999983
 49
6.3499999999999996
 74
0
 49
-2.54
 74
0
 49
-2.54
 74
0
 49
25.3999999999999986
 74
0
  0
ENDTAB
  0
TABLE
  2
LAYER
  5
2
100
AcDbSymbolTable
 70
1
  0
LAYER
  5
10
100
AcDbSymbolTableRecord
100
AcDbLayerTableRecord
  2
0
 70
0
 62
7
420
16777215
  6
Continuous
370
25
390
F
  0
ENDTAB
  0
TABLE
  2
STYLE
  5
3
100
AcDbSymbolTable
 70
1
  0
STYLE
  5
60
100
AcDbSymbolTableRecord
100
AcDbTextStyleTableRecord
  2
Standard
 70
0
 40
0.0
 41
1.0
 50
0.0
 71
0
 42
2.5
  3

  4

1001
ACAD
1000
txt
1071
0
  0
ENDTAB
  0
TABLE
  2
VIEW
  5
6
100
AcDbSymbolTable
 70
0
  0
ENDTAB
  0
TABLE
  2
UCS
  5
7
100
AcDbSymbolTable
 70
0
  0
ENDTAB
  0
TABLE
  2
APPID
  5
9
100
AcDbSymbolTable
 70
1
  0
APPID
  5
12
100
AcDbSymbolTableRecord
100
AcDbRegAppTableRecord
  2
ACAD
 70
0
  0
APPID
  5
61
100
AcDbSymbolTableRecord
100
AcDbRegAppTableRecord
  2
QCAD
 70
0
  0
ENDTAB
  0
TABLE
  2
DIMSTYLE
  5
A
100
AcDbSymbolTable
 70
1
100
AcDbDimStyleTable
 71
0
  0
DIMSTYLE
105
27
100
AcDbSymbolTableRecord
100
AcDbDimStyleTableRecord
  2
Standard
 41
0.125
 42
0.03125
 43
3.75
 44
0.0625
 70
0
 73
0
 74
0
 77
1
 78
8
140
0.125
141
2.5
143
0.03937007874016
147
0.03125
171
3
172
1
271
2
272
2
274
3
278
44
283
0
284
8
340
60
  0
ENDTAB
  0
TABLE
  2
BLOCK_RECORD
  5
1
100
AcDbSymbolTable
 70
1
  0
BLOCK_RECORD
  5
1F
100
AcDbSymbolTableRecord
100
AcDbBlockTableRecord
  2
*Model_Space
340
22
  0
BLOCK_RECORD
  5
1B
100
AcDbSymbolTableRecord
100
AcDbBlockTableRecord
  2
*Paper_Space
340
1E
  0
BLOCK_RECORD
  5
23
100
AcDbSymbolTableRecord
100
AcDbBlockTableRecord
  2
*Paper_Space0
340
26
  0
ENDTAB
  0
ENDSEC
  0
SECTION
  2
BLOCKS
  0
BLOCK
  5
20
100
AcDbEntity
  8
0
100
AcDbBlockBegin
  2
*Model_Space
 70
0
 10
0.0
 20
0.0
 30
0.0
  3
*Model_Space
  1

  0
ENDBLK
  5
21
100
AcDbEntity
  8
0
100
AcDbBlockEnd
  0
BLOCK
  5
1C
100
AcDbEntity
 67
1
  8
0
100
AcDbBlockBegin
  2
*Paper_Space
 70
0
 10
0.0
 20
0.0
 30
0.0
  3
*Paper_Space
  1

  0
ENDBLK
  5
1D
100
AcDbEntity
 67
1
  8
0
100
AcDbBlockEnd
  0
BLOCK
  5
24
100
AcDbEntity
  8
0
100
AcDbBlockBegin
  2
*Paper_Space0
 70
0
 10
0.0
 20
0.0
 30
0.0
  3
*Paper_Space0
  1

  0
ENDBLK
  5
25
100
AcDbEntity
  8
0
100
AcDbBlockEnd
  0
ENDSEC
  0
SECTION
  2
ENTITIES
  0
ARC
  5
62
100
AcDbEntity
  8
0
 62
7
420
0
370
-1
 48
1.0
  6
BYLAYER
100
AcDbCircle
 10
1.000000010286854
 20
1.4550841975825417
 30
0.0
 40
0.25
100
AcDbArc
 50
53.3957887070050177
 51
270.0
  0
LINE
  5
63
100
AcDbEntity
100
AcDbLine
  8
0
 62
256
370
-1
 48
1.0
  6
BYLAYER
 10
0.8862214033722883
 20
0.8517599445752063
 30
0.0
 11
0.6570337714547766
 21
1.1961379642330199
 31
0.0
  0
SPLINE
  5
64
  8
0
 62
256
370
-1
 48
1.0
  6
BYLAYER
100
AcDbEntity
100
AcDbSpline
 70
8
 71
2
 72
6
 73
3
 74
0
 40
0.0
 40
0.0
 40
0.0
 40
1.0
 40
1.0
 40
1.0
 10
1.1509117640475282
 20
1.065802808886104
 30
0.0
 10
1.1076038164953204
 20
1.1595292183989847
 30
0.0
 10
1.01807724440431
 20
1.2050841975825421
 30
0.0
  0
LINE
  5
65
100
AcDbEntity
100
AcDbLine
  8
0
 62
256
370
-1
 48
1.0
  6
BYLAYER
 10
1.000000010286854
 20
1.2050841975825421
 30
0.0
 11
1.01807724440431
 21
1.2050841975825421
 31
0.0
  0
LINE
  5
66
100
AcDbEntity
100
AcDbLine
  8
0
 62
256
370
-1
 48
1.0
  6
BYLAYER
 10
1.182329969902284
 20
0.779256301260879
 30
0.0
 11
0.9900000000000223
 21
0.7811214999999997
 31
0.0
  0
SPLINE
  5
67
  8
0
 62
256
370
-1
 48
1.0
  6
BYLAYER
100
AcDbEntity
100
AcDbSpline
 70
8
 71
2
 72
6
 73
3
 74
0
 40
0.0
 40
0.0
 40
0.0
 40
1.0
 40
1.0
 40
1.0
 10
0.8862214033722812
 20
0.8517599445752063
 30
0.0
 10
0.9524999999999925
 20
0.7796281506304389
 30
0.0
 10
0.9900000000000152
 20
0.7811214999999997
 30
0.0
  0
LINE
  5
68
100
AcDbEntity
100
AcDbLine
  8
0
 62
256
370
-1
 48
1.0
  6
BYLAYER
 10
1.1490709805830814
 20
1.6557776100677084
 30
0.0
 11
1.2455194395586027
 21
1.6341956948009235
 31
0.0
  0
LINE
  5
69
100
AcDbEntity
100
AcDbLine
  8
0
 62
256
370
-1
 48
1.0
  6
BYLAYER
 10
1.182329969902284
 20
0.779256301260879
 30
0.0
 11
1.294244896643761
 21
0.7933892527500589
 31
0.0
  0
LINE
  5
6A
100
AcDbEntity
100
AcDbLine
  8
0
 62
256
370
-1
 48
1.0
  6
BYLAYER
 10
1.2000000000000028
 20
1.8999999999999999
 30
0.0
 11
1.2000000000000028
 21
1.8999999999999999
 31
0.0
  0
CIRCLE
  5
6B
100
AcDbEntity
100
AcDbCircle
  8
0
 62
3
420
65280
370
-1
 48
1.0
  6
BYLAYER
 10
-8.0
 20
0.0
 30
0.0
 40
0.25
  0
CIRCLE
  5
6C
100
AcDbEntity
100
AcDbCircle
  8
0
 62
3
420
65280
370
-1
 48
1.0
  6
BYLAYER
 10
-7.0000000102868576
 20
-3.8903524677476198
 30
0.0
 40
0.25
  0
CIRCLE
  5
6D
100
AcDbEntity
100
AcDbCircle
  8
0
 62
3
420
65280
370
-1
 48
1.0
  6
BYLAYER
 10
-6.9999999999999902
 20
-5.4628708518130971
 30
0.0
 40
0.25
  0
CIRCLE
  5
6E
100
AcDbEntity
100
AcDbCircle
  8
0
 62
3
420
65280
370
-1
 48
1.0
  6
BYLAYER
 10
-6.0
 20
0.0
 30
0.0
 40
0.25
  0
CIRCLE
  5
6F
100
AcDbEntity
100
AcDbCircle
  8
0
 62
3
420
65280
370
-1
 48
1.0
  6
BYLAYER
 10
0.9999999999999999
 20
0.9999999999999999
 30
0.0
 40
0.125
  0
LINE
  5
70
100
AcDbEntity
100
AcDbLine
  8
0
 62
7
420
0
370
-1
 48
1.0
  6
BYLAYER
 10
-7.8000000000000078
 20
3.3487686512087254
 30
0.0
 11
-7.8000000000000149
 21
3.3487686512087254
 31
0.0
  0
LINE
  5
71
100
AcDbEntity
100
AcDbLine
  8
0
 62
7
420
0
370
-1
 48
1.0
  6
BYLAYER
 10
-7.8000000000000078
 20
3.3487686512087254
 30
0.0
 11
-7.8000000000000149
 21
3.3487686512087254
 31
0.0
  0
LINE
  5
72
100
AcDbEntity
100
AcDbLine
  8
0
 62
7
420
0
370
-1
 48
1.0
  6
BYLAYER
 10
-5.800000000000006
 20
3.3487686512087258
 30
0.0
 11
-5.8000000000000131
 21
3.3487686512087258
 31
0.0
  0
LINE
  5
73
100
AcDbEntity
100
AcDbLine
  8
0
 62
7
420
0
370
-1
 48
1.0
  6
BYLAYER
 10
-5.800000000000006
 20
3.3487686512087258
 30
0.0
 11
-5.8000000000000131
 21
3.3487686512087258
 31
0.0
  0
LINE
  5
74
100
AcDbEntity
100
AcDbLine
  8
0
 62
7
420
0
370
-1
 48
1.0
  6
BYLAYER
 10
-1.4253252049338494
 20
-0.0366222457634686
 30
0.0
 11
-1.0243956600010886
 21
0.3643072991692966
 31
0.0
  0
LINE
  5
75
100
AcDbEntity
100
AcDbLine
  8
0
 62
7
420
0
370
-1
 48
1.0
  6
BYLAYER
 10
-1.425325204933849
 20
-3.4347631558979277
 30
0.0
 11
-1.0243956600010837
 21
-3.8356927008306929
 31
0.0
  0
LINE
  5
76
100
AcDbEntity
100
AcDbLine
  8
0
 62
7
420
0
370
-1
 48
1.0
  6
BYLAYER
 10
-1.4399999999999991
 20
-0.0366222457634686
 30
0.0
 11
-1.8409295449327625
 21
0.3643072991692966
 31
0.0
  0
LINE
  5
77
100
AcDbEntity
100
AcDbLine
  8
0
 62
7
420
0
370
-1
 48
1.0
  6
BYLAYER
 10
-1.4400000000000017
 20
-3.4347631558979272
 30
0.0
 11
-1.8409295449327669
 21
-3.835692700830692
 31
0.0
  0
LINE
  5
78
100
AcDbEntity
100
AcDbLine
  8
0
 62
256
370
-1
 48
1.0
  6
BYLAYER
 10
-7.5175186614955969
 20
-3.7157381305168014
 30
0.0
 11
-7.6090186614955932
 21
-3.7157381305168005
 31
0.0
  0
LINE
  5
79
100
AcDbEntity
100
AcDbLine
  8
0
 62
3
420
65280
370
-1
 48
1.0
  6
BYLAYER
 10
-7.5175186614955969
 20
-2.2817012091429882
 30
0.0
 11
-7.6090186614955932
 21
-2.2817012091429874
 31
0.0
  0
LINE
  5
7A
100
AcDbEntity
100
AcDbLine
  8
0
 62
3
420
65280
370
-1
 48
1.0
  6
BYLAYER
 10
-7.8767500000000048
 20
2.5576600582941573
 30
0.0
 11
-7.8767500000000048
 21
2.6491600582941537
 31
0.0
  0
LINE
  5
7B
100
AcDbEntity
100
AcDbLine
  8
0
 62
256
370
-1
 48
1.0
  6
BYLAYER
 10
-8.5175186512087411
 20
0.1746143372308193
 30
0.0
 11
-8.6090186512087374
 21
0.1746143372308193
 31
0.0
  0
LINE
  5
7C
100
AcDbEntity
100
AcDbLine
  8
0
 62
7
420
0
370
-1
 48
1.0
  6
BYLAYER
 10
-1.0243956600008963
 20
0.3643072991693748
 30
0.0
 11
-0.7378252049338565
 21
0.3643072991693428
 31
0.0
  0
LINE
  5
7D
100
AcDbEntity
100
AcDbLine
  8
0
 62
7
420
0
370
-1
 48
1.0
  6
BYLAYER
 10
-1.0243956600008914
 20
-3.8356927008307706
 30
0.0
 11
-0.7378252049338565
 21
-3.8356927008307387
 31
0.0
  0
LINE
  5
7E
100
AcDbEntity
100
AcDbLine
  8
0
 62
3
420
65280
370
-1
 48
1.0
  6
BYLAYER
 10
-1.4632499999999977
 20
4.4414018211111674
 30
0.0
 11
-1.4632499999999977
 21
4.3499018211111711
 31
0.0
  0
LINE
  5
7F
100
AcDbEntity
100
AcDbLine
  8
0
 62
3
420
65280
370
-1
 48
1.0
  6
BYLAYER
 10
-2.2932499999999978
 20
4.4414018362587679
 30
0.0
 11
-2.2932499999999978
 21
4.3499018362587716
 31
0.0
  0
LINE
  5
80
100
AcDbEntity
100
AcDbLine
  8
0
 62
256
370
-1
 48
1.0
  6
BYLAYER
 10
-3.1232499999999979
 20
4.4414018514063685
 30
0.0
 11
-3.1232499999999979
 21
4.3499018514063721
 31
0.0
  0
LINE
  5
81
100
AcDbEntity
100
AcDbLine
  8
0
 62
6
420
16711935
370
-1
 48
1.0
  6
BYLAYER
 10
-5.2018665678149878
 20
-2.6192853732551917
 30
0.0
 11
-5.2018665678149878
 21
-2.5277853732551954
 31
0.0
  0
LINE
  5
82
100
AcDbEntity
100
AcDbLine
  8
0
 62
256
370
-1
 48
1.0
  6
BYLAYER
 10
-7.5175186614955969
 20
-3.962238130516798
 30
0.0
 11
-7.609018661495595
 21
-3.962238130516798
 31
0.0
  0
LINE
  5
83
100
AcDbEntity
100
AcDbLine
  8
0
 62
3
420
65280
370
-1
 48
1.0
  6
BYLAYER
 10
-7.5175186614955969
 20
-2.5282012091429849
 30
0.0
 11
-7.609018661495595
 21
-2.5282012091429849
 31
0.0
  0
LINE
  5
84
100
AcDbEntity
100
AcDbLine
  8
0
 62
3
420
65280
370
-1
 48
1.0
  6
BYLAYER
 10
-8.1232500000000023
 20
2.5576600582941573
 30
0.0
 11
-8.1232500000000023
 21
2.6491600582941537
 31
0.0
  0
LINE
  5
85
100
AcDbEntity
100
AcDbLine
  8
0
 62
256
370
-1
 48
1.0
  6
BYLAYER
 10
-8.5175186512087411
 20
-0.0718856627691782
 30
0.0
 11
-8.6090186512087392
 21
-0.0718856627691782
 31
0.0
  0
LINE
  5
86
100
AcDbEntity
100
AcDbLine
  8
0
 62
3
420
65280
370
-1
 48
1.0
  6
BYLAYER
 10
-1.2167500000000002
 20
4.4414018211111657
 30
0.0
 11
-1.2167500000000002
 21
4.3499018211111675
 31
0.0
  0
LINE
  5
87
100
AcDbEntity
100
AcDbLine
  8
0
 62
3
420
65280
370
-1
 48
1.0
  6
BYLAYER
 10
-2.0467500000000003
 20
4.4414018362587671
 30
0.0
 11
-2.0467500000000003
 21
4.3499018362587689
 31
0.0
  0
LINE
  5
88
100
AcDbEntity
100
AcDbLine
  8
0
 62
256
370
-1
 48
1.0
  6
BYLAYER
 10
-2.8767500000000004
 20
4.4414018514063685
 30
0.0
 11
-2.8767500000000004
 21
4.3499018514063703
 31
0.0
  0
LINE
  5
89
100
AcDbEntity
100
AcDbLine
  8
0
 62
6
420
16711935
370
-1
 48
1.0
  6
BYLAYER
 10
-5.4483665678149853
 20
-2.6192853732551917
 30
0.0
 11
-5.4483665678149853
 21
-2.5277853732551954
 31
0.0
  0
LINE
  5
8A
100
AcDbEntity
100
AcDbLine
  8
0
 62
7
420
0
370
-1
 48
1.0
  6
BYLAYER
 10
-8.600000000000005
 20
3.3487686512087254
 30
0.0
 11
-8.7500000000000071
 21
3.1987686512087259
 31
0.0
  0
LINE
  5
8B
100
AcDbEntity
100
AcDbLine
  8
0
 62
7
420
0
370
-1
 48
1.0
  6
BYLAYER
 10
-6.6000000000000032
 20
3.3487686512087258
 30
0.0
 11
-6.7500000000000053
 21
3.1987686512087263
 31
0.0
  0
LINE
  5
8C
100
AcDbEntity
100
AcDbLine
  8
0
 62
7
420
0
370
-1
 48
1.0
  6
BYLAYER
 10
-5.9251165678149844
 20
-1.8281767878989861
 30
0.0
 11
-6.0751165678149865
 21
-1.9781767878989855
 31
0.0
  0
LINE
  5
8D
100
AcDbEntity
100
AcDbLine
  8
0
 62
7
420
0
370
-1
 48
1.0
  6
BYLAYER
 10
-7.4000000000000092
 20
3.3487686512087254
 30
0.0
 11
-7.2500000000000071
 21
3.1987686512087197
 31
0.0
  0
LINE
  5
8E
100
AcDbEntity
100
AcDbLine
  8
0
 62
7
420
0
370
-1
 48
1.0
  6
BYLAYER
 10
-5.4000000000000075
 20
3.3487686512087258
 30
0.0
 11
-5.2500000000000053
 21
3.1987686512087201
 31
0.0
  0
LINE
  5
8F
100
AcDbEntity
100
AcDbLine
  8
0
 62
7
420
0
370
-1
 48
1.0
  6
BYLAYER
 10
-4.7251165678149887
 20
-1.8281767878989861
 30
0.0
 11
-4.5751165678149865
 21
-1.9781767878989918
 31
0.0
  0
LINE
  5
90
100
AcDbEntity
100
AcDbLine
  8
0
 62
7
420
0
370
-1
 48
1.0
  6
BYLAYER
 10
-4.5751165678149865
 20
-3.7031767878989807
 30
0.0
 11
-4.7251165678149887
 21
-3.8531767878989802
 31
0.0
  0
LINE
  5
91
100
AcDbEntity
100
AcDbLine
  8
0
 62
7
420
0
370
-1
 48
1.0
  6
BYLAYER
 10
-4.7251165678149887
 20
-3.8531767878989802
 30
0.0
 11
-5.9251165678149844
 21
-3.8531767878989802
 31
0.0
  0
LINE
  5
92
100
AcDbEntity
100
AcDbLine
  8
0
 62
7
420
0
370
-1
 48
1.0
  6
BYLAYER
 10
-5.9251165678149844
 20
-3.8531767878989802
 30
0.0
 11
-6.0751165678149865
 21
-3.7031767878989781
 31
0.0
  0
LINE
  5
93
100
AcDbEntity
100
AcDbLine
  8
0
 62
7
420
0
370
-1
 48
1.0
  6
BYLAYER
 10
-1.4253252049338494
 20
-2.1856927008306872
 30
0.0
 11
-1.2503252049338567
 21
-1.9606927050344516
 31
0.0
  0
LINE
  5
94
100
AcDbEntity
100
AcDbLine
  8
0
 62
7
420
0
370
-1
 48
1.0
  6
BYLAYER
 10
-1.4253252049338494
 20
-1.2856927176457527
 30
0.0
 11
-1.2503252049338558
 21
-1.5106927134419856
 31
0.0
  0
LINE
  5
95
100
AcDbEntity
100
AcDbLine
  8
0
 62
7
420
0
370
-1
 48
1.0
  6
BYLAYER
 10
-1.4400000000000013
 20
-2.1856927008306863
 30
0.0
 11
-1.6149999999999944
 21
-1.9606927050344529
 31
0.0
  0
LINE
  5
96
100
AcDbEntity
100
AcDbLine
  8
0
 62
7
420
0
370
-1
 48
1.0
  6
BYLAYER
 10
-1.4400000000000017
 20
-1.2856927176457527
 30
0.0
 11
-1.6149999999999949
 21
-1.5106927134419852
 31
0.0
  0
LINE
  5
97
100
AcDbEntity
100
AcDbLine
  8
0
 62
7
420
0
370
-1
 48
1.0
  6
BYLAYER
 10
-1.4253252049338494
 20
-1.2856927176457527
 30
0.0
 11
-1.4253252049338521
 21
-0.0366222457634686
 31
0.0
  0
LINE
  5
98
100
AcDbEntity
100
AcDbLine
  8
0
 62
7
420
0
370
-1
 48
1.0
  6
BYLAYER
 10
-1.4400000000000013
 20
-1.2856927176457518
 30
0.0
 11
-1.4399999999999991
 21
-0.0366222457634686
 31
0.0
  0
LINE
  5
99
100
AcDbEntity
100
AcDbLine
  8
0
 62
7
420
0
370
-1
 48
1.0
  6
BYLAYER
 10
-1.4253252049338494
 20
-2.1856927008306872
 30
0.0
 11
-1.425325204933849
 21
-3.4347631558979277
 31
0.0
  0
LINE
  5
9A
100
AcDbEntity
100
AcDbLine
  8
0
 62
7
420
0
370
-1
 48
1.0
  6
BYLAYER
 10
-1.4400000000000013
 20
-2.1856927008306863
 30
0.0
 11
-1.4400000000000017
 21
-3.4347631558979272
 31
0.0
  0
LINE
  5
9B
100
AcDbEntity
100
AcDbLine
  8
0
 62
7
420
0
370
-1
 48
1.0
  6
BYLAYER
 10
-1.2503252049338576
 20
-1.9606927050344518
 30
0.0
 11
-1.2503252049338558
 21
-1.5106927134419856
 31
0.0
  0
LINE
  5
9C
100
AcDbEntity
100
AcDbLine
  8
0
 62
7
420
0
370
-1
 48
1.0
  6
BYLAYER
 10
-1.6149999999999949
 20
-1.9606927050344511
 30
0.0
 11
-1.6149999999999949
 21
-1.5106927134419852
 31
0.0
  0
ARC
  5
9D
100
AcDbEntity
  8
0
 62
256
370
-1
 48
1.0
  6
BYLAYER
100
AcDbCircle
 10
1.000000010286854
 20
1.4550841975825417
 30
0.0
 40
0.4297429379809823
100
AcDbArc
 50
36.1115237542991707
 51
217.0535199026921873
  0
LINE
  5
9E
100
AcDbEntity
100
AcDbLine
  8
0
 62
256
370
-1
 48
1.0
  6
BYLAYER
 10
1.2455194395586027
 20
1.6341956948009235
 30
0.0
 11
1.3471770237597571
 21
1.7083570031905708
 31
0.0
  0
LINE
  5
9F
100
AcDbEntity
100
AcDbLine
  8
0
 62
7
420
0
370
-1
 48
1.0
  6
BYLAYER
 10
-0.5378252049338559
 20
-3.6356927008307145
 30
0.0
 11
-0.5378252049338568
 21
-2.6856927008306868
 31
0.0
  0
LINE
  5
A0
100
AcDbEntity
100
AcDbLine
  8
0
 62
7
420
0
370
-1
 48
1.0
  6
BYLAYER
 10
-0.537825204933851
 20
0.16430729916932
 30
0.0
 11
-0.5378252049338594
 21
-0.7856927008306864
 31
0.0
  0
LINE
  5
A1
100
AcDbEntity
100
AcDbLine
  8
0
 62
7
420
0
370
-1
 48
1.0
  6
BYLAYER
 10
-2.3274999999999961
 20
-3.6356927008307141
 30
0.0
 11
-2.3274999999999957
 21
-2.6856927008306863
 31
0.0
  0
LINE
  5
A2
100
AcDbEntity
100
AcDbLine
  8
0
 62
7
420
0
370
-1
 48
1.0
  6
BYLAYER
 10
-2.3274999999999997
 20
0.1643072991693204
 30
0.0
 11
-2.3274999999999917
 21
-0.785692700830686
 31
0.0
  0
LINE
  5
A3
100
AcDbEntity
100
AcDbLine
  8
0
 62
7
420
0
370
-1
 48
1.0
  6
BYLAYER
 10
-8.7500000000000071
 20
-0.6411940463738075
 30
0.0
 11
-8.7500000000000071
 21
3.1987686512087259
 31
0.0
  0
LINE
  5
A4
100
AcDbEntity
100
AcDbLine
  8
0
 62
7
420
0
370
-1
 48
1.0
  6
BYLAYER
 10
-7.2500000000000071
 20
-0.6411940463738075
 30
0.0
 11
-7.2500000000000071
 21
3.198768651208725
 31
0.0
  0
LINE
  5
A5
100
AcDbEntity
100
AcDbLine
  8
0
 62
7
420
0
370
-1
 48
1.0
  6
BYLAYER
 10
-6.7500000000000053
 20
-0.6411940463738066
 30
0.0
 11
-6.7500000000000053
 21
3.1987686512087263
 31
0.0
  0
LINE
  5
A6
100
AcDbEntity
100
AcDbLine
  8
0
 62
7
420
0
370
-1
 48
1.0
  6
BYLAYER
 10
-5.2500000000000053
 20
-0.6411940463738066
 30
0.0
 11
-5.2500000000000053
 21
3.1987686512087254
 31
0.0
  0
LINE
  5
A7
100
AcDbEntity
100
AcDbLine
  8
0
 62
7
420
0
370
-1
 48
1.0
  6
BYLAYER
 10
-0.5378252049338568
 20
-2.6856927008306868
 30
0.0
 11
-0.3378252049338561
 21
-2.4856927008306875
 31
0.0
  0
LINE
  5
A8
100
AcDbEntity
100
AcDbLine
  8
0
 62
7
420
0
370
-1
 48
1.0
  6
BYLAYER
 10
-2.3274999999999957
 20
-2.6856927008306863
 30
0.0
 11
-2.527499999999995
 21
-2.4856927008306871
 31
0.0
  0
LINE
  5
A9
100
AcDbEntity
100
AcDbLine
  8
0
 62
7
420
0
370
-1
 48
1.0
  6
BYLAYER
 10
-0.5378252049338594
 20
-0.7856927008306864
 30
0.0
 11
-0.337825204933857
 21
-0.9856927008306862
 31
0.0
  0
LINE
  5
AA
100
AcDbEntity
100
AcDbLine
  8
0
 62
7
420
0
370
-1
 48
1.0
  6
BYLAYER
 10
-2.3274999999999917
 20
-0.785692700830686
 30
0.0
 11
-2.5274999999999941
 21
-0.9856927008306862
 31
0.0
  0
LINE
  5
AB
100
AcDbEntity
100
AcDbLine
  8
0
 62
7
420
0
370
-1
 48
1.0
  6
BYLAYER
 10
-0.537825204933851
 20
0.16430729916932
 30
0.0
 11
-0.7378252049338565
 21
0.3643072991693428
 31
0.0
  0
LINE
  5
AC
100
AcDbEntity
100
AcDbLine
  8
0
 62
7
420
0
370
-1
 48
1.0
  6
BYLAYER
 10
-0.5378252049338559
 20
-3.6356927008307145
 30
0.0
 11
-0.7378252049338565
 21
-3.8356927008307387
 31
0.0
  0
LINE
  5
AD
100
AcDbEntity
100
AcDbLine
  8
0
 62
7
420
0
370
-1
 48
1.0
  6
BYLAYER
 10
-7.5500000000000078
 20
-1.0637313487912623
 30
0.0
 11
-7.4500000000000064
 21
-0.9637313487912609
 31
0.0
  0
LINE
  5
AE
100
AcDbEntity
100
AcDbLine
  8
0
 62
7
420
0
370
-1
 48
1.0
  6
BYLAYER
 10
-0.6378252049338586
 20
-1.2856927008306864
 30
0.0
 11
-0.537825204933855
 21
-1.1856927008306859
 31
0.0
  0
LINE
  5
AF
100
AcDbEntity
100
AcDbLine
  8
0
 62
7
420
0
370
-1
 48
1.0
  6
BYLAYER
 10
-5.550000000000006
 20
-1.0637313487912623
 30
0.0
 11
-5.4500000000000064
 21
-0.9637313487912609
 31
0.0
  0
LINE
  5
B0
100
AcDbEntity
100
AcDbLine
  8
0
 62
7
420
0
370
-1
 48
1.0
  6
BYLAYER
 10
-7.4500000000000064
 20
-0.9637313487912609
 30
0.0
 11
-7.4500000000000064
 21
-0.8637313487912621
 31
0.0
  0
LINE
  5
B1
100
AcDbEntity
100
AcDbLine
  8
0
 62
7
420
0
370
-1
 48
1.0
  6
BYLAYER
 10
-0.537825204933855
 20
-1.1856927008306859
 30
0.0
 11
-0.4378252049338567
 21
-1.1856927008306859
 31
0.0
  0
LINE
  5
B2
100
AcDbEntity
100
AcDbLine
  8
0
 62
7
420
0
370
-1
 48
1.0
  6
BYLAYER
 10
-5.4500000000000064
 20
-0.9637313487912609
 30
0.0
 11
-5.4500000000000064
 21
-0.8637313487912612
 31
0.0
  0
LINE
  5
B3
100
AcDbEntity
100
AcDbLine
  8
0
 62
7
420
0
370
-1
 48
1.0
  6
BYLAYER
 10
-7.4500000000000064
 20
-0.8637313487912621
 30
0.0
 11
-7.6500000000000075
 21
-0.7637313487912616
 31
0.0
  0
LINE
  5
B4
100
AcDbEntity
100
AcDbLine
  8
0
 62
7
420
0
370
-1
 48
1.0
  6
BYLAYER
 10
-0.4378252049338567
 20
-1.1856927008306859
 30
0.0
 11
-0.3378252049338561
 21
-1.3856927008306861
 31
0.0
  0
LINE
  5
B5
100
AcDbEntity
100
AcDbLine
  8
0
 62
7
420
0
370
-1
 48
1.0
  6
BYLAYER
 10
-5.4500000000000064
 20
-0.8637313487912612
 30
0.0
 11
-5.6500000000000075
 21
-0.7637313487912607
 31
0.0
  0
LINE
  5
B6
100
AcDbEntity
100
AcDbLine
  8
0
 62
7
420
0
370
-1
 48
1.0
  6
BYLAYER
 10
-7.6500000000000075
 20
-0.7637313487912616
 30
0.0
 11
-7.6500000000000075
 21
-0.6411940463738075
 31
0.0
  0
LINE
  5
B7
100
AcDbEntity
100
AcDbLine
  8
0
 62
7
420
0
370
-1
 48
1.0
  6
BYLAYER
 10
-0.3378252049338561
 20
-1.3856927008306861
 30
0.0
 11
-0.215287902516403
 21
-1.3856927008306865
 31
0.0
  0
LINE
  5
B8
100
AcDbEntity
100
AcDbLine
  8
0
 62
7
420
0
370
-1
 48
1.0
  6
BYLAYER
 10
-5.6500000000000075
 20
-0.7637313487912607
 30
0.0
 11
-5.6500000000000075
 21
-0.6411940463738066
 31
0.0
  0
LINE
  5
B9
100
AcDbEntity
100
AcDbLine
  8
0
 62
7
420
0
370
-1
 48
1.0
  6
BYLAYER
 10
-8.3500000000000068
 20
-0.6411940463738075
 30
0.0
 11
-8.3500000000000068
 21
-0.7637313487912616
 31
0.0
  0
LINE
  5
BA
100
AcDbEntity
100
AcDbLine
  8
0
 62
7
420
0
370
-1
 48
1.0
  6
BYLAYER
 10
-0.2152879025164021
 20
-2.0856927008306854
 30
0.0
 11
-0.3378252049338561
 21
-2.0856927008306849
 31
0.0
  0
LINE
  5
BB
100
AcDbEntity
100
AcDbLine
  8
0
 62
7
420
0
370
-1
 48
1.0
  6
BYLAYER
 10
-6.3500000000000068
 20
-0.6411940463738066
 30
0.0
 11
-6.3500000000000068
 21
-0.7637313487912607
 31
0.0
  0
LINE
  5
BC
100
AcDbEntity
100
AcDbLine
  8
0
 62
7
420
0
370
-1
 48
1.0
  6
BYLAYER
 10
-8.3500000000000068
 20
-0.7637313487912616
 30
0.0
 11
-8.5500000000000078
 21
-0.8637313487912621
 31
0.0
  0
LINE
  5
BD
100
AcDbEntity
100
AcDbLine
  8
0
 62
7
420
0
370
-1
 48
1.0
  6
BYLAYER
 10
-0.3378252049338561
 20
-2.0856927008306849
 30
0.0
 11
-0.4378252049338567
 21
-2.2856927008306847
 31
0.0
  0
LINE
  5
BE
100
AcDbEntity
100
AcDbLine
  8
0
 62
7
420
0
370
-1
 48
1.0
  6
BYLAYER
 10
-6.3500000000000068
 20
-0.7637313487912607
 30
0.0
 11
-6.550000000000006
 21
-0.8637313487912612
 31
0.0
  0
LINE
  5
BF
100
AcDbEntity
100
AcDbLine
  8
0
 62
7
420
0
370
-1
 48
1.0
  6
BYLAYER
 10
-8.5500000000000078
 20
-0.8637313487912621
 30
0.0
 11
-8.5500000000000078
 21
-0.9637313487912609
 31
0.0
  0
LINE
  5
C0
100
AcDbEntity
100
AcDbLine
  8
0
 62
7
420
0
370
-1
 48
1.0
  6
BYLAYER
 10
-0.4378252049338567
 20
-2.2856927008306847
 30
0.0
 11
-0.5378252049338563
 21
-2.2856927008306851
 31
0.0
  0
LINE
  5
C1
100
AcDbEntity
100
AcDbLine
  8
0
 62
7
420
0
370
-1
 48
1.0
  6
BYLAYER
 10
-6.550000000000006
 20
-0.8637313487912612
 30
0.0
 11
-6.550000000000006
 21
-0.9637313487912609
 31
0.0
  0
LINE
  5
C2
100
AcDbEntity
100
AcDbLine
  8
0
 62
7
420
0
370
-1
 48
1.0
  6
BYLAYER
 10
-8.5500000000000078
 20
-0.9637313487912609
 30
0.0
 11
-8.4500000000000064
 21
-1.0637313487912623
 31
0.0
  0
LINE
  5
C3
100
AcDbEntity
100
AcDbLine
  8
0
 62
7
420
0
370
-1
 48
1.0
  6
BYLAYER
 10
-0.5378252049338563
 20
-2.2856927008306851
 30
0.0
 11
-0.637825204933856
 21
-2.1856927008306868
 31
0.0
  0
LINE
  5
C4
100
AcDbEntity
100
AcDbLine
  8
0
 62
7
420
0
370
-1
 48
1.0
  6
BYLAYER
 10
-6.550000000000006
 20
-0.9637313487912609
 30
0.0
 11
-6.4500000000000064
 21
-1.0637313487912623
 31
0.0
  0
LINE
  5
C5
100
AcDbEntity
100
AcDbLine
  8
0
 62
7
420
0
370
-1
 48
1.0
  6
BYLAYER
 10
-8.4500000000000064
 20
-1.0637313487912623
 30
0.0
 11
-7.5500000000000078
 21
-1.0637313487912623
 31
0.0
  0
LINE
  5
C6
100
AcDbEntity
100
AcDbLine
  8
0
 62
7
420
0
370
-1
 48
1.0
  6
BYLAYER
 10
-0.637825204933856
 20
-2.1856927008306868
 30
0.0
 11
-0.6378252049338586
 21
-1.2856927008306864
 31
0.0
  0
LINE
  5
C7
100
AcDbEntity
100
AcDbLine
  8
0
 62
7
420
0
370
-1
 48
1.0
  6
BYLAYER
 10
-6.4500000000000064
 20
-1.0637313487912623
 30
0.0
 11
-5.550000000000006
 21
-1.0637313487912623
 31
0.0
  0
LINE
  5
C8
100
AcDbEntity
100
AcDbLine
  8
0
 62
7
420
0
370
-1
 48
1.0
  6
BYLAYER
 10
-7.6500000000000075
 20
-0.6411940463738075
 30
0.0
 11
-7.2500000000000071
 21
-0.6411940463738075
 31
0.0
  0
LINE
  5
C9
100
AcDbEntity
100
AcDbLine
  8
0
 62
7
420
0
370
-1
 48
1.0
  6
BYLAYER
 10
-0.215287902516403
 20
-1.3856927008306865
 30
0.0
 11
-0.2152879025164012
 21
-0.9856927008306857
 31
0.0
  0
LINE
  5
CA
100
AcDbEntity
100
AcDbLine
  8
0
 62
7
420
0
370
-1
 48
1.0
  6
BYLAYER
 10
-5.6500000000000075
 20
-0.6411940463738066
 30
0.0
 11
-5.2500000000000053
 21
-0.6411940463738066
 31
0.0
  0
LINE
  5
CB
100
AcDbEntity
100
AcDbLine
  8
0
 62
7
420
0
370
-1
 48
1.0
  6
BYLAYER
 10
-8.3500000000000068
 20
-0.6411940463738075
 30
0.0
 11
-8.7500000000000071
 21
-0.6411940463738075
 31
0.0
  0
LINE
  5
CC
100
AcDbEntity
100
AcDbLine
  8
0
 62
7
420
0
370
-1
 48
1.0
  6
BYLAYER
 10
-0.2152879025164021
 20
-2.0856927008306854
 30
0.0
 11
-0.2152879025164021
 21
-2.4856927008306875
 31
0.0
  0
LINE
  5
CD
100
AcDbEntity
100
AcDbLine
  8
0
 62
7
420
0
370
-1
 48
1.0
  6
BYLAYER
 10
-6.3500000000000068
 20
-0.6411940463738066
 30
0.0
 11
-6.7500000000000053
 21
-0.6411940463738066
 31
0.0
  0
LINE
  5
CE
100
AcDbEntity
100
AcDbLine
  8
0
 62
7
420
0
370
-1
 48
1.0
  6
BYLAYER
 10
-0.337825204933857
 20
-0.9856927008306862
 30
0.0
 11
-0.2152879025164012
 21
-0.9856927008306857
 31
0.0
  0
LINE
  5
CF
100
AcDbEntity
100
AcDbLine
  8
0
 62
7
420
0
370
-1
 48
1.0
  6
BYLAYER
 10
-0.3378252049338561
 20
-2.4856927008306875
 30
0.0
 11
-0.2152879025164021
 21
-2.4856927008306875
 31
0.0
  0
LINE
  5
D0
100
AcDbEntity
100
AcDbLine
  8
0
 62
256
370
-1
 48
1.0
  6
BYLAYER
 10
-7.7500000102868718
 20
-3.0980924939563437
 30
0.0
 11
-6.2500000102868718
 21
-3.0980924939563437
 31
0.0
  0
LINE
  5
D1
100
AcDbEntity
100
AcDbLine
  8
0
 62
256
370
-1
 48
1.0
  6
BYLAYER
 10
-7.3500000102868626
 20
-4.5315465141214277
 30
0.0
 11
-7.6000000102868643
 21
-4.0478338165388852
 31
0.0
  0
LINE
  5
D2
100
AcDbEntity
100
AcDbLine
  8
0
 62
256
370
-1
 48
1.0
  6
BYLAYER
 10
-6.6500000102868633
 20
-4.5315465141214277
 30
0.0
 11
-6.4000000102868633
 21
-4.0478338165388852
 31
0.0
  0
LINE
  5
D3
100
AcDbEntity
100
AcDbLine
  8
0
 62
7
420
0
370
-1
 48
1.0
  6
BYLAYER
 10
-2.6500373024174482
 20
-2.0856927008306849
 30
0.0
 11
-3.1337499999999898
 21
-2.3356927008306867
 31
0.0
  0
LINE
  5
D4
100
AcDbEntity
100
AcDbLine
  8
0
 62
7
420
0
370
-1
 48
1.0
  6
BYLAYER
 10
-2.6500373024174482
 20
-1.3856927008306865
 30
0.0
 11
-3.1337499999999898
 21
-1.1356927008306852
 31
0.0
  0
LINE
  5
D5
100
AcDbEntity
100
AcDbLine
  8
0
 62
256
370
-1
 48
1.0
  6
BYLAYER
 10
-7.3499999999999952
 20
-6.1040648981869046
 30
0.0
 11
-7.599999999999997
 21
-5.620352200604362
 31
0.0
  0
LINE
  5
D6
100
AcDbEntity
100
AcDbLine
  8
0
 62
256
370
-1
 48
1.0
  6
BYLAYER
 10
-6.6499999999999959
 20
-6.1040648981869046
 30
0.0
 11
-6.3999999999999959
 21
-5.620352200604362
 31
0.0
  0
LINE
  5
D7
100
AcDbEntity
100
AcDbLine
  8
0
 62
256
370
-1
 48
1.0
  6
BYLAYER
 10
-7.6000000102868643
 20
-4.0478338165388852
 30
0.0
 11
-7.7500000102868629
 21
-4.0478338165388852
 31
0.0
  0
LINE
  5
D8
100
AcDbEntity
100
AcDbLine
  8
0
 62
256
370
-1
 48
1.0
  6
BYLAYER
 10
-6.4000000102868633
 20
-4.0478338165388852
 30
0.0
 11
-6.2500000102868629
 21
-4.0478338165388852
 31
0.0
  0
LINE
  5
D9
100
AcDbEntity
100
AcDbLine
  8
0
 62
7
420
0
370
-1
 48
1.0
  6
BYLAYER
 10
-3.1337499999999898
 20
-2.3356927008306867
 30
0.0
 11
-3.1337499999999898
 21
-2.4856927008306871
 31
0.0
  0
LINE
  5
DA
100
AcDbEntity
100
AcDbLine
  8
0
 62
7
420
0
370
-1
 48
1.0
  6
BYLAYER
 10
-3.1337499999999898
 20
-1.1356927008306852
 30
0.0
 11
-3.1337499999999898
 21
-0.9856927008306862
 31
0.0
  0
LINE
  5
DB
100
AcDbEntity
100
AcDbLine
  8
0
 62
256
370
-1
 48
1.0
  6
BYLAYER
 10
-7.599999999999997
 20
-5.620352200604362
 30
0.0
 11
-7.7499999999999956
 21
-5.620352200604362
 31
0.0
  0
LINE
  5
DC
100
AcDbEntity
100
AcDbLine
  8
0
 62
256
370
-1
 48
1.0
  6
BYLAYER
 10
-6.3999999999999959
 20
-5.620352200604362
 30
0.0
 11
-6.2499999999999956
 21
-5.620352200604362
 31
0.0
  0
LINE
  5
DD
100
AcDbEntity
100
AcDbLine
  8
0
 62
7
420
0
370
-1
 48
1.0
  6
BYLAYER
 10
-3.1337499999999898
 20
-2.4856927008306871
 30
0.0
 11
-2.527499999999995
 21
-2.4856927008306871
 31
0.0
  0
LINE
  5
DE
100
AcDbEntity
100
AcDbLine
  8
0
 62
7
420
0
370
-1
 48
1.0
  6
BYLAYER
 10
-3.1337499999999898
 20
-0.9856927008306862
 30
0.0
 11
-2.5274999999999941
 21
-0.9856927008306862
 31
0.0
  0
LINE
  5
DF
100
AcDbEntity
100
AcDbLine
  8
0
 62
256
370
-1
 48
1.0
  6
BYLAYER
 10
-7.3500000102868626
 20
-4.5315465141214277
 30
0.0
 11
-6.6500000102868633
 21
-4.5315465141214277
 31
0.0
  0
LINE
  5
E0
100
AcDbEntity
100
AcDbLine
  8
0
 62
7
420
0
370
-1
 48
1.0
  6
BYLAYER
 10
-2.6500373024174482
 20
-2.0856927008306849
 30
0.0
 11
-2.6500373024174482
 21
-1.3856927008306865
 31
0.0
  0
LINE
  5
E1
100
AcDbEntity
100
AcDbLine
  8
0
 62
256
370
-1
 48
1.0
  6
BYLAYER
 10
-7.3499999999999952
 20
-6.1040648981869046
 30
0.0
 11
-6.6499999999999959
 21
-6.1040648981869046
 31
0.0
  0
LINE
  5
E2
100
AcDbEntity
100
AcDbLine
  8
0
 62
256
370
-1
 48
1.0
  6
BYLAYER
 10
1.1509117640475282
 20
1.065802808886104
 30
0.0
 11
1.294244896643761
 21
0.7933892527500589
 31
0.0
  0
CIRCLE
  5
E3
100
AcDbEntity
100
AcDbCircle
  8
0
 62
3
420
65280
370
-1
 48
1.0
  6
BYLAYER
 10
-0.7378252049338565
 20
-0.3106927008306832
 30
0.0
 40
0.05105
  0
CIRCLE
  5
E4
100
AcDbEntity
100
AcDbCircle
  8
0
 62
3
420
65280
370
-1
 48
1.0
  6
BYLAYER
 10
-0.7378252049338556
 20
-3.1606927008307011
 30
0.0
 40
0.05105
  0
CIRCLE
  5
E5
100
AcDbEntity
100
AcDbCircle
  8
0
 62
3
420
65280
370
-1
 48
1.0
  6
BYLAYER
 10
-8.6000000000000068
 20
-0.4574813487912657
 30
0.0
 40
0.05105
  0
CIRCLE
  5
E6
100
AcDbEntity
100
AcDbCircle
  8
0
 62
3
420
65280
370
-1
 48
1.0
  6
BYLAYER
 10
-6.6000000000000068
 20
-0.4574813487912657
 30
0.0
 40
0.05105
  0
CIRCLE
  5
E7
100
AcDbEntity
100
AcDbCircle
  8
0
 62
3
420
65280
370
-1
 48
1.0
  6
BYLAYER
 10
-7.4000000000000057
 20
-0.4574813487912657
 30
0.0
 40
0.05105
  0
CIRCLE
  5
E8
100
AcDbEntity
100
AcDbCircle
  8
0
 62
3
420
65280
370
-1
 48
1.0
  6
BYLAYER
 10
-5.4000000000000057
 20
-0.4574813487912657
 30
0.0
 40
0.05105
  0
CIRCLE
  5
E9
100
AcDbEntity
100
AcDbCircle
  8
0
 62
3
420
65280
370
-1
 48
1.0
  6
BYLAYER
 10
-7.9999999897131424
 20
0.4563155463738067
 30
0.0
 40
0.05105
  0
CIRCLE
  5
EA
100
AcDbEntity
100
AcDbCircle
  8
0
 62
3
420
65280
370
-1
 48
1.0
  6
BYLAYER
 10
-5.9999999897131424
 20
0.4563155463738071
 30
0.0
 40
0.05105
  0
CIRCLE
  5
EB
100
AcDbEntity
100
AcDbCircle
  8
0
 62
3
420
65280
370
-1
 48
1.0
  6
BYLAYER
 10
-7.0
 20
-3.4340369213738131
 30
0.0
 40
0.05105
  0
CIRCLE
  5
EC
100
AcDbEntity
100
AcDbCircle
  8
0
 62
3
420
65280
370
-1
 48
1.0
  6
BYLAYER
 10
-6.9999999897131326
 20
-5.0065553054392904
 30
0.0
 40
0.05105
  0
CIRCLE
  5
ED
100
AcDbEntity
100
AcDbCircle
  8
0
 62
256
370
-1
 48
1.0
  6
BYLAYER
 10
0.9999999999999999
 20
0.9999999999999999
 30
0.0
 40
0.05105
  0
CIRCLE
  5
EE
100
AcDbEntity
100
AcDbCircle
  8
0
 62
3
420
65280
370
-1
 48
1.0
  6
BYLAYER
 10
-7.0
 20
-2.0
 30
0.0
 40
0.05105
  0
CIRCLE
  5
EF
100
AcDbEntity
100
AcDbCircle
  8
0
 62
3
420
65280
370
-1
 48
1.0
  6
BYLAYER
 10
-7.6000000102868661
 20
-2.9137968951650723
 30
0.0
 40
0.05105
  0
CIRCLE
  5
F0
100
AcDbEntity
100
AcDbCircle
  8
0
 62
3
420
65280
370
-1
 48
1.0
  6
BYLAYER
 10
-6.4000000102868633
 20
-2.9137968951650723
 30
0.0
 40
0.05105
  0
CIRCLE
  5
F1
100
AcDbEntity
100
AcDbCircle
  8
0
 62
3
420
65280
370
-1
 48
1.0
  6
BYLAYER
 10
-8.5000000000000107
 20
2.5987686512087254
 30
0.0
 40
0.05105
  0
CIRCLE
  5
F2
100
AcDbEntity
100
AcDbCircle
  8
0
 62
3
420
65280
370
-1
 48
1.0
  6
BYLAYER
 10
-6.5000000000000089
 20
2.5987686512087258
 30
0.0
 40
0.05105
  0
CIRCLE
  5
F3
100
AcDbEntity
100
AcDbCircle
  8
0
 62
3
420
65280
370
-1
 48
1.0
  6
BYLAYER
 10
-5.8251165678149901
 20
-2.5781767878989861
 30
0.0
 40
0.05105
  0
CIRCLE
  5
F4
100
AcDbEntity
100
AcDbCircle
  8
0
 62
3
420
65280
370
-1
 48
1.0
  6
BYLAYER
 10
-3.7099999999999991
 20
1.9876245451635461
 30
0.0
 40
0.05105
  0
CIRCLE
  5
F5
100
AcDbEntity
100
AcDbCircle
  8
0
 62
3
420
65280
370
-1
 48
1.0
  6
BYLAYER
 10
-4.2899999999999991
 20
1.9876245451635461
 30
0.0
 40
0.05105
  0
CIRCLE
  5
F6
100
AcDbEntity
100
AcDbCircle
  8
0
 62
3
420
65280
370
-1
 48
1.0
  6
BYLAYER
 10
-7.5000000000000107
 20
2.5987686512087254
 30
0.0
 40
0.05105
  0
CIRCLE
  5
F7
100
AcDbEntity
100
AcDbCircle
  8
0
 62
3
420
65280
370
-1
 48
1.0
  6
BYLAYER
 10
-7.7100000000000026
 20
2.6034100582941564
 30
0.0
 40
0.05105
  0
CIRCLE
  5
F8
100
AcDbEntity
100
AcDbCircle
  8
0
 62
3
420
65280
370
-1
 48
1.0
  6
BYLAYER
 10
-8.2900000000000027
 20
2.6034100582941564
 30
0.0
 40
0.05105
  0
CIRCLE
  5
F9
100
AcDbEntity
100
AcDbCircle
  8
0
 62
6
420
16711935
370
-1
 48
1.0
  6
BYLAYER
 10
-1.0499999999999976
 20
3.9074999697047983
 30
0.0
 40
0.05105
  0
CIRCLE
  5
FA
100
AcDbEntity
100
AcDbCircle
  8
0
 62
6
420
16711935
370
-1
 48
1.0
  6
BYLAYER
 10
-1.6299999999999981
 20
3.9074999697047983
 30
0.0
 40
0.05105
  0
CIRCLE
  5
FB
100
AcDbEntity
100
AcDbCircle
  8
0
 62
3
420
65280
370
-1
 48
1.0
  6
BYLAYER
 10
-5.5000000000000089
 20
2.5987686512087258
 30
0.0
 40
0.05105
  0
CIRCLE
  5
FC
100
AcDbEntity
100
AcDbCircle
  8
0
 62
3
420
65280
370
-1
 48
1.0
  6
BYLAYER
 10
-4.8251165678149901
 20
-2.5781767878989861
 30
0.0
 40
0.05105
  0
CIRCLE
  5
FD
100
AcDbEntity
100
AcDbCircle
  8
0
 62
6
420
16711935
370
-1
 48
1.0
  6
BYLAYER
 10
-5.7100000000000044
 20
2.6034100658525183
 30
0.0
 40
0.05105
  0
CIRCLE
  5
FE
100
AcDbEntity
100
AcDbCircle
  8
0
 62
6
420
16711935
370
-1
 48
1.0
  6
BYLAYER
 10
-6.2900000000000045
 20
2.6034100658525183
 30
0.0
 40
0.05105
  0
CIRCLE
  5
FF
100
AcDbEntity
100
AcDbCircle
  8
0
 62
6
420
16711935
370
-1
 48
1.0
  6
BYLAYER
 10
-5.0351165678149856
 20
-2.5735353732551935
 30
0.0
 40
0.05105
  0
CIRCLE
  5
100
100
AcDbEntity
100
AcDbCircle
  8
0
 62
6
420
16711935
370
-1
 48
1.0
  6
BYLAYER
 10
-5.6151165678149857
 20
-2.5735353732551935
 30
0.0
 40
0.05105
  0
CIRCLE
  5
101
100
AcDbEntity
100
AcDbCircle
  8
0
 62
6
420
16711935
370
-1
 48
1.0
  6
BYLAYER
 10
-1.8799999999999979
 20
3.9074999848523988
 30
0.0
 40
0.05105
  0
CIRCLE
  5
102
100
AcDbEntity
100
AcDbCircle
  8
0
 62
6
420
16711935
370
-1
 48
1.0
  6
BYLAYER
 10
-2.4599999999999982
 20
3.9074999848523988
 30
0.0
 40
0.05105
  0
CIRCLE
  5
103
100
AcDbEntity
100
AcDbCircle
  8
0
 62
6
420
16711935
370
-1
 48
1.0
  6
BYLAYER
 10
-2.7099999999999982
 20
3.9074999999999993
 30
0.0
 40
0.05105
  0
CIRCLE
  5
104
100
AcDbEntity
100
AcDbCircle
  8
0
 62
6
420
16711935
370
-1
 48
1.0
  6
BYLAYER
 10
-3.2899999999999987
 20
3.9074999999999993
 30
0.0
 40
0.05105
  0
CIRCLE
  5
105
100
AcDbEntity
100
AcDbCircle
  8
0
 62
6
420
16711935
370
-1
 48
1.0
  6
BYLAYER
 10
-3.7099999999999986
 20
3.9999999999999996
 30
0.0
 40
0.05105
  0
CIRCLE
  5
106
100
AcDbEntity
100
AcDbCircle
  8
0
 62
6
420
16711935
370
-1
 48
1.0
  6
BYLAYER
 10
-4.2899999999999991
 20
3.9999999999999996
 30
0.0
 40
0.05105
  0
CIRCLE
  5
107
100
AcDbEntity
100
AcDbCircle
  8
0
 62
3
420
65280
370
-1
 48
1.0
  6
BYLAYER
 10
-2.1274999999999946
 20
-3.1606927008307002
 30
0.0
 40
0.05105
  0
CIRCLE
  5
108
100
AcDbEntity
100
AcDbCircle
  8
0
 62
3
420
65280
370
-1
 48
1.0
  6
BYLAYER
 10
-2.83374999999999
 20
-2.3356927008306867
 30
0.0
 40
0.05105
  0
CIRCLE
  5
109
100
AcDbEntity
100
AcDbCircle
  8
0
 62
3
420
65280
370
-1
 48
1.0
  6
BYLAYER
 10
-2.8337499999999891
 20
-1.1356927008306856
 30
0.0
 40
0.05105
  0
CIRCLE
  5
10A
100
AcDbEntity
100
AcDbCircle
  8
0
 62
3
420
65280
370
-1
 48
1.0
  6
BYLAYER
 10
-2.1274999999999946
 20
-0.3106927008306828
 30
0.0
 40
0.05105
  0
LINE
  5
10B
100
AcDbEntity
100
AcDbLine
  8
0
 62
256
370
-1
 48
1.0
  6
BYLAYER
 10
-6.2500000102868629
 20
-4.0478338165388852
 30
0.0
 11
-6.2500000102868682
 21
-3.3234167177476182
 31
0.0
  0
LINE
  5
10C
100
AcDbEntity
100
AcDbLine
  8
0
 62
256
370
-1
 48
1.0
  6
BYLAYER
 10
-6.2499999999999956
 20
-5.620352200604362
 30
0.0
 11
-6.2500000000000009
 21
-5.0000000000000009
 31
0.0
  0
LINE
  5
10D
100
AcDbEntity
100
AcDbLine
  8
0
 62
7
420
0
370
-1
 48
1.0
  6
BYLAYER
 10
-4.5751165678149865
 20
-1.9781767878989864
 30
0.0
 11
-4.5751165678149865
 21
-3.7031767878989807
 31
0.0
  0
LINE
  5
10E
100
AcDbEntity
100
AcDbLine
  8
0
 62
7
420
0
370
-1
 48
1.0
  6
BYLAYER
 10
-6.0751165678149865
 20
-1.9781767878989855
 30
0.0
 11
-6.0751165678149865
 21
-3.7031767878989781
 31
0.0
  0
CIRCLE
  5
10F
100
AcDbEntity
100
AcDbCircle
  8
0
 62
6
420
16711935
370
-1
 48
1.0
  6
BYLAYER
 10
-6.0000000000000053
 20
2.6034100658525183
 30
0.0
 40
0.2149999999999999
  0
CIRCLE
  5
110
100
AcDbEntity
100
AcDbCircle
  8
0
 62
6
420
16711935
370
-1
 48
1.0
  6
BYLAYER
 10
-1.3399999999999985
 20
3.9074999697047983
 30
0.0
 40
0.2149999999999999
  0
CIRCLE
  5
111
100
AcDbEntity
100
AcDbCircle
  8
0
 62
6
420
16711935
370
-1
 48
1.0
  6
BYLAYER
 10
-2.169999999999999
 20
3.9074999848523988
 30
0.0
 40
0.2149999999999999
  0
CIRCLE
  5
112
100
AcDbEntity
100
AcDbCircle
  8
0
 62
6
420
16711935
370
-1
 48
1.0
  6
BYLAYER
 10
-2.9999999999999991
 20
3.9074999999999993
 30
0.0
 40
0.2149999999999999
  0
CIRCLE
  5
113
100
AcDbEntity
100
AcDbCircle
  8
0
 62
6
420
16711935
370
-1
 48
1.0
  6
BYLAYER
 10
-3.9999999999999996
 20
3.9999999999999996
 30
0.0
 40
0.2149999999999999
  0
LINE
  5
114
100
AcDbEntity
100
AcDbLine
  8
0
 62
3
420
65280
370
-1
 48
1.0
  6
BYLAYER
 10
-8.0510500000000036
 20
2.9827263046968873
 30
0.0
 11
-8.0510500000000036
 21
2.9827263046968873
 31
0.0
  0
LINE
  5
115
100
AcDbEntity
100
AcDbLine
  8
0
 62
3
420
65280
370
-1
 48
1.0
  6
BYLAYER
 10
-7.9489500000000035
 20
2.6491600582941537
 30
0.0
 11
-7.8767500000000048
 21
2.6491600582941537
 31
0.0
  0
LINE
  5
116
100
AcDbEntity
100
AcDbLine
  8
0
 62
256
370
-1
 48
1.0
  6
BYLAYER
 10
-7.6090186614955932
 20
-3.7879381305168009
 30
0.0
 11
-7.6090186614955932
 21
-3.7157381305168005
 31
0.0
  0
LINE
  5
117
100
AcDbEntity
100
AcDbLine
  8
0
 62
3
420
65280
370
-1
 48
1.0
  6
BYLAYER
 10
-8.0510500000000036
 20
2.6491600582941537
 30
0.0
 11
-8.1232500000000023
 21
2.6491600582941537
 31
0.0
  0
LINE
  5
118
100
AcDbEntity
100
AcDbLine
  8
0
 62
256
370
-1
 48
1.0
  6
BYLAYER
 10
-7.6090186614955932
 20
-3.8900381305168001
 30
0.0
 11
-7.609018661495595
 21
-3.962238130516798
 31
0.0
  0
LINE
  5
119
100
AcDbEntity
100
AcDbLine
  8
0
 62
3
420
65280
370
-1
 48
1.0
  6
BYLAYER
 10
-8.0510500000000036
 20
2.5576600582941573
 30
0.0
 11
-8.1232500000000023
 21
2.5576600582941573
 31
0.0
  0
LINE
  5
11A
100
AcDbEntity
100
AcDbLine
  8
0
 62
256
370
-1
 48
1.0
  6
BYLAYER
 10
-7.5175186614955969
 20
-3.8900381305167993
 30
0.0
 11
-7.5175186614955969
 21
-3.962238130516798
 31
0.0
  0
LINE
  5
11B
100
AcDbEntity
100
AcDbLine
  8
0
 62
3
420
65280
370
-1
 48
1.0
  6
BYLAYER
 10
-7.9489500000000017
 20
2.5576600582941573
 30
0.0
 11
-7.8767500000000048
 21
2.5576600582941573
 31
0.0
  0
LINE
  5
11C
100
AcDbEntity
100
AcDbLine
  8
0
 62
256
370
-1
 48
1.0
  6
BYLAYER
 10
-7.5175186614955969
 20
-3.7879381305167974
 30
0.0
 11
-7.5175186614955969
 21
-3.7157381305168014
 31
0.0
  0
LINE
  5
11D
100
AcDbEntity
100
AcDbLine
  8
0
 62
6
420
16711935
370
-1
 48
1.0
  6
BYLAYER
 10
-5.4483665678149853
 20
-2.5277853732551954
 30
0.0
 11
-5.2018665678149878
 21
-2.5277853732551954
 31
0.0
  0
LINE
  5
11E
100
AcDbEntity
100
AcDbLine
  8
0
 62
6
420
16711935
370
-1
 48
1.0
  6
BYLAYER
 10
-5.2018665678149878
 20
-2.6192853732551917
 30
0.0
 11
-5.4483665678149853
 21
-2.6192853732551917
 31
0.0
  0
LINE
  5
11F
100
AcDbEntity
100
AcDbLine
  8
0
 62
7
420
0
370
-1
 48
1.0
  6
BYLAYER
 10
-5.0568417164316619
 20
-1.8281767878989861
 30
0.0
 11
-5.125116567814989
 21
-1.7531767878989868
 31
0.0
  0
LINE
  5
120
100
AcDbEntity
100
AcDbLine
  8
0
 62
7
420
0
370
-1
 48
1.0
  6
BYLAYER
 10
-5.5933914191983112
 20
-1.8281767878989861
 30
0.0
 11
-5.5251165678149876
 21
-1.7531767878989868
 31
0.0
  0
LINE
  5
121
100
AcDbEntity
100
AcDbLine
  8
0
 62
7
420
0
370
-1
 48
1.0
  6
BYLAYER
 10
-7.7317251486166807
 20
3.3487686512087254
 30
0.0
 11
-7.4000000000000092
 21
3.3487686512087254
 31
0.0
  0
LINE
  5
122
100
AcDbEntity
100
AcDbLine
  8
0
 62
7
420
0
370
-1
 48
1.0
  6
BYLAYER
 10
-5.7317251486166789
 20
3.3487686512087258
 30
0.0
 11
-5.4000000000000075
 21
3.3487686512087258
 31
0.0
  0
LINE
  5
123
100
AcDbEntity
100
AcDbLine
  8
0
 62
7
420
0
370
-1
 48
1.0
  6
BYLAYER
 10
-5.0568417164316619
 20
-1.8281767878989861
 30
0.0
 11
-4.7251165678149887
 21
-1.8281767878989861
 31
0.0
  0
LINE
  5
124
100
AcDbEntity
100
AcDbLine
  8
0
 62
7
420
0
370
-1
 48
1.0
  6
BYLAYER
 10
-8.26827485138333
 20
3.3487686512087254
 30
0.0
 11
-8.600000000000005
 21
3.3487686512087254
 31
0.0
  0
LINE
  5
125
100
AcDbEntity
100
AcDbLine
  8
0
 62
7
420
0
370
-1
 48
1.0
  6
BYLAYER
 10
-6.2682748513833282
 20
3.3487686512087258
 30
0.0
 11
-6.6000000000000032
 21
3.3487686512087258
 31
0.0
  0
LINE
  5
126
100
AcDbEntity
100
AcDbLine
  8
0
 62
7
420
0
370
-1
 48
1.0
  6
BYLAYER
 10
-5.5933914191983094
 20
-1.8281767878989861
 30
0.0
 11
-5.9251165678149844
 21
-1.8281767878989861
 31
0.0
  0
LINE
  5
127
100
AcDbEntity
100
AcDbLine
  8
0
 62
7
420
0
370
-1
 48
1.0
  6
BYLAYER
 10
-6.26827485138333
 20
3.3487686512087258
 30
0.0
 11
-6.6000000000000032
 21
3.3487686512087258
 31
0.0
  0
LINE
  5
128
100
AcDbEntity
100
AcDbLine
  8
0
 62
3
420
65280
370
-1
 48
1.0
  6
BYLAYER
 10
-4.3410499999999992
 20
2.2240772911285558
 30
0.0
 11
-4.3410499999999992
 21
1.751171814315259
 31
0.0
  0
LINE
  5
129
100
AcDbEntity
100
AcDbLine
  8
0
 62
7
420
0
370
-1
 48
1.0
  6
BYLAYER
 10
-7.6589500000000026
 20
2.3669573274458822
 30
0.0
 11
-7.6589500000000026
 21
1.688705841289194
 31
0.0
  0
LINE
  5
12A
100
AcDbEntity
100
AcDbLine
  8
0
 62
3
420
65280
370
-1
 48
1.0
  6
BYLAYER
 10
-8.3410500000000027
 20
2.839862804259166
 30
0.0
 11
-8.3410500000000027
 21
2.3669573274458693
 31
0.0
  0
LINE
  5
12B
100
AcDbEntity
100
AcDbLine
  8
0
 62
3
420
65280
370
-1
 48
1.0
  6
BYLAYER
 10
-8.3410500000000027
 20
2.3669573274458693
 30
0.0
 11
-8.3410500000000027
 21
2.3669573274458693
 31
0.0
  0
LINE
  5
12C
100
AcDbEntity
100
AcDbLine
  8
0
 62
7
420
0
370
-1
 48
1.0
  6
BYLAYER
 10
-8.3410500000000027
 20
2.3669573274458693
 30
0.0
 11
-8.3410500000000027
 21
1.6887058412891811
 31
0.0
  0
ARC
  5
12D
100
AcDbEntity
  8
0
 62
3
420
65280
370
-1
 48
1.0
  6
BYLAYER
100
AcDbCircle
 10
-4.0000000000000036
 20
1.9876245527219076
 30
0.0
 40
0.4150000000000002
100
AcDbArc
 50
277.0659685236331597
 51
325.2661156329376126
  0
ARC
  5
12E
100
AcDbEntity
  8
0
 62
3
420
65280
370
-1
 48
1.0
  6
BYLAYER
100
AcDbCircle
 10
-4.0000000000000036
 20
1.9876245376051851
 30
0.0
 40
0.4150000000000002
100
AcDbArc
 50
34.7338843670624087
 51
82.9340314763669681
  0
ARC
  5
12F
100
AcDbEntity
  8
0
 62
3
420
65280
370
-1
 48
1.0
  6
BYLAYER
100
AcDbCircle
 10
-4.0000000000000036
 20
1.9876245376051851
 30
0.0
 40
0.4150000000000002
100
AcDbArc
 50
97.0659685236319376
 51
145.2661156329355663
  0
ARC
  5
130
100
AcDbEntity
  8
0
 62
3
420
65280
370
-1
 48
1.0
  6
BYLAYER
100
AcDbCircle
 10
-4.0000000000000036
 20
1.9876245527219076
 30
0.0
 40
0.4150000000000002
100
AcDbArc
 50
214.7338843670644621
 51
262.9340314763680908
  0
ARC
  5
131
100
AcDbEntity
  8
0
 62
3
420
65280
370
-1
 48
1.0
  6
BYLAYER
100
AcDbCircle
 10
-8.0000000000000071
 20
2.6034100658525179
 30
0.0
 40
0.4150000000000002
100
AcDbArc
 50
277.0659685236331597
 51
325.2661156329376126
  0
ARC
  5
132
100
AcDbEntity
  8
0
 62
3
420
65280
370
-1
 48
1.0
  6
BYLAYER
100
AcDbCircle
 10
-8.0000000000000071
 20
2.6034100507357953
 30
0.0
 40
0.4150000000000002
100
AcDbArc
 50
34.7338843670624087
 51
82.9340314763669681
  0
ARC
  5
133
100
AcDbEntity
  8
0
 62
3
420
65280
370
-1
 48
1.0
  6
BYLAYER
100
AcDbCircle
 10
-8.0000000000000071
 20
2.6034100507357953
 30
0.0
 40
0.4150000000000002
100
AcDbArc
 50
97.0659685236319376
 51
145.2661156329355663
  0
ARC
  5
134
100
AcDbEntity
  8
0
 62
3
420
65280
370
-1
 48
1.0
  6
BYLAYER
100
AcDbCircle
 10
-8.0000000000000071
 20
2.6034100658525179
 30
0.0
 40
0.4150000000000002
100
AcDbArc
 50
214.7338843670644621
 51
262.9340314763680908
  0
ARC
  5
135
100
AcDbEntity
  8
0
 62
7
420
0
370
-1
 48
1.0
  6
BYLAYER
100
AcDbCircle
 10
-8.0000000000000071
 20
1.9251585796958302
 30
0.0
 40
0.4150000000000002
100
AcDbArc
 50
214.7338843670644906
 51
325.266115632937499
  0
ARC
  5
136
100
AcDbEntity
  8
0
 62
3
420
65280
370
-1
 48
1.0
  6
BYLAYER
100
AcDbCircle
 10
-5.3251165678149865
 20
-3.2517868594118813
 30
0.0
 40
0.4150000000000002
100
AcDbArc
 50
180.0000030783246814
 51
0.0000031945284701
  0
CIRCLE
  5
137
100
AcDbEntity
100
AcDbCircle
  8
0
 62
3
420
65280
370
-1
 48
1.0
  6
BYLAYER
 10
-6.0000000000000053
 20
2.6034100658525183
 30
0.0
 40
0.4150000000000002
  0
CIRCLE
  5
138
100
AcDbEntity
100
AcDbCircle
  8
0
 62
3
420
65280
370
-1
 48
1.0
  6
BYLAYER
 10
-5.3251165678149865
 20
-2.5735353732551935
 30
0.0
 40
0.4150000000000002
  0
ARC
  5
139
100
AcDbEntity
  8
0
 62
3
420
65280
370
-1
 48
1.0
  6
BYLAYER
100
AcDbCircle
 10
-6.0000000000000053
 20
1.9251585796958306
 30
0.0
 40
0.4150000000000002
100
AcDbArc
 50
180.0000030783246814
 51
0.0000031945284701
  0
ARC
  5
13A
100
AcDbEntity
  8
0
 62
7
420
0
370
-1
 48
1.0
  6
BYLAYER
100
AcDbCircle
 10
-1.3399999999999985
 20
3.9074999697047983
 30
0.0
 40
0.4150000000000002
100
AcDbArc
 50
179.999998292452716
 51
359.9999979086902044
  0
ARC
  5
13B
100
AcDbEntity
  8
0
 62
7
420
0
370
-1
 48
1.0
  6
BYLAYER
100
AcDbCircle
 10
-2.169999999999999
 20
3.9074999848523988
 30
0.0
 40
0.4150000000000002
100
AcDbArc
 50
179.999998292452716
 51
359.9999979086902044
  0
ARC
  5
13C
100
AcDbEntity
  8
0
 62
7
420
0
370
-1
 48
1.0
  6
BYLAYER
100
AcDbCircle
 10
-2.9999999999999991
 20
3.9074999999999993
 30
0.0
 40
0.4150000000000002
100
AcDbArc
 50
179.999998292452716
 51
359.9999979086902044
  0
CIRCLE
  5
13D
100
AcDbEntity
100
AcDbCircle
  8
0
 62
3
420
65280
370
-1
 48
1.0
  6
BYLAYER
 10
-3.9999999999999996
 20
3.9999999999999996
 30
0.0
 40
0.4150000000000002
  0
LINE
  5
13E
100
AcDbEntity
100
AcDbLine
  8
0
 62
7
420
0
370
-1
 48
1.0
  6
BYLAYER
 10
-5.1251165678149908
 20
-1.7531767878989859
 30
0.0
 11
-5.5251165678149858
 21
-1.7531767878989859
 31
0.0
  0
LINE
  5
13F
100
AcDbEntity
100
AcDbLine
  8
0
 62
3
420
65280
370
-1
 48
1.0
  6
BYLAYER
 10
-4.9101165678149874
 20
-3.2517868362735394
 30
0.0
 11
-4.9101165678149874
 21
-2.5735353501168516
 31
0.0
  0
LINE
  5
140
100
AcDbEntity
100
AcDbLine
  8
0
 62
3
420
65280
370
-1
 48
1.0
  6
BYLAYER
 10
-5.5850000000000062
 20
1.9251586028341721
 30
0.0
 11
-5.5850000000000062
 21
2.6034100889908598
 31
0.0
  0
LINE
  5
141
100
AcDbEntity
100
AcDbLine
  8
0
 62
3
420
65280
370
-1
 48
1.0
  6
BYLAYER
 10
-5.7401165678149857
 20
-3.2517868817085454
 30
0.0
 11
-5.7401165678149857
 21
-2.5735353509585295
 31
0.0
  0
LINE
  5
142
100
AcDbEntity
100
AcDbLine
  8
0
 62
3
420
65280
370
-1
 48
1.0
  6
BYLAYER
 10
-6.4150000000000045
 20
1.9251585573991665
 30
0.0
 11
-6.4150000000000063
 21
2.6034100881491824
 31
0.0
  0
LINE
  5
143
100
AcDbEntity
100
AcDbLine
  8
0
 62
3
420
65280
370
-1
 48
1.0
  6
BYLAYER
 10
-3.94895
 20
1.9418745451635471
 30
0.0
 11
-3.94895
 21
1.5757764041282791
 31
0.0
  0
LINE
  5
144
100
AcDbEntity
100
AcDbLine
  8
0
 62
3
420
65280
370
-1
 48
1.0
  6
BYLAYER
 10
-4.05105
 20
1.9418745451635471
 30
0.0
 11
-4.05105
 21
1.5757764041282791
 31
0.0
  0
LINE
  5
145
100
AcDbEntity
100
AcDbLine
  8
0
 62
256
370
-1
 48
1.0
  6
BYLAYER
 10
-7.5175186614955969
 20
-3.8900381305167993
 30
0.0
 11
-7.4000000102868633
 21
-3.8900381305167993
 31
0.0
  0
LINE
  5
146
100
AcDbEntity
100
AcDbLine
  8
0
 62
3
420
65280
370
-1
 48
1.0
  6
BYLAYER
 10
-7.9489500000000035
 20
2.5576600582941573
 30
0.0
 11
-7.9489500000000035
 21
2.1915619172588894
 31
0.0
  0
LINE
  5
147
100
AcDbEntity
100
AcDbLine
  8
0
 62
3
420
65280
370
-1
 48
1.0
  6
BYLAYER
 10
-8.0510500000000036
 20
2.5576600582941573
 30
0.0
 11
-8.0510500000000036
 21
2.1915619172588894
 31
0.0
  0
LINE
  5
148
100
AcDbEntity
100
AcDbLine
  8
0
 62
256
370
-1
 48
1.0
  6
BYLAYER
 10
-7.5175186614955969
 20
-3.7879381305167992
 30
0.0
 11
-7.4000000102868615
 21
-3.7879381305167992
 31
0.0
  0
LINE
  5
149
100
AcDbEntity
100
AcDbLine
  8
0
 62
3
420
65280
370
-1
 48
1.0
  6
BYLAYER
 10
-3.94895
 20
2.399472686198814
 30
0.0
 11
-3.94895
 21
2.0333745451635434
 31
0.0
  0
LINE
  5
14A
100
AcDbEntity
100
AcDbLine
  8
0
 62
256
370
-1
 48
1.0
  6
BYLAYER
 10
-7.7500000102868647
 20
-3.7879381305167992
 30
0.0
 11
-7.6090186614955932
 21
-3.7879381305168009
 31
0.0
  0
LINE
  5
14B
100
AcDbEntity
100
AcDbLine
  8
0
 62
3
420
65280
370
-1
 48
1.0
  6
BYLAYER
 10
-4.05105
 20
2.3994726861988149
 30
0.0
 11
-4.05105
 21
2.0333745451635434
 31
0.0
  0
LINE
  5
14C
100
AcDbEntity
100
AcDbLine
  8
0
 62
256
370
-1
 48
1.0
  6
BYLAYER
 10
-7.7500000102868647
 20
-3.8900381305168001
 30
0.0
 11
-7.609018661495595
 21
-3.8900381305167993
 31
0.0
  0
LINE
  5
14D
100
AcDbEntity
100
AcDbLine
  8
0
 62
3
420
65280
370
-1
 48
1.0
  6
BYLAYER
 10
-3.658949999999999
 20
1.7511718143152715
 30
0.0
 11
-3.658949999999999
 21
2.2240772760118213
 31
0.0
  0
LINE
  5
14E
100
AcDbEntity
100
AcDbLine
  8
0
 62
3
420
65280
370
-1
 48
1.0
  6
BYLAYER
 10
-7.6589500000000026
 20
2.3669573274458817
 30
0.0
 11
-7.6589500000000026
 21
2.8398627891424315
 31
0.0
  0
LINE
  5
14F
100
AcDbEntity
100
AcDbLine
  8
0
 62
6
420
16711935
370
-1
 48
1.0
  6
BYLAYER
 10
-7.1000000102868626
 20
-3.6612236829998301
 30
0.0
 11
-7.1000000102868626
 21
-3.5909353689563495
 31
0.0
  0
LINE
  5
150
100
AcDbEntity
100
AcDbLine
  8
0
 62
6
420
16711935
370
-1
 48
1.0
  6
BYLAYER
 10
-7.1000000102868626
 20
-4.1194812524954099
 30
0.0
 11
-7.1000000102868626
 21
-4.1909353689563495
 31
0.0
  0
LINE
  5
151
100
AcDbEntity
100
AcDbLine
  8
0
 62
256
370
-1
 48
1.0
  6
BYLAYER
 10
-7.7500000102868629
 20
-4.0478338165388852
 30
0.0
 11
-7.7500000102868647
 21
-3.8900381305168001
 31
0.0
  0
LINE
  5
152
100
AcDbEntity
100
AcDbLine
  8
0
 62
256
370
-1
 48
1.0
  6
BYLAYER
 10
-7.7500000102868647
 20
-3.7879381305167992
 30
0.0
 11
-7.75000001028687
 21
-3.3234167177476173
 31
0.0
  0
LINE
  5
153
100
AcDbEntity
100
AcDbLine
  8
0
 62
256
370
-1
 48
1.0
  6
BYLAYER
 10
-7.5500000102868743
 20
-1.689379796373804
 30
0.0
 11
-6.4500000102868693
 21
-1.689379796373804
 31
0.0
  0
LINE
  5
154
100
AcDbEntity
100
AcDbLine
  8
0
 62
256
370
-1
 48
1.0
  6
BYLAYER
 10
-7.5500000102868725
 20
-3.1234167177476171
 30
0.0
 11
-6.4500000102868693
 21
-3.1234167177476171
 31
0.0
  0
LINE
  5
155
100
AcDbEntity
100
AcDbLine
  8
0
 62
256
370
-1
 48
1.0
  6
BYLAYER
 10
-7.5500000000000052
 20
-4.7999999999999998
 30
0.0
 11
-6.450000000000002
 21
-4.7999999999999998
 31
0.0
  0
LINE
  5
156
100
AcDbEntity
100
AcDbLine
  8
0
 62
6
420
16711935
370
-1
 48
1.0
  6
BYLAYER
 10
-7.0708105409754101
 20
-3.6178115695924569
 30
0.0
 11
-7.03221827155315
 21
-3.6178115695924569
 31
0.0
  0
LINE
  5
157
100
AcDbEntity
100
AcDbLine
  8
0
 62
6
420
16711935
370
-1
 48
1.0
  6
BYLAYER
 10
-7.0734720767976356
 20
-4.1634264131485477
 30
0.0
 11
-7.0268951999087008
 21
-4.1634264131485477
 31
0.0
  0
LINE
  5
158
100
AcDbEntity
100
AcDbLine
  8
0
 62
6
420
16711935
370
-1
 48
1.0
  6
BYLAYER
 10
-7.0000000102868629
 20
-4.1909353689563495
 30
0.0
 11
-7.0000000102868629
 21
-4.1403524677476202
 31
0.0
  0
LINE
  5
159
100
AcDbEntity
100
AcDbLine
  8
0
 62
6
420
16711935
370
-1
 48
1.0
  6
BYLAYER
 10
-7.0000000102868629
 20
-3.6403524677476198
 30
0.0
 11
-7.0000000102868629
 21
-3.5909353689563495
 31
0.0
  0
LINE
  5
15A
100
AcDbEntity
100
AcDbLine
  8
0
 62
6
420
16711935
370
-1
 48
1.0
  6
BYLAYER
 10
-7.0000000102868629
 20
-3.5909353689563495
 30
0.0
 11
-7.3000000102868619
 21
-3.5909353689563495
 31
0.0
  0
LINE
  5
15B
100
AcDbEntity
100
AcDbLine
  8
0
 62
6
420
16711935
370
-1
 48
1.0
  6
BYLAYER
 10
-7.0000000102868629
 20
-4.1909353689563495
 30
0.0
 11
-7.3000000102868619
 21
-4.1909353689563495
 31
0.0
  0
LINE
  5
15C
100
AcDbEntity
100
AcDbLine
  8
0
 62
6
420
16711935
370
-1
 48
1.0
  6
BYLAYER
 10
-7.3000000102868636
 20
-3.9900381305167998
 30
0.0
 11
-7.3000000102868619
 21
-4.1909353689563495
 31
0.0
  0
LINE
  5
15D
100
AcDbEntity
100
AcDbLine
  8
0
 62
6
420
16711935
370
-1
 48
1.0
  6
BYLAYER
 10
-7.4000000102868633
 20
-3.8900381305167993
 30
0.0
 11
-7.3000000102868636
 21
-3.9900381305167998
 31
0.0
  0
LINE
  5
15E
100
AcDbEntity
100
AcDbLine
  8
0
 62
6
420
16711935
370
-1
 48
1.0
  6
BYLAYER
 10
-7.3000000102868619
 20
-3.6879381305167986
 30
0.0
 11
-7.3000000102868619
 21
-3.5909353689563495
 31
0.0
  0
LINE
  5
15F
100
AcDbEntity
100
AcDbLine
  8
0
 62
6
420
16711935
370
-1
 48
1.0
  6
BYLAYER
 10
-7.4000000102868615
 20
-3.7879381305167992
 30
0.0
 11
-7.3000000102868619
 21
-3.6879381305167986
 31
0.0
  0
LINE
  5
160
100
AcDbEntity
100
AcDbLine
  8
0
 62
6
420
16711935
370
-1
 48
1.0
  6
BYLAYER
 10
-7.4000000102868633
 20
-3.8900381305167993
 30
0.0
 11
-7.3500000102868626
 21
-3.8904867497365747
 31
0.0
  0
LINE
  5
161
100
AcDbEntity
100
AcDbLine
  8
0
 62
6
420
16711935
370
-1
 48
1.0
  6
BYLAYER
 10
-7.4000000102868615
 20
-3.7879381305167992
 30
0.0
 11
-7.3500000102868643
 21
-3.7879381305167992
 31
0.0
  0
LINE
  5
162
100
AcDbEntity
100
AcDbLine
  8
0
 62
6
420
16711935
370
-1
 48
1.0
  6
BYLAYER
 10
-7.3500000102868626
 20
-3.7879381305167992
 30
0.0
 11
-7.3500000102868626
 21
-3.8904867497365747
 31
0.0
  0
LINE
  5
163
100
AcDbEntity
100
AcDbLine
  8
0
 62
3
420
65280
370
-1
 48
1.0
  6
BYLAYER
 10
-7.5175186614955969
 20
-2.5282012091429849
 30
0.0
 11
-7.5175186614955969
 21
-2.2817012091429882
 31
0.0
  0
LINE
  5
164
100
AcDbEntity
100
AcDbLine
  8
0
 62
3
420
65280
370
-1
 48
1.0
  6
BYLAYER
 10
-7.6090186614955932
 20
-2.2817012091429874
 30
0.0
 11
-7.609018661495595
 21
-2.5282012091429849
 31
0.0
  0
LINE
  5
165
100
AcDbEntity
100
AcDbLine
  8
0
 62
256
370
-1
 48
1.0
  6
BYLAYER
 10
-8.5175186512087411
 20
-0.0718856627691782
 30
0.0
 11
-8.5175186512087411
 21
0.1746143372308193
 31
0.0
  0
LINE
  5
166
100
AcDbEntity
100
AcDbLine
  8
0
 62
3
420
65280
370
-1
 48
1.0
  6
BYLAYER
 10
-1.2167500000000002
 20
4.4414018211111657
 30
0.0
 11
-1.4632499999999977
 21
4.4414018211111674
 31
0.0
  0
LINE
  5
167
100
AcDbEntity
100
AcDbLine
  8
0
 62
3
420
65280
370
-1
 48
1.0
  6
BYLAYER
 10
-2.0467500000000003
 20
4.4414018362587671
 30
0.0
 11
-2.2932499999999978
 21
4.4414018362587679
 31
0.0
  0
LINE
  5
168
100
AcDbEntity
100
AcDbLine
  8
0
 62
256
370
-1
 48
1.0
  6
BYLAYER
 10
-8.6090186512087392
 20
-0.0718856627691782
 30
0.0
 11
-8.6090186512087374
 21
0.1746143372308193
 31
0.0
  0
LINE
  5
169
100
AcDbEntity
100
AcDbLine
  8
0
 62
3
420
65280
370
-1
 48
1.0
  6
BYLAYER
 10
-1.2167500000000002
 20
4.3499018211111675
 30
0.0
 11
-1.4632499999999977
 21
4.3499018211111711
 31
0.0
  0
LINE
  5
16A
100
AcDbEntity
100
AcDbLine
  8
0
 62
3
420
65280
370
-1
 48
1.0
  6
BYLAYER
 10
-2.0467500000000003
 20
4.3499018362587689
 30
0.0
 11
-2.2932499999999978
 21
4.3499018362587716
 31
0.0
  0
LINE
  5
16B
100
AcDbEntity
100
AcDbLine
  8
0
 62
256
370
-1
 48
1.0
  6
BYLAYER
 10
-6.25000001028687
 20
-1.8893797963738042
 30
0.0
 11
-6.2500000102868736
 21
-3.0980924939563446
 31
0.0
  0
LINE
  5
16C
100
AcDbEntity
100
AcDbLine
  8
0
 62
256
370
-1
 48
1.0
  6
BYLAYER
 10
-7.7500000102868736
 20
-1.8893797963738042
 30
0.0
 11
-7.7500000102868718
 21
-3.0980924939563437
 31
0.0
  0
LINE
  5
16D
100
AcDbEntity
100
AcDbLine
  8
0
 62
256
370
-1
 48
1.0
  6
BYLAYER
 10
-7.7500000102868736
 20
-1.8893797963738042
 30
0.0
 11
-7.5500000102868743
 21
-1.689379796373804
 31
0.0
  0
LINE
  5
16E
100
AcDbEntity
100
AcDbLine
  8
0
 62
256
370
-1
 48
1.0
  6
BYLAYER
 10
-6.4500000102868693
 20
-1.689379796373804
 30
0.0
 11
-6.25000001028687
 21
-1.8893797963738042
 31
0.0
  0
LINE
  5
16F
100
AcDbEntity
100
AcDbLine
  8
0
 62
256
370
-1
 48
1.0
  6
BYLAYER
 10
-7.75000001028687
 20
-3.3234167177476173
 30
0.0
 11
-7.5500000102868725
 21
-3.1234167177476171
 31
0.0
  0
LINE
  5
170
100
AcDbEntity
100
AcDbLine
  8
0
 62
256
370
-1
 48
1.0
  6
BYLAYER
 10
-7.7500000000000027
 20
-5.0000000000000009
 30
0.0
 11
-7.5500000000000052
 21
-4.7999999999999998
 31
0.0
  0
LINE
  5
171
100
AcDbEntity
100
AcDbLine
  8
0
 62
256
370
-1
 48
1.0
  6
BYLAYER
 10
-6.4500000102868693
 20
-3.1234167177476171
 30
0.0
 11
-6.2500000102868682
 21
-3.3234167177476182
 31
0.0
  0
LINE
  5
172
100
AcDbEntity
100
AcDbLine
  8
0
 62
256
370
-1
 48
1.0
  6
BYLAYER
 10
-6.450000000000002
 20
-4.7999999999999998
 30
0.0
 11
-6.2500000000000009
 21
-5.0000000000000009
 31
0.0
  0
LINE
  5
173
100
AcDbEntity
100
AcDbLine
  8
0
 62
7
420
0
370
-1
 48
1.0
  6
BYLAYER
 10
-1.8409295449327669
 20
-3.835692700830692
 30
0.0
 11
-2.1274999999999946
 21
-3.8356927008307382
 31
0.0
  0
LINE
  5
174
100
AcDbEntity
100
AcDbLine
  8
0
 62
7
420
0
370
-1
 48
1.0
  6
BYLAYER
 10
-1.8409295449327625
 20
0.3643072991692966
 30
0.0
 11
-2.1274999999999946
 21
0.3643072991693428
 31
0.0
  0
LINE
  5
175
100
AcDbEntity
100
AcDbLine
  8
0
 62
7
420
0
370
-1
 48
1.0
  6
BYLAYER
 10
-2.1274999999999946
 20
-3.8356927008307382
 30
0.0
 11
-2.3274999999999961
 21
-3.6356927008307141
 31
0.0
  0
LINE
  5
176
100
AcDbEntity
100
AcDbLine
  8
0
 62
7
420
0
370
-1
 48
1.0
  6
BYLAYER
 10
-2.3274999999999997
 20
0.1643072991693204
 30
0.0
 11
-2.1274999999999946
 21
0.3643072991693428
 31
0.0
  0
LINE
  5
177
100
AcDbEntity
100
AcDbLine
  8
0
 62
3
420
65280
370
-1
 48
1.0
  6
BYLAYER
 10
-3.9022499999999951
 20
1.9418745451635471
 30
0.0
 11
-3.9022499999999951
 21
2.0333745451635434
 31
0.0
  0
LINE
  5
178
100
AcDbEntity
100
AcDbLine
  8
0
 62
3
420
65280
370
-1
 48
1.0
  6
BYLAYER
 10
-4.097749999999996
 20
1.9418745451635471
 30
0.0
 11
-4.097749999999996
 21
2.0333745451635434
 31
0.0
  0
LINE
  5
179
100
AcDbEntity
100
AcDbLine
  8
0
 62
3
420
65280
370
-1
 48
1.0
  6
BYLAYER
 10
-3.9022499999999951
 20
2.0333745451635434
 30
0.0
 11
-3.94895
 21
2.0333745451635434
 31
0.0
  0
LINE
  5
17A
100
AcDbEntity
100
AcDbLine
  8
0
 62
3
420
65280
370
-1
 48
1.0
  6
BYLAYER
 10
-4.05105
 20
2.0333745451635434
 30
0.0
 11
-4.097749999999996
 21
2.0333745451635434
 31
0.0
  0
LINE
  5
17B
100
AcDbEntity
100
AcDbLine
  8
0
 62
3
420
65280
370
-1
 48
1.0
  6
BYLAYER
 10
-4.097749999999996
 20
1.9418745451635471
 30
0.0
 11
-4.05105
 21
1.9418745451635471
 31
0.0
  0
LINE
  5
17C
100
AcDbEntity
100
AcDbLine
  8
0
 62
3
420
65280
370
-1
 48
1.0
  6
BYLAYER
 10
-3.94895
 20
1.9418745451635471
 30
0.0
 11
-3.9022499999999951
 21
1.9418745451635471
 31
0.0
  0
LINE
  5
17D
100
AcDbEntity
100
AcDbLine
  8
0
 62
7
420
0
370
-1
 48
1.0
  6
BYLAYER
 10
-2.9489500000000035
 20
4.4414018514063667
 30
0.0
 11
-2.9489500000000035
 21
4.5075000000000003
 31
0.0
  0
LINE
  5
17E
100
AcDbEntity
100
AcDbLine
  8
0
 62
7
420
0
370
-1
 48
1.0
  6
BYLAYER
 10
-3.051050000000004
 20
4.4414018514063685
 30
0.0
 11
-3.0510500000000036
 21
4.5074999999999985
 31
0.0
  0
LINE
  5
17F
100
AcDbEntity
100
AcDbLine
  8
0
 62
256
370
-1
 48
1.0
  6
BYLAYER
 10
-3.0510500000000036
 20
4.3193481485936278
 30
0.0
 11
-3.0510500000000036
 21
4.3193481485936278
 31
0.0
  0
LINE
  5
180
100
AcDbEntity
100
AcDbLine
  8
0
 62
7
420
0
370
-1
 48
1.0
  6
BYLAYER
 10
-1.754999999999999
 20
3.9074999697047983
 30
0.0
 11
-1.754999999999999
 21
4.5074999697047993
 31
0.0
  0
LINE
  5
181
100
AcDbEntity
100
AcDbLine
  8
0
 62
7
420
0
370
-1
 48
1.0
  6
BYLAYER
 10
-2.5849999999999991
 20
3.9074999848523988
 30
0.0
 11
-2.5849999999999991
 21
4.5074999848523998
 31
0.0
  0
LINE
  5
182
100
AcDbEntity
100
AcDbLine
  8
0
 62
7
420
0
370
-1
 48
1.0
  6
BYLAYER
 10
-3.4149999999999991
 20
3.9074999999999993
 30
0.0
 11
-3.4149999999999991
 21
4.5075000000000003
 31
0.0
  0
LINE
  5
183
100
AcDbEntity
100
AcDbLine
  8
0
 62
7
420
0
370
-1
 48
1.0
  6
BYLAYER
 10
-0.9249999999999986
 20
4.5074999697047993
 30
0.0
 11
-0.9249999999999986
 21
3.9074999697047983
 31
0.0
  0
LINE
  5
184
100
AcDbEntity
100
AcDbLine
  8
0
 62
7
420
0
370
-1
 48
1.0
  6
BYLAYER
 10
-1.7549999999999988
 20
4.5074999848523998
 30
0.0
 11
-1.7549999999999988
 21
3.9074999848523988
 31
0.0
  0
LINE
  5
185
100
AcDbEntity
100
AcDbLine
  8
0
 62
7
420
0
370
-1
 48
1.0
  6
BYLAYER
 10
-2.5849999999999991
 20
4.5075000000000003
 30
0.0
 11
-2.5849999999999991
 21
3.9074999999999993
 31
0.0
  0
LINE
  5
186
100
AcDbEntity
100
AcDbLine
  8
0
 62
6
420
16711935
370
-1
 48
1.0
  6
BYLAYER
 10
-2.7849999999999993
 20
3.9074999999999993
 30
0.0
 11
-2.7849999999999993
 21
4.2624647869859764
 31
0.0
  0
LINE
  5
187
100
AcDbEntity
100
AcDbLine
  8
0
 62
6
420
16711935
370
-1
 48
1.0
  6
BYLAYER
 10
-3.214999999999999
 20
3.9074999999999993
 30
0.0
 11
-3.214999999999999
 21
4.2624647869859764
 31
0.0
  0
LINE
  5
188
100
AcDbEntity
100
AcDbLine
  8
0
 62
6
420
16711935
370
-1
 48
1.0
  6
BYLAYER
 10
-3.1750519592718764
 20
4.0323271266795668
 30
0.0
 11
-3.2149999999999985
 21
4.0323271266795668
 31
0.0
  0
LINE
  5
189
100
AcDbEntity
100
AcDbLine
  8
0
 62
6
420
16711935
370
-1
 48
1.0
  6
BYLAYER
 10
-2.8249480407281218
 20
4.0323271266795668
 30
0.0
 11
-2.7849999999999988
 21
4.0323271266795668
 31
0.0
  0
LINE
  5
18A
100
AcDbEntity
100
AcDbLine
  8
0
 62
6
420
16711935
370
-1
 48
1.0
  6
BYLAYER
 10
-3.214999999999999
 20
4.2624647869859764
 30
0.0
 11
-3.1077499999999989
 21
4.2624647869859764
 31
0.0
  0
LINE
  5
18B
100
AcDbEntity
100
AcDbLine
  8
0
 62
6
420
16711935
370
-1
 48
1.0
  6
BYLAYER
 10
-3.0510499999999965
 20
4.2624647869859764
 30
0.0
 11
-3.0510499999999965
 21
4.2975000000000012
 31
0.0
  0
LINE
  5
18C
100
AcDbEntity
100
AcDbLine
  8
0
 62
6
420
16711935
370
-1
 48
1.0
  6
BYLAYER
 10
-2.9489500000000017
 20
4.2624647869859764
 30
0.0
 11
-2.9489500000000017
 21
4.2974999999999994
 31
0.0
  0
LINE
  5
18D
100
AcDbEntity
100
AcDbLine
  8
0
 62
6
420
16711935
370
-1
 48
1.0
  6
BYLAYER
 10
-3.1077499999999989
 20
4.2624647869859764
 30
0.0
 11
-3.0510499999999965
 21
4.2975000000000012
 31
0.0
  0
LINE
  5
18E
100
AcDbEntity
100
AcDbLine
  8
0
 62
6
420
16711935
370
-1
 48
1.0
  6
BYLAYER
 10
-2.8922499999999993
 20
4.2624647869859764
 30
0.0
 11
-2.9489500000000017
 21
4.2975000000000012
 31
0.0
  0
LINE
  5
18F
100
AcDbEntity
100
AcDbLine
  8
0
 62
6
420
16711935
370
-1
 48
1.0
  6
BYLAYER
 10
-2.8922499999999993
 20
4.2624647869859764
 30
0.0
 11
-2.7849999999999993
 21
4.2624647869859764
 31
0.0
  0
LINE
  5
190
100
AcDbEntity
100
AcDbLine
  8
0
 62
6
420
16711935
370
-1
 48
1.0
  6
BYLAYER
 10
-3.0510499999999965
 20
4.2624647869859764
 30
0.0
 11
-2.9489500000000017
 21
4.2624647869859764
 31
0.0
  0
LINE
  5
191
100
AcDbEntity
100
AcDbLine
  8
0
 62
7
420
0
370
-1
 48
1.0
  6
BYLAYER
 10
-2.9489500000000017
 20
4.2975000000000012
 30
0.0
 11
-2.9489500000000017
 21
4.3499018514063703
 31
0.0
  0
LINE
  5
192
100
AcDbEntity
100
AcDbLine
  8
0
 62
7
420
0
370
-1
 48
1.0
  6
BYLAYER
 10
-3.0510499999999965
 20
4.2975000000000012
 30
0.0
 11
-3.0510500000000036
 21
4.3499018514063703
 31
0.0
  0
LINE
  5
193
100
AcDbEntity
100
AcDbLine
  8
0
 62
7
420
0
370
-1
 48
1.0
  6
BYLAYER
 10
-3.0510500000000036
 20
4.5074999999999985
 30
0.0
 11
-3.4149999999999991
 21
4.5075000000000003
 31
0.0
  0
LINE
  5
194
100
AcDbEntity
100
AcDbLine
  8
0
 62
7
420
0
370
-1
 48
1.0
  6
BYLAYER
 10
-2.9489500000000035
 20
4.5075000000000003
 30
0.0
 11
-2.5849999999999991
 21
4.5075000000000003
 31
0.0
  0
LINE
  5
195
100
AcDbEntity
100
AcDbLine
  8
0
 62
256
370
-1
 48
1.0
  6
BYLAYER
 10
-1.754999999999999
 20
4.5074999697047993
 30
0.0
 11
-0.9249999999999986
 21
4.5074999697047993
 31
0.0
  0
LINE
  5
196
100
AcDbEntity
100
AcDbLine
  8
0
 62
256
370
-1
 48
1.0
  6
BYLAYER
 10
-2.5849999999999991
 20
4.5074999848523998
 30
0.0
 11
-1.7549999999999988
 21
4.5074999848523998
 31
0.0
  0
LINE
  5
197
100
AcDbEntity
100
AcDbLine
  8
0
 62
256
370
-1
 48
1.0
  6
BYLAYER
 10
-3.0510500000000036
 20
4.3499018514063703
 30
0.0
 11
-3.1232499999999979
 21
4.3499018514063721
 31
0.0
  0
LINE
  5
198
100
AcDbEntity
100
AcDbLine
  8
0
 62
256
370
-1
 48
1.0
  6
BYLAYER
 10
-3.051050000000004
 20
4.4414018514063685
 30
0.0
 11
-3.1232499999999979
 21
4.4414018514063685
 31
0.0
  0
LINE
  5
199
100
AcDbEntity
100
AcDbLine
  8
0
 62
256
370
-1
 48
1.0
  6
BYLAYER
 10
-2.9489500000000035
 20
4.4414018514063667
 30
0.0
 11
-2.8767500000000004
 21
4.4414018514063685
 31
0.0
  0
LINE
  5
19A
100
AcDbEntity
100
AcDbLine
  8
0
 62
256
370
-1
 48
1.0
  6
BYLAYER
 10
-2.9489500000000017
 20
4.3499018514063703
 30
0.0
 11
-2.8767500000000004
 21
4.3499018514063703
 31
0.0
  0
LINE
  5
19B
100
AcDbEntity
100
AcDbLine
  8
0
 62
256
370
-1
 48
1.0
  6
BYLAYER
 10
-6.1040000000000063
 20
3.0999999999999992
 30
0.0
 11
-6.1040000000000063
 21
3.1614999999999993
 31
0.0
  0
LINE
  5
19C
100
AcDbEntity
100
AcDbLine
  8
0
 62
256
370
-1
 48
1.0
  6
BYLAYER
 10
-8.1040000000000081
 20
3.0999999999999988
 30
0.0
 11
-8.1040000000000081
 21
3.1714999999999982
 31
0.0
  0
LINE
  5
19D
100
AcDbEntity
100
AcDbLine
  8
0
 62
256
370
-1
 48
1.0
  6
BYLAYER
 10
-7.8960000000000079
 20
3.0999999999999988
 30
0.0
 11
-7.8960000000000079
 21
3.1714999999999982
 31
0.0
  0
LINE
  5
19E
100
AcDbEntity
100
AcDbLine
  8
0
 62
256
370
-1
 48
1.0
  6
BYLAYER
 10
-7.8960000000000088
 20
3.0999999999999988
 30
0.0
 11
-7.9489500000000035
 21
3.0999999999999996
 31
0.0
  0
LINE
  5
19F
100
AcDbEntity
100
AcDbLine
  8
0
 62
256
370
-1
 48
1.0
  6
BYLAYER
 10
-8.1040000000000081
 20
3.0999999999999979
 30
0.0
 11
-8.0510500000000036
 21
3.0999999999999983
 31
0.0
  0
LINE
  5
1A0
100
AcDbEntity
100
AcDbLine
  8
0
 62
256
370
-1
 48
1.0
  6
BYLAYER
 10
-7.9489500000000035
 20
3.1714999999999978
 30
0.0
 11
-7.9489500000000035
 21
3.2428574668990358
 31
0.0
  0
LINE
  5
1A1
100
AcDbEntity
100
AcDbLine
  8
0
 62
256
370
-1
 48
1.0
  6
BYLAYER
 10
-8.0510500000000036
 20
3.1715000000000004
 30
0.0
 11
-8.0510500000000036
 21
3.2428574668990358
 31
0.0
  0
LINE
  5
1A2
100
AcDbEntity
100
AcDbLine
  8
0
 62
256
370
-1
 48
1.0
  6
BYLAYER
 10
-7.9489500000000035
 20
3.1714999999999982
 30
0.0
 11
-7.8960000000000079
 21
3.1714999999999978
 31
0.0
  0
LINE
  5
1A3
100
AcDbEntity
100
AcDbLine
  8
0
 62
256
370
-1
 48
1.0
  6
BYLAYER
 10
-8.0510500000000036
 20
3.1715000000000004
 30
0.0
 11
-8.1040000000000081
 21
3.1714999999999982
 31
0.0
  0
LINE
  5
1A4
100
AcDbEntity
100
AcDbLine
  8
0
 62
256
370
-1
 48
1.0
  6
BYLAYER
 10
-7.9489500000000035
 20
3.2428574668990358
 30
0.0
 11
-7.7317251486166816
 21
3.3487686512087258
 31
0.0
  0
LINE
  5
1A5
100
AcDbEntity
100
AcDbLine
  8
0
 62
256
370
-1
 48
1.0
  6
BYLAYER
 10
-8.0510500000000036
 20
3.2428574668990358
 30
0.0
 11
-8.2682748513833317
 21
3.3487686512087249
 31
0.0
  0
LINE
  5
1A6
100
AcDbEntity
100
AcDbLine
  8
0
 62
3
420
65280
370
-1
 48
1.0
  6
BYLAYER
 10
-7.9489500000000035
 20
2.6491600582941537
 30
0.0
 11
-7.9489500000000035
 21
3.0999999999999996
 31
0.0
  0
LINE
  5
1A7
100
AcDbEntity
100
AcDbLine
  8
0
 62
3
420
65280
370
-1
 48
1.0
  6
BYLAYER
 10
-8.0510500000000036
 20
3.0999999999999983
 30
0.0
 11
-8.0510500000000036
 21
2.6491600582941537
 31
0.0
  0
LINE
  5
1A8
100
AcDbEntity
100
AcDbLine
  8
0
 62
256
370
-1
 48
1.0
  6
BYLAYER
 10
-5.8960000000000061
 20
3.0999999999999992
 30
0.0
 11
-6.1040000000000063
 21
3.0999999999999992
 31
0.0
  0
LINE
  5
1A9
100
AcDbEntity
100
AcDbLine
  8
0
 62
256
370
-1
 48
1.0
  6
BYLAYER
 10
-5.8960000000000061
 20
3.0999999999999992
 30
0.0
 11
-5.8960000000000061
 21
3.1614999999999993
 31
0.0
  0
LINE
  5
1AA
100
AcDbEntity
100
AcDbLine
  8
0
 62
256
370
-1
 48
1.0
  6
BYLAYER
 10
-5.8317501184064993
 20
3.2999999999999998
 30
0.0
 11
-6.1682498815935078
 21
3.2999999999999998
 31
0.0
  0
LINE
  5
1AB
100
AcDbEntity
100
AcDbLine
  8
0
 62
256
370
-1
 48
1.0
  6
BYLAYER
 10
-5.831750118406501
 20
3.2999999999999998
 30
0.0
 11
-5.7317251486166807
 21
3.3487686512087262
 31
0.0
  0
LINE
  5
1AC
100
AcDbEntity
100
AcDbLine
  8
0
 62
256
370
-1
 48
1.0
  6
BYLAYER
 10
-6.1682498815935087
 20
3.2999999999999998
 30
0.0
 11
-6.26827485138333
 21
3.3487686512087258
 31
0.0
  0
LINE
  5
1AD
100
AcDbEntity
100
AcDbLine
  8
0
 62
256
370
-1
 48
1.0
  6
BYLAYER
 10
-5.8960000000000061
 20
3.1614999999999989
 30
0.0
 11
-6.1040000000000063
 21
3.1614999999999989
 31
0.0
  0
LINE
  5
1AE
100
AcDbEntity
100
AcDbLine
  8
0
 62
256
370
-1
 48
1.0
  6
BYLAYER
 10
-7.7499999999999956
 20
-5.6203522006043629
 30
0.0
 11
-7.7500000000000027
 21
-5.0000000000000009
 31
0.0
  0
ENDSEC
  0
SECTION
  2
OBJECTS
  0
DICTIONARY
  5
C
100
AcDbDictionary
280
0
281
1
  3
ACAD_GROUP
350
D
  3
ACAD_LAYOUT
350
1A
  3
ACAD_MLINESTYLE
350
17
  3
ACAD_PLOTSETTINGS
350
19
  3
ACAD_PLOTSTYLENAME
350
E
  3
AcDbVariableDictionary
350
1AF
  3
QCAD_OBJECTS
350
1B0
  0
DICTIONARY
  5
D
100
AcDbDictionary
280
0
281
1
  0
ACDBDICTIONARYWDFLT
  5
E
100
AcDbDictionary
281
1
  3
Normal
350
F
100
AcDbDictionaryWithDefault
340
F
  0
ACDBPLACEHOLDER
  5
F
  0
DICTIONARY
  5
17
100
AcDbDictionary
280
0
281
1
  3
Standard
350
18
  0
MLINESTYLE
  5
18
100
AcDbMlineStyle
  2
STANDARD
 70
0
  3

 62
256
 51
90.0
 52
90.0
 71
2
 49
0.5
 62
256
  6
BYLAYER
 49
-0.5
 62
256
  6
BYLAYER
  0
DICTIONARY
  5
19
100
AcDbDictionary
280
0
281
1
  0
DICTIONARY
  5
1A
100
AcDbDictionary
281
1
  3
Layout1
350
1E
  3
Layout2
350
26
  3
Model
350
22
  0
LAYOUT
  5
1E
100
AcDbPlotSettings
  1

  2
none_device
  4

  6

 40
0.0
 41
0.0
 42
0.0
 43
0.0
 44
0.0
 45
0.0
 46
0.0
 47
0.0
 48
0.0
 49
0.0
140
0.0
141
0.0
142
1.0
143
1.0
 70
688
 72
0
 73
0
 74
5
  7

 75
16
147
1.0
148
0.0
149
0.0
100
AcDbLayout
  1
Layout1
 70
1
 71
1
 10
0.0
 20
0.0
 11
420.0
 21
297.0
 12
0.0
 22
0.0
 32
0.0
 14
100000000000000000000.0
 24
100000000000000000000.0
 34
100000000000000000000.0
 15
-100000000000000000000.0
 25
-100000000000000000000.0
 35
-100000000000000000000.0
146
0.0
 13
0.0
 23
0.0
 33
0.0
 16
1.0
 26
0.0
 36
0.0
 17
0.0
 27
1.0
 37
0.0
 76
0
330
1B
  0
LAYOUT
  5
22
100
AcDbPlotSettings
  1

  2
none_device
  4

  6

 40
0.0
 41
0.0
 42
0.0
 43
0.0
 44
0.0
 45
0.0
 46
0.0
 47
0.0
 48
0.0
 49
0.0
140
0.0
141
0.0
142
1.0
143
1.0
 70
1712
 72
0
 73
0
 74
0
  7

 75
0
147
1.0
148
0.0
149
0.0
100
AcDbLayout
  1
Model
 70
1
 71
0
 10
0.0
 20
0.0
 11
12.0
 21
9.0
 12
0.0
 22
0.0
 32
0.0
 14
0.0
 24
0.0
 34
0.0
 15
0.0
 25
0.0
 35
0.0
146
0.0
 13
0.0
 23
0.0
 33
0.0
 16
1.0
 26
0.0
 36
0.0
 17
0.0
 27
1.0
 37
0.0
 76
0
330
1F
  0
LAYOUT
  5
26
100
AcDbPlotSettings
  1

  2
none_device
  4

  6

 40
0.0
 41
0.0
 42
0.0
 43
0.0
 44
0.0
 45
0.0
 46
0.0
 47
0.0
 48
0.0
 49
0.0
140
0.0
141
0.0
142
1.0
143
1.0
 70
688
 72
0
 73
0
 74
5
  7

 75
16
147
1.0
148
0.0
149
0.0
100
AcDbLayout
  1
Layout2
 70
1
 71
2
 10
0.0
 20
0.0
 11
12.0
 21
9.0
 12
0.0
 22
0.0
 32
0.0
 14
0.0
 24
0.0
 34
0.0
 15
0.0
 25
0.0
 35
0.0
146
0.0
 13
0.0
 23
0.0
 33
0.0
 16
1.0
 26
0.0
 36
0.0
 17
0.0
 27
1.0
 37
0.0
 76
0
330
23
  0
DICTIONARY
  5
1AF
100
AcDbDictionary
281
1
  3
DIMASSOC
350
1B2
  3
HIDETEXT
350
1B1
  0
DICTIONARYVAR
  5
1B1
100
DictionaryVariables
280
0
  1
2
  0
DICTIONARYVAR
  5
1B2
100
DictionaryVariables
280
0
  1
1
  0
DICTIONARY
  5
1B0
100
AcDbDictionary
281
1
  3
ColorSettings/BackgroundColor
350
1B3
  3
ColorSettings/ColorMode
350
1B4
  3
Grid/DisplayGrid00
350
1B5
  3
Grid/DisplayGrid01
350
1B6
  3
Grid/DisplayGrid02
350
1B7
  3
Grid/DisplayGrid03
350
1B8
  3
Grid/GridSpacingX00
350
1B9
  3
Grid/GridSpacingX01
350
1BA
  3
Grid/GridSpacingX02
350
1BB
  3
Grid/GridSpacingX03
350
1BC
  3
Grid/GridSpacingY00
350
1BD
  3
Grid/GridSpacingY01
350
1BE
  3
Grid/GridSpacingY02
350
1BF
  3
Grid/GridSpacingY03
350
1C0
  3
Grid/IsometricGrid00
350
1C1
  3
Grid/IsometricGrid01
350
1C2
  3
Grid/IsometricGrid02
350
1C3
  3
Grid/IsometricGrid03
350
1C4
  3
Grid/IsometricProjection00
350
1C5
  3
Grid/IsometricProjection01
350
1C6
  3
Grid/IsometricProjection02
350
1C7
  3
Grid/IsometricProjection03
350
1C8
  3
Grid/MetaGridSpacingX00
350
1C9
  3
Grid/MetaGridSpacingX01
350
1CA
  3
Grid/MetaGridSpacingX02
350
1CB
  3
Grid/MetaGridSpacingX03
350
1CC
  3
Grid/MetaGridSpacingY00
350
1CD
  3
Grid/MetaGridSpacingY01
350
1CE
  3
Grid/MetaGridSpacingY02
350
1CF
  3
Grid/MetaGridSpacingY03
350
1D0
  3
MultiPageSettings/Columns
350
1D1
  3
MultiPageSettings/GlueMarginsBottom
350
1D2
  3
MultiPageSettings/GlueMarginsLeft
350
1D3
  3
MultiPageSettings/GlueMarginsRight
350
1D4
  3
MultiPageSettings/GlueMarginsTop
350
1D5
  3
MultiPageSettings/PrintCropMarks
350
1D6
  3
MultiPageSettings/Rows
350
1D7
  3
PageSettings/OffsetX
350
1D8
  3
PageSettings/OffsetY
350
1D9
  3
PageSettings/PageOrientation
350
1DA
  3
PageSettings/PaperHeight
350
1DB
  3
PageSettings/PaperWidth
350
1DC
  3
PageSettings/Scale
350
1DD
  3
PageSettings/ShowPaperBorders
350
1DE
  3
QCADVersion
350
1DF
  3
UnitSettings/PaperUnit
350
1E0
  0
XRECORD
  5
1B3
330
1B0
100
AcDbXrecord
280
1
1000
White
  0
XRECORD
  5
1B4
330
1B0
100
AcDbXrecord
280
1
1000
FullColor
  0
XRECORD
  5
1B5
330
1B0
100
AcDbXrecord
280
1
290
1
  0
XRECORD
  5
1B6
330
1B0
100
AcDbXrecord
280
1
290
1
  0
XRECORD
  5
1B7
330
1B0
100
AcDbXrecord
280
1
290
1
  0
XRECORD
  5
1B8
330
1B0
100
AcDbXrecord
280
1
290
1
  0
XRECORD
  5
1B9
330
1B0
100
AcDbXrecord
280
1
1000
auto
  0
XRECORD
  5
1BA
330
1B0
100
AcDbXrecord
280
1
1000
auto
  0
XRECORD
  5
1BB
330
1B0
100
AcDbXrecord
280
1
1000
auto
  0
XRECORD
  5
1BC
330
1B0
100
AcDbXrecord
280
1
1000
auto
  0
XRECORD
  5
1BD
330
1B0
100
AcDbXrecord
280
1
1000
auto
  0
XRECORD
  5
1BE
330
1B0
100
AcDbXrecord
280
1
1000
auto
  0
XRECORD
  5
1BF
330
1B0
100
AcDbXrecord
280
1
1000
auto
  0
XRECORD
  5
1C0
330
1B0
100
AcDbXrecord
280
1
1000
auto
  0
XRECORD
  5
1C1
330
1B0
100
AcDbXrecord
280
1
290
0
  0
XRECORD
  5
1C2
330
1B0
100
AcDbXrecord
280
1
290
0
  0
XRECORD
  5
1C3
330
1B0
100
AcDbXrecord
280
1
290
0
  0
XRECORD
  5
1C4
330
1B0
100
AcDbXrecord
280
1
290
0
  0
XRECORD
  5
1C5
330
1B0
100
AcDbXrecord
280
1
 90
0
  0
XRECORD
  5
1C6
330
1B0
100
AcDbXrecord
280
1
 90
0
  0
XRECORD
  5
1C7
330
1B0
100
AcDbXrecord
280
1
 90
0
  0
XRECORD
  5
1C8
330
1B0
100
AcDbXrecord
280
1
 90
0
  0
XRECORD
  5
1C9
330
1B0
100
AcDbXrecord
280
1
1000
auto
  0
XRECORD
  5
1CA
330
1B0
100
AcDbXrecord
280
1
1000
auto
  0
XRECORD
  5
1CB
330
1B0
100
AcDbXrecord
280
1
1000
auto
  0
XRECORD
  5
1CC
330
1B0
100
AcDbXrecord
280
1
1000
auto
  0
XRECORD
  5
1CD
330
1B0
100
AcDbXrecord
280
1
1000
auto
  0
XRECORD
  5
1CE
330
1B0
100
AcDbXrecord
280
1
1000
auto
  0
XRECORD
  5
1CF
330
1B0
100
AcDbXrecord
280
1
1000
auto
  0
XRECORD
  5
1D0
330
1B0
100
AcDbXrecord
280
1
1000
auto
  0
XRECORD
  5
1D1
330
1B0
100
AcDbXrecord
280
1
 90
1
  0
XRECORD
  5
1D2
330
1B0
100
AcDbXrecord
280
1
 40
0.5
  0
XRECORD
  5
1D3
330
1B0
100
AcDbXrecord
280
1
 40
0.5
  0
XRECORD
  5
1D4
330
1B0
100
AcDbXrecord
280
1
 40
0.5
  0
XRECORD
  5
1D5
330
1B0
100
AcDbXrecord
280
1
 40
0.5
  0
XRECORD
  5
1D6
330
1B0
100
AcDbXrecord
280
1
290
0
  0
XRECORD
  5
1D7
330
1B0
100
AcDbXrecord
280
1
 90
1
  0
XRECORD
  5
1D8
330
1B0
100
AcDbXrecord
280
1
 40
0.0
  0
XRECORD
  5
1D9
330
1B0
100
AcDbXrecord
280
1
 40
0.0
  0
XRECORD
  5
1DA
330
1B0
100
AcDbXrecord
280
1
1000
Portrait
  0
XRECORD
  5
1DB
330
1B0
100
AcDbXrecord
280
1
 40
11.6929133858268006
  0
XRECORD
  5
1DC
330
1B0
100
AcDbXrecord
280
1
 40
8.2677165354330704
  0
XRECORD
  5
1DD
330
1B0
100
AcDbXrecord
280
1
1000
1:1
  0
XRECORD
  5
1DE
330
1B0
100
AcDbXrecord
280
1
290
1
  0
XRECORD
  5
1DF
330
1B0
100
AcDbXrecord
280
1
1000
3.11.3
  0
XRECORD
  5
1E0
330
1B0
100
AcDbXrecord
280
1
 90
1
  0
ENDSEC
  0
EOF
