999
dxflib 3.7.5.0
  0
SECTION
  2
HEADER
  9
$ACADVER
  1
AC1015
  9
$HANDSEED
  5
FFFF
  9
$DIMADEC
 70
0
  9
$DIMASZ
 40
0.125
  9
$DIMAUNIT
 70
0
  9
$DIMAZIN
 70
2
  9
$DIMDEC
 70
4
  9
$DIMEXE
 40
0.0625
  9
$DIMEXO
 40
0.03125
  9
$DIMGAP
 40
0.03125
  9
$DIMLUNIT
 70
3
  9
$DIMSCALE
 40
1.0
  9
$DIMTSZ
 40
0.0
  9
$DIMTXT
 40
0.125
  9
$DIMZIN
 70
8
  9
$DWGCODEPAGE
  3
ANSI_1252
  9
$INSUNITS
 70
1
  9
$LTSCALE
 40
1.0
  9
$MEASUREMENT
 70
0
  9
$PDMODE
 70
0
  9
$PDSIZE
 40
0
  0
ENDSEC
  0
SECTION
  2
TABLES
  0
TABLE
  2
VPORT
  5
8
100
AcDbSymbolTable
 70
1
  0
VPORT
  5
30
100
AcDbSymbolTableRecord
100
AcDbViewportTableRecord
  2
*Active
 70
0
 10
0.0
 20
0.0
 11
1.0
 21
1.0
 12
286.3055555555554861
 22
148.5
 13
0.0
 23
0.0
 14
10.0
 24
10.0
 15
10.0
 25
10.0
 16
0.0
 26
0.0
 36
1.0
 17
0.0
 27
0.0
 37
0.0
 40
297.0
 41
1.92798353909465
 42
50.0
 43
0.0
 44
0.0
 50
0.0
 51
0.0
 71
0
 72
100
 73
1
 74
3
 75
1
 76
1
 77
0
 78
0
281
0
 65
1
110
0.0
120
0.0
130
0.0
111
1.0
121
0.0
131
0.0
112
0.0
122
1.0
132
0.0
 79
0
146
0.0
  0
ENDTAB
  0
TABLE
  2
LTYPE
  5
5
100
AcDbSymbolTable
 70
50
  0
LTYPE
  5
16
100
AcDbSymbolTableRecord
100
AcDbLinetypeTableRecord
  2
Continuous
 70
0
  3
Solid line
 72
65
 73
0
 40
0.0
  0
LTYPE
  5
31
100
AcDbSymbolTableRecord
100
AcDbLinetypeTableRecord
  2
ACAD_ISO15W100
 70
0
  3
ISO double-dash triple-dot __ __ . . . __ __ . .
 72
65
 73
10
 40
39.0
 49
12.0
 74
0
 49
-3.0
 74
0
 49
12.0
 74
0
 49
-3.0
 74
0
 49
0.0
 74
0
 49
-3.0
 74
0
 49
0.0
 74
0
 49
-3.0
 74
0
 49
0.0
 74
0
 49
-3.0
 74
0
  0
LTYPE
  5
32
100
AcDbSymbolTableRecord
100
AcDbLinetypeTableRecord
  2
HOT_WATER_SUPPLY
 70
0
  3
Hot water supply ---- HW ---- HW ---- HW ----
 72
65
 73
3
 40
22.8599999999999994
 49
12.6999999999999993
 74
0
 49
-5.0800000000000001
 74
0
 49
-5.0800000000000001
 74
0
  0
LTYPE
  5
33
100
AcDbSymbolTableRecord
100
AcDbLinetypeTableRecord
  2
DIVIDE
 70
0
  3
Divide ____ . . ____ . . ____ . . ____ . . ____
 72
65
 73
6
 40
31.75
 49
12.6999999999999993
 74
0
 49
-6.3499999999999996
 74
0
 49
0.0
 74
0
 49
-6.3499999999999996
 74
0
 49
0.0
 74
0
 49
-6.3499999999999996
 74
0
  0
LTYPE
  5
34
100
AcDbSymbolTableRecord
100
AcDbLinetypeTableRecord
  2
ACAD_ISO10W100
 70
0
  3
ISO dash dot __ . __ . __ . __ . __ . __ . __ . 
 72
65
 73
4
 40
18.0
 49
12.0
 74
0
 49
-3.0
 74
0
 49
0.0
 74
0
 49
-3.0
 74
0
  0
LTYPE
  5
35
100
AcDbSymbolTableRecord
100
AcDbLinetypeTableRecord
  2
GAS_LINE
 70
0
  3
Gas line ----GAS----GAS----GAS----GAS----GAS----GAS--
 72
65
 73
3
 40
24.1300000000000026
 49
12.6999999999999993
 74
0
 49
-5.0800000000000001
 74
0
 49
-6.3499999999999996
 74
0
  0
LTYPE
  5
36
100
AcDbSymbolTableRecord
100
AcDbLinetypeTableRecord
  2
ACAD_ISO04W100
 70
0
  3
ISO long-dash dot ____ . ____ . ____ . ____ . _
 72
65
 73
4
 40
30.0
 49
24.0
 74
0
 49
-3.0
 74
0
 49
0.0
 74
0
 49
-3.0
 74
0
  0
LTYPE
  5
37
100
AcDbSymbolTableRecord
100
AcDbLinetypeTableRecord
  2
CENTER2
 70
0
  3
Center (.5x) ___ _ ___ _ ___ _ ___ _ ___ _ ___
 72
65
 73
4
 40
28.5750000000000028
 49
19.0500000000000007
 74
0
 49
-3.1749999999999998
 74
0
 49
3.1749999999999998
 74
0
 49
-3.1749999999999998
 74
0
  0
LTYPE
  5
38
100
AcDbSymbolTableRecord
100
AcDbLinetypeTableRecord
  2
ACAD_ISO11W100
 70
0
  3
ISO double-dash dot __ __ . __ __ . __ __ . __ _
 72
65
 73
6
 40
33.0
 49
12.0
 74
0
 49
-3.0
 74
0
 49
12.0
 74
0
 49
-3.0
 74
0
 49
0.0
 74
0
 49
-3.0
 74
0
  0
LTYPE
  5
39
100
AcDbSymbolTableRecord
100
AcDbLinetypeTableRecord
  2
HIDDEN2
 70
0
  3
Hidden (.5x) _ _ _ _ _ _ _ _ _ _ _ _ _ _ _ _ _ 
 72
65
 73
2
 40
4.7624999999999993
 49
3.1749999999999998
 74
0
 49
-1.5874999999999999
 74
0
  0
LTYPE
  5
3A
100
AcDbSymbolTableRecord
100
AcDbLinetypeTableRecord
  2
BORDERX2
 70
0
  3
Border (2x) ____  ____  .  ____  ____  .  ___
 72
65
 73
6
 40
88.8999999999999915
 49
25.3999999999999986
 74
0
 49
-12.6999999999999993
 74
0
 49
25.3999999999999986
 74
0
 49
-12.6999999999999993
 74
0
 49
0.0
 74
0
 49
-12.6999999999999993
 74
0
  0
LTYPE
  5
3B
100
AcDbSymbolTableRecord
100
AcDbLinetypeTableRecord
  2
ACAD_ISO05W100
 70
0
  3
ISO long-dash double-dot ____ .. ____ .. ____ . 
 72
65
 73
6
 40
33.0
 49
24.0
 74
0
 49
-3.0
 74
0
 49
0.0
 74
0
 49
-3.0
 74
0
 49
0.0
 74
0
 49
-3.0
 74
0
  0
LTYPE
  5
3C
100
AcDbSymbolTableRecord
100
AcDbLinetypeTableRecord
  2
DASHDOTX2
 70
0
  3
Dash dot (2x) ____  .  ____  .  ____  .  ___
 72
65
 73
4
 40
50.7999999999999972
 49
25.3999999999999986
 74
0
 49
-12.6999999999999993
 74
0
 49
0.0
 74
0
 49
-12.6999999999999993
 74
0
  0
LTYPE
  5
3D
100
AcDbSymbolTableRecord
100
AcDbLinetypeTableRecord
  2
HIDDENX2
 70
0
  3
Hidden (2x) ____ ____ ____ ____ ____ ____ ____ 
 72
65
 73
2
 40
19.0499999999999972
 49
12.6999999999999993
 74
0
 49
-6.3499999999999996
 74
0
  0
LTYPE
  5
3E
100
AcDbSymbolTableRecord
100
AcDbLinetypeTableRecord
  2
CENTERX2
 70
0
  3
Center (2x) ________  __  ________  __  _____
 72
65
 73
4
 40
101.6000000000000085
 49
63.5
 74
0
 49
-12.6999999999999993
 74
0
 49
12.6999999999999993
 74
0
 49
-12.6999999999999993
 74
0
  0
LTYPE
  5
3F
100
AcDbSymbolTableRecord
100
AcDbLinetypeTableRecord
  2
BORDER2
 70
0
  3
Border (.5x) __.__.__.__.__.__.__.__.__.__.__.
 72
65
 73
6
 40
22.2249999999999979
 49
6.3499999999999996
 74
0
 49
-3.1749999999999998
 74
0
 49
6.3499999999999996
 74
0
 49
-3.1749999999999998
 74
0
 49
0.0
 74
0
 49
-3.1749999999999998
 74
0
  0
LTYPE
  5
40
100
AcDbSymbolTableRecord
100
AcDbLinetypeTableRecord
  2
DASHDOT2
 70
0
  3
Dash dot (.5x) _._._._._._._._._._._._._._._.
 72
65
 73
4
 40
12.6999999999999993
 49
6.3499999999999996
 74
0
 49
-3.1749999999999998
 74
0
 49
0.0
 74
0
 49
-3.1749999999999998
 74
0
  0
LTYPE
  5
41
100
AcDbSymbolTableRecord
100
AcDbLinetypeTableRecord
  2
ACAD_ISO12W100
 70
0
  3
ISO dash double-dot __ . . __ . . __ . . __ . . 
 72
65
 73
6
 40
21.0
 49
12.0
 74
0
 49
-3.0
 74
0
 49
0.0
 74
0
 49
-3.0
 74
0
 49
0.0
 74
0
 49
-3.0
 74
0
  0
LTYPE
  5
42
100
AcDbSymbolTableRecord
100
AcDbLinetypeTableRecord
  2
ACAD_ISO07W100
 70
0
  3
ISO dot . . . . . . . . . . . . . . . . . . . . 
 72
65
 73
2
 40
3.0
 49
0.0
 74
0
 49
-3.0
 74
0
  0
LTYPE
  5
43
100
AcDbSymbolTableRecord
100
AcDbLinetypeTableRecord
  2
ACAD_ISO06W100
 70
0
  3
ISO long-dash triple-dot ____ ... ____ ... ____
 72
65
 73
8
 40
36.0
 49
24.0
 74
0
 49
-3.0
 74
0
 49
0.0
 74
0
 49
-3.0
 74
0
 49
0.0
 74
0
 49
-3.0
 74
0
 49
0.0
 74
0
 49
-3.0
 74
0
  0
LTYPE
  5
44
100
AcDbSymbolTableRecord
100
AcDbLinetypeTableRecord
  2
CENTER
 70
0
  3
Center ____ _ ____ _ ____ _ ____ _ ____ _ ____
 72
65
 73
4
 40
50.8000000000000043
 49
31.75
 74
0
 49
-6.3499999999999996
 74
0
 49
6.3499999999999996
 74
0
 49
-6.3499999999999996
 74
0
  0
LTYPE
  5
45
100
AcDbSymbolTableRecord
100
AcDbLinetypeTableRecord
  2
HIDDEN
 70
0
  3
Hidden __ __ __ __ __ __ __ __ __ __ __ __ __ __
 72
65
 73
2
 40
9.5249999999999986
 49
6.3499999999999996
 74
0
 49
-3.1749999999999998
 74
0
  0
LTYPE
  5
46
100
AcDbSymbolTableRecord
100
AcDbLinetypeTableRecord
  2
DOTX2
 70
0
  3
Dot (2x) .  .  .  .  .  .  .  .  .  .  .  .  .  .
 72
65
 73
2
 40
12.6999999999999993
 49
0.0
 74
0
 49
-12.6999999999999993
 74
0
  0
LTYPE
  5
47
100
AcDbSymbolTableRecord
100
AcDbLinetypeTableRecord
  2
PHANTOM
 70
0
  3
Phantom ______  __  __  ______  __  __  ______ 
 72
65
 73
6
 40
63.5000000000000071
 49
31.75
 74
0
 49
-6.3499999999999996
 74
0
 49
6.3499999999999996
 74
0
 49
-6.3499999999999996
 74
0
 49
6.3499999999999996
 74
0
 49
-6.3499999999999996
 74
0
  0
LTYPE
  5
48
100
AcDbSymbolTableRecord
100
AcDbLinetypeTableRecord
  2
ACAD_ISO08W100
 70
0
  3
ISO long-dash short-dash ____ __ ____ __ ____ _
 72
65
 73
4
 40
36.0
 49
24.0
 74
0
 49
-3.0
 74
0
 49
6.0
 74
0
 49
-3.0
 74
0
  0
LTYPE
  5
49
100
AcDbSymbolTableRecord
100
AcDbLinetypeTableRecord
  2
DASHEDX2
 70
0
  3
Dashed (2x) ____  ____  ____  ____  ____  ___
 72
65
 73
2
 40
38.0999999999999943
 49
25.3999999999999986
 74
0
 49
-12.6999999999999993
 74
0
  0
LTYPE
  5
4A
100
AcDbSymbolTableRecord
100
AcDbLinetypeTableRecord
  2
DRAINAGE
 70
0
  3
Drainage ---->---->---->----
 72
65
 73
2
 40
10.1600000000000001
 49
5.0800000000000001
 74
0
 49
5.0800000000000001
 74
0
  0
LTYPE
  5
4B
100
AcDbSymbolTableRecord
100
AcDbLinetypeTableRecord
  2
ACAD_ISO02W100
 70
0
  3
ISO dash __ __ __ __ __ __ __ __ __ __ __ __ __
 72
65
 73
2
 40
15.0
 49
12.0
 74
0
 49
-3.0
 74
0
  0
LTYPE
  5
4C
100
AcDbSymbolTableRecord
100
AcDbLinetypeTableRecord
  2
PHANTOM2
 70
0
  3
Phantom (.5x) ___ _ _ ___ _ _ ___ _ _ ___ _ _
 72
65
 73
6
 40
31.7500000000000036
 49
15.875
 74
0
 49
-3.1749999999999998
 74
0
 49
3.1749999999999998
 74
0
 49
-3.1749999999999998
 74
0
 49
3.1749999999999998
 74
0
 49
-3.1749999999999998
 74
0
  0
LTYPE
  5
4D
100
AcDbSymbolTableRecord
100
AcDbLinetypeTableRecord
  2
DASHED2
 70
0
  3
Dashed (.5x) _ _ _ _ _ _ _ _ _ _ _ _ _ _ _ _ _ 
 72
65
 73
2
 40
9.5249999999999986
 49
6.3499999999999996
 74
0
 49
-3.1749999999999998
 74
0
  0
LTYPE
  5
4E
100
AcDbSymbolTableRecord
100
AcDbLinetypeTableRecord
  2
ACAD_ISO09W100
 70
0
  3
ISO long-dash double-short-dash ____ __ __ ____
 72
65
 73
6
 40
45.0
 49
24.0
 74
0
 49
-3.0
 74
0
 49
6.0
 74
0
 49
-3.0
 74
0
 49
6.0
 74
0
 49
-3.0
 74
0
  0
LTYPE
  5
4F
100
AcDbSymbolTableRecord
100
AcDbLinetypeTableRecord
  2
ACAD_ISO13W100
 70
0
  3
ISO double-dash double-dot __ __ . . __ __ . . _
 72
65
 73
8
 40
36.0
 49
12.0
 74
0
 49
-3.0
 74
0
 49
12.0
 74
0
 49
-3.0
 74
0
 49
0.0
 74
0
 49
-3.0
 74
0
 49
0.0
 74
0
 49
-3.0
 74
0
  0
LTYPE
  5
50
100
AcDbSymbolTableRecord
100
AcDbLinetypeTableRecord
  2
TRACKS
 70
0
  3
Tracks -|-|-|-|-|-|-|-|-|-|-|-|-|-|-|-|-|-|-|-|-|-|-|-|-
 72
65
 73
2
 40
7.6200000000000001
 49
3.8100000000000001
 74
0
 49
3.8100000000000001
 74
0
  0
LTYPE
  5
51
100
AcDbSymbolTableRecord
100
AcDbLinetypeTableRecord
  2
DRAINAGE2
 70
0
  3
Drainage reversed----<----<----<----
 72
65
 73
2
 40
10.1600000000000001
 49
5.0800000000000001
 74
0
 49
5.0800000000000001
 74
0
  0
LTYPE
  5
52
100
AcDbSymbolTableRecord
100
AcDbLinetypeTableRecord
  2
DOT2
 70
0
  3
Dot (.5x) ........................................
 72
65
 73
2
 40
3.1749999999999998
 49
0.0
 74
0
 49
-3.1749999999999998
 74
0
  0
LTYPE
  5
53
100
AcDbSymbolTableRecord
100
AcDbLinetypeTableRecord
  2
ZIGZAG
 70
0
  3
Zig zag /\/\/\/\/\/\/\/\/\/\/\/\/\/\/\/\/\/\/\/\/\/\/\/
 72
65
 73
4
 40
20.32254
 49
0.00254
 74
0
 49
-5.0800000000000001
 74
0
 49
-10.1600000000000001
 74
0
 49
-5.0800000000000001
 74
0
  0
LTYPE
  5
54
100
AcDbSymbolTableRecord
100
AcDbLinetypeTableRecord
  2
DASHED
 70
0
  3
Dashed __ __ __ __ __ __ __ __ __ __ __ __ __ _
 72
65
 73
2
 40
19.0499999999999972
 49
12.6999999999999993
 74
0
 49
-6.3499999999999996
 74
0
  0
LTYPE
  5
55
100
AcDbSymbolTableRecord
100
AcDbLinetypeTableRecord
  2
ACAD_ISO14W100
 70
0
  3
ISO dash triple-dot __ . . . __ . . . __ . . . _
 72
65
 73
8
 40
24.0
 49
12.0
 74
0
 49
-3.0
 74
0
 49
0.0
 74
0
 49
-3.0
 74
0
 49
0.0
 74
0
 49
-3.0
 74
0
 49
0.0
 74
0
 49
-3.0
 74
0
  0
LTYPE
  5
15
100
AcDbSymbolTableRecord
100
AcDbLinetypeTableRecord
  2
BYLAYER
 70
0
  3

 72
65
 73
0
 40
0.0
  0
LTYPE
  5
56
100
AcDbSymbolTableRecord
100
AcDbLinetypeTableRecord
  2
PHANTOMX2
 70
0
  3
Phantom (2x) ____________    ____    ____   _
 72
65
 73
6
 40
127.0000000000000142
 49
63.5
 74
0
 49
-12.6999999999999993
 74
0
 49
12.6999999999999993
 74
0
 49
-12.6999999999999993
 74
0
 49
12.6999999999999993
 74
0
 49
-12.6999999999999993
 74
0
  0
LTYPE
  5
14
100
AcDbSymbolTableRecord
100
AcDbLinetypeTableRecord
  2
BYBLOCK
 70
0
  3

 72
65
 73
0
 40
0.0
  0
LTYPE
  5
57
100
AcDbSymbolTableRecord
100
AcDbLinetypeTableRecord
  2
DIVIDEX2
 70
0
  3
Divide (2x) ________  .  .  ________  .  .  _
 72
65
 73
6
 40
63.5
 49
25.3999999999999986
 74
0
 49
-12.6999999999999993
 74
0
 49
0.0
 74
0
 49
-12.6999999999999993
 74
0
 49
0.0
 74
0
 49
-12.6999999999999993
 74
0
  0
LTYPE
  5
58
100
AcDbSymbolTableRecord
100
AcDbLinetypeTableRecord
  2
BORDER
 70
0
  3
Border __ __ . __ __ . __ __ . __ __ . __ __ .
 72
65
 73
6
 40
44.4499999999999957
 49
12.6999999999999993
 74
0
 49
-6.3499999999999996
 74
0
 49
12.6999999999999993
 74
0
 49
-6.3499999999999996
 74
0
 49
0.0
 74
0
 49
-6.3499999999999996
 74
0
  0
LTYPE
  5
59
100
AcDbSymbolTableRecord
100
AcDbLinetypeTableRecord
  2
DIVIDE2
 70
0
  3
Divide (.5x) __..__..__..__..__..__..__..__.._
 72
65
 73
6
 40
15.875
 49
6.3499999999999996
 74
0
 49
-3.1749999999999998
 74
0
 49
0.0
 74
0
 49
-3.1749999999999998
 74
0
 49
0.0
 74
0
 49
-3.1749999999999998
 74
0
  0
LTYPE
  5
5A
100
AcDbSymbolTableRecord
100
AcDbLinetypeTableRecord
  2
DOT
 70
0
  3
Dot . . . . . . . . . . . . . . . . . . . . . . . .
 72
65
 73
2
 40
6.3499999999999996
 49
0.0
 74
0
 49
-6.3499999999999996
 74
0
  0
LTYPE
  5
5B
100
AcDbSymbolTableRecord
100
AcDbLinetypeTableRecord
  2
DASHDOT
 70
0
  3
Dash dot __ . __ . __ . __ . __ . __ . __ . __
 72
65
 73
4
 40
25.3999999999999986
 49
12.6999999999999993
 74
0
 49
-6.3499999999999996
 74
0
 49
0.0
 74
0
 49
-6.3499999999999996
 74
0
  0
LTYPE
  5
5C
100
AcDbSymbolTableRecord
100
AcDbLinetypeTableRecord
  2
FENCELINE1
 70
0
  3
Fenceline circle ----0-----0----0-----0----0-----0--
 72
65
 73
4
 40
36.8299999999999983
 49
6.3499999999999996
 74
0
 49
-2.54
 74
0
 49
-2.54
 74
0
 49
25.3999999999999986
 74
0
  0
LTYPE
  5
5D
100
AcDbSymbolTableRecord
100
AcDbLinetypeTableRecord
  2
BATTING
 70
0
  3
Batting SSSSSSSSSSSSSSSSSSSSSSSSSSSSSSSSSSSSSSSSSSSSSSS
 72
65
 73
4
 40
10.1625399999999999
 49
0.00254
 74
0
 49
-2.54
 74
0
 49
-5.0800000000000001
 74
0
 49
-2.54
 74
0
  0
LTYPE
  5
5E
100
AcDbSymbolTableRecord
100
AcDbLinetypeTableRecord
  2
ACAD_ISO03W100
 70
0
  3
ISO dash space __    __    __    __    __    __
 72
65
 73
2
 40
30.0
 49
12.0
 74
0
 49
-18.0
 74
0
  0
LTYPE
  5
5F
100
AcDbSymbolTableRecord
100
AcDbLinetypeTableRecord
  2
FENCELINE2
 70
0
  3
Fenceline square ----[]-----[]----[]-----[]----[]---
 72
65
 73
4
 40
36.8299999999999983
 49
6.3499999999999996
 74
0
 49
-2.54
 74
0
 49
-2.54
 74
0
 49
25.3999999999999986
 74
0
  0
ENDTAB
  0
TABLE
  2
LAYER
  5
2
100
AcDbSymbolTable
 70
1
  0
LAYER
  5
10
100
AcDbSymbolTableRecord
100
AcDbLayerTableRecord
  2
0
 70
0
 62
7
420
16777215
  6
Continuous
370
25
390
F
  0
ENDTAB
  0
TABLE
  2
STYLE
  5
3
100
AcDbSymbolTable
 70
1
  0
STYLE
  5
60
100
AcDbSymbolTableRecord
100
AcDbTextStyleTableRecord
  2
Standard
 70
0
 40
0.0
 41
1.0
 50
0.0
 71
0
 42
2.5
  3

  4

1001
ACAD
1000
txt
1071
0
  0
ENDTAB
  0
TABLE
  2
VIEW
  5
6
100
AcDbSymbolTable
 70
0
  0
ENDTAB
  0
TABLE
  2
UCS
  5
7
100
AcDbSymbolTable
 70
0
  0
ENDTAB
  0
TABLE
  2
APPID
  5
9
100
AcDbSymbolTable
 70
1
  0
APPID
  5
12
100
AcDbSymbolTableRecord
100
AcDbRegAppTableRecord
  2
ACAD
 70
0
  0
APPID
  5
61
100
AcDbSymbolTableRecord
100
AcDbRegAppTableRecord
  2
QCAD
 70
0
  0
ENDTAB
  0
TABLE
  2
DIMSTYLE
  5
A
100
AcDbSymbolTable
 70
1
100
AcDbDimStyleTable
 71
0
  0
DIMSTYLE
105
27
100
AcDbSymbolTableRecord
100
AcDbDimStyleTableRecord
  2
Standard
 41
0.125
 42
0.03125
 43
3.75
 44
0.0625
 70
0
 73
0
 74
0
 77
1
 78
8
140
0.125
141
2.5
143
0.03937007874016
147
0.03125
171
3
172
1
271
2
272
2
274
3
278
44
283
0
284
8
340
60
  0
ENDTAB
  0
TABLE
  2
BLOCK_RECORD
  5
1
100
AcDbSymbolTable
 70
1
  0
BLOCK_RECORD
  5
1F
100
AcDbSymbolTableRecord
100
AcDbBlockTableRecord
  2
*Model_Space
340
22
  0
BLOCK_RECORD
  5
1B
100
AcDbSymbolTableRecord
100
AcDbBlockTableRecord
  2
*Paper_Space
340
1E
  0
BLOCK_RECORD
  5
23
100
AcDbSymbolTableRecord
100
AcDbBlockTableRecord
  2
*Paper_Space0
340
26
  0
ENDTAB
  0
ENDSEC
  0
SECTION
  2
BLOCKS
  0
BLOCK
  5
20
100
AcDbEntity
  8
0
100
AcDbBlockBegin
  2
*Model_Space
 70
0
 10
0.0
 20
0.0
 30
0.0
  3
*Model_Space
  1

  0
ENDBLK
  5
21
100
AcDbEntity
  8
0
100
AcDbBlockEnd
  0
BLOCK
  5
1C
100
AcDbEntity
 67
1
  8
0
100
AcDbBlockBegin
  2
*Paper_Space
 70
0
 10
0.0
 20
0.0
 30
0.0
  3
*Paper_Space
  1

  0
ENDBLK
  5
1D
100
AcDbEntity
 67
1
  8
0
100
AcDbBlockEnd
  0
BLOCK
  5
24
100
AcDbEntity
  8
0
100
AcDbBlockBegin
  2
*Paper_Space0
 70
0
 10
0.0
 20
0.0
 30
0.0
  3
*Paper_Space0
  1

  0
ENDBLK
  5
25
100
AcDbEntity
  8
0
100
AcDbBlockEnd
  0
ENDSEC
  0
SECTION
  2
ENTITIES
  0
LINE
  5
62
100
AcDbEntity
100
AcDbLine
  8
0
 62
7
420
0
370
-1
 48
1.0
  6
BYLAYER
 10
0.7882396931405538
 20
0.9738320218785281
 30
0.0
 11
0.7475544605178435
 21
0.9913758332989641
 31
0.0
  0
LINE
  5
63
100
AcDbEntity
100
AcDbLine
  8
0
 62
7
420
0
370
-1
 48
1.0
  6
BYLAYER
 10
0.7886824795119001
 20
1.0295312745226814
 30
0.0
 11
0.7539242350923416
 21
1.0570074081224097
 31
0.0
  0
LINE
  5
64
100
AcDbEntity
100
AcDbLine
  8
0
 62
7
420
0
370
-1
 48
1.0
  6
BYLAYER
 10
0.8035262056857952
 20
1.083218019610853
 30
0.0
 11
0.7770636663858674
 21
1.1187540222915096
 31
0.0
  0
LINE
  5
65
100
AcDbEntity
100
AcDbLine
  8
0
 62
7
420
0
370
-1
 48
1.0
  6
BYLAYER
 10
0.8317592962539067
 20
1.1312335941868246
 30
0.0
 11
0.8153958403954853
 21
1.1724077460917433
 31
0.0
  0
LINE
  5
66
100
AcDbEntity
100
AcDbLine
  8
0
 62
7
420
0
370
-1
 48
1.0
  6
BYLAYER
 10
0.8714577127514058
 20
1.1703058161927324
 30
0.0
 11
0.8663084828093535
 21
1.2143121669130972
 31
0.0
  0
LINE
  5
67
100
AcDbEntity
100
AcDbLine
  8
0
 62
7
420
0
370
-1
 48
1.0
  6
BYLAYER
 10
0.9199160736987242
 20
1.1977719782687744
 30
0.0
 11
0.9263319811840844
 21
1.2416115677269248
 31
0.0
  0
LINE
  5
68
100
AcDbEntity
100
AcDbLine
  8
0
 62
7
420
0
370
-1
 48
1.0
  6
BYLAYER
 10
0.9738320218785272
 20
1.2117603068594462
 30
0.0
 11
0.9913758332989637
 21
1.2524455394821565
 31
0.0
  0
LINE
  5
69
100
AcDbEntity
100
AcDbLine
  8
0
 62
7
420
0
370
-1
 48
1.0
  6
BYLAYER
 10
1.0295312745226823
 20
1.2113175204881004
 30
0.0
 11
1.0570074081224092
 21
1.2460757649076588
 31
0.0
  0
LINE
  5
6A
100
AcDbEntity
100
AcDbLine
  8
0
 62
7
420
0
370
-1
 48
1.0
  6
BYLAYER
 10
1.0832180196108521
 20
1.1964737943142048
 30
0.0
 11
1.11875402229151
 21
1.222936333614133
 31
0.0
  0
LINE
  5
6B
100
AcDbEntity
100
AcDbLine
  8
0
 62
7
420
0
370
-1
 48
1.0
  6
BYLAYER
 10
1.1312335941868241
 20
1.1682407037460929
 30
0.0
 11
1.1724077460917446
 21
1.1846041596045147
 31
0.0
  0
LINE
  5
6C
100
AcDbEntity
100
AcDbLine
  8
0
 62
7
420
0
370
-1
 48
1.0
  6
BYLAYER
 10
1.170305816192732
 20
1.1285422872485933
 30
0.0
 11
1.2143121669130981
 21
1.133691517190647
 31
0.0
  0
LINE
  5
6D
100
AcDbEntity
100
AcDbLine
  8
0
 62
7
420
0
370
-1
 48
1.0
  6
BYLAYER
 10
1.1977719782687739
 20
1.0800839263012758
 30
0.0
 11
1.2416115677269239
 21
1.0736680188159151
 31
0.0
  0
LINE
  5
6E
100
AcDbEntity
100
AcDbLine
  8
0
 62
7
420
0
370
-1
 48
1.0
  6
BYLAYER
 10
1.2117603068594462
 20
1.0261679781214723
 30
0.0
 11
1.2524455394821565
 21
1.0086241667010358
 31
0.0
  0
LINE
  5
6F
100
AcDbEntity
100
AcDbLine
  8
0
 62
7
420
0
370
-1
 48
1.0
  6
BYLAYER
 10
1.2113175204880999
 20
0.9704687254773186
 30
0.0
 11
1.2460757649076584
 21
0.9429925918775903
 31
0.0
  0
LINE
  5
70
100
AcDbEntity
100
AcDbLine
  8
0
 62
7
420
0
370
-1
 48
1.0
  6
BYLAYER
 10
1.1964737943142048
 20
0.9167819803891469
 30
0.0
 11
1.2229363336141326
 21
0.8812459777084903
 31
0.0
  0
LINE
  5
71
100
AcDbEntity
100
AcDbLine
  8
0
 62
7
420
0
370
-1
 48
1.0
  6
BYLAYER
 10
1.1682407037460933
 20
0.8687664058131754
 30
0.0
 11
1.1846041596045147
 21
0.8275922539082563
 31
0.0
  0
LINE
  5
72
100
AcDbEntity
100
AcDbLine
  8
0
 62
7
420
0
370
-1
 48
1.0
  6
BYLAYER
 10
1.1285422872485942
 20
0.8296941838072674
 30
0.0
 11
1.1336915171906465
 21
0.7856878330869028
 31
0.0
  0
LINE
  5
73
100
AcDbEntity
100
AcDbLine
  8
0
 62
7
420
0
370
-1
 48
1.0
  6
BYLAYER
 10
1.0800839263012758
 20
0.8022280217312255
 30
0.0
 11
1.0736680188159156
 21
0.7583884322730752
 31
0.0
  0
LINE
  5
74
100
AcDbEntity
100
AcDbLine
  8
0
 62
7
420
0
370
-1
 48
1.0
  6
BYLAYER
 10
1.0261679781214728
 20
0.7882396931405536
 30
0.0
 11
1.0086241667010363
 21
0.7475544605178435
 31
0.0
  0
LINE
  5
75
100
AcDbEntity
100
AcDbLine
  8
0
 62
7
420
0
370
-1
 48
1.0
  6
BYLAYER
 10
0.9704687254773177
 20
0.7886824795118996
 30
0.0
 11
0.9429925918775908
 21
0.7539242350923412
 31
0.0
  0
LINE
  5
76
100
AcDbEntity
100
AcDbLine
  8
0
 62
7
420
0
370
-1
 48
1.0
  6
BYLAYER
 10
0.9167819803891479
 20
0.8035262056857951
 30
0.0
 11
0.88124597770849
 21
0.777063666385867
 31
0.0
  0
LINE
  5
77
100
AcDbEntity
100
AcDbLine
  8
0
 62
7
420
0
370
-1
 48
1.0
  6
BYLAYER
 10
0.8687664058131759
 20
0.8317592962539071
 30
0.0
 11
0.8275922539082572
 21
0.8153958403954853
 31
0.0
  0
LINE
  5
78
100
AcDbEntity
100
AcDbLine
  8
0
 62
7
420
0
370
-1
 48
1.0
  6
BYLAYER
 10
0.829694183807268
 20
0.8714577127514067
 30
0.0
 11
0.7856878330869037
 21
0.866308482809353
 31
0.0
  0
LINE
  5
79
100
AcDbEntity
100
AcDbLine
  8
0
 62
7
420
0
370
-1
 48
1.0
  6
BYLAYER
 10
0.8022280217312261
 20
0.9199160736987242
 30
0.0
 11
0.7583884322730761
 21
0.9263319811840849
 31
0.0
  0
LINE
  5
7A
100
AcDbEntity
100
AcDbLine
  8
0
 62
7
420
0
370
-1
 48
1.0
  6
BYLAYER
 10
0.7475544605178435
 20
1.0086241667010349
 30
0.0
 11
0.7882396931405538
 21
1.026167978121471
 31
0.0
  0
LINE
  5
7B
100
AcDbEntity
100
AcDbLine
  8
0
 62
7
420
0
370
-1
 48
1.0
  6
BYLAYER
 10
0.7583884322730761
 20
1.0736680188159147
 30
0.0
 11
0.8022280217312261
 21
1.0800839263012749
 31
0.0
  0
LINE
  5
7C
100
AcDbEntity
100
AcDbLine
  8
0
 62
7
420
0
370
-1
 48
1.0
  6
BYLAYER
 10
0.7856878330869019
 20
1.1336915171906465
 30
0.0
 11
0.8296941838072662
 21
1.1285422872485924
 31
0.0
  0
LINE
  5
7D
100
AcDbEntity
100
AcDbLine
  8
0
 62
7
420
0
370
-1
 48
1.0
  6
BYLAYER
 10
0.8275922539082554
 20
1.1846041596045147
 30
0.0
 11
0.8687664058131741
 21
1.168240703746092
 31
0.0
  0
LINE
  5
7E
100
AcDbEntity
100
AcDbLine
  8
0
 62
7
420
0
370
-1
 48
1.0
  6
BYLAYER
 10
0.88124597770849
 20
1.2229363336141326
 30
0.0
 11
0.9167819803891462
 21
1.1964737943142043
 31
0.0
  0
LINE
  5
7F
100
AcDbEntity
100
AcDbLine
  8
0
 62
7
420
0
370
-1
 48
1.0
  6
BYLAYER
 10
0.942992591877589
 20
1.2460757649076584
 30
0.0
 11
0.9704687254773177
 21
1.2113175204880999
 31
0.0
  0
LINE
  5
80
100
AcDbEntity
100
AcDbLine
  8
0
 62
7
420
0
370
-1
 48
1.0
  6
BYLAYER
 10
1.0086241667010345
 20
1.2524455394821565
 30
0.0
 11
1.026167978121471
 21
1.2117603068594462
 31
0.0
  0
LINE
  5
81
100
AcDbEntity
100
AcDbLine
  8
0
 62
7
420
0
370
-1
 48
1.0
  6
BYLAYER
 10
1.0736680188159156
 20
1.2416115677269248
 30
0.0
 11
1.080083926301274
 21
1.1977719782687744
 31
0.0
  0
LINE
  5
82
100
AcDbEntity
100
AcDbLine
  8
0
 62
7
420
0
370
-1
 48
1.0
  6
BYLAYER
 10
1.1336915171906465
 20
1.2143121669130972
 30
0.0
 11
1.1285422872485924
 21
1.1703058161927329
 31
0.0
  0
LINE
  5
83
100
AcDbEntity
100
AcDbLine
  8
0
 62
7
420
0
370
-1
 48
1.0
  6
BYLAYER
 10
1.1846041596045147
 20
1.1724077460917437
 30
0.0
 11
1.1682407037460916
 21
1.131233594186825
 31
0.0
  0
LINE
  5
84
100
AcDbEntity
100
AcDbLine
  8
0
 62
7
420
0
370
-1
 48
1.0
  6
BYLAYER
 10
1.2229363336141326
 20
1.11875402229151
 30
0.0
 11
1.1964737943142048
 21
1.0832180196108538
 31
0.0
  0
LINE
  5
85
100
AcDbEntity
100
AcDbLine
  8
0
 62
7
420
0
370
-1
 48
1.0
  6
BYLAYER
 10
1.2460757649076584
 20
1.0570074081224106
 30
0.0
 11
1.2113175204880999
 21
1.0295312745226823
 31
0.0
  0
LINE
  5
86
100
AcDbEntity
100
AcDbLine
  8
0
 62
7
420
0
370
-1
 48
1.0
  6
BYLAYER
 10
1.2524455394821565
 20
0.9913758332989649
 30
0.0
 11
1.2117603068594462
 21
0.973832021878529
 31
0.0
  0
LINE
  5
87
100
AcDbEntity
100
AcDbLine
  8
0
 62
7
420
0
370
-1
 48
1.0
  6
BYLAYER
 10
1.2416115677269239
 20
0.9263319811840853
 30
0.0
 11
1.1977719782687739
 21
0.9199160736987251
 31
0.0
  0
LINE
  5
88
100
AcDbEntity
100
AcDbLine
  8
0
 62
7
420
0
370
-1
 48
1.0
  6
BYLAYER
 10
1.2143121669130981
 20
0.8663084828093535
 30
0.0
 11
1.1703058161927338
 21
0.8714577127514076
 31
0.0
  0
LINE
  5
89
100
AcDbEntity
100
AcDbLine
  8
0
 62
7
420
0
370
-1
 48
1.0
  6
BYLAYER
 10
1.1724077460917446
 20
0.8153958403954857
 30
0.0
 11
1.1312335941868259
 21
0.831759296253908
 31
0.0
  0
LINE
  5
8A
100
AcDbEntity
100
AcDbLine
  8
0
 62
7
420
0
370
-1
 48
1.0
  6
BYLAYER
 10
1.11875402229151
 20
0.7770636663858674
 30
0.0
 11
1.0832180196108538
 21
0.8035262056857957
 31
0.0
  0
LINE
  5
8B
100
AcDbEntity
100
AcDbLine
  8
0
 62
7
420
0
370
-1
 48
1.0
  6
BYLAYER
 10
1.057007408122411
 20
0.7539242350923416
 30
0.0
 11
1.0295312745226823
 21
0.7886824795119001
 31
0.0
  0
LINE
  5
8C
100
AcDbEntity
100
AcDbLine
  8
0
 62
7
420
0
370
-1
 48
1.0
  6
BYLAYER
 10
0.9913758332989655
 20
0.7475544605178435
 30
0.0
 11
0.973832021878529
 21
0.7882396931405536
 31
0.0
  0
LINE
  5
8D
100
AcDbEntity
100
AcDbLine
  8
0
 62
7
420
0
370
-1
 48
1.0
  6
BYLAYER
 10
0.9263319811840862
 20
0.7583884322730752
 30
0.0
 11
0.919916073698726
 21
0.8022280217312255
 31
0.0
  0
LINE
  5
8E
100
AcDbEntity
100
AcDbLine
  8
0
 62
7
420
0
370
-1
 48
1.0
  6
BYLAYER
 10
0.8663084828093535
 20
0.7856878330869024
 30
0.0
 11
0.8714577127514076
 21
0.8296941838072671
 31
0.0
  0
LINE
  5
8F
100
AcDbEntity
100
AcDbLine
  8
0
 62
7
420
0
370
-1
 48
1.0
  6
BYLAYER
 10
0.8153958403954853
 20
0.8275922539082557
 30
0.0
 11
0.8317592962539084
 21
0.8687664058131744
 31
0.0
  0
LINE
  5
90
100
AcDbEntity
100
AcDbLine
  8
0
 62
7
420
0
370
-1
 48
1.0
  6
BYLAYER
 10
0.7770636663858674
 20
0.88124597770849
 30
0.0
 11
0.8035262056857952
 21
0.916781980389146
 31
0.0
  0
LINE
  5
91
100
AcDbEntity
100
AcDbLine
  8
0
 62
7
420
0
370
-1
 48
1.0
  6
BYLAYER
 10
0.7539242350923416
 20
0.9429925918775894
 30
0.0
 11
0.7886824795119001
 21
0.9704687254773172
 31
0.0
  0
LINE
  5
92
100
AcDbEntity
100
AcDbLine
  8
0
 62
256
370
-1
 48
1.0
  6
BYLAYER
 10
0.7475544605178435
 20
0.9913758332989641
 30
0.0
 11
0.7475544605178435
 21
1.0086241667010358
 31
0.0
  0
LINE
  5
93
100
AcDbEntity
100
AcDbLine
  8
0
 62
256
370
-1
 48
1.0
  6
BYLAYER
 10
0.7539242350923416
 20
1.0570074081224097
 30
0.0
 11
0.7583884322730761
 21
1.0736680188159151
 31
0.0
  0
LINE
  5
94
100
AcDbEntity
100
AcDbLine
  8
0
 62
256
370
-1
 48
1.0
  6
BYLAYER
 10
0.7770636663858674
 20
1.1187540222915096
 30
0.0
 11
0.7856878330869037
 21
1.1336915171906474
 31
0.0
  0
LINE
  5
95
100
AcDbEntity
100
AcDbLine
  8
0
 62
256
370
-1
 48
1.0
  6
BYLAYER
 10
0.8153958403954853
 20
1.1724077460917433
 30
0.0
 11
0.8275922539082572
 21
1.1846041596045147
 31
0.0
  0
LINE
  5
96
100
AcDbEntity
100
AcDbLine
  8
0
 62
256
370
-1
 48
1.0
  6
BYLAYER
 10
0.8663084828093535
 20
1.2143121669130972
 30
0.0
 11
0.88124597770849
 21
1.222936333614133
 31
0.0
  0
LINE
  5
97
100
AcDbEntity
100
AcDbLine
  8
0
 62
256
370
-1
 48
1.0
  6
BYLAYER
 10
0.9263319811840844
 20
1.2416115677269248
 30
0.0
 11
0.9429925918775908
 21
1.2460757649076588
 31
0.0
  0
LINE
  5
98
100
AcDbEntity
100
AcDbLine
  8
0
 62
256
370
-1
 48
1.0
  6
BYLAYER
 10
0.9913758332989637
 20
1.2524455394821565
 30
0.0
 11
1.0086241667010363
 21
1.2524455394821565
 31
0.0
  0
LINE
  5
99
100
AcDbEntity
100
AcDbLine
  8
0
 62
256
370
-1
 48
1.0
  6
BYLAYER
 10
1.0570074081224092
 20
1.2460757649076588
 30
0.0
 11
1.0736680188159156
 21
1.2416115677269244
 31
0.0
  0
LINE
  5
9A
100
AcDbEntity
100
AcDbLine
  8
0
 62
256
370
-1
 48
1.0
  6
BYLAYER
 10
1.11875402229151
 20
1.222936333614133
 30
0.0
 11
1.1336915171906465
 21
1.2143121669130972
 31
0.0
  0
LINE
  5
9B
100
AcDbEntity
100
AcDbLine
  8
0
 62
256
370
-1
 48
1.0
  6
BYLAYER
 10
1.1724077460917446
 20
1.1846041596045147
 30
0.0
 11
1.1846041596045147
 21
1.1724077460917433
 31
0.0
  0
LINE
  5
9C
100
AcDbEntity
100
AcDbLine
  8
0
 62
256
370
-1
 48
1.0
  6
BYLAYER
 10
1.2143121669130981
 20
1.133691517190647
 30
0.0
 11
1.2229363336141326
 21
1.1187540222915091
 31
0.0
  0
LINE
  5
9D
100
AcDbEntity
100
AcDbLine
  8
0
 62
256
370
-1
 48
1.0
  6
BYLAYER
 10
1.2416115677269239
 20
1.0736680188159151
 30
0.0
 11
1.2460757649076584
 21
1.0570074081224097
 31
0.0
  0
LINE
  5
9E
100
AcDbEntity
100
AcDbLine
  8
0
 62
256
370
-1
 48
1.0
  6
BYLAYER
 10
1.2524455394821565
 20
1.0086241667010358
 30
0.0
 11
1.2524455394821565
 21
0.9913758332989641
 31
0.0
  0
LINE
  5
9F
100
AcDbEntity
100
AcDbLine
  8
0
 62
256
370
-1
 48
1.0
  6
BYLAYER
 10
1.2460757649076584
 20
0.9429925918775903
 30
0.0
 11
1.2416115677269239
 21
0.9263319811840849
 31
0.0
  0
LINE
  5
A0
100
AcDbEntity
100
AcDbLine
  8
0
 62
256
370
-1
 48
1.0
  6
BYLAYER
 10
1.2229363336141326
 20
0.8812459777084903
 30
0.0
 11
1.2143121669130963
 21
0.8663084828093526
 31
0.0
  0
LINE
  5
A1
100
AcDbEntity
100
AcDbLine
  8
0
 62
256
370
-1
 48
1.0
  6
BYLAYER
 10
1.1846041596045147
 20
0.8275922539082563
 30
0.0
 11
1.1724077460917428
 21
0.8153958403954847
 31
0.0
  0
LINE
  5
A2
100
AcDbEntity
100
AcDbLine
  8
0
 62
256
370
-1
 48
1.0
  6
BYLAYER
 10
1.1336915171906465
 20
0.7856878330869028
 30
0.0
 11
1.11875402229151
 21
0.777063666385867
 31
0.0
  0
LINE
  5
A3
100
AcDbEntity
100
AcDbLine
  8
0
 62
256
370
-1
 48
1.0
  6
BYLAYER
 10
1.0736680188159156
 20
0.7583884322730752
 30
0.0
 11
1.0570074081224092
 21
0.7539242350923412
 31
0.0
  0
LINE
  5
A4
100
AcDbEntity
100
AcDbLine
  8
0
 62
256
370
-1
 48
1.0
  6
BYLAYER
 10
1.0086241667010363
 20
0.7475544605178435
 30
0.0
 11
0.9913758332989637
 21
0.7475544605178435
 31
0.0
  0
LINE
  5
A5
100
AcDbEntity
100
AcDbLine
  8
0
 62
256
370
-1
 48
1.0
  6
BYLAYER
 10
0.9429925918775908
 20
0.7539242350923412
 30
0.0
 11
0.9263319811840844
 21
0.7583884322730752
 31
0.0
  0
LINE
  5
A6
100
AcDbEntity
100
AcDbLine
  8
0
 62
256
370
-1
 48
1.0
  6
BYLAYER
 10
0.88124597770849
 20
0.777063666385867
 30
0.0
 11
0.8663084828093535
 21
0.7856878330869028
 31
0.0
  0
LINE
  5
A7
100
AcDbEntity
100
AcDbLine
  8
0
 62
256
370
-1
 48
1.0
  6
BYLAYER
 10
0.8275922539082572
 20
0.8153958403954853
 30
0.0
 11
0.8153958403954853
 21
0.8275922539082563
 31
0.0
  0
LINE
  5
A8
100
AcDbEntity
100
AcDbLine
  8
0
 62
256
370
-1
 48
1.0
  6
BYLAYER
 10
0.7856878330869037
 20
0.866308482809353
 30
0.0
 11
0.7770636663858674
 21
0.8812459777084909
 31
0.0
  0
LINE
  5
A9
100
AcDbEntity
100
AcDbLine
  8
0
 62
256
370
-1
 48
1.0
  6
BYLAYER
 10
0.7583884322730761
 20
0.9263319811840849
 30
0.0
 11
0.7539242350923416
 21
0.9429925918775903
 31
0.0
  0
ARC
  5
AA
100
AcDbEntity
  8
0
 62
3
420
65280
370
-1
 48
1.0
  6
BYLAYER
100
AcDbCircle
 10
1.0000000000000036
 20
0.9999999999999994
 30
0.0
 40
0.0960000000000001
100
AcDbArc
 50
126.8698976458433236
 51
53.1301023541566764
  0
LINE
  5
AB
100
AcDbEntity
100
AcDbLine
  8
0
 62
256
370
-1
 48
1.0
  6
BYLAYER
 10
0.8022280217312261
 20
1.0800839263012758
 30
0.0
 11
0.803526205685797
 21
1.0832180196108538
 31
0.0
  0
LINE
  5
AC
100
AcDbEntity
100
AcDbLine
  8
0
 62
256
370
-1
 48
1.0
  6
BYLAYER
 10
0.829694183807268
 20
1.1285422872485942
 30
0.0
 11
0.8317592962539084
 21
1.1312335941868263
 31
0.0
  0
LINE
  5
AD
100
AcDbEntity
100
AcDbLine
  8
0
 62
256
370
-1
 48
1.0
  6
BYLAYER
 10
0.8687664058131759
 20
1.1682407037460942
 30
0.0
 11
0.8714577127514094
 21
1.1703058161927347
 31
0.0
  0
LINE
  5
AE
100
AcDbEntity
100
AcDbLine
  8
0
 62
256
370
-1
 48
1.0
  6
BYLAYER
 10
0.9167819803891479
 20
1.196473794314207
 30
0.0
 11
0.919916073698726
 21
1.1977719782687766
 31
0.0
  0
LINE
  5
AF
100
AcDbEntity
100
AcDbLine
  8
0
 62
256
370
-1
 48
1.0
  6
BYLAYER
 10
0.9704687254773212
 20
1.211317520488103
 30
0.0
 11
0.9738320218785308
 21
1.2117603068594489
 31
0.0
  0
LINE
  5
B0
100
AcDbEntity
100
AcDbLine
  8
0
 62
256
370
-1
 48
1.0
  6
BYLAYER
 10
1.0261679781214745
 20
1.2117603068594494
 30
0.0
 11
1.0295312745226859
 21
1.211317520488103
 31
0.0
  0
LINE
  5
B1
100
AcDbEntity
100
AcDbLine
  8
0
 62
256
370
-1
 48
1.0
  6
BYLAYER
 10
1.0800839263012794
 20
1.1977719782687775
 30
0.0
 11
1.0832180196108574
 21
1.196473794314207
 31
0.0
  0
LINE
  5
B2
100
AcDbEntity
100
AcDbLine
  8
0
 62
256
370
-1
 48
1.0
  6
BYLAYER
 10
1.1285422872485977
 20
1.1703058161927355
 30
0.0
 11
1.1312335941868294
 21
1.1682407037460947
 31
0.0
  0
LINE
  5
B3
100
AcDbEntity
100
AcDbLine
  8
0
 62
256
370
-1
 48
1.0
  6
BYLAYER
 10
1.1682407037460987
 20
1.1312335941868268
 30
0.0
 11
1.1703058161927391
 21
1.1285422872485946
 31
0.0
  0
LINE
  5
B4
100
AcDbEntity
100
AcDbLine
  8
0
 62
256
370
-1
 48
1.0
  6
BYLAYER
 10
1.1964737943142101
 20
1.0832180196108547
 30
0.0
 11
1.197771978268781
 21
1.0800839263012763
 31
0.0
  0
LINE
  5
B5
100
AcDbEntity
100
AcDbLine
  8
0
 62
256
370
-1
 48
1.0
  6
BYLAYER
 10
1.211317520488107
 20
1.0295312745226823
 30
0.0
 11
1.2117603068594534
 21
1.0261679781214719
 31
0.0
  0
LINE
  5
B6
100
AcDbEntity
100
AcDbLine
  8
0
 62
256
370
-1
 48
1.0
  6
BYLAYER
 10
1.2117603068594534
 20
0.9738320218785281
 30
0.0
 11
1.211317520488107
 21
0.9704687254773176
 31
0.0
  0
LINE
  5
B7
100
AcDbEntity
100
AcDbLine
  8
0
 62
256
370
-1
 48
1.0
  6
BYLAYER
 10
1.197771978268781
 20
0.9199160736987233
 30
0.0
 11
1.1964737943142119
 21
0.9167819803891453
 31
0.0
  0
LINE
  5
B8
100
AcDbEntity
100
AcDbLine
  8
0
 62
256
370
-1
 48
1.0
  6
BYLAYER
 10
1.1703058161927391
 20
0.8714577127514049
 30
0.0
 11
1.1682407037460987
 21
0.8687664058131728
 31
0.0
  0
LINE
  5
B9
100
AcDbEntity
100
AcDbLine
  8
0
 62
256
370
-1
 48
1.0
  6
BYLAYER
 10
1.1312335941868312
 20
0.8317592962539049
 30
0.0
 11
1.1285422872485995
 21
0.8296941838072643
 31
0.0
  0
LINE
  5
BA
100
AcDbEntity
100
AcDbLine
  8
0
 62
256
370
-1
 48
1.0
  6
BYLAYER
 10
1.0832180196108592
 20
0.8035262056857921
 30
0.0
 11
1.0800839263012811
 21
0.8022280217312224
 31
0.0
  0
LINE
  5
BB
100
AcDbEntity
100
AcDbLine
  8
0
 62
256
370
-1
 48
1.0
  6
BYLAYER
 10
1.0295312745226859
 20
0.7886824795118961
 30
0.0
 11
1.0261679781214763
 21
0.7882396931405502
 31
0.0
  0
LINE
  5
BC
100
AcDbEntity
100
AcDbLine
  8
0
 62
256
370
-1
 48
1.0
  6
BYLAYER
 10
0.9738320218785326
 20
0.7882396931405496
 30
0.0
 11
0.9704687254773212
 21
0.7886824795118961
 31
0.0
  0
LINE
  5
BD
100
AcDbEntity
100
AcDbLine
  8
0
 62
256
370
-1
 48
1.0
  6
BYLAYER
 10
0.9199160736987277
 20
0.8022280217312215
 30
0.0
 11
0.9167819803891497
 21
0.8035262056857921
 31
0.0
  0
LINE
  5
BE
100
AcDbEntity
100
AcDbLine
  8
0
 62
256
370
-1
 48
1.0
  6
BYLAYER
 10
0.8714577127514094
 20
0.8296941838072636
 30
0.0
 11
0.8687664058131777
 21
0.8317592962539044
 31
0.0
  0
LINE
  5
BF
100
AcDbEntity
100
AcDbLine
  8
0
 62
256
370
-1
 48
1.0
  6
BYLAYER
 10
0.8317592962539084
 20
0.8687664058131719
 30
0.0
 11
0.829694183807268
 21
0.8714577127514045
 31
0.0
  0
LINE
  5
C0
100
AcDbEntity
100
AcDbLine
  8
0
 62
256
370
-1
 48
1.0
  6
BYLAYER
 10
0.803526205685797
 20
0.9167819803891444
 30
0.0
 11
0.8022280217312261
 21
0.9199160736987224
 31
0.0
  0
LINE
  5
C1
100
AcDbEntity
100
AcDbLine
  8
0
 62
256
370
-1
 48
1.0
  6
BYLAYER
 10
0.7886824795119001
 20
0.9704687254773163
 30
0.0
 11
0.7882396931405538
 21
0.9738320218785272
 31
0.0
  0
LINE
  5
C2
100
AcDbEntity
100
AcDbLine
  8
0
 62
256
370
-1
 48
1.0
  6
BYLAYER
 10
0.7882396931405538
 20
1.026167978121471
 30
0.0
 11
0.7886824795119001
 21
1.0295312745226814
 31
0.0
  0
LINE
  5
C3
100
AcDbEntity
100
AcDbLine
  8
0
 62
3
420
65280
370
-1
 48
1.0
  6
BYLAYER
 10
0.9424000000000046
 20
1.0768000000000002
 30
0.0
 11
1.057600000000003
 21
1.0768000000000002
 31
0.0
  0
ENDSEC
  0
SECTION
  2
OBJECTS
  0
DICTIONARY
  5
C
100
AcDbDictionary
280
0
281
1
  3
ACAD_GROUP
350
D
  3
ACAD_LAYOUT
350
1A
  3
ACAD_MLINESTYLE
350
17
  3
ACAD_PLOTSETTINGS
350
19
  3
ACAD_PLOTSTYLENAME
350
E
  3
AcDbVariableDictionary
350
C4
  3
QCAD_OBJECTS
350
C5
  0
DICTIONARY
  5
D
100
AcDbDictionary
280
0
281
1
  0
ACDBDICTIONARYWDFLT
  5
E
100
AcDbDictionary
281
1
  3
Normal
350
F
100
AcDbDictionaryWithDefault
340
F
  0
ACDBPLACEHOLDER
  5
F
  0
DICTIONARY
  5
17
100
AcDbDictionary
280
0
281
1
  3
Standard
350
18
  0
MLINESTYLE
  5
18
100
AcDbMlineStyle
  2
STANDARD
 70
0
  3

 62
256
 51
90.0
 52
90.0
 71
2
 49
0.5
 62
256
  6
BYLAYER
 49
-0.5
 62
256
  6
BYLAYER
  0
DICTIONARY
  5
19
100
AcDbDictionary
280
0
281
1
  0
DICTIONARY
  5
1A
100
AcDbDictionary
281
1
  3
Layout1
350
1E
  3
Layout2
350
26
  3
Model
350
22
  0
LAYOUT
  5
1E
100
AcDbPlotSettings
  1

  2
none_device
  4

  6

 40
0.0
 41
0.0
 42
0.0
 43
0.0
 44
0.0
 45
0.0
 46
0.0
 47
0.0
 48
0.0
 49
0.0
140
0.0
141
0.0
142
1.0
143
1.0
 70
688
 72
0
 73
0
 74
5
  7

 75
16
147
1.0
148
0.0
149
0.0
100
AcDbLayout
  1
Layout1
 70
1
 71
1
 10
0.0
 20
0.0
 11
420.0
 21
297.0
 12
0.0
 22
0.0
 32
0.0
 14
100000000000000000000.0
 24
100000000000000000000.0
 34
100000000000000000000.0
 15
-100000000000000000000.0
 25
-100000000000000000000.0
 35
-100000000000000000000.0
146
0.0
 13
0.0
 23
0.0
 33
0.0
 16
1.0
 26
0.0
 36
0.0
 17
0.0
 27
1.0
 37
0.0
 76
0
330
1B
  0
LAYOUT
  5
22
100
AcDbPlotSettings
  1

  2
none_device
  4

  6

 40
0.0
 41
0.0
 42
0.0
 43
0.0
 44
0.0
 45
0.0
 46
0.0
 47
0.0
 48
0.0
 49
0.0
140
0.0
141
0.0
142
1.0
143
1.0
 70
1712
 72
0
 73
0
 74
0
  7

 75
0
147
1.0
148
0.0
149
0.0
100
AcDbLayout
  1
Model
 70
1
 71
0
 10
0.0
 20
0.0
 11
12.0
 21
9.0
 12
0.0
 22
0.0
 32
0.0
 14
0.0
 24
0.0
 34
0.0
 15
0.0
 25
0.0
 35
0.0
146
0.0
 13
0.0
 23
0.0
 33
0.0
 16
1.0
 26
0.0
 36
0.0
 17
0.0
 27
1.0
 37
0.0
 76
0
330
1F
  0
LAYOUT
  5
26
100
AcDbPlotSettings
  1

  2
none_device
  4

  6

 40
0.0
 41
0.0
 42
0.0
 43
0.0
 44
0.0
 45
0.0
 46
0.0
 47
0.0
 48
0.0
 49
0.0
140
0.0
141
0.0
142
1.0
143
1.0
 70
688
 72
0
 73
0
 74
5
  7

 75
16
147
1.0
148
0.0
149
0.0
100
AcDbLayout
  1
Layout2
 70
1
 71
2
 10
0.0
 20
0.0
 11
12.0
 21
9.0
 12
0.0
 22
0.0
 32
0.0
 14
0.0
 24
0.0
 34
0.0
 15
0.0
 25
0.0
 35
0.0
146
0.0
 13
0.0
 23
0.0
 33
0.0
 16
1.0
 26
0.0
 36
0.0
 17
0.0
 27
1.0
 37
0.0
 76
0
330
23
  0
DICTIONARY
  5
C4
100
AcDbDictionary
281
1
  3
DIMASSOC
350
C7
  3
HIDETEXT
350
C6
  0
DICTIONARYVAR
  5
C6
100
DictionaryVariables
280
0
  1
2
  0
DICTIONARYVAR
  5
C7
100
DictionaryVariables
280
0
  1
1
  0
DICTIONARY
  5
C5
100
AcDbDictionary
281
1
  3
ColorSettings/BackgroundColor
350
C8
  3
ColorSettings/ColorMode
350
C9
  3
Grid/DisplayGrid00
350
CA
  3
Grid/DisplayGrid01
350
CB
  3
Grid/DisplayGrid02
350
CC
  3
Grid/DisplayGrid03
350
CD
  3
Grid/GridSpacingX00
350
CE
  3
Grid/GridSpacingX01
350
CF
  3
Grid/GridSpacingX02
350
D0
  3
Grid/GridSpacingX03
350
D1
  3
Grid/GridSpacingY00
350
D2
  3
Grid/GridSpacingY01
350
D3
  3
Grid/GridSpacingY02
350
D4
  3
Grid/GridSpacingY03
350
D5
  3
Grid/IsometricGrid00
350
D6
  3
Grid/IsometricGrid01
350
D7
  3
Grid/IsometricGrid02
350
D8
  3
Grid/IsometricGrid03
350
D9
  3
Grid/IsometricProjection00
350
DA
  3
Grid/IsometricProjection01
350
DB
  3
Grid/IsometricProjection02
350
DC
  3
Grid/IsometricProjection03
350
DD
  3
Grid/MetaGridSpacingX00
350
DE
  3
Grid/MetaGridSpacingX01
350
DF
  3
Grid/MetaGridSpacingX02
350
E0
  3
Grid/MetaGridSpacingX03
350
E1
  3
Grid/MetaGridSpacingY00
350
E2
  3
Grid/MetaGridSpacingY01
350
E3
  3
Grid/MetaGridSpacingY02
350
E4
  3
Grid/MetaGridSpacingY03
350
E5
  3
MultiPageSettings/Columns
350
E6
  3
MultiPageSettings/GlueMarginsBottom
350
E7
  3
MultiPageSettings/GlueMarginsLeft
350
E8
  3
MultiPageSettings/GlueMarginsRight
350
E9
  3
MultiPageSettings/GlueMarginsTop
350
EA
  3
MultiPageSettings/PrintCropMarks
350
EB
  3
MultiPageSettings/Rows
350
EC
  3
PageSettings/OffsetX
350
ED
  3
PageSettings/OffsetY
350
EE
  3
PageSettings/PageOrientation
350
EF
  3
PageSettings/PaperHeight
350
F0
  3
PageSettings/PaperWidth
350
F1
  3
PageSettings/Scale
350
F2
  3
PageSettings/ShowPaperBorders
350
F3
  3
UnitSettings/PaperUnit
350
F4
  0
XRECORD
  5
C8
330
C5
100
AcDbXrecord
280
1
1000
White
  0
XRECORD
  5
C9
330
C5
100
AcDbXrecord
280
1
1000
FullColor
  0
XRECORD
  5
CA
330
C5
100
AcDbXrecord
280
1
290
1
  0
XRECORD
  5
CB
330
C5
100
AcDbXrecord
280
1
290
1
  0
XRECORD
  5
CC
330
C5
100
AcDbXrecord
280
1
290
1
  0
XRECORD
  5
CD
330
C5
100
AcDbXrecord
280
1
290
1
  0
XRECORD
  5
CE
330
C5
100
AcDbXrecord
280
1
1000
auto
  0
XRECORD
  5
CF
330
C5
100
AcDbXrecord
280
1
1000
auto
  0
XRECORD
  5
D0
330
C5
100
AcDbXrecord
280
1
1000
auto
  0
XRECORD
  5
D1
330
C5
100
AcDbXrecord
280
1
1000
auto
  0
XRECORD
  5
D2
330
C5
100
AcDbXrecord
280
1
1000
auto
  0
XRECORD
  5
D3
330
C5
100
AcDbXrecord
280
1
1000
auto
  0
XRECORD
  5
D4
330
C5
100
AcDbXrecord
280
1
1000
auto
  0
XRECORD
  5
D5
330
C5
100
AcDbXrecord
280
1
1000
auto
  0
XRECORD
  5
D6
330
C5
100
AcDbXrecord
280
1
290
0
  0
XRECORD
  5
D7
330
C5
100
AcDbXrecord
280
1
290
0
  0
XRECORD
  5
D8
330
C5
100
AcDbXrecord
280
1
290
0
  0
XRECORD
  5
D9
330
C5
100
AcDbXrecord
280
1
290
0
  0
XRECORD
  5
DA
330
C5
100
AcDbXrecord
280
1
 90
0
  0
XRECORD
  5
DB
330
C5
100
AcDbXrecord
280
1
 90
0
  0
XRECORD
  5
DC
330
C5
100
AcDbXrecord
280
1
 90
0
  0
XRECORD
  5
DD
330
C5
100
AcDbXrecord
280
1
 90
0
  0
XRECORD
  5
DE
330
C5
100
AcDbXrecord
280
1
1000
auto
  0
XRECORD
  5
DF
330
C5
100
AcDbXrecord
280
1
1000
auto
  0
XRECORD
  5
E0
330
C5
100
AcDbXrecord
280
1
1000
auto
  0
XRECORD
  5
E1
330
C5
100
AcDbXrecord
280
1
1000
auto
  0
XRECORD
  5
E2
330
C5
100
AcDbXrecord
280
1
1000
auto
  0
XRECORD
  5
E3
330
C5
100
AcDbXrecord
280
1
1000
auto
  0
XRECORD
  5
E4
330
C5
100
AcDbXrecord
280
1
1000
auto
  0
XRECORD
  5
E5
330
C5
100
AcDbXrecord
280
1
1000
auto
  0
XRECORD
  5
E6
330
C5
100
AcDbXrecord
280
1
 90
1
  0
XRECORD
  5
E7
330
C5
100
AcDbXrecord
280
1
 40
0.5
  0
XRECORD
  5
E8
330
C5
100
AcDbXrecord
280
1
 40
0.5
  0
XRECORD
  5
E9
330
C5
100
AcDbXrecord
280
1
 40
0.5
  0
XRECORD
  5
EA
330
C5
100
AcDbXrecord
280
1
 40
0.5
  0
XRECORD
  5
EB
330
C5
100
AcDbXrecord
280
1
290
0
  0
XRECORD
  5
EC
330
C5
100
AcDbXrecord
280
1
 90
1
  0
XRECORD
  5
ED
330
C5
100
AcDbXrecord
280
1
 40
0.0
  0
XRECORD
  5
EE
330
C5
100
AcDbXrecord
280
1
 40
0.0
  0
XRECORD
  5
EF
330
C5
100
AcDbXrecord
280
1
1000
Portrait
  0
XRECORD
  5
F0
330
C5
100
AcDbXrecord
280
1
 40
11.6929133858268006
  0
XRECORD
  5
F1
330
C5
100
AcDbXrecord
280
1
 40
8.2677165354330704
  0
XRECORD
  5
F2
330
C5
100
AcDbXrecord
280
1
1000
1:1
  0
XRECORD
  5
F3
330
C5
100
AcDbXrecord
280
1
290
1
  0
XRECORD
  5
F4
330
C5
100
AcDbXrecord
280
1
 90
1
  0
ENDSEC
  0
EOF
