999
dxflib 3.7.5.0
  0
SECTION
  2
HEADER
  9
$ACADVER
  1
AC1015
  9
$HANDSEED
  5
FFFF
  9
$DIMADEC
 70
0
  9
$DIMASZ
 40
0.125
  9
$DIMAUNIT
 70
0
  9
$DIMAZIN
 70
2
  9
$DIMDEC
 70
4
  9
$DIMEXE
 40
0.0625
  9
$DIMEXO
 40
0.03125
  9
$DIMGAP
 40
0.03125
  9
$DIMLUNIT
 70
3
  9
$DIMSCALE
 40
1.0
  9
$DIMTSZ
 40
0.0
  9
$DIMTXT
 40
0.125
  9
$DIMZIN
 70
8
  9
$DWGCODEPAGE
  3
ANSI_1252
  9
$INSUNITS
 70
1
  9
$LTSCALE
 40
1.0
  9
$MEASUREMENT
 70
0
  9
$PDMODE
 70
0
  9
$PDSIZE
 40
0
  0
ENDSEC
  0
SECTION
  2
TABLES
  0
TABLE
  2
VPORT
  5
8
100
AcDbSymbolTable
 70
1
  0
VPORT
  5
30
100
AcDbSymbolTableRecord
100
AcDbViewportTableRecord
  2
*Active
 70
0
 10
0.0
 20
0.0
 11
1.0
 21
1.0
 12
286.3055555555554861
 22
148.5
 13
0.0
 23
0.0
 14
10.0
 24
10.0
 15
10.0
 25
10.0
 16
0.0
 26
0.0
 36
1.0
 17
0.0
 27
0.0
 37
0.0
 40
297.0
 41
1.92798353909465
 42
50.0
 43
0.0
 44
0.0
 50
0.0
 51
0.0
 71
0
 72
100
 73
1
 74
3
 75
1
 76
1
 77
0
 78
0
281
0
 65
1
110
0.0
120
0.0
130
0.0
111
1.0
121
0.0
131
0.0
112
0.0
122
1.0
132
0.0
 79
0
146
0.0
  0
ENDTAB
  0
TABLE
  2
LTYPE
  5
5
100
AcDbSymbolTable
 70
50
  0
LTYPE
  5
16
100
AcDbSymbolTableRecord
100
AcDbLinetypeTableRecord
  2
Continuous
 70
0
  3
Solid line
 72
65
 73
0
 40
0.0
  0
LTYPE
  5
31
100
AcDbSymbolTableRecord
100
AcDbLinetypeTableRecord
  2
ACAD_ISO15W100
 70
0
  3
ISO double-dash triple-dot __ __ . . . __ __ . .
 72
65
 73
10
 40
39.0
 49
12.0
 74
0
 49
-3.0
 74
0
 49
12.0
 74
0
 49
-3.0
 74
0
 49
0.0
 74
0
 49
-3.0
 74
0
 49
0.0
 74
0
 49
-3.0
 74
0
 49
0.0
 74
0
 49
-3.0
 74
0
  0
LTYPE
  5
32
100
AcDbSymbolTableRecord
100
AcDbLinetypeTableRecord
  2
HOT_WATER_SUPPLY
 70
0
  3
Hot water supply ---- HW ---- HW ---- HW ----
 72
65
 73
3
 40
22.8599999999999994
 49
12.6999999999999993
 74
0
 49
-5.0800000000000001
 74
0
 49
-5.0800000000000001
 74
0
  0
LTYPE
  5
33
100
AcDbSymbolTableRecord
100
AcDbLinetypeTableRecord
  2
DIVIDE
 70
0
  3
Divide ____ . . ____ . . ____ . . ____ . . ____
 72
65
 73
6
 40
31.75
 49
12.6999999999999993
 74
0
 49
-6.3499999999999996
 74
0
 49
0.0
 74
0
 49
-6.3499999999999996
 74
0
 49
0.0
 74
0
 49
-6.3499999999999996
 74
0
  0
LTYPE
  5
34
100
AcDbSymbolTableRecord
100
AcDbLinetypeTableRecord
  2
ACAD_ISO10W100
 70
0
  3
ISO dash dot __ . __ . __ . __ . __ . __ . __ . 
 72
65
 73
4
 40
18.0
 49
12.0
 74
0
 49
-3.0
 74
0
 49
0.0
 74
0
 49
-3.0
 74
0
  0
LTYPE
  5
35
100
AcDbSymbolTableRecord
100
AcDbLinetypeTableRecord
  2
GAS_LINE
 70
0
  3
Gas line ----GAS----GAS----GAS----GAS----GAS----GAS--
 72
65
 73
3
 40
24.1300000000000026
 49
12.6999999999999993
 74
0
 49
-5.0800000000000001
 74
0
 49
-6.3499999999999996
 74
0
  0
LTYPE
  5
36
100
AcDbSymbolTableRecord
100
AcDbLinetypeTableRecord
  2
ACAD_ISO04W100
 70
0
  3
ISO long-dash dot ____ . ____ . ____ . ____ . _
 72
65
 73
4
 40
30.0
 49
24.0
 74
0
 49
-3.0
 74
0
 49
0.0
 74
0
 49
-3.0
 74
0
  0
LTYPE
  5
37
100
AcDbSymbolTableRecord
100
AcDbLinetypeTableRecord
  2
CENTER2
 70
0
  3
Center (.5x) ___ _ ___ _ ___ _ ___ _ ___ _ ___
 72
65
 73
4
 40
28.5750000000000028
 49
19.0500000000000007
 74
0
 49
-3.1749999999999998
 74
0
 49
3.1749999999999998
 74
0
 49
-3.1749999999999998
 74
0
  0
LTYPE
  5
38
100
AcDbSymbolTableRecord
100
AcDbLinetypeTableRecord
  2
ACAD_ISO11W100
 70
0
  3
ISO double-dash dot __ __ . __ __ . __ __ . __ _
 72
65
 73
6
 40
33.0
 49
12.0
 74
0
 49
-3.0
 74
0
 49
12.0
 74
0
 49
-3.0
 74
0
 49
0.0
 74
0
 49
-3.0
 74
0
  0
LTYPE
  5
39
100
AcDbSymbolTableRecord
100
AcDbLinetypeTableRecord
  2
HIDDEN2
 70
0
  3
Hidden (.5x) _ _ _ _ _ _ _ _ _ _ _ _ _ _ _ _ _ 
 72
65
 73
2
 40
4.7624999999999993
 49
3.1749999999999998
 74
0
 49
-1.5874999999999999
 74
0
  0
LTYPE
  5
3A
100
AcDbSymbolTableRecord
100
AcDbLinetypeTableRecord
  2
BORDERX2
 70
0
  3
Border (2x) ____  ____  .  ____  ____  .  ___
 72
65
 73
6
 40
88.8999999999999915
 49
25.3999999999999986
 74
0
 49
-12.6999999999999993
 74
0
 49
25.3999999999999986
 74
0
 49
-12.6999999999999993
 74
0
 49
0.0
 74
0
 49
-12.6999999999999993
 74
0
  0
LTYPE
  5
3B
100
AcDbSymbolTableRecord
100
AcDbLinetypeTableRecord
  2
ACAD_ISO05W100
 70
0
  3
ISO long-dash double-dot ____ .. ____ .. ____ . 
 72
65
 73
6
 40
33.0
 49
24.0
 74
0
 49
-3.0
 74
0
 49
0.0
 74
0
 49
-3.0
 74
0
 49
0.0
 74
0
 49
-3.0
 74
0
  0
LTYPE
  5
3C
100
AcDbSymbolTableRecord
100
AcDbLinetypeTableRecord
  2
DASHDOTX2
 70
0
  3
Dash dot (2x) ____  .  ____  .  ____  .  ___
 72
65
 73
4
 40
50.7999999999999972
 49
25.3999999999999986
 74
0
 49
-12.6999999999999993
 74
0
 49
0.0
 74
0
 49
-12.6999999999999993
 74
0
  0
LTYPE
  5
3D
100
AcDbSymbolTableRecord
100
AcDbLinetypeTableRecord
  2
HIDDENX2
 70
0
  3
Hidden (2x) ____ ____ ____ ____ ____ ____ ____ 
 72
65
 73
2
 40
19.0499999999999972
 49
12.6999999999999993
 74
0
 49
-6.3499999999999996
 74
0
  0
LTYPE
  5
3E
100
AcDbSymbolTableRecord
100
AcDbLinetypeTableRecord
  2
CENTERX2
 70
0
  3
Center (2x) ________  __  ________  __  _____
 72
65
 73
4
 40
101.6000000000000085
 49
63.5
 74
0
 49
-12.6999999999999993
 74
0
 49
12.6999999999999993
 74
0
 49
-12.6999999999999993
 74
0
  0
LTYPE
  5
3F
100
AcDbSymbolTableRecord
100
AcDbLinetypeTableRecord
  2
BORDER2
 70
0
  3
Border (.5x) __.__.__.__.__.__.__.__.__.__.__.
 72
65
 73
6
 40
22.2249999999999979
 49
6.3499999999999996
 74
0
 49
-3.1749999999999998
 74
0
 49
6.3499999999999996
 74
0
 49
-3.1749999999999998
 74
0
 49
0.0
 74
0
 49
-3.1749999999999998
 74
0
  0
LTYPE
  5
40
100
AcDbSymbolTableRecord
100
AcDbLinetypeTableRecord
  2
DASHDOT2
 70
0
  3
Dash dot (.5x) _._._._._._._._._._._._._._._.
 72
65
 73
4
 40
12.6999999999999993
 49
6.3499999999999996
 74
0
 49
-3.1749999999999998
 74
0
 49
0.0
 74
0
 49
-3.1749999999999998
 74
0
  0
LTYPE
  5
41
100
AcDbSymbolTableRecord
100
AcDbLinetypeTableRecord
  2
ACAD_ISO12W100
 70
0
  3
ISO dash double-dot __ . . __ . . __ . . __ . . 
 72
65
 73
6
 40
21.0
 49
12.0
 74
0
 49
-3.0
 74
0
 49
0.0
 74
0
 49
-3.0
 74
0
 49
0.0
 74
0
 49
-3.0
 74
0
  0
LTYPE
  5
42
100
AcDbSymbolTableRecord
100
AcDbLinetypeTableRecord
  2
ACAD_ISO07W100
 70
0
  3
ISO dot . . . . . . . . . . . . . . . . . . . . 
 72
65
 73
2
 40
3.0
 49
0.0
 74
0
 49
-3.0
 74
0
  0
LTYPE
  5
43
100
AcDbSymbolTableRecord
100
AcDbLinetypeTableRecord
  2
ACAD_ISO06W100
 70
0
  3
ISO long-dash triple-dot ____ ... ____ ... ____
 72
65
 73
8
 40
36.0
 49
24.0
 74
0
 49
-3.0
 74
0
 49
0.0
 74
0
 49
-3.0
 74
0
 49
0.0
 74
0
 49
-3.0
 74
0
 49
0.0
 74
0
 49
-3.0
 74
0
  0
LTYPE
  5
44
100
AcDbSymbolTableRecord
100
AcDbLinetypeTableRecord
  2
CENTER
 70
0
  3
Center ____ _ ____ _ ____ _ ____ _ ____ _ ____
 72
65
 73
4
 40
50.8000000000000043
 49
31.75
 74
0
 49
-6.3499999999999996
 74
0
 49
6.3499999999999996
 74
0
 49
-6.3499999999999996
 74
0
  0
LTYPE
  5
45
100
AcDbSymbolTableRecord
100
AcDbLinetypeTableRecord
  2
HIDDEN
 70
0
  3
Hidden __ __ __ __ __ __ __ __ __ __ __ __ __ __
 72
65
 73
2
 40
9.5249999999999986
 49
6.3499999999999996
 74
0
 49
-3.1749999999999998
 74
0
  0
LTYPE
  5
46
100
AcDbSymbolTableRecord
100
AcDbLinetypeTableRecord
  2
DOTX2
 70
0
  3
Dot (2x) .  .  .  .  .  .  .  .  .  .  .  .  .  .
 72
65
 73
2
 40
12.6999999999999993
 49
0.0
 74
0
 49
-12.6999999999999993
 74
0
  0
LTYPE
  5
47
100
AcDbSymbolTableRecord
100
AcDbLinetypeTableRecord
  2
PHANTOM
 70
0
  3
Phantom ______  __  __  ______  __  __  ______ 
 72
65
 73
6
 40
63.5000000000000071
 49
31.75
 74
0
 49
-6.3499999999999996
 74
0
 49
6.3499999999999996
 74
0
 49
-6.3499999999999996
 74
0
 49
6.3499999999999996
 74
0
 49
-6.3499999999999996
 74
0
  0
LTYPE
  5
48
100
AcDbSymbolTableRecord
100
AcDbLinetypeTableRecord
  2
ACAD_ISO08W100
 70
0
  3
ISO long-dash short-dash ____ __ ____ __ ____ _
 72
65
 73
4
 40
36.0
 49
24.0
 74
0
 49
-3.0
 74
0
 49
6.0
 74
0
 49
-3.0
 74
0
  0
LTYPE
  5
49
100
AcDbSymbolTableRecord
100
AcDbLinetypeTableRecord
  2
DASHEDX2
 70
0
  3
Dashed (2x) ____  ____  ____  ____  ____  ___
 72
65
 73
2
 40
38.0999999999999943
 49
25.3999999999999986
 74
0
 49
-12.6999999999999993
 74
0
  0
LTYPE
  5
4A
100
AcDbSymbolTableRecord
100
AcDbLinetypeTableRecord
  2
DRAINAGE
 70
0
  3
Drainage ---->---->---->----
 72
65
 73
2
 40
10.1600000000000001
 49
5.0800000000000001
 74
0
 49
5.0800000000000001
 74
0
  0
LTYPE
  5
4B
100
AcDbSymbolTableRecord
100
AcDbLinetypeTableRecord
  2
ACAD_ISO02W100
 70
0
  3
ISO dash __ __ __ __ __ __ __ __ __ __ __ __ __
 72
65
 73
2
 40
15.0
 49
12.0
 74
0
 49
-3.0
 74
0
  0
LTYPE
  5
4C
100
AcDbSymbolTableRecord
100
AcDbLinetypeTableRecord
  2
PHANTOM2
 70
0
  3
Phantom (.5x) ___ _ _ ___ _ _ ___ _ _ ___ _ _
 72
65
 73
6
 40
31.7500000000000036
 49
15.875
 74
0
 49
-3.1749999999999998
 74
0
 49
3.1749999999999998
 74
0
 49
-3.1749999999999998
 74
0
 49
3.1749999999999998
 74
0
 49
-3.1749999999999998
 74
0
  0
LTYPE
  5
4D
100
AcDbSymbolTableRecord
100
AcDbLinetypeTableRecord
  2
DASHED2
 70
0
  3
Dashed (.5x) _ _ _ _ _ _ _ _ _ _ _ _ _ _ _ _ _ 
 72
65
 73
2
 40
9.5249999999999986
 49
6.3499999999999996
 74
0
 49
-3.1749999999999998
 74
0
  0
LTYPE
  5
4E
100
AcDbSymbolTableRecord
100
AcDbLinetypeTableRecord
  2
ACAD_ISO09W100
 70
0
  3
ISO long-dash double-short-dash ____ __ __ ____
 72
65
 73
6
 40
45.0
 49
24.0
 74
0
 49
-3.0
 74
0
 49
6.0
 74
0
 49
-3.0
 74
0
 49
6.0
 74
0
 49
-3.0
 74
0
  0
LTYPE
  5
4F
100
AcDbSymbolTableRecord
100
AcDbLinetypeTableRecord
  2
ACAD_ISO13W100
 70
0
  3
ISO double-dash double-dot __ __ . . __ __ . . _
 72
65
 73
8
 40
36.0
 49
12.0
 74
0
 49
-3.0
 74
0
 49
12.0
 74
0
 49
-3.0
 74
0
 49
0.0
 74
0
 49
-3.0
 74
0
 49
0.0
 74
0
 49
-3.0
 74
0
  0
LTYPE
  5
50
100
AcDbSymbolTableRecord
100
AcDbLinetypeTableRecord
  2
TRACKS
 70
0
  3
Tracks -|-|-|-|-|-|-|-|-|-|-|-|-|-|-|-|-|-|-|-|-|-|-|-|-
 72
65
 73
2
 40
7.6200000000000001
 49
3.8100000000000001
 74
0
 49
3.8100000000000001
 74
0
  0
LTYPE
  5
51
100
AcDbSymbolTableRecord
100
AcDbLinetypeTableRecord
  2
DRAINAGE2
 70
0
  3
Drainage reversed----<----<----<----
 72
65
 73
2
 40
10.1600000000000001
 49
5.0800000000000001
 74
0
 49
5.0800000000000001
 74
0
  0
LTYPE
  5
52
100
AcDbSymbolTableRecord
100
AcDbLinetypeTableRecord
  2
DOT2
 70
0
  3
Dot (.5x) ........................................
 72
65
 73
2
 40
3.1749999999999998
 49
0.0
 74
0
 49
-3.1749999999999998
 74
0
  0
LTYPE
  5
53
100
AcDbSymbolTableRecord
100
AcDbLinetypeTableRecord
  2
ZIGZAG
 70
0
  3
Zig zag /\/\/\/\/\/\/\/\/\/\/\/\/\/\/\/\/\/\/\/\/\/\/\/
 72
65
 73
4
 40
20.32254
 49
0.00254
 74
0
 49
-5.0800000000000001
 74
0
 49
-10.1600000000000001
 74
0
 49
-5.0800000000000001
 74
0
  0
LTYPE
  5
54
100
AcDbSymbolTableRecord
100
AcDbLinetypeTableRecord
  2
DASHED
 70
0
  3
Dashed __ __ __ __ __ __ __ __ __ __ __ __ __ _
 72
65
 73
2
 40
19.0499999999999972
 49
12.6999999999999993
 74
0
 49
-6.3499999999999996
 74
0
  0
LTYPE
  5
55
100
AcDbSymbolTableRecord
100
AcDbLinetypeTableRecord
  2
ACAD_ISO14W100
 70
0
  3
ISO dash triple-dot __ . . . __ . . . __ . . . _
 72
65
 73
8
 40
24.0
 49
12.0
 74
0
 49
-3.0
 74
0
 49
0.0
 74
0
 49
-3.0
 74
0
 49
0.0
 74
0
 49
-3.0
 74
0
 49
0.0
 74
0
 49
-3.0
 74
0
  0
LTYPE
  5
15
100
AcDbSymbolTableRecord
100
AcDbLinetypeTableRecord
  2
BYLAYER
 70
0
  3

 72
65
 73
0
 40
0.0
  0
LTYPE
  5
56
100
AcDbSymbolTableRecord
100
AcDbLinetypeTableRecord
  2
PHANTOMX2
 70
0
  3
Phantom (2x) ____________    ____    ____   _
 72
65
 73
6
 40
127.0000000000000142
 49
63.5
 74
0
 49
-12.6999999999999993
 74
0
 49
12.6999999999999993
 74
0
 49
-12.6999999999999993
 74
0
 49
12.6999999999999993
 74
0
 49
-12.6999999999999993
 74
0
  0
LTYPE
  5
14
100
AcDbSymbolTableRecord
100
AcDbLinetypeTableRecord
  2
BYBLOCK
 70
0
  3

 72
65
 73
0
 40
0.0
  0
LTYPE
  5
57
100
AcDbSymbolTableRecord
100
AcDbLinetypeTableRecord
  2
DIVIDEX2
 70
0
  3
Divide (2x) ________  .  .  ________  .  .  _
 72
65
 73
6
 40
63.5
 49
25.3999999999999986
 74
0
 49
-12.6999999999999993
 74
0
 49
0.0
 74
0
 49
-12.6999999999999993
 74
0
 49
0.0
 74
0
 49
-12.6999999999999993
 74
0
  0
LTYPE
  5
58
100
AcDbSymbolTableRecord
100
AcDbLinetypeTableRecord
  2
BORDER
 70
0
  3
Border __ __ . __ __ . __ __ . __ __ . __ __ .
 72
65
 73
6
 40
44.4499999999999957
 49
12.6999999999999993
 74
0
 49
-6.3499999999999996
 74
0
 49
12.6999999999999993
 74
0
 49
-6.3499999999999996
 74
0
 49
0.0
 74
0
 49
-6.3499999999999996
 74
0
  0
LTYPE
  5
59
100
AcDbSymbolTableRecord
100
AcDbLinetypeTableRecord
  2
DIVIDE2
 70
0
  3
Divide (.5x) __..__..__..__..__..__..__..__.._
 72
65
 73
6
 40
15.875
 49
6.3499999999999996
 74
0
 49
-3.1749999999999998
 74
0
 49
0.0
 74
0
 49
-3.1749999999999998
 74
0
 49
0.0
 74
0
 49
-3.1749999999999998
 74
0
  0
LTYPE
  5
5A
100
AcDbSymbolTableRecord
100
AcDbLinetypeTableRecord
  2
DOT
 70
0
  3
Dot . . . . . . . . . . . . . . . . . . . . . . . .
 72
65
 73
2
 40
6.3499999999999996
 49
0.0
 74
0
 49
-6.3499999999999996
 74
0
  0
LTYPE
  5
5B
100
AcDbSymbolTableRecord
100
AcDbLinetypeTableRecord
  2
DASHDOT
 70
0
  3
Dash dot __ . __ . __ . __ . __ . __ . __ . __
 72
65
 73
4
 40
25.3999999999999986
 49
12.6999999999999993
 74
0
 49
-6.3499999999999996
 74
0
 49
0.0
 74
0
 49
-6.3499999999999996
 74
0
  0
LTYPE
  5
5C
100
AcDbSymbolTableRecord
100
AcDbLinetypeTableRecord
  2
FENCELINE1
 70
0
  3
Fenceline circle ----0-----0----0-----0----0-----0--
 72
65
 73
4
 40
36.8299999999999983
 49
6.3499999999999996
 74
0
 49
-2.54
 74
0
 49
-2.54
 74
0
 49
25.3999999999999986
 74
0
  0
LTYPE
  5
5D
100
AcDbSymbolTableRecord
100
AcDbLinetypeTableRecord
  2
BATTING
 70
0
  3
Batting SSSSSSSSSSSSSSSSSSSSSSSSSSSSSSSSSSSSSSSSSSSSSSS
 72
65
 73
4
 40
10.1625399999999999
 49
0.00254
 74
0
 49
-2.54
 74
0
 49
-5.0800000000000001
 74
0
 49
-2.54
 74
0
  0
LTYPE
  5
5E
100
AcDbSymbolTableRecord
100
AcDbLinetypeTableRecord
  2
ACAD_ISO03W100
 70
0
  3
ISO dash space __    __    __    __    __    __
 72
65
 73
2
 40
30.0
 49
12.0
 74
0
 49
-18.0
 74
0
  0
LTYPE
  5
5F
100
AcDbSymbolTableRecord
100
AcDbLinetypeTableRecord
  2
FENCELINE2
 70
0
  3
Fenceline square ----[]-----[]----[]-----[]----[]---
 72
65
 73
4
 40
36.8299999999999983
 49
6.3499999999999996
 74
0
 49
-2.54
 74
0
 49
-2.54
 74
0
 49
25.3999999999999986
 74
0
  0
ENDTAB
  0
TABLE
  2
LAYER
  5
2
100
AcDbSymbolTable
 70
1
  0
LAYER
  5
10
100
AcDbSymbolTableRecord
100
AcDbLayerTableRecord
  2
0
 70
0
 62
7
420
16777215
  6
Continuous
370
25
390
F
  0
ENDTAB
  0
TABLE
  2
STYLE
  5
3
100
AcDbSymbolTable
 70
1
  0
STYLE
  5
60
100
AcDbSymbolTableRecord
100
AcDbTextStyleTableRecord
  2
Standard
 70
0
 40
0.0
 41
1.0
 50
0.0
 71
0
 42
2.5
  3

  4

1001
ACAD
1000
txt
1071
0
  0
ENDTAB
  0
TABLE
  2
VIEW
  5
6
100
AcDbSymbolTable
 70
0
  0
ENDTAB
  0
TABLE
  2
UCS
  5
7
100
AcDbSymbolTable
 70
0
  0
ENDTAB
  0
TABLE
  2
APPID
  5
9
100
AcDbSymbolTable
 70
1
  0
APPID
  5
12
100
AcDbSymbolTableRecord
100
AcDbRegAppTableRecord
  2
ACAD
 70
0
  0
APPID
  5
61
100
AcDbSymbolTableRecord
100
AcDbRegAppTableRecord
  2
QCAD
 70
0
  0
ENDTAB
  0
TABLE
  2
DIMSTYLE
  5
A
100
AcDbSymbolTable
 70
1
100
AcDbDimStyleTable
 71
0
  0
DIMSTYLE
105
27
100
AcDbSymbolTableRecord
100
AcDbDimStyleTableRecord
  2
Standard
 41
0.125
 42
0.03125
 43
3.75
 44
0.0625
 70
0
 73
0
 74
0
 77
1
 78
8
140
0.125
141
2.5
143
0.03937007874016
147
0.03125
171
3
172
1
271
2
272
2
274
3
278
44
283
0
284
8
340
60
  0
ENDTAB
  0
TABLE
  2
BLOCK_RECORD
  5
1
100
AcDbSymbolTable
 70
1
  0
BLOCK_RECORD
  5
1F
100
AcDbSymbolTableRecord
100
AcDbBlockTableRecord
  2
*Model_Space
340
22
  0
BLOCK_RECORD
  5
1B
100
AcDbSymbolTableRecord
100
AcDbBlockTableRecord
  2
*Paper_Space
340
1E
  0
BLOCK_RECORD
  5
23
100
AcDbSymbolTableRecord
100
AcDbBlockTableRecord
  2
*Paper_Space0
340
26
  0
BLOCK_RECORD
  5
62
100
AcDbSymbolTableRecord
100
AcDbBlockTableRecord
  2
bearing-gear
340
0
  0
ENDTAB
  0
ENDSEC
  0
SECTION
  2
BLOCKS
  0
BLOCK
  5
20
100
AcDbEntity
  8
0
100
AcDbBlockBegin
  2
*Model_Space
 70
0
 10
0.0
 20
0.0
 30
0.0
  3
*Model_Space
  1

  0
ENDBLK
  5
21
100
AcDbEntity
  8
0
100
AcDbBlockEnd
  0
BLOCK
  5
1C
100
AcDbEntity
 67
1
  8
0
100
AcDbBlockBegin
  2
*Paper_Space
 70
0
 10
0.0
 20
0.0
 30
0.0
  3
*Paper_Space
  1

  0
ENDBLK
  5
1D
100
AcDbEntity
 67
1
  8
0
100
AcDbBlockEnd
  0
BLOCK
  5
24
100
AcDbEntity
  8
0
100
AcDbBlockBegin
  2
*Paper_Space0
 70
0
 10
0.0
 20
0.0
 30
0.0
  3
*Paper_Space0
  1

  0
ENDBLK
  5
25
100
AcDbEntity
  8
0
100
AcDbBlockEnd
  0
BLOCK
  5
63
100
AcDbEntity
  8
0
100
AcDbBlockBegin
  2
bearing-gear
 70
0
 10
0.0
 20
0.0
 30
0.0
  3
bearing-gear
  1

  0
LINE
  5
64
100
AcDbEntity
100
AcDbLine
  8
0
 62
7
420
0
370
-1
 48
1.0
  6
BYLAYER
 10
0.4602524267262247
 20
0.1953655642446372
 30
0.0
 11
0.5044843764932381
 21
0.19279494320525
 31
0.0
  0
LINE
  5
65
100
AcDbEntity
100
AcDbLine
  8
0
 62
7
420
0
370
-1
 48
1.0
  6
BYLAYER
 10
0.4829629131445383
 20
0.1294095225512606
 30
0.0
 11
0.5264066393155495
 21
0.1207080210085343
 31
0.0
  0
LINE
  5
66
100
AcDbEntity
100
AcDbLine
  8
0
 62
7
420
0
370
-1
 48
1.0
  6
BYLAYER
 10
0.4962730758206657
 20
0.0609346717025734
 30
0.0
 11
0.5380829956822595
 21
0.0462716544862265
 31
0.0
  0
LINE
  5
67
100
AcDbEntity
100
AcDbLine
  8
0
 62
7
420
0
370
-1
 48
1.0
  6
BYLAYER
 10
0.4999238475781995
 20
-0.0087262032186428
 30
0.0
 11
0.5392861785983509
 21
-0.029065337157429
 31
0.0
  0
LINE
  5
68
100
AcDbEntity
100
AcDbLine
  8
0
 62
7
420
0
370
-1
 48
1.0
  6
BYLAYER
 10
0.4938441702975727
 20
-0.0782172325201167
 30
0.0
 11
0.5299927694769613
 21
-0.103836605074646
 31
0.0
  0
LINE
  5
69
100
AcDbEntity
100
AcDbLine
  8
0
 62
7
420
0
370
-1
 48
1.0
  6
BYLAYER
 10
0.4781523779815213
 20
-0.1461858523613702
 30
0.0
 11
0.5103836539555422
 21
-0.1765868115864724
 31
0.0
  0
LINE
  5
6A
100
AcDbEntity
100
AcDbLine
  8
0
 62
7
420
0
370
-1
 48
1.0
  6
BYLAYER
 10
0.4531538935183281
 20
-0.2113091308703521
 30
0.0
 11
0.4808405011626808
 21
-0.2458999566752891
 31
0.0
  0
LINE
  5
6B
100
AcDbEntity
100
AcDbLine
  8
0
 62
7
420
0
370
-1
 48
1.0
  6
BYLAYER
 10
0.4193352839727149
 20
-0.2723195175075162
 30
0.0
 11
0.4419383349626509
 21
-0.3104269388144767
 31
0.0
  0
LINE
  5
6C
100
AcDbEntity
100
AcDbLine
  8
0
 62
7
420
0
370
-1
 48
1.0
  6
BYLAYER
 10
0.3773547901113883
 20
-0.3280295144952567
 30
0.0
 11
0.3944343417699789
 21
-0.3689118136950491
 31
0.0
  0
LINE
  5
6D
100
AcDbEntity
100
AcDbLine
  8
0
 62
7
420
0
370
-1
 48
1.0
  6
BYLAYER
 10
0.3280295144952561
 20
-0.3773547901113894
 30
0.0
 11
0.3392531327771673
 21
-0.4202162397530167
 31
0.0
  0
LINE
  5
6E
100
AcDbEntity
100
AcDbLine
  8
0
 62
7
420
0
370
-1
 48
1.0
  6
BYLAYER
 10
0.2723195175075155
 20
-0.4193352839727156
 30
0.0
 11
0.2774687474495678
 21
-0.4633416346930799
 31
0.0
  0
LINE
  5
6F
100
AcDbEntity
100
AcDbLine
  8
0
 62
7
420
0
370
-1
 48
1.0
  6
BYLAYER
 10
0.211309130870351
 20
-0.4531538935183288
 30
0.0
 11
0.2102837485688838
 21
-0.4974486117571397
 31
0.0
  0
LINE
  5
70
100
AcDbEntity
100
AcDbLine
  8
0
 62
7
420
0
370
-1
 48
1.0
  6
BYLAYER
 10
0.1461858523613691
 20
-0.4781523779815215
 30
0.0
 11
0.1390058157165255
 21
-0.5218733174327561
 31
0.0
  0
LINE
  5
71
100
AcDbEntity
100
AcDbLine
  8
0
 62
7
420
0
370
-1
 48
1.0
  6
BYLAYER
 10
0.0782172325201156
 20
-0.4938441702975724
 30
0.0
 11
0.0650222927780169
 21
-0.5361403526066442
 31
0.0
  0
LINE
  5
72
100
AcDbEntity
100
AcDbLine
  8
0
 62
7
420
0
370
-1
 48
1.0
  6
BYLAYER
 10
0.0087262032186413
 20
-0.4999238475781993
 30
0.0
 11
-0.0102268151276537
 21
-0.5399720256676559
 31
0.0
  0
LINE
  5
73
100
AcDbEntity
100
AcDbLine
  8
0
 62
7
420
0
370
-1
 48
1.0
  6
BYLAYER
 10
-0.0609346717025741
 20
-0.4962730758206646
 30
0.0
 11
-0.0852768697096948
 21
-0.5332937574581222
 31
0.0
  0
LINE
  5
74
100
AcDbEntity
100
AcDbLine
  8
0
 62
7
420
0
370
-1
 48
1.0
  6
BYLAYER
 10
-0.1294095225512617
 20
-0.4829629131445377
 30
0.0
 11
-0.1586671070238372
 21
-0.5162355328723243
 31
0.0
  0
LINE
  5
75
100
AcDbEntity
100
AcDbLine
  8
0
 62
7
420
0
370
-1
 48
1.0
  6
BYLAYER
 10
-0.1953655642446392
 20
-0.4602524267262231
 30
0.0
 11
-0.2289690695809208
 21
-0.4891293708483822
 31
0.0
  0
LINE
  5
76
100
AcDbEntity
100
AcDbLine
  8
0
 62
7
420
0
370
-1
 48
1.0
  6
BYLAYER
 10
-0.2575190374550296
 20
-0.4285836503510587
 30
0.0
 11
-0.2948144096470671
 21
-0.4525028619972888
 31
0.0
  0
LINE
  5
77
100
AcDbEntity
100
AcDbLine
  8
0
 62
7
420
0
370
-1
 48
1.0
  6
BYLAYER
 10
-0.3146601955249206
 20
-0.3885729807284879
 30
0.0
 11
-0.3549215225758555
 21
-0.4070688996517953
 31
0.0
  0
LINE
  5
78
100
AcDbEntity
100
AcDbLine
  8
0
 62
7
420
0
370
-1
 48
1.0
  6
BYLAYER
 10
-0.3656768508095878
 20
-0.3409991800312511
 30
0.0
 11
-0.4081204917849517
 21
-0.3537118042085894
 31
0.0
  0
LINE
  5
79
100
AcDbEntity
100
AcDbLine
  8
0
 62
7
420
0
370
-1
 48
1.0
  6
BYLAYER
 10
-0.4095760221444991
 20
-0.2867882181755246
 30
0.0
 11
-0.4533758598516329
 21
-0.2934701108376776
 31
0.0
  0
LINE
  5
7A
100
AcDbEntity
100
AcDbLine
  8
0
 62
7
420
0
370
-1
 48
1.0
  6
BYLAYER
 10
-0.4455032620941868
 20
-0.2269952498697745
 30
0.0
 11
-0.4898067825136998
 21
-0.2275163555766138
 31
0.0
  0
LINE
  5
7B
100
AcDbEntity
100
AcDbLine
  8
0
 62
7
420
0
370
-1
 48
1.0
  6
BYLAYER
 10
-0.4727592877996614
 20
-0.1627840772285787
 30
0.0
 11
-0.5167041733010933
 21
-0.1571342532502695
 31
0.0
  0
LINE
  5
7C
100
AcDbEntity
100
AcDbLine
  8
0
 62
7
420
0
370
-1
 48
1.0
  6
BYLAYER
 10
-0.4908135917238354
 20
-0.0954044976882724
 30
0.0
 11
-0.5335445050974679
 21
-0.0836937114219733
 31
0.0
  0
LINE
  5
7D
100
AcDbEntity
100
AcDbLine
  8
0
 62
7
420
0
370
-1
 48
1.0
  6
BYLAYER
 10
-0.4993147673772906
 20
-0.0261679781214712
 30
0.0
 11
-0.5399999999999991
 21
-0.0086241667010338
 31
0.0
  0
LINE
  5
7E
100
AcDbEntity
100
AcDbLine
  8
0
 62
7
420
0
370
-1
 48
1.0
  6
BYLAYER
 10
-0.4980973490458762
 20
0.0435778713738304
 30
0.0
 11
-0.5359450091434264
 21
0.0666132376148982
 31
0.0
  0
LINE
  5
7F
100
AcDbEntity
100
AcDbLine
  8
0
 62
7
420
0
370
-1
 48
1.0
  6
BYLAYER
 10
-0.4871850323926203
 20
0.1124755271719335
 30
0.0
 11
-0.5214584583122894
 21
0.140554091032089
 31
0.0
  0
LINE
  5
80
100
AcDbEntity
100
AcDbLine
  8
0
 62
7
420
0
370
-1
 48
1.0
  6
BYLAYER
 10
-0.4667902132486033
 20
0.1791839747726527
 30
0.0
 11
-0.4968223117403081
 21
0.2117592189452502
 31
0.0
  0
LINE
  5
81
100
AcDbEntity
100
AcDbLine
  8
0
 62
7
420
0
370
-1
 48
1.0
  6
BYLAYER
 10
-0.4373098535697011
 20
0.2424048101231706
 30
0.0
 11
-0.4625160839973059
 21
0.2788426945341833
 31
0.0
  0
LINE
  5
82
100
AcDbEntity
100
AcDbLine
  8
0
 62
7
420
0
370
-1
 48
1.0
  6
BYLAYER
 10
-0.399317755023648
 20
0.3009075115760276
 30
0.0
 11
-0.4192075067835432
 21
0.3404988142528727
 31
0.0
  0
LINE
  5
83
100
AcDbEntity
100
AcDbLine
  8
0
 62
7
420
0
370
-1
 48
1.0
  6
BYLAYER
 10
-0.3535533905932757
 20
0.3535533905932768
 30
0.0
 11
-0.3677395322917096
 21
0.3955275118637902
 31
0.0
  0
LINE
  5
84
100
AcDbEntity
100
AcDbLine
  8
0
 62
7
420
0
370
-1
 48
1.0
  6
BYLAYER
 10
-0.3009075115760256
 20
0.3993177550236497
 30
0.0
 11
-0.3091139261013378
 21
0.4428577163621552
 31
0.0
  0
LINE
  5
85
100
AcDbEntity
100
AcDbLine
  8
0
 62
7
420
0
370
-1
 48
1.0
  6
BYLAYER
 10
-0.2424048101231691
 20
0.4373098535697015
 30
0.0
 11
-0.2444717689512812
 21
0.4815681991547178
 31
0.0
  0
LINE
  5
86
100
AcDbEntity
100
AcDbLine
  8
0
 62
7
420
0
370
-1
 48
1.0
  6
BYLAYER
 10
-0.1791839747726502
 20
0.4667902132486046
 30
0.0
 11
-0.1750712469011049
 21
0.5109055047264406
 31
0.0
  0
LINE
  5
87
100
AcDbEntity
100
AcDbLine
  8
0
 62
7
420
0
370
-1
 48
1.0
  6
BYLAYER
 10
-0.1124755271719318
 20
0.4871850323926215
 30
0.0
 11
-0.1022631621705887
 21
0.5302986157950618
 31
0.0
  0
LINE
  5
88
100
AcDbEntity
100
AcDbLine
  8
0
 62
7
420
0
370
-1
 48
1.0
  6
BYLAYER
 10
-0.0435778713738282
 20
0.4980973490458764
 30
0.0
 11
-0.0274646413110471
 21
0.5393700675129667
 31
0.0
  0
LINE
  5
89
100
AcDbEntity
100
AcDbLine
  8
0
 62
7
420
0
370
-1
 48
1.0
  6
BYLAYER
 10
0.0261679781214728
 20
0.4993147673772906
 30
0.0
 11
0.0478684475510498
 21
0.5379432943910902
 31
0.0
  0
LINE
  5
8A
100
AcDbEntity
100
AcDbLine
  8
0
 62
7
420
0
370
-1
 48
1.0
  6
BYLAYER
 10
0.0954044976882749
 20
0.4908135917238354
 30
0.0
 11
0.1222698315311161
 21
0.5260460669453193
 31
0.0
  0
LINE
  5
8B
100
AcDbEntity
100
AcDbLine
  8
0
 62
7
420
0
370
-1
 48
1.0
  6
BYLAYER
 10
0.1627840772285811
 20
0.4727592877996616
 30
0.0
 11
0.1942913723203024
 21
0.5039099511749898
 31
0.0
  0
LINE
  5
8C
100
AcDbEntity
100
AcDbLine
  8
0
 62
7
420
0
370
-1
 48
1.0
  6
BYLAYER
 10
0.2269952498697769
 20
0.4455032620941868
 30
0.0
 11
0.2625312525504331
 21
0.471965801394113
 31
0.0
  0
LINE
  5
8D
100
AcDbEntity
100
AcDbLine
  8
0
 62
7
420
0
370
-1
 48
1.0
  6
BYLAYER
 10
0.2867882181755261
 20
0.4095760221444984
 30
0.0
 11
0.3256612605745444
 21
0.4308353741422424
 31
0.0
  0
LINE
  5
8E
100
AcDbEntity
100
AcDbLine
  8
0
 62
7
420
0
370
-1
 48
1.0
  6
BYLAYER
 10
0.3409991800312522
 20
0.3656768508095873
 30
0.0
 11
0.3824526425957648
 21
0.3813192264006671
 31
0.0
  0
LINE
  5
8F
100
AcDbEntity
100
AcDbLine
  8
0
 62
7
420
0
370
-1
 48
1.0
  6
BYLAYER
 10
0.3885729807284894
 20
0.3146601955249204
 30
0.0
 11
0.4318000189622921
 21
0.324381133661394
 31
0.0
  0
LINE
  5
90
100
AcDbEntity
100
AcDbLine
  8
0
 62
7
420
0
370
-1
 48
1.0
  6
BYLAYER
 10
0.4808405011626808
 20
0.2458999566752893
 30
0.0
 11
0.4531538935183281
 21
0.2113091308703516
 31
0.0
  0
LINE
  5
91
100
AcDbEntity
100
AcDbLine
  8
0
 62
7
420
0
370
-1
 48
1.0
  6
BYLAYER
 10
0.5103836539555431
 20
0.1765868115864724
 30
0.0
 11
0.4781523779815213
 21
0.1461858523613699
 31
0.0
  0
LINE
  5
92
100
AcDbEntity
100
AcDbLine
  8
0
 62
7
420
0
370
-1
 48
1.0
  6
BYLAYER
 10
0.5299927694769613
 20
0.1038366050746455
 30
0.0
 11
0.4938441702975727
 21
0.0782172325201167
 31
0.0
  0
LINE
  5
93
100
AcDbEntity
100
AcDbLine
  8
0
 62
7
420
0
370
-1
 48
1.0
  6
BYLAYER
 10
0.5392861785983509
 20
0.0290653371574285
 30
0.0
 11
0.4999238475781995
 21
0.0087262032186426
 31
0.0
  0
LINE
  5
94
100
AcDbEntity
100
AcDbLine
  8
0
 62
7
420
0
370
-1
 48
1.0
  6
BYLAYER
 10
0.5380829956822595
 20
-0.0462716544862267
 30
0.0
 11
0.4962730758206657
 21
-0.0609346717025738
 31
0.0
  0
LINE
  5
95
100
AcDbEntity
100
AcDbLine
  8
0
 62
7
420
0
370
-1
 48
1.0
  6
BYLAYER
 10
0.5264066393155487
 20
-0.1207080210085347
 30
0.0
 11
0.4829629131445383
 21
-0.1294095225512606
 31
0.0
  0
LINE
  5
96
100
AcDbEntity
100
AcDbLine
  8
0
 62
7
420
0
370
-1
 48
1.0
  6
BYLAYER
 10
0.5044843764932381
 20
-0.1927949432052503
 30
0.0
 11
0.4602524267262247
 21
-0.1953655642446377
 31
0.0
  0
LINE
  5
97
100
AcDbEntity
100
AcDbLine
  8
0
 62
7
420
0
370
-1
 48
1.0
  6
BYLAYER
 10
0.4727428991249605
 20
-0.2611293311334724
 30
0.0
 11
0.4285836503510598
 21
-0.2575190374550285
 31
0.0
  0
LINE
  5
98
100
AcDbEntity
100
AcDbLine
  8
0
 62
7
420
0
370
-1
 48
1.0
  6
BYLAYER
 10
0.4318000189622921
 20
-0.324381133661394
 30
0.0
 11
0.3885729807284886
 21
-0.3146601955249204
 31
0.0
  0
LINE
  5
99
100
AcDbEntity
100
AcDbLine
  8
0
 62
7
420
0
370
-1
 48
1.0
  6
BYLAYER
 10
0.3824526425957657
 20
-0.3813192264006668
 30
0.0
 11
0.3409991800312522
 21
-0.3656768508095876
 31
0.0
  0
LINE
  5
9A
100
AcDbEntity
100
AcDbLine
  8
0
 62
7
420
0
370
-1
 48
1.0
  6
BYLAYER
 10
0.3256612605745444
 20
-0.4308353741422424
 30
0.0
 11
0.2867882181755261
 21
-0.4095760221444984
 31
0.0
  0
LINE
  5
9B
100
AcDbEntity
100
AcDbLine
  8
0
 62
7
420
0
370
-1
 48
1.0
  6
BYLAYER
 10
0.2625312525504331
 20
-0.4719658013941135
 30
0.0
 11
0.226995249869776
 21
-0.445503262094187
 31
0.0
  0
LINE
  5
9C
100
AcDbEntity
100
AcDbLine
  8
0
 62
7
420
0
370
-1
 48
1.0
  6
BYLAYER
 10
0.1942913723203024
 20
-0.5039099511749898
 30
0.0
 11
0.1627840772285811
 21
-0.4727592877996616
 31
0.0
  0
LINE
  5
9D
100
AcDbEntity
100
AcDbLine
  8
0
 62
7
420
0
370
-1
 48
1.0
  6
BYLAYER
 10
0.1222698315311161
 20
-0.5260460669453193
 30
0.0
 11
0.095404497688274
 21
-0.4908135917238357
 31
0.0
  0
LINE
  5
9E
100
AcDbEntity
100
AcDbLine
  8
0
 62
7
420
0
370
-1
 48
1.0
  6
BYLAYER
 10
0.0478684475510489
 20
-0.5379432943910902
 30
0.0
 11
0.0261679781214736
 21
-0.4993147673772904
 31
0.0
  0
LINE
  5
9F
100
AcDbEntity
100
AcDbLine
  8
0
 62
7
420
0
370
-1
 48
1.0
  6
BYLAYER
 10
-0.0274646413110471
 20
-0.5393700675129669
 30
0.0
 11
-0.0435778713738282
 21
-0.4980973490458764
 31
0.0
  0
LINE
  5
A0
100
AcDbEntity
100
AcDbLine
  8
0
 62
7
420
0
370
-1
 48
1.0
  6
BYLAYER
 10
-0.1022631621705896
 20
-0.5302986157950615
 30
0.0
 11
-0.1124755271719327
 21
-0.4871850323926215
 31
0.0
  0
LINE
  5
A1
100
AcDbEntity
100
AcDbLine
  8
0
 62
7
420
0
370
-1
 48
1.0
  6
BYLAYER
 10
-0.1750712469011049
 20
-0.5109055047264406
 30
0.0
 11
-0.1791839747726502
 21
-0.4667902132486044
 31
0.0
  0
LINE
  5
A2
100
AcDbEntity
100
AcDbLine
  8
0
 62
7
420
0
370
-1
 48
1.0
  6
BYLAYER
 10
-0.2444717689512821
 20
-0.4815681991547176
 30
0.0
 11
-0.2424048101231691
 21
-0.4373098535697013
 31
0.0
  0
LINE
  5
A3
100
AcDbEntity
100
AcDbLine
  8
0
 62
7
420
0
370
-1
 48
1.0
  6
BYLAYER
 10
-0.3091139261013378
 20
-0.4428577163621557
 30
0.0
 11
-0.3009075115760256
 21
-0.3993177550236495
 31
0.0
  0
LINE
  5
A4
100
AcDbEntity
100
AcDbLine
  8
0
 62
7
420
0
370
-1
 48
1.0
  6
BYLAYER
 10
-0.3677395322917096
 20
-0.3955275118637902
 30
0.0
 11
-0.3535533905932748
 21
-0.3535533905932768
 31
0.0
  0
LINE
  5
A5
100
AcDbEntity
100
AcDbLine
  8
0
 62
7
420
0
370
-1
 48
1.0
  6
BYLAYER
 10
-0.4192075067835432
 20
-0.3404988142528727
 30
0.0
 11
-0.3993177550236489
 21
-0.3009075115760271
 31
0.0
  0
LINE
  5
A6
100
AcDbEntity
100
AcDbLine
  8
0
 62
7
420
0
370
-1
 48
1.0
  6
BYLAYER
 10
-0.4625160839973059
 20
-0.2788426945341833
 30
0.0
 11
-0.4373098535697002
 21
-0.2424048101231711
 31
0.0
  0
LINE
  5
A7
100
AcDbEntity
100
AcDbLine
  8
0
 62
7
420
0
370
-1
 48
1.0
  6
BYLAYER
 10
-0.4968223117403081
 20
-0.21175921894525
 30
0.0
 11
-0.4667902132486041
 21
-0.1791839747726522
 31
0.0
  0
LINE
  5
A8
100
AcDbEntity
100
AcDbLine
  8
0
 62
7
420
0
370
-1
 48
1.0
  6
BYLAYER
 10
-0.5214584583122894
 20
-0.140554091032089
 30
0.0
 11
-0.4871850323926203
 21
-0.1124755271719338
 31
0.0
  0
LINE
  5
A9
100
AcDbEntity
100
AcDbLine
  8
0
 62
7
420
0
370
-1
 48
1.0
  6
BYLAYER
 10
-0.5359450091434264
 20
-0.0666132376148976
 30
0.0
 11
-0.4980973490458762
 21
-0.0435778713738302
 31
0.0
  0
LINE
  5
AA
100
AcDbEntity
100
AcDbLine
  8
0
 62
7
420
0
370
-1
 48
1.0
  6
BYLAYER
 10
-0.5399999999999991
 20
0.0086241667010343
 30
0.0
 11
-0.4993147673772906
 21
0.0261679781214716
 31
0.0
  0
LINE
  5
AB
100
AcDbEntity
100
AcDbLine
  8
0
 62
7
420
0
370
-1
 48
1.0
  6
BYLAYER
 10
-0.5335445050974679
 20
0.0836937114219731
 30
0.0
 11
-0.4908135917238354
 21
0.0954044976882726
 31
0.0
  0
LINE
  5
AC
100
AcDbEntity
100
AcDbLine
  8
0
 62
7
420
0
370
-1
 48
1.0
  6
BYLAYER
 10
-0.5167041733010933
 20
0.1571342532502698
 30
0.0
 11
-0.4727592877996614
 21
0.1627840772285782
 31
0.0
  0
LINE
  5
AD
100
AcDbEntity
100
AcDbLine
  8
0
 62
7
420
0
370
-1
 48
1.0
  6
BYLAYER
 10
-0.4898067825136989
 20
0.2275163555766138
 30
0.0
 11
-0.4455032620941868
 21
0.2269952498697749
 31
0.0
  0
LINE
  5
AE
100
AcDbEntity
100
AcDbLine
  8
0
 62
7
420
0
370
-1
 48
1.0
  6
BYLAYER
 10
-0.4533758598516329
 20
0.2934701108376778
 30
0.0
 11
-0.4095760221444991
 21
0.2867882181755244
 31
0.0
  0
LINE
  5
AF
100
AcDbEntity
100
AcDbLine
  8
0
 62
7
420
0
370
-1
 48
1.0
  6
BYLAYER
 10
-0.4081204917849517
 20
0.3537118042085896
 30
0.0
 11
-0.3656768508095878
 21
0.3409991800312517
 31
0.0
  0
LINE
  5
B0
100
AcDbEntity
100
AcDbLine
  8
0
 62
7
420
0
370
-1
 48
1.0
  6
BYLAYER
 10
-0.3549215225758546
 20
0.4070688996517953
 30
0.0
 11
-0.3146601955249215
 21
0.3885729807284877
 31
0.0
  0
LINE
  5
B1
100
AcDbEntity
100
AcDbLine
  8
0
 62
7
420
0
370
-1
 48
1.0
  6
BYLAYER
 10
-0.2948144096470671
 20
0.4525028619972893
 30
0.0
 11
-0.2575190374550296
 21
0.4285836503510589
 31
0.0
  0
LINE
  5
B2
100
AcDbEntity
100
AcDbLine
  8
0
 62
7
420
0
370
-1
 48
1.0
  6
BYLAYER
 10
-0.2289690695809208
 20
0.4891293708483819
 30
0.0
 11
-0.1953655642446384
 21
0.4602524267262234
 31
0.0
  0
LINE
  5
B3
100
AcDbEntity
100
AcDbLine
  8
0
 62
7
420
0
370
-1
 48
1.0
  6
BYLAYER
 10
-0.1586671070238364
 20
0.5162355328723247
 30
0.0
 11
-0.1294095225512617
 21
0.4829629131445377
 31
0.0
  0
LINE
  5
B4
100
AcDbEntity
100
AcDbLine
  8
0
 62
7
420
0
370
-1
 48
1.0
  6
BYLAYER
 10
-0.0852768697096948
 20
0.5332937574581222
 30
0.0
 11
-0.0609346717025741
 21
0.4962730758206646
 31
0.0
  0
LINE
  5
B5
100
AcDbEntity
100
AcDbLine
  8
0
 62
7
420
0
370
-1
 48
1.0
  6
BYLAYER
 10
-0.0102268151276537
 20
0.5399720256676559
 30
0.0
 11
0.0087262032186413
 21
0.4999238475781993
 31
0.0
  0
LINE
  5
B6
100
AcDbEntity
100
AcDbLine
  8
0
 62
7
420
0
370
-1
 48
1.0
  6
BYLAYER
 10
0.0650222927780177
 20
0.5361403526066442
 30
0.0
 11
0.0782172325201156
 21
0.4938441702975727
 31
0.0
  0
LINE
  5
B7
100
AcDbEntity
100
AcDbLine
  8
0
 62
7
420
0
370
-1
 48
1.0
  6
BYLAYER
 10
0.1390058157165255
 20
0.5218733174327561
 30
0.0
 11
0.1461858523613699
 21
0.4781523779815215
 31
0.0
  0
LINE
  5
B8
100
AcDbEntity
100
AcDbLine
  8
0
 62
7
420
0
370
-1
 48
1.0
  6
BYLAYER
 10
0.2102837485688838
 20
0.4974486117571397
 30
0.0
 11
0.211309130870351
 21
0.4531538935183286
 31
0.0
  0
LINE
  5
B9
100
AcDbEntity
100
AcDbLine
  8
0
 62
7
420
0
370
-1
 48
1.0
  6
BYLAYER
 10
0.2774687474495678
 20
0.4633416346930794
 30
0.0
 11
0.2723195175075155
 21
0.4193352839727154
 31
0.0
  0
LINE
  5
BA
100
AcDbEntity
100
AcDbLine
  8
0
 62
7
420
0
370
-1
 48
1.0
  6
BYLAYER
 10
0.3392531327771673
 20
0.4202162397530167
 30
0.0
 11
0.3280295144952561
 21
0.3773547901113894
 31
0.0
  0
LINE
  5
BB
100
AcDbEntity
100
AcDbLine
  8
0
 62
7
420
0
370
-1
 48
1.0
  6
BYLAYER
 10
0.394434341769978
 20
0.3689118136950496
 30
0.0
 11
0.3773547901113883
 21
0.3280295144952565
 31
0.0
  0
LINE
  5
BC
100
AcDbEntity
100
AcDbLine
  8
0
 62
7
420
0
370
-1
 48
1.0
  6
BYLAYER
 10
0.4419383349626518
 20
0.3104269388144765
 30
0.0
 11
0.4193352839727158
 21
0.2723195175075162
 31
0.0
  0
LINE
  5
BD
100
AcDbEntity
100
AcDbLine
  8
0
 62
256
370
-1
 48
1.0
  6
BYLAYER
 10
-0.3549215225758555
 20
-0.4070688996517953
 30
0.0
 11
-0.3677395322917096
 21
-0.3955275118637902
 31
0.0
  0
LINE
  5
BE
100
AcDbEntity
100
AcDbLine
  8
0
 62
256
370
-1
 48
1.0
  6
BYLAYER
 10
-0.4081204917849517
 20
-0.3537118042085894
 30
0.0
 11
-0.4192075067835432
 21
-0.3404988142528727
 31
0.0
  0
LINE
  5
BF
100
AcDbEntity
100
AcDbLine
  8
0
 62
256
370
-1
 48
1.0
  6
BYLAYER
 10
-0.4533758598516329
 20
-0.2934701108376776
 30
0.0
 11
-0.4625160839973059
 21
-0.2788426945341833
 31
0.0
  0
LINE
  5
C0
100
AcDbEntity
100
AcDbLine
  8
0
 62
256
370
-1
 48
1.0
  6
BYLAYER
 10
-0.4898067825136998
 20
-0.2275163555766138
 30
0.0
 11
-0.4968223117403081
 21
-0.21175921894525
 31
0.0
  0
LINE
  5
C1
100
AcDbEntity
100
AcDbLine
  8
0
 62
256
370
-1
 48
1.0
  6
BYLAYER
 10
-0.5167041733010933
 20
-0.1571342532502695
 30
0.0
 11
-0.5214584583122894
 21
-0.140554091032089
 31
0.0
  0
LINE
  5
C2
100
AcDbEntity
100
AcDbLine
  8
0
 62
256
370
-1
 48
1.0
  6
BYLAYER
 10
-0.5335445050974679
 20
-0.0836937114219733
 30
0.0
 11
-0.5359450091434264
 21
-0.0666132376148976
 31
0.0
  0
LINE
  5
C3
100
AcDbEntity
100
AcDbLine
  8
0
 62
256
370
-1
 48
1.0
  6
BYLAYER
 10
-0.5399999999999991
 20
-0.0086241667010361
 30
0.0
 11
-0.5399999999999991
 21
0.0086241667010374
 31
0.0
  0
LINE
  5
C4
100
AcDbEntity
100
AcDbLine
  8
0
 62
256
370
-1
 48
1.0
  6
BYLAYER
 10
-0.5359450091434264
 20
0.0666132376148982
 30
0.0
 11
-0.5335445050974679
 21
0.0836937114219731
 31
0.0
  0
LINE
  5
C5
100
AcDbEntity
100
AcDbLine
  8
0
 62
256
370
-1
 48
1.0
  6
BYLAYER
 10
-0.5214584583122894
 20
0.140554091032089
 30
0.0
 11
-0.5167041733010933
 21
0.1571342532502698
 31
0.0
  0
LINE
  5
C6
100
AcDbEntity
100
AcDbLine
  8
0
 62
256
370
-1
 48
1.0
  6
BYLAYER
 10
-0.4968223117403081
 20
0.2117592189452502
 30
0.0
 11
-0.4898067825136989
 21
0.2275163555766138
 31
0.0
  0
LINE
  5
C7
100
AcDbEntity
100
AcDbLine
  8
0
 62
256
370
-1
 48
1.0
  6
BYLAYER
 10
-0.4625160839973059
 20
0.2788426945341833
 30
0.0
 11
-0.4533758598516329
 21
0.2934701108376778
 31
0.0
  0
LINE
  5
C8
100
AcDbEntity
100
AcDbLine
  8
0
 62
256
370
-1
 48
1.0
  6
BYLAYER
 10
-0.4192075067835432
 20
0.3404988142528727
 30
0.0
 11
-0.4081204917849517
 21
0.3537118042085896
 31
0.0
  0
LINE
  5
C9
100
AcDbEntity
100
AcDbLine
  8
0
 62
256
370
-1
 48
1.0
  6
BYLAYER
 10
-0.3677395322917096
 20
0.3955275118637902
 30
0.0
 11
-0.3549215225758546
 21
0.4070688996517953
 31
0.0
  0
LINE
  5
CA
100
AcDbEntity
100
AcDbLine
  8
0
 62
256
370
-1
 48
1.0
  6
BYLAYER
 10
-0.3091139261013378
 20
0.4428577163621552
 30
0.0
 11
-0.2948144096470671
 21
0.4525028619972893
 31
0.0
  0
LINE
  5
CB
100
AcDbEntity
100
AcDbLine
  8
0
 62
256
370
-1
 48
1.0
  6
BYLAYER
 10
-0.2444717689512812
 20
0.4815681991547178
 30
0.0
 11
-0.2289690695809208
 21
0.4891293708483819
 31
0.0
  0
LINE
  5
CC
100
AcDbEntity
100
AcDbLine
  8
0
 62
256
370
-1
 48
1.0
  6
BYLAYER
 10
-0.1750712469011049
 20
0.5109055047264406
 30
0.0
 11
-0.1586671070238364
 21
0.5162355328723247
 31
0.0
  0
LINE
  5
CD
100
AcDbEntity
100
AcDbLine
  8
0
 62
256
370
-1
 48
1.0
  6
BYLAYER
 10
-0.1022631621705887
 20
0.5302986157950618
 30
0.0
 11
-0.0852768697096948
 21
0.5332937574581222
 31
0.0
  0
LINE
  5
CE
100
AcDbEntity
100
AcDbLine
  8
0
 62
256
370
-1
 48
1.0
  6
BYLAYER
 10
-0.0274646413110471
 20
0.5393700675129667
 30
0.0
 11
-0.0102268151276537
 21
0.5399720256676559
 31
0.0
  0
LINE
  5
CF
100
AcDbEntity
100
AcDbLine
  8
0
 62
256
370
-1
 48
1.0
  6
BYLAYER
 10
0.0478684475510498
 20
0.5379432943910902
 30
0.0
 11
0.0650222927780177
 21
0.5361403526066442
 31
0.0
  0
LINE
  5
D0
100
AcDbEntity
100
AcDbLine
  8
0
 62
256
370
-1
 48
1.0
  6
BYLAYER
 10
0.1222698315311161
 20
0.5260460669453193
 30
0.0
 11
0.1390058157165255
 21
0.5218733174327561
 31
0.0
  0
LINE
  5
D1
100
AcDbEntity
100
AcDbLine
  8
0
 62
256
370
-1
 48
1.0
  6
BYLAYER
 10
0.1942913723203024
 20
0.5039099511749898
 30
0.0
 11
0.2102837485688838
 21
0.4974486117571397
 31
0.0
  0
LINE
  5
D2
100
AcDbEntity
100
AcDbLine
  8
0
 62
256
370
-1
 48
1.0
  6
BYLAYER
 10
0.2625312525504331
 20
0.471965801394113
 30
0.0
 11
0.2774687474495678
 21
0.4633416346930794
 31
0.0
  0
LINE
  5
D3
100
AcDbEntity
100
AcDbLine
  8
0
 62
256
370
-1
 48
1.0
  6
BYLAYER
 10
0.3256612605745444
 20
0.4308353741422424
 30
0.0
 11
0.3392531327771673
 21
0.4202162397530167
 31
0.0
  0
LINE
  5
D4
100
AcDbEntity
100
AcDbLine
  8
0
 62
256
370
-1
 48
1.0
  6
BYLAYER
 10
0.3824526425957648
 20
0.3813192264006671
 30
0.0
 11
0.394434341769978
 21
0.3689118136950496
 31
0.0
  0
LINE
  5
D5
100
AcDbEntity
100
AcDbLine
  8
0
 62
256
370
-1
 48
1.0
  6
BYLAYER
 10
0.4318000189622921
 20
0.324381133661394
 30
0.0
 11
0.4419383349626518
 21
0.3104269388144765
 31
0.0
  0
LINE
  5
D6
100
AcDbEntity
100
AcDbLine
  8
0
 62
256
370
-1
 48
1.0
  6
BYLAYER
 10
0.4727428991249605
 20
0.2611293311334728
 30
0.0
 11
0.4808405011626808
 21
0.2458999566752893
 31
0.0
  0
LINE
  5
D7
100
AcDbEntity
100
AcDbLine
  8
0
 62
256
370
-1
 48
1.0
  6
BYLAYER
 10
0.5044843764932381
 20
0.19279494320525
 30
0.0
 11
0.5103836539555431
 21
0.1765868115864724
 31
0.0
  0
LINE
  5
D8
100
AcDbEntity
100
AcDbLine
  8
0
 62
256
370
-1
 48
1.0
  6
BYLAYER
 10
0.5264066393155495
 20
0.1207080210085343
 30
0.0
 11
0.5299927694769613
 21
0.1038366050746455
 31
0.0
  0
LINE
  5
D9
100
AcDbEntity
100
AcDbLine
  8
0
 62
256
370
-1
 48
1.0
  6
BYLAYER
 10
0.5380829956822595
 20
0.0462716544862265
 30
0.0
 11
0.5392861785983509
 21
0.0290653371574285
 31
0.0
  0
LINE
  5
DA
100
AcDbEntity
100
AcDbLine
  8
0
 62
256
370
-1
 48
1.0
  6
BYLAYER
 10
0.5392861785983509
 20
-0.029065337157429
 30
0.0
 11
0.5380829956822595
 21
-0.0462716544862267
 31
0.0
  0
LINE
  5
DB
100
AcDbEntity
100
AcDbLine
  8
0
 62
256
370
-1
 48
1.0
  6
BYLAYER
 10
0.5299927694769613
 20
-0.103836605074646
 30
0.0
 11
0.5264066393155487
 21
-0.1207080210085347
 31
0.0
  0
LINE
  5
DC
100
AcDbEntity
100
AcDbLine
  8
0
 62
256
370
-1
 48
1.0
  6
BYLAYER
 10
0.5103836539555422
 20
-0.1765868115864724
 30
0.0
 11
0.5044843764932381
 21
-0.1927949432052503
 31
0.0
  0
LINE
  5
DD
100
AcDbEntity
100
AcDbLine
  8
0
 62
256
370
-1
 48
1.0
  6
BYLAYER
 10
0.4808405011626808
 20
-0.2458999566752891
 30
0.0
 11
0.4727428991249605
 21
-0.2611293311334724
 31
0.0
  0
LINE
  5
DE
100
AcDbEntity
100
AcDbLine
  8
0
 62
256
370
-1
 48
1.0
  6
BYLAYER
 10
0.4419383349626509
 20
-0.3104269388144767
 30
0.0
 11
0.4318000189622921
 21
-0.324381133661394
 31
0.0
  0
LINE
  5
DF
100
AcDbEntity
100
AcDbLine
  8
0
 62
256
370
-1
 48
1.0
  6
BYLAYER
 10
0.3944343417699789
 20
-0.3689118136950491
 30
0.0
 11
0.3824526425957657
 21
-0.3813192264006668
 31
0.0
  0
LINE
  5
E0
100
AcDbEntity
100
AcDbLine
  8
0
 62
256
370
-1
 48
1.0
  6
BYLAYER
 10
0.3392531327771673
 20
-0.4202162397530167
 30
0.0
 11
0.3256612605745444
 21
-0.4308353741422424
 31
0.0
  0
LINE
  5
E1
100
AcDbEntity
100
AcDbLine
  8
0
 62
256
370
-1
 48
1.0
  6
BYLAYER
 10
0.2774687474495678
 20
-0.4633416346930799
 30
0.0
 11
0.2625312525504331
 21
-0.4719658013941135
 31
0.0
  0
LINE
  5
E2
100
AcDbEntity
100
AcDbLine
  8
0
 62
256
370
-1
 48
1.0
  6
BYLAYER
 10
0.2102837485688838
 20
-0.4974486117571397
 30
0.0
 11
0.1942913723203024
 21
-0.5039099511749898
 31
0.0
  0
LINE
  5
E3
100
AcDbEntity
100
AcDbLine
  8
0
 62
256
370
-1
 48
1.0
  6
BYLAYER
 10
0.1390058157165255
 20
-0.5218733174327561
 30
0.0
 11
0.1222698315311161
 21
-0.5260460669453193
 31
0.0
  0
LINE
  5
E4
100
AcDbEntity
100
AcDbLine
  8
0
 62
256
370
-1
 48
1.0
  6
BYLAYER
 10
0.0650222927780169
 20
-0.5361403526066442
 30
0.0
 11
0.0478684475510489
 21
-0.5379432943910902
 31
0.0
  0
LINE
  5
E5
100
AcDbEntity
100
AcDbLine
  8
0
 62
256
370
-1
 48
1.0
  6
BYLAYER
 10
-0.0102268151276537
 20
-0.5399720256676559
 30
0.0
 11
-0.0274646413110471
 21
-0.5393700675129669
 31
0.0
  0
LINE
  5
E6
100
AcDbEntity
100
AcDbLine
  8
0
 62
256
370
-1
 48
1.0
  6
BYLAYER
 10
-0.0852768697096948
 20
-0.5332937574581222
 30
0.0
 11
-0.1022631621705896
 21
-0.5302986157950615
 31
0.0
  0
LINE
  5
E7
100
AcDbEntity
100
AcDbLine
  8
0
 62
256
370
-1
 48
1.0
  6
BYLAYER
 10
-0.1586671070238372
 20
-0.5162355328723243
 30
0.0
 11
-0.1750712469011049
 21
-0.5109055047264406
 31
0.0
  0
LINE
  5
E8
100
AcDbEntity
100
AcDbLine
  8
0
 62
256
370
-1
 48
1.0
  6
BYLAYER
 10
-0.2289690695809208
 20
-0.4891293708483822
 30
0.0
 11
-0.2444717689512821
 21
-0.4815681991547176
 31
0.0
  0
LINE
  5
E9
100
AcDbEntity
100
AcDbLine
  8
0
 62
256
370
-1
 48
1.0
  6
BYLAYER
 10
-0.2948144096470671
 20
-0.4525028619972888
 30
0.0
 11
-0.3091139261013378
 21
-0.4428577163621557
 31
0.0
  0
LINE
  5
EA
100
AcDbEntity
100
AcDbLine
  8
0
 62
256
370
-1
 48
1.0
  6
BYLAYER
 10
-0.4993147673772906
 20
0.0261679781214716
 30
0.0
 11
-0.4980973490458762
 21
0.0435778713738304
 31
0.0
  0
LINE
  5
EB
100
AcDbEntity
100
AcDbLine
  8
0
 62
256
370
-1
 48
1.0
  6
BYLAYER
 10
-0.4908135917238354
 20
0.0954044976882726
 30
0.0
 11
-0.4871850323926203
 21
0.1124755271719344
 31
0.0
  0
LINE
  5
EC
100
AcDbEntity
100
AcDbLine
  8
0
 62
256
370
-1
 48
1.0
  6
BYLAYER
 10
-0.4727592877996614
 20
0.1627840772285782
 30
0.0
 11
-0.4667902132486033
 21
0.1791839747726525
 31
0.0
  0
LINE
  5
ED
100
AcDbEntity
100
AcDbLine
  8
0
 62
256
370
-1
 48
1.0
  6
BYLAYER
 10
-0.4455032620941868
 20
0.2269952498697749
 30
0.0
 11
-0.4373098535696993
 21
0.2424048101231713
 31
0.0
  0
LINE
  5
EE
100
AcDbEntity
100
AcDbLine
  8
0
 62
256
370
-1
 48
1.0
  6
BYLAYER
 10
-0.4095760221444991
 20
0.2867882181755244
 30
0.0
 11
-0.399317755023648
 21
0.3009075115760274
 31
0.0
  0
LINE
  5
EF
100
AcDbEntity
100
AcDbLine
  8
0
 62
256
370
-1
 48
1.0
  6
BYLAYER
 10
-0.3656768508095878
 20
0.3409991800312517
 30
0.0
 11
-0.3535533905932748
 21
0.3535533905932773
 31
0.0
  0
LINE
  5
F0
100
AcDbEntity
100
AcDbLine
  8
0
 62
256
370
-1
 48
1.0
  6
BYLAYER
 10
-0.3146601955249215
 20
0.3885729807284877
 30
0.0
 11
-0.3009075115760247
 21
0.3993177550236502
 31
0.0
  0
LINE
  5
F1
100
AcDbEntity
100
AcDbLine
  8
0
 62
256
370
-1
 48
1.0
  6
BYLAYER
 10
-0.2575190374550296
 20
0.4285836503510589
 30
0.0
 11
-0.2424048101231691
 21
0.4373098535697013
 31
0.0
  0
LINE
  5
F2
100
AcDbEntity
100
AcDbLine
  8
0
 62
256
370
-1
 48
1.0
  6
BYLAYER
 10
-0.1953655642446384
 20
0.4602524267262234
 30
0.0
 11
-0.1791839747726502
 21
0.4667902132486046
 31
0.0
  0
LINE
  5
F3
100
AcDbEntity
100
AcDbLine
  8
0
 62
256
370
-1
 48
1.0
  6
BYLAYER
 10
-0.1294095225512617
 20
0.4829629131445377
 30
0.0
 11
-0.1124755271719318
 21
0.4871850323926212
 31
0.0
  0
LINE
  5
F4
100
AcDbEntity
100
AcDbLine
  8
0
 62
256
370
-1
 48
1.0
  6
BYLAYER
 10
-0.0609346717025741
 20
0.4962730758206646
 30
0.0
 11
-0.0435778713738273
 21
0.4980973490458764
 31
0.0
  0
LINE
  5
F5
100
AcDbEntity
100
AcDbLine
  8
0
 62
256
370
-1
 48
1.0
  6
BYLAYER
 10
0.0087262032186413
 20
0.4999238475781993
 30
0.0
 11
0.0261679781214736
 21
0.4993147673772904
 31
0.0
  0
LINE
  5
F6
100
AcDbEntity
100
AcDbLine
  8
0
 62
256
370
-1
 48
1.0
  6
BYLAYER
 10
0.0782172325201156
 20
0.4938441702975727
 30
0.0
 11
0.0954044976882749
 21
0.4908135917238352
 31
0.0
  0
LINE
  5
F7
100
AcDbEntity
100
AcDbLine
  8
0
 62
256
370
-1
 48
1.0
  6
BYLAYER
 10
0.1461858523613699
 20
0.4781523779815215
 30
0.0
 11
0.1627840772285811
 21
0.4727592877996614
 31
0.0
  0
LINE
  5
F8
100
AcDbEntity
100
AcDbLine
  8
0
 62
256
370
-1
 48
1.0
  6
BYLAYER
 10
0.211309130870351
 20
0.4531538935183286
 30
0.0
 11
0.2269952498697769
 21
0.4455032620941863
 31
0.0
  0
LINE
  5
F9
100
AcDbEntity
100
AcDbLine
  8
0
 62
256
370
-1
 48
1.0
  6
BYLAYER
 10
0.2723195175075155
 20
0.4193352839727154
 30
0.0
 11
0.286788218175527
 21
0.409576022144498
 31
0.0
  0
LINE
  5
FA
100
AcDbEntity
100
AcDbLine
  8
0
 62
256
370
-1
 48
1.0
  6
BYLAYER
 10
0.3280295144952561
 20
0.3773547901113894
 30
0.0
 11
0.3409991800312522
 21
0.3656768508095873
 31
0.0
  0
LINE
  5
FB
100
AcDbEntity
100
AcDbLine
  8
0
 62
256
370
-1
 48
1.0
  6
BYLAYER
 10
0.3773547901113883
 20
0.3280295144952565
 30
0.0
 11
0.3885729807284894
 21
0.3146601955249204
 31
0.0
  0
LINE
  5
FC
100
AcDbEntity
100
AcDbLine
  8
0
 62
256
370
-1
 48
1.0
  6
BYLAYER
 10
0.4193352839727158
 20
0.2723195175075162
 30
0.0
 11
0.4285836503510598
 21
0.257519037455028
 31
0.0
  0
LINE
  5
FD
100
AcDbEntity
100
AcDbLine
  8
0
 62
256
370
-1
 48
1.0
  6
BYLAYER
 10
0.4531538935183281
 20
0.2113091308703516
 30
0.0
 11
0.4602524267262247
 21
0.1953655642446372
 31
0.0
  0
LINE
  5
FE
100
AcDbEntity
100
AcDbLine
  8
0
 62
256
370
-1
 48
1.0
  6
BYLAYER
 10
0.4781523779815213
 20
0.1461858523613699
 30
0.0
 11
0.4829629131445383
 21
0.1294095225512601
 31
0.0
  0
LINE
  5
FF
100
AcDbEntity
100
AcDbLine
  8
0
 62
256
370
-1
 48
1.0
  6
BYLAYER
 10
0.4938441702975727
 20
0.0782172325201167
 30
0.0
 11
0.4962730758206657
 21
0.0609346717025729
 31
0.0
  0
LINE
  5
100
100
AcDbEntity
100
AcDbLine
  8
0
 62
256
370
-1
 48
1.0
  6
BYLAYER
 10
0.4999238475781995
 20
0.0087262032186426
 30
0.0
 11
0.4999238475781995
 21
-0.0087262032186433
 31
0.0
  0
LINE
  5
101
100
AcDbEntity
100
AcDbLine
  8
0
 62
256
370
-1
 48
1.0
  6
BYLAYER
 10
0.4962730758206657
 20
-0.0609346717025738
 30
0.0
 11
0.4938441702975727
 21
-0.0782172325201176
 31
0.0
  0
LINE
  5
102
100
AcDbEntity
100
AcDbLine
  8
0
 62
256
370
-1
 48
1.0
  6
BYLAYER
 10
0.4829629131445383
 20
-0.1294095225512606
 30
0.0
 11
0.4781523779815213
 21
-0.1461858523613706
 31
0.0
  0
LINE
  5
103
100
AcDbEntity
100
AcDbLine
  8
0
 62
256
370
-1
 48
1.0
  6
BYLAYER
 10
0.4602524267262247
 20
-0.1953655642446377
 30
0.0
 11
0.4531538935183281
 21
-0.2113091308703521
 31
0.0
  0
LINE
  5
104
100
AcDbEntity
100
AcDbLine
  8
0
 62
256
370
-1
 48
1.0
  6
BYLAYER
 10
0.4285836503510598
 20
-0.2575190374550285
 30
0.0
 11
0.4193352839727149
 21
-0.2723195175075162
 31
0.0
  0
LINE
  5
105
100
AcDbEntity
100
AcDbLine
  8
0
 62
256
370
-1
 48
1.0
  6
BYLAYER
 10
0.3885729807284886
 20
-0.3146601955249204
 30
0.0
 11
0.3773547901113883
 21
-0.3280295144952567
 31
0.0
  0
LINE
  5
106
100
AcDbEntity
100
AcDbLine
  8
0
 62
256
370
-1
 48
1.0
  6
BYLAYER
 10
0.3409991800312522
 20
-0.3656768508095876
 30
0.0
 11
0.3280295144952561
 21
-0.3773547901113894
 31
0.0
  0
LINE
  5
107
100
AcDbEntity
100
AcDbLine
  8
0
 62
256
370
-1
 48
1.0
  6
BYLAYER
 10
0.2867882181755261
 20
-0.4095760221444984
 30
0.0
 11
0.2723195175075155
 21
-0.4193352839727156
 31
0.0
  0
LINE
  5
108
100
AcDbEntity
100
AcDbLine
  8
0
 62
256
370
-1
 48
1.0
  6
BYLAYER
 10
0.226995249869776
 20
-0.445503262094187
 30
0.0
 11
0.211309130870351
 21
-0.4531538935183288
 31
0.0
  0
LINE
  5
109
100
AcDbEntity
100
AcDbLine
  8
0
 62
256
370
-1
 48
1.0
  6
BYLAYER
 10
0.1627840772285811
 20
-0.4727592877996616
 30
0.0
 11
0.1461858523613682
 21
-0.4781523779815215
 31
0.0
  0
LINE
  5
10A
100
AcDbEntity
100
AcDbLine
  8
0
 62
256
370
-1
 48
1.0
  6
BYLAYER
 10
0.095404497688274
 20
-0.4908135917238357
 30
0.0
 11
0.0782172325201156
 21
-0.4938441702975724
 31
0.0
  0
LINE
  5
10B
100
AcDbEntity
100
AcDbLine
  8
0
 62
256
370
-1
 48
1.0
  6
BYLAYER
 10
0.0261679781214736
 20
-0.4993147673772904
 30
0.0
 11
0.0087262032186413
 21
-0.4999238475781993
 31
0.0
  0
LINE
  5
10C
100
AcDbEntity
100
AcDbLine
  8
0
 62
256
370
-1
 48
1.0
  6
BYLAYER
 10
-0.0435778713738282
 20
-0.4980973490458764
 30
0.0
 11
-0.0609346717025749
 21
-0.4962730758206646
 31
0.0
  0
LINE
  5
10D
100
AcDbEntity
100
AcDbLine
  8
0
 62
256
370
-1
 48
1.0
  6
BYLAYER
 10
-0.1124755271719327
 20
-0.4871850323926215
 30
0.0
 11
-0.1294095225512617
 21
-0.4829629131445372
 31
0.0
  0
LINE
  5
10E
100
AcDbEntity
100
AcDbLine
  8
0
 62
256
370
-1
 48
1.0
  6
BYLAYER
 10
-0.1791839747726502
 20
-0.4667902132486044
 30
0.0
 11
-0.1953655642446392
 21
-0.4602524267262231
 31
0.0
  0
LINE
  5
10F
100
AcDbEntity
100
AcDbLine
  8
0
 62
256
370
-1
 48
1.0
  6
BYLAYER
 10
-0.2424048101231691
 20
-0.4373098535697013
 30
0.0
 11
-0.2575190374550296
 21
-0.4285836503510587
 31
0.0
  0
LINE
  5
110
100
AcDbEntity
100
AcDbLine
  8
0
 62
256
370
-1
 48
1.0
  6
BYLAYER
 10
-0.3009075115760256
 20
-0.3993177550236495
 30
0.0
 11
-0.3146601955249215
 21
-0.3885729807284874
 31
0.0
  0
LINE
  5
111
100
AcDbEntity
100
AcDbLine
  8
0
 62
256
370
-1
 48
1.0
  6
BYLAYER
 10
-0.3535533905932748
 20
-0.3535533905932768
 30
0.0
 11
-0.3656768508095887
 21
-0.3409991800312506
 31
0.0
  0
LINE
  5
112
100
AcDbEntity
100
AcDbLine
  8
0
 62
256
370
-1
 48
1.0
  6
BYLAYER
 10
-0.3993177550236489
 20
-0.3009075115760271
 30
0.0
 11
-0.4095760221444991
 21
-0.2867882181755241
 31
0.0
  0
LINE
  5
113
100
AcDbEntity
100
AcDbLine
  8
0
 62
256
370
-1
 48
1.0
  6
BYLAYER
 10
-0.4373098535697002
 20
-0.2424048101231711
 30
0.0
 11
-0.4455032620941868
 21
-0.226995249869774
 31
0.0
  0
LINE
  5
114
100
AcDbEntity
100
AcDbLine
  8
0
 62
256
370
-1
 48
1.0
  6
BYLAYER
 10
-0.4667902132486041
 20
-0.1791839747726522
 30
0.0
 11
-0.4727592877996614
 21
-0.1627840772285787
 31
0.0
  0
LINE
  5
115
100
AcDbEntity
100
AcDbLine
  8
0
 62
256
370
-1
 48
1.0
  6
BYLAYER
 10
-0.4871850323926203
 20
-0.1124755271719338
 30
0.0
 11
-0.4908135917238354
 21
-0.095404497688272
 31
0.0
  0
LINE
  5
116
100
AcDbEntity
100
AcDbLine
  8
0
 62
256
370
-1
 48
1.0
  6
BYLAYER
 10
-0.4980973490458762
 20
-0.0435778713738302
 30
0.0
 11
-0.4993147673772906
 21
-0.0261679781214712
 31
0.0
  0
LINE
  5
117
100
AcDbEntity
100
AcDbLine
  8
0
 62
7
420
0
370
-1
 48
1.0
  6
BYLAYER
 10
0.4285836503510598
 20
0.2575190374550282
 30
0.0
 11
0.4727428991249605
 21
0.2611293311334728
 31
0.0
  0
ENDBLK
  5
118
100
AcDbEntity
  8
0
100
AcDbBlockEnd
  0
ENDSEC
  0
SECTION
  2
ENTITIES
  0
LINE
  5
119
100
AcDbEntity
100
AcDbLine
  8
0
 62
6
420
16711935
370
-1
 48
1.0
  6
BYLAYER
 10
5.8046953833368207
 20
2.248851215614915
 30
0.0
 11
5.845380615959531
 21
2.2663950270353523
 31
0.0
  0
LINE
  5
11A
100
AcDbEntity
100
AcDbLine
  8
0
 62
6
420
16711935
370
-1
 48
1.0
  6
BYLAYER
 10
5.8042525969654726
 20
2.3045504682590692
 30
0.0
 11
5.8390108413850328
 21
2.3320266018587978
 31
0.0
  0
LINE
  5
11B
100
AcDbEntity
100
AcDbLine
  8
0
 62
6
420
16711935
370
-1
 48
1.0
  6
BYLAYER
 10
5.7894088707915792
 20
2.3582372133472407
 30
0.0
 11
5.815871410091507
 21
2.3937732160278977
 31
0.0
  0
LINE
  5
11C
100
AcDbEntity
100
AcDbLine
  8
0
 62
6
420
16711935
370
-1
 48
1.0
  6
BYLAYER
 10
5.7611757802234678
 20
2.4062527879232118
 30
0.0
 11
5.7775392360818891
 21
2.4474269398281323
 31
0.0
  0
LINE
  5
11D
100
AcDbEntity
100
AcDbLine
  8
0
 62
6
420
16711935
370
-1
 48
1.0
  6
BYLAYER
 10
5.7214773637259704
 20
2.4453250099291206
 30
0.0
 11
5.7266265936680192
 21
2.4893313606494853
 31
0.0
  0
LINE
  5
11E
100
AcDbEntity
100
AcDbLine
  8
0
 62
6
420
16711935
370
-1
 48
1.0
  6
BYLAYER
 10
5.6730190027786485
 20
2.4727911720051621
 30
0.0
 11
5.66660309529329
 21
2.5166307614633134
 31
0.0
  0
LINE
  5
11F
100
AcDbEntity
100
AcDbLine
  8
0
 62
6
420
16711935
370
-1
 48
1.0
  6
BYLAYER
 10
5.619103054598849
 20
2.4867795005958344
 30
0.0
 11
5.6015592431784107
 21
2.5274647332185443
 31
0.0
  0
LINE
  5
120
100
AcDbEntity
100
AcDbLine
  8
0
 62
6
420
16711935
370
-1
 48
1.0
  6
BYLAYER
 10
5.5634038019546921
 20
2.4863367142244877
 30
0.0
 11
5.5359276683549652
 21
2.521094958644047
 31
0.0
  0
LINE
  5
121
100
AcDbEntity
100
AcDbLine
  8
0
 62
6
420
16711935
370
-1
 48
1.0
  6
BYLAYER
 10
5.5097170568665241
 20
2.4714929880505916
 30
0.0
 11
5.4741810541858662
 21
2.4979555273505198
 31
0.0
  0
LINE
  5
122
100
AcDbEntity
100
AcDbLine
  8
0
 62
6
420
16711935
370
-1
 48
1.0
  6
BYLAYER
 10
5.4617014822905503
 20
2.4432598974824806
 30
0.0
 11
5.4205273303856281
 21
2.4596233533409015
 31
0.0
  0
LINE
  5
123
100
AcDbEntity
100
AcDbLine
  8
0
 62
6
420
16711935
370
-1
 48
1.0
  6
BYLAYER
 10
5.4226292602846407
 20
2.4035614809849815
 30
0.0
 11
5.3786229095642746
 21
2.4087107109270351
 31
0.0
  0
LINE
  5
124
100
AcDbEntity
100
AcDbLine
  8
0
 62
6
420
16711935
370
-1
 48
1.0
  6
BYLAYER
 10
5.3951630982086023
 20
2.355103120037664
 30
0.0
 11
5.3513235087504505
 21
2.3486872125523015
 31
0.0
  0
LINE
  5
125
100
AcDbEntity
100
AcDbLine
  8
0
 62
6
420
16711935
370
-1
 48
1.0
  6
BYLAYER
 10
5.3811747696179282
 20
2.30118717185786
 30
0.0
 11
5.3404895369952179
 21
2.2836433604374231
 31
0.0
  0
LINE
  5
126
100
AcDbEntity
100
AcDbLine
  8
0
 62
6
420
16711935
370
-1
 48
1.0
  6
BYLAYER
 10
5.3816175559892763
 20
2.2454879192137049
 30
0.0
 11
5.3468593115697161
 21
2.2180117856139776
 31
0.0
  0
LINE
  5
127
100
AcDbEntity
100
AcDbLine
  8
0
 62
6
420
16711935
370
-1
 48
1.0
  6
BYLAYER
 10
5.3964612821631697
 20
2.1918011741255348
 30
0.0
 11
5.3699987428632419
 21
2.1562651714448773
 31
0.0
  0
LINE
  5
128
100
AcDbEntity
100
AcDbLine
  8
0
 62
6
420
16711935
370
-1
 48
1.0
  6
BYLAYER
 10
5.4246943727312811
 20
2.1437855995495623
 30
0.0
 11
5.4083309168728597
 21
2.1026114476446431
 31
0.0
  0
LINE
  5
129
100
AcDbEntity
100
AcDbLine
  8
0
 62
6
420
16711935
370
-1
 48
1.0
  6
BYLAYER
 10
5.4643927892287785
 20
2.1047133775436544
 30
0.0
 11
5.4592435592867297
 21
2.0607070268232905
 31
0.0
  0
LINE
  5
12A
100
AcDbEntity
100
AcDbLine
  8
0
 62
6
420
16711935
370
-1
 48
1.0
  6
BYLAYER
 10
5.5128511501761004
 20
2.0772472154676134
 30
0.0
 11
5.5192670576614589
 21
2.033407626009462
 31
0.0
  0
LINE
  5
12B
100
AcDbEntity
100
AcDbLine
  8
0
 62
6
420
16711935
370
-1
 48
1.0
  6
BYLAYER
 10
5.5667670983558999
 20
2.0632588868769415
 30
0.0
 11
5.5843109097763381
 21
2.0225736542542303
 31
0.0
  0
LINE
  5
12C
100
AcDbEntity
100
AcDbLine
  8
0
 62
6
420
16711935
370
-1
 48
1.0
  6
BYLAYER
 10
5.6224663510000568
 20
2.0637016732482869
 30
0.0
 11
5.6499424845997837
 21
2.0289434288287294
 31
0.0
  0
LINE
  5
12D
100
AcDbEntity
100
AcDbLine
  8
0
 62
6
420
16711935
370
-1
 48
1.0
  6
BYLAYER
 10
5.6761530960882247
 20
2.078545399422183
 30
0.0
 11
5.7116890987688826
 21
2.0520828601222543
 31
0.0
  0
LINE
  5
12E
100
AcDbEntity
100
AcDbLine
  8
0
 62
6
420
16711935
370
-1
 48
1.0
  6
BYLAYER
 10
5.7241686706641985
 20
2.1067784899902948
 30
0.0
 11
5.7653428225691172
 21
2.0904150341318721
 31
0.0
  0
LINE
  5
12F
100
AcDbEntity
100
AcDbLine
  8
0
 62
6
420
16711935
370
-1
 48
1.0
  6
BYLAYER
 10
5.7632408926701082
 20
2.1464769064877931
 30
0.0
 11
5.8072472433904707
 21
2.1413276765457407
 31
0.0
  0
LINE
  5
130
100
AcDbEntity
100
AcDbLine
  8
0
 62
6
420
16711935
370
-1
 48
1.0
  6
BYLAYER
 10
5.7907070547461466
 20
2.194935267435111
 30
0.0
 11
5.8345466442042984
 21
2.2013511749204731
 31
0.0
  0
ARC
  5
131
100
AcDbEntity
  8
0
 62
14
420
8388608
370
-1
 48
1.0
  6
BYLAYER
100
AcDbCircle
 10
7.6994961153224253
 20
8.0000661161627189
 30
0.0
 40
0.0538785000000007
100
AcDbArc
 50
89.9999975740443006
 51
269.9999974310433686
  0
ARC
  5
132
100
AcDbEntity
  8
0
 62
14
420
8388608
370
-1
 48
1.0
  6
BYLAYER
100
AcDbCircle
 10
6.4608322871786363
 20
8.0000661158479929
 30
0.0
 40
0.0538785000000007
100
AcDbArc
 50
270.0000025689566314
 51
89.9999975740443006
  0
ARC
  5
133
100
AcDbEntity
  8
0
 62
14
420
8388608
370
-1
 48
1.0
  6
BYLAYER
100
AcDbCircle
 10
13.7005956753991782
 20
8.8501044997307723
 30
0.0
 40
0.0538785000000007
100
AcDbArc
 50
89.9999975740443006
 51
269.9999974310433686
  0
ARC
  5
134
100
AcDbEntity
  8
0
 62
14
420
8388608
370
-1
 48
1.0
  6
BYLAYER
100
AcDbCircle
 10
13.9312637750018773
 20
7.1500277318979588
 30
0.0
 40
0.0538785000000007
100
AcDbArc
 50
270.0000025689566314
 51
89.9999975740443006
  0
ARC
  5
135
100
AcDbEntity
  8
0
 62
14
420
8388608
370
-1
 48
1.0
  6
BYLAYER
100
AcDbCircle
 10
13.7005956753991782
 20
7.1500277318307237
 30
0.0
 40
0.0538785000000007
100
AcDbArc
 50
89.9999975740443006
 51
269.9999974310433686
  0
ARC
  5
136
100
AcDbEntity
  8
0
 62
14
420
8388608
370
-1
 48
1.0
  6
BYLAYER
100
AcDbCircle
 10
13.9312637750018773
 20
8.8501044997980092
 30
0.0
 40
0.0538785000000007
100
AcDbArc
 50
270.0000025689566314
 51
89.9999975740443006
  0
ARC
  5
137
100
AcDbEntity
  8
0
 62
14
420
8388608
370
-1
 48
1.0
  6
BYLAYER
100
AcDbCircle
 10
13.7005956753991782
 20
7.1500277319651975
 30
0.0
 40
0.0538785000000007
100
AcDbArc
 50
89.9999974310433544
 51
269.9999975740443006
  0
ARC
  5
138
100
AcDbEntity
  8
0
 62
3
420
65280
370
-1
 48
1.0
  6
BYLAYER
100
AcDbCircle
 10
6.6190006509258232
 20
1.4249808075387147
 30
0.0
 40
0.0538785000000007
100
AcDbArc
 50
89.9999974310433544
 51
269.9999975740443006
  0
ARC
  5
139
100
AcDbEntity
  8
0
 62
3
420
65280
370
-1
 48
1.0
  6
BYLAYER
100
AcDbCircle
 10
6.8496687505285223
 20
1.42498080747148
 30
0.0
 40
0.0538785000000007
100
AcDbArc
 50
270.0000025689566314
 51
89.9999975740443006
  0
ARC
  5
13A
100
AcDbEntity
  8
0
 62
3
420
65280
370
-1
 48
1.0
  6
BYLAYER
100
AcDbCircle
 10
6.6190006509258232
 20
1.4249808074042436
 30
0.0
 40
0.0538785000000007
100
AcDbArc
 50
89.9999975740443006
 51
269.9999974310433686
  0
ARC
  5
13B
100
AcDbEntity
  8
0
 62
3
420
65280
370
-1
 48
1.0
  6
BYLAYER
100
AcDbCircle
 10
6.8496687505285223
 20
3.1250575753715277
 30
0.0
 40
0.0538785000000007
100
AcDbArc
 50
270.0000025689566314
 51
89.9999975740443006
  0
ARC
  5
13C
100
AcDbEntity
  8
0
 62
3
420
65280
370
-1
 48
1.0
  6
BYLAYER
100
AcDbCircle
 10
6.6190006509258232
 20
3.1250575753042922
 30
0.0
 40
0.0538785000000007
100
AcDbArc
 50
89.9999975740443006
 51
269.9999974310433686
  0
ARC
  5
13D
100
AcDbEntity
  8
0
 62
3
420
65280
370
-1
 48
1.0
  6
BYLAYER
100
AcDbCircle
 10
3.5346099476739714
 20
0.7750191912534234
 30
0.0
 40
0.0538785000000007
100
AcDbArc
 50
270.0000025689566314
 51
89.9999975740443006
  0
ARC
  5
13E
100
AcDbEntity
  8
0
 62
3
420
65280
370
-1
 48
1.0
  6
BYLAYER
100
AcDbCircle
 10
3.3039418480712737
 20
0.7750191911861883
 30
0.0
 40
0.0538785000000007
100
AcDbArc
 50
89.9999975740443006
 51
269.9999974310433686
  0
ARC
  5
13F
100
AcDbEntity
  8
0
 62
3
420
65280
370
-1
 48
1.0
  6
BYLAYER
100
AcDbCircle
 10
3.5346099476739719
 20
3.7750191912534166
 30
0.0
 40
0.0538785000000007
100
AcDbArc
 50
270.0000025689566314
 51
89.9999975740443006
  0
ARC
  5
140
100
AcDbEntity
  8
0
 62
3
420
65280
370
-1
 48
1.0
  6
BYLAYER
100
AcDbCircle
 10
3.3039418480712732
 20
3.7750191911861806
 30
0.0
 40
0.0538785000000007
100
AcDbArc
 50
89.9999975740443006
 51
269.9999974310433686
  0
ARC
  5
141
100
AcDbEntity
  8
0
 62
7
420
0
370
-1
 48
1.0
  6
BYLAYER
100
AcDbCircle
 10
2.1095788803025664
 20
2.2750191889721534
 30
0.0
 40
0.0538785000000007
100
AcDbArc
 50
89.9999975740443006
 51
269.9999974310433686
  0
ARC
  5
142
100
AcDbEntity
  8
0
 62
3
420
65280
370
-1
 48
1.0
  6
BYLAYER
100
AcDbCircle
 10
2.7927509419752492
 20
6.5750191913878817
 30
0.0
 40
0.0538785000000007
100
AcDbArc
 50
89.9999975740443006
 51
269.9999974310433686
  0
ARC
  5
143
100
AcDbEntity
  8
0
 62
3
420
65280
370
-1
 48
1.0
  6
BYLAYER
100
AcDbCircle
 10
3.0234190415779483
 20
4.8749424235550674
 30
0.0
 40
0.0538785000000007
100
AcDbArc
 50
270.0000025689566314
 51
89.9999975740443006
  0
ARC
  5
144
100
AcDbEntity
  8
0
 62
3
420
65280
370
-1
 48
1.0
  6
BYLAYER
100
AcDbCircle
 10
2.7927509419752492
 20
4.874942423487834
 30
0.0
 40
0.0538785000000007
100
AcDbArc
 50
89.9999975740443006
 51
269.9999974310433686
  0
ARC
  5
145
100
AcDbEntity
  8
0
 62
3
420
65280
370
-1
 48
1.0
  6
BYLAYER
100
AcDbCircle
 10
3.0234190415779483
 20
6.5750191914551195
 30
0.0
 40
0.0538785000000007
100
AcDbArc
 50
270.0000025689566314
 51
89.9999975740443006
  0
ARC
  5
146
100
AcDbEntity
  8
0
 62
3
420
65280
370
-1
 48
1.0
  6
BYLAYER
100
AcDbCircle
 10
2.7927509419752492
 20
4.874942423622306
 30
0.0
 40
0.0538785000000007
100
AcDbArc
 50
89.9999974310433544
 51
269.9999975740443006
  0
ARC
  5
147
100
AcDbEntity
  8
0
 62
3
420
65280
370
-1
 48
1.0
  6
BYLAYER
100
AcDbCircle
 10
0.8320454861658163
 20
2.2750523059184764
 30
0.0
 40
0.0538785000000007
100
AcDbArc
 50
89.9999974310433544
 51
269.9999975740443006
  0
ARC
  5
148
100
AcDbEntity
  8
0
 62
3
420
65280
370
-1
 48
1.0
  6
BYLAYER
100
AcDbCircle
 10
1.0627135857685155
 20
2.2750523058511454
 30
0.0
 40
0.0538785000000007
100
AcDbArc
 50
270.0000025689566314
 51
89.9999975740443006
  0
ARC
  5
149
100
AcDbEntity
  8
0
 62
3
420
65280
370
-1
 48
1.0
  6
BYLAYER
100
AcDbCircle
 10
0.8320454861658478
 20
2.2750523641464584
 30
0.0
 40
0.0538785000000007
100
AcDbArc
 50
89.9999975740443006
 51
269.9999974310433686
  0
ARC
  5
14A
100
AcDbEntity
  8
0
 62
3
420
65280
370
-1
 48
1.0
  6
BYLAYER
100
AcDbCircle
 10
1.0627325276956334
 20
3.7764557394776705
 30
0.0
 40
0.0538785000000007
100
AcDbArc
 50
270.0000025689566314
 51
89.9999975740443006
  0
ARC
  5
14B
100
AcDbEntity
  8
0
 62
3
420
65280
370
-1
 48
1.0
  6
BYLAYER
100
AcDbCircle
 10
0.8320644280929342
 20
3.7764557394104346
 30
0.0
 40
0.0538785000000007
100
AcDbArc
 50
89.9999975740443006
 51
269.9999974310433686
  0
ARC
  5
14C
100
AcDbEntity
  8
0
 62
3
420
65280
370
-1
 48
1.0
  6
BYLAYER
100
AcDbCircle
 10
0.8320644280929342
 20
3.7764557395449065
 30
0.0
 40
0.0538785000000007
100
AcDbArc
 50
89.9999974310433544
 51
269.9999975740443006
  0
ARC
  5
14D
100
AcDbEntity
  8
0
 62
3
420
65280
370
-1
 48
1.0
  6
BYLAYER
100
AcDbCircle
 10
1.0627496476264531
 20
0.7770011652379996
 30
0.0
 40
0.0538785000000007
100
AcDbArc
 50
270.0000025689566314
 51
89.9999975740443006
  0
ARC
  5
14E
100
AcDbEntity
  8
0
 62
3
420
65280
370
-1
 48
1.0
  6
BYLAYER
100
AcDbCircle
 10
0.8320815480237534
 20
0.7770011651707631
 30
0.0
 40
0.0538785000000007
100
AcDbArc
 50
89.9999975740443006
 51
269.9999974310433686
  0
ARC
  5
14F
100
AcDbEntity
  8
0
 62
3
420
65280
370
-1
 48
1.0
  6
BYLAYER
100
AcDbCircle
 10
0.8320815480237534
 20
0.7770011653052356
 30
0.0
 40
0.0538785000000007
100
AcDbArc
 50
89.9999974310433544
 51
269.9999975740443006
  0
CIRCLE
  5
150
100
AcDbEntity
100
AcDbCircle
  8
0
 62
14
420
8388608
370
-1
 48
1.0
  6
BYLAYER
 10
6.2801642012505319
 20
7.6000661158479925
 30
0.0
 40
0.0538785000000007
  0
CIRCLE
  5
151
100
AcDbEntity
100
AcDbCircle
  8
0
 62
14
420
8388608
370
-1
 48
1.0
  6
BYLAYER
 10
6.2801642012505319
 20
8.4000661158479932
 30
0.0
 40
0.0538785000000007
  0
CIRCLE
  5
152
100
AcDbEntity
100
AcDbCircle
  8
0
 62
14
420
8388608
370
-1
 48
1.0
  6
BYLAYER
 10
7.8801642012505333
 20
8.4000661158479932
 30
0.0
 40
0.0538785000000007
  0
CIRCLE
  5
153
100
AcDbEntity
100
AcDbCircle
  8
0
 62
14
420
8388608
370
-1
 48
1.0
  6
BYLAYER
 10
7.8801642012505333
 20
7.6000661158479925
 30
0.0
 40
0.0538785000000007
  0
LINE
  5
154
100
AcDbEntity
100
AcDbLine
  8
0
 62
14
420
8388608
370
-1
 48
1.0
  6
BYLAYER
 10
5.925914201250535
 20
7.876816120544996
 30
0.0
 11
5.9259142012505315
 21
8.1233161158479916
 31
0.0
  0
CIRCLE
  5
155
100
AcDbEntity
100
AcDbCircle
  8
0
 62
14
420
8388608
370
-1
 48
1.0
  6
BYLAYER
 10
8.3386072197686509
 20
9.5000661158479929
 30
0.0
 40
0.0544830000000068
  0
CIRCLE
  5
156
100
AcDbEntity
100
AcDbCircle
  8
0
 62
14
420
8388608
370
-1
 48
1.0
  6
BYLAYER
 10
5.8091925583565676
 20
6.5000661158479964
 30
0.0
 40
0.0544830000000068
  0
CIRCLE
  5
157
100
AcDbEntity
100
AcDbCircle
  8
0
 62
14
420
8388608
370
-1
 48
1.0
  6
BYLAYER
 10
5.8091925583565676
 20
9.5000661158479929
 30
0.0
 40
0.0544830000000068
  0
CIRCLE
  5
158
100
AcDbEntity
100
AcDbCircle
  8
0
 62
14
420
8388608
370
-1
 48
1.0
  6
BYLAYER
 10
14.1908074416434182
 20
9.5000661158479929
 30
0.0
 40
0.0544830000000068
  0
CIRCLE
  5
159
100
AcDbEntity
100
AcDbCircle
  8
0
 62
14
420
8388608
370
-1
 48
1.0
  6
BYLAYER
 10
11.6655689883566218
 20
9.5000661158479929
 30
0.0
 40
0.0544830000000068
  0
CIRCLE
  5
15A
100
AcDbEntity
100
AcDbCircle
  8
0
 62
14
420
8388608
370
-1
 48
1.0
  6
BYLAYER
 10
14.1908074416434218
 20
6.5000661158479947
 30
0.0
 40
0.0544830000000068
  0
CIRCLE
  5
15B
100
AcDbEntity
100
AcDbCircle
  8
0
 62
14
420
8388608
370
-1
 48
1.0
  6
BYLAYER
 10
11.6655689883566254
 20
6.5000661158479947
 30
0.0
 40
0.0544830000000068
  0
CIRCLE
  5
15C
100
AcDbEntity
100
AcDbCircle
  8
0
 62
14
420
8388608
370
-1
 48
1.0
  6
BYLAYER
 10
11.7404947195897371
 20
8.0001045048240815
 30
0.0
 40
0.0544830000000068
  0
LINE
  5
15D
100
AcDbEntity
100
AcDbLine
  8
0
 62
14
420
8388608
370
-1
 48
1.0
  6
BYLAYER
 10
6.2991967871786336
 20
8.0539446158479926
 30
0.0
 11
6.2991967871786336
 21
8.1233161134994898
 31
0.0
  0
LINE
  5
15E
100
AcDbEntity
100
AcDbLine
  8
0
 62
14
420
8388608
370
-1
 48
1.0
  6
BYLAYER
 10
7.861131615322428
 20
8.0539446158479944
 30
0.0
 11
7.861131615322428
 21
8.1233161134994898
 31
0.0
  0
CIRCLE
  5
15F
100
AcDbEntity
100
AcDbCircle
  8
0
 62
14
420
8388608
370
-1
 48
1.0
  6
BYLAYER
 10
8.3344310116433711
 20
6.5000661158479964
 30
0.0
 40
0.0544830000000068
  0
CIRCLE
  5
160
100
AcDbEntity
100
AcDbCircle
  8
0
 62
3
420
65280
370
-1
 48
1.0
  6
BYLAYER
 10
4.6421115605473879
 20
0.7750191937363924
 30
0.0
 40
0.0544830000000068
  0
CIRCLE
  5
161
100
AcDbEntity
100
AcDbCircle
  8
0
 62
3
420
65280
370
-1
 48
1.0
  6
BYLAYER
 10
4.6421115605473879
 20
2.2750575827157613
 30
0.0
 40
0.0544830000000068
  0
LINE
  5
162
100
AcDbEntity
100
AcDbLine
  8
0
 62
7
420
0
370
-1
 48
1.0
  6
BYLAYER
 10
2.4159993615764876
 20
2.2211406913206559
 30
0.0
 11
2.4159993615764876
 21
2.1517691936691592
 31
0.0
  0
CIRCLE
  5
163
100
AcDbEntity
100
AcDbCircle
  8
0
 62
3
420
65280
370
-1
 48
1.0
  6
BYLAYER
 10
0.8326499861658079
 20
5.7250191964811901
 30
0.0
 40
0.0544830000000068
  0
CIRCLE
  5
164
100
AcDbEntity
100
AcDbCircle
  8
0
 62
3
420
65280
370
-1
 48
1.0
  6
BYLAYER
 10
7.1673500138341844
 20
3.7750191937363891
 30
0.0
 40
0.0544830000000068
  0
CIRCLE
  5
165
100
AcDbEntity
100
AcDbCircle
  8
0
 62
3
420
65280
370
-1
 48
1.0
  6
BYLAYER
 10
3.2829627082194897
 20
4.2249808075051032
 30
0.0
 40
0.0544830000000068
  0
CIRCLE
  5
166
100
AcDbEntity
100
AcDbCircle
  8
0
 62
3
420
65280
370
-1
 48
1.0
  6
BYLAYER
 10
3.2829627082194897
 20
7.2249808075050996
 30
0.0
 40
0.0544830000000068
  0
CIRCLE
  5
167
100
AcDbEntity
100
AcDbCircle
  8
0
 62
3
420
65280
370
-1
 48
1.0
  6
BYLAYER
 10
0.7577242549326932
 20
4.224980807505105
 30
0.0
 40
0.0544830000000068
  0
CIRCLE
  5
168
100
AcDbEntity
100
AcDbCircle
  8
0
 62
3
420
65280
370
-1
 48
1.0
  6
BYLAYER
 10
0.7577242549326932
 20
7.2249808075050979
 30
0.0
 40
0.0544830000000068
  0
CIRCLE
  5
169
100
AcDbEntity
100
AcDbCircle
  8
0
 62
3
420
65280
370
-1
 48
1.0
  6
BYLAYER
 10
7.1673500138341844
 20
0.7750191937363926
 30
0.0
 40
0.0544830000000068
  0
CIRCLE
  5
16A
100
AcDbEntity
100
AcDbCircle
  8
0
 62
3
420
65280
370
-1
 48
1.0
  6
BYLAYER
 10
4.6421115605473879
 20
3.7750191937363886
 30
0.0
 40
0.0544830000000068
  0
LINE
  5
16B
100
AcDbEntity
100
AcDbLine
  8
0
 62
14
420
8388608
370
-1
 48
1.0
  6
BYLAYER
 10
7.861131615322428
 20
7.876816118196496
 30
0.0
 11
7.861131615322428
 21
7.9461876158479914
 31
0.0
  0
LINE
  5
16C
100
AcDbEntity
100
AcDbLine
  8
0
 62
14
420
8388608
370
-1
 48
1.0
  6
BYLAYER
 10
6.2991967871786336
 20
7.8768161181964942
 30
0.0
 11
6.2991967871786336
 21
7.9461876158479914
 31
0.0
  0
LINE
  5
16D
100
AcDbEntity
100
AcDbLine
  8
0
 62
7
420
0
370
-1
 48
1.0
  6
BYLAYER
 10
2.4159993615764876
 20
2.3982691889721544
 30
0.0
 11
2.4159993615764876
 21
2.3288976913206576
 31
0.0
  0
LINE
  5
16E
100
AcDbEntity
100
AcDbLine
  8
0
 62
14
420
8388608
370
-1
 48
1.0
  6
BYLAYER
 10
8.2344142012505337
 20
7.876816120544996
 30
0.0
 11
8.2344142012505337
 21
8.1233161158479916
 31
0.0
  0
LINE
  5
16F
100
AcDbEntity
100
AcDbLine
  8
0
 62
7
420
0
370
-1
 48
1.0
  6
BYLAYER
 10
3.073744584290504
 20
2.3288976889721558
 30
0.0
 11
3.073744584290504
 21
2.3982691866236547
 31
0.0
  0
LINE
  5
170
100
AcDbEntity
100
AcDbLine
  8
0
 62
7
420
0
370
-1
 48
1.0
  6
BYLAYER
 10
3.073744584290504
 20
2.1517691913206582
 30
0.0
 11
3.073744584290504
 21
2.2211406889721546
 31
0.0
  0
LINE
  5
171
100
AcDbEntity
100
AcDbLine
  8
0
 62
14
420
8388608
370
-1
 48
1.0
  6
BYLAYER
 10
13.7227685386132698
 20
8.1233161170222346
 30
0.0
 11
13.5777685386132703
 21
8.1233161170222328
 31
0.0
  0
LINE
  5
172
100
AcDbEntity
100
AcDbLine
  8
0
 62
14
420
8388608
370
-1
 48
1.0
  6
BYLAYER
 10
8.0061316153224276
 20
7.8768161134994923
 30
0.0
 11
7.861131615322428
 21
7.8768161134994923
 31
0.0
  0
LINE
  5
173
100
AcDbEntity
100
AcDbLine
  8
0
 62
14
420
8388608
370
-1
 48
1.0
  6
BYLAYER
 10
6.1541967871786341
 20
7.8768161134994923
 30
0.0
 11
6.2991967871786336
 21
7.8768161134994923
 31
0.0
  0
LINE
  5
174
100
AcDbEntity
100
AcDbLine
  8
0
 62
3
420
65280
370
-1
 48
1.0
  6
BYLAYER
 10
2.8149238051893408
 20
5.848230808679344
 30
0.0
 11
2.6699238051893412
 21
5.8482308086793431
 31
0.0
  0
LINE
  5
175
100
AcDbEntity
100
AcDbLine
  8
0
 62
14
420
8388608
370
-1
 48
1.0
  6
BYLAYER
 10
5.765870520934353
 20
8.1233161158479916
 30
0.0
 11
5.9259142012505315
 21
8.1233161158479916
 31
0.0
  0
LINE
  5
176
100
AcDbEntity
100
AcDbLine
  8
0
 62
14
420
8388608
370
-1
 48
1.0
  6
BYLAYER
 10
13.7227685386132698
 20
7.8768161170222353
 30
0.0
 11
13.5777685386132703
 21
7.8768161170222353
 31
0.0
  0
LINE
  5
177
100
AcDbEntity
100
AcDbLine
  8
0
 62
14
420
8388608
370
-1
 48
1.0
  6
BYLAYER
 10
8.0061316153224276
 20
8.1233161134994898
 30
0.0
 11
7.861131615322428
 21
8.1233161134994898
 31
0.0
  0
LINE
  5
178
100
AcDbEntity
100
AcDbLine
  8
0
 62
14
420
8388608
370
-1
 48
1.0
  6
BYLAYER
 10
6.1541967871786341
 20
8.1233161134994898
 30
0.0
 11
6.2991967871786336
 21
8.1233161134994898
 31
0.0
  0
LINE
  5
179
100
AcDbEntity
100
AcDbLine
  8
0
 62
3
420
65280
370
-1
 48
1.0
  6
BYLAYER
 10
2.8149238051893408
 20
5.6017308086793456
 30
0.0
 11
2.6699238051893412
 21
5.6017308086793456
 31
0.0
  0
LINE
  5
17A
100
AcDbEntity
100
AcDbLine
  8
0
 62
14
420
8388608
370
-1
 48
1.0
  6
BYLAYER
 10
5.7658705209343566
 20
7.876816120544996
 30
0.0
 11
5.925914201250535
 21
7.876816120544996
 31
0.0
  0
LINE
  5
17B
100
AcDbEntity
100
AcDbLine
  8
0
 62
14
420
8388608
370
-1
 48
1.0
  6
BYLAYER
 10
8.3944578815667121
 20
8.1233161158479916
 30
0.0
 11
8.2344142012505337
 21
8.1233161158479916
 31
0.0
  0
LINE
  5
17C
100
AcDbEntity
100
AcDbLine
  8
0
 62
14
420
8388608
370
-1
 48
1.0
  6
BYLAYER
 10
8.3944578815667121
 20
7.876816120544996
 30
0.0
 11
8.2344142012505337
 21
7.876816120544996
 31
0.0
  0
LINE
  5
17D
100
AcDbEntity
100
AcDbLine
  8
0
 62
6
420
16711935
370
-1
 48
1.0
  6
BYLAYER
 10
5.4083309168728597
 20
2.4474269398281323
 30
0.0
 11
5.4246943727312846
 21
2.4062527879232127
 31
0.0
  0
LINE
  5
17E
100
AcDbEntity
100
AcDbLine
  8
0
 62
6
420
16711935
370
-1
 48
1.0
  6
BYLAYER
 10
5.3699987428632419
 20
2.3937732160278982
 30
0.0
 11
5.3964612821631697
 21
2.3582372133472402
 31
0.0
  0
LINE
  5
17F
100
AcDbEntity
100
AcDbLine
  8
0
 62
6
420
16711935
370
-1
 48
1.0
  6
BYLAYER
 10
5.3468593115697161
 20
2.332026601858797
 30
0.0
 11
5.3816175559892763
 21
2.3045504682590714
 31
0.0
  0
LINE
  5
180
100
AcDbEntity
100
AcDbLine
  8
0
 62
6
420
16711935
370
-1
 48
1.0
  6
BYLAYER
 10
5.3404895369952179
 20
2.2663950270353497
 30
0.0
 11
5.3811747696179282
 21
2.2488512156149172
 31
0.0
  0
LINE
  5
181
100
AcDbEntity
100
AcDbLine
  8
0
 62
6
420
16711935
370
-1
 48
1.0
  6
BYLAYER
 10
5.3513235087504505
 20
2.2013511749204731
 30
0.0
 11
5.3951630982086023
 21
2.1949352674351124
 31
0.0
  0
LINE
  5
182
100
AcDbEntity
100
AcDbLine
  8
0
 62
6
420
16711935
370
-1
 48
1.0
  6
BYLAYER
 10
5.3786229095642746
 20
2.1413276765457416
 30
0.0
 11
5.4226292602846407
 21
2.1464769064877958
 31
0.0
  0
LINE
  5
183
100
AcDbEntity
100
AcDbLine
  8
0
 62
6
420
16711935
370
-1
 48
1.0
  6
BYLAYER
 10
5.4205273303856281
 20
2.0904150341318748
 30
0.0
 11
5.4617014822905467
 21
2.1067784899902953
 31
0.0
  0
LINE
  5
184
100
AcDbEntity
100
AcDbLine
  8
0
 62
6
420
16711935
370
-1
 48
1.0
  6
BYLAYER
 10
5.4741810541858662
 20
2.0520828601222543
 30
0.0
 11
5.5097170568665206
 21
2.0785453994221843
 31
0.0
  0
LINE
  5
185
100
AcDbEntity
100
AcDbLine
  8
0
 62
6
420
16711935
370
-1
 48
1.0
  6
BYLAYER
 10
5.5359276683549616
 20
2.0289434288287289
 30
0.0
 11
5.5634038019546921
 21
2.0637016732482878
 31
0.0
  0
LINE
  5
186
100
AcDbEntity
100
AcDbLine
  8
0
 62
6
420
16711935
370
-1
 48
1.0
  6
BYLAYER
 10
5.6015592431784107
 20
2.0225736542542312
 30
0.0
 11
5.6191030545988454
 21
2.0632588868769415
 31
0.0
  0
LINE
  5
187
100
AcDbEntity
100
AcDbLine
  8
0
 62
6
420
16711935
370
-1
 48
1.0
  6
BYLAYER
 10
5.6666030952932864
 20
2.033407626009462
 30
0.0
 11
5.6730190027786485
 21
2.0772472154676138
 31
0.0
  0
LINE
  5
188
100
AcDbEntity
100
AcDbLine
  8
0
 62
6
420
16711935
370
-1
 48
1.0
  6
BYLAYER
 10
5.7266265936680192
 20
2.0607070268232901
 30
0.0
 11
5.7214773637259668
 21
2.104713377543654
 31
0.0
  0
LINE
  5
189
100
AcDbEntity
100
AcDbLine
  8
0
 62
6
420
16711935
370
-1
 48
1.0
  6
BYLAYER
 10
5.7775392360818891
 20
2.102611447644644
 30
0.0
 11
5.7611757802234642
 21
2.1437855995495618
 31
0.0
  0
LINE
  5
18A
100
AcDbEntity
100
AcDbLine
  8
0
 62
6
420
16711935
370
-1
 48
1.0
  6
BYLAYER
 10
5.815871410091507
 20
2.1562651714448777
 30
0.0
 11
5.7894088707915792
 21
2.191801174125533
 31
0.0
  0
LINE
  5
18B
100
AcDbEntity
100
AcDbLine
  8
0
 62
6
420
16711935
370
-1
 48
1.0
  6
BYLAYER
 10
5.8390108413850328
 20
2.2180117856139776
 30
0.0
 11
5.8042525969654726
 21
2.2454879192137045
 31
0.0
  0
LINE
  5
18C
100
AcDbEntity
100
AcDbLine
  8
0
 62
6
420
16711935
370
-1
 48
1.0
  6
BYLAYER
 10
5.845380615959531
 20
2.2836433604374231
 30
0.0
 11
5.8046953833368207
 21
2.3011871718578578
 31
0.0
  0
LINE
  5
18D
100
AcDbEntity
100
AcDbLine
  8
0
 62
6
420
16711935
370
-1
 48
1.0
  6
BYLAYER
 10
5.8345466442042984
 20
2.3486872125523015
 30
0.0
 11
5.7907070547461466
 21
2.3551031200376613
 31
0.0
  0
LINE
  5
18E
100
AcDbEntity
100
AcDbLine
  8
0
 62
6
420
16711935
370
-1
 48
1.0
  6
BYLAYER
 10
5.8072472433904743
 20
2.4087107109270351
 30
0.0
 11
5.7632408926701082
 21
2.4035614809849806
 31
0.0
  0
LINE
  5
18F
100
AcDbEntity
100
AcDbLine
  8
0
 62
6
420
16711935
370
-1
 48
1.0
  6
BYLAYER
 10
5.7653428225691208
 20
2.4596233533409015
 30
0.0
 11
5.7241686706642021
 21
2.4432598974824802
 31
0.0
  0
LINE
  5
190
100
AcDbEntity
100
AcDbLine
  8
0
 62
6
420
16711935
370
-1
 48
1.0
  6
BYLAYER
 10
5.7116890987688826
 20
2.4979555273505203
 30
0.0
 11
5.6761530960882283
 21
2.4714929880505938
 31
0.0
  0
LINE
  5
191
100
AcDbEntity
100
AcDbLine
  8
0
 62
6
420
16711935
370
-1
 48
1.0
  6
BYLAYER
 10
5.6499424845997872
 20
2.5210949586440461
 30
0.0
 11
5.6224663510000568
 21
2.4863367142244885
 31
0.0
  0
LINE
  5
192
100
AcDbEntity
100
AcDbLine
  8
0
 62
6
420
16711935
370
-1
 48
1.0
  6
BYLAYER
 10
5.5843109097763381
 20
2.5274647332185429
 30
0.0
 11
5.5667670983559034
 21
2.4867795005958349
 31
0.0
  0
LINE
  5
193
100
AcDbEntity
100
AcDbLine
  8
0
 62
6
420
16711935
370
-1
 48
1.0
  6
BYLAYER
 10
5.5192670576614589
 20
2.5166307614633125
 30
0.0
 11
5.5128511501761004
 21
2.4727911720051625
 31
0.0
  0
LINE
  5
194
100
AcDbEntity
100
AcDbLine
  8
0
 62
6
420
16711935
370
-1
 48
1.0
  6
BYLAYER
 10
5.4592435592867297
 20
2.4893313606494836
 30
0.0
 11
5.464392789228782
 21
2.4453250099291211
 31
0.0
  0
LINE
  5
195
100
AcDbEntity
100
AcDbLine
  8
0
 62
6
420
16711935
370
-1
 48
1.0
  6
BYLAYER
 10
5.845380615959531
 20
2.2663950270353523
 30
0.0
 11
5.845380615959531
 21
2.2836433604374231
 31
0.0
  0
LINE
  5
196
100
AcDbEntity
100
AcDbLine
  8
0
 62
6
420
16711935
370
-1
 48
1.0
  6
BYLAYER
 10
5.8390108413850328
 20
2.3320266018587978
 30
0.0
 11
5.8345466442042984
 21
2.3486872125523042
 31
0.0
  0
LINE
  5
197
100
AcDbEntity
100
AcDbLine
  8
0
 62
6
420
16711935
370
-1
 48
1.0
  6
BYLAYER
 10
5.815871410091507
 20
2.3937732160278977
 30
0.0
 11
5.8072472433904707
 21
2.4087107109270351
 31
0.0
  0
LINE
  5
198
100
AcDbEntity
100
AcDbLine
  8
0
 62
6
420
16711935
370
-1
 48
1.0
  6
BYLAYER
 10
5.7775392360818891
 20
2.4474269398281323
 30
0.0
 11
5.7653428225691172
 21
2.459623353340902
 31
0.0
  0
LINE
  5
199
100
AcDbEntity
100
AcDbLine
  8
0
 62
6
420
16711935
370
-1
 48
1.0
  6
BYLAYER
 10
5.7266265936680192
 20
2.4893313606494853
 30
0.0
 11
5.7116890987688826
 21
2.4979555273505207
 31
0.0
  0
LINE
  5
19A
100
AcDbEntity
100
AcDbLine
  8
0
 62
6
420
16711935
370
-1
 48
1.0
  6
BYLAYER
 10
5.66660309529329
 20
2.5166307614633134
 30
0.0
 11
5.6499424845997837
 21
2.521094958644047
 31
0.0
  0
LINE
  5
19B
100
AcDbEntity
100
AcDbLine
  8
0
 62
6
420
16711935
370
-1
 48
1.0
  6
BYLAYER
 10
5.6015592431784107
 20
2.5274647332185443
 30
0.0
 11
5.5843109097763381
 21
2.5274647332185429
 31
0.0
  0
LINE
  5
19C
100
AcDbEntity
100
AcDbLine
  8
0
 62
6
420
16711935
370
-1
 48
1.0
  6
BYLAYER
 10
5.5359276683549652
 20
2.521094958644047
 30
0.0
 11
5.5192670576614589
 21
2.5166307614633125
 31
0.0
  0
LINE
  5
19D
100
AcDbEntity
100
AcDbLine
  8
0
 62
6
420
16711935
370
-1
 48
1.0
  6
BYLAYER
 10
5.4741810541858662
 20
2.4979555273505198
 30
0.0
 11
5.4592435592867297
 21
2.4893313606494836
 31
0.0
  0
LINE
  5
19E
100
AcDbEntity
100
AcDbLine
  8
0
 62
6
420
16711935
370
-1
 48
1.0
  6
BYLAYER
 10
5.4205273303856281
 20
2.4596233533409015
 30
0.0
 11
5.4083309168728597
 21
2.4474269398281323
 31
0.0
  0
LINE
  5
19F
100
AcDbEntity
100
AcDbLine
  8
0
 62
6
420
16711935
370
-1
 48
1.0
  6
BYLAYER
 10
5.3786229095642746
 20
2.4087107109270351
 30
0.0
 11
5.3699987428632419
 21
2.3937732160278946
 31
0.0
  0
LINE
  5
1A0
100
AcDbEntity
100
AcDbLine
  8
0
 62
6
420
16711935
370
-1
 48
1.0
  6
BYLAYER
 10
5.3513235087504505
 20
2.3486872125523015
 30
0.0
 11
5.3468593115697161
 21
2.332026601858797
 31
0.0
  0
LINE
  5
1A1
100
AcDbEntity
100
AcDbLine
  8
0
 62
6
420
16711935
370
-1
 48
1.0
  6
BYLAYER
 10
5.3404895369952179
 20
2.2836433604374231
 30
0.0
 11
5.3404895369952179
 21
2.2663950270353497
 31
0.0
  0
LINE
  5
1A2
100
AcDbEntity
100
AcDbLine
  8
0
 62
6
420
16711935
370
-1
 48
1.0
  6
BYLAYER
 10
5.3468593115697161
 20
2.2180117856139776
 30
0.0
 11
5.3513235087504505
 21
2.2013511749204731
 31
0.0
  0
LINE
  5
1A3
100
AcDbEntity
100
AcDbLine
  8
0
 62
6
420
16711935
370
-1
 48
1.0
  6
BYLAYER
 10
5.3699987428632419
 20
2.1562651714448773
 30
0.0
 11
5.3786229095642781
 21
2.1413276765457412
 31
0.0
  0
LINE
  5
1A4
100
AcDbEntity
100
AcDbLine
  8
0
 62
6
420
16711935
370
-1
 48
1.0
  6
BYLAYER
 10
5.4083309168728597
 20
2.1026114476446431
 30
0.0
 11
5.4205273303856316
 21
2.0904150341318744
 31
0.0
  0
LINE
  5
1A5
100
AcDbEntity
100
AcDbLine
  8
0
 62
6
420
16711935
370
-1
 48
1.0
  6
BYLAYER
 10
5.4592435592867297
 20
2.0607070268232905
 30
0.0
 11
5.4741810541858662
 21
2.0520828601222543
 31
0.0
  0
LINE
  5
1A6
100
AcDbEntity
100
AcDbLine
  8
0
 62
6
420
16711935
370
-1
 48
1.0
  6
BYLAYER
 10
5.5192670576614589
 20
2.033407626009462
 30
0.0
 11
5.5359276683549652
 21
2.0289434288287289
 31
0.0
  0
LINE
  5
1A7
100
AcDbEntity
100
AcDbLine
  8
0
 62
6
420
16711935
370
-1
 48
1.0
  6
BYLAYER
 10
5.5843109097763381
 20
2.0225736542542303
 30
0.0
 11
5.6015592431784107
 21
2.0225736542542312
 31
0.0
  0
LINE
  5
1A8
100
AcDbEntity
100
AcDbLine
  8
0
 62
6
420
16711935
370
-1
 48
1.0
  6
BYLAYER
 10
5.6499424845997837
 20
2.0289434288287294
 30
0.0
 11
5.66660309529329
 21
2.0334076260094638
 31
0.0
  0
LINE
  5
1A9
100
AcDbEntity
100
AcDbLine
  8
0
 62
6
420
16711935
370
-1
 48
1.0
  6
BYLAYER
 10
5.7116890987688826
 20
2.0520828601222543
 30
0.0
 11
5.7266265936680192
 21
2.0607070268232901
 31
0.0
  0
LINE
  5
1AA
100
AcDbEntity
100
AcDbLine
  8
0
 62
6
420
16711935
370
-1
 48
1.0
  6
BYLAYER
 10
5.7653428225691172
 20
2.0904150341318721
 30
0.0
 11
5.7775392360818891
 21
2.102611447644644
 31
0.0
  0
LINE
  5
1AB
100
AcDbEntity
100
AcDbLine
  8
0
 62
6
420
16711935
370
-1
 48
1.0
  6
BYLAYER
 10
5.8072472433904707
 20
2.1413276765457407
 30
0.0
 11
5.815871410091507
 21
2.1562651714448782
 31
0.0
  0
LINE
  5
1AC
100
AcDbEntity
100
AcDbLine
  8
0
 62
6
420
16711935
370
-1
 48
1.0
  6
BYLAYER
 10
5.8345466442042984
 20
2.2013511749204731
 30
0.0
 11
5.8390108413850328
 21
2.218011785613978
 31
0.0
  0
ARC
  5
1AD
100
AcDbEntity
  8
0
 62
6
420
16711935
370
-1
 48
1.0
  6
BYLAYER
100
AcDbCircle
 10
5.5929350764773709
 20
2.2750191937363904
 30
0.0
 40
0.0960000000000001
100
AcDbArc
 50
126.8698976458433236
 51
53.1301023541566622
  0
LINE
  5
1AE
100
AcDbEntity
100
AcDbLine
  8
0
 62
6
420
16711935
370
-1
 48
1.0
  6
BYLAYER
 10
5.7907070547461466
 20
2.3551031200376635
 30
0.0
 11
5.7894088707915792
 21
2.3582372133472411
 31
0.0
  0
LINE
  5
1AF
100
AcDbEntity
100
AcDbLine
  8
0
 62
6
420
16711935
370
-1
 48
1.0
  6
BYLAYER
 10
5.7632408926701082
 20
2.403561480984981
 30
0.0
 11
5.7611757802234642
 21
2.4062527879232145
 31
0.0
  0
LINE
  5
1B0
100
AcDbEntity
100
AcDbLine
  8
0
 62
6
420
16711935
370
-1
 48
1.0
  6
BYLAYER
 10
5.7241686706641985
 20
2.4432598974824811
 30
0.0
 11
5.7214773637259633
 21
2.4453250099291219
 31
0.0
  0
LINE
  5
1B1
100
AcDbEntity
100
AcDbLine
  8
0
 62
6
420
16711935
370
-1
 48
1.0
  6
BYLAYER
 10
5.6761530960882247
 20
2.4714929880505951
 30
0.0
 11
5.6730190027786485
 21
2.4727911720051647
 31
0.0
  0
LINE
  5
1B2
100
AcDbEntity
100
AcDbLine
  8
0
 62
6
420
16711935
370
-1
 48
1.0
  6
BYLAYER
 10
5.6224663510000532
 20
2.4863367142244917
 30
0.0
 11
5.6191030545988419
 21
2.4867795005958357
 31
0.0
  0
LINE
  5
1B3
100
AcDbEntity
100
AcDbLine
  8
0
 62
6
420
16711935
370
-1
 48
1.0
  6
BYLAYER
 10
5.5667670983558999
 20
2.4867795005958384
 30
0.0
 11
5.5634038019546885
 21
2.4863367142244908
 31
0.0
  0
LINE
  5
1B4
100
AcDbEntity
100
AcDbLine
  8
0
 62
6
420
16711935
370
-1
 48
1.0
  6
BYLAYER
 10
5.5128511501760933
 20
2.4727911720051643
 30
0.0
 11
5.509717056866517
 21
2.4714929880505956
 31
0.0
  0
LINE
  5
1B5
100
AcDbEntity
100
AcDbLine
  8
0
 62
6
420
16711935
370
-1
 48
1.0
  6
BYLAYER
 10
5.4643927892287785
 20
2.4453250099291224
 30
0.0
 11
5.4617014822905467
 21
2.443259897482482
 31
0.0
  0
LINE
  5
1B6
100
AcDbEntity
100
AcDbLine
  8
0
 62
6
420
16711935
370
-1
 48
1.0
  6
BYLAYER
 10
5.4246943727312775
 20
2.4062527879232145
 30
0.0
 11
5.4226292602846335
 21
2.4035614809849828
 31
0.0
  0
LINE
  5
1B7
100
AcDbEntity
100
AcDbLine
  8
0
 62
6
420
16711935
370
-1
 48
1.0
  6
BYLAYER
 10
5.3964612821631626
 20
2.3582372133472416
 30
0.0
 11
5.3951630982085952
 21
2.3551031200376635
 31
0.0
  0
LINE
  5
1B8
100
AcDbEntity
100
AcDbLine
  8
0
 62
6
420
16711935
370
-1
 48
1.0
  6
BYLAYER
 10
5.3816175559892692
 20
2.3045504682590701
 30
0.0
 11
5.3811747696179211
 21
2.3011871718578614
 31
0.0
  0
LINE
  5
1B9
100
AcDbEntity
100
AcDbLine
  8
0
 62
6
420
16711935
370
-1
 48
1.0
  6
BYLAYER
 10
5.3811747696179211
 20
2.2488512156149123
 30
0.0
 11
5.3816175559892692
 21
2.2454879192137049
 31
0.0
  0
LINE
  5
1BA
100
AcDbEntity
100
AcDbLine
  8
0
 62
6
420
16711935
370
-1
 48
1.0
  6
BYLAYER
 10
5.3951630982085952
 20
2.1949352674351115
 30
0.0
 11
5.3964612821631626
 21
2.1918011741255334
 31
0.0
  0
LINE
  5
1BB
100
AcDbEntity
100
AcDbLine
  8
0
 62
6
420
16711935
370
-1
 48
1.0
  6
BYLAYER
 10
5.4226292602846335
 20
2.1464769064877935
 30
0.0
 11
5.4246943727312775
 21
2.1437855995495601
 31
0.0
  0
LINE
  5
1BC
100
AcDbEntity
100
AcDbLine
  8
0
 62
6
420
16711935
370
-1
 48
1.0
  6
BYLAYER
 10
5.4617014822905432
 20
2.1067784899902926
 30
0.0
 11
5.4643927892287749
 21
2.1047133775436513
 31
0.0
  0
LINE
  5
1BD
100
AcDbEntity
100
AcDbLine
  8
0
 62
6
420
16711935
370
-1
 48
1.0
  6
BYLAYER
 10
5.509717056866517
 20
2.0785453994221794
 30
0.0
 11
5.5128511501760933
 21
2.0772472154676103
 31
0.0
  0
LINE
  5
1BE
100
AcDbEntity
100
AcDbLine
  8
0
 62
6
420
16711935
370
-1
 48
1.0
  6
BYLAYER
 10
5.5634038019546885
 20
2.0637016732482842
 30
0.0
 11
5.5667670983558999
 21
2.0632588868769375
 31
0.0
  0
LINE
  5
1BF
100
AcDbEntity
100
AcDbLine
  8
0
 62
6
420
16711935
370
-1
 48
1.0
  6
BYLAYER
 10
5.6191030545988419
 20
2.0632588868769379
 30
0.0
 11
5.6224663510000532
 21
2.0637016732482834
 31
0.0
  0
LINE
  5
1C0
100
AcDbEntity
100
AcDbLine
  8
0
 62
6
420
16711935
370
-1
 48
1.0
  6
BYLAYER
 10
5.6730190027786485
 20
2.077247215467608
 30
0.0
 11
5.6761530960882247
 21
2.0785453994221799
 31
0.0
  0
LINE
  5
1C1
100
AcDbEntity
100
AcDbLine
  8
0
 62
6
420
16711935
370
-1
 48
1.0
  6
BYLAYER
 10
5.7214773637259633
 20
2.1047133775436504
 30
0.0
 11
5.724168670664195
 21
2.1067784899902917
 31
0.0
  0
LINE
  5
1C2
100
AcDbEntity
100
AcDbLine
  8
0
 62
6
420
16711935
370
-1
 48
1.0
  6
BYLAYER
 10
5.7611757802234642
 20
2.1437855995495592
 30
0.0
 11
5.7632408926701082
 21
2.1464769064877927
 31
0.0
  0
LINE
  5
1C3
100
AcDbEntity
100
AcDbLine
  8
0
 62
6
420
16711935
370
-1
 48
1.0
  6
BYLAYER
 10
5.7894088707915792
 20
2.1918011741255321
 30
0.0
 11
5.7907070547461466
 21
2.1949352674351101
 31
0.0
  0
LINE
  5
1C4
100
AcDbEntity
100
AcDbLine
  8
0
 62
6
420
16711935
370
-1
 48
1.0
  6
BYLAYER
 10
5.8042525969654726
 20
2.2454879192137036
 30
0.0
 11
5.8046953833368207
 21
2.2488512156149141
 31
0.0
  0
LINE
  5
1C5
100
AcDbEntity
100
AcDbLine
  8
0
 62
6
420
16711935
370
-1
 48
1.0
  6
BYLAYER
 10
5.8046953833368207
 20
2.3011871718578578
 30
0.0
 11
5.8042525969654726
 21
2.3045504682590692
 31
0.0
  0
CIRCLE
  5
1C6
100
AcDbEntity
100
AcDbCircle
  8
0
 62
3
420
65280
370
-1
 48
1.0
  6
BYLAYER
 10
6.1974444745600827
 20
1.6705575827124708
 30
0.0
 40
0.0538784999999979
  0
CIRCLE
  5
1C7
100
AcDbEntity
100
AcDbCircle
  8
0
 62
3
420
65280
370
-1
 48
1.0
  6
BYLAYER
 10
6.1974444745600827
 20
2.8795575827124638
 30
0.0
 40
0.0538784999999962
  0
CIRCLE
  5
1C8
100
AcDbEntity
100
AcDbCircle
  8
0
 62
3
420
65280
370
-1
 48
1.0
  6
BYLAYER
 10
5.1714940474968856
 20
0.9409137343593907
 30
0.0
 40
0.0538784999999962
  0
CIRCLE
  5
1C9
100
AcDbEntity
100
AcDbCircle
  8
0
 62
3
420
65280
370
-1
 48
1.0
  6
BYLAYER
 10
5.1714940474968856
 20
3.6091246482819055
 30
0.0
 40
0.0538784999999962
  0
CIRCLE
  5
1CA
100
AcDbEntity
100
AcDbCircle
  8
0
 62
3
420
65280
370
-1
 48
1.0
  6
BYLAYER
 10
2.7862827325340924
 20
3.1250575764449322
 30
0.0
 40
0.0538784999999962
  0
CIRCLE
  5
1CB
100
AcDbEntity
100
AcDbCircle
  8
0
 62
3
420
65280
370
-1
 48
1.0
  6
BYLAYER
 10
2.7862827325340929
 20
1.4249808085448832
 30
0.0
 40
0.0538784999999962
  0
CIRCLE
  5
1CC
100
AcDbEntity
100
AcDbCircle
  8
0
 62
3
420
65280
370
-1
 48
1.0
  6
BYLAYER
 10
2.7862827325340924
 20
3.1250575764449322
 30
0.0
 40
0.0538784999999962
  0
CIRCLE
  5
1CD
100
AcDbEntity
100
AcDbCircle
  8
0
 62
3
420
65280
370
-1
 48
1.0
  6
BYLAYER
 10
4.9884444745600796
 20
1.6705575827124739
 30
0.0
 40
0.0538784999999962
  0
CIRCLE
  5
1CE
100
AcDbEntity
100
AcDbCircle
  8
0
 62
3
420
65280
370
-1
 48
1.0
  6
BYLAYER
 10
4.9884444745600796
 20
2.8795575827124624
 30
0.0
 40
0.0538784999999962
  0
LINE
  5
1CF
100
AcDbEntity
100
AcDbLine
  8
0
 62
6
420
16711935
370
-1
 48
1.0
  6
BYLAYER
 10
5.6505350764773716
 20
2.3518191937363886
 30
0.0
 11
5.5353350764773701
 21
2.3518191937363873
 31
0.0
  0
CIRCLE
  5
1D0
100
AcDbEntity
100
AcDbCircle
  8
0
 62
3
420
65280
370
-1
 48
1.0
  6
BYLAYER
 10
5.5929444745600811
 20
2.2750575827126003
 30
0.0
 40
0.438763036903433
  0
LINE
  5
1D1
100
AcDbEntity
100
AcDbLine
  8
0
 62
7
420
0
370
-1
 48
1.0
  6
BYLAYER
 10
2.1095788778868312
 20
2.2211406936691542
 30
0.0
 11
2.4159993615764876
 21
2.2211406913206559
 31
0.0
  0
LINE
  5
1D2
100
AcDbEntity
100
AcDbLine
  8
0
 62
14
420
8388608
370
-1
 48
1.0
  6
BYLAYER
 10
7.861131615322428
 20
7.9461876158479914
 30
0.0
 11
7.6994961129066901
 21
7.9461876181964932
 31
0.0
  0
LINE
  5
1D3
100
AcDbEntity
100
AcDbLine
  8
0
 62
14
420
8388608
370
-1
 48
1.0
  6
BYLAYER
 10
6.2991967871786336
 20
7.9461876158479914
 30
0.0
 11
6.4608322895943715
 21
7.9461876181964932
 31
0.0
  0
LINE
  5
1D4
100
AcDbEntity
100
AcDbLine
  8
0
 62
7
420
0
370
-1
 48
1.0
  6
BYLAYER
 10
2.4159993615764876
 20
2.3288976913206576
 30
0.0
 11
2.109578877752361
 21
2.3288976936691581
 31
0.0
  0
LINE
  5
1D5
100
AcDbEntity
100
AcDbLine
  8
0
 62
14
420
8388608
370
-1
 48
1.0
  6
BYLAYER
 10
8.0061316153224276
 20
7.8768161134994923
 30
0.0
 11
8.0061316153224276
 21
8.1233161134994898
 31
0.0
  0
LINE
  5
1D6
100
AcDbEntity
100
AcDbLine
  8
0
 62
14
420
8388608
370
-1
 48
1.0
  6
BYLAYER
 10
6.1541967871786341
 20
7.8768161134994923
 30
0.0
 11
6.1541967871786341
 21
8.1233161134994898
 31
0.0
  0
LINE
  5
1D7
100
AcDbEntity
100
AcDbLine
  8
0
 62
14
420
8388608
370
-1
 48
1.0
  6
BYLAYER
 10
8.3944578815667121
 20
7.4000661158479932
 30
0.0
 11
8.3944578815667121
 21
7.4000661158479932
 31
0.0
  0
LINE
  5
1D8
100
AcDbEntity
100
AcDbLine
  8
0
 62
14
420
8388608
370
-1
 48
1.0
  6
BYLAYER
 10
7.861131615322428
 20
8.0539446158479926
 30
0.0
 11
7.6994961130411603
 21
8.0539446158479944
 31
0.0
  0
LINE
  5
1D9
100
AcDbEntity
100
AcDbLine
  8
0
 62
14
420
8388608
370
-1
 48
1.0
  6
BYLAYER
 10
6.2991967871786336
 20
8.0539446158479926
 30
0.0
 11
6.4608322894599013
 21
8.0539446158479926
 31
0.0
  0
LINE
  5
1DA
100
AcDbEntity
100
AcDbLine
  8
0
 62
7
420
0
370
-1
 48
1.0
  6
BYLAYER
 10
2.8994244611791875
 20
2.2211406889721559
 30
0.0
 11
2.899424461179184
 21
2.1517691936691583
 31
0.0
  0
LINE
  5
1DB
100
AcDbEntity
100
AcDbLine
  8
0
 62
7
420
0
370
-1
 48
1.0
  6
BYLAYER
 10
2.899424461179184
 20
2.3288976951130906
 30
0.0
 11
2.899424461179184
 21
2.3982691936691563
 31
0.0
  0
LINE
  5
1DC
100
AcDbEntity
100
AcDbLine
  8
0
 62
256
370
-1
 48
1.0
  6
BYLAYER
 10
0.6278999861657617
 20
4.0908753505438504
 30
0.0
 11
0.627899986165747
 21
7.359086264466363
 31
0.0
  0
LINE
  5
1DD
100
AcDbEntity
100
AcDbLine
  8
0
 62
256
370
-1
 48
1.0
  6
BYLAYER
 10
0.6278999861657754
 20
0.6409137355336467
 30
0.0
 11
0.6278999861657616
 21
3.9091246494561593
 31
0.0
  0
LINE
  5
1DE
100
AcDbEntity
100
AcDbLine
  8
0
 62
256
370
-1
 48
1.0
  6
BYLAYER
 10
7.3721000138342312
 20
0.6409137367751363
 30
0.0
 11
7.3721000138342454
 21
3.9091246506976631
 31
0.0
  0
LINE
  5
1DF
100
AcDbEntity
100
AcDbLine
  8
0
 62
256
370
-1
 48
1.0
  6
BYLAYER
 10
5.6044425583565314
 20
9.634171572809251
 30
0.0
 11
5.6044425583565154
 21
6.3659606588867383
 31
0.0
  0
CIRCLE
  5
1E0
100
AcDbEntity
100
AcDbCircle
  8
0
 62
14
420
8388608
370
-1
 48
1.0
  6
BYLAYER
 10
10.0000019860745688
 20
8.0000340632645539
 30
0.0
 40
1.3452362767903547
  0
LINE
  5
1E1
100
AcDbEntity
100
AcDbLine
  8
0
 62
14
420
8388608
370
-1
 48
1.0
  6
BYLAYER
 10
8.3944578815667121
 20
7.876816120544996
 30
0.0
 11
8.3944578815667121
 21
8.1233161158479916
 31
0.0
  0
LINE
  5
1E2
100
AcDbEntity
100
AcDbLine
  8
0
 62
14
420
8388608
370
-1
 48
1.0
  6
BYLAYER
 10
5.7658705209343548
 20
7.876816120544996
 30
0.0
 11
5.765870520934353
 21
8.1233161158479916
 31
0.0
  0
LINE
  5
1E3
100
AcDbEntity
100
AcDbLine
  8
0
 62
256
370
-1
 48
1.0
  6
BYLAYER
 10
11.634114855089102
 20
6.3659606588867392
 30
0.0
 11
14.3955574416434686
 21
6.3659606588867383
 31
0.0
  0
LINE
  5
1E4
100
AcDbEntity
100
AcDbLine
  8
0
 62
256
370
-1
 48
1.0
  6
BYLAYER
 10
0.6278999861657617
 20
4.0908753505438504
 30
0.0
 11
3.48771270821954
 21
4.0908753505438451
 31
0.0
  0
LINE
  5
1E5
100
AcDbEntity
100
AcDbLine
  8
0
 62
256
370
-1
 48
1.0
  6
BYLAYER
 10
0.6278999861657617
 20
0.6409137355336476
 30
0.0
 11
3.48771270821954
 21
0.6409137355336467
 31
0.0
  0
LINE
  5
1E6
100
AcDbEntity
100
AcDbLine
  8
0
 62
256
370
-1
 48
1.0
  6
BYLAYER
 10
4.5122872917804564
 20
0.6409137367751345
 30
0.0
 11
7.3721000138342347
 21
0.6409137367751345
 31
0.0
  0
LINE
  5
1E7
100
AcDbEntity
100
AcDbLine
  8
0
 62
256
370
-1
 48
1.0
  6
BYLAYER
 10
8.3659039411665912
 20
6.3659606588867375
 30
0.0
 11
5.6044425583565154
 21
6.3659606588867383
 31
0.0
  0
LINE
  5
1E8
100
AcDbEntity
100
AcDbLine
  8
0
 62
256
370
-1
 48
1.0
  6
BYLAYER
 10
8.365894543038749
 20
9.634171572809251
 30
0.0
 11
5.6044425583565314
 21
9.634171572809251
 31
0.0
  0
LINE
  5
1E9
100
AcDbEntity
100
AcDbLine
  8
0
 62
256
370
-1
 48
1.0
  6
BYLAYER
 10
0.6278999861657617
 20
7.3590862644663559
 30
0.0
 11
3.4877127082195543
 21
7.3590862644663577
 31
0.0
  0
LINE
  5
1EA
100
AcDbEntity
100
AcDbLine
  8
0
 62
256
370
-1
 48
1.0
  6
BYLAYER
 10
0.6278999861657617
 20
3.909124649456174
 30
0.0
 11
3.4877127082195543
 21
3.9091246494561593
 31
0.0
  0
LINE
  5
1EB
100
AcDbEntity
100
AcDbLine
  8
0
 62
256
370
-1
 48
1.0
  6
BYLAYER
 10
4.5122872917804564
 20
3.9091246506976471
 30
0.0
 11
7.372100013834249
 21
3.9091246506976631
 31
0.0
  0
LINE
  5
1EC
100
AcDbEntity
100
AcDbLine
  8
0
 62
7
420
0
370
-1
 48
1.0
  6
BYLAYER
 10
3.4877127082195361
 20
5.6017308063308446
 30
0.0
 11
3.0212485440792345
 21
5.6017308039823437
 31
0.0
  0
LINE
  5
1ED
100
AcDbEntity
100
AcDbLine
  8
0
 62
7
420
0
370
-1
 48
1.0
  6
BYLAYER
 10
14.3955574416434651
 20
7.8768161146737352
 30
0.0
 11
13.9290932775031635
 21
7.8768161123252352
 31
0.0
  0
LINE
  5
1EE
100
AcDbEntity
100
AcDbLine
  8
0
 62
3
420
65280
370
-1
 48
1.0
  6
BYLAYER
 10
6.849668752944261
 20
1.3711023074714785
 30
0.0
 11
6.6190006485100881
 21
1.3711023074042425
 31
0.0
  0
LINE
  5
1EF
100
AcDbEntity
100
AcDbLine
  8
0
 62
3
420
65280
370
-1
 48
1.0
  6
BYLAYER
 10
6.849668752944261
 20
3.0711790753715271
 30
0.0
 11
6.6190006485100881
 21
3.0711790753042911
 31
0.0
  0
LINE
  5
1F0
100
AcDbEntity
100
AcDbLine
  8
0
 62
3
420
65280
370
-1
 48
1.0
  6
BYLAYER
 10
3.5346099500897106
 20
0.7211406912534224
 30
0.0
 11
3.3039418456555372
 21
0.7211406911861864
 31
0.0
  0
LINE
  5
1F1
100
AcDbEntity
100
AcDbLine
  8
0
 62
3
420
65280
370
-1
 48
1.0
  6
BYLAYER
 10
3.5346099500897115
 20
3.7211406912534164
 30
0.0
 11
3.3039418456555376
 21
3.7211406911861822
 31
0.0
  0
LINE
  5
1F2
100
AcDbEntity
100
AcDbLine
  8
0
 62
3
420
65280
370
-1
 48
1.0
  6
BYLAYER
 10
3.023419043993687
 20
4.8210639235550694
 30
0.0
 11
2.792750939559514
 21
4.8210639234878325
 31
0.0
  0
LINE
  5
1F3
100
AcDbEntity
100
AcDbLine
  8
0
 62
3
420
65280
370
-1
 48
1.0
  6
BYLAYER
 10
3.023419043993687
 20
6.521140691455118
 30
0.0
 11
2.792750939559514
 21
6.521140691387882
 31
0.0
  0
LINE
  5
1F4
100
AcDbEntity
100
AcDbLine
  8
0
 62
3
420
65280
370
-1
 48
1.0
  6
BYLAYER
 10
1.0627135881842542
 20
2.2211738058512447
 30
0.0
 11
0.8320454837500811
 21
2.2211738057840087
 31
0.0
  0
LINE
  5
1F5
100
AcDbEntity
100
AcDbLine
  8
0
 62
3
420
65280
370
-1
 48
1.0
  6
BYLAYER
 10
1.0627325301113721
 20
3.7225772394776699
 30
0.0
 11
0.8320644256771991
 21
3.7225772394104339
 31
0.0
  0
LINE
  5
1F6
100
AcDbEntity
100
AcDbLine
  8
0
 62
3
420
65280
370
-1
 48
1.0
  6
BYLAYER
 10
1.0627496500421918
 20
0.7231226652379987
 30
0.0
 11
0.8320815456080178
 21
0.7231226651707623
 31
0.0
  0
LINE
  5
1F7
100
AcDbEntity
100
AcDbLine
  8
0
 62
14
420
8388608
370
-1
 48
1.0
  6
BYLAYER
 10
13.931263777417616
 20
7.0961492318979591
 30
0.0
 11
13.7005956729834431
 21
7.096149231830724
 31
0.0
  0
LINE
  5
1F8
100
AcDbEntity
100
AcDbLine
  8
0
 62
14
420
8388608
370
-1
 48
1.0
  6
BYLAYER
 10
13.931263777417616
 20
8.7962259997980095
 30
0.0
 11
13.7005956729834431
 21
8.7962259997307726
 31
0.0
  0
LINE
  5
1F9
100
AcDbEntity
100
AcDbLine
  8
0
 62
3
420
65280
370
-1
 48
1.0
  6
BYLAYER
 10
6.6190006486445583
 20
1.4788593074042451
 30
0.0
 11
6.8496687482472574
 21
1.4788593074714795
 31
0.0
  0
LINE
  5
1FA
100
AcDbEntity
100
AcDbLine
  8
0
 62
3
420
65280
370
-1
 48
1.0
  6
BYLAYER
 10
6.6190006486445583
 20
3.1789360753042923
 30
0.0
 11
6.8496687482472574
 21
3.1789360753715274
 31
0.0
  0
LINE
  5
1FB
100
AcDbEntity
100
AcDbLine
  8
0
 62
3
420
65280
370
-1
 48
1.0
  6
BYLAYER
 10
3.3039418457900083
 20
0.8288976911861878
 30
0.0
 11
3.5346099453927073
 21
0.8288976912534241
 31
0.0
  0
LINE
  5
1FC
100
AcDbEntity
100
AcDbLine
  8
0
 62
3
420
65280
370
-1
 48
1.0
  6
BYLAYER
 10
3.3039418457900083
 20
3.8288976911861861
 30
0.0
 11
3.5346099453927073
 21
3.8288976912534229
 31
0.0
  0
LINE
  5
1FD
100
AcDbEntity
100
AcDbLine
  8
0
 62
3
420
65280
370
-1
 48
1.0
  6
BYLAYER
 10
2.7927509396939842
 20
4.9288209234878346
 30
0.0
 11
3.0234190392966833
 21
4.9288209235550706
 31
0.0
  0
LINE
  5
1FE
100
AcDbEntity
100
AcDbLine
  8
0
 62
3
420
65280
370
-1
 48
1.0
  6
BYLAYER
 10
2.7927509396939842
 20
6.6288976913878832
 30
0.0
 11
3.0234190392966833
 21
6.6288976914551192
 31
0.0
  0
LINE
  5
1FF
100
AcDbEntity
100
AcDbLine
  8
0
 62
3
420
65280
370
-1
 48
1.0
  6
BYLAYER
 10
0.8320454838845514
 20
2.3289308057840099
 30
0.0
 11
1.0627135834872505
 21
2.3289308058512459
 31
0.0
  0
LINE
  5
200
100
AcDbEntity
100
AcDbLine
  8
0
 62
3
420
65280
370
-1
 48
1.0
  6
BYLAYER
 10
0.8320644258116693
 20
3.8303342394104352
 30
0.0
 11
1.0627325254143685
 21
3.8303342394776716
 31
0.0
  0
LINE
  5
201
100
AcDbEntity
100
AcDbLine
  8
0
 62
3
420
65280
370
-1
 48
1.0
  6
BYLAYER
 10
0.8320815457424885
 20
0.8308796651707639
 30
0.0
 11
1.0627496453451881
 21
0.8308796652379995
 31
0.0
  0
LINE
  5
202
100
AcDbEntity
100
AcDbLine
  8
0
 62
14
420
8388608
370
-1
 48
1.0
  6
BYLAYER
 10
13.7005956731179133
 20
7.2039062318307252
 30
0.0
 11
13.9312637727206123
 21
7.2039062318979621
 31
0.0
  0
LINE
  5
203
100
AcDbEntity
100
AcDbLine
  8
0
 62
14
420
8388608
370
-1
 48
1.0
  6
BYLAYER
 10
13.7005956731179133
 20
8.9039829997307738
 30
0.0
 11
13.9312637727206123
 21
8.9039829997980089
 31
0.0
  0
LINE
  5
204
100
AcDbEntity
100
AcDbLine
  8
0
 62
7
420
0
370
-1
 48
1.0
  6
BYLAYER
 10
4.5122872917804564
 20
0.6409137367751345
 30
0.0
 11
4.5122872917804564
 21
3.9091246506976471
 31
0.0
  0
LINE
  5
205
100
AcDbEntity
100
AcDbLine
  8
0
 62
7
420
0
370
-1
 48
1.0
  6
BYLAYER
 10
3.073744584290504
 20
2.1517691913206582
 30
0.0
 11
3.2337882646066824
 21
2.1517691913206582
 31
0.0
  0
LINE
  5
206
100
AcDbEntity
100
AcDbLine
  8
0
 62
7
420
0
370
-1
 48
1.0
  6
BYLAYER
 10
3.073744584290504
 20
2.3982691866236547
 30
0.0
 11
3.2337882646066824
 21
2.3982691866236534
 31
0.0
  0
LINE
  5
207
100
AcDbEntity
100
AcDbLine
  8
0
 62
7
420
0
370
-1
 48
1.0
  6
BYLAYER
 10
3.073744584290504
 20
2.3288976889721558
 30
0.0
 11
2.899424461179184
 21
2.3288976910599146
 31
0.0
  0
LINE
  5
208
100
AcDbEntity
100
AcDbLine
  8
0
 62
7
420
0
370
-1
 48
1.0
  6
BYLAYER
 10
3.073744584290504
 20
2.2211406889721546
 30
0.0
 11
2.8994244611791875
 21
2.2211406889721546
 31
0.0
  0
LINE
  5
209
100
AcDbEntity
100
AcDbLine
  8
0
 62
7
420
0
370
-1
 48
1.0
  6
BYLAYER
 10
3.0212485440792345
 20
5.6017308039823437
 30
0.0
 11
3.0212485440792309
 21
5.8482307992853402
 31
0.0
  0
LINE
  5
20A
100
AcDbEntity
100
AcDbLine
  8
0
 62
7
420
0
370
-1
 48
1.0
  6
BYLAYER
 10
13.9290932775031635
 20
7.8768161123252352
 30
0.0
 11
13.92909327750316
 21
8.1233161076282308
 31
0.0
  0
LINE
  5
20B
100
AcDbEntity
100
AcDbLine
  8
0
 62
3
420
65280
370
-1
 48
1.0
  6
BYLAYER
 10
2.8149238051893408
 20
5.6017308086793456
 30
0.0
 11
2.8149238051893408
 21
5.848230808679344
 31
0.0
  0
LINE
  5
20C
100
AcDbEntity
100
AcDbLine
  8
0
 62
14
420
8388608
370
-1
 48
1.0
  6
BYLAYER
 10
13.7227685386132698
 20
7.8768161170222353
 30
0.0
 11
13.7227685386132698
 21
8.1233161170222346
 31
0.0
  0
LINE
  5
20D
100
AcDbEntity
100
AcDbLine
  8
0
 62
3
420
65280
370
-1
 48
1.0
  6
BYLAYER
 10
2.6699238051893412
 20
5.8482308086793431
 30
0.0
 11
2.6699238051893412
 21
5.6017308086793456
 31
0.0
  0
LINE
  5
20E
100
AcDbEntity
100
AcDbLine
  8
0
 62
14
420
8388608
370
-1
 48
1.0
  6
BYLAYER
 10
13.5777685386132703
 20
8.1233161170222328
 30
0.0
 11
13.5777685386132703
 21
7.8768161170222353
 31
0.0
  0
LINE
  5
20F
100
AcDbEntity
100
AcDbLine
  8
0
 62
7
420
0
370
-1
 48
1.0
  6
BYLAYER
 10
3.2337882646066829
 20
0.9249808062636165
 30
0.0
 11
3.2337882646066824
 21
2.1517691913206582
 31
0.0
  0
LINE
  5
210
100
AcDbEntity
100
AcDbLine
  8
0
 62
7
420
0
370
-1
 48
1.0
  6
BYLAYER
 10
3.2337882646066824
 20
2.3982691866236534
 30
0.0
 11
3.2337882646066824
 21
3.6250575716806961
 31
0.0
  0
LINE
  5
211
100
AcDbEntity
100
AcDbLine
  8
0
 62
256
370
-1
 48
1.0
  6
BYLAYER
 10
2.4159993615764876
 20
2.3982691889721544
 30
0.0
 11
2.899424461179184
 21
2.3982691936691563
 31
0.0
  0
LINE
  5
212
100
AcDbEntity
100
AcDbLine
  8
0
 62
256
370
-1
 48
1.0
  6
BYLAYER
 10
2.4159993615764876
 20
2.1517691936691592
 30
0.0
 11
2.899424461179184
 21
2.1517691936691583
 31
0.0
  0
LINE
  5
213
100
AcDbEntity
100
AcDbLine
  8
0
 62
256
370
-1
 48
1.0
  6
BYLAYER
 10
7.1385346657427249
 20
3.6342938969745329
 30
0.0
 11
7.1385346657427249
 21
3.6342938969745329
 31
0.0
  0
LINE
  5
214
100
AcDbEntity
100
AcDbLine
  8
0
 62
256
370
-1
 48
1.0
  6
BYLAYER
 10
7.1385346657427249
 20
0.9249808016338492
 30
0.0
 11
7.1385346657427249
 21
0.9249808016338492
 31
0.0
  0
LINE
  5
215
100
AcDbEntity
100
AcDbLine
  8
0
 62
256
370
-1
 48
1.0
  6
BYLAYER
 10
4.6709269086388474
 20
3.6342938969745338
 30
0.0
 11
4.6709269086388474
 21
3.6342938969745338
 31
0.0
  0
LINE
  5
216
100
AcDbEntity
100
AcDbLine
  8
0
 62
256
370
-1
 48
1.0
  6
BYLAYER
 10
4.6709269086388483
 20
0.9249808016338497
 30
0.0
 11
4.6709269086388483
 21
0.9249808016338497
 31
0.0
  0
LINE
  5
217
100
AcDbEntity
100
AcDbLine
  8
0
 62
256
370
-1
 48
1.0
  6
BYLAYER
 10
0.7865396030241525
 20
7.0842555107432457
 30
0.0
 11
0.7865396030241525
 21
7.0842555107432457
 31
0.0
  0
LINE
  5
218
100
AcDbEntity
100
AcDbLine
  8
0
 62
256
370
-1
 48
1.0
  6
BYLAYER
 10
0.786539603024153
 20
4.3749424154025602
 30
0.0
 11
0.786539603024153
 21
4.3749424154025602
 31
0.0
  0
LINE
  5
219
100
AcDbEntity
100
AcDbLine
  8
0
 62
256
370
-1
 48
1.0
  6
BYLAYER
 10
3.2337882646066829
 20
0.9249808062636165
 30
0.0
 11
3.4877127082195543
 21
0.9249808062636169
 31
0.0
  0
LINE
  5
21A
100
AcDbEntity
100
AcDbLine
  8
0
 62
256
370
-1
 48
1.0
  6
BYLAYER
 10
3.2337882646066824
 20
3.6250575716806961
 30
0.0
 11
3.4877127082195543
 21
3.6250575716806943
 31
0.0
  0
LINE
  5
21B
100
AcDbEntity
100
AcDbLine
  8
0
 62
256
370
-1
 48
1.0
  6
BYLAYER
 10
3.4877127082195361
 20
4.0908753505438451
 30
0.0
 11
3.4877127082195361
 21
5.6017308063308446
 31
0.0
  0
LINE
  5
21C
100
AcDbEntity
100
AcDbLine
  8
0
 62
256
370
-1
 48
1.0
  6
BYLAYER
 10
14.3955574416434651
 20
6.3659606588867366
 30
0.0
 11
14.3955574416434651
 21
7.8768161146737352
 31
0.0
  0
ARC
  5
21D
100
AcDbEntity
  8
0
 62
256
370
-1
 48
1.0
  6
BYLAYER
100
AcDbCircle
 10
3.4877127082195543
 20
0.7829472673758822
 30
0.0
 40
0.1420335388877345
100
AcDbArc
 50
270.0
 51
90.0
  0
ARC
  5
21E
100
AcDbEntity
  8
0
 62
256
370
-1
 48
1.0
  6
BYLAYER
100
AcDbCircle
 10
3.4877127082195543
 20
3.7670911105684248
 30
0.0
 40
0.1420335388877345
100
AcDbArc
 50
270.0
 51
90.0
  0
LINE
  5
21F
100
AcDbEntity
100
AcDbLine
  8
0
 62
256
370
-1
 48
1.0
  6
BYLAYER
 10
3.4877127082195361
 20
5.8482308016338393
 30
0.0
 11
3.4877127082195543
 21
7.3590862644663577
 31
0.0
  0
LINE
  5
220
100
AcDbEntity
100
AcDbLine
  8
0
 62
256
370
-1
 48
1.0
  6
BYLAYER
 10
14.3955574416434651
 20
8.123316109976729
 30
0.0
 11
14.3955574416434828
 21
9.6341715728092492
 31
0.0
  0
LINE
  5
221
100
AcDbEntity
100
AcDbLine
  8
0
 62
256
370
-1
 48
1.0
  6
BYLAYER
 10
3.0212485440792309
 20
5.8482307992853402
 30
0.0
 11
3.4877127082195361
 21
5.8482308016338393
 31
0.0
  0
LINE
  5
222
100
AcDbEntity
100
AcDbLine
  8
0
 62
256
370
-1
 48
1.0
  6
BYLAYER
 10
13.92909327750316
 20
8.1233161076282308
 30
0.0
 11
14.3955574416434651
 21
8.123316109976729
 31
0.0
  0
LINE
  5
223
100
AcDbEntity
100
AcDbLine
  8
0
 62
256
370
-1
 48
1.0
  6
BYLAYER
 10
11.6341054569612652
 20
9.634171572809251
 30
0.0
 11
14.3955574416434828
 21
9.6341715728092492
 31
0.0
  0
LINE
  5
224
100
AcDbEntity
100
AcDbLine
  8
0
 62
256
370
-1
 48
1.0
  6
BYLAYER
 10
10.0000019860745688
 20
6.3837582441532392
 30
0.0
 11
10.0000019860745688
 21
9.614473778726591
 31
0.0
  0
ENDSEC
  0
SECTION
  2
OBJECTS
  0
DICTIONARY
  5
C
100
AcDbDictionary
280
0
281
1
  3
ACAD_GROUP
350
D
  3
ACAD_LAYOUT
350
1A
  3
ACAD_MLINESTYLE
350
17
  3
ACAD_PLOTSETTINGS
350
19
  3
ACAD_PLOTSTYLENAME
350
E
  3
AcDbVariableDictionary
350
225
  3
QCAD_OBJECTS
350
226
  0
DICTIONARY
  5
D
100
AcDbDictionary
280
0
281
1
  0
ACDBDICTIONARYWDFLT
  5
E
100
AcDbDictionary
281
1
  3
Normal
350
F
100
AcDbDictionaryWithDefault
340
F
  0
ACDBPLACEHOLDER
  5
F
  0
DICTIONARY
  5
17
100
AcDbDictionary
280
0
281
1
  3
Standard
350
18
  0
MLINESTYLE
  5
18
100
AcDbMlineStyle
  2
STANDARD
 70
0
  3

 62
256
 51
90.0
 52
90.0
 71
2
 49
0.5
 62
256
  6
BYLAYER
 49
-0.5
 62
256
  6
BYLAYER
  0
DICTIONARY
  5
19
100
AcDbDictionary
280
0
281
1
  0
DICTIONARY
  5
1A
100
AcDbDictionary
281
1
  3
Layout1
350
1E
  3
Layout2
350
26
  3
Model
350
22
  0
LAYOUT
  5
1E
100
AcDbPlotSettings
  1

  2
none_device
  4

  6

 40
0.0
 41
0.0
 42
0.0
 43
0.0
 44
0.0
 45
0.0
 46
0.0
 47
0.0
 48
0.0
 49
0.0
140
0.0
141
0.0
142
1.0
143
1.0
 70
688
 72
0
 73
0
 74
5
  7

 75
16
147
1.0
148
0.0
149
0.0
100
AcDbLayout
  1
Layout1
 70
1
 71
1
 10
0.0
 20
0.0
 11
420.0
 21
297.0
 12
0.0
 22
0.0
 32
0.0
 14
100000000000000000000.0
 24
100000000000000000000.0
 34
100000000000000000000.0
 15
-100000000000000000000.0
 25
-100000000000000000000.0
 35
-100000000000000000000.0
146
0.0
 13
0.0
 23
0.0
 33
0.0
 16
1.0
 26
0.0
 36
0.0
 17
0.0
 27
1.0
 37
0.0
 76
0
330
1B
  0
LAYOUT
  5
22
100
AcDbPlotSettings
  1

  2
none_device
  4

  6

 40
0.0
 41
0.0
 42
0.0
 43
0.0
 44
0.0
 45
0.0
 46
0.0
 47
0.0
 48
0.0
 49
0.0
140
0.0
141
0.0
142
1.0
143
1.0
 70
1712
 72
0
 73
0
 74
0
  7

 75
0
147
1.0
148
0.0
149
0.0
100
AcDbLayout
  1
Model
 70
1
 71
0
 10
0.0
 20
0.0
 11
12.0
 21
9.0
 12
0.0
 22
0.0
 32
0.0
 14
0.0
 24
0.0
 34
0.0
 15
0.0
 25
0.0
 35
0.0
146
0.0
 13
0.0
 23
0.0
 33
0.0
 16
1.0
 26
0.0
 36
0.0
 17
0.0
 27
1.0
 37
0.0
 76
0
330
1F
  0
LAYOUT
  5
26
100
AcDbPlotSettings
  1

  2
none_device
  4

  6

 40
0.0
 41
0.0
 42
0.0
 43
0.0
 44
0.0
 45
0.0
 46
0.0
 47
0.0
 48
0.0
 49
0.0
140
0.0
141
0.0
142
1.0
143
1.0
 70
688
 72
0
 73
0
 74
5
  7

 75
16
147
1.0
148
0.0
149
0.0
100
AcDbLayout
  1
Layout2
 70
1
 71
2
 10
0.0
 20
0.0
 11
12.0
 21
9.0
 12
0.0
 22
0.0
 32
0.0
 14
0.0
 24
0.0
 34
0.0
 15
0.0
 25
0.0
 35
0.0
146
0.0
 13
0.0
 23
0.0
 33
0.0
 16
1.0
 26
0.0
 36
0.0
 17
0.0
 27
1.0
 37
0.0
 76
0
330
23
  0
DICTIONARY
  5
225
100
AcDbDictionary
281
1
  3
DIMASSOC
350
228
  3
HIDETEXT
350
227
  0
DICTIONARYVAR
  5
227
100
DictionaryVariables
280
0
  1
2
  0
DICTIONARYVAR
  5
228
100
DictionaryVariables
280
0
  1
1
  0
DICTIONARY
  5
226
100
AcDbDictionary
281
1
  3
ColorSettings/BackgroundColor
350
229
  3
ColorSettings/ColorMode
350
22A
  3
Grid/DisplayGrid00
350
22B
  3
Grid/DisplayGrid01
350
22C
  3
Grid/DisplayGrid02
350
22D
  3
Grid/DisplayGrid03
350
22E
  3
Grid/GridSpacingX00
350
22F
  3
Grid/GridSpacingX01
350
230
  3
Grid/GridSpacingX02
350
231
  3
Grid/GridSpacingX03
350
232
  3
Grid/GridSpacingY00
350
233
  3
Grid/GridSpacingY01
350
234
  3
Grid/GridSpacingY02
350
235
  3
Grid/GridSpacingY03
350
236
  3
Grid/IsometricGrid00
350
237
  3
Grid/IsometricGrid01
350
238
  3
Grid/IsometricGrid02
350
239
  3
Grid/IsometricGrid03
350
23A
  3
Grid/IsometricProjection00
350
23B
  3
Grid/IsometricProjection01
350
23C
  3
Grid/IsometricProjection02
350
23D
  3
Grid/IsometricProjection03
350
23E
  3
Grid/MetaGridSpacingX00
350
23F
  3
Grid/MetaGridSpacingX01
350
240
  3
Grid/MetaGridSpacingX02
350
241
  3
Grid/MetaGridSpacingX03
350
242
  3
Grid/MetaGridSpacingY00
350
243
  3
Grid/MetaGridSpacingY01
350
244
  3
Grid/MetaGridSpacingY02
350
245
  3
Grid/MetaGridSpacingY03
350
246
  3
MultiPageSettings/Columns
350
247
  3
MultiPageSettings/GlueMarginsBottom
350
248
  3
MultiPageSettings/GlueMarginsLeft
350
249
  3
MultiPageSettings/GlueMarginsRight
350
24A
  3
MultiPageSettings/GlueMarginsTop
350
24B
  3
MultiPageSettings/PrintCropMarks
350
24C
  3
MultiPageSettings/Rows
350
24D
  3
PageSettings/OffsetX
350
24E
  3
PageSettings/OffsetY
350
24F
  3
PageSettings/PageOrientation
350
250
  3
PageSettings/PaperHeight
350
251
  3
PageSettings/PaperWidth
350
252
  3
PageSettings/Scale
350
253
  3
PageSettings/ShowPaperBorders
350
254
  3
QCADVersion
350
255
  3
UnitSettings/PaperUnit
350
256
  0
XRECORD
  5
229
330
226
100
AcDbXrecord
280
1
1000
White
  0
XRECORD
  5
22A
330
226
100
AcDbXrecord
280
1
1000
FullColor
  0
XRECORD
  5
22B
330
226
100
AcDbXrecord
280
1
290
1
  0
XRECORD
  5
22C
330
226
100
AcDbXrecord
280
1
290
1
  0
XRECORD
  5
22D
330
226
100
AcDbXrecord
280
1
290
1
  0
XRECORD
  5
22E
330
226
100
AcDbXrecord
280
1
290
1
  0
XRECORD
  5
22F
330
226
100
AcDbXrecord
280
1
1000
auto
  0
XRECORD
  5
230
330
226
100
AcDbXrecord
280
1
1000
auto
  0
XRECORD
  5
231
330
226
100
AcDbXrecord
280
1
1000
auto
  0
XRECORD
  5
232
330
226
100
AcDbXrecord
280
1
1000
auto
  0
XRECORD
  5
233
330
226
100
AcDbXrecord
280
1
1000
auto
  0
XRECORD
  5
234
330
226
100
AcDbXrecord
280
1
1000
auto
  0
XRECORD
  5
235
330
226
100
AcDbXrecord
280
1
1000
auto
  0
XRECORD
  5
236
330
226
100
AcDbXrecord
280
1
1000
auto
  0
XRECORD
  5
237
330
226
100
AcDbXrecord
280
1
290
0
  0
XRECORD
  5
238
330
226
100
AcDbXrecord
280
1
290
0
  0
XRECORD
  5
239
330
226
100
AcDbXrecord
280
1
290
0
  0
XRECORD
  5
23A
330
226
100
AcDbXrecord
280
1
290
0
  0
XRECORD
  5
23B
330
226
100
AcDbXrecord
280
1
 90
0
  0
XRECORD
  5
23C
330
226
100
AcDbXrecord
280
1
 90
0
  0
XRECORD
  5
23D
330
226
100
AcDbXrecord
280
1
 90
0
  0
XRECORD
  5
23E
330
226
100
AcDbXrecord
280
1
 90
0
  0
XRECORD
  5
23F
330
226
100
AcDbXrecord
280
1
1000
auto
  0
XRECORD
  5
240
330
226
100
AcDbXrecord
280
1
1000
auto
  0
XRECORD
  5
241
330
226
100
AcDbXrecord
280
1
1000
auto
  0
XRECORD
  5
242
330
226
100
AcDbXrecord
280
1
1000
auto
  0
XRECORD
  5
243
330
226
100
AcDbXrecord
280
1
1000
auto
  0
XRECORD
  5
244
330
226
100
AcDbXrecord
280
1
1000
auto
  0
XRECORD
  5
245
330
226
100
AcDbXrecord
280
1
1000
auto
  0
XRECORD
  5
246
330
226
100
AcDbXrecord
280
1
1000
auto
  0
XRECORD
  5
247
330
226
100
AcDbXrecord
280
1
 90
1
  0
XRECORD
  5
248
330
226
100
AcDbXrecord
280
1
 40
0.5
  0
XRECORD
  5
249
330
226
100
AcDbXrecord
280
1
 40
0.5
  0
XRECORD
  5
24A
330
226
100
AcDbXrecord
280
1
 40
0.5
  0
XRECORD
  5
24B
330
226
100
AcDbXrecord
280
1
 40
0.5
  0
XRECORD
  5
24C
330
226
100
AcDbXrecord
280
1
290
0
  0
XRECORD
  5
24D
330
226
100
AcDbXrecord
280
1
 90
1
  0
XRECORD
  5
24E
330
226
100
AcDbXrecord
280
1
 40
0.0
  0
XRECORD
  5
24F
330
226
100
AcDbXrecord
280
1
 40
0.0
  0
XRECORD
  5
250
330
226
100
AcDbXrecord
280
1
1000
Portrait
  0
XRECORD
  5
251
330
226
100
AcDbXrecord
280
1
 40
11.6929133858268006
  0
XRECORD
  5
252
330
226
100
AcDbXrecord
280
1
 40
8.2677165354330704
  0
XRECORD
  5
253
330
226
100
AcDbXrecord
280
1
1000
1:1
  0
XRECORD
  5
254
330
226
100
AcDbXrecord
280
1
290
1
  0
XRECORD
  5
255
330
226
100
AcDbXrecord
280
1
1000
3.11.3
  0
XRECORD
  5
256
330
226
100
AcDbXrecord
280
1
 90
1
  0
ENDSEC
  0
EOF
