999
dxflib 3.7.5.0
  0
SECTION
  2
HEADER
  9
$ACADVER
  1
AC1015
  9
$HANDSEED
  5
FFFF
  9
$DIMADEC
 70
0
  9
$DIMASZ
 40
0.18
  9
$DIMAUNIT
 70
0
  9
$DIMAZIN
 70
0
  9
$DIMDEC
 70
4
  9
$DIMEXE
 40
0.18
  9
$DIMEXO
 40
0.0625
  9
$DIMGAP
 40
0.09
  9
$DIMLUNIT
 70
2
  9
$DIMSCALE
 40
1.0
  9
$DIMTSZ
 40
0.0
  9
$DIMTXT
 40
0.18
  9
$DIMZIN
 70
0
  9
$DWGCODEPAGE
  3
ANSI_1252
  9
$INSUNITS
 70
1
  9
$LTSCALE
 40
1.0
  9
$MEASUREMENT
 70
0
  9
$PDMODE
 70
2
  9
$PDSIZE
 40
0
  0
ENDSEC
  0
SECTION
  2
TABLES
  0
TABLE
  2
VPORT
  5
8
100
AcDbSymbolTable
 70
1
  0
VPORT
  5
30
100
AcDbSymbolTableRecord
100
AcDbViewportTableRecord
  2
*Active
 70
0
 10
0.0
 20
0.0
 11
1.0
 21
1.0
 12
286.3055555555554861
 22
148.5
 13
0.0
 23
0.0
 14
10.0
 24
10.0
 15
10.0
 25
10.0
 16
0.0
 26
0.0
 36
1.0
 17
0.0
 27
0.0
 37
0.0
 40
297.0
 41
1.92798353909465
 42
50.0
 43
0.0
 44
0.0
 50
0.0
 51
0.0
 71
0
 72
100
 73
1
 74
3
 75
1
 76
1
 77
0
 78
0
281
0
 65
1
110
0.0
120
0.0
130
0.0
111
1.0
121
0.0
131
0.0
112
0.0
122
1.0
132
0.0
 79
0
146
0.0
  0
ENDTAB
  0
TABLE
  2
LTYPE
  5
5
100
AcDbSymbolTable
 70
41
  0
LTYPE
  5
16
100
AcDbSymbolTableRecord
100
AcDbLinetypeTableRecord
  2
Continuous
 70
0
  3
Solid line
 72
65
 73
0
 40
0.0
  0
LTYPE
  5
31
100
AcDbSymbolTableRecord
100
AcDbLinetypeTableRecord
  2
ACAD_ISO15W100
 70
0
  3
ISO double-dash triple-dot __ __ . . . __ __ . .
 72
65
 73
10
 40
39.0000000000000071
 49
12.0
 74
0
 49
-3.0
 74
0
 49
12.0
 74
0
 49
-2.9500000000000002
 74
0
 49
0.1
 74
0
 49
-2.9000000000000004
 74
0
 49
0.1
 74
0
 49
-2.9000000000000004
 74
0
 49
0.1
 74
0
 49
-2.9500000000000002
 74
0
  0
LTYPE
  5
32
100
AcDbSymbolTableRecord
100
AcDbLinetypeTableRecord
  2
DIVIDE
 70
0
  3
Divide ____ . . ____ . . ____ . . ____ . . ____
 72
65
 73
6
 40
1.25
 49
0.5
 74
0
 49
-0.2
 74
0
 49
0.1
 74
0
 49
-0.15
 74
0
 49
0.1
 74
0
 49
-0.2
 74
0
  0
LTYPE
  5
33
100
AcDbSymbolTableRecord
100
AcDbLinetypeTableRecord
  2
ACAD_ISO10W100
 70
0
  3
ISO dash dot __ . __ . __ . __ . __ . __ . __ . 
 72
65
 73
4
 40
18.0
 49
12.0
 74
0
 49
-2.9500000000000002
 74
0
 49
0.1
 74
0
 49
-2.9500000000000002
 74
0
  0
LTYPE
  5
34
100
AcDbSymbolTableRecord
100
AcDbLinetypeTableRecord
  2
ACAD_ISO04W100
 70
0
  3
ISO long-dash dot ____ . ____ . ____ . ____ . _
 72
65
 73
4
 40
30.0
 49
24.0
 74
0
 49
-2.9500000000000002
 74
0
 49
0.1
 74
0
 49
-2.9500000000000002
 74
0
  0
LTYPE
  5
35
100
AcDbSymbolTableRecord
100
AcDbLinetypeTableRecord
  2
CENTER2
 70
0
  3
Center (.5x) ___ _ ___ _ ___ _ ___ _ ___ _ ___
 72
65
 73
4
 40
1.125
 49
0.75
 74
0
 49
-0.125
 74
0
 49
0.125
 74
0
 49
-0.125
 74
0
  0
LTYPE
  5
36
100
AcDbSymbolTableRecord
100
AcDbLinetypeTableRecord
  2
ACAD_ISO11W100
 70
0
  3
ISO double-dash dot __ __ . __ __ . __ __ . __ _
 72
65
 73
6
 40
33.0
 49
12.0
 74
0
 49
-3.0
 74
0
 49
12.0
 74
0
 49
-2.9500000000000002
 74
0
 49
0.1
 74
0
 49
-2.9500000000000002
 74
0
  0
LTYPE
  5
37
100
AcDbSymbolTableRecord
100
AcDbLinetypeTableRecord
  2
HIDDEN2
 70
0
  3
Hidden (.5x) _ _ _ _ _ _ _ _ _ _ _ _ _ _ _ _ _ 
 72
65
 73
2
 40
0.1875
 49
0.125
 74
0
 49
-0.0625
 74
0
  0
LTYPE
  5
38
100
AcDbSymbolTableRecord
100
AcDbLinetypeTableRecord
  2
BORDERX2
 70
0
  3
Border (2x) ____  ____  .  ____  ____  .  ___
 72
65
 73
6
 40
3.5000000000000004
 49
1.0
 74
0
 49
-0.5
 74
0
 49
1.0
 74
0
 49
-0.45
 74
0
 49
0.1
 74
0
 49
-0.45
 74
0
  0
LTYPE
  5
39
100
AcDbSymbolTableRecord
100
AcDbLinetypeTableRecord
  2
ACAD_ISO05W100
 70
0
  3
ISO long-dash double-dot ____ .. ____ .. ____ . 
 72
65
 73
6
 40
33.0000000000000071
 49
24.0
 74
0
 49
-2.9500000000000002
 74
0
 49
0.1
 74
0
 49
-2.9000000000000004
 74
0
 49
0.1
 74
0
 49
-2.9500000000000002
 74
0
  0
LTYPE
  5
3A
100
AcDbSymbolTableRecord
100
AcDbLinetypeTableRecord
  2
DASHDOTX2
 70
0
  3
Dash dot (2x) ____  .  ____  .  ____  .  ___
 72
65
 73
4
 40
2.0
 49
1.0
 74
0
 49
-0.45
 74
0
 49
0.1
 74
0
 49
-0.45
 74
0
  0
LTYPE
  5
3B
100
AcDbSymbolTableRecord
100
AcDbLinetypeTableRecord
  2
HIDDENX2
 70
0
  3
Hidden (2x) ____ ____ ____ ____ ____ ____ ____ 
 72
65
 73
2
 40
0.75
 49
0.5
 74
0
 49
-0.25
 74
0
  0
LTYPE
  5
3C
100
AcDbSymbolTableRecord
100
AcDbLinetypeTableRecord
  2
CENTERX2
 70
0
  3
Center (2x) ________  __  ________  __  _____
 72
65
 73
4
 40
4.0
 49
2.5
 74
0
 49
-0.5
 74
0
 49
0.5
 74
0
 49
-0.5
 74
0
  0
LTYPE
  5
3D
100
AcDbSymbolTableRecord
100
AcDbLinetypeTableRecord
  2
BORDER2
 70
0
  3
Border (.5x) __.__.__.__.__.__.__.__.__.__.__.
 72
65
 73
6
 40
0.8749999999999999
 49
0.25
 74
0
 49
-0.125
 74
0
 49
0.25
 74
0
 49
-0.075
 74
0
 49
0.1
 74
0
 49
-0.075
 74
0
  0
LTYPE
  5
3E
100
AcDbSymbolTableRecord
100
AcDbLinetypeTableRecord
  2
DASHDOT2
 70
0
  3
Dash dot (.5x) _._._._._._._._._._._._._._._.
 72
65
 73
4
 40
0.5
 49
0.25
 74
0
 49
-0.075
 74
0
 49
0.1
 74
0
 49
-0.075
 74
0
  0
LTYPE
  5
3F
100
AcDbSymbolTableRecord
100
AcDbLinetypeTableRecord
  2
ACAD_ISO12W100
 70
0
  3
ISO dash double-dot __ . . __ . . __ . . __ . . 
 72
65
 73
6
 40
21.0
 49
12.0
 74
0
 49
-2.9500000000000002
 74
0
 49
0.1
 74
0
 49
-2.9000000000000004
 74
0
 49
0.1
 74
0
 49
-2.9500000000000002
 74
0
  0
LTYPE
  5
40
100
AcDbSymbolTableRecord
100
AcDbLinetypeTableRecord
  2
ACAD_ISO07W100
 70
0
  3
ISO dot . . . . . . . . . . . . . . . . . . . . 
 72
65
 73
2
 40
3.0
 49
0.1
 74
0
 49
-2.8999999999999999
 74
0
  0
LTYPE
  5
41
100
AcDbSymbolTableRecord
100
AcDbLinetypeTableRecord
  2
HIDDEN
 70
0
  3
Hidden __ __ __ __ __ __ __ __ __ __ __ __ __ __
 72
65
 73
2
 40
0.375
 49
0.25
 74
0
 49
-0.125
 74
0
  0
LTYPE
  5
42
100
AcDbSymbolTableRecord
100
AcDbLinetypeTableRecord
  2
ACAD_ISO06W100
 70
0
  3
ISO long-dash triple-dot ____ ... ____ ... ____
 72
65
 73
8
 40
36.0000000000000071
 49
24.0
 74
0
 49
-2.9500000000000002
 74
0
 49
0.1
 74
0
 49
-2.9000000000000004
 74
0
 49
0.1
 74
0
 49
-2.9000000000000004
 74
0
 49
0.1
 74
0
 49
-2.9500000000000002
 74
0
  0
LTYPE
  5
43
100
AcDbSymbolTableRecord
100
AcDbLinetypeTableRecord
  2
CENTER
 70
0
  3
Center ____ _ ____ _ ____ _ ____ _ ____ _ ____
 72
65
 73
4
 40
2.0
 49
1.25
 74
0
 49
-0.25
 74
0
 49
0.25
 74
0
 49
-0.25
 74
0
  0
LTYPE
  5
44
100
AcDbSymbolTableRecord
100
AcDbLinetypeTableRecord
  2
DOTX2
 70
0
  3
Dot (2x) .  .  .  .  .  .  .  .  .  .  .  .  .  .
 72
65
 73
2
 40
0.5
 49
0.1
 74
0
 49
-0.4
 74
0
  0
LTYPE
  5
45
100
AcDbSymbolTableRecord
100
AcDbLinetypeTableRecord
  2
PHANTOM
 70
0
  3
Phantom ______  __  __  ______  __  __  ______ 
 72
65
 73
6
 40
2.5
 49
1.25
 74
0
 49
-0.25
 74
0
 49
0.25
 74
0
 49
-0.25
 74
0
 49
0.25
 74
0
 49
-0.25
 74
0
  0
LTYPE
  5
46
100
AcDbSymbolTableRecord
100
AcDbLinetypeTableRecord
  2
ACAD_ISO08W100
 70
0
  3
ISO long-dash short-dash ____ __ ____ __ ____ _
 72
65
 73
4
 40
36.0
 49
24.0
 74
0
 49
-3.0
 74
0
 49
6.0
 74
0
 49
-3.0
 74
0
  0
LTYPE
  5
47
100
AcDbSymbolTableRecord
100
AcDbLinetypeTableRecord
  2
DASHEDX2
 70
0
  3
Dashed (2x) ____  ____  ____  ____  ____  ___
 72
65
 73
2
 40
1.5
 49
1.0
 74
0
 49
-0.5
 74
0
  0
LTYPE
  5
48
100
AcDbSymbolTableRecord
100
AcDbLinetypeTableRecord
  2
ACAD_ISO02W100
 70
0
  3
ISO dash __ __ __ __ __ __ __ __ __ __ __ __ __
 72
65
 73
2
 40
15.0
 49
12.0
 74
0
 49
-3.0
 74
0
  0
LTYPE
  5
49
100
AcDbSymbolTableRecord
100
AcDbLinetypeTableRecord
  2
PHANTOM2
 70
0
  3
Phantom (.5x) ___ _ _ ___ _ _ ___ _ _ ___ _ _
 72
65
 73
6
 40
1.25
 49
0.625
 74
0
 49
-0.125
 74
0
 49
0.125
 74
0
 49
-0.125
 74
0
 49
0.125
 74
0
 49
-0.125
 74
0
  0
LTYPE
  5
4A
100
AcDbSymbolTableRecord
100
AcDbLinetypeTableRecord
  2
DASHED2
 70
0
  3
Dashed (.5x) _ _ _ _ _ _ _ _ _ _ _ _ _ _ _ _ _ 
 72
65
 73
2
 40
0.375
 49
0.25
 74
0
 49
-0.125
 74
0
  0
LTYPE
  5
4B
100
AcDbSymbolTableRecord
100
AcDbLinetypeTableRecord
  2
ACAD_ISO09W100
 70
0
  3
ISO long-dash double-short-dash ____ __ __ ____
 72
65
 73
6
 40
45.0
 49
24.0
 74
0
 49
-3.0
 74
0
 49
6.0
 74
0
 49
-3.0
 74
0
 49
6.0
 74
0
 49
-3.0
 74
0
  0
LTYPE
  5
4C
100
AcDbSymbolTableRecord
100
AcDbLinetypeTableRecord
  2
ACAD_ISO13W100
 70
0
  3
ISO double-dash double-dot __ __ . . __ __ . . _
 72
65
 73
8
 40
36.0000000000000071
 49
12.0
 74
0
 49
-3.0
 74
0
 49
12.0
 74
0
 49
-2.9500000000000002
 74
0
 49
0.1
 74
0
 49
-2.9000000000000004
 74
0
 49
0.1
 74
0
 49
-2.9500000000000002
 74
0
  0
LTYPE
  5
4D
100
AcDbSymbolTableRecord
100
AcDbLinetypeTableRecord
  2
DOT2
 70
0
  3
Dot (.5x) ........................................
 72
65
 73
2
 40
0.125
 49
0.1
 74
0
 49
-0.025
 74
0
  0
LTYPE
  5
4E
100
AcDbSymbolTableRecord
100
AcDbLinetypeTableRecord
  2
DASHED
 70
0
  3
Dashed __ __ __ __ __ __ __ __ __ __ __ __ __ _
 72
65
 73
2
 40
0.75
 49
0.5
 74
0
 49
-0.25
 74
0
  0
LTYPE
  5
4F
100
AcDbSymbolTableRecord
100
AcDbLinetypeTableRecord
  2
ACAD_ISO14W100
 70
0
  3
ISO dash triple-dot __ . . . __ . . . __ . . . _
 72
65
 73
8
 40
24.0000000000000036
 49
12.0
 74
0
 49
-2.9500000000000002
 74
0
 49
0.1
 74
0
 49
-2.9000000000000004
 74
0
 49
0.1
 74
0
 49
-2.9000000000000004
 74
0
 49
0.1
 74
0
 49
-2.9500000000000002
 74
0
  0
LTYPE
  5
15
100
AcDbSymbolTableRecord
100
AcDbLinetypeTableRecord
  2
BYLAYER
 70
0
  3

 72
65
 73
0
 40
0.0
  0
LTYPE
  5
50
100
AcDbSymbolTableRecord
100
AcDbLinetypeTableRecord
  2
PHANTOMX2
 70
0
  3
Phantom (2x) ____________    ____    ____   _
 72
65
 73
6
 40
5.0
 49
2.5
 74
0
 49
-0.5
 74
0
 49
0.5
 74
0
 49
-0.5
 74
0
 49
0.5
 74
0
 49
-0.5
 74
0
  0
LTYPE
  5
14
100
AcDbSymbolTableRecord
100
AcDbLinetypeTableRecord
  2
BYBLOCK
 70
0
  3

 72
65
 73
0
 40
0.0
  0
LTYPE
  5
51
100
AcDbSymbolTableRecord
100
AcDbLinetypeTableRecord
  2
DIVIDEX2
 70
0
  3
Divide (2x) ________  .  .  ________  .  .  _
 72
65
 73
6
 40
2.5000000000000004
 49
1.0
 74
0
 49
-0.45
 74
0
 49
0.1
 74
0
 49
-0.4
 74
0
 49
0.1
 74
0
 49
-0.45
 74
0
  0
LTYPE
  5
52
100
AcDbSymbolTableRecord
100
AcDbLinetypeTableRecord
  2
BORDER
 70
0
  3
Border __ __ . __ __ . __ __ . __ __ . __ __ .
 72
65
 73
6
 40
1.75
 49
0.5
 74
0
 49
-0.25
 74
0
 49
0.5
 74
0
 49
-0.2
 74
0
 49
0.1
 74
0
 49
-0.2
 74
0
  0
LTYPE
  5
53
100
AcDbSymbolTableRecord
100
AcDbLinetypeTableRecord
  2
DIVIDE2
 70
0
  3
Divide (.5x) __..__..__..__..__..__..__..__.._
 72
65
 73
6
 40
0.625
 49
0.25
 74
0
 49
-0.075
 74
0
 49
0.1
 74
0
 49
-0.025
 74
0
 49
0.1
 74
0
 49
-0.075
 74
0
  0
LTYPE
  5
54
100
AcDbSymbolTableRecord
100
AcDbLinetypeTableRecord
  2
DOT
 70
0
  3
Dot . . . . . . . . . . . . . . . . . . . . . . . .
 72
65
 73
2
 40
0.25
 49
0.1
 74
0
 49
-0.15
 74
0
  0
LTYPE
  5
55
100
AcDbSymbolTableRecord
100
AcDbLinetypeTableRecord
  2
DASHDOT
 70
0
  3
Dash dot __ . __ . __ . __ . __ . __ . __ . __
 72
65
 73
4
 40
1.0
 49
0.5
 74
0
 49
-0.2
 74
0
 49
0.1
 74
0
 49
-0.2
 74
0
  0
LTYPE
  5
56
100
AcDbSymbolTableRecord
100
AcDbLinetypeTableRecord
  2
ACAD_ISO03W100
 70
0
  3
ISO dash space __    __    __    __    __    __
 72
65
 73
2
 40
30.0
 49
12.0
 74
0
 49
-18.0
 74
0
  0
ENDTAB
  0
TABLE
  2
LAYER
  5
2
100
AcDbSymbolTable
 70
1
  0
LAYER
  5
10
100
AcDbSymbolTableRecord
100
AcDbLayerTableRecord
  2
0
 70
0
 62
7
420
16777215
  6
Continuous
370
25
390
F
  0
ENDTAB
  0
TABLE
  2
STYLE
  5
3
100
AcDbSymbolTable
 70
1
  0
STYLE
  5
57
100
AcDbSymbolTableRecord
100
AcDbTextStyleTableRecord
  2
Standard
 70
0
 40
0.0
 41
1.0
 50
0.0
 71
0
 42
2.5
  3

  4

1001
ACAD
1000
txt
1071
0
  0
ENDTAB
  0
TABLE
  2
VIEW
  5
6
100
AcDbSymbolTable
 70
0
  0
ENDTAB
  0
TABLE
  2
UCS
  5
7
100
AcDbSymbolTable
 70
0
  0
ENDTAB
  0
TABLE
  2
APPID
  5
9
100
AcDbSymbolTable
 70
1
  0
APPID
  5
12
100
AcDbSymbolTableRecord
100
AcDbRegAppTableRecord
  2
ACAD
 70
0
  0
APPID
  5
58
100
AcDbSymbolTableRecord
100
AcDbRegAppTableRecord
  2
QCAD
 70
0
  0
ENDTAB
  0
TABLE
  2
DIMSTYLE
  5
A
100
AcDbSymbolTable
 70
1
100
AcDbDimStyleTable
 71
0
  0
DIMSTYLE
105
27
100
AcDbSymbolTableRecord
100
AcDbDimStyleTableRecord
  2
Standard
 41
0.18
 42
0.0625
 43
3.75
 44
0.18
 70
0
 73
0
 74
0
 77
1
 78
8
140
0.18
141
2.5
143
0.03937007874016
147
0.09
171
3
172
1
271
2
272
2
274
3
278
44
283
0
284
8
340
57
  0
ENDTAB
  0
TABLE
  2
BLOCK_RECORD
  5
1
100
AcDbSymbolTable
 70
1
  0
BLOCK_RECORD
  5
1F
100
AcDbSymbolTableRecord
100
AcDbBlockTableRecord
  2
*Model_Space
340
22
  0
BLOCK_RECORD
  5
1B
100
AcDbSymbolTableRecord
100
AcDbBlockTableRecord
  2
*Paper_Space
340
1E
  0
BLOCK_RECORD
  5
23
100
AcDbSymbolTableRecord
100
AcDbBlockTableRecord
  2
*Paper_Space0
340
26
  0
ENDTAB
  0
ENDSEC
  0
SECTION
  2
BLOCKS
  0
BLOCK
  5
20
100
AcDbEntity
  8
0
100
AcDbBlockBegin
  2
*Model_Space
 70
0
 10
0.0
 20
0.0
 30
0.0
  3
*Model_Space
  1

  0
ENDBLK
  5
21
100
AcDbEntity
  8
0
100
AcDbBlockEnd
  0
BLOCK
  5
1C
100
AcDbEntity
 67
1
  8
0
100
AcDbBlockBegin
  2
*Paper_Space
 70
0
 10
0.0
 20
0.0
 30
0.0
  3
*Paper_Space
  1

  0
ENDBLK
  5
1D
100
AcDbEntity
 67
1
  8
0
100
AcDbBlockEnd
  0
BLOCK
  5
24
100
AcDbEntity
  8
0
100
AcDbBlockBegin
  2
*Paper_Space0
 70
0
 10
0.0
 20
0.0
 30
0.0
  3
*Paper_Space0
  1

  0
ENDBLK
  5
25
100
AcDbEntity
  8
0
100
AcDbBlockEnd
  0
ENDSEC
  0
SECTION
  2
ENTITIES
  0
LINE
  5
59
100
AcDbEntity
100
AcDbLine
  8
0
 62
256
370
-1
 48
1.0
  6
BYLAYER
 10
-24.0012000000000008
 20
0.0
 30
0.0
 11
-23.9771999999999998
 21
-0.917968
 31
0.0
  0
LINE
  5
5A
100
AcDbEntity
100
AcDbLine
  8
0
 62
256
370
-1
 48
1.0
  6
BYLAYER
 10
-23.9771999999999998
 20
-0.917968
 30
0.0
 11
-23.9573999999999998
 21
-0.999014
 31
0.0
  0
LINE
  5
5B
100
AcDbEntity
100
AcDbLine
  8
0
 62
256
370
-1
 48
1.0
  6
BYLAYER
 10
-23.9573999999999998
 20
-0.999014
 30
0.0
 11
-23.9026999999999994
 21
-1.09724
 31
0.0
  0
LINE
  5
5C
100
AcDbEntity
100
AcDbLine
  8
0
 62
256
370
-1
 48
1.0
  6
BYLAYER
 10
-23.9026999999999994
 20
-1.09724
 30
0.0
 11
-23.8247
 21
-1.17588
 31
0.0
  0
LINE
  5
5D
100
AcDbEntity
100
AcDbLine
  8
0
 62
256
370
-1
 48
1.0
  6
BYLAYER
 10
-23.8247
 20
-1.17588
 30
0.0
 11
-23.7273999999999994
 21
-1.2295400000000001
 31
0.0
  0
LINE
  5
5E
100
AcDbEntity
100
AcDbLine
  8
0
 62
256
370
-1
 48
1.0
  6
BYLAYER
 10
-23.7273999999999994
 20
-1.2295400000000001
 30
0.0
 11
-22.8587999999999987
 21
-1.5528900000000001
 31
0.0
  0
LINE
  5
5F
100
AcDbEntity
100
AcDbLine
  8
0
 62
256
370
-1
 48
1.0
  6
BYLAYER
 10
-22.8587999999999987
 20
-1.5528900000000001
 30
0.0
 11
-22.7619000000000007
 21
-1.6064099999999999
 31
0.0
  0
LINE
  5
60
100
AcDbEntity
100
AcDbLine
  8
0
 62
256
370
-1
 48
1.0
  6
BYLAYER
 10
-22.7619000000000007
 20
-1.6064099999999999
 30
0.0
 11
-22.6838000000000015
 21
-1.6850700000000001
 31
0.0
  0
LINE
  5
61
100
AcDbEntity
100
AcDbLine
  8
0
 62
256
370
-1
 48
1.0
  6
BYLAYER
 10
-22.6838000000000015
 20
-1.6850700000000001
 30
0.0
 11
-22.6289000000000016
 21
-1.7833699999999999
 31
0.0
  0
LINE
  5
62
100
AcDbEntity
100
AcDbLine
  8
0
 62
256
370
-1
 48
1.0
  6
BYLAYER
 10
-22.6289000000000016
 20
-1.7833699999999999
 30
0.0
 11
-22.6014000000000017
 21
-1.8958699999999999
 31
0.0
  0
LINE
  5
63
100
AcDbEntity
100
AcDbLine
  8
0
 62
256
370
-1
 48
1.0
  6
BYLAYER
 10
-22.6014000000000017
 20
-1.8958699999999999
 30
0.0
 11
-22.5016999999999996
 21
-2.8446600000000002
 31
0.0
  0
LINE
  5
64
100
AcDbEntity
100
AcDbLine
  8
0
 62
256
370
-1
 48
1.0
  6
BYLAYER
 10
-22.5016999999999996
 20
-2.8446600000000002
 30
0.0
 11
-22.5051999999999985
 21
-2.96041
 31
0.0
  0
LINE
  5
65
100
AcDbEntity
100
AcDbLine
  8
0
 62
256
370
-1
 48
1.0
  6
BYLAYER
 10
-22.5051999999999985
 20
-2.96041
 30
0.0
 11
-22.5384999999999991
 21
-3.06799
 31
0.0
  0
LINE
  5
66
100
AcDbEntity
100
AcDbLine
  8
0
 62
256
370
-1
 48
1.0
  6
BYLAYER
 10
-22.5384999999999991
 20
-3.06799
 30
0.0
 11
-22.5985000000000014
 21
-3.1611500000000001
 31
0.0
  0
LINE
  5
67
100
AcDbEntity
100
AcDbLine
  8
0
 62
256
370
-1
 48
1.0
  6
BYLAYER
 10
-22.5985000000000014
 20
-3.1611500000000001
 30
0.0
 11
-22.6820999999999984
 21
-3.23366
 31
0.0
  0
LINE
  5
68
100
AcDbEntity
100
AcDbLine
  8
0
 62
256
370
-1
 48
1.0
  6
BYLAYER
 10
-22.6820999999999984
 20
-3.23366
 30
0.0
 11
-23.4646000000000008
 21
-3.73054
 31
0.0
  0
LINE
  5
69
100
AcDbEntity
100
AcDbLine
  8
0
 62
256
370
-1
 48
1.0
  6
BYLAYER
 10
-23.4646000000000008
 20
-3.73054
 30
0.0
 11
-23.5485000000000007
 21
-3.8032900000000001
 31
0.0
  0
LINE
  5
6A
100
AcDbEntity
100
AcDbLine
  8
0
 62
256
370
-1
 48
1.0
  6
BYLAYER
 10
-23.5485000000000007
 20
-3.8032900000000001
 30
0.0
 11
-23.6084999999999994
 21
-3.8965200000000002
 31
0.0
  0
LINE
  5
6B
100
AcDbEntity
100
AcDbLine
  8
0
 62
256
370
-1
 48
1.0
  6
BYLAYER
 10
-23.6084999999999994
 20
-3.8965200000000002
 30
0.0
 11
-23.6416000000000004
 21
-4.0040100000000001
 31
0.0
  0
LINE
  5
6C
100
AcDbEntity
100
AcDbLine
  8
0
 62
256
370
-1
 48
1.0
  6
BYLAYER
 10
-23.6416000000000004
 20
-4.0040100000000001
 30
0.0
 11
-23.6441000000000017
 21
-4.0872599999999997
 31
0.0
  0
LINE
  5
6D
100
AcDbEntity
100
AcDbLine
  8
0
 62
256
370
-1
 48
1.0
  6
BYLAYER
 10
-23.6441000000000017
 20
-4.0872599999999997
 30
0.0
 11
-23.476700000000001
 21
-4.9901299999999997
 31
0.0
  0
LINE
  5
6E
100
AcDbEntity
100
AcDbLine
  8
0
 62
256
370
-1
 48
1.0
  6
BYLAYER
 10
-23.476700000000001
 20
-4.9901299999999997
 30
0.0
 11
-23.2623999999999995
 21
-5.8830400000000003
 31
0.0
  0
LINE
  5
6F
100
AcDbEntity
100
AcDbLine
  8
0
 62
256
370
-1
 48
1.0
  6
BYLAYER
 10
-23.2623999999999995
 20
-5.8830400000000003
 30
0.0
 11
-23.2261999999999986
 21
-5.9582100000000002
 31
0.0
  0
LINE
  5
70
100
AcDbEntity
100
AcDbLine
  8
0
 62
256
370
-1
 48
1.0
  6
BYLAYER
 10
-23.2261999999999986
 20
-5.9582100000000002
 30
0.0
 11
-23.1522000000000006
 21
-6.04291
 31
0.0
  0
LINE
  5
71
100
AcDbEntity
100
AcDbLine
  8
0
 62
256
370
-1
 48
1.0
  6
BYLAYER
 10
-23.1522000000000006
 20
-6.04291
 30
0.0
 11
-23.0595999999999997
 21
-6.1036099999999998
 31
0.0
  0
LINE
  5
72
100
AcDbEntity
100
AcDbLine
  8
0
 62
256
370
-1
 48
1.0
  6
BYLAYER
 10
-23.0595999999999997
 20
-6.1036099999999998
 30
0.0
 11
-22.9532999999999987
 21
-6.1358800000000002
 31
0.0
  0
LINE
  5
73
100
AcDbEntity
100
AcDbLine
  8
0
 62
256
370
-1
 48
1.0
  6
BYLAYER
 10
-22.9532999999999987
 20
-6.1358800000000002
 30
0.0
 11
-22.0364000000000004
 21
-6.27156
 31
0.0
  0
LINE
  5
74
100
AcDbEntity
100
AcDbLine
  8
0
 62
256
370
-1
 48
1.0
  6
BYLAYER
 10
-22.0364000000000004
 20
-6.27156
 30
0.0
 11
-21.9304999999999986
 21
-6.3037700000000001
 31
0.0
  0
LINE
  5
75
100
AcDbEntity
100
AcDbLine
  8
0
 62
256
370
-1
 48
1.0
  6
BYLAYER
 10
-21.9304999999999986
 20
-6.3037700000000001
 30
0.0
 11
-21.8378000000000014
 21
-6.3644699999999998
 31
0.0
  0
LINE
  5
76
100
AcDbEntity
100
AcDbLine
  8
0
 62
256
370
-1
 48
1.0
  6
BYLAYER
 10
-21.8378000000000014
 20
-6.3644699999999998
 30
0.0
 11
-21.7636000000000003
 21
-6.4492099999999999
 31
0.0
  0
LINE
  5
77
100
AcDbEntity
100
AcDbLine
  8
0
 62
256
370
-1
 48
1.0
  6
BYLAYER
 10
-21.7636000000000003
 20
-6.4492099999999999
 30
0.0
 11
-21.7133000000000003
 21
-6.5535399999999999
 31
0.0
  0
LINE
  5
78
100
AcDbEntity
100
AcDbLine
  8
0
 62
256
370
-1
 48
1.0
  6
BYLAYER
 10
-21.7133000000000003
 20
-6.5535399999999999
 30
0.0
 11
-21.4185000000000016
 21
-7.4608600000000003
 31
0.0
  0
LINE
  5
79
100
AcDbEntity
100
AcDbLine
  8
0
 62
256
370
-1
 48
1.0
  6
BYLAYER
 10
-21.4185000000000016
 20
-7.4608600000000003
 30
0.0
 11
-21.3978999999999999
 21
-7.5748199999999999
 31
0.0
  0
LINE
  5
7A
100
AcDbEntity
100
AcDbLine
  8
0
 62
256
370
-1
 48
1.0
  6
BYLAYER
 10
-21.3978999999999999
 20
-7.5748199999999999
 30
0.0
 11
-21.408100000000001
 21
-7.6869500000000004
 31
0.0
  0
LINE
  5
7B
100
AcDbEntity
100
AcDbLine
  8
0
 62
256
370
-1
 48
1.0
  6
BYLAYER
 10
-21.408100000000001
 20
-7.6869500000000004
 30
0.0
 11
-21.4473999999999982
 21
-7.7905600000000002
 31
0.0
  0
LINE
  5
7C
100
AcDbEntity
100
AcDbLine
  8
0
 62
256
370
-1
 48
1.0
  6
BYLAYER
 10
-21.4473999999999982
 20
-7.7905600000000002
 30
0.0
 11
-21.5141999999999989
 21
-7.87887
 31
0.0
  0
LINE
  5
7D
100
AcDbEntity
100
AcDbLine
  8
0
 62
256
370
-1
 48
1.0
  6
BYLAYER
 10
-21.5141999999999989
 20
-7.87887
 30
0.0
 11
-22.1762000000000015
 21
-8.5275800000000004
 31
0.0
  0
LINE
  5
7E
100
AcDbEntity
100
AcDbLine
  8
0
 62
256
370
-1
 48
1.0
  6
BYLAYER
 10
-22.1762000000000015
 20
-8.5275800000000004
 30
0.0
 11
-22.2432000000000016
 21
-8.6161899999999996
 31
0.0
  0
LINE
  5
7F
100
AcDbEntity
100
AcDbLine
  8
0
 62
256
370
-1
 48
1.0
  6
BYLAYER
 10
-22.2432000000000016
 20
-8.6161899999999996
 30
0.0
 11
-22.2823999999999991
 21
-8.7198499999999992
 31
0.0
  0
LINE
  5
80
100
AcDbEntity
100
AcDbLine
  8
0
 62
256
370
-1
 48
1.0
  6
BYLAYER
 10
-22.2823999999999991
 20
-8.7198499999999992
 30
0.0
 11
-22.2925000000000004
 21
-8.83188
 31
0.0
  0
LINE
  5
81
100
AcDbEntity
100
AcDbLine
  8
0
 62
256
370
-1
 48
1.0
  6
BYLAYER
 10
-22.2925000000000004
 20
-8.83188
 30
0.0
 11
-22.2775999999999996
 21
-8.9138199999999994
 31
0.0
  0
LINE
  5
82
100
AcDbEntity
100
AcDbLine
  8
0
 62
256
370
-1
 48
1.0
  6
BYLAYER
 10
-22.2775999999999996
 20
-8.9138199999999994
 30
0.0
 11
-21.9262000000000015
 21
-9.7621699999999993
 31
0.0
  0
LINE
  5
83
100
AcDbEntity
100
AcDbLine
  8
0
 62
256
370
-1
 48
1.0
  6
BYLAYER
 10
-21.9262000000000015
 20
-9.7621699999999993
 30
0.0
 11
-21.530899999999999
 21
-10.5909999999999993
 31
0.0
  0
LINE
  5
84
100
AcDbEntity
100
AcDbLine
  8
0
 62
256
370
-1
 48
1.0
  6
BYLAYER
 10
-21.530899999999999
 20
-10.5909999999999993
 30
0.0
 11
-21.4799000000000007
 21
-10.657
 31
0.0
  0
LINE
  5
85
100
AcDbEntity
100
AcDbLine
  8
0
 62
256
370
-1
 48
1.0
  6
BYLAYER
 10
-21.4799000000000007
 20
-10.657
 30
0.0
 11
-21.3899000000000008
 21
-10.7245000000000008
 31
0.0
  0
LINE
  5
86
100
AcDbEntity
100
AcDbLine
  8
0
 62
256
370
-1
 48
1.0
  6
BYLAYER
 10
-21.3899000000000008
 20
-10.7245000000000008
 30
0.0
 11
-21.2866999999999997
 21
-10.7645999999999997
 31
0.0
  0
LINE
  5
87
100
AcDbEntity
100
AcDbLine
  8
0
 62
256
370
-1
 48
1.0
  6
BYLAYER
 10
-21.2866999999999997
 20
-10.7645999999999997
 30
0.0
 11
-21.1759999999999984
 21
-10.7741000000000007
 31
0.0
  0
LINE
  5
88
100
AcDbEntity
100
AcDbLine
  8
0
 62
256
370
-1
 48
1.0
  6
BYLAYER
 10
-21.1759999999999984
 20
-10.7741000000000007
 30
0.0
 11
-20.2509000000000015
 21
-10.7161000000000008
 31
0.0
  0
LINE
  5
89
100
AcDbEntity
100
AcDbLine
  8
0
 62
256
370
-1
 48
1.0
  6
BYLAYER
 10
-20.2509000000000015
 20
-10.7161000000000008
 30
0.0
 11
-20.1405999999999992
 21
-10.7256
 31
0.0
  0
LINE
  5
8A
100
AcDbEntity
100
AcDbLine
  8
0
 62
256
370
-1
 48
1.0
  6
BYLAYER
 10
-20.1405999999999992
 20
-10.7256
 30
0.0
 11
-20.0372999999999983
 21
-10.7657000000000007
 31
0.0
  0
LINE
  5
8B
100
AcDbEntity
100
AcDbLine
  8
0
 62
256
370
-1
 48
1.0
  6
BYLAYER
 10
-20.0372999999999983
 20
-10.7657000000000007
 30
0.0
 11
-19.9471999999999987
 21
-10.8331999999999997
 31
0.0
  0
LINE
  5
8C
100
AcDbEntity
100
AcDbLine
  8
0
 62
256
370
-1
 48
1.0
  6
BYLAYER
 10
-19.9471999999999987
 20
-10.8331999999999997
 30
0.0
 11
-19.8763000000000005
 21
-10.9247999999999994
 31
0.0
  0
LINE
  5
8D
100
AcDbEntity
100
AcDbLine
  8
0
 62
256
370
-1
 48
1.0
  6
BYLAYER
 10
-19.8763000000000005
 20
-10.9247999999999994
 30
0.0
 11
-19.3993000000000002
 21
-11.7509999999999994
 31
0.0
  0
LINE
  5
8E
100
AcDbEntity
100
AcDbLine
  8
0
 62
256
370
-1
 48
1.0
  6
BYLAYER
 10
-19.3993000000000002
 20
-11.7509999999999994
 30
0.0
 11
-19.3553999999999995
 21
-11.8582000000000001
 31
0.0
  0
LINE
  5
8F
100
AcDbEntity
100
AcDbLine
  8
0
 62
256
370
-1
 48
1.0
  6
BYLAYER
 10
-19.3553999999999995
 20
-11.8582000000000001
 30
0.0
 11
-19.3419999999999987
 21
-11.9700000000000006
 31
0.0
  0
LINE
  5
90
100
AcDbEntity
100
AcDbLine
  8
0
 62
256
370
-1
 48
1.0
  6
BYLAYER
 10
-19.3419999999999987
 20
-11.9700000000000006
 30
0.0
 11
-19.3590000000000018
 21
-12.0794999999999995
 31
0.0
  0
LINE
  5
91
100
AcDbEntity
100
AcDbLine
  8
0
 62
256
370
-1
 48
1.0
  6
BYLAYER
 10
-19.3590000000000018
 20
-12.0794999999999995
 30
0.0
 11
-19.405899999999999
 21
-12.1797000000000004
 31
0.0
  0
LINE
  5
92
100
AcDbEntity
100
AcDbLine
  8
0
 62
256
370
-1
 48
1.0
  6
BYLAYER
 10
-19.405899999999999
 20
-12.1797000000000004
 30
0.0
 11
-19.9186000000000014
 21
-12.9519000000000002
 31
0.0
  0
LINE
  5
93
100
AcDbEntity
100
AcDbLine
  8
0
 62
256
370
-1
 48
1.0
  6
BYLAYER
 10
-19.9186000000000014
 20
-12.9519000000000002
 30
0.0
 11
-19.9656999999999982
 21
-13.0525000000000002
 31
0.0
  0
LINE
  5
94
100
AcDbEntity
100
AcDbLine
  8
0
 62
256
370
-1
 48
1.0
  6
BYLAYER
 10
-19.9656999999999982
 20
-13.0525000000000002
 30
0.0
 11
-19.9826000000000015
 21
-13.1621000000000006
 31
0.0
  0
LINE
  5
95
100
AcDbEntity
100
AcDbLine
  8
0
 62
256
370
-1
 48
1.0
  6
BYLAYER
 10
-19.9826000000000015
 20
-13.1621000000000006
 30
0.0
 11
-19.969100000000001
 21
-13.2736999999999998
 31
0.0
  0
LINE
  5
96
100
AcDbEntity
100
AcDbLine
  8
0
 62
256
370
-1
 48
1.0
  6
BYLAYER
 10
-19.969100000000001
 20
-13.2736999999999998
 30
0.0
 11
-19.9375
 21
-13.3507999999999996
 31
0.0
  0
LINE
  5
97
100
AcDbEntity
100
AcDbLine
  8
0
 62
256
370
-1
 48
1.0
  6
BYLAYER
 10
-19.9375
 20
-13.3507999999999996
 30
0.0
 11
-19.4174000000000007
 21
-14.1075999999999997
 31
0.0
  0
LINE
  5
98
100
AcDbEntity
100
AcDbLine
  8
0
 62
256
370
-1
 48
1.0
  6
BYLAYER
 10
-19.4174000000000007
 20
-14.1075999999999997
 30
0.0
 11
-18.8583999999999996
 21
-14.8361000000000001
 31
0.0
  0
LINE
  5
99
100
AcDbEntity
100
AcDbLine
  8
0
 62
256
370
-1
 48
1.0
  6
BYLAYER
 10
-18.8583999999999996
 20
-14.8361000000000001
 30
0.0
 11
-18.7947999999999986
 21
-14.8900000000000006
 31
0.0
  0
LINE
  5
9A
100
AcDbEntity
100
AcDbLine
  8
0
 62
256
370
-1
 48
1.0
  6
BYLAYER
 10
-18.7947999999999986
 20
-14.8900000000000006
 30
0.0
 11
-18.6926999999999985
 21
-14.9373000000000005
 31
0.0
  0
LINE
  5
9B
100
AcDbEntity
100
AcDbLine
  8
0
 62
256
370
-1
 48
1.0
  6
BYLAYER
 10
-18.6926999999999985
 20
-14.9373000000000005
 30
0.0
 11
-18.583400000000001
 21
-14.9550999999999998
 31
0.0
  0
LINE
  5
9C
100
AcDbEntity
100
AcDbLine
  8
0
 62
256
370
-1
 48
1.0
  6
BYLAYER
 10
-18.583400000000001
 20
-14.9550999999999998
 30
0.0
 11
-18.4731999999999985
 21
-14.9413999999999998
 31
0.0
  0
LINE
  5
9D
100
AcDbEntity
100
AcDbLine
  8
0
 62
256
370
-1
 48
1.0
  6
BYLAYER
 10
-18.4731999999999985
 20
-14.9413999999999998
 30
0.0
 11
-17.5804000000000009
 21
-14.6923999999999992
 31
0.0
  0
LINE
  5
9E
100
AcDbEntity
100
AcDbLine
  8
0
 62
256
370
-1
 48
1.0
  6
BYLAYER
 10
-17.5804000000000009
 20
-14.6923999999999992
 30
0.0
 11
-17.4705000000000013
 21
-14.6786999999999992
 31
0.0
  0
LINE
  5
9F
100
AcDbEntity
100
AcDbLine
  8
0
 62
256
370
-1
 48
1.0
  6
BYLAYER
 10
-17.4705000000000013
 20
-14.6786999999999992
 30
0.0
 11
-17.3611000000000004
 21
-14.6965000000000003
 31
0.0
  0
LINE
  5
A0
100
AcDbEntity
100
AcDbLine
  8
0
 62
256
370
-1
 48
1.0
  6
BYLAYER
 10
-17.3611000000000004
 20
-14.6965000000000003
 30
0.0
 11
-17.2589000000000006
 21
-14.7437000000000005
 31
0.0
  0
LINE
  5
A1
100
AcDbEntity
100
AcDbLine
  8
0
 62
256
370
-1
 48
1.0
  6
BYLAYER
 10
-17.2589000000000006
 20
-14.7437000000000005
 30
0.0
 11
-17.1706000000000003
 21
-14.8186
 31
0.0
  0
LINE
  5
A2
100
AcDbEntity
100
AcDbLine
  8
0
 62
256
370
-1
 48
1.0
  6
BYLAYER
 10
-17.1706000000000003
 20
-14.8186
 30
0.0
 11
-16.5321999999999996
 21
-15.5274999999999999
 31
0.0
  0
LINE
  5
A3
100
AcDbEntity
100
AcDbLine
  8
0
 62
256
370
-1
 48
1.0
  6
BYLAYER
 10
-16.5321999999999996
 20
-15.5274999999999999
 30
0.0
 11
-16.4669999999999987
 21
-15.6233000000000004
 31
0.0
  0
LINE
  5
A4
100
AcDbEntity
100
AcDbLine
  8
0
 62
256
370
-1
 48
1.0
  6
BYLAYER
 10
-16.4669999999999987
 20
-15.6233000000000004
 30
0.0
 11
-16.4307000000000016
 21
-15.7297999999999991
 31
0.0
  0
LINE
  5
A5
100
AcDbEntity
100
AcDbLine
  8
0
 62
256
370
-1
 48
1.0
  6
BYLAYER
 10
-16.4307000000000016
 20
-15.7297999999999991
 30
0.0
 11
-16.4244999999999983
 21
-15.8405000000000005
 31
0.0
  0
LINE
  5
A6
100
AcDbEntity
100
AcDbLine
  8
0
 62
256
370
-1
 48
1.0
  6
BYLAYER
 10
-16.4244999999999983
 20
-15.8405000000000005
 30
0.0
 11
-16.4495000000000005
 21
-15.9482999999999997
 31
0.0
  0
LINE
  5
A7
100
AcDbEntity
100
AcDbLine
  8
0
 62
256
370
-1
 48
1.0
  6
BYLAYER
 10
-16.4495000000000005
 20
-15.9482999999999997
 30
0.0
 11
-16.7905000000000015
 21
-16.8101999999999983
 31
0.0
  0
LINE
  5
A8
100
AcDbEntity
100
AcDbLine
  8
0
 62
256
370
-1
 48
1.0
  6
BYLAYER
 10
-16.7905000000000015
 20
-16.8101999999999983
 30
0.0
 11
-16.8155999999999999
 21
-16.9183999999999983
 31
0.0
  0
LINE
  5
A9
100
AcDbEntity
100
AcDbLine
  8
0
 62
256
370
-1
 48
1.0
  6
BYLAYER
 10
-16.8155999999999999
 20
-16.9183999999999983
 30
0.0
 11
-16.8093000000000004
 21
-17.0290999999999997
 31
0.0
  0
LINE
  5
AA
100
AcDbEntity
100
AcDbLine
  8
0
 62
256
370
-1
 48
1.0
  6
BYLAYER
 10
-16.8093000000000004
 20
-17.0290999999999997
 30
0.0
 11
-16.7729999999999997
 21
-17.1355000000000004
 31
0.0
  0
LINE
  5
AB
100
AcDbEntity
100
AcDbLine
  8
0
 62
256
370
-1
 48
1.0
  6
BYLAYER
 10
-16.7729999999999997
 20
-17.1355000000000004
 30
0.0
 11
-16.7259999999999991
 21
-17.2042999999999999
 31
0.0
  0
LINE
  5
AC
100
AcDbEntity
100
AcDbLine
  8
0
 62
256
370
-1
 48
1.0
  6
BYLAYER
 10
-16.7259999999999991
 20
-17.2042999999999999
 30
0.0
 11
-16.059899999999999
 21
-17.8364000000000011
 31
0.0
  0
LINE
  5
AD
100
AcDbEntity
100
AcDbLine
  8
0
 62
256
370
-1
 48
1.0
  6
BYLAYER
 10
-16.059899999999999
 20
-17.8364000000000011
 30
0.0
 11
-15.3617000000000008
 21
-18.4328000000000003
 31
0.0
  0
LINE
  5
AE
100
AcDbEntity
100
AcDbLine
  8
0
 62
256
370
-1
 48
1.0
  6
BYLAYER
 10
-15.3617000000000008
 20
-18.4328000000000003
 30
0.0
 11
-15.2881999999999998
 21
-18.4723000000000006
 31
0.0
  0
LINE
  5
AF
100
AcDbEntity
100
AcDbLine
  8
0
 62
256
370
-1
 48
1.0
  6
BYLAYER
 10
-15.2881999999999998
 20
-18.4723000000000006
 30
0.0
 11
-15.1785999999999994
 21
-18.497399999999999
 31
0.0
  0
LINE
  5
B0
100
AcDbEntity
100
AcDbLine
  8
0
 62
256
370
-1
 48
1.0
  6
BYLAYER
 10
-15.1785999999999994
 20
-18.497399999999999
 30
0.0
 11
-15.0679999999999996
 21
-18.4920000000000009
 31
0.0
  0
LINE
  5
B1
100
AcDbEntity
100
AcDbLine
  8
0
 62
256
370
-1
 48
1.0
  6
BYLAYER
 10
-15.0679999999999996
 20
-18.4920000000000009
 30
0.0
 11
-14.9629999999999992
 21
-18.4556000000000004
 31
0.0
  0
LINE
  5
B2
100
AcDbEntity
100
AcDbLine
  8
0
 62
256
370
-1
 48
1.0
  6
BYLAYER
 10
-14.9629999999999992
 20
-18.4556000000000004
 30
0.0
 11
-14.1415000000000006
 21
-18.0264999999999986
 31
0.0
  0
LINE
  5
B3
100
AcDbEntity
100
AcDbLine
  8
0
 62
256
370
-1
 48
1.0
  6
BYLAYER
 10
-14.1415000000000006
 20
-18.0264999999999986
 30
0.0
 11
-14.0368999999999993
 21
-17.9903000000000013
 31
0.0
  0
LINE
  5
B4
100
AcDbEntity
100
AcDbLine
  8
0
 62
256
370
-1
 48
1.0
  6
BYLAYER
 10
-14.0368999999999993
 20
-17.9903000000000013
 30
0.0
 11
-13.9261999999999997
 21
-17.9848999999999997
 31
0.0
  0
LINE
  5
B5
100
AcDbEntity
100
AcDbLine
  8
0
 62
256
370
-1
 48
1.0
  6
BYLAYER
 10
-13.9261999999999997
 20
-17.9848999999999997
 30
0.0
 11
-13.8163999999999998
 21
-18.0098999999999982
 31
0.0
  0
LINE
  5
B6
100
AcDbEntity
100
AcDbLine
  8
0
 62
256
370
-1
 48
1.0
  6
BYLAYER
 10
-13.8163999999999998
 20
-18.0098999999999982
 30
0.0
 11
-13.7143999999999995
 21
-18.0646999999999984
 31
0.0
  0
LINE
  5
B7
100
AcDbEntity
100
AcDbLine
  8
0
 62
256
370
-1
 48
1.0
  6
BYLAYER
 10
-13.7143999999999995
 20
-18.0646999999999984
 30
0.0
 11
-12.9426000000000005
 21
-18.6254999999999988
 31
0.0
  0
LINE
  5
B8
100
AcDbEntity
100
AcDbLine
  8
0
 62
256
370
-1
 48
1.0
  6
BYLAYER
 10
-12.9426000000000005
 20
-18.6254999999999988
 30
0.0
 11
-12.8589000000000002
 21
-18.7055000000000007
 31
0.0
  0
LINE
  5
B9
100
AcDbEntity
100
AcDbLine
  8
0
 62
256
370
-1
 48
1.0
  6
BYLAYER
 10
-12.8589000000000002
 20
-18.7055000000000007
 30
0.0
 11
-12.8011999999999997
 21
-18.8021999999999991
 31
0.0
  0
LINE
  5
BA
100
AcDbEntity
100
AcDbLine
  8
0
 62
256
370
-1
 48
1.0
  6
BYLAYER
 10
-12.8011999999999997
 20
-18.8021999999999991
 30
0.0
 11
-12.7721
 21
-18.9091999999999985
 31
0.0
  0
LINE
  5
BB
100
AcDbEntity
100
AcDbLine
  8
0
 62
256
370
-1
 48
1.0
  6
BYLAYER
 10
-12.7721
 20
-18.9091999999999985
 30
0.0
 11
-12.7742000000000004
 21
-19.0198999999999998
 31
0.0
  0
LINE
  5
BC
100
AcDbEntity
100
AcDbLine
  8
0
 62
256
370
-1
 48
1.0
  6
BYLAYER
 10
-12.7742000000000004
 20
-19.0198999999999998
 30
0.0
 11
-12.9284999999999997
 21
-19.9338000000000015
 31
0.0
  0
LINE
  5
BD
100
AcDbEntity
100
AcDbLine
  8
0
 62
256
370
-1
 48
1.0
  6
BYLAYER
 10
-12.9284999999999997
 20
-19.9338000000000015
 30
0.0
 11
-12.9306000000000001
 21
-20.0448999999999984
 31
0.0
  0
LINE
  5
BE
100
AcDbEntity
100
AcDbLine
  8
0
 62
256
370
-1
 48
1.0
  6
BYLAYER
 10
-12.9306000000000001
 20
-20.0448999999999984
 30
0.0
 11
-12.9015000000000004
 21
-20.1518000000000015
 31
0.0
  0
LINE
  5
BF
100
AcDbEntity
100
AcDbLine
  8
0
 62
256
370
-1
 48
1.0
  6
BYLAYER
 10
-12.9015000000000004
 20
-20.1518000000000015
 30
0.0
 11
-12.8437999999999999
 21
-20.2483000000000004
 31
0.0
  0
LINE
  5
C0
100
AcDbEntity
100
AcDbLine
  8
0
 62
256
370
-1
 48
1.0
  6
BYLAYER
 10
-12.8437999999999999
 20
-20.2483000000000004
 30
0.0
 11
-12.7835000000000001
 21
-20.3059000000000012
 31
0.0
  0
LINE
  5
C1
100
AcDbEntity
100
AcDbLine
  8
0
 62
256
370
-1
 48
1.0
  6
BYLAYER
 10
-12.7835000000000001
 20
-20.3059000000000012
 30
0.0
 11
-12.0006000000000004
 21
-20.7856999999999985
 31
0.0
  0
LINE
  5
C2
100
AcDbEntity
100
AcDbLine
  8
0
 62
256
370
-1
 48
1.0
  6
BYLAYER
 10
-12.0006000000000004
 20
-20.7856999999999985
 30
0.0
 11
-11.1936
 21
-21.2238000000000007
 31
0.0
  0
LINE
  5
C3
100
AcDbEntity
100
AcDbLine
  8
0
 62
256
370
-1
 48
1.0
  6
BYLAYER
 10
-11.1936
 20
-21.2238000000000007
 30
0.0
 11
-11.1135000000000002
 21
-21.2472999999999992
 31
0.0
  0
LINE
  5
C4
100
AcDbEntity
100
AcDbLine
  8
0
 62
256
370
-1
 48
1.0
  6
BYLAYER
 10
-11.1135000000000002
 20
-21.2472999999999992
 30
0.0
 11
-11.0010999999999992
 21
-21.2489999999999988
 31
0.0
  0
LINE
  5
C5
100
AcDbEntity
100
AcDbLine
  8
0
 62
256
370
-1
 48
1.0
  6
BYLAYER
 10
-11.0010999999999992
 20
-21.2489999999999988
 30
0.0
 11
-10.8940000000000001
 21
-21.2207000000000008
 31
0.0
  0
LINE
  5
C6
100
AcDbEntity
100
AcDbLine
  8
0
 62
256
370
-1
 48
1.0
  6
BYLAYER
 10
-10.8940000000000001
 20
-21.2207000000000008
 30
0.0
 11
-10.7988999999999997
 21
-21.1632999999999996
 31
0.0
  0
LINE
  5
C7
100
AcDbEntity
100
AcDbLine
  8
0
 62
256
370
-1
 48
1.0
  6
BYLAYER
 10
-10.7988999999999997
 20
-21.1632999999999996
 30
0.0
 11
-10.0846
 21
-20.5727000000000011
 31
0.0
  0
LINE
  5
C8
100
AcDbEntity
100
AcDbLine
  8
0
 62
256
370
-1
 48
1.0
  6
BYLAYER
 10
-10.0846
 20
-20.5727000000000011
 30
0.0
 11
-9.9897500000000008
 21
-20.5155999999999992
 31
0.0
  0
LINE
  5
C9
100
AcDbEntity
100
AcDbLine
  8
0
 62
256
370
-1
 48
1.0
  6
BYLAYER
 10
-9.9897500000000008
 20
-20.5155999999999992
 30
0.0
 11
-9.8826000000000001
 21
-20.4873000000000012
 31
0.0
  0
LINE
  5
CA
100
AcDbEntity
100
AcDbLine
  8
0
 62
256
370
-1
 48
1.0
  6
BYLAYER
 10
-9.8826000000000001
 20
-20.4873000000000012
 30
0.0
 11
-9.7700099999999992
 21
-20.488900000000001
 31
0.0
  0
LINE
  5
CB
100
AcDbEntity
100
AcDbLine
  8
0
 62
256
370
-1
 48
1.0
  6
BYLAYER
 10
-9.7700099999999992
 20
-20.488900000000001
 30
0.0
 11
-9.65883
 21
-20.5213000000000001
 31
0.0
  0
LINE
  5
CC
100
AcDbEntity
100
AcDbLine
  8
0
 62
256
370
-1
 48
1.0
  6
BYLAYER
 10
-9.65883
 20
-20.5213000000000001
 30
0.0
 11
-8.7873000000000001
 21
-20.9094000000000015
 31
0.0
  0
LINE
  5
CD
100
AcDbEntity
100
AcDbLine
  8
0
 62
256
370
-1
 48
1.0
  6
BYLAYER
 10
-8.7873000000000001
 20
-20.9094000000000015
 30
0.0
 11
-8.6888000000000005
 21
-20.9703000000000017
 31
0.0
  0
LINE
  5
CE
100
AcDbEntity
100
AcDbLine
  8
0
 62
256
370
-1
 48
1.0
  6
BYLAYER
 10
-8.6888000000000005
 20
-20.9703000000000017
 30
0.0
 11
-8.6122800000000002
 21
-21.0529000000000011
 31
0.0
  0
LINE
  5
CF
100
AcDbEntity
100
AcDbLine
  8
0
 62
256
370
-1
 48
1.0
  6
BYLAYER
 10
-8.6122800000000002
 20
-21.0529000000000011
 30
0.0
 11
-8.5615900000000007
 21
-21.1513999999999989
 31
0.0
  0
LINE
  5
D0
100
AcDbEntity
100
AcDbLine
  8
0
 62
256
370
-1
 48
1.0
  6
BYLAYER
 10
-8.5615900000000007
 20
-21.1513999999999989
 30
0.0
 11
-8.5406399999999998
 21
-21.2601000000000013
 31
0.0
  0
LINE
  5
D1
100
AcDbEntity
100
AcDbLine
  8
0
 62
256
370
-1
 48
1.0
  6
BYLAYER
 10
-8.5406399999999998
 20
-21.2601000000000013
 30
0.0
 11
-8.5015400000000003
 21
-22.1861999999999995
 31
0.0
  0
LINE
  5
D2
100
AcDbEntity
100
AcDbLine
  8
0
 62
256
370
-1
 48
1.0
  6
BYLAYER
 10
-8.5015400000000003
 20
-22.1861999999999995
 30
0.0
 11
-8.4805200000000003
 21
-22.295300000000001
 31
0.0
  0
LINE
  5
D3
100
AcDbEntity
100
AcDbLine
  8
0
 62
256
370
-1
 48
1.0
  6
BYLAYER
 10
-8.4805200000000003
 20
-22.295300000000001
 30
0.0
 11
-8.4297500000000003
 21
-22.3937999999999988
 31
0.0
  0
LINE
  5
D4
100
AcDbEntity
100
AcDbLine
  8
0
 62
256
370
-1
 48
1.0
  6
BYLAYER
 10
-8.4297500000000003
 20
-22.3937999999999988
 30
0.0
 11
-8.3532200000000003
 21
-22.4761999999999986
 31
0.0
  0
LINE
  5
D5
100
AcDbEntity
100
AcDbLine
  8
0
 62
256
370
-1
 48
1.0
  6
BYLAYER
 10
-8.3532200000000003
 20
-22.4761999999999986
 30
0.0
 11
-8.2823700000000002
 21
-22.5199999999999996
 31
0.0
  0
LINE
  5
D6
100
AcDbEntity
100
AcDbLine
  8
0
 62
256
370
-1
 48
1.0
  6
BYLAYER
 10
-8.2823700000000002
 20
-22.5199999999999996
 30
0.0
 11
-7.4167800000000002
 21
-22.8264999999999993
 31
0.0
  0
LINE
  5
D7
100
AcDbEntity
100
AcDbLine
  8
0
 62
256
370
-1
 48
1.0
  6
BYLAYER
 10
-7.4167800000000002
 20
-22.8264999999999993
 30
0.0
 11
-6.5363199999999999
 21
-23.087299999999999
 31
0.0
  0
LINE
  5
D8
100
AcDbEntity
100
AcDbLine
  8
0
 62
256
370
-1
 48
1.0
  6
BYLAYER
 10
-6.5363199999999999
 20
-23.087299999999999
 30
0.0
 11
-6.4531299999999998
 21
-23.0935999999999986
 31
0.0
  0
LINE
  5
D9
100
AcDbEntity
100
AcDbLine
  8
0
 62
256
370
-1
 48
1.0
  6
BYLAYER
 10
-6.4531299999999998
 20
-23.0935999999999986
 30
0.0
 11
-6.3428000000000004
 21
-23.0718999999999994
 31
0.0
  0
LINE
  5
DA
100
AcDbEntity
100
AcDbLine
  8
0
 62
256
370
-1
 48
1.0
  6
BYLAYER
 10
-6.3428000000000004
 20
-23.0718999999999994
 30
0.0
 11
-6.2439
 21
-23.0219999999999985
 31
0.0
  0
LINE
  5
DB
100
AcDbEntity
100
AcDbLine
  8
0
 62
256
370
-1
 48
1.0
  6
BYLAYER
 10
-6.2439
 20
-23.0219999999999985
 30
0.0
 11
-6.16282
 21
-22.9461000000000013
 31
0.0
  0
LINE
  5
DC
100
AcDbEntity
100
AcDbLine
  8
0
 62
256
370
-1
 48
1.0
  6
BYLAYER
 10
-6.16282
 20
-22.9461000000000013
 30
0.0
 11
-5.5868700000000002
 21
-22.2198999999999991
 31
0.0
  0
LINE
  5
DD
100
AcDbEntity
100
AcDbLine
  8
0
 62
256
370
-1
 48
1.0
  6
BYLAYER
 10
-5.5868700000000002
 20
-22.2198999999999991
 30
0.0
 11
-5.5060200000000004
 21
-22.1442000000000014
 31
0.0
  0
LINE
  5
DE
100
AcDbEntity
100
AcDbLine
  8
0
 62
256
370
-1
 48
1.0
  6
BYLAYER
 10
-5.5060200000000004
 20
-22.1442000000000014
 30
0.0
 11
-5.4070900000000002
 21
-22.0943000000000005
 31
0.0
  0
LINE
  5
DF
100
AcDbEntity
100
AcDbLine
  8
0
 62
256
370
-1
 48
1.0
  6
BYLAYER
 10
-5.4070900000000002
 20
-22.0943000000000005
 30
0.0
 11
-5.2966300000000004
 21
-22.0725000000000016
 31
0.0
  0
LINE
  5
E0
100
AcDbEntity
100
AcDbLine
  8
0
 62
256
370
-1
 48
1.0
  6
BYLAYER
 10
-5.2966300000000004
 20
-22.0725000000000016
 30
0.0
 11
-5.1811400000000001
 21
-22.0810999999999993
 31
0.0
  0
LINE
  5
E1
100
AcDbEntity
100
AcDbLine
  8
0
 62
256
370
-1
 48
1.0
  6
BYLAYER
 10
-5.1811400000000001
 20
-22.0810999999999993
 30
0.0
 11
-4.2479699999999996
 21
-22.279399999999999
 31
0.0
  0
LINE
  5
E2
100
AcDbEntity
100
AcDbLine
  8
0
 62
256
370
-1
 48
1.0
  6
BYLAYER
 10
-4.2479699999999996
 20
-22.279399999999999
 30
0.0
 11
-4.1389699999999996
 21
-22.3185000000000002
 31
0.0
  0
LINE
  5
E3
100
AcDbEntity
100
AcDbLine
  8
0
 62
256
370
-1
 48
1.0
  6
BYLAYER
 10
-4.1389699999999996
 20
-22.3185000000000002
 30
0.0
 11
-4.0469400000000002
 21
-22.3834000000000017
 31
0.0
  0
LINE
  5
E4
100
AcDbEntity
100
AcDbLine
  8
0
 62
256
370
-1
 48
1.0
  6
BYLAYER
 10
-4.0469400000000002
 20
-22.3834000000000017
 30
0.0
 11
-3.9768699999999999
 21
-22.4693000000000005
 31
0.0
  0
LINE
  5
E5
100
AcDbEntity
100
AcDbLine
  8
0
 62
256
370
-1
 48
1.0
  6
BYLAYER
 10
-3.9768699999999999
 20
-22.4693000000000005
 30
0.0
 11
-3.93377
 21
-22.571200000000001
 31
0.0
  0
LINE
  5
E6
100
AcDbEntity
100
AcDbLine
  8
0
 62
256
370
-1
 48
1.0
  6
BYLAYER
 10
-3.93377
 20
-22.571200000000001
 30
0.0
 11
-3.7029899999999998
 21
-23.4689000000000014
 31
0.0
  0
LINE
  5
E7
100
AcDbEntity
100
AcDbLine
  8
0
 62
256
370
-1
 48
1.0
  6
BYLAYER
 10
-3.7029899999999998
 20
-23.4689000000000014
 30
0.0
 11
-3.6597499999999998
 21
-23.5713000000000008
 31
0.0
  0
LINE
  5
E8
100
AcDbEntity
100
AcDbLine
  8
0
 62
256
370
-1
 48
1.0
  6
BYLAYER
 10
-3.6597499999999998
 20
-23.5713000000000008
 30
0.0
 11
-3.58961
 21
-23.6570999999999998
 31
0.0
  0
LINE
  5
E9
100
AcDbEntity
100
AcDbLine
  8
0
 62
256
370
-1
 48
1.0
  6
BYLAYER
 10
-3.58961
 20
-23.6570999999999998
 30
0.0
 11
-3.49762
 21
-23.7218000000000018
 31
0.0
  0
LINE
  5
EA
100
AcDbEntity
100
AcDbLine
  8
0
 62
256
370
-1
 48
1.0
  6
BYLAYER
 10
-3.49762
 20
-23.7218000000000018
 30
0.0
 11
-3.4192100000000001
 21
-23.7499000000000002
 31
0.0
  0
LINE
  5
EB
100
AcDbEntity
100
AcDbLine
  8
0
 62
256
370
-1
 48
1.0
  6
BYLAYER
 10
-3.4192100000000001
 20
-23.7499000000000002
 30
0.0
 11
-2.50881
 21
-23.8697000000000017
 31
0.0
  0
LINE
  5
EC
100
AcDbEntity
100
AcDbLine
  8
0
 62
256
370
-1
 48
1.0
  6
BYLAYER
 10
-2.50881
 20
-23.8697000000000017
 30
0.0
 11
-1.5933600000000001
 21
-23.9418000000000006
 31
0.0
  0
LINE
  5
ED
100
AcDbEntity
100
AcDbLine
  8
0
 62
256
370
-1
 48
1.0
  6
BYLAYER
 10
-1.5933600000000001
 20
-23.9418000000000006
 30
0.0
 11
-1.5106900000000001
 21
-23.9305999999999983
 31
0.0
  0
LINE
  5
EE
100
AcDbEntity
100
AcDbLine
  8
0
 62
256
370
-1
 48
1.0
  6
BYLAYER
 10
-1.5106900000000001
 20
-23.9305999999999983
 30
0.0
 11
-1.4072800000000001
 21
-23.8863999999999983
 31
0.0
  0
LINE
  5
EF
100
AcDbEntity
100
AcDbLine
  8
0
 62
256
370
-1
 48
1.0
  6
BYLAYER
 10
-1.4072800000000001
 20
-23.8863999999999983
 30
0.0
 11
-1.3209200000000001
 21
-23.8170999999999999
 31
0.0
  0
LINE
  5
F0
100
AcDbEntity
100
AcDbLine
  8
0
 62
256
370
-1
 48
1.0
  6
BYLAYER
 10
-1.3209200000000001
 20
-23.8170999999999999
 30
0.0
 11
-1.25739
 21
-23.7259999999999991
 31
0.0
  0
LINE
  5
F1
100
AcDbEntity
100
AcDbLine
  8
0
 62
256
370
-1
 48
1.0
  6
BYLAYER
 10
-1.25739
 20
-23.7259999999999991
 30
0.0
 11
-0.845015
 21
-22.895900000000001
 31
0.0
  0
LINE
  5
F2
100
AcDbEntity
100
AcDbLine
  8
0
 62
256
370
-1
 48
1.0
  6
BYLAYER
 10
-0.845015
 20
-22.895900000000001
 30
0.0
 11
-0.781652
 21
-22.8050999999999995
 31
0.0
  0
LINE
  5
F3
100
AcDbEntity
100
AcDbLine
  8
0
 62
256
370
-1
 48
1.0
  6
BYLAYER
 10
-0.781652
 20
-22.8050999999999995
 30
0.0
 11
-0.695269
 21
-22.7357000000000014
 31
0.0
  0
LINE
  5
F4
100
AcDbEntity
100
AcDbLine
  8
0
 62
256
370
-1
 48
1.0
  6
BYLAYER
 10
-0.695269
 20
-22.7357000000000014
 30
0.0
 11
-0.591763
 21
-22.6914000000000016
 31
0.0
  0
LINE
  5
F5
100
AcDbEntity
100
AcDbLine
  8
0
 62
256
370
-1
 48
1.0
  6
BYLAYER
 10
-0.591763
 20
-22.6914000000000016
 30
0.0
 11
-0.477007
 21
-22.6757999999999988
 31
0.0
  0
LINE
  5
F6
100
AcDbEntity
100
AcDbLine
  8
0
 62
256
370
-1
 48
1.0
  6
BYLAYER
 10
-0.477007
 20
-22.6757999999999988
 30
0.0
 11
0.477007
 21
-22.6757999999999988
 31
0.0
  0
LINE
  5
F7
100
AcDbEntity
100
AcDbLine
  8
0
 62
256
370
-1
 48
1.0
  6
BYLAYER
 10
0.477007
 20
-22.6757999999999988
 30
0.0
 11
0.591763
 21
-22.6914000000000016
 31
0.0
  0
LINE
  5
F8
100
AcDbEntity
100
AcDbLine
  8
0
 62
256
370
-1
 48
1.0
  6
BYLAYER
 10
0.591763
 20
-22.6914000000000016
 30
0.0
 11
0.695269
 21
-22.7357000000000014
 31
0.0
  0
LINE
  5
F9
100
AcDbEntity
100
AcDbLine
  8
0
 62
256
370
-1
 48
1.0
  6
BYLAYER
 10
0.695269
 20
-22.7357000000000014
 30
0.0
 11
0.781652
 21
-22.8050999999999995
 31
0.0
  0
LINE
  5
FA
100
AcDbEntity
100
AcDbLine
  8
0
 62
256
370
-1
 48
1.0
  6
BYLAYER
 10
0.781652
 20
-22.8050999999999995
 30
0.0
 11
0.845015
 21
-22.895900000000001
 31
0.0
  0
LINE
  5
FB
100
AcDbEntity
100
AcDbLine
  8
0
 62
256
370
-1
 48
1.0
  6
BYLAYER
 10
0.845015
 20
-22.895900000000001
 30
0.0
 11
1.25739
 21
-23.7259999999999991
 31
0.0
  0
LINE
  5
FC
100
AcDbEntity
100
AcDbLine
  8
0
 62
256
370
-1
 48
1.0
  6
BYLAYER
 10
1.25739
 20
-23.7259999999999991
 30
0.0
 11
1.3209599999999999
 21
-23.8170999999999999
 31
0.0
  0
LINE
  5
FD
100
AcDbEntity
100
AcDbLine
  8
0
 62
256
370
-1
 48
1.0
  6
BYLAYER
 10
1.3209599999999999
 20
-23.8170999999999999
 30
0.0
 11
1.40741
 21
-23.8863999999999983
 31
0.0
  0
LINE
  5
FE
100
AcDbEntity
100
AcDbLine
  8
0
 62
256
370
-1
 48
1.0
  6
BYLAYER
 10
1.40741
 20
-23.8863999999999983
 30
0.0
 11
1.51085
 21
-23.9305999999999983
 31
0.0
  0
LINE
  5
FF
100
AcDbEntity
100
AcDbLine
  8
0
 62
256
370
-1
 48
1.0
  6
BYLAYER
 10
1.51085
 20
-23.9305999999999983
 30
0.0
 11
1.59338
 21
-23.9418000000000006
 31
0.0
  0
LINE
  5
100
100
AcDbEntity
100
AcDbLine
  8
0
 62
256
370
-1
 48
1.0
  6
BYLAYER
 10
1.59338
 20
-23.9418000000000006
 30
0.0
 11
2.50881
 21
-23.8697000000000017
 31
0.0
  0
LINE
  5
101
100
AcDbEntity
100
AcDbLine
  8
0
 62
256
370
-1
 48
1.0
  6
BYLAYER
 10
2.50881
 20
-23.8697000000000017
 30
0.0
 11
3.4192399999999998
 21
-23.7499000000000002
 31
0.0
  0
LINE
  5
102
100
AcDbEntity
100
AcDbLine
  8
0
 62
256
370
-1
 48
1.0
  6
BYLAYER
 10
3.4192399999999998
 20
-23.7499000000000002
 30
0.0
 11
3.4977800000000001
 21
-23.7218000000000018
 31
0.0
  0
LINE
  5
103
100
AcDbEntity
100
AcDbLine
  8
0
 62
256
370
-1
 48
1.0
  6
BYLAYER
 10
3.4977800000000001
 20
-23.7218000000000018
 30
0.0
 11
3.5897399999999999
 21
-23.6570999999999998
 31
0.0
  0
LINE
  5
104
100
AcDbEntity
100
AcDbLine
  8
0
 62
256
370
-1
 48
1.0
  6
BYLAYER
 10
3.5897399999999999
 20
-23.6570999999999998
 30
0.0
 11
3.6598000000000002
 21
-23.5713000000000008
 31
0.0
  0
LINE
  5
105
100
AcDbEntity
100
AcDbLine
  8
0
 62
256
370
-1
 48
1.0
  6
BYLAYER
 10
3.6598000000000002
 20
-23.5713000000000008
 30
0.0
 11
3.7029899999999998
 21
-23.4689000000000014
 31
0.0
  0
LINE
  5
106
100
AcDbEntity
100
AcDbLine
  8
0
 62
256
370
-1
 48
1.0
  6
BYLAYER
 10
3.7029899999999998
 20
-23.4689000000000014
 30
0.0
 11
3.93377
 21
-22.571200000000001
 31
0.0
  0
LINE
  5
107
100
AcDbEntity
100
AcDbLine
  8
0
 62
256
370
-1
 48
1.0
  6
BYLAYER
 10
3.93377
 20
-22.571200000000001
 30
0.0
 11
3.9768699999999999
 21
-22.4693000000000005
 31
0.0
  0
LINE
  5
108
100
AcDbEntity
100
AcDbLine
  8
0
 62
256
370
-1
 48
1.0
  6
BYLAYER
 10
3.9768699999999999
 20
-22.4693000000000005
 30
0.0
 11
4.0469400000000002
 21
-22.3834000000000017
 31
0.0
  0
LINE
  5
109
100
AcDbEntity
100
AcDbLine
  8
0
 62
256
370
-1
 48
1.0
  6
BYLAYER
 10
4.0469400000000002
 20
-22.3834000000000017
 30
0.0
 11
4.1389699999999996
 21
-22.3185000000000002
 31
0.0
  0
LINE
  5
10A
100
AcDbEntity
100
AcDbLine
  8
0
 62
256
370
-1
 48
1.0
  6
BYLAYER
 10
4.1389699999999996
 20
-22.3185000000000002
 30
0.0
 11
4.2479699999999996
 21
-22.279399999999999
 31
0.0
  0
LINE
  5
10B
100
AcDbEntity
100
AcDbLine
  8
0
 62
256
370
-1
 48
1.0
  6
BYLAYER
 10
4.2479699999999996
 20
-22.279399999999999
 30
0.0
 11
5.1811400000000001
 21
-22.0810999999999993
 31
0.0
  0
LINE
  5
10C
100
AcDbEntity
100
AcDbLine
  8
0
 62
256
370
-1
 48
1.0
  6
BYLAYER
 10
5.1811400000000001
 20
-22.0810999999999993
 30
0.0
 11
5.2966300000000004
 21
-22.0725000000000016
 31
0.0
  0
LINE
  5
10D
100
AcDbEntity
100
AcDbLine
  8
0
 62
256
370
-1
 48
1.0
  6
BYLAYER
 10
5.2966300000000004
 20
-22.0725000000000016
 30
0.0
 11
5.4070900000000002
 21
-22.0943000000000005
 31
0.0
  0
LINE
  5
10E
100
AcDbEntity
100
AcDbLine
  8
0
 62
256
370
-1
 48
1.0
  6
BYLAYER
 10
5.4070900000000002
 20
-22.0943000000000005
 30
0.0
 11
5.5060200000000004
 21
-22.1442000000000014
 31
0.0
  0
LINE
  5
10F
100
AcDbEntity
100
AcDbLine
  8
0
 62
256
370
-1
 48
1.0
  6
BYLAYER
 10
5.5060200000000004
 20
-22.1442000000000014
 30
0.0
 11
5.5868700000000002
 21
-22.2198999999999991
 31
0.0
  0
LINE
  5
110
100
AcDbEntity
100
AcDbLine
  8
0
 62
256
370
-1
 48
1.0
  6
BYLAYER
 10
5.5868700000000002
 20
-22.2198999999999991
 30
0.0
 11
6.16282
 21
-22.9461000000000013
 31
0.0
  0
LINE
  5
111
100
AcDbEntity
100
AcDbLine
  8
0
 62
256
370
-1
 48
1.0
  6
BYLAYER
 10
6.16282
 20
-22.9461000000000013
 30
0.0
 11
6.2439499999999999
 21
-23.0219999999999985
 31
0.0
  0
LINE
  5
112
100
AcDbEntity
100
AcDbLine
  8
0
 62
256
370
-1
 48
1.0
  6
BYLAYER
 10
6.2439499999999999
 20
-23.0219999999999985
 30
0.0
 11
6.34293
 21
-23.0717999999999996
 31
0.0
  0
LINE
  5
113
100
AcDbEntity
100
AcDbLine
  8
0
 62
256
370
-1
 48
1.0
  6
BYLAYER
 10
6.34293
 20
-23.0717999999999996
 30
0.0
 11
6.45329
 21
-23.0935999999999986
 31
0.0
  0
LINE
  5
114
100
AcDbEntity
100
AcDbLine
  8
0
 62
256
370
-1
 48
1.0
  6
BYLAYER
 10
6.45329
 20
-23.0935999999999986
 30
0.0
 11
6.53634
 21
-23.087299999999999
 31
0.0
  0
LINE
  5
115
100
AcDbEntity
100
AcDbLine
  8
0
 62
256
370
-1
 48
1.0
  6
BYLAYER
 10
6.53634
 20
-23.087299999999999
 30
0.0
 11
7.4167800000000002
 21
-22.8264999999999993
 31
0.0
  0
LINE
  5
116
100
AcDbEntity
100
AcDbLine
  8
0
 62
256
370
-1
 48
1.0
  6
BYLAYER
 10
7.4167800000000002
 20
-22.8264999999999993
 30
0.0
 11
8.2823899999999995
 21
-22.5199999999999996
 31
0.0
  0
LINE
  5
117
100
AcDbEntity
100
AcDbLine
  8
0
 62
256
370
-1
 48
1.0
  6
BYLAYER
 10
8.2823899999999995
 20
-22.5199999999999996
 30
0.0
 11
8.35337
 21
-22.4761999999999986
 31
0.0
  0
LINE
  5
118
100
AcDbEntity
100
AcDbLine
  8
0
 62
256
370
-1
 48
1.0
  6
BYLAYER
 10
8.35337
 20
-22.4761999999999986
 30
0.0
 11
8.4298699999999993
 21
-22.3936999999999991
 31
0.0
  0
LINE
  5
119
100
AcDbEntity
100
AcDbLine
  8
0
 62
256
370
-1
 48
1.0
  6
BYLAYER
 10
8.4298699999999993
 20
-22.3936999999999991
 30
0.0
 11
8.4805600000000005
 21
-22.2952000000000012
 31
0.0
  0
LINE
  5
11A
100
AcDbEntity
100
AcDbLine
  8
0
 62
256
370
-1
 48
1.0
  6
BYLAYER
 10
8.4805600000000005
 20
-22.2952000000000012
 30
0.0
 11
8.5015400000000003
 21
-22.1861999999999995
 31
0.0
  0
LINE
  5
11B
100
AcDbEntity
100
AcDbLine
  8
0
 62
256
370
-1
 48
1.0
  6
BYLAYER
 10
8.5015400000000003
 20
-22.1861999999999995
 30
0.0
 11
8.5406399999999998
 21
-21.2601000000000013
 31
0.0
  0
LINE
  5
11C
100
AcDbEntity
100
AcDbLine
  8
0
 62
256
370
-1
 48
1.0
  6
BYLAYER
 10
8.5406399999999998
 20
-21.2601000000000013
 30
0.0
 11
8.5615900000000007
 21
-21.1513999999999989
 31
0.0
  0
LINE
  5
11D
100
AcDbEntity
100
AcDbLine
  8
0
 62
256
370
-1
 48
1.0
  6
BYLAYER
 10
8.5615900000000007
 20
-21.1513999999999989
 30
0.0
 11
8.6122800000000002
 21
-21.0529000000000011
 31
0.0
  0
LINE
  5
11E
100
AcDbEntity
100
AcDbLine
  8
0
 62
256
370
-1
 48
1.0
  6
BYLAYER
 10
8.6122800000000002
 20
-21.0529000000000011
 30
0.0
 11
8.6888000000000005
 21
-20.9703000000000017
 31
0.0
  0
LINE
  5
11F
100
AcDbEntity
100
AcDbLine
  8
0
 62
256
370
-1
 48
1.0
  6
BYLAYER
 10
8.6888000000000005
 20
-20.9703000000000017
 30
0.0
 11
8.7873000000000001
 21
-20.9094000000000015
 31
0.0
  0
LINE
  5
120
100
AcDbEntity
100
AcDbLine
  8
0
 62
256
370
-1
 48
1.0
  6
BYLAYER
 10
8.7873000000000001
 20
-20.9094000000000015
 30
0.0
 11
9.65883
 21
-20.5213000000000001
 31
0.0
  0
LINE
  5
121
100
AcDbEntity
100
AcDbLine
  8
0
 62
256
370
-1
 48
1.0
  6
BYLAYER
 10
9.65883
 20
-20.5213000000000001
 30
0.0
 11
9.7700099999999992
 21
-20.488900000000001
 31
0.0
  0
LINE
  5
122
100
AcDbEntity
100
AcDbLine
  8
0
 62
256
370
-1
 48
1.0
  6
BYLAYER
 10
9.7700099999999992
 20
-20.488900000000001
 30
0.0
 11
9.8826000000000001
 21
-20.4873000000000012
 31
0.0
  0
LINE
  5
123
100
AcDbEntity
100
AcDbLine
  8
0
 62
256
370
-1
 48
1.0
  6
BYLAYER
 10
9.8826000000000001
 20
-20.4873000000000012
 30
0.0
 11
9.9897500000000008
 21
-20.5155999999999992
 31
0.0
  0
LINE
  5
124
100
AcDbEntity
100
AcDbLine
  8
0
 62
256
370
-1
 48
1.0
  6
BYLAYER
 10
9.9897500000000008
 20
-20.5155999999999992
 30
0.0
 11
10.0846
 21
-20.5727000000000011
 31
0.0
  0
LINE
  5
125
100
AcDbEntity
100
AcDbLine
  8
0
 62
256
370
-1
 48
1.0
  6
BYLAYER
 10
10.0846
 20
-20.5727000000000011
 30
0.0
 11
10.7988999999999997
 21
-21.1632999999999996
 31
0.0
  0
LINE
  5
126
100
AcDbEntity
100
AcDbLine
  8
0
 62
256
370
-1
 48
1.0
  6
BYLAYER
 10
10.7988999999999997
 20
-21.1632999999999996
 30
0.0
 11
10.8940000000000001
 21
-21.2207000000000008
 31
0.0
  0
LINE
  5
127
100
AcDbEntity
100
AcDbLine
  8
0
 62
256
370
-1
 48
1.0
  6
BYLAYER
 10
10.8940000000000001
 20
-21.2207000000000008
 30
0.0
 11
11.0012000000000008
 21
-21.248899999999999
 31
0.0
  0
LINE
  5
128
100
AcDbEntity
100
AcDbLine
  8
0
 62
256
370
-1
 48
1.0
  6
BYLAYER
 10
11.0012000000000008
 20
-21.248899999999999
 30
0.0
 11
11.1136999999999997
 21
-21.2471999999999994
 31
0.0
  0
LINE
  5
129
100
AcDbEntity
100
AcDbLine
  8
0
 62
256
370
-1
 48
1.0
  6
BYLAYER
 10
11.1136999999999997
 20
-21.2471999999999994
 30
0.0
 11
11.1936
 21
-21.2238000000000007
 31
0.0
  0
LINE
  5
12A
100
AcDbEntity
100
AcDbLine
  8
0
 62
256
370
-1
 48
1.0
  6
BYLAYER
 10
11.1936
 20
-21.2238000000000007
 30
0.0
 11
12.0006000000000004
 21
-20.7856999999999985
 31
0.0
  0
LINE
  5
12B
100
AcDbEntity
100
AcDbLine
  8
0
 62
256
370
-1
 48
1.0
  6
BYLAYER
 10
12.0006000000000004
 20
-20.7856999999999985
 30
0.0
 11
12.7835999999999999
 21
-20.3059000000000012
 31
0.0
  0
LINE
  5
12C
100
AcDbEntity
100
AcDbLine
  8
0
 62
256
370
-1
 48
1.0
  6
BYLAYER
 10
12.7835999999999999
 20
-20.3059000000000012
 30
0.0
 11
12.8438999999999997
 21
-20.2482000000000006
 31
0.0
  0
LINE
  5
12D
100
AcDbEntity
100
AcDbLine
  8
0
 62
256
370
-1
 48
1.0
  6
BYLAYER
 10
12.8438999999999997
 20
-20.2482000000000006
 30
0.0
 11
12.9016000000000002
 21
-20.1517000000000017
 31
0.0
  0
LINE
  5
12E
100
AcDbEntity
100
AcDbLine
  8
0
 62
256
370
-1
 48
1.0
  6
BYLAYER
 10
12.9016000000000002
 20
-20.1517000000000017
 30
0.0
 11
12.9306999999999999
 21
-20.0447999999999986
 31
0.0
  0
LINE
  5
12F
100
AcDbEntity
100
AcDbLine
  8
0
 62
256
370
-1
 48
1.0
  6
BYLAYER
 10
12.9306999999999999
 20
-20.0447999999999986
 30
0.0
 11
12.9284999999999997
 21
-19.9338000000000015
 31
0.0
  0
LINE
  5
130
100
AcDbEntity
100
AcDbLine
  8
0
 62
256
370
-1
 48
1.0
  6
BYLAYER
 10
12.9284999999999997
 20
-19.9338000000000015
 30
0.0
 11
12.7742000000000004
 21
-19.0198999999999998
 31
0.0
  0
LINE
  5
131
100
AcDbEntity
100
AcDbLine
  8
0
 62
256
370
-1
 48
1.0
  6
BYLAYER
 10
12.7742000000000004
 20
-19.0198999999999998
 30
0.0
 11
12.7721
 21
-18.9091999999999985
 31
0.0
  0
LINE
  5
132
100
AcDbEntity
100
AcDbLine
  8
0
 62
256
370
-1
 48
1.0
  6
BYLAYER
 10
12.7721
 20
-18.9091999999999985
 30
0.0
 11
12.8011999999999997
 21
-18.8021999999999991
 31
0.0
  0
LINE
  5
133
100
AcDbEntity
100
AcDbLine
  8
0
 62
256
370
-1
 48
1.0
  6
BYLAYER
 10
12.8011999999999997
 20
-18.8021999999999991
 30
0.0
 11
12.8589000000000002
 21
-18.7055000000000007
 31
0.0
  0
LINE
  5
134
100
AcDbEntity
100
AcDbLine
  8
0
 62
256
370
-1
 48
1.0
  6
BYLAYER
 10
12.8589000000000002
 20
-18.7055000000000007
 30
0.0
 11
12.9426000000000005
 21
-18.6254999999999988
 31
0.0
  0
LINE
  5
135
100
AcDbEntity
100
AcDbLine
  8
0
 62
256
370
-1
 48
1.0
  6
BYLAYER
 10
12.9426000000000005
 20
-18.6254999999999988
 30
0.0
 11
13.7143999999999995
 21
-18.0646999999999984
 31
0.0
  0
LINE
  5
136
100
AcDbEntity
100
AcDbLine
  8
0
 62
256
370
-1
 48
1.0
  6
BYLAYER
 10
13.7143999999999995
 20
-18.0646999999999984
 30
0.0
 11
13.8163999999999998
 21
-18.0098999999999982
 31
0.0
  0
LINE
  5
137
100
AcDbEntity
100
AcDbLine
  8
0
 62
256
370
-1
 48
1.0
  6
BYLAYER
 10
13.8163999999999998
 20
-18.0098999999999982
 30
0.0
 11
13.9261999999999997
 21
-17.9848999999999997
 31
0.0
  0
LINE
  5
138
100
AcDbEntity
100
AcDbLine
  8
0
 62
256
370
-1
 48
1.0
  6
BYLAYER
 10
13.9261999999999997
 20
-17.9848999999999997
 30
0.0
 11
14.0368999999999993
 21
-17.9903000000000013
 31
0.0
  0
LINE
  5
139
100
AcDbEntity
100
AcDbLine
  8
0
 62
256
370
-1
 48
1.0
  6
BYLAYER
 10
14.0368999999999993
 20
-17.9903000000000013
 30
0.0
 11
14.1415000000000006
 21
-18.0264999999999986
 31
0.0
  0
LINE
  5
13A
100
AcDbEntity
100
AcDbLine
  8
0
 62
256
370
-1
 48
1.0
  6
BYLAYER
 10
14.1415000000000006
 20
-18.0264999999999986
 30
0.0
 11
14.9629999999999992
 21
-18.4556000000000004
 31
0.0
  0
LINE
  5
13B
100
AcDbEntity
100
AcDbLine
  8
0
 62
256
370
-1
 48
1.0
  6
BYLAYER
 10
14.9629999999999992
 20
-18.4556000000000004
 30
0.0
 11
15.0679999999999996
 21
-18.4920000000000009
 31
0.0
  0
LINE
  5
13C
100
AcDbEntity
100
AcDbLine
  8
0
 62
256
370
-1
 48
1.0
  6
BYLAYER
 10
15.0679999999999996
 20
-18.4920000000000009
 30
0.0
 11
15.1786999999999992
 21
-18.4972999999999992
 31
0.0
  0
LINE
  5
13D
100
AcDbEntity
100
AcDbLine
  8
0
 62
256
370
-1
 48
1.0
  6
BYLAYER
 10
15.1786999999999992
 20
-18.4972999999999992
 30
0.0
 11
15.2883999999999993
 21
-18.4722000000000008
 31
0.0
  0
LINE
  5
13E
100
AcDbEntity
100
AcDbLine
  8
0
 62
256
370
-1
 48
1.0
  6
BYLAYER
 10
15.2883999999999993
 20
-18.4722000000000008
 30
0.0
 11
15.3617000000000008
 21
-18.4327000000000005
 31
0.0
  0
LINE
  5
13F
100
AcDbEntity
100
AcDbLine
  8
0
 62
256
370
-1
 48
1.0
  6
BYLAYER
 10
15.3617000000000008
 20
-18.4327000000000005
 30
0.0
 11
16.059899999999999
 21
-17.8364000000000011
 31
0.0
  0
LINE
  5
140
100
AcDbEntity
100
AcDbLine
  8
0
 62
256
370
-1
 48
1.0
  6
BYLAYER
 10
16.059899999999999
 20
-17.8364000000000011
 30
0.0
 11
16.7259999999999991
 21
-17.2042999999999999
 31
0.0
  0
LINE
  5
141
100
AcDbEntity
100
AcDbLine
  8
0
 62
256
370
-1
 48
1.0
  6
BYLAYER
 10
16.7259999999999991
 20
-17.2042999999999999
 30
0.0
 11
16.7730999999999995
 21
-17.1354000000000006
 31
0.0
  0
LINE
  5
142
100
AcDbEntity
100
AcDbLine
  8
0
 62
256
370
-1
 48
1.0
  6
BYLAYER
 10
16.7730999999999995
 20
-17.1354000000000006
 30
0.0
 11
16.8094000000000001
 21
-17.0289999999999999
 31
0.0
  0
LINE
  5
143
100
AcDbEntity
100
AcDbLine
  8
0
 62
256
370
-1
 48
1.0
  6
BYLAYER
 10
16.8094000000000001
 20
-17.0289999999999999
 30
0.0
 11
16.8156999999999996
 21
-16.9183999999999983
 31
0.0
  0
LINE
  5
144
100
AcDbEntity
100
AcDbLine
  8
0
 62
256
370
-1
 48
1.0
  6
BYLAYER
 10
16.8156999999999996
 20
-16.9183999999999983
 30
0.0
 11
16.7905000000000015
 21
-16.8101999999999983
 31
0.0
  0
LINE
  5
145
100
AcDbEntity
100
AcDbLine
  8
0
 62
256
370
-1
 48
1.0
  6
BYLAYER
 10
16.7905000000000015
 20
-16.8101999999999983
 30
0.0
 11
16.4495000000000005
 21
-15.9482999999999997
 31
0.0
  0
LINE
  5
146
100
AcDbEntity
100
AcDbLine
  8
0
 62
256
370
-1
 48
1.0
  6
BYLAYER
 10
16.4495000000000005
 20
-15.9482999999999997
 30
0.0
 11
16.4244999999999983
 21
-15.8405000000000005
 31
0.0
  0
LINE
  5
147
100
AcDbEntity
100
AcDbLine
  8
0
 62
256
370
-1
 48
1.0
  6
BYLAYER
 10
16.4244999999999983
 20
-15.8405000000000005
 30
0.0
 11
16.4307000000000016
 21
-15.7297999999999991
 31
0.0
  0
LINE
  5
148
100
AcDbEntity
100
AcDbLine
  8
0
 62
256
370
-1
 48
1.0
  6
BYLAYER
 10
16.4307000000000016
 20
-15.7297999999999991
 30
0.0
 11
16.4669999999999987
 21
-15.6233000000000004
 31
0.0
  0
LINE
  5
149
100
AcDbEntity
100
AcDbLine
  8
0
 62
256
370
-1
 48
1.0
  6
BYLAYER
 10
16.4669999999999987
 20
-15.6233000000000004
 30
0.0
 11
16.5321999999999996
 21
-15.5274999999999999
 31
0.0
  0
LINE
  5
14A
100
AcDbEntity
100
AcDbLine
  8
0
 62
256
370
-1
 48
1.0
  6
BYLAYER
 10
16.5321999999999996
 20
-15.5274999999999999
 30
0.0
 11
17.1706000000000003
 21
-14.8186
 31
0.0
  0
LINE
  5
14B
100
AcDbEntity
100
AcDbLine
  8
0
 62
256
370
-1
 48
1.0
  6
BYLAYER
 10
17.1706000000000003
 20
-14.8186
 30
0.0
 11
17.2589000000000006
 21
-14.7437000000000005
 31
0.0
  0
LINE
  5
14C
100
AcDbEntity
100
AcDbLine
  8
0
 62
256
370
-1
 48
1.0
  6
BYLAYER
 10
17.2589000000000006
 20
-14.7437000000000005
 30
0.0
 11
17.3611000000000004
 21
-14.6965000000000003
 31
0.0
  0
LINE
  5
14D
100
AcDbEntity
100
AcDbLine
  8
0
 62
256
370
-1
 48
1.0
  6
BYLAYER
 10
17.3611000000000004
 20
-14.6965000000000003
 30
0.0
 11
17.4705000000000013
 21
-14.6786999999999992
 31
0.0
  0
LINE
  5
14E
100
AcDbEntity
100
AcDbLine
  8
0
 62
256
370
-1
 48
1.0
  6
BYLAYER
 10
17.4705000000000013
 20
-14.6786999999999992
 30
0.0
 11
17.5804000000000009
 21
-14.6923999999999992
 31
0.0
  0
LINE
  5
14F
100
AcDbEntity
100
AcDbLine
  8
0
 62
256
370
-1
 48
1.0
  6
BYLAYER
 10
17.5804000000000009
 20
-14.6923999999999992
 30
0.0
 11
18.4731999999999985
 21
-14.9413999999999998
 31
0.0
  0
LINE
  5
150
100
AcDbEntity
100
AcDbLine
  8
0
 62
256
370
-1
 48
1.0
  6
BYLAYER
 10
18.4731999999999985
 20
-14.9413999999999998
 30
0.0
 11
18.583400000000001
 21
-14.9550999999999998
 31
0.0
  0
LINE
  5
151
100
AcDbEntity
100
AcDbLine
  8
0
 62
256
370
-1
 48
1.0
  6
BYLAYER
 10
18.583400000000001
 20
-14.9550999999999998
 30
0.0
 11
18.6927999999999983
 21
-14.9372000000000007
 31
0.0
  0
LINE
  5
152
100
AcDbEntity
100
AcDbLine
  8
0
 62
256
370
-1
 48
1.0
  6
BYLAYER
 10
18.6927999999999983
 20
-14.9372000000000007
 30
0.0
 11
18.7948999999999984
 21
-14.8899000000000008
 31
0.0
  0
LINE
  5
153
100
AcDbEntity
100
AcDbLine
  8
0
 62
256
370
-1
 48
1.0
  6
BYLAYER
 10
18.7948999999999984
 20
-14.8899000000000008
 30
0.0
 11
18.8583999999999996
 21
-14.8361000000000001
 31
0.0
  0
LINE
  5
154
100
AcDbEntity
100
AcDbLine
  8
0
 62
256
370
-1
 48
1.0
  6
BYLAYER
 10
18.8583999999999996
 20
-14.8361000000000001
 30
0.0
 11
19.4174000000000007
 21
-14.1075999999999997
 31
0.0
  0
LINE
  5
155
100
AcDbEntity
100
AcDbLine
  8
0
 62
256
370
-1
 48
1.0
  6
BYLAYER
 10
19.4174000000000007
 20
-14.1075999999999997
 30
0.0
 11
19.9375
 21
-13.3507999999999996
 31
0.0
  0
LINE
  5
156
100
AcDbEntity
100
AcDbLine
  8
0
 62
256
370
-1
 48
1.0
  6
BYLAYER
 10
19.9375
 20
-13.3507999999999996
 30
0.0
 11
19.9692000000000007
 21
-13.2736000000000001
 31
0.0
  0
LINE
  5
157
100
AcDbEntity
100
AcDbLine
  8
0
 62
256
370
-1
 48
1.0
  6
BYLAYER
 10
19.9692000000000007
 20
-13.2736000000000001
 30
0.0
 11
19.9826000000000015
 21
-13.1620000000000008
 31
0.0
  0
LINE
  5
158
100
AcDbEntity
100
AcDbLine
  8
0
 62
256
370
-1
 48
1.0
  6
BYLAYER
 10
19.9826000000000015
 20
-13.1620000000000008
 30
0.0
 11
19.9656999999999982
 21
-13.0525000000000002
 31
0.0
  0
LINE
  5
159
100
AcDbEntity
100
AcDbLine
  8
0
 62
256
370
-1
 48
1.0
  6
BYLAYER
 10
19.9656999999999982
 20
-13.0525000000000002
 30
0.0
 11
19.9186000000000014
 21
-12.9519000000000002
 31
0.0
  0
LINE
  5
15A
100
AcDbEntity
100
AcDbLine
  8
0
 62
256
370
-1
 48
1.0
  6
BYLAYER
 10
19.9186000000000014
 20
-12.9519000000000002
 30
0.0
 11
19.405899999999999
 21
-12.1797000000000004
 31
0.0
  0
LINE
  5
15B
100
AcDbEntity
100
AcDbLine
  8
0
 62
256
370
-1
 48
1.0
  6
BYLAYER
 10
19.405899999999999
 20
-12.1797000000000004
 30
0.0
 11
19.3590000000000018
 21
-12.0794999999999995
 31
0.0
  0
LINE
  5
15C
100
AcDbEntity
100
AcDbLine
  8
0
 62
256
370
-1
 48
1.0
  6
BYLAYER
 10
19.3590000000000018
 20
-12.0794999999999995
 30
0.0
 11
19.3419999999999987
 21
-11.9700000000000006
 31
0.0
  0
LINE
  5
15D
100
AcDbEntity
100
AcDbLine
  8
0
 62
256
370
-1
 48
1.0
  6
BYLAYER
 10
19.3419999999999987
 20
-11.9700000000000006
 30
0.0
 11
19.3553999999999995
 21
-11.8582000000000001
 31
0.0
  0
LINE
  5
15E
100
AcDbEntity
100
AcDbLine
  8
0
 62
256
370
-1
 48
1.0
  6
BYLAYER
 10
19.3553999999999995
 20
-11.8582000000000001
 30
0.0
 11
19.3993000000000002
 21
-11.7509999999999994
 31
0.0
  0
LINE
  5
15F
100
AcDbEntity
100
AcDbLine
  8
0
 62
256
370
-1
 48
1.0
  6
BYLAYER
 10
19.3993000000000002
 20
-11.7509999999999994
 30
0.0
 11
19.8763000000000005
 21
-10.9247999999999994
 31
0.0
  0
LINE
  5
160
100
AcDbEntity
100
AcDbLine
  8
0
 62
256
370
-1
 48
1.0
  6
BYLAYER
 10
19.8763000000000005
 20
-10.9247999999999994
 30
0.0
 11
19.9471999999999987
 21
-10.8331999999999997
 31
0.0
  0
LINE
  5
161
100
AcDbEntity
100
AcDbLine
  8
0
 62
256
370
-1
 48
1.0
  6
BYLAYER
 10
19.9471999999999987
 20
-10.8331999999999997
 30
0.0
 11
20.0372999999999983
 21
-10.7657000000000007
 31
0.0
  0
LINE
  5
162
100
AcDbEntity
100
AcDbLine
  8
0
 62
256
370
-1
 48
1.0
  6
BYLAYER
 10
20.0372999999999983
 20
-10.7657000000000007
 30
0.0
 11
20.1405999999999992
 21
-10.7256
 31
0.0
  0
LINE
  5
163
100
AcDbEntity
100
AcDbLine
  8
0
 62
256
370
-1
 48
1.0
  6
BYLAYER
 10
20.1405999999999992
 20
-10.7256
 30
0.0
 11
20.2509000000000015
 21
-10.7161000000000008
 31
0.0
  0
LINE
  5
164
100
AcDbEntity
100
AcDbLine
  8
0
 62
256
370
-1
 48
1.0
  6
BYLAYER
 10
20.2509000000000015
 20
-10.7161000000000008
 30
0.0
 11
21.1759999999999984
 21
-10.7741000000000007
 31
0.0
  0
LINE
  5
165
100
AcDbEntity
100
AcDbLine
  8
0
 62
256
370
-1
 48
1.0
  6
BYLAYER
 10
21.1759999999999984
 20
-10.7741000000000007
 30
0.0
 11
21.2866999999999997
 21
-10.7645
 31
0.0
  0
LINE
  5
166
100
AcDbEntity
100
AcDbLine
  8
0
 62
256
370
-1
 48
1.0
  6
BYLAYER
 10
21.2866999999999997
 20
-10.7645
 30
0.0
 11
21.3900000000000006
 21
-10.7243999999999993
 31
0.0
  0
LINE
  5
167
100
AcDbEntity
100
AcDbLine
  8
0
 62
256
370
-1
 48
1.0
  6
BYLAYER
 10
21.3900000000000006
 20
-10.7243999999999993
 30
0.0
 11
21.4799000000000007
 21
-10.6569000000000003
 31
0.0
  0
LINE
  5
168
100
AcDbEntity
100
AcDbLine
  8
0
 62
256
370
-1
 48
1.0
  6
BYLAYER
 10
21.4799000000000007
 20
-10.6569000000000003
 30
0.0
 11
21.530899999999999
 21
-10.5909999999999993
 31
0.0
  0
LINE
  5
169
100
AcDbEntity
100
AcDbLine
  8
0
 62
256
370
-1
 48
1.0
  6
BYLAYER
 10
21.530899999999999
 20
-10.5909999999999993
 30
0.0
 11
21.9262000000000015
 21
-9.7621699999999993
 31
0.0
  0
LINE
  5
16A
100
AcDbEntity
100
AcDbLine
  8
0
 62
256
370
-1
 48
1.0
  6
BYLAYER
 10
21.9262000000000015
 20
-9.7621699999999993
 30
0.0
 11
22.2775999999999996
 21
-8.9137900000000005
 31
0.0
  0
LINE
  5
16B
100
AcDbEntity
100
AcDbLine
  8
0
 62
256
370
-1
 48
1.0
  6
BYLAYER
 10
22.2775999999999996
 20
-8.9137900000000005
 30
0.0
 11
22.2925000000000004
 21
-8.8317200000000007
 31
0.0
  0
LINE
  5
16C
100
AcDbEntity
100
AcDbLine
  8
0
 62
256
370
-1
 48
1.0
  6
BYLAYER
 10
22.2925000000000004
 20
-8.8317200000000007
 30
0.0
 11
22.2824999999999989
 21
-8.7197200000000006
 31
0.0
  0
LINE
  5
16D
100
AcDbEntity
100
AcDbLine
  8
0
 62
256
370
-1
 48
1.0
  6
BYLAYER
 10
22.2824999999999989
 20
-8.7197200000000006
 30
0.0
 11
22.2432000000000016
 21
-8.6161499999999993
 31
0.0
  0
LINE
  5
16E
100
AcDbEntity
100
AcDbLine
  8
0
 62
256
370
-1
 48
1.0
  6
BYLAYER
 10
22.2432000000000016
 20
-8.6161499999999993
 30
0.0
 11
22.1762000000000015
 21
-8.5275800000000004
 31
0.0
  0
LINE
  5
16F
100
AcDbEntity
100
AcDbLine
  8
0
 62
256
370
-1
 48
1.0
  6
BYLAYER
 10
22.1762000000000015
 20
-8.5275800000000004
 30
0.0
 11
21.5141999999999989
 21
-7.87887
 31
0.0
  0
LINE
  5
170
100
AcDbEntity
100
AcDbLine
  8
0
 62
256
370
-1
 48
1.0
  6
BYLAYER
 10
21.5141999999999989
 20
-7.87887
 30
0.0
 11
21.4473999999999982
 21
-7.7905600000000002
 31
0.0
  0
LINE
  5
171
100
AcDbEntity
100
AcDbLine
  8
0
 62
256
370
-1
 48
1.0
  6
BYLAYER
 10
21.4473999999999982
 20
-7.7905600000000002
 30
0.0
 11
21.408100000000001
 21
-7.6869500000000004
 31
0.0
  0
LINE
  5
172
100
AcDbEntity
100
AcDbLine
  8
0
 62
256
370
-1
 48
1.0
  6
BYLAYER
 10
21.408100000000001
 20
-7.6869500000000004
 30
0.0
 11
21.3978999999999999
 21
-7.5748199999999999
 31
0.0
  0
LINE
  5
173
100
AcDbEntity
100
AcDbLine
  8
0
 62
256
370
-1
 48
1.0
  6
BYLAYER
 10
21.3978999999999999
 20
-7.5748199999999999
 30
0.0
 11
21.4185000000000016
 21
-7.4608600000000003
 31
0.0
  0
LINE
  5
174
100
AcDbEntity
100
AcDbLine
  8
0
 62
256
370
-1
 48
1.0
  6
BYLAYER
 10
21.4185000000000016
 20
-7.4608600000000003
 30
0.0
 11
21.7133000000000003
 21
-6.5535399999999999
 31
0.0
  0
LINE
  5
175
100
AcDbEntity
100
AcDbLine
  8
0
 62
256
370
-1
 48
1.0
  6
BYLAYER
 10
21.7133000000000003
 20
-6.5535399999999999
 30
0.0
 11
21.7636000000000003
 21
-6.4492099999999999
 31
0.0
  0
LINE
  5
176
100
AcDbEntity
100
AcDbLine
  8
0
 62
256
370
-1
 48
1.0
  6
BYLAYER
 10
21.7636000000000003
 20
-6.4492099999999999
 30
0.0
 11
21.8378000000000014
 21
-6.3644699999999998
 31
0.0
  0
LINE
  5
177
100
AcDbEntity
100
AcDbLine
  8
0
 62
256
370
-1
 48
1.0
  6
BYLAYER
 10
21.8378000000000014
 20
-6.3644699999999998
 30
0.0
 11
21.9304999999999986
 21
-6.3037700000000001
 31
0.0
  0
LINE
  5
178
100
AcDbEntity
100
AcDbLine
  8
0
 62
256
370
-1
 48
1.0
  6
BYLAYER
 10
21.9304999999999986
 20
-6.3037700000000001
 30
0.0
 11
22.0364000000000004
 21
-6.27156
 31
0.0
  0
LINE
  5
179
100
AcDbEntity
100
AcDbLine
  8
0
 62
256
370
-1
 48
1.0
  6
BYLAYER
 10
22.0364000000000004
 20
-6.27156
 30
0.0
 11
22.9532999999999987
 21
-6.1358800000000002
 31
0.0
  0
LINE
  5
17A
100
AcDbEntity
100
AcDbLine
  8
0
 62
256
370
-1
 48
1.0
  6
BYLAYER
 10
22.9532999999999987
 20
-6.1358800000000002
 30
0.0
 11
23.0595999999999997
 21
-6.1035700000000004
 31
0.0
  0
LINE
  5
17B
100
AcDbEntity
100
AcDbLine
  8
0
 62
256
370
-1
 48
1.0
  6
BYLAYER
 10
23.0595999999999997
 20
-6.1035700000000004
 30
0.0
 11
23.1523000000000003
 21
-6.0427900000000001
 31
0.0
  0
LINE
  5
17C
100
AcDbEntity
100
AcDbLine
  8
0
 62
256
370
-1
 48
1.0
  6
BYLAYER
 10
23.1523000000000003
 20
-6.0427900000000001
 30
0.0
 11
23.2261999999999986
 21
-5.9580599999999997
 31
0.0
  0
LINE
  5
17D
100
AcDbEntity
100
AcDbLine
  8
0
 62
256
370
-1
 48
1.0
  6
BYLAYER
 10
23.2261999999999986
 20
-5.9580599999999997
 30
0.0
 11
23.2623999999999995
 21
-5.8830200000000001
 31
0.0
  0
LINE
  5
17E
100
AcDbEntity
100
AcDbLine
  8
0
 62
256
370
-1
 48
1.0
  6
BYLAYER
 10
23.2623999999999995
 20
-5.8830200000000001
 30
0.0
 11
23.476700000000001
 21
-4.9901299999999997
 31
0.0
  0
LINE
  5
17F
100
AcDbEntity
100
AcDbLine
  8
0
 62
256
370
-1
 48
1.0
  6
BYLAYER
 10
23.476700000000001
 20
-4.9901299999999997
 30
0.0
 11
23.6441000000000017
 21
-4.0872299999999999
 31
0.0
  0
LINE
  5
180
100
AcDbEntity
100
AcDbLine
  8
0
 62
256
370
-1
 48
1.0
  6
BYLAYER
 10
23.6441000000000017
 20
-4.0872299999999999
 30
0.0
 11
23.6416000000000004
 21
-4.0038499999999999
 31
0.0
  0
LINE
  5
181
100
AcDbEntity
100
AcDbLine
  8
0
 62
256
370
-1
 48
1.0
  6
BYLAYER
 10
23.6416000000000004
 20
-4.0038499999999999
 30
0.0
 11
23.6084999999999994
 21
-3.8963899999999998
 31
0.0
  0
LINE
  5
182
100
AcDbEntity
100
AcDbLine
  8
0
 62
256
370
-1
 48
1.0
  6
BYLAYER
 10
23.6084999999999994
 20
-3.8963899999999998
 30
0.0
 11
23.5485000000000007
 21
-3.8032400000000002
 31
0.0
  0
LINE
  5
183
100
AcDbEntity
100
AcDbLine
  8
0
 62
256
370
-1
 48
1.0
  6
BYLAYER
 10
23.5485000000000007
 20
-3.8032400000000002
 30
0.0
 11
23.4646000000000008
 21
-3.73054
 31
0.0
  0
LINE
  5
184
100
AcDbEntity
100
AcDbLine
  8
0
 62
256
370
-1
 48
1.0
  6
BYLAYER
 10
23.4646000000000008
 20
-3.73054
 30
0.0
 11
22.6820999999999984
 21
-3.23366
 31
0.0
  0
LINE
  5
185
100
AcDbEntity
100
AcDbLine
  8
0
 62
256
370
-1
 48
1.0
  6
BYLAYER
 10
22.6820999999999984
 20
-3.23366
 30
0.0
 11
22.5985000000000014
 21
-3.1611500000000001
 31
0.0
  0
LINE
  5
186
100
AcDbEntity
100
AcDbLine
  8
0
 62
256
370
-1
 48
1.0
  6
BYLAYER
 10
22.5985000000000014
 20
-3.1611500000000001
 30
0.0
 11
22.5384999999999991
 21
-3.06799
 31
0.0
  0
LINE
  5
187
100
AcDbEntity
100
AcDbLine
  8
0
 62
256
370
-1
 48
1.0
  6
BYLAYER
 10
22.5384999999999991
 20
-3.06799
 30
0.0
 11
22.5051999999999985
 21
-2.96041
 31
0.0
  0
LINE
  5
188
100
AcDbEntity
100
AcDbLine
  8
0
 62
256
370
-1
 48
1.0
  6
BYLAYER
 10
22.5051999999999985
 20
-2.96041
 30
0.0
 11
22.5016999999999996
 21
-2.8446600000000002
 31
0.0
  0
LINE
  5
189
100
AcDbEntity
100
AcDbLine
  8
0
 62
256
370
-1
 48
1.0
  6
BYLAYER
 10
22.5016999999999996
 20
-2.8446600000000002
 30
0.0
 11
22.6014000000000017
 21
-1.8958699999999999
 31
0.0
  0
LINE
  5
18A
100
AcDbEntity
100
AcDbLine
  8
0
 62
256
370
-1
 48
1.0
  6
BYLAYER
 10
22.6014000000000017
 20
-1.8958699999999999
 30
0.0
 11
22.6289000000000016
 21
-1.7833699999999999
 31
0.0
  0
LINE
  5
18B
100
AcDbEntity
100
AcDbLine
  8
0
 62
256
370
-1
 48
1.0
  6
BYLAYER
 10
22.6289000000000016
 20
-1.7833699999999999
 30
0.0
 11
22.6838000000000015
 21
-1.6850700000000001
 31
0.0
  0
LINE
  5
18C
100
AcDbEntity
100
AcDbLine
  8
0
 62
256
370
-1
 48
1.0
  6
BYLAYER
 10
22.6838000000000015
 20
-1.6850700000000001
 30
0.0
 11
22.7619000000000007
 21
-1.6064099999999999
 31
0.0
  0
LINE
  5
18D
100
AcDbEntity
100
AcDbLine
  8
0
 62
256
370
-1
 48
1.0
  6
BYLAYER
 10
22.7619000000000007
 20
-1.6064099999999999
 30
0.0
 11
22.8587999999999987
 21
-1.5528900000000001
 31
0.0
  0
LINE
  5
18E
100
AcDbEntity
100
AcDbLine
  8
0
 62
256
370
-1
 48
1.0
  6
BYLAYER
 10
22.8587999999999987
 20
-1.5528900000000001
 30
0.0
 11
23.7273999999999994
 21
-1.2295400000000001
 31
0.0
  0
LINE
  5
18F
100
AcDbEntity
100
AcDbLine
  8
0
 62
256
370
-1
 48
1.0
  6
BYLAYER
 10
23.7273999999999994
 20
-1.2295400000000001
 30
0.0
 11
23.8247
 21
-1.1758299999999999
 31
0.0
  0
LINE
  5
190
100
AcDbEntity
100
AcDbLine
  8
0
 62
256
370
-1
 48
1.0
  6
BYLAYER
 10
23.8247
 20
-1.1758299999999999
 30
0.0
 11
23.9026999999999994
 21
-1.09711
 31
0.0
  0
LINE
  5
191
100
AcDbEntity
100
AcDbLine
  8
0
 62
256
370
-1
 48
1.0
  6
BYLAYER
 10
23.9026999999999994
 20
-1.09711
 30
0.0
 11
23.9574999999999996
 21
-0.998852
 31
0.0
  0
LINE
  5
192
100
AcDbEntity
100
AcDbLine
  8
0
 62
256
370
-1
 48
1.0
  6
BYLAYER
 10
23.9574999999999996
 20
-0.998852
 30
0.0
 11
23.9771999999999998
 21
-0.91794
 31
0.0
  0
LINE
  5
193
100
AcDbEntity
100
AcDbLine
  8
0
 62
256
370
-1
 48
1.0
  6
BYLAYER
 10
23.9771999999999998
 20
-0.91794
 30
0.0
 11
24.0012000000000008
 21
0.0
 31
0.0
  0
LINE
  5
194
100
AcDbEntity
100
AcDbLine
  8
0
 62
256
370
-1
 48
1.0
  6
BYLAYER
 10
24.0012000000000008
 20
0.0
 30
0.0
 11
23.9771999999999998
 21
0.917968
 31
0.0
  0
LINE
  5
195
100
AcDbEntity
100
AcDbLine
  8
0
 62
256
370
-1
 48
1.0
  6
BYLAYER
 10
23.9771999999999998
 20
0.917968
 30
0.0
 11
23.9573999999999998
 21
0.999014
 31
0.0
  0
LINE
  5
196
100
AcDbEntity
100
AcDbLine
  8
0
 62
256
370
-1
 48
1.0
  6
BYLAYER
 10
23.9573999999999998
 20
0.999014
 30
0.0
 11
23.9026999999999994
 21
1.09724
 31
0.0
  0
LINE
  5
197
100
AcDbEntity
100
AcDbLine
  8
0
 62
256
370
-1
 48
1.0
  6
BYLAYER
 10
23.9026999999999994
 20
1.09724
 30
0.0
 11
23.8247
 21
1.17588
 31
0.0
  0
LINE
  5
198
100
AcDbEntity
100
AcDbLine
  8
0
 62
256
370
-1
 48
1.0
  6
BYLAYER
 10
23.8247
 20
1.17588
 30
0.0
 11
23.7273999999999994
 21
1.2295400000000001
 31
0.0
  0
LINE
  5
199
100
AcDbEntity
100
AcDbLine
  8
0
 62
256
370
-1
 48
1.0
  6
BYLAYER
 10
23.7273999999999994
 20
1.2295400000000001
 30
0.0
 11
22.8587999999999987
 21
1.5528900000000001
 31
0.0
  0
LINE
  5
19A
100
AcDbEntity
100
AcDbLine
  8
0
 62
256
370
-1
 48
1.0
  6
BYLAYER
 10
22.8587999999999987
 20
1.5528900000000001
 30
0.0
 11
22.7619000000000007
 21
1.6064099999999999
 31
0.0
  0
LINE
  5
19B
100
AcDbEntity
100
AcDbLine
  8
0
 62
256
370
-1
 48
1.0
  6
BYLAYER
 10
22.7619000000000007
 20
1.6064099999999999
 30
0.0
 11
22.6838000000000015
 21
1.6850700000000001
 31
0.0
  0
LINE
  5
19C
100
AcDbEntity
100
AcDbLine
  8
0
 62
256
370
-1
 48
1.0
  6
BYLAYER
 10
22.6838000000000015
 20
1.6850700000000001
 30
0.0
 11
22.6289000000000016
 21
1.7833699999999999
 31
0.0
  0
LINE
  5
19D
100
AcDbEntity
100
AcDbLine
  8
0
 62
256
370
-1
 48
1.0
  6
BYLAYER
 10
22.6289000000000016
 20
1.7833699999999999
 30
0.0
 11
22.6014000000000017
 21
1.8958699999999999
 31
0.0
  0
LINE
  5
19E
100
AcDbEntity
100
AcDbLine
  8
0
 62
256
370
-1
 48
1.0
  6
BYLAYER
 10
22.6014000000000017
 20
1.8958699999999999
 30
0.0
 11
22.5016999999999996
 21
2.8446600000000002
 31
0.0
  0
LINE
  5
19F
100
AcDbEntity
100
AcDbLine
  8
0
 62
256
370
-1
 48
1.0
  6
BYLAYER
 10
22.5016999999999996
 20
2.8446600000000002
 30
0.0
 11
22.5051999999999985
 21
2.96041
 31
0.0
  0
LINE
  5
1A0
100
AcDbEntity
100
AcDbLine
  8
0
 62
256
370
-1
 48
1.0
  6
BYLAYER
 10
22.5051999999999985
 20
2.96041
 30
0.0
 11
22.5384999999999991
 21
3.06799
 31
0.0
  0
LINE
  5
1A1
100
AcDbEntity
100
AcDbLine
  8
0
 62
256
370
-1
 48
1.0
  6
BYLAYER
 10
22.5384999999999991
 20
3.06799
 30
0.0
 11
22.5985000000000014
 21
3.1611500000000001
 31
0.0
  0
LINE
  5
1A2
100
AcDbEntity
100
AcDbLine
  8
0
 62
256
370
-1
 48
1.0
  6
BYLAYER
 10
22.5985000000000014
 20
3.1611500000000001
 30
0.0
 11
22.6820999999999984
 21
3.23366
 31
0.0
  0
LINE
  5
1A3
100
AcDbEntity
100
AcDbLine
  8
0
 62
256
370
-1
 48
1.0
  6
BYLAYER
 10
22.6820999999999984
 20
3.23366
 30
0.0
 11
23.4646000000000008
 21
3.73054
 31
0.0
  0
LINE
  5
1A4
100
AcDbEntity
100
AcDbLine
  8
0
 62
256
370
-1
 48
1.0
  6
BYLAYER
 10
23.4646000000000008
 20
3.73054
 30
0.0
 11
23.5485000000000007
 21
3.8032900000000001
 31
0.0
  0
LINE
  5
1A5
100
AcDbEntity
100
AcDbLine
  8
0
 62
256
370
-1
 48
1.0
  6
BYLAYER
 10
23.5485000000000007
 20
3.8032900000000001
 30
0.0
 11
23.6084999999999994
 21
3.8965200000000002
 31
0.0
  0
LINE
  5
1A6
100
AcDbEntity
100
AcDbLine
  8
0
 62
256
370
-1
 48
1.0
  6
BYLAYER
 10
23.6084999999999994
 20
3.8965200000000002
 30
0.0
 11
23.6416000000000004
 21
4.0040100000000001
 31
0.0
  0
LINE
  5
1A7
100
AcDbEntity
100
AcDbLine
  8
0
 62
256
370
-1
 48
1.0
  6
BYLAYER
 10
23.6416000000000004
 20
4.0040100000000001
 30
0.0
 11
23.6441000000000017
 21
4.0872599999999997
 31
0.0
  0
LINE
  5
1A8
100
AcDbEntity
100
AcDbLine
  8
0
 62
256
370
-1
 48
1.0
  6
BYLAYER
 10
23.6441000000000017
 20
4.0872599999999997
 30
0.0
 11
23.476700000000001
 21
4.9901299999999997
 31
0.0
  0
LINE
  5
1A9
100
AcDbEntity
100
AcDbLine
  8
0
 62
256
370
-1
 48
1.0
  6
BYLAYER
 10
23.476700000000001
 20
4.9901299999999997
 30
0.0
 11
23.2623999999999995
 21
5.8830400000000003
 31
0.0
  0
LINE
  5
1AA
100
AcDbEntity
100
AcDbLine
  8
0
 62
256
370
-1
 48
1.0
  6
BYLAYER
 10
23.2623999999999995
 20
5.8830400000000003
 30
0.0
 11
23.2261999999999986
 21
5.9582100000000002
 31
0.0
  0
LINE
  5
1AB
100
AcDbEntity
100
AcDbLine
  8
0
 62
256
370
-1
 48
1.0
  6
BYLAYER
 10
23.2261999999999986
 20
5.9582100000000002
 30
0.0
 11
23.1522000000000006
 21
6.04291
 31
0.0
  0
LINE
  5
1AC
100
AcDbEntity
100
AcDbLine
  8
0
 62
256
370
-1
 48
1.0
  6
BYLAYER
 10
23.1522000000000006
 20
6.04291
 30
0.0
 11
23.0595999999999997
 21
6.1036099999999998
 31
0.0
  0
LINE
  5
1AD
100
AcDbEntity
100
AcDbLine
  8
0
 62
256
370
-1
 48
1.0
  6
BYLAYER
 10
23.0595999999999997
 20
6.1036099999999998
 30
0.0
 11
22.9532999999999987
 21
6.1358800000000002
 31
0.0
  0
LINE
  5
1AE
100
AcDbEntity
100
AcDbLine
  8
0
 62
256
370
-1
 48
1.0
  6
BYLAYER
 10
22.9532999999999987
 20
6.1358800000000002
 30
0.0
 11
22.0364000000000004
 21
6.27156
 31
0.0
  0
LINE
  5
1AF
100
AcDbEntity
100
AcDbLine
  8
0
 62
256
370
-1
 48
1.0
  6
BYLAYER
 10
22.0364000000000004
 20
6.27156
 30
0.0
 11
21.9304999999999986
 21
6.3037700000000001
 31
0.0
  0
LINE
  5
1B0
100
AcDbEntity
100
AcDbLine
  8
0
 62
256
370
-1
 48
1.0
  6
BYLAYER
 10
21.9304999999999986
 20
6.3037700000000001
 30
0.0
 11
21.8378000000000014
 21
6.3644699999999998
 31
0.0
  0
LINE
  5
1B1
100
AcDbEntity
100
AcDbLine
  8
0
 62
256
370
-1
 48
1.0
  6
BYLAYER
 10
21.8378000000000014
 20
6.3644699999999998
 30
0.0
 11
21.7636000000000003
 21
6.4492099999999999
 31
0.0
  0
LINE
  5
1B2
100
AcDbEntity
100
AcDbLine
  8
0
 62
256
370
-1
 48
1.0
  6
BYLAYER
 10
21.7636000000000003
 20
6.4492099999999999
 30
0.0
 11
21.7133000000000003
 21
6.5535399999999999
 31
0.0
  0
LINE
  5
1B3
100
AcDbEntity
100
AcDbLine
  8
0
 62
256
370
-1
 48
1.0
  6
BYLAYER
 10
21.7133000000000003
 20
6.5535399999999999
 30
0.0
 11
21.4185000000000016
 21
7.4608600000000003
 31
0.0
  0
LINE
  5
1B4
100
AcDbEntity
100
AcDbLine
  8
0
 62
256
370
-1
 48
1.0
  6
BYLAYER
 10
21.4185000000000016
 20
7.4608600000000003
 30
0.0
 11
21.3978999999999999
 21
7.5748199999999999
 31
0.0
  0
LINE
  5
1B5
100
AcDbEntity
100
AcDbLine
  8
0
 62
256
370
-1
 48
1.0
  6
BYLAYER
 10
21.3978999999999999
 20
7.5748199999999999
 30
0.0
 11
21.408100000000001
 21
7.6869500000000004
 31
0.0
  0
LINE
  5
1B6
100
AcDbEntity
100
AcDbLine
  8
0
 62
256
370
-1
 48
1.0
  6
BYLAYER
 10
21.408100000000001
 20
7.6869500000000004
 30
0.0
 11
21.4473999999999982
 21
7.7905600000000002
 31
0.0
  0
LINE
  5
1B7
100
AcDbEntity
100
AcDbLine
  8
0
 62
256
370
-1
 48
1.0
  6
BYLAYER
 10
21.4473999999999982
 20
7.7905600000000002
 30
0.0
 11
21.5141999999999989
 21
7.87887
 31
0.0
  0
LINE
  5
1B8
100
AcDbEntity
100
AcDbLine
  8
0
 62
256
370
-1
 48
1.0
  6
BYLAYER
 10
21.5141999999999989
 20
7.87887
 30
0.0
 11
22.1762000000000015
 21
8.5275800000000004
 31
0.0
  0
LINE
  5
1B9
100
AcDbEntity
100
AcDbLine
  8
0
 62
256
370
-1
 48
1.0
  6
BYLAYER
 10
22.1762000000000015
 20
8.5275800000000004
 30
0.0
 11
22.2432000000000016
 21
8.6161899999999996
 31
0.0
  0
LINE
  5
1BA
100
AcDbEntity
100
AcDbLine
  8
0
 62
256
370
-1
 48
1.0
  6
BYLAYER
 10
22.2432000000000016
 20
8.6161899999999996
 30
0.0
 11
22.2823999999999991
 21
8.7198499999999992
 31
0.0
  0
LINE
  5
1BB
100
AcDbEntity
100
AcDbLine
  8
0
 62
256
370
-1
 48
1.0
  6
BYLAYER
 10
22.2823999999999991
 20
8.7198499999999992
 30
0.0
 11
22.2925000000000004
 21
8.83188
 31
0.0
  0
LINE
  5
1BC
100
AcDbEntity
100
AcDbLine
  8
0
 62
256
370
-1
 48
1.0
  6
BYLAYER
 10
22.2925000000000004
 20
8.83188
 30
0.0
 11
22.2775999999999996
 21
8.9138199999999994
 31
0.0
  0
LINE
  5
1BD
100
AcDbEntity
100
AcDbLine
  8
0
 62
256
370
-1
 48
1.0
  6
BYLAYER
 10
22.2775999999999996
 20
8.9138199999999994
 30
0.0
 11
21.9262000000000015
 21
9.7621699999999993
 31
0.0
  0
LINE
  5
1BE
100
AcDbEntity
100
AcDbLine
  8
0
 62
256
370
-1
 48
1.0
  6
BYLAYER
 10
21.9262000000000015
 20
9.7621699999999993
 30
0.0
 11
21.530899999999999
 21
10.5909999999999993
 31
0.0
  0
LINE
  5
1BF
100
AcDbEntity
100
AcDbLine
  8
0
 62
256
370
-1
 48
1.0
  6
BYLAYER
 10
21.530899999999999
 20
10.5909999999999993
 30
0.0
 11
21.4799000000000007
 21
10.657
 31
0.0
  0
LINE
  5
1C0
100
AcDbEntity
100
AcDbLine
  8
0
 62
256
370
-1
 48
1.0
  6
BYLAYER
 10
21.4799000000000007
 20
10.657
 30
0.0
 11
21.3899000000000008
 21
10.7245000000000008
 31
0.0
  0
LINE
  5
1C1
100
AcDbEntity
100
AcDbLine
  8
0
 62
256
370
-1
 48
1.0
  6
BYLAYER
 10
21.3899000000000008
 20
10.7245000000000008
 30
0.0
 11
21.2866999999999997
 21
10.7645999999999997
 31
0.0
  0
LINE
  5
1C2
100
AcDbEntity
100
AcDbLine
  8
0
 62
256
370
-1
 48
1.0
  6
BYLAYER
 10
21.2866999999999997
 20
10.7645999999999997
 30
0.0
 11
21.1759999999999984
 21
10.7741000000000007
 31
0.0
  0
LINE
  5
1C3
100
AcDbEntity
100
AcDbLine
  8
0
 62
256
370
-1
 48
1.0
  6
BYLAYER
 10
21.1759999999999984
 20
10.7741000000000007
 30
0.0
 11
20.2509000000000015
 21
10.7161000000000008
 31
0.0
  0
LINE
  5
1C4
100
AcDbEntity
100
AcDbLine
  8
0
 62
256
370
-1
 48
1.0
  6
BYLAYER
 10
20.2509000000000015
 20
10.7161000000000008
 30
0.0
 11
20.1405999999999992
 21
10.7256
 31
0.0
  0
LINE
  5
1C5
100
AcDbEntity
100
AcDbLine
  8
0
 62
256
370
-1
 48
1.0
  6
BYLAYER
 10
20.1405999999999992
 20
10.7256
 30
0.0
 11
20.0372999999999983
 21
10.7657000000000007
 31
0.0
  0
LINE
  5
1C6
100
AcDbEntity
100
AcDbLine
  8
0
 62
256
370
-1
 48
1.0
  6
BYLAYER
 10
20.0372999999999983
 20
10.7657000000000007
 30
0.0
 11
19.9471999999999987
 21
10.8331999999999997
 31
0.0
  0
LINE
  5
1C7
100
AcDbEntity
100
AcDbLine
  8
0
 62
256
370
-1
 48
1.0
  6
BYLAYER
 10
19.9471999999999987
 20
10.8331999999999997
 30
0.0
 11
19.8763000000000005
 21
10.9247999999999994
 31
0.0
  0
LINE
  5
1C8
100
AcDbEntity
100
AcDbLine
  8
0
 62
256
370
-1
 48
1.0
  6
BYLAYER
 10
19.8763000000000005
 20
10.9247999999999994
 30
0.0
 11
19.3993000000000002
 21
11.7509999999999994
 31
0.0
  0
LINE
  5
1C9
100
AcDbEntity
100
AcDbLine
  8
0
 62
256
370
-1
 48
1.0
  6
BYLAYER
 10
19.3993000000000002
 20
11.7509999999999994
 30
0.0
 11
19.3553999999999995
 21
11.8582000000000001
 31
0.0
  0
LINE
  5
1CA
100
AcDbEntity
100
AcDbLine
  8
0
 62
256
370
-1
 48
1.0
  6
BYLAYER
 10
19.3553999999999995
 20
11.8582000000000001
 30
0.0
 11
19.3419999999999987
 21
11.9700000000000006
 31
0.0
  0
LINE
  5
1CB
100
AcDbEntity
100
AcDbLine
  8
0
 62
256
370
-1
 48
1.0
  6
BYLAYER
 10
19.3419999999999987
 20
11.9700000000000006
 30
0.0
 11
19.3590000000000018
 21
12.0794999999999995
 31
0.0
  0
LINE
  5
1CC
100
AcDbEntity
100
AcDbLine
  8
0
 62
256
370
-1
 48
1.0
  6
BYLAYER
 10
19.3590000000000018
 20
12.0794999999999995
 30
0.0
 11
19.405899999999999
 21
12.1797000000000004
 31
0.0
  0
LINE
  5
1CD
100
AcDbEntity
100
AcDbLine
  8
0
 62
256
370
-1
 48
1.0
  6
BYLAYER
 10
19.405899999999999
 20
12.1797000000000004
 30
0.0
 11
19.9186000000000014
 21
12.9519000000000002
 31
0.0
  0
LINE
  5
1CE
100
AcDbEntity
100
AcDbLine
  8
0
 62
256
370
-1
 48
1.0
  6
BYLAYER
 10
19.9186000000000014
 20
12.9519000000000002
 30
0.0
 11
19.9656999999999982
 21
13.0525000000000002
 31
0.0
  0
LINE
  5
1CF
100
AcDbEntity
100
AcDbLine
  8
0
 62
256
370
-1
 48
1.0
  6
BYLAYER
 10
19.9656999999999982
 20
13.0525000000000002
 30
0.0
 11
19.9826000000000015
 21
13.1621000000000006
 31
0.0
  0
LINE
  5
1D0
100
AcDbEntity
100
AcDbLine
  8
0
 62
256
370
-1
 48
1.0
  6
BYLAYER
 10
19.9826000000000015
 20
13.1621000000000006
 30
0.0
 11
19.969100000000001
 21
13.2736999999999998
 31
0.0
  0
LINE
  5
1D1
100
AcDbEntity
100
AcDbLine
  8
0
 62
256
370
-1
 48
1.0
  6
BYLAYER
 10
19.969100000000001
 20
13.2736999999999998
 30
0.0
 11
19.9375
 21
13.3507999999999996
 31
0.0
  0
LINE
  5
1D2
100
AcDbEntity
100
AcDbLine
  8
0
 62
256
370
-1
 48
1.0
  6
BYLAYER
 10
19.9375
 20
13.3507999999999996
 30
0.0
 11
19.4174000000000007
 21
14.1075999999999997
 31
0.0
  0
LINE
  5
1D3
100
AcDbEntity
100
AcDbLine
  8
0
 62
256
370
-1
 48
1.0
  6
BYLAYER
 10
19.4174000000000007
 20
14.1075999999999997
 30
0.0
 11
18.8583999999999996
 21
14.8361000000000001
 31
0.0
  0
LINE
  5
1D4
100
AcDbEntity
100
AcDbLine
  8
0
 62
256
370
-1
 48
1.0
  6
BYLAYER
 10
18.8583999999999996
 20
14.8361000000000001
 30
0.0
 11
18.7947999999999986
 21
14.8900000000000006
 31
0.0
  0
LINE
  5
1D5
100
AcDbEntity
100
AcDbLine
  8
0
 62
256
370
-1
 48
1.0
  6
BYLAYER
 10
18.7947999999999986
 20
14.8900000000000006
 30
0.0
 11
18.6926999999999985
 21
14.9373000000000005
 31
0.0
  0
LINE
  5
1D6
100
AcDbEntity
100
AcDbLine
  8
0
 62
256
370
-1
 48
1.0
  6
BYLAYER
 10
18.6926999999999985
 20
14.9373000000000005
 30
0.0
 11
18.583400000000001
 21
14.9550999999999998
 31
0.0
  0
LINE
  5
1D7
100
AcDbEntity
100
AcDbLine
  8
0
 62
256
370
-1
 48
1.0
  6
BYLAYER
 10
18.583400000000001
 20
14.9550999999999998
 30
0.0
 11
18.4731999999999985
 21
14.9413999999999998
 31
0.0
  0
LINE
  5
1D8
100
AcDbEntity
100
AcDbLine
  8
0
 62
256
370
-1
 48
1.0
  6
BYLAYER
 10
18.4731999999999985
 20
14.9413999999999998
 30
0.0
 11
17.5804000000000009
 21
14.6923999999999992
 31
0.0
  0
LINE
  5
1D9
100
AcDbEntity
100
AcDbLine
  8
0
 62
256
370
-1
 48
1.0
  6
BYLAYER
 10
17.5804000000000009
 20
14.6923999999999992
 30
0.0
 11
17.4705000000000013
 21
14.6786999999999992
 31
0.0
  0
LINE
  5
1DA
100
AcDbEntity
100
AcDbLine
  8
0
 62
256
370
-1
 48
1.0
  6
BYLAYER
 10
17.4705000000000013
 20
14.6786999999999992
 30
0.0
 11
17.3611000000000004
 21
14.6965000000000003
 31
0.0
  0
LINE
  5
1DB
100
AcDbEntity
100
AcDbLine
  8
0
 62
256
370
-1
 48
1.0
  6
BYLAYER
 10
17.3611000000000004
 20
14.6965000000000003
 30
0.0
 11
17.2589000000000006
 21
14.7437000000000005
 31
0.0
  0
LINE
  5
1DC
100
AcDbEntity
100
AcDbLine
  8
0
 62
256
370
-1
 48
1.0
  6
BYLAYER
 10
17.2589000000000006
 20
14.7437000000000005
 30
0.0
 11
17.1706000000000003
 21
14.8186
 31
0.0
  0
LINE
  5
1DD
100
AcDbEntity
100
AcDbLine
  8
0
 62
256
370
-1
 48
1.0
  6
BYLAYER
 10
17.1706000000000003
 20
14.8186
 30
0.0
 11
16.5321999999999996
 21
15.5274999999999999
 31
0.0
  0
LINE
  5
1DE
100
AcDbEntity
100
AcDbLine
  8
0
 62
256
370
-1
 48
1.0
  6
BYLAYER
 10
16.5321999999999996
 20
15.5274999999999999
 30
0.0
 11
16.4669999999999987
 21
15.6233000000000004
 31
0.0
  0
LINE
  5
1DF
100
AcDbEntity
100
AcDbLine
  8
0
 62
256
370
-1
 48
1.0
  6
BYLAYER
 10
16.4669999999999987
 20
15.6233000000000004
 30
0.0
 11
16.4307000000000016
 21
15.7297999999999991
 31
0.0
  0
LINE
  5
1E0
100
AcDbEntity
100
AcDbLine
  8
0
 62
256
370
-1
 48
1.0
  6
BYLAYER
 10
16.4307000000000016
 20
15.7297999999999991
 30
0.0
 11
16.4244999999999983
 21
15.8405000000000005
 31
0.0
  0
LINE
  5
1E1
100
AcDbEntity
100
AcDbLine
  8
0
 62
256
370
-1
 48
1.0
  6
BYLAYER
 10
16.4244999999999983
 20
15.8405000000000005
 30
0.0
 11
16.4495000000000005
 21
15.9482999999999997
 31
0.0
  0
LINE
  5
1E2
100
AcDbEntity
100
AcDbLine
  8
0
 62
256
370
-1
 48
1.0
  6
BYLAYER
 10
16.4495000000000005
 20
15.9482999999999997
 30
0.0
 11
16.7905000000000015
 21
16.8101999999999983
 31
0.0
  0
LINE
  5
1E3
100
AcDbEntity
100
AcDbLine
  8
0
 62
256
370
-1
 48
1.0
  6
BYLAYER
 10
16.7905000000000015
 20
16.8101999999999983
 30
0.0
 11
16.8155999999999999
 21
16.9183999999999983
 31
0.0
  0
LINE
  5
1E4
100
AcDbEntity
100
AcDbLine
  8
0
 62
256
370
-1
 48
1.0
  6
BYLAYER
 10
16.8155999999999999
 20
16.9183999999999983
 30
0.0
 11
16.8093000000000004
 21
17.0290999999999997
 31
0.0
  0
LINE
  5
1E5
100
AcDbEntity
100
AcDbLine
  8
0
 62
256
370
-1
 48
1.0
  6
BYLAYER
 10
16.8093000000000004
 20
17.0290999999999997
 30
0.0
 11
16.7729999999999997
 21
17.1355000000000004
 31
0.0
  0
LINE
  5
1E6
100
AcDbEntity
100
AcDbLine
  8
0
 62
256
370
-1
 48
1.0
  6
BYLAYER
 10
16.7729999999999997
 20
17.1355000000000004
 30
0.0
 11
16.7259999999999991
 21
17.2042999999999999
 31
0.0
  0
LINE
  5
1E7
100
AcDbEntity
100
AcDbLine
  8
0
 62
256
370
-1
 48
1.0
  6
BYLAYER
 10
16.7259999999999991
 20
17.2042999999999999
 30
0.0
 11
16.059899999999999
 21
17.8364000000000011
 31
0.0
  0
LINE
  5
1E8
100
AcDbEntity
100
AcDbLine
  8
0
 62
256
370
-1
 48
1.0
  6
BYLAYER
 10
16.059899999999999
 20
17.8364000000000011
 30
0.0
 11
15.3617000000000008
 21
18.4328000000000003
 31
0.0
  0
LINE
  5
1E9
100
AcDbEntity
100
AcDbLine
  8
0
 62
256
370
-1
 48
1.0
  6
BYLAYER
 10
15.3617000000000008
 20
18.4328000000000003
 30
0.0
 11
15.2881999999999998
 21
18.4723000000000006
 31
0.0
  0
LINE
  5
1EA
100
AcDbEntity
100
AcDbLine
  8
0
 62
256
370
-1
 48
1.0
  6
BYLAYER
 10
15.2881999999999998
 20
18.4723000000000006
 30
0.0
 11
15.1785999999999994
 21
18.497399999999999
 31
0.0
  0
LINE
  5
1EB
100
AcDbEntity
100
AcDbLine
  8
0
 62
256
370
-1
 48
1.0
  6
BYLAYER
 10
15.1785999999999994
 20
18.497399999999999
 30
0.0
 11
15.0679999999999996
 21
18.4920000000000009
 31
0.0
  0
LINE
  5
1EC
100
AcDbEntity
100
AcDbLine
  8
0
 62
256
370
-1
 48
1.0
  6
BYLAYER
 10
15.0679999999999996
 20
18.4920000000000009
 30
0.0
 11
14.9629999999999992
 21
18.4556000000000004
 31
0.0
  0
LINE
  5
1ED
100
AcDbEntity
100
AcDbLine
  8
0
 62
256
370
-1
 48
1.0
  6
BYLAYER
 10
14.9629999999999992
 20
18.4556000000000004
 30
0.0
 11
14.1415000000000006
 21
18.0264999999999986
 31
0.0
  0
LINE
  5
1EE
100
AcDbEntity
100
AcDbLine
  8
0
 62
256
370
-1
 48
1.0
  6
BYLAYER
 10
14.1415000000000006
 20
18.0264999999999986
 30
0.0
 11
14.0368999999999993
 21
17.9903000000000013
 31
0.0
  0
LINE
  5
1EF
100
AcDbEntity
100
AcDbLine
  8
0
 62
256
370
-1
 48
1.0
  6
BYLAYER
 10
14.0368999999999993
 20
17.9903000000000013
 30
0.0
 11
13.9261999999999997
 21
17.9848999999999997
 31
0.0
  0
LINE
  5
1F0
100
AcDbEntity
100
AcDbLine
  8
0
 62
256
370
-1
 48
1.0
  6
BYLAYER
 10
13.9261999999999997
 20
17.9848999999999997
 30
0.0
 11
13.8163999999999998
 21
18.0098999999999982
 31
0.0
  0
LINE
  5
1F1
100
AcDbEntity
100
AcDbLine
  8
0
 62
256
370
-1
 48
1.0
  6
BYLAYER
 10
13.8163999999999998
 20
18.0098999999999982
 30
0.0
 11
13.7143999999999995
 21
18.0646999999999984
 31
0.0
  0
LINE
  5
1F2
100
AcDbEntity
100
AcDbLine
  8
0
 62
256
370
-1
 48
1.0
  6
BYLAYER
 10
13.7143999999999995
 20
18.0646999999999984
 30
0.0
 11
12.9426000000000005
 21
18.6254999999999988
 31
0.0
  0
LINE
  5
1F3
100
AcDbEntity
100
AcDbLine
  8
0
 62
256
370
-1
 48
1.0
  6
BYLAYER
 10
12.9426000000000005
 20
18.6254999999999988
 30
0.0
 11
12.8589000000000002
 21
18.7055000000000007
 31
0.0
  0
LINE
  5
1F4
100
AcDbEntity
100
AcDbLine
  8
0
 62
256
370
-1
 48
1.0
  6
BYLAYER
 10
12.8589000000000002
 20
18.7055000000000007
 30
0.0
 11
12.8011999999999997
 21
18.8021999999999991
 31
0.0
  0
LINE
  5
1F5
100
AcDbEntity
100
AcDbLine
  8
0
 62
256
370
-1
 48
1.0
  6
BYLAYER
 10
12.8011999999999997
 20
18.8021999999999991
 30
0.0
 11
12.7721
 21
18.9091999999999985
 31
0.0
  0
LINE
  5
1F6
100
AcDbEntity
100
AcDbLine
  8
0
 62
256
370
-1
 48
1.0
  6
BYLAYER
 10
12.7721
 20
18.9091999999999985
 30
0.0
 11
12.7742000000000004
 21
19.0198999999999998
 31
0.0
  0
LINE
  5
1F7
100
AcDbEntity
100
AcDbLine
  8
0
 62
256
370
-1
 48
1.0
  6
BYLAYER
 10
12.7742000000000004
 20
19.0198999999999998
 30
0.0
 11
12.9284999999999997
 21
19.9338000000000015
 31
0.0
  0
LINE
  5
1F8
100
AcDbEntity
100
AcDbLine
  8
0
 62
256
370
-1
 48
1.0
  6
BYLAYER
 10
12.9284999999999997
 20
19.9338000000000015
 30
0.0
 11
12.9306000000000001
 21
20.0448999999999984
 31
0.0
  0
LINE
  5
1F9
100
AcDbEntity
100
AcDbLine
  8
0
 62
256
370
-1
 48
1.0
  6
BYLAYER
 10
12.9306000000000001
 20
20.0448999999999984
 30
0.0
 11
12.9015000000000004
 21
20.1518000000000015
 31
0.0
  0
LINE
  5
1FA
100
AcDbEntity
100
AcDbLine
  8
0
 62
256
370
-1
 48
1.0
  6
BYLAYER
 10
12.9015000000000004
 20
20.1518000000000015
 30
0.0
 11
12.8437999999999999
 21
20.2483000000000004
 31
0.0
  0
LINE
  5
1FB
100
AcDbEntity
100
AcDbLine
  8
0
 62
256
370
-1
 48
1.0
  6
BYLAYER
 10
12.8437999999999999
 20
20.2483000000000004
 30
0.0
 11
12.7835000000000001
 21
20.3059000000000012
 31
0.0
  0
LINE
  5
1FC
100
AcDbEntity
100
AcDbLine
  8
0
 62
256
370
-1
 48
1.0
  6
BYLAYER
 10
12.7835000000000001
 20
20.3059000000000012
 30
0.0
 11
12.0006000000000004
 21
20.7856999999999985
 31
0.0
  0
LINE
  5
1FD
100
AcDbEntity
100
AcDbLine
  8
0
 62
256
370
-1
 48
1.0
  6
BYLAYER
 10
12.0006000000000004
 20
20.7856999999999985
 30
0.0
 11
11.1936
 21
21.2238000000000007
 31
0.0
  0
LINE
  5
1FE
100
AcDbEntity
100
AcDbLine
  8
0
 62
256
370
-1
 48
1.0
  6
BYLAYER
 10
11.1936
 20
21.2238000000000007
 30
0.0
 11
11.1135000000000002
 21
21.2472999999999992
 31
0.0
  0
LINE
  5
1FF
100
AcDbEntity
100
AcDbLine
  8
0
 62
256
370
-1
 48
1.0
  6
BYLAYER
 10
11.1135000000000002
 20
21.2472999999999992
 30
0.0
 11
11.0010999999999992
 21
21.2489999999999988
 31
0.0
  0
LINE
  5
200
100
AcDbEntity
100
AcDbLine
  8
0
 62
256
370
-1
 48
1.0
  6
BYLAYER
 10
11.0010999999999992
 20
21.2489999999999988
 30
0.0
 11
10.8940000000000001
 21
21.2207000000000008
 31
0.0
  0
LINE
  5
201
100
AcDbEntity
100
AcDbLine
  8
0
 62
256
370
-1
 48
1.0
  6
BYLAYER
 10
10.8940000000000001
 20
21.2207000000000008
 30
0.0
 11
10.7988999999999997
 21
21.1632999999999996
 31
0.0
  0
LINE
  5
202
100
AcDbEntity
100
AcDbLine
  8
0
 62
256
370
-1
 48
1.0
  6
BYLAYER
 10
10.7988999999999997
 20
21.1632999999999996
 30
0.0
 11
10.0846
 21
20.5727000000000011
 31
0.0
  0
LINE
  5
203
100
AcDbEntity
100
AcDbLine
  8
0
 62
256
370
-1
 48
1.0
  6
BYLAYER
 10
10.0846
 20
20.5727000000000011
 30
0.0
 11
9.9897500000000008
 21
20.5155999999999992
 31
0.0
  0
LINE
  5
204
100
AcDbEntity
100
AcDbLine
  8
0
 62
256
370
-1
 48
1.0
  6
BYLAYER
 10
9.9897500000000008
 20
20.5155999999999992
 30
0.0
 11
9.8826000000000001
 21
20.4873000000000012
 31
0.0
  0
LINE
  5
205
100
AcDbEntity
100
AcDbLine
  8
0
 62
256
370
-1
 48
1.0
  6
BYLAYER
 10
9.8826000000000001
 20
20.4873000000000012
 30
0.0
 11
9.7700099999999992
 21
20.488900000000001
 31
0.0
  0
LINE
  5
206
100
AcDbEntity
100
AcDbLine
  8
0
 62
256
370
-1
 48
1.0
  6
BYLAYER
 10
9.7700099999999992
 20
20.488900000000001
 30
0.0
 11
9.65883
 21
20.5213000000000001
 31
0.0
  0
LINE
  5
207
100
AcDbEntity
100
AcDbLine
  8
0
 62
256
370
-1
 48
1.0
  6
BYLAYER
 10
9.65883
 20
20.5213000000000001
 30
0.0
 11
8.7873000000000001
 21
20.9094000000000015
 31
0.0
  0
LINE
  5
208
100
AcDbEntity
100
AcDbLine
  8
0
 62
256
370
-1
 48
1.0
  6
BYLAYER
 10
8.7873000000000001
 20
20.9094000000000015
 30
0.0
 11
8.6888000000000005
 21
20.9703000000000017
 31
0.0
  0
LINE
  5
209
100
AcDbEntity
100
AcDbLine
  8
0
 62
256
370
-1
 48
1.0
  6
BYLAYER
 10
8.6888000000000005
 20
20.9703000000000017
 30
0.0
 11
8.6122800000000002
 21
21.0529000000000011
 31
0.0
  0
LINE
  5
20A
100
AcDbEntity
100
AcDbLine
  8
0
 62
256
370
-1
 48
1.0
  6
BYLAYER
 10
8.6122800000000002
 20
21.0529000000000011
 30
0.0
 11
8.5615900000000007
 21
21.1513999999999989
 31
0.0
  0
LINE
  5
20B
100
AcDbEntity
100
AcDbLine
  8
0
 62
256
370
-1
 48
1.0
  6
BYLAYER
 10
8.5615900000000007
 20
21.1513999999999989
 30
0.0
 11
8.5406399999999998
 21
21.2601000000000013
 31
0.0
  0
LINE
  5
20C
100
AcDbEntity
100
AcDbLine
  8
0
 62
256
370
-1
 48
1.0
  6
BYLAYER
 10
8.5406399999999998
 20
21.2601000000000013
 30
0.0
 11
8.5015400000000003
 21
22.1861999999999995
 31
0.0
  0
LINE
  5
20D
100
AcDbEntity
100
AcDbLine
  8
0
 62
256
370
-1
 48
1.0
  6
BYLAYER
 10
8.5015400000000003
 20
22.1861999999999995
 30
0.0
 11
8.4805200000000003
 21
22.295300000000001
 31
0.0
  0
LINE
  5
20E
100
AcDbEntity
100
AcDbLine
  8
0
 62
256
370
-1
 48
1.0
  6
BYLAYER
 10
8.4805200000000003
 20
22.295300000000001
 30
0.0
 11
8.4297500000000003
 21
22.3937999999999988
 31
0.0
  0
LINE
  5
20F
100
AcDbEntity
100
AcDbLine
  8
0
 62
256
370
-1
 48
1.0
  6
BYLAYER
 10
8.4297500000000003
 20
22.3937999999999988
 30
0.0
 11
8.3532200000000003
 21
22.4761999999999986
 31
0.0
  0
LINE
  5
210
100
AcDbEntity
100
AcDbLine
  8
0
 62
256
370
-1
 48
1.0
  6
BYLAYER
 10
8.3532200000000003
 20
22.4761999999999986
 30
0.0
 11
8.2823700000000002
 21
22.5199999999999996
 31
0.0
  0
LINE
  5
211
100
AcDbEntity
100
AcDbLine
  8
0
 62
256
370
-1
 48
1.0
  6
BYLAYER
 10
8.2823700000000002
 20
22.5199999999999996
 30
0.0
 11
7.4167800000000002
 21
22.8264999999999993
 31
0.0
  0
LINE
  5
212
100
AcDbEntity
100
AcDbLine
  8
0
 62
256
370
-1
 48
1.0
  6
BYLAYER
 10
7.4167800000000002
 20
22.8264999999999993
 30
0.0
 11
6.5363199999999999
 21
23.087299999999999
 31
0.0
  0
LINE
  5
213
100
AcDbEntity
100
AcDbLine
  8
0
 62
256
370
-1
 48
1.0
  6
BYLAYER
 10
6.5363199999999999
 20
23.087299999999999
 30
0.0
 11
6.4531299999999998
 21
23.0935999999999986
 31
0.0
  0
LINE
  5
214
100
AcDbEntity
100
AcDbLine
  8
0
 62
256
370
-1
 48
1.0
  6
BYLAYER
 10
6.4531299999999998
 20
23.0935999999999986
 30
0.0
 11
6.3428000000000004
 21
23.0718999999999994
 31
0.0
  0
LINE
  5
215
100
AcDbEntity
100
AcDbLine
  8
0
 62
256
370
-1
 48
1.0
  6
BYLAYER
 10
6.3428000000000004
 20
23.0718999999999994
 30
0.0
 11
6.2439
 21
23.0219999999999985
 31
0.0
  0
LINE
  5
216
100
AcDbEntity
100
AcDbLine
  8
0
 62
256
370
-1
 48
1.0
  6
BYLAYER
 10
6.2439
 20
23.0219999999999985
 30
0.0
 11
6.16282
 21
22.9461000000000013
 31
0.0
  0
LINE
  5
217
100
AcDbEntity
100
AcDbLine
  8
0
 62
256
370
-1
 48
1.0
  6
BYLAYER
 10
6.16282
 20
22.9461000000000013
 30
0.0
 11
5.5868700000000002
 21
22.2198999999999991
 31
0.0
  0
LINE
  5
218
100
AcDbEntity
100
AcDbLine
  8
0
 62
256
370
-1
 48
1.0
  6
BYLAYER
 10
5.5868700000000002
 20
22.2198999999999991
 30
0.0
 11
5.5060200000000004
 21
22.1442000000000014
 31
0.0
  0
LINE
  5
219
100
AcDbEntity
100
AcDbLine
  8
0
 62
256
370
-1
 48
1.0
  6
BYLAYER
 10
5.5060200000000004
 20
22.1442000000000014
 30
0.0
 11
5.4070900000000002
 21
22.0943000000000005
 31
0.0
  0
LINE
  5
21A
100
AcDbEntity
100
AcDbLine
  8
0
 62
256
370
-1
 48
1.0
  6
BYLAYER
 10
5.4070900000000002
 20
22.0943000000000005
 30
0.0
 11
5.2966300000000004
 21
22.0725000000000016
 31
0.0
  0
LINE
  5
21B
100
AcDbEntity
100
AcDbLine
  8
0
 62
256
370
-1
 48
1.0
  6
BYLAYER
 10
5.2966300000000004
 20
22.0725000000000016
 30
0.0
 11
5.1811400000000001
 21
22.0810999999999993
 31
0.0
  0
LINE
  5
21C
100
AcDbEntity
100
AcDbLine
  8
0
 62
256
370
-1
 48
1.0
  6
BYLAYER
 10
5.1811400000000001
 20
22.0810999999999993
 30
0.0
 11
4.2479699999999996
 21
22.279399999999999
 31
0.0
  0
LINE
  5
21D
100
AcDbEntity
100
AcDbLine
  8
0
 62
256
370
-1
 48
1.0
  6
BYLAYER
 10
4.2479699999999996
 20
22.279399999999999
 30
0.0
 11
4.1389699999999996
 21
22.3185000000000002
 31
0.0
  0
LINE
  5
21E
100
AcDbEntity
100
AcDbLine
  8
0
 62
256
370
-1
 48
1.0
  6
BYLAYER
 10
4.1389699999999996
 20
22.3185000000000002
 30
0.0
 11
4.0469400000000002
 21
22.3834000000000017
 31
0.0
  0
LINE
  5
21F
100
AcDbEntity
100
AcDbLine
  8
0
 62
256
370
-1
 48
1.0
  6
BYLAYER
 10
4.0469400000000002
 20
22.3834000000000017
 30
0.0
 11
3.9768699999999999
 21
22.4693000000000005
 31
0.0
  0
LINE
  5
220
100
AcDbEntity
100
AcDbLine
  8
0
 62
256
370
-1
 48
1.0
  6
BYLAYER
 10
3.9768699999999999
 20
22.4693000000000005
 30
0.0
 11
3.93377
 21
22.571200000000001
 31
0.0
  0
LINE
  5
221
100
AcDbEntity
100
AcDbLine
  8
0
 62
256
370
-1
 48
1.0
  6
BYLAYER
 10
3.93377
 20
22.571200000000001
 30
0.0
 11
3.7029899999999998
 21
23.4689000000000014
 31
0.0
  0
LINE
  5
222
100
AcDbEntity
100
AcDbLine
  8
0
 62
256
370
-1
 48
1.0
  6
BYLAYER
 10
3.7029899999999998
 20
23.4689000000000014
 30
0.0
 11
3.6597499999999998
 21
23.5713000000000008
 31
0.0
  0
LINE
  5
223
100
AcDbEntity
100
AcDbLine
  8
0
 62
256
370
-1
 48
1.0
  6
BYLAYER
 10
3.6597499999999998
 20
23.5713000000000008
 30
0.0
 11
3.58961
 21
23.6570999999999998
 31
0.0
  0
LINE
  5
224
100
AcDbEntity
100
AcDbLine
  8
0
 62
256
370
-1
 48
1.0
  6
BYLAYER
 10
3.58961
 20
23.6570999999999998
 30
0.0
 11
3.49762
 21
23.7218000000000018
 31
0.0
  0
LINE
  5
225
100
AcDbEntity
100
AcDbLine
  8
0
 62
256
370
-1
 48
1.0
  6
BYLAYER
 10
3.49762
 20
23.7218000000000018
 30
0.0
 11
3.4192100000000001
 21
23.7499000000000002
 31
0.0
  0
LINE
  5
226
100
AcDbEntity
100
AcDbLine
  8
0
 62
256
370
-1
 48
1.0
  6
BYLAYER
 10
3.4192100000000001
 20
23.7499000000000002
 30
0.0
 11
2.50881
 21
23.8697000000000017
 31
0.0
  0
LINE
  5
227
100
AcDbEntity
100
AcDbLine
  8
0
 62
256
370
-1
 48
1.0
  6
BYLAYER
 10
2.50881
 20
23.8697000000000017
 30
0.0
 11
1.5933600000000001
 21
23.9418000000000006
 31
0.0
  0
LINE
  5
228
100
AcDbEntity
100
AcDbLine
  8
0
 62
256
370
-1
 48
1.0
  6
BYLAYER
 10
1.5933600000000001
 20
23.9418000000000006
 30
0.0
 11
1.5106900000000001
 21
23.9305999999999983
 31
0.0
  0
LINE
  5
229
100
AcDbEntity
100
AcDbLine
  8
0
 62
256
370
-1
 48
1.0
  6
BYLAYER
 10
1.5106900000000001
 20
23.9305999999999983
 30
0.0
 11
1.4072800000000001
 21
23.8863999999999983
 31
0.0
  0
LINE
  5
22A
100
AcDbEntity
100
AcDbLine
  8
0
 62
256
370
-1
 48
1.0
  6
BYLAYER
 10
1.4072800000000001
 20
23.8863999999999983
 30
0.0
 11
1.3209200000000001
 21
23.8170999999999999
 31
0.0
  0
LINE
  5
22B
100
AcDbEntity
100
AcDbLine
  8
0
 62
256
370
-1
 48
1.0
  6
BYLAYER
 10
1.3209200000000001
 20
23.8170999999999999
 30
0.0
 11
1.25739
 21
23.7259999999999991
 31
0.0
  0
LINE
  5
22C
100
AcDbEntity
100
AcDbLine
  8
0
 62
256
370
-1
 48
1.0
  6
BYLAYER
 10
1.25739
 20
23.7259999999999991
 30
0.0
 11
0.845015
 21
22.895900000000001
 31
0.0
  0
LINE
  5
22D
100
AcDbEntity
100
AcDbLine
  8
0
 62
256
370
-1
 48
1.0
  6
BYLAYER
 10
0.845015
 20
22.895900000000001
 30
0.0
 11
0.781652
 21
22.8050999999999995
 31
0.0
  0
LINE
  5
22E
100
AcDbEntity
100
AcDbLine
  8
0
 62
256
370
-1
 48
1.0
  6
BYLAYER
 10
0.781652
 20
22.8050999999999995
 30
0.0
 11
0.695269
 21
22.7357000000000014
 31
0.0
  0
LINE
  5
22F
100
AcDbEntity
100
AcDbLine
  8
0
 62
256
370
-1
 48
1.0
  6
BYLAYER
 10
0.695269
 20
22.7357000000000014
 30
0.0
 11
0.591763
 21
22.6914000000000016
 31
0.0
  0
LINE
  5
230
100
AcDbEntity
100
AcDbLine
  8
0
 62
256
370
-1
 48
1.0
  6
BYLAYER
 10
0.591763
 20
22.6914000000000016
 30
0.0
 11
0.477007
 21
22.6757999999999988
 31
0.0
  0
LINE
  5
231
100
AcDbEntity
100
AcDbLine
  8
0
 62
256
370
-1
 48
1.0
  6
BYLAYER
 10
0.477007
 20
22.6757999999999988
 30
0.0
 11
-0.477007
 21
22.6757999999999988
 31
0.0
  0
LINE
  5
232
100
AcDbEntity
100
AcDbLine
  8
0
 62
256
370
-1
 48
1.0
  6
BYLAYER
 10
-0.477007
 20
22.6757999999999988
 30
0.0
 11
-0.591763
 21
22.6914000000000016
 31
0.0
  0
LINE
  5
233
100
AcDbEntity
100
AcDbLine
  8
0
 62
256
370
-1
 48
1.0
  6
BYLAYER
 10
-0.591763
 20
22.6914000000000016
 30
0.0
 11
-0.695269
 21
22.7357000000000014
 31
0.0
  0
LINE
  5
234
100
AcDbEntity
100
AcDbLine
  8
0
 62
256
370
-1
 48
1.0
  6
BYLAYER
 10
-0.695269
 20
22.7357000000000014
 30
0.0
 11
-0.781652
 21
22.8050999999999995
 31
0.0
  0
LINE
  5
235
100
AcDbEntity
100
AcDbLine
  8
0
 62
256
370
-1
 48
1.0
  6
BYLAYER
 10
-0.781652
 20
22.8050999999999995
 30
0.0
 11
-0.845015
 21
22.895900000000001
 31
0.0
  0
LINE
  5
236
100
AcDbEntity
100
AcDbLine
  8
0
 62
256
370
-1
 48
1.0
  6
BYLAYER
 10
-0.845015
 20
22.895900000000001
 30
0.0
 11
-1.25739
 21
23.7259999999999991
 31
0.0
  0
LINE
  5
237
100
AcDbEntity
100
AcDbLine
  8
0
 62
256
370
-1
 48
1.0
  6
BYLAYER
 10
-1.25739
 20
23.7259999999999991
 30
0.0
 11
-1.3209599999999999
 21
23.8170999999999999
 31
0.0
  0
LINE
  5
238
100
AcDbEntity
100
AcDbLine
  8
0
 62
256
370
-1
 48
1.0
  6
BYLAYER
 10
-1.3209599999999999
 20
23.8170999999999999
 30
0.0
 11
-1.40741
 21
23.8863999999999983
 31
0.0
  0
LINE
  5
239
100
AcDbEntity
100
AcDbLine
  8
0
 62
256
370
-1
 48
1.0
  6
BYLAYER
 10
-1.40741
 20
23.8863999999999983
 30
0.0
 11
-1.51085
 21
23.9305999999999983
 31
0.0
  0
LINE
  5
23A
100
AcDbEntity
100
AcDbLine
  8
0
 62
256
370
-1
 48
1.0
  6
BYLAYER
 10
-1.51085
 20
23.9305999999999983
 30
0.0
 11
-1.59338
 21
23.9418000000000006
 31
0.0
  0
LINE
  5
23B
100
AcDbEntity
100
AcDbLine
  8
0
 62
256
370
-1
 48
1.0
  6
BYLAYER
 10
-1.59338
 20
23.9418000000000006
 30
0.0
 11
-2.50881
 21
23.8697000000000017
 31
0.0
  0
LINE
  5
23C
100
AcDbEntity
100
AcDbLine
  8
0
 62
256
370
-1
 48
1.0
  6
BYLAYER
 10
-2.50881
 20
23.8697000000000017
 30
0.0
 11
-3.4192399999999998
 21
23.7499000000000002
 31
0.0
  0
LINE
  5
23D
100
AcDbEntity
100
AcDbLine
  8
0
 62
256
370
-1
 48
1.0
  6
BYLAYER
 10
-3.4192399999999998
 20
23.7499000000000002
 30
0.0
 11
-3.4977800000000001
 21
23.7218000000000018
 31
0.0
  0
LINE
  5
23E
100
AcDbEntity
100
AcDbLine
  8
0
 62
256
370
-1
 48
1.0
  6
BYLAYER
 10
-3.4977800000000001
 20
23.7218000000000018
 30
0.0
 11
-3.5897399999999999
 21
23.6570999999999998
 31
0.0
  0
LINE
  5
23F
100
AcDbEntity
100
AcDbLine
  8
0
 62
256
370
-1
 48
1.0
  6
BYLAYER
 10
-3.5897399999999999
 20
23.6570999999999998
 30
0.0
 11
-3.6598000000000002
 21
23.5713000000000008
 31
0.0
  0
LINE
  5
240
100
AcDbEntity
100
AcDbLine
  8
0
 62
256
370
-1
 48
1.0
  6
BYLAYER
 10
-3.6598000000000002
 20
23.5713000000000008
 30
0.0
 11
-3.7029899999999998
 21
23.4689000000000014
 31
0.0
  0
LINE
  5
241
100
AcDbEntity
100
AcDbLine
  8
0
 62
256
370
-1
 48
1.0
  6
BYLAYER
 10
-3.7029899999999998
 20
23.4689000000000014
 30
0.0
 11
-3.93377
 21
22.571200000000001
 31
0.0
  0
LINE
  5
242
100
AcDbEntity
100
AcDbLine
  8
0
 62
256
370
-1
 48
1.0
  6
BYLAYER
 10
-3.93377
 20
22.571200000000001
 30
0.0
 11
-3.9768699999999999
 21
22.4693000000000005
 31
0.0
  0
LINE
  5
243
100
AcDbEntity
100
AcDbLine
  8
0
 62
256
370
-1
 48
1.0
  6
BYLAYER
 10
-3.9768699999999999
 20
22.4693000000000005
 30
0.0
 11
-4.0469400000000002
 21
22.3834000000000017
 31
0.0
  0
LINE
  5
244
100
AcDbEntity
100
AcDbLine
  8
0
 62
256
370
-1
 48
1.0
  6
BYLAYER
 10
-4.0469400000000002
 20
22.3834000000000017
 30
0.0
 11
-4.1389699999999996
 21
22.3185000000000002
 31
0.0
  0
LINE
  5
245
100
AcDbEntity
100
AcDbLine
  8
0
 62
256
370
-1
 48
1.0
  6
BYLAYER
 10
-4.1389699999999996
 20
22.3185000000000002
 30
0.0
 11
-4.2479699999999996
 21
22.279399999999999
 31
0.0
  0
LINE
  5
246
100
AcDbEntity
100
AcDbLine
  8
0
 62
256
370
-1
 48
1.0
  6
BYLAYER
 10
-4.2479699999999996
 20
22.279399999999999
 30
0.0
 11
-5.1811400000000001
 21
22.0810999999999993
 31
0.0
  0
LINE
  5
247
100
AcDbEntity
100
AcDbLine
  8
0
 62
256
370
-1
 48
1.0
  6
BYLAYER
 10
-5.1811400000000001
 20
22.0810999999999993
 30
0.0
 11
-5.2966300000000004
 21
22.0725000000000016
 31
0.0
  0
LINE
  5
248
100
AcDbEntity
100
AcDbLine
  8
0
 62
256
370
-1
 48
1.0
  6
BYLAYER
 10
-5.2966300000000004
 20
22.0725000000000016
 30
0.0
 11
-5.4070900000000002
 21
22.0943000000000005
 31
0.0
  0
LINE
  5
249
100
AcDbEntity
100
AcDbLine
  8
0
 62
256
370
-1
 48
1.0
  6
BYLAYER
 10
-5.4070900000000002
 20
22.0943000000000005
 30
0.0
 11
-5.5060200000000004
 21
22.1442000000000014
 31
0.0
  0
LINE
  5
24A
100
AcDbEntity
100
AcDbLine
  8
0
 62
256
370
-1
 48
1.0
  6
BYLAYER
 10
-5.5060200000000004
 20
22.1442000000000014
 30
0.0
 11
-5.5868700000000002
 21
22.2198999999999991
 31
0.0
  0
LINE
  5
24B
100
AcDbEntity
100
AcDbLine
  8
0
 62
256
370
-1
 48
1.0
  6
BYLAYER
 10
-5.5868700000000002
 20
22.2198999999999991
 30
0.0
 11
-6.16282
 21
22.9461000000000013
 31
0.0
  0
LINE
  5
24C
100
AcDbEntity
100
AcDbLine
  8
0
 62
256
370
-1
 48
1.0
  6
BYLAYER
 10
-6.16282
 20
22.9461000000000013
 30
0.0
 11
-6.2439499999999999
 21
23.0219999999999985
 31
0.0
  0
LINE
  5
24D
100
AcDbEntity
100
AcDbLine
  8
0
 62
256
370
-1
 48
1.0
  6
BYLAYER
 10
-6.2439499999999999
 20
23.0219999999999985
 30
0.0
 11
-6.34293
 21
23.0717999999999996
 31
0.0
  0
LINE
  5
24E
100
AcDbEntity
100
AcDbLine
  8
0
 62
256
370
-1
 48
1.0
  6
BYLAYER
 10
-6.34293
 20
23.0717999999999996
 30
0.0
 11
-6.45329
 21
23.0935999999999986
 31
0.0
  0
LINE
  5
24F
100
AcDbEntity
100
AcDbLine
  8
0
 62
256
370
-1
 48
1.0
  6
BYLAYER
 10
-6.45329
 20
23.0935999999999986
 30
0.0
 11
-6.53634
 21
23.087299999999999
 31
0.0
  0
LINE
  5
250
100
AcDbEntity
100
AcDbLine
  8
0
 62
256
370
-1
 48
1.0
  6
BYLAYER
 10
-6.53634
 20
23.087299999999999
 30
0.0
 11
-7.4167800000000002
 21
22.8264999999999993
 31
0.0
  0
LINE
  5
251
100
AcDbEntity
100
AcDbLine
  8
0
 62
256
370
-1
 48
1.0
  6
BYLAYER
 10
-7.4167800000000002
 20
22.8264999999999993
 30
0.0
 11
-8.2823899999999995
 21
22.5199999999999996
 31
0.0
  0
LINE
  5
252
100
AcDbEntity
100
AcDbLine
  8
0
 62
256
370
-1
 48
1.0
  6
BYLAYER
 10
-8.2823899999999995
 20
22.5199999999999996
 30
0.0
 11
-8.35337
 21
22.4761999999999986
 31
0.0
  0
LINE
  5
253
100
AcDbEntity
100
AcDbLine
  8
0
 62
256
370
-1
 48
1.0
  6
BYLAYER
 10
-8.35337
 20
22.4761999999999986
 30
0.0
 11
-8.4298699999999993
 21
22.3936999999999991
 31
0.0
  0
LINE
  5
254
100
AcDbEntity
100
AcDbLine
  8
0
 62
256
370
-1
 48
1.0
  6
BYLAYER
 10
-8.4298699999999993
 20
22.3936999999999991
 30
0.0
 11
-8.4805600000000005
 21
22.2952000000000012
 31
0.0
  0
LINE
  5
255
100
AcDbEntity
100
AcDbLine
  8
0
 62
256
370
-1
 48
1.0
  6
BYLAYER
 10
-8.4805600000000005
 20
22.2952000000000012
 30
0.0
 11
-8.5015400000000003
 21
22.1861999999999995
 31
0.0
  0
LINE
  5
256
100
AcDbEntity
100
AcDbLine
  8
0
 62
256
370
-1
 48
1.0
  6
BYLAYER
 10
-8.5015400000000003
 20
22.1861999999999995
 30
0.0
 11
-8.5406399999999998
 21
21.2601000000000013
 31
0.0
  0
LINE
  5
257
100
AcDbEntity
100
AcDbLine
  8
0
 62
256
370
-1
 48
1.0
  6
BYLAYER
 10
-8.5406399999999998
 20
21.2601000000000013
 30
0.0
 11
-8.5615900000000007
 21
21.1513999999999989
 31
0.0
  0
LINE
  5
258
100
AcDbEntity
100
AcDbLine
  8
0
 62
256
370
-1
 48
1.0
  6
BYLAYER
 10
-8.5615900000000007
 20
21.1513999999999989
 30
0.0
 11
-8.6122800000000002
 21
21.0529000000000011
 31
0.0
  0
LINE
  5
259
100
AcDbEntity
100
AcDbLine
  8
0
 62
256
370
-1
 48
1.0
  6
BYLAYER
 10
-8.6122800000000002
 20
21.0529000000000011
 30
0.0
 11
-8.6888000000000005
 21
20.9703000000000017
 31
0.0
  0
LINE
  5
25A
100
AcDbEntity
100
AcDbLine
  8
0
 62
256
370
-1
 48
1.0
  6
BYLAYER
 10
-8.6888000000000005
 20
20.9703000000000017
 30
0.0
 11
-8.7873000000000001
 21
20.9094000000000015
 31
0.0
  0
LINE
  5
25B
100
AcDbEntity
100
AcDbLine
  8
0
 62
256
370
-1
 48
1.0
  6
BYLAYER
 10
-8.7873000000000001
 20
20.9094000000000015
 30
0.0
 11
-9.65883
 21
20.5213000000000001
 31
0.0
  0
LINE
  5
25C
100
AcDbEntity
100
AcDbLine
  8
0
 62
256
370
-1
 48
1.0
  6
BYLAYER
 10
-9.65883
 20
20.5213000000000001
 30
0.0
 11
-9.7700099999999992
 21
20.488900000000001
 31
0.0
  0
LINE
  5
25D
100
AcDbEntity
100
AcDbLine
  8
0
 62
256
370
-1
 48
1.0
  6
BYLAYER
 10
-9.7700099999999992
 20
20.488900000000001
 30
0.0
 11
-9.8826000000000001
 21
20.4873000000000012
 31
0.0
  0
LINE
  5
25E
100
AcDbEntity
100
AcDbLine
  8
0
 62
256
370
-1
 48
1.0
  6
BYLAYER
 10
-9.8826000000000001
 20
20.4873000000000012
 30
0.0
 11
-9.9897500000000008
 21
20.5155999999999992
 31
0.0
  0
LINE
  5
25F
100
AcDbEntity
100
AcDbLine
  8
0
 62
256
370
-1
 48
1.0
  6
BYLAYER
 10
-9.9897500000000008
 20
20.5155999999999992
 30
0.0
 11
-10.0846
 21
20.5727000000000011
 31
0.0
  0
LINE
  5
260
100
AcDbEntity
100
AcDbLine
  8
0
 62
256
370
-1
 48
1.0
  6
BYLAYER
 10
-10.0846
 20
20.5727000000000011
 30
0.0
 11
-10.7988999999999997
 21
21.1632999999999996
 31
0.0
  0
LINE
  5
261
100
AcDbEntity
100
AcDbLine
  8
0
 62
256
370
-1
 48
1.0
  6
BYLAYER
 10
-10.7988999999999997
 20
21.1632999999999996
 30
0.0
 11
-10.8940000000000001
 21
21.2207000000000008
 31
0.0
  0
LINE
  5
262
100
AcDbEntity
100
AcDbLine
  8
0
 62
256
370
-1
 48
1.0
  6
BYLAYER
 10
-10.8940000000000001
 20
21.2207000000000008
 30
0.0
 11
-11.0012000000000008
 21
21.248899999999999
 31
0.0
  0
LINE
  5
263
100
AcDbEntity
100
AcDbLine
  8
0
 62
256
370
-1
 48
1.0
  6
BYLAYER
 10
-11.0012000000000008
 20
21.248899999999999
 30
0.0
 11
-11.1136999999999997
 21
21.2471999999999994
 31
0.0
  0
LINE
  5
264
100
AcDbEntity
100
AcDbLine
  8
0
 62
256
370
-1
 48
1.0
  6
BYLAYER
 10
-11.1136999999999997
 20
21.2471999999999994
 30
0.0
 11
-11.1936
 21
21.2238000000000007
 31
0.0
  0
LINE
  5
265
100
AcDbEntity
100
AcDbLine
  8
0
 62
256
370
-1
 48
1.0
  6
BYLAYER
 10
-11.1936
 20
21.2238000000000007
 30
0.0
 11
-12.0006000000000004
 21
20.7856999999999985
 31
0.0
  0
LINE
  5
266
100
AcDbEntity
100
AcDbLine
  8
0
 62
256
370
-1
 48
1.0
  6
BYLAYER
 10
-12.0006000000000004
 20
20.7856999999999985
 30
0.0
 11
-12.7835999999999999
 21
20.3059000000000012
 31
0.0
  0
LINE
  5
267
100
AcDbEntity
100
AcDbLine
  8
0
 62
256
370
-1
 48
1.0
  6
BYLAYER
 10
-12.7835999999999999
 20
20.3059000000000012
 30
0.0
 11
-12.8438999999999997
 21
20.2482000000000006
 31
0.0
  0
LINE
  5
268
100
AcDbEntity
100
AcDbLine
  8
0
 62
256
370
-1
 48
1.0
  6
BYLAYER
 10
-12.8438999999999997
 20
20.2482000000000006
 30
0.0
 11
-12.9016000000000002
 21
20.1517000000000017
 31
0.0
  0
LINE
  5
269
100
AcDbEntity
100
AcDbLine
  8
0
 62
256
370
-1
 48
1.0
  6
BYLAYER
 10
-12.9016000000000002
 20
20.1517000000000017
 30
0.0
 11
-12.9306999999999999
 21
20.0447999999999986
 31
0.0
  0
LINE
  5
26A
100
AcDbEntity
100
AcDbLine
  8
0
 62
256
370
-1
 48
1.0
  6
BYLAYER
 10
-12.9306999999999999
 20
20.0447999999999986
 30
0.0
 11
-12.9284999999999997
 21
19.9338000000000015
 31
0.0
  0
LINE
  5
26B
100
AcDbEntity
100
AcDbLine
  8
0
 62
256
370
-1
 48
1.0
  6
BYLAYER
 10
-12.9284999999999997
 20
19.9338000000000015
 30
0.0
 11
-12.7742000000000004
 21
19.0198999999999998
 31
0.0
  0
LINE
  5
26C
100
AcDbEntity
100
AcDbLine
  8
0
 62
256
370
-1
 48
1.0
  6
BYLAYER
 10
-12.7742000000000004
 20
19.0198999999999998
 30
0.0
 11
-12.7721
 21
18.9091999999999985
 31
0.0
  0
LINE
  5
26D
100
AcDbEntity
100
AcDbLine
  8
0
 62
256
370
-1
 48
1.0
  6
BYLAYER
 10
-12.7721
 20
18.9091999999999985
 30
0.0
 11
-12.8011999999999997
 21
18.8021999999999991
 31
0.0
  0
LINE
  5
26E
100
AcDbEntity
100
AcDbLine
  8
0
 62
256
370
-1
 48
1.0
  6
BYLAYER
 10
-12.8011999999999997
 20
18.8021999999999991
 30
0.0
 11
-12.8589000000000002
 21
18.7055000000000007
 31
0.0
  0
LINE
  5
26F
100
AcDbEntity
100
AcDbLine
  8
0
 62
256
370
-1
 48
1.0
  6
BYLAYER
 10
-12.8589000000000002
 20
18.7055000000000007
 30
0.0
 11
-12.9426000000000005
 21
18.6254999999999988
 31
0.0
  0
LINE
  5
270
100
AcDbEntity
100
AcDbLine
  8
0
 62
256
370
-1
 48
1.0
  6
BYLAYER
 10
-12.9426000000000005
 20
18.6254999999999988
 30
0.0
 11
-13.7143999999999995
 21
18.0646999999999984
 31
0.0
  0
LINE
  5
271
100
AcDbEntity
100
AcDbLine
  8
0
 62
256
370
-1
 48
1.0
  6
BYLAYER
 10
-13.7143999999999995
 20
18.0646999999999984
 30
0.0
 11
-13.8163999999999998
 21
18.0098999999999982
 31
0.0
  0
LINE
  5
272
100
AcDbEntity
100
AcDbLine
  8
0
 62
256
370
-1
 48
1.0
  6
BYLAYER
 10
-13.8163999999999998
 20
18.0098999999999982
 30
0.0
 11
-13.9261999999999997
 21
17.9848999999999997
 31
0.0
  0
LINE
  5
273
100
AcDbEntity
100
AcDbLine
  8
0
 62
256
370
-1
 48
1.0
  6
BYLAYER
 10
-13.9261999999999997
 20
17.9848999999999997
 30
0.0
 11
-14.0368999999999993
 21
17.9903000000000013
 31
0.0
  0
LINE
  5
274
100
AcDbEntity
100
AcDbLine
  8
0
 62
256
370
-1
 48
1.0
  6
BYLAYER
 10
-14.0368999999999993
 20
17.9903000000000013
 30
0.0
 11
-14.1415000000000006
 21
18.0264999999999986
 31
0.0
  0
LINE
  5
275
100
AcDbEntity
100
AcDbLine
  8
0
 62
256
370
-1
 48
1.0
  6
BYLAYER
 10
-14.1415000000000006
 20
18.0264999999999986
 30
0.0
 11
-14.9629999999999992
 21
18.4556000000000004
 31
0.0
  0
LINE
  5
276
100
AcDbEntity
100
AcDbLine
  8
0
 62
256
370
-1
 48
1.0
  6
BYLAYER
 10
-14.9629999999999992
 20
18.4556000000000004
 30
0.0
 11
-15.0679999999999996
 21
18.4920000000000009
 31
0.0
  0
LINE
  5
277
100
AcDbEntity
100
AcDbLine
  8
0
 62
256
370
-1
 48
1.0
  6
BYLAYER
 10
-15.0679999999999996
 20
18.4920000000000009
 30
0.0
 11
-15.1786999999999992
 21
18.4972999999999992
 31
0.0
  0
LINE
  5
278
100
AcDbEntity
100
AcDbLine
  8
0
 62
256
370
-1
 48
1.0
  6
BYLAYER
 10
-15.1786999999999992
 20
18.4972999999999992
 30
0.0
 11
-15.2883999999999993
 21
18.4722000000000008
 31
0.0
  0
LINE
  5
279
100
AcDbEntity
100
AcDbLine
  8
0
 62
256
370
-1
 48
1.0
  6
BYLAYER
 10
-15.2883999999999993
 20
18.4722000000000008
 30
0.0
 11
-15.3617000000000008
 21
18.4327000000000005
 31
0.0
  0
LINE
  5
27A
100
AcDbEntity
100
AcDbLine
  8
0
 62
256
370
-1
 48
1.0
  6
BYLAYER
 10
-15.3617000000000008
 20
18.4327000000000005
 30
0.0
 11
-16.059899999999999
 21
17.8364000000000011
 31
0.0
  0
LINE
  5
27B
100
AcDbEntity
100
AcDbLine
  8
0
 62
256
370
-1
 48
1.0
  6
BYLAYER
 10
-16.059899999999999
 20
17.8364000000000011
 30
0.0
 11
-16.7259999999999991
 21
17.2042999999999999
 31
0.0
  0
LINE
  5
27C
100
AcDbEntity
100
AcDbLine
  8
0
 62
256
370
-1
 48
1.0
  6
BYLAYER
 10
-16.7259999999999991
 20
17.2042999999999999
 30
0.0
 11
-16.7730999999999995
 21
17.1354000000000006
 31
0.0
  0
LINE
  5
27D
100
AcDbEntity
100
AcDbLine
  8
0
 62
256
370
-1
 48
1.0
  6
BYLAYER
 10
-16.7730999999999995
 20
17.1354000000000006
 30
0.0
 11
-16.8094000000000001
 21
17.0289999999999999
 31
0.0
  0
LINE
  5
27E
100
AcDbEntity
100
AcDbLine
  8
0
 62
256
370
-1
 48
1.0
  6
BYLAYER
 10
-16.8094000000000001
 20
17.0289999999999999
 30
0.0
 11
-16.8156999999999996
 21
16.9183999999999983
 31
0.0
  0
LINE
  5
27F
100
AcDbEntity
100
AcDbLine
  8
0
 62
256
370
-1
 48
1.0
  6
BYLAYER
 10
-16.8156999999999996
 20
16.9183999999999983
 30
0.0
 11
-16.7905000000000015
 21
16.8101999999999983
 31
0.0
  0
LINE
  5
280
100
AcDbEntity
100
AcDbLine
  8
0
 62
256
370
-1
 48
1.0
  6
BYLAYER
 10
-16.7905000000000015
 20
16.8101999999999983
 30
0.0
 11
-16.4495000000000005
 21
15.9482999999999997
 31
0.0
  0
LINE
  5
281
100
AcDbEntity
100
AcDbLine
  8
0
 62
256
370
-1
 48
1.0
  6
BYLAYER
 10
-16.4495000000000005
 20
15.9482999999999997
 30
0.0
 11
-16.4244999999999983
 21
15.8405000000000005
 31
0.0
  0
LINE
  5
282
100
AcDbEntity
100
AcDbLine
  8
0
 62
256
370
-1
 48
1.0
  6
BYLAYER
 10
-16.4244999999999983
 20
15.8405000000000005
 30
0.0
 11
-16.4307000000000016
 21
15.7297999999999991
 31
0.0
  0
LINE
  5
283
100
AcDbEntity
100
AcDbLine
  8
0
 62
256
370
-1
 48
1.0
  6
BYLAYER
 10
-16.4307000000000016
 20
15.7297999999999991
 30
0.0
 11
-16.4669999999999987
 21
15.6233000000000004
 31
0.0
  0
LINE
  5
284
100
AcDbEntity
100
AcDbLine
  8
0
 62
256
370
-1
 48
1.0
  6
BYLAYER
 10
-16.4669999999999987
 20
15.6233000000000004
 30
0.0
 11
-16.5321999999999996
 21
15.5274999999999999
 31
0.0
  0
LINE
  5
285
100
AcDbEntity
100
AcDbLine
  8
0
 62
256
370
-1
 48
1.0
  6
BYLAYER
 10
-16.5321999999999996
 20
15.5274999999999999
 30
0.0
 11
-17.1706000000000003
 21
14.8186
 31
0.0
  0
LINE
  5
286
100
AcDbEntity
100
AcDbLine
  8
0
 62
256
370
-1
 48
1.0
  6
BYLAYER
 10
-17.1706000000000003
 20
14.8186
 30
0.0
 11
-17.2589000000000006
 21
14.7437000000000005
 31
0.0
  0
LINE
  5
287
100
AcDbEntity
100
AcDbLine
  8
0
 62
256
370
-1
 48
1.0
  6
BYLAYER
 10
-17.2589000000000006
 20
14.7437000000000005
 30
0.0
 11
-17.3611000000000004
 21
14.6965000000000003
 31
0.0
  0
LINE
  5
288
100
AcDbEntity
100
AcDbLine
  8
0
 62
256
370
-1
 48
1.0
  6
BYLAYER
 10
-17.3611000000000004
 20
14.6965000000000003
 30
0.0
 11
-17.4705000000000013
 21
14.6786999999999992
 31
0.0
  0
LINE
  5
289
100
AcDbEntity
100
AcDbLine
  8
0
 62
256
370
-1
 48
1.0
  6
BYLAYER
 10
-17.4705000000000013
 20
14.6786999999999992
 30
0.0
 11
-17.5804000000000009
 21
14.6923999999999992
 31
0.0
  0
LINE
  5
28A
100
AcDbEntity
100
AcDbLine
  8
0
 62
256
370
-1
 48
1.0
  6
BYLAYER
 10
-17.5804000000000009
 20
14.6923999999999992
 30
0.0
 11
-18.4731999999999985
 21
14.9413999999999998
 31
0.0
  0
LINE
  5
28B
100
AcDbEntity
100
AcDbLine
  8
0
 62
256
370
-1
 48
1.0
  6
BYLAYER
 10
-18.4731999999999985
 20
14.9413999999999998
 30
0.0
 11
-18.583400000000001
 21
14.9550999999999998
 31
0.0
  0
LINE
  5
28C
100
AcDbEntity
100
AcDbLine
  8
0
 62
256
370
-1
 48
1.0
  6
BYLAYER
 10
-18.583400000000001
 20
14.9550999999999998
 30
0.0
 11
-18.6927999999999983
 21
14.9372000000000007
 31
0.0
  0
LINE
  5
28D
100
AcDbEntity
100
AcDbLine
  8
0
 62
256
370
-1
 48
1.0
  6
BYLAYER
 10
-18.6927999999999983
 20
14.9372000000000007
 30
0.0
 11
-18.7948999999999984
 21
14.8899000000000008
 31
0.0
  0
LINE
  5
28E
100
AcDbEntity
100
AcDbLine
  8
0
 62
256
370
-1
 48
1.0
  6
BYLAYER
 10
-18.7948999999999984
 20
14.8899000000000008
 30
0.0
 11
-18.8583999999999996
 21
14.8361000000000001
 31
0.0
  0
LINE
  5
28F
100
AcDbEntity
100
AcDbLine
  8
0
 62
256
370
-1
 48
1.0
  6
BYLAYER
 10
-18.8583999999999996
 20
14.8361000000000001
 30
0.0
 11
-19.4174000000000007
 21
14.1075999999999997
 31
0.0
  0
LINE
  5
290
100
AcDbEntity
100
AcDbLine
  8
0
 62
256
370
-1
 48
1.0
  6
BYLAYER
 10
-19.4174000000000007
 20
14.1075999999999997
 30
0.0
 11
-19.9375
 21
13.3507999999999996
 31
0.0
  0
LINE
  5
291
100
AcDbEntity
100
AcDbLine
  8
0
 62
256
370
-1
 48
1.0
  6
BYLAYER
 10
-19.9375
 20
13.3507999999999996
 30
0.0
 11
-19.9692000000000007
 21
13.2736000000000001
 31
0.0
  0
LINE
  5
292
100
AcDbEntity
100
AcDbLine
  8
0
 62
256
370
-1
 48
1.0
  6
BYLAYER
 10
-19.9692000000000007
 20
13.2736000000000001
 30
0.0
 11
-19.9826000000000015
 21
13.1620000000000008
 31
0.0
  0
LINE
  5
293
100
AcDbEntity
100
AcDbLine
  8
0
 62
256
370
-1
 48
1.0
  6
BYLAYER
 10
-19.9826000000000015
 20
13.1620000000000008
 30
0.0
 11
-19.9656999999999982
 21
13.0525000000000002
 31
0.0
  0
LINE
  5
294
100
AcDbEntity
100
AcDbLine
  8
0
 62
256
370
-1
 48
1.0
  6
BYLAYER
 10
-19.9656999999999982
 20
13.0525000000000002
 30
0.0
 11
-19.9186000000000014
 21
12.9519000000000002
 31
0.0
  0
LINE
  5
295
100
AcDbEntity
100
AcDbLine
  8
0
 62
256
370
-1
 48
1.0
  6
BYLAYER
 10
-19.9186000000000014
 20
12.9519000000000002
 30
0.0
 11
-19.405899999999999
 21
12.1797000000000004
 31
0.0
  0
LINE
  5
296
100
AcDbEntity
100
AcDbLine
  8
0
 62
256
370
-1
 48
1.0
  6
BYLAYER
 10
-19.405899999999999
 20
12.1797000000000004
 30
0.0
 11
-19.3590000000000018
 21
12.0794999999999995
 31
0.0
  0
LINE
  5
297
100
AcDbEntity
100
AcDbLine
  8
0
 62
256
370
-1
 48
1.0
  6
BYLAYER
 10
-19.3590000000000018
 20
12.0794999999999995
 30
0.0
 11
-19.3419999999999987
 21
11.9700000000000006
 31
0.0
  0
LINE
  5
298
100
AcDbEntity
100
AcDbLine
  8
0
 62
256
370
-1
 48
1.0
  6
BYLAYER
 10
-19.3419999999999987
 20
11.9700000000000006
 30
0.0
 11
-19.3553999999999995
 21
11.8582000000000001
 31
0.0
  0
LINE
  5
299
100
AcDbEntity
100
AcDbLine
  8
0
 62
256
370
-1
 48
1.0
  6
BYLAYER
 10
-19.3553999999999995
 20
11.8582000000000001
 30
0.0
 11
-19.3993000000000002
 21
11.7509999999999994
 31
0.0
  0
LINE
  5
29A
100
AcDbEntity
100
AcDbLine
  8
0
 62
256
370
-1
 48
1.0
  6
BYLAYER
 10
-19.3993000000000002
 20
11.7509999999999994
 30
0.0
 11
-19.8763000000000005
 21
10.9247999999999994
 31
0.0
  0
LINE
  5
29B
100
AcDbEntity
100
AcDbLine
  8
0
 62
256
370
-1
 48
1.0
  6
BYLAYER
 10
-19.8763000000000005
 20
10.9247999999999994
 30
0.0
 11
-19.9471999999999987
 21
10.8331999999999997
 31
0.0
  0
LINE
  5
29C
100
AcDbEntity
100
AcDbLine
  8
0
 62
256
370
-1
 48
1.0
  6
BYLAYER
 10
-19.9471999999999987
 20
10.8331999999999997
 30
0.0
 11
-20.0372999999999983
 21
10.7657000000000007
 31
0.0
  0
LINE
  5
29D
100
AcDbEntity
100
AcDbLine
  8
0
 62
256
370
-1
 48
1.0
  6
BYLAYER
 10
-20.0372999999999983
 20
10.7657000000000007
 30
0.0
 11
-20.1405999999999992
 21
10.7256
 31
0.0
  0
LINE
  5
29E
100
AcDbEntity
100
AcDbLine
  8
0
 62
256
370
-1
 48
1.0
  6
BYLAYER
 10
-20.1405999999999992
 20
10.7256
 30
0.0
 11
-20.2509000000000015
 21
10.7161000000000008
 31
0.0
  0
LINE
  5
29F
100
AcDbEntity
100
AcDbLine
  8
0
 62
256
370
-1
 48
1.0
  6
BYLAYER
 10
-20.2509000000000015
 20
10.7161000000000008
 30
0.0
 11
-21.1759999999999984
 21
10.7741000000000007
 31
0.0
  0
LINE
  5
2A0
100
AcDbEntity
100
AcDbLine
  8
0
 62
256
370
-1
 48
1.0
  6
BYLAYER
 10
-21.1759999999999984
 20
10.7741000000000007
 30
0.0
 11
-21.2866999999999997
 21
10.7645
 31
0.0
  0
LINE
  5
2A1
100
AcDbEntity
100
AcDbLine
  8
0
 62
256
370
-1
 48
1.0
  6
BYLAYER
 10
-21.2866999999999997
 20
10.7645
 30
0.0
 11
-21.3900000000000006
 21
10.7243999999999993
 31
0.0
  0
LINE
  5
2A2
100
AcDbEntity
100
AcDbLine
  8
0
 62
256
370
-1
 48
1.0
  6
BYLAYER
 10
-21.3900000000000006
 20
10.7243999999999993
 30
0.0
 11
-21.4799000000000007
 21
10.6569000000000003
 31
0.0
  0
LINE
  5
2A3
100
AcDbEntity
100
AcDbLine
  8
0
 62
256
370
-1
 48
1.0
  6
BYLAYER
 10
-21.4799000000000007
 20
10.6569000000000003
 30
0.0
 11
-21.530899999999999
 21
10.5909999999999993
 31
0.0
  0
LINE
  5
2A4
100
AcDbEntity
100
AcDbLine
  8
0
 62
256
370
-1
 48
1.0
  6
BYLAYER
 10
-21.530899999999999
 20
10.5909999999999993
 30
0.0
 11
-21.9262000000000015
 21
9.7621699999999993
 31
0.0
  0
LINE
  5
2A5
100
AcDbEntity
100
AcDbLine
  8
0
 62
256
370
-1
 48
1.0
  6
BYLAYER
 10
-21.9262000000000015
 20
9.7621699999999993
 30
0.0
 11
-22.2775999999999996
 21
8.9137900000000005
 31
0.0
  0
LINE
  5
2A6
100
AcDbEntity
100
AcDbLine
  8
0
 62
256
370
-1
 48
1.0
  6
BYLAYER
 10
-22.2775999999999996
 20
8.9137900000000005
 30
0.0
 11
-22.2925000000000004
 21
8.8317200000000007
 31
0.0
  0
LINE
  5
2A7
100
AcDbEntity
100
AcDbLine
  8
0
 62
256
370
-1
 48
1.0
  6
BYLAYER
 10
-22.2925000000000004
 20
8.8317200000000007
 30
0.0
 11
-22.2824999999999989
 21
8.7197200000000006
 31
0.0
  0
LINE
  5
2A8
100
AcDbEntity
100
AcDbLine
  8
0
 62
256
370
-1
 48
1.0
  6
BYLAYER
 10
-22.2824999999999989
 20
8.7197200000000006
 30
0.0
 11
-22.2432000000000016
 21
8.6161499999999993
 31
0.0
  0
LINE
  5
2A9
100
AcDbEntity
100
AcDbLine
  8
0
 62
256
370
-1
 48
1.0
  6
BYLAYER
 10
-22.2432000000000016
 20
8.6161499999999993
 30
0.0
 11
-22.1762000000000015
 21
8.5275800000000004
 31
0.0
  0
LINE
  5
2AA
100
AcDbEntity
100
AcDbLine
  8
0
 62
256
370
-1
 48
1.0
  6
BYLAYER
 10
-22.1762000000000015
 20
8.5275800000000004
 30
0.0
 11
-21.5141999999999989
 21
7.87887
 31
0.0
  0
LINE
  5
2AB
100
AcDbEntity
100
AcDbLine
  8
0
 62
256
370
-1
 48
1.0
  6
BYLAYER
 10
-21.5141999999999989
 20
7.87887
 30
0.0
 11
-21.4473999999999982
 21
7.7905600000000002
 31
0.0
  0
LINE
  5
2AC
100
AcDbEntity
100
AcDbLine
  8
0
 62
256
370
-1
 48
1.0
  6
BYLAYER
 10
-21.4473999999999982
 20
7.7905600000000002
 30
0.0
 11
-21.408100000000001
 21
7.6869500000000004
 31
0.0
  0
LINE
  5
2AD
100
AcDbEntity
100
AcDbLine
  8
0
 62
256
370
-1
 48
1.0
  6
BYLAYER
 10
-21.408100000000001
 20
7.6869500000000004
 30
0.0
 11
-21.3978999999999999
 21
7.5748199999999999
 31
0.0
  0
LINE
  5
2AE
100
AcDbEntity
100
AcDbLine
  8
0
 62
256
370
-1
 48
1.0
  6
BYLAYER
 10
-21.3978999999999999
 20
7.5748199999999999
 30
0.0
 11
-21.4185000000000016
 21
7.4608600000000003
 31
0.0
  0
LINE
  5
2AF
100
AcDbEntity
100
AcDbLine
  8
0
 62
256
370
-1
 48
1.0
  6
BYLAYER
 10
-21.4185000000000016
 20
7.4608600000000003
 30
0.0
 11
-21.7133000000000003
 21
6.5535399999999999
 31
0.0
  0
LINE
  5
2B0
100
AcDbEntity
100
AcDbLine
  8
0
 62
256
370
-1
 48
1.0
  6
BYLAYER
 10
-21.7133000000000003
 20
6.5535399999999999
 30
0.0
 11
-21.7636000000000003
 21
6.4492099999999999
 31
0.0
  0
LINE
  5
2B1
100
AcDbEntity
100
AcDbLine
  8
0
 62
256
370
-1
 48
1.0
  6
BYLAYER
 10
-21.7636000000000003
 20
6.4492099999999999
 30
0.0
 11
-21.8378000000000014
 21
6.3644699999999998
 31
0.0
  0
LINE
  5
2B2
100
AcDbEntity
100
AcDbLine
  8
0
 62
256
370
-1
 48
1.0
  6
BYLAYER
 10
-21.8378000000000014
 20
6.3644699999999998
 30
0.0
 11
-21.9304999999999986
 21
6.3037700000000001
 31
0.0
  0
LINE
  5
2B3
100
AcDbEntity
100
AcDbLine
  8
0
 62
256
370
-1
 48
1.0
  6
BYLAYER
 10
-21.9304999999999986
 20
6.3037700000000001
 30
0.0
 11
-22.0364000000000004
 21
6.27156
 31
0.0
  0
LINE
  5
2B4
100
AcDbEntity
100
AcDbLine
  8
0
 62
256
370
-1
 48
1.0
  6
BYLAYER
 10
-22.0364000000000004
 20
6.27156
 30
0.0
 11
-22.9532999999999987
 21
6.1358800000000002
 31
0.0
  0
LINE
  5
2B5
100
AcDbEntity
100
AcDbLine
  8
0
 62
256
370
-1
 48
1.0
  6
BYLAYER
 10
-22.9532999999999987
 20
6.1358800000000002
 30
0.0
 11
-23.0595999999999997
 21
6.1035700000000004
 31
0.0
  0
LINE
  5
2B6
100
AcDbEntity
100
AcDbLine
  8
0
 62
256
370
-1
 48
1.0
  6
BYLAYER
 10
-23.0595999999999997
 20
6.1035700000000004
 30
0.0
 11
-23.1523000000000003
 21
6.0427900000000001
 31
0.0
  0
LINE
  5
2B7
100
AcDbEntity
100
AcDbLine
  8
0
 62
256
370
-1
 48
1.0
  6
BYLAYER
 10
-23.1523000000000003
 20
6.0427900000000001
 30
0.0
 11
-23.2261999999999986
 21
5.9580599999999997
 31
0.0
  0
LINE
  5
2B8
100
AcDbEntity
100
AcDbLine
  8
0
 62
256
370
-1
 48
1.0
  6
BYLAYER
 10
-23.2261999999999986
 20
5.9580599999999997
 30
0.0
 11
-23.2623999999999995
 21
5.8830200000000001
 31
0.0
  0
LINE
  5
2B9
100
AcDbEntity
100
AcDbLine
  8
0
 62
256
370
-1
 48
1.0
  6
BYLAYER
 10
-23.2623999999999995
 20
5.8830200000000001
 30
0.0
 11
-23.476700000000001
 21
4.9901299999999997
 31
0.0
  0
LINE
  5
2BA
100
AcDbEntity
100
AcDbLine
  8
0
 62
256
370
-1
 48
1.0
  6
BYLAYER
 10
-23.476700000000001
 20
4.9901299999999997
 30
0.0
 11
-23.6441000000000017
 21
4.0872299999999999
 31
0.0
  0
LINE
  5
2BB
100
AcDbEntity
100
AcDbLine
  8
0
 62
256
370
-1
 48
1.0
  6
BYLAYER
 10
-23.6441000000000017
 20
4.0872299999999999
 30
0.0
 11
-23.6416000000000004
 21
4.0038499999999999
 31
0.0
  0
LINE
  5
2BC
100
AcDbEntity
100
AcDbLine
  8
0
 62
256
370
-1
 48
1.0
  6
BYLAYER
 10
-23.6416000000000004
 20
4.0038499999999999
 30
0.0
 11
-23.6084999999999994
 21
3.8963899999999998
 31
0.0
  0
LINE
  5
2BD
100
AcDbEntity
100
AcDbLine
  8
0
 62
256
370
-1
 48
1.0
  6
BYLAYER
 10
-23.6084999999999994
 20
3.8963899999999998
 30
0.0
 11
-23.5485000000000007
 21
3.8032400000000002
 31
0.0
  0
LINE
  5
2BE
100
AcDbEntity
100
AcDbLine
  8
0
 62
256
370
-1
 48
1.0
  6
BYLAYER
 10
-23.5485000000000007
 20
3.8032400000000002
 30
0.0
 11
-23.4646000000000008
 21
3.73054
 31
0.0
  0
LINE
  5
2BF
100
AcDbEntity
100
AcDbLine
  8
0
 62
256
370
-1
 48
1.0
  6
BYLAYER
 10
-23.4646000000000008
 20
3.73054
 30
0.0
 11
-22.6820999999999984
 21
3.23366
 31
0.0
  0
LINE
  5
2C0
100
AcDbEntity
100
AcDbLine
  8
0
 62
256
370
-1
 48
1.0
  6
BYLAYER
 10
-22.6820999999999984
 20
3.23366
 30
0.0
 11
-22.5985000000000014
 21
3.1611500000000001
 31
0.0
  0
LINE
  5
2C1
100
AcDbEntity
100
AcDbLine
  8
0
 62
256
370
-1
 48
1.0
  6
BYLAYER
 10
-22.5985000000000014
 20
3.1611500000000001
 30
0.0
 11
-22.5384999999999991
 21
3.06799
 31
0.0
  0
LINE
  5
2C2
100
AcDbEntity
100
AcDbLine
  8
0
 62
256
370
-1
 48
1.0
  6
BYLAYER
 10
-22.5384999999999991
 20
3.06799
 30
0.0
 11
-22.5051999999999985
 21
2.96041
 31
0.0
  0
LINE
  5
2C3
100
AcDbEntity
100
AcDbLine
  8
0
 62
256
370
-1
 48
1.0
  6
BYLAYER
 10
-22.5051999999999985
 20
2.96041
 30
0.0
 11
-22.5016999999999996
 21
2.8446600000000002
 31
0.0
  0
LINE
  5
2C4
100
AcDbEntity
100
AcDbLine
  8
0
 62
256
370
-1
 48
1.0
  6
BYLAYER
 10
-22.5016999999999996
 20
2.8446600000000002
 30
0.0
 11
-22.6014000000000017
 21
1.8958699999999999
 31
0.0
  0
LINE
  5
2C5
100
AcDbEntity
100
AcDbLine
  8
0
 62
256
370
-1
 48
1.0
  6
BYLAYER
 10
-22.6014000000000017
 20
1.8958699999999999
 30
0.0
 11
-22.6289000000000016
 21
1.7833699999999999
 31
0.0
  0
LINE
  5
2C6
100
AcDbEntity
100
AcDbLine
  8
0
 62
256
370
-1
 48
1.0
  6
BYLAYER
 10
-22.6289000000000016
 20
1.7833699999999999
 30
0.0
 11
-22.6838000000000015
 21
1.6850700000000001
 31
0.0
  0
LINE
  5
2C7
100
AcDbEntity
100
AcDbLine
  8
0
 62
256
370
-1
 48
1.0
  6
BYLAYER
 10
-22.6838000000000015
 20
1.6850700000000001
 30
0.0
 11
-22.7619000000000007
 21
1.6064099999999999
 31
0.0
  0
LINE
  5
2C8
100
AcDbEntity
100
AcDbLine
  8
0
 62
256
370
-1
 48
1.0
  6
BYLAYER
 10
-22.7619000000000007
 20
1.6064099999999999
 30
0.0
 11
-22.8587999999999987
 21
1.5528900000000001
 31
0.0
  0
LINE
  5
2C9
100
AcDbEntity
100
AcDbLine
  8
0
 62
256
370
-1
 48
1.0
  6
BYLAYER
 10
-22.8587999999999987
 20
1.5528900000000001
 30
0.0
 11
-23.7273999999999994
 21
1.2295400000000001
 31
0.0
  0
LINE
  5
2CA
100
AcDbEntity
100
AcDbLine
  8
0
 62
256
370
-1
 48
1.0
  6
BYLAYER
 10
-23.7273999999999994
 20
1.2295400000000001
 30
0.0
 11
-23.8247
 21
1.1758299999999999
 31
0.0
  0
LINE
  5
2CB
100
AcDbEntity
100
AcDbLine
  8
0
 62
256
370
-1
 48
1.0
  6
BYLAYER
 10
-23.8247
 20
1.1758299999999999
 30
0.0
 11
-23.9026999999999994
 21
1.09711
 31
0.0
  0
LINE
  5
2CC
100
AcDbEntity
100
AcDbLine
  8
0
 62
256
370
-1
 48
1.0
  6
BYLAYER
 10
-23.9026999999999994
 20
1.09711
 30
0.0
 11
-23.9574999999999996
 21
0.998852
 31
0.0
  0
LINE
  5
2CD
100
AcDbEntity
100
AcDbLine
  8
0
 62
256
370
-1
 48
1.0
  6
BYLAYER
 10
-23.9574999999999996
 20
0.998852
 30
0.0
 11
-23.9771999999999998
 21
0.91794
 31
0.0
  0
LINE
  5
2CE
100
AcDbEntity
100
AcDbLine
  8
0
 62
256
370
-1
 48
1.0
  6
BYLAYER
 10
-23.9771999999999998
 20
0.91794
 30
0.0
 11
-24.0012000000000008
 21
0.0
 31
0.0
  0
CIRCLE
  5
2CF
100
AcDbEntity
100
AcDbCircle
  8
0
 62
3
420
65280
370
-1
 48
1.0
  6
BYLAYER
 10
-0.0000000000000002
 20
0.0000000000000002
 30
0.0
 40
2.5999986488233833
  0
ENDSEC
  0
SECTION
  2
OBJECTS
  0
DICTIONARY
  5
C
100
AcDbDictionary
280
0
281
1
  3
ACAD_GROUP
350
D
  3
ACAD_LAYOUT
350
1A
  3
ACAD_MLINESTYLE
350
17
  3
ACAD_PLOTSETTINGS
350
19
  3
ACAD_PLOTSTYLENAME
350
E
  3
AcDbVariableDictionary
350
2D0
  3
QCAD_OBJECTS
350
2D1
  0
DICTIONARY
  5
D
100
AcDbDictionary
280
0
281
1
  0
ACDBDICTIONARYWDFLT
  5
E
100
AcDbDictionary
281
1
  3
Normal
350
F
100
AcDbDictionaryWithDefault
340
F
  0
ACDBPLACEHOLDER
  5
F
  0
DICTIONARY
  5
17
100
AcDbDictionary
280
0
281
1
  3
Standard
350
18
  0
MLINESTYLE
  5
18
100
AcDbMlineStyle
  2
STANDARD
 70
0
  3

 62
256
 51
90.0
 52
90.0
 71
2
 49
0.5
 62
256
  6
BYLAYER
 49
-0.5
 62
256
  6
BYLAYER
  0
DICTIONARY
  5
19
100
AcDbDictionary
280
0
281
1
  0
DICTIONARY
  5
1A
100
AcDbDictionary
281
1
  3
Layout1
350
1E
  3
Layout2
350
26
  3
Model
350
22
  0
LAYOUT
  5
1E
100
AcDbPlotSettings
  1

  2
none_device
  4

  6

 40
0.0
 41
0.0
 42
0.0
 43
0.0
 44
0.0
 45
0.0
 46
0.0
 47
0.0
 48
0.0
 49
0.0
140
0.0
141
0.0
142
1.0
143
1.0
 70
688
 72
0
 73
0
 74
5
  7

 75
16
147
1.0
148
0.0
149
0.0
100
AcDbLayout
  1
Layout1
 70
1
 71
1
 10
0.0
 20
0.0
 11
420.0
 21
297.0
 12
0.0
 22
0.0
 32
0.0
 14
100000000000000000000.0
 24
100000000000000000000.0
 34
100000000000000000000.0
 15
-100000000000000000000.0
 25
-100000000000000000000.0
 35
-100000000000000000000.0
146
0.0
 13
0.0
 23
0.0
 33
0.0
 16
1.0
 26
0.0
 36
0.0
 17
0.0
 27
1.0
 37
0.0
 76
0
330
1B
  0
LAYOUT
  5
22
100
AcDbPlotSettings
  1

  2
none_device
  4

  6

 40
0.0
 41
0.0
 42
0.0
 43
0.0
 44
0.0
 45
0.0
 46
0.0
 47
0.0
 48
0.0
 49
0.0
140
0.0
141
0.0
142
1.0
143
1.0
 70
1712
 72
0
 73
0
 74
0
  7

 75
0
147
1.0
148
0.0
149
0.0
100
AcDbLayout
  1
Model
 70
1
 71
0
 10
0.0
 20
0.0
 11
12.0
 21
9.0
 12
0.0
 22
0.0
 32
0.0
 14
0.0
 24
0.0
 34
0.0
 15
0.0
 25
0.0
 35
0.0
146
0.0
 13
0.0
 23
0.0
 33
0.0
 16
1.0
 26
0.0
 36
0.0
 17
0.0
 27
1.0
 37
0.0
 76
0
330
1F
  0
LAYOUT
  5
26
100
AcDbPlotSettings
  1

  2
none_device
  4

  6

 40
0.0
 41
0.0
 42
0.0
 43
0.0
 44
0.0
 45
0.0
 46
0.0
 47
0.0
 48
0.0
 49
0.0
140
0.0
141
0.0
142
1.0
143
1.0
 70
688
 72
0
 73
0
 74
5
  7

 75
16
147
1.0
148
0.0
149
0.0
100
AcDbLayout
  1
Layout2
 70
1
 71
2
 10
0.0
 20
0.0
 11
12.0
 21
9.0
 12
0.0
 22
0.0
 32
0.0
 14
0.0
 24
0.0
 34
0.0
 15
0.0
 25
0.0
 35
0.0
146
0.0
 13
0.0
 23
0.0
 33
0.0
 16
1.0
 26
0.0
 36
0.0
 17
0.0
 27
1.0
 37
0.0
 76
0
330
23
  0
DICTIONARY
  5
2D0
100
AcDbDictionary
281
1
  3
DIMASSOC
350
2D3
  3
HIDETEXT
350
2D2
  0
DICTIONARYVAR
  5
2D2
100
DictionaryVariables
280
0
  1
2
  0
DICTIONARYVAR
  5
2D3
100
DictionaryVariables
280
0
  1
1
  0
DICTIONARY
  5
2D1
100
AcDbDictionary
281
1
  3
ColorSettings/BackgroundColor
350
2D4
  3
ColorSettings/ColorMode
350
2D5
  3
Grid/DisplayGrid00
350
2D6
  3
Grid/DisplayGrid01
350
2D7
  3
Grid/DisplayGrid02
350
2D8
  3
Grid/DisplayGrid03
350
2D9
  3
Grid/GridSpacingX00
350
2DA
  3
Grid/GridSpacingX01
350
2DB
  3
Grid/GridSpacingX02
350
2DC
  3
Grid/GridSpacingX03
350
2DD
  3
Grid/GridSpacingY00
350
2DE
  3
Grid/GridSpacingY01
350
2DF
  3
Grid/GridSpacingY02
350
2E0
  3
Grid/GridSpacingY03
350
2E1
  3
Grid/IsometricGrid00
350
2E2
  3
Grid/IsometricGrid01
350
2E3
  3
Grid/IsometricGrid02
350
2E4
  3
Grid/IsometricGrid03
350
2E5
  3
Grid/IsometricProjection00
350
2E6
  3
Grid/IsometricProjection01
350
2E7
  3
Grid/IsometricProjection02
350
2E8
  3
Grid/IsometricProjection03
350
2E9
  3
Grid/MetaGridSpacingX00
350
2EA
  3
Grid/MetaGridSpacingX01
350
2EB
  3
Grid/MetaGridSpacingX02
350
2EC
  3
Grid/MetaGridSpacingX03
350
2ED
  3
Grid/MetaGridSpacingY00
350
2EE
  3
Grid/MetaGridSpacingY01
350
2EF
  3
Grid/MetaGridSpacingY02
350
2F0
  3
Grid/MetaGridSpacingY03
350
2F1
  3
MultiPageSettings/Columns
350
2F2
  3
MultiPageSettings/GlueMarginsBottom
350
2F3
  3
MultiPageSettings/GlueMarginsLeft
350
2F4
  3
MultiPageSettings/GlueMarginsRight
350
2F5
  3
MultiPageSettings/GlueMarginsTop
350
2F6
  3
MultiPageSettings/PrintCropMarks
350
2F7
  3
MultiPageSettings/Rows
350
2F8
  3
PageSettings/OffsetX
350
2F9
  3
PageSettings/OffsetY
350
2FA
  3
PageSettings/PageOrientation
350
2FB
  3
PageSettings/PaperHeight
350
2FC
  3
PageSettings/PaperWidth
350
2FD
  3
PageSettings/Scale
350
2FE
  3
PageSettings/ShowPaperBorders
350
2FF
  3
QCADVersion
350
300
  3
UnitSettings/Measurement
350
301
  3
UnitSettings/PaperUnit
350
302
  0
XRECORD
  5
2D4
330
2D1
100
AcDbXrecord
280
1
1000
White
  0
XRECORD
  5
2D5
330
2D1
100
AcDbXrecord
280
1
1000
FullColor
  0
XRECORD
  5
2D6
330
2D1
100
AcDbXrecord
280
1
290
1
  0
XRECORD
  5
2D7
330
2D1
100
AcDbXrecord
280
1
290
1
  0
XRECORD
  5
2D8
330
2D1
100
AcDbXrecord
280
1
290
1
  0
XRECORD
  5
2D9
330
2D1
100
AcDbXrecord
280
1
290
1
  0
XRECORD
  5
2DA
330
2D1
100
AcDbXrecord
280
1
1000
auto
  0
XRECORD
  5
2DB
330
2D1
100
AcDbXrecord
280
1
1000
auto
  0
XRECORD
  5
2DC
330
2D1
100
AcDbXrecord
280
1
1000
auto
  0
XRECORD
  5
2DD
330
2D1
100
AcDbXrecord
280
1
1000
auto
  0
XRECORD
  5
2DE
330
2D1
100
AcDbXrecord
280
1
1000
auto
  0
XRECORD
  5
2DF
330
2D1
100
AcDbXrecord
280
1
1000
auto
  0
XRECORD
  5
2E0
330
2D1
100
AcDbXrecord
280
1
1000
auto
  0
XRECORD
  5
2E1
330
2D1
100
AcDbXrecord
280
1
1000
auto
  0
XRECORD
  5
2E2
330
2D1
100
AcDbXrecord
280
1
290
0
  0
XRECORD
  5
2E3
330
2D1
100
AcDbXrecord
280
1
290
0
  0
XRECORD
  5
2E4
330
2D1
100
AcDbXrecord
280
1
290
0
  0
XRECORD
  5
2E5
330
2D1
100
AcDbXrecord
280
1
290
0
  0
XRECORD
  5
2E6
330
2D1
100
AcDbXrecord
280
1
 90
0
  0
XRECORD
  5
2E7
330
2D1
100
AcDbXrecord
280
1
 90
0
  0
XRECORD
  5
2E8
330
2D1
100
AcDbXrecord
280
1
 90
0
  0
XRECORD
  5
2E9
330
2D1
100
AcDbXrecord
280
1
 90
0
  0
XRECORD
  5
2EA
330
2D1
100
AcDbXrecord
280
1
1000
auto
  0
XRECORD
  5
2EB
330
2D1
100
AcDbXrecord
280
1
1000
auto
  0
XRECORD
  5
2EC
330
2D1
100
AcDbXrecord
280
1
1000
auto
  0
XRECORD
  5
2ED
330
2D1
100
AcDbXrecord
280
1
1000
auto
  0
XRECORD
  5
2EE
330
2D1
100
AcDbXrecord
280
1
1000
auto
  0
XRECORD
  5
2EF
330
2D1
100
AcDbXrecord
280
1
1000
auto
  0
XRECORD
  5
2F0
330
2D1
100
AcDbXrecord
280
1
1000
auto
  0
XRECORD
  5
2F1
330
2D1
100
AcDbXrecord
280
1
1000
auto
  0
XRECORD
  5
2F2
330
2D1
100
AcDbXrecord
280
1
 90
1
  0
XRECORD
  5
2F3
330
2D1
100
AcDbXrecord
280
1
 40
0.5
  0
XRECORD
  5
2F4
330
2D1
100
AcDbXrecord
280
1
 40
0.5
  0
XRECORD
  5
2F5
330
2D1
100
AcDbXrecord
280
1
 40
0.5
  0
XRECORD
  5
2F6
330
2D1
100
AcDbXrecord
280
1
 40
0.5
  0
XRECORD
  5
2F7
330
2D1
100
AcDbXrecord
280
1
290
0
  0
XRECORD
  5
2F8
330
2D1
100
AcDbXrecord
280
1
 90
1
  0
XRECORD
  5
2F9
330
2D1
100
AcDbXrecord
280
1
 40
0.0
  0
XRECORD
  5
2FA
330
2D1
100
AcDbXrecord
280
1
 40
0.0
  0
XRECORD
  5
2FB
330
2D1
100
AcDbXrecord
280
1
1000
Portrait
  0
XRECORD
  5
2FC
330
2D1
100
AcDbXrecord
280
1
 40
297.0
  0
XRECORD
  5
2FD
330
2D1
100
AcDbXrecord
280
1
 40
210.0
  0
XRECORD
  5
2FE
330
2D1
100
AcDbXrecord
280
1
1000
1:1
  0
XRECORD
  5
2FF
330
2D1
100
AcDbXrecord
280
1
290
1
  0
XRECORD
  5
300
330
2D1
100
AcDbXrecord
280
1
1000
3.11.3
  0
XRECORD
  5
301
330
2D1
100
AcDbXrecord
280
1
 90
0
  0
XRECORD
  5
302
330
2D1
100
AcDbXrecord
280
1
 90
0
  0
ENDSEC
  0
EOF
