999
dxflib 3.7.5.0
  0
SECTION
  2
HEADER
  9
$ACADVER
  1
AC1015
  9
$HANDSEED
  5
FFFF
  9
$DIMADEC
 70
1
  9
$DIMASZ
 40
0.125
  9
$DIMAUNIT
 70
0
  9
$DIMAZIN
 70
2
  9
$DIMDEC
 70
3
  9
$DIMEXE
 40
0.0625
  9
$DIMEXO
 40
0.03125
  9
$DIMGAP
 40
0.03125
  9
$DIMLUNIT
 70
5
  9
$DIMSCALE
 40
1.0
  9
$DIMTSZ
 40
0.125
  9
$DIMTXT
 40
0.125
  9
$DIMZIN
 70
8
  9
$DWGCODEPAGE
  3
ANSI_1252
  9
$INSUNITS
 70
1
  9
$LTSCALE
 40
1.0
  9
$MEASUREMENT
 70
0
  9
$PDMODE
 70
2
  9
$PDSIZE
 40
2.0
  0
ENDSEC
  0
SECTION
  2
TABLES
  0
TABLE
  2
VPORT
  5
8
100
AcDbSymbolTable
 70
1
  0
VPORT
  5
30
100
AcDbSymbolTableRecord
100
AcDbViewportTableRecord
  2
*Active
 70
0
 10
0.0
 20
0.0
 11
1.0
 21
1.0
 12
286.3055555555554861
 22
148.5
 13
0.0
 23
0.0
 14
10.0
 24
10.0
 15
10.0
 25
10.0
 16
0.0
 26
0.0
 36
1.0
 17
0.0
 27
0.0
 37
0.0
 40
297.0
 41
1.92798353909465
 42
50.0
 43
0.0
 44
0.0
 50
0.0
 51
0.0
 71
0
 72
100
 73
1
 74
3
 75
1
 76
1
 77
0
 78
0
281
0
 65
1
110
0.0
120
0.0
130
0.0
111
1.0
121
0.0
131
0.0
112
0.0
122
1.0
132
0.0
 79
0
146
0.0
  0
ENDTAB
  0
TABLE
  2
LTYPE
  5
5
100
AcDbSymbolTable
 70
50
  0
LTYPE
  5
16
100
AcDbSymbolTableRecord
100
AcDbLinetypeTableRecord
  2
Continuous
 70
0
  3
Solid line
 72
65
 73
0
 40
0.0
  0
LTYPE
  5
31
100
AcDbSymbolTableRecord
100
AcDbLinetypeTableRecord
  2
ACAD_ISO15W100
 70
0
  3
ISO double-dash triple-dot __ __ . . . __ __ . .
 72
65
 73
10
 40
39.0000000000000071
 49
12.0
 74
0
 49
-3.0
 74
0
 49
12.0
 74
0
 49
-2.9500000000000002
 74
0
 49
0.1
 74
0
 49
-2.9000000000000004
 74
0
 49
0.1
 74
0
 49
-2.9000000000000004
 74
0
 49
0.1
 74
0
 49
-2.9500000000000002
 74
0
  0
LTYPE
  5
32
100
AcDbSymbolTableRecord
100
AcDbLinetypeTableRecord
  2
HOT_WATER_SUPPLY
 70
0
  3
Hot water supply ---- HW ---- HW ---- HW ----
 72
65
 73
3
 40
22.8599999999999994
 49
12.6999999999999993
 74
0
 49
-5.0800000000000001
 74
0
 49
-5.0800000000000001
 74
0
  0
LTYPE
  5
33
100
AcDbSymbolTableRecord
100
AcDbLinetypeTableRecord
  2
DIVIDE
 70
0
  3
Divide ____ . . ____ . . ____ . . ____ . . ____
 72
65
 73
6
 40
31.7500000000000036
 49
12.6999999999999993
 74
0
 49
-6.2999999999999998
 74
0
 49
0.1
 74
0
 49
-6.25
 74
0
 49
0.1
 74
0
 49
-6.2999999999999998
 74
0
  0
LTYPE
  5
34
100
AcDbSymbolTableRecord
100
AcDbLinetypeTableRecord
  2
ACAD_ISO10W100
 70
0
  3
ISO dash dot __ . __ . __ . __ . __ . __ . __ . 
 72
65
 73
4
 40
18.0
 49
12.0
 74
0
 49
-2.9500000000000002
 74
0
 49
0.1
 74
0
 49
-2.9500000000000002
 74
0
  0
LTYPE
  5
35
100
AcDbSymbolTableRecord
100
AcDbLinetypeTableRecord
  2
GAS_LINE
 70
0
  3
Gas line ----GAS----GAS----GAS----GAS----GAS----GAS--
 72
65
 73
3
 40
24.1300000000000026
 49
12.6999999999999993
 74
0
 49
-5.0800000000000001
 74
0
 49
-6.3499999999999996
 74
0
  0
LTYPE
  5
36
100
AcDbSymbolTableRecord
100
AcDbLinetypeTableRecord
  2
ACAD_ISO04W100
 70
0
  3
ISO long-dash dot ____ . ____ . ____ . ____ . _
 72
65
 73
4
 40
30.0
 49
24.0
 74
0
 49
-2.9500000000000002
 74
0
 49
0.1
 74
0
 49
-2.9500000000000002
 74
0
  0
LTYPE
  5
37
100
AcDbSymbolTableRecord
100
AcDbLinetypeTableRecord
  2
CENTER2
 70
0
  3
Center (.5x) ___ _ ___ _ ___ _ ___ _ ___ _ ___
 72
65
 73
4
 40
28.5750000000000028
 49
19.0500000000000007
 74
0
 49
-3.1749999999999998
 74
0
 49
3.1749999999999998
 74
0
 49
-3.1749999999999998
 74
0
  0
LTYPE
  5
38
100
AcDbSymbolTableRecord
100
AcDbLinetypeTableRecord
  2
ACAD_ISO11W100
 70
0
  3
ISO double-dash dot __ __ . __ __ . __ __ . __ _
 72
65
 73
6
 40
33.0
 49
12.0
 74
0
 49
-3.0
 74
0
 49
12.0
 74
0
 49
-2.9500000000000002
 74
0
 49
0.1
 74
0
 49
-2.9500000000000002
 74
0
  0
LTYPE
  5
39
100
AcDbSymbolTableRecord
100
AcDbLinetypeTableRecord
  2
HIDDEN2
 70
0
  3
Hidden (.5x) _ _ _ _ _ _ _ _ _ _ _ _ _ _ _ _ _ 
 72
65
 73
2
 40
4.7624999999999993
 49
3.1749999999999998
 74
0
 49
-1.5874999999999999
 74
0
  0
LTYPE
  5
3A
100
AcDbSymbolTableRecord
100
AcDbLinetypeTableRecord
  2
BORDERX2
 70
0
  3
Border (2x) ____  ____  .  ____  ____  .  ___
 72
65
 73
6
 40
88.8999999999999773
 49
25.3999999999999986
 74
0
 49
-12.6999999999999993
 74
0
 49
25.3999999999999986
 74
0
 49
-12.6499999999999986
 74
0
 49
0.1
 74
0
 49
-12.6499999999999986
 74
0
  0
LTYPE
  5
3B
100
AcDbSymbolTableRecord
100
AcDbLinetypeTableRecord
  2
ACAD_ISO05W100
 70
0
  3
ISO long-dash double-dot ____ .. ____ .. ____ . 
 72
65
 73
6
 40
33.0000000000000071
 49
24.0
 74
0
 49
-2.9500000000000002
 74
0
 49
0.1
 74
0
 49
-2.9000000000000004
 74
0
 49
0.1
 74
0
 49
-2.9500000000000002
 74
0
  0
LTYPE
  5
3C
100
AcDbSymbolTableRecord
100
AcDbLinetypeTableRecord
  2
DASHDOTX2
 70
0
  3
Dash dot (2x) ____  .  ____  .  ____  .  ___
 72
65
 73
4
 40
50.7999999999999972
 49
25.3999999999999986
 74
0
 49
-12.6499999999999986
 74
0
 49
0.1
 74
0
 49
-12.6499999999999986
 74
0
  0
LTYPE
  5
3D
100
AcDbSymbolTableRecord
100
AcDbLinetypeTableRecord
  2
HIDDENX2
 70
0
  3
Hidden (2x) ____ ____ ____ ____ ____ ____ ____ 
 72
65
 73
2
 40
19.0499999999999972
 49
12.6999999999999993
 74
0
 49
-6.3499999999999996
 74
0
  0
LTYPE
  5
3E
100
AcDbSymbolTableRecord
100
AcDbLinetypeTableRecord
  2
CENTERX2
 70
0
  3
Center (2x) ________  __  ________  __  _____
 72
65
 73
4
 40
101.6000000000000085
 49
63.5
 74
0
 49
-12.6999999999999993
 74
0
 49
12.6999999999999993
 74
0
 49
-12.6999999999999993
 74
0
  0
LTYPE
  5
3F
100
AcDbSymbolTableRecord
100
AcDbLinetypeTableRecord
  2
BORDER2
 70
0
  3
Border (.5x) __.__.__.__.__.__.__.__.__.__.__.
 72
65
 73
6
 40
22.2250000000000014
 49
6.3499999999999996
 74
0
 49
-3.1749999999999998
 74
0
 49
6.3499999999999996
 74
0
 49
-3.125
 74
0
 49
0.1
 74
0
 49
-3.125
 74
0
  0
LTYPE
  5
40
100
AcDbSymbolTableRecord
100
AcDbLinetypeTableRecord
  2
DASHDOT2
 70
0
  3
Dash dot (.5x) _._._._._._._._._._._._._._._.
 72
65
 73
4
 40
12.6999999999999993
 49
6.3499999999999996
 74
0
 49
-3.125
 74
0
 49
0.1
 74
0
 49
-3.125
 74
0
  0
LTYPE
  5
41
100
AcDbSymbolTableRecord
100
AcDbLinetypeTableRecord
  2
ACAD_ISO12W100
 70
0
  3
ISO dash double-dot __ . . __ . . __ . . __ . . 
 72
65
 73
6
 40
21.0
 49
12.0
 74
0
 49
-2.9500000000000002
 74
0
 49
0.1
 74
0
 49
-2.9000000000000004
 74
0
 49
0.1
 74
0
 49
-2.9500000000000002
 74
0
  0
LTYPE
  5
42
100
AcDbSymbolTableRecord
100
AcDbLinetypeTableRecord
  2
ACAD_ISO07W100
 70
0
  3
ISO dot . . . . . . . . . . . . . . . . . . . . 
 72
65
 73
2
 40
3.0
 49
0.1
 74
0
 49
-2.8999999999999999
 74
0
  0
LTYPE
  5
43
100
AcDbSymbolTableRecord
100
AcDbLinetypeTableRecord
  2
HIDDEN
 70
0
  3
Hidden __ __ __ __ __ __ __ __ __ __ __ __ __ __
 72
65
 73
2
 40
9.5249999999999986
 49
6.3499999999999996
 74
0
 49
-3.1749999999999998
 74
0
  0
LTYPE
  5
44
100
AcDbSymbolTableRecord
100
AcDbLinetypeTableRecord
  2
ACAD_ISO06W100
 70
0
  3
ISO long-dash triple-dot ____ ... ____ ... ____
 72
65
 73
8
 40
36.0000000000000071
 49
24.0
 74
0
 49
-2.9500000000000002
 74
0
 49
0.1
 74
0
 49
-2.9000000000000004
 74
0
 49
0.1
 74
0
 49
-2.9000000000000004
 74
0
 49
0.1
 74
0
 49
-2.9500000000000002
 74
0
  0
LTYPE
  5
45
100
AcDbSymbolTableRecord
100
AcDbLinetypeTableRecord
  2
CENTER
 70
0
  3
Center ____ _ ____ _ ____ _ ____ _ ____ _ ____
 72
65
 73
4
 40
50.8000000000000043
 49
31.75
 74
0
 49
-6.3499999999999996
 74
0
 49
6.3499999999999996
 74
0
 49
-6.3499999999999996
 74
0
  0
LTYPE
  5
46
100
AcDbSymbolTableRecord
100
AcDbLinetypeTableRecord
  2
DOTX2
 70
0
  3
Dot (2x) .  .  .  .  .  .  .  .  .  .  .  .  .  .
 72
65
 73
2
 40
12.6999999999999993
 49
0.1
 74
0
 49
-12.5999999999999996
 74
0
  0
LTYPE
  5
47
100
AcDbSymbolTableRecord
100
AcDbLinetypeTableRecord
  2
PHANTOM
 70
0
  3
Phantom ______  __  __  ______  __  __  ______ 
 72
65
 73
6
 40
63.5000000000000071
 49
31.75
 74
0
 49
-6.3499999999999996
 74
0
 49
6.3499999999999996
 74
0
 49
-6.3499999999999996
 74
0
 49
6.3499999999999996
 74
0
 49
-6.3499999999999996
 74
0
  0
LTYPE
  5
48
100
AcDbSymbolTableRecord
100
AcDbLinetypeTableRecord
  2
ACAD_ISO08W100
 70
0
  3
ISO long-dash short-dash ____ __ ____ __ ____ _
 72
65
 73
4
 40
36.0
 49
24.0
 74
0
 49
-3.0
 74
0
 49
6.0
 74
0
 49
-3.0
 74
0
  0
LTYPE
  5
49
100
AcDbSymbolTableRecord
100
AcDbLinetypeTableRecord
  2
DASHEDX2
 70
0
  3
Dashed (2x) ____  ____  ____  ____  ____  ___
 72
65
 73
2
 40
38.0999999999999943
 49
25.3999999999999986
 74
0
 49
-12.6999999999999993
 74
0
  0
LTYPE
  5
4A
100
AcDbSymbolTableRecord
100
AcDbLinetypeTableRecord
  2
DRAINAGE
 70
0
  3
Drainage ---->---->---->----
 72
65
 73
2
 40
10.1600000000000001
 49
5.0800000000000001
 74
0
 49
5.0800000000000001
 74
0
  0
LTYPE
  5
4B
100
AcDbSymbolTableRecord
100
AcDbLinetypeTableRecord
  2
ACAD_ISO02W100
 70
0
  3
ISO dash __ __ __ __ __ __ __ __ __ __ __ __ __
 72
65
 73
2
 40
15.0
 49
12.0
 74
0
 49
-3.0
 74
0
  0
LTYPE
  5
4C
100
AcDbSymbolTableRecord
100
AcDbLinetypeTableRecord
  2
PHANTOM2
 70
0
  3
Phantom (.5x) ___ _ _ ___ _ _ ___ _ _ ___ _ _
 72
65
 73
6
 40
31.7500000000000036
 49
15.875
 74
0
 49
-3.1749999999999998
 74
0
 49
3.1749999999999998
 74
0
 49
-3.1749999999999998
 74
0
 49
3.1749999999999998
 74
0
 49
-3.1749999999999998
 74
0
  0
LTYPE
  5
4D
100
AcDbSymbolTableRecord
100
AcDbLinetypeTableRecord
  2
DASHED2
 70
0
  3
Dashed (.5x) _ _ _ _ _ _ _ _ _ _ _ _ _ _ _ _ _ 
 72
65
 73
2
 40
9.5249999999999986
 49
6.3499999999999996
 74
0
 49
-3.1749999999999998
 74
0
  0
LTYPE
  5
4E
100
AcDbSymbolTableRecord
100
AcDbLinetypeTableRecord
  2
ACAD_ISO09W100
 70
0
  3
ISO long-dash double-short-dash ____ __ __ ____
 72
65
 73
6
 40
45.0
 49
24.0
 74
0
 49
-3.0
 74
0
 49
6.0
 74
0
 49
-3.0
 74
0
 49
6.0
 74
0
 49
-3.0
 74
0
  0
LTYPE
  5
4F
100
AcDbSymbolTableRecord
100
AcDbLinetypeTableRecord
  2
ACAD_ISO13W100
 70
0
  3
ISO double-dash double-dot __ __ . . __ __ . . _
 72
65
 73
8
 40
36.0000000000000071
 49
12.0
 74
0
 49
-3.0
 74
0
 49
12.0
 74
0
 49
-2.9500000000000002
 74
0
 49
0.1
 74
0
 49
-2.9000000000000004
 74
0
 49
0.1
 74
0
 49
-2.9500000000000002
 74
0
  0
LTYPE
  5
50
100
AcDbSymbolTableRecord
100
AcDbLinetypeTableRecord
  2
TRACKS
 70
0
  3
Tracks -|-|-|-|-|-|-|-|-|-|-|-|-|-|-|-|-|-|-|-|-|-|-|-|-
 72
65
 73
2
 40
7.6200000000000001
 49
3.8100000000000001
 74
0
 49
3.8100000000000001
 74
0
  0
LTYPE
  5
51
100
AcDbSymbolTableRecord
100
AcDbLinetypeTableRecord
  2
DRAINAGE2
 70
0
  3
Drainage reversed----<----<----<----
 72
65
 73
2
 40
10.1600000000000001
 49
5.0800000000000001
 74
0
 49
5.0800000000000001
 74
0
  0
LTYPE
  5
52
100
AcDbSymbolTableRecord
100
AcDbLinetypeTableRecord
  2
DOT2
 70
0
  3
Dot (.5x) ........................................
 72
65
 73
2
 40
3.1749999999999998
 49
0.1
 74
0
 49
-3.0749999999999997
 74
0
  0
LTYPE
  5
53
100
AcDbSymbolTableRecord
100
AcDbLinetypeTableRecord
  2
ZIGZAG
 70
0
  3
Zig zag /\/\/\/\/\/\/\/\/\/\/\/\/\/\/\/\/\/\/\/\/\/\/\/
 72
65
 73
4
 40
20.32254
 49
0.00254
 74
0
 49
-5.0800000000000001
 74
0
 49
-10.1600000000000001
 74
0
 49
-5.0800000000000001
 74
0
  0
LTYPE
  5
54
100
AcDbSymbolTableRecord
100
AcDbLinetypeTableRecord
  2
DASHED
 70
0
  3
Dashed __ __ __ __ __ __ __ __ __ __ __ __ __ _
 72
65
 73
2
 40
19.0499999999999972
 49
12.6999999999999993
 74
0
 49
-6.3499999999999996
 74
0
  0
LTYPE
  5
55
100
AcDbSymbolTableRecord
100
AcDbLinetypeTableRecord
  2
ACAD_ISO14W100
 70
0
  3
ISO dash triple-dot __ . . . __ . . . __ . . . _
 72
65
 73
8
 40
24.0000000000000036
 49
12.0
 74
0
 49
-2.9500000000000002
 74
0
 49
0.1
 74
0
 49
-2.9000000000000004
 74
0
 49
0.1
 74
0
 49
-2.9000000000000004
 74
0
 49
0.1
 74
0
 49
-2.9500000000000002
 74
0
  0
LTYPE
  5
15
100
AcDbSymbolTableRecord
100
AcDbLinetypeTableRecord
  2
BYLAYER
 70
0
  3

 72
65
 73
0
 40
0.0
  0
LTYPE
  5
56
100
AcDbSymbolTableRecord
100
AcDbLinetypeTableRecord
  2
PHANTOMX2
 70
0
  3
Phantom (2x) ____________    ____    ____   _
 72
65
 73
6
 40
127.0000000000000142
 49
63.5
 74
0
 49
-12.6999999999999993
 74
0
 49
12.6999999999999993
 74
0
 49
-12.6999999999999993
 74
0
 49
12.6999999999999993
 74
0
 49
-12.6999999999999993
 74
0
  0
LTYPE
  5
14
100
AcDbSymbolTableRecord
100
AcDbLinetypeTableRecord
  2
BYBLOCK
 70
0
  3

 72
65
 73
0
 40
0.0
  0
LTYPE
  5
57
100
AcDbSymbolTableRecord
100
AcDbLinetypeTableRecord
  2
DIVIDEX2
 70
0
  3
Divide (2x) ________  .  .  ________  .  .  _
 72
65
 73
6
 40
63.5
 49
25.3999999999999986
 74
0
 49
-12.6499999999999986
 74
0
 49
0.1
 74
0
 49
-12.5999999999999979
 74
0
 49
0.1
 74
0
 49
-12.6499999999999986
 74
0
  0
LTYPE
  5
58
100
AcDbSymbolTableRecord
100
AcDbLinetypeTableRecord
  2
BORDER
 70
0
  3
Border __ __ . __ __ . __ __ . __ __ . __ __ .
 72
65
 73
6
 40
44.4499999999999957
 49
12.6999999999999993
 74
0
 49
-6.3499999999999996
 74
0
 49
12.6999999999999993
 74
0
 49
-6.2999999999999998
 74
0
 49
0.1
 74
0
 49
-6.2999999999999998
 74
0
  0
LTYPE
  5
59
100
AcDbSymbolTableRecord
100
AcDbLinetypeTableRecord
  2
DIVIDE2
 70
0
  3
Divide (.5x) __..__..__..__..__..__..__..__.._
 72
65
 73
6
 40
15.8749999999999982
 49
6.3499999999999996
 74
0
 49
-3.125
 74
0
 49
0.1
 74
0
 49
-3.0750000000000002
 74
0
 49
0.1
 74
0
 49
-3.125
 74
0
  0
LTYPE
  5
5A
100
AcDbSymbolTableRecord
100
AcDbLinetypeTableRecord
  2
DOT
 70
0
  3
Dot . . . . . . . . . . . . . . . . . . . . . . . .
 72
65
 73
2
 40
6.3499999999999996
 49
0.1
 74
0
 49
-6.25
 74
0
  0
LTYPE
  5
5B
100
AcDbSymbolTableRecord
100
AcDbLinetypeTableRecord
  2
DASHDOT
 70
0
  3
Dash dot __ . __ . __ . __ . __ . __ . __ . __
 72
65
 73
4
 40
25.4000000000000021
 49
12.6999999999999993
 74
0
 49
-6.2999999999999998
 74
0
 49
0.1
 74
0
 49
-6.2999999999999998
 74
0
  0
LTYPE
  5
5C
100
AcDbSymbolTableRecord
100
AcDbLinetypeTableRecord
  2
FENCELINE1
 70
0
  3
Fenceline circle ----0-----0----0-----0----0-----0--
 72
65
 73
4
 40
36.8299999999999983
 49
6.3499999999999996
 74
0
 49
-2.54
 74
0
 49
-2.54
 74
0
 49
25.3999999999999986
 74
0
  0
LTYPE
  5
5D
100
AcDbSymbolTableRecord
100
AcDbLinetypeTableRecord
  2
ACAD_ISO03W100
 70
0
  3
ISO dash space __    __    __    __    __    __
 72
65
 73
2
 40
30.0
 49
12.0
 74
0
 49
-18.0
 74
0
  0
LTYPE
  5
5E
100
AcDbSymbolTableRecord
100
AcDbLinetypeTableRecord
  2
BATTING
 70
0
  3
Batting SSSSSSSSSSSSSSSSSSSSSSSSSSSSSSSSSSSSSSSSSSSSSSS
 72
65
 73
4
 40
10.1625399999999999
 49
0.00254
 74
0
 49
-2.54
 74
0
 49
-5.0800000000000001
 74
0
 49
-2.54
 74
0
  0
LTYPE
  5
5F
100
AcDbSymbolTableRecord
100
AcDbLinetypeTableRecord
  2
FENCELINE2
 70
0
  3
Fenceline square ----[]-----[]----[]-----[]----[]---
 72
65
 73
4
 40
36.8299999999999983
 49
6.3499999999999996
 74
0
 49
-2.54
 74
0
 49
-2.54
 74
0
 49
25.3999999999999986
 74
0
  0
ENDTAB
  0
TABLE
  2
LAYER
  5
2
100
AcDbSymbolTable
 70
1
  0
LAYER
  5
10
100
AcDbSymbolTableRecord
100
AcDbLayerTableRecord
  2
0
 70
0
 62
7
420
16777215
  6
Continuous
370
25
390
F
  0
ENDTAB
  0
TABLE
  2
STYLE
  5
3
100
AcDbSymbolTable
 70
3
  0
STYLE
  5
60
100
AcDbSymbolTableRecord
100
AcDbTextStyleTableRecord
  2
Standard
 70
0
 40
0.0
 41
1.0
 50
0.0
 71
0
 42
2.5
  3

  4

1001
ACAD
1000
txt
1071
0
  0
STYLE
  5
61
100
AcDbSymbolTableRecord
100
AcDbTextStyleTableRecord
  2
textstyle0
 70
0
 40
0.0
 41
1.0
 50
0.0
 71
0
 42
0.3
  3

  4

1001
ACAD
1000
Arial
1071
0
  0
STYLE
  5
62
100
AcDbSymbolTableRecord
100
AcDbTextStyleTableRecord
  2
textstyle1
 70
0
 40
0.0
 41
1.0
 50
0.0
 71
0
 42
0.3
  3

  4

1001
ACAD
1000
Arial
1071
0
  0
ENDTAB
  0
TABLE
  2
VIEW
  5
6
100
AcDbSymbolTable
 70
0
  0
ENDTAB
  0
TABLE
  2
UCS
  5
7
100
AcDbSymbolTable
 70
0
  0
ENDTAB
  0
TABLE
  2
APPID
  5
9
100
AcDbSymbolTable
 70
1
  0
APPID
  5
12
100
AcDbSymbolTableRecord
100
AcDbRegAppTableRecord
  2
ACAD
 70
0
  0
APPID
  5
63
100
AcDbSymbolTableRecord
100
AcDbRegAppTableRecord
  2
QCAD
 70
0
  0
ENDTAB
  0
TABLE
  2
DIMSTYLE
  5
A
100
AcDbSymbolTable
 70
1
100
AcDbDimStyleTable
 71
0
  0
DIMSTYLE
105
27
100
AcDbSymbolTableRecord
100
AcDbDimStyleTableRecord
  2
Standard
 41
0.125
 42
0.03125
 43
3.75
 44
0.0625
 70
0
 73
0
 74
0
 77
1
 78
8
140
0.125
141
2.5
143
0.03937007874016
147
0.03125
171
3
172
1
271
2
272
2
274
3
278
44
283
0
284
8
340
60
  0
ENDTAB
  0
TABLE
  2
BLOCK_RECORD
  5
1
100
AcDbSymbolTable
 70
1
  0
BLOCK_RECORD
  5
1F
100
AcDbSymbolTableRecord
100
AcDbBlockTableRecord
  2
*Model_Space
340
22
  0
BLOCK_RECORD
  5
1B
100
AcDbSymbolTableRecord
100
AcDbBlockTableRecord
  2
*Paper_Space
340
1E
  0
BLOCK_RECORD
  5
23
100
AcDbSymbolTableRecord
100
AcDbBlockTableRecord
  2
*Paper_Space0
340
26
  0
BLOCK_RECORD
  5
64
100
AcDbSymbolTableRecord
100
AcDbBlockTableRecord
  2
block 1
340
0
  0
BLOCK_RECORD
  5
65
100
AcDbSymbolTableRecord
100
AcDbBlockTableRecord
  2
plate
340
0
  0
BLOCK_RECORD
  5
66
100
AcDbSymbolTableRecord
100
AcDbBlockTableRecord
  2
plate-plug-piranha
340
0
  0
BLOCK_RECORD
  5
67
100
AcDbSymbolTableRecord
100
AcDbBlockTableRecord
  2
sm-plate
340
0
  0
ENDTAB
  0
ENDSEC
  0
SECTION
  2
BLOCKS
  0
BLOCK
  5
20
100
AcDbEntity
  8
0
100
AcDbBlockBegin
  2
*Model_Space
 70
0
 10
0.0
 20
0.0
 30
0.0
  3
*Model_Space
  1

  0
ENDBLK
  5
21
100
AcDbEntity
  8
0
100
AcDbBlockEnd
  0
BLOCK
  5
1C
100
AcDbEntity
 67
1
  8
0
100
AcDbBlockBegin
  2
*Paper_Space
 70
0
 10
0.0
 20
0.0
 30
0.0
  3
*Paper_Space
  1

  0
ENDBLK
  5
1D
100
AcDbEntity
 67
1
  8
0
100
AcDbBlockEnd
  0
BLOCK
  5
24
100
AcDbEntity
  8
0
100
AcDbBlockBegin
  2
*Paper_Space0
 70
0
 10
0.0
 20
0.0
 30
0.0
  3
*Paper_Space0
  1

  0
ENDBLK
  5
25
100
AcDbEntity
  8
0
100
AcDbBlockEnd
  0
BLOCK
  5
68
100
AcDbEntity
  8
0
100
AcDbBlockBegin
  2
block 1
 70
0
 10
0.0
 20
0.0
 30
0.0
  3
block 1
  1

  0
CIRCLE
  5
69
100
AcDbEntity
100
AcDbCircle
  8
0
 62
3
420
65280
370
-1
 48
1.0
  6
BYLAYER
 10
0.0
 20
0.0
 30
0.0
 40
0.1875
  0
LINE
  5
6A
100
AcDbEntity
100
AcDbLine
  8
0
 62
3
420
65280
370
-1
 48
1.0
  6
BYLAYER
 10
-0.0896224605895668
 20
-5.7500000000000036
 30
0.0
 11
0.0423775394104311
 21
-5.7500000000000036
 31
0.0
  0
LINE
  5
6B
100
AcDbEntity
100
AcDbLine
  8
0
 62
7
420
0
370
-1
 48
1.0
  6
Continuous
 10
-0.5253824099999944
 20
-7.1973608386544328
 30
0.0
 11
-0.5253824099999935
 21
-1.8058966302860497
 31
0.0
  0
INSERT
  5
6C
100
AcDbEntity
100
AcDbBlockReference
  8
0
 62
256
370
-1
 48
1.0
  6
BYLAYER
  2
plate-plug-piranha
 10
0.6651759387303802
 20
-6.893560813507591
 30
0.0
  0
INSERT
  5
6D
100
AcDbEntity
100
AcDbBlockReference
  8
0
 62
256
370
-1
 48
1.0
  6
BYLAYER
  2
plate-plug-piranha
 10
0.6651759387303802
 20
0.7354391864924068
 30
0.0
  0
INSERT
  5
6E
100
AcDbEntity
100
AcDbBlockReference
  8
0
 62
256
370
-1
 48
1.0
  6
BYLAYER
  2
plate-plug-piranha
 10
0.6651759387303811
 20
-1.6975607967430406
 30
0.0
  0
LINE
  5
6F
100
AcDbEntity
100
AcDbLine
  8
0
 62
256
370
-1
 48
1.0
  6
BYLAYER
 10
0.4746175900000011
 20
-7.1973608386544257
 30
0.0
 11
0.2871175900000011
 21
-7.3848608386544257
 31
0.0
  0
LINE
  5
70
100
AcDbEntity
100
AcDbLine
  8
0
 62
256
370
-1
 48
1.0
  6
BYLAYER
 10
-0.3378824099999989
 20
-7.3848608386544257
 30
0.0
 11
0.2871175900000011
 21
-7.3848608386544257
 31
0.0
  0
LINE
  5
71
100
AcDbEntity
100
AcDbLine
  8
0
 62
256
370
-1
 48
1.0
  6
BYLAYER
 10
-0.3378824099999989
 20
-7.3848608386544257
 30
0.0
 11
-0.5253824099999989
 21
-7.1973608386544257
 31
0.0
  0
LINE
  5
72
100
AcDbEntity
100
AcDbLine
  8
0
 62
256
370
-1
 48
1.0
  6
BYLAYER
 10
0.4781374999999988
 20
-5.456189582503602
 30
0.0
 11
0.4781374999999972
 21
-1.9375000000000036
 31
0.0
  0
LINE
  5
73
100
AcDbEntity
100
AcDbLine
  8
0
 62
256
370
-1
 48
1.0
  6
BYLAYER
 10
0.3590050788208643
 20
-1.9876012356511623
 30
0.0
 11
0.1351649376872786
 21
-2.1828854157687694
 31
0.0
  0
LINE
  5
74
100
AcDbEntity
100
AcDbLine
  8
0
 62
256
370
-1
 48
1.0
  6
BYLAYER
 10
-0.40625
 20
-1.9876012356511694
 30
0.0
 11
-0.1824098588664178
 21
-2.1828854157687729
 31
0.0
  0
LINE
  5
75
100
AcDbEntity
100
AcDbLine
  8
0
 62
256
370
-1
 48
1.0
  6
BYLAYER
 10
-0.4062499999999991
 20
1.9876012356511623
 30
0.0
 11
-0.1824098588664169
 21
2.1828854157687658
 31
0.0
  0
LINE
  5
76
100
AcDbEntity
100
AcDbLine
  8
0
 62
256
370
-1
 48
1.0
  6
BYLAYER
 10
0.3590050788208652
 20
1.9876012356511552
 30
0.0
 11
0.1351649376872794
 21
2.1828854157687623
 31
0.0
  0
LINE
  5
77
100
AcDbEntity
100
AcDbLine
  8
0
 62
3
420
65280
370
-1
 48
1.0
  6
BYLAYER
 10
-0.400382409999998
 20
0.5723608386544292
 30
0.0
 11
-0.400382409999998
 21
1.0723608386544292
 31
0.0
  0
LINE
  5
78
100
AcDbEntity
100
AcDbLine
  8
0
 62
3
420
65280
370
-1
 48
1.0
  6
BYLAYER
 10
-0.4003824099999989
 20
-0.5723608386544257
 30
0.0
 11
-0.4003824099999989
 21
-1.0723608386544257
 31
0.0
  0
LINE
  5
79
100
AcDbEntity
100
AcDbLine
  8
0
 62
3
420
65280
370
-1
 48
1.0
  6
BYLAYER
 10
-0.556632409999998
 20
0.3375000000000021
 30
0.0
 11
-0.400382409999998
 21
1.0723608386544292
 31
0.0
  0
LINE
  5
7A
100
AcDbEntity
100
AcDbLine
  8
0
 62
3
420
65280
370
-1
 48
1.0
  6
BYLAYER
 10
-0.5566324099999989
 20
-0.3374999999999986
 30
0.0
 11
-0.4003824099999989
 21
-1.0723608386544257
 31
0.0
  0
LINE
  5
7B
100
AcDbEntity
100
AcDbLine
  8
0
 62
3
420
65280
370
-1
 48
1.0
  6
BYLAYER
 10
-0.2391648942033244
 20
0.3958615962438294
 30
0.0
 11
-0.3232039160747071
 21
0.572360838654431
 31
0.0
  0
LINE
  5
7C
100
AcDbEntity
100
AcDbLine
  8
0
 62
3
420
65280
370
-1
 48
1.0
  6
BYLAYER
 10
-0.2391648942033244
 20
-0.3958615962438294
 30
0.0
 11
-0.3232039160747071
 21
-0.5723608386544328
 31
0.0
  0
LINE
  5
7D
100
AcDbEntity
100
AcDbLine
  8
0
 62
3
420
65280
370
-1
 48
1.0
  6
BYLAYER
 10
-0.6086812037819316
 20
-0.257420435223132
 30
0.0
 11
-0.4547271020692198
 21
-0.0844364414440228
 31
0.0
  0
LINE
  5
7E
100
AcDbEntity
100
AcDbLine
  8
0
 62
3
420
65280
370
-1
 48
1.0
  6
BYLAYER
 10
-0.5566324099999997
 20
-0.3374999999999986
 30
0.0
 11
-0.4387292502872642
 21
-0.1463656207665451
 31
0.0
  0
LINE
  5
7F
100
AcDbEntity
100
AcDbLine
  8
0
 62
3
420
65280
370
-1
 48
1.0
  6
BYLAYER
 10
-0.4387292502872624
 20
0.1463656207665469
 30
0.0
 11
-0.5566324099999971
 21
0.3374999999999986
 31
0.0
  0
LINE
  5
80
100
AcDbEntity
100
AcDbLine
  8
0
 62
3
420
65280
370
-1
 48
1.0
  6
BYLAYER
 10
-0.6086812037819316
 20
0.2574204352231302
 30
0.0
 11
-0.4547271020692198
 21
0.0844364414440211
 31
0.0
  0
LINE
  5
81
100
AcDbEntity
100
AcDbLine
  8
0
 62
3
420
65280
370
-1
 48
1.0
  6
BYLAYER
 10
-0.2959873754911317
 20
0.355383910088614
 30
0.0
 11
-0.400382409999998
 21
0.572360838654431
 31
0.0
  0
LINE
  5
82
100
AcDbEntity
100
AcDbLine
  8
0
 62
3
420
65280
370
-1
 48
1.0
  6
BYLAYER
 10
-0.2959873754911335
 20
-0.3553839100886123
 30
0.0
 11
-0.4003824099999989
 21
-0.5723608386544257
 31
0.0
  0
LINE
  5
83
100
AcDbEntity
100
AcDbLine
  8
0
 62
3
420
65280
370
-1
 48
1.0
  6
BYLAYER
 10
0.0814235862435897
 20
0.5723608386544292
 30
0.0
 11
-0.3232039160747107
 21
0.5723608386544328
 31
0.0
  0
LINE
  5
84
100
AcDbEntity
100
AcDbLine
  8
0
 62
3
420
65280
370
-1
 48
1.0
  6
BYLAYER
 10
0.0814235862435915
 20
-0.5723608386544257
 30
0.0
 11
-0.3232039160747089
 21
-0.5723608386544292
 31
0.0
  0
LINE
  5
85
100
AcDbEntity
100
AcDbLine
  8
0
 62
3
420
65280
370
-1
 48
1.0
  6
BYLAYER
 10
-0.6086812037819316
 20
-0.257420435223132
 30
0.0
 11
-0.6086812037819316
 21
0.257420435223132
 31
0.0
  0
LINE
  5
86
100
AcDbEntity
100
AcDbLine
  8
0
 62
3
420
65280
370
-1
 48
1.0
  6
BYLAYER
 10
0.0814235862435906
 20
0.5723608386544257
 30
0.0
 11
0.0814235862435906
 21
0.4552762343931782
 31
0.0
  0
LINE
  5
87
100
AcDbEntity
100
AcDbLine
  8
0
 62
3
420
65280
370
-1
 48
1.0
  6
BYLAYER
 10
0.0814235862435924
 20
-0.5723608386544257
 30
0.0
 11
0.0814235862435924
 21
-0.4552762343931782
 31
0.0
  0
LINE
  5
88
100
AcDbEntity
100
AcDbLine
  8
0
 62
256
370
-1
 48
1.0
  6
BYLAYER
 10
-0.5253824099999935
 20
-1.9375000000000036
 30
0.0
 11
-0.8836812037819293
 21
-0.6875000000000071
 31
0.0
  0
LINE
  5
89
100
AcDbEntity
100
AcDbLine
  8
0
 62
256
370
-1
 48
1.0
  6
BYLAYER
 10
-0.5253824099999944
 20
1.9374999999999964
 30
0.0
 11
-0.8836812037819302
 21
0.6875
 31
0.0
  0
ARC
  5
8A
100
AcDbEntity
  8
0
 62
3
420
65280
370
-1
 48
1.0
  6
BYLAYER
100
AcDbCircle
 10
0.0
 20
0.0
 30
0.0
 40
0.4625000000000004
100
AcDbArc
 50
79.8601745504481642
 51
121.1388147804075004
  0
ARC
  5
8B
100
AcDbEntity
  8
0
 62
3
420
65280
370
-1
 48
1.0
  6
BYLAYER
100
AcDbCircle
 10
0.0
 20
0.0
 30
0.0
 40
0.4625000000000004
100
AcDbArc
 50
129.789784118222002
 51
161.5506499136625109
  0
ARC
  5
8C
100
AcDbEntity
  8
0
 62
3
420
65280
370
-1
 48
1.0
  6
BYLAYER
100
AcDbCircle
 10
0.0
 20
0.0
 30
0.0
 40
0.4625000000000004
100
AcDbArc
 50
169.4807841688607937
 51
190.5192158311394053
  0
ARC
  5
8D
100
AcDbEntity
  8
0
 62
3
420
65280
370
-1
 48
1.0
  6
BYLAYER
100
AcDbCircle
 10
0.0
 20
0.0
 30
0.0
 40
0.4625000000000004
100
AcDbArc
 50
198.4493500863372333
 51
230.2102158817777422
  0
ARC
  5
8E
100
AcDbEntity
  8
0
 62
3
420
65280
370
-1
 48
1.0
  6
BYLAYER
100
AcDbCircle
 10
0.0
 20
0.0
 30
0.0
 40
0.4625000000000004
100
AcDbArc
 50
238.8611852195924996
 51
280.1398254495520064
  0
LINE
  5
8F
100
AcDbEntity
100
AcDbLine
  8
0
 62
256
370
-1
 48
1.0
  6
BYLAYER
 10
-0.8836812037819302
 20
0.6875
 30
0.0
 11
-0.8836812037819302
 21
-0.6875000000000071
 31
0.0
  0
LINE
  5
90
100
AcDbEntity
100
AcDbLine
  8
0
 62
256
370
-1
 48
1.0
  6
BYLAYER
 10
-0.263865050589569
 20
-1.9480987192437489
 30
0.0
 11
-0.40625
 21
-1.9480987192437489
 31
0.0
  0
LINE
  5
91
100
AcDbEntity
100
AcDbLine
  8
0
 62
256
370
-1
 48
1.0
  6
BYLAYER
 10
0.2166201294104351
 20
1.9480987192437382
 30
0.0
 11
0.3590050788208661
 21
1.9480987192437382
 31
0.0
  0
LINE
  5
92
100
AcDbEntity
100
AcDbLine
  8
0
 62
256
370
-1
 48
1.0
  6
BYLAYER
 10
-0.2638650505895681
 20
1.9480987192437418
 30
0.0
 11
-0.4062499999999991
 21
1.9480987192437418
 31
0.0
  0
LINE
  5
93
100
AcDbEntity
100
AcDbLine
  8
0
 62
256
370
-1
 48
1.0
  6
BYLAYER
 10
0.2166201294104342
 20
-1.9480987192437453
 30
0.0
 11
0.3590050788208652
 21
-1.9480987192437453
 31
0.0
  0
LINE
  5
94
100
AcDbEntity
100
AcDbLine
  8
0
 62
256
370
-1
 48
1.0
  6
BYLAYER
 10
-0.2638650505895699
 20
-1.9480987192437489
 30
0.0
 11
-0.2638650505895699
 21
-1.8058966302860497
 31
0.0
  0
LINE
  5
95
100
AcDbEntity
100
AcDbLine
  8
0
 62
256
370
-1
 48
1.0
  6
BYLAYER
 10
0.2166201294104351
 20
1.9480987192437382
 30
0.0
 11
0.2166201294104351
 21
1.8058966302860391
 31
0.0
  0
LINE
  5
96
100
AcDbEntity
100
AcDbLine
  8
0
 62
256
370
-1
 48
1.0
  6
BYLAYER
 10
-0.263865050589569
 20
1.9480987192437418
 30
0.0
 11
-0.263865050589569
 21
1.8058966302860426
 31
0.0
  0
LINE
  5
97
100
AcDbEntity
100
AcDbLine
  8
0
 62
256
370
-1
 48
1.0
  6
BYLAYER
 10
0.2166201294104342
 20
-1.9480987192437453
 30
0.0
 11
0.2166201294104342
 21
-1.8058966302860462
 31
0.0
  0
LINE
  5
98
100
AcDbEntity
100
AcDbLine
  8
0
 62
256
370
-1
 48
1.0
  6
BYLAYER
 10
-0.5253824099999935
 20
-1.6741920508838923
 30
0.0
 11
-0.2638650505895699
 21
-1.8058966302860497
 31
0.0
  0
LINE
  5
99
100
AcDbEntity
100
AcDbLine
  8
0
 62
256
370
-1
 48
1.0
  6
BYLAYER
 10
0.4781374999999954
 20
1.8058966302860426
 30
0.0
 11
0.2166201294104351
 21
1.8058966302860391
 31
0.0
  0
LINE
  5
9A
100
AcDbEntity
100
AcDbLine
  8
0
 62
256
370
-1
 48
1.0
  6
BYLAYER
 10
-0.5253824099999926
 20
1.6741920508838852
 30
0.0
 11
-0.263865050589569
 21
1.8058966302860426
 31
0.0
  0
LINE
  5
9B
100
AcDbEntity
100
AcDbLine
  8
0
 62
256
370
-1
 48
1.0
  6
BYLAYER
 10
0.4781374999999946
 20
-1.8058966302860497
 30
0.0
 11
0.2166201294104342
 21
-1.8058966302860462
 31
0.0
  0
LINE
  5
9C
100
AcDbEntity
100
AcDbLine
  8
0
 62
256
370
-1
 48
1.0
  6
BYLAYER
 10
-0.089622460589565
 20
2.1828854157687658
 30
0.0
 11
-0.1824098588664143
 21
2.1828854157687658
 31
0.0
  0
LINE
  5
9D
100
AcDbEntity
100
AcDbLine
  8
0
 62
256
370
-1
 48
1.0
  6
BYLAYER
 10
-0.0896224605895659
 20
-2.1828854157687729
 30
0.0
 11
-0.1824098588664151
 21
-2.1828854157687729
 31
0.0
  0
LINE
  5
9E
100
AcDbEntity
100
AcDbLine
  8
0
 62
256
370
-1
 48
1.0
  6
BYLAYER
 10
0.4781374999999963
 20
0.4954999832354439
 30
0.0
 11
0.4781374999999964
 21
-0.2601895657390415
 31
0.0
  0
LINE
  5
9F
100
AcDbEntity
100
AcDbLine
  8
0
 62
3
420
65280
370
-1
 48
1.0
  6
BYLAYER
 10
-0.2216224605895656
 20
-3.3639895939912847
 30
0.0
 11
-0.2216224605895647
 21
-2.8235104060087117
 31
0.0
  0
LINE
  5
A0
100
AcDbEntity
100
AcDbLine
  8
0
 62
3
420
65280
370
-1
 48
1.0
  6
BYLAYER
 10
-0.2216224605895656
 20
-4.727979187982573
 30
0.0
 11
-0.2216224605895647
 21
-4.1875
 31
0.0
  0
LINE
  5
A1
100
AcDbEntity
100
AcDbLine
  8
0
 62
3
420
65280
370
-1
 48
1.0
  6
BYLAYER
 10
-0.089622460589565
 20
2.1828854157687623
 30
0.0
 11
-0.0896224605895659
 21
1.8299062277861893
 31
0.0
  0
LINE
  5
A2
100
AcDbEntity
100
AcDbLine
  8
0
 62
3
420
65280
370
-1
 48
1.0
  6
BYLAYER
 10
-0.0896224605895659
 20
-2.1828854157687694
 30
0.0
 11
-0.0896224605895668
 21
-1.8299062277861964
 31
0.0
  0
LINE
  5
A3
100
AcDbEntity
100
AcDbLine
  8
0
 62
3
420
65280
370
-1
 48
1.0
  6
BYLAYER
 10
0.042377539410432
 20
2.1828854157687623
 30
0.0
 11
0.042377539410432
 21
1.8299062277861893
 31
0.0
  0
LINE
  5
A4
100
AcDbEntity
100
AcDbLine
  8
0
 62
3
420
65280
370
-1
 48
1.0
  6
BYLAYER
 10
0.0423775394104311
 20
-2.1828854157687694
 30
0.0
 11
0.0423775394104311
 21
-1.8299062277861964
 31
0.0
  0
LINE
  5
A5
100
AcDbEntity
100
AcDbLine
  8
0
 62
256
370
-1
 48
1.0
  6
BYLAYER
 10
0.1351649376872803
 20
2.1828854157687623
 30
0.0
 11
0.042377539410432
 21
2.1828854157687623
 31
0.0
  0
LINE
  5
A6
100
AcDbEntity
100
AcDbLine
  8
0
 62
256
370
-1
 48
1.0
  6
BYLAYER
 10
0.1351649376872794
 20
-2.1828854157687694
 30
0.0
 11
0.0423775394104311
 21
-2.1828854157687694
 31
0.0
  0
LINE
  5
A7
100
AcDbEntity
100
AcDbLine
  8
0
 62
3
420
65280
370
-1
 48
1.0
  6
BYLAYER
 10
-0.0896224605895677
 20
-5.7500000000000036
 30
0.0
 11
-0.0896224605895677
 21
-2.1828854157687729
 31
0.0
  0
LINE
  5
A8
100
AcDbEntity
100
AcDbLine
  8
0
 62
3
420
65280
370
-1
 48
1.0
  6
BYLAYER
 10
0.0423775394104311
 20
-2.1828854157687694
 30
0.0
 11
0.042377539410432
 21
-5.75
 31
0.0
  0
LINE
  5
A9
100
AcDbEntity
100
AcDbLine
  8
0
 62
3
420
65280
370
-1
 48
1.0
  6
BYLAYER
 10
-0.2216224605895665
 20
-3.3639895939912847
 30
0.0
 11
-0.0896224605895686
 21
-3.3639895939912847
 31
0.0
  0
LINE
  5
AA
100
AcDbEntity
100
AcDbLine
  8
0
 62
3
420
65280
370
-1
 48
1.0
  6
BYLAYER
 10
-0.2216224605895656
 20
-4.1875
 30
0.0
 11
-0.0896224605895677
 21
-4.1875
 31
0.0
  0
LINE
  5
AB
100
AcDbEntity
100
AcDbLine
  8
0
 62
3
420
65280
370
-1
 48
1.0
  6
BYLAYER
 10
-0.2216224605895665
 20
-4.727979187982573
 30
0.0
 11
-0.0896224605895686
 21
-4.727979187982573
 31
0.0
  0
LINE
  5
AC
100
AcDbEntity
100
AcDbLine
  8
0
 62
3
420
65280
370
-1
 48
1.0
  6
BYLAYER
 10
-0.2216224605895656
 20
-2.8235104060087153
 30
0.0
 11
-0.0896224605895677
 21
-2.8235104060087153
 31
0.0
  0
LINE
  5
AD
100
AcDbEntity
100
AcDbLine
  8
0
 62
3
420
65280
370
-1
 48
1.0
  6
BYLAYER
 10
-0.0896224605895659
 20
1.8299062277861893
 30
0.0
 11
0.042377539410432
 21
1.8299062277861893
 31
0.0
  0
LINE
  5
AE
100
AcDbEntity
100
AcDbLine
  8
0
 62
3
420
65280
370
-1
 48
1.0
  6
BYLAYER
 10
-0.0896224605895668
 20
-1.8299062277861964
 30
0.0
 11
0.0423775394104311
 21
-1.8299062277861964
 31
0.0
  0
LINE
  5
AF
100
AcDbEntity
100
AcDbLine
  8
0
 62
256
370
-1
 48
1.0
  6
BYLAYER
 10
-0.4062499999999991
 20
1.9480987192437418
 30
0.0
 11
-0.4062499999999982
 21
1.9876012356511623
 31
0.0
  0
LINE
  5
B0
100
AcDbEntity
100
AcDbLine
  8
0
 62
256
370
-1
 48
1.0
  6
BYLAYER
 10
0.3590050788208652
 20
-1.9480987192437453
 30
0.0
 11
0.3590050788208643
 21
-1.9876012356511659
 31
0.0
  0
LINE
  5
B1
100
AcDbEntity
100
AcDbLine
  8
0
 62
256
370
-1
 48
1.0
  6
BYLAYER
 10
-0.40625
 20
-1.9480987192437489
 30
0.0
 11
-0.4062499999999991
 21
-1.9876012356511694
 31
0.0
  0
LINE
  5
B2
100
AcDbEntity
100
AcDbLine
  8
0
 62
256
370
-1
 48
1.0
  6
BYLAYER
 10
-0.5253824099999918
 20
1.9374999999999964
 30
0.0
 11
-0.5253824099999926
 21
1.6741920508838852
 31
0.0
  0
LINE
  5
B3
100
AcDbEntity
100
AcDbLine
  8
0
 62
256
370
-1
 48
1.0
  6
BYLAYER
 10
-0.5253824099999926
 20
-1.9375000000000036
 30
0.0
 11
-0.5253824099999935
 21
-1.6741920508838923
 31
0.0
  0
LINE
  5
B4
100
AcDbEntity
100
AcDbLine
  8
0
 62
256
370
-1
 48
1.0
  6
BYLAYER
 10
0.3590050788208661
 20
1.9480987192437382
 30
0.0
 11
0.3590050788208652
 21
1.9876012356511552
 31
0.0
  0
LINE
  5
B5
100
AcDbEntity
100
AcDbLine
  8
0
 62
256
370
-1
 48
1.0
  6
BYLAYER
 10
0.4746175900000011
 20
-7.1973608386544257
 30
0.0
 11
0.4781374999999966
 21
-7.1335000167645548
 31
0.0
  0
ENDBLK
  5
B6
100
AcDbEntity
  8
0
100
AcDbBlockEnd
  0
BLOCK
  5
B7
100
AcDbEntity
  8
0
100
AcDbBlockBegin
  2
plate
 70
0
 10
0.0
 20
0.0
 30
0.0
  3
plate
  1

  0
LINE
  5
B8
100
AcDbEntity
100
AcDbLine
  8
0
 62
256
370
-1
 48
1.0
  6
BYLAYER
 10
0.0
 20
0.0
 30
0.0
 11
6.0
 21
0.0
 31
0.0
  0
LINE
  5
B9
100
AcDbEntity
100
AcDbLine
  8
0
 62
256
370
-1
 48
1.0
  6
BYLAYER
 10
0.0
 20
-2.5
 30
0.0
 11
6.0
 21
-2.5
 31
0.0
  0
LINE
  5
BA
100
AcDbEntity
100
AcDbLine
  8
0
 62
256
370
-1
 48
1.0
  6
BYLAYER
 10
6.0
 20
-2.5
 30
0.0
 11
6.0
 21
0.0
 31
0.0
  0
LINE
  5
BB
100
AcDbEntity
100
AcDbLine
  8
0
 62
256
370
-1
 48
1.0
  6
BYLAYER
 10
0.0
 20
-2.5
 30
0.0
 11
0.0
 21
0.0
 31
0.0
  0
ENDBLK
  5
BC
100
AcDbEntity
  8
0
100
AcDbBlockEnd
  0
BLOCK
  5
BD
100
AcDbEntity
  8
0
100
AcDbBlockBegin
  2
plate-plug-piranha
 70
0
 10
0.0
 20
0.0
 30
0.0
  3
plate-plug-piranha
  1

  0
LINE
  5
BE
100
AcDbEntity
100
AcDbLine
  8
0
 62
4
420
65535
370
-1
 48
1.0
  6
BYLAYER
 10
-0.4247379693651943
 20
0.616600000000004
 30
0.0
 11
-0.4247379693651943
 21
0.5836250000000035
 31
0.0
  0
LINE
  5
BF
100
AcDbEntity
100
AcDbLine
  8
0
 62
4
420
65535
370
-1
 48
1.0
  6
BYLAYER
 10
-0.4247379693651943
 20
0.5836250000000034
 30
0.0
 11
-0.4906879693651951
 21
0.5176750000000025
 31
0.0
  0
LINE
  5
C0
100
AcDbEntity
100
AcDbLine
  8
0
 62
4
420
65535
370
-1
 48
1.0
  6
BYLAYER
 10
-0.4906879693651951
 20
0.5176750000000025
 30
0.0
 11
-0.5566379693651942
 21
0.5176750000000025
 31
0.0
  0
LINE
  5
C1
100
AcDbEntity
100
AcDbLine
  8
0
 62
4
420
65535
370
-1
 48
1.0
  6
BYLAYER
 10
-0.5566379693651942
 20
0.5176750000000025
 30
0.0
 11
-0.622587969365195
 21
0.5836250000000034
 31
0.0
  0
LINE
  5
C2
100
AcDbEntity
100
AcDbLine
  8
0
 62
4
420
65535
370
-1
 48
1.0
  6
BYLAYER
 10
-0.622587969365195
 20
0.6166000000000038
 30
0.0
 11
-0.622587969365195
 21
0.5836250000000032
 31
0.0
  0
LINE
  5
C3
100
AcDbEntity
100
AcDbLine
  8
0
 62
4
420
65535
370
-1
 48
1.0
  6
BYLAYER
 10
-0.7544879747805537
 20
0.6166000000000038
 30
0.0
 11
-0.7544879747805537
 21
0.3528000000000004
 31
0.0
  0
LINE
  5
C4
100
AcDbEntity
100
AcDbLine
  8
0
 62
4
420
65535
370
-1
 48
1.0
  6
BYLAYER
 10
-0.7152500000000011
 20
0.3528000000000004
 30
0.0
 11
-0.7152500000000011
 21
0.300899999999999
 31
0.0
  0
LINE
  5
C5
100
AcDbEntity
100
AcDbLine
  8
0
 62
4
420
65535
370
-1
 48
1.0
  6
BYLAYER
 10
-0.565250000000001
 20
0.2208999999999999
 30
0.0
 11
-0.4820759387303863
 21
0.2209000000000003
 31
0.0
  0
LINE
  5
C6
100
AcDbEntity
100
AcDbLine
  8
0
 62
4
420
65535
370
-1
 48
1.0
  6
BYLAYER
 10
-0.3320759387303864
 20
0.3009000000000012
 30
0.0
 11
-0.3320759387303864
 21
0.3528000000000004
 31
0.0
  0
LINE
  5
C7
100
AcDbEntity
100
AcDbLine
  8
0
 62
4
420
65535
370
-1
 48
1.0
  6
BYLAYER
 10
-0.2000759387303863
 20
0.550650000000003
 30
0.0
 11
-0.1341259387303863
 21
0.6166000000000038
 31
0.0
  0
LINE
  5
C8
100
AcDbEntity
100
AcDbLine
  8
0
 62
4
420
65535
370
-1
 48
1.0
  6
BYLAYER
 10
-0.1341259387303863
 20
0.6166000000000038
 30
0.0
 11
-0.0681759387303864
 21
0.6166000000000038
 31
0.0
  0
LINE
  5
C9
100
AcDbEntity
100
AcDbLine
  8
0
 62
4
420
65535
370
-1
 48
1.0
  6
BYLAYER
 10
-0.0681759387303864
 20
0.6166000000000038
 30
0.0
 11
-0.0022259387303864
 21
0.550650000000003
 31
0.0
  0
LINE
  5
CA
100
AcDbEntity
100
AcDbLine
  8
0
 62
4
420
65535
370
-1
 48
1.0
  6
BYLAYER
 10
-0.4249999999999999
 20
0.7729890836214601
 30
0.0
 11
-0.5249999999999996
 21
0.8729890836214617
 31
0.0
  0
LINE
  5
CB
100
AcDbEntity
100
AcDbLine
  8
0
 62
4
420
65535
370
-1
 48
1.0
  6
BYLAYER
 10
-0.423662969365194
 20
0.1020375000000034
 30
0.0
 11
-0.5236629693651936
 21
0.002037500000002
 31
0.0
  0
LINE
  5
CC
100
AcDbEntity
100
AcDbLine
  8
0
 62
4
420
65535
370
-1
 48
1.0
  6
BYLAYER
 10
-0.5249999999999996
 20
0.8729890836214617
 30
0.0
 11
-0.625000000000001
 21
0.7729890836214601
 31
0.0
  0
LINE
  5
CD
100
AcDbEntity
100
AcDbLine
  8
0
 62
4
420
65535
370
-1
 48
1.0
  6
BYLAYER
 10
-0.5236629693651936
 20
0.002037500000002
 30
0.0
 11
-0.6236629693651951
 21
0.1020375000000035
 31
0.0
  0
LINE
  5
CE
100
AcDbEntity
100
AcDbLine
  8
0
 62
4
420
65535
370
-1
 48
1.0
  6
BYLAYER
 10
-0.6250000000000011
 20
0.7729890836214601
 30
0.0
 11
-0.7250000000000008
 21
0.8729890836214615
 31
0.0
  0
LINE
  5
CF
100
AcDbEntity
100
AcDbLine
  8
0
 62
4
420
65535
370
-1
 48
1.0
  6
BYLAYER
 10
-0.8250000000000004
 20
0.7729890836214601
 30
0.0
 11
-0.7250000000000008
 21
0.8729890836214615
 31
0.0
  0
LINE
  5
D0
100
AcDbEntity
100
AcDbLine
  8
0
 62
4
420
65535
370
-1
 48
1.0
  6
BYLAYER
 10
-0.6236629693651952
 20
0.1020375000000035
 30
0.0
 11
-0.7236629693651948
 21
0.0020375000000021
 31
0.0
  0
LINE
  5
D1
100
AcDbEntity
100
AcDbLine
  8
0
 62
4
420
65535
370
-1
 48
1.0
  6
BYLAYER
 10
-0.8236629693651945
 20
0.1020375000000035
 30
0.0
 11
-0.7236629693651948
 21
0.0020375000000021
 31
0.0
  0
LINE
  5
D2
100
AcDbEntity
100
AcDbLine
  8
0
 62
4
420
65535
370
-1
 48
1.0
  6
BYLAYER
 10
-0.8236629693651955
 20
0.1020375000000044
 30
0.0
 11
-0.823662969365198
 21
0.7743261142562625
 31
0.0
  0
LINE
  5
D3
100
AcDbEntity
100
AcDbLine
  8
0
 62
4
420
65535
370
-1
 48
1.0
  6
BYLAYER
 10
-0.2660259387303863
 20
0.4846999999999985
 30
0.0
 11
-0.2000759387303863
 21
0.4846999999999985
 31
0.0
  0
LINE
  5
D4
100
AcDbEntity
100
AcDbLine
  8
0
 62
4
420
65535
370
-1
 48
1.0
  6
BYLAYER
 10
-0.0022259387303864
 20
0.4847000000000021
 30
0.0
 11
0.0637240612696135
 21
0.4847000000000021
 31
0.0
  0
LINE
  5
D5
100
AcDbEntity
100
AcDbLine
  8
0
 62
4
420
65535
370
-1
 48
1.0
  6
BYLAYER
 10
-0.2660259387303863
 20
0.4846999999999985
 30
0.0
 11
-0.2660759387303862
 21
0.3528000000000004
 31
0.0
  0
LINE
  5
D6
100
AcDbEntity
100
AcDbLine
  8
0
 62
4
420
65535
370
-1
 48
1.0
  6
BYLAYER
 10
-0.7544879747805537
 20
0.3528000000000004
 30
0.0
 11
-0.7152500000000009
 21
0.3528000000000004
 31
0.0
  0
LINE
  5
D7
100
AcDbEntity
100
AcDbLine
  8
0
 62
4
420
65535
370
-1
 48
1.0
  6
BYLAYER
 10
-0.266075938730387
 20
0.3528000000000004
 30
0.0
 11
-0.3320759387303864
 21
0.3528000000000004
 31
0.0
  0
LINE
  5
D8
100
AcDbEntity
100
AcDbLine
  8
0
 62
4
420
65535
370
-1
 48
1.0
  6
BYLAYER
 10
-0.2000759387303863
 20
0.4846999999999985
 30
0.0
 11
-0.2000759387303863
 21
0.550650000000003
 31
0.0
  0
LINE
  5
D9
100
AcDbEntity
100
AcDbLine
  8
0
 62
4
420
65535
370
-1
 48
1.0
  6
BYLAYER
 10
-0.0022259387303864
 20
0.4847000000000021
 30
0.0
 11
-0.0022259387303864
 21
0.550650000000003
 31
0.0
  0
LINE
  5
DA
100
AcDbEntity
100
AcDbLine
  8
0
 62
4
420
65535
370
-1
 48
1.0
  6
BYLAYER
 10
-0.7544879747805537
 20
0.6166000000000038
 30
0.0
 11
-0.622587969365195
 21
0.6166000000000039
 31
0.0
  0
LINE
  5
DB
100
AcDbEntity
100
AcDbLine
  8
0
 62
4
420
65535
370
-1
 48
1.0
  6
BYLAYER
 10
-0.1011509387303864
 20
0.1020375000000034
 30
0.0
 11
-0.1011509387303864
 21
0.1020375000000034
 31
0.0
  0
LINE
  5
DC
100
AcDbEntity
100
AcDbLine
  8
0
 62
4
420
65535
370
-1
 48
1.0
  6
BYLAYER
 10
-0.3320759387303864
 20
0.3009000000000012
 30
0.0
 11
-0.4820759387303863
 21
0.2209000000000012
 31
0.0
  0
LINE
  5
DD
100
AcDbEntity
100
AcDbLine
  8
0
 62
4
420
65535
370
-1
 48
1.0
  6
BYLAYER
 10
-0.7152500000000011
 20
0.300899999999999
 30
0.0
 11
-0.565250000000001
 21
0.220899999999999
 31
0.0
  0
LINE
  5
DE
100
AcDbEntity
100
AcDbLine
  8
0
 62
4
420
65535
370
-1
 48
1.0
  6
BYLAYER
 10
0.0637240612696135
 20
0.4847000000000021
 30
0.0
 11
0.0637240612696135
 21
0.3528000000000004
 31
0.0
  0
LINE
  5
DF
100
AcDbEntity
100
AcDbLine
  8
0
 62
4
420
65535
370
-1
 48
1.0
  6
BYLAYER
 10
-0.3370384387303836
 20
0.1020375000000034
 30
0.0
 11
-0.423662969365194
 21
0.1020375000000034
 31
0.0
  0
LINE
  5
E0
100
AcDbEntity
100
AcDbLine
  8
0
 62
4
420
65535
370
-1
 48
1.0
  6
BYLAYER
 10
-0.0282416439958506
 20
0.9417016858829117
 30
0.0
 11
-0.3342360094967515
 21
0.6166000000000039
 31
0.0
  0
LINE
  5
E1
100
AcDbEntity
100
AcDbLine
  8
0
 62
4
420
65535
370
-1
 48
1.0
  6
BYLAYER
 10
-0.3342360094967514
 20
0.616600000000004
 30
0.0
 11
-0.4247379693651942
 21
0.616600000000004
 31
0.0
  0
LINE
  5
E2
100
AcDbEntity
100
AcDbLine
  8
0
 62
4
420
65535
370
-1
 48
1.0
  6
BYLAYER
 10
-0.3370384387303853
 20
0.7729890836214602
 30
0.0
 11
-0.4249999999999999
 21
0.7729890836214601
 31
0.0
  0
LINE
  5
E3
100
AcDbEntity
100
AcDbLine
  8
0
 62
4
420
65535
370
-1
 48
1.0
  6
BYLAYER
 10
-0.1870384387303833
 20
1.4373712310039948
 30
0.0
 11
-0.0282416439958506
 21
0.9417016858829117
 31
0.0
  0
LINE
  5
E4
100
AcDbEntity
100
AcDbLine
  8
0
 62
4
420
65535
370
-1
 48
1.0
  6
BYLAYER
 10
-0.0258357166675995
 20
0.2632402220627875
 30
0.0
 11
-0.1870384387303836
 21
-0.2399392032569628
 31
0.0
  0
LINE
  5
E5
100
AcDbEntity
100
AcDbLine
  8
0
 62
4
420
65535
370
-1
 48
1.0
  6
BYLAYER
 10
-0.1870384387303836
 20
-0.0479624999999966
 30
0.0
 11
-0.1870384387303836
 21
-0.2399392032569628
 31
0.0
  0
LINE
  5
E6
100
AcDbEntity
100
AcDbLine
  8
0
 62
4
420
65535
370
-1
 48
1.0
  6
BYLAYER
 10
-0.0258357166675995
 20
0.2632402220627875
 30
0.0
 11
0.0637240612696135
 21
0.3528000000000004
 31
0.0
  0
LINE
  5
E7
100
AcDbEntity
100
AcDbLine
  8
0
 62
4
420
65535
370
-1
 48
1.0
  6
BYLAYER
 10
-0.1870384387303814
 20
1.437371231003989
 30
0.0
 11
-0.1870384387303844
 21
0.9229890836214604
 31
0.0
  0
LINE
  5
E8
100
AcDbEntity
100
AcDbLine
  8
0
 62
4
420
65535
370
-1
 48
1.0
  6
BYLAYER
 10
-0.3370384387303853
 20
0.7729890836214603
 30
0.0
 11
-0.1870384387303844
 21
0.9229890836214604
 31
0.0
  0
LINE
  5
E9
100
AcDbEntity
100
AcDbLine
  8
0
 62
4
420
65535
370
-1
 48
1.0
  6
BYLAYER
 10
-0.1870384387303836
 20
-0.0479624999999966
 30
0.0
 11
-0.3370384387303836
 21
0.1020375000000034
 31
0.0
  0
ENDBLK
  5
EA
100
AcDbEntity
  8
0
100
AcDbBlockEnd
  0
BLOCK
  5
EB
100
AcDbEntity
  8
0
100
AcDbBlockBegin
  2
sm-plate
 70
0
 10
0.0
 20
0.0
 30
0.0
  3
sm-plate
  1

  0
CIRCLE
  5
EC
100
AcDbEntity
100
AcDbCircle
  8
0
 62
3
420
65280
370
-1
 48
1.0
  6
BYLAYER
 10
0.8000000000000007
 20
0.0
 30
0.0
 40
0.04858893
  0
CIRCLE
  5
ED
100
AcDbEntity
100
AcDbCircle
  8
0
 62
3
420
65280
370
-1
 48
1.0
  6
BYLAYER
 10
-0.7999999999999972
 20
0.0
 30
0.0
 40
0.04858893
  0
CIRCLE
  5
EE
100
AcDbEntity
100
AcDbCircle
  8
0
 62
256
370
-1
 48
1.0
  6
BYLAYER
 10
0.0
 20
0.0
 30
0.0
 40
1.25
  0
ENDBLK
  5
EF
100
AcDbEntity
  8
0
100
AcDbBlockEnd
  0
ENDSEC
  0
SECTION
  2
ENTITIES
  0
LINE
  5
F0
100
AcDbEntity
100
AcDbLine
  8
0
 62
3
420
65280
370
-1
 48
1.0
  6
BYLAYER
 10
24.1232499999999987
 20
-21.326900002843928
 30
0.0
 11
23.8767500000000013
 21
-21.326900002843928
 31
0.0
  0
LINE
  5
F1
100
AcDbEntity
100
AcDbLine
  8
0
 62
3
420
65280
370
-1
 48
1.0
  6
BYLAYER
 10
24.1232500000000023
 20
-23.326900002843928
 30
0.0
 11
23.8767500000000048
 21
-23.326900002843928
 31
0.0
  0
LINE
  5
F2
100
AcDbEntity
100
AcDbLine
  8
0
 62
3
420
65280
370
-1
 48
1.0
  6
BYLAYER
 10
24.1232499999999987
 20
-21.4190000000000005
 30
0.0
 11
23.8767500000000013
 21
-21.4190000046970042
 31
0.0
  0
LINE
  5
F3
100
AcDbEntity
100
AcDbLine
  8
0
 62
3
420
65280
370
-1
 48
1.0
  6
BYLAYER
 10
24.1232500000000023
 20
-23.4190000000000005
 30
0.0
 11
23.8767500000000048
 21
-23.4190000046970042
 31
0.0
  0
LINE
  5
F4
100
AcDbEntity
100
AcDbLine
  8
0
 62
3
420
65280
370
-1
 48
1.0
  6
BYLAYER
 10
23.9461215023485003
 20
-22.326900002843928
 30
0.0
 11
23.8767500046970049
 21
-22.3269000028439315
 31
0.0
  0
LINE
  5
F5
100
AcDbEntity
100
AcDbLine
  8
0
 62
3
420
65280
370
-1
 48
1.0
  6
BYLAYER
 10
23.946121507045504
 20
-22.419000000000004
 30
0.0
 11
23.8767500046970049
 21
-22.4190000046970042
 31
0.0
  0
LINE
  5
F6
100
AcDbEntity
100
AcDbLine
  8
0
 62
3
420
65280
370
-1
 48
1.0
  6
BYLAYER
 10
24.1232500046970024
 20
-22.419000000000004
 30
0.0
 11
24.0538785070455035
 21
-22.419000000000004
 31
0.0
  0
LINE
  5
F7
100
AcDbEntity
100
AcDbLine
  8
0
 62
3
420
65280
370
-1
 48
1.0
  6
BYLAYER
 10
24.1232499999999987
 20
-22.326900002843928
 30
0.0
 11
24.0538785023485033
 21
-22.3269000028439315
 31
0.0
  0
LINE
  5
F8
100
AcDbEntity
100
AcDbLine
  8
0
 62
3
420
65280
370
-1
 48
1.0
  6
BYLAYER
 10
24.1232499999999987
 20
-21.4190000000000005
 30
0.0
 11
24.1232499999999987
 21
-21.3275000000000006
 31
0.0
  0
LINE
  5
F9
100
AcDbEntity
100
AcDbLine
  8
0
 62
3
420
65280
370
-1
 48
1.0
  6
BYLAYER
 10
24.1232499999999987
 20
-22.4190000000000005
 30
0.0
 11
24.1232499999999987
 21
-22.3275000000000006
 31
0.0
  0
LINE
  5
FA
100
AcDbEntity
100
AcDbLine
  8
0
 62
3
420
65280
370
-1
 48
1.0
  6
BYLAYER
 10
24.1232500000000023
 20
-23.4190000000000005
 30
0.0
 11
24.1232500000000023
 21
-23.326900002843928
 31
0.0
  0
LINE
  5
FB
100
AcDbEntity
100
AcDbLine
  8
0
 62
3
420
65280
370
-1
 48
1.0
  6
BYLAYER
 10
23.8767500000000013
 20
-21.4190000000000005
 30
0.0
 11
23.8767500000000013
 21
-21.326900002843928
 31
0.0
  0
LINE
  5
FC
100
AcDbEntity
100
AcDbLine
  8
0
 62
3
420
65280
370
-1
 48
1.0
  6
BYLAYER
 10
23.8767500000000048
 20
-23.4190000000000005
 30
0.0
 11
23.8767500000000048
 21
-23.326900002843928
 31
0.0
  0
LINE
  5
FD
100
AcDbEntity
100
AcDbLine
  8
0
 62
3
420
65280
370
-1
 48
1.0
  6
BYLAYER
 10
23.8767500046970049
 20
-22.419000000000004
 30
0.0
 11
23.8767500046970049
 21
-22.3275000000000041
 31
0.0
  0
LINE
  5
FE
100
AcDbEntity
100
AcDbLine
  8
0
 62
1
420
16711680
370
-1
 48
1.0
  6
BYLAYER
 10
-25.2113175204881017
 20
-17.9704687254773212
 30
0.0
 11
-25.2460757649076584
 21
-17.9429925918775908
 31
0.0
  0
LINE
  5
FF
100
AcDbEntity
100
AcDbLine
  8
0
 62
1
420
16711680
370
-1
 48
1.0
  6
BYLAYER
 10
18.7886824795118983
 20
-20.2204687254773177
 30
0.0
 11
18.7539242350923416
 21
-20.1929925918775872
 31
0.0
  0
LINE
  5
100
100
AcDbEntity
100
AcDbLine
  8
0
 62
1
420
16711680
370
-1
 48
1.0
  6
BYLAYER
 10
-25.1964737943142048
 20
-17.9167819803891497
 30
0.0
 11
-25.2229363336141326
 21
-17.8812459777084918
 31
0.0
  0
LINE
  5
101
100
AcDbEntity
100
AcDbLine
  8
0
 62
1
420
16711680
370
-1
 48
1.0
  6
BYLAYER
 10
18.8035262056857952
 20
-20.1667819803891462
 30
0.0
 11
18.7770636663858674
 21
-20.1312459777084882
 31
0.0
  0
LINE
  5
102
100
AcDbEntity
100
AcDbLine
  8
0
 62
6
420
16711935
370
-1
 48
1.0
  6
BYLAYER
 10
26.1252504499999958
 20
-20.7830585999999968
 30
0.0
 11
25.8747495500000007
 21
-20.7830585999999968
 31
0.0
  0
LINE
  5
103
100
AcDbEntity
100
AcDbLine
  8
0
 62
6
420
16711935
370
-1
 48
1.0
  6
BYLAYER
 10
19.1252504499999993
 20
-22.5330585999999968
 30
0.0
 11
18.8747495500000007
 21
-22.5330585999999968
 31
0.0
  0
LINE
  5
104
100
AcDbEntity
100
AcDbLine
  8
0
 62
3
420
65280
370
-1
 48
1.0
  6
BYLAYER
 10
-23.8747495500000007
 20
-8.7830585999999968
 30
0.0
 11
-24.1252504499999993
 21
-8.7830585999999968
 31
0.0
  0
LINE
  5
105
100
AcDbEntity
100
AcDbLine
  8
0
 62
6
420
16711935
370
-1
 48
1.0
  6
BYLAYER
 10
25.8747495500000007
 20
-20.7830585999999968
 30
0.0
 11
25.7943939499999999
 21
-20.9222378999999989
 31
0.0
  0
LINE
  5
106
100
AcDbEntity
100
AcDbLine
  8
0
 62
6
420
16711935
370
-1
 48
1.0
  6
BYLAYER
 10
18.8747495500000007
 20
-22.5330585999999968
 30
0.0
 11
18.7943939499999999
 21
-22.6722378999999989
 31
0.0
  0
LINE
  5
107
100
AcDbEntity
100
AcDbLine
  8
0
 62
3
420
65280
370
-1
 48
1.0
  6
BYLAYER
 10
-24.1252504499999993
 20
-8.7830585999999968
 30
0.0
 11
-24.2056060500000001
 21
-8.9222378999999989
 31
0.0
  0
LINE
  5
108
100
AcDbEntity
100
AcDbLine
  8
0
 62
1
420
16711680
370
-1
 48
1.0
  6
BYLAYER
 10
-25.1682407037460933
 20
-17.8687664058131759
 30
0.0
 11
-25.1846041596045147
 21
-17.8275922539082572
 31
0.0
  0
LINE
  5
109
100
AcDbEntity
100
AcDbLine
  8
0
 62
1
420
16711680
370
-1
 48
1.0
  6
BYLAYER
 10
18.8317592962539067
 20
-20.1187664058131723
 30
0.0
 11
18.8153958403954853
 21
-20.0775922539082536
 31
0.0
  0
LINE
  5
10A
100
AcDbEntity
100
AcDbLine
  8
0
 62
6
420
16711935
370
-1
 48
1.0
  6
BYLAYER
 10
25.7943939499999999
 20
-20.9222378999999989
 30
0.0
 11
25.7494971499999998
 21
-21.0
 31
0.0
  0
LINE
  5
10B
100
AcDbEntity
100
AcDbLine
  8
0
 62
6
420
16711935
370
-1
 48
1.0
  6
BYLAYER
 10
18.7943939499999999
 20
-22.6722378999999989
 30
0.0
 11
18.7494971499999998
 21
-22.75
 31
0.0
  0
LINE
  5
10C
100
AcDbEntity
100
AcDbLine
  8
0
 62
3
420
65280
370
-1
 48
1.0
  6
BYLAYER
 10
-24.2056060500000001
 20
-8.9222378999999989
 30
0.0
 11
-24.2505028500000002
 21
-9.0
 31
0.0
  0
LINE
  5
10D
100
AcDbEntity
100
AcDbLine
  8
0
 62
6
420
16711935
370
-1
 48
1.0
  6
BYLAYER
 10
25.7494971499999998
 20
-21.0
 30
0.0
 11
25.7943939499999999
 21
-21.0777621000000011
 31
0.0
  0
LINE
  5
10E
100
AcDbEntity
100
AcDbLine
  8
0
 62
6
420
16711935
370
-1
 48
1.0
  6
BYLAYER
 10
18.7494971499999998
 20
-22.75
 30
0.0
 11
18.7943939499999999
 21
-22.8277621000000011
 31
0.0
  0
LINE
  5
10F
100
AcDbEntity
100
AcDbLine
  8
0
 62
3
420
65280
370
-1
 48
1.0
  6
BYLAYER
 10
-24.2505028500000002
 20
-9.0
 30
0.0
 11
-24.2056060500000001
 21
-9.0777621000000011
 31
0.0
  0
LINE
  5
110
100
AcDbEntity
100
AcDbLine
  8
0
 62
6
420
16711935
370
-1
 48
1.0
  6
BYLAYER
 10
25.7943939499999999
 20
-21.0777621000000011
 30
0.0
 11
25.8747495500000007
 21
-21.2169414000000032
 31
0.0
  0
LINE
  5
111
100
AcDbEntity
100
AcDbLine
  8
0
 62
6
420
16711935
370
-1
 48
1.0
  6
BYLAYER
 10
18.7943939499999999
 20
-22.8277621000000011
 30
0.0
 11
18.8747495500000007
 21
-22.9669414000000032
 31
0.0
  0
LINE
  5
112
100
AcDbEntity
100
AcDbLine
  8
0
 62
3
420
65280
370
-1
 48
1.0
  6
BYLAYER
 10
-24.2056060500000001
 20
-9.0777621000000011
 30
0.0
 11
-24.1252504499999993
 21
-9.2169414000000032
 31
0.0
  0
LINE
  5
113
100
AcDbEntity
100
AcDbLine
  8
0
 62
1
420
16711680
370
-1
 48
1.0
  6
BYLAYER
 10
-25.1285422872485924
 20
-17.8296941838072698
 30
0.0
 11
-25.1336915171906483
 21
-17.7856878330869037
 31
0.0
  0
LINE
  5
114
100
AcDbEntity
100
AcDbLine
  8
0
 62
1
420
16711680
370
-1
 48
1.0
  6
BYLAYER
 10
18.8714577127514076
 20
-20.0796941838072662
 30
0.0
 11
18.8663084828093517
 21
-20.0356878330869002
 31
0.0
  0
LINE
  5
115
100
AcDbEntity
100
AcDbLine
  8
0
 62
6
420
16711935
370
-1
 48
1.0
  6
BYLAYER
 10
25.8747495500000007
 20
-21.2169414000000032
 30
0.0
 11
26.1252504499999958
 21
-21.2169414000000032
 31
0.0
  0
LINE
  5
116
100
AcDbEntity
100
AcDbLine
  8
0
 62
6
420
16711935
370
-1
 48
1.0
  6
BYLAYER
 10
18.8747495500000007
 20
-22.9669414000000032
 30
0.0
 11
19.1252504499999993
 21
-22.9669414000000032
 31
0.0
  0
LINE
  5
117
100
AcDbEntity
100
AcDbLine
  8
0
 62
3
420
65280
370
-1
 48
1.0
  6
BYLAYER
 10
-24.1252504499999993
 20
-9.2169414000000032
 30
0.0
 11
-23.8747495500000007
 21
-9.2169414000000032
 31
0.0
  0
LINE
  5
118
100
AcDbEntity
100
AcDbLine
  8
0
 62
6
420
16711935
370
-1
 48
1.0
  6
BYLAYER
 10
26.1252504499999958
 20
-21.2169414000000032
 30
0.0
 11
26.2056068300000007
 21
-21.0777621000000011
 31
0.0
  0
LINE
  5
119
100
AcDbEntity
100
AcDbLine
  8
0
 62
6
420
16711935
370
-1
 48
1.0
  6
BYLAYER
 10
19.1252504499999993
 20
-22.9669414000000032
 30
0.0
 11
19.2056068300000007
 21
-22.8277621000000011
 31
0.0
  0
LINE
  5
11A
100
AcDbEntity
100
AcDbLine
  8
0
 62
3
420
65280
370
-1
 48
1.0
  6
BYLAYER
 10
-23.8747495500000007
 20
-9.2169414000000032
 30
0.0
 11
-23.7943931699999993
 21
-9.0777621000000011
 31
0.0
  0
LINE
  5
11B
100
AcDbEntity
100
AcDbLine
  8
0
 62
6
420
16711935
370
-1
 48
1.0
  6
BYLAYER
 10
26.2056068300000007
 20
-21.0777621000000011
 30
0.0
 11
26.2505028500000037
 21
-21.0
 31
0.0
  0
LINE
  5
11C
100
AcDbEntity
100
AcDbLine
  8
0
 62
6
420
16711935
370
-1
 48
1.0
  6
BYLAYER
 10
19.2056068300000007
 20
-22.8277621000000011
 30
0.0
 11
19.2505028500000002
 21
-22.75
 31
0.0
  0
LINE
  5
11D
100
AcDbEntity
100
AcDbLine
  8
0
 62
3
420
65280
370
-1
 48
1.0
  6
BYLAYER
 10
-23.7943931699999993
 20
-9.0777621000000011
 30
0.0
 11
-23.7494971499999998
 21
-8.9999999999999982
 31
0.0
  0
LINE
  5
11E
100
AcDbEntity
100
AcDbLine
  8
0
 62
1
420
16711680
370
-1
 48
1.0
  6
BYLAYER
 10
-25.0800839263012776
 20
-17.8022280217312279
 30
0.0
 11
-25.0736680188159156
 21
-17.7583884322730796
 31
0.0
  0
LINE
  5
11F
100
AcDbEntity
100
AcDbLine
  8
0
 62
1
420
16711680
370
-1
 48
1.0
  6
BYLAYER
 10
18.9199160736987224
 20
-20.0522280217312243
 30
0.0
 11
18.9263319811840844
 21
-20.0083884322730761
 31
0.0
  0
LINE
  5
120
100
AcDbEntity
100
AcDbLine
  8
0
 62
6
420
16711935
370
-1
 48
1.0
  6
BYLAYER
 10
26.2505028500000037
 20
-21.0
 30
0.0
 11
26.2056068300000007
 21
-20.9222378999999989
 31
0.0
  0
LINE
  5
121
100
AcDbEntity
100
AcDbLine
  8
0
 62
6
420
16711935
370
-1
 48
1.0
  6
BYLAYER
 10
19.2505028500000002
 20
-22.75
 30
0.0
 11
19.2056068300000007
 21
-22.6722378999999989
 31
0.0
  0
LINE
  5
122
100
AcDbEntity
100
AcDbLine
  8
0
 62
3
420
65280
370
-1
 48
1.0
  6
BYLAYER
 10
-23.7494971499999998
 20
-8.9999999999999982
 30
0.0
 11
-23.7943931699999993
 21
-8.9222378999999989
 31
0.0
  0
LINE
  5
123
100
AcDbEntity
100
AcDbLine
  8
0
 62
6
420
16711935
370
-1
 48
1.0
  6
BYLAYER
 10
26.2056068300000007
 20
-20.9222378999999989
 30
0.0
 11
26.1252504499999958
 21
-20.7830585999999968
 31
0.0
  0
LINE
  5
124
100
AcDbEntity
100
AcDbLine
  8
0
 62
6
420
16711935
370
-1
 48
1.0
  6
BYLAYER
 10
19.2056068300000007
 20
-22.6722378999999989
 30
0.0
 11
19.1252504499999993
 21
-22.5330585999999968
 31
0.0
  0
LINE
  5
125
100
AcDbEntity
100
AcDbLine
  8
0
 62
3
420
65280
370
-1
 48
1.0
  6
BYLAYER
 10
-23.7943931699999993
 20
-8.9222378999999989
 30
0.0
 11
-23.8747495500000007
 21
-8.7830585999999968
 31
0.0
  0
LINE
  5
126
100
AcDbEntity
100
AcDbLine
  8
0
 62
1
420
16711680
370
-1
 48
1.0
  6
BYLAYER
 10
-25.026167978121471
 20
-17.7882396931405538
 30
0.0
 11
-25.0086241667010363
 21
-17.747554460517847
 31
0.0
  0
LINE
  5
127
100
AcDbEntity
100
AcDbLine
  8
0
 62
1
420
16711680
370
-1
 48
1.0
  6
BYLAYER
 10
18.973832021878529
 20
-20.0382396931405502
 30
0.0
 11
18.9913758332989637
 21
-19.9975544605178435
 31
0.0
  0
CIRCLE
  5
128
100
AcDbEntity
100
AcDbCircle
  8
0
 62
3
420
65280
370
-1
 48
1.0
  6
BYLAYER
 10
24.3999999953718749
 20
-21.1275000000000013
 30
0.0
 40
0.04858893
  0
CIRCLE
  5
129
100
AcDbEntity
100
AcDbCircle
  8
0
 62
3
420
65280
370
-1
 48
1.0
  6
BYLAYER
 10
23.5999999953718742
 20
-21.1275000000000013
 30
0.0
 40
0.04858893
  0
CIRCLE
  5
12A
100
AcDbEntity
100
AcDbCircle
  8
0
 62
3
420
65280
370
-1
 48
1.0
  6
BYLAYER
 10
9.5374999999999979
 20
-8.2100468861068947
 30
0.0
 40
0.04858893
  0
CIRCLE
  5
12B
100
AcDbEntity
100
AcDbCircle
  8
0
 62
1
420
16711680
370
-1
 48
1.0
  6
BYLAYER
 10
9.5374999999999979
 20
-10.1819056005785189
 30
0.0
 40
0.04858893
  0
CIRCLE
  5
12C
100
AcDbEntity
100
AcDbCircle
  8
0
 62
3
420
65280
370
-1
 48
1.0
  6
BYLAYER
 10
14.2624999999999975
 20
-10.2499999999999964
 30
0.0
 40
0.04858893
  0
CIRCLE
  5
12D
100
AcDbEntity
100
AcDbCircle
  8
0
 62
3
420
65280
370
-1
 48
1.0
  6
BYLAYER
 10
7.9625000000000004
 20
-8.2100468861068983
 30
0.0
 40
0.04858893
  0
CIRCLE
  5
12E
100
AcDbEntity
100
AcDbCircle
  8
0
 62
3
420
65280
370
-1
 48
1.0
  6
BYLAYER
 10
12.6875
 20
-10.25
 30
0.0
 40
0.04858893
  0
CIRCLE
  5
12F
100
AcDbEntity
100
AcDbCircle
  8
0
 62
3
420
65280
370
-1
 48
1.0
  6
BYLAYER
 10
24.3999999953718749
 20
-22.1275000000000013
 30
0.0
 40
0.04858893
  0
CIRCLE
  5
130
100
AcDbEntity
100
AcDbCircle
  8
0
 62
3
420
65280
370
-1
 48
1.0
  6
BYLAYER
 10
23.5999999953718742
 20
-22.1275000000000013
 30
0.0
 40
0.04858893
  0
CIRCLE
  5
131
100
AcDbEntity
100
AcDbCircle
  8
0
 62
3
420
65280
370
-1
 48
1.0
  6
BYLAYER
 10
24.3999999953718785
 20
-23.1275000000000013
 30
0.0
 40
0.04858893
  0
CIRCLE
  5
132
100
AcDbEntity
100
AcDbCircle
  8
0
 62
3
420
65280
370
-1
 48
1.0
  6
BYLAYER
 10
23.5999999953718778
 20
-23.1275000000000013
 30
0.0
 40
0.04858893
  0
CIRCLE
  5
133
100
AcDbEntity
100
AcDbCircle
  8
0
 62
3
420
65280
370
-1
 48
1.0
  6
BYLAYER
 10
24.4000000000000021
 20
-24.3195028926576029
 30
0.0
 40
0.04858893
  0
CIRCLE
  5
134
100
AcDbEntity
100
AcDbCircle
  8
0
 62
3
420
65280
370
-1
 48
1.0
  6
BYLAYER
 10
23.6000000000000014
 20
-24.3195028926576029
 30
0.0
 40
0.04858893
  0
CIRCLE
  5
135
100
AcDbEntity
100
AcDbCircle
  8
0
 62
3
420
65280
370
-1
 48
1.0
  6
BYLAYER
 10
24.4000000000000021
 20
-25.5
 30
0.0
 40
0.04858893
  0
CIRCLE
  5
136
100
AcDbEntity
100
AcDbCircle
  8
0
 62
3
420
65280
370
-1
 48
1.0
  6
BYLAYER
 10
23.6000000000000014
 20
-25.5
 30
0.0
 40
0.04858893
  0
CIRCLE
  5
137
100
AcDbEntity
100
AcDbCircle
  8
0
 62
3
420
65280
370
-1
 48
1.0
  6
BYLAYER
 10
19.8000000000000007
 20
-22.75
 30
0.0
 40
0.04858893
  0
CIRCLE
  5
138
100
AcDbEntity
100
AcDbCircle
  8
0
 62
3
420
65280
370
-1
 48
1.0
  6
BYLAYER
 10
18.2000000000000028
 20
-22.75
 30
0.0
 40
0.04858893
  0
CIRCLE
  5
139
100
AcDbEntity
100
AcDbCircle
  8
0
 62
1
420
16711680
370
-1
 48
1.0
  6
BYLAYER
 10
9.5374999999999996
 20
-13.6819056005785278
 30
0.0
 40
0.04858893
  0
CIRCLE
  5
13A
100
AcDbEntity
100
AcDbCircle
  8
0
 62
3
420
65280
370
-1
 48
1.0
  6
BYLAYER
 10
17.5375000000000014
 20
-13.7500000000000071
 30
0.0
 40
0.04858893
  0
CIRCLE
  5
13B
100
AcDbEntity
100
AcDbCircle
  8
0
 62
1
420
16711680
370
-1
 48
1.0
  6
BYLAYER
 10
7.9625000000000004
 20
-13.6819056005785242
 30
0.0
 40
0.04858893
  0
CIRCLE
  5
13C
100
AcDbEntity
100
AcDbCircle
  8
0
 62
3
420
65280
370
-1
 48
1.0
  6
BYLAYER
 10
15.9625000000000021
 20
-13.7500000000000036
 30
0.0
 40
0.04858893
  0
CIRCLE
  5
13D
100
AcDbEntity
100
AcDbCircle
  8
0
 62
3
420
65280
370
-1
 48
1.0
  6
BYLAYER
 10
-23.1999999999999993
 20
0.0
 30
0.0
 40
0.04858893
  0
CIRCLE
  5
13E
100
AcDbEntity
100
AcDbCircle
  8
0
 62
3
420
65280
370
-1
 48
1.0
  6
BYLAYER
 10
-24.7999999999999972
 20
0.0
 30
0.0
 40
0.04858893
  0
CIRCLE
  5
13F
100
AcDbEntity
100
AcDbCircle
  8
0
 62
3
420
65280
370
-1
 48
1.0
  6
BYLAYER
 10
17.5375000000000014
 20
-10.2499999999999982
 30
0.0
 40
0.04858893
  0
CIRCLE
  5
140
100
AcDbEntity
100
AcDbCircle
  8
0
 62
1
420
16711680
370
-1
 48
1.0
  6
BYLAYER
 10
7.9625000000000004
 20
-10.1819056005785225
 30
0.0
 40
0.04858893
  0
CIRCLE
  5
141
100
AcDbEntity
100
AcDbCircle
  8
0
 62
3
420
65280
370
-1
 48
1.0
  6
BYLAYER
 10
15.9625000000000021
 20
-10.2500000000000018
 30
0.0
 40
0.04858893
  0
CIRCLE
  5
142
100
AcDbEntity
100
AcDbCircle
  8
0
 62
3
420
65280
370
-1
 48
1.0
  6
BYLAYER
 10
-23.1999999999999993
 20
-9.0
 30
0.0
 40
0.04858893
  0
CIRCLE
  5
143
100
AcDbEntity
100
AcDbCircle
  8
0
 62
3
420
65280
370
-1
 48
1.0
  6
BYLAYER
 10
-24.7999999999999972
 20
-9.0
 30
0.0
 40
0.04858893
  0
LINE
  5
144
100
AcDbEntity
100
AcDbLine
  8
0
 62
1
420
16711680
370
-1
 48
1.0
  6
BYLAYER
 10
-24.9704687254773177
 20
-17.7886824795119018
 30
0.0
 11
-24.9429925918775908
 21
-17.7539242350923416
 31
0.0
  0
LINE
  5
145
100
AcDbEntity
100
AcDbLine
  8
0
 62
1
420
16711680
370
-1
 48
1.0
  6
BYLAYER
 10
19.0295312745226823
 20
-20.0386824795118983
 30
0.0
 11
19.0570074081224092
 21
-20.0039242350923381
 31
0.0
  0
LINE
  5
146
100
AcDbEntity
100
AcDbLine
  8
0
 62
1
420
16711680
370
-1
 48
1.0
  6
BYLAYER
 10
-24.9167819803891462
 20
-17.8035262056857988
 30
0.0
 11
-24.8812459777084882
 21
-17.777063666385871
 31
0.0
  0
LINE
  5
147
100
AcDbEntity
100
AcDbLine
  8
0
 62
1
420
16711680
370
-1
 48
1.0
  6
BYLAYER
 10
19.0832180196108538
 20
-20.0535262056857952
 30
0.0
 11
19.1187540222915118
 21
-20.0270636663858674
 31
0.0
  0
LINE
  5
148
100
AcDbEntity
100
AcDbLine
  8
0
 62
1
420
16711680
370
-1
 48
1.0
  6
BYLAYER
 10
-24.8687664058131759
 20
-17.8317592962539067
 30
0.0
 11
-24.8275922539082572
 21
-17.8153958403954888
 31
0.0
  0
LINE
  5
149
100
AcDbEntity
100
AcDbLine
  8
0
 62
1
420
16711680
370
-1
 48
1.0
  6
BYLAYER
 10
19.1312335941868241
 20
-20.0817592962539031
 30
0.0
 11
19.1724077460917428
 21
-20.0653958403954853
 31
0.0
  0
LINE
  5
14A
100
AcDbEntity
100
AcDbLine
  8
0
 62
1
420
16711680
370
-1
 48
1.0
  6
BYLAYER
 10
-24.8296941838072698
 20
-17.8714577127514076
 30
0.0
 11
-24.7856878330869037
 21
-17.8663084828093552
 31
0.0
  0
LINE
  5
14B
100
AcDbEntity
100
AcDbLine
  8
0
 62
1
420
16711680
370
-1
 48
1.0
  6
BYLAYER
 10
19.1703058161927302
 20
-20.121457712751404
 30
0.0
 11
19.2143121669130963
 21
-20.1163084828093517
 31
0.0
  0
LINE
  5
14C
100
AcDbEntity
100
AcDbLine
  8
0
 62
1
420
16711680
370
-1
 48
1.0
  6
BYLAYER
 10
-24.8022280217312243
 20
-17.919916073698726
 30
0.0
 11
-24.7583884322730761
 21
-17.9263319811840844
 31
0.0
  0
LINE
  5
14D
100
AcDbEntity
100
AcDbLine
  8
0
 62
1
420
16711680
370
-1
 48
1.0
  6
BYLAYER
 10
19.1977719782687757
 20
-20.1699160736987224
 30
0.0
 11
19.2416115677269239
 21
-20.1763319811840809
 31
0.0
  0
LINE
  5
14E
100
AcDbEntity
100
AcDbLine
  8
0
 62
1
420
16711680
370
-1
 48
1.0
  6
BYLAYER
 10
-24.7882396931405538
 20
-17.973832021878529
 30
0.0
 11
-24.7475544605178435
 21
-17.9913758332989673
 31
0.0
  0
LINE
  5
14F
100
AcDbEntity
100
AcDbLine
  8
0
 62
1
420
16711680
370
-1
 48
1.0
  6
BYLAYER
 10
19.2117603068594462
 20
-20.2238320218785255
 30
0.0
 11
19.2524455394821565
 21
-20.2413758332989637
 31
0.0
  0
LINE
  5
150
100
AcDbEntity
100
AcDbLine
  8
0
 62
1
420
16711680
370
-1
 48
1.0
  6
BYLAYER
 10
-24.7886824795118983
 20
-18.0295312745226859
 30
0.0
 11
-24.7539242350923416
 21
-18.0570074081224128
 31
0.0
  0
LINE
  5
151
100
AcDbEntity
100
AcDbLine
  8
0
 62
1
420
16711680
370
-1
 48
1.0
  6
BYLAYER
 10
19.2113175204881017
 20
-20.2795312745226823
 30
0.0
 11
19.2460757649076584
 21
-20.3070074081224092
 31
0.0
  0
LINE
  5
152
100
AcDbEntity
100
AcDbLine
  8
0
 62
1
420
16711680
370
-1
 48
1.0
  6
BYLAYER
 10
-24.8035262056857952
 20
-18.0832180196108574
 30
0.0
 11
-24.7770636663858674
 21
-18.1187540222915118
 31
0.0
  0
LINE
  5
153
100
AcDbEntity
100
AcDbLine
  8
0
 62
1
420
16711680
370
-1
 48
1.0
  6
BYLAYER
 10
19.1964737943142048
 20
-20.3332180196108538
 30
0.0
 11
19.2229363336141326
 21
-20.3687540222915082
 31
0.0
  0
LINE
  5
154
100
AcDbEntity
100
AcDbLine
  8
0
 62
1
420
16711680
370
-1
 48
1.0
  6
BYLAYER
 10
-24.8317592962539067
 20
-18.1312335941868277
 30
0.0
 11
-24.8153958403954853
 21
-18.1724077460917464
 31
0.0
  0
LINE
  5
155
100
AcDbEntity
100
AcDbLine
  8
0
 62
1
420
16711680
370
-1
 48
1.0
  6
BYLAYER
 10
19.1682407037460933
 20
-20.3812335941868241
 30
0.0
 11
19.1846041596045147
 21
-20.4224077460917428
 31
0.0
  0
LINE
  5
156
100
AcDbEntity
100
AcDbLine
  8
0
 62
1
420
16711680
370
-1
 48
1.0
  6
BYLAYER
 10
-24.8714577127514076
 20
-18.1703058161927338
 30
0.0
 11
-24.8663084828093517
 21
-18.2143121669130998
 31
0.0
  0
LINE
  5
157
100
AcDbEntity
100
AcDbLine
  8
0
 62
1
420
16711680
370
-1
 48
1.0
  6
BYLAYER
 10
19.1285422872485924
 20
-20.4203058161927302
 30
0.0
 11
19.1336915171906483
 21
-20.4643121669130963
 31
0.0
  0
LINE
  5
158
100
AcDbEntity
100
AcDbLine
  8
0
 62
1
420
16711680
370
-1
 48
1.0
  6
BYLAYER
 10
-24.9199160736987224
 20
-18.1977719782687757
 30
0.0
 11
-24.9263319811840844
 21
-18.2416115677269275
 31
0.0
  0
LINE
  5
159
100
AcDbEntity
100
AcDbLine
  8
0
 62
1
420
16711680
370
-1
 48
1.0
  6
BYLAYER
 10
19.0800839263012776
 20
-20.4477719782687721
 30
0.0
 11
19.0736680188159156
 21
-20.4916115677269239
 31
0.0
  0
LINE
  5
15A
100
AcDbEntity
100
AcDbLine
  8
0
 62
1
420
16711680
370
-1
 48
1.0
  6
BYLAYER
 10
-24.973832021878529
 20
-18.2117603068594498
 30
0.0
 11
-24.9913758332989637
 21
-18.2524455394821601
 31
0.0
  0
LINE
  5
15B
100
AcDbEntity
100
AcDbLine
  8
0
 62
1
420
16711680
370
-1
 48
1.0
  6
BYLAYER
 10
19.026167978121471
 20
-20.4617603068594462
 30
0.0
 11
19.0086241667010363
 21
-20.5024455394821565
 31
0.0
  0
LINE
  5
15C
100
AcDbEntity
100
AcDbLine
  8
0
 62
1
420
16711680
370
-1
 48
1.0
  6
BYLAYER
 10
-25.0295312745226823
 20
-18.2113175204881017
 30
0.0
 11
-25.0570074081224092
 21
-18.2460757649076619
 31
0.0
  0
LINE
  5
15D
100
AcDbEntity
100
AcDbLine
  8
0
 62
1
420
16711680
370
-1
 48
1.0
  6
BYLAYER
 10
18.9704687254773177
 20
-20.4613175204880982
 30
0.0
 11
18.9429925918775908
 21
-20.4960757649076584
 31
0.0
  0
LINE
  5
15E
100
AcDbEntity
100
AcDbLine
  8
0
 62
1
420
16711680
370
-1
 48
1.0
  6
BYLAYER
 10
-25.0832180196108538
 20
-18.1964737943142083
 30
0.0
 11
-25.1187540222915118
 21
-18.2229363336141361
 31
0.0
  0
LINE
  5
15F
100
AcDbEntity
100
AcDbLine
  8
0
 62
1
420
16711680
370
-1
 48
1.0
  6
BYLAYER
 10
18.9167819803891462
 20
-20.4464737943142048
 30
0.0
 11
18.8812459777084882
 21
-20.4729363336141326
 31
0.0
  0
LINE
  5
160
100
AcDbEntity
100
AcDbLine
  8
0
 62
1
420
16711680
370
-1
 48
1.0
  6
BYLAYER
 10
-25.1312335941868241
 20
-18.1682407037460969
 30
0.0
 11
-25.1724077460917428
 21
-18.1846041596045183
 31
0.0
  0
LINE
  5
161
100
AcDbEntity
100
AcDbLine
  8
0
 62
1
420
16711680
370
-1
 48
1.0
  6
BYLAYER
 10
18.8687664058131759
 20
-20.4182407037460933
 30
0.0
 11
18.8275922539082572
 21
-20.4346041596045147
 31
0.0
  0
LINE
  5
162
100
AcDbEntity
100
AcDbLine
  8
0
 62
1
420
16711680
370
-1
 48
1.0
  6
BYLAYER
 10
-25.1703058161927302
 20
-18.128542287248596
 30
0.0
 11
-25.2143121669130963
 21
-18.1336915171906483
 31
0.0
  0
LINE
  5
163
100
AcDbEntity
100
AcDbLine
  8
0
 62
1
420
16711680
370
-1
 48
1.0
  6
BYLAYER
 10
18.8296941838072698
 20
-20.3785422872485924
 30
0.0
 11
18.7856878330869037
 21
-20.3836915171906448
 31
0.0
  0
LINE
  5
164
100
AcDbEntity
100
AcDbLine
  8
0
 62
1
420
16711680
370
-1
 48
1.0
  6
BYLAYER
 10
-25.1977719782687757
 20
-18.0800839263012776
 30
0.0
 11
-25.2416115677269239
 21
-18.0736680188159191
 31
0.0
  0
LINE
  5
165
100
AcDbEntity
100
AcDbLine
  8
0
 62
1
420
16711680
370
-1
 48
1.0
  6
BYLAYER
 10
18.8022280217312243
 20
-20.330083926301274
 30
0.0
 11
18.7583884322730761
 21
-20.3236680188159156
 31
0.0
  0
LINE
  5
166
100
AcDbEntity
100
AcDbLine
  8
0
 62
1
420
16711680
370
-1
 48
1.0
  6
BYLAYER
 10
-25.2524455394821565
 20
-17.9913758332989673
 30
0.0
 11
-25.2117603068594462
 21
-17.973832021878529
 31
0.0
  0
LINE
  5
167
100
AcDbEntity
100
AcDbLine
  8
0
 62
1
420
16711680
370
-1
 48
1.0
  6
BYLAYER
 10
18.7475544605178435
 20
-20.2413758332989637
 30
0.0
 11
18.7882396931405538
 21
-20.2238320218785255
 31
0.0
  0
LINE
  5
168
100
AcDbEntity
100
AcDbLine
  8
0
 62
1
420
16711680
370
-1
 48
1.0
  6
BYLAYER
 10
-25.2416115677269239
 20
-17.926331981184088
 30
0.0
 11
-25.1977719782687757
 21
-17.9199160736987295
 31
0.0
  0
LINE
  5
169
100
AcDbEntity
100
AcDbLine
  8
0
 62
1
420
16711680
370
-1
 48
1.0
  6
BYLAYER
 10
18.7583884322730761
 20
-20.1763319811840844
 30
0.0
 11
18.8022280217312243
 21
-20.169916073698726
 31
0.0
  0
LINE
  5
16A
100
AcDbEntity
100
AcDbLine
  8
0
 62
1
420
16711680
370
-1
 48
1.0
  6
BYLAYER
 10
-25.2143121669130963
 20
-17.8663084828093552
 30
0.0
 11
-25.1703058161927338
 21
-17.8714577127514076
 31
0.0
  0
LINE
  5
16B
100
AcDbEntity
100
AcDbLine
  8
0
 62
1
420
16711680
370
-1
 48
1.0
  6
BYLAYER
 10
18.7856878330869037
 20
-20.1163084828093517
 30
0.0
 11
18.8296941838072662
 21
-20.121457712751404
 31
0.0
  0
LINE
  5
16C
100
AcDbEntity
100
AcDbLine
  8
0
 62
1
420
16711680
370
-1
 48
1.0
  6
BYLAYER
 10
-25.1724077460917428
 20
-17.8153958403954888
 30
0.0
 11
-25.1312335941868241
 21
-17.8317592962539102
 31
0.0
  0
LINE
  5
16D
100
AcDbEntity
100
AcDbLine
  8
0
 62
1
420
16711680
370
-1
 48
1.0
  6
BYLAYER
 10
18.8275922539082572
 20
-20.0653958403954853
 30
0.0
 11
18.8687664058131759
 21
-20.0817592962539067
 31
0.0
  0
LINE
  5
16E
100
AcDbEntity
100
AcDbLine
  8
0
 62
1
420
16711680
370
-1
 48
1.0
  6
BYLAYER
 10
-25.1187540222915118
 20
-17.777063666385871
 30
0.0
 11
-25.0832180196108538
 21
-17.8035262056857988
 31
0.0
  0
LINE
  5
16F
100
AcDbEntity
100
AcDbLine
  8
0
 62
1
420
16711680
370
-1
 48
1.0
  6
BYLAYER
 10
18.8812459777084882
 20
-20.0270636663858674
 30
0.0
 11
18.9167819803891462
 21
-20.0535262056857952
 31
0.0
  0
LINE
  5
170
100
AcDbEntity
100
AcDbLine
  8
0
 62
1
420
16711680
370
-1
 48
1.0
  6
BYLAYER
 10
-25.0570074081224092
 20
-17.7539242350923416
 30
0.0
 11
-25.0295312745226823
 21
-17.7886824795119018
 31
0.0
  0
LINE
  5
171
100
AcDbEntity
100
AcDbLine
  8
0
 62
1
420
16711680
370
-1
 48
1.0
  6
BYLAYER
 10
18.9429925918775908
 20
-20.0039242350923381
 30
0.0
 11
18.9704687254773177
 21
-20.0386824795118983
 31
0.0
  0
LINE
  5
172
100
AcDbEntity
100
AcDbLine
  8
0
 62
1
420
16711680
370
-1
 48
1.0
  6
BYLAYER
 10
-24.9913758332989673
 20
-17.747554460517847
 30
0.0
 11
-24.973832021878529
 21
-17.7882396931405538
 31
0.0
  0
LINE
  5
173
100
AcDbEntity
100
AcDbLine
  8
0
 62
1
420
16711680
370
-1
 48
1.0
  6
BYLAYER
 10
19.0086241667010327
 20
-19.9975544605178435
 30
0.0
 11
19.026167978121471
 21
-20.0382396931405502
 31
0.0
  0
LINE
  5
174
100
AcDbEntity
100
AcDbLine
  8
0
 62
1
420
16711680
370
-1
 48
1.0
  6
BYLAYER
 10
-24.9263319811840844
 20
-17.7583884322730796
 30
0.0
 11
-24.919916073698726
 21
-17.8022280217312279
 31
0.0
  0
LINE
  5
175
100
AcDbEntity
100
AcDbLine
  8
0
 62
1
420
16711680
370
-1
 48
1.0
  6
BYLAYER
 10
19.0736680188159156
 20
-20.0083884322730761
 30
0.0
 11
19.080083926301274
 21
-20.0522280217312243
 31
0.0
  0
LINE
  5
176
100
AcDbEntity
100
AcDbLine
  8
0
 62
1
420
16711680
370
-1
 48
1.0
  6
BYLAYER
 10
-24.8663084828093517
 20
-17.7856878330869037
 30
0.0
 11
-24.8714577127514076
 21
-17.8296941838072698
 31
0.0
  0
LINE
  5
177
100
AcDbEntity
100
AcDbLine
  8
0
 62
1
420
16711680
370
-1
 48
1.0
  6
BYLAYER
 10
19.1336915171906483
 20
-20.0356878330869002
 30
0.0
 11
19.1285422872485924
 21
-20.0796941838072662
 31
0.0
  0
LINE
  5
178
100
AcDbEntity
100
AcDbLine
  8
0
 62
1
420
16711680
370
-1
 48
1.0
  6
BYLAYER
 10
-24.8153958403954853
 20
-17.8275922539082572
 30
0.0
 11
-24.8317592962539067
 21
-17.8687664058131759
 31
0.0
  0
LINE
  5
179
100
AcDbEntity
100
AcDbLine
  8
0
 62
1
420
16711680
370
-1
 48
1.0
  6
BYLAYER
 10
19.1846041596045147
 20
-20.0775922539082536
 30
0.0
 11
19.1682407037460933
 21
-20.1187664058131723
 31
0.0
  0
LINE
  5
17A
100
AcDbEntity
100
AcDbLine
  8
0
 62
1
420
16711680
370
-1
 48
1.0
  6
BYLAYER
 10
-24.7770636663858674
 20
-17.8812459777084918
 30
0.0
 11
-24.8035262056857952
 21
-17.9167819803891462
 31
0.0
  0
LINE
  5
17B
100
AcDbEntity
100
AcDbLine
  8
0
 62
1
420
16711680
370
-1
 48
1.0
  6
BYLAYER
 10
19.2229363336141326
 20
-20.1312459777084882
 30
0.0
 11
19.1964737943142048
 21
-20.1667819803891426
 31
0.0
  0
LINE
  5
17C
100
AcDbEntity
100
AcDbLine
  8
0
 62
1
420
16711680
370
-1
 48
1.0
  6
BYLAYER
 10
-24.7539242350923416
 20
-17.9429925918775908
 30
0.0
 11
-24.7886824795118983
 21
-17.9704687254773177
 31
0.0
  0
LINE
  5
17D
100
AcDbEntity
100
AcDbLine
  8
0
 62
1
420
16711680
370
-1
 48
1.0
  6
BYLAYER
 10
19.2460757649076584
 20
-20.1929925918775872
 30
0.0
 11
19.2113175204881017
 21
-20.2204687254773141
 31
0.0
  0
LINE
  5
17E
100
AcDbEntity
100
AcDbLine
  8
0
 62
1
420
16711680
370
-1
 48
1.0
  6
BYLAYER
 10
-24.7475544605178435
 20
-18.0086241667010363
 30
0.0
 11
-24.7882396931405538
 21
-18.0261679781214745
 31
0.0
  0
LINE
  5
17F
100
AcDbEntity
100
AcDbLine
  8
0
 62
1
420
16711680
370
-1
 48
1.0
  6
BYLAYER
 10
19.2524455394821565
 20
-20.2586241667010327
 30
0.0
 11
19.2117603068594462
 21
-20.276167978121471
 31
0.0
  0
LINE
  5
180
100
AcDbEntity
100
AcDbLine
  8
0
 62
1
420
16711680
370
-1
 48
1.0
  6
BYLAYER
 10
-24.7583884322730761
 20
-18.0736680188159156
 30
0.0
 11
-24.8022280217312243
 21
-18.0800839263012776
 31
0.0
  0
LINE
  5
181
100
AcDbEntity
100
AcDbLine
  8
0
 62
1
420
16711680
370
-1
 48
1.0
  6
BYLAYER
 10
19.2416115677269239
 20
-20.323668018815912
 30
0.0
 11
19.1977719782687757
 21
-20.330083926301274
 31
0.0
  0
LINE
  5
182
100
AcDbEntity
100
AcDbLine
  8
0
 62
1
420
16711680
370
-1
 48
1.0
  6
BYLAYER
 10
-24.7856878330869037
 20
-18.1336915171906483
 30
0.0
 11
-24.8296941838072662
 21
-18.128542287248596
 31
0.0
  0
LINE
  5
183
100
AcDbEntity
100
AcDbLine
  8
0
 62
1
420
16711680
370
-1
 48
1.0
  6
BYLAYER
 10
19.2143121669130963
 20
-20.3836915171906448
 30
0.0
 11
19.1703058161927338
 21
-20.3785422872485924
 31
0.0
  0
LINE
  5
184
100
AcDbEntity
100
AcDbLine
  8
0
 62
1
420
16711680
370
-1
 48
1.0
  6
BYLAYER
 10
-24.8275922539082572
 20
-18.1846041596045183
 30
0.0
 11
-24.8687664058131759
 21
-18.1682407037460933
 31
0.0
  0
LINE
  5
185
100
AcDbEntity
100
AcDbLine
  8
0
 62
1
420
16711680
370
-1
 48
1.0
  6
BYLAYER
 10
19.1724077460917428
 20
-20.4346041596045147
 30
0.0
 11
19.1312335941868241
 21
-20.4182407037460898
 31
0.0
  0
LINE
  5
186
100
AcDbEntity
100
AcDbLine
  8
0
 62
1
420
16711680
370
-1
 48
1.0
  6
BYLAYER
 10
-24.8812459777084882
 20
-18.2229363336141361
 30
0.0
 11
-24.9167819803891462
 21
-18.1964737943142083
 31
0.0
  0
LINE
  5
187
100
AcDbEntity
100
AcDbLine
  8
0
 62
1
420
16711680
370
-1
 48
1.0
  6
BYLAYER
 10
19.1187540222915118
 20
-20.4729363336141326
 30
0.0
 11
19.0832180196108538
 21
-20.4464737943142048
 31
0.0
  0
LINE
  5
188
100
AcDbEntity
100
AcDbLine
  8
0
 62
1
420
16711680
370
-1
 48
1.0
  6
BYLAYER
 10
-24.9429925918775908
 20
-18.2460757649076619
 30
0.0
 11
-24.9704687254773177
 21
-18.2113175204881017
 31
0.0
  0
LINE
  5
189
100
AcDbEntity
100
AcDbLine
  8
0
 62
1
420
16711680
370
-1
 48
1.0
  6
BYLAYER
 10
19.0570074081224092
 20
-20.4960757649076584
 30
0.0
 11
19.0295312745226823
 21
-20.4613175204880982
 31
0.0
  0
LINE
  5
18A
100
AcDbEntity
100
AcDbLine
  8
0
 62
1
420
16711680
370
-1
 48
1.0
  6
BYLAYER
 10
-25.0086241667010327
 20
-18.2524455394821601
 30
0.0
 11
-25.026167978121471
 21
-18.2117603068594498
 31
0.0
  0
LINE
  5
18B
100
AcDbEntity
100
AcDbLine
  8
0
 62
1
420
16711680
370
-1
 48
1.0
  6
BYLAYER
 10
18.9913758332989673
 20
-20.5024455394821565
 30
0.0
 11
18.973832021878529
 21
-20.4617603068594462
 31
0.0
  0
LINE
  5
18C
100
AcDbEntity
100
AcDbLine
  8
0
 62
1
420
16711680
370
-1
 48
1.0
  6
BYLAYER
 10
-25.0736680188159156
 20
-18.2416115677269275
 30
0.0
 11
-25.080083926301274
 21
-18.1977719782687757
 31
0.0
  0
LINE
  5
18D
100
AcDbEntity
100
AcDbLine
  8
0
 62
1
420
16711680
370
-1
 48
1.0
  6
BYLAYER
 10
18.9263319811840844
 20
-20.4916115677269239
 30
0.0
 11
18.919916073698726
 21
-20.4477719782687721
 31
0.0
  0
LINE
  5
18E
100
AcDbEntity
100
AcDbLine
  8
0
 62
3
420
65280
370
-1
 48
1.0
  6
BYLAYER
 10
23.9461215000000003
 20
-22.2075000000000031
 30
0.0
 11
23.9461215023485003
 21
-22.326900002843928
 31
0.0
  0
LINE
  5
18F
100
AcDbEntity
100
AcDbLine
  8
0
 62
3
420
65280
370
-1
 48
1.0
  6
BYLAYER
 10
24.0538785023485033
 20
-22.3269000028439315
 30
0.0
 11
24.0538785000000033
 21
-22.2075000000000031
 31
0.0
  0
LINE
  5
190
100
AcDbEntity
100
AcDbLine
  8
0
 62
1
420
16711680
370
-1
 48
1.0
  6
BYLAYER
 10
-25.1336915171906483
 20
-18.2143121669130998
 30
0.0
 11
-25.1285422872485924
 21
-18.1703058161927338
 31
0.0
  0
LINE
  5
191
100
AcDbEntity
100
AcDbLine
  8
0
 62
1
420
16711680
370
-1
 48
1.0
  6
BYLAYER
 10
18.8663084828093517
 20
-20.4643121669130963
 30
0.0
 11
18.8714577127514076
 21
-20.4203058161927302
 31
0.0
  0
ARC
  5
192
100
AcDbEntity
  8
0
 62
3
420
65280
370
-1
 48
1.0
  6
BYLAYER
100
AcDbCircle
 10
23.9999999953718728
 20
-21.1275000000000013
 30
0.0
 40
0.0999999999999996
100
AcDbArc
 50
306.8698976458433663
 51
233.1301023541566906
  0
ARC
  5
193
100
AcDbEntity
  8
0
 62
3
420
65280
370
-1
 48
1.0
  6
BYLAYER
100
AcDbCircle
 10
23.9999999953718728
 20
-22.1275000000000013
 30
0.0
 40
0.0999999999999996
100
AcDbArc
 50
306.8698976458433663
 51
233.1301023541566906
  0
ARC
  5
194
100
AcDbEntity
  8
0
 62
3
420
65280
370
-1
 48
1.0
  6
BYLAYER
100
AcDbCircle
 10
23.9999999953718763
 20
-23.1275000000000013
 30
0.0
 40
0.0999999999999996
100
AcDbArc
 50
306.8698976458433663
 51
233.1301023541566906
  0
LINE
  5
195
100
AcDbEntity
100
AcDbLine
  8
0
 62
1
420
16711680
370
-1
 48
1.0
  6
BYLAYER
 10
-25.1846041596045147
 20
-18.1724077460917464
 30
0.0
 11
-25.1682407037460933
 21
-18.1312335941868277
 31
0.0
  0
LINE
  5
196
100
AcDbEntity
100
AcDbLine
  8
0
 62
1
420
16711680
370
-1
 48
1.0
  6
BYLAYER
 10
18.8153958403954853
 20
-20.4224077460917428
 30
0.0
 11
18.8317592962539067
 21
-20.3812335941868241
 31
0.0
  0
LINE
  5
197
100
AcDbEntity
100
AcDbLine
  8
0
 62
256
370
-1
 48
1.0
  6
BYLAYER
 10
0.0
 20
0.0
 30
0.0
 11
0.0
 21
0.0
 31
0.0
  0
LINE
  5
198
100
AcDbEntity
100
AcDbLine
  8
0
 62
1
420
16711680
370
-1
 48
1.0
  6
BYLAYER
 10
-25.2229363336141326
 20
-18.1187540222915118
 30
0.0
 11
-25.1964737943142048
 21
-18.0832180196108574
 31
0.0
  0
LINE
  5
199
100
AcDbEntity
100
AcDbLine
  8
0
 62
1
420
16711680
370
-1
 48
1.0
  6
BYLAYER
 10
18.7770636663858674
 20
-20.3687540222915082
 30
0.0
 11
18.8035262056857952
 21
-20.3332180196108538
 31
0.0
  0
LINE
  5
19A
100
AcDbEntity
100
AcDbLine
  8
0
 62
3
420
65280
370
-1
 48
1.0
  6
BYLAYER
 10
23.9399999953718741
 20
-21.2075000000000031
 30
0.0
 11
24.0599999953718715
 21
-21.2075000000000031
 31
0.0
  0
LINE
  5
19B
100
AcDbEntity
100
AcDbLine
  8
0
 62
3
420
65280
370
-1
 48
1.0
  6
BYLAYER
 10
23.9399999953718776
 20
-23.2075000000000031
 30
0.0
 11
24.0599999953718751
 21
-23.2075000000000031
 31
0.0
  0
LINE
  5
19C
100
AcDbEntity
100
AcDbLine
  8
0
 62
1
420
16711680
370
-1
 48
1.0
  6
BYLAYER
 10
-25.2460757649076584
 20
-18.0570074081224128
 30
0.0
 11
-25.2113175204881017
 21
-18.0295312745226859
 31
0.0
  0
LINE
  5
19D
100
AcDbEntity
100
AcDbLine
  8
0
 62
1
420
16711680
370
-1
 48
1.0
  6
BYLAYER
 10
18.7539242350923416
 20
-20.3070074081224092
 30
0.0
 11
18.7886824795118983
 21
-20.2795312745226823
 31
0.0
  0
LINE
  5
19E
100
AcDbEntity
100
AcDbLine
  8
0
 62
256
370
-1
 48
1.0
  6
BYLAYER
 10
24.1232499999999987
 20
-21.547500000000003
 30
0.0
 11
24.1232499999999987
 21
-21.585030002743558
 31
0.0
  0
LINE
  5
19F
100
AcDbEntity
100
AcDbLine
  8
0
 62
256
370
-1
 48
1.0
  6
BYLAYER
 10
24.1232499999999987
 20
-22.547500000000003
 30
0.0
 11
24.1232499999999987
 21
-22.585030002743558
 31
0.0
  0
LINE
  5
1A0
100
AcDbEntity
100
AcDbLine
  8
0
 62
256
370
-1
 48
1.0
  6
BYLAYER
 10
24.1232500000000023
 20
-23.547500000000003
 30
0.0
 11
24.1232500000000023
 21
-23.585030002743558
 31
0.0
  0
LINE
  5
1A1
100
AcDbEntity
100
AcDbLine
  8
0
 62
256
370
-1
 48
1.0
  6
BYLAYER
 10
23.8767500000000013
 20
-21.547500000000003
 30
0.0
 11
23.8767500000000013
 21
-21.5850300062261553
 31
0.0
  0
LINE
  5
1A2
100
AcDbEntity
100
AcDbLine
  8
0
 62
256
370
-1
 48
1.0
  6
BYLAYER
 10
23.8767500000000013
 20
-22.547500000000003
 30
0.0
 11
23.8767500000000013
 21
-22.5850300062261553
 31
0.0
  0
LINE
  5
1A3
100
AcDbEntity
100
AcDbLine
  8
0
 62
256
370
-1
 48
1.0
  6
BYLAYER
 10
23.8767500000000048
 20
-23.547500000000003
 30
0.0
 11
23.8767500000000048
 21
-23.5850300062261553
 31
0.0
  0
LINE
  5
1A4
100
AcDbEntity
100
AcDbLine
  8
0
 62
256
370
-1
 48
1.0
  6
BYLAYER
 10
24.1232499999999987
 20
-21.547500000000003
 30
0.0
 11
23.8767500000000013
 21
-21.547500000000003
 31
0.0
  0
LINE
  5
1A5
100
AcDbEntity
100
AcDbLine
  8
0
 62
256
370
-1
 48
1.0
  6
BYLAYER
 10
24.1232500000000023
 20
-23.547500000000003
 30
0.0
 11
23.8767500000000048
 21
-23.547500000000003
 31
0.0
  0
LINE
  5
1A6
100
AcDbEntity
100
AcDbLine
  8
0
 62
3
420
65280
370
-1
 48
1.0
  6
BYLAYER
 10
24.0538785056415243
 20
-22.547500000000003
 30
0.0
 11
24.053878507045507
 21
-22.419000000000004
 31
0.0
  0
LINE
  5
1A7
100
AcDbEntity
100
AcDbLine
  8
0
 62
3
420
65280
370
-1
 48
1.0
  6
BYLAYER
 10
23.946121507045504
 20
-22.419000000000004
 30
0.0
 11
23.9461215056415249
 21
-22.547500000000003
 31
0.0
  0
CIRCLE
  5
1A8
100
AcDbEntity
100
AcDbCircle
  8
0
 62
3
420
65280
370
-1
 48
1.0
  6
BYLAYER
 10
-24.3954906019172988
 20
-18.6045383889760814
 30
0.0
 40
0.0538784999999979
  0
CIRCLE
  5
1A9
100
AcDbEntity
100
AcDbCircle
  8
0
 62
3
420
65280
370
-1
 48
1.0
  6
BYLAYER
 10
19.6045093980827012
 20
-20.8545383889760778
 30
0.0
 40
0.0538784999999979
  0
CIRCLE
  5
1AA
100
AcDbEntity
100
AcDbCircle
  8
0
 62
3
420
65280
370
-1
 48
1.0
  6
BYLAYER
 10
-25.6044906019172878
 20
-18.6045383889760814
 30
0.0
 40
0.0538784999999962
  0
CIRCLE
  5
1AB
100
AcDbEntity
100
AcDbCircle
  8
0
 62
3
420
65280
370
-1
 48
1.0
  6
BYLAYER
 10
18.3955093980827122
 20
-20.8545383889760778
 30
0.0
 40
0.0538784999999962
  0
CIRCLE
  5
1AC
100
AcDbEntity
100
AcDbCircle
  8
0
 62
3
420
65280
370
-1
 48
1.0
  6
BYLAYER
 10
-24.3954906019172988
 20
-17.3955383889760782
 30
0.0
 40
0.0538784999999962
  0
CIRCLE
  5
1AD
100
AcDbEntity
100
AcDbCircle
  8
0
 62
3
420
65280
370
-1
 48
1.0
  6
BYLAYER
 10
19.6045093980827012
 20
-19.6455383889760746
 30
0.0
 40
0.0538784999999962
  0
CIRCLE
  5
1AE
100
AcDbEntity
100
AcDbCircle
  8
0
 62
3
420
65280
370
-1
 48
1.0
  6
BYLAYER
 10
-25.6044906019172913
 20
-17.3955383889760782
 30
0.0
 40
0.0538784999999962
  0
CIRCLE
  5
1AF
100
AcDbEntity
100
AcDbCircle
  8
0
 62
3
420
65280
370
-1
 48
1.0
  6
BYLAYER
 10
18.3955093980827087
 20
-19.6455383889760746
 30
0.0
 40
0.0538784999999962
  0
CIRCLE
  5
1B0
100
AcDbEntity
100
AcDbCircle
  8
0
 62
14
420
8388608
370
-1
 48
1.0
  6
BYLAYER
 10
-25.0
 20
-18.0
 30
0.0
 40
0.438763036903433
  0
CIRCLE
  5
1B1
100
AcDbEntity
100
AcDbCircle
  8
0
 62
3
420
65280
370
-1
 48
1.0
  6
BYLAYER
 10
19.0
 20
-20.2499999999999964
 30
0.0
 40
0.438763036903433
  0
MTEXT
  5
1B2
100
AcDbEntity
100
AcDbMText
  8
0
 62
256
370
-1
 48
1.0
  6
BYLAYER
 10
-20.0
 20
-20.0
 30
0.0
 40
0.3
 41
0.0
 71
5
 72
1
  1
Plate-width 4.53 inches\P\PScrew to under head 6 inches\PSquare nut .255 in
  7
textstyle0
 50
0.0
 73
2
 44
1.0
  0
LINE
  5
1B3
100
AcDbEntity
100
AcDbLine
  8
0
 62
256
370
-1
 48
1.0
  6
BYLAYER
 10
-26.2650000000000006
 20
-9.75
 30
0.0
 11
-21.7349999999999994
 21
-9.75
 31
0.0
  0
LINE
  5
1B4
100
AcDbEntity
100
AcDbLine
  8
0
 62
256
370
-1
 48
1.0
  6
BYLAYER
 10
-27.2649906019172938
 20
-18.7500383889760798
 30
0.0
 11
-22.7349906019172927
 21
-18.7500383889760798
 31
0.0
  0
LINE
  5
1B5
100
AcDbEntity
100
AcDbLine
  8
0
 62
256
370
-1
 48
1.0
  6
BYLAYER
 10
-26.2650000000000006
 20
-0.75
 30
0.0
 11
-21.7349999999999994
 21
-0.75
 31
0.0
  0
LINE
  5
1B6
100
AcDbEntity
100
AcDbLine
  8
0
 62
256
370
-1
 48
1.0
  6
BYLAYER
 10
-26.2650000000000006
 20
-8.25
 30
0.0
 11
-21.7349999999999994
 21
-8.25
 31
0.0
  0
LINE
  5
1B7
100
AcDbEntity
100
AcDbLine
  8
0
 62
256
370
-1
 48
1.0
  6
BYLAYER
 10
-27.2649906019172938
 20
-17.2500383889760798
 30
0.0
 11
-22.7349906019172927
 21
-17.2500383889760798
 31
0.0
  0
LINE
  5
1B8
100
AcDbEntity
100
AcDbLine
  8
0
 62
256
370
-1
 48
1.0
  6
BYLAYER
 10
-26.2650000000000006
 20
0.75
 30
0.0
 11
-21.7349999999999994
 21
0.75
 31
0.0
  0
LINE
  5
1B9
100
AcDbEntity
100
AcDbLine
  8
0
 62
256
370
-1
 48
1.0
  6
BYLAYER
 10
-21.7349999999999994
 20
-9.75
 30
0.0
 11
-21.7349999999999994
 21
-8.25
 31
0.0
  0
LINE
  5
1BA
100
AcDbEntity
100
AcDbLine
  8
0
 62
256
370
-1
 48
1.0
  6
BYLAYER
 10
-22.7349906019172927
 20
-18.7500383889760798
 30
0.0
 11
-22.7349906019172927
 21
-17.2500383889760798
 31
0.0
  0
LINE
  5
1BB
100
AcDbEntity
100
AcDbLine
  8
0
 62
256
370
-1
 48
1.0
  6
BYLAYER
 10
-21.7349999999999994
 20
-0.75
 30
0.0
 11
-21.7349999999999994
 21
0.75
 31
0.0
  0
LINE
  5
1BC
100
AcDbEntity
100
AcDbLine
  8
0
 62
256
370
-1
 48
1.0
  6
BYLAYER
 10
-26.2650000000000006
 20
-9.75
 30
0.0
 11
-26.2650000000000006
 21
-8.25
 31
0.0
  0
LINE
  5
1BD
100
AcDbEntity
100
AcDbLine
  8
0
 62
256
370
-1
 48
1.0
  6
BYLAYER
 10
-27.2649906019172938
 20
-18.7500383889760798
 30
0.0
 11
-27.2649906019172938
 21
-17.2500383889760798
 31
0.0
  0
LINE
  5
1BE
100
AcDbEntity
100
AcDbLine
  8
0
 62
256
370
-1
 48
1.0
  6
BYLAYER
 10
-26.2650000000000006
 20
-0.75
 30
0.0
 11
-26.2650000000000006
 21
0.75
 31
0.0
  0
LINE
  5
1BF
100
AcDbEntity
100
AcDbLine
  8
0
 62
1
420
16711680
370
-1
 48
1.0
  6
BYLAYER
 10
18.7882396931405538
 20
-20.276167978121471
 30
0.0
 11
18.7475544605178435
 21
-20.2586241667010363
 31
0.0
  0
LINE
  5
1C0
100
AcDbEntity
100
AcDbLine
  8
0
 62
1
420
16711680
370
-1
 48
1.0
  6
BYLAYER
 10
-25.2117603068594462
 20
-18.0261679781214745
 30
0.0
 11
-25.2524455394821565
 21
-18.0086241667010398
 31
0.0
  0
CIRCLE
  5
1C1
100
AcDbEntity
100
AcDbCircle
  8
0
 62
4
420
65535
370
-1
 48
1.0
  6
BYLAYER
 10
-25.0
 20
-18.0000000000000036
 30
0.0
 40
0.0999999999999996
  0
CIRCLE
  5
1C2
100
AcDbEntity
100
AcDbCircle
  8
0
 62
4
420
65535
370
-1
 48
1.0
  6
BYLAYER
 10
19.0
 20
-20.25
 30
0.0
 40
0.0999999999999996
  0
LINE
  5
1C3
100
AcDbEntity
100
AcDbLine
  8
0
 62
1
420
16711680
370
-1
 48
1.0
  6
BYLAYER
 10
-25.2524455394821565
 20
-18.0086241667010398
 30
0.0
 11
-25.2524455394821565
 21
-17.9913758332989673
 31
0.0
  0
LINE
  5
1C4
100
AcDbEntity
100
AcDbLine
  8
0
 62
1
420
16711680
370
-1
 48
1.0
  6
BYLAYER
 10
18.7475544605178435
 20
-20.2586241667010363
 30
0.0
 11
18.7475544605178435
 21
-20.2413758332989637
 31
0.0
  0
LINE
  5
1C5
100
AcDbEntity
100
AcDbLine
  8
0
 62
1
420
16711680
370
-1
 48
1.0
  6
BYLAYER
 10
-25.2460757649076584
 20
-17.9429925918775908
 30
0.0
 11
-25.2416115677269239
 21
-17.9263319811840844
 31
0.0
  0
LINE
  5
1C6
100
AcDbEntity
100
AcDbLine
  8
0
 62
1
420
16711680
370
-1
 48
1.0
  6
BYLAYER
 10
18.7539242350923416
 20
-20.1929925918775872
 30
0.0
 11
18.7583884322730761
 21
-20.1763319811840809
 31
0.0
  0
LINE
  5
1C7
100
AcDbEntity
100
AcDbLine
  8
0
 62
1
420
16711680
370
-1
 48
1.0
  6
BYLAYER
 10
-25.2229363336141326
 20
-17.8812459777084918
 30
0.0
 11
-25.2143121669130963
 21
-17.8663084828093552
 31
0.0
  0
LINE
  5
1C8
100
AcDbEntity
100
AcDbLine
  8
0
 62
1
420
16711680
370
-1
 48
1.0
  6
BYLAYER
 10
18.7770636663858674
 20
-20.1312459777084882
 30
0.0
 11
18.7856878330869037
 21
-20.1163084828093517
 31
0.0
  0
LINE
  5
1C9
100
AcDbEntity
100
AcDbLine
  8
0
 62
1
420
16711680
370
-1
 48
1.0
  6
BYLAYER
 10
-25.1846041596045147
 20
-17.8275922539082572
 30
0.0
 11
-25.1724077460917428
 21
-17.8153958403954888
 31
0.0
  0
LINE
  5
1CA
100
AcDbEntity
100
AcDbLine
  8
0
 62
1
420
16711680
370
-1
 48
1.0
  6
BYLAYER
 10
18.8153958403954853
 20
-20.0775922539082536
 30
0.0
 11
18.8275922539082572
 21
-20.0653958403954853
 31
0.0
  0
LINE
  5
1CB
100
AcDbEntity
100
AcDbLine
  8
0
 62
1
420
16711680
370
-1
 48
1.0
  6
BYLAYER
 10
-25.1336915171906483
 20
-17.7856878330869037
 30
0.0
 11
-25.1187540222915118
 21
-17.777063666385871
 31
0.0
  0
LINE
  5
1CC
100
AcDbEntity
100
AcDbLine
  8
0
 62
1
420
16711680
370
-1
 48
1.0
  6
BYLAYER
 10
18.8663084828093517
 20
-20.0356878330869002
 30
0.0
 11
18.8812459777084882
 21
-20.0270636663858674
 31
0.0
  0
LINE
  5
1CD
100
AcDbEntity
100
AcDbLine
  8
0
 62
1
420
16711680
370
-1
 48
1.0
  6
BYLAYER
 10
-25.0736680188159156
 20
-17.7583884322730796
 30
0.0
 11
-25.0570074081224092
 21
-17.7539242350923416
 31
0.0
  0
LINE
  5
1CE
100
AcDbEntity
100
AcDbLine
  8
0
 62
1
420
16711680
370
-1
 48
1.0
  6
BYLAYER
 10
18.9263319811840844
 20
-20.0083884322730761
 30
0.0
 11
18.9429925918775908
 21
-20.0039242350923381
 31
0.0
  0
LINE
  5
1CF
100
AcDbEntity
100
AcDbLine
  8
0
 62
1
420
16711680
370
-1
 48
1.0
  6
BYLAYER
 10
-25.0086241667010363
 20
-17.747554460517847
 30
0.0
 11
-24.9913758332989637
 21
-17.747554460517847
 31
0.0
  0
LINE
  5
1D0
100
AcDbEntity
100
AcDbLine
  8
0
 62
1
420
16711680
370
-1
 48
1.0
  6
BYLAYER
 10
18.9913758332989637
 20
-19.9975544605178435
 30
0.0
 11
19.0086241667010363
 21
-19.9975544605178435
 31
0.0
  0
LINE
  5
1D1
100
AcDbEntity
100
AcDbLine
  8
0
 62
1
420
16711680
370
-1
 48
1.0
  6
BYLAYER
 10
-24.9429925918775908
 20
-17.7539242350923416
 30
0.0
 11
-24.9263319811840844
 21
-17.7583884322730796
 31
0.0
  0
LINE
  5
1D2
100
AcDbEntity
100
AcDbLine
  8
0
 62
1
420
16711680
370
-1
 48
1.0
  6
BYLAYER
 10
19.0570074081224092
 20
-20.0039242350923381
 30
0.0
 11
19.0736680188159156
 21
-20.0083884322730761
 31
0.0
  0
LINE
  5
1D3
100
AcDbEntity
100
AcDbLine
  8
0
 62
1
420
16711680
370
-1
 48
1.0
  6
BYLAYER
 10
-24.8812459777084882
 20
-17.777063666385871
 30
0.0
 11
-24.8663084828093517
 21
-17.7856878330869037
 31
0.0
  0
LINE
  5
1D4
100
AcDbEntity
100
AcDbLine
  8
0
 62
1
420
16711680
370
-1
 48
1.0
  6
BYLAYER
 10
19.1187540222915118
 20
-20.0270636663858674
 30
0.0
 11
19.1336915171906483
 21
-20.0356878330869002
 31
0.0
  0
LINE
  5
1D5
100
AcDbEntity
100
AcDbLine
  8
0
 62
1
420
16711680
370
-1
 48
1.0
  6
BYLAYER
 10
-24.8275922539082572
 20
-17.8153958403954888
 30
0.0
 11
-24.8153958403954853
 21
-17.8275922539082572
 31
0.0
  0
LINE
  5
1D6
100
AcDbEntity
100
AcDbLine
  8
0
 62
1
420
16711680
370
-1
 48
1.0
  6
BYLAYER
 10
19.1724077460917428
 20
-20.0653958403954853
 30
0.0
 11
19.1846041596045147
 21
-20.0775922539082536
 31
0.0
  0
LINE
  5
1D7
100
AcDbEntity
100
AcDbLine
  8
0
 62
1
420
16711680
370
-1
 48
1.0
  6
BYLAYER
 10
-24.7856878330869037
 20
-17.8663084828093552
 30
0.0
 11
-24.7770636663858674
 21
-17.8812459777084918
 31
0.0
  0
LINE
  5
1D8
100
AcDbEntity
100
AcDbLine
  8
0
 62
1
420
16711680
370
-1
 48
1.0
  6
BYLAYER
 10
19.2143121669130963
 20
-20.1163084828093517
 30
0.0
 11
19.2229363336141326
 21
-20.1312459777084882
 31
0.0
  0
LINE
  5
1D9
100
AcDbEntity
100
AcDbLine
  8
0
 62
1
420
16711680
370
-1
 48
1.0
  6
BYLAYER
 10
-24.7583884322730761
 20
-17.9263319811840844
 30
0.0
 11
-24.7539242350923416
 21
-17.9429925918775908
 31
0.0
  0
LINE
  5
1DA
100
AcDbEntity
100
AcDbLine
  8
0
 62
1
420
16711680
370
-1
 48
1.0
  6
BYLAYER
 10
19.2416115677269239
 20
-20.1763319811840809
 30
0.0
 11
19.2460757649076584
 21
-20.1929925918775872
 31
0.0
  0
LINE
  5
1DB
100
AcDbEntity
100
AcDbLine
  8
0
 62
1
420
16711680
370
-1
 48
1.0
  6
BYLAYER
 10
-24.7475544605178435
 20
-17.9913758332989673
 30
0.0
 11
-24.7475544605178435
 21
-18.0086241667010398
 31
0.0
  0
LINE
  5
1DC
100
AcDbEntity
100
AcDbLine
  8
0
 62
1
420
16711680
370
-1
 48
1.0
  6
BYLAYER
 10
19.2524455394821565
 20
-20.2413758332989637
 30
0.0
 11
19.2524455394821565
 21
-20.2586241667010363
 31
0.0
  0
LINE
  5
1DD
100
AcDbEntity
100
AcDbLine
  8
0
 62
1
420
16711680
370
-1
 48
1.0
  6
BYLAYER
 10
-24.7539242350923416
 20
-18.0570074081224128
 30
0.0
 11
-24.7583884322730761
 21
-18.0736680188159191
 31
0.0
  0
LINE
  5
1DE
100
AcDbEntity
100
AcDbLine
  8
0
 62
1
420
16711680
370
-1
 48
1.0
  6
BYLAYER
 10
19.2460757649076584
 20
-20.3070074081224092
 30
0.0
 11
19.2416115677269239
 21
-20.3236680188159156
 31
0.0
  0
LINE
  5
1DF
100
AcDbEntity
100
AcDbLine
  8
0
 62
1
420
16711680
370
-1
 48
1.0
  6
BYLAYER
 10
-24.7770636663858674
 20
-18.1187540222915118
 30
0.0
 11
-24.7856878330869037
 21
-18.1336915171906483
 31
0.0
  0
LINE
  5
1E0
100
AcDbEntity
100
AcDbLine
  8
0
 62
1
420
16711680
370
-1
 48
1.0
  6
BYLAYER
 10
19.2229363336141326
 20
-20.3687540222915082
 30
0.0
 11
19.2143121669130963
 21
-20.3836915171906448
 31
0.0
  0
LINE
  5
1E1
100
AcDbEntity
100
AcDbLine
  8
0
 62
1
420
16711680
370
-1
 48
1.0
  6
BYLAYER
 10
-24.8153958403954853
 20
-18.1724077460917464
 30
0.0
 11
-24.8275922539082572
 21
-18.1846041596045183
 31
0.0
  0
LINE
  5
1E2
100
AcDbEntity
100
AcDbLine
  8
0
 62
1
420
16711680
370
-1
 48
1.0
  6
BYLAYER
 10
19.1846041596045147
 20
-20.4224077460917428
 30
0.0
 11
19.1724077460917428
 21
-20.4346041596045147
 31
0.0
  0
LINE
  5
1E3
100
AcDbEntity
100
AcDbLine
  8
0
 62
1
420
16711680
370
-1
 48
1.0
  6
BYLAYER
 10
-24.8663084828093517
 20
-18.2143121669130998
 30
0.0
 11
-24.8812459777084882
 21
-18.2229363336141361
 31
0.0
  0
LINE
  5
1E4
100
AcDbEntity
100
AcDbLine
  8
0
 62
1
420
16711680
370
-1
 48
1.0
  6
BYLAYER
 10
19.1336915171906483
 20
-20.4643121669130963
 30
0.0
 11
19.1187540222915118
 21
-20.4729363336141326
 31
0.0
  0
LINE
  5
1E5
100
AcDbEntity
100
AcDbLine
  8
0
 62
1
420
16711680
370
-1
 48
1.0
  6
BYLAYER
 10
-24.9263319811840844
 20
-18.2416115677269275
 30
0.0
 11
-24.9429925918775908
 21
-18.2460757649076619
 31
0.0
  0
LINE
  5
1E6
100
AcDbEntity
100
AcDbLine
  8
0
 62
1
420
16711680
370
-1
 48
1.0
  6
BYLAYER
 10
19.0736680188159156
 20
-20.4916115677269239
 30
0.0
 11
19.0570074081224092
 21
-20.4960757649076584
 31
0.0
  0
LINE
  5
1E7
100
AcDbEntity
100
AcDbLine
  8
0
 62
1
420
16711680
370
-1
 48
1.0
  6
BYLAYER
 10
-24.9913758332989637
 20
-18.2524455394821601
 30
0.0
 11
-25.0086241667010363
 21
-18.2524455394821601
 31
0.0
  0
LINE
  5
1E8
100
AcDbEntity
100
AcDbLine
  8
0
 62
1
420
16711680
370
-1
 48
1.0
  6
BYLAYER
 10
19.0086241667010363
 20
-20.5024455394821565
 30
0.0
 11
18.9913758332989637
 21
-20.5024455394821565
 31
0.0
  0
LINE
  5
1E9
100
AcDbEntity
100
AcDbLine
  8
0
 62
1
420
16711680
370
-1
 48
1.0
  6
BYLAYER
 10
-25.0570074081224092
 20
-18.2460757649076619
 30
0.0
 11
-25.0736680188159156
 21
-18.2416115677269275
 31
0.0
  0
LINE
  5
1EA
100
AcDbEntity
100
AcDbLine
  8
0
 62
1
420
16711680
370
-1
 48
1.0
  6
BYLAYER
 10
18.9429925918775908
 20
-20.4960757649076584
 30
0.0
 11
18.9263319811840844
 21
-20.4916115677269239
 31
0.0
  0
LINE
  5
1EB
100
AcDbEntity
100
AcDbLine
  8
0
 62
1
420
16711680
370
-1
 48
1.0
  6
BYLAYER
 10
-25.1187540222915118
 20
-18.2229363336141361
 30
0.0
 11
-25.1336915171906483
 21
-18.2143121669130998
 31
0.0
  0
LINE
  5
1EC
100
AcDbEntity
100
AcDbLine
  8
0
 62
1
420
16711680
370
-1
 48
1.0
  6
BYLAYER
 10
18.8812459777084882
 20
-20.4729363336141326
 30
0.0
 11
18.8663084828093517
 21
-20.4643121669130963
 31
0.0
  0
LINE
  5
1ED
100
AcDbEntity
100
AcDbLine
  8
0
 62
1
420
16711680
370
-1
 48
1.0
  6
BYLAYER
 10
-25.1724077460917428
 20
-18.1846041596045183
 30
0.0
 11
-25.1846041596045147
 21
-18.1724077460917464
 31
0.0
  0
LINE
  5
1EE
100
AcDbEntity
100
AcDbLine
  8
0
 62
1
420
16711680
370
-1
 48
1.0
  6
BYLAYER
 10
18.8275922539082572
 20
-20.4346041596045147
 30
0.0
 11
18.8153958403954853
 21
-20.4224077460917428
 31
0.0
  0
LINE
  5
1EF
100
AcDbEntity
100
AcDbLine
  8
0
 62
1
420
16711680
370
-1
 48
1.0
  6
BYLAYER
 10
-25.2143121669130963
 20
-18.1336915171906483
 30
0.0
 11
-25.2229363336141326
 21
-18.1187540222915118
 31
0.0
  0
LINE
  5
1F0
100
AcDbEntity
100
AcDbLine
  8
0
 62
1
420
16711680
370
-1
 48
1.0
  6
BYLAYER
 10
18.7856878330869037
 20
-20.3836915171906448
 30
0.0
 11
18.7770636663858674
 21
-20.3687540222915082
 31
0.0
  0
LINE
  5
1F1
100
AcDbEntity
100
AcDbLine
  8
0
 62
1
420
16711680
370
-1
 48
1.0
  6
BYLAYER
 10
-25.2416115677269239
 20
-18.0736680188159191
 30
0.0
 11
-25.2460757649076584
 21
-18.0570074081224128
 31
0.0
  0
LINE
  5
1F2
100
AcDbEntity
100
AcDbLine
  8
0
 62
1
420
16711680
370
-1
 48
1.0
  6
BYLAYER
 10
18.7583884322730761
 20
-20.3236680188159156
 30
0.0
 11
18.7539242350923416
 21
-20.3070074081224092
 31
0.0
  0
LINE
  5
1F3
100
AcDbEntity
100
AcDbLine
  8
0
 62
1
420
16711680
370
-1
 48
1.0
  6
BYLAYER
 10
-25.1977719782687757
 20
-17.919916073698726
 30
0.0
 11
-25.1964737943142012
 21
-17.9167819803891462
 31
0.0
  0
LINE
  5
1F4
100
AcDbEntity
100
AcDbLine
  8
0
 62
1
420
16711680
370
-1
 48
1.0
  6
BYLAYER
 10
18.8022280217312243
 20
-20.1699160736987224
 30
0.0
 11
18.8035262056857988
 21
-20.1667819803891426
 31
0.0
  0
LINE
  5
1F5
100
AcDbEntity
100
AcDbLine
  8
0
 62
1
420
16711680
370
-1
 48
1.0
  6
BYLAYER
 10
-25.1703058161927302
 20
-17.8714577127514076
 30
0.0
 11
-25.1682407037460933
 21
-17.8687664058131759
 31
0.0
  0
LINE
  5
1F6
100
AcDbEntity
100
AcDbLine
  8
0
 62
1
420
16711680
370
-1
 48
1.0
  6
BYLAYER
 10
18.8296941838072698
 20
-20.121457712751404
 30
0.0
 11
18.8317592962539067
 21
-20.1187664058131723
 31
0.0
  0
LINE
  5
1F7
100
AcDbEntity
100
AcDbLine
  8
0
 62
1
420
16711680
370
-1
 48
1.0
  6
BYLAYER
 10
-25.1312335941868241
 20
-17.8317592962539067
 30
0.0
 11
-25.1285422872485924
 21
-17.8296941838072698
 31
0.0
  0
LINE
  5
1F8
100
AcDbEntity
100
AcDbLine
  8
0
 62
1
420
16711680
370
-1
 48
1.0
  6
BYLAYER
 10
18.8687664058131759
 20
-20.0817592962539031
 30
0.0
 11
18.8714577127514076
 21
-20.0796941838072662
 31
0.0
  0
LINE
  5
1F9
100
AcDbEntity
100
AcDbLine
  8
0
 62
1
420
16711680
370
-1
 48
1.0
  6
BYLAYER
 10
-25.0832180196108538
 20
-17.8035262056857952
 30
0.0
 11
-25.080083926301274
 21
-17.8022280217312243
 31
0.0
  0
LINE
  5
1FA
100
AcDbEntity
100
AcDbLine
  8
0
 62
1
420
16711680
370
-1
 48
1.0
  6
BYLAYER
 10
18.9167819803891462
 20
-20.0535262056857917
 30
0.0
 11
18.919916073698726
 21
-20.0522280217312208
 31
0.0
  0
LINE
  5
1FB
100
AcDbEntity
100
AcDbLine
  8
0
 62
1
420
16711680
370
-1
 48
1.0
  6
BYLAYER
 10
-25.0295312745226788
 20
-17.7886824795118983
 30
0.0
 11
-25.026167978121471
 21
-17.7882396931405538
 31
0.0
  0
LINE
  5
1FC
100
AcDbEntity
100
AcDbLine
  8
0
 62
1
420
16711680
370
-1
 48
1.0
  6
BYLAYER
 10
18.9704687254773212
 20
-20.0386824795118947
 30
0.0
 11
18.973832021878529
 21
-20.0382396931405502
 31
0.0
  0
LINE
  5
1FD
100
AcDbEntity
100
AcDbLine
  8
0
 62
1
420
16711680
370
-1
 48
1.0
  6
BYLAYER
 10
-24.9738320218785255
 20
-17.7882396931405538
 30
0.0
 11
-24.9704687254773141
 21
-17.7886824795118983
 31
0.0
  0
LINE
  5
1FE
100
AcDbEntity
100
AcDbLine
  8
0
 62
1
420
16711680
370
-1
 48
1.0
  6
BYLAYER
 10
19.0261679781214745
 20
-20.0382396931405502
 30
0.0
 11
19.0295312745226859
 21
-20.0386824795118947
 31
0.0
  0
LINE
  5
1FF
100
AcDbEntity
100
AcDbLine
  8
0
 62
1
420
16711680
370
-1
 48
1.0
  6
BYLAYER
 10
-24.9199160736987224
 20
-17.8022280217312243
 30
0.0
 11
-24.9167819803891426
 21
-17.8035262056857952
 31
0.0
  0
LINE
  5
200
100
AcDbEntity
100
AcDbLine
  8
0
 62
1
420
16711680
370
-1
 48
1.0
  6
BYLAYER
 10
19.0800839263012776
 20
-20.0522280217312208
 30
0.0
 11
19.0832180196108574
 21
-20.0535262056857917
 31
0.0
  0
LINE
  5
201
100
AcDbEntity
100
AcDbLine
  8
0
 62
1
420
16711680
370
-1
 48
1.0
  6
BYLAYER
 10
-24.8714577127514005
 20
-17.8296941838072662
 30
0.0
 11
-24.8687664058131688
 21
-17.8317592962539067
 31
0.0
  0
LINE
  5
202
100
AcDbEntity
100
AcDbLine
  8
0
 62
1
420
16711680
370
-1
 48
1.0
  6
BYLAYER
 10
19.1285422872485995
 20
-20.0796941838072627
 30
0.0
 11
19.1312335941868312
 21
-20.0817592962539031
 31
0.0
  0
LINE
  5
203
100
AcDbEntity
100
AcDbLine
  8
0
 62
1
420
16711680
370
-1
 48
1.0
  6
BYLAYER
 10
-24.8317592962538995
 20
-17.8687664058131759
 30
0.0
 11
-24.8296941838072627
 21
-17.8714577127514076
 31
0.0
  0
LINE
  5
204
100
AcDbEntity
100
AcDbLine
  8
0
 62
1
420
16711680
370
-1
 48
1.0
  6
BYLAYER
 10
19.1682407037461005
 20
-20.1187664058131723
 30
0.0
 11
19.1703058161927373
 21
-20.121457712751404
 31
0.0
  0
LINE
  5
205
100
AcDbEntity
100
AcDbLine
  8
0
 62
1
420
16711680
370
-1
 48
1.0
  6
BYLAYER
 10
-24.8035262056857917
 20
-17.9167819803891462
 30
0.0
 11
-24.8022280217312172
 21
-17.919916073698726
 31
0.0
  0
LINE
  5
206
100
AcDbEntity
100
AcDbLine
  8
0
 62
1
420
16711680
370
-1
 48
1.0
  6
BYLAYER
 10
19.1964737943142083
 20
-20.1667819803891426
 30
0.0
 11
19.1977719782687828
 21
-20.1699160736987224
 31
0.0
  0
LINE
  5
207
100
AcDbEntity
100
AcDbLine
  8
0
 62
1
420
16711680
370
-1
 48
1.0
  6
BYLAYER
 10
-24.7886824795118912
 20
-17.9704687254773177
 30
0.0
 11
-24.7882396931405466
 21
-17.973832021878529
 31
0.0
  0
LINE
  5
208
100
AcDbEntity
100
AcDbLine
  8
0
 62
1
420
16711680
370
-1
 48
1.0
  6
BYLAYER
 10
19.2113175204881088
 20
-20.2204687254773141
 30
0.0
 11
19.2117603068594534
 21
-20.2238320218785255
 31
0.0
  0
LINE
  5
209
100
AcDbEntity
100
AcDbLine
  8
0
 62
1
420
16711680
370
-1
 48
1.0
  6
BYLAYER
 10
-24.7882396931405466
 20
-18.0261679781214745
 30
0.0
 11
-24.7886824795118912
 21
-18.0295312745226859
 31
0.0
  0
LINE
  5
20A
100
AcDbEntity
100
AcDbLine
  8
0
 62
1
420
16711680
370
-1
 48
1.0
  6
BYLAYER
 10
19.2117603068594534
 20
-20.276167978121471
 30
0.0
 11
19.2113175204881088
 21
-20.2795312745226823
 31
0.0
  0
LINE
  5
20B
100
AcDbEntity
100
AcDbLine
  8
0
 62
1
420
16711680
370
-1
 48
1.0
  6
BYLAYER
 10
-24.8022280217312172
 20
-18.0800839263012776
 30
0.0
 11
-24.8035262056857881
 21
-18.0832180196108574
 31
0.0
  0
LINE
  5
20C
100
AcDbEntity
100
AcDbLine
  8
0
 62
1
420
16711680
370
-1
 48
1.0
  6
BYLAYER
 10
19.1977719782687828
 20
-20.330083926301274
 30
0.0
 11
19.1964737943142119
 21
-20.3332180196108538
 31
0.0
  0
LINE
  5
20D
100
AcDbEntity
100
AcDbLine
  8
0
 62
1
420
16711680
370
-1
 48
1.0
  6
BYLAYER
 10
-24.8296941838072627
 20
-18.128542287248596
 30
0.0
 11
-24.8317592962538995
 21
-18.1312335941868312
 31
0.0
  0
LINE
  5
20E
100
AcDbEntity
100
AcDbLine
  8
0
 62
1
420
16711680
370
-1
 48
1.0
  6
BYLAYER
 10
19.1703058161927373
 20
-20.3785422872485924
 30
0.0
 11
19.1682407037461005
 21
-20.3812335941868277
 31
0.0
  0
LINE
  5
20F
100
AcDbEntity
100
AcDbLine
  8
0
 62
1
420
16711680
370
-1
 48
1.0
  6
BYLAYER
 10
-24.8687664058131688
 20
-18.1682407037460969
 30
0.0
 11
-24.8714577127514005
 21
-18.1703058161927373
 31
0.0
  0
LINE
  5
210
100
AcDbEntity
100
AcDbLine
  8
0
 62
1
420
16711680
370
-1
 48
1.0
  6
BYLAYER
 10
19.1312335941868312
 20
-20.4182407037460933
 30
0.0
 11
19.1285422872485995
 21
-20.4203058161927338
 31
0.0
  0
LINE
  5
211
100
AcDbEntity
100
AcDbLine
  8
0
 62
1
420
16711680
370
-1
 48
1.0
  6
BYLAYER
 10
-24.9167819803891391
 20
-18.1964737943142119
 30
0.0
 11
-24.9199160736987189
 21
-18.1977719782687792
 31
0.0
  0
LINE
  5
212
100
AcDbEntity
100
AcDbLine
  8
0
 62
1
420
16711680
370
-1
 48
1.0
  6
BYLAYER
 10
19.0832180196108609
 20
-20.4464737943142083
 30
0.0
 11
19.0800839263012811
 21
-20.4477719782687757
 31
0.0
  0
LINE
  5
213
100
AcDbEntity
100
AcDbLine
  8
0
 62
1
420
16711680
370
-1
 48
1.0
  6
BYLAYER
 10
-24.9704687254773141
 20
-18.2113175204881053
 30
0.0
 11
-24.9738320218785219
 21
-18.2117603068594534
 31
0.0
  0
LINE
  5
214
100
AcDbEntity
100
AcDbLine
  8
0
 62
1
420
16711680
370
-1
 48
1.0
  6
BYLAYER
 10
19.0295312745226859
 20
-20.4613175204881017
 30
0.0
 11
19.0261679781214781
 21
-20.4617603068594498
 31
0.0
  0
LINE
  5
215
100
AcDbEntity
100
AcDbLine
  8
0
 62
1
420
16711680
370
-1
 48
1.0
  6
BYLAYER
 10
-25.0261679781214674
 20
-18.2117603068594534
 30
0.0
 11
-25.0295312745226788
 21
-18.2113175204881053
 31
0.0
  0
LINE
  5
216
100
AcDbEntity
100
AcDbLine
  8
0
 62
1
420
16711680
370
-1
 48
1.0
  6
BYLAYER
 10
18.9738320218785326
 20
-20.4617603068594498
 30
0.0
 11
18.9704687254773212
 21
-20.4613175204881017
 31
0.0
  0
LINE
  5
217
100
AcDbEntity
100
AcDbLine
  8
0
 62
1
420
16711680
370
-1
 48
1.0
  6
BYLAYER
 10
-25.0800839263012705
 20
-18.1977719782687828
 30
0.0
 11
-25.0832180196108503
 21
-18.1964737943142119
 31
0.0
  0
LINE
  5
218
100
AcDbEntity
100
AcDbLine
  8
0
 62
1
420
16711680
370
-1
 48
1.0
  6
BYLAYER
 10
18.9199160736987295
 20
-20.4477719782687792
 30
0.0
 11
18.9167819803891497
 21
-20.4464737943142083
 31
0.0
  0
LINE
  5
219
100
AcDbEntity
100
AcDbLine
  8
0
 62
1
420
16711680
370
-1
 48
1.0
  6
BYLAYER
 10
-25.1285422872485924
 20
-18.1703058161927373
 30
0.0
 11
-25.1312335941868241
 21
-18.1682407037460969
 31
0.0
  0
LINE
  5
21A
100
AcDbEntity
100
AcDbLine
  8
0
 62
1
420
16711680
370
-1
 48
1.0
  6
BYLAYER
 10
18.8714577127514076
 20
-20.4203058161927338
 30
0.0
 11
18.8687664058131759
 21
-20.4182407037460933
 31
0.0
  0
LINE
  5
21B
100
AcDbEntity
100
AcDbLine
  8
0
 62
1
420
16711680
370
-1
 48
1.0
  6
BYLAYER
 10
-25.1682407037460933
 20
-18.1312335941868312
 30
0.0
 11
-25.1703058161927302
 21
-18.1285422872485995
 31
0.0
  0
LINE
  5
21C
100
AcDbEntity
100
AcDbLine
  8
0
 62
1
420
16711680
370
-1
 48
1.0
  6
BYLAYER
 10
18.8317592962539067
 20
-20.3812335941868277
 30
0.0
 11
18.8296941838072698
 21
-20.378542287248596
 31
0.0
  0
LINE
  5
21D
100
AcDbEntity
100
AcDbLine
  8
0
 62
1
420
16711680
370
-1
 48
1.0
  6
BYLAYER
 10
-25.1964737943142012
 20
-18.0832180196108574
 30
0.0
 11
-25.1977719782687757
 21
-18.0800839263012811
 31
0.0
  0
LINE
  5
21E
100
AcDbEntity
100
AcDbLine
  8
0
 62
1
420
16711680
370
-1
 48
1.0
  6
BYLAYER
 10
18.8035262056857988
 20
-20.3332180196108538
 30
0.0
 11
18.8022280217312243
 21
-20.3300839263012776
 31
0.0
  0
LINE
  5
21F
100
AcDbEntity
100
AcDbLine
  8
0
 62
1
420
16711680
370
-1
 48
1.0
  6
BYLAYER
 10
-25.2113175204881017
 20
-18.0295312745226859
 30
0.0
 11
-25.2117603068594462
 21
-18.0261679781214745
 31
0.0
  0
LINE
  5
220
100
AcDbEntity
100
AcDbLine
  8
0
 62
1
420
16711680
370
-1
 48
1.0
  6
BYLAYER
 10
18.7886824795118983
 20
-20.2795312745226823
 30
0.0
 11
18.7882396931405538
 21
-20.276167978121471
 31
0.0
  0
LINE
  5
221
100
AcDbEntity
100
AcDbLine
  8
0
 62
1
420
16711680
370
-1
 48
1.0
  6
BYLAYER
 10
-25.2117603068594462
 20
-17.973832021878529
 30
0.0
 11
-25.2113175204881017
 21
-17.9704687254773212
 31
0.0
  0
LINE
  5
222
100
AcDbEntity
100
AcDbLine
  8
0
 62
1
420
16711680
370
-1
 48
1.0
  6
BYLAYER
 10
18.7882396931405538
 20
-20.2238320218785255
 30
0.0
 11
18.7886824795118983
 21
-20.2204687254773177
 31
0.0
  0
CIRCLE
  5
223
100
AcDbEntity
100
AcDbCircle
  8
0
 62
6
420
16711935
370
-1
 48
1.0
  6
BYLAYER
 10
-25.0
 20
-18.0
 30
0.0
 40
0.0557499999999997
  0
CIRCLE
  5
224
100
AcDbEntity
100
AcDbCircle
  8
0
 62
6
420
16711935
370
-1
 48
1.0
  6
BYLAYER
 10
19.0
 20
-20.2499999999999964
 30
0.0
 40
0.0557499999999997
  0
LINE
  5
225
100
AcDbEntity
100
AcDbLine
  8
0
 62
3
420
65280
370
-1
 48
1.0
  6
BYLAYER
 10
23.8725000000000023
 20
-25.3725000000000023
 30
0.0
 11
24.1275000000000013
 21
-25.3725000000000023
 31
0.0
  0
LINE
  5
226
100
AcDbEntity
100
AcDbLine
  8
0
 62
3
420
65280
370
-1
 48
1.0
  6
BYLAYER
 10
23.8725000000000023
 20
-25.6275000000000013
 30
0.0
 11
24.1275000000000013
 21
-25.6275000000000013
 31
0.0
  0
LINE
  5
227
100
AcDbEntity
100
AcDbLine
  8
0
 62
3
420
65280
370
-1
 48
1.0
  6
BYLAYER
 10
24.1275000000000013
 20
-25.6275000000000013
 30
0.0
 11
24.1275000000000013
 21
-25.3725000000000023
 31
0.0
  0
LINE
  5
228
100
AcDbEntity
100
AcDbLine
  8
0
 62
3
420
65280
370
-1
 48
1.0
  6
BYLAYER
 10
23.8725000000000023
 20
-25.6275000000000013
 30
0.0
 11
23.8725000000000023
 21
-25.3725000000000023
 31
0.0
  0
ARC
  5
229
100
AcDbEntity
  8
0
 62
256
370
-1
 48
1.0
  6
BYLAYER
100
AcDbCircle
 10
24.0
 20
-21.1275000000000013
 30
0.0
 40
0.5
100
AcDbArc
 50
293.785749940276105
 51
246.2142500597239803
  0
ARC
  5
22A
100
AcDbEntity
  8
0
 62
256
370
-1
 48
1.0
  6
BYLAYER
100
AcDbCircle
 10
24.0
 20
-22.1275000000000013
 30
0.0
 40
0.5
100
AcDbArc
 50
293.785749940276105
 51
246.2142500597239803
  0
ARC
  5
22B
100
AcDbEntity
  8
0
 62
256
370
-1
 48
1.0
  6
BYLAYER
100
AcDbCircle
 10
24.0000000000000036
 20
-23.1275000000000013
 30
0.0
 40
0.5
100
AcDbArc
 50
293.785749940276105
 51
246.2142500597239803
  0
CIRCLE
  5
22C
100
AcDbEntity
100
AcDbCircle
  8
0
 62
256
370
-1
 48
1.0
  6
BYLAYER
 10
24.0
 20
-24.3195028926576029
 30
0.0
 40
0.5
  0
CIRCLE
  5
22D
100
AcDbEntity
100
AcDbCircle
  8
0
 62
256
370
-1
 48
1.0
  6
BYLAYER
 10
24.0
 20
-25.5
 30
0.0
 40
0.5
  0
CIRCLE
  5
22E
100
AcDbEntity
100
AcDbCircle
  8
0
 62
3
420
65280
370
-1
 48
1.0
  6
BYLAYER
 10
24.0
 20
-24.3195028926576029
 30
0.0
 40
0.2940000000000005
  0
LINE
  5
22F
100
AcDbEntity
100
AcDbLine
  8
0
 62
256
370
-1
 48
1.0
  6
BYLAYER
 10
24.1232499999999987
 20
-21.585030002743558
 30
0.0
 11
24.201658861916556
 21
-21.585030002743558
 31
0.0
  0
LINE
  5
230
100
AcDbEntity
100
AcDbLine
  8
0
 62
256
370
-1
 48
1.0
  6
BYLAYER
 10
24.1232499999999987
 20
-22.585030002743558
 30
0.0
 11
24.201658861916556
 21
-22.585030002743558
 31
0.0
  0
LINE
  5
231
100
AcDbEntity
100
AcDbLine
  8
0
 62
256
370
-1
 48
1.0
  6
BYLAYER
 10
24.1232500000000023
 20
-23.585030002743558
 30
0.0
 11
24.2016588619165596
 21
-23.585030002743558
 31
0.0
  0
LINE
  5
232
100
AcDbEntity
100
AcDbLine
  8
0
 62
256
370
-1
 48
1.0
  6
BYLAYER
 10
23.8767500000000013
 20
-21.585030002743558
 30
0.0
 11
23.798341138083444
 21
-21.585030002743558
 31
0.0
  0
LINE
  5
233
100
AcDbEntity
100
AcDbLine
  8
0
 62
256
370
-1
 48
1.0
  6
BYLAYER
 10
23.8767500000000013
 20
-22.585030002743558
 30
0.0
 11
23.798341138083444
 21
-22.585030002743558
 31
0.0
  0
LINE
  5
234
100
AcDbEntity
100
AcDbLine
  8
0
 62
256
370
-1
 48
1.0
  6
BYLAYER
 10
23.8767500000000048
 20
-23.585030002743558
 30
0.0
 11
23.7983411380834475
 21
-23.585030002743558
 31
0.0
  0
LINE
  5
235
100
AcDbEntity
100
AcDbLine
  8
0
 62
256
370
-1
 48
1.0
  6
BYLAYER
 10
23.9461215056415249
 20
-22.547500000000003
 30
0.0
 11
23.8767500000000013
 21
-22.547500000000003
 31
0.0
  0
LINE
  5
236
100
AcDbEntity
100
AcDbLine
  8
0
 62
256
370
-1
 48
1.0
  6
BYLAYER
 10
24.0538785056415243
 20
-22.547500000000003
 30
0.0
 11
24.1232499999999987
 21
-22.547500000000003
 31
0.0
  0
CIRCLE
  5
237
100
AcDbEntity
100
AcDbCircle
  8
0
 62
3
420
65280
370
-1
 48
1.0
  6
BYLAYER
 10
26.0
 20
-23.75
 30
0.0
 40
0.375
  0
CIRCLE
  5
238
100
AcDbEntity
100
AcDbCircle
  8
0
 62
3
420
65280
370
-1
 48
1.0
  6
BYLAYER
 10
19.0
 20
-25.25
 30
0.0
 40
0.375
  0
CIRCLE
  5
239
100
AcDbEntity
100
AcDbCircle
  8
0
 62
256
370
-1
 48
1.0
  6
BYLAYER
 10
-24.0
 20
0.0
 30
0.0
 40
0.375
  0
CIRCLE
  5
23A
100
AcDbEntity
100
AcDbCircle
  8
0
 62
3
420
65280
370
-1
 48
1.0
  6
BYLAYER
 10
26.0
 20
-21.0
 30
0.0
 40
0.2828427124746212
  0
CIRCLE
  5
23B
100
AcDbEntity
100
AcDbCircle
  8
0
 62
3
420
65280
370
-1
 48
1.0
  6
BYLAYER
 10
19.0
 20
-22.75
 30
0.0
 40
0.2828427124746212
  0
CIRCLE
  5
23C
100
AcDbEntity
100
AcDbCircle
  8
0
 62
256
370
-1
 48
1.0
  6
BYLAYER
 10
-24.0
 20
-9.0
 30
0.0
 40
0.2828427124746212
  0
CIRCLE
  5
23D
100
AcDbEntity
100
AcDbCircle
  8
0
 62
3
420
65280
370
-1
 48
1.0
  6
BYLAYER
 10
26.0
 20
-26.75
 30
0.0
 40
0.295
  0
MTEXT
  5
23E
100
AcDbEntity
100
AcDbMText
  8
0
 62
256
370
-1
 48
1.0
  6
BYLAYER
 10
-6.0
 20
-30.0
 30
0.0
 40
0.3
 41
0.0
 71
5
 72
1
  1
3 Of the skinny separated\P6 of the Thick separated\P2 of the exterior wall
  7
textstyle1
 50
0.0
 73
2
 44
1.0
  0
LINE
  5
23F
100
AcDbEntity
100
AcDbLine
  8
0
 62
3
420
65280
370
-1
 48
1.0
  6
BYLAYER
 10
-7.1371405202964882
 20
-15.7137918408908668
 30
0.0
 11
-7.1371405202964882
 21
-15.7137918408908668
 31
0.0
  0
DIMENSION
  5
240
100
AcDbEntity
  8
0
 62
30
420
16744192
370
-1
 48
1.0
  6
BYLAYER
100
AcDbDimension
 10
-13.5000000000000178
 20
-22.6960000167645433
 30
0.0
 11
-13.5937500000000036
 21
-20.0980000083822645
 31
0.0
 70
129
 71
8
 72
2
 41
1.0
 42
0.0
  1

  3
Standard
100
AcDbAlignedDimension
 13
-14.4384321302362366
 23
-22.6960000167645433
 33
0.0
 14
-14.4384321302362295
 24
-17.4999999999999929
 34
0.0
1001
ACAD
1000
DSTYLE
1002
{
1070
144
1040
1.0
1070
40
1040
1.0
1002
}
  0
LINE
  5
241
100
AcDbEntity
100
AcDbLine
  8
0
 62
3
420
65280
370
-1
 48
1.0
  6
BYLAYER
 10
10.8680000000000021
 20
-12.9380260740894748
 30
0.0
 11
10.8680000000000021
 21
-12.3975468861069018
 31
0.0
  0
LINE
  5
242
100
AcDbEntity
100
AcDbLine
  8
0
 62
3
420
65280
370
-1
 48
1.0
  6
BYLAYER
 10
10.8680000000000021
 20
-11.5740364800981865
 30
0.0
 11
10.8680000000000021
 21
-11.0335572921156135
 31
0.0
  0
LINE
  5
243
100
AcDbEntity
100
AcDbLine
  8
0
 62
3
420
65280
370
-1
 48
1.0
  6
BYLAYER
 10
7.2750000000000004
 20
-14.8834758001930023
 30
0.0
 11
7.2750000000000004
 21
-9.1165241998069995
 31
0.0
  0
LINE
  5
244
100
AcDbEntity
100
AcDbLine
  8
0
 62
3
420
65280
370
-1
 48
1.0
  6
BYLAYER
 10
12.0
 20
-14.9515701996144799
 30
0.0
 11
12.0
 21
-9.184618599228477
 31
0.0
  0
LINE
  5
245
100
AcDbEntity
100
AcDbLine
  8
0
 62
3
420
65280
370
-1
 48
1.0
  6
BYLAYER
 10
10.2249999999999996
 20
-14.8834758001929988
 30
0.0
 11
10.2249999999999996
 21
-9.116524199807003
 31
0.0
  0
LINE
  5
246
100
AcDbEntity
100
AcDbLine
  8
0
 62
3
420
65280
370
-1
 48
1.0
  6
BYLAYER
 10
14.9499999999999993
 20
-14.9515701996144763
 30
0.0
 11
14.9499999999999993
 21
-9.1846185992284806
 31
0.0
  0
LINE
  5
247
100
AcDbEntity
100
AcDbLine
  8
0
 62
3
420
65280
370
-1
 48
1.0
  6
BYLAYER
 10
11.0
 20
-10.0399531138930982
 30
0.0
 11
11.0
 21
-13.9600468861069018
 31
0.0
  0
LINE
  5
248
100
AcDbEntity
100
AcDbLine
  8
0
 62
3
420
65280
370
-1
 48
1.0
  6
BYLAYER
 10
10.8680000000000021
 20
-11.0335572921156171
 30
0.0
 11
11.0
 21
-11.0335572921156171
 31
0.0
  0
LINE
  5
249
100
AcDbEntity
100
AcDbLine
  8
0
 62
3
420
65280
370
-1
 48
1.0
  6
BYLAYER
 10
10.8680000000000003
 20
-11.5740364800981865
 30
0.0
 11
10.9999999999999982
 21
-11.5740364800981865
 31
0.0
  0
LINE
  5
24A
100
AcDbEntity
100
AcDbLine
  8
0
 62
3
420
65280
370
-1
 48
1.0
  6
BYLAYER
 10
10.8680000000000021
 20
-12.3975468861069018
 30
0.0
 11
11.0
 21
-12.3975468861069018
 31
0.0
  0
LINE
  5
24B
100
AcDbEntity
100
AcDbLine
  8
0
 62
3
420
65280
370
-1
 48
1.0
  6
BYLAYER
 10
10.8680000000000003
 20
-12.9380260740894748
 30
0.0
 11
10.9999999999999982
 21
-12.9380260740894748
 31
0.0
  0
DIMENSION
  5
24C
100
AcDbEntity
  8
0
 62
256
370
-1
 48
1.0
  6
BYLAYER
100
AcDbDimension
 10
-27.2649906019172938
 20
-24.0
 30
0.0
 11
-24.9999906019172933
 21
-23.90625
 31
0.0
 70
0
 71
8
 72
2
 41
1.0
 42
0.0
  1

  3
Standard
100
AcDbAlignedDimension
 13
-27.2649906019172938
 23
-18.7500383889760798
 33
0.0
 14
-22.7349906019172927
 24
-18.7500383889760798
 34
0.0
 50
0.0
100
AcDbRotatedDimension
1001
ACAD
1000
DSTYLE
1002
{
1070
144
1040
1.0
1070
40
1040
1.0
1002
}
  0
LINE
  5
24D
100
AcDbEntity
100
AcDbLine
  8
0
 62
256
370
-1
 48
1.0
  6
BYLAYER
 10
6.9056008081090337
 20
-19.9713731272115851
 30
0.0
 11
12.3854918081090339
 21
-19.9713731272115851
 31
0.0
  0
INSERT
  5
24E
100
AcDbEntity
100
AcDbBlockReference
  8
0
 62
256
370
-1
 48
1.0
  6
BYLAYER
  2
block 1
 10
12.5729918081090339
 20
-19.9713731272115851
 30
0.0
 41
1.0
 42
-1.0
 43
1.0
 50
180.0
  0
INSERT
  5
24F
100
AcDbEntity
100
AcDbBlockReference
  8
0
 62
256
370
-1
 48
1.0
  6
BYLAYER
  2
block 1
 10
6.7181008081090337
 20
-19.9713731272115851
 30
0.0
  0
INSERT
  5
250
100
AcDbEntity
100
AcDbBlockReference
  8
0
 62
256
370
-1
 48
1.0
  6
BYLAYER
  2
block 1
 10
-6.0
 20
-16.0
 30
0.0
  0
INSERT
  5
251
100
AcDbEntity
100
AcDbBlockReference
  8
0
 62
256
370
-1
 48
1.0
  6
BYLAYER
  2
plate
 10
16.0
 20
-24.0
 30
0.0
  0
INSERT
  5
252
100
AcDbEntity
100
AcDbBlockReference
  8
0
 62
256
370
-1
 48
1.0
  6
BYLAYER
  2
plate
 10
16.0
 20
-21.5
 30
0.0
  0
INSERT
  5
253
100
AcDbEntity
100
AcDbBlockReference
  8
0
 62
256
370
-1
 48
1.0
  6
BYLAYER
  2
plate
 10
16.0
 20
-21.5
 30
0.0
 41
1.0
 42
-1.0
 43
1.0
  0
INSERT
  5
254
100
AcDbEntity
100
AcDbBlockReference
  8
0
 62
256
370
-1
 48
1.0
  6
BYLAYER
  2
sm-plate
 10
21.0
 20
-30.0
 30
0.0
  0
INSERT
  5
255
100
AcDbEntity
100
AcDbBlockReference
  8
0
 62
256
370
-1
 48
1.0
  6
BYLAYER
  2
sm-plate
 10
26.0
 20
-21.0
 30
0.0
  0
INSERT
  5
256
100
AcDbEntity
100
AcDbBlockReference
  8
0
 62
256
370
-1
 48
1.0
  6
BYLAYER
  2
sm-plate
 10
26.0
 20
-23.75
 30
0.0
  0
INSERT
  5
257
100
AcDbEntity
100
AcDbBlockReference
  8
0
 62
256
370
-1
 48
1.0
  6
BYLAYER
  2
sm-plate
 10
26.0
 20
-26.75
 30
0.0
  0
LINE
  5
258
100
AcDbEntity
100
AcDbLine
  8
0
 62
256
370
-1
 48
1.0
  6
BYLAYER
 10
16.75
 20
-18.90625
 30
0.0
 11
19.0
 21
-18.90625
 31
0.0
  0
LINE
  5
259
100
AcDbEntity
100
AcDbLine
  8
0
 62
3
420
65280
370
-1
 48
1.0
  6
BYLAYER
 10
16.5231579999999987
 20
-21.2550000000000026
 30
0.0
 11
16.75
 21
-21.2550000000000026
 31
0.0
  0
LINE
  5
25A
100
AcDbEntity
100
AcDbLine
  8
0
 62
3
420
65280
370
-1
 48
1.0
  6
BYLAYER
 10
16.5231579999999987
 20
-19.245000000000001
 30
0.0
 11
16.75
 21
-19.245000000000001
 31
0.0
  0
LINE
  5
25B
100
AcDbEntity
100
AcDbLine
  8
0
 62
3
420
65280
370
-1
 48
1.0
  6
BYLAYER
 10
2.5231579999999987
 20
-13.995000000000001
 30
0.0
 11
2.75
 21
-13.995000000000001
 31
0.0
  0
LINE
  5
25C
100
AcDbEntity
100
AcDbLine
  8
0
 62
3
420
65280
370
-1
 48
1.0
  6
BYLAYER
 10
16.1006459999999976
 20
-21.2550000000000026
 30
0.0
 11
16.3274879999999989
 21
-21.2550000000000026
 31
0.0
  0
LINE
  5
25D
100
AcDbEntity
100
AcDbLine
  8
0
 62
3
420
65280
370
-1
 48
1.0
  6
BYLAYER
 10
16.1006459999999976
 20
-19.245000000000001
 30
0.0
 11
16.3274879999999989
 21
-19.245000000000001
 31
0.0
  0
LINE
  5
25E
100
AcDbEntity
100
AcDbLine
  8
0
 62
3
420
65280
370
-1
 48
1.0
  6
BYLAYER
 10
2.1006459999999976
 20
-13.995000000000001
 30
0.0
 11
2.3274879999999989
 21
-13.995000000000001
 31
0.0
  0
LINE
  5
25F
100
AcDbEntity
100
AcDbLine
  8
0
 62
256
370
-1
 48
1.0
  6
BYLAYER
 10
21.1481579999999987
 20
-18.75
 30
0.0
 11
21.375
 21
-18.75
 31
0.0
  0
LINE
  5
260
100
AcDbEntity
100
AcDbLine
  8
0
 62
256
370
-1
 48
1.0
  6
BYLAYER
 10
21.6481579999999987
 20
-18.875
 30
0.0
 11
21.875
 21
-18.875
 31
0.0
  0
LINE
  5
261
100
AcDbEntity
100
AcDbLine
  8
0
 62
256
370
-1
 48
1.0
  6
BYLAYER
 10
16.2140669999999965
 20
-18.90625
 30
0.0
 11
16.6365789999999976
 21
-18.90625
 31
0.0
  0
LINE
  5
262
100
AcDbEntity
100
AcDbLine
  8
0
 62
3
420
65280
370
-1
 48
1.0
  6
BYLAYER
 10
16.75
 20
-21.2550000000000026
 30
0.0
 11
16.75
 21
-21.3750000000000036
 31
0.0
  0
LINE
  5
263
100
AcDbEntity
100
AcDbLine
  8
0
 62
3
420
65280
370
-1
 48
1.0
  6
BYLAYER
 10
16.75
 20
-19.245000000000001
 30
0.0
 11
16.75
 21
-19.125
 31
0.0
  0
LINE
  5
264
100
AcDbEntity
100
AcDbLine
  8
0
 62
3
420
65280
370
-1
 48
1.0
  6
BYLAYER
 10
2.75
 20
-13.995000000000001
 30
0.0
 11
2.75
 21
-13.875
 31
0.0
  0
LINE
  5
265
100
AcDbEntity
100
AcDbLine
  8
0
 62
3
420
65280
370
-1
 48
1.0
  6
BYLAYER
 10
16.5231579999999987
 20
-21.2550000000000026
 30
0.0
 11
16.5231579999999987
 21
-21.3750000000000036
 31
0.0
  0
LINE
  5
266
100
AcDbEntity
100
AcDbLine
  8
0
 62
3
420
65280
370
-1
 48
1.0
  6
BYLAYER
 10
16.5231579999999987
 20
-19.245000000000001
 30
0.0
 11
16.5231579999999987
 21
-19.125
 31
0.0
  0
LINE
  5
267
100
AcDbEntity
100
AcDbLine
  8
0
 62
3
420
65280
370
-1
 48
1.0
  6
BYLAYER
 10
2.5231579999999987
 20
-13.995000000000001
 30
0.0
 11
2.5231579999999987
 21
-13.875
 31
0.0
  0
LINE
  5
268
100
AcDbEntity
100
AcDbLine
  8
0
 62
3
420
65280
370
-1
 48
1.0
  6
BYLAYER
 10
16.3274879999999989
 20
-21.2550000000000026
 30
0.0
 11
16.3274879999999989
 21
-21.3750000000000036
 31
0.0
  0
LINE
  5
269
100
AcDbEntity
100
AcDbLine
  8
0
 62
3
420
65280
370
-1
 48
1.0
  6
BYLAYER
 10
16.3274879999999989
 20
-19.245000000000001
 30
0.0
 11
16.3274879999999989
 21
-19.125
 31
0.0
  0
LINE
  5
26A
100
AcDbEntity
100
AcDbLine
  8
0
 62
3
420
65280
370
-1
 48
1.0
  6
BYLAYER
 10
2.3274879999999989
 20
-13.995000000000001
 30
0.0
 11
2.3274879999999989
 21
-13.875
 31
0.0
  0
LINE
  5
26B
100
AcDbEntity
100
AcDbLine
  8
0
 62
3
420
65280
370
-1
 48
1.0
  6
BYLAYER
 10
16.1006459999999976
 20
-21.2550000000000026
 30
0.0
 11
16.1006459999999976
 21
-21.3750000000000036
 31
0.0
  0
LINE
  5
26C
100
AcDbEntity
100
AcDbLine
  8
0
 62
3
420
65280
370
-1
 48
1.0
  6
BYLAYER
 10
16.1006459999999976
 20
-19.245000000000001
 30
0.0
 11
16.1006459999999976
 21
-19.125
 31
0.0
  0
LINE
  5
26D
100
AcDbEntity
100
AcDbLine
  8
0
 62
3
420
65280
370
-1
 48
1.0
  6
BYLAYER
 10
2.1006459999999976
 20
-13.995000000000001
 30
0.0
 11
2.1006459999999976
 21
-13.875
 31
0.0
  0
LINE
  5
26E
100
AcDbEntity
100
AcDbLine
  8
0
 62
3
420
65280
370
-1
 48
1.0
  6
BYLAYER
 10
16.1006459999999976
 20
-21.3750000000000036
 30
0.0
 11
16.3274879999999989
 21
-21.3750000000000036
 31
0.0
  0
LINE
  5
26F
100
AcDbEntity
100
AcDbLine
  8
0
 62
3
420
65280
370
-1
 48
1.0
  6
BYLAYER
 10
16.1006459999999976
 20
-19.125
 30
0.0
 11
16.3274879999999989
 21
-19.125
 31
0.0
  0
LINE
  5
270
100
AcDbEntity
100
AcDbLine
  8
0
 62
3
420
65280
370
-1
 48
1.0
  6
BYLAYER
 10
2.1006459999999976
 20
-13.875
 30
0.0
 11
2.3274879999999989
 21
-13.875
 31
0.0
  0
LINE
  5
271
100
AcDbEntity
100
AcDbLine
  8
0
 62
3
420
65280
370
-1
 48
1.0
  6
BYLAYER
 10
16.5231579999999987
 20
-21.3750000000000036
 30
0.0
 11
16.75
 21
-21.3750000000000036
 31
0.0
  0
LINE
  5
272
100
AcDbEntity
100
AcDbLine
  8
0
 62
3
420
65280
370
-1
 48
1.0
  6
BYLAYER
 10
16.5231579999999987
 20
-19.125
 30
0.0
 11
16.75
 21
-19.125
 31
0.0
  0
LINE
  5
273
100
AcDbEntity
100
AcDbLine
  8
0
 62
3
420
65280
370
-1
 48
1.0
  6
BYLAYER
 10
2.5231579999999987
 20
-13.875
 30
0.0
 11
2.75
 21
-13.875
 31
0.0
  0
LINE
  5
274
100
AcDbEntity
100
AcDbLine
  8
0
 62
3
420
65280
370
-1
 48
1.0
  6
BYLAYER
 10
9.9749999999999979
 20
-13.8919524866854225
 30
0.0
 11
9.7349999999999941
 21
-13.8919524866854243
 31
0.0
  0
LINE
  5
275
100
AcDbEntity
100
AcDbLine
  8
0
 62
3
420
65280
370
-1
 48
1.0
  6
BYLAYER
 10
14.6999999999999975
 20
-13.9600468861069
 30
0.0
 11
14.4599999999999937
 21
-13.9600468861069018
 31
0.0
  0
LINE
  5
276
100
AcDbEntity
100
AcDbLine
  8
0
 62
3
420
65280
370
-1
 48
1.0
  6
BYLAYER
 10
7.5250000000000004
 20
-13.8919524866854207
 30
0.0
 11
7.7650000000000041
 21
-13.8919524866854225
 31
0.0
  0
LINE
  5
277
100
AcDbEntity
100
AcDbLine
  8
0
 62
3
420
65280
370
-1
 48
1.0
  6
BYLAYER
 10
12.25
 20
-13.9600468861068983
 30
0.0
 11
12.4900000000000038
 21
-13.9600468861069
 31
0.0
  0
LINE
  5
278
100
AcDbEntity
100
AcDbLine
  8
0
 62
1
420
16711680
370
-1
 48
1.0
  6
BYLAYER
 10
7.7650000000000059
 20
-8.0
 30
0.0
 11
8.1074765569465512
 21
-7.9999999999999982
 31
0.0
  0
LINE
  5
279
100
AcDbEntity
100
AcDbLine
  8
0
 62
1
420
16711680
370
-1
 48
1.0
  6
BYLAYER
 10
12.4900000000000055
 20
-10.0399531138931
 30
0.0
 11
12.8324765569465509
 21
-10.0399531138930982
 31
0.0
  0
LINE
  5
27A
100
AcDbEntity
100
AcDbLine
  8
0
 62
3
420
65280
370
-1
 48
1.0
  6
BYLAYER
 10
9.7349999999999959
 20
-15.0084758001929988
 30
0.0
 11
9.7349999999999959
 21
-13.8919524866854225
 31
0.0
  0
LINE
  5
27B
100
AcDbEntity
100
AcDbLine
  8
0
 62
3
420
65280
370
-1
 48
1.0
  6
BYLAYER
 10
14.4599999999999955
 20
-15.0765701996144763
 30
0.0
 11
14.4599999999999955
 21
-13.9600468861069
 31
0.0
  0
LINE
  5
27C
100
AcDbEntity
100
AcDbLine
  8
0
 62
3
420
65280
370
-1
 48
1.0
  6
BYLAYER
 10
9.392523443053447
 20
-13.8919524866854243
 30
0.0
 11
9.4849999999999977
 21
-14.8834758001929988
 31
0.0
  0
LINE
  5
27D
100
AcDbEntity
100
AcDbLine
  8
0
 62
3
420
65280
370
-1
 48
1.0
  6
BYLAYER
 10
14.1175234430534466
 20
-13.9600468861069018
 30
0.0
 11
14.2099999999999973
 21
-14.9515701996144763
 31
0.0
  0
LINE
  5
27E
100
AcDbEntity
100
AcDbLine
  8
0
 62
3
420
65280
370
-1
 48
1.0
  6
BYLAYER
 10
7.7650000000000023
 20
-15.008475800192997
 30
0.0
 11
7.7650000000000023
 21
-13.8919524866854207
 31
0.0
  0
LINE
  5
27F
100
AcDbEntity
100
AcDbLine
  8
0
 62
3
420
65280
370
-1
 48
1.0
  6
BYLAYER
 10
12.490000000000002
 20
-15.0765701996144745
 30
0.0
 11
12.490000000000002
 21
-13.9600468861068983
 31
0.0
  0
LINE
  5
280
100
AcDbEntity
100
AcDbLine
  8
0
 62
3
420
65280
370
-1
 48
1.0
  6
BYLAYER
 10
8.107476556946553
 20
-13.8919524866854225
 30
0.0
 11
8.0150000000000006
 21
-14.883475800192997
 31
0.0
  0
LINE
  5
281
100
AcDbEntity
100
AcDbLine
  8
0
 62
3
420
65280
370
-1
 48
1.0
  6
BYLAYER
 10
12.8324765569465526
 20
-13.9600468861069
 30
0.0
 11
12.7400000000000002
 21
-14.9515701996144745
 31
0.0
  0
LINE
  5
282
100
AcDbEntity
100
AcDbLine
  8
0
 62
3
420
65280
370
-1
 48
1.0
  6
BYLAYER
 10
9.9749999999999979
 20
-15.0084758001930005
 30
0.0
 11
9.9749999999999979
 21
-13.8919524866854225
 31
0.0
  0
LINE
  5
283
100
AcDbEntity
100
AcDbLine
  8
0
 62
3
420
65280
370
-1
 48
1.0
  6
BYLAYER
 10
14.6999999999999975
 20
-15.0765701996144781
 30
0.0
 11
14.6999999999999975
 21
-13.9600468861069
 31
0.0
  0
LINE
  5
284
100
AcDbEntity
100
AcDbLine
  8
0
 62
3
420
65280
370
-1
 48
1.0
  6
BYLAYER
 10
7.5250000000000004
 20
-15.0084758001930005
 30
0.0
 11
7.5250000000000004
 21
-13.8919524866854225
 31
0.0
  0
LINE
  5
285
100
AcDbEntity
100
AcDbLine
  8
0
 62
3
420
65280
370
-1
 48
1.0
  6
BYLAYER
 10
12.25
 20
-15.0765701996144781
 30
0.0
 11
12.25
 21
-13.9600468861069
 31
0.0
  0
LINE
  5
286
100
AcDbEntity
100
AcDbLine
  8
0
 62
5
420
255
370
-1
 48
1.0
  6
BYLAYER
 10
9.7349999999999923
 20
-8.9915241998069995
 30
0.0
 11
9.7349999999999941
 21
-10.4319056005785242
 31
0.0
  0
LINE
  5
287
100
AcDbEntity
100
AcDbLine
  8
0
 62
5
420
255
370
-1
 48
1.0
  6
BYLAYER
 10
14.459999999999992
 20
-9.059618599228477
 30
0.0
 11
14.4599999999999937
 21
-10.5000000000000018
 31
0.0
  0
LINE
  5
288
100
AcDbEntity
100
AcDbLine
  8
0
 62
5
420
255
370
-1
 48
1.0
  6
BYLAYER
 10
7.7650000000000059
 20
-8.991524199807003
 30
0.0
 11
7.7650000000000059
 21
-10.4319056005785225
 31
0.0
  0
LINE
  5
289
100
AcDbEntity
100
AcDbLine
  8
0
 62
5
420
255
370
-1
 48
1.0
  6
BYLAYER
 10
12.4900000000000055
 20
-9.0596185992284806
 30
0.0
 11
12.4900000000000055
 21
-10.5
 31
0.0
  0
LINE
  5
28A
100
AcDbEntity
100
AcDbLine
  8
0
 62
3
420
65280
370
-1
 48
1.0
  6
BYLAYER
 10
9.9749999999999979
 20
-8.9915241998070048
 30
0.0
 11
9.9749999999999979
 21
-9.9718587144716189
 31
0.0
  0
LINE
  5
28B
100
AcDbEntity
100
AcDbLine
  8
0
 62
3
420
65280
370
-1
 48
1.0
  6
BYLAYER
 10
14.6999999999999975
 20
-9.0596185992284823
 30
0.0
 11
14.6999999999999975
 21
-10.0399531138930964
 31
0.0
  0
LINE
  5
28C
100
AcDbEntity
100
AcDbLine
  8
0
 62
3
420
65280
370
-1
 48
1.0
  6
BYLAYER
 10
7.5250000000000004
 20
-8.9915241998070048
 30
0.0
 11
7.5249999999999986
 21
-9.9718587144716189
 31
0.0
  0
LINE
  5
28D
100
AcDbEntity
100
AcDbLine
  8
0
 62
3
420
65280
370
-1
 48
1.0
  6
BYLAYER
 10
12.25
 20
-9.0596185992284823
 30
0.0
 11
12.2499999999999982
 21
-10.0399531138930964
 31
0.0
  0
LINE
  5
28E
100
AcDbEntity
100
AcDbLine
  8
0
 62
3
420
65280
370
-1
 48
1.0
  6
BYLAYER
 10
10.0999999999999979
 20
-15.0084758001930005
 30
0.0
 11
10.2249999999999979
 21
-14.8834758001930023
 31
0.0
  0
LINE
  5
28F
100
AcDbEntity
100
AcDbLine
  8
0
 62
3
420
65280
370
-1
 48
1.0
  6
BYLAYER
 10
14.8249999999999975
 20
-15.0765701996144781
 30
0.0
 11
14.9499999999999975
 21
-14.9515701996144799
 31
0.0
  0
LINE
  5
290
100
AcDbEntity
100
AcDbLine
  8
0
 62
3
420
65280
370
-1
 48
1.0
  6
BYLAYER
 10
7.4000000000000004
 20
-15.0084758001930005
 30
0.0
 11
7.2750000000000004
 21
-14.8834758001930023
 31
0.0
  0
LINE
  5
291
100
AcDbEntity
100
AcDbLine
  8
0
 62
3
420
65280
370
-1
 48
1.0
  6
BYLAYER
 10
12.125
 20
-15.0765701996144781
 30
0.0
 11
12.0
 21
-14.9515701996144799
 31
0.0
  0
LINE
  5
292
100
AcDbEntity
100
AcDbLine
  8
0
 62
5
420
255
370
-1
 48
1.0
  6
BYLAYER
 10
9.6099999999999959
 20
-8.9915241998069995
 30
0.0
 11
9.4849999999999959
 21
-9.1165241998069977
 31
0.0
  0
LINE
  5
293
100
AcDbEntity
100
AcDbLine
  8
0
 62
5
420
255
370
-1
 48
1.0
  6
BYLAYER
 10
14.3349999999999955
 20
-9.059618599228477
 30
0.0
 11
14.2099999999999955
 21
-9.1846185992284752
 31
0.0
  0
LINE
  5
294
100
AcDbEntity
100
AcDbLine
  8
0
 62
5
420
255
370
-1
 48
1.0
  6
BYLAYER
 10
7.8900000000000023
 20
-8.9915241998069995
 30
0.0
 11
8.0150000000000023
 21
-9.1165241998069977
 31
0.0
  0
LINE
  5
295
100
AcDbEntity
100
AcDbLine
  8
0
 62
5
420
255
370
-1
 48
1.0
  6
BYLAYER
 10
12.615000000000002
 20
-9.059618599228477
 30
0.0
 11
12.740000000000002
 21
-9.1846185992284752
 31
0.0
  0
LINE
  5
296
100
AcDbEntity
100
AcDbLine
  8
0
 62
3
420
65280
370
-1
 48
1.0
  6
BYLAYER
 10
10.0999999999999979
 20
-8.9915241998070012
 30
0.0
 11
10.2249999999999979
 21
-9.1165241998069995
 31
0.0
  0
LINE
  5
297
100
AcDbEntity
100
AcDbLine
  8
0
 62
3
420
65280
370
-1
 48
1.0
  6
BYLAYER
 10
14.8249999999999975
 20
-9.0596185992284788
 30
0.0
 11
14.9499999999999975
 21
-9.184618599228477
 31
0.0
  0
LINE
  5
298
100
AcDbEntity
100
AcDbLine
  8
0
 62
3
420
65280
370
-1
 48
1.0
  6
BYLAYER
 10
7.4000000000000004
 20
-8.9915241998070012
 30
0.0
 11
7.2750000000000004
 21
-9.1165241998069995
 31
0.0
  0
LINE
  5
299
100
AcDbEntity
100
AcDbLine
  8
0
 62
3
420
65280
370
-1
 48
1.0
  6
BYLAYER
 10
12.125
 20
-9.0596185992284788
 30
0.0
 11
12.0
 21
-9.184618599228477
 31
0.0
  0
LINE
  5
29A
100
AcDbEntity
100
AcDbLine
  8
0
 62
3
420
65280
370
-1
 48
1.0
  6
BYLAYER
 10
9.6099999999999959
 20
-15.0084758001929988
 30
0.0
 11
9.7349999999999959
 21
-15.0084758001929988
 31
0.0
  0
LINE
  5
29B
100
AcDbEntity
100
AcDbLine
  8
0
 62
3
420
65280
370
-1
 48
1.0
  6
BYLAYER
 10
14.3349999999999955
 20
-15.0765701996144763
 30
0.0
 11
14.4599999999999955
 21
-15.0765701996144763
 31
0.0
  0
LINE
  5
29C
100
AcDbEntity
100
AcDbLine
  8
0
 62
3
420
65280
370
-1
 48
1.0
  6
BYLAYER
 10
7.8900000000000023
 20
-15.008475800192997
 30
0.0
 11
7.7650000000000023
 21
-15.008475800192997
 31
0.0
  0
LINE
  5
29D
100
AcDbEntity
100
AcDbLine
  8
0
 62
3
420
65280
370
-1
 48
1.0
  6
BYLAYER
 10
12.615000000000002
 20
-15.0765701996144745
 30
0.0
 11
12.490000000000002
 21
-15.0765701996144745
 31
0.0
  0
LINE
  5
29E
100
AcDbEntity
100
AcDbLine
  8
0
 62
3
420
65280
370
-1
 48
1.0
  6
BYLAYER
 10
10.0999999999999979
 20
-15.0084758001930005
 30
0.0
 11
9.9749999999999979
 21
-15.0084758001930005
 31
0.0
  0
LINE
  5
29F
100
AcDbEntity
100
AcDbLine
  8
0
 62
3
420
65280
370
-1
 48
1.0
  6
BYLAYER
 10
14.8249999999999975
 20
-15.0765701996144781
 30
0.0
 11
14.6999999999999975
 21
-15.0765701996144781
 31
0.0
  0
LINE
  5
2A0
100
AcDbEntity
100
AcDbLine
  8
0
 62
3
420
65280
370
-1
 48
1.0
  6
BYLAYER
 10
7.4000000000000004
 20
-15.0084758001930005
 30
0.0
 11
7.5250000000000004
 21
-15.0084758001930005
 31
0.0
  0
LINE
  5
2A1
100
AcDbEntity
100
AcDbLine
  8
0
 62
3
420
65280
370
-1
 48
1.0
  6
BYLAYER
 10
12.125
 20
-15.0765701996144781
 30
0.0
 11
12.25
 21
-15.0765701996144781
 31
0.0
  0
LINE
  5
2A2
100
AcDbEntity
100
AcDbLine
  8
0
 62
5
420
255
370
-1
 48
1.0
  6
BYLAYER
 10
9.6099999999999959
 20
-8.9915241998069995
 30
0.0
 11
9.7349999999999959
 21
-8.991524199807003
 31
0.0
  0
LINE
  5
2A3
100
AcDbEntity
100
AcDbLine
  8
0
 62
5
420
255
370
-1
 48
1.0
  6
BYLAYER
 10
14.3349999999999955
 20
-9.059618599228477
 30
0.0
 11
14.4599999999999955
 21
-9.0596185992284806
 31
0.0
  0
LINE
  5
2A4
100
AcDbEntity
100
AcDbLine
  8
0
 62
5
420
255
370
-1
 48
1.0
  6
BYLAYER
 10
7.8900000000000023
 20
-8.9915241998069995
 30
0.0
 11
7.7650000000000023
 21
-8.991524199807003
 31
0.0
  0
LINE
  5
2A5
100
AcDbEntity
100
AcDbLine
  8
0
 62
5
420
255
370
-1
 48
1.0
  6
BYLAYER
 10
12.615000000000002
 20
-9.059618599228477
 30
0.0
 11
12.490000000000002
 21
-9.0596185992284806
 31
0.0
  0
LINE
  5
2A6
100
AcDbEntity
100
AcDbLine
  8
0
 62
3
420
65280
370
-1
 48
1.0
  6
BYLAYER
 10
10.0999999999999979
 20
-8.9915241998070012
 30
0.0
 11
9.9749999999999979
 21
-8.9915241998070048
 31
0.0
  0
LINE
  5
2A7
100
AcDbEntity
100
AcDbLine
  8
0
 62
3
420
65280
370
-1
 48
1.0
  6
BYLAYER
 10
14.8249999999999975
 20
-9.0596185992284788
 30
0.0
 11
14.6999999999999975
 21
-9.0596185992284823
 31
0.0
  0
LINE
  5
2A8
100
AcDbEntity
100
AcDbLine
  8
0
 62
3
420
65280
370
-1
 48
1.0
  6
BYLAYER
 10
7.4000000000000004
 20
-8.9915241998070012
 30
0.0
 11
7.5250000000000004
 21
-8.9915241998070048
 31
0.0
  0
LINE
  5
2A9
100
AcDbEntity
100
AcDbLine
  8
0
 62
3
420
65280
370
-1
 48
1.0
  6
BYLAYER
 10
12.125
 20
-9.0596185992284788
 30
0.0
 11
12.25
 21
-9.0596185992284823
 31
0.0
  0
LINE
  5
2AA
100
AcDbEntity
100
AcDbLine
  8
0
 62
4
420
65535
370
-1
 48
1.0
  6
BYLAYER
 10
14.9499999999999957
 20
-12.3975468861069036
 30
0.0
 11
12.0
 21
-12.3975468861069036
 31
0.0
  0
LINE
  5
2AB
100
AcDbEntity
100
AcDbLine
  8
0
 62
4
420
65535
370
-1
 48
1.0
  6
BYLAYER
 10
7.2249999999999979
 20
-12.3294524866854278
 30
0.0
 11
4.2750000000000021
 21
-12.3294524866854278
 31
0.0
  0
LINE
  5
2AC
100
AcDbEntity
100
AcDbLine
  8
0
 62
4
420
65535
370
-1
 48
1.0
  6
BYLAYER
 10
7.2249999999999979
 20
-10.9797604060087153
 30
0.0
 11
4.2750000000000021
 21
-10.9797604060087153
 31
0.0
  0
LINE
  5
2AD
100
AcDbEntity
100
AcDbLine
  8
0
 62
4
420
65535
370
-1
 48
1.0
  6
BYLAYER
 10
14.9499999999999957
 20
-11.0335572921156171
 30
0.0
 11
12.0
 21
-11.0335572921156171
 31
0.0
  0
LINE
  5
2AE
100
AcDbEntity
100
AcDbLine
  8
0
 62
4
420
65535
370
-1
 48
1.0
  6
BYLAYER
 10
12.0
 20
-12.3975468861069036
 30
0.0
 11
12.0
 21
-12.938026074089473
 31
0.0
  0
LINE
  5
2AF
100
AcDbEntity
100
AcDbLine
  8
0
 62
4
420
65535
370
-1
 48
1.0
  6
BYLAYER
 10
4.2750000000000021
 20
-12.3294524866854278
 30
0.0
 11
4.2750000000000021
 21
-12.8699316746679973
 31
0.0
  0
LINE
  5
2B0
100
AcDbEntity
100
AcDbLine
  8
0
 62
4
420
65535
370
-1
 48
1.0
  6
BYLAYER
 10
4.2750000000000021
 20
-10.9797604060087153
 30
0.0
 11
4.2750000000000021
 21
-11.5202395939912847
 31
0.0
  0
LINE
  5
2B1
100
AcDbEntity
100
AcDbLine
  8
0
 62
4
420
65535
370
-1
 48
1.0
  6
BYLAYER
 10
12.0
 20
-11.0335572921156171
 30
0.0
 11
12.0
 21
-11.5740364800981865
 31
0.0
  0
LINE
  5
2B2
100
AcDbEntity
100
AcDbLine
  8
0
 62
4
420
65535
370
-1
 48
1.0
  6
BYLAYER
 10
12.0
 20
-12.938026074089473
 30
0.0
 11
14.9499999999999957
 21
-12.938026074089473
 31
0.0
  0
LINE
  5
2B3
100
AcDbEntity
100
AcDbLine
  8
0
 62
4
420
65535
370
-1
 48
1.0
  6
BYLAYER
 10
4.2750000000000021
 20
-12.8699316746679973
 30
0.0
 11
7.2249999999999979
 21
-12.8699316746679973
 31
0.0
  0
LINE
  5
2B4
100
AcDbEntity
100
AcDbLine
  8
0
 62
4
420
65535
370
-1
 48
1.0
  6
BYLAYER
 10
4.2750000000000021
 20
-11.5202395939912847
 30
0.0
 11
7.2249999999999979
 21
-11.5202395939912847
 31
0.0
  0
LINE
  5
2B5
100
AcDbEntity
100
AcDbLine
  8
0
 62
4
420
65535
370
-1
 48
1.0
  6
BYLAYER
 10
12.0
 20
-11.5740364800981865
 30
0.0
 11
14.9499999999999957
 21
-11.5740364800981865
 31
0.0
  0
LINE
  5
2B6
100
AcDbEntity
100
AcDbLine
  8
0
 62
4
420
65535
370
-1
 48
1.0
  6
BYLAYER
 10
14.9499999999999957
 20
-12.938026074089473
 30
0.0
 11
14.9499999999999957
 21
-12.3975468861069036
 31
0.0
  0
LINE
  5
2B7
100
AcDbEntity
100
AcDbLine
  8
0
 62
4
420
65535
370
-1
 48
1.0
  6
BYLAYER
 10
7.2249999999999979
 20
-12.8699316746679973
 30
0.0
 11
7.2249999999999979
 21
-12.3294524866854278
 31
0.0
  0
LINE
  5
2B8
100
AcDbEntity
100
AcDbLine
  8
0
 62
4
420
65535
370
-1
 48
1.0
  6
BYLAYER
 10
7.2249999999999979
 20
-11.5202395939912847
 30
0.0
 11
7.2249999999999979
 21
-10.9797604060087153
 31
0.0
  0
LINE
  5
2B9
100
AcDbEntity
100
AcDbLine
  8
0
 62
4
420
65535
370
-1
 48
1.0
  6
BYLAYER
 10
14.9499999999999957
 20
-11.5740364800981865
 30
0.0
 11
14.9499999999999957
 21
-11.0335572921156171
 31
0.0
  0
LINE
  5
2BA
100
AcDbEntity
100
AcDbLine
  8
0
 62
3
420
65280
370
-1
 48
1.0
  6
BYLAYER
 10
9.6099999999999959
 20
-15.0084758001929988
 30
0.0
 11
9.4849999999999977
 21
-14.8834758001929988
 31
0.0
  0
LINE
  5
2BB
100
AcDbEntity
100
AcDbLine
  8
0
 62
3
420
65280
370
-1
 48
1.0
  6
BYLAYER
 10
14.3349999999999955
 20
-15.0765701996144763
 30
0.0
 11
14.2099999999999973
 21
-14.9515701996144763
 31
0.0
  0
LINE
  5
2BC
100
AcDbEntity
100
AcDbLine
  8
0
 62
3
420
65280
370
-1
 48
1.0
  6
BYLAYER
 10
7.8900000000000023
 20
-15.008475800192997
 30
0.0
 11
8.0150000000000006
 21
-14.883475800192997
 31
0.0
  0
LINE
  5
2BD
100
AcDbEntity
100
AcDbLine
  8
0
 62
3
420
65280
370
-1
 48
1.0
  6
BYLAYER
 10
12.615000000000002
 20
-15.0765701996144745
 30
0.0
 11
12.7400000000000002
 21
-14.9515701996144745
 31
0.0
  0
LINE
  5
2BE
100
AcDbEntity
100
AcDbLine
  8
0
 62
5
420
255
370
-1
 48
1.0
  6
BYLAYER
 10
14.1175234430534484
 20
-10.0399531138930946
 30
0.0
 11
14.0170820393249915
 21
-10.2408359213500084
 31
0.0
  0
LINE
  5
2BF
100
AcDbEntity
100
AcDbLine
  8
0
 62
5
420
255
370
-1
 48
1.0
  6
BYLAYER
 10
9.3925234430534488
 20
-9.9718587144716118
 30
0.0
 11
9.1624999999999996
 21
-10.4319056005785118
 31
0.0
  0
LINE
  5
2C0
100
AcDbEntity
100
AcDbLine
  8
0
 62
5
420
255
370
-1
 48
1.0
  6
BYLAYER
 10
8.1074765569465495
 20
-9.9718587144716206
 30
0.0
 11
8.3374999999999986
 21
-10.4319056005785207
 31
0.0
  0
LINE
  5
2C1
100
AcDbEntity
100
AcDbLine
  8
0
 62
5
420
255
370
-1
 48
1.0
  6
BYLAYER
 10
12.8324765569465491
 20
-10.0399531138930982
 30
0.0
 11
13.0624999999999982
 21
-10.4999999999999982
 31
0.0
  0
LINE
  5
2C2
100
AcDbEntity
100
AcDbLine
  8
0
 62
3
420
65280
370
-1
 48
1.0
  6
BYLAYER
 10
9.9749999999999979
 20
-9.9718587144716189
 30
0.0
 11
9.7349999999999941
 21
-9.9718587144716206
 31
0.0
  0
LINE
  5
2C3
100
AcDbEntity
100
AcDbLine
  8
0
 62
3
420
65280
370
-1
 48
1.0
  6
BYLAYER
 10
14.6999999999999975
 20
-10.0399531138930964
 30
0.0
 11
14.4599999999999937
 21
-10.0399531138930982
 31
0.0
  0
LINE
  5
2C4
100
AcDbEntity
100
AcDbLine
  8
0
 62
1
420
16711680
370
-1
 48
1.0
  6
BYLAYER
 10
9.452254248593734
 20
-8.4600468861068947
 30
0.0
 11
9.5681356214843358
 21
-8.6475468861068965
 31
0.0
  0
LINE
  5
2C5
100
AcDbEntity
100
AcDbLine
  8
0
 62
1
420
16711680
370
-1
 48
1.0
  6
BYLAYER
 10
14.1772542485937336
 20
-10.4999999999999947
 30
0.0
 11
14.2931356214843355
 21
-10.6874999999999964
 31
0.0
  0
LINE
  5
2C6
100
AcDbEntity
100
AcDbLine
  8
0
 62
5
420
255
370
-1
 48
1.0
  6
BYLAYER
 10
14.1772542485937336
 20
-10.5
 30
0.0
 11
14.0170820393249915
 21
-10.2408359213500102
 31
0.0
  0
LINE
  5
2C7
100
AcDbEntity
100
AcDbLine
  8
0
 62
1
420
16711680
370
-1
 48
1.0
  6
BYLAYER
 10
8.047745751406266
 20
-8.4600468861069
 30
0.0
 11
7.9318643785156642
 21
-8.6475468861069018
 31
0.0
  0
LINE
  5
2C8
100
AcDbEntity
100
AcDbLine
  8
0
 62
1
420
16711680
370
-1
 48
1.0
  6
BYLAYER
 10
12.7727457514062657
 20
-10.5
 30
0.0
 11
12.6568643785156638
 21
-10.6875000000000018
 31
0.0
  0
LINE
  5
2C9
100
AcDbEntity
100
AcDbLine
  8
0
 62
6
420
16711935
370
-1
 48
1.0
  6
BYLAYER
 10
17.4522542485937322
 20
-13.5000000000000178
 30
0.0
 11
17.5681356214843376
 21
-13.312500000000016
 31
0.0
  0
LINE
  5
2CA
100
AcDbEntity
100
AcDbLine
  8
0
 62
6
420
16711935
370
-1
 48
1.0
  6
BYLAYER
 10
16.0477457514062678
 20
-13.5000000000000124
 30
0.0
 11
15.9318643785156624
 21
-13.3125000000000107
 31
0.0
  0
LINE
  5
2CB
100
AcDbEntity
100
AcDbLine
  8
0
 62
6
420
16711935
370
-1
 48
1.0
  6
BYLAYER
 10
16.0477457514062678
 20
-10.4999999999999929
 30
0.0
 11
15.9318643785156642
 21
-10.6874999999999947
 31
0.0
  0
LINE
  5
2CC
100
AcDbEntity
100
AcDbLine
  8
0
 62
6
420
16711935
370
-1
 48
1.0
  6
BYLAYER
 10
17.4522542485937322
 20
-10.4999999999999876
 30
0.0
 11
17.5681356214843376
 21
-10.6874999999999893
 31
0.0
  0
LINE
  5
2CD
100
AcDbEntity
100
AcDbLine
  8
0
 62
5
420
255
370
-1
 48
1.0
  6
BYLAYER
 10
9.3925234430534488
 20
-9.9718587144716206
 30
0.0
 11
9.4849999999999994
 21
-9.1165241998069959
 31
0.0
  0
LINE
  5
2CE
100
AcDbEntity
100
AcDbLine
  8
0
 62
5
420
255
370
-1
 48
1.0
  6
BYLAYER
 10
14.1175234430534484
 20
-10.0399531138930982
 30
0.0
 11
14.2099999999999991
 21
-9.1846185992284735
 31
0.0
  0
LINE
  5
2CF
100
AcDbEntity
100
AcDbLine
  8
0
 62
5
420
255
370
-1
 48
1.0
  6
BYLAYER
 10
8.1074765569465495
 20
-9.9718587144716206
 30
0.0
 11
8.0149999999999988
 21
-9.1165241998069959
 31
0.0
  0
LINE
  5
2D0
100
AcDbEntity
100
AcDbLine
  8
0
 62
5
420
255
370
-1
 48
1.0
  6
BYLAYER
 10
12.8324765569465491
 20
-10.0399531138930982
 30
0.0
 11
12.7399999999999984
 21
-9.1846185992284735
 31
0.0
  0
LINE
  5
2D1
100
AcDbEntity
100
AcDbLine
  8
0
 62
3
420
65280
370
-1
 48
1.0
  6
BYLAYER
 10
7.7650000000000059
 20
-9.9718587144716224
 30
0.0
 11
7.5249999999999986
 21
-9.9718587144716189
 31
0.0
  0
LINE
  5
2D2
100
AcDbEntity
100
AcDbLine
  8
0
 62
3
420
65280
370
-1
 48
1.0
  6
BYLAYER
 10
12.4900000000000055
 20
-10.0399531138931
 30
0.0
 11
12.2499999999999982
 21
-10.0399531138930964
 31
0.0
  0
LINE
  5
2D3
100
AcDbEntity
100
AcDbLine
  8
0
 62
3
420
65280
370
-1
 48
1.0
  6
BYLAYER
 10
8.1074765569465495
 20
-13.8919524866854207
 30
0.0
 11
9.3925234430534452
 21
-13.8919524866854225
 31
0.0
  0
LINE
  5
2D4
100
AcDbEntity
100
AcDbLine
  8
0
 62
3
420
65280
370
-1
 48
1.0
  6
BYLAYER
 10
12.8324765569465491
 20
-13.9600468861068983
 30
0.0
 11
14.1175234430534449
 21
-13.9600468861069
 31
0.0
  0
LINE
  5
2D5
100
AcDbEntity
100
AcDbLine
  8
0
 62
1
420
16711680
370
-1
 48
1.0
  6
BYLAYER
 10
9.2920820393249919
 20
-8.2008828074569085
 30
0.0
 11
8.2079179606750046
 21
-8.2008828074569102
 31
0.0
  0
LINE
  5
2D6
100
AcDbEntity
100
AcDbLine
  8
0
 62
1
420
16711680
370
-1
 48
1.0
  6
BYLAYER
 10
14.0170820393249915
 20
-10.2408359213500084
 30
0.0
 11
12.9329179606750042
 21
-10.2408359213500102
 31
0.0
  0
LINE
  5
2D7
100
AcDbEntity
100
AcDbLine
  8
0
 62
6
420
16711935
370
-1
 48
1.0
  6
BYLAYER
 10
16.625
 20
-13.7591640786500022
 30
0.0
 11
16.875
 21
-13.7591640786500058
 31
0.0
  0
LINE
  5
2D8
100
AcDbEntity
100
AcDbLine
  8
0
 62
6
420
16711935
370
-1
 48
1.0
  6
BYLAYER
 10
16.625
 20
-10.2408359213500031
 30
0.0
 11
16.875
 21
-10.2408359213499995
 31
0.0
  0
LINE
  5
2D9
100
AcDbEntity
100
AcDbLine
  8
0
 62
1
420
16711680
370
-1
 48
1.0
  6
BYLAYER
 10
9.2920820393249901
 20
-8.2008828074569085
 30
0.0
 11
9.2295820393249901
 21
-8.3258828074569067
 31
0.0
  0
LINE
  5
2DA
100
AcDbEntity
100
AcDbLine
  8
0
 62
1
420
16711680
370
-1
 48
1.0
  6
BYLAYER
 10
14.0170820393249898
 20
-10.2408359213500084
 30
0.0
 11
13.9545820393249898
 21
-10.3658359213500066
 31
0.0
  0
LINE
  5
2DB
100
AcDbEntity
100
AcDbLine
  8
0
 62
1
420
16711680
370
-1
 48
1.0
  6
BYLAYER
 10
8.2079179606750046
 20
-8.2008828074569102
 30
0.0
 11
8.2704179606750046
 21
-8.3258828074569102
 31
0.0
  0
LINE
  5
2DC
100
AcDbEntity
100
AcDbLine
  8
0
 62
1
420
16711680
370
-1
 48
1.0
  6
BYLAYER
 10
12.9329179606750042
 20
-10.2408359213500102
 30
0.0
 11
12.9954179606750042
 21
-10.3658359213500102
 31
0.0
  0
LINE
  5
2DD
100
AcDbEntity
100
AcDbLine
  8
0
 62
1
420
16711680
370
-1
 48
1.0
  6
BYLAYER
 10
9.7349999999999941
 20
-7.9999999999999964
 30
0.0
 11
9.7349999999999959
 21
-8.6475468861068965
 31
0.0
  0
LINE
  5
2DE
100
AcDbEntity
100
AcDbLine
  8
0
 62
1
420
16711680
370
-1
 48
1.0
  6
BYLAYER
 10
14.4599999999999937
 20
-10.0399531138930964
 30
0.0
 11
14.4599999999999955
 21
-10.6874999999999964
 31
0.0
  0
LINE
  5
2DF
100
AcDbEntity
100
AcDbLine
  8
0
 62
1
420
16711680
370
-1
 48
1.0
  6
BYLAYER
 10
7.7650000000000059
 20
-8.0000000000000018
 30
0.0
 11
7.7650000000000041
 21
-8.6475468861069018
 31
0.0
  0
LINE
  5
2E0
100
AcDbEntity
100
AcDbLine
  8
0
 62
1
420
16711680
370
-1
 48
1.0
  6
BYLAYER
 10
12.4900000000000055
 20
-10.0399531138931017
 30
0.0
 11
12.4900000000000038
 21
-10.6875000000000018
 31
0.0
  0
LINE
  5
2E1
100
AcDbEntity
100
AcDbLine
  8
0
 62
6
420
16711935
370
-1
 48
1.0
  6
BYLAYER
 10
15.7650000000000077
 20
-13.9600468861069107
 30
0.0
 11
15.7650000000000041
 21
-13.3125000000000107
 31
0.0
  0
LINE
  5
2E2
100
AcDbEntity
100
AcDbLine
  8
0
 62
6
420
16711935
370
-1
 48
1.0
  6
BYLAYER
 10
17.7349999999999923
 20
-13.960046886106916
 30
0.0
 11
17.7349999999999959
 21
-13.312500000000016
 31
0.0
  0
LINE
  5
2E3
100
AcDbEntity
100
AcDbLine
  8
0
 62
6
420
16711935
370
-1
 48
1.0
  6
BYLAYER
 10
15.7650000000000059
 20
-10.0399531138930946
 30
0.0
 11
15.7650000000000041
 21
-10.6874999999999947
 31
0.0
  0
LINE
  5
2E4
100
AcDbEntity
100
AcDbLine
  8
0
 62
6
420
16711935
370
-1
 48
1.0
  6
BYLAYER
 10
17.7349999999999923
 20
-10.0399531138930893
 30
0.0
 11
17.7349999999999959
 21
-10.6874999999999893
 31
0.0
  0
LINE
  5
2E5
100
AcDbEntity
100
AcDbLine
  8
0
 62
1
420
16711680
370
-1
 48
1.0
  6
BYLAYER
 10
7.7650000000000059
 20
-8.0000000000000018
 30
0.0
 11
9.7349999999999923
 21
-7.9999999999999964
 31
0.0
  0
LINE
  5
2E6
100
AcDbEntity
100
AcDbLine
  8
0
 62
1
420
16711680
370
-1
 48
1.0
  6
BYLAYER
 10
12.4900000000000055
 20
-10.0399531138931017
 30
0.0
 11
14.459999999999992
 21
-10.0399531138930964
 31
0.0
  0
LINE
  5
2E7
100
AcDbEntity
100
AcDbLine
  8
0
 62
6
420
16711935
370
-1
 48
1.0
  6
BYLAYER
 10
15.7650000000000059
 20
-10.0399531138930946
 30
0.0
 11
17.7349999999999923
 21
-10.0399531138930893
 31
0.0
  0
LINE
  5
2E8
100
AcDbEntity
100
AcDbLine
  8
0
 62
6
420
16711935
370
-1
 48
1.0
  6
BYLAYER
 10
17.7349999999999923
 20
-10.0399531138930964
 30
0.0
 11
17.7349999999999923
 21
-10.3500000000000014
 31
0.0
  0
LINE
  5
2E9
100
AcDbEntity
100
AcDbLine
  8
0
 62
6
420
16711935
370
-1
 48
1.0
  6
BYLAYER
 10
15.7650000000000077
 20
-13.9600468861069107
 30
0.0
 11
15.7650000000000077
 21
-13.6500000000000057
 31
0.0
  0
LINE
  5
2EA
100
AcDbEntity
100
AcDbLine
  8
0
 62
6
420
16711935
370
-1
 48
1.0
  6
BYLAYER
 10
17.7349999999999923
 20
-13.9600468861069089
 30
0.0
 11
17.7349999999999923
 21
-13.6500000000000039
 31
0.0
  0
LINE
  5
2EB
100
AcDbEntity
100
AcDbLine
  8
0
 62
6
420
16711935
370
-1
 48
1.0
  6
BYLAYER
 10
15.7650000000000077
 20
-10.0399531138930946
 30
0.0
 11
15.7650000000000077
 21
-10.3499999999999996
 31
0.0
  0
LINE
  5
2EC
100
AcDbEntity
100
AcDbLine
  8
0
 62
5
420
255
370
-1
 48
1.0
  6
BYLAYER
 10
9.1624999999999996
 20
-10.4319056005785118
 30
0.0
 11
9.7349999999999905
 21
-10.4319056005785136
 31
0.0
  0
LINE
  5
2ED
100
AcDbEntity
100
AcDbLine
  8
0
 62
5
420
255
370
-1
 48
1.0
  6
BYLAYER
 10
8.3374999999999986
 20
-10.4319056005785207
 30
0.0
 11
7.7650000000000077
 21
-10.4319056005785225
 31
0.0
  0
LINE
  5
2EE
100
AcDbEntity
100
AcDbLine
  8
0
 62
5
420
255
370
-1
 48
1.0
  6
BYLAYER
 10
13.0624999999999982
 20
-10.4999999999999982
 30
0.0
 11
12.4900000000000073
 21
-10.5
 31
0.0
  0
LINE
  5
2EF
100
AcDbEntity
100
AcDbLine
  8
0
 62
5
420
255
370
-1
 48
1.0
  6
BYLAYER
 10
14.1772542485937354
 20
-10.5
 30
0.0
 11
14.4599999999999902
 21
-10.5
 31
0.0
  0
LINE
  5
2F0
100
AcDbEntity
100
AcDbLine
  8
0
 62
1
420
16711680
370
-1
 48
1.0
  6
BYLAYER
 10
9.7349999999999923
 20
-8.6475468861068965
 30
0.0
 11
9.5681356214843358
 21
-8.6475468861068965
 31
0.0
  0
LINE
  5
2F1
100
AcDbEntity
100
AcDbLine
  8
0
 62
1
420
16711680
370
-1
 48
1.0
  6
BYLAYER
 10
14.459999999999992
 20
-10.6874999999999964
 30
0.0
 11
14.2931356214843355
 21
-10.6874999999999964
 31
0.0
  0
LINE
  5
2F2
100
AcDbEntity
100
AcDbLine
  8
0
 62
1
420
16711680
370
-1
 48
1.0
  6
BYLAYER
 10
7.7650000000000077
 20
-8.6475468861069018
 30
0.0
 11
7.9318643785156642
 21
-8.6475468861069018
 31
0.0
  0
LINE
  5
2F3
100
AcDbEntity
100
AcDbLine
  8
0
 62
1
420
16711680
370
-1
 48
1.0
  6
BYLAYER
 10
12.4900000000000073
 20
-10.6875000000000018
 30
0.0
 11
12.6568643785156638
 21
-10.6875000000000018
 31
0.0
  0
LINE
  5
2F4
100
AcDbEntity
100
AcDbLine
  8
0
 62
6
420
16711935
370
-1
 48
1.0
  6
BYLAYER
 10
17.7349999999999923
 20
-13.312500000000016
 30
0.0
 11
17.5681356214843376
 21
-13.312500000000016
 31
0.0
  0
LINE
  5
2F5
100
AcDbEntity
100
AcDbLine
  8
0
 62
6
420
16711935
370
-1
 48
1.0
  6
BYLAYER
 10
15.7650000000000077
 20
-13.3125000000000107
 30
0.0
 11
15.9318643785156624
 21
-13.3125000000000107
 31
0.0
  0
LINE
  5
2F6
100
AcDbEntity
100
AcDbLine
  8
0
 62
6
420
16711935
370
-1
 48
1.0
  6
BYLAYER
 10
17.7349999999999923
 20
-10.6874999999999893
 30
0.0
 11
17.5681356214843376
 21
-10.6874999999999893
 31
0.0
  0
LINE
  5
2F7
100
AcDbEntity
100
AcDbLine
  8
0
 62
6
420
16711935
370
-1
 48
1.0
  6
BYLAYER
 10
15.7650000000000077
 20
-10.6874999999999947
 30
0.0
 11
15.9318643785156642
 21
-10.6874999999999947
 31
0.0
  0
LINE
  5
2F8
100
AcDbEntity
100
AcDbLine
  8
0
 62
1
420
16711680
370
-1
 48
1.0
  6
BYLAYER
 10
9.3124999999999982
 20
-8.4600468861068947
 30
0.0
 11
9.4522542485937304
 21
-8.4600468861068947
 31
0.0
  0
LINE
  5
2F9
100
AcDbEntity
100
AcDbLine
  8
0
 62
1
420
16711680
370
-1
 48
1.0
  6
BYLAYER
 10
14.0374999999999979
 20
-10.4999999999999947
 30
0.0
 11
14.1772542485937301
 21
-10.4999999999999947
 31
0.0
  0
LINE
  5
2FA
100
AcDbEntity
100
AcDbLine
  8
0
 62
1
420
16711680
370
-1
 48
1.0
  6
BYLAYER
 10
8.1874999999999947
 20
-8.4600468861069
 30
0.0
 11
8.0477457514062696
 21
-8.4600468861069
 31
0.0
  0
LINE
  5
2FB
100
AcDbEntity
100
AcDbLine
  8
0
 62
1
420
16711680
370
-1
 48
1.0
  6
BYLAYER
 10
12.9124999999999943
 20
-10.5
 30
0.0
 11
12.7727457514062692
 21
-10.5
 31
0.0
  0
LINE
  5
2FC
100
AcDbEntity
100
AcDbLine
  8
0
 62
1
420
16711680
370
-1
 48
1.0
  6
BYLAYER
 10
9.3124999999999982
 20
-8.4600468861068965
 30
0.0
 11
9.2295820393249901
 21
-8.3258828074569067
 31
0.0
  0
LINE
  5
2FD
100
AcDbEntity
100
AcDbLine
  8
0
 62
1
420
16711680
370
-1
 48
1.0
  6
BYLAYER
 10
14.0374999999999979
 20
-10.4999999999999964
 30
0.0
 11
13.9545820393249898
 21
-10.3658359213500066
 31
0.0
  0
LINE
  5
2FE
100
AcDbEntity
100
AcDbLine
  8
0
 62
1
420
16711680
370
-1
 48
1.0
  6
BYLAYER
 10
8.2704179606750046
 20
-8.3258828074569102
 30
0.0
 11
8.1874999999999982
 21
-8.4600468861068983
 31
0.0
  0
LINE
  5
2FF
100
AcDbEntity
100
AcDbLine
  8
0
 62
1
420
16711680
370
-1
 48
1.0
  6
BYLAYER
 10
12.9954179606750042
 20
-10.3658359213500102
 30
0.0
 11
12.9124999999999979
 21
-10.4999999999999982
 31
0.0
  0
CIRCLE
  5
300
100
AcDbEntity
100
AcDbCircle
  8
0
 62
1
420
16711680
370
-1
 48
1.0
  6
BYLAYER
 10
8.3805444649999981
 20
-12.5996920806767125
 30
0.0
 40
0.04858893
  0
CIRCLE
  5
301
100
AcDbEntity
100
AcDbCircle
  8
0
 62
3
420
65280
370
-1
 48
1.0
  6
BYLAYER
 10
13.1055444649999977
 20
-12.6677864800981901
 30
0.0
 40
0.04858893
  0
CIRCLE
  5
302
100
AcDbEntity
100
AcDbCircle
  8
0
 62
3
420
65280
370
-1
 48
1.0
  6
BYLAYER
 10
6.1194555350000002
 20
-12.5996920806767125
 30
0.0
 40
0.04858893
  0
CIRCLE
  5
303
100
AcDbEntity
100
AcDbCircle
  8
0
 62
3
420
65280
370
-1
 48
1.0
  6
BYLAYER
 10
6.1194555350000002
 20
-11.25
 30
0.0
 40
0.04858893
  0
CIRCLE
  5
304
100
AcDbEntity
100
AcDbCircle
  8
0
 62
1
420
16711680
370
-1
 48
1.0
  6
BYLAYER
 10
9.1194555349999984
 20
-11.2357024866854243
 30
0.0
 40
0.04858893
  0
CIRCLE
  5
305
100
AcDbEntity
100
AcDbCircle
  8
0
 62
3
420
65280
370
-1
 48
1.0
  6
BYLAYER
 10
13.844455534999998
 20
-11.3037968861069018
 30
0.0
 40
0.04858893
  0
CIRCLE
  5
306
100
AcDbEntity
100
AcDbCircle
  8
0
 62
1
420
16711680
370
-1
 48
1.0
  6
BYLAYER
 10
9.1194555349999984
 20
-12.5996920806767125
 30
0.0
 40
0.04858893
  0
CIRCLE
  5
307
100
AcDbEntity
100
AcDbCircle
  8
0
 62
3
420
65280
370
-1
 48
1.0
  6
BYLAYER
 10
13.844455534999998
 20
-12.6677864800981901
 30
0.0
 40
0.04858893
  0
CIRCLE
  5
308
100
AcDbEntity
100
AcDbCircle
  8
0
 62
3
420
65280
370
-1
 48
1.0
  6
BYLAYER
 10
5.3805444649999998
 20
-12.5996920806767125
 30
0.0
 40
0.04858893
  0
CIRCLE
  5
309
100
AcDbEntity
100
AcDbCircle
  8
0
 62
3
420
65280
370
-1
 48
1.0
  6
BYLAYER
 10
5.3805444649999998
 20
-11.25
 30
0.0
 40
0.04858893
  0
CIRCLE
  5
30A
100
AcDbEntity
100
AcDbCircle
  8
0
 62
1
420
16711680
370
-1
 48
1.0
  6
BYLAYER
 10
8.3805444649999981
 20
-11.2357024866854243
 30
0.0
 40
0.04858893
  0
CIRCLE
  5
30B
100
AcDbEntity
100
AcDbCircle
  8
0
 62
3
420
65280
370
-1
 48
1.0
  6
BYLAYER
 10
13.1055444649999977
 20
-11.3037968861069018
 30
0.0
 40
0.04858893
  0
CIRCLE
  5
30C
100
AcDbEntity
100
AcDbCircle
  8
0
 62
3
420
65280
370
-1
 48
1.0
  6
BYLAYER
 10
16.3805444649999998
 20
-11.3037968861069054
 30
0.0
 40
0.04858893
  0
CIRCLE
  5
30D
100
AcDbEntity
100
AcDbCircle
  8
0
 62
3
420
65280
370
-1
 48
1.0
  6
BYLAYER
 10
16.3805444649999998
 20
-12.6677864800981936
 30
0.0
 40
0.04858893
  0
CIRCLE
  5
30E
100
AcDbEntity
100
AcDbCircle
  8
0
 62
3
420
65280
370
-1
 48
1.0
  6
BYLAYER
 10
17.1194555350000002
 20
-11.3037968861069054
 30
0.0
 40
0.04858893
  0
CIRCLE
  5
30F
100
AcDbEntity
100
AcDbCircle
  8
0
 62
3
420
65280
370
-1
 48
1.0
  6
BYLAYER
 10
17.1194555350000002
 20
-12.6677864800981936
 30
0.0
 40
0.04858893
  0
LINE
  5
310
100
AcDbEntity
100
AcDbLine
  8
0
 62
6
420
16711935
370
-1
 48
1.0
  6
BYLAYER
 10
17.3639110700000003
 20
-13.5000000000000107
 30
0.0
 11
17.3639110700000003
 21
-10.4999999999999929
 31
0.0
  0
LINE
  5
311
100
AcDbEntity
100
AcDbLine
  8
0
 62
256
370
-1
 48
1.0
  6
BYLAYER
 10
14.0889110699999982
 20
-13.9600468861068983
 30
0.0
 11
14.0889110699999964
 21
-10.0399531138930964
 31
0.0
  0
LINE
  5
312
100
AcDbEntity
100
AcDbLine
  8
0
 62
6
420
16711935
370
-1
 48
1.0
  6
BYLAYER
 10
16.875
 20
-13.7591640786500076
 30
0.0
 11
16.875
 21
-10.2408359213499978
 31
0.0
  0
LINE
  5
313
100
AcDbEntity
100
AcDbLine
  8
0
 62
256
370
-1
 48
1.0
  6
BYLAYER
 10
13.5999999999999979
 20
-13.9600468861068983
 30
0.0
 11
13.5999999999999979
 21
-10.0399531138930982
 31
0.0
  0
LINE
  5
314
100
AcDbEntity
100
AcDbLine
  8
0
 62
6
420
16711935
370
-1
 48
1.0
  6
BYLAYER
 10
16.625
 20
-13.7591640786500022
 30
0.0
 11
16.625
 21
-10.2408359213500031
 31
0.0
  0
LINE
  5
315
100
AcDbEntity
100
AcDbLine
  8
0
 62
256
370
-1
 48
1.0
  6
BYLAYER
 10
13.3499999999999996
 20
-13.9600468861068983
 30
0.0
 11
13.3499999999999979
 21
-10.0399531138930982
 31
0.0
  0
LINE
  5
316
100
AcDbEntity
100
AcDbLine
  8
0
 62
6
420
16711935
370
-1
 48
1.0
  6
BYLAYER
 10
16.1360889299999997
 20
-10.4999999999999929
 30
0.0
 11
16.1360889299999997
 21
-13.5000000000000124
 31
0.0
  0
LINE
  5
317
100
AcDbEntity
100
AcDbLine
  8
0
 62
256
370
-1
 48
1.0
  6
BYLAYER
 10
12.8610889299999975
 20
-13.9600468861068983
 30
0.0
 11
12.8610889299999975
 21
-10.0399531138931
 31
0.0
  0
LINE
  5
318
100
AcDbEntity
100
AcDbLine
  8
0
 62
1
420
16711680
370
-1
 48
1.0
  6
BYLAYER
 10
9.7349999999999959
 20
-8.4600468861069
 30
0.0
 11
9.7349999999999941
 21
-8.0
 31
0.0
  0
LINE
  5
319
100
AcDbEntity
100
AcDbLine
  8
0
 62
1
420
16711680
370
-1
 48
1.0
  6
BYLAYER
 10
14.4599999999999955
 20
-10.5
 30
0.0
 11
14.4599999999999937
 21
-10.0399531138931
 31
0.0
  0
LINE
  5
31A
100
AcDbEntity
100
AcDbLine
  8
0
 62
6
420
16711935
370
-1
 48
1.0
  6
BYLAYER
 10
17.4522542485937322
 20
-13.5000000000000178
 30
0.0
 11
17.3639110700000003
 21
-13.5000000000000124
 31
0.0
  0
LINE
  5
31B
100
AcDbEntity
100
AcDbLine
  8
0
 62
6
420
16711935
370
-1
 48
1.0
  6
BYLAYER
 10
17.4522542485937322
 20
-10.4999999999999876
 30
0.0
 11
17.3639110700000003
 21
-10.4999999999999929
 31
0.0
  0
LINE
  5
31C
100
AcDbEntity
100
AcDbLine
  8
0
 62
6
420
16711935
370
-1
 48
1.0
  6
BYLAYER
 10
16.0477457514062678
 20
-13.5000000000000124
 30
0.0
 11
16.1360889299999997
 21
-13.5000000000000124
 31
0.0
  0
LINE
  5
31D
100
AcDbEntity
100
AcDbLine
  8
0
 62
6
420
16711935
370
-1
 48
1.0
  6
BYLAYER
 10
16.0477457514062678
 20
-10.4999999999999929
 30
0.0
 11
16.1360889299999997
 21
-10.4999999999999929
 31
0.0
  0
LINE
  5
31E
100
AcDbEntity
100
AcDbLine
  8
0
 62
6
420
16711935
370
-1
 48
1.0
  6
BYLAYER
 10
15.7650000000000077
 20
-13.9600468861069107
 30
0.0
 11
17.7349999999999923
 21
-13.9600468861069089
 31
0.0
  0
LINE
  5
31F
100
AcDbEntity
100
AcDbLine
  8
0
 62
256
370
-1
 48
1.0
  6
BYLAYER
 10
3.375
 20
-13.75
 30
0.0
 11
3.375
 21
-14.125
 31
0.0
  0
LINE
  5
320
100
AcDbEntity
100
AcDbLine
  8
0
 62
256
370
-1
 48
1.0
  6
BYLAYER
 10
3.375
 20
-14.125
 30
0.0
 11
2.0
 21
-14.125
 31
0.0
  0
LINE
  5
321
100
AcDbEntity
100
AcDbLine
  8
0
 62
256
370
-1
 48
1.0
  6
BYLAYER
 10
2.0
 20
-14.125
 30
0.0
 11
2.0
 21
-13.75
 31
0.0
  0
LINE
  5
322
100
AcDbEntity
100
AcDbLine
  8
0
 62
256
370
-1
 48
1.0
  6
BYLAYER
 10
2.0
 20
-13.75
 30
0.0
 11
3.375
 21
-13.75
 31
0.0
  0
LINE
  5
323
100
AcDbEntity
100
AcDbLine
  8
0
 62
256
370
-1
 48
1.0
  6
BYLAYER
 10
16.0
 20
-18.5
 30
0.0
 11
22.0
 21
-18.5
 31
0.0
  0
LINE
  5
324
100
AcDbEntity
100
AcDbLine
  8
0
 62
3
420
65280
370
-1
 48
1.0
  6
BYLAYER
 10
9.3925234430534434
 20
-9.9718587144716206
 30
0.0
 11
8.1074765569465495
 21
-9.9718587144716206
 31
0.0
  0
ENDSEC
  0
SECTION
  2
OBJECTS
  0
DICTIONARY
  5
C
100
AcDbDictionary
280
0
281
1
  3
ACAD_GROUP
350
D
  3
ACAD_LAYOUT
350
1A
  3
ACAD_MLINESTYLE
350
17
  3
ACAD_PLOTSETTINGS
350
19
  3
ACAD_PLOTSTYLENAME
350
E
  3
AcDbVariableDictionary
350
325
  3
QCAD_OBJECTS
350
326
  0
DICTIONARY
  5
D
100
AcDbDictionary
280
0
281
1
  0
ACDBDICTIONARYWDFLT
  5
E
100
AcDbDictionary
281
1
  3
Normal
350
F
100
AcDbDictionaryWithDefault
340
F
  0
ACDBPLACEHOLDER
  5
F
  0
DICTIONARY
  5
17
100
AcDbDictionary
280
0
281
1
  3
Standard
350
18
  0
MLINESTYLE
  5
18
100
AcDbMlineStyle
  2
STANDARD
 70
0
  3

 62
256
 51
90.0
 52
90.0
 71
2
 49
0.5
 62
256
  6
BYLAYER
 49
-0.5
 62
256
  6
BYLAYER
  0
DICTIONARY
  5
19
100
AcDbDictionary
280
0
281
1
  0
DICTIONARY
  5
1A
100
AcDbDictionary
281
1
  3
Layout1
350
1E
  3
Layout2
350
26
  3
Model
350
22
  0
LAYOUT
  5
1E
100
AcDbPlotSettings
  1

  2
none_device
  4

  6

 40
0.0
 41
0.0
 42
0.0
 43
0.0
 44
0.0
 45
0.0
 46
0.0
 47
0.0
 48
0.0
 49
0.0
140
0.0
141
0.0
142
1.0
143
1.0
 70
688
 72
0
 73
0
 74
5
  7

 75
16
147
1.0
148
0.0
149
0.0
100
AcDbLayout
  1
Layout1
 70
1
 71
1
 10
0.0
 20
0.0
 11
420.0
 21
297.0
 12
0.0
 22
0.0
 32
0.0
 14
100000000000000000000.0
 24
100000000000000000000.0
 34
100000000000000000000.0
 15
-100000000000000000000.0
 25
-100000000000000000000.0
 35
-100000000000000000000.0
146
0.0
 13
0.0
 23
0.0
 33
0.0
 16
1.0
 26
0.0
 36
0.0
 17
0.0
 27
1.0
 37
0.0
 76
0
330
1B
  0
LAYOUT
  5
22
100
AcDbPlotSettings
  1

  2
none_device
  4

  6

 40
0.0
 41
0.0
 42
0.0
 43
0.0
 44
0.0
 45
0.0
 46
0.0
 47
0.0
 48
0.0
 49
0.0
140
0.0
141
0.0
142
1.0
143
1.0
 70
1712
 72
0
 73
0
 74
0
  7

 75
0
147
1.0
148
0.0
149
0.0
100
AcDbLayout
  1
Model
 70
1
 71
0
 10
0.0
 20
0.0
 11
12.0
 21
9.0
 12
0.0
 22
0.0
 32
0.0
 14
0.0
 24
0.0
 34
0.0
 15
0.0
 25
0.0
 35
0.0
146
0.0
 13
0.0
 23
0.0
 33
0.0
 16
1.0
 26
0.0
 36
0.0
 17
0.0
 27
1.0
 37
0.0
 76
0
330
1F
  0
LAYOUT
  5
26
100
AcDbPlotSettings
  1

  2
none_device
  4

  6

 40
0.0
 41
0.0
 42
0.0
 43
0.0
 44
0.0
 45
0.0
 46
0.0
 47
0.0
 48
0.0
 49
0.0
140
0.0
141
0.0
142
1.0
143
1.0
 70
688
 72
0
 73
0
 74
5
  7

 75
16
147
1.0
148
0.0
149
0.0
100
AcDbLayout
  1
Layout2
 70
1
 71
2
 10
0.0
 20
0.0
 11
12.0
 21
9.0
 12
0.0
 22
0.0
 32
0.0
 14
0.0
 24
0.0
 34
0.0
 15
0.0
 25
0.0
 35
0.0
146
0.0
 13
0.0
 23
0.0
 33
0.0
 16
1.0
 26
0.0
 36
0.0
 17
0.0
 27
1.0
 37
0.0
 76
0
330
23
  0
DICTIONARY
  5
325
100
AcDbDictionary
281
1
  3
DIMASSOC
350
328
  3
HIDETEXT
350
327
  0
DICTIONARYVAR
  5
327
100
DictionaryVariables
280
0
  1
2
  0
DICTIONARYVAR
  5
328
100
DictionaryVariables
280
0
  1
1
  0
DICTIONARY
  5
326
100
AcDbDictionary
281
1
  3
ColorSettings/BackgroundColor
350
329
  3
ColorSettings/ColorMode
350
32A
  3
DimensionSettings/AngularFormat
350
32B
  3
DimensionSettings/AngularPrecision
350
32C
  3
DimensionSettings/DimensionFont
350
32D
  3
DimensionSettings/KeepProportions
350
32E
  3
DimensionSettings/LinearFormat
350
32F
  3
DimensionSettings/LinearPrecision
350
330
  3
Grid/DisplayGrid00
350
331
  3
Grid/DisplayGrid01
350
332
  3
Grid/DisplayGrid02
350
333
  3
Grid/DisplayGrid03
350
334
  3
Grid/GridSpacingX00
350
335
  3
Grid/GridSpacingX01
350
336
  3
Grid/GridSpacingX02
350
337
  3
Grid/GridSpacingX03
350
338
  3
Grid/GridSpacingY00
350
339
  3
Grid/GridSpacingY01
350
33A
  3
Grid/GridSpacingY02
350
33B
  3
Grid/GridSpacingY03
350
33C
  3
Grid/IsometricGrid00
350
33D
  3
Grid/IsometricGrid01
350
33E
  3
Grid/IsometricGrid02
350
33F
  3
Grid/IsometricGrid03
350
340
  3
Grid/IsometricProjection00
350
341
  3
Grid/IsometricProjection01
350
342
  3
Grid/IsometricProjection02
350
343
  3
Grid/IsometricProjection03
350
344
  3
Grid/MetaGridSpacingX00
350
345
  3
Grid/MetaGridSpacingX01
350
346
  3
Grid/MetaGridSpacingX02
350
347
  3
Grid/MetaGridSpacingX03
350
348
  3
Grid/MetaGridSpacingY00
350
349
  3
Grid/MetaGridSpacingY01
350
34A
  3
Grid/MetaGridSpacingY02
350
34B
  3
Grid/MetaGridSpacingY03
350
34C
  3
MultiPageSettings/Columns
350
34D
  3
MultiPageSettings/GlueMarginsBottom
350
34E
  3
MultiPageSettings/GlueMarginsLeft
350
34F
  3
MultiPageSettings/GlueMarginsRight
350
350
  3
MultiPageSettings/GlueMarginsTop
350
351
  3
MultiPageSettings/PrintCropMarks
350
352
  3
MultiPageSettings/Rows
350
353
  3
PageSettings/OffsetX
350
354
  3
PageSettings/OffsetY
350
355
  3
PageSettings/PageOrientation
350
356
  3
PageSettings/PaperHeight
350
357
  3
PageSettings/PaperSizeName
350
358
  3
PageSettings/PaperWidth
350
359
  3
PageSettings/Scale
350
35A
  3
PageSettings/ShowPaperBorders
350
35B
  3
PointDisplaySettings/Button0
350
35C
  3
PointDisplaySettings/Button2
350
35D
  3
PointDisplaySettings/Mode
350
35E
  3
PointDisplaySettings/Size
350
35F
  3
QCADVersion
350
360
  3
UnitSettings/PaperUnit
350
361
  0
XRECORD
  5
329
330
326
100
AcDbXrecord
280
1
1000
White
  0
XRECORD
  5
32A
330
326
100
AcDbXrecord
280
1
1000
FullColor
  0
XRECORD
  5
32B
330
326
100
AcDbXrecord
280
1
 90
0
  0
XRECORD
  5
32C
330
326
100
AcDbXrecord
280
1
 90
1
  0
XRECORD
  5
32D
330
326
100
AcDbXrecord
280
1
1000
Helvetica
  0
XRECORD
  5
32E
330
326
100
AcDbXrecord
280
1
290
1
  0
XRECORD
  5
32F
330
326
100
AcDbXrecord
280
1
 90
5
  0
XRECORD
  5
330
330
326
100
AcDbXrecord
280
1
 90
3
  0
XRECORD
  5
331
330
326
100
AcDbXrecord
280
1
290
1
  0
XRECORD
  5
332
330
326
100
AcDbXrecord
280
1
290
1
  0
XRECORD
  5
333
330
326
100
AcDbXrecord
280
1
290
1
  0
XRECORD
  5
334
330
326
100
AcDbXrecord
280
1
290
1
  0
XRECORD
  5
335
330
326
100
AcDbXrecord
280
1
1000
auto
  0
XRECORD
  5
336
330
326
100
AcDbXrecord
280
1
1000
auto
  0
XRECORD
  5
337
330
326
100
AcDbXrecord
280
1
1000
auto
  0
XRECORD
  5
338
330
326
100
AcDbXrecord
280
1
1000
auto
  0
XRECORD
  5
339
330
326
100
AcDbXrecord
280
1
1000
auto
  0
XRECORD
  5
33A
330
326
100
AcDbXrecord
280
1
1000
auto
  0
XRECORD
  5
33B
330
326
100
AcDbXrecord
280
1
1000
auto
  0
XRECORD
  5
33C
330
326
100
AcDbXrecord
280
1
1000
auto
  0
XRECORD
  5
33D
330
326
100
AcDbXrecord
280
1
290
0
  0
XRECORD
  5
33E
330
326
100
AcDbXrecord
280
1
290
0
  0
XRECORD
  5
33F
330
326
100
AcDbXrecord
280
1
290
0
  0
XRECORD
  5
340
330
326
100
AcDbXrecord
280
1
290
0
  0
XRECORD
  5
341
330
326
100
AcDbXrecord
280
1
 90
0
  0
XRECORD
  5
342
330
326
100
AcDbXrecord
280
1
 90
0
  0
XRECORD
  5
343
330
326
100
AcDbXrecord
280
1
 90
0
  0
XRECORD
  5
344
330
326
100
AcDbXrecord
280
1
 90
0
  0
XRECORD
  5
345
330
326
100
AcDbXrecord
280
1
1000
auto
  0
XRECORD
  5
346
330
326
100
AcDbXrecord
280
1
1000
auto
  0
XRECORD
  5
347
330
326
100
AcDbXrecord
280
1
1000
auto
  0
XRECORD
  5
348
330
326
100
AcDbXrecord
280
1
1000
auto
  0
XRECORD
  5
349
330
326
100
AcDbXrecord
280
1
1000
auto
  0
XRECORD
  5
34A
330
326
100
AcDbXrecord
280
1
1000
auto
  0
XRECORD
  5
34B
330
326
100
AcDbXrecord
280
1
1000
auto
  0
XRECORD
  5
34C
330
326
100
AcDbXrecord
280
1
1000
auto
  0
XRECORD
  5
34D
330
326
100
AcDbXrecord
280
1
 90
1
  0
XRECORD
  5
34E
330
326
100
AcDbXrecord
280
1
 40
0.5
  0
XRECORD
  5
34F
330
326
100
AcDbXrecord
280
1
 40
0.5
  0
XRECORD
  5
350
330
326
100
AcDbXrecord
280
1
 40
0.5
  0
XRECORD
  5
351
330
326
100
AcDbXrecord
280
1
 40
0.5
  0
XRECORD
  5
352
330
326
100
AcDbXrecord
280
1
290
0
  0
XRECORD
  5
353
330
326
100
AcDbXrecord
280
1
 90
1
  0
XRECORD
  5
354
330
326
100
AcDbXrecord
280
1
 40
0.0
  0
XRECORD
  5
355
330
326
100
AcDbXrecord
280
1
 40
0.0
  0
XRECORD
  5
356
330
326
100
AcDbXrecord
280
1
1000
Portrait
  0
XRECORD
  5
357
330
326
100
AcDbXrecord
280
1
 40
11.6929999999999996
  0
XRECORD
  5
358
330
326
100
AcDbXrecord
280
1
1000
ISO A4
  0
XRECORD
  5
359
330
326
100
AcDbXrecord
280
1
 40
8.2680000000000007
  0
XRECORD
  5
35A
330
326
100
AcDbXrecord
280
1
1000
1:1
  0
XRECORD
  5
35B
330
326
100
AcDbXrecord
280
1
290
1
  0
XRECORD
  5
35C
330
326
100
AcDbXrecord
280
1
1000
Button0
  0
XRECORD
  5
35D
330
326
100
AcDbXrecord
280
1
1000
Button2
  0
XRECORD
  5
35E
330
326
100
AcDbXrecord
280
1
1000
2
  0
XRECORD
  5
35F
330
326
100
AcDbXrecord
280
1
1000
2
  0
XRECORD
  5
360
330
326
100
AcDbXrecord
280
1
1000
3.11.3
  0
XRECORD
  5
361
330
326
100
AcDbXrecord
280
1
 90
1
  0
ENDSEC
  0
EOF
