999
dxflib 3.7.5.0
  0
SECTION
  2
HEADER
  9
$ACADVER
  1
AC1015
  9
$HANDSEED
  5
FFFF
  9
$ANGBASE
 50
0.0
  9
$ATTMODE
 70
1
  9
$AUNITS
 70
0
  9
$AUPREC
 70
0
  9
$CELTSCALE
 40
1.0
  9
$CHAMFERA
 40
0.0
  9
$CHAMFERB
 40
0.0
  9
$CHAMFERC
 40
0.0
  9
$CHAMFERD
 40
0.0
  9
$CMLJUST
 70
0
  9
$CMLSCALE
 40
1.0
  9
$DIMADEC
 70
0
  9
$DIMALTD
 70
2
  9
$DIMALTF
 40
25.3999999999999986
  9
$DIMALTRND
 40
0.0
  9
$DIMALTTD
 70
2
  9
$DIMALTTZ
 70
0
  9
$DIMALTU
 70
2
  9
$DIMALTZ
 70
0
  9
$DIMAPOST
  1

  9
$DIMASZ
 40
0.18
  9
$DIMATFIT
 70
3
  9
$DIMAUNIT
 70
0
  9
$DIMAZIN
 70
0
  9
$DIMCEN
 40
0.09
  9
$DIMDEC
 70
4
  9
$DIMDLE
 40
0.0
  9
$DIMDLI
 40
0.38
  9
$DIMDSEP
 70
46
  9
$DIMEXE
 40
0.18
  9
$DIMEXO
 40
0.0625
  9
$DIMFRAC
 70
0
  9
$DIMGAP
 40
0.09
  9
$DIMJUST
 70
0
  9
$DIMLFAC
 40
1.0
  9
$DIMLUNIT
 70
2
  9
$DIMLWD
 70
-2
  9
$DIMLWE
 70
-2
  9
$DIMPOST
  1

  9
$DIMRND
 40
0.0
  9
$DIMSCALE
 40
1.0
  9
$DIMTAD
 70
0
  9
$DIMTDEC
 70
4
  9
$DIMTFAC
 40
1.0
  9
$DIMTM
 40
0.0
  9
$DIMTOLJ
 70
1
  9
$DIMTP
 40
0.0
  9
$DIMTSZ
 40
0.0
  9
$DIMTVP
 40
0.0
  9
$DIMTXT
 40
0.18
  9
$DIMTZIN
 70
0
  9
$DIMZIN
 70
0
  9
$DWGCODEPAGE
  3
ANSI_1252
  9
$ELEVATION
 40
0.0
  9
$EXTMAX
 10
-100000000000000000000.0
 20
-100000000000000000000.0
 30
-100000000000000000000.0
  9
$EXTMIN
 10
100000000000000000000.0
 20
100000000000000000000.0
 30
100000000000000000000.0
  9
$FILLETRAD
 40
0.5
  9
$INSBASE
 10
0.0
 20
0.0
 30
0.0
  9
$INSUNITS
 70
0
  9
$LIMMAX
 10
12.0
 20
9.0
  9
$LIMMIN
 10
0.0
 20
0.0
  9
$LTSCALE
 40
1.0
  9
$LUNITS
 70
2
  9
$LUPREC
 70
4
  9
$MAXACTVP
 70
2
  9
$MEASUREMENT
 70
0
  9
$PDMODE
 70
0
  9
$PDSIZE
 40
0.0
  9
$PELEVATION
 40
0.0
  9
$PEXTMAX
 10
-100000000000000000000.0
 20
-100000000000000000000.0
 30
-100000000000000000000.0
  9
$PEXTMIN
 10
100000000000000000000.0
 20
100000000000000000000.0
 30
100000000000000000000.0
  9
$PINSBASE
 10
0.0
 20
0.0
 30
0.0
  9
$PLIMMAX
 10
12.0
 20
9.0
  9
$PLIMMIN
 10
0.0
 20
0.0
  9
$PLINEWID
 40
0.0
  9
$PROXYGRAPHICS
 70
1
  9
$PUCSORG
 10
0.0
 20
0.0
 30
0.0
  9
$PUCSXDIR
 10
1.0
 20
0.0
 30
0.0
  9
$PUCSYDIR
 10
0.0
 20
1.0
 30
0.0
  9
$SHADEDGE
 70
3
  9
$SHADEDIF
 70
70
  9
$SKETCHINC
 40
0.1
  9
$SPLINESEGS
 70
8
  9
$SPLINETYPE
 70
6
  9
$SURFTAB1
 70
6
  9
$SURFTAB2
 70
6
  9
$SURFTYPE
 70
6
  9
$SURFU
 70
6
  9
$SURFV
 70
6
  9
$TEXTSIZE
 40
0.2
  9
$THICKNESS
 40
0.0
  9
$TRACEWID
 40
0.05
  9
$TREEDEPTH
 70
3020
  9
$UCSORG
 10
0.0
 20
0.0
 30
0.0
  9
$UCSXDIR
 10
1.0
 20
0.0
 30
0.0
  9
$UCSYDIR
 10
0.0
 20
1.0
 30
0.0
  9
$UNITMODE
 70
0
  9
$USERI1
 70
0
  9
$USERI2
 70
0
  9
$USERI3
 70
0
  9
$USERI4
 70
0
  9
$USERI5
 70
0
  9
$USERR1
 40
0.0
  9
$USERR2
 40
0.0
  9
$USERR3
 40
0.0
  9
$USERR4
 40
0.0
  9
$USERR5
 40
0.0
  0
ENDSEC
  0
SECTION
  2
TABLES
  0
TABLE
  2
VPORT
  5
8
100
AcDbSymbolTable
 70
1
  0
VPORT
  5
30
100
AcDbSymbolTableRecord
100
AcDbViewportTableRecord
  2
*Active
 70
0
 10
0.0
 20
0.0
 11
1.0
 21
1.0
 12
286.3055555555554861
 22
148.5
 13
0.0
 23
0.0
 14
10.0
 24
10.0
 15
10.0
 25
10.0
 16
0.0
 26
0.0
 36
1.0
 17
0.0
 27
0.0
 37
0.0
 40
297.0
 41
1.92798353909465
 42
50.0
 43
0.0
 44
0.0
 50
0.0
 51
0.0
 71
0
 72
100
 73
1
 74
3
 75
1
 76
1
 77
0
 78
0
281
0
 65
1
110
0.0
120
0.0
130
0.0
111
1.0
121
0.0
131
0.0
112
0.0
122
1.0
132
0.0
 79
0
146
0.0
  0
ENDTAB
  0
TABLE
  2
LTYPE
  5
5
100
AcDbSymbolTable
 70
50
  0
LTYPE
  5
16
100
AcDbSymbolTableRecord
100
AcDbLinetypeTableRecord
  2
Continuous
 70
0
  3
Solid line
 72
65
 73
0
 40
0.0
  0
LTYPE
  5
31
100
AcDbSymbolTableRecord
100
AcDbLinetypeTableRecord
  2
ACAD_ISO15W100
 70
0
  3
ISO double-dash triple-dot __ __ . . . __ __ . .
 72
65
 73
10
 40
39.0
 49
12.0
 74
0
 49
-3.0
 74
0
 49
12.0
 74
0
 49
-3.0
 74
0
 49
0.0
 74
0
 49
-3.0
 74
0
 49
0.0
 74
0
 49
-3.0
 74
0
 49
0.0
 74
0
 49
-3.0
 74
0
  0
LTYPE
  5
32
100
AcDbSymbolTableRecord
100
AcDbLinetypeTableRecord
  2
HOT_WATER_SUPPLY
 70
0
  3
Hot water supply ---- HW ---- HW ---- HW ----
 72
65
 73
3
 40
22.8599999999999994
 49
12.6999999999999993
 74
0
 49
-5.0800000000000001
 74
0
 49
-5.0800000000000001
 74
0
  0
LTYPE
  5
33
100
AcDbSymbolTableRecord
100
AcDbLinetypeTableRecord
  2
DIVIDE
 70
0
  3
Divide ____ . . ____ . . ____ . . ____ . . ____
 72
65
 73
6
 40
31.75
 49
12.6999999999999993
 74
0
 49
-6.3499999999999996
 74
0
 49
0.0
 74
0
 49
-6.3499999999999996
 74
0
 49
0.0
 74
0
 49
-6.3499999999999996
 74
0
  0
LTYPE
  5
34
100
AcDbSymbolTableRecord
100
AcDbLinetypeTableRecord
  2
ACAD_ISO10W100
 70
0
  3
ISO dash dot __ . __ . __ . __ . __ . __ . __ . 
 72
65
 73
4
 40
18.0
 49
12.0
 74
0
 49
-3.0
 74
0
 49
0.0
 74
0
 49
-3.0
 74
0
  0
LTYPE
  5
35
100
AcDbSymbolTableRecord
100
AcDbLinetypeTableRecord
  2
GAS_LINE
 70
0
  3
Gas line ----GAS----GAS----GAS----GAS----GAS----GAS--
 72
65
 73
3
 40
24.1300000000000026
 49
12.6999999999999993
 74
0
 49
-5.0800000000000001
 74
0
 49
-6.3499999999999996
 74
0
  0
LTYPE
  5
36
100
AcDbSymbolTableRecord
100
AcDbLinetypeTableRecord
  2
ACAD_ISO04W100
 70
0
  3
ISO long-dash dot ____ . ____ . ____ . ____ . _
 72
65
 73
4
 40
30.0
 49
24.0
 74
0
 49
-3.0
 74
0
 49
0.0
 74
0
 49
-3.0
 74
0
  0
LTYPE
  5
14
100
AcDbSymbolTableRecord
100
AcDbLinetypeTableRecord
  2
ByBlock
 70
0
  3

 72
65
 73
0
 40
0.0
  0
LTYPE
  5
37
100
AcDbSymbolTableRecord
100
AcDbLinetypeTableRecord
  2
CENTER2
 70
0
  3
Center (.5x) ___ _ ___ _ ___ _ ___ _ ___ _ ___
 72
65
 73
4
 40
28.5750000000000028
 49
19.0500000000000007
 74
0
 49
-3.1749999999999998
 74
0
 49
3.1749999999999998
 74
0
 49
-3.1749999999999998
 74
0
  0
LTYPE
  5
38
100
AcDbSymbolTableRecord
100
AcDbLinetypeTableRecord
  2
ACAD_ISO11W100
 70
0
  3
ISO double-dash dot __ __ . __ __ . __ __ . __ _
 72
65
 73
6
 40
33.0
 49
12.0
 74
0
 49
-3.0
 74
0
 49
12.0
 74
0
 49
-3.0
 74
0
 49
0.0
 74
0
 49
-3.0
 74
0
  0
LTYPE
  5
39
100
AcDbSymbolTableRecord
100
AcDbLinetypeTableRecord
  2
HIDDEN2
 70
0
  3
Hidden (.5x) _ _ _ _ _ _ _ _ _ _ _ _ _ _ _ _ _ 
 72
65
 73
2
 40
4.7624999999999993
 49
3.1749999999999998
 74
0
 49
-1.5874999999999999
 74
0
  0
LTYPE
  5
3A
100
AcDbSymbolTableRecord
100
AcDbLinetypeTableRecord
  2
BORDERX2
 70
0
  3
Border (2x) ____  ____  .  ____  ____  .  ___
 72
65
 73
6
 40
88.8999999999999915
 49
25.3999999999999986
 74
0
 49
-12.6999999999999993
 74
0
 49
25.3999999999999986
 74
0
 49
-12.6999999999999993
 74
0
 49
0.0
 74
0
 49
-12.6999999999999993
 74
0
  0
LTYPE
  5
3B
100
AcDbSymbolTableRecord
100
AcDbLinetypeTableRecord
  2
ACAD_ISO05W100
 70
0
  3
ISO long-dash double-dot ____ .. ____ .. ____ . 
 72
65
 73
6
 40
33.0
 49
24.0
 74
0
 49
-3.0
 74
0
 49
0.0
 74
0
 49
-3.0
 74
0
 49
0.0
 74
0
 49
-3.0
 74
0
  0
LTYPE
  5
3C
100
AcDbSymbolTableRecord
100
AcDbLinetypeTableRecord
  2
DASHDOTX2
 70
0
  3
Dash dot (2x) ____  .  ____  .  ____  .  ___
 72
65
 73
4
 40
50.7999999999999972
 49
25.3999999999999986
 74
0
 49
-12.6999999999999993
 74
0
 49
0.0
 74
0
 49
-12.6999999999999993
 74
0
  0
LTYPE
  5
3D
100
AcDbSymbolTableRecord
100
AcDbLinetypeTableRecord
  2
HIDDENX2
 70
0
  3
Hidden (2x) ____ ____ ____ ____ ____ ____ ____ 
 72
65
 73
2
 40
19.0499999999999972
 49
12.6999999999999993
 74
0
 49
-6.3499999999999996
 74
0
  0
LTYPE
  5
3E
100
AcDbSymbolTableRecord
100
AcDbLinetypeTableRecord
  2
CENTERX2
 70
0
  3
Center (2x) ________  __  ________  __  _____
 72
65
 73
4
 40
101.6000000000000085
 49
63.5
 74
0
 49
-12.6999999999999993
 74
0
 49
12.6999999999999993
 74
0
 49
-12.6999999999999993
 74
0
  0
LTYPE
  5
3F
100
AcDbSymbolTableRecord
100
AcDbLinetypeTableRecord
  2
BORDER2
 70
0
  3
Border (.5x) __.__.__.__.__.__.__.__.__.__.__.
 72
65
 73
6
 40
22.2249999999999979
 49
6.3499999999999996
 74
0
 49
-3.1749999999999998
 74
0
 49
6.3499999999999996
 74
0
 49
-3.1749999999999998
 74
0
 49
0.0
 74
0
 49
-3.1749999999999998
 74
0
  0
LTYPE
  5
40
100
AcDbSymbolTableRecord
100
AcDbLinetypeTableRecord
  2
DASHDOT2
 70
0
  3
Dash dot (.5x) _._._._._._._._._._._._._._._.
 72
65
 73
4
 40
12.6999999999999993
 49
6.3499999999999996
 74
0
 49
-3.1749999999999998
 74
0
 49
0.0
 74
0
 49
-3.1749999999999998
 74
0
  0
LTYPE
  5
41
100
AcDbSymbolTableRecord
100
AcDbLinetypeTableRecord
  2
ACAD_ISO12W100
 70
0
  3
ISO dash double-dot __ . . __ . . __ . . __ . . 
 72
65
 73
6
 40
21.0
 49
12.0
 74
0
 49
-3.0
 74
0
 49
0.0
 74
0
 49
-3.0
 74
0
 49
0.0
 74
0
 49
-3.0
 74
0
  0
LTYPE
  5
42
100
AcDbSymbolTableRecord
100
AcDbLinetypeTableRecord
  2
ACAD_ISO07W100
 70
0
  3
ISO dot . . . . . . . . . . . . . . . . . . . . 
 72
65
 73
2
 40
3.0
 49
0.0
 74
0
 49
-3.0
 74
0
  0
LTYPE
  5
43
100
AcDbSymbolTableRecord
100
AcDbLinetypeTableRecord
  2
ACAD_ISO06W100
 70
0
  3
ISO long-dash triple-dot ____ ... ____ ... ____
 72
65
 73
8
 40
36.0
 49
24.0
 74
0
 49
-3.0
 74
0
 49
0.0
 74
0
 49
-3.0
 74
0
 49
0.0
 74
0
 49
-3.0
 74
0
 49
0.0
 74
0
 49
-3.0
 74
0
  0
LTYPE
  5
44
100
AcDbSymbolTableRecord
100
AcDbLinetypeTableRecord
  2
CENTER
 70
0
  3
Center ____ _ ____ _ ____ _ ____ _ ____ _ ____
 72
65
 73
4
 40
50.8000000000000043
 49
31.75
 74
0
 49
-6.3499999999999996
 74
0
 49
6.3499999999999996
 74
0
 49
-6.3499999999999996
 74
0
  0
LTYPE
  5
45
100
AcDbSymbolTableRecord
100
AcDbLinetypeTableRecord
  2
HIDDEN
 70
0
  3
Hidden __ __ __ __ __ __ __ __ __ __ __ __ __ __
 72
65
 73
2
 40
9.5249999999999986
 49
6.3499999999999996
 74
0
 49
-3.1749999999999998
 74
0
  0
LTYPE
  5
46
100
AcDbSymbolTableRecord
100
AcDbLinetypeTableRecord
  2
DOTX2
 70
0
  3
Dot (2x) .  .  .  .  .  .  .  .  .  .  .  .  .  .
 72
65
 73
2
 40
12.6999999999999993
 49
0.0
 74
0
 49
-12.6999999999999993
 74
0
  0
LTYPE
  5
47
100
AcDbSymbolTableRecord
100
AcDbLinetypeTableRecord
  2
PHANTOM
 70
0
  3
Phantom ______  __  __  ______  __  __  ______ 
 72
65
 73
6
 40
63.5000000000000071
 49
31.75
 74
0
 49
-6.3499999999999996
 74
0
 49
6.3499999999999996
 74
0
 49
-6.3499999999999996
 74
0
 49
6.3499999999999996
 74
0
 49
-6.3499999999999996
 74
0
  0
LTYPE
  5
48
100
AcDbSymbolTableRecord
100
AcDbLinetypeTableRecord
  2
ACAD_ISO08W100
 70
0
  3
ISO long-dash short-dash ____ __ ____ __ ____ _
 72
65
 73
4
 40
36.0
 49
24.0
 74
0
 49
-3.0
 74
0
 49
6.0
 74
0
 49
-3.0
 74
0
  0
LTYPE
  5
49
100
AcDbSymbolTableRecord
100
AcDbLinetypeTableRecord
  2
DASHEDX2
 70
0
  3
Dashed (2x) ____  ____  ____  ____  ____  ___
 72
65
 73
2
 40
38.0999999999999943
 49
25.3999999999999986
 74
0
 49
-12.6999999999999993
 74
0
  0
LTYPE
  5
4A
100
AcDbSymbolTableRecord
100
AcDbLinetypeTableRecord
  2
DRAINAGE
 70
0
  3
Drainage ---->---->---->----
 72
65
 73
2
 40
10.1600000000000001
 49
5.0800000000000001
 74
0
 49
5.0800000000000001
 74
0
  0
LTYPE
  5
4B
100
AcDbSymbolTableRecord
100
AcDbLinetypeTableRecord
  2
ACAD_ISO02W100
 70
0
  3
ISO dash __ __ __ __ __ __ __ __ __ __ __ __ __
 72
65
 73
2
 40
15.0
 49
12.0
 74
0
 49
-3.0
 74
0
  0
LTYPE
  5
4C
100
AcDbSymbolTableRecord
100
AcDbLinetypeTableRecord
  2
PHANTOM2
 70
0
  3
Phantom (.5x) ___ _ _ ___ _ _ ___ _ _ ___ _ _
 72
65
 73
6
 40
31.7500000000000036
 49
15.875
 74
0
 49
-3.1749999999999998
 74
0
 49
3.1749999999999998
 74
0
 49
-3.1749999999999998
 74
0
 49
3.1749999999999998
 74
0
 49
-3.1749999999999998
 74
0
  0
LTYPE
  5
4D
100
AcDbSymbolTableRecord
100
AcDbLinetypeTableRecord
  2
DASHED2
 70
0
  3
Dashed (.5x) _ _ _ _ _ _ _ _ _ _ _ _ _ _ _ _ _ 
 72
65
 73
2
 40
9.5249999999999986
 49
6.3499999999999996
 74
0
 49
-3.1749999999999998
 74
0
  0
LTYPE
  5
4E
100
AcDbSymbolTableRecord
100
AcDbLinetypeTableRecord
  2
ACAD_ISO09W100
 70
0
  3
ISO long-dash double-short-dash ____ __ __ ____
 72
65
 73
6
 40
45.0
 49
24.0
 74
0
 49
-3.0
 74
0
 49
6.0
 74
0
 49
-3.0
 74
0
 49
6.0
 74
0
 49
-3.0
 74
0
  0
LTYPE
  5
4F
100
AcDbSymbolTableRecord
100
AcDbLinetypeTableRecord
  2
ACAD_ISO13W100
 70
0
  3
ISO double-dash double-dot __ __ . . __ __ . . _
 72
65
 73
8
 40
36.0
 49
12.0
 74
0
 49
-3.0
 74
0
 49
12.0
 74
0
 49
-3.0
 74
0
 49
0.0
 74
0
 49
-3.0
 74
0
 49
0.0
 74
0
 49
-3.0
 74
0
  0
LTYPE
  5
50
100
AcDbSymbolTableRecord
100
AcDbLinetypeTableRecord
  2
TRACKS
 70
0
  3
Tracks -|-|-|-|-|-|-|-|-|-|-|-|-|-|-|-|-|-|-|-|-|-|-|-|-
 72
65
 73
2
 40
7.6200000000000001
 49
3.8100000000000001
 74
0
 49
3.8100000000000001
 74
0
  0
LTYPE
  5
51
100
AcDbSymbolTableRecord
100
AcDbLinetypeTableRecord
  2
DRAINAGE2
 70
0
  3
Drainage reversed----<----<----<----
 72
65
 73
2
 40
10.1600000000000001
 49
5.0800000000000001
 74
0
 49
5.0800000000000001
 74
0
  0
LTYPE
  5
52
100
AcDbSymbolTableRecord
100
AcDbLinetypeTableRecord
  2
DOT2
 70
0
  3
Dot (.5x) ........................................
 72
65
 73
2
 40
3.1749999999999998
 49
0.0
 74
0
 49
-3.1749999999999998
 74
0
  0
LTYPE
  5
53
100
AcDbSymbolTableRecord
100
AcDbLinetypeTableRecord
  2
ZIGZAG
 70
0
  3
Zig zag /\/\/\/\/\/\/\/\/\/\/\/\/\/\/\/\/\/\/\/\/\/\/\/
 72
65
 73
4
 40
20.32254
 49
0.00254
 74
0
 49
-5.0800000000000001
 74
0
 49
-10.1600000000000001
 74
0
 49
-5.0800000000000001
 74
0
  0
LTYPE
  5
54
100
AcDbSymbolTableRecord
100
AcDbLinetypeTableRecord
  2
DASHED
 70
0
  3
Dashed __ __ __ __ __ __ __ __ __ __ __ __ __ _
 72
65
 73
2
 40
19.0499999999999972
 49
12.6999999999999993
 74
0
 49
-6.3499999999999996
 74
0
  0
LTYPE
  5
55
100
AcDbSymbolTableRecord
100
AcDbLinetypeTableRecord
  2
ACAD_ISO14W100
 70
0
  3
ISO dash triple-dot __ . . . __ . . . __ . . . _
 72
65
 73
8
 40
24.0
 49
12.0
 74
0
 49
-3.0
 74
0
 49
0.0
 74
0
 49
-3.0
 74
0
 49
0.0
 74
0
 49
-3.0
 74
0
 49
0.0
 74
0
 49
-3.0
 74
0
  0
LTYPE
  5
56
100
AcDbSymbolTableRecord
100
AcDbLinetypeTableRecord
  2
PHANTOMX2
 70
0
  3
Phantom (2x) ____________    ____    ____   _
 72
65
 73
6
 40
127.0000000000000142
 49
63.5
 74
0
 49
-12.6999999999999993
 74
0
 49
12.6999999999999993
 74
0
 49
-12.6999999999999993
 74
0
 49
12.6999999999999993
 74
0
 49
-12.6999999999999993
 74
0
  0
LTYPE
  5
57
100
AcDbSymbolTableRecord
100
AcDbLinetypeTableRecord
  2
DIVIDEX2
 70
0
  3
Divide (2x) ________  .  .  ________  .  .  _
 72
65
 73
6
 40
63.5
 49
25.3999999999999986
 74
0
 49
-12.6999999999999993
 74
0
 49
0.0
 74
0
 49
-12.6999999999999993
 74
0
 49
0.0
 74
0
 49
-12.6999999999999993
 74
0
  0
LTYPE
  5
58
100
AcDbSymbolTableRecord
100
AcDbLinetypeTableRecord
  2
BORDER
 70
0
  3
Border __ __ . __ __ . __ __ . __ __ . __ __ .
 72
65
 73
6
 40
44.4499999999999957
 49
12.6999999999999993
 74
0
 49
-6.3499999999999996
 74
0
 49
12.6999999999999993
 74
0
 49
-6.3499999999999996
 74
0
 49
0.0
 74
0
 49
-6.3499999999999996
 74
0
  0
LTYPE
  5
59
100
AcDbSymbolTableRecord
100
AcDbLinetypeTableRecord
  2
DIVIDE2
 70
0
  3
Divide (.5x) __..__..__..__..__..__..__..__.._
 72
65
 73
6
 40
15.875
 49
6.3499999999999996
 74
0
 49
-3.1749999999999998
 74
0
 49
0.0
 74
0
 49
-3.1749999999999998
 74
0
 49
0.0
 74
0
 49
-3.1749999999999998
 74
0
  0
LTYPE
  5
5A
100
AcDbSymbolTableRecord
100
AcDbLinetypeTableRecord
  2
DOT
 70
0
  3
Dot . . . . . . . . . . . . . . . . . . . . . . . .
 72
65
 73
2
 40
6.3499999999999996
 49
0.0
 74
0
 49
-6.3499999999999996
 74
0
  0
LTYPE
  5
5B
100
AcDbSymbolTableRecord
100
AcDbLinetypeTableRecord
  2
DASHDOT
 70
0
  3
Dash dot __ . __ . __ . __ . __ . __ . __ . __
 72
65
 73
4
 40
25.3999999999999986
 49
12.6999999999999993
 74
0
 49
-6.3499999999999996
 74
0
 49
0.0
 74
0
 49
-6.3499999999999996
 74
0
  0
LTYPE
  5
5C
100
AcDbSymbolTableRecord
100
AcDbLinetypeTableRecord
  2
FENCELINE1
 70
0
  3
Fenceline circle ----0-----0----0-----0----0-----0--
 72
65
 73
4
 40
36.8299999999999983
 49
6.3499999999999996
 74
0
 49
-2.54
 74
0
 49
-2.54
 74
0
 49
25.3999999999999986
 74
0
  0
LTYPE
  5
5D
100
AcDbSymbolTableRecord
100
AcDbLinetypeTableRecord
  2
BATTING
 70
0
  3
Batting SSSSSSSSSSSSSSSSSSSSSSSSSSSSSSSSSSSSSSSSSSSSSSS
 72
65
 73
4
 40
10.1625399999999999
 49
0.00254
 74
0
 49
-2.54
 74
0
 49
-5.0800000000000001
 74
0
 49
-2.54
 74
0
  0
LTYPE
  5
5E
100
AcDbSymbolTableRecord
100
AcDbLinetypeTableRecord
  2
ACAD_ISO03W100
 70
0
  3
ISO dash space __    __    __    __    __    __
 72
65
 73
2
 40
30.0
 49
12.0
 74
0
 49
-18.0
 74
0
  0
LTYPE
  5
15
100
AcDbSymbolTableRecord
100
AcDbLinetypeTableRecord
  2
ByLayer
 70
0
  3

 72
65
 73
0
 40
0.0
  0
LTYPE
  5
5F
100
AcDbSymbolTableRecord
100
AcDbLinetypeTableRecord
  2
FENCELINE2
 70
0
  3
Fenceline square ----[]-----[]----[]-----[]----[]---
 72
65
 73
4
 40
36.8299999999999983
 49
6.3499999999999996
 74
0
 49
-2.54
 74
0
 49
-2.54
 74
0
 49
25.3999999999999986
 74
0
  0
ENDTAB
  0
TABLE
  2
LAYER
  5
2
100
AcDbSymbolTable
 70
1
  0
LAYER
  5
10
100
AcDbSymbolTableRecord
100
AcDbLayerTableRecord
  2
0
 70
0
 62
7
420
16777215
  6
Continuous
370
-3
390
F
  0
ENDTAB
  0
TABLE
  2
STYLE
  5
3
100
AcDbSymbolTable
 70
1
  0
STYLE
  5
60
100
AcDbSymbolTableRecord
100
AcDbTextStyleTableRecord
  2
Standard
 70
0
 40
0.0
 41
1.0
 50
0.0
 71
0
 42
2.5
  3

  4

1001
ACAD
1000
txt
1071
0
  0
ENDTAB
  0
TABLE
  2
VIEW
  5
6
100
AcDbSymbolTable
 70
0
  0
ENDTAB
  0
TABLE
  2
UCS
  5
7
100
AcDbSymbolTable
 70
0
  0
ENDTAB
  0
TABLE
  2
APPID
  5
9
100
AcDbSymbolTable
 70
1
  0
APPID
  5
12
100
AcDbSymbolTableRecord
100
AcDbRegAppTableRecord
  2
ACAD
 70
0
  0
APPID
  5
61
100
AcDbSymbolTableRecord
100
AcDbRegAppTableRecord
  2
QCAD
 70
0
  0
ENDTAB
  0
TABLE
  2
DIMSTYLE
  5
A
100
AcDbSymbolTable
 70
1
100
AcDbDimStyleTable
 71
0
  0
DIMSTYLE
105
27
100
AcDbSymbolTableRecord
100
AcDbDimStyleTableRecord
  2
Standard
 41
0.18
 42
0.0625
 43
3.75
 44
0.18
 70
0
 73
0
 74
0
 77
1
 78
8
140
0.18
141
2.5
143
0.03937007874016
147
0.09
171
3
172
1
271
2
272
2
274
3
278
44
283
0
284
8
340
60
  0
ENDTAB
  0
TABLE
  2
BLOCK_RECORD
  5
1
100
AcDbSymbolTable
 70
1
  0
BLOCK_RECORD
  5
1F
100
AcDbSymbolTableRecord
100
AcDbBlockTableRecord
  2
*Model_Space
340
22
  0
BLOCK_RECORD
  5
1B
100
AcDbSymbolTableRecord
100
AcDbBlockTableRecord
  2
*Paper_Space
340
1E
  0
BLOCK_RECORD
  5
23
100
AcDbSymbolTableRecord
100
AcDbBlockTableRecord
  2
*Paper_Space0
340
26
  0
ENDTAB
  0
ENDSEC
  0
SECTION
  2
BLOCKS
  0
BLOCK
  5
20
100
AcDbEntity
  8
0
100
AcDbBlockBegin
  2
*Model_Space
 70
0
 10
0.0
 20
0.0
 30
0.0
  3
*Model_Space
  1

  0
ENDBLK
  5
21
100
AcDbEntity
  8
0
100
AcDbBlockEnd
  0
BLOCK
  5
1C
100
AcDbEntity
 67
1
  8
0
100
AcDbBlockBegin
  2
*Paper_Space
 70
0
 10
0.0
 20
0.0
 30
0.0
  3
*Paper_Space
  1

  0
ENDBLK
  5
1D
100
AcDbEntity
 67
1
  8
0
100
AcDbBlockEnd
  0
BLOCK
  5
24
100
AcDbEntity
  8
0
100
AcDbBlockBegin
  2
*Paper_Space0
 70
0
 10
0.0
 20
0.0
 30
0.0
  3
*Paper_Space0
  1

  0
ENDBLK
  5
25
100
AcDbEntity
  8
0
100
AcDbBlockEnd
  0
ENDSEC
  0
SECTION
  2
ENTITIES
  0
LINE
  5
62
100
AcDbEntity
100
AcDbLine
  8
0
 62
256
370
-1
 48
1.0
  6
ByLayer
 10
18.4693000000000005
 20
-20.9631000000000007
 30
0.0
 11
18.9269999999999996
 21
-20.8532000000000011
 31
0.0
  0
LINE
  5
63
100
AcDbEntity
100
AcDbLine
  8
0
 62
256
370
-1
 48
1.0
  6
ByLayer
 10
18.9269999999999996
 20
-20.8532000000000011
 30
0.0
 11
19.3619999999999983
 21
-20.6729999999999983
 31
0.0
  0
LINE
  5
64
100
AcDbEntity
100
AcDbLine
  8
0
 62
256
370
-1
 48
1.0
  6
ByLayer
 10
19.3619999999999983
 20
-20.6729999999999983
 30
0.0
 11
19.7634000000000007
 21
-20.4269999999999996
 31
0.0
  0
LINE
  5
65
100
AcDbEntity
100
AcDbLine
  8
0
 62
256
370
-1
 48
1.0
  6
ByLayer
 10
19.7634000000000007
 20
-20.4269999999999996
 30
0.0
 11
20.1213000000000015
 21
-20.1213000000000015
 31
0.0
  0
LINE
  5
66
100
AcDbEntity
100
AcDbLine
  8
0
 62
256
370
-1
 48
1.0
  6
ByLayer
 10
20.1213000000000015
 20
-20.1213000000000015
 30
0.0
 11
20.4269999999999996
 21
-19.7634000000000007
 31
0.0
  0
LINE
  5
67
100
AcDbEntity
100
AcDbLine
  8
0
 62
256
370
-1
 48
1.0
  6
ByLayer
 10
20.4269999999999996
 20
-19.7634000000000007
 30
0.0
 11
20.6729999999999983
 21
-19.3619999999999983
 31
0.0
  0
LINE
  5
68
100
AcDbEntity
100
AcDbLine
  8
0
 62
256
370
-1
 48
1.0
  6
ByLayer
 10
20.6729999999999983
 20
-19.3619999999999983
 30
0.0
 11
20.8532000000000011
 21
-18.9269999999999996
 31
0.0
  0
LINE
  5
69
100
AcDbEntity
100
AcDbLine
  8
0
 62
256
370
-1
 48
1.0
  6
ByLayer
 10
20.8532000000000011
 20
-18.9269999999999996
 30
0.0
 11
20.9631000000000007
 21
-18.4693000000000005
 31
0.0
  0
LINE
  5
6A
100
AcDbEntity
100
AcDbLine
  8
0
 62
256
370
-1
 48
1.0
  6
ByLayer
 10
20.9631000000000007
 20
-18.4693000000000005
 30
0.0
 11
21.0
 21
-18.0
 31
0.0
  0
LINE
  5
6B
100
AcDbEntity
100
AcDbLine
  8
0
 62
256
370
-1
 48
1.0
  6
ByLayer
 10
21.0
 20
-18.0
 30
0.0
 11
21.0
 21
18.0
 31
0.0
  0
LINE
  5
6C
100
AcDbEntity
100
AcDbLine
  8
0
 62
256
370
-1
 48
1.0
  6
ByLayer
 10
21.0
 20
18.0
 30
0.0
 11
20.9631000000000007
 21
18.4693000000000005
 31
0.0
  0
LINE
  5
6D
100
AcDbEntity
100
AcDbLine
  8
0
 62
256
370
-1
 48
1.0
  6
ByLayer
 10
20.9631000000000007
 20
18.4693000000000005
 30
0.0
 11
20.8532000000000011
 21
18.9269999999999996
 31
0.0
  0
LINE
  5
6E
100
AcDbEntity
100
AcDbLine
  8
0
 62
256
370
-1
 48
1.0
  6
ByLayer
 10
20.8532000000000011
 20
18.9269999999999996
 30
0.0
 11
20.6729999999999983
 21
19.3619999999999983
 31
0.0
  0
LINE
  5
6F
100
AcDbEntity
100
AcDbLine
  8
0
 62
256
370
-1
 48
1.0
  6
ByLayer
 10
20.6729999999999983
 20
19.3619999999999983
 30
0.0
 11
20.4269999999999996
 21
19.7634000000000007
 31
0.0
  0
LINE
  5
70
100
AcDbEntity
100
AcDbLine
  8
0
 62
256
370
-1
 48
1.0
  6
ByLayer
 10
20.4269999999999996
 20
19.7634000000000007
 30
0.0
 11
20.1213000000000015
 21
20.1213000000000015
 31
0.0
  0
LINE
  5
71
100
AcDbEntity
100
AcDbLine
  8
0
 62
256
370
-1
 48
1.0
  6
ByLayer
 10
20.1213000000000015
 20
20.1213000000000015
 30
0.0
 11
19.7634000000000007
 21
20.4269999999999996
 31
0.0
  0
LINE
  5
72
100
AcDbEntity
100
AcDbLine
  8
0
 62
256
370
-1
 48
1.0
  6
ByLayer
 10
19.7634000000000007
 20
20.4269999999999996
 30
0.0
 11
19.3619999999999983
 21
20.6729999999999983
 31
0.0
  0
LINE
  5
73
100
AcDbEntity
100
AcDbLine
  8
0
 62
256
370
-1
 48
1.0
  6
ByLayer
 10
19.3619999999999983
 20
20.6729999999999983
 30
0.0
 11
18.9269999999999996
 21
20.8532000000000011
 31
0.0
  0
LINE
  5
74
100
AcDbEntity
100
AcDbLine
  8
0
 62
256
370
-1
 48
1.0
  6
ByLayer
 10
18.9269999999999996
 20
20.8532000000000011
 30
0.0
 11
18.4693000000000005
 21
20.9631000000000007
 31
0.0
  0
LINE
  5
75
100
AcDbEntity
100
AcDbLine
  8
0
 62
256
370
-1
 48
1.0
  6
ByLayer
 10
18.4693000000000005
 20
20.9631000000000007
 30
0.0
 11
18.0
 21
21.0
 31
0.0
  0
LINE
  5
76
100
AcDbEntity
100
AcDbLine
  8
0
 62
256
370
-1
 48
1.0
  6
ByLayer
 10
18.0
 20
21.0
 30
0.0
 11
-18.0
 21
21.0
 31
0.0
  0
LINE
  5
77
100
AcDbEntity
100
AcDbLine
  8
0
 62
256
370
-1
 48
1.0
  6
ByLayer
 10
-18.0
 20
21.0
 30
0.0
 11
-18.4693000000000005
 21
20.9631000000000007
 31
0.0
  0
LINE
  5
78
100
AcDbEntity
100
AcDbLine
  8
0
 62
256
370
-1
 48
1.0
  6
ByLayer
 10
-18.4693000000000005
 20
20.9631000000000007
 30
0.0
 11
-18.9269999999999996
 21
20.8532000000000011
 31
0.0
  0
LINE
  5
79
100
AcDbEntity
100
AcDbLine
  8
0
 62
256
370
-1
 48
1.0
  6
ByLayer
 10
-18.9269999999999996
 20
20.8532000000000011
 30
0.0
 11
-19.3619999999999983
 21
20.6729999999999983
 31
0.0
  0
LINE
  5
7A
100
AcDbEntity
100
AcDbLine
  8
0
 62
256
370
-1
 48
1.0
  6
ByLayer
 10
-19.3619999999999983
 20
20.6729999999999983
 30
0.0
 11
-19.7634000000000007
 21
20.4269999999999996
 31
0.0
  0
LINE
  5
7B
100
AcDbEntity
100
AcDbLine
  8
0
 62
256
370
-1
 48
1.0
  6
ByLayer
 10
-19.7634000000000007
 20
20.4269999999999996
 30
0.0
 11
-20.1213000000000015
 21
20.1213000000000015
 31
0.0
  0
LINE
  5
7C
100
AcDbEntity
100
AcDbLine
  8
0
 62
256
370
-1
 48
1.0
  6
ByLayer
 10
-20.1213000000000015
 20
20.1213000000000015
 30
0.0
 11
-20.4269999999999996
 21
19.7634000000000007
 31
0.0
  0
LINE
  5
7D
100
AcDbEntity
100
AcDbLine
  8
0
 62
256
370
-1
 48
1.0
  6
ByLayer
 10
-20.4269999999999996
 20
19.7634000000000007
 30
0.0
 11
-20.6729999999999983
 21
19.3619999999999983
 31
0.0
  0
LINE
  5
7E
100
AcDbEntity
100
AcDbLine
  8
0
 62
256
370
-1
 48
1.0
  6
ByLayer
 10
-20.6729999999999983
 20
19.3619999999999983
 30
0.0
 11
-20.8532000000000011
 21
18.9269999999999996
 31
0.0
  0
LINE
  5
7F
100
AcDbEntity
100
AcDbLine
  8
0
 62
256
370
-1
 48
1.0
  6
ByLayer
 10
-20.8532000000000011
 20
18.9269999999999996
 30
0.0
 11
-20.9631000000000007
 21
18.4693000000000005
 31
0.0
  0
LINE
  5
80
100
AcDbEntity
100
AcDbLine
  8
0
 62
256
370
-1
 48
1.0
  6
ByLayer
 10
-20.9631000000000007
 20
18.4693000000000005
 30
0.0
 11
-21.0
 21
18.0
 31
0.0
  0
LINE
  5
81
100
AcDbEntity
100
AcDbLine
  8
0
 62
256
370
-1
 48
1.0
  6
ByLayer
 10
-21.0
 20
18.0
 30
0.0
 11
-21.0
 21
-18.0
 31
0.0
  0
LINE
  5
82
100
AcDbEntity
100
AcDbLine
  8
0
 62
256
370
-1
 48
1.0
  6
ByLayer
 10
-21.0
 20
-18.0
 30
0.0
 11
-20.9631000000000007
 21
-18.4693000000000005
 31
0.0
  0
LINE
  5
83
100
AcDbEntity
100
AcDbLine
  8
0
 62
256
370
-1
 48
1.0
  6
ByLayer
 10
-20.9631000000000007
 20
-18.4693000000000005
 30
0.0
 11
-20.8532000000000011
 21
-18.9269999999999996
 31
0.0
  0
LINE
  5
84
100
AcDbEntity
100
AcDbLine
  8
0
 62
256
370
-1
 48
1.0
  6
ByLayer
 10
-20.8532000000000011
 20
-18.9269999999999996
 30
0.0
 11
-20.6729999999999983
 21
-19.3619999999999983
 31
0.0
  0
LINE
  5
85
100
AcDbEntity
100
AcDbLine
  8
0
 62
256
370
-1
 48
1.0
  6
ByLayer
 10
-20.6729999999999983
 20
-19.3619999999999983
 30
0.0
 11
-20.4269999999999996
 21
-19.7634000000000007
 31
0.0
  0
LINE
  5
86
100
AcDbEntity
100
AcDbLine
  8
0
 62
256
370
-1
 48
1.0
  6
ByLayer
 10
-20.4269999999999996
 20
-19.7634000000000007
 30
0.0
 11
-20.1213000000000015
 21
-20.1213000000000015
 31
0.0
  0
LINE
  5
87
100
AcDbEntity
100
AcDbLine
  8
0
 62
256
370
-1
 48
1.0
  6
ByLayer
 10
-20.1213000000000015
 20
-20.1213000000000015
 30
0.0
 11
-19.7634000000000007
 21
-20.4269999999999996
 31
0.0
  0
LINE
  5
88
100
AcDbEntity
100
AcDbLine
  8
0
 62
256
370
-1
 48
1.0
  6
ByLayer
 10
-19.7634000000000007
 20
-20.4269999999999996
 30
0.0
 11
-19.3619999999999983
 21
-20.6729999999999983
 31
0.0
  0
LINE
  5
89
100
AcDbEntity
100
AcDbLine
  8
0
 62
256
370
-1
 48
1.0
  6
ByLayer
 10
-19.3619999999999983
 20
-20.6729999999999983
 30
0.0
 11
-18.9269999999999996
 21
-20.8532000000000011
 31
0.0
  0
LINE
  5
8A
100
AcDbEntity
100
AcDbLine
  8
0
 62
256
370
-1
 48
1.0
  6
ByLayer
 10
-18.9269999999999996
 20
-20.8532000000000011
 30
0.0
 11
-18.4693000000000005
 21
-20.9631000000000007
 31
0.0
  0
LINE
  5
8B
100
AcDbEntity
100
AcDbLine
  8
0
 62
256
370
-1
 48
1.0
  6
ByLayer
 10
-18.4693000000000005
 20
-20.9631000000000007
 30
0.0
 11
-18.0
 21
-21.0
 31
0.0
  0
LINE
  5
8C
100
AcDbEntity
100
AcDbLine
  8
0
 62
256
370
-1
 48
1.0
  6
ByLayer
 10
-18.0
 20
-21.0
 30
0.0
 11
18.0
 21
-21.0
 31
0.0
  0
LINE
  5
8D
100
AcDbEntity
100
AcDbLine
  8
0
 62
256
370
-1
 48
1.0
  6
ByLayer
 10
18.0
 20
-21.0
 30
0.0
 11
18.4693000000000005
 21
-20.9631000000000007
 31
0.0
  0
LINE
  5
8E
100
AcDbEntity
100
AcDbLine
  8
0
 62
256
370
-1
 48
1.0
  6
ByLayer
 10
262.3010783733046765
 20
-346.8461999999999534
 30
0.0
 11
262.3010783733046765
 21
-321.1538000000000466
 31
0.0
  0
LINE
  5
8F
100
AcDbEntity
100
AcDbLine
  8
0
 62
256
370
-1
 48
1.0
  6
ByLayer
 10
240.0642676172122378
 20
-305.6864217449727903
 30
0.0
 11
240.0642676172122378
 21
-279.9940217449728834
 31
0.0
  0
LINE
  5
90
100
AcDbEntity
100
AcDbLine
  8
0
 62
256
370
-1
 48
1.0
  6
ByLayer
 10
256.7520676172122762
 20
-296.0517717449728252
 30
0.0
 11
256.7520676172122762
 21
-289.6286717449728485
 31
0.0
  0
LINE
  5
91
100
AcDbEntity
100
AcDbLine
  8
0
 62
256
370
-1
 48
1.0
  6
ByLayer
 10
216.7495999999999867
 20
-347.8461999999999534
 30
0.0
 11
216.7495999999999867
 21
-322.1538000000000466
 31
0.0
  0
LINE
  5
92
100
AcDbEntity
100
AcDbLine
  8
0
 62
256
370
-1
 48
1.0
  6
ByLayer
 10
144.4373999999999683
 20
-103.2115499999999884
 30
0.0
 11
144.4373999999999683
 21
-96.7884500000000116
 31
0.0
  0
LINE
  5
93
100
AcDbEntity
100
AcDbLine
  8
0
 62
256
370
-1
 48
1.0
  6
ByLayer
 10
68.9991999999999734
 20
-269.8461999999999534
 30
0.0
 11
68.9991999999999734
 21
-244.1538000000000466
 31
0.0
  0
LINE
  5
94
100
AcDbEntity
100
AcDbLine
  8
0
 62
256
370
-1
 48
1.0
  6
ByLayer
 10
118.9991999999999734
 20
-302.8461999999999534
 30
0.0
 11
118.9991999999999734
 21
-277.1538000000000466
 31
0.0
  0
LINE
  5
95
100
AcDbEntity
100
AcDbLine
  8
0
 62
256
370
-1
 48
1.0
  6
ByLayer
 10
48.9991999999999734
 20
-312.8461999999999534
 30
0.0
 11
48.9991999999999734
 21
-287.1538000000000466
 31
0.0
  0
LINE
  5
96
100
AcDbEntity
100
AcDbLine
  8
0
 62
256
370
-1
 48
1.0
  6
ByLayer
 10
65.6869999999999834
 20
-303.2115499999999884
 30
0.0
 11
65.6869999999999834
 21
-296.7884500000000116
 31
0.0
  0
LINE
  5
97
100
AcDbEntity
100
AcDbLine
  8
0
 62
256
370
-1
 48
1.0
  6
ByLayer
 10
144.4373999999999683
 20
-203.2115500000000168
 30
0.0
 11
144.4373999999999683
 21
-196.7884500000000401
 31
0.0
  0
LINE
  5
98
100
AcDbEntity
100
AcDbLine
  8
0
 62
256
370
-1
 48
1.0
  6
ByLayer
 10
240.0642676172122378
 20
-279.9940217449728834
 30
0.0
 11
254.3390676172122653
 21
-271.7524217449728212
 31
0.0
  0
LINE
  5
99
100
AcDbEntity
100
AcDbLine
  8
0
 62
256
370
-1
 48
1.0
  6
ByLayer
 10
256.7520676172122762
 20
-289.6286717449728485
 30
0.0
 11
260.3207676172122547
 21
-287.5682717449728329
 31
0.0
  0
LINE
  5
9A
100
AcDbEntity
100
AcDbLine
  8
0
 62
256
370
-1
 48
1.0
  6
ByLayer
 10
216.7495999999999867
 20
-322.1538000000000466
 30
0.0
 11
231.0244000000000142
 21
-313.9121999999999844
 31
0.0
  0
LINE
  5
9B
100
AcDbEntity
100
AcDbLine
  8
0
 62
256
370
-1
 48
1.0
  6
ByLayer
 10
262.3010783733046765
 20
-321.1538000000000466
 30
0.0
 11
276.5758783733047039
 21
-312.9121999999999844
 31
0.0
  0
LINE
  5
9C
100
AcDbEntity
100
AcDbLine
  8
0
 62
256
370
-1
 48
1.0
  6
ByLayer
 10
144.4373999999999683
 20
-96.7884500000000116
 30
0.0
 11
148.0061000000000035
 21
-94.7280499999999961
 31
0.0
  0
LINE
  5
9D
100
AcDbEntity
100
AcDbLine
  8
0
 62
256
370
-1
 48
1.0
  6
ByLayer
 10
68.9991999999999734
 20
-244.1538000000000466
 30
0.0
 11
83.2740000000000009
 21
-235.9121999999999844
 31
0.0
  0
LINE
  5
9E
100
AcDbEntity
100
AcDbLine
  8
0
 62
256
370
-1
 48
1.0
  6
ByLayer
 10
118.9991999999999734
 20
-277.1538000000000466
 30
0.0
 11
133.2740000000000009
 21
-268.9121999999999844
 31
0.0
  0
LINE
  5
9F
100
AcDbEntity
100
AcDbLine
  8
0
 62
256
370
-1
 48
1.0
  6
ByLayer
 10
48.9991999999999734
 20
-287.1538000000000466
 30
0.0
 11
63.2740000000000009
 21
-278.9121999999999844
 31
0.0
  0
LINE
  5
A0
100
AcDbEntity
100
AcDbLine
  8
0
 62
256
370
-1
 48
1.0
  6
ByLayer
 10
65.6869999999999834
 20
-296.7884500000000116
 30
0.0
 11
69.2556999999999903
 21
-294.7280499999999961
 31
0.0
  0
LINE
  5
A1
100
AcDbEntity
100
AcDbLine
  8
0
 62
256
370
-1
 48
1.0
  6
ByLayer
 10
144.4373999999999683
 20
-196.7884500000000401
 30
0.0
 11
148.0060999999999751
 21
-194.7280500000000245
 31
0.0
  0
LINE
  5
A2
100
AcDbEntity
100
AcDbLine
  8
0
 62
256
370
-1
 48
1.0
  6
ByLayer
 10
254.3390676172122653
 20
-271.7524217449728212
 30
0.0
 11
262.3146676172122511
 21
-267.1476217449728665
 31
0.0
  0
LINE
  5
A3
100
AcDbEntity
100
AcDbLine
  8
0
 62
256
370
-1
 48
1.0
  6
ByLayer
 10
260.3207676172122547
 20
-287.5682717449728329
 30
0.0
 11
262.3146676172122511
 21
-286.4170717449728727
 31
0.0
  0
LINE
  5
A4
100
AcDbEntity
100
AcDbLine
  8
0
 62
256
370
-1
 48
1.0
  6
ByLayer
 10
231.0244000000000142
 20
-313.9121999999999844
 30
0.0
 11
239.0
 21
-309.3074000000000296
 31
0.0
  0
LINE
  5
A5
100
AcDbEntity
100
AcDbLine
  8
0
 62
256
370
-1
 48
1.0
  6
ByLayer
 10
276.5758783733047039
 20
-312.9121999999999844
 30
0.0
 11
284.5514783733046897
 21
-308.3074000000000296
 31
0.0
  0
LINE
  5
A6
100
AcDbEntity
100
AcDbLine
  8
0
 62
256
370
-1
 48
1.0
  6
ByLayer
 10
148.0061000000000035
 20
-94.7280499999999961
 30
0.0
 11
150.0
 21
-93.5768500000000074
 31
0.0
  0
LINE
  5
A7
100
AcDbEntity
100
AcDbLine
  8
0
 62
256
370
-1
 48
1.0
  6
ByLayer
 10
83.2740000000000009
 20
-235.9121999999999844
 30
0.0
 11
91.2495999999999867
 21
-231.3074000000000296
 31
0.0
  0
LINE
  5
A8
100
AcDbEntity
100
AcDbLine
  8
0
 62
256
370
-1
 48
1.0
  6
ByLayer
 10
133.2740000000000009
 20
-268.9121999999999844
 30
0.0
 11
141.2495999999999867
 21
-264.3074000000000296
 31
0.0
  0
LINE
  5
A9
100
AcDbEntity
100
AcDbLine
  8
0
 62
256
370
-1
 48
1.0
  6
ByLayer
 10
63.2740000000000009
 20
-278.9121999999999844
 30
0.0
 11
71.2495999999999867
 21
-274.3074000000000296
 31
0.0
  0
LINE
  5
AA
100
AcDbEntity
100
AcDbLine
  8
0
 62
256
370
-1
 48
1.0
  6
ByLayer
 10
69.2556999999999903
 20
-294.7280499999999961
 30
0.0
 11
71.2495999999999867
 21
-293.5768500000000358
 31
0.0
  0
LINE
  5
AB
100
AcDbEntity
100
AcDbLine
  8
0
 62
256
370
-1
 48
1.0
  6
ByLayer
 10
148.0060999999999751
 20
-194.7280500000000245
 30
0.0
 11
149.9999999999999716
 21
-193.5768500000000358
 31
0.0
  0
LINE
  5
AC
100
AcDbEntity
100
AcDbLine
  8
0
 62
256
370
-1
 48
1.0
  6
ByLayer
 10
239.0
 20
-309.3074000000000296
 30
0.0
 11
246.9755999999999858
 21
-313.9121999999999844
 31
0.0
  0
LINE
  5
AD
100
AcDbEntity
100
AcDbLine
  8
0
 62
256
370
-1
 48
1.0
  6
ByLayer
 10
284.5514783733046897
 20
-308.3074000000000296
 30
0.0
 11
292.5270783733046756
 21
-312.9121999999999844
 31
0.0
  0
LINE
  5
AE
100
AcDbEntity
100
AcDbLine
  8
0
 62
256
370
-1
 48
1.0
  6
ByLayer
 10
262.3146676172122511
 20
-267.1476217449728665
 30
0.0
 11
270.2902676172122369
 21
-271.7524217449728212
 31
0.0
  0
LINE
  5
AF
100
AcDbEntity
100
AcDbLine
  8
0
 62
256
370
-1
 48
1.0
  6
ByLayer
 10
262.3146676172122511
 20
-286.4170717449728727
 30
0.0
 11
264.3085676172122476
 21
-287.5682717449728329
 31
0.0
  0
LINE
  5
B0
100
AcDbEntity
100
AcDbLine
  8
0
 62
256
370
-1
 48
1.0
  6
ByLayer
 10
150.0
 20
-93.5768500000000074
 30
0.0
 11
151.9938999999999965
 21
-94.7280499999999961
 31
0.0
  0
LINE
  5
B1
100
AcDbEntity
100
AcDbLine
  8
0
 62
256
370
-1
 48
1.0
  6
ByLayer
 10
91.2495999999999867
 20
-231.3074000000000296
 30
0.0
 11
99.2251999999999725
 21
-235.9121999999999844
 31
0.0
  0
LINE
  5
B2
100
AcDbEntity
100
AcDbLine
  8
0
 62
256
370
-1
 48
1.0
  6
ByLayer
 10
141.2495999999999867
 20
-264.3074000000000296
 30
0.0
 11
149.2251999999999725
 21
-268.9121999999999844
 31
0.0
  0
LINE
  5
B3
100
AcDbEntity
100
AcDbLine
  8
0
 62
256
370
-1
 48
1.0
  6
ByLayer
 10
71.2495999999999867
 20
-274.3074000000000296
 30
0.0
 11
79.2251999999999725
 21
-278.9121999999999844
 31
0.0
  0
LINE
  5
B4
100
AcDbEntity
100
AcDbLine
  8
0
 62
256
370
-1
 48
1.0
  6
ByLayer
 10
71.2495999999999867
 20
-293.5768500000000358
 30
0.0
 11
73.2434999999999832
 21
-294.7280499999999961
 31
0.0
  0
LINE
  5
B5
100
AcDbEntity
100
AcDbLine
  8
0
 62
256
370
-1
 48
1.0
  6
ByLayer
 10
149.9999999999999716
 20
-193.5768500000000358
 30
0.0
 11
151.993899999999968
 21
-194.7280500000000245
 31
0.0
  0
LINE
  5
B6
100
AcDbEntity
100
AcDbLine
  8
0
 62
256
370
-1
 48
1.0
  6
ByLayer
 10
270.2902676172122369
 20
-271.7524217449728212
 30
0.0
 11
284.5650676172122644
 21
-279.9940217449728834
 31
0.0
  0
LINE
  5
B7
100
AcDbEntity
100
AcDbLine
  8
0
 62
256
370
-1
 48
1.0
  6
ByLayer
 10
264.3085676172122476
 20
-287.5682717449728329
 30
0.0
 11
267.877267617212226
 21
-289.6286717449728485
 31
0.0
  0
LINE
  5
B8
100
AcDbEntity
100
AcDbLine
  8
0
 62
256
370
-1
 48
1.0
  6
ByLayer
 10
246.9755999999999858
 20
-313.9121999999999844
 30
0.0
 11
261.2504000000000133
 21
-322.1538000000000466
 31
0.0
  0
LINE
  5
B9
100
AcDbEntity
100
AcDbLine
  8
0
 62
256
370
-1
 48
1.0
  6
ByLayer
 10
292.5270783733046756
 20
-312.9121999999999844
 30
0.0
 11
306.801878373304703
 21
-321.1538000000000466
 31
0.0
  0
LINE
  5
BA
100
AcDbEntity
100
AcDbLine
  8
0
 62
256
370
-1
 48
1.0
  6
ByLayer
 10
151.9938999999999965
 20
-94.7280499999999961
 30
0.0
 11
155.5625999999999749
 21
-96.7884500000000116
 31
0.0
  0
LINE
  5
BB
100
AcDbEntity
100
AcDbLine
  8
0
 62
256
370
-1
 48
1.0
  6
ByLayer
 10
99.2251999999999725
 20
-235.9121999999999844
 30
0.0
 11
113.5
 21
-244.1538000000000466
 31
0.0
  0
LINE
  5
BC
100
AcDbEntity
100
AcDbLine
  8
0
 62
256
370
-1
 48
1.0
  6
ByLayer
 10
149.2251999999999725
 20
-268.9121999999999844
 30
0.0
 11
163.5
 21
-277.1538000000000466
 31
0.0
  0
LINE
  5
BD
100
AcDbEntity
100
AcDbLine
  8
0
 62
256
370
-1
 48
1.0
  6
ByLayer
 10
79.2251999999999725
 20
-278.9121999999999844
 30
0.0
 11
93.5
 21
-287.1538000000000466
 31
0.0
  0
LINE
  5
BE
100
AcDbEntity
100
AcDbLine
  8
0
 62
256
370
-1
 48
1.0
  6
ByLayer
 10
73.2434999999999832
 20
-294.7280499999999961
 30
0.0
 11
76.81219999999999
 21
-296.7884500000000116
 31
0.0
  0
LINE
  5
BF
100
AcDbEntity
100
AcDbLine
  8
0
 62
256
370
-1
 48
1.0
  6
ByLayer
 10
151.993899999999968
 20
-194.7280500000000245
 30
0.0
 11
155.5625999999999749
 21
-196.7884500000000401
 31
0.0
  0
LINE
  5
C0
100
AcDbEntity
100
AcDbLine
  8
0
 62
256
370
-1
 48
1.0
  6
ByLayer
 10
267.877267617212226
 20
-289.6286717449728485
 30
0.0
 11
267.877267617212226
 21
-296.0517717449728252
 31
0.0
  0
LINE
  5
C1
100
AcDbEntity
100
AcDbLine
  8
0
 62
256
370
-1
 48
1.0
  6
ByLayer
 10
155.5625999999999749
 20
-96.7884500000000116
 30
0.0
 11
155.5625999999999749
 21
-103.2115499999999884
 31
0.0
  0
LINE
  5
C2
100
AcDbEntity
100
AcDbLine
  8
0
 62
256
370
-1
 48
1.0
  6
ByLayer
 10
76.81219999999999
 20
-296.7884500000000116
 30
0.0
 11
76.81219999999999
 21
-303.2115499999999884
 31
0.0
  0
LINE
  5
C3
100
AcDbEntity
100
AcDbLine
  8
0
 62
256
370
-1
 48
1.0
  6
ByLayer
 10
155.5625999999999749
 20
-196.7884500000000401
 30
0.0
 11
155.5625999999999749
 21
-203.2115500000000168
 31
0.0
  0
LINE
  5
C4
100
AcDbEntity
100
AcDbLine
  8
0
 62
256
370
-1
 48
1.0
  6
ByLayer
 10
284.5650676172122644
 20
-305.6864217449727903
 30
0.0
 11
270.2902676172122369
 21
-313.9281017449728779
 31
0.0
  0
LINE
  5
C5
100
AcDbEntity
100
AcDbLine
  8
0
 62
256
370
-1
 48
1.0
  6
ByLayer
 10
306.801878373304703
 20
-346.8461999999999534
 30
0.0
 11
292.5270783733046756
 21
-355.087880000000041
 31
0.0
  0
LINE
  5
C6
100
AcDbEntity
100
AcDbLine
  8
0
 62
256
370
-1
 48
1.0
  6
ByLayer
 10
267.877267617212226
 20
-296.0517717449728252
 30
0.0
 11
264.3085676172122476
 21
-298.1121917449728471
 31
0.0
  0
LINE
  5
C7
100
AcDbEntity
100
AcDbLine
  8
0
 62
256
370
-1
 48
1.0
  6
ByLayer
 10
261.2504000000000133
 20
-347.8461999999999534
 30
0.0
 11
246.9755999999999858
 21
-356.087880000000041
 31
0.0
  0
LINE
  5
C8
100
AcDbEntity
100
AcDbLine
  8
0
 62
256
370
-1
 48
1.0
  6
ByLayer
 10
155.5625999999999749
 20
-103.2115499999999884
 30
0.0
 11
151.9938999999999965
 21
-105.2719700000000103
 31
0.0
  0
LINE
  5
C9
100
AcDbEntity
100
AcDbLine
  8
0
 62
256
370
-1
 48
1.0
  6
ByLayer
 10
113.5
 20
-269.8461999999999534
 30
0.0
 11
99.2251999999999725
 21
-278.087880000000041
 31
0.0
  0
LINE
  5
CA
100
AcDbEntity
100
AcDbLine
  8
0
 62
256
370
-1
 48
1.0
  6
ByLayer
 10
163.5
 20
-302.8461999999999534
 30
0.0
 11
149.2251999999999725
 21
-311.087880000000041
 31
0.0
  0
LINE
  5
CB
100
AcDbEntity
100
AcDbLine
  8
0
 62
256
370
-1
 48
1.0
  6
ByLayer
 10
93.5
 20
-312.8461999999999534
 30
0.0
 11
79.2251999999999725
 21
-321.087880000000041
 31
0.0
  0
LINE
  5
CC
100
AcDbEntity
100
AcDbLine
  8
0
 62
256
370
-1
 48
1.0
  6
ByLayer
 10
76.81219999999999
 20
-303.2115499999999884
 30
0.0
 11
73.2434999999999832
 21
-305.2719700000000103
 31
0.0
  0
LINE
  5
CD
100
AcDbEntity
100
AcDbLine
  8
0
 62
256
370
-1
 48
1.0
  6
ByLayer
 10
155.5625999999999749
 20
-203.2115500000000168
 30
0.0
 11
151.993899999999968
 21
-205.2719700000000387
 31
0.0
  0
LINE
  5
CE
100
AcDbEntity
100
AcDbLine
  8
0
 62
256
370
-1
 48
1.0
  6
ByLayer
 10
270.2902676172122369
 20
-313.9281017449728779
 30
0.0
 11
262.3146676172122511
 21
-318.5328217449728072
 31
0.0
  0
LINE
  5
CF
100
AcDbEntity
100
AcDbLine
  8
0
 62
256
370
-1
 48
1.0
  6
ByLayer
 10
264.3085676172122476
 20
-298.1121917449728471
 30
0.0
 11
262.3146676172122511
 21
-299.263371744972801
 31
0.0
  0
LINE
  5
D0
100
AcDbEntity
100
AcDbLine
  8
0
 62
256
370
-1
 48
1.0
  6
ByLayer
 10
246.9755999999999858
 20
-356.087880000000041
 30
0.0
 11
239.0
 21
-360.6925999999999704
 31
0.0
  0
LINE
  5
D1
100
AcDbEntity
100
AcDbLine
  8
0
 62
256
370
-1
 48
1.0
  6
ByLayer
 10
292.5270783733046756
 20
-355.087880000000041
 30
0.0
 11
284.5514783733046897
 21
-359.6925999999999704
 31
0.0
  0
LINE
  5
D2
100
AcDbEntity
100
AcDbLine
  8
0
 62
256
370
-1
 48
1.0
  6
ByLayer
 10
151.9938999999999965
 20
-105.2719700000000103
 30
0.0
 11
150.0
 21
-106.4231499999999926
 31
0.0
  0
LINE
  5
D3
100
AcDbEntity
100
AcDbLine
  8
0
 62
256
370
-1
 48
1.0
  6
ByLayer
 10
99.2251999999999725
 20
-278.087880000000041
 30
0.0
 11
91.2495999999999867
 21
-282.6925999999999704
 31
0.0
  0
LINE
  5
D4
100
AcDbEntity
100
AcDbLine
  8
0
 62
256
370
-1
 48
1.0
  6
ByLayer
 10
149.2251999999999725
 20
-311.087880000000041
 30
0.0
 11
141.2495999999999867
 21
-315.6925999999999704
 31
0.0
  0
LINE
  5
D5
100
AcDbEntity
100
AcDbLine
  8
0
 62
256
370
-1
 48
1.0
  6
ByLayer
 10
79.2251999999999725
 20
-321.087880000000041
 30
0.0
 11
71.2495999999999867
 21
-325.6925999999999704
 31
0.0
  0
LINE
  5
D6
100
AcDbEntity
100
AcDbLine
  8
0
 62
256
370
-1
 48
1.0
  6
ByLayer
 10
73.2434999999999832
 20
-305.2719700000000103
 30
0.0
 11
71.2495999999999867
 21
-306.4231499999999642
 31
0.0
  0
LINE
  5
D7
100
AcDbEntity
100
AcDbLine
  8
0
 62
256
370
-1
 48
1.0
  6
ByLayer
 10
151.993899999999968
 20
-205.2719700000000387
 30
0.0
 11
149.9999999999999716
 21
-206.423150000000021
 31
0.0
  0
LINE
  5
D8
100
AcDbEntity
100
AcDbLine
  8
0
 62
256
370
-1
 48
1.0
  6
ByLayer
 10
262.3146676172122511
 20
-318.5328217449728072
 30
0.0
 11
254.3390676172122653
 21
-313.9281017449728779
 31
0.0
  0
LINE
  5
D9
100
AcDbEntity
100
AcDbLine
  8
0
 62
256
370
-1
 48
1.0
  6
ByLayer
 10
262.3146676172122511
 20
-299.263371744972801
 30
0.0
 11
260.3207676172122547
 21
-298.1121917449728471
 31
0.0
  0
LINE
  5
DA
100
AcDbEntity
100
AcDbLine
  8
0
 62
256
370
-1
 48
1.0
  6
ByLayer
 10
239.0
 20
-360.6925999999999704
 30
0.0
 11
231.0244000000000142
 21
-356.087880000000041
 31
0.0
  0
LINE
  5
DB
100
AcDbEntity
100
AcDbLine
  8
0
 62
256
370
-1
 48
1.0
  6
ByLayer
 10
284.5514783733046897
 20
-359.6925999999999704
 30
0.0
 11
276.5758783733047039
 21
-355.087880000000041
 31
0.0
  0
LINE
  5
DC
100
AcDbEntity
100
AcDbLine
  8
0
 62
256
370
-1
 48
1.0
  6
ByLayer
 10
150.0
 20
-106.4231499999999926
 30
0.0
 11
148.0061000000000035
 21
-105.2719700000000103
 31
0.0
  0
LINE
  5
DD
100
AcDbEntity
100
AcDbLine
  8
0
 62
256
370
-1
 48
1.0
  6
ByLayer
 10
91.2495999999999867
 20
-282.6925999999999704
 30
0.0
 11
83.2740000000000009
 21
-278.087880000000041
 31
0.0
  0
LINE
  5
DE
100
AcDbEntity
100
AcDbLine
  8
0
 62
256
370
-1
 48
1.0
  6
ByLayer
 10
141.2495999999999867
 20
-315.6925999999999704
 30
0.0
 11
133.2740000000000009
 21
-311.087880000000041
 31
0.0
  0
LINE
  5
DF
100
AcDbEntity
100
AcDbLine
  8
0
 62
256
370
-1
 48
1.0
  6
ByLayer
 10
71.2495999999999867
 20
-325.6925999999999704
 30
0.0
 11
63.2740000000000009
 21
-321.087880000000041
 31
0.0
  0
LINE
  5
E0
100
AcDbEntity
100
AcDbLine
  8
0
 62
256
370
-1
 48
1.0
  6
ByLayer
 10
71.2495999999999867
 20
-306.4231499999999642
 30
0.0
 11
69.2556999999999903
 21
-305.2719700000000103
 31
0.0
  0
LINE
  5
E1
100
AcDbEntity
100
AcDbLine
  8
0
 62
256
370
-1
 48
1.0
  6
ByLayer
 10
149.9999999999999716
 20
-206.423150000000021
 30
0.0
 11
148.0060999999999751
 21
-205.2719700000000387
 31
0.0
  0
LINE
  5
E2
100
AcDbEntity
100
AcDbLine
  8
0
 62
256
370
-1
 48
1.0
  6
ByLayer
 10
254.3390676172122653
 20
-313.9281017449728779
 30
0.0
 11
240.0642676172122378
 21
-305.6864217449727903
 31
0.0
  0
LINE
  5
E3
100
AcDbEntity
100
AcDbLine
  8
0
 62
256
370
-1
 48
1.0
  6
ByLayer
 10
260.3207676172122547
 20
-298.1121917449728471
 30
0.0
 11
256.7520676172122762
 21
-296.0517717449728252
 31
0.0
  0
LINE
  5
E4
100
AcDbEntity
100
AcDbLine
  8
0
 62
256
370
-1
 48
1.0
  6
ByLayer
 10
231.0244000000000142
 20
-356.087880000000041
 30
0.0
 11
216.7495999999999867
 21
-347.8461999999999534
 31
0.0
  0
LINE
  5
E5
100
AcDbEntity
100
AcDbLine
  8
0
 62
256
370
-1
 48
1.0
  6
ByLayer
 10
276.5758783733047039
 20
-355.087880000000041
 30
0.0
 11
262.3010783733046765
 21
-346.8461999999999534
 31
0.0
  0
LINE
  5
E6
100
AcDbEntity
100
AcDbLine
  8
0
 62
256
370
-1
 48
1.0
  6
ByLayer
 10
148.0061000000000035
 20
-105.2719700000000103
 30
0.0
 11
144.4373999999999683
 21
-103.2115499999999884
 31
0.0
  0
LINE
  5
E7
100
AcDbEntity
100
AcDbLine
  8
0
 62
256
370
-1
 48
1.0
  6
ByLayer
 10
83.2740000000000009
 20
-278.087880000000041
 30
0.0
 11
68.9991999999999734
 21
-269.8461999999999534
 31
0.0
  0
LINE
  5
E8
100
AcDbEntity
100
AcDbLine
  8
0
 62
256
370
-1
 48
1.0
  6
ByLayer
 10
133.2740000000000009
 20
-311.087880000000041
 30
0.0
 11
118.9991999999999734
 21
-302.8461999999999534
 31
0.0
  0
LINE
  5
E9
100
AcDbEntity
100
AcDbLine
  8
0
 62
256
370
-1
 48
1.0
  6
ByLayer
 10
63.2740000000000009
 20
-321.087880000000041
 30
0.0
 11
48.9991999999999734
 21
-312.8461999999999534
 31
0.0
  0
LINE
  5
EA
100
AcDbEntity
100
AcDbLine
  8
0
 62
256
370
-1
 48
1.0
  6
ByLayer
 10
69.2556999999999903
 20
-305.2719700000000103
 30
0.0
 11
65.6869999999999834
 21
-303.2115499999999884
 31
0.0
  0
LINE
  5
EB
100
AcDbEntity
100
AcDbLine
  8
0
 62
256
370
-1
 48
1.0
  6
ByLayer
 10
148.0060999999999751
 20
-205.2719700000000387
 30
0.0
 11
144.4373999999999683
 21
-203.2115500000000168
 31
0.0
  0
CIRCLE
  5
EC
100
AcDbEntity
100
AcDbCircle
  8
0
 62
3
420
65280
370
-1
 48
1.0
  6
ByLayer
 10
226.5
 20
-335.0
 30
0.0
 40
1.24587
  0
CIRCLE
  5
ED
100
AcDbEntity
100
AcDbCircle
  8
0
 62
3
420
65280
370
-1
 48
1.0
  6
ByLayer
 10
251.5
 20
-325.0
 30
0.0
 40
1.24587
  0
CIRCLE
  5
EE
100
AcDbEntity
100
AcDbCircle
  8
0
 62
3
420
65280
370
-1
 48
1.0
  6
ByLayer
 10
251.5
 20
-345.0
 30
0.0
 40
1.24587
  0
CIRCLE
  5
EF
100
AcDbEntity
100
AcDbCircle
  8
0
 62
3
420
65280
370
-1
 48
1.0
  6
ByLayer
 10
272.0514783733046897
 20
-334.0
 30
0.0
 40
1.24587
  0
CIRCLE
  5
F0
100
AcDbEntity
100
AcDbCircle
  8
0
 62
3
420
65280
370
-1
 48
1.0
  6
ByLayer
 10
297.0514783733046897
 20
-324.0
 30
0.0
 40
1.24587
  0
CIRCLE
  5
F1
100
AcDbEntity
100
AcDbCircle
  8
0
 62
3
420
65280
370
-1
 48
1.0
  6
ByLayer
 10
297.0514783733046897
 20
-344.0
 30
0.0
 40
1.24587
  0
CIRCLE
  5
F2
100
AcDbEntity
100
AcDbCircle
  8
0
 62
3
420
65280
370
-1
 48
1.0
  6
ByLayer
 10
249.8146676172122511
 20
-292.8402217449728369
 30
0.0
 40
1.24587
  0
CIRCLE
  5
F3
100
AcDbEntity
100
AcDbCircle
  8
0
 62
3
420
65280
370
-1
 48
1.0
  6
ByLayer
 10
274.8146676172122511
 20
-282.8402217449728369
 30
0.0
 40
1.24587
  0
CIRCLE
  5
F4
100
AcDbEntity
100
AcDbCircle
  8
0
 62
3
420
65280
370
-1
 48
1.0
  6
ByLayer
 10
274.8146676172122511
 20
-302.8402217449728369
 30
0.0
 40
1.24587
  0
CIRCLE
  5
F5
100
AcDbEntity
100
AcDbCircle
  8
0
 62
3
420
65280
370
-1
 48
1.0
  6
ByLayer
 10
137.4999999999999432
 20
-100.0
 30
0.0
 40
1.24587
  0
CIRCLE
  5
F6
100
AcDbEntity
100
AcDbCircle
  8
0
 62
3
420
65280
370
-1
 48
1.0
  6
ByLayer
 10
162.4999999999999432
 20
-89.9999999999999716
 30
0.0
 40
1.24587
  0
CIRCLE
  5
F7
100
AcDbEntity
100
AcDbCircle
  8
0
 62
3
420
65280
370
-1
 48
1.0
  6
ByLayer
 10
162.4999999999999432
 20
-109.9999999999999716
 30
0.0
 40
1.24587
  0
CIRCLE
  5
F8
100
AcDbEntity
100
AcDbCircle
  8
0
 62
3
420
65280
370
-1
 48
1.0
  6
ByLayer
 10
78.7495999999999867
 20
-257.0
 30
0.0
 40
1.24587
  0
CIRCLE
  5
F9
100
AcDbEntity
100
AcDbCircle
  8
0
 62
3
420
65280
370
-1
 48
1.0
  6
ByLayer
 10
103.7495999999999867
 20
-247.0
 30
0.0
 40
1.24587
  0
CIRCLE
  5
FA
100
AcDbEntity
100
AcDbCircle
  8
0
 62
3
420
65280
370
-1
 48
1.0
  6
ByLayer
 10
103.7495999999999867
 20
-267.0
 30
0.0
 40
1.24587
  0
CIRCLE
  5
FB
100
AcDbEntity
100
AcDbCircle
  8
0
 62
3
420
65280
370
-1
 48
1.0
  6
ByLayer
 10
128.7495999999999867
 20
-290.0
 30
0.0
 40
1.24587
  0
CIRCLE
  5
FC
100
AcDbEntity
100
AcDbCircle
  8
0
 62
3
420
65280
370
-1
 48
1.0
  6
ByLayer
 10
153.7495999999999867
 20
-280.0
 30
0.0
 40
1.24587
  0
CIRCLE
  5
FD
100
AcDbEntity
100
AcDbCircle
  8
0
 62
3
420
65280
370
-1
 48
1.0
  6
ByLayer
 10
153.7495999999999867
 20
-300.0
 30
0.0
 40
1.24587
  0
CIRCLE
  5
FE
100
AcDbEntity
100
AcDbCircle
  8
0
 62
3
420
65280
370
-1
 48
1.0
  6
ByLayer
 10
58.7495999999999583
 20
-300.0
 30
0.0
 40
1.24587
  0
CIRCLE
  5
FF
100
AcDbEntity
100
AcDbCircle
  8
0
 62
3
420
65280
370
-1
 48
1.0
  6
ByLayer
 10
83.7495999999999583
 20
-290.0
 30
0.0
 40
1.24587
  0
CIRCLE
  5
100
100
AcDbEntity
100
AcDbCircle
  8
0
 62
3
420
65280
370
-1
 48
1.0
  6
ByLayer
 10
83.7495999999999583
 20
-310.0
 30
0.0
 40
1.24587
  0
CIRCLE
  5
101
100
AcDbEntity
100
AcDbCircle
  8
0
 62
3
420
65280
370
-1
 48
1.0
  6
ByLayer
 10
137.4999999999999432
 20
-200.0000000000000284
 30
0.0
 40
1.24587
  0
CIRCLE
  5
102
100
AcDbEntity
100
AcDbCircle
  8
0
 62
3
420
65280
370
-1
 48
1.0
  6
ByLayer
 10
162.4999999999999432
 20
-190.0
 30
0.0
 40
1.24587
  0
CIRCLE
  5
103
100
AcDbEntity
100
AcDbCircle
  8
0
 62
3
420
65280
370
-1
 48
1.0
  6
ByLayer
 10
162.4999999999999432
 20
-210.0
 30
0.0
 40
1.24587
  0
CIRCLE
  5
104
100
AcDbEntity
100
AcDbCircle
  8
0
 62
3
420
65280
370
-1
 48
1.0
  6
ByLayer
 10
18.0000057530327986
 20
-180.0000000000000284
 30
0.0
 40
1.24587
  0
CIRCLE
  5
105
100
AcDbEntity
100
AcDbCircle
  8
0
 62
3
420
65280
370
-1
 48
1.0
  6
ByLayer
 10
43.000005753032795
 20
-180.0000000000000284
 30
0.0
 40
1.24587
  0
CIRCLE
  5
106
100
AcDbEntity
100
AcDbCircle
  8
0
 62
3
420
65280
370
-1
 48
1.0
  6
ByLayer
 10
22.0000057530328057
 20
-218.5000000000000284
 30
0.0
 40
1.24587
  0
CIRCLE
  5
107
100
AcDbEntity
100
AcDbCircle
  8
0
 62
3
420
65280
370
-1
 48
1.0
  6
ByLayer
 10
39.000005753032795
 20
-218.5000000000000284
 30
0.0
 40
1.24587
  0
CIRCLE
  5
108
100
AcDbEntity
100
AcDbCircle
  8
0
 62
3
420
65280
370
-1
 48
1.0
  6
ByLayer
 10
22.0000057530328021
 20
-201.5000000000000284
 30
0.0
 40
1.24587
  0
CIRCLE
  5
109
100
AcDbEntity
100
AcDbCircle
  8
0
 62
3
420
65280
370
-1
 48
1.0
  6
ByLayer
 10
39.000005753032795
 20
-201.5000000000000284
 30
0.0
 40
1.24587
  0
CIRCLE
  5
10A
100
AcDbEntity
100
AcDbCircle
  8
0
 62
3
420
65280
370
-1
 48
1.0
  6
ByLayer
 10
18.0000057530327986
 20
-240.0000000000000284
 30
0.0
 40
1.24587
  0
CIRCLE
  5
10B
100
AcDbEntity
100
AcDbCircle
  8
0
 62
3
420
65280
370
-1
 48
1.0
  6
ByLayer
 10
43.000005753032795
 20
-240.0000000000000284
 30
0.0
 40
1.24587
  0
CIRCLE
  5
10C
100
AcDbEntity
100
AcDbCircle
  8
0
 62
3
420
65280
370
-1
 48
1.0
  6
ByLayer
 10
-14.5000266884346072
 20
-130.0
 30
0.0
 40
1.24587
  0
CIRCLE
  5
10D
100
AcDbEntity
100
AcDbCircle
  8
0
 62
3
420
65280
370
-1
 48
1.0
  6
ByLayer
 10
-14.5000266884346072
 20
-70.0
 30
0.0
 40
1.24587
  0
CIRCLE
  5
10E
100
AcDbEntity
100
AcDbCircle
  8
0
 62
3
420
65280
370
-1
 48
1.0
  6
ByLayer
 10
-40.0
 20
-130.0
 30
0.0
 40
1.24587
  0
CIRCLE
  5
10F
100
AcDbEntity
100
AcDbCircle
  8
0
 62
3
420
65280
370
-1
 48
1.0
  6
ByLayer
 10
-40.0
 20
-70.0
 30
0.0
 40
1.24587
  0
CIRCLE
  5
110
100
AcDbEntity
100
AcDbCircle
  8
0
 62
3
420
65280
370
-1
 48
1.0
  6
ByLayer
 10
17.0000057530328021
 20
-108.5
 30
0.0
 40
1.24587
  0
CIRCLE
  5
111
100
AcDbEntity
100
AcDbCircle
  8
0
 62
3
420
65280
370
-1
 48
1.0
  6
ByLayer
 10
34.000005753032795
 20
-108.5
 30
0.0
 40
1.24587
  0
CIRCLE
  5
112
100
AcDbEntity
100
AcDbCircle
  8
0
 62
3
420
65280
370
-1
 48
1.0
  6
ByLayer
 10
17.0000057530327986
 20
-91.5
 30
0.0
 40
1.24587
  0
CIRCLE
  5
113
100
AcDbEntity
100
AcDbCircle
  8
0
 62
3
420
65280
370
-1
 48
1.0
  6
ByLayer
 10
34.000005753032795
 20
-91.5
 30
0.0
 40
1.24587
  0
CIRCLE
  5
114
100
AcDbEntity
100
AcDbCircle
  8
0
 62
3
420
65280
370
-1
 48
1.0
  6
ByLayer
 10
13.000005753032795
 20
-130.0
 30
0.0
 40
1.24587
  0
CIRCLE
  5
115
100
AcDbEntity
100
AcDbCircle
  8
0
 62
3
420
65280
370
-1
 48
1.0
  6
ByLayer
 10
38.000005753032795
 20
-130.0
 30
0.0
 40
1.24587
  0
CIRCLE
  5
116
100
AcDbEntity
100
AcDbCircle
  8
0
 62
3
420
65280
370
-1
 48
1.0
  6
ByLayer
 10
13.000005753032795
 20
-70.0
 30
0.0
 40
1.24587
  0
CIRCLE
  5
117
100
AcDbEntity
100
AcDbCircle
  8
0
 62
3
420
65280
370
-1
 48
1.0
  6
ByLayer
 10
38.000005753032795
 20
-70.0
 30
0.0
 40
1.24587
  0
CIRCLE
  5
118
100
AcDbEntity
100
AcDbCircle
  8
0
 62
3
420
65280
370
-1
 48
1.0
  6
ByLayer
 10
257.2499827409016007
 20
-109.9999999999999147
 30
0.0
 40
1.24587
  0
CIRCLE
  5
119
100
AcDbEntity
100
AcDbCircle
  8
0
 62
3
420
65280
370
-1
 48
1.0
  6
ByLayer
 10
282.2499827409016007
 20
-109.9999999999998579
 30
0.0
 40
1.24587
  0
CIRCLE
  5
11A
100
AcDbEntity
100
AcDbCircle
  8
0
 62
3
420
65280
370
-1
 48
1.0
  6
ByLayer
 10
207.2499827409016007
 20
-109.9999999999998721
 30
0.0
 40
1.24587
  0
CIRCLE
  5
11B
100
AcDbEntity
100
AcDbCircle
  8
0
 62
3
420
65280
370
-1
 48
1.0
  6
ByLayer
 10
232.2499827409016007
 20
-109.9999999999999147
 30
0.0
 40
1.24587
  0
CIRCLE
  5
11C
100
AcDbEntity
100
AcDbCircle
  8
0
 62
3
420
65280
370
-1
 48
1.0
  6
ByLayer
 10
257.5
 20
-82.5000000000000284
 30
0.0
 40
1.24587
  0
CIRCLE
  5
11D
100
AcDbEntity
100
AcDbCircle
  8
0
 62
3
420
65280
370
-1
 48
1.0
  6
ByLayer
 10
282.5
 20
-82.5000000000000284
 30
0.0
 40
1.24587
  0
CIRCLE
  5
11E
100
AcDbEntity
100
AcDbCircle
  8
0
 62
3
420
65280
370
-1
 48
1.0
  6
ByLayer
 10
207.4999999999999716
 20
-82.5000000000000284
 30
0.0
 40
1.24587
  0
CIRCLE
  5
11F
100
AcDbEntity
100
AcDbCircle
  8
0
 62
3
420
65280
370
-1
 48
1.0
  6
ByLayer
 10
232.4999999999999716
 20
-82.5000000000000284
 30
0.0
 40
1.24587
  0
CIRCLE
  5
120
100
AcDbEntity
100
AcDbCircle
  8
0
 62
3
420
65280
370
-1
 48
1.0
  6
ByLayer
 10
137.4999999999999716
 20
-129.9999999999999716
 30
0.0
 40
1.24587
  0
CIRCLE
  5
121
100
AcDbEntity
100
AcDbCircle
  8
0
 62
3
420
65280
370
-1
 48
1.0
  6
ByLayer
 10
162.4999999999999432
 20
-129.9999999999999716
 30
0.0
 40
1.24587
  0
CIRCLE
  5
122
100
AcDbEntity
100
AcDbCircle
  8
0
 62
3
420
65280
370
-1
 48
1.0
  6
ByLayer
 10
137.4999999999999432
 20
-70.0
 30
0.0
 40
1.24587
  0
CIRCLE
  5
123
100
AcDbEntity
100
AcDbCircle
  8
0
 62
3
420
65280
370
-1
 48
1.0
  6
ByLayer
 10
162.4999999999999432
 20
-70.0
 30
0.0
 40
1.24587
  0
CIRCLE
  5
124
100
AcDbEntity
100
AcDbCircle
  8
0
 62
3
420
65280
370
-1
 48
1.0
  6
ByLayer
 10
137.4999999999999432
 20
-230.0000000000000284
 30
0.0
 40
1.24587
  0
CIRCLE
  5
125
100
AcDbEntity
100
AcDbCircle
  8
0
 62
3
420
65280
370
-1
 48
1.0
  6
ByLayer
 10
162.4999999999999432
 20
-230.0000000000000284
 30
0.0
 40
1.24587
  0
CIRCLE
  5
126
100
AcDbEntity
100
AcDbCircle
  8
0
 62
3
420
65280
370
-1
 48
1.0
  6
ByLayer
 10
137.4999999999999432
 20
-170.0000000000000284
 30
0.0
 40
1.24587
  0
CIRCLE
  5
127
100
AcDbEntity
100
AcDbCircle
  8
0
 62
3
420
65280
370
-1
 48
1.0
  6
ByLayer
 10
162.4999999999999432
 20
-170.0000000000000284
 30
0.0
 40
1.24587
  0
CIRCLE
  5
128
100
AcDbEntity
100
AcDbCircle
  8
0
 62
256
370
-1
 48
1.0
  6
ByLayer
 10
40.0
 20
0.0
 30
0.0
 40
3.5
  0
CIRCLE
  5
129
100
AcDbEntity
100
AcDbCircle
  8
0
 62
3
420
65280
370
-1
 48
1.0
  6
ByLayer
 10
0.9999557530327952
 20
-84.5000127669336081
 30
0.0
 40
1.4999884939344008
  0
CIRCLE
  5
12A
100
AcDbEntity
100
AcDbCircle
  8
0
 62
3
420
65280
370
-1
 48
1.0
  6
ByLayer
 10
17.0000057530327986
 20
-100.0
 30
0.0
 40
1.4999884939344008
  0
CIRCLE
  5
12B
100
AcDbEntity
100
AcDbCircle
  8
0
 62
3
420
65280
370
-1
 48
1.0
  6
ByLayer
 10
25.5000057530327986
 20
-108.5
 30
0.0
 40
1.4999884939344008
  0
CIRCLE
  5
12C
100
AcDbEntity
100
AcDbCircle
  8
0
 62
3
420
65280
370
-1
 48
1.0
  6
ByLayer
 10
34.000005753032795
 20
-100.0
 30
0.0
 40
1.4999884939344008
  0
CIRCLE
  5
12D
100
AcDbEntity
100
AcDbCircle
  8
0
 62
3
420
65280
370
-1
 48
1.0
  6
ByLayer
 10
25.5000057530327986
 20
-91.5
 30
0.0
 40
1.4999884939344008
  0
CIRCLE
  5
12E
100
AcDbEntity
100
AcDbCircle
  8
0
 62
256
370
-1
 48
1.0
  6
ByLayer
 10
31.5
 20
0.0
 30
0.0
 40
1.4999884939344008
  0
CIRCLE
  5
12F
100
AcDbEntity
100
AcDbCircle
  8
0
 62
256
370
-1
 48
1.0
  6
ByLayer
 10
40.0
 20
-8.5
 30
0.0
 40
1.4999884939344008
  0
CIRCLE
  5
130
100
AcDbEntity
100
AcDbCircle
  8
0
 62
256
370
-1
 48
1.0
  6
ByLayer
 10
48.5
 20
0.0
 30
0.0
 40
1.4999884939344008
  0
CIRCLE
  5
131
100
AcDbEntity
100
AcDbCircle
  8
0
 62
256
370
-1
 48
1.0
  6
ByLayer
 10
40.0
 20
8.5
 30
0.0
 40
1.4999884939344008
  0
CIRCLE
  5
132
100
AcDbEntity
100
AcDbCircle
  8
0
 62
256
370
-1
 48
1.0
  6
ByLayer
 10
15.4999499999999966
 20
15.4999872330663955
 30
0.0
 40
1.4999884939344008
  0
CIRCLE
  5
133
100
AcDbEntity
100
AcDbCircle
  8
0
 62
3
420
65280
370
-1
 48
1.0
  6
ByLayer
 10
22.0000057530328021
 20
-210.0000000000000284
 30
0.0
 40
1.4999884939344008
  0
CIRCLE
  5
134
100
AcDbEntity
100
AcDbCircle
  8
0
 62
3
420
65280
370
-1
 48
1.0
  6
ByLayer
 10
30.5000057530328021
 20
-218.5000000000000284
 30
0.0
 40
1.4999884939344008
  0
CIRCLE
  5
135
100
AcDbEntity
100
AcDbCircle
  8
0
 62
3
420
65280
370
-1
 48
1.0
  6
ByLayer
 10
39.000005753032795
 20
-210.0000000000000284
 30
0.0
 40
1.4999884939344008
  0
CIRCLE
  5
136
100
AcDbEntity
100
AcDbCircle
  8
0
 62
3
420
65280
370
-1
 48
1.0
  6
ByLayer
 10
30.5000057530328021
 20
-201.5000000000000284
 30
0.0
 40
1.4999884939344008
  0
CIRCLE
  5
137
100
AcDbEntity
100
AcDbCircle
  8
0
 62
3
420
65280
370
-1
 48
1.0
  6
ByLayer
 10
-1.5000038831659879
 20
-87.0000096361987829
 30
0.0
 40
1.500018100245476
  0
CIRCLE
  5
138
100
AcDbEntity
100
AcDbCircle
  8
0
 62
256
370
-1
 48
1.0
  6
ByLayer
 10
12.9999903638012135
 20
12.9999903638012135
 30
0.0
 40
1.500018100245476
  0
CIRCLE
  5
139
100
AcDbEntity
100
AcDbCircle
  8
0
 62
3
420
65280
370
-1
 48
1.0
  6
ByLayer
 10
-14.5000266884346072
 20
-100.0
 30
0.0
 40
11.0499751899980581
  0
CIRCLE
  5
13A
100
AcDbEntity
100
AcDbCircle
  8
0
 62
256
370
-1
 48
1.0
  6
ByLayer
 10
-0.0000324414674063
 20
-0.0000000000000027
 30
0.0
 40
11.0499751899980581
  0
CIRCLE
  5
13B
100
AcDbEntity
100
AcDbCircle
  8
0
 62
3
420
65280
370
-1
 48
1.0
  6
ByLayer
 10
-1.4999953372799109
 20
-112.9999360996334019
 30
0.0
 40
1.4999989110483776
  0
CIRCLE
  5
13C
100
AcDbEntity
100
AcDbCircle
  8
0
 62
256
370
-1
 48
1.0
  6
ByLayer
 10
12.9999989096872905
 20
-12.9999360996334037
 30
0.0
 40
1.4999989110483776
  0
CIRCLE
  5
13D
100
AcDbEntity
100
AcDbCircle
  8
0
 62
3
420
65280
370
-1
 48
1.0
  6
ByLayer
 10
0.9999518719812102
 20
-115.4999939291476068
 30
0.0
 40
1.4999797834091286
  0
CIRCLE
  5
13E
100
AcDbEntity
100
AcDbCircle
  8
0
 62
256
370
-1
 48
1.0
  6
ByLayer
 10
15.4999461189484116
 20
-15.4999939291476068
 30
0.0
 40
1.4999797834091286
  0
CIRCLE
  5
13F
100
AcDbEntity
100
AcDbCircle
  8
0
 62
3
420
65280
370
-1
 48
1.0
  6
ByLayer
 10
-27.4999821206887987
 20
-112.9999518307924973
 30
0.0
 40
1.4999895258852067
  0
CIRCLE
  5
140
100
AcDbEntity
100
AcDbCircle
  8
0
 62
256
370
-1
 48
1.0
  6
ByLayer
 10
-12.9999878737215973
 20
-12.9999518307924955
 30
0.0
 40
1.4999895258852067
  0
CIRCLE
  5
141
100
AcDbEntity
100
AcDbCircle
  8
0
 62
3
420
65280
370
-1
 48
1.0
  6
ByLayer
 10
-30.0000270231539545
 20
-115.4999673968117406
 30
0.0
 40
1.4999873680250444
  0
CIRCLE
  5
142
100
AcDbEntity
100
AcDbCircle
  8
0
 62
256
370
-1
 48
1.0
  6
ByLayer
 10
-15.5000327761867531
 20
-15.4999673968117389
 30
0.0
 40
1.4999873680250444
  0
CIRCLE
  5
143
100
AcDbEntity
100
AcDbCircle
  8
0
 62
3
420
65280
370
-1
 48
1.0
  6
ByLayer
 10
-27.4999744154986097
 20
-86.9999627550963481
 30
0.0
 40
1.4999801689938081
  0
CIRCLE
  5
144
100
AcDbEntity
100
AcDbCircle
  8
0
 62
256
370
-1
 48
1.0
  6
ByLayer
 10
-12.9999801685314083
 20
13.0000372449036501
 30
0.0
 40
1.4999801689938081
  0
CIRCLE
  5
145
100
AcDbEntity
100
AcDbCircle
  8
0
 62
3
420
65280
370
-1
 48
1.0
  6
ByLayer
 10
-29.9999442469671997
 20
-84.4999716244725647
 30
0.0
 40
1.499998225629509
  0
CIRCLE
  5
146
100
AcDbEntity
100
AcDbCircle
  8
0
 62
256
370
-1
 48
1.0
  6
ByLayer
 10
-15.4999499999999983
 20
15.5000283755274353
 30
0.0
 40
1.499998225629509
  0
CIRCLE
  5
147
100
AcDbEntity
100
AcDbCircle
  8
0
 62
3
420
65280
370
-1
 48
1.0
  6
ByLayer
 10
25.5000057530327986
 20
-100.0
 30
0.0
 40
4.0
  0
CIRCLE
  5
148
100
AcDbEntity
100
AcDbCircle
  8
0
 62
3
420
65280
370
-1
 48
1.0
  6
ByLayer
 10
239.0
 20
-335.0
 30
0.0
 40
4.0
  0
CIRCLE
  5
149
100
AcDbEntity
100
AcDbCircle
  8
0
 62
3
420
65280
370
-1
 48
1.0
  6
ByLayer
 10
284.5514783733046897
 20
-334.0
 30
0.0
 40
4.0
  0
CIRCLE
  5
14A
100
AcDbEntity
100
AcDbCircle
  8
0
 62
3
420
65280
370
-1
 48
1.0
  6
ByLayer
 10
150.0
 20
-100.0
 30
0.0
 40
4.0
  0
CIRCLE
  5
14B
100
AcDbEntity
100
AcDbCircle
  8
0
 62
3
420
65280
370
-1
 48
1.0
  6
ByLayer
 10
91.2495999999999867
 20
-257.0
 30
0.0
 40
4.0
  0
CIRCLE
  5
14C
100
AcDbEntity
100
AcDbCircle
  8
0
 62
3
420
65280
370
-1
 48
1.0
  6
ByLayer
 10
141.2495999999999867
 20
-290.0
 30
0.0
 40
4.0
  0
CIRCLE
  5
14D
100
AcDbEntity
100
AcDbCircle
  8
0
 62
3
420
65280
370
-1
 48
1.0
  6
ByLayer
 10
149.9999999999999716
 20
-200.0000000000000284
 30
0.0
 40
4.0
  0
CIRCLE
  5
14E
100
AcDbEntity
100
AcDbCircle
  8
0
 62
3
420
65280
370
-1
 48
1.0
  6
ByLayer
 10
30.5000057530328021
 20
-210.0000000000000284
 30
0.0
 40
4.0
  0
LINE
  5
14F
100
AcDbEntity
100
AcDbLine
  8
0
 62
256
370
-1
 48
1.0
  6
ByLayer
 10
50.0
 20
-60.0
 30
0.0
 11
50.0
 21
-140.0
 31
0.0
  0
LINE
  5
150
100
AcDbEntity
100
AcDbLine
  8
0
 62
256
370
-1
 48
1.0
  6
ByLayer
 10
169.7499827409015438
 20
-160.0000000000000284
 30
0.0
 11
169.7499827409015438
 21
-240.0000000000000284
 31
0.0
  0
LINE
  5
151
100
AcDbEntity
100
AcDbLine
  8
0
 62
256
370
-1
 48
1.0
  6
ByLayer
 10
55.0
 20
-170.0000000000000284
 30
0.0
 11
55.0
 21
-250.0000000000000284
 31
0.0
  0
LINE
  5
152
100
AcDbEntity
100
AcDbLine
  8
0
 62
256
370
-1
 48
1.0
  6
ByLayer
 10
-50.0
 20
-130.0
 30
0.0
 11
-50.0
 21
-70.0
 31
0.0
  0
CIRCLE
  5
153
100
AcDbEntity
100
AcDbCircle
  8
0
 62
3
420
65280
370
-1
 48
1.0
  6
ByLayer
 10
25.500005753032795
 20
-70.0
 30
0.0
 40
4.7999999999999989
  0
CIRCLE
  5
154
100
AcDbEntity
100
AcDbCircle
  8
0
 62
3
420
65280
370
-1
 48
1.0
  6
ByLayer
 10
219.7499827409016007
 20
-109.9999999999999289
 30
0.0
 40
4.7999999999999989
  0
CIRCLE
  5
155
100
AcDbEntity
100
AcDbCircle
  8
0
 62
3
420
65280
370
-1
 48
1.0
  6
ByLayer
 10
219.9999999999999716
 20
-82.5000000000000284
 30
0.0
 40
4.7999999999999989
  0
CIRCLE
  5
156
100
AcDbEntity
100
AcDbCircle
  8
0
 62
3
420
65280
370
-1
 48
1.0
  6
ByLayer
 10
149.9999999999999432
 20
-70.0
 30
0.0
 40
4.7999999999999989
  0
CIRCLE
  5
157
100
AcDbEntity
100
AcDbCircle
  8
0
 62
3
420
65280
370
-1
 48
1.0
  6
ByLayer
 10
149.9999999999999432
 20
-170.0000000000000284
 30
0.0
 40
4.7999999999999989
  0
CIRCLE
  5
158
100
AcDbEntity
100
AcDbCircle
  8
0
 62
3
420
65280
370
-1
 48
1.0
  6
ByLayer
 10
30.5000057530327986
 20
-180.0000000000000284
 30
0.0
 40
4.7999999999999989
  0
CIRCLE
  5
159
100
AcDbEntity
100
AcDbCircle
  8
0
 62
3
420
65280
370
-1
 48
1.0
  6
ByLayer
 10
25.500005753032795
 20
-130.0
 30
0.0
 40
4.7999999999999989
  0
CIRCLE
  5
15A
100
AcDbEntity
100
AcDbCircle
  8
0
 62
3
420
65280
370
-1
 48
1.0
  6
ByLayer
 10
149.9999999999999432
 20
-129.9999999999999716
 30
0.0
 40
4.7999999999999989
  0
CIRCLE
  5
15B
100
AcDbEntity
100
AcDbCircle
  8
0
 62
3
420
65280
370
-1
 48
1.0
  6
ByLayer
 10
149.9999999999999432
 20
-230.0000000000000284
 30
0.0
 40
4.7999999999999989
  0
CIRCLE
  5
15C
100
AcDbEntity
100
AcDbCircle
  8
0
 62
3
420
65280
370
-1
 48
1.0
  6
ByLayer
 10
30.5000057530327986
 20
-240.0000000000000284
 30
0.0
 40
4.7999999999999989
  0
LINE
  5
15D
100
AcDbEntity
100
AcDbLine
  8
0
 62
256
370
-1
 48
1.0
  6
ByLayer
 10
19.2500057530328021
 20
-54.9999999999999432
 30
0.0
 11
31.750005753032795
 21
-54.9999999999999432
 31
0.0
  0
LINE
  5
15E
100
AcDbEntity
100
AcDbLine
  8
0
 62
256
370
-1
 48
1.0
  6
ByLayer
 10
31.750005753032795
 20
-145.0
 30
0.0
 11
19.2500057530328021
 21
-145.0
 31
0.0
  0
LINE
  5
15F
100
AcDbEntity
100
AcDbLine
  8
0
 62
256
370
-1
 48
1.0
  6
ByLayer
 10
213.4999827409016007
 20
-124.9999999999999716
 30
0.0
 11
225.9999827409016007
 21
-124.9999999999999716
 31
0.0
  0
LINE
  5
160
100
AcDbEntity
100
AcDbLine
  8
0
 62
256
370
-1
 48
1.0
  6
ByLayer
 10
263.4999827409016007
 20
-124.9999999999999716
 30
0.0
 11
275.9999827409016007
 21
-124.9999999999999716
 31
0.0
  0
LINE
  5
161
100
AcDbEntity
100
AcDbLine
  8
0
 62
256
370
-1
 48
1.0
  6
ByLayer
 10
263.75
 20
-67.4999999999999716
 30
0.0
 11
276.25
 21
-67.4999999999999716
 31
0.0
  0
LINE
  5
162
100
AcDbEntity
100
AcDbLine
  8
0
 62
256
370
-1
 48
1.0
  6
ByLayer
 10
213.75
 20
-67.4999999999999716
 30
0.0
 11
226.2499999999999716
 21
-67.4999999999999716
 31
0.0
  0
LINE
  5
163
100
AcDbEntity
100
AcDbLine
  8
0
 62
256
370
-1
 48
1.0
  6
ByLayer
 10
143.7499999999999716
 20
-145.0000000000000284
 30
0.0
 11
156.2499999999999432
 21
-145.0000000000000284
 31
0.0
  0
LINE
  5
164
100
AcDbEntity
100
AcDbLine
  8
0
 62
256
370
-1
 48
1.0
  6
ByLayer
 10
143.7499999999999716
 20
-54.9999999999999432
 30
0.0
 11
156.2499999999999432
 21
-54.9999999999999432
 31
0.0
  0
LINE
  5
165
100
AcDbEntity
100
AcDbLine
  8
0
 62
256
370
-1
 48
1.0
  6
ByLayer
 10
143.7499999999999716
 20
-154.9999999999999716
 30
0.0
 11
156.2499999999999432
 21
-154.9999999999999716
 31
0.0
  0
LINE
  5
166
100
AcDbEntity
100
AcDbLine
  8
0
 62
256
370
-1
 48
1.0
  6
ByLayer
 10
156.2499999999999432
 20
-245.0000000000000284
 30
0.0
 11
143.7499999999999716
 21
-245.0000000000000284
 31
0.0
  0
LINE
  5
167
100
AcDbEntity
100
AcDbLine
  8
0
 62
256
370
-1
 48
1.0
  6
ByLayer
 10
24.2500057530328057
 20
-164.9999999999999716
 30
0.0
 11
36.750005753032795
 21
-164.9999999999999716
 31
0.0
  0
LINE
  5
168
100
AcDbEntity
100
AcDbLine
  8
0
 62
256
370
-1
 48
1.0
  6
ByLayer
 10
36.750005753032795
 20
-255.0000000000000284
 30
0.0
 11
24.2500057530328057
 21
-255.0000000000000284
 31
0.0
  0
LINE
  5
169
100
AcDbEntity
100
AcDbLine
  8
0
 62
256
370
-1
 48
1.0
  6
ByLayer
 10
38.0000057530327879
 20
-60.0000000000000284
 30
0.0
 11
31.750005753032795
 21
-54.9999999999999432
 31
0.0
  0
LINE
  5
16A
100
AcDbEntity
100
AcDbLine
  8
0
 62
256
370
-1
 48
1.0
  6
ByLayer
 10
31.750005753032795
 20
-145.0
 30
0.0
 11
38.0000057530327879
 21
-140.0
 31
0.0
  0
LINE
  5
16B
100
AcDbEntity
100
AcDbLine
  8
0
 62
256
370
-1
 48
1.0
  6
ByLayer
 10
232.2499827409016007
 20
-119.9999999999998863
 30
0.0
 11
225.9999827409016007
 21
-124.9999999999999716
 31
0.0
  0
LINE
  5
16C
100
AcDbEntity
100
AcDbLine
  8
0
 62
256
370
-1
 48
1.0
  6
ByLayer
 10
282.2499827409016007
 20
-119.9999999999998721
 30
0.0
 11
275.9999827409016007
 21
-124.9999999999999716
 31
0.0
  0
LINE
  5
16D
100
AcDbEntity
100
AcDbLine
  8
0
 62
256
370
-1
 48
1.0
  6
ByLayer
 10
282.5
 20
-72.5000000000000568
 30
0.0
 11
276.25
 21
-67.4999999999999716
 31
0.0
  0
LINE
  5
16E
100
AcDbEntity
100
AcDbLine
  8
0
 62
256
370
-1
 48
1.0
  6
ByLayer
 10
232.4999999999999716
 20
-72.5000000000000568
 30
0.0
 11
226.2499999999999716
 21
-67.4999999999999716
 31
0.0
  0
LINE
  5
16F
100
AcDbEntity
100
AcDbLine
  8
0
 62
256
370
-1
 48
1.0
  6
ByLayer
 10
162.4999999999999432
 20
-139.9999999999999716
 30
0.0
 11
156.2499999999999432
 21
-145.0000000000000284
 31
0.0
  0
LINE
  5
170
100
AcDbEntity
100
AcDbLine
  8
0
 62
256
370
-1
 48
1.0
  6
ByLayer
 10
162.4999999999999432
 20
-60.0000000000000284
 30
0.0
 11
156.2499999999999432
 21
-54.9999999999999432
 31
0.0
  0
LINE
  5
171
100
AcDbEntity
100
AcDbLine
  8
0
 62
256
370
-1
 48
1.0
  6
ByLayer
 10
162.4999999999999432
 20
-160.0000000000000568
 30
0.0
 11
156.2499999999999432
 21
-154.9999999999999716
 31
0.0
  0
LINE
  5
172
100
AcDbEntity
100
AcDbLine
  8
0
 62
256
370
-1
 48
1.0
  6
ByLayer
 10
156.2499999999999432
 20
-245.0000000000000284
 30
0.0
 11
162.4999999999999432
 21
-240.0000000000000284
 31
0.0
  0
LINE
  5
173
100
AcDbEntity
100
AcDbLine
  8
0
 62
256
370
-1
 48
1.0
  6
ByLayer
 10
43.000005753032795
 20
-170.0000000000000568
 30
0.0
 11
36.750005753032795
 21
-164.9999999999999716
 31
0.0
  0
LINE
  5
174
100
AcDbEntity
100
AcDbLine
  8
0
 62
256
370
-1
 48
1.0
  6
ByLayer
 10
36.750005753032795
 20
-255.0000000000000284
 30
0.0
 11
43.000005753032795
 21
-250.0000000000000284
 31
0.0
  0
LINE
  5
175
100
AcDbEntity
100
AcDbLine
  8
0
 62
256
370
-1
 48
1.0
  6
ByLayer
 10
50.0
 20
-60.0
 30
0.0
 11
38.0000057530327879
 21
-60.0000000000000284
 31
0.0
  0
LINE
  5
176
100
AcDbEntity
100
AcDbLine
  8
0
 62
256
370
-1
 48
1.0
  6
ByLayer
 10
38.0000057530327879
 20
-140.0
 30
0.0
 11
50.0
 21
-140.0
 31
0.0
  0
LINE
  5
177
100
AcDbEntity
100
AcDbLine
  8
0
 62
256
370
-1
 48
1.0
  6
ByLayer
 10
169.7499827409015154
 20
-160.0000000000000284
 30
0.0
 11
162.4999999999999432
 21
-160.0000000000000568
 31
0.0
  0
LINE
  5
178
100
AcDbEntity
100
AcDbLine
  8
0
 62
256
370
-1
 48
1.0
  6
ByLayer
 10
162.4999999999999432
 20
-240.0000000000000284
 30
0.0
 11
169.7499827409015154
 21
-240.0000000000000284
 31
0.0
  0
LINE
  5
179
100
AcDbEntity
100
AcDbLine
  8
0
 62
256
370
-1
 48
1.0
  6
ByLayer
 10
43.000005753032795
 20
-250.0000000000000284
 30
0.0
 11
55.0
 21
-250.0000000000000284
 31
0.0
  0
LINE
  5
17A
100
AcDbEntity
100
AcDbLine
  8
0
 62
256
370
-1
 48
1.0
  6
ByLayer
 10
55.0
 20
-170.0000000000000284
 30
0.0
 11
43.000005753032795
 21
-170.0000000000000568
 31
0.0
  0
LINE
  5
17B
100
AcDbEntity
100
AcDbLine
  8
0
 62
256
370
-1
 48
1.0
  6
ByLayer
 10
13.000005753032795
 20
-59.9999999999999716
 30
0.0
 11
19.2500057530328021
 21
-54.9999999999999432
 31
0.0
  0
LINE
  5
17C
100
AcDbEntity
100
AcDbLine
  8
0
 62
256
370
-1
 48
1.0
  6
ByLayer
 10
19.2500057530328021
 20
-145.0
 30
0.0
 11
13.000005753032795
 21
-140.0
 31
0.0
  0
LINE
  5
17D
100
AcDbEntity
100
AcDbLine
  8
0
 62
256
370
-1
 48
1.0
  6
ByLayer
 10
207.2499827409016007
 20
-119.9999999999999574
 30
0.0
 11
213.4999827409016007
 21
-124.9999999999999716
 31
0.0
  0
LINE
  5
17E
100
AcDbEntity
100
AcDbLine
  8
0
 62
256
370
-1
 48
1.0
  6
ByLayer
 10
257.2499827409016007
 20
-119.9999999999999432
 30
0.0
 11
263.4999827409016007
 21
-124.9999999999999716
 31
0.0
  0
LINE
  5
17F
100
AcDbEntity
100
AcDbLine
  8
0
 62
256
370
-1
 48
1.0
  6
ByLayer
 10
257.5
 20
-72.5
 30
0.0
 11
263.75
 21
-67.4999999999999716
 31
0.0
  0
LINE
  5
180
100
AcDbEntity
100
AcDbLine
  8
0
 62
256
370
-1
 48
1.0
  6
ByLayer
 10
207.4999999999999716
 20
-72.5
 30
0.0
 11
213.75
 21
-67.4999999999999716
 31
0.0
  0
LINE
  5
181
100
AcDbEntity
100
AcDbLine
  8
0
 62
256
370
-1
 48
1.0
  6
ByLayer
 10
137.4999999999999716
 20
-139.9999999999999716
 30
0.0
 11
143.7499999999999716
 21
-145.0000000000000284
 31
0.0
  0
LINE
  5
182
100
AcDbEntity
100
AcDbLine
  8
0
 62
256
370
-1
 48
1.0
  6
ByLayer
 10
137.4999999999999432
 20
-59.9999999999999716
 30
0.0
 11
143.7499999999999716
 21
-54.9999999999999432
 31
0.0
  0
LINE
  5
183
100
AcDbEntity
100
AcDbLine
  8
0
 62
256
370
-1
 48
1.0
  6
ByLayer
 10
137.4999999999999432
 20
-160.0
 30
0.0
 11
143.7499999999999716
 21
-154.9999999999999716
 31
0.0
  0
LINE
  5
184
100
AcDbEntity
100
AcDbLine
  8
0
 62
256
370
-1
 48
1.0
  6
ByLayer
 10
143.7499999999999716
 20
-245.0000000000000284
 30
0.0
 11
137.4999999999999432
 21
-240.0000000000000284
 31
0.0
  0
LINE
  5
185
100
AcDbEntity
100
AcDbLine
  8
0
 62
256
370
-1
 48
1.0
  6
ByLayer
 10
18.0000057530327986
 20
-170.0
 30
0.0
 11
24.2500057530328057
 21
-164.9999999999999716
 31
0.0
  0
LINE
  5
186
100
AcDbEntity
100
AcDbLine
  8
0
 62
256
370
-1
 48
1.0
  6
ByLayer
 10
24.2500057530328057
 20
-255.0000000000000284
 30
0.0
 11
18.0000057530327986
 21
-250.0000000000000284
 31
0.0
  0
LINE
  5
187
100
AcDbEntity
100
AcDbLine
  8
0
 62
256
370
-1
 48
1.0
  6
ByLayer
 10
-40.0000000000000071
 20
-59.9999999999999929
 30
0.0
 11
13.000005753032795
 21
-59.9999999999999716
 31
0.0
  0
LINE
  5
188
100
AcDbEntity
100
AcDbLine
  8
0
 62
256
370
-1
 48
1.0
  6
ByLayer
 10
13.000005753032795
 20
-140.0
 30
0.0
 11
-40.0
 21
-140.0
 31
0.0
  0
LINE
  5
189
100
AcDbEntity
100
AcDbLine
  8
0
 62
256
370
-1
 48
1.0
  6
ByLayer
 10
-50.0
 20
-70.0
 30
0.0
 11
-40.0000000000000071
 21
-60.0
 31
0.0
  0
LINE
  5
18A
100
AcDbEntity
100
AcDbLine
  8
0
 62
256
370
-1
 48
1.0
  6
ByLayer
 10
-50.0
 20
-130.0
 30
0.0
 11
-40.0
 21
-140.0
 31
0.0
  0
LINE
  5
18B
100
AcDbEntity
100
AcDbLine
  8
0
 62
256
370
-1
 48
1.0
  6
ByLayer
 10
137.4999999999999432
 20
-240.0000000000000284
 30
0.0
 11
130.2500172590983993
 21
-240.0000000000000284
 31
0.0
  0
LINE
  5
18C
100
AcDbEntity
100
AcDbLine
  8
0
 62
256
370
-1
 48
1.0
  6
ByLayer
 10
18.0000057530327986
 20
-250.0000000000000284
 30
0.0
 11
10.0
 21
-250.0000000000000284
 31
0.0
  0
LINE
  5
18D
100
AcDbEntity
100
AcDbLine
  8
0
 62
256
370
-1
 48
1.0
  6
ByLayer
 10
130.2500172590983993
 20
-240.0000000000000284
 30
0.0
 11
130.2500172590983993
 21
-160.0
 31
0.0
  0
LINE
  5
18E
100
AcDbEntity
100
AcDbLine
  8
0
 62
256
370
-1
 48
1.0
  6
ByLayer
 10
10.0
 20
-250.0000000000000284
 30
0.0
 11
10.0
 21
-170.0
 31
0.0
  0
LINE
  5
18F
100
AcDbEntity
100
AcDbLine
  8
0
 62
256
370
-1
 48
1.0
  6
ByLayer
 10
130.2500172590983993
 20
-160.0
 30
0.0
 11
137.4999999999999432
 21
-160.0
 31
0.0
  0
LINE
  5
190
100
AcDbEntity
100
AcDbLine
  8
0
 62
256
370
-1
 48
1.0
  6
ByLayer
 10
10.0
 20
-170.0
 30
0.0
 11
18.0000057530327986
 21
-170.0
 31
0.0
  0
CIRCLE
  5
191
100
AcDbEntity
100
AcDbCircle
  8
0
 62
256
370
-1
 48
1.0
  6
ByLayer
 10
170.0
 20
-290.0
 30
0.0
 40
6.5
  0
CIRCLE
  5
192
100
AcDbEntity
100
AcDbCircle
  8
0
 62
256
370
-1
 48
1.0
  6
ByLayer
 10
120.0
 20
-257.0
 30
0.0
 40
6.5
  0
CIRCLE
  5
193
100
AcDbEntity
100
AcDbCircle
  8
0
 62
256
370
-1
 48
1.0
  6
ByLayer
 10
100.0
 20
-300.0
 30
0.0
 40
6.5
  0
ARC
  5
194
100
AcDbEntity
  8
0
 62
256
370
-1
 48
1.0
  6
ByLayer
100
AcDbCircle
 10
100.0
 20
-300.0
 30
0.0
 40
14.3970432533905406
100
AcDbArc
 50
243.1612188790391258
 51
116.8387811209608174
  0
ARC
  5
195
100
AcDbEntity
  8
0
 62
256
370
-1
 48
1.0
  6
ByLayer
100
AcDbCircle
 10
120.0
 20
-257.0
 30
0.0
 40
14.3970432533905406
100
AcDbArc
 50
243.1612188790391258
 51
116.8387811209608174
  0
ARC
  5
196
100
AcDbEntity
  8
0
 62
256
370
-1
 48
1.0
  6
ByLayer
100
AcDbCircle
 10
170.0
 20
-290.0
 30
0.0
 40
14.3970432533905406
100
AcDbArc
 50
243.1612188790391258
 51
116.8387811209608174
  0
LINE
  5
197
100
AcDbEntity
100
AcDbLine
  8
0
 62
256
370
-1
 48
1.0
  6
ByLayer
 10
10.0
 20
-190.0
 30
0.0
 11
55.0
 21
-190.0
 31
0.0
  0
ARC
  5
198
100
AcDbEntity
  8
0
 62
256
370
-1
 48
1.0
  6
ByLayer
100
AcDbCircle
 10
149.9999999999999432
 20
-129.9999999999999716
 30
0.0
 40
7.5789999999999988
100
AcDbArc
 50
139.0007411494477765
 51
40.9992588505522519
  0
ARC
  5
199
100
AcDbEntity
  8
0
 62
256
370
-1
 48
1.0
  6
ByLayer
100
AcDbCircle
 10
149.9999999999999432
 20
-129.9999999999999716
 30
0.0
 40
6.8899999999999988
100
AcDbArc
 50
139.0007411494477765
 51
40.9992588505522519
  0
ARC
  5
19A
100
AcDbEntity
  8
0
 62
256
370
-1
 48
1.0
  6
ByLayer
100
AcDbCircle
 10
149.9999999999999432
 20
-70.0
 30
0.0
 40
7.5789999999999988
100
AcDbArc
 50
319.0007411494477765
 51
220.9992588505522519
  0
ARC
  5
19B
100
AcDbEntity
  8
0
 62
256
370
-1
 48
1.0
  6
ByLayer
100
AcDbCircle
 10
149.9999999999999432
 20
-70.0
 30
0.0
 40
6.8899999999999988
100
AcDbArc
 50
319.0007411494477765
 51
220.9992588505522519
  0
LINE
  5
19C
100
AcDbEntity
100
AcDbLine
  8
0
 62
256
370
-1
 48
1.0
  6
ByLayer
 10
144.7999925210573338
 20
-122.7870732062597199
 30
0.0
 11
137.7499942469671623
 21
-120.0
 31
0.0
  0
LINE
  5
19D
100
AcDbEntity
100
AcDbLine
  8
0
 62
256
370
-1
 48
1.0
  6
ByLayer
 10
155.200007478942581
 20
-122.7870732062597483
 30
0.0
 11
162.2500057530327524
 21
-120.0
 31
0.0
  0
LINE
  5
19E
100
AcDbEntity
100
AcDbLine
  8
0
 62
256
370
-1
 48
1.0
  6
ByLayer
 10
144.7999925210573338
 20
-77.2129267937402517
 30
0.0
 11
137.7499942469671623
 21
-79.9999999999999716
 31
0.0
  0
LINE
  5
19F
100
AcDbEntity
100
AcDbLine
  8
0
 62
256
370
-1
 48
1.0
  6
ByLayer
 10
155.200007478942581
 20
-77.2129267937402233
 30
0.0
 11
162.2500057530327524
 21
-79.9999999999999716
 31
0.0
  0
LINE
  5
1A0
100
AcDbEntity
100
AcDbLine
  8
0
 62
256
370
-1
 48
1.0
  6
ByLayer
 10
155.200007478942581
 20
-125.4798205545641281
 30
0.0
 11
155.200007478942581
 21
-122.7870732062597483
 31
0.0
  0
LINE
  5
1A1
100
AcDbEntity
100
AcDbLine
  8
0
 62
256
370
-1
 48
1.0
  6
ByLayer
 10
155.200007478942581
 20
-74.5201794454358435
 30
0.0
 11
155.200007478942581
 21
-77.2129267937402233
 31
0.0
  0
LINE
  5
1A2
100
AcDbEntity
100
AcDbLine
  8
0
 62
256
370
-1
 48
1.0
  6
ByLayer
 10
144.7999925210573338
 20
-125.4798205545641281
 30
0.0
 11
144.7999925210573338
 21
-122.7870732062597199
 31
0.0
  0
LINE
  5
1A3
100
AcDbEntity
100
AcDbLine
  8
0
 62
256
370
-1
 48
1.0
  6
ByLayer
 10
144.7999925210573338
 20
-74.5201794454358435
 30
0.0
 11
144.7999925210573338
 21
-77.2129267937402517
 31
0.0
  0
LINE
  5
1A4
100
AcDbEntity
100
AcDbLine
  8
0
 62
256
370
-1
 48
1.0
  6
ByLayer
 10
155.7200082268368533
 20
-125.0278026100205579
 30
0.0
 11
155.7200082268368533
 21
-122.5815015032116548
 31
0.0
  0
LINE
  5
1A5
100
AcDbEntity
100
AcDbLine
  8
0
 62
256
370
-1
 48
1.0
  6
ByLayer
 10
155.7200082268368533
 20
-74.9721973899794136
 30
0.0
 11
155.7200082268368533
 21
-77.4184984967883167
 31
0.0
  0
LINE
  5
1A6
100
AcDbEntity
100
AcDbLine
  8
0
 62
256
370
-1
 48
1.0
  6
ByLayer
 10
144.2799917731630615
 20
-125.0278026100205579
 30
0.0
 11
144.2799917731630615
 21
-122.581501503211598
 31
0.0
  0
LINE
  5
1A7
100
AcDbEntity
100
AcDbLine
  8
0
 62
256
370
-1
 48
1.0
  6
ByLayer
 10
144.2799917731630615
 20
-74.9721973899794136
 30
0.0
 11
144.2799917731630615
 21
-77.4184984967883736
 31
0.0
  0
LINE
  5
1A8
100
AcDbEntity
100
AcDbLine
  8
0
 62
256
370
-1
 48
1.0
  6
ByLayer
 10
137.7499942469671623
 20
-120.0000000000000284
 30
0.0
 11
134.0000057530327808
 21
-122.5000000000000284
 31
0.0
  0
LINE
  5
1A9
100
AcDbEntity
100
AcDbLine
  8
0
 62
256
370
-1
 48
1.0
  6
ByLayer
 10
130.2500172590983993
 20
-120.0000000000000284
 30
0.0
 11
134.0000057530327808
 21
-122.5000000000000284
 31
0.0
  0
LINE
  5
1AA
100
AcDbEntity
100
AcDbLine
  8
0
 62
256
370
-1
 48
1.0
  6
ByLayer
 10
162.2500057530327808
 20
-120.0
 30
0.0
 11
165.9999942469671623
 21
-122.5
 31
0.0
  0
LINE
  5
1AB
100
AcDbEntity
100
AcDbLine
  8
0
 62
256
370
-1
 48
1.0
  6
ByLayer
 10
169.7499827409015438
 20
-120.0
 30
0.0
 11
165.9999942469671623
 21
-122.5
 31
0.0
  0
LINE
  5
1AC
100
AcDbEntity
100
AcDbLine
  8
0
 62
256
370
-1
 48
1.0
  6
ByLayer
 10
137.7499942469671623
 20
-79.9999999999999432
 30
0.0
 11
134.0000057530327808
 21
-77.4999999999999432
 31
0.0
  0
LINE
  5
1AD
100
AcDbEntity
100
AcDbLine
  8
0
 62
256
370
-1
 48
1.0
  6
ByLayer
 10
130.2500172590983993
 20
-79.9999999999999432
 30
0.0
 11
134.0000057530327808
 21
-77.4999999999999432
 31
0.0
  0
LINE
  5
1AE
100
AcDbEntity
100
AcDbLine
  8
0
 62
256
370
-1
 48
1.0
  6
ByLayer
 10
162.2500057530327808
 20
-79.9999999999999716
 30
0.0
 11
165.9999942469671623
 21
-77.4999999999999716
 31
0.0
  0
LINE
  5
1AF
100
AcDbEntity
100
AcDbLine
  8
0
 62
256
370
-1
 48
1.0
  6
ByLayer
 10
169.7499827409015438
 20
-79.9999999999999716
 30
0.0
 11
165.9999942469671623
 21
-77.4999999999999716
 31
0.0
  0
LINE
  5
1B0
100
AcDbEntity
100
AcDbLine
  8
0
 62
256
370
-1
 48
1.0
  6
ByLayer
 10
239.4999654818032013
 20
-99.9999999999999147
 30
0.0
 11
239.4999654818032013
 21
-119.9999999999998863
 31
0.0
  0
LINE
  5
1B1
100
AcDbEntity
100
AcDbLine
  8
0
 62
256
370
-1
 48
1.0
  6
ByLayer
 10
200.0
 20
-100.0
 30
0.0
 11
200.0
 21
-119.9999999999999432
 31
0.0
  0
LINE
  5
1B2
100
AcDbEntity
100
AcDbLine
  8
0
 62
256
370
-1
 48
1.0
  6
ByLayer
 10
289.4999654818032013
 20
-99.9999999999999005
 30
0.0
 11
289.4999654818032013
 21
-119.9999999999999005
 31
0.0
  0
LINE
  5
1B3
100
AcDbEntity
100
AcDbLine
  8
0
 62
256
370
-1
 48
1.0
  6
ByLayer
 10
250.0
 20
-99.9999999999999716
 30
0.0
 11
250.0
 21
-119.9999999999999432
 31
0.0
  0
LINE
  5
1B4
100
AcDbEntity
100
AcDbLine
  8
0
 62
256
370
-1
 48
1.0
  6
ByLayer
 10
289.7499827409016007
 20
-92.5000000000000284
 30
0.0
 11
289.7499827409016007
 21
-72.5000000000000568
 31
0.0
  0
LINE
  5
1B5
100
AcDbEntity
100
AcDbLine
  8
0
 62
256
370
-1
 48
1.0
  6
ByLayer
 10
250.2500172590984278
 20
-92.4999999999999716
 30
0.0
 11
250.2500172590984278
 21
-72.5
 31
0.0
  0
LINE
  5
1B6
100
AcDbEntity
100
AcDbLine
  8
0
 62
256
370
-1
 48
1.0
  6
ByLayer
 10
239.7499827409015722
 20
-92.5000000000000284
 30
0.0
 11
239.7499827409015722
 21
-72.5000000000000568
 31
0.0
  0
LINE
  5
1B7
100
AcDbEntity
100
AcDbLine
  8
0
 62
256
370
-1
 48
1.0
  6
ByLayer
 10
200.2500172590984278
 20
-92.4999999999999716
 30
0.0
 11
200.2500172590984278
 21
-72.5
 31
0.0
  0
LINE
  5
1B8
100
AcDbEntity
100
AcDbLine
  8
0
 62
256
370
-1
 48
1.0
  6
ByLayer
 10
169.7499827409015438
 20
-119.9999999999999716
 30
0.0
 11
169.7499827409015438
 21
-139.9999999999999716
 31
0.0
  0
LINE
  5
1B9
100
AcDbEntity
100
AcDbLine
  8
0
 62
256
370
-1
 48
1.0
  6
ByLayer
 10
130.2500172590983993
 20
-120.0000000000000284
 30
0.0
 11
130.2500172590983993
 21
-139.9999999999999716
 31
0.0
  0
LINE
  5
1BA
100
AcDbEntity
100
AcDbLine
  8
0
 62
256
370
-1
 48
1.0
  6
ByLayer
 10
169.7499827409015438
 20
-80.0
 30
0.0
 11
169.7499827409015438
 21
-60.0000000000000284
 31
0.0
  0
LINE
  5
1BB
100
AcDbEntity
100
AcDbLine
  8
0
 62
256
370
-1
 48
1.0
  6
ByLayer
 10
130.2500172590983993
 20
-79.9999999999999432
 30
0.0
 11
130.2500172590983993
 21
-59.9999999999999716
 31
0.0
  0
LINE
  5
1BC
100
AcDbEntity
100
AcDbLine
  8
0
 62
256
370
-1
 48
1.0
  6
ByLayer
 10
200.0
 20
-119.9999999999999432
 30
0.0
 11
207.2499827409016007
 21
-119.9999999999999574
 31
0.0
  0
LINE
  5
1BD
100
AcDbEntity
100
AcDbLine
  8
0
 62
256
370
-1
 48
1.0
  6
ByLayer
 10
250.0
 20
-119.9999999999999432
 30
0.0
 11
257.2499827409016007
 21
-119.9999999999999432
 31
0.0
  0
LINE
  5
1BE
100
AcDbEntity
100
AcDbLine
  8
0
 62
256
370
-1
 48
1.0
  6
ByLayer
 10
250.2500172590984278
 20
-72.5
 30
0.0
 11
257.5
 21
-72.5
 31
0.0
  0
LINE
  5
1BF
100
AcDbEntity
100
AcDbLine
  8
0
 62
256
370
-1
 48
1.0
  6
ByLayer
 10
200.2500172590984278
 20
-72.5
 30
0.0
 11
207.4999999999999716
 21
-72.5
 31
0.0
  0
LINE
  5
1C0
100
AcDbEntity
100
AcDbLine
  8
0
 62
256
370
-1
 48
1.0
  6
ByLayer
 10
130.2500172590983993
 20
-139.9999999999999716
 30
0.0
 11
137.4999999999999716
 21
-139.9999999999999716
 31
0.0
  0
LINE
  5
1C1
100
AcDbEntity
100
AcDbLine
  8
0
 62
256
370
-1
 48
1.0
  6
ByLayer
 10
130.2500172590983993
 20
-59.9999999999999716
 30
0.0
 11
137.4999999999999432
 21
-59.9999999999999716
 31
0.0
  0
LINE
  5
1C2
100
AcDbEntity
100
AcDbLine
  8
0
 62
256
370
-1
 48
1.0
  6
ByLayer
 10
232.2499827409016007
 20
-119.9999999999998863
 30
0.0
 11
239.4999654818032013
 21
-119.9999999999998863
 31
0.0
  0
LINE
  5
1C3
100
AcDbEntity
100
AcDbLine
  8
0
 62
256
370
-1
 48
1.0
  6
ByLayer
 10
282.2499827409016007
 20
-119.9999999999998721
 30
0.0
 11
289.4999654818032013
 21
-119.9999999999999005
 31
0.0
  0
LINE
  5
1C4
100
AcDbEntity
100
AcDbLine
  8
0
 62
256
370
-1
 48
1.0
  6
ByLayer
 10
282.5
 20
-72.5000000000000568
 30
0.0
 11
289.7499827409016007
 21
-72.5000000000000568
 31
0.0
  0
LINE
  5
1C5
100
AcDbEntity
100
AcDbLine
  8
0
 62
256
370
-1
 48
1.0
  6
ByLayer
 10
232.4999999999999716
 20
-72.5000000000000568
 30
0.0
 11
239.7499827409015722
 21
-72.5000000000000568
 31
0.0
  0
LINE
  5
1C6
100
AcDbEntity
100
AcDbLine
  8
0
 62
256
370
-1
 48
1.0
  6
ByLayer
 10
162.4999999999999432
 20
-139.9999999999999716
 30
0.0
 11
169.7499827409015438
 21
-139.9999999999999716
 31
0.0
  0
LINE
  5
1C7
100
AcDbEntity
100
AcDbLine
  8
0
 62
256
370
-1
 48
1.0
  6
ByLayer
 10
162.4999999999999432
 20
-60.0000000000000284
 30
0.0
 11
169.7499827409015438
 21
-60.0000000000000284
 31
0.0
  0
LINE
  5
1C8
100
AcDbEntity
100
AcDbLine
  8
0
 62
256
370
-1
 48
1.0
  6
ByLayer
 10
130.2500172590983993
 20
-120.0000000000000284
 30
0.0
 11
130.2500172590983993
 21
-79.9999999999999147
 31
0.0
  0
LINE
  5
1C9
100
AcDbEntity
100
AcDbLine
  8
0
 62
256
370
-1
 48
1.0
  6
ByLayer
 10
280.8150791232779966
 20
-295.3402217449728369
 30
0.0
 11
280.8150791232779966
 21
-290.3402217449728369
 31
0.0
  0
LINE
  5
1CA
100
AcDbEntity
100
AcDbLine
  8
0
 62
256
370
-1
 48
1.0
  6
ByLayer
 10
303.0518898793703784
 20
-336.5
 30
0.0
 11
303.0518898793703784
 21
-331.5
 31
0.0
  0
LINE
  5
1CB
100
AcDbEntity
100
AcDbLine
  8
0
 62
256
370
-1
 48
1.0
  6
ByLayer
 10
257.5004115060656886
 20
-337.5
 30
0.0
 11
257.5004115060656886
 21
-332.5
 31
0.0
  0
LINE
  5
1CC
100
AcDbEntity
100
AcDbLine
  8
0
 62
256
370
-1
 48
1.0
  6
ByLayer
 10
165.9999942469671623
 20
-102.4999999999999716
 30
0.0
 11
165.9999942469671623
 21
-97.4999999999999716
 31
0.0
  0
LINE
  5
1CD
100
AcDbEntity
100
AcDbLine
  8
0
 62
256
370
-1
 48
1.0
  6
ByLayer
 10
280.8150791232779966
 20
-295.3402217449728369
 30
0.0
 11
284.5650676172123212
 21
-302.8401987328415998
 31
0.0
  0
LINE
  5
1CE
100
AcDbEntity
100
AcDbLine
  8
0
 62
256
370
-1
 48
1.0
  6
ByLayer
 10
280.8150791232779966
 20
-290.3402217449728369
 30
0.0
 11
284.5650676172123212
 21
-282.840244757104017
 31
0.0
  0
LINE
  5
1CF
100
AcDbEntity
100
AcDbLine
  8
0
 62
256
370
-1
 48
1.0
  6
ByLayer
 10
303.0518898793703784
 20
-336.5
 30
0.0
 11
306.801878373304703
 21
-343.999976987868763
 31
0.0
  0
LINE
  5
1D0
100
AcDbEntity
100
AcDbLine
  8
0
 62
256
370
-1
 48
1.0
  6
ByLayer
 10
303.0518898793703784
 20
-331.5
 30
0.0
 11
306.801878373304703
 21
-324.0000230121311802
 31
0.0
  0
LINE
  5
1D1
100
AcDbEntity
100
AcDbLine
  8
0
 62
256
370
-1
 48
1.0
  6
ByLayer
 10
257.5004115060656886
 20
-337.5
 30
0.0
 11
261.2504000000000133
 21
-344.999976987868763
 31
0.0
  0
LINE
  5
1D2
100
AcDbEntity
100
AcDbLine
  8
0
 62
256
370
-1
 48
1.0
  6
ByLayer
 10
257.5004115060656886
 20
-332.5
 30
0.0
 11
261.2504000000000133
 21
-325.0000230121311802
 31
0.0
  0
LINE
  5
1D3
100
AcDbEntity
100
AcDbLine
  8
0
 62
256
370
-1
 48
1.0
  6
ByLayer
 10
165.9999942469671623
 20
-102.4999999999999716
 30
0.0
 11
169.7499827409015438
 21
-109.999976987868763
 31
0.0
  0
LINE
  5
1D4
100
AcDbEntity
100
AcDbLine
  8
0
 62
256
370
-1
 48
1.0
  6
ByLayer
 10
165.9999942469671623
 20
-97.4999999999999716
 30
0.0
 11
169.7499827409015438
 21
-90.0000230121311802
 31
0.0
  0
LINE
  5
1D5
100
AcDbEntity
100
AcDbLine
  8
0
 62
256
370
-1
 48
1.0
  6
ByLayer
 10
169.7499827409015438
 20
-90.0000230121311802
 30
0.0
 11
169.7499827409015438
 21
-79.9999999999999432
 31
0.0
  0
LINE
  5
1D6
100
AcDbEntity
100
AcDbLine
  8
0
 62
256
370
-1
 48
1.0
  6
ByLayer
 10
169.7499827409015438
 20
-109.999976987868763
 30
0.0
 11
169.7499827409015438
 21
-119.9999999999999716
 31
0.0
  0
LINE
  5
1D7
100
AcDbEntity
100
AcDbLine
  8
0
 62
256
370
-1
 48
1.0
  6
ByLayer
 10
239.4999654818032013
 20
-99.9999999999999147
 30
0.0
 11
200.0
 21
-100.0
 31
0.0
  0
LINE
  5
1D8
100
AcDbEntity
100
AcDbLine
  8
0
 62
256
370
-1
 48
1.0
  6
ByLayer
 10
289.4999654818032013
 20
-99.9999999999999005
 30
0.0
 11
250.0
 21
-99.9999999999999716
 31
0.0
  0
LINE
  5
1D9
100
AcDbEntity
100
AcDbLine
  8
0
 62
256
370
-1
 48
1.0
  6
ByLayer
 10
289.7499827409016007
 20
-92.5000000000000284
 30
0.0
 11
250.2500172590984278
 21
-92.4999999999999716
 31
0.0
  0
LINE
  5
1DA
100
AcDbEntity
100
AcDbLine
  8
0
 62
256
370
-1
 48
1.0
  6
ByLayer
 10
239.7499827409015722
 20
-92.5000000000000284
 30
0.0
 11
200.2500172590984278
 21
-92.4999999999999716
 31
0.0
  0
LINE
  5
1DB
100
AcDbEntity
100
AcDbLine
  8
0
 62
256
370
-1
 48
1.0
  6
ByLayer
 10
284.5650676172122644
 20
-305.6864217449727903
 30
0.0
 11
284.5650676172123212
 21
-302.8401987328415998
 31
0.0
  0
LINE
  5
1DC
100
AcDbEntity
100
AcDbLine
  8
0
 62
256
370
-1
 48
1.0
  6
ByLayer
 10
306.801878373304703
 20
-346.8461999999999534
 30
0.0
 11
306.801878373304703
 21
-343.999976987868763
 31
0.0
  0
LINE
  5
1DD
100
AcDbEntity
100
AcDbLine
  8
0
 62
256
370
-1
 48
1.0
  6
ByLayer
 10
261.2504000000000133
 20
-347.8461999999999534
 30
0.0
 11
261.2504000000000133
 21
-344.999976987868763
 31
0.0
  0
LINE
  5
1DE
100
AcDbEntity
100
AcDbLine
  8
0
 62
256
370
-1
 48
1.0
  6
ByLayer
 10
284.5650676172123212
 20
-282.840244757104017
 30
0.0
 11
284.5650676172122644
 21
-279.9940217449728834
 31
0.0
  0
LINE
  5
1DF
100
AcDbEntity
100
AcDbLine
  8
0
 62
256
370
-1
 48
1.0
  6
ByLayer
 10
306.801878373304703
 20
-324.0000230121311802
 30
0.0
 11
306.801878373304703
 21
-321.1538000000000466
 31
0.0
  0
LINE
  5
1E0
100
AcDbEntity
100
AcDbLine
  8
0
 62
256
370
-1
 48
1.0
  6
ByLayer
 10
261.2504000000000133
 20
-325.0000230121311802
 30
0.0
 11
261.2504000000000133
 21
-322.1538000000000466
 31
0.0
  0
ENDSEC
  0
SECTION
  2
OBJECTS
  0
DICTIONARY
  5
C
100
AcDbDictionary
280
0
281
1
  3
ACAD_GROUP
350
D
  3
ACAD_LAYOUT
350
1A
  3
ACAD_MLINESTYLE
350
17
  3
ACAD_PLOTSETTINGS
350
19
  3
ACAD_PLOTSTYLENAME
350
E
  3
AcDbVariableDictionary
350
1E1
  3
QCAD_OBJECTS
350
1E2
  0
DICTIONARY
  5
D
100
AcDbDictionary
280
0
281
1
  0
ACDBDICTIONARYWDFLT
  5
E
100
AcDbDictionary
281
1
  3
Normal
350
F
100
AcDbDictionaryWithDefault
340
F
  0
ACDBPLACEHOLDER
  5
F
  0
DICTIONARY
  5
17
100
AcDbDictionary
280
0
281
1
  3
Standard
350
18
  0
MLINESTYLE
  5
18
100
AcDbMlineStyle
  2
STANDARD
 70
0
  3

 62
256
 51
90.0
 52
90.0
 71
2
 49
0.5
 62
256
  6
BYLAYER
 49
-0.5
 62
256
  6
BYLAYER
  0
DICTIONARY
  5
19
100
AcDbDictionary
280
0
281
1
  0
DICTIONARY
  5
1A
100
AcDbDictionary
281
1
  3
Layout1
350
1E
  3
Layout2
350
26
  3
Model
350
22
  0
LAYOUT
  5
1E
100
AcDbPlotSettings
  1

  2
none_device
  4

  6

 40
0.0
 41
0.0
 42
0.0
 43
0.0
 44
0.0
 45
0.0
 46
0.0
 47
0.0
 48
0.0
 49
0.0
140
0.0
141
0.0
142
1.0
143
1.0
 70
688
 72
0
 73
0
 74
5
  7

 75
16
147
1.0
148
0.0
149
0.0
100
AcDbLayout
  1
Layout1
 70
1
 71
1
 10
0.0
 20
0.0
 11
420.0
 21
297.0
 12
0.0
 22
0.0
 32
0.0
 14
100000000000000000000.0
 24
100000000000000000000.0
 34
100000000000000000000.0
 15
-100000000000000000000.0
 25
-100000000000000000000.0
 35
-100000000000000000000.0
146
0.0
 13
0.0
 23
0.0
 33
0.0
 16
1.0
 26
0.0
 36
0.0
 17
0.0
 27
1.0
 37
0.0
 76
0
330
1B
  0
LAYOUT
  5
22
100
AcDbPlotSettings
  1

  2
none_device
  4

  6

 40
0.0
 41
0.0
 42
0.0
 43
0.0
 44
0.0
 45
0.0
 46
0.0
 47
0.0
 48
0.0
 49
0.0
140
0.0
141
0.0
142
1.0
143
1.0
 70
1712
 72
0
 73
0
 74
0
  7

 75
0
147
1.0
148
0.0
149
0.0
100
AcDbLayout
  1
Model
 70
1
 71
0
 10
0.0
 20
0.0
 11
12.0
 21
9.0
 12
0.0
 22
0.0
 32
0.0
 14
0.0
 24
0.0
 34
0.0
 15
0.0
 25
0.0
 35
0.0
146
0.0
 13
0.0
 23
0.0
 33
0.0
 16
1.0
 26
0.0
 36
0.0
 17
0.0
 27
1.0
 37
0.0
 76
0
330
1F
  0
LAYOUT
  5
26
100
AcDbPlotSettings
  1

  2
none_device
  4

  6

 40
0.0
 41
0.0
 42
0.0
 43
0.0
 44
0.0
 45
0.0
 46
0.0
 47
0.0
 48
0.0
 49
0.0
140
0.0
141
0.0
142
1.0
143
1.0
 70
688
 72
0
 73
0
 74
5
  7

 75
16
147
1.0
148
0.0
149
0.0
100
AcDbLayout
  1
Layout2
 70
1
 71
2
 10
0.0
 20
0.0
 11
12.0
 21
9.0
 12
0.0
 22
0.0
 32
0.0
 14
0.0
 24
0.0
 34
0.0
 15
0.0
 25
0.0
 35
0.0
146
0.0
 13
0.0
 23
0.0
 33
0.0
 16
1.0
 26
0.0
 36
0.0
 17
0.0
 27
1.0
 37
0.0
 76
0
330
23
  0
DICTIONARY
  5
1E1
100
AcDbDictionary
281
1
  3
DIMASSOC
350
1E4
  3
HIDETEXT
350
1E3
  0
DICTIONARYVAR
  5
1E3
100
DictionaryVariables
280
0
  1
2
  0
DICTIONARYVAR
  5
1E4
100
DictionaryVariables
280
0
  1
1
  0
DICTIONARY
  5
1E2
100
AcDbDictionary
281
1
  3
ColorSettings/BackgroundColor
350
1E5
  3
ColorSettings/ColorMode
350
1E6
  3
Grid/DisplayGrid00
350
1E7
  3
Grid/DisplayGrid01
350
1E8
  3
Grid/DisplayGrid02
350
1E9
  3
Grid/DisplayGrid03
350
1EA
  3
Grid/GridSpacingX00
350
1EB
  3
Grid/GridSpacingX01
350
1EC
  3
Grid/GridSpacingX02
350
1ED
  3
Grid/GridSpacingX03
350
1EE
  3
Grid/GridSpacingY00
350
1EF
  3
Grid/GridSpacingY01
350
1F0
  3
Grid/GridSpacingY02
350
1F1
  3
Grid/GridSpacingY03
350
1F2
  3
Grid/IsometricGrid00
350
1F3
  3
Grid/IsometricGrid01
350
1F4
  3
Grid/IsometricGrid02
350
1F5
  3
Grid/IsometricGrid03
350
1F6
  3
Grid/IsometricProjection00
350
1F7
  3
Grid/IsometricProjection01
350
1F8
  3
Grid/IsometricProjection02
350
1F9
  3
Grid/IsometricProjection03
350
1FA
  3
Grid/MetaGridSpacingX00
350
1FB
  3
Grid/MetaGridSpacingX01
350
1FC
  3
Grid/MetaGridSpacingX02
350
1FD
  3
Grid/MetaGridSpacingX03
350
1FE
  3
Grid/MetaGridSpacingY00
350
1FF
  3
Grid/MetaGridSpacingY01
350
200
  3
Grid/MetaGridSpacingY02
350
201
  3
Grid/MetaGridSpacingY03
350
202
  3
MultiPageSettings/Columns
350
203
  3
MultiPageSettings/GlueMarginsBottom
350
204
  3
MultiPageSettings/GlueMarginsLeft
350
205
  3
MultiPageSettings/GlueMarginsRight
350
206
  3
MultiPageSettings/GlueMarginsTop
350
207
  3
MultiPageSettings/PrintCropMarks
350
208
  3
MultiPageSettings/Rows
350
209
  3
PageSettings/OffsetX
350
20A
  3
PageSettings/OffsetY
350
20B
  3
PageSettings/PageOrientation
350
20C
  3
PageSettings/PaperHeight
350
20D
  3
PageSettings/PaperWidth
350
20E
  3
PageSettings/Scale
350
20F
  3
PageSettings/ShowPaperBorders
350
210
  3
QCADVersion
350
211
  3
UnitSettings/PaperUnit
350
212
  0
XRECORD
  5
1E5
330
1E2
100
AcDbXrecord
280
1
1000
White
  0
XRECORD
  5
1E6
330
1E2
100
AcDbXrecord
280
1
1000
FullColor
  0
XRECORD
  5
1E7
330
1E2
100
AcDbXrecord
280
1
290
1
  0
XRECORD
  5
1E8
330
1E2
100
AcDbXrecord
280
1
290
1
  0
XRECORD
  5
1E9
330
1E2
100
AcDbXrecord
280
1
290
1
  0
XRECORD
  5
1EA
330
1E2
100
AcDbXrecord
280
1
290
1
  0
XRECORD
  5
1EB
330
1E2
100
AcDbXrecord
280
1
1000
auto
  0
XRECORD
  5
1EC
330
1E2
100
AcDbXrecord
280
1
1000
auto
  0
XRECORD
  5
1ED
330
1E2
100
AcDbXrecord
280
1
1000
auto
  0
XRECORD
  5
1EE
330
1E2
100
AcDbXrecord
280
1
1000
auto
  0
XRECORD
  5
1EF
330
1E2
100
AcDbXrecord
280
1
1000
auto
  0
XRECORD
  5
1F0
330
1E2
100
AcDbXrecord
280
1
1000
auto
  0
XRECORD
  5
1F1
330
1E2
100
AcDbXrecord
280
1
1000
auto
  0
XRECORD
  5
1F2
330
1E2
100
AcDbXrecord
280
1
1000
auto
  0
XRECORD
  5
1F3
330
1E2
100
AcDbXrecord
280
1
290
0
  0
XRECORD
  5
1F4
330
1E2
100
AcDbXrecord
280
1
290
0
  0
XRECORD
  5
1F5
330
1E2
100
AcDbXrecord
280
1
290
0
  0
XRECORD
  5
1F6
330
1E2
100
AcDbXrecord
280
1
290
0
  0
XRECORD
  5
1F7
330
1E2
100
AcDbXrecord
280
1
 90
0
  0
XRECORD
  5
1F8
330
1E2
100
AcDbXrecord
280
1
 90
0
  0
XRECORD
  5
1F9
330
1E2
100
AcDbXrecord
280
1
 90
0
  0
XRECORD
  5
1FA
330
1E2
100
AcDbXrecord
280
1
 90
0
  0
XRECORD
  5
1FB
330
1E2
100
AcDbXrecord
280
1
1000
auto
  0
XRECORD
  5
1FC
330
1E2
100
AcDbXrecord
280
1
1000
auto
  0
XRECORD
  5
1FD
330
1E2
100
AcDbXrecord
280
1
1000
auto
  0
XRECORD
  5
1FE
330
1E2
100
AcDbXrecord
280
1
1000
auto
  0
XRECORD
  5
1FF
330
1E2
100
AcDbXrecord
280
1
1000
auto
  0
XRECORD
  5
200
330
1E2
100
AcDbXrecord
280
1
1000
auto
  0
XRECORD
  5
201
330
1E2
100
AcDbXrecord
280
1
1000
auto
  0
XRECORD
  5
202
330
1E2
100
AcDbXrecord
280
1
1000
auto
  0
XRECORD
  5
203
330
1E2
100
AcDbXrecord
280
1
 90
1
  0
XRECORD
  5
204
330
1E2
100
AcDbXrecord
280
1
 40
0.5
  0
XRECORD
  5
205
330
1E2
100
AcDbXrecord
280
1
 40
0.5
  0
XRECORD
  5
206
330
1E2
100
AcDbXrecord
280
1
 40
0.5
  0
XRECORD
  5
207
330
1E2
100
AcDbXrecord
280
1
 40
0.5
  0
XRECORD
  5
208
330
1E2
100
AcDbXrecord
280
1
290
0
  0
XRECORD
  5
209
330
1E2
100
AcDbXrecord
280
1
 90
1
  0
XRECORD
  5
20A
330
1E2
100
AcDbXrecord
280
1
 40
0.0
  0
XRECORD
  5
20B
330
1E2
100
AcDbXrecord
280
1
 40
0.0
  0
XRECORD
  5
20C
330
1E2
100
AcDbXrecord
280
1
1000
Portrait
  0
XRECORD
  5
20D
330
1E2
100
AcDbXrecord
280
1
 40
11.6929133858268006
  0
XRECORD
  5
20E
330
1E2
100
AcDbXrecord
280
1
 40
8.2677165354330704
  0
XRECORD
  5
20F
330
1E2
100
AcDbXrecord
280
1
1000
1:1
  0
XRECORD
  5
210
330
1E2
100
AcDbXrecord
280
1
290
1
  0
XRECORD
  5
211
330
1E2
100
AcDbXrecord
280
1
1000
3.11.3
  0
XRECORD
  5
212
330
1E2
100
AcDbXrecord
280
1
 90
1
  0
ENDSEC
  0
EOF
