999
dxflib 3.7.5.0
  0
SECTION
  2
HEADER
  9
$ACADVER
  1
AC1015
  9
$HANDSEED
  5
FFFF
  9
$DIMADEC
 70
0
  9
$DIMASZ
 40
0.125
  9
$DIMAUNIT
 70
0
  9
$DIMAZIN
 70
2
  9
$DIMDEC
 70
4
  9
$DIMEXE
 40
0.0625
  9
$DIMEXO
 40
0.03125
  9
$DIMGAP
 40
0.03125
  9
$DIMLUNIT
 70
3
  9
$DIMSCALE
 40
1.0
  9
$DIMTSZ
 40
0.0
  9
$DIMTXT
 40
0.125
  9
$DIMZIN
 70
8
  9
$DWGCODEPAGE
  3
ANSI_1252
  9
$INSUNITS
 70
1
  9
$LTSCALE
 40
1.0
  9
$MEASUREMENT
 70
0
  9
$PDMODE
 70
0
  9
$PDSIZE
 40
0
  0
ENDSEC
  0
SECTION
  2
TABLES
  0
TABLE
  2
VPORT
  5
8
100
AcDbSymbolTable
 70
1
  0
VPORT
  5
30
100
AcDbSymbolTableRecord
100
AcDbViewportTableRecord
  2
*Active
 70
0
 10
0.0
 20
0.0
 11
1.0
 21
1.0
 12
286.3055555555554861
 22
148.5
 13
0.0
 23
0.0
 14
10.0
 24
10.0
 15
10.0
 25
10.0
 16
0.0
 26
0.0
 36
1.0
 17
0.0
 27
0.0
 37
0.0
 40
297.0
 41
1.92798353909465
 42
50.0
 43
0.0
 44
0.0
 50
0.0
 51
0.0
 71
0
 72
100
 73
1
 74
3
 75
1
 76
1
 77
0
 78
0
281
0
 65
1
110
0.0
120
0.0
130
0.0
111
1.0
121
0.0
131
0.0
112
0.0
122
1.0
132
0.0
 79
0
146
0.0
  0
ENDTAB
  0
TABLE
  2
LTYPE
  5
5
100
AcDbSymbolTable
 70
50
  0
LTYPE
  5
16
100
AcDbSymbolTableRecord
100
AcDbLinetypeTableRecord
  2
Continuous
 70
0
  3
Solid line
 72
65
 73
0
 40
0.0
  0
LTYPE
  5
31
100
AcDbSymbolTableRecord
100
AcDbLinetypeTableRecord
  2
ACAD_ISO15W100
 70
0
  3
ISO double-dash triple-dot __ __ . . . __ __ . .
 72
65
 73
10
 40
39.0
 49
12.0
 74
0
 49
-3.0
 74
0
 49
12.0
 74
0
 49
-3.0
 74
0
 49
0.0
 74
0
 49
-3.0
 74
0
 49
0.0
 74
0
 49
-3.0
 74
0
 49
0.0
 74
0
 49
-3.0
 74
0
  0
LTYPE
  5
32
100
AcDbSymbolTableRecord
100
AcDbLinetypeTableRecord
  2
HOT_WATER_SUPPLY
 70
0
  3
Hot water supply ---- HW ---- HW ---- HW ----
 72
65
 73
3
 40
22.8599999999999994
 49
12.6999999999999993
 74
0
 49
-5.0800000000000001
 74
0
 49
-5.0800000000000001
 74
0
  0
LTYPE
  5
33
100
AcDbSymbolTableRecord
100
AcDbLinetypeTableRecord
  2
DIVIDE
 70
0
  3
Divide ____ . . ____ . . ____ . . ____ . . ____
 72
65
 73
6
 40
31.75
 49
12.6999999999999993
 74
0
 49
-6.3499999999999996
 74
0
 49
0.0
 74
0
 49
-6.3499999999999996
 74
0
 49
0.0
 74
0
 49
-6.3499999999999996
 74
0
  0
LTYPE
  5
34
100
AcDbSymbolTableRecord
100
AcDbLinetypeTableRecord
  2
ACAD_ISO10W100
 70
0
  3
ISO dash dot __ . __ . __ . __ . __ . __ . __ . 
 72
65
 73
4
 40
18.0
 49
12.0
 74
0
 49
-3.0
 74
0
 49
0.0
 74
0
 49
-3.0
 74
0
  0
LTYPE
  5
35
100
AcDbSymbolTableRecord
100
AcDbLinetypeTableRecord
  2
GAS_LINE
 70
0
  3
Gas line ----GAS----GAS----GAS----GAS----GAS----GAS--
 72
65
 73
3
 40
24.1300000000000026
 49
12.6999999999999993
 74
0
 49
-5.0800000000000001
 74
0
 49
-6.3499999999999996
 74
0
  0
LTYPE
  5
36
100
AcDbSymbolTableRecord
100
AcDbLinetypeTableRecord
  2
ACAD_ISO04W100
 70
0
  3
ISO long-dash dot ____ . ____ . ____ . ____ . _
 72
65
 73
4
 40
30.0
 49
24.0
 74
0
 49
-3.0
 74
0
 49
0.0
 74
0
 49
-3.0
 74
0
  0
LTYPE
  5
37
100
AcDbSymbolTableRecord
100
AcDbLinetypeTableRecord
  2
CENTER2
 70
0
  3
Center (.5x) ___ _ ___ _ ___ _ ___ _ ___ _ ___
 72
65
 73
4
 40
28.5750000000000028
 49
19.0500000000000007
 74
0
 49
-3.1749999999999998
 74
0
 49
3.1749999999999998
 74
0
 49
-3.1749999999999998
 74
0
  0
LTYPE
  5
38
100
AcDbSymbolTableRecord
100
AcDbLinetypeTableRecord
  2
ACAD_ISO11W100
 70
0
  3
ISO double-dash dot __ __ . __ __ . __ __ . __ _
 72
65
 73
6
 40
33.0
 49
12.0
 74
0
 49
-3.0
 74
0
 49
12.0
 74
0
 49
-3.0
 74
0
 49
0.0
 74
0
 49
-3.0
 74
0
  0
LTYPE
  5
39
100
AcDbSymbolTableRecord
100
AcDbLinetypeTableRecord
  2
HIDDEN2
 70
0
  3
Hidden (.5x) _ _ _ _ _ _ _ _ _ _ _ _ _ _ _ _ _ 
 72
65
 73
2
 40
4.7624999999999993
 49
3.1749999999999998
 74
0
 49
-1.5874999999999999
 74
0
  0
LTYPE
  5
3A
100
AcDbSymbolTableRecord
100
AcDbLinetypeTableRecord
  2
BORDERX2
 70
0
  3
Border (2x) ____  ____  .  ____  ____  .  ___
 72
65
 73
6
 40
88.8999999999999915
 49
25.3999999999999986
 74
0
 49
-12.6999999999999993
 74
0
 49
25.3999999999999986
 74
0
 49
-12.6999999999999993
 74
0
 49
0.0
 74
0
 49
-12.6999999999999993
 74
0
  0
LTYPE
  5
3B
100
AcDbSymbolTableRecord
100
AcDbLinetypeTableRecord
  2
ACAD_ISO05W100
 70
0
  3
ISO long-dash double-dot ____ .. ____ .. ____ . 
 72
65
 73
6
 40
33.0
 49
24.0
 74
0
 49
-3.0
 74
0
 49
0.0
 74
0
 49
-3.0
 74
0
 49
0.0
 74
0
 49
-3.0
 74
0
  0
LTYPE
  5
3C
100
AcDbSymbolTableRecord
100
AcDbLinetypeTableRecord
  2
DASHDOTX2
 70
0
  3
Dash dot (2x) ____  .  ____  .  ____  .  ___
 72
65
 73
4
 40
50.7999999999999972
 49
25.3999999999999986
 74
0
 49
-12.6999999999999993
 74
0
 49
0.0
 74
0
 49
-12.6999999999999993
 74
0
  0
LTYPE
  5
3D
100
AcDbSymbolTableRecord
100
AcDbLinetypeTableRecord
  2
HIDDENX2
 70
0
  3
Hidden (2x) ____ ____ ____ ____ ____ ____ ____ 
 72
65
 73
2
 40
19.0499999999999972
 49
12.6999999999999993
 74
0
 49
-6.3499999999999996
 74
0
  0
LTYPE
  5
3E
100
AcDbSymbolTableRecord
100
AcDbLinetypeTableRecord
  2
CENTERX2
 70
0
  3
Center (2x) ________  __  ________  __  _____
 72
65
 73
4
 40
101.6000000000000085
 49
63.5
 74
0
 49
-12.6999999999999993
 74
0
 49
12.6999999999999993
 74
0
 49
-12.6999999999999993
 74
0
  0
LTYPE
  5
3F
100
AcDbSymbolTableRecord
100
AcDbLinetypeTableRecord
  2
BORDER2
 70
0
  3
Border (.5x) __.__.__.__.__.__.__.__.__.__.__.
 72
65
 73
6
 40
22.2249999999999979
 49
6.3499999999999996
 74
0
 49
-3.1749999999999998
 74
0
 49
6.3499999999999996
 74
0
 49
-3.1749999999999998
 74
0
 49
0.0
 74
0
 49
-3.1749999999999998
 74
0
  0
LTYPE
  5
40
100
AcDbSymbolTableRecord
100
AcDbLinetypeTableRecord
  2
DASHDOT2
 70
0
  3
Dash dot (.5x) _._._._._._._._._._._._._._._.
 72
65
 73
4
 40
12.6999999999999993
 49
6.3499999999999996
 74
0
 49
-3.1749999999999998
 74
0
 49
0.0
 74
0
 49
-3.1749999999999998
 74
0
  0
LTYPE
  5
41
100
AcDbSymbolTableRecord
100
AcDbLinetypeTableRecord
  2
ACAD_ISO12W100
 70
0
  3
ISO dash double-dot __ . . __ . . __ . . __ . . 
 72
65
 73
6
 40
21.0
 49
12.0
 74
0
 49
-3.0
 74
0
 49
0.0
 74
0
 49
-3.0
 74
0
 49
0.0
 74
0
 49
-3.0
 74
0
  0
LTYPE
  5
42
100
AcDbSymbolTableRecord
100
AcDbLinetypeTableRecord
  2
ACAD_ISO07W100
 70
0
  3
ISO dot . . . . . . . . . . . . . . . . . . . . 
 72
65
 73
2
 40
3.0
 49
0.0
 74
0
 49
-3.0
 74
0
  0
LTYPE
  5
43
100
AcDbSymbolTableRecord
100
AcDbLinetypeTableRecord
  2
ACAD_ISO06W100
 70
0
  3
ISO long-dash triple-dot ____ ... ____ ... ____
 72
65
 73
8
 40
36.0
 49
24.0
 74
0
 49
-3.0
 74
0
 49
0.0
 74
0
 49
-3.0
 74
0
 49
0.0
 74
0
 49
-3.0
 74
0
 49
0.0
 74
0
 49
-3.0
 74
0
  0
LTYPE
  5
44
100
AcDbSymbolTableRecord
100
AcDbLinetypeTableRecord
  2
CENTER
 70
0
  3
Center ____ _ ____ _ ____ _ ____ _ ____ _ ____
 72
65
 73
4
 40
50.8000000000000043
 49
31.75
 74
0
 49
-6.3499999999999996
 74
0
 49
6.3499999999999996
 74
0
 49
-6.3499999999999996
 74
0
  0
LTYPE
  5
45
100
AcDbSymbolTableRecord
100
AcDbLinetypeTableRecord
  2
HIDDEN
 70
0
  3
Hidden __ __ __ __ __ __ __ __ __ __ __ __ __ __
 72
65
 73
2
 40
9.5249999999999986
 49
6.3499999999999996
 74
0
 49
-3.1749999999999998
 74
0
  0
LTYPE
  5
46
100
AcDbSymbolTableRecord
100
AcDbLinetypeTableRecord
  2
DOTX2
 70
0
  3
Dot (2x) .  .  .  .  .  .  .  .  .  .  .  .  .  .
 72
65
 73
2
 40
12.6999999999999993
 49
0.0
 74
0
 49
-12.6999999999999993
 74
0
  0
LTYPE
  5
47
100
AcDbSymbolTableRecord
100
AcDbLinetypeTableRecord
  2
PHANTOM
 70
0
  3
Phantom ______  __  __  ______  __  __  ______ 
 72
65
 73
6
 40
63.5000000000000071
 49
31.75
 74
0
 49
-6.3499999999999996
 74
0
 49
6.3499999999999996
 74
0
 49
-6.3499999999999996
 74
0
 49
6.3499999999999996
 74
0
 49
-6.3499999999999996
 74
0
  0
LTYPE
  5
48
100
AcDbSymbolTableRecord
100
AcDbLinetypeTableRecord
  2
ACAD_ISO08W100
 70
0
  3
ISO long-dash short-dash ____ __ ____ __ ____ _
 72
65
 73
4
 40
36.0
 49
24.0
 74
0
 49
-3.0
 74
0
 49
6.0
 74
0
 49
-3.0
 74
0
  0
LTYPE
  5
49
100
AcDbSymbolTableRecord
100
AcDbLinetypeTableRecord
  2
DASHEDX2
 70
0
  3
Dashed (2x) ____  ____  ____  ____  ____  ___
 72
65
 73
2
 40
38.0999999999999943
 49
25.3999999999999986
 74
0
 49
-12.6999999999999993
 74
0
  0
LTYPE
  5
4A
100
AcDbSymbolTableRecord
100
AcDbLinetypeTableRecord
  2
DRAINAGE
 70
0
  3
Drainage ---->---->---->----
 72
65
 73
2
 40
10.1600000000000001
 49
5.0800000000000001
 74
0
 49
5.0800000000000001
 74
0
  0
LTYPE
  5
4B
100
AcDbSymbolTableRecord
100
AcDbLinetypeTableRecord
  2
ACAD_ISO02W100
 70
0
  3
ISO dash __ __ __ __ __ __ __ __ __ __ __ __ __
 72
65
 73
2
 40
15.0
 49
12.0
 74
0
 49
-3.0
 74
0
  0
LTYPE
  5
4C
100
AcDbSymbolTableRecord
100
AcDbLinetypeTableRecord
  2
PHANTOM2
 70
0
  3
Phantom (.5x) ___ _ _ ___ _ _ ___ _ _ ___ _ _
 72
65
 73
6
 40
31.7500000000000036
 49
15.875
 74
0
 49
-3.1749999999999998
 74
0
 49
3.1749999999999998
 74
0
 49
-3.1749999999999998
 74
0
 49
3.1749999999999998
 74
0
 49
-3.1749999999999998
 74
0
  0
LTYPE
  5
4D
100
AcDbSymbolTableRecord
100
AcDbLinetypeTableRecord
  2
DASHED2
 70
0
  3
Dashed (.5x) _ _ _ _ _ _ _ _ _ _ _ _ _ _ _ _ _ 
 72
65
 73
2
 40
9.5249999999999986
 49
6.3499999999999996
 74
0
 49
-3.1749999999999998
 74
0
  0
LTYPE
  5
4E
100
AcDbSymbolTableRecord
100
AcDbLinetypeTableRecord
  2
ACAD_ISO09W100
 70
0
  3
ISO long-dash double-short-dash ____ __ __ ____
 72
65
 73
6
 40
45.0
 49
24.0
 74
0
 49
-3.0
 74
0
 49
6.0
 74
0
 49
-3.0
 74
0
 49
6.0
 74
0
 49
-3.0
 74
0
  0
LTYPE
  5
4F
100
AcDbSymbolTableRecord
100
AcDbLinetypeTableRecord
  2
ACAD_ISO13W100
 70
0
  3
ISO double-dash double-dot __ __ . . __ __ . . _
 72
65
 73
8
 40
36.0
 49
12.0
 74
0
 49
-3.0
 74
0
 49
12.0
 74
0
 49
-3.0
 74
0
 49
0.0
 74
0
 49
-3.0
 74
0
 49
0.0
 74
0
 49
-3.0
 74
0
  0
LTYPE
  5
50
100
AcDbSymbolTableRecord
100
AcDbLinetypeTableRecord
  2
TRACKS
 70
0
  3
Tracks -|-|-|-|-|-|-|-|-|-|-|-|-|-|-|-|-|-|-|-|-|-|-|-|-
 72
65
 73
2
 40
7.6200000000000001
 49
3.8100000000000001
 74
0
 49
3.8100000000000001
 74
0
  0
LTYPE
  5
51
100
AcDbSymbolTableRecord
100
AcDbLinetypeTableRecord
  2
DRAINAGE2
 70
0
  3
Drainage reversed----<----<----<----
 72
65
 73
2
 40
10.1600000000000001
 49
5.0800000000000001
 74
0
 49
5.0800000000000001
 74
0
  0
LTYPE
  5
52
100
AcDbSymbolTableRecord
100
AcDbLinetypeTableRecord
  2
DOT2
 70
0
  3
Dot (.5x) ........................................
 72
65
 73
2
 40
3.1749999999999998
 49
0.0
 74
0
 49
-3.1749999999999998
 74
0
  0
LTYPE
  5
53
100
AcDbSymbolTableRecord
100
AcDbLinetypeTableRecord
  2
ZIGZAG
 70
0
  3
Zig zag /\/\/\/\/\/\/\/\/\/\/\/\/\/\/\/\/\/\/\/\/\/\/\/
 72
65
 73
4
 40
20.32254
 49
0.00254
 74
0
 49
-5.0800000000000001
 74
0
 49
-10.1600000000000001
 74
0
 49
-5.0800000000000001
 74
0
  0
LTYPE
  5
54
100
AcDbSymbolTableRecord
100
AcDbLinetypeTableRecord
  2
DASHED
 70
0
  3
Dashed __ __ __ __ __ __ __ __ __ __ __ __ __ _
 72
65
 73
2
 40
19.0499999999999972
 49
12.6999999999999993
 74
0
 49
-6.3499999999999996
 74
0
  0
LTYPE
  5
55
100
AcDbSymbolTableRecord
100
AcDbLinetypeTableRecord
  2
ACAD_ISO14W100
 70
0
  3
ISO dash triple-dot __ . . . __ . . . __ . . . _
 72
65
 73
8
 40
24.0
 49
12.0
 74
0
 49
-3.0
 74
0
 49
0.0
 74
0
 49
-3.0
 74
0
 49
0.0
 74
0
 49
-3.0
 74
0
 49
0.0
 74
0
 49
-3.0
 74
0
  0
LTYPE
  5
15
100
AcDbSymbolTableRecord
100
AcDbLinetypeTableRecord
  2
BYLAYER
 70
0
  3

 72
65
 73
0
 40
0.0
  0
LTYPE
  5
56
100
AcDbSymbolTableRecord
100
AcDbLinetypeTableRecord
  2
PHANTOMX2
 70
0
  3
Phantom (2x) ____________    ____    ____   _
 72
65
 73
6
 40
127.0000000000000142
 49
63.5
 74
0
 49
-12.6999999999999993
 74
0
 49
12.6999999999999993
 74
0
 49
-12.6999999999999993
 74
0
 49
12.6999999999999993
 74
0
 49
-12.6999999999999993
 74
0
  0
LTYPE
  5
14
100
AcDbSymbolTableRecord
100
AcDbLinetypeTableRecord
  2
BYBLOCK
 70
0
  3

 72
65
 73
0
 40
0.0
  0
LTYPE
  5
57
100
AcDbSymbolTableRecord
100
AcDbLinetypeTableRecord
  2
DIVIDEX2
 70
0
  3
Divide (2x) ________  .  .  ________  .  .  _
 72
65
 73
6
 40
63.5
 49
25.3999999999999986
 74
0
 49
-12.6999999999999993
 74
0
 49
0.0
 74
0
 49
-12.6999999999999993
 74
0
 49
0.0
 74
0
 49
-12.6999999999999993
 74
0
  0
LTYPE
  5
58
100
AcDbSymbolTableRecord
100
AcDbLinetypeTableRecord
  2
BORDER
 70
0
  3
Border __ __ . __ __ . __ __ . __ __ . __ __ .
 72
65
 73
6
 40
44.4499999999999957
 49
12.6999999999999993
 74
0
 49
-6.3499999999999996
 74
0
 49
12.6999999999999993
 74
0
 49
-6.3499999999999996
 74
0
 49
0.0
 74
0
 49
-6.3499999999999996
 74
0
  0
LTYPE
  5
59
100
AcDbSymbolTableRecord
100
AcDbLinetypeTableRecord
  2
DIVIDE2
 70
0
  3
Divide (.5x) __..__..__..__..__..__..__..__.._
 72
65
 73
6
 40
15.875
 49
6.3499999999999996
 74
0
 49
-3.1749999999999998
 74
0
 49
0.0
 74
0
 49
-3.1749999999999998
 74
0
 49
0.0
 74
0
 49
-3.1749999999999998
 74
0
  0
LTYPE
  5
5A
100
AcDbSymbolTableRecord
100
AcDbLinetypeTableRecord
  2
DOT
 70
0
  3
Dot . . . . . . . . . . . . . . . . . . . . . . . .
 72
65
 73
2
 40
6.3499999999999996
 49
0.0
 74
0
 49
-6.3499999999999996
 74
0
  0
LTYPE
  5
5B
100
AcDbSymbolTableRecord
100
AcDbLinetypeTableRecord
  2
DASHDOT
 70
0
  3
Dash dot __ . __ . __ . __ . __ . __ . __ . __
 72
65
 73
4
 40
25.3999999999999986
 49
12.6999999999999993
 74
0
 49
-6.3499999999999996
 74
0
 49
0.0
 74
0
 49
-6.3499999999999996
 74
0
  0
LTYPE
  5
5C
100
AcDbSymbolTableRecord
100
AcDbLinetypeTableRecord
  2
FENCELINE1
 70
0
  3
Fenceline circle ----0-----0----0-----0----0-----0--
 72
65
 73
4
 40
36.8299999999999983
 49
6.3499999999999996
 74
0
 49
-2.54
 74
0
 49
-2.54
 74
0
 49
25.3999999999999986
 74
0
  0
LTYPE
  5
5D
100
AcDbSymbolTableRecord
100
AcDbLinetypeTableRecord
  2
BATTING
 70
0
  3
Batting SSSSSSSSSSSSSSSSSSSSSSSSSSSSSSSSSSSSSSSSSSSSSSS
 72
65
 73
4
 40
10.1625399999999999
 49
0.00254
 74
0
 49
-2.54
 74
0
 49
-5.0800000000000001
 74
0
 49
-2.54
 74
0
  0
LTYPE
  5
5E
100
AcDbSymbolTableRecord
100
AcDbLinetypeTableRecord
  2
ACAD_ISO03W100
 70
0
  3
ISO dash space __    __    __    __    __    __
 72
65
 73
2
 40
30.0
 49
12.0
 74
0
 49
-18.0
 74
0
  0
LTYPE
  5
5F
100
AcDbSymbolTableRecord
100
AcDbLinetypeTableRecord
  2
FENCELINE2
 70
0
  3
Fenceline square ----[]-----[]----[]-----[]----[]---
 72
65
 73
4
 40
36.8299999999999983
 49
6.3499999999999996
 74
0
 49
-2.54
 74
0
 49
-2.54
 74
0
 49
25.3999999999999986
 74
0
  0
ENDTAB
  0
TABLE
  2
LAYER
  5
2
100
AcDbSymbolTable
 70
1
  0
LAYER
  5
10
100
AcDbSymbolTableRecord
100
AcDbLayerTableRecord
  2
0
 70
0
 62
7
420
16777215
  6
Continuous
370
25
390
F
  0
ENDTAB
  0
TABLE
  2
STYLE
  5
3
100
AcDbSymbolTable
 70
1
  0
STYLE
  5
60
100
AcDbSymbolTableRecord
100
AcDbTextStyleTableRecord
  2
Standard
 70
0
 40
0.0
 41
1.0
 50
0.0
 71
0
 42
2.5
  3

  4

1001
ACAD
1000
txt
1071
0
  0
ENDTAB
  0
TABLE
  2
VIEW
  5
6
100
AcDbSymbolTable
 70
0
  0
ENDTAB
  0
TABLE
  2
UCS
  5
7
100
AcDbSymbolTable
 70
0
  0
ENDTAB
  0
TABLE
  2
APPID
  5
9
100
AcDbSymbolTable
 70
1
  0
APPID
  5
12
100
AcDbSymbolTableRecord
100
AcDbRegAppTableRecord
  2
ACAD
 70
0
  0
APPID
  5
61
100
AcDbSymbolTableRecord
100
AcDbRegAppTableRecord
  2
QCAD
 70
0
  0
ENDTAB
  0
TABLE
  2
DIMSTYLE
  5
A
100
AcDbSymbolTable
 70
1
100
AcDbDimStyleTable
 71
0
  0
DIMSTYLE
105
27
100
AcDbSymbolTableRecord
100
AcDbDimStyleTableRecord
  2
Standard
 41
0.125
 42
0.03125
 43
3.75
 44
0.0625
 70
0
 73
0
 74
0
 77
1
 78
8
140
0.125
141
2.5
143
0.03937007874016
147
0.03125
171
3
172
1
271
2
272
2
274
3
278
44
283
0
284
8
340
60
  0
ENDTAB
  0
TABLE
  2
BLOCK_RECORD
  5
1
100
AcDbSymbolTable
 70
1
  0
BLOCK_RECORD
  5
1F
100
AcDbSymbolTableRecord
100
AcDbBlockTableRecord
  2
*Model_Space
340
22
  0
BLOCK_RECORD
  5
1B
100
AcDbSymbolTableRecord
100
AcDbBlockTableRecord
  2
*Paper_Space
340
1E
  0
BLOCK_RECORD
  5
23
100
AcDbSymbolTableRecord
100
AcDbBlockTableRecord
  2
*Paper_Space0
340
26
  0
ENDTAB
  0
ENDSEC
  0
SECTION
  2
BLOCKS
  0
BLOCK
  5
20
100
AcDbEntity
  8
0
100
AcDbBlockBegin
  2
*Model_Space
 70
0
 10
0.0
 20
0.0
 30
0.0
  3
*Model_Space
  1

  0
ENDBLK
  5
21
100
AcDbEntity
  8
0
100
AcDbBlockEnd
  0
BLOCK
  5
1C
100
AcDbEntity
 67
1
  8
0
100
AcDbBlockBegin
  2
*Paper_Space
 70
0
 10
0.0
 20
0.0
 30
0.0
  3
*Paper_Space
  1

  0
ENDBLK
  5
1D
100
AcDbEntity
 67
1
  8
0
100
AcDbBlockEnd
  0
BLOCK
  5
24
100
AcDbEntity
  8
0
100
AcDbBlockBegin
  2
*Paper_Space0
 70
0
 10
0.0
 20
0.0
 30
0.0
  3
*Paper_Space0
  1

  0
ENDBLK
  5
25
100
AcDbEntity
  8
0
100
AcDbBlockEnd
  0
ENDSEC
  0
SECTION
  2
ENTITIES
  0
LINE
  5
62
100
AcDbEntity
100
AcDbLine
  8
0
 62
3
420
65280
370
-1
 48
1.0
  6
BYLAYER
 10
6.4773794274296996
 20
17.3358637889716043
 30
0.0
 11
6.4773794274296996
 21
17.6517204623114026
 31
0.0
  0
LINE
  5
63
100
AcDbEntity
100
AcDbLine
  8
0
 62
3
420
65280
370
-1
 48
1.0
  6
BYLAYER
 10
9.5226205725703004
 20
17.3358637889716043
 30
0.0
 11
9.5226205725703004
 21
17.6517204623114026
 31
0.0
  0
LINE
  5
64
100
AcDbEntity
100
AcDbLine
  8
0
 62
3
420
65280
370
-1
 48
1.0
  6
BYLAYER
 10
6.4773794274296996
 20
15.4098571132742261
 30
0.0
 11
6.4773794274296996
 21
15.7257137866140244
 31
0.0
  0
LINE
  5
65
100
AcDbEntity
100
AcDbLine
  8
0
 62
3
420
65280
370
-1
 48
1.0
  6
BYLAYER
 10
9.5226205725703004
 20
15.4098571132742261
 30
0.0
 11
9.5226205725703004
 21
15.7257137866140244
 31
0.0
  0
LINE
  5
66
100
AcDbEntity
100
AcDbLine
  8
0
 62
3
420
65280
370
-1
 48
1.0
  6
BYLAYER
 10
6.4773794274296996
 20
19.2815470029828298
 30
0.0
 11
6.4773794274296996
 21
19.597403676322628
 31
0.0
  0
LINE
  5
67
100
AcDbEntity
100
AcDbLine
  8
0
 62
3
420
65280
370
-1
 48
1.0
  6
BYLAYER
 10
9.5226205725703004
 20
19.2815470029828298
 30
0.0
 11
9.5226205725703004
 21
19.5974036763226245
 31
0.0
  0
LINE
  5
68
100
AcDbEntity
100
AcDbLine
  8
0
 62
3
420
65280
370
-1
 48
1.0
  6
BYLAYER
 10
6.4773794274296996
 20
21.1650915269753455
 30
0.0
 11
6.4773794274296996
 21
21.4809482003151437
 31
0.0
  0
LINE
  5
69
100
AcDbEntity
100
AcDbLine
  8
0
 62
3
420
65280
370
-1
 48
1.0
  6
BYLAYER
 10
9.5226205725703004
 20
21.1650915269753455
 30
0.0
 11
9.5226205725703004
 21
21.4809482003151402
 31
0.0
  0
LINE
  5
6A
100
AcDbEntity
100
AcDbLine
  8
0
 62
3
420
65280
370
-1
 48
1.0
  6
BYLAYER
 10
-1.5889645225360014
 20
17.0215331503824565
 30
0.0
 11
-1.5889645225360014
 21
17.3373898237222548
 31
0.0
  0
LINE
  5
6B
100
AcDbEntity
100
AcDbLine
  8
0
 62
3
420
65280
370
-1
 48
1.0
  6
BYLAYER
 10
1.4562766226045989
 20
17.0215331503824565
 30
0.0
 11
1.4562766226045989
 21
17.3373898237222548
 31
0.0
  0
LINE
  5
6C
100
AcDbEntity
100
AcDbLine
  8
0
 62
3
420
65280
370
-1
 48
1.0
  6
BYLAYER
 10
-1.5889645225360014
 20
13.949988626389942
 30
0.0
 11
-1.5889645225360014
 21
14.2658452997297402
 31
0.0
  0
LINE
  5
6D
100
AcDbEntity
100
AcDbLine
  8
0
 62
3
420
65280
370
-1
 48
1.0
  6
BYLAYER
 10
1.4562766226045989
 20
13.949988626389942
 30
0.0
 11
1.4562766226045989
 21
14.2658452997297402
 31
0.0
  0
LINE
  5
6E
100
AcDbEntity
100
AcDbLine
  8
0
 62
3
420
65280
370
-1
 48
1.0
  6
BYLAYER
 10
-1.5889645225360014
 20
19.7515331503824569
 30
0.0
 11
-1.5889645225360014
 21
20.0673898237222552
 31
0.0
  0
LINE
  5
6F
100
AcDbEntity
100
AcDbLine
  8
0
 62
3
420
65280
370
-1
 48
1.0
  6
BYLAYER
 10
1.4562766226045989
 20
19.7515331503824569
 30
0.0
 11
1.4562766226045989
 21
20.0673898237222517
 31
0.0
  0
LINE
  5
70
100
AcDbEntity
100
AcDbLine
  8
0
 62
3
420
65280
370
-1
 48
1.0
  6
BYLAYER
 10
5.9080145022967123
 20
17.2467097821514734
 30
0.0
 11
5.90801450229689
 21
17.3358637821518435
 31
0.0
  0
LINE
  5
71
100
AcDbEntity
100
AcDbLine
  8
0
 62
3
420
65280
370
-1
 48
1.0
  6
BYLAYER
 10
10.0919854977032877
 20
17.2467097821514734
 30
0.0
 11
10.09198549770311
 21
17.33586378215184
 31
0.0
  0
LINE
  5
72
100
AcDbEntity
100
AcDbLine
  8
0
 62
3
420
65280
370
-1
 48
1.0
  6
BYLAYER
 10
5.9080145022967123
 20
15.3207031064540971
 30
0.0
 11
5.90801450229689
 21
15.4098571064544636
 31
0.0
  0
LINE
  5
73
100
AcDbEntity
100
AcDbLine
  8
0
 62
3
420
65280
370
-1
 48
1.0
  6
BYLAYER
 10
10.0919854977032877
 20
15.3207031064540971
 30
0.0
 11
10.09198549770311
 21
15.4098571064544636
 31
0.0
  0
LINE
  5
74
100
AcDbEntity
100
AcDbLine
  8
0
 62
3
420
65280
370
-1
 48
1.0
  6
BYLAYER
 10
5.9080145022967123
 20
19.1923929961626989
 30
0.0
 11
5.90801450229689
 21
19.281546996163069
 31
0.0
  0
LINE
  5
75
100
AcDbEntity
100
AcDbLine
  8
0
 62
3
420
65280
370
-1
 48
1.0
  6
BYLAYER
 10
10.0919854977032877
 20
19.1923929961626989
 30
0.0
 11
10.09198549770311
 21
19.2815469961630654
 31
0.0
  0
LINE
  5
76
100
AcDbEntity
100
AcDbLine
  8
0
 62
3
420
65280
370
-1
 48
1.0
  6
BYLAYER
 10
5.9080145022967123
 20
21.0759375201552146
 30
0.0
 11
5.90801450229689
 21
21.1650915201555847
 31
0.0
  0
LINE
  5
77
100
AcDbEntity
100
AcDbLine
  8
0
 62
3
420
65280
370
-1
 48
1.0
  6
BYLAYER
 10
10.0919854977032877
 20
21.0759375201552146
 30
0.0
 11
10.09198549770311
 21
21.1650915201555812
 31
0.0
  0
LINE
  5
78
100
AcDbEntity
100
AcDbLine
  8
0
 62
3
420
65280
370
-1
 48
1.0
  6
BYLAYER
 10
-2.1583294476689883
 20
16.9323791435623257
 30
0.0
 11
-2.1583294476688111
 21
17.0215331435626958
 31
0.0
  0
LINE
  5
79
100
AcDbEntity
100
AcDbLine
  8
0
 62
3
420
65280
370
-1
 48
1.0
  6
BYLAYER
 10
2.0256415477375862
 20
16.9323791435623257
 30
0.0
 11
2.0256415477374086
 21
17.0215331435626922
 31
0.0
  0
LINE
  5
7A
100
AcDbEntity
100
AcDbLine
  8
0
 62
3
420
65280
370
-1
 48
1.0
  6
BYLAYER
 10
-2.1583294476689883
 20
13.8608346195698129
 30
0.0
 11
-2.1583294476688111
 21
13.9499886195701794
 31
0.0
  0
LINE
  5
7B
100
AcDbEntity
100
AcDbLine
  8
0
 62
3
420
65280
370
-1
 48
1.0
  6
BYLAYER
 10
2.0256415477375862
 20
13.8608346195698129
 30
0.0
 11
2.0256415477374086
 21
13.9499886195701794
 31
0.0
  0
LINE
  5
7C
100
AcDbEntity
100
AcDbLine
  8
0
 62
3
420
65280
370
-1
 48
1.0
  6
BYLAYER
 10
-2.1583294476689883
 20
19.6623791435623261
 30
0.0
 11
-2.1583294476688111
 21
19.7515331435626962
 31
0.0
  0
LINE
  5
7D
100
AcDbEntity
100
AcDbLine
  8
0
 62
3
420
65280
370
-1
 48
1.0
  6
BYLAYER
 10
2.0256415477375862
 20
19.6623791435623261
 30
0.0
 11
2.0256415477374086
 21
19.7515331435626926
 31
0.0
  0
LINE
  5
7E
100
AcDbEntity
100
AcDbLine
  8
0
 62
3
420
65280
370
-1
 48
1.0
  6
BYLAYER
 10
5.9080145022967123
 20
17.651720561709336
 30
0.0
 11
5.9080145022967123
 21
17.7408745617092691
 31
0.0
  0
LINE
  5
7F
100
AcDbEntity
100
AcDbLine
  8
0
 62
3
420
65280
370
-1
 48
1.0
  6
BYLAYER
 10
10.0919854977032877
 20
17.651720561709336
 30
0.0
 11
10.0919854977032877
 21
17.7408745617092691
 31
0.0
  0
LINE
  5
80
100
AcDbEntity
100
AcDbLine
  8
0
 62
3
420
65280
370
-1
 48
1.0
  6
BYLAYER
 10
5.9080145022967123
 20
15.7257138860119579
 30
0.0
 11
5.9080145022967123
 21
15.814867886011891
 31
0.0
  0
LINE
  5
81
100
AcDbEntity
100
AcDbLine
  8
0
 62
3
420
65280
370
-1
 48
1.0
  6
BYLAYER
 10
10.0919854977032877
 20
15.7257138860119561
 30
0.0
 11
10.0919854977032877
 21
15.814867886011891
 31
0.0
  0
LINE
  5
82
100
AcDbEntity
100
AcDbLine
  8
0
 62
3
420
65280
370
-1
 48
1.0
  6
BYLAYER
 10
5.9080145022967123
 20
19.5974037757205615
 30
0.0
 11
5.9080145022967123
 21
19.6865577757204946
 31
0.0
  0
LINE
  5
83
100
AcDbEntity
100
AcDbLine
  8
0
 62
3
420
65280
370
-1
 48
1.0
  6
BYLAYER
 10
10.0919854977032877
 20
19.5974037757205579
 30
0.0
 11
10.0919854977032877
 21
19.686557775720491
 31
0.0
  0
LINE
  5
84
100
AcDbEntity
100
AcDbLine
  8
0
 62
3
420
65280
370
-1
 48
1.0
  6
BYLAYER
 10
5.9080145022967123
 20
21.4809482997130772
 30
0.0
 11
5.9080145022967123
 21
21.5701022997130103
 31
0.0
  0
LINE
  5
85
100
AcDbEntity
100
AcDbLine
  8
0
 62
3
420
65280
370
-1
 48
1.0
  6
BYLAYER
 10
10.0919854977032877
 20
21.4809482997130736
 30
0.0
 11
10.0919854977032877
 21
21.5701022997130067
 31
0.0
  0
LINE
  5
86
100
AcDbEntity
100
AcDbLine
  8
0
 62
3
420
65280
370
-1
 48
1.0
  6
BYLAYER
 10
-2.1583294476689883
 20
17.3373899231201882
 30
0.0
 11
-2.1583294476689883
 21
17.4265439231201213
 31
0.0
  0
LINE
  5
87
100
AcDbEntity
100
AcDbLine
  8
0
 62
3
420
65280
370
-1
 48
1.0
  6
BYLAYER
 10
2.0256415477375862
 20
17.3373899231201882
 30
0.0
 11
2.0256415477375862
 21
17.4265439231201213
 31
0.0
  0
LINE
  5
88
100
AcDbEntity
100
AcDbLine
  8
0
 62
3
420
65280
370
-1
 48
1.0
  6
BYLAYER
 10
-2.1583294476689883
 20
14.2658453991276737
 30
0.0
 11
-2.1583294476689883
 21
14.3549993991276068
 31
0.0
  0
LINE
  5
89
100
AcDbEntity
100
AcDbLine
  8
0
 62
3
420
65280
370
-1
 48
1.0
  6
BYLAYER
 10
2.0256415477375862
 20
14.2658453991276719
 30
0.0
 11
2.0256415477375862
 21
14.3549993991276068
 31
0.0
  0
LINE
  5
8A
100
AcDbEntity
100
AcDbLine
  8
0
 62
3
420
65280
370
-1
 48
1.0
  6
BYLAYER
 10
-2.1583294476689883
 20
20.0673899231201887
 30
0.0
 11
-2.1583294476689883
 21
20.1565439231201218
 31
0.0
  0
LINE
  5
8B
100
AcDbEntity
100
AcDbLine
  8
0
 62
3
420
65280
370
-1
 48
1.0
  6
BYLAYER
 10
2.0256415477375862
 20
20.0673899231201851
 30
0.0
 11
2.0256415477375862
 21
20.1565439231201182
 31
0.0
  0
LINE
  5
8C
100
AcDbEntity
100
AcDbLine
  8
0
 62
3
420
65280
370
-1
 48
1.0
  6
BYLAYER
 10
5.9268357040831861
 20
16.8342380674018237
 30
0.0
 11
5.926835704083155
 21
16.915328116899925
 31
0.0
  0
LINE
  5
8D
100
AcDbEntity
100
AcDbLine
  8
0
 62
3
420
65280
370
-1
 48
1.0
  6
BYLAYER
 10
10.0731642959167687
 20
16.8342380674018202
 30
0.0
 11
10.0731642959168006
 21
16.915328116899925
 31
0.0
  0
LINE
  5
8E
100
AcDbEntity
100
AcDbLine
  8
0
 62
3
420
65280
370
-1
 48
1.0
  6
BYLAYER
 10
5.9268357040831861
 20
14.9082313917044456
 30
0.0
 11
5.926835704083155
 21
14.9893214412025468
 31
0.0
  0
LINE
  5
8F
100
AcDbEntity
100
AcDbLine
  8
0
 62
3
420
65280
370
-1
 48
1.0
  6
BYLAYER
 10
10.0731642959167687
 20
14.9082313917044438
 30
0.0
 11
10.0731642959168006
 21
14.9893214412025468
 31
0.0
  0
LINE
  5
90
100
AcDbEntity
100
AcDbLine
  8
0
 62
3
420
65280
370
-1
 48
1.0
  6
BYLAYER
 10
5.9268357040831861
 20
18.7799212814130492
 30
0.0
 11
5.926835704083155
 21
18.8610113309111505
 31
0.0
  0
LINE
  5
91
100
AcDbEntity
100
AcDbLine
  8
0
 62
3
420
65280
370
-1
 48
1.0
  6
BYLAYER
 10
10.0731642959167687
 20
18.7799212814130456
 30
0.0
 11
10.0731642959168006
 21
18.8610113309111505
 31
0.0
  0
LINE
  5
92
100
AcDbEntity
100
AcDbLine
  8
0
 62
3
420
65280
370
-1
 48
1.0
  6
BYLAYER
 10
5.9268357040831861
 20
20.6634658054055649
 30
0.0
 11
5.926835704083155
 21
20.7445558549036662
 31
0.0
  0
LINE
  5
93
100
AcDbEntity
100
AcDbLine
  8
0
 62
3
420
65280
370
-1
 48
1.0
  6
BYLAYER
 10
10.0731642959167687
 20
20.6634658054055613
 30
0.0
 11
10.0731642959168006
 21
20.7445558549036662
 31
0.0
  0
LINE
  5
94
100
AcDbEntity
100
AcDbLine
  8
0
 62
3
420
65280
370
-1
 48
1.0
  6
BYLAYER
 10
-2.139508245882515
 20
16.5199074288126759
 30
0.0
 11
-2.1395082458825456
 21
16.6009974783107772
 31
0.0
  0
LINE
  5
95
100
AcDbEntity
100
AcDbLine
  8
0
 62
3
420
65280
370
-1
 48
1.0
  6
BYLAYER
 10
2.0068203459510681
 20
16.5199074288126724
 30
0.0
 11
2.0068203459510991
 21
16.6009974783107772
 31
0.0
  0
LINE
  5
96
100
AcDbEntity
100
AcDbLine
  8
0
 62
3
420
65280
370
-1
 48
1.0
  6
BYLAYER
 10
-2.139508245882515
 20
13.4483629048201614
 30
0.0
 11
-2.1395082458825456
 21
13.5294529543182627
 31
0.0
  0
LINE
  5
97
100
AcDbEntity
100
AcDbLine
  8
0
 62
3
420
65280
370
-1
 48
1.0
  6
BYLAYER
 10
2.0068203459510681
 20
13.4483629048201596
 30
0.0
 11
2.0068203459510991
 21
13.5294529543182627
 31
0.0
  0
LINE
  5
98
100
AcDbEntity
100
AcDbLine
  8
0
 62
3
420
65280
370
-1
 48
1.0
  6
BYLAYER
 10
-2.139508245882515
 20
19.2499074288126764
 30
0.0
 11
-2.1395082458825456
 21
19.3309974783107776
 31
0.0
  0
LINE
  5
99
100
AcDbEntity
100
AcDbLine
  8
0
 62
3
420
65280
370
-1
 48
1.0
  6
BYLAYER
 10
2.0068203459510681
 20
19.2499074288126728
 30
0.0
 11
2.0068203459510991
 21
19.3309974783107776
 31
0.0
  0
LINE
  5
9A
100
AcDbEntity
100
AcDbLine
  8
0
 62
3
420
65280
370
-1
 48
1.0
  6
BYLAYER
 10
6.1457583040831576
 20
16.8342380674018912
 30
0.0
 11
6.1457583040831576
 21
16.9153281168999889
 31
0.0
  0
LINE
  5
9B
100
AcDbEntity
100
AcDbLine
  8
0
 62
3
420
65280
370
-1
 48
1.0
  6
BYLAYER
 10
9.854241695916798
 20
16.8342380674018912
 30
0.0
 11
9.854241695916798
 21
16.9153281168999854
 31
0.0
  0
LINE
  5
9C
100
AcDbEntity
100
AcDbLine
  8
0
 62
3
420
65280
370
-1
 48
1.0
  6
BYLAYER
 10
6.1457583040831576
 20
14.9082313917045131
 30
0.0
 11
6.1457583040831576
 21
14.989321441202609
 31
0.0
  0
LINE
  5
9D
100
AcDbEntity
100
AcDbLine
  8
0
 62
3
420
65280
370
-1
 48
1.0
  6
BYLAYER
 10
9.854241695916798
 20
14.9082313917045131
 30
0.0
 11
9.854241695916798
 21
14.989321441202609
 31
0.0
  0
LINE
  5
9E
100
AcDbEntity
100
AcDbLine
  8
0
 62
3
420
65280
370
-1
 48
1.0
  6
BYLAYER
 10
6.1457583040831576
 20
18.7799212814131167
 30
0.0
 11
6.1457583040831576
 21
18.8610113309112144
 31
0.0
  0
LINE
  5
9F
100
AcDbEntity
100
AcDbLine
  8
0
 62
3
420
65280
370
-1
 48
1.0
  6
BYLAYER
 10
9.854241695916798
 20
18.7799212814131131
 30
0.0
 11
9.854241695916798
 21
18.8610113309112108
 31
0.0
  0
LINE
  5
A0
100
AcDbEntity
100
AcDbLine
  8
0
 62
3
420
65280
370
-1
 48
1.0
  6
BYLAYER
 10
6.1457583040831576
 20
20.6634658054056324
 30
0.0
 11
6.1457583040831576
 21
20.7445558549037301
 31
0.0
  0
LINE
  5
A1
100
AcDbEntity
100
AcDbLine
  8
0
 62
3
420
65280
370
-1
 48
1.0
  6
BYLAYER
 10
9.854241695916798
 20
20.6634658054056288
 30
0.0
 11
9.854241695916798
 21
20.7445558549037266
 31
0.0
  0
LINE
  5
A2
100
AcDbEntity
100
AcDbLine
  8
0
 62
3
420
65280
370
-1
 48
1.0
  6
BYLAYER
 10
-1.920585645882543
 20
16.5199074288127434
 30
0.0
 11
-1.920585645882543
 21
16.6009974783108412
 31
0.0
  0
LINE
  5
A3
100
AcDbEntity
100
AcDbLine
  8
0
 62
3
420
65280
370
-1
 48
1.0
  6
BYLAYER
 10
1.7878977459510965
 20
16.5199074288127434
 30
0.0
 11
1.7878977459510965
 21
16.6009974783108376
 31
0.0
  0
LINE
  5
A4
100
AcDbEntity
100
AcDbLine
  8
0
 62
3
420
65280
370
-1
 48
1.0
  6
BYLAYER
 10
-1.920585645882543
 20
13.4483629048202289
 30
0.0
 11
-1.920585645882543
 21
13.5294529543183248
 31
0.0
  0
LINE
  5
A5
100
AcDbEntity
100
AcDbLine
  8
0
 62
3
420
65280
370
-1
 48
1.0
  6
BYLAYER
 10
1.7878977459510965
 20
13.4483629048202289
 30
0.0
 11
1.7878977459510965
 21
13.5294529543183248
 31
0.0
  0
LINE
  5
A6
100
AcDbEntity
100
AcDbLine
  8
0
 62
3
420
65280
370
-1
 48
1.0
  6
BYLAYER
 10
-1.920585645882543
 20
19.2499074288127439
 30
0.0
 11
-1.920585645882543
 21
19.3309974783108416
 31
0.0
  0
LINE
  5
A7
100
AcDbEntity
100
AcDbLine
  8
0
 62
3
420
65280
370
-1
 48
1.0
  6
BYLAYER
 10
1.7878977459510965
 20
19.2499074288127403
 30
0.0
 11
1.7878977459510965
 21
19.330997478310838
 31
0.0
  0
LINE
  5
A8
100
AcDbEntity
100
AcDbLine
  8
0
 62
3
420
65280
370
-1
 48
1.0
  6
BYLAYER
 10
8.1252504500000029
 20
17.2768507591706282
 30
0.0
 11
7.8747495500000051
 21
17.2768507591706282
 31
0.0
  0
LINE
  5
A9
100
AcDbEntity
100
AcDbLine
  8
0
 62
3
420
65280
370
-1
 48
1.0
  6
BYLAYER
 10
8.1252504500000029
 20
15.35084408347325
 30
0.0
 11
7.8747495500000051
 21
15.35084408347325
 31
0.0
  0
LINE
  5
AA
100
AcDbEntity
100
AcDbLine
  8
0
 62
3
420
65280
370
-1
 48
1.0
  6
BYLAYER
 10
0.0589065000343028
 20
16.9625201205814804
 30
0.0
 11
-0.1915943999656963
 21
16.9625201205814804
 31
0.0
  0
LINE
  5
AB
100
AcDbEntity
100
AcDbLine
  8
0
 62
3
420
65280
370
-1
 48
1.0
  6
BYLAYER
 10
0.0589065000343028
 20
13.8909755965889659
 30
0.0
 11
-0.1915943999656963
 21
13.8909755965889659
 31
0.0
  0
LINE
  5
AC
100
AcDbEntity
100
AcDbLine
  8
0
 62
3
420
65280
370
-1
 48
1.0
  6
BYLAYER
 10
7.8747495500000051
 20
17.2768507591706282
 30
0.0
 11
7.7943939500000061
 21
17.4160300591706303
 31
0.0
  0
LINE
  5
AD
100
AcDbEntity
100
AcDbLine
  8
0
 62
3
420
65280
370
-1
 48
1.0
  6
BYLAYER
 10
7.8747495500000051
 20
15.35084408347325
 30
0.0
 11
7.7943939500000061
 21
15.4900233834732504
 31
0.0
  0
LINE
  5
AE
100
AcDbEntity
100
AcDbLine
  8
0
 62
3
420
65280
370
-1
 48
1.0
  6
BYLAYER
 10
-0.1915943999656963
 20
16.9625201205814804
 30
0.0
 11
-0.2719499999656947
 21
17.1016994205814825
 31
0.0
  0
LINE
  5
AF
100
AcDbEntity
100
AcDbLine
  8
0
 62
3
420
65280
370
-1
 48
1.0
  6
BYLAYER
 10
-0.1915943999656963
 20
13.8909755965889659
 30
0.0
 11
-0.2719499999656947
 21
14.0301548965889662
 31
0.0
  0
LINE
  5
B0
100
AcDbEntity
100
AcDbLine
  8
0
 62
3
420
65280
370
-1
 48
1.0
  6
BYLAYER
 10
7.7943939500000061
 20
17.4160300591706303
 30
0.0
 11
7.7494971500000052
 21
17.4937921591706314
 31
0.0
  0
LINE
  5
B1
100
AcDbEntity
100
AcDbLine
  8
0
 62
3
420
65280
370
-1
 48
1.0
  6
BYLAYER
 10
7.7943939500000061
 20
15.4900233834732504
 30
0.0
 11
7.7494971500000052
 21
15.5677854834732496
 31
0.0
  0
LINE
  5
B2
100
AcDbEntity
100
AcDbLine
  8
0
 62
3
420
65280
370
-1
 48
1.0
  6
BYLAYER
 10
-0.2719499999656947
 20
17.1016994205814825
 30
0.0
 11
-0.3168467999656954
 21
17.1794615205814836
 31
0.0
  0
LINE
  5
B3
100
AcDbEntity
100
AcDbLine
  8
0
 62
3
420
65280
370
-1
 48
1.0
  6
BYLAYER
 10
-0.2719499999656947
 20
14.0301548965889662
 30
0.0
 11
-0.3168467999656954
 21
14.1079169965889655
 31
0.0
  0
LINE
  5
B4
100
AcDbEntity
100
AcDbLine
  8
0
 62
3
420
65280
370
-1
 48
1.0
  6
BYLAYER
 10
7.7494971500000052
 20
17.4937921591706314
 30
0.0
 11
7.7943939500000061
 21
17.5715542591706289
 31
0.0
  0
LINE
  5
B5
100
AcDbEntity
100
AcDbLine
  8
0
 62
3
420
65280
370
-1
 48
1.0
  6
BYLAYER
 10
7.7494971500000052
 20
15.5677854834732496
 30
0.0
 11
7.7943939500000061
 21
15.6455475834732507
 31
0.0
  0
LINE
  5
B6
100
AcDbEntity
100
AcDbLine
  8
0
 62
3
420
65280
370
-1
 48
1.0
  6
BYLAYER
 10
-0.3168467999656954
 20
17.1794615205814836
 30
0.0
 11
-0.2719499999656947
 21
17.2572236205814811
 31
0.0
  0
LINE
  5
B7
100
AcDbEntity
100
AcDbLine
  8
0
 62
3
420
65280
370
-1
 48
1.0
  6
BYLAYER
 10
-0.3168467999656954
 20
14.1079169965889655
 30
0.0
 11
-0.2719499999656947
 21
14.1856790965889665
 31
0.0
  0
LINE
  5
B8
100
AcDbEntity
100
AcDbLine
  8
0
 62
3
420
65280
370
-1
 48
1.0
  6
BYLAYER
 10
7.7943939500000061
 20
17.5715542591706289
 30
0.0
 11
7.8747495500000051
 21
17.7107335591706274
 31
0.0
  0
LINE
  5
B9
100
AcDbEntity
100
AcDbLine
  8
0
 62
3
420
65280
370
-1
 48
1.0
  6
BYLAYER
 10
7.7943939500000061
 20
15.6455475834732507
 30
0.0
 11
7.8747495500000051
 21
15.7847268834732493
 31
0.0
  0
LINE
  5
BA
100
AcDbEntity
100
AcDbLine
  8
0
 62
3
420
65280
370
-1
 48
1.0
  6
BYLAYER
 10
-0.2719499999656947
 20
17.2572236205814811
 30
0.0
 11
-0.1915943999656963
 21
17.3964029205814796
 31
0.0
  0
LINE
  5
BB
100
AcDbEntity
100
AcDbLine
  8
0
 62
3
420
65280
370
-1
 48
1.0
  6
BYLAYER
 10
-0.2719499999656947
 20
14.1856790965889665
 30
0.0
 11
-0.1915943999656963
 21
14.3248583965889651
 31
0.0
  0
LINE
  5
BC
100
AcDbEntity
100
AcDbLine
  8
0
 62
3
420
65280
370
-1
 48
1.0
  6
BYLAYER
 10
7.8747495500000051
 20
17.7107335591706274
 30
0.0
 11
8.1252504500000029
 21
17.7107335591706274
 31
0.0
  0
LINE
  5
BD
100
AcDbEntity
100
AcDbLine
  8
0
 62
3
420
65280
370
-1
 48
1.0
  6
BYLAYER
 10
7.8747495500000051
 20
15.7847268834732493
 30
0.0
 11
8.1252504500000029
 21
15.7847268834732493
 31
0.0
  0
LINE
  5
BE
100
AcDbEntity
100
AcDbLine
  8
0
 62
3
420
65280
370
-1
 48
1.0
  6
BYLAYER
 10
-0.1915943999656963
 20
17.3964029205814796
 30
0.0
 11
0.0589065000343028
 21
17.3964029205814796
 31
0.0
  0
LINE
  5
BF
100
AcDbEntity
100
AcDbLine
  8
0
 62
3
420
65280
370
-1
 48
1.0
  6
BYLAYER
 10
-0.1915943999656963
 20
14.3248583965889651
 30
0.0
 11
0.0589065000343028
 21
14.3248583965889651
 31
0.0
  0
LINE
  5
C0
100
AcDbEntity
100
AcDbLine
  8
0
 62
3
420
65280
370
-1
 48
1.0
  6
BYLAYER
 10
8.1252504500000029
 20
17.7107335591706274
 30
0.0
 11
8.2056068300000042
 21
17.5715542591706289
 31
0.0
  0
LINE
  5
C1
100
AcDbEntity
100
AcDbLine
  8
0
 62
3
420
65280
370
-1
 48
1.0
  6
BYLAYER
 10
8.1252504500000029
 20
15.7847268834732493
 30
0.0
 11
8.2056068300000042
 21
15.6455475834732507
 31
0.0
  0
LINE
  5
C2
100
AcDbEntity
100
AcDbLine
  8
0
 62
3
420
65280
370
-1
 48
1.0
  6
BYLAYER
 10
0.0589065000343028
 20
17.3964029205814796
 30
0.0
 11
0.1392628800343036
 21
17.2572236205814811
 31
0.0
  0
LINE
  5
C3
100
AcDbEntity
100
AcDbLine
  8
0
 62
3
420
65280
370
-1
 48
1.0
  6
BYLAYER
 10
0.0589065000343028
 20
14.3248583965889651
 30
0.0
 11
0.1392628800343036
 21
14.1856790965889665
 31
0.0
  0
LINE
  5
C4
100
AcDbEntity
100
AcDbLine
  8
0
 62
3
420
65280
370
-1
 48
1.0
  6
BYLAYER
 10
8.2056068300000042
 20
17.5715542591706289
 30
0.0
 11
8.2505028500000037
 21
17.4937921591706314
 31
0.0
  0
LINE
  5
C5
100
AcDbEntity
100
AcDbLine
  8
0
 62
3
420
65280
370
-1
 48
1.0
  6
BYLAYER
 10
8.2056068300000042
 20
15.6455475834732507
 30
0.0
 11
8.2505028500000037
 21
15.5677854834732496
 31
0.0
  0
LINE
  5
C6
100
AcDbEntity
100
AcDbLine
  8
0
 62
3
420
65280
370
-1
 48
1.0
  6
BYLAYER
 10
0.1392628800343036
 20
17.2572236205814811
 30
0.0
 11
0.1841589000343018
 21
17.1794615205814836
 31
0.0
  0
LINE
  5
C7
100
AcDbEntity
100
AcDbLine
  8
0
 62
3
420
65280
370
-1
 48
1.0
  6
BYLAYER
 10
0.1392628800343036
 20
14.1856790965889665
 30
0.0
 11
0.1841589000343018
 21
14.1079169965889655
 31
0.0
  0
LINE
  5
C8
100
AcDbEntity
100
AcDbLine
  8
0
 62
3
420
65280
370
-1
 48
1.0
  6
BYLAYER
 10
8.2505028500000037
 20
17.4937921591706314
 30
0.0
 11
8.2056068300000042
 21
17.4160300591706303
 31
0.0
  0
LINE
  5
C9
100
AcDbEntity
100
AcDbLine
  8
0
 62
3
420
65280
370
-1
 48
1.0
  6
BYLAYER
 10
8.2505028500000037
 20
15.5677854834732496
 30
0.0
 11
8.2056068300000042
 21
15.4900233834732504
 31
0.0
  0
LINE
  5
CA
100
AcDbEntity
100
AcDbLine
  8
0
 62
3
420
65280
370
-1
 48
1.0
  6
BYLAYER
 10
0.1841589000343018
 20
17.1794615205814836
 30
0.0
 11
0.1392628800343036
 21
17.1016994205814825
 31
0.0
  0
LINE
  5
CB
100
AcDbEntity
100
AcDbLine
  8
0
 62
3
420
65280
370
-1
 48
1.0
  6
BYLAYER
 10
0.1841589000343018
 20
14.1079169965889655
 30
0.0
 11
0.1392628800343036
 21
14.0301548965889662
 31
0.0
  0
LINE
  5
CC
100
AcDbEntity
100
AcDbLine
  8
0
 62
3
420
65280
370
-1
 48
1.0
  6
BYLAYER
 10
8.2056068300000042
 20
17.4160300591706303
 30
0.0
 11
8.1252504500000029
 21
17.2768507591706282
 31
0.0
  0
LINE
  5
CD
100
AcDbEntity
100
AcDbLine
  8
0
 62
3
420
65280
370
-1
 48
1.0
  6
BYLAYER
 10
8.2056068300000042
 20
15.4900233834732504
 30
0.0
 11
8.1252504500000029
 21
15.35084408347325
 31
0.0
  0
LINE
  5
CE
100
AcDbEntity
100
AcDbLine
  8
0
 62
3
420
65280
370
-1
 48
1.0
  6
BYLAYER
 10
0.1392628800343036
 20
17.1016994205814825
 30
0.0
 11
0.0589065000343028
 21
16.9625201205814804
 31
0.0
  0
LINE
  5
CF
100
AcDbEntity
100
AcDbLine
  8
0
 62
3
420
65280
370
-1
 48
1.0
  6
BYLAYER
 10
0.1392628800343036
 20
14.0301548965889662
 30
0.0
 11
0.0589065000343028
 21
13.8909755965889659
 31
0.0
  0
CIRCLE
  5
D0
100
AcDbEntity
100
AcDbCircle
  8
0
 62
3
420
65280
370
-1
 48
1.0
  6
BYLAYER
 10
7.6100000000000039
 20
17.4937921591706278
 30
0.0
 40
0.04858893
  0
CIRCLE
  5
D1
100
AcDbEntity
100
AcDbCircle
  8
0
 62
3
420
65280
370
-1
 48
1.0
  6
BYLAYER
 10
8.3900000000000041
 20
17.4937921591706278
 30
0.0
 40
0.04858893
  0
CIRCLE
  5
D2
100
AcDbEntity
100
AcDbCircle
  8
0
 62
3
420
65280
370
-1
 48
1.0
  6
BYLAYER
 10
7.6100000000000039
 20
15.5677854834732496
 30
0.0
 40
0.04858893
  0
CIRCLE
  5
D3
100
AcDbEntity
100
AcDbCircle
  8
0
 62
3
420
65280
370
-1
 48
1.0
  6
BYLAYER
 10
8.3900000000000041
 20
15.5677854834732496
 30
0.0
 40
0.04858893
  0
CIRCLE
  5
D4
100
AcDbEntity
100
AcDbCircle
  8
0
 62
3
420
65280
370
-1
 48
1.0
  6
BYLAYER
 10
7.6100000000000039
 20
19.4394753731818533
 30
0.0
 40
0.04858893
  0
CIRCLE
  5
D5
100
AcDbEntity
100
AcDbCircle
  8
0
 62
3
420
65280
370
-1
 48
1.0
  6
BYLAYER
 10
8.3900000000000041
 20
19.4394753731818533
 30
0.0
 40
0.04858893
  0
CIRCLE
  5
D6
100
AcDbEntity
100
AcDbCircle
  8
0
 62
3
420
65280
370
-1
 48
1.0
  6
BYLAYER
 10
7.6100000000000039
 20
21.323019897174369
 30
0.0
 40
0.04858893
  0
CIRCLE
  5
D7
100
AcDbEntity
100
AcDbCircle
  8
0
 62
3
420
65280
370
-1
 48
1.0
  6
BYLAYER
 10
8.3900000000000041
 20
21.323019897174369
 30
0.0
 40
0.04858893
  0
CIRCLE
  5
D8
100
AcDbEntity
100
AcDbCircle
  8
0
 62
3
420
65280
370
-1
 48
1.0
  6
BYLAYER
 10
-0.4563439499656968
 20
17.17946152058148
 30
0.0
 40
0.04858893
  0
CIRCLE
  5
D9
100
AcDbEntity
100
AcDbCircle
  8
0
 62
3
420
65280
370
-1
 48
1.0
  6
BYLAYER
 10
0.3236560500343032
 20
17.17946152058148
 30
0.0
 40
0.04858893
  0
CIRCLE
  5
DA
100
AcDbEntity
100
AcDbCircle
  8
0
 62
3
420
65280
370
-1
 48
1.0
  6
BYLAYER
 10
-0.4563439499656968
 20
14.1079169965889655
 30
0.0
 40
0.04858893
  0
CIRCLE
  5
DB
100
AcDbEntity
100
AcDbCircle
  8
0
 62
3
420
65280
370
-1
 48
1.0
  6
BYLAYER
 10
0.3236560500343032
 20
14.1079169965889655
 30
0.0
 40
0.04858893
  0
CIRCLE
  5
DC
100
AcDbEntity
100
AcDbCircle
  8
0
 62
3
420
65280
370
-1
 48
1.0
  6
BYLAYER
 10
-0.4563439499656968
 20
19.9094615205814804
 30
0.0
 40
0.04858893
  0
CIRCLE
  5
DD
100
AcDbEntity
100
AcDbCircle
  8
0
 62
3
420
65280
370
-1
 48
1.0
  6
BYLAYER
 10
0.3236560500343032
 20
19.9094615205814804
 30
0.0
 40
0.04858893
  0
CIRCLE
  5
DE
100
AcDbEntity
100
AcDbCircle
  8
0
 62
3
420
65280
370
-1
 48
1.0
  6
BYLAYER
 10
6.4773794274296996
 20
16.8502921591706283
 30
0.0
 40
0.04858893
  0
CIRCLE
  5
DF
100
AcDbEntity
100
AcDbCircle
  8
0
 62
3
420
65280
370
-1
 48
1.0
  6
BYLAYER
 10
9.5226205725703004
 20
16.8502921591706247
 30
0.0
 40
0.04858893
  0
CIRCLE
  5
E0
100
AcDbEntity
100
AcDbCircle
  8
0
 62
3
420
65280
370
-1
 48
1.0
  6
BYLAYER
 10
9.5599999999999987
 20
17.863316785988772
 30
0.0
 40
0.04858893
  0
CIRCLE
  5
E1
100
AcDbEntity
100
AcDbCircle
  8
0
 62
3
420
65280
370
-1
 48
1.0
  6
BYLAYER
 10
6.4399999999999995
 20
17.863316785988772
 30
0.0
 40
0.04858893
  0
CIRCLE
  5
E2
100
AcDbEntity
100
AcDbCircle
  8
0
 62
3
420
65280
370
-1
 48
1.0
  6
BYLAYER
 10
6.4399999999999995
 20
15.9373101102913939
 30
0.0
 40
0.04858893
  0
CIRCLE
  5
E3
100
AcDbEntity
100
AcDbCircle
  8
0
 62
3
420
65280
370
-1
 48
1.0
  6
BYLAYER
 10
6.4773794274296996
 20
14.9242854834732483
 30
0.0
 40
0.04858893
  0
CIRCLE
  5
E4
100
AcDbEntity
100
AcDbCircle
  8
0
 62
3
420
65280
370
-1
 48
1.0
  6
BYLAYER
 10
9.5226205725703004
 20
14.9242854834732483
 30
0.0
 40
0.04858893
  0
CIRCLE
  5
E5
100
AcDbEntity
100
AcDbCircle
  8
0
 62
3
420
65280
370
-1
 48
1.0
  6
BYLAYER
 10
9.5599999999999987
 20
15.9373101102913939
 30
0.0
 40
0.04858893
  0
CIRCLE
  5
E6
100
AcDbEntity
100
AcDbCircle
  8
0
 62
3
420
65280
370
-1
 48
1.0
  6
BYLAYER
 10
6.4773794274296996
 20
18.7959753731818502
 30
0.0
 40
0.04858893
  0
CIRCLE
  5
E7
100
AcDbEntity
100
AcDbCircle
  8
0
 62
3
420
65280
370
-1
 48
1.0
  6
BYLAYER
 10
9.5226205725703004
 20
18.7959753731818502
 30
0.0
 40
0.04858893
  0
CIRCLE
  5
E8
100
AcDbEntity
100
AcDbCircle
  8
0
 62
3
420
65280
370
-1
 48
1.0
  6
BYLAYER
 10
9.5599999999999987
 20
19.8089999999999975
 30
0.0
 40
0.04858893
  0
CIRCLE
  5
E9
100
AcDbEntity
100
AcDbCircle
  8
0
 62
3
420
65280
370
-1
 48
1.0
  6
BYLAYER
 10
6.4399999999999995
 20
19.8089999999999975
 30
0.0
 40
0.04858893
  0
CIRCLE
  5
EA
100
AcDbEntity
100
AcDbCircle
  8
0
 62
3
420
65280
370
-1
 48
1.0
  6
BYLAYER
 10
6.4773794274296996
 20
20.6795198971743659
 30
0.0
 40
0.04858893
  0
CIRCLE
  5
EB
100
AcDbEntity
100
AcDbCircle
  8
0
 62
3
420
65280
370
-1
 48
1.0
  6
BYLAYER
 10
9.5226205725703004
 20
20.6795198971743659
 30
0.0
 40
0.04858893
  0
CIRCLE
  5
EC
100
AcDbEntity
100
AcDbCircle
  8
0
 62
3
420
65280
370
-1
 48
1.0
  6
BYLAYER
 10
9.5599999999999987
 20
21.6925445239925132
 30
0.0
 40
0.04858893
  0
CIRCLE
  5
ED
100
AcDbEntity
100
AcDbCircle
  8
0
 62
3
420
65280
370
-1
 48
1.0
  6
BYLAYER
 10
6.4399999999999995
 20
21.6925445239925132
 30
0.0
 40
0.04858893
  0
CIRCLE
  5
EE
100
AcDbEntity
100
AcDbCircle
  8
0
 62
3
420
65280
370
-1
 48
1.0
  6
BYLAYER
 10
-3.5763439499657097
 20
11.4064441271470365
 30
0.0
 40
0.04858893
  0
CIRCLE
  5
EF
100
AcDbEntity
100
AcDbCircle
  8
0
 62
3
420
65280
370
-1
 48
1.0
  6
BYLAYER
 10
-3.5763439499657097
 20
10.1969861984170649
 30
0.0
 40
0.04858893
  0
CIRCLE
  5
F0
100
AcDbEntity
100
AcDbCircle
  8
0
 62
3
420
65280
370
-1
 48
1.0
  6
BYLAYER
 10
3.4436560500342992
 20
11.4064441271470347
 30
0.0
 40
0.04858893
  0
CIRCLE
  5
F1
100
AcDbEntity
100
AcDbCircle
  8
0
 62
3
420
65280
370
-1
 48
1.0
  6
BYLAYER
 10
3.4436560500342992
 20
10.1969861984170613
 30
0.0
 40
0.04858893
  0
CIRCLE
  5
F2
100
AcDbEntity
100
AcDbCircle
  8
0
 62
3
420
65280
370
-1
 48
1.0
  6
BYLAYER
 10
-2.0163439499657145
 20
11.3964416234071102
 30
0.0
 40
0.04858893
  0
CIRCLE
  5
F3
100
AcDbEntity
100
AcDbCircle
  8
0
 62
3
420
65280
370
-1
 48
1.0
  6
BYLAYER
 10
-2.0163439499657145
 20
10.1869836946771368
 30
0.0
 40
0.04858893
  0
CIRCLE
  5
F4
100
AcDbEntity
100
AcDbCircle
  8
0
 62
3
420
65280
370
-1
 48
1.0
  6
BYLAYER
 10
1.8836560500342987
 20
11.3964416234071102
 30
0.0
 40
0.04858893
  0
CIRCLE
  5
F5
100
AcDbEntity
100
AcDbCircle
  8
0
 62
3
420
65280
370
-1
 48
1.0
  6
BYLAYER
 10
1.8836560500342987
 20
10.1869836946771368
 30
0.0
 40
0.04858893
  0
CIRCLE
  5
F6
100
AcDbEntity
100
AcDbCircle
  8
0
 62
3
420
65280
370
-1
 48
1.0
  6
BYLAYER
 10
-1.2363439499657014
 20
10.6378905124411993
 30
0.0
 40
0.04858893
  0
CIRCLE
  5
F7
100
AcDbEntity
100
AcDbCircle
  8
0
 62
3
420
65280
370
-1
 48
1.0
  6
BYLAYER
 10
1.1036560500342989
 20
10.6378905124411993
 30
0.0
 40
0.04858893
  0
CIRCLE
  5
F8
100
AcDbEntity
100
AcDbCircle
  8
0
 62
3
420
65280
370
-1
 48
1.0
  6
BYLAYER
 10
1.4243391621342933
 20
9.8403389527387333
 30
0.0
 40
0.04858893
  0
CIRCLE
  5
F9
100
AcDbEntity
100
AcDbCircle
  8
0
 62
3
420
65280
370
-1
 48
1.0
  6
BYLAYER
 10
-1.5570270620656959
 20
9.8403389527387333
 30
0.0
 40
0.04858893
  0
CIRCLE
  5
FA
100
AcDbEntity
100
AcDbCircle
  8
0
 62
3
420
65280
370
-1
 48
1.0
  6
BYLAYER
 10
1.4243391621342933
 20
7.3447144262471022
 30
0.0
 40
0.04858893
  0
CIRCLE
  5
FB
100
AcDbEntity
100
AcDbCircle
  8
0
 62
3
420
65280
370
-1
 48
1.0
  6
BYLAYER
 10
-1.5570270620656959
 20
7.3447144262471022
 30
0.0
 40
0.04858893
  0
CIRCLE
  5
FC
100
AcDbEntity
100
AcDbCircle
  8
0
 62
3
420
65280
370
-1
 48
1.0
  6
BYLAYER
 10
-1.5889645225360014
 20
16.5359615205814805
 30
0.0
 40
0.04858893
  0
CIRCLE
  5
FD
100
AcDbEntity
100
AcDbCircle
  8
0
 62
3
420
65280
370
-1
 48
1.0
  6
BYLAYER
 10
1.4562766226045989
 20
16.5359615205814769
 30
0.0
 40
0.04858893
  0
CIRCLE
  5
FE
100
AcDbEntity
100
AcDbCircle
  8
0
 62
3
420
65280
370
-1
 48
1.0
  6
BYLAYER
 10
1.4936560500342986
 20
17.5489861473996243
 30
0.0
 40
0.04858893
  0
CIRCLE
  5
FF
100
AcDbEntity
100
AcDbCircle
  8
0
 62
3
420
65280
370
-1
 48
1.0
  6
BYLAYER
 10
-1.6263439499657011
 20
17.5489861473996243
 30
0.0
 40
0.04858893
  0
CIRCLE
  5
100
100
AcDbEntity
100
AcDbCircle
  8
0
 62
3
420
65280
370
-1
 48
1.0
  6
BYLAYER
 10
-1.6263439499657011
 20
14.4774416234071097
 30
0.0
 40
0.04858893
  0
CIRCLE
  5
101
100
AcDbEntity
100
AcDbCircle
  8
0
 62
3
420
65280
370
-1
 48
1.0
  6
BYLAYER
 10
-1.2363439499657014
 20
8.8809405825581607
 30
0.0
 40
0.04858893
  0
CIRCLE
  5
102
100
AcDbEntity
100
AcDbCircle
  8
0
 62
3
420
65280
370
-1
 48
1.0
  6
BYLAYER
 10
-1.2363439499656925
 20
7.8864416234071095
 30
0.0
 40
0.04858893
  0
CIRCLE
  5
103
100
AcDbEntity
100
AcDbCircle
  8
0
 62
3
420
65280
370
-1
 48
1.0
  6
BYLAYER
 10
1.1036560500342989
 20
8.8809405825581607
 30
0.0
 40
0.04858893
  0
CIRCLE
  5
104
100
AcDbEntity
100
AcDbCircle
  8
0
 62
3
420
65280
370
-1
 48
1.0
  6
BYLAYER
 10
1.10365605003429
 20
7.8864416234071095
 30
0.0
 40
0.04858893
  0
CIRCLE
  5
105
100
AcDbEntity
100
AcDbCircle
  8
0
 62
3
420
65280
370
-1
 48
1.0
  6
BYLAYER
 10
-1.5889645225360014
 20
13.4644169965889642
 30
0.0
 40
0.04858893
  0
CIRCLE
  5
106
100
AcDbEntity
100
AcDbCircle
  8
0
 62
3
420
65280
370
-1
 48
1.0
  6
BYLAYER
 10
1.4562766226045989
 20
13.4644169965889642
 30
0.0
 40
0.04858893
  0
CIRCLE
  5
107
100
AcDbEntity
100
AcDbCircle
  8
0
 62
3
420
65280
370
-1
 48
1.0
  6
BYLAYER
 10
1.4936560500342986
 20
14.4774416234071097
 30
0.0
 40
0.04858893
  0
CIRCLE
  5
108
100
AcDbEntity
100
AcDbCircle
  8
0
 62
3
420
65280
370
-1
 48
1.0
  6
BYLAYER
 10
-1.5889645225360014
 20
19.2659615205814774
 30
0.0
 40
0.04858893
  0
CIRCLE
  5
109
100
AcDbEntity
100
AcDbCircle
  8
0
 62
3
420
65280
370
-1
 48
1.0
  6
BYLAYER
 10
1.4562766226045989
 20
19.2659615205814774
 30
0.0
 40
0.04858893
  0
CIRCLE
  5
10A
100
AcDbEntity
100
AcDbCircle
  8
0
 62
3
420
65280
370
-1
 48
1.0
  6
BYLAYER
 10
1.4936560500342986
 20
20.2789861473996247
 30
0.0
 40
0.04858893
  0
CIRCLE
  5
10B
100
AcDbEntity
100
AcDbCircle
  8
0
 62
3
420
65280
370
-1
 48
1.0
  6
BYLAYER
 10
-1.6263439499657011
 20
20.2789861473996247
 30
0.0
 40
0.04858893
  0
CIRCLE
  5
10C
100
AcDbEntity
100
AcDbCircle
  8
0
 62
3
420
65280
370
-1
 48
1.0
  6
BYLAYER
 10
0.2651560500342988
 20
10.6378905124411993
 30
0.0
 40
0.0584995512634416
  0
CIRCLE
  5
10D
100
AcDbEntity
100
AcDbCircle
  8
0
 62
3
420
65280
370
-1
 48
1.0
  6
BYLAYER
 10
-0.3978439499656968
 20
10.6378905124411993
 30
0.0
 40
0.0584995512634416
  0
CIRCLE
  5
10E
100
AcDbEntity
100
AcDbCircle
  8
0
 62
3
420
65280
370
-1
 48
1.0
  6
BYLAYER
 10
-0.6708434520552888
 20
10.0138892355460385
 30
0.0
 40
0.0584995512634416
  0
CIRCLE
  5
10F
100
AcDbEntity
100
AcDbCircle
  8
0
 62
3
420
65280
370
-1
 48
1.0
  6
BYLAYER
 10
-0.5733435741539525
 20
9.9163908097342848
 30
0.0
 40
0.0585007059095736
  0
CIRCLE
  5
110
100
AcDbEntity
100
AcDbCircle
  8
0
 62
3
420
65280
370
-1
 48
1.0
  6
BYLAYER
 10
-0.0663439499657012
 20
9.4093899203288096
 30
0.0
 40
0.4309490324099243
  0
CIRCLE
  5
111
100
AcDbEntity
100
AcDbCircle
  8
0
 62
3
420
65280
370
-1
 48
1.0
  6
BYLAYER
 10
0.4406535579200047
 20
9.9163911430238443
 30
0.0
 40
0.0584999575308867
  0
CIRCLE
  5
112
100
AcDbEntity
100
AcDbCircle
  8
0
 62
3
420
65280
370
-1
 48
1.0
  6
BYLAYER
 10
0.5381558132710482
 20
10.0138890841850259
 30
0.0
 40
0.058499211552956
  0
CIRCLE
  5
113
100
AcDbEntity
100
AcDbCircle
  8
0
 62
3
420
65280
370
-1
 48
1.0
  6
BYLAYER
 10
0.4406541714352017
 20
8.9023916584708971
 30
0.0
 40
0.0584995915095231
  0
CIRCLE
  5
114
100
AcDbEntity
100
AcDbCircle
  8
0
 62
3
420
65280
370
-1
 48
1.0
  6
BYLAYER
 10
0.53815477850996
 20
8.804889907274756
 30
0.0
 40
0.0584995073529767
  0
CIRCLE
  5
115
100
AcDbEntity
100
AcDbCircle
  8
0
 62
3
420
65280
370
-1
 48
1.0
  6
BYLAYER
 10
-0.5733454025169342
 20
8.9023919589733129
 30
0.0
 40
0.0584992265907585
  0
CIRCLE
  5
116
100
AcDbEntity
100
AcDbCircle
  8
0
 62
3
420
65280
370
-1
 48
1.0
  6
BYLAYER
 10
-0.6708450566112674
 20
8.8048931355460383
 30
0.0
 40
0.0584999307995509
  0
CIRCLE
  5
117
100
AcDbEntity
100
AcDbCircle
  8
0
 62
3
420
65280
370
-1
 48
1.0
  6
BYLAYER
 10
8.0000000000000036
 20
17.4937921591706314
 30
0.0
 40
0.156
  0
CIRCLE
  5
118
100
AcDbEntity
100
AcDbCircle
  8
0
 62
3
420
65280
370
-1
 48
1.0
  6
BYLAYER
 10
8.0000000000000036
 20
15.5677854834732496
 30
0.0
 40
0.156
  0
CIRCLE
  5
119
100
AcDbEntity
100
AcDbCircle
  8
0
 62
3
420
65280
370
-1
 48
1.0
  6
BYLAYER
 10
8.0000000000000036
 20
19.4394753731818533
 30
0.0
 40
0.156
  0
CIRCLE
  5
11A
100
AcDbEntity
100
AcDbCircle
  8
0
 62
3
420
65280
370
-1
 48
1.0
  6
BYLAYER
 10
8.0000000000000036
 20
21.323019897174369
 30
0.0
 40
0.156
  0
CIRCLE
  5
11B
100
AcDbEntity
100
AcDbCircle
  8
0
 62
3
420
65280
370
-1
 48
1.0
  6
BYLAYER
 10
-0.0663439499657012
 20
10.6378905124411993
 30
0.0
 40
0.156
  0
CIRCLE
  5
11C
100
AcDbEntity
100
AcDbCircle
  8
0
 62
3
420
65280
370
-1
 48
1.0
  6
BYLAYER
 10
-0.0663439499657012
 20
9.4093899203288096
 30
0.0
 40
0.156
  0
CIRCLE
  5
11D
100
AcDbEntity
100
AcDbCircle
  8
0
 62
3
420
65280
370
-1
 48
1.0
  6
BYLAYER
 10
-0.0663439499657012
 20
10.6378905124411993
 30
0.0
 40
0.156
  0
CIRCLE
  5
11E
100
AcDbEntity
100
AcDbCircle
  8
0
 62
3
420
65280
370
-1
 48
1.0
  6
BYLAYER
 10
-0.0663439499656968
 20
17.1794615205814836
 30
0.0
 40
0.156
  0
CIRCLE
  5
11F
100
AcDbEntity
100
AcDbCircle
  8
0
 62
3
420
65280
370
-1
 48
1.0
  6
BYLAYER
 10
-0.0663439499656968
 20
14.1079169965889655
 30
0.0
 40
0.156
  0
CIRCLE
  5
120
100
AcDbEntity
100
AcDbCircle
  8
0
 62
3
420
65280
370
-1
 48
1.0
  6
BYLAYER
 10
-0.0663439499656968
 20
19.9094615205814804
 30
0.0
 40
0.156
  0
LINE
  5
121
100
AcDbEntity
100
AcDbLine
  8
0
 62
3
420
65280
370
-1
 48
1.0
  6
BYLAYER
 10
7.9025000000000043
 20
17.9260066756973764
 30
0.0
 11
8.0975000000000037
 21
17.9260066756973764
 31
0.0
  0
LINE
  5
122
100
AcDbEntity
100
AcDbLine
  8
0
 62
3
420
65280
370
-1
 48
1.0
  6
BYLAYER
 10
7.9025000000000043
 20
15.9999999999999982
 30
0.0
 11
8.0975000000000037
 21
15.9999999999999982
 31
0.0
  0
LINE
  5
123
100
AcDbEntity
100
AcDbLine
  8
0
 62
3
420
65280
370
-1
 48
1.0
  6
BYLAYER
 10
7.9025000000000043
 20
19.8716898897086018
 30
0.0
 11
8.0975000000000037
 21
19.8716898897086018
 31
0.0
  0
LINE
  5
124
100
AcDbEntity
100
AcDbLine
  8
0
 62
3
420
65280
370
-1
 48
1.0
  6
BYLAYER
 10
7.9025000000000043
 20
21.7552344137011175
 30
0.0
 11
8.0975000000000037
 21
21.7552344137011175
 31
0.0
  0
LINE
  5
125
100
AcDbEntity
100
AcDbLine
  8
0
 62
3
420
65280
370
-1
 48
1.0
  6
BYLAYER
 10
-0.1638439499657012
 20
11.0701050289679479
 30
0.0
 11
0.0311560500342988
 21
11.0701050289679497
 31
0.0
  0
LINE
  5
126
100
AcDbEntity
100
AcDbLine
  8
0
 62
3
420
65280
370
-1
 48
1.0
  6
BYLAYER
 10
-0.1638439499656968
 20
17.6116760371082286
 30
0.0
 11
0.0311560500343032
 21
17.6116760371082286
 31
0.0
  0
LINE
  5
127
100
AcDbEntity
100
AcDbLine
  8
0
 62
3
420
65280
370
-1
 48
1.0
  6
BYLAYER
 10
-0.1638439499656968
 20
14.5401315131157141
 30
0.0
 11
0.0311560500343032
 21
14.5401315131157141
 31
0.0
  0
LINE
  5
128
100
AcDbEntity
100
AcDbLine
  8
0
 62
3
420
65280
370
-1
 48
1.0
  6
BYLAYER
 10
-0.1638439499656968
 20
20.341676037108229
 30
0.0
 11
0.0311560500343032
 21
20.341676037108229
 31
0.0
  0
LINE
  5
129
100
AcDbEntity
100
AcDbLine
  8
0
 62
3
420
65280
370
-1
 48
1.0
  6
BYLAYER
 10
8.0975000000000037
 20
17.9260066756973764
 30
0.0
 11
8.7800000000000047
 21
18.0722562269608176
 31
0.0
  0
LINE
  5
12A
100
AcDbEntity
100
AcDbLine
  8
0
 62
3
420
65280
370
-1
 48
1.0
  6
BYLAYER
 10
7.9025000000000087
 20
17.9260066756973764
 30
0.0
 11
7.2200000000000086
 21
18.0722562269608176
 31
0.0
  0
LINE
  5
12B
100
AcDbEntity
100
AcDbLine
  8
0
 62
3
420
65280
370
-1
 48
1.0
  6
BYLAYER
 10
8.0975000000000037
 20
15.9999999999999982
 30
0.0
 11
8.7800000000000047
 21
16.1462495512634376
 31
0.0
  0
LINE
  5
12C
100
AcDbEntity
100
AcDbLine
  8
0
 62
3
420
65280
370
-1
 48
1.0
  6
BYLAYER
 10
7.9025000000000087
 20
15.9999999999999982
 30
0.0
 11
7.2200000000000086
 21
16.1462495512634376
 31
0.0
  0
LINE
  5
12D
100
AcDbEntity
100
AcDbLine
  8
0
 62
3
420
65280
370
-1
 48
1.0
  6
BYLAYER
 10
8.0975000000000037
 20
19.8716898897086018
 30
0.0
 11
8.7800000000000047
 21
20.017939440972043
 31
0.0
  0
LINE
  5
12E
100
AcDbEntity
100
AcDbLine
  8
0
 62
3
420
65280
370
-1
 48
1.0
  6
BYLAYER
 10
7.9025000000000087
 20
19.8716898897086018
 30
0.0
 11
7.2200000000000086
 21
20.017939440972043
 31
0.0
  0
LINE
  5
12F
100
AcDbEntity
100
AcDbLine
  8
0
 62
3
420
65280
370
-1
 48
1.0
  6
BYLAYER
 10
8.0975000000000037
 20
21.7552344137011175
 30
0.0
 11
8.7800000000000047
 21
21.9014839649645587
 31
0.0
  0
LINE
  5
130
100
AcDbEntity
100
AcDbLine
  8
0
 62
3
420
65280
370
-1
 48
1.0
  6
BYLAYER
 10
7.9025000000000087
 20
21.7552344137011175
 30
0.0
 11
7.2200000000000086
 21
21.9014839649645587
 31
0.0
  0
LINE
  5
131
100
AcDbEntity
100
AcDbLine
  8
0
 62
3
420
65280
370
-1
 48
1.0
  6
BYLAYER
 10
0.0311560500342988
 20
11.0701050289679497
 30
0.0
 11
0.7136560500342988
 21
11.2163545802313891
 31
0.0
  0
LINE
  5
132
100
AcDbEntity
100
AcDbLine
  8
0
 62
3
420
65280
370
-1
 48
1.0
  6
BYLAYER
 10
-0.1638439499656968
 20
11.0701050289679479
 30
0.0
 11
-0.8463439499656968
 21
11.2163545802313891
 31
0.0
  0
LINE
  5
133
100
AcDbEntity
100
AcDbLine
  8
0
 62
3
420
65280
370
-1
 48
1.0
  6
BYLAYER
 10
0.0311560500343032
 20
17.6116760371082286
 30
0.0
 11
0.7136560500343032
 21
17.7579255883716698
 31
0.0
  0
LINE
  5
134
100
AcDbEntity
100
AcDbLine
  8
0
 62
3
420
65280
370
-1
 48
1.0
  6
BYLAYER
 10
-0.1638439499656923
 20
17.6116760371082286
 30
0.0
 11
-0.8463439499656924
 21
17.7579255883716698
 31
0.0
  0
LINE
  5
135
100
AcDbEntity
100
AcDbLine
  8
0
 62
3
420
65280
370
-1
 48
1.0
  6
BYLAYER
 10
0.0311560500343032
 20
14.5401315131157141
 30
0.0
 11
0.7136560500343032
 21
14.6863810643791552
 31
0.0
  0
LINE
  5
136
100
AcDbEntity
100
AcDbLine
  8
0
 62
3
420
65280
370
-1
 48
1.0
  6
BYLAYER
 10
-0.1638439499656923
 20
14.5401315131157141
 30
0.0
 11
-0.8463439499656924
 21
14.6863810643791552
 31
0.0
  0
LINE
  5
137
100
AcDbEntity
100
AcDbLine
  8
0
 62
3
420
65280
370
-1
 48
1.0
  6
BYLAYER
 10
0.0311560500343032
 20
20.341676037108229
 30
0.0
 11
0.7136560500343032
 21
20.4879255883716702
 31
0.0
  0
LINE
  5
138
100
AcDbEntity
100
AcDbLine
  8
0
 62
3
420
65280
370
-1
 48
1.0
  6
BYLAYER
 10
-0.1638439499656923
 20
20.341676037108229
 30
0.0
 11
-0.8463439499656924
 21
20.4879255883716702
 31
0.0
  0
LINE
  5
139
100
AcDbEntity
100
AcDbLine
  8
0
 62
3
420
65280
370
-1
 48
1.0
  6
BYLAYER
 10
9.8354204941305134
 20
17.3358637889716043
 30
0.0
 11
9.5226205725703004
 21
17.3358637889716043
 31
0.0
  0
LINE
  5
13A
100
AcDbEntity
100
AcDbLine
  8
0
 62
3
420
65280
370
-1
 48
1.0
  6
BYLAYER
 10
6.1645795058694848
 20
17.3358637889716043
 30
0.0
 11
6.4773794274296996
 21
17.3358637889716043
 31
0.0
  0
LINE
  5
13B
100
AcDbEntity
100
AcDbLine
  8
0
 62
3
420
65280
370
-1
 48
1.0
  6
BYLAYER
 10
6.1645795058694848
 20
15.4098571132742261
 30
0.0
 11
6.4773794274296996
 21
15.4098571132742261
 31
0.0
  0
LINE
  5
13C
100
AcDbEntity
100
AcDbLine
  8
0
 62
3
420
65280
370
-1
 48
1.0
  6
BYLAYER
 10
9.8354204941305134
 20
15.4098571132742261
 30
0.0
 11
9.5226205725703004
 21
15.4098571132742261
 31
0.0
  0
LINE
  5
13D
100
AcDbEntity
100
AcDbLine
  8
0
 62
3
420
65280
370
-1
 48
1.0
  6
BYLAYER
 10
9.8354204941305134
 20
19.2815470029828298
 30
0.0
 11
9.5226205725703004
 21
19.2815470029828298
 31
0.0
  0
LINE
  5
13E
100
AcDbEntity
100
AcDbLine
  8
0
 62
3
420
65280
370
-1
 48
1.0
  6
BYLAYER
 10
6.1645795058694848
 20
19.2815470029828298
 30
0.0
 11
6.4773794274296996
 21
19.2815470029828298
 31
0.0
  0
LINE
  5
13F
100
AcDbEntity
100
AcDbLine
  8
0
 62
3
420
65280
370
-1
 48
1.0
  6
BYLAYER
 10
9.8354204941305134
 20
21.1650915269753455
 30
0.0
 11
9.5226205725703004
 21
21.1650915269753455
 31
0.0
  0
LINE
  5
140
100
AcDbEntity
100
AcDbLine
  8
0
 62
3
420
65280
370
-1
 48
1.0
  6
BYLAYER
 10
6.1645795058694848
 20
21.1650915269753455
 30
0.0
 11
6.4773794274296996
 21
21.1650915269753455
 31
0.0
  0
LINE
  5
141
100
AcDbEntity
100
AcDbLine
  8
0
 62
3
420
65280
370
-1
 48
1.0
  6
BYLAYER
 10
1.7690765441648133
 20
17.0215331503824565
 30
0.0
 11
1.4562766226045989
 21
17.0215331503824565
 31
0.0
  0
LINE
  5
142
100
AcDbEntity
100
AcDbLine
  8
0
 62
3
420
65280
370
-1
 48
1.0
  6
BYLAYER
 10
-1.9017644440962158
 20
17.0215331503824565
 30
0.0
 11
-1.5889645225360014
 21
17.0215331503824565
 31
0.0
  0
LINE
  5
143
100
AcDbEntity
100
AcDbLine
  8
0
 62
3
420
65280
370
-1
 48
1.0
  6
BYLAYER
 10
-1.9017644440962158
 20
13.949988626389942
 30
0.0
 11
-1.5889645225360014
 21
13.949988626389942
 31
0.0
  0
LINE
  5
144
100
AcDbEntity
100
AcDbLine
  8
0
 62
3
420
65280
370
-1
 48
1.0
  6
BYLAYER
 10
1.7690765441648133
 20
13.949988626389942
 30
0.0
 11
1.4562766226045989
 21
13.949988626389942
 31
0.0
  0
LINE
  5
145
100
AcDbEntity
100
AcDbLine
  8
0
 62
3
420
65280
370
-1
 48
1.0
  6
BYLAYER
 10
1.7690765441648133
 20
19.7515331503824569
 30
0.0
 11
1.4562766226045989
 21
19.7515331503824569
 31
0.0
  0
LINE
  5
146
100
AcDbEntity
100
AcDbLine
  8
0
 62
3
420
65280
370
-1
 48
1.0
  6
BYLAYER
 10
-1.9017644440962158
 20
19.7515331503824569
 30
0.0
 11
-1.5889645225360014
 21
19.7515331503824569
 31
0.0
  0
LINE
  5
147
100
AcDbEntity
100
AcDbLine
  8
0
 62
3
420
65280
370
-1
 48
1.0
  6
BYLAYER
 10
9.8354204941305188
 20
17.6517205617092934
 30
0.0
 11
9.5226205725703004
 21
17.6517204623114026
 31
0.0
  0
LINE
  5
148
100
AcDbEntity
100
AcDbLine
  8
0
 62
3
420
65280
370
-1
 48
1.0
  6
BYLAYER
 10
6.1645795058694812
 20
17.6517205617092934
 30
0.0
 11
6.4773794274296996
 21
17.6517204623114026
 31
0.0
  0
LINE
  5
149
100
AcDbEntity
100
AcDbLine
  8
0
 62
3
420
65280
370
-1
 48
1.0
  6
BYLAYER
 10
6.1645795058694812
 20
15.7257138860119152
 30
0.0
 11
6.4773794274296996
 21
15.7257137866140244
 31
0.0
  0
LINE
  5
14A
100
AcDbEntity
100
AcDbLine
  8
0
 62
3
420
65280
370
-1
 48
1.0
  6
BYLAYER
 10
9.8354204941305188
 20
15.7257138860119152
 30
0.0
 11
9.5226205725703004
 21
15.7257137866140244
 31
0.0
  0
LINE
  5
14B
100
AcDbEntity
100
AcDbLine
  8
0
 62
3
420
65280
370
-1
 48
1.0
  6
BYLAYER
 10
9.8354204941305188
 20
19.5974037757205153
 30
0.0
 11
9.5226205725703004
 21
19.5974036763226245
 31
0.0
  0
LINE
  5
14C
100
AcDbEntity
100
AcDbLine
  8
0
 62
3
420
65280
370
-1
 48
1.0
  6
BYLAYER
 10
6.1645795058694812
 20
19.5974037757205188
 30
0.0
 11
6.4773794274296996
 21
19.597403676322628
 31
0.0
  0
LINE
  5
14D
100
AcDbEntity
100
AcDbLine
  8
0
 62
3
420
65280
370
-1
 48
1.0
  6
BYLAYER
 10
9.8354204941305188
 20
21.480948299713031
 30
0.0
 11
9.5226205725703004
 21
21.4809482003151402
 31
0.0
  0
LINE
  5
14E
100
AcDbEntity
100
AcDbLine
  8
0
 62
3
420
65280
370
-1
 48
1.0
  6
BYLAYER
 10
6.1645795058694812
 20
21.4809482997130345
 30
0.0
 11
6.4773794274296996
 21
21.4809482003151437
 31
0.0
  0
LINE
  5
14F
100
AcDbEntity
100
AcDbLine
  8
0
 62
3
420
65280
370
-1
 48
1.0
  6
BYLAYER
 10
1.7690765441648177
 20
17.3373899231201456
 30
0.0
 11
1.4562766226045989
 21
17.3373898237222548
 31
0.0
  0
LINE
  5
150
100
AcDbEntity
100
AcDbLine
  8
0
 62
3
420
65280
370
-1
 48
1.0
  6
BYLAYER
 10
-1.9017644440962203
 20
17.3373899231201456
 30
0.0
 11
-1.5889645225360014
 21
17.3373898237222548
 31
0.0
  0
LINE
  5
151
100
AcDbEntity
100
AcDbLine
  8
0
 62
3
420
65280
370
-1
 48
1.0
  6
BYLAYER
 10
-1.9017644440962203
 20
14.2658453991276311
 30
0.0
 11
-1.5889645225360014
 21
14.2658452997297402
 31
0.0
  0
LINE
  5
152
100
AcDbEntity
100
AcDbLine
  8
0
 62
3
420
65280
370
-1
 48
1.0
  6
BYLAYER
 10
1.7690765441648177
 20
14.2658453991276311
 30
0.0
 11
1.4562766226045989
 21
14.2658452997297402
 31
0.0
  0
LINE
  5
153
100
AcDbEntity
100
AcDbLine
  8
0
 62
3
420
65280
370
-1
 48
1.0
  6
BYLAYER
 10
1.7690765441648177
 20
20.0673899231201425
 30
0.0
 11
1.4562766226045989
 21
20.0673898237222517
 31
0.0
  0
LINE
  5
154
100
AcDbEntity
100
AcDbLine
  8
0
 62
3
420
65280
370
-1
 48
1.0
  6
BYLAYER
 10
-1.9017644440962203
 20
20.067389923120146
 30
0.0
 11
-1.5889645225360014
 21
20.0673898237222552
 31
0.0
  0
LINE
  5
155
100
AcDbEntity
100
AcDbLine
  8
0
 62
3
420
65280
370
-1
 48
1.0
  6
BYLAYER
 10
5.975406837751752
 20
16.146249551263363
 30
0.0
 11
5.975406837751752
 21
15.8148678791918016
 31
0.0
  0
LINE
  5
156
100
AcDbEntity
100
AcDbLine
  8
0
 62
3
420
65280
370
-1
 48
1.0
  6
BYLAYER
 10
5.975406837751752
 20
14.9893214412026232
 30
0.0
 11
5.975406837751752
 21
15.3207031132741847
 31
0.0
  0
LINE
  5
157
100
AcDbEntity
100
AcDbLine
  8
0
 62
3
420
65280
370
-1
 48
1.0
  6
BYLAYER
 10
10.0245931622482036
 20
16.146249551263363
 30
0.0
 11
10.0245931622482036
 21
15.8148678791918016
 31
0.0
  0
LINE
  5
158
100
AcDbEntity
100
AcDbLine
  8
0
 62
3
420
65280
370
-1
 48
1.0
  6
BYLAYER
 10
10.0245931622482036
 20
14.9893214412026232
 30
0.0
 11
10.0245931622482036
 21
15.3207031132741847
 31
0.0
  0
LINE
  5
159
100
AcDbEntity
100
AcDbLine
  8
0
 62
3
420
65280
370
-1
 48
1.0
  6
BYLAYER
 10
-2.0909371122139491
 20
14.6863810643790789
 30
0.0
 11
-2.0909371122139491
 21
14.3549993923075174
 31
0.0
  0
LINE
  5
15A
100
AcDbEntity
100
AcDbLine
  8
0
 62
3
420
65280
370
-1
 48
1.0
  6
BYLAYER
 10
-2.0909371122139491
 20
13.5294529543183391
 30
0.0
 11
-2.0909371122139491
 21
13.8608346263899005
 31
0.0
  0
LINE
  5
15B
100
AcDbEntity
100
AcDbLine
  8
0
 62
3
420
65280
370
-1
 48
1.0
  6
BYLAYER
 10
1.9582492122825026
 20
14.6863810643790789
 30
0.0
 11
1.9582492122825026
 21
14.3549993923075174
 31
0.0
  0
LINE
  5
15C
100
AcDbEntity
100
AcDbLine
  8
0
 62
3
420
65280
370
-1
 48
1.0
  6
BYLAYER
 10
1.9582492122825026
 20
13.5294529543183391
 30
0.0
 11
1.9582492122825026
 21
13.8608346263899005
 31
0.0
  0
LINE
  5
15D
100
AcDbEntity
100
AcDbLine
  8
0
 62
3
420
65280
370
-1
 48
1.0
  6
BYLAYER
 10
6.0971871704143616
 20
14.989321441202522
 30
0.0
 11
6.0971871704145304
 21
15.3207031132742237
 31
0.0
  0
LINE
  5
15E
100
AcDbEntity
100
AcDbLine
  8
0
 62
3
420
65280
370
-1
 48
1.0
  6
BYLAYER
 10
6.0971871704143661
 20
16.1462495512634661
 30
0.0
 11
6.0971871704145348
 21
15.8148678791917625
 31
0.0
  0
LINE
  5
15F
100
AcDbEntity
100
AcDbLine
  8
0
 62
3
420
65280
370
-1
 48
1.0
  6
BYLAYER
 10
9.9028128295855939
 20
14.9893214412025202
 30
0.0
 11
9.9028128295854252
 21
15.3207031132742237
 31
0.0
  0
LINE
  5
160
100
AcDbEntity
100
AcDbLine
  8
0
 62
3
420
65280
370
-1
 48
1.0
  6
BYLAYER
 10
9.9028128295855886
 20
16.1462495512634661
 30
0.0
 11
9.9028128295854216
 21
15.8148678791917607
 31
0.0
  0
LINE
  5
161
100
AcDbEntity
100
AcDbLine
  8
0
 62
3
420
65280
370
-1
 48
1.0
  6
BYLAYER
 10
-1.9691567795513394
 20
13.5294529543182378
 30
0.0
 11
-1.9691567795511706
 21
13.8608346263899396
 31
0.0
  0
LINE
  5
162
100
AcDbEntity
100
AcDbLine
  8
0
 62
3
420
65280
370
-1
 48
1.0
  6
BYLAYER
 10
-1.9691567795513349
 20
14.6863810643791801
 30
0.0
 11
-1.9691567795511662
 21
14.3549993923074783
 31
0.0
  0
LINE
  5
163
100
AcDbEntity
100
AcDbLine
  8
0
 62
3
420
65280
370
-1
 48
1.0
  6
BYLAYER
 10
1.8364688796198925
 20
13.529452954318236
 30
0.0
 11
1.8364688796197242
 21
13.8608346263899396
 31
0.0
  0
LINE
  5
164
100
AcDbEntity
100
AcDbLine
  8
0
 62
3
420
65280
370
-1
 48
1.0
  6
BYLAYER
 10
1.836468879619888
 20
14.6863810643791801
 30
0.0
 11
1.8364688796197197
 21
14.3549993923074766
 31
0.0
  0
LINE
  5
165
100
AcDbEntity
100
AcDbLine
  8
0
 62
3
420
65280
370
-1
 48
1.0
  6
BYLAYER
 10
10.0731642959167687
 20
16.8342380674018202
 30
0.0
 11
9.854241695916798
 21
16.8342380674018912
 31
0.0
  0
LINE
  5
166
100
AcDbEntity
100
AcDbLine
  8
0
 62
3
420
65280
370
-1
 48
1.0
  6
BYLAYER
 10
5.9268357040831861
 20
16.8342380674018237
 30
0.0
 11
6.1457583040831576
 21
16.8342380674018912
 31
0.0
  0
LINE
  5
167
100
AcDbEntity
100
AcDbLine
  8
0
 62
3
420
65280
370
-1
 48
1.0
  6
BYLAYER
 10
5.9268357040831861
 20
14.9082313917044456
 30
0.0
 11
6.1457583040831576
 21
14.9082313917045131
 31
0.0
  0
LINE
  5
168
100
AcDbEntity
100
AcDbLine
  8
0
 62
3
420
65280
370
-1
 48
1.0
  6
BYLAYER
 10
10.0731642959167687
 20
14.9082313917044438
 30
0.0
 11
9.854241695916798
 21
14.9082313917045131
 31
0.0
  0
LINE
  5
169
100
AcDbEntity
100
AcDbLine
  8
0
 62
3
420
65280
370
-1
 48
1.0
  6
BYLAYER
 10
10.0731642959167687
 20
18.7799212814130456
 30
0.0
 11
9.854241695916798
 21
18.7799212814131131
 31
0.0
  0
LINE
  5
16A
100
AcDbEntity
100
AcDbLine
  8
0
 62
3
420
65280
370
-1
 48
1.0
  6
BYLAYER
 10
5.9268357040831861
 20
18.7799212814130492
 30
0.0
 11
6.1457583040831576
 21
18.7799212814131167
 31
0.0
  0
LINE
  5
16B
100
AcDbEntity
100
AcDbLine
  8
0
 62
3
420
65280
370
-1
 48
1.0
  6
BYLAYER
 10
10.0731642959167687
 20
20.6634658054055613
 30
0.0
 11
9.854241695916798
 21
20.6634658054056288
 31
0.0
  0
LINE
  5
16C
100
AcDbEntity
100
AcDbLine
  8
0
 62
3
420
65280
370
-1
 48
1.0
  6
BYLAYER
 10
5.9268357040831861
 20
20.6634658054055649
 30
0.0
 11
6.1457583040831576
 21
20.6634658054056324
 31
0.0
  0
LINE
  5
16D
100
AcDbEntity
100
AcDbLine
  8
0
 62
3
420
65280
370
-1
 48
1.0
  6
BYLAYER
 10
2.0068203459510681
 20
16.5199074288126724
 30
0.0
 11
1.7878977459510965
 21
16.5199074288127434
 31
0.0
  0
LINE
  5
16E
100
AcDbEntity
100
AcDbLine
  8
0
 62
3
420
65280
370
-1
 48
1.0
  6
BYLAYER
 10
-2.139508245882515
 20
16.5199074288126759
 30
0.0
 11
-1.920585645882543
 21
16.5199074288127434
 31
0.0
  0
LINE
  5
16F
100
AcDbEntity
100
AcDbLine
  8
0
 62
3
420
65280
370
-1
 48
1.0
  6
BYLAYER
 10
-2.139508245882515
 20
13.4483629048201614
 30
0.0
 11
-1.920585645882543
 21
13.4483629048202289
 31
0.0
  0
LINE
  5
170
100
AcDbEntity
100
AcDbLine
  8
0
 62
3
420
65280
370
-1
 48
1.0
  6
BYLAYER
 10
2.0068203459510681
 20
13.4483629048201596
 30
0.0
 11
1.7878977459510965
 21
13.4483629048202289
 31
0.0
  0
LINE
  5
171
100
AcDbEntity
100
AcDbLine
  8
0
 62
3
420
65280
370
-1
 48
1.0
  6
BYLAYER
 10
2.0068203459510681
 20
19.2499074288126728
 30
0.0
 11
1.7878977459510965
 21
19.2499074288127403
 31
0.0
  0
LINE
  5
172
100
AcDbEntity
100
AcDbLine
  8
0
 62
3
420
65280
370
-1
 48
1.0
  6
BYLAYER
 10
-2.139508245882515
 20
19.2499074288126764
 30
0.0
 11
-1.920585645882543
 21
19.2499074288127439
 31
0.0
  0
LINE
  5
173
100
AcDbEntity
100
AcDbLine
  8
0
 62
3
420
65280
370
-1
 48
1.0
  6
BYLAYER
 10
6.1645795058694848
 20
17.2467097889716037
 30
0.0
 11
6.1645795058694848
 21
17.3358637889716043
 31
0.0
  0
LINE
  5
174
100
AcDbEntity
100
AcDbLine
  8
0
 62
3
420
65280
370
-1
 48
1.0
  6
BYLAYER
 10
9.8354204941305134
 20
17.2467097889716001
 30
0.0
 11
9.8354204941305134
 21
17.3358637889716043
 31
0.0
  0
LINE
  5
175
100
AcDbEntity
100
AcDbLine
  8
0
 62
3
420
65280
370
-1
 48
1.0
  6
BYLAYER
 10
6.1645795058694848
 20
15.3207031132742237
 30
0.0
 11
6.1645795058694848
 21
15.4098571132742261
 31
0.0
  0
LINE
  5
176
100
AcDbEntity
100
AcDbLine
  8
0
 62
3
420
65280
370
-1
 48
1.0
  6
BYLAYER
 10
9.8354204941305134
 20
15.3207031132742237
 30
0.0
 11
9.8354204941305134
 21
15.4098571132742261
 31
0.0
  0
LINE
  5
177
100
AcDbEntity
100
AcDbLine
  8
0
 62
3
420
65280
370
-1
 48
1.0
  6
BYLAYER
 10
6.1645795058694848
 20
19.1923930029828291
 30
0.0
 11
6.1645795058694848
 21
19.2815470029828298
 31
0.0
  0
LINE
  5
178
100
AcDbEntity
100
AcDbLine
  8
0
 62
3
420
65280
370
-1
 48
1.0
  6
BYLAYER
 10
9.8354204941305134
 20
19.1923930029828256
 30
0.0
 11
9.8354204941305134
 21
19.2815470029828298
 31
0.0
  0
LINE
  5
179
100
AcDbEntity
100
AcDbLine
  8
0
 62
3
420
65280
370
-1
 48
1.0
  6
BYLAYER
 10
6.1645795058694848
 20
21.0759375269753448
 30
0.0
 11
6.1645795058694848
 21
21.1650915269753455
 31
0.0
  0
LINE
  5
17A
100
AcDbEntity
100
AcDbLine
  8
0
 62
3
420
65280
370
-1
 48
1.0
  6
BYLAYER
 10
9.8354204941305134
 20
21.0759375269753413
 30
0.0
 11
9.8354204941305134
 21
21.1650915269753455
 31
0.0
  0
LINE
  5
17B
100
AcDbEntity
100
AcDbLine
  8
0
 62
3
420
65280
370
-1
 48
1.0
  6
BYLAYER
 10
-1.9017644440962158
 20
16.9323791503824559
 30
0.0
 11
-1.9017644440962158
 21
17.0215331503824565
 31
0.0
  0
LINE
  5
17C
100
AcDbEntity
100
AcDbLine
  8
0
 62
3
420
65280
370
-1
 48
1.0
  6
BYLAYER
 10
1.7690765441648133
 20
16.9323791503824523
 30
0.0
 11
1.7690765441648133
 21
17.0215331503824565
 31
0.0
  0
LINE
  5
17D
100
AcDbEntity
100
AcDbLine
  8
0
 62
3
420
65280
370
-1
 48
1.0
  6
BYLAYER
 10
-1.9017644440962158
 20
13.8608346263899396
 30
0.0
 11
-1.9017644440962158
 21
13.949988626389942
 31
0.0
  0
LINE
  5
17E
100
AcDbEntity
100
AcDbLine
  8
0
 62
3
420
65280
370
-1
 48
1.0
  6
BYLAYER
 10
1.7690765441648133
 20
13.8608346263899396
 30
0.0
 11
1.7690765441648133
 21
13.949988626389942
 31
0.0
  0
LINE
  5
17F
100
AcDbEntity
100
AcDbLine
  8
0
 62
3
420
65280
370
-1
 48
1.0
  6
BYLAYER
 10
-1.9017644440962158
 20
19.6623791503824563
 30
0.0
 11
-1.9017644440962158
 21
19.7515331503824569
 31
0.0
  0
LINE
  5
180
100
AcDbEntity
100
AcDbLine
  8
0
 62
3
420
65280
370
-1
 48
1.0
  6
BYLAYER
 10
1.7690765441648133
 20
19.6623791503824528
 30
0.0
 11
1.7690765441648133
 21
19.7515331503824569
 31
0.0
  0
LINE
  5
181
100
AcDbEntity
100
AcDbLine
  8
0
 62
3
420
65280
370
-1
 48
1.0
  6
BYLAYER
 10
6.1645795058694812
 20
17.6517205617092934
 30
0.0
 11
6.1645795058694812
 21
17.740874561709294
 31
0.0
  0
LINE
  5
182
100
AcDbEntity
100
AcDbLine
  8
0
 62
3
420
65280
370
-1
 48
1.0
  6
BYLAYER
 10
9.8354204941305188
 20
17.6517205617092934
 30
0.0
 11
9.8354204941305188
 21
17.740874561709294
 31
0.0
  0
LINE
  5
183
100
AcDbEntity
100
AcDbLine
  8
0
 62
3
420
65280
370
-1
 48
1.0
  6
BYLAYER
 10
6.1645795058694812
 20
15.7257138860119152
 30
0.0
 11
6.1645795058694812
 21
15.8148678860119176
 31
0.0
  0
LINE
  5
184
100
AcDbEntity
100
AcDbLine
  8
0
 62
3
420
65280
370
-1
 48
1.0
  6
BYLAYER
 10
9.8354204941305188
 20
15.7257138860119152
 30
0.0
 11
9.8354204941305188
 21
15.8148678860119176
 31
0.0
  0
LINE
  5
185
100
AcDbEntity
100
AcDbLine
  8
0
 62
3
420
65280
370
-1
 48
1.0
  6
BYLAYER
 10
6.1645795058694812
 20
19.5974037757205188
 30
0.0
 11
6.1645795058694812
 21
19.6865577757205195
 31
0.0
  0
LINE
  5
186
100
AcDbEntity
100
AcDbLine
  8
0
 62
3
420
65280
370
-1
 48
1.0
  6
BYLAYER
 10
9.8354204941305188
 20
19.5974037757205153
 30
0.0
 11
9.8354204941305188
 21
19.6865577757205195
 31
0.0
  0
LINE
  5
187
100
AcDbEntity
100
AcDbLine
  8
0
 62
3
420
65280
370
-1
 48
1.0
  6
BYLAYER
 10
6.1645795058694812
 20
21.4809482997130345
 30
0.0
 11
6.1645795058694812
 21
21.5701022997130352
 31
0.0
  0
LINE
  5
188
100
AcDbEntity
100
AcDbLine
  8
0
 62
3
420
65280
370
-1
 48
1.0
  6
BYLAYER
 10
9.8354204941305188
 20
21.480948299713031
 30
0.0
 11
9.8354204941305188
 21
21.5701022997130352
 31
0.0
  0
LINE
  5
189
100
AcDbEntity
100
AcDbLine
  8
0
 62
3
420
65280
370
-1
 48
1.0
  6
BYLAYER
 10
-1.9017644440962203
 20
17.3373899231201456
 30
0.0
 11
-1.9017644440962203
 21
17.4265439231201462
 31
0.0
  0
LINE
  5
18A
100
AcDbEntity
100
AcDbLine
  8
0
 62
3
420
65280
370
-1
 48
1.0
  6
BYLAYER
 10
1.7690765441648177
 20
17.3373899231201456
 30
0.0
 11
1.7690765441648177
 21
17.4265439231201462
 31
0.0
  0
LINE
  5
18B
100
AcDbEntity
100
AcDbLine
  8
0
 62
3
420
65280
370
-1
 48
1.0
  6
BYLAYER
 10
-1.9017644440962203
 20
14.2658453991276311
 30
0.0
 11
-1.9017644440962203
 21
14.3549993991276335
 31
0.0
  0
LINE
  5
18C
100
AcDbEntity
100
AcDbLine
  8
0
 62
3
420
65280
370
-1
 48
1.0
  6
BYLAYER
 10
1.7690765441648177
 20
14.2658453991276311
 30
0.0
 11
1.7690765441648177
 21
14.3549993991276335
 31
0.0
  0
LINE
  5
18D
100
AcDbEntity
100
AcDbLine
  8
0
 62
3
420
65280
370
-1
 48
1.0
  6
BYLAYER
 10
-1.9017644440962203
 20
20.067389923120146
 30
0.0
 11
-1.9017644440962203
 21
20.1565439231201466
 31
0.0
  0
LINE
  5
18E
100
AcDbEntity
100
AcDbLine
  8
0
 62
3
420
65280
370
-1
 48
1.0
  6
BYLAYER
 10
1.7690765441648177
 20
20.0673899231201425
 30
0.0
 11
1.7690765441648177
 21
20.1565439231201466
 31
0.0
  0
LINE
  5
18F
100
AcDbEntity
100
AcDbLine
  8
0
 62
3
420
65280
370
-1
 48
1.0
  6
BYLAYER
 10
5.926835704083155
 20
14.9893214412025468
 30
0.0
 11
5.975406837751752
 21
14.9893214412026232
 31
0.0
  0
LINE
  5
190
100
AcDbEntity
100
AcDbLine
  8
0
 62
3
420
65280
370
-1
 48
1.0
  6
BYLAYER
 10
10.0731642959168006
 20
14.9893214412025468
 30
0.0
 11
10.0245931622482036
 21
14.9893214412026232
 31
0.0
  0
LINE
  5
191
100
AcDbEntity
100
AcDbLine
  8
0
 62
3
420
65280
370
-1
 48
1.0
  6
BYLAYER
 10
-2.1395082458825456
 20
13.5294529543182627
 30
0.0
 11
-2.0909371122139491
 21
13.5294529543183391
 31
0.0
  0
LINE
  5
192
100
AcDbEntity
100
AcDbLine
  8
0
 62
3
420
65280
370
-1
 48
1.0
  6
BYLAYER
 10
2.0068203459510991
 20
13.5294529543182627
 30
0.0
 11
1.9582492122825026
 21
13.5294529543183391
 31
0.0
  0
LINE
  5
193
100
AcDbEntity
100
AcDbLine
  8
0
 62
3
420
65280
370
-1
 48
1.0
  6
BYLAYER
 10
6.0971871704144416
 20
14.9893214412025717
 30
0.0
 11
6.1457583040831576
 21
14.989321441202609
 31
0.0
  0
LINE
  5
194
100
AcDbEntity
100
AcDbLine
  8
0
 62
3
420
65280
370
-1
 48
1.0
  6
BYLAYER
 10
9.902812829585514
 20
14.9893214412025717
 30
0.0
 11
9.854241695916798
 21
14.989321441202609
 31
0.0
  0
LINE
  5
195
100
AcDbEntity
100
AcDbLine
  8
0
 62
3
420
65280
370
-1
 48
1.0
  6
BYLAYER
 10
-1.9691567795512595
 20
13.5294529543182875
 30
0.0
 11
-1.920585645882543
 21
13.5294529543183248
 31
0.0
  0
LINE
  5
196
100
AcDbEntity
100
AcDbLine
  8
0
 62
3
420
65280
370
-1
 48
1.0
  6
BYLAYER
 10
1.8364688796198125
 20
13.5294529543182875
 30
0.0
 11
1.7878977459510965
 21
13.5294529543183248
 31
0.0
  0
LINE
  5
197
100
AcDbEntity
100
AcDbLine
  8
0
 62
3
420
65280
370
-1
 48
1.0
  6
BYLAYER
 10
5.975406837751752
 20
16.146249551263363
 30
0.0
 11
6.0971871704143661
 21
16.1462495512634661
 31
0.0
  0
LINE
  5
198
100
AcDbEntity
100
AcDbLine
  8
0
 62
3
420
65280
370
-1
 48
1.0
  6
BYLAYER
 10
10.0245931622482036
 20
16.146249551263363
 30
0.0
 11
9.9028128295855886
 21
16.1462495512634661
 31
0.0
  0
LINE
  5
199
100
AcDbEntity
100
AcDbLine
  8
0
 62
3
420
65280
370
-1
 48
1.0
  6
BYLAYER
 10
-2.0909371122139491
 20
14.6863810643790789
 30
0.0
 11
-1.9691567795513349
 21
14.6863810643791801
 31
0.0
  0
LINE
  5
19A
100
AcDbEntity
100
AcDbLine
  8
0
 62
3
420
65280
370
-1
 48
1.0
  6
BYLAYER
 10
1.9582492122825026
 20
14.6863810643790789
 30
0.0
 11
1.836468879619888
 21
14.6863810643791801
 31
0.0
  0
LINE
  5
19B
100
AcDbEntity
100
AcDbLine
  8
0
 62
3
420
65280
370
-1
 48
1.0
  6
BYLAYER
 10
6.1645795058694812
 20
15.8148678791917625
 30
0.0
 11
6.0971871704145695
 21
15.8148678791917625
 31
0.0
  0
LINE
  5
19C
100
AcDbEntity
100
AcDbLine
  8
0
 62
3
420
65280
370
-1
 48
1.0
  6
BYLAYER
 10
6.1645795058694848
 20
15.3207031132742237
 30
0.0
 11
6.0971871704145748
 21
15.3207031132742237
 31
0.0
  0
LINE
  5
19D
100
AcDbEntity
100
AcDbLine
  8
0
 62
3
420
65280
370
-1
 48
1.0
  6
BYLAYER
 10
9.8354204941305188
 20
15.8148678791917607
 30
0.0
 11
9.9028128295854287
 21
15.8148678791917607
 31
0.0
  0
LINE
  5
19E
100
AcDbEntity
100
AcDbLine
  8
0
 62
3
420
65280
370
-1
 48
1.0
  6
BYLAYER
 10
9.8354204941305134
 20
15.3207031132742237
 30
0.0
 11
9.9028128295854252
 21
15.3207031132742237
 31
0.0
  0
LINE
  5
19F
100
AcDbEntity
100
AcDbLine
  8
0
 62
3
420
65280
370
-1
 48
1.0
  6
BYLAYER
 10
-1.9017644440962203
 20
14.3549993923074783
 30
0.0
 11
-1.9691567795511311
 21
14.3549993923074783
 31
0.0
  0
LINE
  5
1A0
100
AcDbEntity
100
AcDbLine
  8
0
 62
3
420
65280
370
-1
 48
1.0
  6
BYLAYER
 10
-1.9017644440962158
 20
13.8608346263899396
 30
0.0
 11
-1.9691567795511267
 21
13.8608346263899396
 31
0.0
  0
LINE
  5
1A1
100
AcDbEntity
100
AcDbLine
  8
0
 62
3
420
65280
370
-1
 48
1.0
  6
BYLAYER
 10
1.7690765441648177
 20
14.3549993923074766
 30
0.0
 11
1.8364688796197286
 21
14.3549993923074766
 31
0.0
  0
LINE
  5
1A2
100
AcDbEntity
100
AcDbLine
  8
0
 62
3
420
65280
370
-1
 48
1.0
  6
BYLAYER
 10
1.7690765441648133
 20
13.8608346263899396
 30
0.0
 11
1.8364688796197242
 21
13.8608346263899396
 31
0.0
  0
LINE
  5
1A3
100
AcDbEntity
100
AcDbLine
  8
0
 62
3
420
65280
370
-1
 48
1.0
  6
BYLAYER
 10
5.9754068377517919
 20
15.8148678791918016
 30
0.0
 11
5.9080145022967123
 21
15.814867886011891
 31
0.0
  0
LINE
  5
1A4
100
AcDbEntity
100
AcDbLine
  8
0
 62
3
420
65280
370
-1
 48
1.0
  6
BYLAYER
 10
5.9754068377517919
 20
15.3207031132741847
 30
0.0
 11
5.9080145022967123
 21
15.3207031064540971
 31
0.0
  0
LINE
  5
1A5
100
AcDbEntity
100
AcDbLine
  8
0
 62
3
420
65280
370
-1
 48
1.0
  6
BYLAYER
 10
10.024593162248209
 20
15.8148678791918016
 30
0.0
 11
10.0919854977032877
 21
15.8148678860118892
 31
0.0
  0
LINE
  5
1A6
100
AcDbEntity
100
AcDbLine
  8
0
 62
3
420
65280
370
-1
 48
1.0
  6
BYLAYER
 10
10.024593162248209
 20
15.3207031132741847
 30
0.0
 11
10.0919854977032877
 21
15.3207031064540971
 31
0.0
  0
LINE
  5
1A7
100
AcDbEntity
100
AcDbLine
  8
0
 62
3
420
65280
370
-1
 48
1.0
  6
BYLAYER
 10
-2.0909371122139091
 20
14.3549993923075174
 30
0.0
 11
-2.1583294476689883
 21
14.3549993991276068
 31
0.0
  0
LINE
  5
1A8
100
AcDbEntity
100
AcDbLine
  8
0
 62
3
420
65280
370
-1
 48
1.0
  6
BYLAYER
 10
-2.0909371122139091
 20
13.8608346263899005
 30
0.0
 11
-2.1583294476689883
 21
13.8608346195698129
 31
0.0
  0
LINE
  5
1A9
100
AcDbEntity
100
AcDbLine
  8
0
 62
3
420
65280
370
-1
 48
1.0
  6
BYLAYER
 10
1.958249212282507
 20
14.3549993923075174
 30
0.0
 11
2.0256415477375862
 21
14.354999399127605
 31
0.0
  0
LINE
  5
1AA
100
AcDbEntity
100
AcDbLine
  8
0
 62
3
420
65280
370
-1
 48
1.0
  6
BYLAYER
 10
1.958249212282507
 20
13.8608346263899005
 30
0.0
 11
2.0256415477375862
 21
13.8608346195698129
 31
0.0
  0
LINE
  5
1AB
100
AcDbEntity
100
AcDbLine
  8
0
 62
3
420
65280
370
-1
 48
1.0
  6
BYLAYER
 10
8.975000000000005
 20
16.9282921591706277
 30
0.0
 11
8.975000000000005
 21
16.8892921591706298
 31
0.0
  0
LINE
  5
1AC
100
AcDbEntity
100
AcDbLine
  8
0
 62
3
420
65280
370
-1
 48
1.0
  6
BYLAYER
 10
8.975000000000005
 20
15.0022854834732513
 30
0.0
 11
8.975000000000005
 21
14.9632854834732498
 31
0.0
  0
LINE
  5
1AD
100
AcDbEntity
100
AcDbLine
  8
0
 62
3
420
65280
370
-1
 48
1.0
  6
BYLAYER
 10
8.975000000000005
 20
18.8739753731818531
 30
0.0
 11
8.975000000000005
 21
18.8349753731818517
 31
0.0
  0
LINE
  5
1AE
100
AcDbEntity
100
AcDbLine
  8
0
 62
3
420
65280
370
-1
 48
1.0
  6
BYLAYER
 10
8.975000000000005
 20
20.7575198971743689
 30
0.0
 11
8.975000000000005
 21
20.7185198971743674
 31
0.0
  0
LINE
  5
1AF
100
AcDbEntity
100
AcDbLine
  8
0
 62
3
420
65280
370
-1
 48
1.0
  6
BYLAYER
 10
0.9086560500343032
 20
16.6139615205814799
 30
0.0
 11
0.9086560500343032
 21
16.574961520581482
 31
0.0
  0
LINE
  5
1B0
100
AcDbEntity
100
AcDbLine
  8
0
 62
3
420
65280
370
-1
 48
1.0
  6
BYLAYER
 10
0.9086560500343032
 20
13.5424169965889671
 30
0.0
 11
0.9086560500343032
 21
13.5034169965889657
 31
0.0
  0
LINE
  5
1B1
100
AcDbEntity
100
AcDbLine
  8
0
 62
3
420
65280
370
-1
 48
1.0
  6
BYLAYER
 10
0.9086560500343032
 20
19.3439615205814803
 30
0.0
 11
0.9086560500343032
 21
19.3049615205814789
 31
0.0
  0
LINE
  5
1B2
100
AcDbEntity
100
AcDbLine
  8
0
 62
3
420
65280
370
-1
 48
1.0
  6
BYLAYER
 10
7.0250000000000092
 20
16.8892921591706298
 30
0.0
 11
7.0250000000000092
 21
16.9282921591706277
 31
0.0
  0
LINE
  5
1B3
100
AcDbEntity
100
AcDbLine
  8
0
 62
3
420
65280
370
-1
 48
1.0
  6
BYLAYER
 10
8.5850000000000044
 20
16.8892921591706298
 30
0.0
 11
8.5850000000000044
 21
16.9282921591706277
 31
0.0
  0
LINE
  5
1B4
100
AcDbEntity
100
AcDbLine
  8
0
 62
3
420
65280
370
-1
 48
1.0
  6
BYLAYER
 10
7.4150000000000045
 20
16.8892921591706298
 30
0.0
 11
7.4150000000000045
 21
16.9282921591706277
 31
0.0
  0
LINE
  5
1B5
100
AcDbEntity
100
AcDbLine
  8
0
 62
3
420
65280
370
-1
 48
1.0
  6
BYLAYER
 10
7.0250000000000092
 20
14.9632854834732498
 30
0.0
 11
7.0250000000000092
 21
15.0022854834732513
 31
0.0
  0
LINE
  5
1B6
100
AcDbEntity
100
AcDbLine
  8
0
 62
3
420
65280
370
-1
 48
1.0
  6
BYLAYER
 10
8.5850000000000044
 20
14.9632854834732498
 30
0.0
 11
8.5850000000000044
 21
15.0022854834732513
 31
0.0
  0
LINE
  5
1B7
100
AcDbEntity
100
AcDbLine
  8
0
 62
3
420
65280
370
-1
 48
1.0
  6
BYLAYER
 10
7.4150000000000045
 20
14.9632854834732498
 30
0.0
 11
7.4150000000000045
 21
15.0022854834732513
 31
0.0
  0
LINE
  5
1B8
100
AcDbEntity
100
AcDbLine
  8
0
 62
3
420
65280
370
-1
 48
1.0
  6
BYLAYER
 10
7.0250000000000092
 20
18.8349753731818517
 30
0.0
 11
7.0250000000000092
 21
18.8739753731818531
 31
0.0
  0
LINE
  5
1B9
100
AcDbEntity
100
AcDbLine
  8
0
 62
3
420
65280
370
-1
 48
1.0
  6
BYLAYER
 10
8.5850000000000044
 20
18.8349753731818517
 30
0.0
 11
8.5850000000000044
 21
18.8739753731818531
 31
0.0
  0
LINE
  5
1BA
100
AcDbEntity
100
AcDbLine
  8
0
 62
3
420
65280
370
-1
 48
1.0
  6
BYLAYER
 10
7.4150000000000045
 20
18.8349753731818517
 30
0.0
 11
7.4150000000000045
 21
18.8739753731818531
 31
0.0
  0
LINE
  5
1BB
100
AcDbEntity
100
AcDbLine
  8
0
 62
3
420
65280
370
-1
 48
1.0
  6
BYLAYER
 10
7.0250000000000092
 20
20.7185198971743674
 30
0.0
 11
7.0250000000000092
 21
20.7575198971743689
 31
0.0
  0
LINE
  5
1BC
100
AcDbEntity
100
AcDbLine
  8
0
 62
3
420
65280
370
-1
 48
1.0
  6
BYLAYER
 10
8.5850000000000044
 20
20.7185198971743674
 30
0.0
 11
8.5850000000000044
 21
20.7575198971743689
 31
0.0
  0
LINE
  5
1BD
100
AcDbEntity
100
AcDbLine
  8
0
 62
3
420
65280
370
-1
 48
1.0
  6
BYLAYER
 10
7.4150000000000045
 20
20.7185198971743674
 30
0.0
 11
7.4150000000000045
 21
20.7575198971743689
 31
0.0
  0
LINE
  5
1BE
100
AcDbEntity
100
AcDbLine
  8
0
 62
3
420
65280
370
-1
 48
1.0
  6
BYLAYER
 10
-1.0413439499656922
 20
16.574961520581482
 30
0.0
 11
-1.0413439499656922
 21
16.6139615205814799
 31
0.0
  0
LINE
  5
1BF
100
AcDbEntity
100
AcDbLine
  8
0
 62
3
420
65280
370
-1
 48
1.0
  6
BYLAYER
 10
0.5186560500343032
 20
16.574961520581482
 30
0.0
 11
0.5186560500343032
 21
16.6139615205814799
 31
0.0
  0
LINE
  5
1C0
100
AcDbEntity
100
AcDbLine
  8
0
 62
3
420
65280
370
-1
 48
1.0
  6
BYLAYER
 10
-0.6513439499656968
 20
16.574961520581482
 30
0.0
 11
-0.6513439499656968
 21
16.6139615205814799
 31
0.0
  0
LINE
  5
1C1
100
AcDbEntity
100
AcDbLine
  8
0
 62
3
420
65280
370
-1
 48
1.0
  6
BYLAYER
 10
-1.0413439499656922
 20
13.5034169965889657
 30
0.0
 11
-1.0413439499656922
 21
13.5424169965889671
 31
0.0
  0
LINE
  5
1C2
100
AcDbEntity
100
AcDbLine
  8
0
 62
3
420
65280
370
-1
 48
1.0
  6
BYLAYER
 10
0.5186560500343032
 20
13.5034169965889657
 30
0.0
 11
0.5186560500343032
 21
13.5424169965889671
 31
0.0
  0
LINE
  5
1C3
100
AcDbEntity
100
AcDbLine
  8
0
 62
3
420
65280
370
-1
 48
1.0
  6
BYLAYER
 10
-0.6513439499656968
 20
13.5034169965889657
 30
0.0
 11
-0.6513439499656968
 21
13.5424169965889671
 31
0.0
  0
LINE
  5
1C4
100
AcDbEntity
100
AcDbLine
  8
0
 62
3
420
65280
370
-1
 48
1.0
  6
BYLAYER
 10
-1.0413439499656922
 20
19.3049615205814789
 30
0.0
 11
-1.0413439499656922
 21
19.3439615205814803
 31
0.0
  0
LINE
  5
1C5
100
AcDbEntity
100
AcDbLine
  8
0
 62
3
420
65280
370
-1
 48
1.0
  6
BYLAYER
 10
0.5186560500343032
 20
19.3049615205814789
 30
0.0
 11
0.5186560500343032
 21
19.3439615205814803
 31
0.0
  0
LINE
  5
1C6
100
AcDbEntity
100
AcDbLine
  8
0
 62
3
420
65280
370
-1
 48
1.0
  6
BYLAYER
 10
-0.6513439499656968
 20
19.3049615205814789
 30
0.0
 11
-0.6513439499656968
 21
19.3439615205814803
 31
0.0
  0
LINE
  5
1C7
100
AcDbEntity
100
AcDbLine
  8
0
 62
3
420
65280
370
-1
 48
1.0
  6
BYLAYER
 10
7.0250000000000092
 20
16.8892921591706298
 30
0.0
 11
7.4150000000000089
 21
16.8892921591706298
 31
0.0
  0
LINE
  5
1C8
100
AcDbEntity
100
AcDbLine
  8
0
 62
3
420
65280
370
-1
 48
1.0
  6
BYLAYER
 10
8.5850000000000044
 20
16.8892921591706298
 30
0.0
 11
8.975000000000005
 21
16.8892921591706298
 31
0.0
  0
LINE
  5
1C9
100
AcDbEntity
100
AcDbLine
  8
0
 62
3
420
65280
370
-1
 48
1.0
  6
BYLAYER
 10
7.0250000000000092
 20
14.9632854834732498
 30
0.0
 11
7.4150000000000089
 21
14.9632854834732498
 31
0.0
  0
LINE
  5
1CA
100
AcDbEntity
100
AcDbLine
  8
0
 62
3
420
65280
370
-1
 48
1.0
  6
BYLAYER
 10
8.5850000000000044
 20
14.9632854834732498
 30
0.0
 11
8.975000000000005
 21
14.9632854834732498
 31
0.0
  0
LINE
  5
1CB
100
AcDbEntity
100
AcDbLine
  8
0
 62
3
420
65280
370
-1
 48
1.0
  6
BYLAYER
 10
7.0250000000000092
 20
18.8349753731818517
 30
0.0
 11
7.4150000000000089
 21
18.8349753731818517
 31
0.0
  0
LINE
  5
1CC
100
AcDbEntity
100
AcDbLine
  8
0
 62
3
420
65280
370
-1
 48
1.0
  6
BYLAYER
 10
8.5850000000000044
 20
18.8349753731818517
 30
0.0
 11
8.975000000000005
 21
18.8349753731818517
 31
0.0
  0
LINE
  5
1CD
100
AcDbEntity
100
AcDbLine
  8
0
 62
3
420
65280
370
-1
 48
1.0
  6
BYLAYER
 10
-1.0413439499656922
 20
16.574961520581482
 30
0.0
 11
-0.6513439499656923
 21
16.574961520581482
 31
0.0
  0
LINE
  5
1CE
100
AcDbEntity
100
AcDbLine
  8
0
 62
3
420
65280
370
-1
 48
1.0
  6
BYLAYER
 10
7.0250000000000092
 20
20.7185198971743674
 30
0.0
 11
7.4150000000000089
 21
20.7185198971743674
 31
0.0
  0
LINE
  5
1CF
100
AcDbEntity
100
AcDbLine
  8
0
 62
3
420
65280
370
-1
 48
1.0
  6
BYLAYER
 10
0.5186560500343032
 20
16.574961520581482
 30
0.0
 11
0.9086560500343032
 21
16.574961520581482
 31
0.0
  0
LINE
  5
1D0
100
AcDbEntity
100
AcDbLine
  8
0
 62
3
420
65280
370
-1
 48
1.0
  6
BYLAYER
 10
8.5850000000000044
 20
20.7185198971743674
 30
0.0
 11
8.975000000000005
 21
20.7185198971743674
 31
0.0
  0
LINE
  5
1D1
100
AcDbEntity
100
AcDbLine
  8
0
 62
3
420
65280
370
-1
 48
1.0
  6
BYLAYER
 10
-1.0413439499656922
 20
13.5034169965889657
 30
0.0
 11
-0.6513439499656923
 21
13.5034169965889657
 31
0.0
  0
LINE
  5
1D2
100
AcDbEntity
100
AcDbLine
  8
0
 62
3
420
65280
370
-1
 48
1.0
  6
BYLAYER
 10
0.5186560500343032
 20
13.5034169965889657
 30
0.0
 11
0.9086560500343032
 21
13.5034169965889657
 31
0.0
  0
LINE
  5
1D3
100
AcDbEntity
100
AcDbLine
  8
0
 62
3
420
65280
370
-1
 48
1.0
  6
BYLAYER
 10
-1.0413439499656922
 20
19.3049615205814789
 30
0.0
 11
-0.6513439499656923
 21
19.3049615205814789
 31
0.0
  0
LINE
  5
1D4
100
AcDbEntity
100
AcDbLine
  8
0
 62
3
420
65280
370
-1
 48
1.0
  6
BYLAYER
 10
0.5186560500343032
 20
19.3049615205814789
 30
0.0
 11
0.9086560500343032
 21
19.3049615205814789
 31
0.0
  0
LINE
  5
1D5
100
AcDbEntity
100
AcDbLine
  8
0
 62
3
420
65280
370
-1
 48
1.0
  6
BYLAYER
 10
-2.2506212294746972
 20
11.554389337491072
 30
0.0
 11
-2.2506212294746972
 21
10.7958189022199473
 31
0.0
  0
LINE
  5
1D6
100
AcDbEntity
100
AcDbLine
  8
0
 62
3
420
65280
370
-1
 48
1.0
  6
BYLAYER
 10
2.1179333295432952
 20
11.5543893374910702
 30
0.0
 11
2.1179333295432952
 21
10.7958189022199473
 31
0.0
  0
LINE
  5
1D7
100
AcDbEntity
100
AcDbLine
  8
0
 62
3
420
65280
370
-1
 48
1.0
  6
BYLAYER
 10
3.1982333295433016
 20
11.554389337491072
 30
0.0
 11
3.0812333295433061
 21
11.554389337491072
 31
0.0
  0
LINE
  5
1D8
100
AcDbEntity
100
AcDbLine
  8
0
 62
3
420
65280
370
-1
 48
1.0
  6
BYLAYER
 10
-3.2139212294747033
 20
11.5543893374910738
 30
0.0
 11
-3.3309212294746988
 21
11.5543893374910738
 31
0.0
  0
LINE
  5
1D9
100
AcDbEntity
100
AcDbLine
  8
0
 62
3
420
65280
370
-1
 48
1.0
  6
BYLAYER
 10
5.6987227204910127
 20
17.1808281011194062
 30
0.0
 11
5.8157227204910171
 21
17.1808281011194062
 31
0.0
  0
LINE
  5
1DA
100
AcDbEntity
100
AcDbLine
  8
0
 62
3
420
65280
370
-1
 48
1.0
  6
BYLAYER
 10
5.6987227204910038
 20
16.9049426879111842
 30
0.0
 11
5.8157227204910127
 21
16.9049426879111842
 31
0.0
  0
LINE
  5
1DB
100
AcDbEntity
100
AcDbLine
  8
0
 62
3
420
65280
370
-1
 48
1.0
  6
BYLAYER
 10
5.6987227204910038
 20
16.7157207393689973
 30
0.0
 11
5.8157227204910127
 21
16.7157207393689973
 31
0.0
  0
LINE
  5
1DC
100
AcDbEntity
100
AcDbLine
  8
0
 62
3
420
65280
370
-1
 48
1.0
  6
BYLAYER
 10
10.3012772795089873
 20
17.1808281011194062
 30
0.0
 11
10.1842772795089829
 21
17.1808281011194062
 31
0.0
  0
LINE
  5
1DD
100
AcDbEntity
100
AcDbLine
  8
0
 62
3
420
65280
370
-1
 48
1.0
  6
BYLAYER
 10
10.3012772795089962
 20
16.9049426879111842
 30
0.0
 11
10.1842772795089864
 21
16.9049426879111842
 31
0.0
  0
LINE
  5
1DE
100
AcDbEntity
100
AcDbLine
  8
0
 62
3
420
65280
370
-1
 48
1.0
  6
BYLAYER
 10
10.3012772795089962
 20
16.7157207393689973
 30
0.0
 11
10.1842772795089864
 21
16.7157207393689973
 31
0.0
  0
LINE
  5
1DF
100
AcDbEntity
100
AcDbLine
  8
0
 62
3
420
65280
370
-1
 48
1.0
  6
BYLAYER
 10
5.6987227204910127
 20
15.254821425422028
 30
0.0
 11
5.8157227204910171
 21
15.254821425422028
 31
0.0
  0
LINE
  5
1E0
100
AcDbEntity
100
AcDbLine
  8
0
 62
3
420
65280
370
-1
 48
1.0
  6
BYLAYER
 10
5.6987227204910038
 20
14.978936012213806
 30
0.0
 11
5.8157227204910127
 21
14.978936012213806
 31
0.0
  0
LINE
  5
1E1
100
AcDbEntity
100
AcDbLine
  8
0
 62
3
420
65280
370
-1
 48
1.0
  6
BYLAYER
 10
5.6987227204910038
 20
14.7897140636716209
 30
0.0
 11
5.8157227204910127
 21
14.7897140636716209
 31
0.0
  0
LINE
  5
1E2
100
AcDbEntity
100
AcDbLine
  8
0
 62
3
420
65280
370
-1
 48
1.0
  6
BYLAYER
 10
10.3012772795089873
 20
15.2548214254220262
 30
0.0
 11
10.1842772795089829
 21
15.2548214254220262
 31
0.0
  0
LINE
  5
1E3
100
AcDbEntity
100
AcDbLine
  8
0
 62
3
420
65280
370
-1
 48
1.0
  6
BYLAYER
 10
10.3012772795089962
 20
14.978936012213806
 30
0.0
 11
10.1842772795089864
 21
14.978936012213806
 31
0.0
  0
LINE
  5
1E4
100
AcDbEntity
100
AcDbLine
  8
0
 62
3
420
65280
370
-1
 48
1.0
  6
BYLAYER
 10
10.3012772795089962
 20
14.7897140636716209
 30
0.0
 11
10.1842772795089864
 21
14.7897140636716209
 31
0.0
  0
LINE
  5
1E5
100
AcDbEntity
100
AcDbLine
  8
0
 62
3
420
65280
370
-1
 48
1.0
  6
BYLAYER
 10
5.6987227204910127
 20
19.1265113151306316
 30
0.0
 11
5.8157227204910171
 21
19.1265113151306316
 31
0.0
  0
LINE
  5
1E6
100
AcDbEntity
100
AcDbLine
  8
0
 62
3
420
65280
370
-1
 48
1.0
  6
BYLAYER
 10
5.6987227204910038
 20
18.8506259019224096
 30
0.0
 11
5.8157227204910127
 21
18.8506259019224096
 31
0.0
  0
LINE
  5
1E7
100
AcDbEntity
100
AcDbLine
  8
0
 62
3
420
65280
370
-1
 48
1.0
  6
BYLAYER
 10
5.6987227204910038
 20
18.6614039533802263
 30
0.0
 11
5.8157227204910127
 21
18.6614039533802263
 31
0.0
  0
LINE
  5
1E8
100
AcDbEntity
100
AcDbLine
  8
0
 62
3
420
65280
370
-1
 48
1.0
  6
BYLAYER
 10
10.3012772795089873
 20
19.1265113151306281
 30
0.0
 11
10.1842772795089829
 21
19.1265113151306281
 31
0.0
  0
LINE
  5
1E9
100
AcDbEntity
100
AcDbLine
  8
0
 62
3
420
65280
370
-1
 48
1.0
  6
BYLAYER
 10
10.3012772795089962
 20
18.8506259019224096
 30
0.0
 11
10.1842772795089864
 21
18.8506259019224096
 31
0.0
  0
LINE
  5
1EA
100
AcDbEntity
100
AcDbLine
  8
0
 62
3
420
65280
370
-1
 48
1.0
  6
BYLAYER
 10
10.3012772795089962
 20
18.6614039533802227
 30
0.0
 11
10.1842772795089864
 21
18.6614039533802227
 31
0.0
  0
LINE
  5
1EB
100
AcDbEntity
100
AcDbLine
  8
0
 62
3
420
65280
370
-1
 48
1.0
  6
BYLAYER
 10
-2.3676212294746883
 20
16.8664974625302584
 30
0.0
 11
-2.2506212294746839
 21
16.8664974625302584
 31
0.0
  0
LINE
  5
1EC
100
AcDbEntity
100
AcDbLine
  8
0
 62
3
420
65280
370
-1
 48
1.0
  6
BYLAYER
 10
-2.3676212294746972
 20
16.5906120493220364
 30
0.0
 11
-2.2506212294746883
 21
16.5906120493220364
 31
0.0
  0
LINE
  5
1ED
100
AcDbEntity
100
AcDbLine
  8
0
 62
3
420
65280
370
-1
 48
1.0
  6
BYLAYER
 10
-2.3676212294746972
 20
16.4013901007798495
 30
0.0
 11
-2.2506212294746883
 21
16.4013901007798495
 31
0.0
  0
LINE
  5
1EE
100
AcDbEntity
100
AcDbLine
  8
0
 62
3
420
65280
370
-1
 48
1.0
  6
BYLAYER
 10
2.2349333295432863
 20
16.8664974625302584
 30
0.0
 11
2.1179333295432818
 21
16.8664974625302584
 31
0.0
  0
LINE
  5
1EF
100
AcDbEntity
100
AcDbLine
  8
0
 62
3
420
65280
370
-1
 48
1.0
  6
BYLAYER
 10
2.2349333295432952
 20
16.5906120493220364
 30
0.0
 11
2.1179333295432863
 21
16.5906120493220364
 31
0.0
  0
LINE
  5
1F0
100
AcDbEntity
100
AcDbLine
  8
0
 62
3
420
65280
370
-1
 48
1.0
  6
BYLAYER
 10
2.2349333295432952
 20
16.4013901007798495
 30
0.0
 11
2.1179333295432863
 21
16.4013901007798495
 31
0.0
  0
LINE
  5
1F1
100
AcDbEntity
100
AcDbLine
  8
0
 62
3
420
65280
370
-1
 48
1.0
  6
BYLAYER
 10
-2.3676212294746883
 20
13.7949529385377438
 30
0.0
 11
-2.2506212294746839
 21
13.7949529385377438
 31
0.0
  0
LINE
  5
1F2
100
AcDbEntity
100
AcDbLine
  8
0
 62
3
420
65280
370
-1
 48
1.0
  6
BYLAYER
 10
-2.3676212294746972
 20
13.5190675253295218
 30
0.0
 11
-2.2506212294746883
 21
13.5190675253295218
 31
0.0
  0
LINE
  5
1F3
100
AcDbEntity
100
AcDbLine
  8
0
 62
3
420
65280
370
-1
 48
1.0
  6
BYLAYER
 10
-2.3676212294746972
 20
13.3298455767873367
 30
0.0
 11
-2.2506212294746883
 21
13.3298455767873367
 31
0.0
  0
LINE
  5
1F4
100
AcDbEntity
100
AcDbLine
  8
0
 62
3
420
65280
370
-1
 48
1.0
  6
BYLAYER
 10
2.2349333295432863
 20
13.7949529385377421
 30
0.0
 11
2.1179333295432818
 21
13.7949529385377421
 31
0.0
  0
LINE
  5
1F5
100
AcDbEntity
100
AcDbLine
  8
0
 62
3
420
65280
370
-1
 48
1.0
  6
BYLAYER
 10
2.2349333295432952
 20
13.5190675253295218
 30
0.0
 11
2.1179333295432863
 21
13.5190675253295218
 31
0.0
  0
LINE
  5
1F6
100
AcDbEntity
100
AcDbLine
  8
0
 62
3
420
65280
370
-1
 48
1.0
  6
BYLAYER
 10
2.2349333295432952
 20
13.3298455767873367
 30
0.0
 11
2.1179333295432863
 21
13.3298455767873367
 31
0.0
  0
LINE
  5
1F7
100
AcDbEntity
100
AcDbLine
  8
0
 62
3
420
65280
370
-1
 48
1.0
  6
BYLAYER
 10
-2.3676212294746883
 20
19.5964974625302588
 30
0.0
 11
-2.2506212294746839
 21
19.5964974625302588
 31
0.0
  0
LINE
  5
1F8
100
AcDbEntity
100
AcDbLine
  8
0
 62
3
420
65280
370
-1
 48
1.0
  6
BYLAYER
 10
-2.3676212294746972
 20
19.3206120493220368
 30
0.0
 11
-2.2506212294746883
 21
19.3206120493220368
 31
0.0
  0
LINE
  5
1F9
100
AcDbEntity
100
AcDbLine
  8
0
 62
3
420
65280
370
-1
 48
1.0
  6
BYLAYER
 10
-2.3676212294746972
 20
19.1313901007798535
 30
0.0
 11
-2.2506212294746883
 21
19.1313901007798535
 31
0.0
  0
LINE
  5
1FA
100
AcDbEntity
100
AcDbLine
  8
0
 62
3
420
65280
370
-1
 48
1.0
  6
BYLAYER
 10
2.2349333295432863
 20
19.5964974625302553
 30
0.0
 11
2.1179333295432818
 21
19.5964974625302553
 31
0.0
  0
LINE
  5
1FB
100
AcDbEntity
100
AcDbLine
  8
0
 62
3
420
65280
370
-1
 48
1.0
  6
BYLAYER
 10
2.2349333295432952
 20
19.3206120493220368
 30
0.0
 11
2.1179333295432863
 21
19.3206120493220368
 31
0.0
  0
LINE
  5
1FC
100
AcDbEntity
100
AcDbLine
  8
0
 62
3
420
65280
370
-1
 48
1.0
  6
BYLAYER
 10
5.6987227204910127
 20
21.0100558391231473
 30
0.0
 11
5.8157227204910171
 21
21.0100558391231473
 31
0.0
  0
LINE
  5
1FD
100
AcDbEntity
100
AcDbLine
  8
0
 62
3
420
65280
370
-1
 48
1.0
  6
BYLAYER
 10
2.2349333295432952
 20
19.1313901007798499
 30
0.0
 11
2.1179333295432863
 21
19.1313901007798499
 31
0.0
  0
LINE
  5
1FE
100
AcDbEntity
100
AcDbLine
  8
0
 62
3
420
65280
370
-1
 48
1.0
  6
BYLAYER
 10
5.6987227204910038
 20
20.7341704259149253
 30
0.0
 11
5.8157227204910127
 21
20.7341704259149253
 31
0.0
  0
LINE
  5
1FF
100
AcDbEntity
100
AcDbLine
  8
0
 62
3
420
65280
370
-1
 48
1.0
  6
BYLAYER
 10
5.6987227204910038
 20
20.544948477372742
 30
0.0
 11
5.8157227204910127
 21
20.544948477372742
 31
0.0
  0
LINE
  5
200
100
AcDbEntity
100
AcDbLine
  8
0
 62
3
420
65280
370
-1
 48
1.0
  6
BYLAYER
 10
10.3012772795089873
 20
21.0100558391231438
 30
0.0
 11
10.1842772795089829
 21
21.0100558391231438
 31
0.0
  0
LINE
  5
201
100
AcDbEntity
100
AcDbLine
  8
0
 62
3
420
65280
370
-1
 48
1.0
  6
BYLAYER
 10
10.3012772795089962
 20
20.7341704259149253
 30
0.0
 11
10.1842772795089864
 21
20.7341704259149253
 31
0.0
  0
LINE
  5
202
100
AcDbEntity
100
AcDbLine
  8
0
 62
3
420
65280
370
-1
 48
1.0
  6
BYLAYER
 10
10.3012772795089962
 20
20.5449484773727384
 30
0.0
 11
10.1842772795089864
 21
20.5449484773727384
 31
0.0
  0
LINE
  5
203
100
AcDbEntity
100
AcDbLine
  8
0
 62
3
420
65280
370
-1
 48
1.0
  6
BYLAYER
 10
9.2285000000000093
 20
16.440792159170627
 30
0.0
 11
9.1114999999999995
 21
16.440792159170627
 31
0.0
  0
LINE
  5
204
100
AcDbEntity
100
AcDbLine
  8
0
 62
3
420
65280
370
-1
 48
1.0
  6
BYLAYER
 10
6.7714999999999907
 20
16.4407921591706305
 30
0.0
 11
6.8884999999999996
 21
16.4407921591706305
 31
0.0
  0
LINE
  5
205
100
AcDbEntity
100
AcDbLine
  8
0
 62
3
420
65280
370
-1
 48
1.0
  6
BYLAYER
 10
6.7714999999999907
 20
14.5147854834732506
 30
0.0
 11
6.8884999999999996
 21
14.5147854834732506
 31
0.0
  0
LINE
  5
206
100
AcDbEntity
100
AcDbLine
  8
0
 62
3
420
65280
370
-1
 48
1.0
  6
BYLAYER
 10
9.2285000000000093
 20
14.5147854834732506
 30
0.0
 11
9.1114999999999995
 21
14.5147854834732506
 31
0.0
  0
LINE
  5
207
100
AcDbEntity
100
AcDbLine
  8
0
 62
3
420
65280
370
-1
 48
1.0
  6
BYLAYER
 10
9.2285000000000093
 20
18.3864753731818524
 30
0.0
 11
9.1114999999999995
 21
18.3864753731818524
 31
0.0
  0
LINE
  5
208
100
AcDbEntity
100
AcDbLine
  8
0
 62
3
420
65280
370
-1
 48
1.0
  6
BYLAYER
 10
6.7714999999999907
 20
18.386475373181856
 30
0.0
 11
6.8884999999999996
 21
18.386475373181856
 31
0.0
  0
LINE
  5
209
100
AcDbEntity
100
AcDbLine
  8
0
 62
3
420
65280
370
-1
 48
1.0
  6
BYLAYER
 10
1.1621560500343078
 20
16.1264615205814792
 30
0.0
 11
1.0451560500342989
 21
16.1264615205814792
 31
0.0
  0
LINE
  5
20A
100
AcDbEntity
100
AcDbLine
  8
0
 62
3
420
65280
370
-1
 48
1.0
  6
BYLAYER
 10
-1.2948439499657103
 20
16.1264615205814827
 30
0.0
 11
-1.1778439499657014
 21
16.1264615205814827
 31
0.0
  0
LINE
  5
20B
100
AcDbEntity
100
AcDbLine
  8
0
 62
3
420
65280
370
-1
 48
1.0
  6
BYLAYER
 10
3.1982333295433061
 20
10.0490409880730258
 30
0.0
 11
3.0812333295432972
 21
10.0490409880730258
 31
0.0
  0
LINE
  5
20C
100
AcDbEntity
100
AcDbLine
  8
0
 62
3
420
65280
370
-1
 48
1.0
  6
BYLAYER
 10
-3.2139212294746988
 20
10.0490409880730276
 30
0.0
 11
-3.3309212294747077
 21
10.0490409880730276
 31
0.0
  0
LINE
  5
20D
100
AcDbEntity
100
AcDbLine
  8
0
 62
3
420
65280
370
-1
 48
1.0
  6
BYLAYER
 10
-1.2948439499657103
 20
13.0549169965889664
 30
0.0
 11
-1.1778439499657014
 21
13.0549169965889664
 31
0.0
  0
LINE
  5
20E
100
AcDbEntity
100
AcDbLine
  8
0
 62
3
420
65280
370
-1
 48
1.0
  6
BYLAYER
 10
1.1621560500343078
 20
13.0549169965889664
 30
0.0
 11
1.0451560500342989
 21
13.0549169965889664
 31
0.0
  0
LINE
  5
20F
100
AcDbEntity
100
AcDbLine
  8
0
 62
3
420
65280
370
-1
 48
1.0
  6
BYLAYER
 10
1.1621560500343078
 20
18.8564615205814796
 30
0.0
 11
1.0451560500342989
 21
18.8564615205814796
 31
0.0
  0
LINE
  5
210
100
AcDbEntity
100
AcDbLine
  8
0
 62
3
420
65280
370
-1
 48
1.0
  6
BYLAYER
 10
-1.2948439499657103
 20
18.8564615205814832
 30
0.0
 11
-1.1778439499657014
 21
18.8564615205814832
 31
0.0
  0
LINE
  5
211
100
AcDbEntity
100
AcDbLine
  8
0
 62
3
420
65280
370
-1
 48
1.0
  6
BYLAYER
 10
9.2285000000000093
 20
20.2700198971743681
 30
0.0
 11
9.1114999999999995
 21
20.2700198971743681
 31
0.0
  0
LINE
  5
212
100
AcDbEntity
100
AcDbLine
  8
0
 62
3
420
65280
370
-1
 48
1.0
  6
BYLAYER
 10
6.7714999999999907
 20
20.2700198971743717
 30
0.0
 11
6.8884999999999996
 21
20.2700198971743717
 31
0.0
  0
LINE
  5
213
100
AcDbEntity
100
AcDbLine
  8
0
 62
3
420
65280
370
-1
 48
1.0
  6
BYLAYER
 10
9.2516085943750159
 20
16.1851386900187109
 30
0.0
 11
9.3447471535040822
 21
16.1851386900187109
 31
0.0
  0
LINE
  5
214
100
AcDbEntity
100
AcDbLine
  8
0
 62
3
420
65280
370
-1
 48
1.0
  6
BYLAYER
 10
6.7483914056249841
 20
16.1851386900187144
 30
0.0
 11
6.6552528464959178
 21
16.1851386900187144
 31
0.0
  0
LINE
  5
215
100
AcDbEntity
100
AcDbLine
  8
0
 62
3
420
65280
370
-1
 48
1.0
  6
BYLAYER
 10
6.7483914056249841
 20
14.2591320143213363
 30
0.0
 11
6.6552528464959178
 21
14.2591320143213363
 31
0.0
  0
LINE
  5
216
100
AcDbEntity
100
AcDbLine
  8
0
 62
3
420
65280
370
-1
 48
1.0
  6
BYLAYER
 10
9.2516085943750159
 20
14.2591320143213345
 30
0.0
 11
9.3447471535040822
 21
14.2591320143213345
 31
0.0
  0
LINE
  5
217
100
AcDbEntity
100
AcDbLine
  8
0
 62
3
420
65280
370
-1
 48
1.0
  6
BYLAYER
 10
9.2516085943750159
 20
18.1308219040299399
 30
0.0
 11
9.3447471535040822
 21
18.1308219040299399
 31
0.0
  0
LINE
  5
218
100
AcDbEntity
100
AcDbLine
  8
0
 62
3
420
65280
370
-1
 48
1.0
  6
BYLAYER
 10
6.7483914056249841
 20
18.1308219040299399
 30
0.0
 11
6.6552528464959178
 21
18.1308219040299399
 31
0.0
  0
LINE
  5
219
100
AcDbEntity
100
AcDbLine
  8
0
 62
3
420
65280
370
-1
 48
1.0
  6
BYLAYER
 10
1.1852646444093149
 20
15.8708080514295649
 30
0.0
 11
1.2784032035383808
 21
15.8708080514295649
 31
0.0
  0
LINE
  5
21A
100
AcDbEntity
100
AcDbLine
  8
0
 62
3
420
65280
370
-1
 48
1.0
  6
BYLAYER
 10
-1.3179525443407174
 20
15.8708080514295666
 30
0.0
 11
-1.4110911034697833
 21
15.8708080514295666
 31
0.0
  0
LINE
  5
21B
100
AcDbEntity
100
AcDbLine
  8
0
 62
3
420
65280
370
-1
 48
1.0
  6
BYLAYER
 10
-1.3179525443407174
 20
12.7992635274370521
 30
0.0
 11
-1.4110911034697833
 21
12.7992635274370521
 31
0.0
  0
LINE
  5
21C
100
AcDbEntity
100
AcDbLine
  8
0
 62
3
420
65280
370
-1
 48
1.0
  6
BYLAYER
 10
1.1852646444093149
 20
12.7992635274370503
 30
0.0
 11
1.2784032035383808
 21
12.7992635274370503
 31
0.0
  0
LINE
  5
21D
100
AcDbEntity
100
AcDbLine
  8
0
 62
3
420
65280
370
-1
 48
1.0
  6
BYLAYER
 10
1.1852646444093149
 20
18.6008080514295671
 30
0.0
 11
1.2784032035383808
 21
18.6008080514295671
 31
0.0
  0
LINE
  5
21E
100
AcDbEntity
100
AcDbLine
  8
0
 62
3
420
65280
370
-1
 48
1.0
  6
BYLAYER
 10
-1.3179525443407174
 20
18.6008080514295671
 30
0.0
 11
-1.4110911034697833
 21
18.6008080514295671
 31
0.0
  0
LINE
  5
21F
100
AcDbEntity
100
AcDbLine
  8
0
 62
3
420
65280
370
-1
 48
1.0
  6
BYLAYER
 10
9.2516085943750159
 20
20.0143664280224556
 30
0.0
 11
9.3447471535040822
 21
20.0143664280224556
 31
0.0
  0
LINE
  5
220
100
AcDbEntity
100
AcDbLine
  8
0
 62
3
420
65280
370
-1
 48
1.0
  6
BYLAYER
 10
6.7483914056249841
 20
20.0143664280224556
 30
0.0
 11
6.6552528464959178
 21
20.0143664280224556
 31
0.0
  0
LINE
  5
221
100
AcDbEntity
100
AcDbLine
  8
0
 62
3
420
65280
370
-1
 48
1.0
  6
BYLAYER
 10
6.6552528464959178
 20
16.1851386900187144
 30
0.0
 11
5.8157227204910082
 21
16.7157207393689973
 31
0.0
  0
LINE
  5
222
100
AcDbEntity
100
AcDbLine
  8
0
 62
3
420
65280
370
-1
 48
1.0
  6
BYLAYER
 10
9.3447471535040822
 20
16.1851386900187109
 30
0.0
 11
10.1842772795089918
 21
16.7157207393689973
 31
0.0
  0
LINE
  5
223
100
AcDbEntity
100
AcDbLine
  8
0
 62
3
420
65280
370
-1
 48
1.0
  6
BYLAYER
 10
6.6552528464959178
 20
14.2591320143213363
 30
0.0
 11
5.8157227204910082
 21
14.7897140636716209
 31
0.0
  0
LINE
  5
224
100
AcDbEntity
100
AcDbLine
  8
0
 62
3
420
65280
370
-1
 48
1.0
  6
BYLAYER
 10
9.3447471535040822
 20
14.2591320143213345
 30
0.0
 11
10.1842772795089918
 21
14.7897140636716209
 31
0.0
  0
LINE
  5
225
100
AcDbEntity
100
AcDbLine
  8
0
 62
3
420
65280
370
-1
 48
1.0
  6
BYLAYER
 10
6.6552528464959178
 20
18.1308219040299399
 30
0.0
 11
5.8157227204910082
 21
18.6614039533802263
 31
0.0
  0
LINE
  5
226
100
AcDbEntity
100
AcDbLine
  8
0
 62
3
420
65280
370
-1
 48
1.0
  6
BYLAYER
 10
9.3447471535040822
 20
18.1308219040299399
 30
0.0
 11
10.1842772795089918
 21
18.6614039533802227
 31
0.0
  0
LINE
  5
227
100
AcDbEntity
100
AcDbLine
  8
0
 62
3
420
65280
370
-1
 48
1.0
  6
BYLAYER
 10
-1.4110911034697833
 20
15.8708080514295666
 30
0.0
 11
-2.2506212294746928
 21
16.4013901007798495
 31
0.0
  0
LINE
  5
228
100
AcDbEntity
100
AcDbLine
  8
0
 62
3
420
65280
370
-1
 48
1.0
  6
BYLAYER
 10
1.2784032035383808
 20
15.8708080514295649
 30
0.0
 11
2.1179333295432907
 21
16.4013901007798495
 31
0.0
  0
LINE
  5
229
100
AcDbEntity
100
AcDbLine
  8
0
 62
3
420
65280
370
-1
 48
1.0
  6
BYLAYER
 10
-1.4110911034697833
 20
12.7992635274370521
 30
0.0
 11
-2.2506212294746928
 21
13.3298455767873367
 31
0.0
  0
LINE
  5
22A
100
AcDbEntity
100
AcDbLine
  8
0
 62
3
420
65280
370
-1
 48
1.0
  6
BYLAYER
 10
1.2784032035383808
 20
12.7992635274370503
 30
0.0
 11
2.1179333295432907
 21
13.3298455767873367
 31
0.0
  0
LINE
  5
22B
100
AcDbEntity
100
AcDbLine
  8
0
 62
3
420
65280
370
-1
 48
1.0
  6
BYLAYER
 10
-1.4110911034697833
 20
18.6008080514295671
 30
0.0
 11
-2.2506212294746928
 21
19.1313901007798535
 31
0.0
  0
LINE
  5
22C
100
AcDbEntity
100
AcDbLine
  8
0
 62
3
420
65280
370
-1
 48
1.0
  6
BYLAYER
 10
1.2784032035383808
 20
18.6008080514295671
 30
0.0
 11
2.1179333295432907
 21
19.1313901007798499
 31
0.0
  0
LINE
  5
22D
100
AcDbEntity
100
AcDbLine
  8
0
 62
3
420
65280
370
-1
 48
1.0
  6
BYLAYER
 10
6.6552528464959178
 20
20.0143664280224556
 30
0.0
 11
5.8157227204910082
 21
20.544948477372742
 31
0.0
  0
LINE
  5
22E
100
AcDbEntity
100
AcDbLine
  8
0
 62
3
420
65280
370
-1
 48
1.0
  6
BYLAYER
 10
9.3447471535040822
 20
20.0143664280224556
 30
0.0
 11
10.1842772795089918
 21
20.5449484773727384
 31
0.0
  0
LINE
  5
22F
100
AcDbEntity
100
AcDbLine
  8
0
 62
3
420
65280
370
-1
 48
1.0
  6
BYLAYER
 10
9.1114999999999995
 20
16.440792159170627
 30
0.0
 11
9.1114999999999995
 21
16.1851386900187109
 31
0.0
  0
LINE
  5
230
100
AcDbEntity
100
AcDbLine
  8
0
 62
3
420
65280
370
-1
 48
1.0
  6
BYLAYER
 10
6.8884999999999996
 20
16.4407921591706305
 30
0.0
 11
6.8884999999999996
 21
16.1851386900187109
 31
0.0
  0
LINE
  5
231
100
AcDbEntity
100
AcDbLine
  8
0
 62
3
420
65280
370
-1
 48
1.0
  6
BYLAYER
 10
6.8884999999999996
 20
14.5147854834732506
 30
0.0
 11
6.8884999999999996
 21
14.2591320143213345
 31
0.0
  0
LINE
  5
232
100
AcDbEntity
100
AcDbLine
  8
0
 62
3
420
65280
370
-1
 48
1.0
  6
BYLAYER
 10
9.1114999999999995
 20
14.5147854834732506
 30
0.0
 11
9.1114999999999995
 21
14.2591320143213345
 31
0.0
  0
LINE
  5
233
100
AcDbEntity
100
AcDbLine
  8
0
 62
3
420
65280
370
-1
 48
1.0
  6
BYLAYER
 10
9.1114999999999995
 20
18.3864753731818524
 30
0.0
 11
9.1114999999999995
 21
18.1308219040299399
 31
0.0
  0
LINE
  5
234
100
AcDbEntity
100
AcDbLine
  8
0
 62
3
420
65280
370
-1
 48
1.0
  6
BYLAYER
 10
6.8884999999999996
 20
18.386475373181856
 30
0.0
 11
6.8884999999999996
 21
18.1308219040299399
 31
0.0
  0
LINE
  5
235
100
AcDbEntity
100
AcDbLine
  8
0
 62
3
420
65280
370
-1
 48
1.0
  6
BYLAYER
 10
1.0451560500342989
 20
16.1264615205814792
 30
0.0
 11
1.0451560500342989
 21
15.8708080514295649
 31
0.0
  0
LINE
  5
236
100
AcDbEntity
100
AcDbLine
  8
0
 62
3
420
65280
370
-1
 48
1.0
  6
BYLAYER
 10
-1.1778439499657014
 20
16.1264615205814827
 30
0.0
 11
-1.1778439499657014
 21
15.8708080514295649
 31
0.0
  0
LINE
  5
237
100
AcDbEntity
100
AcDbLine
  8
0
 62
3
420
65280
370
-1
 48
1.0
  6
BYLAYER
 10
-1.1778439499657014
 20
13.0549169965889664
 30
0.0
 11
-1.1778439499657014
 21
12.7992635274370503
 31
0.0
  0
LINE
  5
238
100
AcDbEntity
100
AcDbLine
  8
0
 62
3
420
65280
370
-1
 48
1.0
  6
BYLAYER
 10
1.0451560500342989
 20
13.0549169965889664
 30
0.0
 11
1.0451560500342989
 21
12.7992635274370503
 31
0.0
  0
LINE
  5
239
100
AcDbEntity
100
AcDbLine
  8
0
 62
3
420
65280
370
-1
 48
1.0
  6
BYLAYER
 10
1.0451560500342989
 20
18.8564615205814796
 30
0.0
 11
1.0451560500342989
 21
18.6008080514295671
 31
0.0
  0
LINE
  5
23A
100
AcDbEntity
100
AcDbLine
  8
0
 62
3
420
65280
370
-1
 48
1.0
  6
BYLAYER
 10
-1.1778439499657014
 20
18.8564615205814832
 30
0.0
 11
-1.1778439499657014
 21
18.6008080514295671
 31
0.0
  0
LINE
  5
23B
100
AcDbEntity
100
AcDbLine
  8
0
 62
3
420
65280
370
-1
 48
1.0
  6
BYLAYER
 10
9.1114999999999995
 20
20.2700198971743681
 30
0.0
 11
9.1114999999999995
 21
20.0143664280224556
 31
0.0
  0
LINE
  5
23C
100
AcDbEntity
100
AcDbLine
  8
0
 62
3
420
65280
370
-1
 48
1.0
  6
BYLAYER
 10
6.8884999999999996
 20
20.2700198971743717
 30
0.0
 11
6.8884999999999996
 21
20.0143664280224556
 31
0.0
  0
LINE
  5
23D
100
AcDbEntity
100
AcDbLine
  8
0
 62
3
420
65280
370
-1
 48
1.0
  6
BYLAYER
 10
9.2285000000000093
 20
16.440792159170627
 30
0.0
 11
9.2285000000000093
 21
16.1851386900187109
 31
0.0
  0
LINE
  5
23E
100
AcDbEntity
100
AcDbLine
  8
0
 62
3
420
65280
370
-1
 48
1.0
  6
BYLAYER
 10
6.7714999999999907
 20
16.4407921591706305
 30
0.0
 11
6.7714999999999907
 21
16.1851386900187144
 31
0.0
  0
LINE
  5
23F
100
AcDbEntity
100
AcDbLine
  8
0
 62
3
420
65280
370
-1
 48
1.0
  6
BYLAYER
 10
6.7714999999999907
 20
14.5147854834732506
 30
0.0
 11
6.7714999999999907
 21
14.2591320143213363
 31
0.0
  0
LINE
  5
240
100
AcDbEntity
100
AcDbLine
  8
0
 62
3
420
65280
370
-1
 48
1.0
  6
BYLAYER
 10
9.2285000000000093
 20
14.5147854834732506
 30
0.0
 11
9.2285000000000093
 21
14.2591320143213345
 31
0.0
  0
LINE
  5
241
100
AcDbEntity
100
AcDbLine
  8
0
 62
3
420
65280
370
-1
 48
1.0
  6
BYLAYER
 10
9.2285000000000093
 20
18.3864753731818524
 30
0.0
 11
9.2285000000000093
 21
18.1308219040299399
 31
0.0
  0
LINE
  5
242
100
AcDbEntity
100
AcDbLine
  8
0
 62
3
420
65280
370
-1
 48
1.0
  6
BYLAYER
 10
6.7714999999999907
 20
18.386475373181856
 30
0.0
 11
6.7714999999999907
 21
18.1308219040299399
 31
0.0
  0
LINE
  5
243
100
AcDbEntity
100
AcDbLine
  8
0
 62
3
420
65280
370
-1
 48
1.0
  6
BYLAYER
 10
1.1621560500343078
 20
16.1264615205814792
 30
0.0
 11
1.1621560500343078
 21
15.8708080514295649
 31
0.0
  0
LINE
  5
244
100
AcDbEntity
100
AcDbLine
  8
0
 62
3
420
65280
370
-1
 48
1.0
  6
BYLAYER
 10
-1.2948439499657103
 20
16.1264615205814827
 30
0.0
 11
-1.2948439499657103
 21
15.8708080514295666
 31
0.0
  0
LINE
  5
245
100
AcDbEntity
100
AcDbLine
  8
0
 62
3
420
65280
370
-1
 48
1.0
  6
BYLAYER
 10
-1.2948439499657103
 20
13.0549169965889664
 30
0.0
 11
-1.2948439499657103
 21
12.7992635274370521
 31
0.0
  0
LINE
  5
246
100
AcDbEntity
100
AcDbLine
  8
0
 62
3
420
65280
370
-1
 48
1.0
  6
BYLAYER
 10
1.1621560500343078
 20
13.0549169965889664
 30
0.0
 11
1.1621560500343078
 21
12.7992635274370503
 31
0.0
  0
LINE
  5
247
100
AcDbEntity
100
AcDbLine
  8
0
 62
3
420
65280
370
-1
 48
1.0
  6
BYLAYER
 10
1.1621560500343078
 20
18.8564615205814796
 30
0.0
 11
1.1621560500343078
 21
18.6008080514295671
 31
0.0
  0
LINE
  5
248
100
AcDbEntity
100
AcDbLine
  8
0
 62
3
420
65280
370
-1
 48
1.0
  6
BYLAYER
 10
-1.2948439499657103
 20
18.8564615205814832
 30
0.0
 11
-1.2948439499657103
 21
18.6008080514295671
 31
0.0
  0
LINE
  5
249
100
AcDbEntity
100
AcDbLine
  8
0
 62
3
420
65280
370
-1
 48
1.0
  6
BYLAYER
 10
9.2285000000000093
 20
20.2700198971743681
 30
0.0
 11
9.2285000000000093
 21
20.0143664280224556
 31
0.0
  0
LINE
  5
24A
100
AcDbEntity
100
AcDbLine
  8
0
 62
3
420
65280
370
-1
 48
1.0
  6
BYLAYER
 10
6.7714999999999907
 20
20.2700198971743717
 30
0.0
 11
6.7714999999999907
 21
20.0143664280224556
 31
0.0
  0
LINE
  5
24B
100
AcDbEntity
100
AcDbLine
  8
0
 62
3
420
65280
370
-1
 48
1.0
  6
BYLAYER
 10
9.2285000000000039
 20
16.1851386900187109
 30
0.0
 11
9.3447471535040822
 21
16.1851386900187109
 31
0.0
  0
LINE
  5
24C
100
AcDbEntity
100
AcDbLine
  8
0
 62
3
420
65280
370
-1
 48
1.0
  6
BYLAYER
 10
6.7714999999999952
 20
16.1851386900187144
 30
0.0
 11
6.6552528464959178
 21
16.1851386900187144
 31
0.0
  0
LINE
  5
24D
100
AcDbEntity
100
AcDbLine
  8
0
 62
3
420
65280
370
-1
 48
1.0
  6
BYLAYER
 10
6.7714999999999952
 20
14.2591320143213363
 30
0.0
 11
6.6552528464959178
 21
14.2591320143213363
 31
0.0
  0
LINE
  5
24E
100
AcDbEntity
100
AcDbLine
  8
0
 62
3
420
65280
370
-1
 48
1.0
  6
BYLAYER
 10
9.2285000000000039
 20
14.2591320143213345
 30
0.0
 11
9.3447471535040822
 21
14.2591320143213345
 31
0.0
  0
LINE
  5
24F
100
AcDbEntity
100
AcDbLine
  8
0
 62
3
420
65280
370
-1
 48
1.0
  6
BYLAYER
 10
9.2285000000000039
 20
18.1308219040299399
 30
0.0
 11
9.3447471535040822
 21
18.1308219040299399
 31
0.0
  0
LINE
  5
250
100
AcDbEntity
100
AcDbLine
  8
0
 62
3
420
65280
370
-1
 48
1.0
  6
BYLAYER
 10
6.7714999999999952
 20
18.1308219040299399
 30
0.0
 11
6.6552528464959178
 21
18.1308219040299399
 31
0.0
  0
LINE
  5
251
100
AcDbEntity
100
AcDbLine
  8
0
 62
3
420
65280
370
-1
 48
1.0
  6
BYLAYER
 10
1.1621560500343033
 20
15.8708080514295649
 30
0.0
 11
1.2784032035383808
 21
15.8708080514295649
 31
0.0
  0
LINE
  5
252
100
AcDbEntity
100
AcDbLine
  8
0
 62
3
420
65280
370
-1
 48
1.0
  6
BYLAYER
 10
-1.2948439499657058
 20
15.8708080514295666
 30
0.0
 11
-1.4110911034697833
 21
15.8708080514295666
 31
0.0
  0
LINE
  5
253
100
AcDbEntity
100
AcDbLine
  8
0
 62
3
420
65280
370
-1
 48
1.0
  6
BYLAYER
 10
-1.2948439499657058
 20
12.7992635274370521
 30
0.0
 11
-1.4110911034697833
 21
12.7992635274370521
 31
0.0
  0
LINE
  5
254
100
AcDbEntity
100
AcDbLine
  8
0
 62
3
420
65280
370
-1
 48
1.0
  6
BYLAYER
 10
1.1621560500343033
 20
12.7992635274370503
 30
0.0
 11
1.2784032035383808
 21
12.7992635274370503
 31
0.0
  0
LINE
  5
255
100
AcDbEntity
100
AcDbLine
  8
0
 62
3
420
65280
370
-1
 48
1.0
  6
BYLAYER
 10
1.1621560500343033
 20
18.6008080514295671
 30
0.0
 11
1.2784032035383808
 21
18.6008080514295671
 31
0.0
  0
LINE
  5
256
100
AcDbEntity
100
AcDbLine
  8
0
 62
3
420
65280
370
-1
 48
1.0
  6
BYLAYER
 10
-1.2948439499657058
 20
18.6008080514295671
 30
0.0
 11
-1.4110911034697833
 21
18.6008080514295671
 31
0.0
  0
LINE
  5
257
100
AcDbEntity
100
AcDbLine
  8
0
 62
3
420
65280
370
-1
 48
1.0
  6
BYLAYER
 10
9.2285000000000039
 20
20.0143664280224556
 30
0.0
 11
9.3447471535040822
 21
20.0143664280224556
 31
0.0
  0
LINE
  5
258
100
AcDbEntity
100
AcDbLine
  8
0
 62
3
420
65280
370
-1
 48
1.0
  6
BYLAYER
 10
6.7714999999999952
 20
20.0143664280224556
 30
0.0
 11
6.6552528464959178
 21
20.0143664280224556
 31
0.0
  0
LINE
  5
259
100
AcDbEntity
100
AcDbLine
  8
0
 62
3
420
65280
370
-1
 48
1.0
  6
BYLAYER
 10
5.8159999999999998
 20
18.2533167859887726
 30
0.0
 11
5.8157227204910127
 21
17.6517206020581057
 31
0.0
  0
LINE
  5
25A
100
AcDbEntity
100
AcDbLine
  8
0
 62
3
420
65280
370
-1
 48
1.0
  6
BYLAYER
 10
10.1839999999999993
 20
18.2533167859887726
 30
0.0
 11
10.1842772795089864
 21
17.6517206020581057
 31
0.0
  0
LINE
  5
25B
100
AcDbEntity
100
AcDbLine
  8
0
 62
3
420
65280
370
-1
 48
1.0
  6
BYLAYER
 10
5.8159999999999998
 20
16.3273101102913927
 30
0.0
 11
5.8157227204910127
 21
15.7257139263607275
 31
0.0
  0
LINE
  5
25C
100
AcDbEntity
100
AcDbLine
  8
0
 62
3
420
65280
370
-1
 48
1.0
  6
BYLAYER
 10
10.1839999999999993
 20
16.3273101102913927
 30
0.0
 11
10.1842772795089864
 21
15.7257139263607257
 31
0.0
  0
LINE
  5
25D
100
AcDbEntity
100
AcDbLine
  8
0
 62
3
420
65280
370
-1
 48
1.0
  6
BYLAYER
 10
5.8159999999999998
 20
20.1989999999999981
 30
0.0
 11
5.8157227204910127
 21
19.5974038160693276
 31
0.0
  0
LINE
  5
25E
100
AcDbEntity
100
AcDbLine
  8
0
 62
3
420
65280
370
-1
 48
1.0
  6
BYLAYER
 10
10.1839999999999993
 20
20.1989999999999981
 30
0.0
 11
10.1842772795089864
 21
19.5974038160693276
 31
0.0
  0
LINE
  5
25F
100
AcDbEntity
100
AcDbLine
  8
0
 62
3
420
65280
370
-1
 48
1.0
  6
BYLAYER
 10
-2.2503439499657012
 20
17.9389861473996248
 30
0.0
 11
-2.2506212294746883
 21
17.3373899634689579
 31
0.0
  0
LINE
  5
260
100
AcDbEntity
100
AcDbLine
  8
0
 62
3
420
65280
370
-1
 48
1.0
  6
BYLAYER
 10
2.1176560500342987
 20
17.9389861473996248
 30
0.0
 11
2.1179333295432863
 21
17.3373899634689579
 31
0.0
  0
LINE
  5
261
100
AcDbEntity
100
AcDbLine
  8
0
 62
3
420
65280
370
-1
 48
1.0
  6
BYLAYER
 10
-2.2503439499657012
 20
14.8674416234071103
 30
0.0
 11
-2.2506212294746883
 21
14.2658454394764433
 31
0.0
  0
LINE
  5
262
100
AcDbEntity
100
AcDbLine
  8
0
 62
3
420
65280
370
-1
 48
1.0
  6
BYLAYER
 10
2.1176560500342987
 20
14.8674416234071103
 30
0.0
 11
2.1179333295432863
 21
14.2658454394764416
 31
0.0
  0
LINE
  5
263
100
AcDbEntity
100
AcDbLine
  8
0
 62
3
420
65280
370
-1
 48
1.0
  6
BYLAYER
 10
-2.2503439499657012
 20
20.6689861473996253
 30
0.0
 11
-2.2506212294746883
 21
20.0673899634689548
 31
0.0
  0
LINE
  5
264
100
AcDbEntity
100
AcDbLine
  8
0
 62
3
420
65280
370
-1
 48
1.0
  6
BYLAYER
 10
2.1176560500342987
 20
20.6689861473996253
 30
0.0
 11
2.1179333295432863
 21
20.0673899634689548
 31
0.0
  0
LINE
  5
265
100
AcDbEntity
100
AcDbLine
  8
0
 62
3
420
65280
370
-1
 48
1.0
  6
BYLAYER
 10
5.8159999999999998
 20
22.0825445239925138
 30
0.0
 11
5.8157227204910127
 21
21.4809483400618433
 31
0.0
  0
LINE
  5
266
100
AcDbEntity
100
AcDbLine
  8
0
 62
3
420
65280
370
-1
 48
1.0
  6
BYLAYER
 10
10.1839999999999993
 20
22.0825445239925138
 30
0.0
 11
10.1842772795089864
 21
21.4809483400618433
 31
0.0
  0
LINE
  5
267
100
AcDbEntity
100
AcDbLine
  8
0
 62
3
420
65280
370
-1
 48
1.0
  6
BYLAYER
 10
5.8157227204910127
 20
17.6517206020581057
 30
0.0
 11
5.9080145022967123
 21
17.651720561709336
 31
0.0
  0
LINE
  5
268
100
AcDbEntity
100
AcDbLine
  8
0
 62
3
420
65280
370
-1
 48
1.0
  6
BYLAYER
 10
10.1842772795089864
 20
17.6517206020581057
 30
0.0
 11
10.0919854977032877
 21
17.651720561709336
 31
0.0
  0
LINE
  5
269
100
AcDbEntity
100
AcDbLine
  8
0
 62
3
420
65280
370
-1
 48
1.0
  6
BYLAYER
 10
5.8157227204910127
 20
15.7257139263607275
 30
0.0
 11
5.9080145022967123
 21
15.7257138860119579
 31
0.0
  0
LINE
  5
26A
100
AcDbEntity
100
AcDbLine
  8
0
 62
3
420
65280
370
-1
 48
1.0
  6
BYLAYER
 10
10.1842772795089864
 20
15.7257139263607257
 30
0.0
 11
10.0919854977032877
 21
15.7257138860119561
 31
0.0
  0
LINE
  5
26B
100
AcDbEntity
100
AcDbLine
  8
0
 62
3
420
65280
370
-1
 48
1.0
  6
BYLAYER
 10
5.8157227204910127
 20
19.5974038160693276
 30
0.0
 11
5.9080145022967123
 21
19.5974037757205615
 31
0.0
  0
LINE
  5
26C
100
AcDbEntity
100
AcDbLine
  8
0
 62
3
420
65280
370
-1
 48
1.0
  6
BYLAYER
 10
10.1842772795089864
 20
19.5974038160693276
 30
0.0
 11
10.0919854977032877
 21
19.5974037757205615
 31
0.0
  0
LINE
  5
26D
100
AcDbEntity
100
AcDbLine
  8
0
 62
3
420
65280
370
-1
 48
1.0
  6
BYLAYER
 10
-2.2506212294746883
 20
17.3373899634689579
 30
0.0
 11
-2.1583294476689883
 21
17.3373899231201882
 31
0.0
  0
LINE
  5
26E
100
AcDbEntity
100
AcDbLine
  8
0
 62
3
420
65280
370
-1
 48
1.0
  6
BYLAYER
 10
2.1179333295432863
 20
17.3373899634689579
 30
0.0
 11
2.0256415477375862
 21
17.3373899231201882
 31
0.0
  0
LINE
  5
26F
100
AcDbEntity
100
AcDbLine
  8
0
 62
3
420
65280
370
-1
 48
1.0
  6
BYLAYER
 10
-2.2506212294746883
 20
14.2658454394764433
 30
0.0
 11
-2.1583294476689883
 21
14.2658453991276737
 31
0.0
  0
LINE
  5
270
100
AcDbEntity
100
AcDbLine
  8
0
 62
3
420
65280
370
-1
 48
1.0
  6
BYLAYER
 10
2.1179333295432863
 20
14.2658454394764416
 30
0.0
 11
2.0256415477375862
 21
14.2658453991276719
 31
0.0
  0
LINE
  5
271
100
AcDbEntity
100
AcDbLine
  8
0
 62
3
420
65280
370
-1
 48
1.0
  6
BYLAYER
 10
-2.2506212294746883
 20
20.0673899634689548
 30
0.0
 11
-2.1583294476689883
 21
20.0673899231201887
 31
0.0
  0
LINE
  5
272
100
AcDbEntity
100
AcDbLine
  8
0
 62
3
420
65280
370
-1
 48
1.0
  6
BYLAYER
 10
2.1179333295432863
 20
20.0673899634689548
 30
0.0
 11
2.0256415477375862
 21
20.0673899231201887
 31
0.0
  0
LINE
  5
273
100
AcDbEntity
100
AcDbLine
  8
0
 62
3
420
65280
370
-1
 48
1.0
  6
BYLAYER
 10
5.8157227204910127
 20
21.4809483400618433
 30
0.0
 11
5.9080145022967123
 21
21.4809482997130772
 31
0.0
  0
LINE
  5
274
100
AcDbEntity
100
AcDbLine
  8
0
 62
3
420
65280
370
-1
 48
1.0
  6
BYLAYER
 10
10.1842772795089864
 20
21.4809483400618433
 30
0.0
 11
10.0919854977032877
 21
21.4809482997130772
 31
0.0
  0
LINE
  5
275
100
AcDbEntity
100
AcDbLine
  8
0
 62
3
420
65280
370
-1
 48
1.0
  6
BYLAYER
 10
5.6987227204910127
 20
17.1808281011194062
 30
0.0
 11
5.6987227204910127
 21
17.3358638225006132
 31
0.0
  0
LINE
  5
276
100
AcDbEntity
100
AcDbLine
  8
0
 62
3
420
65280
370
-1
 48
1.0
  6
BYLAYER
 10
10.3012772795089873
 20
17.1808281011194062
 30
0.0
 11
10.3012772795089873
 21
17.3358638225006096
 31
0.0
  0
LINE
  5
277
100
AcDbEntity
100
AcDbLine
  8
0
 62
3
420
65280
370
-1
 48
1.0
  6
BYLAYER
 10
5.6987227204910127
 20
15.254821425422028
 30
0.0
 11
5.6987227204910127
 21
15.4098571468032333
 31
0.0
  0
LINE
  5
278
100
AcDbEntity
100
AcDbLine
  8
0
 62
3
420
65280
370
-1
 48
1.0
  6
BYLAYER
 10
10.3012772795089873
 20
15.2548214254220262
 30
0.0
 11
10.3012772795089873
 21
15.4098571468032333
 31
0.0
  0
LINE
  5
279
100
AcDbEntity
100
AcDbLine
  8
0
 62
3
420
65280
370
-1
 48
1.0
  6
BYLAYER
 10
5.6987227204910127
 20
19.1265113151306316
 30
0.0
 11
5.6987227204910127
 21
19.2815470365118351
 31
0.0
  0
LINE
  5
27A
100
AcDbEntity
100
AcDbLine
  8
0
 62
3
420
65280
370
-1
 48
1.0
  6
BYLAYER
 10
10.3012772795089873
 20
19.1265113151306281
 30
0.0
 11
10.3012772795089873
 21
19.2815470365118351
 31
0.0
  0
LINE
  5
27B
100
AcDbEntity
100
AcDbLine
  8
0
 62
3
420
65280
370
-1
 48
1.0
  6
BYLAYER
 10
-2.3676212294746883
 20
16.8664974625302584
 30
0.0
 11
-2.3676212294746883
 21
17.0215331839114654
 31
0.0
  0
LINE
  5
27C
100
AcDbEntity
100
AcDbLine
  8
0
 62
3
420
65280
370
-1
 48
1.0
  6
BYLAYER
 10
2.2349333295432863
 20
16.8664974625302584
 30
0.0
 11
2.2349333295432863
 21
17.0215331839114619
 31
0.0
  0
LINE
  5
27D
100
AcDbEntity
100
AcDbLine
  8
0
 62
3
420
65280
370
-1
 48
1.0
  6
BYLAYER
 10
-2.3676212294746883
 20
13.7949529385377438
 30
0.0
 11
-2.3676212294746883
 21
13.9499886599189491
 31
0.0
  0
LINE
  5
27E
100
AcDbEntity
100
AcDbLine
  8
0
 62
3
420
65280
370
-1
 48
1.0
  6
BYLAYER
 10
2.2349333295432863
 20
13.7949529385377421
 30
0.0
 11
2.2349333295432863
 21
13.9499886599189491
 31
0.0
  0
LINE
  5
27F
100
AcDbEntity
100
AcDbLine
  8
0
 62
3
420
65280
370
-1
 48
1.0
  6
BYLAYER
 10
-2.3676212294746883
 20
19.5964974625302588
 30
0.0
 11
-2.3676212294746883
 21
19.7515331839114623
 31
0.0
  0
LINE
  5
280
100
AcDbEntity
100
AcDbLine
  8
0
 62
3
420
65280
370
-1
 48
1.0
  6
BYLAYER
 10
2.2349333295432863
 20
19.5964974625302553
 30
0.0
 11
2.2349333295432863
 21
19.7515331839114623
 31
0.0
  0
LINE
  5
281
100
AcDbEntity
100
AcDbLine
  8
0
 62
3
420
65280
370
-1
 48
1.0
  6
BYLAYER
 10
5.6987227204910127
 20
21.0100558391231473
 30
0.0
 11
5.6987227204910127
 21
21.1650915605043508
 31
0.0
  0
LINE
  5
282
100
AcDbEntity
100
AcDbLine
  8
0
 62
3
420
65280
370
-1
 48
1.0
  6
BYLAYER
 10
10.3012772795089873
 20
21.0100558391231438
 30
0.0
 11
10.3012772795089873
 21
21.1650915605043508
 31
0.0
  0
LINE
  5
283
100
AcDbEntity
100
AcDbLine
  8
0
 62
3
420
65280
370
-1
 48
1.0
  6
BYLAYER
 10
5.90801450229689
 20
17.3358637821518435
 30
0.0
 11
5.6987227204910127
 21
17.3358638225006132
 31
0.0
  0
LINE
  5
284
100
AcDbEntity
100
AcDbLine
  8
0
 62
3
420
65280
370
-1
 48
1.0
  6
BYLAYER
 10
10.09198549770311
 20
17.33586378215184
 30
0.0
 11
10.3012772795089873
 21
17.3358638225006096
 31
0.0
  0
LINE
  5
285
100
AcDbEntity
100
AcDbLine
  8
0
 62
3
420
65280
370
-1
 48
1.0
  6
BYLAYER
 10
5.90801450229689
 20
15.4098571064544636
 30
0.0
 11
5.6987227204910127
 21
15.4098571468032333
 31
0.0
  0
LINE
  5
286
100
AcDbEntity
100
AcDbLine
  8
0
 62
3
420
65280
370
-1
 48
1.0
  6
BYLAYER
 10
10.09198549770311
 20
15.4098571064544636
 30
0.0
 11
10.3012772795089873
 21
15.4098571468032333
 31
0.0
  0
LINE
  5
287
100
AcDbEntity
100
AcDbLine
  8
0
 62
3
420
65280
370
-1
 48
1.0
  6
BYLAYER
 10
5.90801450229689
 20
19.281546996163069
 30
0.0
 11
5.6987227204910127
 21
19.2815470365118351
 31
0.0
  0
LINE
  5
288
100
AcDbEntity
100
AcDbLine
  8
0
 62
3
420
65280
370
-1
 48
1.0
  6
BYLAYER
 10
10.09198549770311
 20
19.2815469961630654
 30
0.0
 11
10.3012772795089873
 21
19.2815470365118351
 31
0.0
  0
LINE
  5
289
100
AcDbEntity
100
AcDbLine
  8
0
 62
3
420
65280
370
-1
 48
1.0
  6
BYLAYER
 10
-2.1583294476688111
 20
17.0215331435626958
 30
0.0
 11
-2.3676212294746883
 21
17.0215331839114654
 31
0.0
  0
LINE
  5
28A
100
AcDbEntity
100
AcDbLine
  8
0
 62
3
420
65280
370
-1
 48
1.0
  6
BYLAYER
 10
2.0256415477374086
 20
17.0215331435626922
 30
0.0
 11
2.2349333295432863
 21
17.0215331839114619
 31
0.0
  0
LINE
  5
28B
100
AcDbEntity
100
AcDbLine
  8
0
 62
3
420
65280
370
-1
 48
1.0
  6
BYLAYER
 10
-2.1583294476688111
 20
13.9499886195701794
 30
0.0
 11
-2.3676212294746883
 21
13.9499886599189491
 31
0.0
  0
LINE
  5
28C
100
AcDbEntity
100
AcDbLine
  8
0
 62
3
420
65280
370
-1
 48
1.0
  6
BYLAYER
 10
2.0256415477374086
 20
13.9499886195701794
 30
0.0
 11
2.2349333295432863
 21
13.9499886599189491
 31
0.0
  0
LINE
  5
28D
100
AcDbEntity
100
AcDbLine
  8
0
 62
3
420
65280
370
-1
 48
1.0
  6
BYLAYER
 10
-2.1583294476688111
 20
19.7515331435626962
 30
0.0
 11
-2.3676212294746883
 21
19.7515331839114623
 31
0.0
  0
LINE
  5
28E
100
AcDbEntity
100
AcDbLine
  8
0
 62
3
420
65280
370
-1
 48
1.0
  6
BYLAYER
 10
2.0256415477374086
 20
19.7515331435626926
 30
0.0
 11
2.2349333295432863
 21
19.7515331839114623
 31
0.0
  0
LINE
  5
28F
100
AcDbEntity
100
AcDbLine
  8
0
 62
3
420
65280
370
-1
 48
1.0
  6
BYLAYER
 10
5.90801450229689
 20
21.1650915201555847
 30
0.0
 11
5.6987227204910127
 21
21.1650915605043508
 31
0.0
  0
LINE
  5
290
100
AcDbEntity
100
AcDbLine
  8
0
 62
3
420
65280
370
-1
 48
1.0
  6
BYLAYER
 10
10.09198549770311
 20
21.1650915201555812
 30
0.0
 11
10.3012772795089873
 21
21.1650915605043508
 31
0.0
  0
LINE
  5
291
100
AcDbEntity
100
AcDbLine
  8
0
 62
3
420
65280
370
-1
 48
1.0
  6
BYLAYER
 10
9.5226205725703004
 20
18.0722562269608176
 30
0.0
 11
9.8542416959168069
 21
18.2533167859887726
 31
0.0
  0
LINE
  5
292
100
AcDbEntity
100
AcDbLine
  8
0
 62
3
420
65280
370
-1
 48
1.0
  6
BYLAYER
 10
6.4773794274296996
 20
18.0722562269608176
 30
0.0
 11
6.1457583040831931
 21
18.2533167859887726
 31
0.0
  0
LINE
  5
293
100
AcDbEntity
100
AcDbLine
  8
0
 62
3
420
65280
370
-1
 48
1.0
  6
BYLAYER
 10
6.4773794274296996
 20
16.1462495512634376
 30
0.0
 11
6.1457583040831931
 21
16.3273101102913927
 31
0.0
  0
LINE
  5
294
100
AcDbEntity
100
AcDbLine
  8
0
 62
3
420
65280
370
-1
 48
1.0
  6
BYLAYER
 10
9.5226205725703004
 20
16.1462495512634376
 30
0.0
 11
9.8542416959168069
 21
16.3273101102913927
 31
0.0
  0
LINE
  5
295
100
AcDbEntity
100
AcDbLine
  8
0
 62
3
420
65280
370
-1
 48
1.0
  6
BYLAYER
 10
9.5226205725703004
 20
20.017939440972043
 30
0.0
 11
9.8542416959168069
 21
20.1989999999999981
 31
0.0
  0
LINE
  5
296
100
AcDbEntity
100
AcDbLine
  8
0
 62
3
420
65280
370
-1
 48
1.0
  6
BYLAYER
 10
6.4773794274296996
 20
20.017939440972043
 30
0.0
 11
6.1457583040831931
 21
20.1989999999999981
 31
0.0
  0
LINE
  5
297
100
AcDbEntity
100
AcDbLine
  8
0
 62
3
420
65280
370
-1
 48
1.0
  6
BYLAYER
 10
-1.5889645225360103
 20
11.2163545802313909
 30
0.0
 11
-2.0163439499657145
 21
11.7864416234071108
 31
0.0
  0
LINE
  5
298
100
AcDbEntity
100
AcDbLine
  8
0
 62
3
420
65280
370
-1
 48
1.0
  6
BYLAYER
 10
1.4562766226045945
 20
11.2163545802313891
 30
0.0
 11
1.8836560500342987
 21
11.7864416234071108
 31
0.0
  0
LINE
  5
299
100
AcDbEntity
100
AcDbLine
  8
0
 62
3
420
65280
370
-1
 48
1.0
  6
BYLAYER
 10
1.4562766226045989
 20
17.7579255883716698
 30
0.0
 11
1.7878977459511054
 21
17.9389861473996248
 31
0.0
  0
LINE
  5
29A
100
AcDbEntity
100
AcDbLine
  8
0
 62
3
420
65280
370
-1
 48
1.0
  6
BYLAYER
 10
-1.5889645225360014
 20
17.7579255883716698
 30
0.0
 11
-1.9205856458825075
 21
17.9389861473996248
 31
0.0
  0
LINE
  5
29B
100
AcDbEntity
100
AcDbLine
  8
0
 62
3
420
65280
370
-1
 48
1.0
  6
BYLAYER
 10
-1.5889645225360014
 20
14.6863810643791552
 30
0.0
 11
-1.9205856458825075
 21
14.8674416234071103
 31
0.0
  0
LINE
  5
29C
100
AcDbEntity
100
AcDbLine
  8
0
 62
3
420
65280
370
-1
 48
1.0
  6
BYLAYER
 10
1.4562766226045989
 20
14.6863810643791552
 30
0.0
 11
1.7878977459511054
 21
14.8674416234071103
 31
0.0
  0
LINE
  5
29D
100
AcDbEntity
100
AcDbLine
  8
0
 62
3
420
65280
370
-1
 48
1.0
  6
BYLAYER
 10
1.4562766226045989
 20
20.4879255883716702
 30
0.0
 11
1.7878977459511054
 21
20.6689861473996253
 31
0.0
  0
LINE
  5
29E
100
AcDbEntity
100
AcDbLine
  8
0
 62
3
420
65280
370
-1
 48
1.0
  6
BYLAYER
 10
-1.5889645225360014
 20
20.4879255883716702
 30
0.0
 11
-1.9205856458825075
 21
20.6689861473996253
 31
0.0
  0
LINE
  5
29F
100
AcDbEntity
100
AcDbLine
  8
0
 62
3
420
65280
370
-1
 48
1.0
  6
BYLAYER
 10
9.5226205725703004
 20
21.9014839649645587
 30
0.0
 11
9.8542416959168069
 21
22.0825445239925138
 31
0.0
  0
LINE
  5
2A0
100
AcDbEntity
100
AcDbLine
  8
0
 62
3
420
65280
370
-1
 48
1.0
  6
BYLAYER
 10
6.4773794274296996
 20
21.9014839649645587
 30
0.0
 11
6.1457583040831931
 21
22.0825445239925138
 31
0.0
  0
LINE
  5
2A1
100
AcDbEntity
100
AcDbLine
  8
0
 62
3
420
65280
370
-1
 48
1.0
  6
BYLAYER
 10
9.8542416959168069
 20
18.2533167859887726
 30
0.0
 11
10.1839999999999993
 21
18.2533167859887726
 31
0.0
  0
LINE
  5
2A2
100
AcDbEntity
100
AcDbLine
  8
0
 62
3
420
65280
370
-1
 48
1.0
  6
BYLAYER
 10
6.1457583040831931
 20
18.2533167859887726
 30
0.0
 11
5.8159999999999998
 21
18.2533167859887726
 31
0.0
  0
LINE
  5
2A3
100
AcDbEntity
100
AcDbLine
  8
0
 62
3
420
65280
370
-1
 48
1.0
  6
BYLAYER
 10
6.1457583040831931
 20
16.3273101102913927
 30
0.0
 11
5.8159999999999998
 21
16.3273101102913927
 31
0.0
  0
LINE
  5
2A4
100
AcDbEntity
100
AcDbLine
  8
0
 62
3
420
65280
370
-1
 48
1.0
  6
BYLAYER
 10
9.8542416959168069
 20
16.3273101102913927
 30
0.0
 11
10.1839999999999993
 21
16.3273101102913927
 31
0.0
  0
LINE
  5
2A5
100
AcDbEntity
100
AcDbLine
  8
0
 62
3
420
65280
370
-1
 48
1.0
  6
BYLAYER
 10
9.8542416959168069
 20
20.1989999999999981
 30
0.0
 11
10.1839999999999993
 21
20.1989999999999981
 31
0.0
  0
LINE
  5
2A6
100
AcDbEntity
100
AcDbLine
  8
0
 62
3
420
65280
370
-1
 48
1.0
  6
BYLAYER
 10
6.1457583040831931
 20
20.1989999999999981
 30
0.0
 11
5.8159999999999998
 21
20.1989999999999981
 31
0.0
  0
LINE
  5
2A7
100
AcDbEntity
100
AcDbLine
  8
0
 62
3
420
65280
370
-1
 48
1.0
  6
BYLAYER
 10
1.7878977459511054
 20
17.9389861473996248
 30
0.0
 11
2.1176560500342987
 21
17.9389861473996248
 31
0.0
  0
LINE
  5
2A8
100
AcDbEntity
100
AcDbLine
  8
0
 62
3
420
65280
370
-1
 48
1.0
  6
BYLAYER
 10
-1.9205856458825075
 20
17.9389861473996248
 30
0.0
 11
-2.2503439499657012
 21
17.9389861473996248
 31
0.0
  0
LINE
  5
2A9
100
AcDbEntity
100
AcDbLine
  8
0
 62
3
420
65280
370
-1
 48
1.0
  6
BYLAYER
 10
-1.9205856458825075
 20
14.8674416234071103
 30
0.0
 11
-2.2503439499657012
 21
14.8674416234071103
 31
0.0
  0
LINE
  5
2AA
100
AcDbEntity
100
AcDbLine
  8
0
 62
3
420
65280
370
-1
 48
1.0
  6
BYLAYER
 10
1.7878977459511054
 20
14.8674416234071103
 30
0.0
 11
2.1176560500342987
 21
14.8674416234071103
 31
0.0
  0
LINE
  5
2AB
100
AcDbEntity
100
AcDbLine
  8
0
 62
3
420
65280
370
-1
 48
1.0
  6
BYLAYER
 10
1.7878977459511054
 20
20.6689861473996253
 30
0.0
 11
2.1176560500342987
 21
20.6689861473996253
 31
0.0
  0
LINE
  5
2AC
100
AcDbEntity
100
AcDbLine
  8
0
 62
3
420
65280
370
-1
 48
1.0
  6
BYLAYER
 10
-1.9205856458825075
 20
20.6689861473996253
 30
0.0
 11
-2.2503439499657012
 21
20.6689861473996253
 31
0.0
  0
LINE
  5
2AD
100
AcDbEntity
100
AcDbLine
  8
0
 62
3
420
65280
370
-1
 48
1.0
  6
BYLAYER
 10
9.8542416959168069
 20
22.0825445239925138
 30
0.0
 11
10.1839999999999993
 21
22.0825445239925138
 31
0.0
  0
LINE
  5
2AE
100
AcDbEntity
100
AcDbLine
  8
0
 62
3
420
65280
370
-1
 48
1.0
  6
BYLAYER
 10
6.1457583040831931
 20
22.0825445239925138
 30
0.0
 11
5.8159999999999998
 21
22.0825445239925138
 31
0.0
  0
LINE
  5
2AF
100
AcDbEntity
100
AcDbLine
  8
0
 62
3
420
65280
370
-1
 48
1.0
  6
BYLAYER
 10
9.522620572570295
 20
18.072256226960814
 30
0.0
 11
8.7800000000000047
 21
18.0722562269608176
 31
0.0
  0
LINE
  5
2B0
100
AcDbEntity
100
AcDbLine
  8
0
 62
3
420
65280
370
-1
 48
1.0
  6
BYLAYER
 10
9.522620572570295
 20
16.1462495512634376
 30
0.0
 11
8.7800000000000047
 21
16.1462495512634376
 31
0.0
  0
LINE
  5
2B1
100
AcDbEntity
100
AcDbLine
  8
0
 62
3
420
65280
370
-1
 48
1.0
  6
BYLAYER
 10
9.522620572570295
 20
20.0179394409720395
 30
0.0
 11
8.7800000000000047
 21
20.017939440972043
 31
0.0
  0
LINE
  5
2B2
100
AcDbEntity
100
AcDbLine
  8
0
 62
3
420
65280
370
-1
 48
1.0
  6
BYLAYER
 10
1.45627662260459
 20
11.2163545802313873
 30
0.0
 11
0.7136560500342988
 21
11.2163545802313891
 31
0.0
  0
LINE
  5
2B3
100
AcDbEntity
100
AcDbLine
  8
0
 62
3
420
65280
370
-1
 48
1.0
  6
BYLAYER
 10
1.4562766226045945
 20
17.7579255883716662
 30
0.0
 11
0.7136560500343032
 21
17.7579255883716698
 31
0.0
  0
LINE
  5
2B4
100
AcDbEntity
100
AcDbLine
  8
0
 62
3
420
65280
370
-1
 48
1.0
  6
BYLAYER
 10
1.4562766226045945
 20
14.6863810643791535
 30
0.0
 11
0.7136560500343032
 21
14.6863810643791552
 31
0.0
  0
LINE
  5
2B5
100
AcDbEntity
100
AcDbLine
  8
0
 62
3
420
65280
370
-1
 48
1.0
  6
BYLAYER
 10
1.4562766226045945
 20
20.4879255883716667
 30
0.0
 11
0.7136560500343032
 21
20.4879255883716702
 31
0.0
  0
LINE
  5
2B6
100
AcDbEntity
100
AcDbLine
  8
0
 62
3
420
65280
370
-1
 48
1.0
  6
BYLAYER
 10
9.522620572570295
 20
21.9014839649645552
 30
0.0
 11
8.7800000000000047
 21
21.9014839649645587
 31
0.0
  0
LINE
  5
2B7
100
AcDbEntity
100
AcDbLine
  8
0
 62
3
420
65280
370
-1
 48
1.0
  6
BYLAYER
 10
6.4773794274296996
 20
18.0722562269608176
 30
0.0
 11
7.2200000000000086
 21
18.0722562269608176
 31
0.0
  0
LINE
  5
2B8
100
AcDbEntity
100
AcDbLine
  8
0
 62
3
420
65280
370
-1
 48
1.0
  6
BYLAYER
 10
6.4773794274296996
 20
16.1462495512634376
 30
0.0
 11
7.2200000000000086
 21
16.1462495512634376
 31
0.0
  0
LINE
  5
2B9
100
AcDbEntity
100
AcDbLine
  8
0
 62
3
420
65280
370
-1
 48
1.0
  6
BYLAYER
 10
6.4773794274296996
 20
20.017939440972043
 30
0.0
 11
7.2200000000000086
 21
20.017939440972043
 31
0.0
  0
LINE
  5
2BA
100
AcDbEntity
100
AcDbLine
  8
0
 62
3
420
65280
370
-1
 48
1.0
  6
BYLAYER
 10
-1.5889645225360058
 20
11.2163545802313891
 30
0.0
 11
-0.8463439499656968
 21
11.2163545802313891
 31
0.0
  0
LINE
  5
2BB
100
AcDbEntity
100
AcDbLine
  8
0
 62
3
420
65280
370
-1
 48
1.0
  6
BYLAYER
 10
-1.5889645225360014
 20
17.7579255883716698
 30
0.0
 11
-0.8463439499656924
 21
17.7579255883716698
 31
0.0
  0
LINE
  5
2BC
100
AcDbEntity
100
AcDbLine
  8
0
 62
3
420
65280
370
-1
 48
1.0
  6
BYLAYER
 10
-1.5889645225360014
 20
14.6863810643791552
 30
0.0
 11
-0.8463439499656924
 21
14.6863810643791552
 31
0.0
  0
LINE
  5
2BD
100
AcDbEntity
100
AcDbLine
  8
0
 62
3
420
65280
370
-1
 48
1.0
  6
BYLAYER
 10
-1.5889645225360014
 20
20.4879255883716702
 30
0.0
 11
-0.8463439499656924
 21
20.4879255883716702
 31
0.0
  0
LINE
  5
2BE
100
AcDbEntity
100
AcDbLine
  8
0
 62
3
420
65280
370
-1
 48
1.0
  6
BYLAYER
 10
6.4773794274296996
 20
21.9014839649645587
 30
0.0
 11
7.2200000000000086
 21
21.9014839649645587
 31
0.0
  0
LINE
  5
2BF
100
AcDbEntity
100
AcDbLine
  8
0
 62
3
420
65280
370
-1
 48
1.0
  6
BYLAYER
 10
7.5765704487906724
 20
16.1851386900187109
 30
0.0
 11
7.5765704487906724
 21
16.1851386900187109
 31
0.0
  0
LINE
  5
2C0
100
AcDbEntity
100
AcDbLine
  8
0
 62
3
420
65280
370
-1
 48
1.0
  6
BYLAYER
 10
7.5765704487906724
 20
14.2591320143213345
 30
0.0
 11
7.5765704487906724
 21
14.2591320143213345
 31
0.0
  0
LINE
  5
2C1
100
AcDbEntity
100
AcDbLine
  8
0
 62
3
420
65280
370
-1
 48
1.0
  6
BYLAYER
 10
7.5765704487906724
 20
18.1308219040299399
 30
0.0
 11
7.5765704487906724
 21
18.1308219040299399
 31
0.0
  0
LINE
  5
2C2
100
AcDbEntity
100
AcDbLine
  8
0
 62
3
420
65280
370
-1
 48
1.0
  6
BYLAYER
 10
-0.4897735011750285
 20
15.8708080514295649
 30
0.0
 11
-0.4897735011750285
 21
15.8708080514295649
 31
0.0
  0
LINE
  5
2C3
100
AcDbEntity
100
AcDbLine
  8
0
 62
3
420
65280
370
-1
 48
1.0
  6
BYLAYER
 10
-0.4897735011750285
 20
12.7992635274370503
 30
0.0
 11
-0.4897735011750285
 21
12.7992635274370503
 31
0.0
  0
LINE
  5
2C4
100
AcDbEntity
100
AcDbLine
  8
0
 62
3
420
65280
370
-1
 48
1.0
  6
BYLAYER
 10
-0.4897735011750285
 20
18.6008080514295671
 30
0.0
 11
-0.4897735011750285
 21
18.6008080514295671
 31
0.0
  0
LINE
  5
2C5
100
AcDbEntity
100
AcDbLine
  8
0
 62
3
420
65280
370
-1
 48
1.0
  6
BYLAYER
 10
7.5765704487906724
 20
20.0143664280224556
 30
0.0
 11
7.5765704487906724
 21
20.0143664280224556
 31
0.0
  0
LINE
  5
2C6
100
AcDbEntity
100
AcDbLine
  8
0
 62
3
420
65280
370
-1
 48
1.0
  6
BYLAYER
 10
7.5765704487906724
 20
16.1851386900187109
 30
0.0
 11
6.8884999999999996
 21
16.1851386900187109
 31
0.0
  0
LINE
  5
2C7
100
AcDbEntity
100
AcDbLine
  8
0
 62
3
420
65280
370
-1
 48
1.0
  6
BYLAYER
 10
7.5765704487906724
 20
14.2591320143213345
 30
0.0
 11
6.8884999999999996
 21
14.2591320143213345
 31
0.0
  0
LINE
  5
2C8
100
AcDbEntity
100
AcDbLine
  8
0
 62
3
420
65280
370
-1
 48
1.0
  6
BYLAYER
 10
7.5765704487906724
 20
18.1308219040299399
 30
0.0
 11
6.8884999999999996
 21
18.1308219040299399
 31
0.0
  0
LINE
  5
2C9
100
AcDbEntity
100
AcDbLine
  8
0
 62
3
420
65280
370
-1
 48
1.0
  6
BYLAYER
 10
-0.4897735011750285
 20
15.8708080514295649
 30
0.0
 11
-1.1778439499657014
 21
15.8708080514295649
 31
0.0
  0
LINE
  5
2CA
100
AcDbEntity
100
AcDbLine
  8
0
 62
3
420
65280
370
-1
 48
1.0
  6
BYLAYER
 10
-0.4897735011750285
 20
12.7992635274370503
 30
0.0
 11
-1.1778439499657014
 21
12.7992635274370503
 31
0.0
  0
LINE
  5
2CB
100
AcDbEntity
100
AcDbLine
  8
0
 62
3
420
65280
370
-1
 48
1.0
  6
BYLAYER
 10
-0.4897735011750285
 20
18.6008080514295671
 30
0.0
 11
-1.1778439499657014
 21
18.6008080514295671
 31
0.0
  0
LINE
  5
2CC
100
AcDbEntity
100
AcDbLine
  8
0
 62
3
420
65280
370
-1
 48
1.0
  6
BYLAYER
 10
7.5765704487906724
 20
20.0143664280224556
 30
0.0
 11
6.8884999999999996
 21
20.0143664280224556
 31
0.0
  0
LINE
  5
2CD
100
AcDbEntity
100
AcDbLine
  8
0
 62
3
420
65280
370
-1
 48
1.0
  6
BYLAYER
 10
8.4234295512093365
 20
16.1851386900187109
 30
0.0
 11
9.1114999999999995
 21
16.1851386900187109
 31
0.0
  0
LINE
  5
2CE
100
AcDbEntity
100
AcDbLine
  8
0
 62
3
420
65280
370
-1
 48
1.0
  6
BYLAYER
 10
8.4234295512093365
 20
14.2591320143213345
 30
0.0
 11
9.1114999999999995
 21
14.2591320143213345
 31
0.0
  0
LINE
  5
2CF
100
AcDbEntity
100
AcDbLine
  8
0
 62
3
420
65280
370
-1
 48
1.0
  6
BYLAYER
 10
8.4234295512093365
 20
18.1308219040299399
 30
0.0
 11
9.1114999999999995
 21
18.1308219040299399
 31
0.0
  0
LINE
  5
2D0
100
AcDbEntity
100
AcDbLine
  8
0
 62
3
420
65280
370
-1
 48
1.0
  6
BYLAYER
 10
0.357085601243635
 20
15.8708080514295649
 30
0.0
 11
1.0451560500342989
 21
15.8708080514295649
 31
0.0
  0
LINE
  5
2D1
100
AcDbEntity
100
AcDbLine
  8
0
 62
3
420
65280
370
-1
 48
1.0
  6
BYLAYER
 10
0.357085601243635
 20
12.7992635274370503
 30
0.0
 11
1.0451560500342989
 21
12.7992635274370503
 31
0.0
  0
LINE
  5
2D2
100
AcDbEntity
100
AcDbLine
  8
0
 62
3
420
65280
370
-1
 48
1.0
  6
BYLAYER
 10
0.357085601243635
 20
18.6008080514295671
 30
0.0
 11
1.0451560500342989
 21
18.6008080514295671
 31
0.0
  0
LINE
  5
2D3
100
AcDbEntity
100
AcDbLine
  8
0
 62
3
420
65280
370
-1
 48
1.0
  6
BYLAYER
 10
8.4234295512093365
 20
20.0143664280224556
 30
0.0
 11
9.1114999999999995
 21
20.0143664280224556
 31
0.0
  0
LINE
  5
2D4
100
AcDbEntity
100
AcDbLine
  8
0
 62
3
420
65280
370
-1
 48
1.0
  6
BYLAYER
 10
7.9609999999999994
 20
16.4983167859887701
 30
0.0
 11
7.9609999999999994
 21
16.6543167859887724
 31
0.0
  0
LINE
  5
2D5
100
AcDbEntity
100
AcDbLine
  8
0
 62
3
420
65280
370
-1
 48
1.0
  6
BYLAYER
 10
7.9609999999999994
 20
14.5723101102913937
 30
0.0
 11
7.9609999999999994
 21
14.7283101102913943
 31
0.0
  0
LINE
  5
2D6
100
AcDbEntity
100
AcDbLine
  8
0
 62
3
420
65280
370
-1
 48
1.0
  6
BYLAYER
 10
7.9609999999999994
 20
18.4439999999999991
 30
0.0
 11
7.9609999999999994
 21
18.5999999999999979
 31
0.0
  0
LINE
  5
2D7
100
AcDbEntity
100
AcDbLine
  8
0
 62
3
420
65280
370
-1
 48
1.0
  6
BYLAYER
 10
-0.1053439499657012
 20
16.1839861473996223
 30
0.0
 11
-0.1053439499657012
 21
16.3399861473996246
 31
0.0
  0
LINE
  5
2D8
100
AcDbEntity
100
AcDbLine
  8
0
 62
3
420
65280
370
-1
 48
1.0
  6
BYLAYER
 10
-0.1053439499657012
 20
13.1124416234071095
 30
0.0
 11
-0.1053439499657012
 21
13.2684416234071101
 31
0.0
  0
LINE
  5
2D9
100
AcDbEntity
100
AcDbLine
  8
0
 62
3
420
65280
370
-1
 48
1.0
  6
BYLAYER
 10
-0.1053439499657012
 20
18.9139861473996262
 30
0.0
 11
-0.1053439499657012
 21
19.0699861473996251
 31
0.0
  0
LINE
  5
2DA
100
AcDbEntity
100
AcDbLine
  8
0
 62
3
420
65280
370
-1
 48
1.0
  6
BYLAYER
 10
7.9609999999999994
 20
20.3275445239925148
 30
0.0
 11
7.9609999999999994
 21
20.4835445239925136
 31
0.0
  0
LINE
  5
2DB
100
AcDbEntity
100
AcDbLine
  8
0
 62
3
420
65280
370
-1
 48
1.0
  6
BYLAYER
 10
8.0389999999999997
 20
16.6543167859887724
 30
0.0
 11
8.0389999999999997
 21
16.4983167859887701
 31
0.0
  0
LINE
  5
2DC
100
AcDbEntity
100
AcDbLine
  8
0
 62
3
420
65280
370
-1
 48
1.0
  6
BYLAYER
 10
8.0389999999999997
 20
14.7283101102913943
 30
0.0
 11
8.0389999999999997
 21
14.5723101102913937
 31
0.0
  0
LINE
  5
2DD
100
AcDbEntity
100
AcDbLine
  8
0
 62
3
420
65280
370
-1
 48
1.0
  6
BYLAYER
 10
8.0389999999999997
 20
18.5999999999999979
 30
0.0
 11
8.0389999999999997
 21
18.4439999999999991
 31
0.0
  0
LINE
  5
2DE
100
AcDbEntity
100
AcDbLine
  8
0
 62
3
420
65280
370
-1
 48
1.0
  6
BYLAYER
 10
-0.0273439499657012
 20
16.3399861473996246
 30
0.0
 11
-0.0273439499657012
 21
16.1839861473996223
 31
0.0
  0
LINE
  5
2DF
100
AcDbEntity
100
AcDbLine
  8
0
 62
3
420
65280
370
-1
 48
1.0
  6
BYLAYER
 10
-0.0273439499657012
 20
13.2684416234071101
 30
0.0
 11
-0.0273439499657012
 21
13.1124416234071095
 31
0.0
  0
LINE
  5
2E0
100
AcDbEntity
100
AcDbLine
  8
0
 62
3
420
65280
370
-1
 48
1.0
  6
BYLAYER
 10
-0.0273439499657012
 20
19.0699861473996251
 30
0.0
 11
-0.0273439499657012
 21
18.9139861473996262
 31
0.0
  0
LINE
  5
2E1
100
AcDbEntity
100
AcDbLine
  8
0
 62
3
420
65280
370
-1
 48
1.0
  6
BYLAYER
 10
8.0389999999999997
 20
20.4835445239925136
 30
0.0
 11
8.0389999999999997
 21
20.3275445239925148
 31
0.0
  0
LINE
  5
2E2
100
AcDbEntity
100
AcDbLine
  8
0
 62
3
420
65280
370
-1
 48
1.0
  6
BYLAYER
 10
7.9609999999999994
 20
16.6543167859887724
 30
0.0
 11
8.0389999999999997
 21
16.6543167859887724
 31
0.0
  0
LINE
  5
2E3
100
AcDbEntity
100
AcDbLine
  8
0
 62
3
420
65280
370
-1
 48
1.0
  6
BYLAYER
 10
7.9609999999999994
 20
14.7283101102913943
 30
0.0
 11
8.0389999999999997
 21
14.7283101102913943
 31
0.0
  0
LINE
  5
2E4
100
AcDbEntity
100
AcDbLine
  8
0
 62
3
420
65280
370
-1
 48
1.0
  6
BYLAYER
 10
7.9609999999999994
 20
18.5999999999999979
 30
0.0
 11
8.0389999999999997
 21
18.5999999999999979
 31
0.0
  0
LINE
  5
2E5
100
AcDbEntity
100
AcDbLine
  8
0
 62
3
420
65280
370
-1
 48
1.0
  6
BYLAYER
 10
-0.1053439499657012
 20
16.3399861473996246
 30
0.0
 11
-0.0273439499657012
 21
16.3399861473996246
 31
0.0
  0
LINE
  5
2E6
100
AcDbEntity
100
AcDbLine
  8
0
 62
3
420
65280
370
-1
 48
1.0
  6
BYLAYER
 10
-0.1053439499657012
 20
13.2684416234071101
 30
0.0
 11
-0.0273439499657012
 21
13.2684416234071101
 31
0.0
  0
LINE
  5
2E7
100
AcDbEntity
100
AcDbLine
  8
0
 62
3
420
65280
370
-1
 48
1.0
  6
BYLAYER
 10
-0.1053439499657012
 20
19.0699861473996251
 30
0.0
 11
-0.0273439499657012
 21
19.0699861473996251
 31
0.0
  0
LINE
  5
2E8
100
AcDbEntity
100
AcDbLine
  8
0
 62
3
420
65280
370
-1
 48
1.0
  6
BYLAYER
 10
7.9609999999999994
 20
20.4835445239925136
 30
0.0
 11
8.0389999999999997
 21
20.4835445239925136
 31
0.0
  0
LINE
  5
2E9
100
AcDbEntity
100
AcDbLine
  8
0
 62
3
420
65280
370
-1
 48
1.0
  6
BYLAYER
 10
7.7102852243953341
 20
16.0882277380037415
 30
0.0
 11
7.5765704487906724
 21
16.1851386900187109
 31
0.0
  0
LINE
  5
2EA
100
AcDbEntity
100
AcDbLine
  8
0
 62
3
420
65280
370
-1
 48
1.0
  6
BYLAYER
 10
7.7102852243953341
 20
14.1622210623063634
 30
0.0
 11
7.5765704487906724
 21
14.2591320143213345
 31
0.0
  0
LINE
  5
2EB
100
AcDbEntity
100
AcDbLine
  8
0
 62
3
420
65280
370
-1
 48
1.0
  6
BYLAYER
 10
7.7102852243953341
 20
18.033910952014967
 30
0.0
 11
7.5765704487906724
 21
18.1308219040299399
 31
0.0
  0
LINE
  5
2EC
100
AcDbEntity
100
AcDbLine
  8
0
 62
3
420
65280
370
-1
 48
1.0
  6
BYLAYER
 10
-0.3560587255703671
 20
15.7738970994145937
 30
0.0
 11
-0.4897735011750285
 21
15.8708080514295649
 31
0.0
  0
LINE
  5
2ED
100
AcDbEntity
100
AcDbLine
  8
0
 62
3
420
65280
370
-1
 48
1.0
  6
BYLAYER
 10
-0.3560587255703671
 20
12.7023525754220792
 30
0.0
 11
-0.4897735011750285
 21
12.7992635274370503
 31
0.0
  0
LINE
  5
2EE
100
AcDbEntity
100
AcDbLine
  8
0
 62
3
420
65280
370
-1
 48
1.0
  6
BYLAYER
 10
-0.3560587255703671
 20
18.5038970994145942
 30
0.0
 11
-0.4897735011750285
 21
18.6008080514295671
 31
0.0
  0
LINE
  5
2EF
100
AcDbEntity
100
AcDbLine
  8
0
 62
3
420
65280
370
-1
 48
1.0
  6
BYLAYER
 10
7.7102852243953341
 20
19.9174554760074827
 30
0.0
 11
7.5765704487906724
 21
20.0143664280224556
 31
0.0
  0
LINE
  5
2F0
100
AcDbEntity
100
AcDbLine
  8
0
 62
3
420
65280
370
-1
 48
1.0
  6
BYLAYER
 10
8.289714775604665
 20
16.0882277380037415
 30
0.0
 11
8.4234295512093365
 21
16.1851386900187109
 31
0.0
  0
LINE
  5
2F1
100
AcDbEntity
100
AcDbLine
  8
0
 62
3
420
65280
370
-1
 48
1.0
  6
BYLAYER
 10
8.289714775604665
 20
14.1622210623063634
 30
0.0
 11
8.4234295512093365
 21
14.2591320143213345
 31
0.0
  0
LINE
  5
2F2
100
AcDbEntity
100
AcDbLine
  8
0
 62
3
420
65280
370
-1
 48
1.0
  6
BYLAYER
 10
8.289714775604665
 20
18.033910952014967
 30
0.0
 11
8.4234295512093365
 21
18.1308219040299399
 31
0.0
  0
LINE
  5
2F3
100
AcDbEntity
100
AcDbLine
  8
0
 62
3
420
65280
370
-1
 48
1.0
  6
BYLAYER
 10
0.2233708256389646
 20
15.7738970994145937
 30
0.0
 11
0.357085601243635
 21
15.8708080514295649
 31
0.0
  0
LINE
  5
2F4
100
AcDbEntity
100
AcDbLine
  8
0
 62
3
420
65280
370
-1
 48
1.0
  6
BYLAYER
 10
0.2233708256389646
 20
12.7023525754220792
 30
0.0
 11
0.357085601243635
 21
12.7992635274370503
 31
0.0
  0
LINE
  5
2F5
100
AcDbEntity
100
AcDbLine
  8
0
 62
3
420
65280
370
-1
 48
1.0
  6
BYLAYER
 10
0.2233708256389646
 20
18.5038970994145942
 30
0.0
 11
0.357085601243635
 21
18.6008080514295671
 31
0.0
  0
LINE
  5
2F6
100
AcDbEntity
100
AcDbLine
  8
0
 62
3
420
65280
370
-1
 48
1.0
  6
BYLAYER
 10
8.289714775604665
 20
19.9174554760074827
 30
0.0
 11
8.4234295512093365
 21
20.0143664280224556
 31
0.0
  0
ARC
  5
2F7
100
AcDbEntity
  8
0
 62
3
420
65280
370
-1
 48
1.0
  6
BYLAYER
100
AcDbCircle
 10
7.2200000000000086
 20
16.9378810891706273
 30
0.0
 40
0.0485889299999988
100
AcDbArc
 50
348.6180778163268883
 51
191.3819221836731117
  0
ARC
  5
2F8
100
AcDbEntity
  8
0
 62
3
420
65280
370
-1
 48
1.0
  6
BYLAYER
100
AcDbCircle
 10
8.7800000000000047
 20
16.9378810891706273
 30
0.0
 40
0.0485889299999988
100
AcDbArc
 50
348.6180778163268883
 51
191.3819221836731117
  0
ARC
  5
2F9
100
AcDbEntity
  8
0
 62
3
420
65280
370
-1
 48
1.0
  6
BYLAYER
100
AcDbCircle
 10
7.2200000000000086
 20
15.0118744134732509
 30
0.0
 40
0.0485889299999988
100
AcDbArc
 50
348.6180778163268883
 51
191.3819221836731117
  0
ARC
  5
2FA
100
AcDbEntity
  8
0
 62
3
420
65280
370
-1
 48
1.0
  6
BYLAYER
100
AcDbCircle
 10
8.7800000000000047
 20
15.0118744134732509
 30
0.0
 40
0.0485889299999988
100
AcDbArc
 50
348.6180778163268883
 51
191.3819221836731117
  0
ARC
  5
2FB
100
AcDbEntity
  8
0
 62
3
420
65280
370
-1
 48
1.0
  6
BYLAYER
100
AcDbCircle
 10
7.2200000000000086
 20
18.8835643031818528
 30
0.0
 40
0.0485889299999988
100
AcDbArc
 50
348.6180778163268883
 51
191.3819221836731117
  0
ARC
  5
2FC
100
AcDbEntity
  8
0
 62
3
420
65280
370
-1
 48
1.0
  6
BYLAYER
100
AcDbCircle
 10
8.7800000000000047
 20
18.8835643031818528
 30
0.0
 40
0.0485889299999988
100
AcDbArc
 50
348.6180778163268883
 51
191.3819221836731117
  0
ARC
  5
2FD
100
AcDbEntity
  8
0
 62
3
420
65280
370
-1
 48
1.0
  6
BYLAYER
100
AcDbCircle
 10
-0.8463439499656924
 20
16.6235504505814795
 30
0.0
 40
0.0485889299999988
100
AcDbArc
 50
348.6180778163268883
 51
191.3819221836731117
  0
ARC
  5
2FE
100
AcDbEntity
  8
0
 62
3
420
65280
370
-1
 48
1.0
  6
BYLAYER
100
AcDbCircle
 10
0.7136560500343032
 20
16.6235504505814795
 30
0.0
 40
0.0485889299999988
100
AcDbArc
 50
348.6180778163268883
 51
191.3819221836731117
  0
ARC
  5
2FF
100
AcDbEntity
  8
0
 62
3
420
65280
370
-1
 48
1.0
  6
BYLAYER
100
AcDbCircle
 10
-0.8463439499656924
 20
13.5520059265889667
 30
0.0
 40
0.0485889299999988
100
AcDbArc
 50
348.6180778163268883
 51
191.3819221836731117
  0
ARC
  5
300
100
AcDbEntity
  8
0
 62
3
420
65280
370
-1
 48
1.0
  6
BYLAYER
100
AcDbCircle
 10
0.7136560500343032
 20
13.5520059265889667
 30
0.0
 40
0.0485889299999988
100
AcDbArc
 50
348.6180778163268883
 51
191.3819221836731117
  0
ARC
  5
301
100
AcDbEntity
  8
0
 62
3
420
65280
370
-1
 48
1.0
  6
BYLAYER
100
AcDbCircle
 10
-0.8463439499656924
 20
19.3535504505814799
 30
0.0
 40
0.0485889299999988
100
AcDbArc
 50
348.6180778163268883
 51
191.3819221836731117
  0
ARC
  5
302
100
AcDbEntity
  8
0
 62
3
420
65280
370
-1
 48
1.0
  6
BYLAYER
100
AcDbCircle
 10
0.7136560500343032
 20
19.3535504505814799
 30
0.0
 40
0.0485889299999988
100
AcDbArc
 50
348.6180778163268883
 51
191.3819221836731117
  0
ARC
  5
303
100
AcDbEntity
  8
0
 62
3
420
65280
370
-1
 48
1.0
  6
BYLAYER
100
AcDbCircle
 10
7.2200000000000086
 20
20.7671088271743685
 30
0.0
 40
0.0485889299999988
100
AcDbArc
 50
348.6180778163268883
 51
191.3819221836731117
  0
ARC
  5
304
100
AcDbEntity
  8
0
 62
3
420
65280
370
-1
 48
1.0
  6
BYLAYER
100
AcDbCircle
 10
8.7800000000000047
 20
20.7671088271743685
 30
0.0
 40
0.0485889299999988
100
AcDbArc
 50
348.6180778163268883
 51
191.3819221836731117
  0
LINE
  5
305
100
AcDbEntity
100
AcDbLine
  8
0
 62
3
420
65280
370
-1
 48
1.0
  6
BYLAYER
 10
7.172366644669947
 20
16.9282921591706277
 30
0.0
 11
7.0250000000000092
 21
16.9282921591706277
 31
0.0
  0
LINE
  5
306
100
AcDbEntity
100
AcDbLine
  8
0
 62
3
420
65280
370
-1
 48
1.0
  6
BYLAYER
 10
8.7323666446699431
 20
16.9282921591706277
 30
0.0
 11
8.5850000000000044
 21
16.9282921591706277
 31
0.0
  0
LINE
  5
307
100
AcDbEntity
100
AcDbLine
  8
0
 62
3
420
65280
370
-1
 48
1.0
  6
BYLAYER
 10
7.172366644669947
 20
15.0022854834732513
 30
0.0
 11
7.0250000000000092
 21
15.0022854834732513
 31
0.0
  0
LINE
  5
308
100
AcDbEntity
100
AcDbLine
  8
0
 62
3
420
65280
370
-1
 48
1.0
  6
BYLAYER
 10
8.7323666446699431
 20
15.0022854834732513
 30
0.0
 11
8.5850000000000044
 21
15.0022854834732513
 31
0.0
  0
LINE
  5
309
100
AcDbEntity
100
AcDbLine
  8
0
 62
3
420
65280
370
-1
 48
1.0
  6
BYLAYER
 10
7.172366644669947
 20
18.8739753731818531
 30
0.0
 11
7.0250000000000092
 21
18.8739753731818531
 31
0.0
  0
LINE
  5
30A
100
AcDbEntity
100
AcDbLine
  8
0
 62
3
420
65280
370
-1
 48
1.0
  6
BYLAYER
 10
8.7323666446699431
 20
18.8739753731818531
 30
0.0
 11
8.5850000000000044
 21
18.8739753731818531
 31
0.0
  0
LINE
  5
30B
100
AcDbEntity
100
AcDbLine
  8
0
 62
3
420
65280
370
-1
 48
1.0
  6
BYLAYER
 10
-0.8939773052957537
 20
16.6139615205814799
 30
0.0
 11
-1.0413439499656922
 21
16.6139615205814799
 31
0.0
  0
LINE
  5
30C
100
AcDbEntity
100
AcDbLine
  8
0
 62
3
420
65280
370
-1
 48
1.0
  6
BYLAYER
 10
0.6660226947042418
 20
16.6139615205814799
 30
0.0
 11
0.5186560500343032
 21
16.6139615205814799
 31
0.0
  0
LINE
  5
30D
100
AcDbEntity
100
AcDbLine
  8
0
 62
3
420
65280
370
-1
 48
1.0
  6
BYLAYER
 10
-0.8939773052957537
 20
13.5424169965889671
 30
0.0
 11
-1.0413439499656922
 21
13.5424169965889671
 31
0.0
  0
LINE
  5
30E
100
AcDbEntity
100
AcDbLine
  8
0
 62
3
420
65280
370
-1
 48
1.0
  6
BYLAYER
 10
0.6660226947042418
 20
13.5424169965889671
 30
0.0
 11
0.5186560500343032
 21
13.5424169965889671
 31
0.0
  0
LINE
  5
30F
100
AcDbEntity
100
AcDbLine
  8
0
 62
3
420
65280
370
-1
 48
1.0
  6
BYLAYER
 10
-0.8939773052957537
 20
19.3439615205814803
 30
0.0
 11
-1.0413439499656922
 21
19.3439615205814803
 31
0.0
  0
LINE
  5
310
100
AcDbEntity
100
AcDbLine
  8
0
 62
3
420
65280
370
-1
 48
1.0
  6
BYLAYER
 10
0.6660226947042418
 20
19.3439615205814803
 30
0.0
 11
0.5186560500343032
 21
19.3439615205814803
 31
0.0
  0
LINE
  5
311
100
AcDbEntity
100
AcDbLine
  8
0
 62
3
420
65280
370
-1
 48
1.0
  6
BYLAYER
 10
7.172366644669947
 20
20.7575198971743689
 30
0.0
 11
7.0250000000000092
 21
20.7575198971743689
 31
0.0
  0
LINE
  5
312
100
AcDbEntity
100
AcDbLine
  8
0
 62
3
420
65280
370
-1
 48
1.0
  6
BYLAYER
 10
8.7323666446699431
 20
20.7575198971743689
 30
0.0
 11
8.5850000000000044
 21
20.7575198971743689
 31
0.0
  0
LINE
  5
313
100
AcDbEntity
100
AcDbLine
  8
0
 62
3
420
65280
370
-1
 48
1.0
  6
BYLAYER
 10
7.2676333553300703
 20
16.9282921591706277
 30
0.0
 11
7.4150000000000089
 21
16.9282921591706277
 31
0.0
  0
LINE
  5
314
100
AcDbEntity
100
AcDbLine
  8
0
 62
3
420
65280
370
-1
 48
1.0
  6
BYLAYER
 10
8.8276333553300663
 20
16.9282921591706277
 30
0.0
 11
8.975000000000005
 21
16.9282921591706277
 31
0.0
  0
LINE
  5
315
100
AcDbEntity
100
AcDbLine
  8
0
 62
3
420
65280
370
-1
 48
1.0
  6
BYLAYER
 10
7.2676333553300703
 20
15.0022854834732513
 30
0.0
 11
7.4150000000000089
 21
15.0022854834732513
 31
0.0
  0
LINE
  5
316
100
AcDbEntity
100
AcDbLine
  8
0
 62
3
420
65280
370
-1
 48
1.0
  6
BYLAYER
 10
8.8276333553300663
 20
15.0022854834732513
 30
0.0
 11
8.975000000000005
 21
15.0022854834732513
 31
0.0
  0
LINE
  5
317
100
AcDbEntity
100
AcDbLine
  8
0
 62
3
420
65280
370
-1
 48
1.0
  6
BYLAYER
 10
7.2676333553300703
 20
18.8739753731818531
 30
0.0
 11
7.4150000000000089
 21
18.8739753731818531
 31
0.0
  0
LINE
  5
318
100
AcDbEntity
100
AcDbLine
  8
0
 62
3
420
65280
370
-1
 48
1.0
  6
BYLAYER
 10
8.8276333553300663
 20
18.8739753731818531
 30
0.0
 11
8.975000000000005
 21
18.8739753731818531
 31
0.0
  0
LINE
  5
319
100
AcDbEntity
100
AcDbLine
  8
0
 62
3
420
65280
370
-1
 48
1.0
  6
BYLAYER
 10
-0.798710594635631
 20
16.6139615205814799
 30
0.0
 11
-0.6513439499656923
 21
16.6139615205814799
 31
0.0
  0
LINE
  5
31A
100
AcDbEntity
100
AcDbLine
  8
0
 62
3
420
65280
370
-1
 48
1.0
  6
BYLAYER
 10
0.7612894053643645
 20
16.6139615205814799
 30
0.0
 11
0.9086560500343032
 21
16.6139615205814799
 31
0.0
  0
LINE
  5
31B
100
AcDbEntity
100
AcDbLine
  8
0
 62
3
420
65280
370
-1
 48
1.0
  6
BYLAYER
 10
-0.798710594635631
 20
13.5424169965889671
 30
0.0
 11
-0.6513439499656923
 21
13.5424169965889671
 31
0.0
  0
LINE
  5
31C
100
AcDbEntity
100
AcDbLine
  8
0
 62
3
420
65280
370
-1
 48
1.0
  6
BYLAYER
 10
0.7612894053643645
 20
13.5424169965889671
 30
0.0
 11
0.9086560500343032
 21
13.5424169965889671
 31
0.0
  0
LINE
  5
31D
100
AcDbEntity
100
AcDbLine
  8
0
 62
3
420
65280
370
-1
 48
1.0
  6
BYLAYER
 10
-0.798710594635631
 20
19.3439615205814803
 30
0.0
 11
-0.6513439499656923
 21
19.3439615205814803
 31
0.0
  0
LINE
  5
31E
100
AcDbEntity
100
AcDbLine
  8
0
 62
3
420
65280
370
-1
 48
1.0
  6
BYLAYER
 10
0.7612894053643645
 20
19.3439615205814803
 30
0.0
 11
0.9086560500343032
 21
19.3439615205814803
 31
0.0
  0
LINE
  5
31F
100
AcDbEntity
100
AcDbLine
  8
0
 62
3
420
65280
370
-1
 48
1.0
  6
BYLAYER
 10
7.2676333553300703
 20
20.7575198971743689
 30
0.0
 11
7.4150000000000089
 21
20.7575198971743689
 31
0.0
  0
LINE
  5
320
100
AcDbEntity
100
AcDbLine
  8
0
 62
3
420
65280
370
-1
 48
1.0
  6
BYLAYER
 10
8.8276333553300663
 20
20.7575198971743689
 30
0.0
 11
8.975000000000005
 21
20.7575198971743689
 31
0.0
  0
LINE
  5
321
100
AcDbEntity
100
AcDbLine
  8
0
 62
3
420
65280
370
-1
 48
1.0
  6
BYLAYER
 10
7.7102852243953297
 20
16.0882277380037451
 30
0.0
 11
7.7102852243953297
 21
16.4983167859887701
 31
0.0
  0
LINE
  5
322
100
AcDbEntity
100
AcDbLine
  8
0
 62
3
420
65280
370
-1
 48
1.0
  6
BYLAYER
 10
7.7102852243953297
 20
14.1622210623063651
 30
0.0
 11
7.7102852243953297
 21
14.5723101102913937
 31
0.0
  0
LINE
  5
323
100
AcDbEntity
100
AcDbLine
  8
0
 62
3
420
65280
370
-1
 48
1.0
  6
BYLAYER
 10
7.7102852243953297
 20
18.033910952014967
 30
0.0
 11
7.7102852243953297
 21
18.4439999999999991
 31
0.0
  0
LINE
  5
324
100
AcDbEntity
100
AcDbLine
  8
0
 62
3
420
65280
370
-1
 48
1.0
  6
BYLAYER
 10
-0.3560587255703715
 20
15.7738970994145955
 30
0.0
 11
-0.3560587255703715
 21
16.1839861473996223
 31
0.0
  0
LINE
  5
325
100
AcDbEntity
100
AcDbLine
  8
0
 62
3
420
65280
370
-1
 48
1.0
  6
BYLAYER
 10
-0.3560587255703715
 20
12.702352575422081
 30
0.0
 11
-0.3560587255703715
 21
13.1124416234071095
 31
0.0
  0
LINE
  5
326
100
AcDbEntity
100
AcDbLine
  8
0
 62
3
420
65280
370
-1
 48
1.0
  6
BYLAYER
 10
-0.3560587255703715
 20
18.5038970994145942
 30
0.0
 11
-0.3560587255703715
 21
18.9139861473996262
 31
0.0
  0
LINE
  5
327
100
AcDbEntity
100
AcDbLine
  8
0
 62
3
420
65280
370
-1
 48
1.0
  6
BYLAYER
 10
7.7102852243953297
 20
19.9174554760074827
 30
0.0
 11
7.7102852243953297
 21
20.3275445239925148
 31
0.0
  0
LINE
  5
328
100
AcDbEntity
100
AcDbLine
  8
0
 62
3
420
65280
370
-1
 48
1.0
  6
BYLAYER
 10
7.7102852243953297
 20
16.4983167859887701
 30
0.0
 11
7.9609999999999994
 21
16.4983167859887701
 31
0.0
  0
LINE
  5
329
100
AcDbEntity
100
AcDbLine
  8
0
 62
3
420
65280
370
-1
 48
1.0
  6
BYLAYER
 10
7.7102852243953297
 20
14.5723101102913937
 30
0.0
 11
7.9609999999999994
 21
14.5723101102913937
 31
0.0
  0
LINE
  5
32A
100
AcDbEntity
100
AcDbLine
  8
0
 62
3
420
65280
370
-1
 48
1.0
  6
BYLAYER
 10
7.7102852243953297
 20
18.4439999999999991
 30
0.0
 11
7.9609999999999994
 21
18.4439999999999991
 31
0.0
  0
LINE
  5
32B
100
AcDbEntity
100
AcDbLine
  8
0
 62
3
420
65280
370
-1
 48
1.0
  6
BYLAYER
 10
-0.3560587255703715
 20
16.1839861473996223
 30
0.0
 11
-0.1053439499657012
 21
16.1839861473996223
 31
0.0
  0
LINE
  5
32C
100
AcDbEntity
100
AcDbLine
  8
0
 62
3
420
65280
370
-1
 48
1.0
  6
BYLAYER
 10
-0.3560587255703715
 20
13.1124416234071095
 30
0.0
 11
-0.1053439499657012
 21
13.1124416234071095
 31
0.0
  0
LINE
  5
32D
100
AcDbEntity
100
AcDbLine
  8
0
 62
3
420
65280
370
-1
 48
1.0
  6
BYLAYER
 10
-0.3560587255703715
 20
18.9139861473996262
 30
0.0
 11
-0.1053439499657012
 21
18.9139861473996262
 31
0.0
  0
LINE
  5
32E
100
AcDbEntity
100
AcDbLine
  8
0
 62
3
420
65280
370
-1
 48
1.0
  6
BYLAYER
 10
7.7102852243953297
 20
20.3275445239925148
 30
0.0
 11
7.9609999999999994
 21
20.3275445239925148
 31
0.0
  0
LINE
  5
32F
100
AcDbEntity
100
AcDbLine
  8
0
 62
3
420
65280
370
-1
 48
1.0
  6
BYLAYER
 10
8.289714775604665
 20
16.0882277380037415
 30
0.0
 11
8.289714775604665
 21
16.4983167859887701
 31
0.0
  0
LINE
  5
330
100
AcDbEntity
100
AcDbLine
  8
0
 62
3
420
65280
370
-1
 48
1.0
  6
BYLAYER
 10
8.289714775604665
 20
14.1622210623063634
 30
0.0
 11
8.289714775604665
 21
14.5723101102913937
 31
0.0
  0
LINE
  5
331
100
AcDbEntity
100
AcDbLine
  8
0
 62
3
420
65280
370
-1
 48
1.0
  6
BYLAYER
 10
8.289714775604665
 20
18.033910952014967
 30
0.0
 11
8.289714775604665
 21
18.4439999999999991
 31
0.0
  0
LINE
  5
332
100
AcDbEntity
100
AcDbLine
  8
0
 62
3
420
65280
370
-1
 48
1.0
  6
BYLAYER
 10
0.2233708256389646
 20
15.7738970994145937
 30
0.0
 11
0.2233708256389646
 21
16.1839861473996223
 31
0.0
  0
LINE
  5
333
100
AcDbEntity
100
AcDbLine
  8
0
 62
3
420
65280
370
-1
 48
1.0
  6
BYLAYER
 10
0.2233708256389646
 20
12.7023525754220792
 30
0.0
 11
0.2233708256389646
 21
13.1124416234071095
 31
0.0
  0
LINE
  5
334
100
AcDbEntity
100
AcDbLine
  8
0
 62
3
420
65280
370
-1
 48
1.0
  6
BYLAYER
 10
0.2233708256389646
 20
18.5038970994145942
 30
0.0
 11
0.2233708256389646
 21
18.9139861473996262
 31
0.0
  0
LINE
  5
335
100
AcDbEntity
100
AcDbLine
  8
0
 62
3
420
65280
370
-1
 48
1.0
  6
BYLAYER
 10
8.289714775604665
 20
19.9174554760074827
 30
0.0
 11
8.289714775604665
 21
20.3275445239925148
 31
0.0
  0
LINE
  5
336
100
AcDbEntity
100
AcDbLine
  8
0
 62
3
420
65280
370
-1
 48
1.0
  6
BYLAYER
 10
8.289714775604665
 20
16.4983167859887701
 30
0.0
 11
8.0389999999999997
 21
16.4983167859887701
 31
0.0
  0
LINE
  5
337
100
AcDbEntity
100
AcDbLine
  8
0
 62
3
420
65280
370
-1
 48
1.0
  6
BYLAYER
 10
8.289714775604665
 20
14.5723101102913937
 30
0.0
 11
8.0389999999999997
 21
14.5723101102913937
 31
0.0
  0
LINE
  5
338
100
AcDbEntity
100
AcDbLine
  8
0
 62
3
420
65280
370
-1
 48
1.0
  6
BYLAYER
 10
8.289714775604665
 20
18.4439999999999991
 30
0.0
 11
8.0389999999999997
 21
18.4439999999999991
 31
0.0
  0
LINE
  5
339
100
AcDbEntity
100
AcDbLine
  8
0
 62
3
420
65280
370
-1
 48
1.0
  6
BYLAYER
 10
0.2233708256389646
 20
16.1839861473996223
 30
0.0
 11
-0.0273439499657012
 21
16.1839861473996223
 31
0.0
  0
LINE
  5
33A
100
AcDbEntity
100
AcDbLine
  8
0
 62
3
420
65280
370
-1
 48
1.0
  6
BYLAYER
 10
0.2233708256389646
 20
13.1124416234071095
 30
0.0
 11
-0.0273439499657012
 21
13.1124416234071095
 31
0.0
  0
LINE
  5
33B
100
AcDbEntity
100
AcDbLine
  8
0
 62
3
420
65280
370
-1
 48
1.0
  6
BYLAYER
 10
0.2233708256389646
 20
18.9139861473996262
 30
0.0
 11
-0.0273439499657012
 21
18.9139861473996262
 31
0.0
  0
LINE
  5
33C
100
AcDbEntity
100
AcDbLine
  8
0
 62
3
420
65280
370
-1
 48
1.0
  6
BYLAYER
 10
8.289714775604665
 20
20.3275445239925148
 30
0.0
 11
8.0389999999999997
 21
20.3275445239925148
 31
0.0
  0
LINE
  5
33D
100
AcDbEntity
100
AcDbLine
  8
0
 62
3
420
65280
370
-1
 48
1.0
  6
BYLAYER
 10
9.8354204941305134
 20
17.2467097889716001
 30
0.0
 11
10.0919854977032877
 21
17.2467097821514734
 31
0.0
  0
LINE
  5
33E
100
AcDbEntity
100
AcDbLine
  8
0
 62
3
420
65280
370
-1
 48
1.0
  6
BYLAYER
 10
9.8354204941305134
 20
19.1923930029828256
 30
0.0
 11
10.0919854977032877
 21
19.1923929961626989
 31
0.0
  0
LINE
  5
33F
100
AcDbEntity
100
AcDbLine
  8
0
 62
3
420
65280
370
-1
 48
1.0
  6
BYLAYER
 10
1.7690765441648133
 20
16.9323791503824523
 30
0.0
 11
2.0256415477375862
 21
16.9323791435623257
 31
0.0
  0
LINE
  5
340
100
AcDbEntity
100
AcDbLine
  8
0
 62
3
420
65280
370
-1
 48
1.0
  6
BYLAYER
 10
1.7690765441648133
 20
19.6623791503824528
 30
0.0
 11
2.0256415477375862
 21
19.6623791435623261
 31
0.0
  0
LINE
  5
341
100
AcDbEntity
100
AcDbLine
  8
0
 62
3
420
65280
370
-1
 48
1.0
  6
BYLAYER
 10
9.8354204941305134
 20
21.0759375269753413
 30
0.0
 11
10.0919854977032877
 21
21.0759375201552146
 31
0.0
  0
LINE
  5
342
100
AcDbEntity
100
AcDbLine
  8
0
 62
3
420
65280
370
-1
 48
1.0
  6
BYLAYER
 10
9.8354204941305188
 20
17.740874561709294
 30
0.0
 11
10.0919854977032877
 21
17.7408745617092691
 31
0.0
  0
LINE
  5
343
100
AcDbEntity
100
AcDbLine
  8
0
 62
3
420
65280
370
-1
 48
1.0
  6
BYLAYER
 10
9.8354204941305188
 20
19.6865577757205195
 30
0.0
 11
10.0919854977032877
 21
19.686557775720491
 31
0.0
  0
LINE
  5
344
100
AcDbEntity
100
AcDbLine
  8
0
 62
3
420
65280
370
-1
 48
1.0
  6
BYLAYER
 10
1.7690765441648177
 20
17.4265439231201462
 30
0.0
 11
2.0256415477375862
 21
17.4265439231201213
 31
0.0
  0
LINE
  5
345
100
AcDbEntity
100
AcDbLine
  8
0
 62
3
420
65280
370
-1
 48
1.0
  6
BYLAYER
 10
1.7690765441648177
 20
20.1565439231201466
 30
0.0
 11
2.0256415477375862
 21
20.1565439231201182
 31
0.0
  0
LINE
  5
346
100
AcDbEntity
100
AcDbLine
  8
0
 62
3
420
65280
370
-1
 48
1.0
  6
BYLAYER
 10
9.8354204941305188
 20
21.5701022997130352
 30
0.0
 11
10.0919854977032877
 21
21.5701022997130067
 31
0.0
  0
LINE
  5
347
100
AcDbEntity
100
AcDbLine
  8
0
 62
3
420
65280
370
-1
 48
1.0
  6
BYLAYER
 10
9.854241695916798
 20
16.9153281168999854
 30
0.0
 11
10.0731642959168006
 21
16.915328116899925
 31
0.0
  0
LINE
  5
348
100
AcDbEntity
100
AcDbLine
  8
0
 62
3
420
65280
370
-1
 48
1.0
  6
BYLAYER
 10
9.854241695916798
 20
18.8610113309112108
 30
0.0
 11
10.0731642959168006
 21
18.8610113309111505
 31
0.0
  0
LINE
  5
349
100
AcDbEntity
100
AcDbLine
  8
0
 62
3
420
65280
370
-1
 48
1.0
  6
BYLAYER
 10
1.7878977459510965
 20
16.6009974783108376
 30
0.0
 11
2.0068203459510991
 21
16.6009974783107772
 31
0.0
  0
LINE
  5
34A
100
AcDbEntity
100
AcDbLine
  8
0
 62
3
420
65280
370
-1
 48
1.0
  6
BYLAYER
 10
1.7878977459510965
 20
19.330997478310838
 30
0.0
 11
2.0068203459510991
 21
19.3309974783107776
 31
0.0
  0
LINE
  5
34B
100
AcDbEntity
100
AcDbLine
  8
0
 62
3
420
65280
370
-1
 48
1.0
  6
BYLAYER
 10
9.854241695916798
 20
20.7445558549037266
 30
0.0
 11
10.0731642959168006
 21
20.7445558549036662
 31
0.0
  0
LINE
  5
34C
100
AcDbEntity
100
AcDbLine
  8
0
 62
3
420
65280
370
-1
 48
1.0
  6
BYLAYER
 10
5.9080145022967123
 20
17.7408745617092691
 30
0.0
 11
6.1645795058694812
 21
17.740874561709294
 31
0.0
  0
LINE
  5
34D
100
AcDbEntity
100
AcDbLine
  8
0
 62
3
420
65280
370
-1
 48
1.0
  6
BYLAYER
 10
5.9080145022967123
 20
19.6865577757204946
 30
0.0
 11
6.1645795058694812
 21
19.6865577757205195
 31
0.0
  0
LINE
  5
34E
100
AcDbEntity
100
AcDbLine
  8
0
 62
3
420
65280
370
-1
 48
1.0
  6
BYLAYER
 10
-2.1583294476689883
 20
17.4265439231201213
 30
0.0
 11
-1.9017644440962203
 21
17.4265439231201462
 31
0.0
  0
LINE
  5
34F
100
AcDbEntity
100
AcDbLine
  8
0
 62
3
420
65280
370
-1
 48
1.0
  6
BYLAYER
 10
-2.1583294476689883
 20
20.1565439231201218
 30
0.0
 11
-1.9017644440962203
 21
20.1565439231201466
 31
0.0
  0
LINE
  5
350
100
AcDbEntity
100
AcDbLine
  8
0
 62
3
420
65280
370
-1
 48
1.0
  6
BYLAYER
 10
5.9080145022967123
 20
21.5701022997130103
 30
0.0
 11
6.1645795058694812
 21
21.5701022997130352
 31
0.0
  0
LINE
  5
351
100
AcDbEntity
100
AcDbLine
  8
0
 62
3
420
65280
370
-1
 48
1.0
  6
BYLAYER
 10
5.9080145022967123
 20
17.2467097821514734
 30
0.0
 11
6.1645795058694848
 21
17.2467097889716037
 31
0.0
  0
LINE
  5
352
100
AcDbEntity
100
AcDbLine
  8
0
 62
3
420
65280
370
-1
 48
1.0
  6
BYLAYER
 10
5.9080145022967123
 20
19.1923929961626989
 30
0.0
 11
6.1645795058694848
 21
19.1923930029828291
 31
0.0
  0
LINE
  5
353
100
AcDbEntity
100
AcDbLine
  8
0
 62
3
420
65280
370
-1
 48
1.0
  6
BYLAYER
 10
-2.1583294476689883
 20
16.9323791435623257
 30
0.0
 11
-1.9017644440962158
 21
16.9323791503824559
 31
0.0
  0
LINE
  5
354
100
AcDbEntity
100
AcDbLine
  8
0
 62
3
420
65280
370
-1
 48
1.0
  6
BYLAYER
 10
-2.1583294476689883
 20
19.6623791435623261
 30
0.0
 11
-1.9017644440962158
 21
19.6623791503824563
 31
0.0
  0
LINE
  5
355
100
AcDbEntity
100
AcDbLine
  8
0
 62
3
420
65280
370
-1
 48
1.0
  6
BYLAYER
 10
5.9080145022967123
 20
21.0759375201552146
 30
0.0
 11
6.1645795058694848
 21
21.0759375269753448
 31
0.0
  0
LINE
  5
356
100
AcDbEntity
100
AcDbLine
  8
0
 62
3
420
65280
370
-1
 48
1.0
  6
BYLAYER
 10
5.926835704083155
 20
16.915328116899925
 30
0.0
 11
6.1457583040831576
 21
16.9153281168999889
 31
0.0
  0
LINE
  5
357
100
AcDbEntity
100
AcDbLine
  8
0
 62
3
420
65280
370
-1
 48
1.0
  6
BYLAYER
 10
5.926835704083155
 20
18.8610113309111505
 30
0.0
 11
6.1457583040831576
 21
18.8610113309112144
 31
0.0
  0
LINE
  5
358
100
AcDbEntity
100
AcDbLine
  8
0
 62
3
420
65280
370
-1
 48
1.0
  6
BYLAYER
 10
-2.1395082458825456
 20
16.6009974783107772
 30
0.0
 11
-1.920585645882543
 21
16.6009974783108412
 31
0.0
  0
LINE
  5
359
100
AcDbEntity
100
AcDbLine
  8
0
 62
3
420
65280
370
-1
 48
1.0
  6
BYLAYER
 10
-2.1395082458825456
 20
19.3309974783107776
 30
0.0
 11
-1.920585645882543
 21
19.3309974783108416
 31
0.0
  0
LINE
  5
35A
100
AcDbEntity
100
AcDbLine
  8
0
 62
3
420
65280
370
-1
 48
1.0
  6
BYLAYER
 10
5.926835704083155
 20
20.7445558549036662
 30
0.0
 11
6.1457583040831576
 21
20.7445558549037301
 31
0.0
  0
LINE
  5
35B
100
AcDbEntity
100
AcDbLine
  8
0
 62
3
420
65280
370
-1
 48
1.0
  6
BYLAYER
 10
-2.2506212294746972
 20
10.7958189022199473
 30
0.0
 11
-2.4846212294747017
 21
10.7958189022199473
 31
0.0
  0
LINE
  5
35C
100
AcDbEntity
100
AcDbLine
  8
0
 62
3
420
65280
370
-1
 48
1.0
  6
BYLAYER
 10
2.1179333295432952
 20
10.7958189022199473
 30
0.0
 11
2.3519333295432996
 21
10.7958189022199473
 31
0.0
  0
LINE
  5
35D
100
AcDbEntity
100
AcDbLine
  8
0
 62
3
420
65280
370
-1
 48
1.0
  6
BYLAYER
 10
-2.4846212294747017
 20
10.0490409880730276
 30
0.0
 11
-2.2506212294746972
 21
10.0490409880730276
 31
0.0
  0
LINE
  5
35E
100
AcDbEntity
100
AcDbLine
  8
0
 62
3
420
65280
370
-1
 48
1.0
  6
BYLAYER
 10
2.3519333295432996
 20
10.0490409880730276
 30
0.0
 11
2.1179333295432952
 21
10.0490409880730276
 31
0.0
  0
LINE
  5
35F
100
AcDbEntity
100
AcDbLine
  8
0
 62
3
420
65280
370
-1
 48
1.0
  6
BYLAYER
 10
-2.3676212294746972
 20
10.4799621226624549
 30
0.0
 11
-2.4846212294747017
 21
10.4799621226624549
 31
0.0
  0
LINE
  5
360
100
AcDbEntity
100
AcDbLine
  8
0
 62
3
420
65280
370
-1
 48
1.0
  6
BYLAYER
 10
2.2349333295432952
 20
10.4799621226624531
 30
0.0
 11
2.3519333295432996
 21
10.4799621226624531
 31
0.0
  0
LINE
  5
361
100
AcDbEntity
100
AcDbLine
  8
0
 62
3
420
65280
370
-1
 48
1.0
  6
BYLAYER
 10
-2.4846212294747017
 20
10.4799621226624549
 30
0.0
 11
-2.4846212294746972
 21
10.7958189022199473
 31
0.0
  0
LINE
  5
362
100
AcDbEntity
100
AcDbLine
  8
0
 62
3
420
65280
370
-1
 48
1.0
  6
BYLAYER
 10
2.3519333295432996
 20
10.4799621226624531
 30
0.0
 11
2.3519333295432951
 21
10.7958189022199473
 31
0.0
  0
LINE
  5
363
100
AcDbEntity
100
AcDbLine
  8
0
 62
3
420
65280
370
-1
 48
1.0
  6
BYLAYER
 10
-2.2506212294746972
 20
10.3249264012812496
 30
0.0
 11
-2.3676212294746972
 21
10.3249264012812496
 31
0.0
  0
LINE
  5
364
100
AcDbEntity
100
AcDbLine
  8
0
 62
3
420
65280
370
-1
 48
1.0
  6
BYLAYER
 10
2.1179333295432952
 20
10.3249264012812478
 30
0.0
 11
2.2349333295432952
 21
10.3249264012812478
 31
0.0
  0
LINE
  5
365
100
AcDbEntity
100
AcDbLine
  8
0
 62
3
420
65280
370
-1
 48
1.0
  6
BYLAYER
 10
-2.3676212294746972
 20
10.3249264012812496
 30
0.0
 11
-2.3676212294746972
 21
10.4799621226624549
 31
0.0
  0
LINE
  5
366
100
AcDbEntity
100
AcDbLine
  8
0
 62
3
420
65280
370
-1
 48
1.0
  6
BYLAYER
 10
2.2349333295432952
 20
10.3249264012812478
 30
0.0
 11
2.2349333295432952
 21
10.4799621226624531
 31
0.0
  0
LINE
  5
367
100
AcDbEntity
100
AcDbLine
  8
0
 62
3
420
65280
370
-1
 48
1.0
  6
BYLAYER
 10
-2.2506212294746972
 20
11.554389337491072
 30
0.0
 11
-2.7186212294747016
 21
11.5543893374910738
 31
0.0
  0
LINE
  5
368
100
AcDbEntity
100
AcDbLine
  8
0
 62
3
420
65280
370
-1
 48
1.0
  6
BYLAYER
 10
2.1179333295432952
 20
11.5543893374910702
 30
0.0
 11
2.5859333295432996
 21
11.554389337491072
 31
0.0
  0
LINE
  5
369
100
AcDbEntity
100
AcDbLine
  8
0
 62
3
420
65280
370
-1
 48
1.0
  6
BYLAYER
 10
-1.6653439499656968
 20
9.7786071880729324
 30
0.0
 11
-1.6653439499656968
 21
9.9138240880730173
 31
0.0
  0
LINE
  5
36A
100
AcDbEntity
100
AcDbLine
  8
0
 62
3
420
65280
370
-1
 48
1.0
  6
BYLAYER
 10
-1.6653439499657146
 20
9.9138240880730173
 30
0.0
 11
-3.5763439499657141
 21
9.9138240880730173
 31
0.0
  0
LINE
  5
36B
100
AcDbEntity
100
AcDbLine
  8
0
 62
3
420
65280
370
-1
 48
1.0
  6
BYLAYER
 10
-1.6653439499656968
 20
7.2771059762470562
 30
0.0
 11
-3.108621229474688
 21
7.2771059762470562
 31
0.0
  0
LINE
  5
36C
100
AcDbEntity
100
AcDbLine
  8
0
 62
3
420
65280
370
-1
 48
1.0
  6
BYLAYER
 10
1.5326560500342987
 20
9.9138240880730173
 30
0.0
 11
3.4436560500342992
 21
9.9138240880730173
 31
0.0
  0
LINE
  5
36D
100
AcDbEntity
100
AcDbLine
  8
0
 62
3
420
65280
370
-1
 48
1.0
  6
BYLAYER
 10
-3.1086212294746924
 20
7.277105976247058
 30
0.0
 11
-1.6653439499656923
 21
7.2771059762470562
 31
0.0
  0
LINE
  5
36E
100
AcDbEntity
100
AcDbLine
  8
0
 62
3
420
65280
370
-1
 48
1.0
  6
BYLAYER
 10
2.9759333295432997
 20
7.277105976247058
 30
0.0
 11
1.5326560500342987
 21
7.2771059762470545
 31
0.0
  0
LINE
  5
36F
100
AcDbEntity
100
AcDbLine
  8
0
 62
3
420
65280
370
-1
 48
1.0
  6
BYLAYER
 10
10.3012772795089962
 20
14.7897140636716209
 30
0.0
 11
10.3012772795089962
 21
14.978936012213806
 31
0.0
  0
LINE
  5
370
100
AcDbEntity
100
AcDbLine
  8
0
 62
3
420
65280
370
-1
 48
1.0
  6
BYLAYER
 10
10.3012772795089962
 20
16.7157207393689973
 30
0.0
 11
10.3012772795089962
 21
16.9049426879111842
 31
0.0
  0
LINE
  5
371
100
AcDbEntity
100
AcDbLine
  8
0
 62
3
420
65280
370
-1
 48
1.0
  6
BYLAYER
 10
10.3012772795089962
 20
18.6614039533802227
 30
0.0
 11
10.3012772795089962
 21
18.8506259019224096
 31
0.0
  0
LINE
  5
372
100
AcDbEntity
100
AcDbLine
  8
0
 62
3
420
65280
370
-1
 48
1.0
  6
BYLAYER
 10
5.6987227204910038
 20
18.6614039533802263
 30
0.0
 11
5.6987227204910038
 21
18.8506259019224096
 31
0.0
  0
LINE
  5
373
100
AcDbEntity
100
AcDbLine
  8
0
 62
3
420
65280
370
-1
 48
1.0
  6
BYLAYER
 10
5.6987227204910038
 20
16.7157207393689973
 30
0.0
 11
5.6987227204910038
 21
16.9049426879111842
 31
0.0
  0
LINE
  5
374
100
AcDbEntity
100
AcDbLine
  8
0
 62
3
420
65280
370
-1
 48
1.0
  6
BYLAYER
 10
5.6987227204910038
 20
14.7897140636716209
 30
0.0
 11
5.6987227204910038
 21
14.978936012213806
 31
0.0
  0
LINE
  5
375
100
AcDbEntity
100
AcDbLine
  8
0
 62
3
420
65280
370
-1
 48
1.0
  6
BYLAYER
 10
2.2349333295432952
 20
13.3298455767873367
 30
0.0
 11
2.2349333295432952
 21
13.5190675253295218
 31
0.0
  0
LINE
  5
376
100
AcDbEntity
100
AcDbLine
  8
0
 62
3
420
65280
370
-1
 48
1.0
  6
BYLAYER
 10
2.2349333295432952
 20
16.4013901007798495
 30
0.0
 11
2.2349333295432952
 21
16.5906120493220364
 31
0.0
  0
LINE
  5
377
100
AcDbEntity
100
AcDbLine
  8
0
 62
3
420
65280
370
-1
 48
1.0
  6
BYLAYER
 10
2.2349333295432952
 20
19.1313901007798499
 30
0.0
 11
2.2349333295432952
 21
19.3206120493220368
 31
0.0
  0
LINE
  5
378
100
AcDbEntity
100
AcDbLine
  8
0
 62
3
420
65280
370
-1
 48
1.0
  6
BYLAYER
 10
-2.3676212294746972
 20
19.1313901007798535
 30
0.0
 11
-2.3676212294746972
 21
19.3206120493220368
 31
0.0
  0
LINE
  5
379
100
AcDbEntity
100
AcDbLine
  8
0
 62
3
420
65280
370
-1
 48
1.0
  6
BYLAYER
 10
-2.3676212294746972
 20
16.4013901007798495
 30
0.0
 11
-2.3676212294746972
 21
16.5906120493220364
 31
0.0
  0
LINE
  5
37A
100
AcDbEntity
100
AcDbLine
  8
0
 62
3
420
65280
370
-1
 48
1.0
  6
BYLAYER
 10
-2.3676212294746972
 20
13.3298455767873367
 30
0.0
 11
-2.3676212294746972
 21
13.5190675253295218
 31
0.0
  0
LINE
  5
37B
100
AcDbEntity
100
AcDbLine
  8
0
 62
3
420
65280
370
-1
 48
1.0
  6
BYLAYER
 10
10.3012772795089962
 20
20.5449484773727384
 30
0.0
 11
10.3012772795089962
 21
20.7341704259149253
 31
0.0
  0
LINE
  5
37C
100
AcDbEntity
100
AcDbLine
  8
0
 62
3
420
65280
370
-1
 48
1.0
  6
BYLAYER
 10
5.6987227204910038
 20
20.544948477372742
 30
0.0
 11
5.6987227204910038
 21
20.7341704259149253
 31
0.0
  0
LINE
  5
37D
100
AcDbEntity
100
AcDbLine
  8
0
 62
3
420
65280
370
-1
 48
1.0
  6
BYLAYER
 10
5.6987227204910038
 20
14.978936012213806
 30
0.0
 11
5.8157227204910127
 21
14.978936012213806
 31
0.0
  0
LINE
  5
37E
100
AcDbEntity
100
AcDbLine
  8
0
 62
3
420
65280
370
-1
 48
1.0
  6
BYLAYER
 10
-2.3676212294746972
 20
13.5190675253295218
 30
0.0
 11
-2.2506212294746883
 21
13.5190675253295218
 31
0.0
  0
LINE
  5
37F
100
AcDbEntity
100
AcDbLine
  8
0
 62
3
420
65280
370
-1
 48
1.0
  6
BYLAYER
 10
10.1842772795089864
 20
14.978936012213806
 30
0.0
 11
10.1842772795089829
 21
15.2548214254220262
 31
0.0
  0
LINE
  5
380
100
AcDbEntity
100
AcDbLine
  8
0
 62
3
420
65280
370
-1
 48
1.0
  6
BYLAYER
 10
10.1842772795089864
 20
16.9049426879111842
 30
0.0
 11
10.1842772795089829
 21
17.1808281011194062
 31
0.0
  0
LINE
  5
381
100
AcDbEntity
100
AcDbLine
  8
0
 62
3
420
65280
370
-1
 48
1.0
  6
BYLAYER
 10
10.1842772795089864
 20
18.8506259019224096
 30
0.0
 11
10.1842772795089829
 21
19.1265113151306281
 31
0.0
  0
LINE
  5
382
100
AcDbEntity
100
AcDbLine
  8
0
 62
3
420
65280
370
-1
 48
1.0
  6
BYLAYER
 10
5.8157227204910127
 20
18.8506259019224096
 30
0.0
 11
5.8157227204910171
 21
19.1265113151306316
 31
0.0
  0
LINE
  5
383
100
AcDbEntity
100
AcDbLine
  8
0
 62
3
420
65280
370
-1
 48
1.0
  6
BYLAYER
 10
5.8157227204910127
 20
16.9049426879111842
 30
0.0
 11
5.8157227204910171
 21
17.1808281011194062
 31
0.0
  0
LINE
  5
384
100
AcDbEntity
100
AcDbLine
  8
0
 62
3
420
65280
370
-1
 48
1.0
  6
BYLAYER
 10
5.8157227204910127
 20
14.978936012213806
 30
0.0
 11
5.8157227204910171
 21
15.254821425422028
 31
0.0
  0
LINE
  5
385
100
AcDbEntity
100
AcDbLine
  8
0
 62
3
420
65280
370
-1
 48
1.0
  6
BYLAYER
 10
2.1179333295432863
 20
13.5190675253295218
 30
0.0
 11
2.1179333295432818
 21
13.7949529385377421
 31
0.0
  0
LINE
  5
386
100
AcDbEntity
100
AcDbLine
  8
0
 62
3
420
65280
370
-1
 48
1.0
  6
BYLAYER
 10
2.1179333295432863
 20
16.5906120493220364
 30
0.0
 11
2.1179333295432818
 21
16.8664974625302584
 31
0.0
  0
LINE
  5
387
100
AcDbEntity
100
AcDbLine
  8
0
 62
3
420
65280
370
-1
 48
1.0
  6
BYLAYER
 10
2.1179333295432863
 20
19.3206120493220368
 30
0.0
 11
2.1179333295432818
 21
19.5964974625302553
 31
0.0
  0
LINE
  5
388
100
AcDbEntity
100
AcDbLine
  8
0
 62
3
420
65280
370
-1
 48
1.0
  6
BYLAYER
 10
-2.2506212294746883
 20
19.3206120493220368
 30
0.0
 11
-2.2506212294746839
 21
19.5964974625302588
 31
0.0
  0
LINE
  5
389
100
AcDbEntity
100
AcDbLine
  8
0
 62
3
420
65280
370
-1
 48
1.0
  6
BYLAYER
 10
-2.2506212294746883
 20
16.5906120493220364
 30
0.0
 11
-2.2506212294746839
 21
16.8664974625302584
 31
0.0
  0
LINE
  5
38A
100
AcDbEntity
100
AcDbLine
  8
0
 62
3
420
65280
370
-1
 48
1.0
  6
BYLAYER
 10
-2.2506212294746883
 20
13.5190675253295218
 30
0.0
 11
-2.2506212294746839
 21
13.7949529385377438
 31
0.0
  0
LINE
  5
38B
100
AcDbEntity
100
AcDbLine
  8
0
 62
3
420
65280
370
-1
 48
1.0
  6
BYLAYER
 10
10.1842772795089864
 20
20.7341704259149253
 30
0.0
 11
10.1842772795089829
 21
21.0100558391231438
 31
0.0
  0
LINE
  5
38C
100
AcDbEntity
100
AcDbLine
  8
0
 62
3
420
65280
370
-1
 48
1.0
  6
BYLAYER
 10
5.8157227204910127
 20
20.7341704259149253
 30
0.0
 11
5.8157227204910171
 21
21.0100558391231473
 31
0.0
  0
LINE
  5
38D
100
AcDbEntity
100
AcDbLine
  8
0
 62
3
420
65280
370
-1
 48
1.0
  6
BYLAYER
 10
-2.7186212294747016
 20
11.5543893374910738
 30
0.0
 11
-2.7186212294747016
 21
10.0490409880730276
 31
0.0
  0
LINE
  5
38E
100
AcDbEntity
100
AcDbLine
  8
0
 62
3
420
65280
370
-1
 48
1.0
  6
BYLAYER
 10
-2.2506212294746972
 20
10.3249264012812496
 30
0.0
 11
-2.2506212294746972
 21
10.0490409880730276
 31
0.0
  0
LINE
  5
38F
100
AcDbEntity
100
AcDbLine
  8
0
 62
3
420
65280
370
-1
 48
1.0
  6
BYLAYER
 10
2.5859333295432996
 20
11.554389337491072
 30
0.0
 11
2.5859333295432996
 21
10.0490409880730276
 31
0.0
  0
LINE
  5
390
100
AcDbEntity
100
AcDbLine
  8
0
 62
3
420
65280
370
-1
 48
1.0
  6
BYLAYER
 10
2.1179333295432952
 20
10.3249264012812478
 30
0.0
 11
2.1179333295432952
 21
10.0490409880730276
 31
0.0
  0
LINE
  5
391
100
AcDbEntity
100
AcDbLine
  8
0
 62
3
420
65280
370
-1
 48
1.0
  6
BYLAYER
 10
2.1179333295432952
 20
10.0490409880730276
 30
0.0
 11
2.5859333295432996
 21
10.0490409880730294
 31
0.0
  0
LINE
  5
392
100
AcDbEntity
100
AcDbLine
  8
0
 62
3
420
65280
370
-1
 48
1.0
  6
BYLAYER
 10
-2.2506212294746972
 20
10.0490409880730276
 30
0.0
 11
-2.7186212294747016
 21
10.0490409880730294
 31
0.0
  0
LINE
  5
393
100
AcDbEntity
100
AcDbLine
  8
0
 62
3
420
65280
370
-1
 48
1.0
  6
BYLAYER
 10
3.0812333295432972
 20
10.0490409880730258
 30
0.0
 11
3.0812333295433061
 21
11.554389337491072
 31
0.0
  0
LINE
  5
394
100
AcDbEntity
100
AcDbLine
  8
0
 62
3
420
65280
370
-1
 48
1.0
  6
BYLAYER
 10
-3.3309212294747077
 20
10.0490409880730276
 30
0.0
 11
-3.3309212294746988
 21
11.5543893374910738
 31
0.0
  0
LINE
  5
395
100
AcDbEntity
100
AcDbLine
  8
0
 62
3
420
65280
370
-1
 48
1.0
  6
BYLAYER
 10
3.1982333295433016
 20
11.554389337491072
 30
0.0
 11
3.1982333295433061
 21
10.0490409880730258
 31
0.0
  0
LINE
  5
396
100
AcDbEntity
100
AcDbLine
  8
0
 62
3
420
65280
370
-1
 48
1.0
  6
BYLAYER
 10
-3.2139212294747033
 20
11.5543893374910738
 30
0.0
 11
-3.2139212294746988
 21
10.0490409880730276
 31
0.0
  0
LINE
  5
397
100
AcDbEntity
100
AcDbLine
  8
0
 62
3
420
65280
370
-1
 48
1.0
  6
BYLAYER
 10
1.5326560500343032
 20
9.7786071880729253
 30
0.0
 11
2.2542946897888059
 21
9.7786071880729288
 31
0.0
  0
LINE
  5
398
100
AcDbEntity
100
AcDbLine
  8
0
 62
3
420
65280
370
-1
 48
1.0
  6
BYLAYER
 10
-1.6653439499656968
 20
9.7786071880729253
 30
0.0
 11
-2.3869825897201991
 21
9.7786071880729306
 31
0.0
  0
LINE
  5
399
100
AcDbEntity
100
AcDbLine
  8
0
 62
3
420
65280
370
-1
 48
1.0
  6
BYLAYER
 10
-1.6653439499656923
 20
7.4123228762471474
 30
0.0
 11
-2.3869825897201946
 21
7.4123228762471456
 31
0.0
  0
LINE
  5
39A
100
AcDbEntity
100
AcDbLine
  8
0
 62
3
420
65280
370
-1
 48
1.0
  6
BYLAYER
 10
1.5326560500342987
 20
7.4123228762471474
 30
0.0
 11
2.2542946897888014
 21
7.4123228762471456
 31
0.0
  0
LINE
  5
39B
100
AcDbEntity
100
AcDbLine
  8
0
 62
3
420
65280
370
-1
 48
1.0
  6
BYLAYER
 10
1.5326560500343032
 20
9.2793404270525084
 30
0.0
 11
2.2542946897888103
 21
9.7786071880729288
 31
0.0
  0
LINE
  5
39C
100
AcDbEntity
100
AcDbLine
  8
0
 62
3
420
65280
370
-1
 48
1.0
  6
BYLAYER
 10
-1.6653439499656968
 20
9.2793404270525102
 30
0.0
 11
-2.3869825897202035
 21
9.7786071880729306
 31
0.0
  0
LINE
  5
39D
100
AcDbEntity
100
AcDbLine
  8
0
 62
3
420
65280
370
-1
 48
1.0
  6
BYLAYER
 10
-1.6653439499656923
 20
7.9115896372675651
 30
0.0
 11
-2.3869825897201991
 21
7.4123228762471456
 31
0.0
  0
LINE
  5
39E
100
AcDbEntity
100
AcDbLine
  8
0
 62
3
420
65280
370
-1
 48
1.0
  6
BYLAYER
 10
1.5326560500342987
 20
7.9115896372675651
 30
0.0
 11
2.2542946897888059
 21
7.4123228762471456
 31
0.0
  0
LINE
  5
39F
100
AcDbEntity
100
AcDbLine
  8
0
 62
3
420
65280
370
-1
 48
1.0
  6
BYLAYER
 10
1.5326560500342987
 20
7.2771059762470545
 30
0.0
 11
1.5326560500342987
 21
7.4123228762471474
 31
0.0
  0
LINE
  5
3A0
100
AcDbEntity
100
AcDbLine
  8
0
 62
3
420
65280
370
-1
 48
1.0
  6
BYLAYER
 10
1.5326560500343032
 20
9.2793404270525084
 30
0.0
 11
1.5326560500342987
 21
7.9115896372675651
 31
0.0
  0
LINE
  5
3A1
100
AcDbEntity
100
AcDbLine
  8
0
 62
3
420
65280
370
-1
 48
1.0
  6
BYLAYER
 10
1.5326560500343032
 20
9.7786071880729253
 30
0.0
 11
1.5326560500342987
 21
9.9138240880730173
 31
0.0
  0
LINE
  5
3A2
100
AcDbEntity
100
AcDbLine
  8
0
 62
3
420
65280
370
-1
 48
1.0
  6
BYLAYER
 10
-1.6653439499656968
 20
7.2771059762470562
 30
0.0
 11
-1.6653439499656923
 21
7.4123228762471474
 31
0.0
  0
LINE
  5
3A3
100
AcDbEntity
100
AcDbLine
  8
0
 62
3
420
65280
370
-1
 48
1.0
  6
BYLAYER
 10
-1.6653439499656923
 20
7.9115896372675651
 30
0.0
 11
-1.6653439499656968
 21
9.2793404270525102
 31
0.0
  0
LINE
  5
3A4
100
AcDbEntity
100
AcDbLine
  8
0
 62
3
420
65280
370
-1
 48
1.0
  6
BYLAYER
 10
2.9759333295432997
 20
7.277105976247058
 30
0.0
 11
2.9759333295432997
 21
7.1418890762470557
 31
0.0
  0
LINE
  5
3A5
100
AcDbEntity
100
AcDbLine
  8
0
 62
3
420
65280
370
-1
 48
1.0
  6
BYLAYER
 10
2.9759333295432997
 20
7.1418890762470557
 30
0.0
 11
-3.108621229474688
 21
7.1418890762470557
 31
0.0
  0
LINE
  5
3A6
100
AcDbEntity
100
AcDbLine
  8
0
 62
3
420
65280
370
-1
 48
1.0
  6
BYLAYER
 10
-3.108621229474688
 20
7.1418890762470557
 30
0.0
 11
-3.108621229474688
 21
7.277105976247058
 31
0.0
  0
LINE
  5
3A7
100
AcDbEntity
100
AcDbLine
  8
0
 62
3
420
65280
370
-1
 48
1.0
  6
BYLAYER
 10
-3.5763439499657141
 20
11.7864416234071108
 30
0.0
 11
-2.0163439499657145
 21
11.7864416234071108
 31
0.0
  0
LINE
  5
3A8
100
AcDbEntity
100
AcDbLine
  8
0
 62
3
420
65280
370
-1
 48
1.0
  6
BYLAYER
 10
3.4436560500342992
 20
11.7864416234071108
 30
0.0
 11
1.8836560500342987
 21
11.7864416234071108
 31
0.0
  0
LINE
  5
3A9
100
AcDbEntity
100
AcDbLine
  8
0
 62
3
420
65280
370
-1
 48
1.0
  6
BYLAYER
 10
-3.9663439499657098
 20
10.3819784719065407
 30
0.0
 11
-3.9663439499657098
 21
11.3182872395735874
 31
0.0
  0
LINE
  5
3AA
100
AcDbEntity
100
AcDbLine
  8
0
 62
3
420
65280
370
-1
 48
1.0
  6
BYLAYER
 10
3.8336560500342993
 20
10.3819784719065389
 30
0.0
 11
3.8336560500342993
 21
11.3182872395735856
 31
0.0
  0
LINE
  5
3AB
100
AcDbEntity
100
AcDbLine
  8
0
 62
3
420
65280
370
-1
 48
1.0
  6
BYLAYER
 10
-3.5763439499657097
 20
9.9138240880730173
 30
0.0
 11
-3.9663439499657098
 21
10.3819784719065407
 31
0.0
  0
LINE
  5
3AC
100
AcDbEntity
100
AcDbLine
  8
0
 62
3
420
65280
370
-1
 48
1.0
  6
BYLAYER
 10
3.4436560500342992
 20
9.9138240880730173
 30
0.0
 11
3.8336560500342993
 21
10.3819784719065389
 31
0.0
  0
LINE
  5
3AD
100
AcDbEntity
100
AcDbLine
  8
0
 62
3
420
65280
370
-1
 48
1.0
  6
BYLAYER
 10
-3.9663439499657098
 20
11.3182872395735874
 30
0.0
 11
-3.5763439499657053
 21
11.7864416234071108
 31
0.0
  0
LINE
  5
3AE
100
AcDbEntity
100
AcDbLine
  8
0
 62
3
420
65280
370
-1
 48
1.0
  6
BYLAYER
 10
3.8336560500342993
 20
11.3182872395735856
 30
0.0
 11
3.4436560500342948
 21
11.7864416234071108
 31
0.0
  0
ENDSEC
  0
SECTION
  2
OBJECTS
  0
DICTIONARY
  5
C
100
AcDbDictionary
280
0
281
1
  3
ACAD_GROUP
350
D
  3
ACAD_LAYOUT
350
1A
  3
ACAD_MLINESTYLE
350
17
  3
ACAD_PLOTSETTINGS
350
19
  3
ACAD_PLOTSTYLENAME
350
E
  3
AcDbVariableDictionary
350
3AF
  3
QCAD_OBJECTS
350
3B0
  0
DICTIONARY
  5
D
100
AcDbDictionary
280
0
281
1
  0
ACDBDICTIONARYWDFLT
  5
E
100
AcDbDictionary
281
1
  3
Normal
350
F
100
AcDbDictionaryWithDefault
340
F
  0
ACDBPLACEHOLDER
  5
F
  0
DICTIONARY
  5
17
100
AcDbDictionary
280
0
281
1
  3
Standard
350
18
  0
MLINESTYLE
  5
18
100
AcDbMlineStyle
  2
STANDARD
 70
0
  3

 62
256
 51
90.0
 52
90.0
 71
2
 49
0.5
 62
256
  6
BYLAYER
 49
-0.5
 62
256
  6
BYLAYER
  0
DICTIONARY
  5
19
100
AcDbDictionary
280
0
281
1
  0
DICTIONARY
  5
1A
100
AcDbDictionary
281
1
  3
Layout1
350
1E
  3
Layout2
350
26
  3
Model
350
22
  0
LAYOUT
  5
1E
100
AcDbPlotSettings
  1

  2
none_device
  4

  6

 40
0.0
 41
0.0
 42
0.0
 43
0.0
 44
0.0
 45
0.0
 46
0.0
 47
0.0
 48
0.0
 49
0.0
140
0.0
141
0.0
142
1.0
143
1.0
 70
688
 72
0
 73
0
 74
5
  7

 75
16
147
1.0
148
0.0
149
0.0
100
AcDbLayout
  1
Layout1
 70
1
 71
1
 10
0.0
 20
0.0
 11
420.0
 21
297.0
 12
0.0
 22
0.0
 32
0.0
 14
100000000000000000000.0
 24
100000000000000000000.0
 34
100000000000000000000.0
 15
-100000000000000000000.0
 25
-100000000000000000000.0
 35
-100000000000000000000.0
146
0.0
 13
0.0
 23
0.0
 33
0.0
 16
1.0
 26
0.0
 36
0.0
 17
0.0
 27
1.0
 37
0.0
 76
0
330
1B
  0
LAYOUT
  5
22
100
AcDbPlotSettings
  1

  2
none_device
  4

  6

 40
0.0
 41
0.0
 42
0.0
 43
0.0
 44
0.0
 45
0.0
 46
0.0
 47
0.0
 48
0.0
 49
0.0
140
0.0
141
0.0
142
1.0
143
1.0
 70
1712
 72
0
 73
0
 74
0
  7

 75
0
147
1.0
148
0.0
149
0.0
100
AcDbLayout
  1
Model
 70
1
 71
0
 10
0.0
 20
0.0
 11
12.0
 21
9.0
 12
0.0
 22
0.0
 32
0.0
 14
0.0
 24
0.0
 34
0.0
 15
0.0
 25
0.0
 35
0.0
146
0.0
 13
0.0
 23
0.0
 33
0.0
 16
1.0
 26
0.0
 36
0.0
 17
0.0
 27
1.0
 37
0.0
 76
0
330
1F
  0
LAYOUT
  5
26
100
AcDbPlotSettings
  1

  2
none_device
  4

  6

 40
0.0
 41
0.0
 42
0.0
 43
0.0
 44
0.0
 45
0.0
 46
0.0
 47
0.0
 48
0.0
 49
0.0
140
0.0
141
0.0
142
1.0
143
1.0
 70
688
 72
0
 73
0
 74
5
  7

 75
16
147
1.0
148
0.0
149
0.0
100
AcDbLayout
  1
Layout2
 70
1
 71
2
 10
0.0
 20
0.0
 11
12.0
 21
9.0
 12
0.0
 22
0.0
 32
0.0
 14
0.0
 24
0.0
 34
0.0
 15
0.0
 25
0.0
 35
0.0
146
0.0
 13
0.0
 23
0.0
 33
0.0
 16
1.0
 26
0.0
 36
0.0
 17
0.0
 27
1.0
 37
0.0
 76
0
330
23
  0
DICTIONARY
  5
3AF
100
AcDbDictionary
281
1
  3
DIMASSOC
350
3B2
  3
HIDETEXT
350
3B1
  0
DICTIONARYVAR
  5
3B1
100
DictionaryVariables
280
0
  1
2
  0
DICTIONARYVAR
  5
3B2
100
DictionaryVariables
280
0
  1
1
  0
DICTIONARY
  5
3B0
100
AcDbDictionary
281
1
  3
ColorSettings/BackgroundColor
350
3B3
  3
ColorSettings/ColorMode
350
3B4
  3
Grid/DisplayGrid00
350
3B5
  3
Grid/DisplayGrid01
350
3B6
  3
Grid/DisplayGrid02
350
3B7
  3
Grid/DisplayGrid03
350
3B8
  3
Grid/GridSpacingX00
350
3B9
  3
Grid/GridSpacingX01
350
3BA
  3
Grid/GridSpacingX02
350
3BB
  3
Grid/GridSpacingX03
350
3BC
  3
Grid/GridSpacingY00
350
3BD
  3
Grid/GridSpacingY01
350
3BE
  3
Grid/GridSpacingY02
350
3BF
  3
Grid/GridSpacingY03
350
3C0
  3
Grid/IsometricGrid00
350
3C1
  3
Grid/IsometricGrid01
350
3C2
  3
Grid/IsometricGrid02
350
3C3
  3
Grid/IsometricGrid03
350
3C4
  3
Grid/IsometricProjection00
350
3C5
  3
Grid/IsometricProjection01
350
3C6
  3
Grid/IsometricProjection02
350
3C7
  3
Grid/IsometricProjection03
350
3C8
  3
Grid/MetaGridSpacingX00
350
3C9
  3
Grid/MetaGridSpacingX01
350
3CA
  3
Grid/MetaGridSpacingX02
350
3CB
  3
Grid/MetaGridSpacingX03
350
3CC
  3
Grid/MetaGridSpacingY00
350
3CD
  3
Grid/MetaGridSpacingY01
350
3CE
  3
Grid/MetaGridSpacingY02
350
3CF
  3
Grid/MetaGridSpacingY03
350
3D0
  3
MultiPageSettings/Columns
350
3D1
  3
MultiPageSettings/GlueMarginsBottom
350
3D2
  3
MultiPageSettings/GlueMarginsLeft
350
3D3
  3
MultiPageSettings/GlueMarginsRight
350
3D4
  3
MultiPageSettings/GlueMarginsTop
350
3D5
  3
MultiPageSettings/PrintCropMarks
350
3D6
  3
MultiPageSettings/Rows
350
3D7
  3
PageSettings/OffsetX
350
3D8
  3
PageSettings/OffsetY
350
3D9
  3
PageSettings/PageOrientation
350
3DA
  3
PageSettings/PaperHeight
350
3DB
  3
PageSettings/PaperWidth
350
3DC
  3
PageSettings/Scale
350
3DD
  3
PageSettings/ShowPaperBorders
350
3DE
  3
QCADVersion
350
3DF
  3
UnitSettings/PaperUnit
350
3E0
  0
XRECORD
  5
3B3
330
3B0
100
AcDbXrecord
280
1
1000
White
  0
XRECORD
  5
3B4
330
3B0
100
AcDbXrecord
280
1
1000
FullColor
  0
XRECORD
  5
3B5
330
3B0
100
AcDbXrecord
280
1
290
1
  0
XRECORD
  5
3B6
330
3B0
100
AcDbXrecord
280
1
290
1
  0
XRECORD
  5
3B7
330
3B0
100
AcDbXrecord
280
1
290
1
  0
XRECORD
  5
3B8
330
3B0
100
AcDbXrecord
280
1
290
1
  0
XRECORD
  5
3B9
330
3B0
100
AcDbXrecord
280
1
1000
auto
  0
XRECORD
  5
3BA
330
3B0
100
AcDbXrecord
280
1
1000
auto
  0
XRECORD
  5
3BB
330
3B0
100
AcDbXrecord
280
1
1000
auto
  0
XRECORD
  5
3BC
330
3B0
100
AcDbXrecord
280
1
1000
auto
  0
XRECORD
  5
3BD
330
3B0
100
AcDbXrecord
280
1
1000
auto
  0
XRECORD
  5
3BE
330
3B0
100
AcDbXrecord
280
1
1000
auto
  0
XRECORD
  5
3BF
330
3B0
100
AcDbXrecord
280
1
1000
auto
  0
XRECORD
  5
3C0
330
3B0
100
AcDbXrecord
280
1
1000
auto
  0
XRECORD
  5
3C1
330
3B0
100
AcDbXrecord
280
1
290
0
  0
XRECORD
  5
3C2
330
3B0
100
AcDbXrecord
280
1
290
0
  0
XRECORD
  5
3C3
330
3B0
100
AcDbXrecord
280
1
290
0
  0
XRECORD
  5
3C4
330
3B0
100
AcDbXrecord
280
1
290
0
  0
XRECORD
  5
3C5
330
3B0
100
AcDbXrecord
280
1
 90
0
  0
XRECORD
  5
3C6
330
3B0
100
AcDbXrecord
280
1
 90
0
  0
XRECORD
  5
3C7
330
3B0
100
AcDbXrecord
280
1
 90
0
  0
XRECORD
  5
3C8
330
3B0
100
AcDbXrecord
280
1
 90
0
  0
XRECORD
  5
3C9
330
3B0
100
AcDbXrecord
280
1
1000
auto
  0
XRECORD
  5
3CA
330
3B0
100
AcDbXrecord
280
1
1000
auto
  0
XRECORD
  5
3CB
330
3B0
100
AcDbXrecord
280
1
1000
auto
  0
XRECORD
  5
3CC
330
3B0
100
AcDbXrecord
280
1
1000
auto
  0
XRECORD
  5
3CD
330
3B0
100
AcDbXrecord
280
1
1000
auto
  0
XRECORD
  5
3CE
330
3B0
100
AcDbXrecord
280
1
1000
auto
  0
XRECORD
  5
3CF
330
3B0
100
AcDbXrecord
280
1
1000
auto
  0
XRECORD
  5
3D0
330
3B0
100
AcDbXrecord
280
1
1000
auto
  0
XRECORD
  5
3D1
330
3B0
100
AcDbXrecord
280
1
 90
1
  0
XRECORD
  5
3D2
330
3B0
100
AcDbXrecord
280
1
 40
0.5
  0
XRECORD
  5
3D3
330
3B0
100
AcDbXrecord
280
1
 40
0.5
  0
XRECORD
  5
3D4
330
3B0
100
AcDbXrecord
280
1
 40
0.5
  0
XRECORD
  5
3D5
330
3B0
100
AcDbXrecord
280
1
 40
0.5
  0
XRECORD
  5
3D6
330
3B0
100
AcDbXrecord
280
1
290
0
  0
XRECORD
  5
3D7
330
3B0
100
AcDbXrecord
280
1
 90
1
  0
XRECORD
  5
3D8
330
3B0
100
AcDbXrecord
280
1
 40
0.0
  0
XRECORD
  5
3D9
330
3B0
100
AcDbXrecord
280
1
 40
0.0
  0
XRECORD
  5
3DA
330
3B0
100
AcDbXrecord
280
1
1000
Portrait
  0
XRECORD
  5
3DB
330
3B0
100
AcDbXrecord
280
1
 40
11.6929133858268006
  0
XRECORD
  5
3DC
330
3B0
100
AcDbXrecord
280
1
 40
8.2677165354330704
  0
XRECORD
  5
3DD
330
3B0
100
AcDbXrecord
280
1
1000
1:1
  0
XRECORD
  5
3DE
330
3B0
100
AcDbXrecord
280
1
290
1
  0
XRECORD
  5
3DF
330
3B0
100
AcDbXrecord
280
1
1000
3.11.3
  0
XRECORD
  5
3E0
330
3B0
100
AcDbXrecord
280
1
 90
1
  0
ENDSEC
  0
EOF
